999
dxfrw 0.5.11
0
SECTION
2
HEADER
9
$ACADVER
1
AC1021
9
$HANDSEED
5
20000
9
$DWGCODEPAGE
3
ANSI_1252
9
$INSBASE
10
0
20
0
30
0
9
$EXTMIN
10
10000000000
20
10000000000
30
0
9
$EXTMAX
10
-10000000000
20
-10000000000
30
0
9
$LIMMIN
10
0
20
0
9
$LIMMAX
10
420
20
297
9
$ORTHOMODE
70
0
9
$LTSCALE
40
1
9
$TEXTSTYLE
7
STANDARD
9
$CLAYER
8
dim
9
$DIMASZ
40
2.5
9
$DIMLFAC
40
1
9
$DIMSCALE
40
1
9
$DIMEXO
40
0.625
9
$DIMEXE
40
1.25
9
$DIMTXT
40
2.5
9
$DIMTSZ
40
0
9
$DIMAUNIT
70
0
9
$DIMADEC
70
2
9
$DIMLUNIT
70
2
9
$DIMSTYLE
2
Standard
9
$DIMGAP
40
0.625
9
$DIMTIH
70
0
9
$LUNITS
70
2
9
$LUPREC
70
0
9
$AUNITS
70
0
9
$AUPREC
70
2
9
$SPLINESEGS
70
8
9
$GRIDMODE
70
1
9
$SNAPSTYLE
70
0
9
$GRIDUNIT
10
0
20
0
9
$PINSBASE
10
0
20
0
30
0
9
$PLIMMIN
10
0
20
0
9
$PLIMMAX
10
210
20
297
9
$INSUNITS
70
0
9
$PSVPSCALE
40
1
0
ENDSEC
0
SECTION
2
CLASSES
0
ENDSEC
0
SECTION
2
TABLES
0
TABLE
2
VPORT
5
8
330
0
100
AcDbSymbolTable
70
1
0
VPORT
5
31
330
2
100
AcDbSymbolTableRecord
100
AcDbViewportTableRecord
2
*ACTIVE
70
0
10
0
20
0
11
1
21
1
12
63.0342763876
22
38.8544613712
13
0
23
0
14
10
24
10
15
10
25
10
16
0
26
0
36
1
17
0
27
0
37
0
40
156.585146899
41
1.66666666667
42
50
43
0
44
0
50
0
51
0
71
0
72
100
73
1
74
3
75
0
76
1
77
0
78
0
281
0
65
1
110
0
120
0
130
0
111
1
121
0
131
0
112
0
122
1
132
0
79
0
146
0
348
10020
60
7
61
5
292
1
282
1
141
0
142
0
63
250
421
3358443
0
ENDTAB
0
TABLE
2
LTYPE
5
5
330
0
100
AcDbSymbolTable
70
4
0
LTYPE
5
14
330
5
100
AcDbSymbolTableRecord
100
AcDbLinetypeTableRecord
2
ByBlock
70
0
3

72
65
73
0
40
0
0
LTYPE
5
15
330
5
100
AcDbSymbolTableRecord
100
AcDbLinetypeTableRecord
2
ByLayer
70
0
3

72
65
73
0
40
0
0
LTYPE
5
16
330
5
100
AcDbSymbolTableRecord
100
AcDbLinetypeTableRecord
2
Continuous
70
0
3
Solid line
72
65
73
0
40
0
0
LTYPE
5
32
330
5
100
AcDbSymbolTableRecord
100
AcDbLinetypeTableRecord
2
DOT
70
0
3
Dot . . . . . . . . . . . . . . . . . . . . . .
72
65
73
2
40
6.35
49
0
74
0
49
-6.35
74
0
0
LTYPE
5
33
330
5
100
AcDbSymbolTableRecord
100
AcDbLinetypeTableRecord
2
DOT2
70
0
3
Dot (.5x) .....................................
72
65
73
2
40
3.175
49
0
74
0
49
-3.175
74
0
0
LTYPE
5
34
330
5
100
AcDbSymbolTableRecord
100
AcDbLinetypeTableRecord
2
DOTX2
70
0
3
Dot (2x) .  .  .  .  .  .  .  .  .  .  .  .  .
72
65
73
2
40
12.7
49
0
74
0
49
-12.7
74
0
0
LTYPE
5
35
330
5
100
AcDbSymbolTableRecord
100
AcDbLinetypeTableRecord
2
DASHED
70
0
3
Dot . . . . . . . . . . . . . . . . . . . . . .
72
65
73
2
40
19.05
49
12.7
74
0
49
-6.35
74
0
0
LTYPE
5
36
330
5
100
AcDbSymbolTableRecord
100
AcDbLinetypeTableRecord
2
DASHED2
70
0
3
Dashed (.5x) _ _ _ _ _ _ _ _ _ _ _ _ _ _ _ _ _
72
65
73
2
40
9.525
49
6.35
74
0
49
-3.175
74
0
0
LTYPE
5
37
330
5
100
AcDbSymbolTableRecord
100
AcDbLinetypeTableRecord
2
DASHEDX2
70
0
3
Dashed (2x) ____  ____  ____  ____  ____  ___
72
65
73
2
40
38.1
49
25.4
74
0
49
-12.7
74
0
0
LTYPE
5
38
330
5
100
AcDbSymbolTableRecord
100
AcDbLinetypeTableRecord
2
DASHDOT
70
0
3
Dash dot __ . __ . __ . __ . __ . __ . __ . __
72
65
73
4
40
25.4
49
12.7
74
0
49
-6.35
74
0
49
0
74
0
49
-6.35
74
0
0
LTYPE
5
39
330
5
100
AcDbSymbolTableRecord
100
AcDbLinetypeTableRecord
2
DASHDOT2
70
0
3
Dash dot (.5x) _._._._._._._._._._._._._._._.
72
65
73
4
40
12.7
49
6.35
74
0
49
-3.175
74
0
49
0
74
0
49
-3.175
74
0
0
LTYPE
5
3A
330
5
100
AcDbSymbolTableRecord
100
AcDbLinetypeTableRecord
2
DASHDOTX2
70
0
3
Dash dot (2x) ____  .  ____  .  ____  .  ___
72
65
73
4
40
50.8
49
25.4
74
0
49
-12.7
74
0
49
0
74
0
49
-12.7
74
0
0
LTYPE
5
3B
330
5
100
AcDbSymbolTableRecord
100
AcDbLinetypeTableRecord
2
DIVIDE
70
0
3
Divide ____ . . ____ . . ____ . . ____ . . ____
72
65
73
6
40
31.75
49
12.7
74
0
49
-6.35
74
0
49
0
74
0
49
-6.35
74
0
49
0
74
0
49
-6.35
74
0
0
LTYPE
5
3C
330
5
100
AcDbSymbolTableRecord
100
AcDbLinetypeTableRecord
2
DIVIDE2
70
0
3
Divide (.5x) __..__..__..__..__..__..__..__.._
72
65
73
6
40
15.875
49
6.35
74
0
49
-3.175
74
0
49
0
74
0
49
-3.175
74
0
49
0
74
0
49
-3.175
74
0
0
LTYPE
5
3D
330
5
100
AcDbSymbolTableRecord
100
AcDbLinetypeTableRecord
2
DIVIDEX2
70
0
3
Divide (2x) ________  .  .  ________  .  .  _
72
65
73
6
40
63.5
49
25.4
74
0
49
-12.7
74
0
49
0
74
0
49
-12.7
74
0
49
0
74
0
49
-12.7
74
0
0
LTYPE
5
3E
330
5
100
AcDbSymbolTableRecord
100
AcDbLinetypeTableRecord
2
BORDER
70
0
3
Border __ __ . __ __ . __ __ . __ __ . __ __ .
72
65
73
6
40
44.45
49
12.7
74
0
49
-6.35
74
0
49
12.7
74
0
49
-6.35
74
0
49
0
74
0
49
-6.35
74
0
0
LTYPE
5
3F
330
5
100
AcDbSymbolTableRecord
100
AcDbLinetypeTableRecord
2
BORDER2
70
0
3
Border (.5x) __.__.__.__.__.__.__.__.__.__.__.
72
65
73
6
40
22.225
49
6.35
74
0
49
-3.175
74
0
49
6.35
74
0
49
-3.175
74
0
49
0
74
0
49
-3.175
74
0
0
LTYPE
5
40
330
5
100
AcDbSymbolTableRecord
100
AcDbLinetypeTableRecord
2
BORDERX2
70
0
3
Border (2x) ____  ____  .  ____  ____  .  ___
72
65
73
6
40
88.9
49
25.4
74
0
49
-12.7
74
0
49
25.4
74
0
49
-12.7
74
0
49
0
74
0
49
-12.7
74
0
0
LTYPE
5
41
330
5
100
AcDbSymbolTableRecord
100
AcDbLinetypeTableRecord
2
CENTER
70
0
3
Center ____ _ ____ _ ____ _ ____ _ ____ _ ____
72
65
73
4
40
50.8
49
31.75
74
0
49
-6.35
74
0
49
6.35
74
0
49
-6.35
74
0
0
LTYPE
5
42
330
5
100
AcDbSymbolTableRecord
100
AcDbLinetypeTableRecord
2
CENTER2
70
0
3
Center (.5x) ___ _ ___ _ ___ _ ___ _ ___ _ ___
72
65
73
4
40
28.575
49
19.05
74
0
49
-3.175
74
0
49
3.175
74
0
49
-3.175
74
0
0
LTYPE
5
43
330
5
100
AcDbSymbolTableRecord
100
AcDbLinetypeTableRecord
2
CENTERX2
70
0
3
Center (2x) ________  __  ________  __  _____
72
65
73
4
40
101.6
49
63.5
74
0
49
-12.7
74
0
49
12.7
74
0
49
-12.7
74
0
0
ENDTAB
0
TABLE
2
LAYER
5
2
330
0
100
AcDbSymbolTable
70
1
0
LAYER
5
10
330
2
100
AcDbSymbolTableRecord
100
AcDbLayerTableRecord
2
0
70
0
62
7
6
CONTINUOUS
370
25
390
F
0
LAYER
5
44
330
2
100
AcDbSymbolTableRecord
100
AcDbLayerTableRecord
2
base
70
0
62
7
6
CENTER
370
0
390
F
0
LAYER
5
45
330
2
100
AcDbSymbolTableRecord
100
AcDbLayerTableRecord
2
dim
70
0
62
7
6
CONTINUOUS
370
-3
390
F
0
ENDTAB
0
TABLE
2
STYLE
5
3
330
0
100
AcDbSymbolTable
70
3
0
STYLE
5
46
330
2
100
AcDbSymbolTableRecord
100
AcDbTextStyleTableRecord
2
Standard
70
0
40
0
41
1
50
0
71
0
42
1
3
txt
4

0
ENDTAB
0
TABLE
2
VIEW
5
6
330
0
100
AcDbSymbolTable
70
0
0
ENDTAB
0
TABLE
2
UCS
5
7
330
0
100
AcDbSymbolTable
70
0
0
ENDTAB
0
TABLE
2
APPID
5
9
330
0
100
AcDbSymbolTable
70
1
0
APPID
5
12
330
9
100
AcDbSymbolTableRecord
100
AcDbRegAppTableRecord
2
ACAD
70
0
0
ENDTAB
0
TABLE
2
DIMSTYLE
5
A
330
0
100
AcDbSymbolTable
70
1
100
AcDbDimStyleTable
71
1
0
DIMSTYLE
105
47
330
A
100
AcDbSymbolTableRecord
100
AcDbDimStyleTableRecord
2
Standard
70
0
40
1
41
2.5
42
0.625
43
0.38
44
1.25
45
0
46
0
47
0
48
0
140
2.5
141
0.09
142
0
143
25.4
144
1
145
0
146
1
147
0.625
148
0
71
0
72
0
73
0
74
1
75
0
76
0
77
0
78
0
79
0
170
0
171
2
172
0
173
0
174
0
175
0
176
0
177
0
178
0
179
0
271
4
272
4
273
2
274
2
275
0
276
0
277
2
278
46
279
0
280
0
281
0
282
0
283
1
284
0
285
0
286
0
288
0
289
3
340
Standard
341

371
-2
372
-2
0
ENDTAB
0
TABLE
2
BLOCK_RECORD
5
1
330
0
100
AcDbSymbolTable
70
2
0
BLOCK_RECORD
5
1F
330
1
100
AcDbSymbolTableRecord
100
AcDbBlockTableRecord
2
*Model_Space
70
0
280
1
281
0
0
BLOCK_RECORD
5
1E
330
1
100
AcDbSymbolTableRecord
100
AcDbBlockTableRecord
2
*Paper_Space
70
0
280
1
281
0
0
BLOCK_RECORD
5
48
330
1
100
AcDbSymbolTableRecord
100
AcDbBlockTableRecord
2
*D24
70
0
280
1
281
0
0
BLOCK_RECORD
5
4B
330
1
100
AcDbSymbolTableRecord
100
AcDbBlockTableRecord
2
*D28
70
0
280
1
281
0
0
BLOCK_RECORD
5
4E
330
1
100
AcDbSymbolTableRecord
100
AcDbBlockTableRecord
2
*D16
70
0
280
1
281
0
0
BLOCK_RECORD
5
51
330
1
100
AcDbSymbolTableRecord
100
AcDbBlockTableRecord
2
*D10
70
0
280
1
281
0
0
BLOCK_RECORD
5
54
330
1
100
AcDbSymbolTableRecord
100
AcDbBlockTableRecord
2
*D26
70
0
280
1
281
0
0
BLOCK_RECORD
5
57
330
1
100
AcDbSymbolTableRecord
100
AcDbBlockTableRecord
2
*D22
70
0
280
1
281
0
0
BLOCK_RECORD
5
5A
330
1
100
AcDbSymbolTableRecord
100
AcDbBlockTableRecord
2
*D11
70
0
280
1
281
0
0
BLOCK_RECORD
5
5D
330
1
100
AcDbSymbolTableRecord
100
AcDbBlockTableRecord
2
*D12
70
0
280
1
281
0
0
BLOCK_RECORD
5
60
330
1
100
AcDbSymbolTableRecord
100
AcDbBlockTableRecord
2
*D17
70
0
280
1
281
0
0
BLOCK_RECORD
5
63
330
1
100
AcDbSymbolTableRecord
100
AcDbBlockTableRecord
2
*D37
70
0
280
1
281
0
0
BLOCK_RECORD
5
66
330
1
100
AcDbSymbolTableRecord
100
AcDbBlockTableRecord
2
*D7
70
0
280
1
281
0
0
BLOCK_RECORD
5
69
330
1
100
AcDbSymbolTableRecord
100
AcDbBlockTableRecord
2
*D42
70
0
280
1
281
0
0
BLOCK_RECORD
5
6C
330
1
100
AcDbSymbolTableRecord
100
AcDbBlockTableRecord
2
*D35
70
0
280
1
281
0
0
BLOCK_RECORD
5
6F
330
1
100
AcDbSymbolTableRecord
100
AcDbBlockTableRecord
2
*D32
70
0
280
1
281
0
0
BLOCK_RECORD
5
72
330
1
100
AcDbSymbolTableRecord
100
AcDbBlockTableRecord
2
*D23
70
0
280
1
281
0
0
BLOCK_RECORD
5
75
330
1
100
AcDbSymbolTableRecord
100
AcDbBlockTableRecord
2
*D30
70
0
280
1
281
0
0
BLOCK_RECORD
5
78
330
1
100
AcDbSymbolTableRecord
100
AcDbBlockTableRecord
2
*D27
70
0
280
1
281
0
0
BLOCK_RECORD
5
7B
330
1
100
AcDbSymbolTableRecord
100
AcDbBlockTableRecord
2
*D5
70
0
280
1
281
0
0
BLOCK_RECORD
5
7E
330
1
100
AcDbSymbolTableRecord
100
AcDbBlockTableRecord
2
*D6
70
0
280
1
281
0
0
BLOCK_RECORD
5
81
330
1
100
AcDbSymbolTableRecord
100
AcDbBlockTableRecord
2
*D47
70
0
280
1
281
0
0
BLOCK_RECORD
5
84
330
1
100
AcDbSymbolTableRecord
100
AcDbBlockTableRecord
2
*D50
70
0
280
1
281
0
0
BLOCK_RECORD
5
87
330
1
100
AcDbSymbolTableRecord
100
AcDbBlockTableRecord
2
*D3
70
0
280
1
281
0
0
BLOCK_RECORD
5
8A
330
1
100
AcDbSymbolTableRecord
100
AcDbBlockTableRecord
2
*D20
70
0
280
1
281
0
0
BLOCK_RECORD
5
8D
330
1
100
AcDbSymbolTableRecord
100
AcDbBlockTableRecord
2
*D38
70
0
280
1
281
0
0
BLOCK_RECORD
5
90
330
1
100
AcDbSymbolTableRecord
100
AcDbBlockTableRecord
2
*D25
70
0
280
1
281
0
0
BLOCK_RECORD
5
93
330
1
100
AcDbSymbolTableRecord
100
AcDbBlockTableRecord
2
*D4
70
0
280
1
281
0
0
BLOCK_RECORD
5
96
330
1
100
AcDbSymbolTableRecord
100
AcDbBlockTableRecord
2
*D48
70
0
280
1
281
0
0
BLOCK_RECORD
5
99
330
1
100
AcDbSymbolTableRecord
100
AcDbBlockTableRecord
2
*D9
70
0
280
1
281
0
0
BLOCK_RECORD
5
9C
330
1
100
AcDbSymbolTableRecord
100
AcDbBlockTableRecord
2
*D45
70
0
280
1
281
0
0
BLOCK_RECORD
5
9F
330
1
100
AcDbSymbolTableRecord
100
AcDbBlockTableRecord
2
*D39
70
0
280
1
281
0
0
BLOCK_RECORD
5
A2
330
1
100
AcDbSymbolTableRecord
100
AcDbBlockTableRecord
2
*D18
70
0
280
1
281
0
0
BLOCK_RECORD
5
A5
330
1
100
AcDbSymbolTableRecord
100
AcDbBlockTableRecord
2
*D40
70
0
280
1
281
0
0
BLOCK_RECORD
5
A8
330
1
100
AcDbSymbolTableRecord
100
AcDbBlockTableRecord
2
*D41
70
0
280
1
281
0
0
BLOCK_RECORD
5
AB
330
1
100
AcDbSymbolTableRecord
100
AcDbBlockTableRecord
2
*D34
70
0
280
1
281
0
0
BLOCK_RECORD
5
AE
330
1
100
AcDbSymbolTableRecord
100
AcDbBlockTableRecord
2
*D33
70
0
280
1
281
0
0
BLOCK_RECORD
5
B1
330
1
100
AcDbSymbolTableRecord
100
AcDbBlockTableRecord
2
*D44
70
0
280
1
281
0
0
BLOCK_RECORD
5
B4
330
1
100
AcDbSymbolTableRecord
100
AcDbBlockTableRecord
2
*D46
70
0
280
1
281
0
0
BLOCK_RECORD
5
B7
330
1
100
AcDbSymbolTableRecord
100
AcDbBlockTableRecord
2
*D1
70
0
280
1
281
0
0
BLOCK_RECORD
5
BA
330
1
100
AcDbSymbolTableRecord
100
AcDbBlockTableRecord
2
*D21
70
0
280
1
281
0
0
BLOCK_RECORD
5
BD
330
1
100
AcDbSymbolTableRecord
100
AcDbBlockTableRecord
2
*D19
70
0
280
1
281
0
0
BLOCK_RECORD
5
C0
330
1
100
AcDbSymbolTableRecord
100
AcDbBlockTableRecord
2
*D13
70
0
280
1
281
0
0
BLOCK_RECORD
5
C3
330
1
100
AcDbSymbolTableRecord
100
AcDbBlockTableRecord
2
*D29
70
0
280
1
281
0
0
BLOCK_RECORD
5
C6
330
1
100
AcDbSymbolTableRecord
100
AcDbBlockTableRecord
2
*D31
70
0
280
1
281
0
0
BLOCK_RECORD
5
C9
330
1
100
AcDbSymbolTableRecord
100
AcDbBlockTableRecord
2
*D36
70
0
280
1
281
0
0
BLOCK_RECORD
5
CC
330
1
100
AcDbSymbolTableRecord
100
AcDbBlockTableRecord
2
*D8
70
0
280
1
281
0
0
BLOCK_RECORD
5
CF
330
1
100
AcDbSymbolTableRecord
100
AcDbBlockTableRecord
2
*D14
70
0
280
1
281
0
0
BLOCK_RECORD
5
D2
330
1
100
AcDbSymbolTableRecord
100
AcDbBlockTableRecord
2
*D2
70
0
280
1
281
0
0
BLOCK_RECORD
5
D5
330
1
100
AcDbSymbolTableRecord
100
AcDbBlockTableRecord
2
*D43
70
0
280
1
281
0
0
BLOCK_RECORD
5
D8
330
1
100
AcDbSymbolTableRecord
100
AcDbBlockTableRecord
2
*D15
70
0
280
1
281
0
0
BLOCK_RECORD
5
DB
330
1
100
AcDbSymbolTableRecord
100
AcDbBlockTableRecord
2
*D49
70
0
280
1
281
0
0
BLOCK_RECORD
5
DE
330
1
100
AcDbSymbolTableRecord
100
AcDbBlockTableRecord
2
PAD002059_PROJ
70
0
280
1
281
0
0
ENDTAB
0
ENDSEC
0
SECTION
2
BLOCKS
0
BLOCK
5
20
330
1F
100
AcDbEntity
8
0
100
AcDbBlockBegin
2
*Model_Space
70
0
10
0
20
0
30
0
3
*Model_Space
1

0
ENDBLK
5
21
330
1F
100
AcDbEntity
8
0
100
AcDbBlockEnd
0
BLOCK
5
1C
330
1B
100
AcDbEntity
8
0
100
AcDbBlockBegin
2
*Paper_Space
70
0
10
0
20
0
30
0
3
*Paper_Space
1

0
ENDBLK
5
1D
330
1F
100
AcDbEntity
8
0
100
AcDbBlockEnd
0
BLOCK
5
49
330
48
100
AcDbEntity
8
0
100
AcDbBlockBegin
2
*D24
70
1
10
0
20
0
3
*D24
1

0
LINE
5
E1
100
AcDbEntity
8
dim
6
CONTINUOUS
62
7
370
0
100
AcDbLine
10
85
20
66
11
59
21
66
0
SOLID
5
E2
100
AcDbEntity
8
dim
6
CONTINUOUS
62
7
370
0
100
AcDbTrace
10
85
20
66
30
0
11
82.5
21
65.5837153422
31
0
12
82.5
22
66.4162846578
32
0
13
82.5
23
66.4162846578
33
0
0
SOLID
5
E3
100
AcDbEntity
8
dim
6
CONTINUOUS
62
7
370
0
100
AcDbTrace
10
59
20
66
30
0
11
61.5
21
66.4162846578
31
0
12
61.5
22
65.5837153422
32
0
13
61.5
23
65.5837153422
33
0
0
MTEXT
5
E4
100
AcDbEntity
8
dim
6
CONTINUOUS
62
7
370
0
100
AcDbMText
10
72
20
67.875
30
0
40
2.5
41
3.05555555556
71
5
72
1
1
26
7
standard
210
0
220
0
230
1
50
360
73
2
44
1
0
LINE
5
E5
100
AcDbEntity
8
dim
6
CONTINUOUS
62
7
370
0
100
AcDbLine
10
85
20
47.625
11
85
21
67.25
0
LINE
5
E6
100
AcDbEntity
8
dim
6
CONTINUOUS
62
7
370
0
100
AcDbLine
10
59
20
55.625
11
59
21
67.25
0
ENDBLK
5
4A
330
48
100
AcDbEntity
8
0
100
AcDbBlockEnd
0
BLOCK
5
4C
330
4B
100
AcDbEntity
8
0
100
AcDbBlockBegin
2
*D28
70
1
10
0
20
0
3
*D28
1

0
LINE
5
E7
100
AcDbEntity
8
dim
6
CONTINUOUS
62
7
370
0
100
AcDbLine
10
100
20
40
11
100
21
52
0
SOLID
5
E8
100
AcDbEntity
8
dim
6
CONTINUOUS
62
7
370
0
100
AcDbTrace
10
100
20
45
30
0
11
100.416284658
21
42.5
31
0
12
99.5837153422
22
42.5
32
0
13
99.5837153422
23
42.5
33
0
0
SOLID
5
E9
100
AcDbEntity
8
dim
6
CONTINUOUS
62
7
370
0
100
AcDbTrace
10
100
20
47
30
0
11
99.5837153422
21
49.5
31
0
12
100.416284658
22
49.5
32
0
13
100.416284658
23
49.5
33
0
0
MTEXT
5
EA
100
AcDbEntity
8
dim
6
CONTINUOUS
62
7
370
0
100
AcDbMText
10
98.125
20
46
30
0
40
2.5
41
1.11111111111
71
5
72
1
1
2
7
standard
210
0
220
0
230
1
50
90
73
2
44
1
0
LINE
5
EB
100
AcDbEntity
8
dim
6
CONTINUOUS
62
7
370
0
100
AcDbLine
10
45.625
20
45
11
101.25
21
45
0
LINE
5
EC
100
AcDbEntity
8
dim
6
CONTINUOUS
62
7
370
0
100
AcDbLine
10
85.625
20
47
11
101.25
21
47
0
ENDBLK
5
4D
330
4B
100
AcDbEntity
8
0
100
AcDbBlockEnd
0
BLOCK
5
4F
330
4E
100
AcDbEntity
8
0
100
AcDbBlockBegin
2
*D16
70
1
10
0
20
0
3
*D16
1

0
LINE
5
ED
100
AcDbEntity
8
dim
6
CONTINUOUS
62
7
370
0
100
AcDbLine
10
-90.4083269132
20
58.6055512753
11
-79.5916730868
21
51.3944487247
0
SOLID
5
EE
100
AcDbEntity
8
dim
6
CONTINUOUS
62
7
370
0
100
AcDbTrace
10
-86.2480754415
20
55.8320502943
30
0
11
-88.5591143587
21
56.8724310128
31
0
12
-88.097287996
22
57.5651705569
32
0
13
-88.097287996
23
57.5651705569
33
0
0
SOLID
5
EF
100
AcDbEntity
8
dim
6
CONTINUOUS
62
7
370
0
100
AcDbTrace
10
-83.7519245585
20
54.1679497057
30
0
11
-81.4408856413
21
53.1275689872
31
0
12
-81.902712004
22
52.4348294431
32
0
13
-81.902712004
23
52.4348294431
33
0
0
MTEXT
5
F0
100
AcDbEntity
8
dim
6
CONTINUOUS
62
7
370
0
100
AcDbMText
10
-80.6895172252
20
54.379814364
30
0
40
2.5
41
3.61111111111
71
5
72
1
1
ø3
7
standard
210
0
220
0
230
1
50
326.309932475
73
2
44
1
0
ENDBLK
5
50
330
4E
100
AcDbEntity
8
0
100
AcDbBlockEnd
0
BLOCK
5
52
330
51
100
AcDbEntity
8
0
100
AcDbBlockBegin
2
*D10
70
1
10
0
20
0
3
*D10
1

0
LINE
5
F1
100
AcDbEntity
8
dim
6
CONTINUOUS
62
7
370
0
100
AcDbLine
10
-107
20
60
11
-107
21
-60
0
SOLID
5
F2
100
AcDbEntity
8
dim
6
CONTINUOUS
62
7
370
0
100
AcDbTrace
10
-107
20
60
30
0
11
-106.583715342
21
57.5
31
0
12
-107.416284658
22
57.5
32
0
13
-107.416284658
23
57.5
33
0
0
SOLID
5
F3
100
AcDbEntity
8
dim
6
CONTINUOUS
62
7
370
0
100
AcDbTrace
10
-107
20
-60
30
0
11
-107.416284658
21
-57.5
31
0
12
-106.583715342
22
-57.5
32
0
13
-106.583715342
23
-57.5
33
0
0
MTEXT
5
F4
100
AcDbEntity
8
dim
6
CONTINUOUS
62
7
370
0
100
AcDbMText
10
-108.875
20
2.29613691342e-16
30
0
40
2.5
41
4.44444444444
71
5
72
1
1
120
7
standard
210
0
220
0
230
1
50
90
73
2
44
1
0
LINE
5
F5
100
AcDbEntity
8
dim
6
CONTINUOUS
62
7
370
0
100
AcDbLine
10
-90.625
20
60
11
-108.25
21
60
0
LINE
5
F6
100
AcDbEntity
8
dim
6
CONTINUOUS
62
7
370
0
100
AcDbLine
10
-90.625
20
-60
11
-108.25
21
-60
0
ENDBLK
5
53
330
51
100
AcDbEntity
8
0
100
AcDbBlockEnd
0
BLOCK
5
55
330
54
100
AcDbEntity
8
0
100
AcDbBlockBegin
2
*D26
70
1
10
0
20
0
3
*D26
1

0
LINE
5
F7
100
AcDbEntity
8
dim
6
CONTINUOUS
62
7
370
0
100
AcDbLine
10
100
20
50
11
100
21
65
0
SOLID
5
F8
100
AcDbEntity
8
dim
6
CONTINUOUS
62
7
370
0
100
AcDbTrace
10
100
20
55
30
0
11
100.416284658
21
52.5
31
0
12
99.5837153422
22
52.5
32
0
13
99.5837153422
23
52.5
33
0
0
SOLID
5
F9
100
AcDbEntity
8
dim
6
CONTINUOUS
62
7
370
0
100
AcDbTrace
10
100
20
60
30
0
11
99.5837153422
21
62.5
31
0
12
100.416284658
22
62.5
32
0
13
100.416284658
23
62.5
33
0
0
MTEXT
5
FA
100
AcDbEntity
8
dim
6
CONTINUOUS
62
7
370
0
100
AcDbMText
10
98.125
20
57.5
30
0
40
2.5
41
1.11111111111
71
5
72
1
1
5
7
standard
210
0
220
0
230
1
50
90
73
2
44
1
0
LINE
5
FB
100
AcDbEntity
8
dim
6
CONTINUOUS
62
7
370
0
100
AcDbLine
10
59.625
20
55
11
101.25
21
55
0
LINE
5
FC
100
AcDbEntity
8
dim
6
CONTINUOUS
62
7
370
0
100
AcDbLine
10
90.625
20
60
11
101.25
21
60
0
ENDBLK
5
56
330
54
100
AcDbEntity
8
0
100
AcDbBlockEnd
0
BLOCK
5
58
330
57
100
AcDbEntity
8
0
100
AcDbBlockBegin
2
*D22
70
1
10
0
20
0
3
*D22
1

0
LINE
5
FD
100
AcDbEntity
8
dim
6
CONTINUOUS
62
7
370
0
100
AcDbLine
10
-8
20
70
11
0
21
70
0
SOLID
5
FE
100
AcDbEntity
8
dim
6
CONTINUOUS
62
7
370
0
100
AcDbTrace
10
-8
20
70
30
0
11
-5.5
21
70.4162846578
31
0
12
-5.5
22
69.5837153422
32
0
13
-5.5
23
69.5837153422
33
0
0
SOLID
5
FF
100
AcDbEntity
8
dim
6
CONTINUOUS
62
7
370
0
100
AcDbTrace
10
0
20
70
30
0
11
-2.5
21
69.5837153422
31
0
12
-2.5
22
70.4162846578
32
0
13
-2.5
23
70.4162846578
33
0
0
MTEXT
5
100
100
AcDbEntity
8
dim
6
CONTINUOUS
62
7
370
0
100
AcDbMText
10
-4
20
71.875
30
0
40
2.5
41
1.11111111111
71
5
72
1
1
8
7
standard
210
0
220
0
230
1
50
0
73
2
44
1
0
LINE
5
101
100
AcDbEntity
8
dim
6
CONTINUOUS
62
7
370
0
100
AcDbLine
10
-8
20
55.625
11
-8
21
71.25
0
LINE
5
102
100
AcDbEntity
8
dim
6
CONTINUOUS
62
7
370
0
100
AcDbLine
10
-1.00508929521e-16
20
55.625
11
-2.01017859042e-16
21
71.25
0
ENDBLK
5
59
330
57
100
AcDbEntity
8
0
100
AcDbBlockEnd
0
BLOCK
5
5B
330
5A
100
AcDbEntity
8
0
100
AcDbBlockBegin
2
*D11
70
1
10
0
20
0
3
*D11
1

0
LINE
5
103
100
AcDbEntity
8
dim
6
CONTINUOUS
62
7
370
0
100
AcDbLine
10
-90
20
-76
11
90
21
-76
0
SOLID
5
104
100
AcDbEntity
8
dim
6
CONTINUOUS
62
7
370
0
100
AcDbTrace
10
-90
20
-76
30
0
11
-87.5
21
-75.5837153422
31
0
12
-87.5
22
-76.4162846578
32
0
13
-87.5
23
-76.4162846578
33
0
0
SOLID
5
105
100
AcDbEntity
8
dim
6
CONTINUOUS
62
7
370
0
100
AcDbTrace
10
90
20
-76
30
0
11
87.5
21
-76.4162846578
31
0
12
87.5
22
-75.5837153422
32
0
13
87.5
23
-75.5837153422
33
0
0
MTEXT
5
106
100
AcDbEntity
8
dim
6
CONTINUOUS
62
7
370
0
100
AcDbMText
10
1.14806845671e-16
20
-74.125
30
0
40
2.5
41
4.44444444444
71
5
72
1
1
180
7
standard
210
0
220
0
230
1
50
0
73
2
44
1
0
LINE
5
107
100
AcDbEntity
8
dim
6
CONTINUOUS
62
7
370
0
100
AcDbLine
10
-90
20
-60.625
11
-90
21
-77.25
0
LINE
5
108
100
AcDbEntity
8
dim
6
CONTINUOUS
62
7
370
0
100
AcDbLine
10
90
20
-60.625
11
90
21
-77.25
0
ENDBLK
5
5C
330
5A
100
AcDbEntity
8
0
100
AcDbBlockEnd
0
BLOCK
5
5E
330
5D
100
AcDbEntity
8
0
100
AcDbBlockBegin
2
*D12
70
1
10
0
20
0
3
*D12
1

0
LINE
5
109
100
AcDbEntity
8
dim
6
CONTINUOUS
62
7
370
0
100
AcDbLine
10
-96
20
50
11
-96
21
65
0
SOLID
5
10A
100
AcDbEntity
8
dim
6
CONTINUOUS
62
7
370
0
100
AcDbTrace
10
-96
20
55
30
0
11
-95.5837153422
21
52.5
31
0
12
-96.4162846578
22
52.5
32
0
13
-96.4162846578
23
52.5
33
0
0
SOLID
5
10B
100
AcDbEntity
8
dim
6
CONTINUOUS
62
7
370
0
100
AcDbTrace
10
-96
20
60
30
0
11
-96.4162846578
21
62.5
31
0
12
-95.5837153422
22
62.5
32
0
13
-95.5837153422
23
62.5
33
0
0
MTEXT
5
10C
100
AcDbEntity
8
dim
6
CONTINUOUS
62
7
370
0
100
AcDbMText
10
-97.875
20
57.5
30
0
40
2.5
41
1.11111111111
71
5
72
1
1
5
7
standard
210
0
220
0
230
1
50
90
73
2
44
1
0
LINE
5
10D
100
AcDbEntity
8
dim
6
CONTINUOUS
62
7
370
0
100
AcDbLine
10
-85.625
20
55
11
-97.25
21
55
0
LINE
5
10E
100
AcDbEntity
8
dim
6
CONTINUOUS
62
7
370
0
100
AcDbLine
10
-90.625
20
60
11
-97.25
21
60
0
ENDBLK
5
5F
330
5D
100
AcDbEntity
8
0
100
AcDbBlockEnd
0
BLOCK
5
61
330
60
100
AcDbEntity
8
0
100
AcDbBlockBegin
2
*D17
70
1
10
0
20
0
3
*D17
1

0
LINE
5
10F
100
AcDbEntity
8
dim
6
CONTINUOUS
62
7
370
0
100
AcDbLine
10
-64.8137767416
20
49.9068883706
11
-53.1862232584
21
44.0931116294
0
SOLID
5
110
100
AcDbEntity
8
dim
6
CONTINUOUS
62
7
370
0
100
AcDbTrace
10
-60.3416407865
20
47.6708203932
30
0
11
-62.7638769226
21
48.4165180648
31
0
12
-62.3915406055
22
49.161190699
32
0
13
-62.3915406055
23
49.161190699
33
0
0
SOLID
5
111
100
AcDbEntity
8
dim
6
CONTINUOUS
62
7
370
0
100
AcDbTrace
10
-57.6583592135
20
46.3291796068
30
0
11
-55.2361230774
21
45.5834819352
31
0
12
-55.6084593945
22
44.838809301
32
0
13
-55.6084593945
23
44.838809301
33
0
0
MTEXT
5
112
100
AcDbEntity
8
dim
6
CONTINUOUS
62
7
370
0
100
AcDbMText
10
-54.6458787437
20
46.9192531009
30
0
40
2.5
41
3.61111111111
71
5
72
1
1
ø3
7
standard
210
0
220
0
230
1
50
333.434948825
73
2
44
1
0
ENDBLK
5
62
330
60
100
AcDbEntity
8
0
100
AcDbBlockEnd
0
BLOCK
5
64
330
63
100
AcDbEntity
8
0
100
AcDbBlockBegin
2
*D37
70
1
10
0
20
0
3
*D37
1

0
LINE
5
113
100
AcDbEntity
8
dim
6
CONTINUOUS
62
7
370
0
100
AcDbLine
10
-85
20
-67
11
-59
21
-67
0
SOLID
5
114
100
AcDbEntity
8
dim
6
CONTINUOUS
62
7
370
0
100
AcDbTrace
10
-85
20
-67
30
0
11
-82.5
21
-66.5837153422
31
0
12
-82.5
22
-67.4162846578
32
0
13
-82.5
23
-67.4162846578
33
0
0
SOLID
5
115
100
AcDbEntity
8
dim
6
CONTINUOUS
62
7
370
0
100
AcDbTrace
10
-59
20
-67
30
0
11
-61.5
21
-67.4162846578
31
0
12
-61.5
22
-66.5837153422
32
0
13
-61.5
23
-66.5837153422
33
0
0
MTEXT
5
116
100
AcDbEntity
8
dim
6
CONTINUOUS
62
7
370
0
100
AcDbMText
10
-72
20
-65.125
30
0
40
2.5
41
3.05555555556
71
5
72
1
1
26
7
standard
210
0
220
0
230
1
50
0
73
2
44
1
0
LINE
5
117
100
AcDbEntity
8
dim
6
CONTINUOUS
62
7
370
0
100
AcDbLine
10
-85
20
-47.625
11
-85
21
-68.25
0
LINE
5
118
100
AcDbEntity
8
dim
6
CONTINUOUS
62
7
370
0
100
AcDbLine
10
-59
20
-55.625
11
-59
21
-68.25
0
ENDBLK
5
65
330
63
100
AcDbEntity
8
0
100
AcDbBlockEnd
0
BLOCK
5
67
330
66
100
AcDbEntity
8
0
100
AcDbBlockBegin
2
*D7
70
1
10
0
20
0
3
*D7
1

0
LINE
5
119
100
AcDbEntity
8
dim
6
CONTINUOUS
62
7
370
0
100
AcDbLine
10
49.9497474683
20
40.0502525317
11
40.0502525317
21
49.9497474683
0
SOLID
5
11A
100
AcDbEntity
8
dim
6
CONTINUOUS
62
7
370
0
100
AcDbTrace
10
46.4142135624
20
43.5857864376
30
0
11
48.4763382198
21
42.112377189
31
0
12
47.887622811
22
41.5236617802
32
0
13
47.887622811
23
41.5236617802
33
0
0
SOLID
5
11B
100
AcDbEntity
8
dim
6
CONTINUOUS
62
7
370
0
100
AcDbTrace
10
43.5857864376
20
46.4142135624
30
0
11
41.5236617802
21
47.887622811
31
0
12
42.112377189
22
48.4763382198
32
0
13
42.112377189
23
48.4763382198
33
0
0
MTEXT
5
11C
100
AcDbEntity
8
dim
6
CONTINUOUS
62
7
370
0
100
AcDbMText
10
46.3258252147
20
46.3258252147
30
0
40
2.5
41
3.88888888889
71
5
72
1
1
   ø4
7
standard
210
0
220
0
230
1
50
315
73
2
44
1
0
ENDBLK
5
68
330
66
100
AcDbEntity
8
0
100
AcDbBlockEnd
0
BLOCK
5
6A
330
69
100
AcDbEntity
8
0
100
AcDbBlockBegin
2
*D42
70
1
10
0
20
0
3
*D42
1

0
LINE
5
11D
100
AcDbEntity
8
dim
6
CONTINUOUS
62
7
370
0
100
AcDbLine
10
100
20
-50
11
100
21
-65
0
SOLID
5
11E
100
AcDbEntity
8
dim
6
CONTINUOUS
62
7
370
0
100
AcDbTrace
10
100
20
-55
30
0
11
99.5837153422
21
-52.5
31
0
12
100.416284658
22
-52.5
32
0
13
100.416284658
23
-52.5
33
0
0
SOLID
5
11F
100
AcDbEntity
8
dim
6
CONTINUOUS
62
7
370
0
100
AcDbTrace
10
100
20
-60
30
0
11
100.416284658
21
-62.5
31
0
12
99.5837153422
22
-62.5
32
0
13
99.5837153422
23
-62.5
33
0
0
MTEXT
5
120
100
AcDbEntity
8
dim
6
CONTINUOUS
62
7
370
0
100
AcDbMText
10
98.125
20
-57.5
30
0
40
2.5
41
1.11111111111
71
5
72
1
1
5
7
standard
210
0
220
0
230
1
50
90
73
2
44
1
0
LINE
5
121
100
AcDbEntity
8
dim
6
CONTINUOUS
62
7
370
0
100
AcDbLine
10
85.625
20
-55
11
101.25
21
-55
0
LINE
5
122
100
AcDbEntity
8
dim
6
CONTINUOUS
62
7
370
0
100
AcDbLine
10
90.625
20
-60
11
101.25
21
-60
0
ENDBLK
5
6B
330
69
100
AcDbEntity
8
0
100
AcDbBlockEnd
0
BLOCK
5
6D
330
6C
100
AcDbEntity
8
0
100
AcDbBlockBegin
2
*D35
70
1
10
0
20
0
3
*D35
1

0
LINE
5
123
100
AcDbEntity
8
dim
6
CONTINUOUS
62
7
370
0
100
AcDbLine
10
59
20
-67
11
45
21
-67
0
SOLID
5
124
100
AcDbEntity
8
dim
6
CONTINUOUS
62
7
370
0
100
AcDbTrace
10
59
20
-67
30
0
11
56.5
21
-67.4162846578
31
0
12
56.5
22
-66.5837153422
32
0
13
56.5
23
-66.5837153422
33
0
0
SOLID
5
125
100
AcDbEntity
8
dim
6
CONTINUOUS
62
7
370
0
100
AcDbTrace
10
45
20
-67
30
0
11
47.5
21
-66.5837153422
31
0
12
47.5
22
-67.4162846578
32
0
13
47.5
23
-67.4162846578
33
0
0
MTEXT
5
126
100
AcDbEntity
8
dim
6
CONTINUOUS
62
7
370
0
100
AcDbMText
10
52
20
-65.125
30
0
40
2.5
41
2.77777777778
71
5
72
1
1
14
7
standard
210
0
220
0
230
1
50
360
73
2
44
1
0
LINE
5
127
100
AcDbEntity
8
dim
6
CONTINUOUS
62
7
370
0
100
AcDbLine
10
59
20
-47.625
11
59
21
-68.25
0
LINE
5
128
100
AcDbEntity
8
dim
6
CONTINUOUS
62
7
370
0
100
AcDbLine
10
45
20
-45.625
11
45
21
-68.25
0
ENDBLK
5
6E
330
6C
100
AcDbEntity
8
0
100
AcDbBlockEnd
0
BLOCK
5
70
330
6F
100
AcDbEntity
8
0
100
AcDbBlockBegin
2
*D32
70
1
10
0
20
0
3
*D32
1

0
LINE
5
129
100
AcDbEntity
8
dim
6
CONTINUOUS
62
7
370
0
100
AcDbLine
10
8
20
-68
11
0
21
-68
0
SOLID
5
12A
100
AcDbEntity
8
dim
6
CONTINUOUS
62
7
370
0
100
AcDbTrace
10
8
20
-68
30
0
11
5.5
21
-68.4162846578
31
0
12
5.5
22
-67.5837153422
32
0
13
5.5
23
-67.5837153422
33
0
0
SOLID
5
12B
100
AcDbEntity
8
dim
6
CONTINUOUS
62
7
370
0
100
AcDbTrace
10
0
20
-68
30
0
11
2.5
21
-67.5837153422
31
0
12
2.5
22
-68.4162846578
32
0
13
2.5
23
-68.4162846578
33
0
0
MTEXT
5
12C
100
AcDbEntity
8
dim
6
CONTINUOUS
62
7
370
0
100
AcDbMText
10
4
20
-66.125
30
0
40
2.5
41
1.11111111111
71
5
72
1
1
8
7
standard
210
0
220
0
230
1
50
360
73
2
44
1
0
LINE
5
12D
100
AcDbEntity
8
dim
6
CONTINUOUS
62
7
370
0
100
AcDbLine
10
8
20
-55.625
11
8
21
-69.25
0
LINE
5
12E
100
AcDbEntity
8
dim
6
CONTINUOUS
62
7
370
0
100
AcDbLine
10
-1.14806845671e-16
20
-55.625
11
-2.29613691342e-16
21
-69.25
0
ENDBLK
5
71
330
6F
100
AcDbEntity
8
0
100
AcDbBlockEnd
0
BLOCK
5
73
330
72
100
AcDbEntity
8
0
100
AcDbBlockBegin
2
*D23
70
1
10
0
20
0
3
*D23
1

0
LINE
5
12F
100
AcDbEntity
8
dim
6
CONTINUOUS
62
7
370
0
100
AcDbLine
10
80
20
66
11
95
21
66
0
SOLID
5
130
100
AcDbEntity
8
dim
6
CONTINUOUS
62
7
370
0
100
AcDbTrace
10
85
20
66
30
0
11
82.5
21
65.5837153422
31
0
12
82.5
22
66.4162846578
32
0
13
82.5
23
66.4162846578
33
0
0
SOLID
5
131
100
AcDbEntity
8
dim
6
CONTINUOUS
62
7
370
0
100
AcDbTrace
10
90
20
66
30
0
11
92.5
21
66.4162846578
31
0
12
92.5
22
65.5837153422
32
0
13
92.5
23
65.5837153422
33
0
0
MTEXT
5
132
100
AcDbEntity
8
dim
6
CONTINUOUS
62
7
370
0
100
AcDbMText
10
87.5
20
67.875
30
0
40
2.5
41
1.11111111111
71
5
72
1
1
5
7
standard
210
0
220
0
230
1
50
0
73
2
44
1
0
LINE
5
133
100
AcDbEntity
8
dim
6
CONTINUOUS
62
7
370
0
100
AcDbLine
10
85
20
47.625
11
85
21
67.25
0
LINE
5
134
100
AcDbEntity
8
dim
6
CONTINUOUS
62
7
370
0
100
AcDbLine
10
90
20
47.625
11
90
21
67.25
0
ENDBLK
5
74
330
72
100
AcDbEntity
8
0
100
AcDbBlockEnd
0
BLOCK
5
76
330
75
100
AcDbEntity
8
0
100
AcDbBlockBegin
2
*D30
70
1
10
0
20
0
3
*D30
1

0
LINE
5
135
100
AcDbEntity
8
dim
6
CONTINUOUS
62
7
370
0
100
AcDbLine
10
20
20
-50
11
20
21
-65
0
SOLID
5
136
100
AcDbEntity
8
dim
6
CONTINUOUS
62
7
370
0
100
AcDbTrace
10
20
20
-55
30
0
11
19.5837153422
21
-52.5
31
0
12
20.4162846578
22
-52.5
32
0
13
20.4162846578
23
-52.5
33
0
0
SOLID
5
137
100
AcDbEntity
8
dim
6
CONTINUOUS
62
7
370
0
100
AcDbTrace
10
20
20
-60
30
0
11
20.4162846578
21
-62.5
31
0
12
19.5837153422
22
-62.5
32
0
13
19.5837153422
23
-62.5
33
0
0
MTEXT
5
138
100
AcDbEntity
8
dim
6
CONTINUOUS
62
7
370
0
100
AcDbMText
10
18.125
20
-57.5
30
0
40
2.5
41
1.11111111111
71
5
72
1
1
5
7
standard
210
0
220
0
230
1
50
90
73
2
44
1
0
LINE
5
139
100
AcDbEntity
8
dim
6
CONTINUOUS
62
7
370
0
100
AcDbLine
10
8.625
20
-55
11
21.25
21
-55
0
LINE
5
13A
100
AcDbEntity
8
dim
6
CONTINUOUS
62
7
370
0
100
AcDbLine
10
8.625
20
-60
11
21.25
21
-60
0
ENDBLK
5
77
330
75
100
AcDbEntity
8
0
100
AcDbBlockEnd
0
BLOCK
5
79
330
78
100
AcDbEntity
8
0
100
AcDbBlockBegin
2
*D27
70
1
10
0
20
0
3
*D27
1

0
LINE
5
13B
100
AcDbEntity
8
dim
6
CONTINUOUS
62
7
370
0
100
AcDbLine
10
100
20
47
11
100
21
55
0
SOLID
5
13C
100
AcDbEntity
8
dim
6
CONTINUOUS
62
7
370
0
100
AcDbTrace
10
100
20
47
30
0
11
99.5837153422
21
49.5
31
0
12
100.416284658
22
49.5
32
0
13
100.416284658
23
49.5
33
0
0
SOLID
5
13D
100
AcDbEntity
8
dim
6
CONTINUOUS
62
7
370
0
100
AcDbTrace
10
100
20
55
30
0
11
100.416284658
21
52.5
31
0
12
99.5837153422
22
52.5
32
0
13
99.5837153422
23
52.5
33
0
0
MTEXT
5
13E
100
AcDbEntity
8
dim
6
CONTINUOUS
62
7
370
0
100
AcDbMText
10
98.125
20
51
30
0
40
2.5
41
1.11111111111
71
5
72
1
1
8
7
standard
210
0
220
0
230
1
50
90
73
2
44
1
0
LINE
5
13F
100
AcDbEntity
8
dim
6
CONTINUOUS
62
7
370
0
100
AcDbLine
10
85.625
20
47
11
101.25
21
47
0
LINE
5
140
100
AcDbEntity
8
dim
6
CONTINUOUS
62
7
370
0
100
AcDbLine
10
59.625
20
55
11
101.25
21
55
0
ENDBLK
5
7A
330
78
100
AcDbEntity
8
0
100
AcDbBlockEnd
0
BLOCK
5
7C
330
7B
100
AcDbEntity
8
0
100
AcDbBlockBegin
2
*D5
70
1
10
0
20
0
3
*D5
1

0
LINE
5
141
100
AcDbEntity
8
dim
6
CONTINUOUS
62
7
370
0
100
AcDbLine
10
-49.9497474683
20
-40.0502525317
11
-40.0502525317
21
-49.9497474683
0
SOLID
5
142
100
AcDbEntity
8
dim
6
CONTINUOUS
62
7
370
0
100
AcDbTrace
10
-46.4142135624
20
-43.5857864376
30
0
11
-48.4763382198
21
-42.112377189
31
0
12
-47.887622811
22
-41.5236617802
32
0
13
-47.887622811
23
-41.5236617802
33
0
0
SOLID
5
143
100
AcDbEntity
8
dim
6
CONTINUOUS
62
7
370
0
100
AcDbTrace
10
-43.5857864376
20
-46.4142135624
30
0
11
-41.5236617802
21
-47.887622811
31
0
12
-42.112377189
22
-48.4763382198
32
0
13
-42.112377189
23
-48.4763382198
33
0
0
MTEXT
5
144
100
AcDbEntity
8
dim
6
CONTINUOUS
62
7
370
0
100
AcDbMText
10
-43.6741747853
20
-43.6741747853
30
0
40
2.5
41
3.88888888889
71
5
72
1
1
   ø4
7
standard
210
0
220
0
230
1
50
315
73
2
44
1
0
ENDBLK
5
7D
330
7B
100
AcDbEntity
8
0
100
AcDbBlockEnd
0
BLOCK
5
7F
330
7E
100
AcDbEntity
8
0
100
AcDbBlockBegin
2
*D6
70
1
10
0
20
0
3
*D6
1

0
LINE
5
145
100
AcDbEntity
8
dim
6
CONTINUOUS
62
7
370
0
100
AcDbLine
10
49.9497474683
20
-49.9497474683
11
40.0502525317
21
-40.0502525317
0
SOLID
5
146
100
AcDbEntity
8
dim
6
CONTINUOUS
62
7
370
0
100
AcDbTrace
10
46.4142135624
20
-46.4142135624
30
0
11
48.4763382198
21
-47.887622811
31
0
12
47.887622811
22
-48.4763382198
32
0
13
47.887622811
23
-48.4763382198
33
0
0
SOLID
5
147
100
AcDbEntity
8
dim
6
CONTINUOUS
62
7
370
0
100
AcDbTrace
10
43.5857864376
20
-43.5857864376
30
0
11
41.5236617802
21
-42.112377189
31
0
12
42.112377189
22
-41.5236617802
32
0
13
42.112377189
23
-41.5236617802
33
0
0
MTEXT
5
148
100
AcDbEntity
8
dim
6
CONTINUOUS
62
7
370
0
100
AcDbMText
10
46.3258252147
20
-43.6741747853
30
0
40
2.5
41
3.88888888889
71
5
72
1
1
   ø4
7
standard
210
0
220
0
230
1
50
315
73
2
44
1
0
ENDBLK
5
80
330
7E
100
AcDbEntity
8
0
100
AcDbBlockEnd
0
BLOCK
5
82
330
81
100
AcDbEntity
8
0
100
AcDbBlockBegin
2
*D47
70
1
10
0
20
0
3
*D47
1

0
LINE
5
149
100
AcDbEntity
8
dim
6
CONTINUOUS
62
7
370
0
100
AcDbLine
10
64.6820222948
20
51.8433209473
11
53.3179777052
21
58.1566790527
0
SOLID
5
14A
100
AcDbEntity
8
dim
6
CONTINUOUS
62
7
370
0
100
AcDbTrace
10
60.3112359142
20
54.2715356032
30
0
11
62.6987948059
21
53.4213265378
31
0
12
62.2944634031
22
52.6935300127
32
0
13
62.2944634031
23
52.6935300127
33
0
0
SOLID
5
14B
100
AcDbEntity
8
dim
6
CONTINUOUS
62
7
370
0
100
AcDbTrace
10
57.6887640858
20
55.7284643968
30
0
11
55.3012051941
21
56.5786734622
31
0
12
55.7055365969
22
57.3064699873
32
0
13
55.7055365969
23
57.3064699873
33
0
0
MTEXT
5
14C
100
AcDbEntity
8
dim
6
CONTINUOUS
62
7
370
0
100
AcDbMText
10
63.3465042341
20
54.7301983715
30
0
40
2.5
41
3.61111111111
71
5
72
1
1
ø3
7
standard
210
0
220
0
230
1
50
330.9453959
73
2
44
1
0
ENDBLK
5
83
330
81
100
AcDbEntity
8
0
100
AcDbBlockEnd
0
BLOCK
5
85
330
84
100
AcDbEntity
8
0
100
AcDbBlockBegin
2
*D50
70
1
10
0
20
0
3
*D50
1

0
LINE
5
14D
100
AcDbEntity
8
dim
6
CONTINUOUS
62
7
370
0
100
AcDbLine
10
89.5961940777
20
-50.4038059223
11
80.4038059223
21
-59.5961940777
0
SOLID
5
14E
100
AcDbEntity
8
dim
6
CONTINUOUS
62
7
370
0
100
AcDbTrace
10
86.0606601718
20
-53.9393398282
30
0
11
87.5340694204
21
-51.8772151708
31
0
12
88.1227848292
22
-52.4659305796
32
0
13
88.1227848292
23
-52.4659305796
33
0
0
SOLID
5
14F
100
AcDbEntity
8
dim
6
CONTINUOUS
62
7
370
0
100
AcDbTrace
10
83.9393398282
20
-56.0606601718
30
0
11
82.4659305796
21
-58.1227848292
31
0
12
81.8772151708
22
-57.5340694204
32
0
13
81.8772151708
23
-57.5340694204
33
0
0
MTEXT
5
150
100
AcDbEntity
8
dim
6
CONTINUOUS
62
7
370
0
100
AcDbMText
10
86.4534972725
20
-50.8948522981
30
0
40
2.5
41
3.61111111111
71
5
72
1
1
ø3
7
standard
210
0
220
0
230
1
50
45
73
2
44
1
0
ENDBLK
5
86
330
84
100
AcDbEntity
8
0
100
AcDbBlockEnd
0
BLOCK
5
88
330
87
100
AcDbEntity
8
0
100
AcDbBlockBegin
2
*D3
70
1
10
0
20
0
3
*D3
1

0
LINE
5
151
100
AcDbEntity
8
dim
6
CONTINUOUS
62
7
370
0
100
AcDbLine
10
-1.99999999997
20
-57.4999999999
11
-14
21
-52.5000000001
0
SOLID
5
152
100
AcDbEntity
8
dim
6
CONTINUOUS
62
7
370
0
100
AcDbTrace
10
-6.61538461538
20
-55.5769230769
30
0
11
-4.14758282392
21
-56.1541987774
31
0
12
-4.46780179143
22
-56.9227242994
32
0
13
-4.46780179143
23
-56.9227242994
33
0
0
SOLID
5
153
100
AcDbEntity
8
dim
6
CONTINUOUS
62
7
370
0
100
AcDbTrace
10
-9.38461538462
20
-54.4230769231
30
0
11
-11.8524171761
21
-53.8458012226
31
0
12
-11.5321982086
22
-53.0772757006
32
0
13
-11.5321982086
23
-53.0772757006
33
0
0
MTEXT
5
154
100
AcDbEntity
8
dim
6
CONTINUOUS
62
7
370
0
100
AcDbMText
10
-3.65064102563
20
-54.7809829059
30
0
40
2.5
41
3.61111111111
71
5
72
1
1
ø3
7
standard
210
0
220
0
230
1
50
337.380135053
73
2
44
1
0
ENDBLK
5
89
330
87
100
AcDbEntity
8
0
100
AcDbBlockEnd
0
BLOCK
5
8B
330
8A
100
AcDbEntity
8
0
100
AcDbBlockBegin
2
*D20
70
1
10
0
20
0
3
*D20
1

0
LINE
5
155
100
AcDbEntity
8
dim
6
CONTINUOUS
62
7
370
0
100
AcDbLine
10
25
20
50
11
25
21
65
0
SOLID
5
156
100
AcDbEntity
8
dim
6
CONTINUOUS
62
7
370
0
100
AcDbTrace
10
25
20
55
30
0
11
25.4162846578
21
52.5
31
0
12
24.5837153422
22
52.5
32
0
13
24.5837153422
23
52.5
33
0
0
SOLID
5
157
100
AcDbEntity
8
dim
6
CONTINUOUS
62
7
370
0
100
AcDbTrace
10
25
20
60
30
0
11
24.5837153422
21
62.5
31
0
12
25.4162846578
22
62.5
32
0
13
25.4162846578
23
62.5
33
0
0
MTEXT
5
158
100
AcDbEntity
8
dim
6
CONTINUOUS
62
7
370
0
100
AcDbMText
10
23.125
20
57.5
30
0
40
2.5
41
1.11111111111
71
5
72
1
1
5
7
standard
210
0
220
0
230
1
50
90
73
2
44
1
0
LINE
5
159
100
AcDbEntity
8
dim
6
CONTINUOUS
62
7
370
0
100
AcDbLine
10
8.625
20
55
11
26.25
21
55
0
LINE
5
15A
100
AcDbEntity
8
dim
6
CONTINUOUS
62
7
370
0
100
AcDbLine
10
8.625
20
60
11
26.25
21
60
0
ENDBLK
5
8C
330
8A
100
AcDbEntity
8
0
100
AcDbBlockEnd
0
BLOCK
5
8E
330
8D
100
AcDbEntity
8
0
100
AcDbBlockBegin
2
*D38
70
1
10
0
20
0
3
*D38
1

0
LINE
5
15B
100
AcDbEntity
8
dim
6
CONTINUOUS
62
7
370
0
100
AcDbLine
10
-59
20
-67
11
-45
21
-67
0
SOLID
5
15C
100
AcDbEntity
8
dim
6
CONTINUOUS
62
7
370
0
100
AcDbTrace
10
-59
20
-67
30
0
11
-56.5
21
-66.5837153422
31
0
12
-56.5
22
-67.4162846578
32
0
13
-56.5
23
-67.4162846578
33
0
0
SOLID
5
15D
100
AcDbEntity
8
dim
6
CONTINUOUS
62
7
370
0
100
AcDbTrace
10
-45
20
-67
30
0
11
-47.5
21
-67.4162846578
31
0
12
-47.5
22
-66.5837153422
32
0
13
-47.5
23
-66.5837153422
33
0
0
MTEXT
5
15E
100
AcDbEntity
8
dim
6
CONTINUOUS
62
7
370
0
100
AcDbMText
10
-52
20
-65.125
30
0
40
2.5
41
2.77777777778
71
5
72
1
1
14
7
standard
210
0
220
0
230
1
50
0
73
2
44
1
0
LINE
5
15F
100
AcDbEntity
8
dim
6
CONTINUOUS
62
7
370
0
100
AcDbLine
10
-59
20
-55.625
11
-59
21
-68.25
0
LINE
5
160
100
AcDbEntity
8
dim
6
CONTINUOUS
62
7
370
0
100
AcDbLine
10
-45
20
-45.625
11
-45
21
-68.25
0
ENDBLK
5
8F
330
8D
100
AcDbEntity
8
0
100
AcDbBlockEnd
0
BLOCK
5
91
330
90
100
AcDbEntity
8
0
100
AcDbBlockBegin
2
*D25
70
1
10
0
20
0
3
*D25
1

0
LINE
5
161
100
AcDbEntity
8
dim
6
CONTINUOUS
62
7
370
0
100
AcDbLine
10
59
20
66
11
45
21
66
0
SOLID
5
162
100
AcDbEntity
8
dim
6
CONTINUOUS
62
7
370
0
100
AcDbTrace
10
59
20
66
30
0
11
56.5
21
65.5837153422
31
0
12
56.5
22
66.4162846578
32
0
13
56.5
23
66.4162846578
33
0
0
SOLID
5
163
100
AcDbEntity
8
dim
6
CONTINUOUS
62
7
370
0
100
AcDbTrace
10
45
20
66
30
0
11
47.5
21
66.4162846578
31
0
12
47.5
22
65.5837153422
32
0
13
47.5
23
65.5837153422
33
0
0
MTEXT
5
164
100
AcDbEntity
8
dim
6
CONTINUOUS
62
7
370
0
100
AcDbMText
10
52
20
67.875
30
0
40
2.5
41
2.77777777778
71
5
72
1
1
14
7
standard
210
0
220
0
230
1
50
360
73
2
44
1
0
LINE
5
165
100
AcDbEntity
8
dim
6
CONTINUOUS
62
7
370
0
100
AcDbLine
10
59
20
55.625
11
59
21
67.25
0
LINE
5
166
100
AcDbEntity
8
dim
6
CONTINUOUS
62
7
370
0
100
AcDbLine
10
45
20
45.625
11
45
21
67.25
0
ENDBLK
5
92
330
90
100
AcDbEntity
8
0
100
AcDbBlockEnd
0
BLOCK
5
94
330
93
100
AcDbEntity
8
0
100
AcDbBlockBegin
2
*D4
70
1
10
0
20
0
3
*D4
1

0
LINE
5
167
100
AcDbEntity
8
dim
6
CONTINUOUS
62
7
370
0
100
AcDbLine
10
14.2628664126
20
-56.7396851147
11
1.73713358743
21
-53.2603148853
0
SOLID
5
168
100
AcDbEntity
8
dim
6
CONTINUOUS
62
7
370
0
100
AcDbTrace
10
9.44527686444
20
-55.4014657957
30
0
11
11.9654876728
21
-55.6694777319
31
0
12
11.7426556043
22
-56.4716731785
32
0
13
11.7426556043
23
-56.4716731785
33
0
0
SOLID
5
169
100
AcDbEntity
8
dim
6
CONTINUOUS
62
7
370
0
100
AcDbTrace
10
6.55472313556
20
-54.5985342043
30
0
11
4.03451232725
21
-54.3305222681
31
0
12
4.25734439574
22
-53.5283268215
32
0
13
4.25734439574
23
-53.5283268215
33
0
0
MTEXT
5
16A
100
AcDbEntity
8
dim
6
CONTINUOUS
62
7
370
0
100
AcDbMText
10
12.2889929172
20
-54.2453929952
30
0
40
2.5
41
3.61111111111
71
5
72
1
1
ø3
7
standard
210
0
220
0
230
1
50
344.475889002
73
2
44
1
0
ENDBLK
5
95
330
93
100
AcDbEntity
8
0
100
AcDbBlockEnd
0
BLOCK
5
97
330
96
100
AcDbEntity
8
0
100
AcDbBlockBegin
2
*D48
70
1
10
0
20
0
3
*D48
1

0
LINE
5
16B
100
AcDbEntity
8
dim
6
CONTINUOUS
62
7
370
0
100
AcDbLine
10
88.7780482593
20
52.2892675628
11
81.2219517407
21
41.7107324372
0
SOLID
5
16C
100
AcDbEntity
8
dim
6
CONTINUOUS
62
7
370
0
100
AcDbTrace
10
85.8718572906
20
48.2206002068
30
0
11
86.9862080154
21
50.4968944274
31
0
12
87.6636975345
22
50.0129733422
32
0
13
87.6636975345
23
50.0129733422
33
0
0
SOLID
5
16D
100
AcDbEntity
8
dim
6
CONTINUOUS
62
7
370
0
100
AcDbTrace
10
84.1281427094
20
45.7793997932
30
0
11
83.0137919846
21
43.5031055726
31
0
12
82.3363024655
22
43.9870266578
32
0
13
82.3363024655
23
43.9870266578
33
0
0
MTEXT
5
16E
100
AcDbEntity
8
dim
6
CONTINUOUS
62
7
370
0
100
AcDbMText
10
85.758838753
20
51.2882462292
30
0
40
2.5
41
3.61111111111
71
5
72
1
1
ø3
7
standard
210
0
220
0
230
1
50
54.4623222071
73
2
44
1
0
ENDBLK
5
98
330
96
100
AcDbEntity
8
0
100
AcDbBlockEnd
0
BLOCK
5
9A
330
99
100
AcDbEntity
8
0
100
AcDbBlockBegin
2
*D9
70
1
10
0
20
0
3
*D9
1

0
LINE
5
16F
100
AcDbEntity
8
dim
6
CONTINUOUS
62
7
370
0
100
AcDbLine
10
0
20
70
11
8
21
70
0
SOLID
5
170
100
AcDbEntity
8
dim
6
CONTINUOUS
62
7
370
0
100
AcDbTrace
10
0
20
70
30
0
11
2.5
21
70.4162846578
31
0
12
2.5
22
69.5837153422
32
0
13
2.5
23
69.5837153422
33
0
0
SOLID
5
171
100
AcDbEntity
8
dim
6
CONTINUOUS
62
7
370
0
100
AcDbTrace
10
8
20
70
30
0
11
5.5
21
69.5837153422
31
0
12
5.5
22
70.4162846578
32
0
13
5.5
23
70.4162846578
33
0
0
MTEXT
5
172
100
AcDbEntity
8
dim
6
CONTINUOUS
62
7
370
0
100
AcDbMText
10
4
20
71.875
30
0
40
2.5
41
1.11111111111
71
5
72
1
1
8
7
standard
210
0
220
0
230
1
50
0
73
2
44
1
0
LINE
5
173
100
AcDbEntity
8
dim
6
CONTINUOUS
62
7
370
0
100
AcDbLine
10
3.82689485569e-17
20
60.625
11
7.65378971139e-17
21
71.25
0
LINE
5
174
100
AcDbEntity
8
dim
6
CONTINUOUS
62
7
370
0
100
AcDbLine
10
8
20
55.625
11
8
21
71.25
0
ENDBLK
5
9B
330
99
100
AcDbEntity
8
0
100
AcDbBlockEnd
0
BLOCK
5
9D
330
9C
100
AcDbEntity
8
0
100
AcDbBlockBegin
2
*D45
70
1
10
0
20
0
3
*D45
1

0
LINE
5
175
100
AcDbEntity
8
dim
6
CONTINUOUS
62
7
370
0
100
AcDbLine
10
-90.5737040173
20
-43.6557775899
11
-79.4262959827
21
-50.3442224101
0
SOLID
5
176
100
AcDbEntity
8
dim
6
CONTINUOUS
62
7
370
0
100
AcDbTrace
10
-86.2862393886
20
-46.2282563669
30
0
11
-88.6441483924
21
-45.2989781275
31
0
12
-88.2157950135
22
-44.5850558293
32
0
13
-88.2157950135
23
-44.5850558293
33
0
0
SOLID
5
177
100
AcDbEntity
8
dim
6
CONTINUOUS
62
7
370
0
100
AcDbTrace
10
-83.7137606114
20
-47.7717436331
30
0
11
-81.3558516076
21
-48.7010218725
31
0
12
-81.7842049865
22
-49.4149441707
32
0
13
-81.7842049865
23
-49.4149441707
33
0
0
MTEXT
5
178
100
AcDbEntity
8
dim
6
CONTINUOUS
62
7
370
0
100
AcDbMText
10
-80.6648968755
20
-47.414454914
30
0
40
2.5
41
3.61111111111
71
5
72
1
1
ø3
7
standard
210
0
220
0
230
1
50
329.03624347
73
2
44
1
0
ENDBLK
5
9E
330
9C
100
AcDbEntity
8
0
100
AcDbBlockEnd
0
BLOCK
5
A0
330
9F
100
AcDbEntity
8
0
100
AcDbBlockBegin
2
*D39
70
1
10
0
20
0
3
*D39
1

0
LINE
5
179
100
AcDbEntity
8
dim
6
CONTINUOUS
62
7
370
0
100
AcDbLine
10
-98
20
-50
11
-98
21
-65
0
SOLID
5
17A
100
AcDbEntity
8
dim
6
CONTINUOUS
62
7
370
0
100
AcDbTrace
10
-98
20
-55
30
0
11
-98.4162846578
21
-52.5
31
0
12
-97.5837153422
22
-52.5
32
0
13
-97.5837153422
23
-52.5
33
0
0
SOLID
5
17B
100
AcDbEntity
8
dim
6
CONTINUOUS
62
7
370
0
100
AcDbTrace
10
-98
20
-60
30
0
11
-97.5837153422
21
-62.5
31
0
12
-98.4162846578
22
-62.5
32
0
13
-98.4162846578
23
-62.5
33
0
0
MTEXT
5
17C
100
AcDbEntity
8
dim
6
CONTINUOUS
62
7
370
0
100
AcDbMText
10
-99.875
20
-57.5
30
0
40
2.5
41
1.11111111111
71
5
72
1
1
5
7
standard
210
0
220
0
230
1
50
90
73
2
44
1
0
LINE
5
17D
100
AcDbEntity
8
dim
6
CONTINUOUS
62
7
370
0
100
AcDbLine
10
-59.625
20
-55
11
-99.25
21
-55
0
LINE
5
17E
100
AcDbEntity
8
dim
6
CONTINUOUS
62
7
370
0
100
AcDbLine
10
-90.625
20
-60
11
-99.25
21
-60
0
ENDBLK
5
A1
330
9F
100
AcDbEntity
8
0
100
AcDbBlockEnd
0
BLOCK
5
A3
330
A2
100
AcDbEntity
8
0
100
AcDbBlockBegin
2
*D18
70
1
10
0
20
0
3
*D18
1

0
LINE
5
17F
100
AcDbEntity
8
dim
6
CONTINUOUS
62
7
370
0
100
AcDbLine
10
-45
20
66
11
-59
21
66
0
SOLID
5
180
100
AcDbEntity
8
dim
6
CONTINUOUS
62
7
370
0
100
AcDbTrace
10
-45
20
66
30
0
11
-47.5
21
65.5837153422
31
0
12
-47.5
22
66.4162846578
32
0
13
-47.5
23
66.4162846578
33
0
0
SOLID
5
181
100
AcDbEntity
8
dim
6
CONTINUOUS
62
7
370
0
100
AcDbTrace
10
-59
20
66
30
0
11
-56.5
21
66.4162846578
31
0
12
-56.5
22
65.5837153422
32
0
13
-56.5
23
65.5837153422
33
0
0
MTEXT
5
182
100
AcDbEntity
8
dim
6
CONTINUOUS
62
7
370
0
100
AcDbMText
10
-52
20
67.875
30
0
40
2.5
41
2.77777777778
71
5
72
1
1
14
7
standard
210
0
220
0
230
1
50
360
73
2
44
1
0
LINE
5
183
100
AcDbEntity
8
dim
6
CONTINUOUS
62
7
370
0
100
AcDbLine
10
-45
20
45.625
11
-45
21
67.25
0
LINE
5
184
100
AcDbEntity
8
dim
6
CONTINUOUS
62
7
370
0
100
AcDbLine
10
-59
20
47.625
11
-59
21
67.25
0
ENDBLK
5
A4
330
A2
100
AcDbEntity
8
0
100
AcDbBlockEnd
0
BLOCK
5
A6
330
A5
100
AcDbEntity
8
0
100
AcDbBlockBegin
2
*D40
70
1
10
0
20
0
3
*D40
1

0
LINE
5
185
100
AcDbEntity
8
dim
6
CONTINUOUS
62
7
370
0
100
AcDbLine
10
-98
20
-55
11
-98
21
-47
0
SOLID
5
186
100
AcDbEntity
8
dim
6
CONTINUOUS
62
7
370
0
100
AcDbTrace
10
-98
20
-55
30
0
11
-98.4162846578
21
-52.5
31
0
12
-97.5837153422
22
-52.5
32
0
13
-97.5837153422
23
-52.5
33
0
0
SOLID
5
187
100
AcDbEntity
8
dim
6
CONTINUOUS
62
7
370
0
100
AcDbTrace
10
-98
20
-47
30
0
11
-97.5837153422
21
-49.5
31
0
12
-98.4162846578
22
-49.5
32
0
13
-98.4162846578
23
-49.5
33
0
0
MTEXT
5
188
100
AcDbEntity
8
dim
6
CONTINUOUS
62
7
370
0
100
AcDbMText
10
-99.875
20
-51
30
0
40
2.5
41
1.11111111111
71
5
72
1
1
8
7
standard
210
0
220
0
230
1
50
90
73
2
44
1
0
LINE
5
189
100
AcDbEntity
8
dim
6
CONTINUOUS
62
7
370
0
100
AcDbLine
10
-59.625
20
-55
11
-99.25
21
-55
0
LINE
5
18A
100
AcDbEntity
8
dim
6
CONTINUOUS
62
7
370
0
100
AcDbLine
10
-85.625
20
-47
11
-99.25
21
-47
0
ENDBLK
5
A7
330
A5
100
AcDbEntity
8
0
100
AcDbBlockEnd
0
BLOCK
5
A9
330
A8
100
AcDbEntity
8
0
100
AcDbBlockBegin
2
*D41
70
1
10
0
20
0
3
*D41
1

0
LINE
5
18B
100
AcDbEntity
8
dim
6
CONTINUOUS
62
7
370
0
100
AcDbLine
10
-98
20
-52
11
-98
21
-40
0
SOLID
5
18C
100
AcDbEntity
8
dim
6
CONTINUOUS
62
7
370
0
100
AcDbTrace
10
-98
20
-47
30
0
11
-97.5837153422
21
-49.5
31
0
12
-98.4162846578
22
-49.5
32
0
13
-98.4162846578
23
-49.5
33
0
0
SOLID
5
18D
100
AcDbEntity
8
dim
6
CONTINUOUS
62
7
370
0
100
AcDbTrace
10
-98
20
-45
30
0
11
-98.4162846578
21
-42.5
31
0
12
-97.5837153422
22
-42.5
32
0
13
-97.5837153422
23
-42.5
33
0
0
MTEXT
5
18E
100
AcDbEntity
8
dim
6
CONTINUOUS
62
7
370
0
100
AcDbMText
10
-99.875
20
-46
30
0
40
2.5
41
1.11111111111
71
5
72
1
1
2
7
standard
210
0
220
0
230
1
50
90
73
2
44
1
0
LINE
5
18F
100
AcDbEntity
8
dim
6
CONTINUOUS
62
7
370
0
100
AcDbLine
10
-85.625
20
-47
11
-99.25
21
-47
0
LINE
5
190
100
AcDbEntity
8
dim
6
CONTINUOUS
62
7
370
0
100
AcDbLine
10
-45.625
20
-45
11
-99.25
21
-45
0
ENDBLK
5
AA
330
A8
100
AcDbEntity
8
0
100
AcDbBlockEnd
0
BLOCK
5
AC
330
AB
100
AcDbEntity
8
0
100
AcDbBlockBegin
2
*D34
70
1
10
0
20
0
3
*D34
1

0
LINE
5
191
100
AcDbEntity
8
dim
6
CONTINUOUS
62
7
370
0
100
AcDbLine
10
85
20
-67
11
59
21
-67
0
SOLID
5
192
100
AcDbEntity
8
dim
6
CONTINUOUS
62
7
370
0
100
AcDbTrace
10
85
20
-67
30
0
11
82.5
21
-67.4162846578
31
0
12
82.5
22
-66.5837153422
32
0
13
82.5
23
-66.5837153422
33
0
0
SOLID
5
193
100
AcDbEntity
8
dim
6
CONTINUOUS
62
7
370
0
100
AcDbTrace
10
59
20
-67
30
0
11
61.5
21
-66.5837153422
31
0
12
61.5
22
-67.4162846578
32
0
13
61.5
23
-67.4162846578
33
0
0
MTEXT
5
194
100
AcDbEntity
8
dim
6
CONTINUOUS
62
7
370
0
100
AcDbMText
10
72
20
-65.125
30
0
40
2.5
41
3.05555555556
71
5
72
1
1
26
7
standard
210
0
220
0
230
1
50
360
73
2
44
1
0
LINE
5
195
100
AcDbEntity
8
dim
6
CONTINUOUS
62
7
370
0
100
AcDbLine
10
85
20
-55.625
11
85
21
-68.25
0
LINE
5
196
100
AcDbEntity
8
dim
6
CONTINUOUS
62
7
370
0
100
AcDbLine
10
59
20
-47.625
11
59
21
-68.25
0
ENDBLK
5
AD
330
AB
100
AcDbEntity
8
0
100
AcDbBlockEnd
0
BLOCK
5
AF
330
AE
100
AcDbEntity
8
0
100
AcDbBlockBegin
2
*D33
70
1
10
0
20
0
3
*D33
1

0
LINE
5
197
100
AcDbEntity
8
dim
6
CONTINUOUS
62
7
370
0
100
AcDbLine
10
80
20
-67
11
95
21
-67
0
SOLID
5
198
100
AcDbEntity
8
dim
6
CONTINUOUS
62
7
370
0
100
AcDbTrace
10
85
20
-67
30
0
11
82.5
21
-67.4162846578
31
0
12
82.5
22
-66.5837153422
32
0
13
82.5
23
-66.5837153422
33
0
0
SOLID
5
199
100
AcDbEntity
8
dim
6
CONTINUOUS
62
7
370
0
100
AcDbTrace
10
90
20
-67
30
0
11
92.5
21
-66.5837153422
31
0
12
92.5
22
-67.4162846578
32
0
13
92.5
23
-67.4162846578
33
0
0
MTEXT
5
19A
100
AcDbEntity
8
dim
6
CONTINUOUS
62
7
370
0
100
AcDbMText
10
87.5
20
-65.125
30
0
40
2.5
41
1.11111111111
71
5
72
1
1
5
7
standard
210
0
220
0
230
1
50
0
73
2
44
1
0
LINE
5
19B
100
AcDbEntity
8
dim
6
CONTINUOUS
62
7
370
0
100
AcDbLine
10
85
20
-55.625
11
85
21
-68.25
0
LINE
5
19C
100
AcDbEntity
8
dim
6
CONTINUOUS
62
7
370
0
100
AcDbLine
10
90
20
-60.625
11
90
21
-68.25
0
ENDBLK
5
B0
330
AE
100
AcDbEntity
8
0
100
AcDbBlockEnd
0
BLOCK
5
B2
330
B1
100
AcDbEntity
8
0
100
AcDbBlockBegin
2
*D44
70
1
10
0
20
0
3
*D44
1

0
LINE
5
19D
100
AcDbEntity
8
dim
6
CONTINUOUS
62
7
370
0
100
AcDbLine
10
100
20
-52
11
100
21
-40
0
SOLID
5
19E
100
AcDbEntity
8
dim
6
CONTINUOUS
62
7
370
0
100
AcDbTrace
10
100
20
-47
30
0
11
100.416284658
21
-49.5
31
0
12
99.5837153422
22
-49.5
32
0
13
99.5837153422
23
-49.5
33
0
0
SOLID
5
19F
100
AcDbEntity
8
dim
6
CONTINUOUS
62
7
370
0
100
AcDbTrace
10
100
20
-45
30
0
11
99.5837153422
21
-42.5
31
0
12
100.416284658
22
-42.5
32
0
13
100.416284658
23
-42.5
33
0
0
MTEXT
5
1A0
100
AcDbEntity
8
dim
6
CONTINUOUS
62
7
370
0
100
AcDbMText
10
98.125
20
-46
30
0
40
2.5
41
1.11111111111
71
5
72
1
1
2
7
standard
210
0
220
0
230
1
50
90
73
2
44
1
0
LINE
5
1A1
100
AcDbEntity
8
dim
6
CONTINUOUS
62
7
370
0
100
AcDbLine
10
59.625
20
-47
11
101.25
21
-47
0
LINE
5
1A2
100
AcDbEntity
8
dim
6
CONTINUOUS
62
7
370
0
100
AcDbLine
10
45.625
20
-45
11
101.25
21
-45
0
ENDBLK
5
B3
330
B1
100
AcDbEntity
8
0
100
AcDbBlockEnd
0
BLOCK
5
B5
330
B4
100
AcDbEntity
8
0
100
AcDbBlockBegin
2
*D46
70
1
10
0
20
0
3
*D46
1

0
LINE
5
1A3
100
AcDbEntity
8
dim
6
CONTINUOUS
62
7
370
0
100
AcDbLine
10
-64.6820222948
20
-51.8433209473
11
-53.3179777052
21
-58.1566790527
0
SOLID
5
1A4
100
AcDbEntity
8
dim
6
CONTINUOUS
62
7
370
0
100
AcDbTrace
10
-60.3112359142
20
-54.2715356032
30
0
11
-62.6987948059
21
-53.4213265378
31
0
12
-62.2944634031
22
-52.6935300127
32
0
13
-62.2944634031
23
-52.6935300127
33
0
0
SOLID
5
1A5
100
AcDbEntity
8
dim
6
CONTINUOUS
62
7
370
0
100
AcDbTrace
10
-57.6887640858
20
-55.7284643968
30
0
11
-55.3012051941
21
-56.5786734622
31
0
12
-55.7055365969
22
-57.3064699873
32
0
13
-55.7055365969
23
-57.3064699873
33
0
0
MTEXT
5
1A6
100
AcDbEntity
8
dim
6
CONTINUOUS
62
7
370
0
100
AcDbMText
10
-54.6534957659
20
-55.2698016285
30
0
40
2.5
41
3.61111111111
71
5
72
1
1
ø3
7
standard
210
0
220
0
230
1
50
330.9453959
73
2
44
1
0
ENDBLK
5
B6
330
B4
100
AcDbEntity
8
0
100
AcDbBlockEnd
0
BLOCK
5
B8
330
B7
100
AcDbEntity
8
0
100
AcDbBlockBegin
2
*D1
70
1
10
0
20
0
3
*D1
1

0
LINE
5
1A7
100
AcDbEntity
8
dim
6
CONTINUOUS
62
7
370
0
100
AcDbLine
10
13.511988976
20
51.55500689
11
2.48801102396
21
58.44499311
0
SOLID
5
1A8
100
AcDbEntity
8
dim
6
CONTINUOUS
62
7
370
0
100
AcDbTrace
10
9.27199745601
20
54.20500159
30
0
11
11.6126236434
21
53.2330129238
31
0
12
11.1713627887
22
52.5269955562
32
0
13
11.1713627887
23
52.5269955562
33
0
0
SOLID
5
1A9
100
AcDbEntity
8
dim
6
CONTINUOUS
62
7
370
0
100
AcDbTrace
10
6.72800254399
20
55.79499841
30
0
11
4.38737635661
21
56.7669870762
31
0
12
4.82863721133
22
57.4730044438
32
0
13
4.82863721133
23
57.4730044438
33
0
0
MTEXT
5
1AA
100
AcDbEntity
8
dim
6
CONTINUOUS
62
7
370
0
100
AcDbMText
10
12.3268524574
20
54.5068065419
30
0
40
2.5
41
3.61111111111
71
5
72
1
1
ø3
7
standard
210
0
220
0
230
1
50
327.994616792
73
2
44
1
0
ENDBLK
5
B9
330
B7
100
AcDbEntity
8
0
100
AcDbBlockEnd
0
BLOCK
5
BB
330
BA
100
AcDbEntity
8
0
100
AcDbBlockBegin
2
*D21
70
1
10
0
20
0
3
*D21
1

0
LINE
5
1AB
100
AcDbEntity
8
dim
6
CONTINUOUS
62
7
370
0
100
AcDbLine
10
-20
20
50
11
-20
21
65
0
SOLID
5
1AC
100
AcDbEntity
8
dim
6
CONTINUOUS
62
7
370
0
100
AcDbTrace
10
-20
20
55
30
0
11
-19.5837153422
21
52.5
31
0
12
-20.4162846578
22
52.5
32
0
13
-20.4162846578
23
52.5
33
0
0
SOLID
5
1AD
100
AcDbEntity
8
dim
6
CONTINUOUS
62
7
370
0
100
AcDbTrace
10
-20
20
60
30
0
11
-20.4162846578
21
62.5
31
0
12
-19.5837153422
22
62.5
32
0
13
-19.5837153422
23
62.5
33
0
0
MTEXT
5
1AE
100
AcDbEntity
8
dim
6
CONTINUOUS
62
7
370
0
100
AcDbMText
10
-21.875
20
57.5
30
0
40
2.5
41
1.11111111111
71
5
72
1
1
5
7
standard
210
0
220
0
230
1
50
90
73
2
44
1
0
LINE
5
1AF
100
AcDbEntity
8
dim
6
CONTINUOUS
62
7
370
0
100
AcDbLine
10
-8.625
20
55
11
-21.25
21
55
0
LINE
5
1B0
100
AcDbEntity
8
dim
6
CONTINUOUS
62
7
370
0
100
AcDbLine
10
-8.625
20
60
11
-21.25
21
60
0
ENDBLK
5
BC
330
BA
100
AcDbEntity
8
0
100
AcDbBlockEnd
0
BLOCK
5
BE
330
BD
100
AcDbEntity
8
0
100
AcDbBlockBegin
2
*D19
70
1
10
0
20
0
3
*D19
1

0
LINE
5
1B1
100
AcDbEntity
8
dim
6
CONTINUOUS
62
7
370
0
100
AcDbLine
10
-96
20
40
11
-96
21
52
0
SOLID
5
1B2
100
AcDbEntity
8
dim
6
CONTINUOUS
62
7
370
0
100
AcDbTrace
10
-96
20
45
30
0
11
-95.5837153422
21
42.5
31
0
12
-96.4162846578
22
42.5
32
0
13
-96.4162846578
23
42.5
33
0
0
SOLID
5
1B3
100
AcDbEntity
8
dim
6
CONTINUOUS
62
7
370
0
100
AcDbTrace
10
-96
20
47
30
0
11
-96.4162846578
21
49.5
31
0
12
-95.5837153422
22
49.5
32
0
13
-95.5837153422
23
49.5
33
0
0
MTEXT
5
1B4
100
AcDbEntity
8
dim
6
CONTINUOUS
62
7
370
0
100
AcDbMText
10
-97.875
20
46
30
0
40
2.5
41
1.11111111111
71
5
72
1
1
2
7
standard
210
0
220
0
230
1
50
90
73
2
44
1
0
LINE
5
1B5
100
AcDbEntity
8
dim
6
CONTINUOUS
62
7
370
0
100
AcDbLine
10
-45.625
20
45
11
-97.25
21
45
0
LINE
5
1B6
100
AcDbEntity
8
dim
6
CONTINUOUS
62
7
370
0
100
AcDbLine
10
-59.625
20
47
11
-97.25
21
47
0
ENDBLK
5
BF
330
BD
100
AcDbEntity
8
0
100
AcDbBlockEnd
0
BLOCK
5
C1
330
C0
100
AcDbEntity
8
0
100
AcDbBlockBegin
2
*D13
70
1
10
0
20
0
3
*D13
1

0
LINE
5
1B7
100
AcDbEntity
8
dim
6
CONTINUOUS
62
7
370
0
100
AcDbLine
10
-96
20
47
11
-96
21
55
0
SOLID
5
1B8
100
AcDbEntity
8
dim
6
CONTINUOUS
62
7
370
0
100
AcDbTrace
10
-96
20
47
30
0
11
-96.4162846578
21
49.5
31
0
12
-95.5837153422
22
49.5
32
0
13
-95.5837153422
23
49.5
33
0
0
SOLID
5
1B9
100
AcDbEntity
8
dim
6
CONTINUOUS
62
7
370
0
100
AcDbTrace
10
-96
20
55
30
0
11
-95.5837153422
21
52.5
31
0
12
-96.4162846578
22
52.5
32
0
13
-96.4162846578
23
52.5
33
0
0
MTEXT
5
1BA
100
AcDbEntity
8
dim
6
CONTINUOUS
62
7
370
0
100
AcDbMText
10
-97.875
20
51
30
0
40
2.5
41
1.11111111111
71
5
72
1
1
8
7
standard
210
0
220
0
230
1
50
90
73
2
44
1
0
LINE
5
1BB
100
AcDbEntity
8
dim
6
CONTINUOUS
62
7
370
0
100
AcDbLine
10
-59.625
20
47
11
-97.25
21
47
0
LINE
5
1BC
100
AcDbEntity
8
dim
6
CONTINUOUS
62
7
370
0
100
AcDbLine
10
-85.625
20
55
11
-97.25
21
55
0
ENDBLK
5
C2
330
C0
100
AcDbEntity
8
0
100
AcDbBlockEnd
0
BLOCK
5
C4
330
C3
100
AcDbEntity
8
0
100
AcDbBlockBegin
2
*D29
70
1
10
0
20
0
3
*D29
1

0
LINE
5
1BD
100
AcDbEntity
8
dim
6
CONTINUOUS
62
7
370
0
100
AcDbLine
10
-20
20
-50
11
-20
21
-65
0
SOLID
5
1BE
100
AcDbEntity
8
dim
6
CONTINUOUS
62
7
370
0
100
AcDbTrace
10
-20
20
-55
30
0
11
-20.4162846578
21
-52.5
31
0
12
-19.5837153422
22
-52.5
32
0
13
-19.5837153422
23
-52.5
33
0
0
SOLID
5
1BF
100
AcDbEntity
8
dim
6
CONTINUOUS
62
7
370
0
100
AcDbTrace
10
-20
20
-60
30
0
11
-19.5837153422
21
-62.5
31
0
12
-20.4162846578
22
-62.5
32
0
13
-20.4162846578
23
-62.5
33
0
0
MTEXT
5
1C0
100
AcDbEntity
8
dim
6
CONTINUOUS
62
7
370
0
100
AcDbMText
10
-21.875
20
-57.5
30
0
40
2.5
41
1.11111111111
71
5
72
1
1
5
7
standard
210
0
220
0
230
1
50
90
73
2
44
1
0
LINE
5
1C1
100
AcDbEntity
8
dim
6
CONTINUOUS
62
7
370
0
100
AcDbLine
10
-8.625
20
-55
11
-21.25
21
-55
0
LINE
5
1C2
100
AcDbEntity
8
dim
6
CONTINUOUS
62
7
370
0
100
AcDbLine
10
-8.625
20
-60
11
-21.25
21
-60
0
ENDBLK
5
C5
330
C3
100
AcDbEntity
8
0
100
AcDbBlockEnd
0
BLOCK
5
C7
330
C6
100
AcDbEntity
8
0
100
AcDbBlockBegin
2
*D31
70
1
10
0
20
0
3
*D31
1

0
LINE
5
1C3
100
AcDbEntity
8
dim
6
CONTINUOUS
62
7
370
0
100
AcDbLine
10
-8
20
-68
11
0
21
-68
0
SOLID
5
1C4
100
AcDbEntity
8
dim
6
CONTINUOUS
62
7
370
0
100
AcDbTrace
10
-8
20
-68
30
0
11
-5.5
21
-67.5837153422
31
0
12
-5.5
22
-68.4162846578
32
0
13
-5.5
23
-68.4162846578
33
0
0
SOLID
5
1C5
100
AcDbEntity
8
dim
6
CONTINUOUS
62
7
370
0
100
AcDbTrace
10
0
20
-68
30
0
11
-2.5
21
-68.4162846578
31
0
12
-2.5
22
-67.5837153422
32
0
13
-2.5
23
-67.5837153422
33
0
0
MTEXT
5
1C6
100
AcDbEntity
8
dim
6
CONTINUOUS
62
7
370
0
100
AcDbMText
10
-4
20
-66.125
30
0
40
2.5
41
1.11111111111
71
5
72
1
1
8
7
standard
210
0
220
0
230
1
50
0
73
2
44
1
0
LINE
5
1C7
100
AcDbEntity
8
dim
6
CONTINUOUS
62
7
370
0
100
AcDbLine
10
-8
20
-55.625
11
-8
21
-69.25
0
LINE
5
1C8
100
AcDbEntity
8
dim
6
CONTINUOUS
62
7
370
0
100
AcDbLine
10
-1.14806845671e-16
20
-60.625
11
-2.29613691342e-16
21
-69.25
0
ENDBLK
5
C8
330
C6
100
AcDbEntity
8
0
100
AcDbBlockEnd
0
BLOCK
5
CA
330
C9
100
AcDbEntity
8
0
100
AcDbBlockBegin
2
*D36
70
1
10
0
20
0
3
*D36
1

0
LINE
5
1C9
100
AcDbEntity
8
dim
6
CONTINUOUS
62
7
370
0
100
AcDbLine
10
-80
20
-67
11
-95
21
-67
0
SOLID
5
1CA
100
AcDbEntity
8
dim
6
CONTINUOUS
62
7
370
0
100
AcDbTrace
10
-85
20
-67
30
0
11
-82.5
21
-66.5837153422
31
0
12
-82.5
22
-67.4162846578
32
0
13
-82.5
23
-67.4162846578
33
0
0
SOLID
5
1CB
100
AcDbEntity
8
dim
6
CONTINUOUS
62
7
370
0
100
AcDbTrace
10
-90
20
-67
30
0
11
-92.5
21
-67.4162846578
31
0
12
-92.5
22
-66.5837153422
32
0
13
-92.5
23
-66.5837153422
33
0
0
MTEXT
5
1CC
100
AcDbEntity
8
dim
6
CONTINUOUS
62
7
370
0
100
AcDbMText
10
-87.5
20
-65.125
30
0
40
2.5
41
1.11111111111
71
5
72
1
1
5
7
standard
210
0
220
0
230
1
50
360
73
2
44
1
0
LINE
5
1CD
100
AcDbEntity
8
dim
6
CONTINUOUS
62
7
370
0
100
AcDbLine
10
-85
20
-47.625
11
-85
21
-68.25
0
LINE
5
1CE
100
AcDbEntity
8
dim
6
CONTINUOUS
62
7
370
0
100
AcDbLine
10
-90
20
-60.625
11
-90
21
-68.25
0
ENDBLK
5
CB
330
C9
100
AcDbEntity
8
0
100
AcDbBlockEnd
0
BLOCK
5
CD
330
CC
100
AcDbEntity
8
0
100
AcDbBlockBegin
2
*D8
70
1
10
0
20
0
3
*D8
1

0
LINE
5
1CF
100
AcDbEntity
8
dim
6
CONTINUOUS
62
7
370
0
100
AcDbLine
10
-49.9497474683
20
40.0502525317
11
-40.0502525317
21
49.9497474683
0
SOLID
5
1D0
100
AcDbEntity
8
dim
6
CONTINUOUS
62
7
370
0
100
AcDbTrace
10
-46.4142135624
20
43.5857864376
30
0
11
-47.887622811
21
41.5236617802
31
0
12
-48.4763382198
22
42.112377189
32
0
13
-48.4763382198
23
42.112377189
33
0
0
SOLID
5
1D1
100
AcDbEntity
8
dim
6
CONTINUOUS
62
7
370
0
100
AcDbTrace
10
-43.5857864376
20
46.4142135624
30
0
11
-42.112377189
21
48.4763382198
31
0
12
-41.5236617802
22
47.887622811
32
0
13
-41.5236617802
23
47.887622811
33
0
0
MTEXT
5
1D2
100
AcDbEntity
8
dim
6
CONTINUOUS
62
7
370
0
100
AcDbMText
10
-46.3258252147
20
46.3258252147
30
0
40
2.5
41
3.88888888889
71
5
72
1
1
   ø4
7
standard
210
0
220
0
230
1
50
45
73
2
44
1
0
ENDBLK
5
CE
330
CC
100
AcDbEntity
8
0
100
AcDbBlockEnd
0
BLOCK
5
D0
330
CF
100
AcDbEntity
8
0
100
AcDbBlockBegin
2
*D14
70
1
10
0
20
0
3
*D14
1

0
LINE
5
1D3
100
AcDbEntity
8
dim
6
CONTINUOUS
62
7
370
0
100
AcDbLine
10
-80
20
66
11
-95
21
66
0
SOLID
5
1D4
100
AcDbEntity
8
dim
6
CONTINUOUS
62
7
370
0
100
AcDbTrace
10
-85
20
66
30
0
11
-82.5
21
66.4162846578
31
0
12
-82.5
22
65.5837153422
32
0
13
-82.5
23
65.5837153422
33
0
0
SOLID
5
1D5
100
AcDbEntity
8
dim
6
CONTINUOUS
62
7
370
0
100
AcDbTrace
10
-90
20
66
30
0
11
-92.5
21
65.5837153422
31
0
12
-92.5
22
66.4162846578
32
0
13
-92.5
23
66.4162846578
33
0
0
MTEXT
5
1D6
100
AcDbEntity
8
dim
6
CONTINUOUS
62
7
370
0
100
AcDbMText
10
-87.5
20
67.875
30
0
40
2.5
41
1.11111111111
71
5
72
1
1
5
7
standard
210
0
220
0
230
1
50
360
73
2
44
1
0
LINE
5
1D7
100
AcDbEntity
8
dim
6
CONTINUOUS
62
7
370
0
100
AcDbLine
10
-85
20
55.625
11
-85
21
67.25
0
LINE
5
1D8
100
AcDbEntity
8
dim
6
CONTINUOUS
62
7
370
0
100
AcDbLine
10
-90
20
60.625
11
-90
21
67.25
0
ENDBLK
5
D1
330
CF
100
AcDbEntity
8
0
100
AcDbBlockEnd
0
BLOCK
5
D3
330
D2
100
AcDbEntity
8
0
100
AcDbBlockBegin
2
*D2
70
1
10
0
20
0
3
*D2
1

0
LINE
5
1D9
100
AcDbEntity
8
dim
6
CONTINUOUS
62
7
370
0
100
AcDbLine
10
-1.99999999997
20
52.5000000001
11
-14
21
57.4999999999
0
SOLID
5
1DA
100
AcDbEntity
8
dim
6
CONTINUOUS
62
7
370
0
100
AcDbTrace
10
-6.61538461538
20
54.4230769231
30
0
11
-4.14758282392
21
53.8458012226
31
0
12
-4.46780179143
22
53.0772757006
32
0
13
-4.46780179143
23
53.0772757006
33
0
0
SOLID
5
1DB
100
AcDbEntity
8
dim
6
CONTINUOUS
62
7
370
0
100
AcDbTrace
10
-9.38461538462
20
55.5769230769
30
0
11
-11.8524171761
21
56.1541987774
31
0
12
-11.5321982086
22
56.9227242994
32
0
13
-11.5321982086
23
56.9227242994
33
0
0
MTEXT
5
1DC
100
AcDbEntity
8
dim
6
CONTINUOUS
62
7
370
0
100
AcDbMText
10
-3.65064102563
20
55.2190170941
30
0
40
2.5
41
3.61111111111
71
5
72
1
1
ø3
7
standard
210
0
220
0
230
1
50
337.380135053
73
2
44
1
0
ENDBLK
5
D4
330
D2
100
AcDbEntity
8
0
100
AcDbBlockEnd
0
BLOCK
5
D6
330
D5
100
AcDbEntity
8
0
100
AcDbBlockBegin
2
*D43
70
1
10
0
20
0
3
*D43
1

0
LINE
5
1DD
100
AcDbEntity
8
dim
6
CONTINUOUS
62
7
370
0
100
AcDbLine
10
100
20
-55
11
100
21
-47
0
SOLID
5
1DE
100
AcDbEntity
8
dim
6
CONTINUOUS
62
7
370
0
100
AcDbTrace
10
100
20
-55
30
0
11
99.5837153422
21
-52.5
31
0
12
100.416284658
22
-52.5
32
0
13
100.416284658
23
-52.5
33
0
0
SOLID
5
1DF
100
AcDbEntity
8
dim
6
CONTINUOUS
62
7
370
0
100
AcDbTrace
10
100
20
-47
30
0
11
100.416284658
21
-49.5
31
0
12
99.5837153422
22
-49.5
32
0
13
99.5837153422
23
-49.5
33
0
0
MTEXT
5
1E0
100
AcDbEntity
8
dim
6
CONTINUOUS
62
7
370
0
100
AcDbMText
10
98.125
20
-51
30
0
40
2.5
41
1.11111111111
71
5
72
1
1
8
7
standard
210
0
220
0
230
1
50
90
73
2
44
1
0
LINE
5
1E1
100
AcDbEntity
8
dim
6
CONTINUOUS
62
7
370
0
100
AcDbLine
10
85.625
20
-55
11
101.25
21
-55
0
LINE
5
1E2
100
AcDbEntity
8
dim
6
CONTINUOUS
62
7
370
0
100
AcDbLine
10
59.625
20
-47
11
101.25
21
-47
0
ENDBLK
5
D7
330
D5
100
AcDbEntity
8
0
100
AcDbBlockEnd
0
BLOCK
5
D9
330
D8
100
AcDbEntity
8
0
100
AcDbBlockBegin
2
*D15
70
1
10
0
20
0
3
*D15
1

0
LINE
5
1E3
100
AcDbEntity
8
dim
6
CONTINUOUS
62
7
370
0
100
AcDbLine
10
-59
20
66
11
-85
21
66
0
SOLID
5
1E4
100
AcDbEntity
8
dim
6
CONTINUOUS
62
7
370
0
100
AcDbTrace
10
-59
20
66
30
0
11
-61.5
21
65.5837153422
31
0
12
-61.5
22
66.4162846578
32
0
13
-61.5
23
66.4162846578
33
0
0
SOLID
5
1E5
100
AcDbEntity
8
dim
6
CONTINUOUS
62
7
370
0
100
AcDbTrace
10
-85
20
66
30
0
11
-82.5
21
66.4162846578
31
0
12
-82.5
22
65.5837153422
32
0
13
-82.5
23
65.5837153422
33
0
0
MTEXT
5
1E6
100
AcDbEntity
8
dim
6
CONTINUOUS
62
7
370
0
100
AcDbMText
10
-72
20
67.875
30
0
40
2.5
41
3.05555555556
71
5
72
1
1
26
7
standard
210
0
220
0
230
1
50
360
73
2
44
1
0
LINE
5
1E7
100
AcDbEntity
8
dim
6
CONTINUOUS
62
7
370
0
100
AcDbLine
10
-59
20
47.625
11
-59
21
67.25
0
LINE
5
1E8
100
AcDbEntity
8
dim
6
CONTINUOUS
62
7
370
0
100
AcDbLine
10
-85
20
55.625
11
-85
21
67.25
0
ENDBLK
5
DA
330
D8
100
AcDbEntity
8
0
100
AcDbBlockEnd
0
BLOCK
5
DC
330
DB
100
AcDbEntity
8
0
100
AcDbBlockBegin
2
*D49
70
1
10
0
20
0
3
*D49
1

0
LINE
5
1E9
100
AcDbEntity
8
dim
6
CONTINUOUS
62
7
370
0
100
AcDbLine
10
52.7290351619
20
-45.2897368623
11
65.2709648381
21
-48.7102631377
0
SOLID
5
1EA
100
AcDbEntity
8
dim
6
CONTINUOUS
62
7
370
0
100
AcDbTrace
10
57.5528542681
20
-46.6053238913
30
0
11
55.0314129758
21
-46.349146754
31
0
12
55.2504764542
22
-45.5459139997
32
0
13
55.2504764542
23
-45.5459139997
33
0
0
SOLID
5
1EB
100
AcDbEntity
8
dim
6
CONTINUOUS
62
7
370
0
100
AcDbTrace
10
60.4471457319
20
-47.3946761087
30
0
11
62.9685870242
21
-47.650853246
31
0
12
62.7495235458
22
-48.4540860003
32
0
13
62.7495235458
23
-48.4540860003
33
0
0
MTEXT
5
1EC
100
AcDbEntity
8
dim
6
CONTINUOUS
62
7
370
0
100
AcDbMText
10
63.2854029333
20
-46.2252654163
30
0
40
2.5
41
3.61111111111
71
5
72
1
1
ø3
7
standard
210
0
220
0
230
1
50
344.744881297
73
2
44
1
0
ENDBLK
5
DD
330
DB
100
AcDbEntity
8
0
100
AcDbBlockEnd
0
BLOCK
5
DF
330
DE
100
AcDbEntity
8
0
100
AcDbBlockBegin
2
PAD002059_PROJ
70
0
10
0
20
0
3
PAD002059_PROJ
1

0
LINE
5
1ED
100
AcDbEntity
8
0
6
ByLayer
62
0
370
-1
100
AcDbLine
10
-90
20
60
11
90
21
60
0
LINE
5
1EE
100
AcDbEntity
8
0
6
ByLayer
62
0
370
-1
100
AcDbLine
10
90
20
60
11
90
21
-60
0
LINE
5
1EF
100
AcDbEntity
8
0
6
ByLayer
62
0
370
-1
100
AcDbLine
10
90
20
-60
11
-90
21
-60
0
LINE
5
1F0
100
AcDbEntity
8
0
6
ByLayer
62
0
370
-1
100
AcDbLine
10
-90
20
-60
11
-90
21
60
0
CIRCLE
5
1F1
100
AcDbEntity
8
0
6
ByLayer
62
0
370
-1
100
AcDbCircle
10
45
20
-45
40
2
0
CIRCLE
5
1F2
100
AcDbEntity
8
0
6
ByLayer
62
0
370
-1
100
AcDbCircle
10
-45
20
-45
40
2
0
CIRCLE
5
1F3
100
AcDbEntity
8
0
6
ByLayer
62
0
370
-1
100
AcDbCircle
10
45
20
45
40
2
0
CIRCLE
5
1F4
100
AcDbEntity
8
0
6
ByLayer
62
0
370
-1
100
AcDbCircle
10
-45
20
45
40
2
0
CIRCLE
5
1F5
100
AcDbEntity
8
0
6
ByLayer
62
0
370
-1
100
AcDbCircle
10
-8
20
55
40
1.5
0
CIRCLE
5
1F6
100
AcDbEntity
8
0
6
ByLayer
62
0
370
-1
100
AcDbCircle
10
8
20
55
40
1.5
0
CIRCLE
5
1F7
100
AcDbEntity
8
0
6
ByLayer
62
0
370
-1
100
AcDbCircle
10
-8
20
-55
40
1.5
0
CIRCLE
5
1F8
100
AcDbEntity
8
0
6
ByLayer
62
0
370
-1
100
AcDbCircle
10
8
20
-55
40
1.5
0
CIRCLE
5
1F9
100
AcDbEntity
8
0
6
ByLayer
62
0
370
-1
100
AcDbCircle
10
-85
20
55
40
1.5
0
CIRCLE
5
1FA
100
AcDbEntity
8
0
6
ByLayer
62
0
370
-1
100
AcDbCircle
10
-59
20
47
40
1.5
0
CIRCLE
5
1FB
100
AcDbEntity
8
0
6
ByLayer
62
0
370
-1
100
AcDbCircle
10
59
20
-47
40
1.5
0
CIRCLE
5
1FC
100
AcDbEntity
8
0
6
ByLayer
62
0
370
-1
100
AcDbCircle
10
85
20
-55
40
1.5
0
CIRCLE
5
1FD
100
AcDbEntity
8
0
6
ByLayer
62
0
370
-1
100
AcDbCircle
10
-85
20
-47
40
1.5
0
CIRCLE
5
1FE
100
AcDbEntity
8
0
6
ByLayer
62
0
370
-1
100
AcDbCircle
10
-59
20
-55
40
1.5
0
CIRCLE
5
1FF
100
AcDbEntity
8
0
6
ByLayer
62
0
370
-1
100
AcDbCircle
10
59
20
55
40
1.5
0
CIRCLE
5
200
100
AcDbEntity
8
0
6
ByLayer
62
0
370
-1
100
AcDbCircle
10
85
20
47
40
1.5
0
ENDBLK
5
E0
330
DE
100
AcDbEntity
8
0
100
AcDbBlockEnd
0
ENDSEC
0
SECTION
2
ENTITIES
0
INSERT
5
201
100
AcDbEntity
8
0
6
ByLayer
62
256
370
-1
100
AcDbBlockReference
2
PAD002059_PROJ
10
0
20
0
30
0
41
1
42
1
43
0
50
0
70
1
71
1
44
0
45
0
0
LINE
5
202
100
AcDbEntity
8
base
6
ByLayer
62
256
370
-1
100
AcDbLine
10
-100
20
0
11
100
21
0
0
DIMENSION
5
203
100
AcDbEntity
8
dim
6
ByLayer
62
256
370
-1
100
AcDbDimension
2
*D1
10
9.27199745601
20
54.20500159
30
0
11
8.99374801251
21
56.58999682
31
0
70
35
1
ø3
71
5
3
Standard
53
0
210
0
220
0
230
1
100
AcDbDiametricDimension
15
6.72800254399
25
55.79499841
35
0
40
0
0
DIMENSION
5
204
100
AcDbEntity
8
dim
6
ByLayer
62
256
370
-1
100
AcDbDimension
2
*D2
10
-6.61538461538
20
54.4230769231
30
0
11
-7.27884615385
21
56.7307692308
31
0
70
35
1
ø3
71
5
3
Standard
53
0
210
0
220
0
230
1
100
AcDbDiametricDimension
15
-9.38461538462
25
55.5769230769
35
0
40
0
0
DIMENSION
5
205
100
AcDbEntity
8
dim
6
ByLayer
62
256
370
-1
100
AcDbDimension
2
*D3
10
-6.61538461538
20
-55.5769230769
30
0
11
-7.27884615385
21
-53.2692307692
31
0
70
35
1
ø3
71
5
3
Standard
53
0
210
0
220
0
230
1
100
AcDbDiametricDimension
15
-9.38461538462
25
-54.4230769231
35
0
40
0
0
DIMENSION
5
206
100
AcDbEntity
8
dim
6
ByLayer
62
256
370
-1
100
AcDbDimension
2
*D4
10
9.44527686444
20
-55.4014657957
30
0
11
8.5018322446
21
-53.1934039194
31
0
70
35
1
ø3
71
5
3
Standard
53
0
210
0
220
0
230
1
100
AcDbDiametricDimension
15
6.55472313556
25
-54.5985342043
35
0
40
0
0
DIMENSION
5
207
100
AcDbEntity
8
dim
6
ByLayer
62
256
370
-1
100
AcDbDimension
2
*D5
10
-46.4142135624
20
-43.5857864376
30
0
11
-43.6741747853
21
-43.6741747853
31
0
70
35
1
   ø4
71
5
3
Standard
53
0
210
0
220
0
230
1
100
AcDbDiametricDimension
15
-43.5857864376
25
-46.4142135624
35
0
40
0
0
DIMENSION
5
208
100
AcDbEntity
8
dim
6
ByLayer
62
256
370
-1
100
AcDbDimension
2
*D6
10
46.4142135624
20
-46.4142135624
30
0
11
46.3258252147
21
-43.6741747853
31
0
70
35
1
   ø4
71
5
3
Standard
53
0
210
0
220
0
230
1
100
AcDbDiametricDimension
15
43.5857864376
25
-43.5857864376
35
0
40
0
0
DIMENSION
5
209
100
AcDbEntity
8
dim
6
ByLayer
62
256
370
-1
100
AcDbDimension
2
*D7
10
46.4142135624
20
43.5857864376
30
0
11
46.3258252147
21
46.3258252147
31
0
70
35
1
   ø4
71
5
3
Standard
53
0
210
0
220
0
230
1
100
AcDbDiametricDimension
15
43.5857864376
25
46.4142135624
35
0
40
0
0
DIMENSION
5
20A
100
AcDbEntity
8
dim
6
ByLayer
62
256
370
-1
100
AcDbDimension
2
*D8
10
-46.4142135624
20
43.5857864376
30
0
11
-46.3258252147
21
46.3258252147
31
0
70
35
1
   ø4
71
5
3
Standard
53
0
210
0
220
0
230
1
100
AcDbDiametricDimension
15
-43.5857864376
25
46.4142135624
35
0
40
0
0
DIMENSION
5
20B
100
AcDbEntity
8
dim
6
ByLayer
62
256
370
-1
100
AcDbDimension
2
*D9
10
8
20
70
30
0
11
4
21
71.875
31
0
70
32
71
5
3
Standard
53
0
210
0
220
0
230
1
100
AcDbAlignedDimension
13
0
23
60
33
0
14
8
24
55
34
0
100
AcDbRotatedDimension
0
LINE
5
20C
100
AcDbEntity
8
base
6
ByLayer
62
256
370
-1
100
AcDbLine
10
0
20
76
11
0
21
-70
0
DIMENSION
5
20D
100
AcDbEntity
8
dim
6
ByLayer
62
256
370
-1
100
AcDbDimension
2
*D10
10
-107
20
-60
30
0
11
-108.875
21
2.29613691342e-16
31
0
70
32
71
5
3
Standard
53
0
210
0
220
0
230
1
100
AcDbAlignedDimension
13
-90
23
60
33
0
14
-90
24
-60
34
0
50
90
100
AcDbRotatedDimension
0
DIMENSION
5
20E
100
AcDbEntity
8
dim
6
ByLayer
62
256
370
-1
100
AcDbDimension
2
*D11
10
90
20
-76
30
0
11
1.14806845671e-16
21
-74.125
31
0
70
32
71
5
3
Standard
53
0
210
0
220
0
230
1
100
AcDbAlignedDimension
13
-90
23
-60
33
0
14
90
24
-60
34
0
100
AcDbRotatedDimension
0
DIMENSION
5
20F
100
AcDbEntity
8
dim
6
ByLayer
62
256
370
-1
100
AcDbDimension
2
*D12
10
-96
20
60
30
0
11
-97.875
21
57.5
31
0
70
32
71
5
72
0
3
Standard
53
0
210
0
220
0
230
1
100
AcDbAlignedDimension
13
-85
23
55
33
0
14
-90
24
60
34
0
50
90
100
AcDbRotatedDimension
0
DIMENSION
5
210
100
AcDbEntity
8
dim
6
ByLayer
62
256
370
-1
100
AcDbDimension
2
*D13
10
-96
20
55
30
0
11
-97.875
21
51
31
0
70
32
71
5
72
0
3
Standard
53
0
210
0
220
0
230
1
100
AcDbAlignedDimension
13
-59
23
47
33
0
14
-85
24
55
34
0
50
90
100
AcDbRotatedDimension
0
DIMENSION
5
211
100
AcDbEntity
8
dim
6
ByLayer
62
256
370
-1
100
AcDbDimension
2
*D14
10
-90
20
66
30
0
11
-87.5
21
67.875
31
0
70
32
71
5
72
0
3
Standard
53
0
210
0
220
0
230
1
100
AcDbAlignedDimension
13
-85
23
55
33
0
14
-90
24
60
34
0
100
AcDbRotatedDimension
0
DIMENSION
5
212
100
AcDbEntity
8
dim
6
ByLayer
62
256
370
-1
100
AcDbDimension
2
*D15
10
-85
20
66
30
0
11
-72
21
67.875
31
0
70
32
71
5
72
0
3
Standard
53
0
210
0
220
0
230
1
100
AcDbAlignedDimension
13
-59
23
47
33
0
14
-85
24
55
34
0
100
AcDbRotatedDimension
0
DIMENSION
5
213
100
AcDbEntity
8
dim
6
ByLayer
62
256
370
-1
100
AcDbDimension
2
*D16
10
-86.2480754415
20
55.8320502943
30
0
11
-83.9599371321
21
56.5600943019
31
0
70
35
1
ø3
71
5
72
0
3
Standard
53
0
210
0
220
0
230
1
100
AcDbDiametricDimension
15
-83.7519245585
25
54.1679497057
35
0
40
0
0
DIMENSION
5
214
100
AcDbEntity
8
dim
6
ByLayer
62
256
370
-1
100
AcDbDimension
2
*D17
10
-60.3416407865
20
47.6708203932
30
0
11
-58.1614745084
21
48.6770509831
31
0
70
35
1
ø3
71
5
72
0
3
Standard
53
0
210
0
220
0
230
1
100
AcDbDiametricDimension
15
-57.6583592135
25
46.3291796068
35
0
40
0
0
DIMENSION
5
215
100
AcDbEntity
8
dim
6
ByLayer
62
256
370
-1
100
AcDbDimension
2
*D18
10
-59
20
66
30
0
11
-52
21
67.875
31
0
70
32
71
5
72
0
3
Standard
53
0
210
0
220
0
230
1
100
AcDbAlignedDimension
13
-45
23
45
33
0
14
-59
24
47
34
0
100
AcDbRotatedDimension
0
DIMENSION
5
216
100
AcDbEntity
8
dim
6
ByLayer
62
256
370
-1
100
AcDbDimension
2
*D19
10
-96
20
47
30
0
11
-97.875
21
46
31
0
70
32
71
5
72
0
3
Standard
53
0
210
0
220
0
230
1
100
AcDbAlignedDimension
13
-45
23
45
33
0
14
-59
24
47
34
0
50
90
100
AcDbRotatedDimension
0
DIMENSION
5
217
100
AcDbEntity
8
dim
6
ByLayer
62
256
370
-1
100
AcDbDimension
2
*D20
10
25
20
60
30
0
11
23.125
21
57.5
31
0
70
32
71
5
72
0
3
Standard
53
0
210
0
220
0
230
1
100
AcDbAlignedDimension
13
8
23
55
33
0
14
8
24
60
34
0
50
90
100
AcDbRotatedDimension
0
DIMENSION
5
218
100
AcDbEntity
8
dim
6
ByLayer
62
256
370
-1
100
AcDbDimension
2
*D21
10
-20
20
60
30
0
11
-21.875
21
57.5
31
0
70
32
71
5
72
0
3
Standard
53
0
210
0
220
0
230
1
100
AcDbAlignedDimension
13
-8
23
55
33
0
14
-8
24
60
34
0
50
90
100
AcDbRotatedDimension
0
DIMENSION
5
219
100
AcDbEntity
8
dim
6
ByLayer
62
256
370
-1
100
AcDbDimension
2
*D22
10
9.18454765367e-16
20
70
30
0
11
-4
21
71.875
31
0
70
32
71
5
72
0
3
Standard
53
0
210
0
220
0
230
1
100
AcDbAlignedDimension
13
-8
23
55
33
0
14
0
24
55
34
0
100
AcDbRotatedDimension
0
DIMENSION
5
21A
100
AcDbEntity
8
dim
6
ByLayer
62
256
370
-1
100
AcDbDimension
2
*D23
10
90
20
66
30
0
11
87.5
21
67.875
31
0
70
32
71
5
72
0
3
Standard
53
0
210
0
220
0
230
1
100
AcDbAlignedDimension
13
85
23
47
33
0
14
90
24
47
34
0
100
AcDbRotatedDimension
0
DIMENSION
5
21B
100
AcDbEntity
8
dim
6
ByLayer
62
256
370
-1
100
AcDbDimension
2
*D24
10
59
20
66
30
0
11
72
21
67.875
31
0
70
32
71
5
72
0
3
Standard
53
0
210
0
220
0
230
1
100
AcDbAlignedDimension
13
85
23
47
33
0
14
59
24
55
34
0
100
AcDbRotatedDimension
0
DIMENSION
5
21C
100
AcDbEntity
8
dim
6
ByLayer
62
256
370
-1
100
AcDbDimension
2
*D25
10
45
20
66
30
0
11
52
21
67.875
31
0
70
32
71
5
72
0
3
Standard
53
0
210
0
220
0
230
1
100
AcDbAlignedDimension
13
59
23
55
33
0
14
45
24
45
34
0
100
AcDbRotatedDimension
0
DIMENSION
5
21D
100
AcDbEntity
8
dim
6
ByLayer
62
256
370
-1
100
AcDbDimension
2
*D26
10
100
20
60
30
0
11
98.125
21
57.5
31
0
70
32
71
5
72
0
3
Standard
53
0
210
0
220
0
230
1
100
AcDbAlignedDimension
13
59
23
55
33
0
14
90
24
60
34
0
50
90
100
AcDbRotatedDimension
0
DIMENSION
5
21E
100
AcDbEntity
8
dim
6
ByLayer
62
256
370
-1
100
AcDbDimension
2
*D27
10
100
20
55
30
0
11
98.125
21
51
31
0
70
32
71
5
72
0
3
Standard
53
0
210
0
220
0
230
1
100
AcDbAlignedDimension
13
85
23
47
33
0
14
59
24
55
34
0
50
90
100
AcDbRotatedDimension
0
DIMENSION
5
21F
100
AcDbEntity
8
dim
6
ByLayer
62
256
370
-1
100
AcDbDimension
2
*D28
10
100
20
47
30
0
11
98.125
21
46
31
0
70
32
71
5
72
0
3
Standard
53
0
210
0
220
0
230
1
100
AcDbAlignedDimension
13
45
23
45
33
0
14
85
24
47
34
0
50
90
100
AcDbRotatedDimension
0
DIMENSION
5
220
100
AcDbEntity
8
dim
6
ByLayer
62
256
370
-1
100
AcDbDimension
2
*D29
10
-20
20
-60
30
0
11
-21.875
21
-57.5
31
0
70
32
71
5
72
0
3
Standard
53
0
210
0
220
0
230
1
100
AcDbAlignedDimension
13
-8
23
-55
33
0
14
-8
24
-60
34
0
50
90
100
AcDbRotatedDimension
0
DIMENSION
5
221
100
AcDbEntity
8
dim
6
ByLayer
62
256
370
-1
100
AcDbDimension
2
*D30
10
20
20
-60
30
0
11
18.125
21
-57.5
31
0
70
32
71
5
72
0
3
Standard
53
0
210
0
220
0
230
1
100
AcDbAlignedDimension
13
8
23
-55
33
0
14
8
24
-60
34
0
50
90
100
AcDbRotatedDimension
0
DIMENSION
5
222
100
AcDbEntity
8
dim
6
ByLayer
62
256
370
-1
100
AcDbDimension
2
*D31
10
-4.89842541529e-16
20
-68
30
0
11
-4
21
-66.125
31
0
70
32
71
5
72
0
3
Standard
53
0
210
0
220
0
230
1
100
AcDbAlignedDimension
13
-8
23
-55
33
0
14
0
24
-60
34
0
100
AcDbRotatedDimension
0
DIMENSION
5
223
100
AcDbEntity
8
dim
6
ByLayer
62
256
370
-1
100
AcDbDimension
2
*D32
10
-7.95994129985e-16
20
-68
30
0
11
4
21
-66.125
31
0
70
32
71
5
72
0
3
Standard
53
0
210
0
220
0
230
1
100
AcDbAlignedDimension
13
8
23
-55
33
0
14
0
24
-55
34
0
100
AcDbRotatedDimension
0
DIMENSION
5
224
100
AcDbEntity
8
dim
6
ByLayer
62
256
370
-1
100
AcDbDimension
2
*D33
10
90
20
-67
30
0
11
87.5
21
-65.125
31
0
70
32
71
5
72
0
3
Standard
53
0
210
0
220
0
230
1
100
AcDbAlignedDimension
13
85
23
-55
33
0
14
90
24
-60
34
0
100
AcDbRotatedDimension
0
DIMENSION
5
225
100
AcDbEntity
8
dim
6
ByLayer
62
256
370
-1
100
AcDbDimension
2
*D34
10
59
20
-67
30
0
11
72
21
-65.125
31
0
70
32
71
5
72
0
3
Standard
53
0
210
0
220
0
230
1
100
AcDbAlignedDimension
13
85
23
-55
33
0
14
59
24
-47
34
0
100
AcDbRotatedDimension
0
DIMENSION
5
226
100
AcDbEntity
8
dim
6
ByLayer
62
256
370
-1
100
AcDbDimension
2
*D35
10
45
20
-67
30
0
11
52
21
-65.125
31
0
70
32
71
5
72
0
3
Standard
53
0
210
0
220
0
230
1
100
AcDbAlignedDimension
13
59
23
-47
33
0
14
45
24
-45
34
0
100
AcDbRotatedDimension
0
DIMENSION
5
227
100
AcDbEntity
8
dim
6
ByLayer
62
256
370
-1
100
AcDbDimension
2
*D36
10
-90
20
-67
30
0
11
-87.5
21
-65.125
31
0
70
32
71
5
72
0
3
Standard
53
0
210
0
220
0
230
1
100
AcDbAlignedDimension
13
-85
23
-47
33
0
14
-90
24
-60
34
0
100
AcDbRotatedDimension
0
DIMENSION
5
228
100
AcDbEntity
8
dim
6
ByLayer
62
256
370
-1
100
AcDbDimension
2
*D37
10
-59
20
-67
30
0
11
-72
21
-65.125
31
0
70
32
71
5
72
0
3
Standard
53
0
210
0
220
0
230
1
100
AcDbAlignedDimension
13
-85
23
-47
33
0
14
-59
24
-55
34
0
100
AcDbRotatedDimension
0
DIMENSION
5
229
100
AcDbEntity
8
dim
6
ByLayer
62
256
370
-1
100
AcDbDimension
2
*D38
10
-45
20
-67
30
0
11
-52
21
-65.125
31
0
70
32
71
5
72
0
3
Standard
53
0
210
0
220
0
230
1
100
AcDbAlignedDimension
13
-59
23
-55
33
0
14
-45
24
-45
34
0
100
AcDbRotatedDimension
0
DIMENSION
5
22A
100
AcDbEntity
8
dim
6
ByLayer
62
256
370
-1
100
AcDbDimension
2
*D39
10
-98
20
-60
30
0
11
-99.875
21
-57.5
31
0
70
32
71
5
72
0
3
Standard
53
0
210
0
220
0
230
1
100
AcDbAlignedDimension
13
-59
23
-55
33
0
14
-90
24
-60
34
0
50
90
100
AcDbRotatedDimension
0
DIMENSION
5
22B
100
AcDbEntity
8
dim
6
ByLayer
62
256
370
-1
100
AcDbDimension
2
*D40
10
-98
20
-47
30
0
11
-99.875
21
-51
31
0
70
32
71
5
72
0
3
Standard
53
0
210
0
220
0
230
1
100
AcDbAlignedDimension
13
-59
23
-55
33
0
14
-85
24
-47
34
0
50
90
100
AcDbRotatedDimension
0
DIMENSION
5
22C
100
AcDbEntity
8
dim
6
ByLayer
62
256
370
-1
100
AcDbDimension
2
*D41
10
-98
20
-45
30
0
11
-99.875
21
-46
31
0
70
32
71
5
72
0
3
Standard
53
0
210
0
220
0
230
1
100
AcDbAlignedDimension
13
-85
23
-47
33
0
14
-45
24
-45
34
0
50
90
100
AcDbRotatedDimension
0
DIMENSION
5
22D
100
AcDbEntity
8
dim
6
ByLayer
62
256
370
-1
100
AcDbDimension
2
*D42
10
100
20
-60
30
0
11
98.125
21
-57.5
31
0
70
32
71
5
72
0
3
Standard
53
0
210
0
220
0
230
1
100
AcDbAlignedDimension
13
85
23
-55
33
0
14
90
24
-60
34
0
50
90
100
AcDbRotatedDimension
0
DIMENSION
5
22E
100
AcDbEntity
8
dim
6
ByLayer
62
256
370
-1
100
AcDbDimension
2
*D43
10
100
20
-47
30
0
11
98.125
21
-51
31
0
70
32
71
5
72
0
3
Standard
53
0
210
0
220
0
230
1
100
AcDbAlignedDimension
13
85
23
-55
33
0
14
59
24
-47
34
0
50
90
100
AcDbRotatedDimension
0
DIMENSION
5
22F
100
AcDbEntity
8
dim
6
ByLayer
62
256
370
-1
100
AcDbDimension
2
*D44
10
100
20
-45
30
0
11
98.125
21
-46
31
0
70
32
71
5
72
0
3
Standard
53
0
210
0
220
0
230
1
100
AcDbAlignedDimension
13
59
23
-47
33
0
14
45
24
-45
34
0
50
90
100
AcDbRotatedDimension
0
DIMENSION
5
230
100
AcDbEntity
8
dim
6
ByLayer
62
256
370
-1
100
AcDbDimension
2
*D45
10
-86.2862393886
20
-46.2282563669
30
0
11
-84.0353204586
21
-45.3922007643
31
0
70
35
1
ø3
71
5
72
0
3
Standard
53
0
210
0
220
0
230
1
100
AcDbDiametricDimension
15
-83.7137606114
25
-47.7717436331
35
0
40
0
0
DIMENSION
5
231
100
AcDbEntity
8
dim
6
ByLayer
62
256
370
-1
100
AcDbDimension
2
*D46
10
-60.3112359142
20
-54.2715356032
30
0
11
-58.089419504
21
-53.3609551073
31
0
70
35
1
ø3
71
5
72
0
3
Standard
53
0
210
0
220
0
230
1
100
AcDbDiametricDimension
15
-57.6887640858
25
-55.7284643968
35
0
40
0
0
DIMENSION
5
232
100
AcDbEntity
8
dim
6
ByLayer
62
256
370
-1
100
AcDbDimension
2
*D47
10
60.3112359142
20
54.2715356032
30
0
11
59.910580496
21
56.6390448927
31
0
70
35
1
ø3
71
5
72
0
3
Standard
53
0
210
0
220
0
230
1
100
AcDbDiametricDimension
15
57.6887640858
25
55.7284643968
35
0
40
0
0
DIMENSION
5
233
100
AcDbEntity
8
dim
6
ByLayer
62
256
370
-1
100
AcDbDimension
2
*D48
10
85.8718572906
20
48.2206002068
30
0
11
83.4742497415
21
48.0898216132
31
0
70
35
1
ø3
71
5
72
0
3
Standard
53
0
210
0
220
0
230
1
100
AcDbDiametricDimension
15
84.1281427094
25
45.7793997932
35
0
40
0
0
DIMENSION
5
234
100
AcDbEntity
8
dim
6
ByLayer
62
256
370
-1
100
AcDbDimension
2
*D49
10
57.5528542681
20
-46.6053238913
30
0
11
59.4933451359
21
-45.1910678352
31
0
70
35
1
ø3
71
5
72
0
3
Standard
53
0
210
0
220
0
230
1
100
AcDbDiametricDimension
15
60.4471457319
25
-47.3946761087
35
0
40
0
0
DIMENSION
5
235
100
AcDbEntity
8
dim
6
ByLayer
62
256
370
-1
100
AcDbDimension
2
*D50
10
86.0606601718
20
-53.9393398282
30
0
11
83.6741747853
21
-53.6741747853
31
0
70
35
1
ø3
71
5
72
0
3
Standard
53
0
210
0
220
0
230
1
100
AcDbDiametricDimension
15
83.9393398282
25
-56.0606601718
35
0
40
0
0
ENDSEC
0
SECTION
2
OBJECTS
0
DICTIONARY
5
C
330
0
100
AcDbDictionary
281
1
3
ACAD_GROUP
350
D
0
DICTIONARY
5
D
330
C
100
AcDbDictionary
281
1
0
ENDSEC
0
EOF
