999
dxfrw 0.5.11
0
SECTION
2
HEADER
9
$ACADVER
1
AC1021
9
$HANDSEED
5
20000
9
$DWGCODEPAGE
3
ANSI_1252
9
$INSBASE
10
0
20
0
30
0
9
$EXTMIN
10
-305.625
20
-331.25
30
0
9
$EXTMAX
10
301.25
20
236.625
30
0
9
$LIMMIN
10
0
20
0
9
$LIMMAX
10
420
20
297
9
$ORTHOMODE
70
0
9
$LTSCALE
40
1
9
$TEXTSTYLE
7
STANDARD
9
$CLAYER
8
dim
9
$DIMASZ
40
5
9
$DIMLFAC
40
1
9
$DIMSCALE
40
1
9
$DIMEXO
40
0.625
9
$DIMEXE
40
1.25
9
$DIMTXT
40
6
9
$DIMTSZ
40
0
9
$DIMAUNIT
70
0
9
$DIMADEC
70
2
9
$DIMLUNIT
70
2
9
$DIMSTYLE
2
Standard
9
$DIMGAP
40
0.625
9
$DIMTIH
70
0
9
$LUNITS
70
2
9
$LUPREC
70
4
9
$AUNITS
70
0
9
$AUPREC
70
2
9
$SPLINESEGS
70
8
9
$GRIDMODE
70
1
9
$SNAPSTYLE
70
0
9
$GRIDUNIT
10
0
20
0
9
$PINSBASE
10
0
20
0
30
0
9
$PLIMMIN
10
0
20
0
9
$PLIMMAX
10
210
20
297
9
$INSUNITS
70
0
9
$PSVPSCALE
40
1
0
ENDSEC
0
SECTION
2
CLASSES
0
ENDSEC
0
SECTION
2
TABLES
0
TABLE
2
VPORT
5
8
330
0
100
AcDbSymbolTable
70
1
0
VPORT
5
31
330
2
100
AcDbSymbolTableRecord
100
AcDbViewportTableRecord
2
*ACTIVE
70
0
10
0
20
0
11
1
21
1
12
238.418579102
22
164.031982422
13
0
23
0
14
10
24
10
15
10
25
10
16
0
26
0
36
1
17
0
27
0
37
0
40
716.400146484
41
1.66666666667
42
50
43
0
44
0
50
0
51
0
71
0
72
100
73
1
74
3
75
0
76
1
77
0
78
0
281
0
65
1
110
0
120
0
130
0
111
1
121
0
131
0
112
0
122
1
132
0
79
0
146
0
348
10020
60
7
61
5
292
1
282
1
141
0
142
0
63
250
421
3358443
0
ENDTAB
0
TABLE
2
LTYPE
5
5
330
0
100
AcDbSymbolTable
70
4
0
LTYPE
5
14
330
5
100
AcDbSymbolTableRecord
100
AcDbLinetypeTableRecord
2
ByBlock
70
0
3

72
65
73
0
40
0
0
LTYPE
5
15
330
5
100
AcDbSymbolTableRecord
100
AcDbLinetypeTableRecord
2
ByLayer
70
0
3

72
65
73
0
40
0
0
LTYPE
5
16
330
5
100
AcDbSymbolTableRecord
100
AcDbLinetypeTableRecord
2
Continuous
70
0
3
Solid line
72
65
73
0
40
0
0
LTYPE
5
32
330
5
100
AcDbSymbolTableRecord
100
AcDbLinetypeTableRecord
2
DOT
70
0
3
Dot . . . . . . . . . . . . . . . . . . . . . .
72
65
73
2
40
6.35
49
0
74
0
49
-6.35
74
0
0
LTYPE
5
33
330
5
100
AcDbSymbolTableRecord
100
AcDbLinetypeTableRecord
2
DOT2
70
0
3
Dot (.5x) .....................................
72
65
73
2
40
3.175
49
0
74
0
49
-3.175
74
0
0
LTYPE
5
34
330
5
100
AcDbSymbolTableRecord
100
AcDbLinetypeTableRecord
2
DOTX2
70
0
3
Dot (2x) .  .  .  .  .  .  .  .  .  .  .  .  .
72
65
73
2
40
12.7
49
0
74
0
49
-12.7
74
0
0
LTYPE
5
35
330
5
100
AcDbSymbolTableRecord
100
AcDbLinetypeTableRecord
2
DASHED
70
0
3
Dot . . . . . . . . . . . . . . . . . . . . . .
72
65
73
2
40
19.05
49
12.7
74
0
49
-6.35
74
0
0
LTYPE
5
36
330
5
100
AcDbSymbolTableRecord
100
AcDbLinetypeTableRecord
2
DASHED2
70
0
3
Dashed (.5x) _ _ _ _ _ _ _ _ _ _ _ _ _ _ _ _ _
72
65
73
2
40
9.525
49
6.35
74
0
49
-3.175
74
0
0
LTYPE
5
37
330
5
100
AcDbSymbolTableRecord
100
AcDbLinetypeTableRecord
2
DASHEDX2
70
0
3
Dashed (2x) ____  ____  ____  ____  ____  ___
72
65
73
2
40
38.1
49
25.4
74
0
49
-12.7
74
0
0
LTYPE
5
38
330
5
100
AcDbSymbolTableRecord
100
AcDbLinetypeTableRecord
2
DASHDOT
70
0
3
Dash dot __ . __ . __ . __ . __ . __ . __ . __
72
65
73
4
40
25.4
49
12.7
74
0
49
-6.35
74
0
49
0
74
0
49
-6.35
74
0
0
LTYPE
5
39
330
5
100
AcDbSymbolTableRecord
100
AcDbLinetypeTableRecord
2
DASHDOT2
70
0
3
Dash dot (.5x) _._._._._._._._._._._._._._._.
72
65
73
4
40
12.7
49
6.35
74
0
49
-3.175
74
0
49
0
74
0
49
-3.175
74
0
0
LTYPE
5
3A
330
5
100
AcDbSymbolTableRecord
100
AcDbLinetypeTableRecord
2
DASHDOTX2
70
0
3
Dash dot (2x) ____  .  ____  .  ____  .  ___
72
65
73
4
40
50.8
49
25.4
74
0
49
-12.7
74
0
49
0
74
0
49
-12.7
74
0
0
LTYPE
5
3B
330
5
100
AcDbSymbolTableRecord
100
AcDbLinetypeTableRecord
2
DIVIDE
70
0
3
Divide ____ . . ____ . . ____ . . ____ . . ____
72
65
73
6
40
31.75
49
12.7
74
0
49
-6.35
74
0
49
0
74
0
49
-6.35
74
0
49
0
74
0
49
-6.35
74
0
0
LTYPE
5
3C
330
5
100
AcDbSymbolTableRecord
100
AcDbLinetypeTableRecord
2
DIVIDE2
70
0
3
Divide (.5x) __..__..__..__..__..__..__..__.._
72
65
73
6
40
15.875
49
6.35
74
0
49
-3.175
74
0
49
0
74
0
49
-3.175
74
0
49
0
74
0
49
-3.175
74
0
0
LTYPE
5
3D
330
5
100
AcDbSymbolTableRecord
100
AcDbLinetypeTableRecord
2
DIVIDEX2
70
0
3
Divide (2x) ________  .  .  ________  .  .  _
72
65
73
6
40
63.5
49
25.4
74
0
49
-12.7
74
0
49
0
74
0
49
-12.7
74
0
49
0
74
0
49
-12.7
74
0
0
LTYPE
5
3E
330
5
100
AcDbSymbolTableRecord
100
AcDbLinetypeTableRecord
2
BORDER
70
0
3
Border __ __ . __ __ . __ __ . __ __ . __ __ .
72
65
73
6
40
44.45
49
12.7
74
0
49
-6.35
74
0
49
12.7
74
0
49
-6.35
74
0
49
0
74
0
49
-6.35
74
0
0
LTYPE
5
3F
330
5
100
AcDbSymbolTableRecord
100
AcDbLinetypeTableRecord
2
BORDER2
70
0
3
Border (.5x) __.__.__.__.__.__.__.__.__.__.__.
72
65
73
6
40
22.225
49
6.35
74
0
49
-3.175
74
0
49
6.35
74
0
49
-3.175
74
0
49
0
74
0
49
-3.175
74
0
0
LTYPE
5
40
330
5
100
AcDbSymbolTableRecord
100
AcDbLinetypeTableRecord
2
BORDERX2
70
0
3
Border (2x) ____  ____  .  ____  ____  .  ___
72
65
73
6
40
88.9
49
25.4
74
0
49
-12.7
74
0
49
25.4
74
0
49
-12.7
74
0
49
0
74
0
49
-12.7
74
0
0
LTYPE
5
41
330
5
100
AcDbSymbolTableRecord
100
AcDbLinetypeTableRecord
2
CENTER
70
0
3
Center ____ _ ____ _ ____ _ ____ _ ____ _ ____
72
65
73
4
40
50.8
49
31.75
74
0
49
-6.35
74
0
49
6.35
74
0
49
-6.35
74
0
0
LTYPE
5
42
330
5
100
AcDbSymbolTableRecord
100
AcDbLinetypeTableRecord
2
CENTER2
70
0
3
Center (.5x) ___ _ ___ _ ___ _ ___ _ ___ _ ___
72
65
73
4
40
28.575
49
19.05
74
0
49
-3.175
74
0
49
3.175
74
0
49
-3.175
74
0
0
LTYPE
5
43
330
5
100
AcDbSymbolTableRecord
100
AcDbLinetypeTableRecord
2
CENTERX2
70
0
3
Center (2x) ________  __  ________  __  _____
72
65
73
4
40
101.6
49
63.5
74
0
49
-12.7
74
0
49
12.7
74
0
49
-12.7
74
0
0
ENDTAB
0
TABLE
2
LAYER
5
2
330
0
100
AcDbSymbolTable
70
1
0
LAYER
5
10
330
2
100
AcDbSymbolTableRecord
100
AcDbLayerTableRecord
2
0
70
0
62
7
6
CONTINUOUS
370
-3
390
F
0
LAYER
5
44
330
2
100
AcDbSymbolTableRecord
100
AcDbLayerTableRecord
2
base
70
0
62
7
6
DASHDOT
370
0
390
F
0
LAYER
5
45
330
2
100
AcDbSymbolTableRecord
100
AcDbLayerTableRecord
2
base2
70
0
62
7
6
DASHED
370
0
390
F
0
LAYER
5
46
330
2
100
AcDbSymbolTableRecord
100
AcDbLayerTableRecord
2
dim
70
0
62
7
6
CONTINUOUS
370
0
390
F
0
ENDTAB
0
TABLE
2
STYLE
5
3
330
0
100
AcDbSymbolTable
70
3
0
STYLE
5
47
330
2
100
AcDbSymbolTableRecord
100
AcDbTextStyleTableRecord
2
Standard
70
0
40
0
41
1
50
0
71
0
42
1
3
txt
4

0
ENDTAB
0
TABLE
2
VIEW
5
6
330
0
100
AcDbSymbolTable
70
0
0
ENDTAB
0
TABLE
2
UCS
5
7
330
0
100
AcDbSymbolTable
70
0
0
ENDTAB
0
TABLE
2
APPID
5
9
330
0
100
AcDbSymbolTable
70
1
0
APPID
5
12
330
9
100
AcDbSymbolTableRecord
100
AcDbRegAppTableRecord
2
ACAD
70
0
0
ENDTAB
0
TABLE
2
DIMSTYLE
5
A
330
0
100
AcDbSymbolTable
70
1
100
AcDbDimStyleTable
71
1
0
DIMSTYLE
105
48
330
A
100
AcDbSymbolTableRecord
100
AcDbDimStyleTableRecord
2
Standard
70
0
40
1
41
5
42
0.625
43
0.38
44
1.25
45
0
46
0
47
0
48
0
140
6
141
0.09
142
0
143
25.4
144
1
145
0
146
1
147
0.625
148
0
71
0
72
0
73
0
74
1
75
0
76
0
77
0
78
0
79
0
170
0
171
2
172
0
173
0
174
0
175
0
176
0
177
0
178
0
179
0
271
4
272
4
273
2
274
2
275
0
276
0
277
2
278
46
279
0
280
0
281
0
282
0
283
1
284
0
285
0
286
0
288
0
289
3
340
Standard
341

371
-2
372
-2
0
ENDTAB
0
TABLE
2
BLOCK_RECORD
5
1
330
0
100
AcDbSymbolTable
70
2
0
BLOCK_RECORD
5
1F
330
1
100
AcDbSymbolTableRecord
100
AcDbBlockTableRecord
2
*Model_Space
70
0
280
1
281
0
0
BLOCK_RECORD
5
1E
330
1
100
AcDbSymbolTableRecord
100
AcDbBlockTableRecord
2
*Paper_Space
70
0
280
1
281
0
0
BLOCK_RECORD
5
49
330
1
100
AcDbSymbolTableRecord
100
AcDbBlockTableRecord
2
*D17
70
0
280
1
281
0
0
BLOCK_RECORD
5
4C
330
1
100
AcDbSymbolTableRecord
100
AcDbBlockTableRecord
2
*D13
70
0
280
1
281
0
0
BLOCK_RECORD
5
4F
330
1
100
AcDbSymbolTableRecord
100
AcDbBlockTableRecord
2
*D30
70
0
280
1
281
0
0
BLOCK_RECORD
5
52
330
1
100
AcDbSymbolTableRecord
100
AcDbBlockTableRecord
2
*D10
70
0
280
1
281
0
0
BLOCK_RECORD
5
55
330
1
100
AcDbSymbolTableRecord
100
AcDbBlockTableRecord
2
*D22
70
0
280
1
281
0
0
BLOCK_RECORD
5
58
330
1
100
AcDbSymbolTableRecord
100
AcDbBlockTableRecord
2
*D24
70
0
280
1
281
0
0
BLOCK_RECORD
5
5B
330
1
100
AcDbSymbolTableRecord
100
AcDbBlockTableRecord
2
*D1
70
0
280
1
281
0
0
BLOCK_RECORD
5
5E
330
1
100
AcDbSymbolTableRecord
100
AcDbBlockTableRecord
2
*D18
70
0
280
1
281
0
0
BLOCK_RECORD
5
61
330
1
100
AcDbSymbolTableRecord
100
AcDbBlockTableRecord
2
*D14
70
0
280
1
281
0
0
BLOCK_RECORD
5
64
330
1
100
AcDbSymbolTableRecord
100
AcDbBlockTableRecord
2
*D9
70
0
280
1
281
0
0
BLOCK_RECORD
5
67
330
1
100
AcDbSymbolTableRecord
100
AcDbBlockTableRecord
2
*D19
70
0
280
1
281
0
0
BLOCK_RECORD
5
6A
330
1
100
AcDbSymbolTableRecord
100
AcDbBlockTableRecord
2
*D4
70
0
280
1
281
0
0
BLOCK_RECORD
5
6D
330
1
100
AcDbSymbolTableRecord
100
AcDbBlockTableRecord
2
*D23
70
0
280
1
281
0
0
BLOCK_RECORD
5
70
330
1
100
AcDbSymbolTableRecord
100
AcDbBlockTableRecord
2
*D20
70
0
280
1
281
0
0
BLOCK_RECORD
5
73
330
1
100
AcDbSymbolTableRecord
100
AcDbBlockTableRecord
2
*D29
70
0
280
1
281
0
0
BLOCK_RECORD
5
76
330
1
100
AcDbSymbolTableRecord
100
AcDbBlockTableRecord
2
*D21
70
0
280
1
281
0
0
BLOCK_RECORD
5
79
330
1
100
AcDbSymbolTableRecord
100
AcDbBlockTableRecord
2
*D32
70
0
280
1
281
0
0
BLOCK_RECORD
5
7C
330
1
100
AcDbSymbolTableRecord
100
AcDbBlockTableRecord
2
*D8
70
0
280
1
281
0
0
BLOCK_RECORD
5
7F
330
1
100
AcDbSymbolTableRecord
100
AcDbBlockTableRecord
2
*D35
70
0
280
1
281
0
0
BLOCK_RECORD
5
82
330
1
100
AcDbSymbolTableRecord
100
AcDbBlockTableRecord
2
*D15
70
0
280
1
281
0
0
BLOCK_RECORD
5
85
330
1
100
AcDbSymbolTableRecord
100
AcDbBlockTableRecord
2
*D28
70
0
280
1
281
0
0
BLOCK_RECORD
5
88
330
1
100
AcDbSymbolTableRecord
100
AcDbBlockTableRecord
2
*D25
70
0
280
1
281
0
0
BLOCK_RECORD
5
8B
330
1
100
AcDbSymbolTableRecord
100
AcDbBlockTableRecord
2
*D33
70
0
280
1
281
0
0
BLOCK_RECORD
5
8E
330
1
100
AcDbSymbolTableRecord
100
AcDbBlockTableRecord
2
*D7
70
0
280
1
281
0
0
BLOCK_RECORD
5
91
330
1
100
AcDbSymbolTableRecord
100
AcDbBlockTableRecord
2
*D3
70
0
280
1
281
0
0
BLOCK_RECORD
5
94
330
1
100
AcDbSymbolTableRecord
100
AcDbBlockTableRecord
2
*D11
70
0
280
1
281
0
0
BLOCK_RECORD
5
97
330
1
100
AcDbSymbolTableRecord
100
AcDbBlockTableRecord
2
*D6
70
0
280
1
281
0
0
BLOCK_RECORD
5
9A
330
1
100
AcDbSymbolTableRecord
100
AcDbBlockTableRecord
2
*D27
70
0
280
1
281
0
0
BLOCK_RECORD
5
9D
330
1
100
AcDbSymbolTableRecord
100
AcDbBlockTableRecord
2
*D26
70
0
280
1
281
0
0
BLOCK_RECORD
5
A0
330
1
100
AcDbSymbolTableRecord
100
AcDbBlockTableRecord
2
*D5
70
0
280
1
281
0
0
BLOCK_RECORD
5
A3
330
1
100
AcDbSymbolTableRecord
100
AcDbBlockTableRecord
2
*D31
70
0
280
1
281
0
0
BLOCK_RECORD
5
A6
330
1
100
AcDbSymbolTableRecord
100
AcDbBlockTableRecord
2
*D12
70
0
280
1
281
0
0
BLOCK_RECORD
5
A9
330
1
100
AcDbSymbolTableRecord
100
AcDbBlockTableRecord
2
*D16
70
0
280
1
281
0
0
BLOCK_RECORD
5
AC
330
1
100
AcDbSymbolTableRecord
100
AcDbBlockTableRecord
2
*D2
70
0
280
1
281
0
0
BLOCK_RECORD
5
AF
330
1
100
AcDbSymbolTableRecord
100
AcDbBlockTableRecord
2
*D34
70
0
280
1
281
0
0
BLOCK_RECORD
5
B2
330
1
100
AcDbSymbolTableRecord
100
AcDbBlockTableRecord
2
PAD002054001_PROJ
70
0
280
1
281
0
0
ENDTAB
0
ENDSEC
0
SECTION
2
BLOCKS
0
BLOCK
5
20
330
1F
100
AcDbEntity
8
0
100
AcDbBlockBegin
2
*Model_Space
70
0
10
0
20
0
30
0
3
*Model_Space
1

0
ENDBLK
5
21
330
1F
100
AcDbEntity
8
0
100
AcDbBlockEnd
0
BLOCK
5
1C
330
1B
100
AcDbEntity
8
0
100
AcDbBlockBegin
2
*Paper_Space
70
0
10
0
20
0
30
0
3
*Paper_Space
1

0
ENDBLK
5
1D
330
1F
100
AcDbEntity
8
0
100
AcDbBlockEnd
0
BLOCK
5
4A
330
49
100
AcDbEntity
8
0
100
AcDbBlockBegin
2
*D17
70
1
10
0
20
0
3
*D17
1

0
LINE
5
B5
100
AcDbEntity
8
dim
6
CONTINUOUS
62
7
370
0
100
AcDbLine
10
-160
20
60
11
160
21
60
0
SOLID
5
B6
100
AcDbEntity
8
dim
6
CONTINUOUS
62
7
370
0
100
AcDbTrace
10
-160
20
60
30
0
11
-155
21
60.8325693155
31
0
12
-155
22
59.1674306845
32
0
13
-155
23
59.1674306845
33
0
0
SOLID
5
B7
100
AcDbEntity
8
dim
6
CONTINUOUS
62
7
370
0
100
AcDbTrace
10
160
20
60
30
0
11
155
21
59.1674306845
31
0
12
155
22
60.8325693155
32
0
13
155
23
60.8325693155
33
0
0
MTEXT
5
B8
100
AcDbEntity
8
dim
6
CONTINUOUS
62
7
370
0
100
AcDbMText
10
2.2195990163e-16
20
63.625
30
0
40
6
41
12
71
5
72
1
1
320
7
standard
210
0
220
0
230
1
50
0
73
2
44
1
0
LINE
5
B9
100
AcDbEntity
8
dim
6
CONTINUOUS
62
7
370
0
100
AcDbLine
10
-160
20
99.375
11
-160
21
58.75
0
LINE
5
BA
100
AcDbEntity
8
dim
6
CONTINUOUS
62
7
370
0
100
AcDbLine
10
160
20
99.375
11
160
21
58.75
0
ENDBLK
5
4B
330
49
100
AcDbEntity
8
0
100
AcDbBlockEnd
0
BLOCK
5
4D
330
4C
100
AcDbEntity
8
0
100
AcDbBlockBegin
2
*D13
70
1
10
0
20
0
3
*D13
1

0
SOLID
5
BB
100
AcDbEntity
8
dim
6
CONTINUOUS
62
7
370
0
100
AcDbTrace
10
-157.071067812
20
127.071067812
30
0
11
-161.195317127
21
130.017886309
31
0
12
-160.017886309
22
131.195317127
32
0
13
-160.017886309
23
131.195317127
33
0
0
LINE
5
BC
100
AcDbEntity
8
dim
6
CONTINUOUS
62
7
370
0
100
AcDbLine
10
-150
20
120
11
-168.384776311
21
138.384776311
0
MTEXT
5
BD
100
AcDbEntity
8
dim
6
CONTINUOUS
62
7
370
0
100
AcDbMText
10
-160.16465998
20
135.291184143
30
0
40
6
41
6
71
5
72
1
1
10
7
standard
210
0
220
0
230
1
50
315
73
2
44
1
0
ENDBLK
5
4E
330
4C
100
AcDbEntity
8
0
100
AcDbBlockEnd
0
BLOCK
5
50
330
4F
100
AcDbEntity
8
0
100
AcDbBlockBegin
2
*D30
70
1
10
0
20
0
3
*D30
1

0
LINE
5
BE
100
AcDbEntity
8
dim
6
CONTINUOUS
62
7
370
0
100
AcDbLine
10
-160
20
-173
11
-160
21
-290
0
SOLID
5
BF
100
AcDbEntity
8
dim
6
CONTINUOUS
62
7
370
0
100
AcDbTrace
10
-160
20
-173
30
0
11
-159.167430684
21
-178
31
0
12
-160.832569316
22
-178
32
0
13
-160.832569316
23
-178
33
0
0
SOLID
5
C0
100
AcDbEntity
8
dim
6
CONTINUOUS
62
7
370
0
100
AcDbTrace
10
-160
20
-290
30
0
11
-160.832569316
21
-285
31
0
12
-159.167430684
22
-285
32
0
13
-159.167430684
23
-285
33
0
0
MTEXT
5
C1
100
AcDbEntity
8
dim
6
CONTINUOUS
62
7
370
0
100
AcDbMText
10
-163.625
20
-231.5
30
0
40
6
41
9.33333333333
71
5
72
1
1
117
7
standard
210
0
220
0
230
1
50
90
73
2
44
1
0
LINE
5
C2
100
AcDbEntity
8
dim
6
CONTINUOUS
62
7
370
0
100
AcDbLine
10
-124.625
20
-173
11
-161.25
21
-173
0
LINE
5
C3
100
AcDbEntity
8
dim
6
CONTINUOUS
62
7
370
0
100
AcDbLine
10
-270.625
20
-290
11
-161.25
21
-290
0
ENDBLK
5
51
330
4F
100
AcDbEntity
8
0
100
AcDbBlockEnd
0
BLOCK
5
53
330
52
100
AcDbEntity
8
0
100
AcDbBlockBegin
2
*D10
70
1
10
0
20
0
3
*D10
1

0
LINE
5
C4
100
AcDbEntity
8
dim
6
CONTINUOUS
62
7
370
0
100
AcDbLine
10
-135.180339887
20
-167.409830056
11
-112.819660113
21
-178.590169944
0
SOLID
5
C5
100
AcDbEntity
8
dim
6
CONTINUOUS
62
7
370
0
100
AcDbTrace
10
-126.236067977
20
-171.881966011
30
0
11
-131.08054025
21
-170.390570668
31
0
12
-130.335867615
22
-168.9012254
32
0
13
-130.335867615
23
-168.9012254
33
0
0
SOLID
5
C6
100
AcDbEntity
8
dim
6
CONTINUOUS
62
7
370
0
100
AcDbTrace
10
-121.763932023
20
-174.118033989
30
0
11
-116.91945975
21
-175.609429332
31
0
12
-117.664132385
22
-177.0987746
32
0
13
-117.664132385
23
-177.0987746
33
0
0
MTEXT
5
C7
100
AcDbEntity
8
dim
6
CONTINUOUS
62
7
370
0
100
AcDbMText
10
-115.707914583
20
-173.093169499
30
0
40
6
41
8.66666666667
71
5
72
1
1
%%C5
7
standard
210
0
220
0
230
1
50
333.434948823
73
2
44
1
0
ENDBLK
5
54
330
52
100
AcDbEntity
8
0
100
AcDbBlockEnd
0
BLOCK
5
56
330
55
100
AcDbEntity
8
0
100
AcDbBlockBegin
2
*D22
70
1
10
0
20
0
3
*D22
1

0
LINE
5
C8
100
AcDbEntity
8
dim
6
CONTINUOUS
62
7
370
0
100
AcDbLine
10
-124
20
-330
11
-270
21
-330
0
SOLID
5
C9
100
AcDbEntity
8
dim
6
CONTINUOUS
62
7
370
0
100
AcDbTrace
10
-124
20
-330
30
0
11
-129
21
-330.832569316
31
0
12
-129
22
-329.167430684
32
0
13
-129
23
-329.167430684
33
0
0
SOLID
5
CA
100
AcDbEntity
8
dim
6
CONTINUOUS
62
7
370
0
100
AcDbTrace
10
-270
20
-330
30
0
11
-265
21
-329.167430684
31
0
12
-265
22
-330.832569316
32
0
13
-265
23
-330.832569316
33
0
0
MTEXT
5
CB
100
AcDbEntity
8
dim
6
CONTINUOUS
62
7
370
0
100
AcDbMText
10
-197
20
-326.375
30
0
40
6
41
11.3333333333
71
5
72
1
1
146
7
standard
210
0
220
0
230
1
50
360
73
2
44
1
0
LINE
5
CC
100
AcDbEntity
8
dim
6
CONTINUOUS
62
7
370
0
100
AcDbLine
10
-124
20
-173.625
11
-124
21
-331.25
0
LINE
5
CD
100
AcDbEntity
8
dim
6
CONTINUOUS
62
7
370
0
100
AcDbLine
10
-270
20
-290.625
11
-270
21
-331.25
0
ENDBLK
5
57
330
55
100
AcDbEntity
8
0
100
AcDbBlockEnd
0
BLOCK
5
59
330
58
100
AcDbEntity
8
0
100
AcDbBlockBegin
2
*D24
70
1
10
0
20
0
3
*D24
1

0
LINE
5
CE
100
AcDbEntity
8
dim
6
CONTINUOUS
62
7
370
0
100
AcDbLine
10
-280
20
-242
11
-280
21
-290
0
SOLID
5
CF
100
AcDbEntity
8
dim
6
CONTINUOUS
62
7
370
0
100
AcDbTrace
10
-280
20
-242
30
0
11
-279.167430684
21
-247
31
0
12
-280.832569316
22
-247
32
0
13
-280.832569316
23
-247
33
0
0
SOLID
5
D0
100
AcDbEntity
8
dim
6
CONTINUOUS
62
7
370
0
100
AcDbTrace
10
-280
20
-290
30
0
11
-280.832569316
21
-285
31
0
12
-279.167430684
22
-285
32
0
13
-279.167430684
23
-285
33
0
0
MTEXT
5
D1
100
AcDbEntity
8
dim
6
CONTINUOUS
62
7
370
0
100
AcDbMText
10
-283.625
20
-266
30
0
40
6
41
8
71
5
72
1
1
48
7
standard
210
0
220
0
230
1
50
90
73
2
44
1
0
LINE
5
D2
100
AcDbEntity
8
dim
6
CONTINUOUS
62
7
370
0
100
AcDbLine
10
-255.625
20
-242
11
-281.25
21
-242
0
LINE
5
D3
100
AcDbEntity
8
dim
6
CONTINUOUS
62
7
370
0
100
AcDbLine
10
-270.625
20
-290
11
-281.25
21
-290
0
ENDBLK
5
5A
330
58
100
AcDbEntity
8
0
100
AcDbBlockEnd
0
BLOCK
5
5C
330
5B
100
AcDbEntity
8
0
100
AcDbBlockBegin
2
*D1
70
1
10
0
20
0
3
*D1
1

0
LINE
5
D4
100
AcDbEntity
8
dim
6
CONTINUOUS
62
7
370
0
100
AcDbLine
10
-264.984603532
20
93.3435976453
11
-245.015396468
21
106.656402355
0
SOLID
5
D5
100
AcDbEntity
8
dim
6
CONTINUOUS
62
7
370
0
100
AcDbTrace
10
-256.664100589
20
98.8905996075
30
0
11
-260.362525698
21
95.4243590824
31
0
12
-261.286178423
22
96.8098381705
32
0
13
-261.286178423
23
96.8098381705
33
0
0
SOLID
5
D6
100
AcDbEntity
8
dim
6
CONTINUOUS
62
7
370
0
100
AcDbTrace
10
-253.335899411
20
101.109400392
30
0
11
-249.637474302
21
104.575640918
31
0
12
-248.713821577
22
103.19016183
32
0
13
-248.713821577
23
103.19016183
33
0
0
MTEXT
5
D7
100
AcDbEntity
8
dim
6
CONTINUOUS
62
7
370
0
100
AcDbMText
10
-250.943754815
20
107.060871248
30
0
40
6
41
9.33333333333
71
5
72
1
1
%%C4
7
standard
210
0
220
0
230
1
50
33.690067526
73
2
44
1
0
ENDBLK
5
5D
330
5B
100
AcDbEntity
8
0
100
AcDbBlockEnd
0
BLOCK
5
5F
330
5E
100
AcDbEntity
8
0
100
AcDbBlockBegin
2
*D18
70
1
10
0
20
0
3
*D18
1

0
LINE
5
D8
100
AcDbEntity
8
dim
6
CONTINUOUS
62
7
370
0
100
AcDbLine
10
-130
20
130
11
-130
21
-155
0
SOLID
5
D9
100
AcDbEntity
8
dim
6
CONTINUOUS
62
7
370
0
100
AcDbTrace
10
-130
20
130
30
0
11
-129.167430684
21
125
31
0
12
-130.832569316
22
125
32
0
13
-130.832569316
23
125
33
0
0
SOLID
5
DA
100
AcDbEntity
8
dim
6
CONTINUOUS
62
7
370
0
100
AcDbTrace
10
-130
20
-155
30
0
11
-130.832569316
21
-150
31
0
12
-129.167430684
22
-150
32
0
13
-129.167430684
23
-150
33
0
0
MTEXT
5
DB
100
AcDbEntity
8
dim
6
CONTINUOUS
62
7
370
0
100
AcDbMText
10
-133.625
20
-12.5
30
0
40
6
41
12
71
5
72
1
1
285
7
standard
210
0
220
0
230
1
50
90
73
2
44
1
0
LINE
5
DC
100
AcDbEntity
8
dim
6
CONTINUOUS
62
7
370
0
100
AcDbLine
10
-149.375
20
130
11
-128.75
21
130
0
LINE
5
DD
100
AcDbEntity
8
dim
6
CONTINUOUS
62
7
370
0
100
AcDbLine
10
-149.375
20
-155
11
-128.75
21
-155
0
ENDBLK
5
60
330
5E
100
AcDbEntity
8
0
100
AcDbBlockEnd
0
BLOCK
5
62
330
61
100
AcDbEntity
8
0
100
AcDbBlockBegin
2
*D14
70
1
10
0
20
0
3
*D14
1

0
LINE
5
DE
100
AcDbEntity
8
dim
6
CONTINUOUS
62
7
370
0
100
AcDbLine
10
-300
20
200
11
-300
21
-290
0
SOLID
5
DF
100
AcDbEntity
8
dim
6
CONTINUOUS
62
7
370
0
100
AcDbTrace
10
-300
20
200
30
0
11
-299.167430684
21
195
31
0
12
-300.832569316
22
195
32
0
13
-300.832569316
23
195
33
0
0
SOLID
5
E0
100
AcDbEntity
8
dim
6
CONTINUOUS
62
7
370
0
100
AcDbTrace
10
-300
20
-290
30
0
11
-300.832569316
21
-285
31
0
12
-299.167430684
22
-285
32
0
13
-299.167430684
23
-285
33
0
0
MTEXT
5
E1
100
AcDbEntity
8
dim
6
CONTINUOUS
62
7
370
0
100
AcDbMText
10
-303.625
20
-45
30
0
40
6
41
12.6666666667
71
5
72
1
1
490
7
standard
210
0
220
0
230
1
50
90
73
2
44
1
0
LINE
5
E2
100
AcDbEntity
8
dim
6
CONTINUOUS
62
7
370
0
100
AcDbLine
10
-270.625
20
200
11
-301.25
21
200
0
LINE
5
E3
100
AcDbEntity
8
dim
6
CONTINUOUS
62
7
370
0
100
AcDbLine
10
-270.625
20
-290
11
-301.25
21
-290
0
ENDBLK
5
63
330
61
100
AcDbEntity
8
0
100
AcDbBlockEnd
0
BLOCK
5
65
330
64
100
AcDbEntity
8
0
100
AcDbBlockBegin
2
*D9
70
1
10
0
20
0
3
*D9
1

0
LINE
5
E4
100
AcDbEntity
8
dim
6
CONTINUOUS
62
7
370
0
100
AcDbLine
10
-135.451966686
20
164.510235425
11
-112.548033314
21
154.489764575
0
SOLID
5
E5
100
AcDbEntity
8
dim
6
CONTINUOUS
62
7
370
0
100
AcDbTrace
10
-126.290393337
20
160.502047085
30
0
11
-131.204889474
21
161.74337677
31
0
12
-130.537470549
22
163.26890574
32
0
13
-130.537470549
23
163.26890574
33
0
0
SOLID
5
E6
100
AcDbEntity
8
dim
6
CONTINUOUS
62
7
370
0
100
AcDbTrace
10
-121.709606663
20
158.497952915
30
0
11
-116.795110526
21
157.25662323
31
0
12
-117.462529451
22
155.73109426
32
0
13
-117.462529451
23
155.73109426
33
0
0
MTEXT
5
E7
100
AcDbEntity
8
dim
6
CONTINUOUS
62
7
370
0
100
AcDbMText
10
-115.714024937
20
159.831629869
30
0
40
6
41
8.66666666667
71
5
72
1
1
%%C5
7
standard
210
0
220
0
230
1
50
336.370622269
73
2
44
1
0
ENDBLK
5
66
330
64
100
AcDbEntity
8
0
100
AcDbBlockEnd
0
BLOCK
5
68
330
67
100
AcDbEntity
8
0
100
AcDbBlockBegin
2
*D19
70
1
10
0
20
0
3
*D19
1

0
LINE
5
E8
100
AcDbEntity
8
dim
6
CONTINUOUS
62
7
370
0
100
AcDbLine
10
-40
20
-250
11
-40
21
130
0
SOLID
5
E9
100
AcDbEntity
8
dim
6
CONTINUOUS
62
7
370
0
100
AcDbTrace
10
-40
20
-250
30
0
11
-40.8325693155
21
-245
31
0
12
-39.1674306845
22
-245
32
0
13
-39.1674306845
23
-245
33
0
0
SOLID
5
EA
100
AcDbEntity
8
dim
6
CONTINUOUS
62
7
370
0
100
AcDbTrace
10
-40
20
130
30
0
11
-39.1674306845
21
125
31
0
12
-40.8325693155
22
125
32
0
13
-40.8325693155
23
125
33
0
0
MTEXT
5
EB
100
AcDbEntity
8
dim
6
CONTINUOUS
62
7
370
0
100
AcDbMText
10
-43.625
20
-60
30
0
40
6
41
12
71
5
72
1
1
380
7
standard
210
0
220
0
230
1
50
90
73
2
44
1
0
LINE
5
EC
100
AcDbEntity
8
dim
6
CONTINUOUS
62
7
370
0
100
AcDbLine
10
-89.375
20
-250
11
-38.75
21
-250
0
LINE
5
ED
100
AcDbEntity
8
dim
6
CONTINUOUS
62
7
370
0
100
AcDbLine
10
-89.375
20
130
11
-38.75
21
130
0
ENDBLK
5
69
330
67
100
AcDbEntity
8
0
100
AcDbBlockEnd
0
BLOCK
5
6B
330
6A
100
AcDbEntity
8
0
100
AcDbBlockBegin
2
*D4
70
1
10
0
20
0
3
*D4
1

0
LINE
5
EE
100
AcDbEntity
8
dim
6
CONTINUOUS
62
7
370
0
100
AcDbLine
10
265.965738583
20
104.873661593
11
244.034261417
21
95.1263384074
0
SOLID
5
EF
100
AcDbEntity
8
dim
6
CONTINUOUS
62
7
370
0
100
AcDbTrace
10
256.827623097
20
100.812276932
30
0
11
261.058542416
21
103.603780718
31
0
12
261.734819265
22
102.082157807
32
0
13
261.734819265
23
102.082157807
33
0
0
SOLID
5
F0
100
AcDbEntity
8
dim
6
CONTINUOUS
62
7
370
0
100
AcDbTrace
10
253.172376903
20
99.1877230679
30
0
11
248.941457584
21
96.3962192821
31
0
12
248.265180735
22
97.9178421932
32
0
13
248.265180735
23
97.9178421932
33
0
0
MTEXT
5
F1
100
AcDbEntity
8
dim
6
CONTINUOUS
62
7
370
0
100
AcDbMText
10
260.190957269
20
106.273993179
30
0
40
6
41
9.33333333333
71
5
72
1
1
%%C4
7
standard
210
0
220
0
230
1
50
23.9624889746
73
2
44
1
0
ENDBLK
5
6C
330
6A
100
AcDbEntity
8
0
100
AcDbBlockEnd
0
BLOCK
5
6E
330
6D
100
AcDbEntity
8
0
100
AcDbBlockBegin
2
*D23
70
1
10
0
20
0
3
*D23
1

0
LINE
5
F2
100
AcDbEntity
8
dim
6
CONTINUOUS
62
7
370
0
100
AcDbLine
10
-124
20
210
11
-270
21
210
0
SOLID
5
F3
100
AcDbEntity
8
dim
6
CONTINUOUS
62
7
370
0
100
AcDbTrace
10
-124
20
210
30
0
11
-129
21
209.167430684
31
0
12
-129
22
210.832569316
32
0
13
-129
23
210.832569316
33
0
0
SOLID
5
F4
100
AcDbEntity
8
dim
6
CONTINUOUS
62
7
370
0
100
AcDbTrace
10
-270
20
210
30
0
11
-265
21
210.832569316
31
0
12
-265
22
209.167430684
32
0
13
-265
23
209.167430684
33
0
0
MTEXT
5
F5
100
AcDbEntity
8
dim
6
CONTINUOUS
62
7
370
0
100
AcDbMText
10
-197
20
213.625
30
0
40
6
41
11.3333333333
71
5
72
1
1
146
7
standard
210
0
220
0
230
1
50
360
73
2
44
1
0
LINE
5
F6
100
AcDbEntity
8
dim
6
CONTINUOUS
62
7
370
0
100
AcDbLine
10
-124
20
160.125
11
-124
21
211.25
0
LINE
5
F7
100
AcDbEntity
8
dim
6
CONTINUOUS
62
7
370
0
100
AcDbLine
10
-270
20
200.625
11
-270
21
211.25
0
ENDBLK
5
6F
330
6D
100
AcDbEntity
8
0
100
AcDbBlockEnd
0
BLOCK
5
71
330
70
100
AcDbEntity
8
0
100
AcDbBlockBegin
2
*D20
70
1
10
0
20
0
3
*D20
1

0
LINE
5
F8
100
AcDbEntity
8
dim
6
CONTINUOUS
62
7
370
0
100
AcDbLine
10
-110
20
-190
11
110
21
-190
0
SOLID
5
F9
100
AcDbEntity
8
dim
6
CONTINUOUS
62
7
370
0
100
AcDbTrace
10
-110
20
-190
30
0
11
-105
21
-189.167430684
31
0
12
-105
22
-190.832569316
32
0
13
-105
23
-190.832569316
33
0
0
SOLID
5
FA
100
AcDbEntity
8
dim
6
CONTINUOUS
62
7
370
0
100
AcDbTrace
10
110
20
-190
30
0
11
105
21
-190.832569316
31
0
12
105
22
-189.167430684
32
0
13
105
23
-189.167430684
33
0
0
MTEXT
5
FB
100
AcDbEntity
8
dim
6
CONTINUOUS
62
7
370
0
100
AcDbMText
10
2.2195990163e-16
20
-186.375
30
0
40
6
41
12
71
5
72
1
1
220
7
standard
210
0
220
0
230
1
50
0
73
2
44
1
0
LINE
5
FC
100
AcDbEntity
8
dim
6
CONTINUOUS
62
7
370
0
100
AcDbLine
10
-110
20
-199.375
11
-110
21
-188.75
0
LINE
5
FD
100
AcDbEntity
8
dim
6
CONTINUOUS
62
7
370
0
100
AcDbLine
10
110
20
-199.375
11
110
21
-188.75
0
ENDBLK
5
72
330
70
100
AcDbEntity
8
0
100
AcDbBlockEnd
0
BLOCK
5
74
330
73
100
AcDbEntity
8
0
100
AcDbBlockBegin
2
*D29
70
1
10
0
20
0
3
*D29
1

0
LINE
5
FE
100
AcDbEntity
8
dim
6
CONTINUOUS
62
7
370
0
100
AcDbLine
10
300
20
155
11
300
21
130
0
SOLID
5
FF
100
AcDbEntity
8
dim
6
CONTINUOUS
62
7
370
0
100
AcDbTrace
10
300
20
155
30
0
11
300.832569316
21
150
31
0
12
299.167430684
22
150
32
0
13
299.167430684
23
150
33
0
0
SOLID
5
100
100
AcDbEntity
8
dim
6
CONTINUOUS
62
7
370
0
100
AcDbTrace
10
300
20
130
30
0
11
299.167430684
21
135
31
0
12
300.832569316
22
135
32
0
13
300.832569316
23
135
33
0
0
MTEXT
5
101
100
AcDbEntity
8
dim
6
CONTINUOUS
62
7
370
0
100
AcDbMText
10
296.375
20
142.5
30
0
40
6
41
7.33333333333
71
5
72
1
1
25
7
standard
210
0
220
0
230
1
50
90
73
2
44
1
0
LINE
5
102
100
AcDbEntity
8
dim
6
CONTINUOUS
62
7
370
0
100
AcDbLine
10
60.6249994435
20
155
11
301.25
21
155
0
LINE
5
103
100
AcDbEntity
8
dim
6
CONTINUOUS
62
7
370
0
100
AcDbLine
10
150.625
20
130
11
301.25
21
130
0
ENDBLK
5
75
330
73
100
AcDbEntity
8
0
100
AcDbBlockEnd
0
BLOCK
5
77
330
76
100
AcDbEntity
8
0
100
AcDbBlockBegin
2
*D21
70
1
10
0
20
0
3
*D21
1

0
LINE
5
104
100
AcDbEntity
8
dim
6
CONTINUOUS
62
7
370
0
100
AcDbLine
10
-255
20
-310
11
-270
21
-310
0
SOLID
5
105
100
AcDbEntity
8
dim
6
CONTINUOUS
62
7
370
0
100
AcDbTrace
10
-255
20
-310
30
0
11
-260
21
-310.832569316
31
0
12
-260
22
-309.167430684
32
0
13
-260
23
-309.167430684
33
0
0
SOLID
5
106
100
AcDbEntity
8
dim
6
CONTINUOUS
62
7
370
0
100
AcDbTrace
10
-270
20
-310
30
0
11
-265
21
-309.167430684
31
0
12
-265
22
-310.832569316
32
0
13
-265
23
-310.832569316
33
0
0
MTEXT
5
107
100
AcDbEntity
8
dim
6
CONTINUOUS
62
7
370
0
100
AcDbMText
10
-262.5
20
-306.375
30
0
40
6
41
6
71
5
72
1
1
15
7
standard
210
0
220
0
230
1
50
360
73
2
44
1
0
LINE
5
108
100
AcDbEntity
8
dim
6
CONTINUOUS
62
7
370
0
100
AcDbLine
10
-255
20
-242.625
11
-255
21
-311.25
0
LINE
5
109
100
AcDbEntity
8
dim
6
CONTINUOUS
62
7
370
0
100
AcDbLine
10
-270
20
-290.625
11
-270
21
-311.25
0
ENDBLK
5
78
330
76
100
AcDbEntity
8
0
100
AcDbBlockEnd
0
BLOCK
5
7A
330
79
100
AcDbEntity
8
0
100
AcDbBlockBegin
2
*D32
70
1
10
0
20
0
3
*D32
1

0
LINE
5
10A
100
AcDbEntity
8
dim
6
CONTINUOUS
62
7
370
0
100
AcDbLine
10
150
20
-155
11
150
21
-290
0
SOLID
5
10B
100
AcDbEntity
8
dim
6
CONTINUOUS
62
7
370
0
100
AcDbTrace
10
150
20
-155
30
0
11
150.832569316
21
-160
31
0
12
149.167430684
22
-160
32
0
13
149.167430684
23
-160
33
0
0
SOLID
5
10C
100
AcDbEntity
8
dim
6
CONTINUOUS
62
7
370
0
100
AcDbTrace
10
150
20
-290
30
0
11
149.167430684
21
-285
31
0
12
150.832569316
22
-285
32
0
13
150.832569316
23
-285
33
0
0
MTEXT
5
10D
100
AcDbEntity
8
dim
6
CONTINUOUS
62
7
370
0
100
AcDbMText
10
146.375
20
-222.5
30
0
40
6
41
10.6666666667
71
5
72
1
1
135
7
standard
210
0
220
0
230
1
50
90
73
2
44
1
0
LINE
5
10E
100
AcDbEntity
8
dim
6
CONTINUOUS
62
7
370
0
100
AcDbLine
10
149.375
20
-155
11
148.75
21
-155
0
LINE
5
10F
100
AcDbEntity
8
dim
6
CONTINUOUS
62
7
370
0
100
AcDbLine
10
149.375
20
-290
11
148.75
21
-290
0
ENDBLK
5
7B
330
79
100
AcDbEntity
8
0
100
AcDbBlockEnd
0
BLOCK
5
7D
330
7C
100
AcDbEntity
8
0
100
AcDbBlockBegin
2
*D8
70
1
10
0
20
0
3
*D8
1

0
LINE
5
110
100
AcDbEntity
8
dim
6
CONTINUOUS
62
7
370
0
100
AcDbLine
10
113.251815702
20
165.881734427
11
134.748184298
21
153.118265573
0
SOLID
5
111
100
AcDbEntity
8
dim
6
CONTINUOUS
62
7
370
0
100
AcDbTrace
10
121.85036314
20
160.776346885
30
0
11
117.12603052
21
162.613151981
31
0
12
117.976148322
22
164.044929332
32
0
13
117.976148322
23
164.044929332
33
0
0
SOLID
5
112
100
AcDbEntity
8
dim
6
CONTINUOUS
62
7
370
0
100
AcDbTrace
10
126.14963686
20
158.223653115
30
0
11
130.87396948
21
156.386848019
31
0
12
130.023851678
22
154.955070668
32
0
13
130.023851678
23
154.955070668
33
0
0
MTEXT
5
113
100
AcDbEntity
8
dim
6
CONTINUOUS
62
7
370
0
100
AcDbMText
10
132.263786282
20
158.809205238
30
0
40
6
41
8.66666666667
71
5
72
1
1
%%C5
7
standard
210
0
220
0
230
1
50
329.300277449
73
2
44
1
0
ENDBLK
5
7E
330
7C
100
AcDbEntity
8
0
100
AcDbBlockEnd
0
BLOCK
5
80
330
7F
100
AcDbEntity
8
0
100
AcDbBlockBegin
2
*D35
70
1
10
0
20
0
3
*D35
1

0
LINE
5
114
100
AcDbEntity
8
dim
6
CONTINUOUS
62
7
370
0
100
AcDbLine
10
300
20
-214
11
300
21
-290
0
SOLID
5
115
100
AcDbEntity
8
dim
6
CONTINUOUS
62
7
370
0
100
AcDbTrace
10
300
20
-214
30
0
11
300.832569316
21
-219
31
0
12
299.167430684
22
-219
32
0
13
299.167430684
23
-219
33
0
0
SOLID
5
116
100
AcDbEntity
8
dim
6
CONTINUOUS
62
7
370
0
100
AcDbTrace
10
300
20
-290
30
0
11
299.167430684
21
-285
31
0
12
300.832569316
22
-285
32
0
13
300.832569316
23
-285
33
0
0
MTEXT
5
117
100
AcDbEntity
8
dim
6
CONTINUOUS
62
7
370
0
100
AcDbMText
10
296.375
20
-252
30
0
40
6
41
7.33333333333
71
5
72
1
1
76
7
standard
210
0
220
0
230
1
50
90
73
2
44
1
0
LINE
5
118
100
AcDbEntity
8
dim
6
CONTINUOUS
62
7
370
0
100
AcDbLine
10
270.625
20
-214
11
301.25
21
-214
0
LINE
5
119
100
AcDbEntity
8
dim
6
CONTINUOUS
62
7
370
0
100
AcDbLine
10
270.625
20
-290
11
301.25
21
-290
0
ENDBLK
5
81
330
7F
100
AcDbEntity
8
0
100
AcDbBlockEnd
0
BLOCK
5
83
330
82
100
AcDbEntity
8
0
100
AcDbBlockBegin
2
*D15
70
1
10
0
20
0
3
*D15
1

0
LINE
5
11A
100
AcDbEntity
8
dim
6
CONTINUOUS
62
7
370
0
100
AcDbLine
10
-270
20
230
11
270
21
230
0
SOLID
5
11B
100
AcDbEntity
8
dim
6
CONTINUOUS
62
7
370
0
100
AcDbTrace
10
-270
20
230
30
0
11
-265
21
230.832569316
31
0
12
-265
22
229.167430684
32
0
13
-265
23
229.167430684
33
0
0
SOLID
5
11C
100
AcDbEntity
8
dim
6
CONTINUOUS
62
7
370
0
100
AcDbTrace
10
270
20
230
30
0
11
265
21
229.167430684
31
0
12
265
22
230.832569316
32
0
13
265
23
230.832569316
33
0
0
MTEXT
5
11D
100
AcDbEntity
8
dim
6
CONTINUOUS
62
7
370
0
100
AcDbMText
10
5.70653787624e-14
20
233.625
30
0
40
6
41
12.6666666667
71
5
72
1
1
540
7
standard
210
0
220
0
230
1
50
0
73
2
44
1
0
LINE
5
11E
100
AcDbEntity
8
dim
6
CONTINUOUS
62
7
370
0
100
AcDbLine
10
-270
20
200.625
11
-270
21
231.25
0
LINE
5
11F
100
AcDbEntity
8
dim
6
CONTINUOUS
62
7
370
0
100
AcDbLine
10
270
20
200.625
11
270
21
231.25
0
ENDBLK
5
84
330
82
100
AcDbEntity
8
0
100
AcDbBlockEnd
0
BLOCK
5
86
330
85
100
AcDbEntity
8
0
100
AcDbBlockBegin
2
*D28
70
1
10
0
20
0
3
*D28
1

0
LINE
5
120
100
AcDbEntity
8
dim
6
CONTINUOUS
62
7
370
0
100
AcDbLine
10
300
20
175
11
300
21
200
0
SOLID
5
121
100
AcDbEntity
8
dim
6
CONTINUOUS
62
7
370
0
100
AcDbTrace
10
300
20
175
30
0
11
299.167430684
21
180
31
0
12
300.832569316
22
180
32
0
13
300.832569316
23
180
33
0
0
SOLID
5
122
100
AcDbEntity
8
dim
6
CONTINUOUS
62
7
370
0
100
AcDbTrace
10
300
20
200
30
0
11
300.832569316
21
195
31
0
12
299.167430684
22
195
32
0
13
299.167430684
23
195
33
0
0
MTEXT
5
123
100
AcDbEntity
8
dim
6
CONTINUOUS
62
7
370
0
100
AcDbMText
10
296.375
20
187.5
30
0
40
6
41
7.33333333333
71
5
72
1
1
25
7
standard
210
0
220
0
230
1
50
90
73
2
44
1
0
LINE
5
124
100
AcDbEntity
8
dim
6
CONTINUOUS
62
7
370
0
100
AcDbLine
10
60.6250000604
20
175
11
301.25
21
175
0
LINE
5
125
100
AcDbEntity
8
dim
6
CONTINUOUS
62
7
370
0
100
AcDbLine
10
270.625
20
200
11
301.25
21
200
0
ENDBLK
5
87
330
85
100
AcDbEntity
8
0
100
AcDbBlockEnd
0
BLOCK
5
89
330
88
100
AcDbEntity
8
0
100
AcDbBlockBegin
2
*D25
70
1
10
0
20
0
3
*D25
1

0
LINE
5
126
100
AcDbEntity
8
dim
6
CONTINUOUS
62
7
370
0
100
AcDbLine
10
-280
20
-242
11
-280
21
-100
0
SOLID
5
127
100
AcDbEntity
8
dim
6
CONTINUOUS
62
7
370
0
100
AcDbTrace
10
-280
20
-242
30
0
11
-280.832569316
21
-237
31
0
12
-279.167430684
22
-237
32
0
13
-279.167430684
23
-237
33
0
0
SOLID
5
128
100
AcDbEntity
8
dim
6
CONTINUOUS
62
7
370
0
100
AcDbTrace
10
-280
20
-100
30
0
11
-279.167430684
21
-105
31
0
12
-280.832569316
22
-105
32
0
13
-280.832569316
23
-105
33
0
0
MTEXT
5
129
100
AcDbEntity
8
dim
6
CONTINUOUS
62
7
370
0
100
AcDbMText
10
-283.625
20
-171
30
0
40
6
41
11.3333333333
71
5
72
1
1
142
7
standard
210
0
220
0
230
1
50
90
73
2
44
1
0
LINE
5
12A
100
AcDbEntity
8
dim
6
CONTINUOUS
62
7
370
0
100
AcDbLine
10
-255.625
20
-242
11
-281.25
21
-242
0
LINE
5
12B
100
AcDbEntity
8
dim
6
CONTINUOUS
62
7
370
0
100
AcDbLine
10
-255.625
20
-100
11
-281.25
21
-100
0
ENDBLK
5
8A
330
88
100
AcDbEntity
8
0
100
AcDbBlockEnd
0
BLOCK
5
8C
330
8B
100
AcDbEntity
8
0
100
AcDbBlockBegin
2
*D33
70
1
10
0
20
0
3
*D33
1

0
LINE
5
12C
100
AcDbEntity
8
dim
6
CONTINUOUS
62
7
370
0
100
AcDbLine
10
-160
20
60
11
-270
21
60
0
SOLID
5
12D
100
AcDbEntity
8
dim
6
CONTINUOUS
62
7
370
0
100
AcDbTrace
10
-160
20
60
30
0
11
-165
21
59.1674306845
31
0
12
-165
22
60.8325693155
32
0
13
-165
23
60.8325693155
33
0
0
SOLID
5
12E
100
AcDbEntity
8
dim
6
CONTINUOUS
62
7
370
0
100
AcDbTrace
10
-270
20
60
30
0
11
-265
21
60.8325693155
31
0
12
-265
22
59.1674306845
32
0
13
-265
23
59.1674306845
33
0
0
MTEXT
5
12F
100
AcDbEntity
8
dim
6
CONTINUOUS
62
7
370
0
100
AcDbMText
10
-215
20
63.625
30
0
40
6
41
9.33333333333
71
5
72
1
1
110
7
standard
210
0
220
0
230
1
50
360
73
2
44
1
0
LINE
5
130
100
AcDbEntity
8
dim
6
CONTINUOUS
62
7
370
0
100
AcDbLine
10
-160
20
60.625
11
-160
21
61.25
0
LINE
5
131
100
AcDbEntity
8
dim
6
CONTINUOUS
62
7
370
0
100
AcDbLine
10
-270
20
60.625
11
-270
21
61.25
0
ENDBLK
5
8D
330
8B
100
AcDbEntity
8
0
100
AcDbBlockEnd
0
BLOCK
5
8F
330
8E
100
AcDbEntity
8
0
100
AcDbBlockBegin
2
*D7
70
1
10
0
20
0
3
*D7
1

0
LINE
5
132
100
AcDbEntity
8
dim
6
CONTINUOUS
62
7
370
0
100
AcDbLine
10
112.819660113
20
-178.590169944
11
135.180339887
21
-167.409830056
0
SOLID
5
133
100
AcDbEntity
8
dim
6
CONTINUOUS
62
7
370
0
100
AcDbTrace
10
121.763932023
20
-174.118033989
30
0
11
117.664132385
21
-177.0987746
31
0
12
116.91945975
22
-175.609429332
32
0
13
116.91945975
23
-175.609429332
33
0
0
SOLID
5
134
100
AcDbEntity
8
dim
6
CONTINUOUS
62
7
370
0
100
AcDbTrace
10
126.236067977
20
-171.881966011
30
0
11
130.335867615
21
-168.9012254
31
0
12
131.08054025
22
-170.390570668
32
0
13
131.08054025
23
-170.390570668
33
0
0
MTEXT
5
135
100
AcDbEntity
8
dim
6
CONTINUOUS
62
7
370
0
100
AcDbMText
10
129.049786849
20
-166.422233366
30
0
40
6
41
8.66666666667
71
5
72
1
1
%%C5
7
standard
210
0
220
0
230
1
50
26.5650511771
73
2
44
1
0
ENDBLK
5
90
330
8E
100
AcDbEntity
8
0
100
AcDbBlockEnd
0
BLOCK
5
92
330
91
100
AcDbEntity
8
0
100
AcDbBlockBegin
2
*D3
70
1
10
0
20
0
3
*D3
1

0
LINE
5
136
100
AcDbEntity
8
dim
6
CONTINUOUS
62
7
370
0
100
AcDbLine
10
-266.141720291
20
-246.456688116
11
-243.858279709
21
-237.543311884
0
SOLID
5
137
100
AcDbEntity
8
dim
6
CONTINUOUS
62
7
370
0
100
AcDbTrace
10
-256.856953382
20
-242.742781353
30
0
11
-261.190128355
21
-245.372755938
31
0
12
-261.808545317
22
-243.826713531
32
0
13
-261.808545317
23
-243.826713531
33
0
0
SOLID
5
138
100
AcDbEntity
8
dim
6
CONTINUOUS
62
7
370
0
100
AcDbTrace
10
-253.143046618
20
-241.257218647
30
0
11
-248.809871645
21
-238.627244062
31
0
12
-248.191454683
22
-240.173286469
32
0
13
-248.191454683
23
-240.173286469
33
0
0
MTEXT
5
139
100
AcDbEntity
8
dim
6
CONTINUOUS
62
7
370
0
100
AcDbMText
10
-249.576148664
20
-235.92621498
30
0
40
6
41
9.33333333333
71
5
72
1
1
%%C4
7
standard
210
0
220
0
230
1
50
21.8014094864
73
2
44
1
0
ENDBLK
5
93
330
91
100
AcDbEntity
8
0
100
AcDbBlockEnd
0
BLOCK
5
95
330
94
100
AcDbEntity
8
0
100
AcDbBlockBegin
2
*D11
70
1
10
0
20
0
3
*D11
1

0
SOLID
5
13A
100
AcDbEntity
8
dim
6
CONTINUOUS
62
7
370
0
100
AcDbTrace
10
-68.9442723228
20
169.472136135
30
0
11
-73.7887445649
21
170.963531576
31
0
12
-73.0440719007
22
172.452876829
32
0
13
-73.0440719007
23
172.452876829
33
0
0
LINE
5
13B
100
AcDbEntity
8
dim
6
CONTINUOUS
62
7
370
0
100
AcDbLine
10
-60.0000005027
20
165
11
-83.2551072349
21
176.627553951
0
MTEXT
5
13C
100
AcDbEntity
8
dim
6
CONTINUOUS
62
7
370
0
100
AcDbMText
10
-74.4785404299
20
176.292143578
30
0
40
6
41
6
71
5
72
1
1
10
7
standard
210
0
220
0
230
1
50
333.434947671
73
2
44
1
0
ENDBLK
5
96
330
94
100
AcDbEntity
8
0
100
AcDbBlockEnd
0
BLOCK
5
98
330
97
100
AcDbEntity
8
0
100
AcDbBlockBegin
2
*D6
70
1
10
0
20
0
3
*D6
1

0
LINE
5
13D
100
AcDbEntity
8
dim
6
CONTINUOUS
62
7
370
0
100
AcDbLine
10
244.266873708
20
-247.366563146
11
265.733126292
21
-236.633436854
0
SOLID
5
13E
100
AcDbEntity
8
dim
6
CONTINUOUS
62
7
370
0
100
AcDbTrace
10
253.211145618
20
-242.894427191
30
0
11
249.11134598
21
-245.875167803
31
0
12
248.366673346
22
-244.385822534
32
0
13
248.366673346
23
-244.385822534
33
0
0
SOLID
5
13F
100
AcDbEntity
8
dim
6
CONTINUOUS
62
7
370
0
100
AcDbTrace
10
256.788854382
20
-241.105572809
30
0
11
260.88865402
21
-238.124832197
31
0
12
261.633326654
22
-239.614177466
32
0
13
261.633326654
23
-239.614177466
33
0
0
MTEXT
5
140
100
AcDbEntity
8
dim
6
CONTINUOUS
62
7
370
0
100
AcDbMText
10
259.900715651
20
-235.496768965
30
0
40
6
41
9.33333333333
71
5
72
1
1
%%C4
7
standard
210
0
220
0
230
1
50
26.5650511771
73
2
44
1
0
ENDBLK
5
99
330
97
100
AcDbEntity
8
0
100
AcDbBlockEnd
0
BLOCK
5
9B
330
9A
100
AcDbEntity
8
0
100
AcDbBlockBegin
2
*D27
70
1
10
0
20
0
3
*D27
1

0
LINE
5
141
100
AcDbEntity
8
dim
6
CONTINUOUS
62
7
370
0
100
AcDbLine
10
-70
20
-250
11
-70
21
-290
0
SOLID
5
142
100
AcDbEntity
8
dim
6
CONTINUOUS
62
7
370
0
100
AcDbTrace
10
-70
20
-250
30
0
11
-69.1674306845
21
-255
31
0
12
-70.8325693155
22
-255
32
0
13
-70.8325693155
23
-255
33
0
0
SOLID
5
143
100
AcDbEntity
8
dim
6
CONTINUOUS
62
7
370
0
100
AcDbTrace
10
-70
20
-290
30
0
11
-70.8325693155
21
-285
31
0
12
-69.1674306845
22
-285
32
0
13
-69.1674306845
23
-285
33
0
0
MTEXT
5
144
100
AcDbEntity
8
dim
6
CONTINUOUS
62
7
370
0
100
AcDbMText
10
-73.625
20
-270
30
0
40
6
41
8
71
5
72
1
1
40
7
standard
210
0
220
0
230
1
50
90
73
2
44
1
0
LINE
5
145
100
AcDbEntity
8
dim
6
CONTINUOUS
62
7
370
0
100
AcDbLine
10
-99.375
20
-250
11
-68.75
21
-250
0
LINE
5
146
100
AcDbEntity
8
dim
6
CONTINUOUS
62
7
370
0
100
AcDbLine
10
-89.375
20
-290
11
-68.75
21
-290
0
ENDBLK
5
9C
330
9A
100
AcDbEntity
8
0
100
AcDbBlockEnd
0
BLOCK
5
9E
330
9D
100
AcDbEntity
8
0
100
AcDbBlockBegin
2
*D26
70
1
10
0
20
0
3
*D26
1

0
LINE
5
147
100
AcDbEntity
8
dim
6
CONTINUOUS
62
7
370
0
100
AcDbLine
10
-280
20
-100
11
-280
21
100
0
SOLID
5
148
100
AcDbEntity
8
dim
6
CONTINUOUS
62
7
370
0
100
AcDbTrace
10
-280
20
-100
30
0
11
-280.832569316
21
-95
31
0
12
-279.167430684
22
-95
32
0
13
-279.167430684
23
-95
33
0
0
SOLID
5
149
100
AcDbEntity
8
dim
6
CONTINUOUS
62
7
370
0
100
AcDbTrace
10
-280
20
100
30
0
11
-279.167430684
21
95
31
0
12
-280.832569316
22
95
32
0
13
-280.832569316
23
95
33
0
0
MTEXT
5
14A
100
AcDbEntity
8
dim
6
CONTINUOUS
62
7
370
0
100
AcDbMText
10
-283.625
20
4.30764839489e-14
30
0
40
6
41
12
71
5
72
1
1
200
7
standard
210
0
220
0
230
1
50
90
73
2
44
1
0
LINE
5
14B
100
AcDbEntity
8
dim
6
CONTINUOUS
62
7
370
0
100
AcDbLine
10
-255.625
20
-100
11
-281.25
21
-100
0
LINE
5
14C
100
AcDbEntity
8
dim
6
CONTINUOUS
62
7
370
0
100
AcDbLine
10
-255.625
20
100
11
-281.25
21
100
0
ENDBLK
5
9F
330
9D
100
AcDbEntity
8
0
100
AcDbBlockEnd
0
BLOCK
5
A1
330
A0
100
AcDbEntity
8
0
100
AcDbBlockBegin
2
*D5
70
1
10
0
20
0
3
*D5
1

0
LINE
5
14D
100
AcDbEntity
8
dim
6
CONTINUOUS
62
7
370
0
100
AcDbLine
10
244.710084891
20
-106.173949065
11
265.289915109
21
-93.8260509349
0
SOLID
5
14E
100
AcDbEntity
8
dim
6
CONTINUOUS
62
7
370
0
100
AcDbTrace
10
253.285014149
20
-101.028991511
30
0
11
249.425902899
21
-104.315392586
31
0
12
248.569196141
22
-102.88754799
32
0
13
248.569196141
23
-102.88754799
33
0
0
SOLID
5
14F
100
AcDbEntity
8
dim
6
CONTINUOUS
62
7
370
0
100
AcDbTrace
10
256.714985851
20
-98.9710084891
30
0
11
260.574097101
21
-95.6846074138
31
0
12
261.430803859
22
-97.1124520103
32
0
13
261.430803859
23
-97.1124520103
33
0
0
MTEXT
5
150
100
AcDbEntity
8
dim
6
CONTINUOUS
62
7
370
0
100
AcDbMText
10
259.38750547
20
-93.1400565943
30
0
40
6
41
9.33333333333
71
5
72
1
1
%%C4
7
standard
210
0
220
0
230
1
50
30.9637565321
73
2
44
1
0
ENDBLK
5
A2
330
A0
100
AcDbEntity
8
0
100
AcDbBlockEnd
0
BLOCK
5
A4
330
A3
100
AcDbEntity
8
0
100
AcDbBlockBegin
2
*D31
70
1
10
0
20
0
3
*D31
1

0
LINE
5
151
100
AcDbEntity
8
dim
6
CONTINUOUS
62
7
370
0
100
AcDbLine
10
-160
20
159.5
11
-160
21
200
0
SOLID
5
152
100
AcDbEntity
8
dim
6
CONTINUOUS
62
7
370
0
100
AcDbTrace
10
-160
20
159.5
30
0
11
-160.832569316
21
164.5
31
0
12
-159.167430684
22
164.5
32
0
13
-159.167430684
23
164.5
33
0
0
SOLID
5
153
100
AcDbEntity
8
dim
6
CONTINUOUS
62
7
370
0
100
AcDbTrace
10
-160
20
200
30
0
11
-159.167430684
21
195
31
0
12
-160.832569316
22
195
32
0
13
-160.832569316
23
195
33
0
0
MTEXT
5
154
100
AcDbEntity
8
dim
6
CONTINUOUS
62
7
370
0
100
AcDbMText
10
-163.625
20
179.75
30
0
40
6
41
14.6666666667
71
5
72
1
1
40.5
7
standard
210
0
220
0
230
1
50
90
73
2
44
1
0
LINE
5
155
100
AcDbEntity
8
dim
6
CONTINUOUS
62
7
370
0
100
AcDbLine
10
-124.625
20
159.5
11
-161.25
21
159.5
0
LINE
5
156
100
AcDbEntity
8
dim
6
CONTINUOUS
62
7
370
0
100
AcDbLine
10
-270.625
20
200
11
-161.25
21
200
0
ENDBLK
5
A5
330
A3
100
AcDbEntity
8
0
100
AcDbBlockEnd
0
BLOCK
5
A7
330
A6
100
AcDbEntity
8
0
100
AcDbBlockBegin
2
*D12
70
1
10
0
20
0
3
*D12
1

0
SOLID
5
157
100
AcDbEntity
8
dim
6
CONTINUOUS
62
7
370
0
100
AcDbTrace
10
67.9999995236
20
170.999999893
30
0
11
71.5004579833
21
174.666055299
31
0
12
72.4995411441
22
173.333944381
32
0
13
72.4995411441
23
173.333944381
33
0
0
LINE
5
158
100
AcDbEntity
8
dim
6
CONTINUOUS
62
7
370
0
100
AcDbLine
10
59.9999994435
20
165
11
80.7999996519
21
180.599999722
0
MTEXT
5
159
100
AcDbEntity
8
dim
6
CONTINUOUS
62
7
370
0
100
AcDbMText
10
72.2249996265
20
178.699999837
30
0
40
6
41
6
71
5
72
1
1
10
7
standard
210
0
220
0
230
1
50
36.8698968806
73
2
44
1
0
ENDBLK
5
A8
330
A6
100
AcDbEntity
8
0
100
AcDbBlockEnd
0
BLOCK
5
AA
330
A9
100
AcDbEntity
8
0
100
AcDbBlockBegin
2
*D16
70
1
10
0
20
0
3
*D16
1

0
LINE
5
15A
100
AcDbEntity
8
dim
6
CONTINUOUS
62
7
370
0
100
AcDbLine
10
-60.0000000604
20
210
11
60.0000000757
21
210
0
SOLID
5
15B
100
AcDbEntity
8
dim
6
CONTINUOUS
62
7
370
0
100
AcDbTrace
10
-60.0000000604
20
210
30
0
11
-55.0000000604
21
210.832569316
31
0
12
-55.0000000604
22
209.167430684
32
0
13
-55.0000000604
23
209.167430684
33
0
0
SOLID
5
15C
100
AcDbEntity
8
dim
6
CONTINUOUS
62
7
370
0
100
AcDbTrace
10
60.0000000757
20
210
30
0
11
55.0000000757
21
209.167430684
31
0
12
55.0000000757
22
210.832569316
32
0
13
55.0000000757
23
210.832569316
33
0
0
MTEXT
5
15D
100
AcDbEntity
8
dim
6
CONTINUOUS
62
7
370
0
100
AcDbMText
10
7.62916152466e-09
20
213.625
30
0
40
6
41
10.6666666667
71
5
72
1
1
120
7
standard
210
0
220
0
230
1
50
0
73
2
44
1
0
LINE
5
15E
100
AcDbEntity
8
dim
6
CONTINUOUS
62
7
370
0
100
AcDbLine
10
-60.0000000604
20
175.625
11
-60.0000000604
21
211.25
0
LINE
5
15F
100
AcDbEntity
8
dim
6
CONTINUOUS
62
7
370
0
100
AcDbLine
10
60.0000000757
20
175.625
11
60.0000000757
21
211.25
0
ENDBLK
5
AB
330
A9
100
AcDbEntity
8
0
100
AcDbBlockEnd
0
BLOCK
5
AD
330
AC
100
AcDbEntity
8
0
100
AcDbBlockBegin
2
*D2
70
1
10
0
20
0
3
*D2
1

0
LINE
5
160
100
AcDbEntity
8
dim
6
CONTINUOUS
62
7
370
0
100
AcDbLine
10
-264.984603532
20
-106.656402355
11
-245.015396468
21
-93.3435976453
0
SOLID
5
161
100
AcDbEntity
8
dim
6
CONTINUOUS
62
7
370
0
100
AcDbTrace
10
-256.664100589
20
-101.109400392
30
0
11
-260.362525698
21
-104.575640918
31
0
12
-261.286178423
22
-103.19016183
32
0
13
-261.286178423
23
-103.19016183
33
0
0
SOLID
5
162
100
AcDbEntity
8
dim
6
CONTINUOUS
62
7
370
0
100
AcDbTrace
10
-253.335899411
20
-98.8905996075
30
0
11
-249.637474302
21
-95.4243590824
31
0
12
-248.713821577
22
-96.8098381705
32
0
13
-248.713821577
23
-96.8098381705
33
0
0
MTEXT
5
163
100
AcDbEntity
8
dim
6
CONTINUOUS
62
7
370
0
100
AcDbMText
10
-250.943754815
20
-92.9391287522
30
0
40
6
41
9.33333333333
71
5
72
1
1
%%C4
7
standard
210
0
220
0
230
1
50
33.690067526
73
2
44
1
0
ENDBLK
5
AE
330
AC
100
AcDbEntity
8
0
100
AcDbBlockEnd
0
BLOCK
5
B0
330
AF
100
AcDbEntity
8
0
100
AcDbBlockBegin
2
*D34
70
1
10
0
20
0
3
*D34
1

0
LINE
5
164
100
AcDbEntity
8
dim
6
CONTINUOUS
62
7
370
0
100
AcDbLine
10
-110
20
-190
11
-270
21
-190
0
SOLID
5
165
100
AcDbEntity
8
dim
6
CONTINUOUS
62
7
370
0
100
AcDbTrace
10
-110
20
-190
30
0
11
-115
21
-190.832569316
31
0
12
-115
22
-189.167430684
32
0
13
-115
23
-189.167430684
33
0
0
SOLID
5
166
100
AcDbEntity
8
dim
6
CONTINUOUS
62
7
370
0
100
AcDbTrace
10
-270
20
-190
30
0
11
-265
21
-189.167430684
31
0
12
-265
22
-190.832569316
32
0
13
-265
23
-190.832569316
33
0
0
MTEXT
5
167
100
AcDbEntity
8
dim
6
CONTINUOUS
62
7
370
0
100
AcDbMText
10
-190
20
-186.375
30
0
40
6
41
10.6666666667
71
5
72
1
1
160
7
standard
210
0
220
0
230
1
50
360
73
2
44
1
0
LINE
5
168
100
AcDbEntity
8
dim
6
CONTINUOUS
62
7
370
0
100
AcDbLine
10
-110
20
-189.375
11
-110
21
-188.75
0
LINE
5
169
100
AcDbEntity
8
dim
6
CONTINUOUS
62
7
370
0
100
AcDbLine
10
-270
20
-189.375
11
-270
21
-188.75
0
ENDBLK
5
B1
330
AF
100
AcDbEntity
8
0
100
AcDbBlockEnd
0
BLOCK
5
B3
330
B2
100
AcDbEntity
8
0
100
AcDbBlockBegin
2
PAD002054001_PROJ
70
0
10
0
20
0
3
PAD002054001_PROJ
1

0
LINE
5
16A
100
AcDbEntity
8
0
6
ByLayer
62
0
370
-1
100
AcDbLine
10
290
20
-270
11
-200
21
-270
0
LINE
5
16B
100
AcDbEntity
8
0
6
ByLayer
62
0
370
-1
100
AcDbLine
10
290
20
270
11
290
21
-270
0
LINE
5
16C
100
AcDbEntity
8
0
6
ByLayer
62
0
370
-1
100
AcDbLine
10
-200
20
270
11
290
21
270
0
LINE
5
16D
100
AcDbEntity
8
0
6
ByLayer
62
0
370
-1
100
AcDbLine
10
-200
20
-270
11
-200
21
270
0
ARC
5
16E
100
AcDbEntity
8
0
6
ByLayer
62
0
370
-1
100
AcDbCircle
10
-120
20
-150
40
10
100
AcDbArc
50
-180
51
-90.0002461818
0
LINE
5
16F
100
AcDbEntity
8
0
6
ByLayer
62
0
370
-1
100
AcDbLine
10
-130
20
-150
11
-130
21
150
0
ARC
5
170
100
AcDbEntity
8
0
6
ByLayer
62
0
370
-1
100
AcDbCircle
10
-120
20
150
40
10
100
AcDbArc
50
90
51
-180
0
LINE
5
171
100
AcDbEntity
8
0
6
ByLayer
62
0
370
-1
100
AcDbLine
10
-120
20
160
11
145
21
160
0
ARC
5
172
100
AcDbEntity
8
0
6
ByLayer
62
0
370
-1
100
AcDbCircle
10
145
20
150
40
10
100
AcDbArc
50
-0
51
90
0
LINE
5
173
100
AcDbEntity
8
0
6
ByLayer
62
0
370
-1
100
AcDbLine
10
155
20
150
11
155
21
120
0
ARC
5
174
100
AcDbEntity
8
0
6
ByLayer
62
0
370
-1
100
AcDbCircle
10
165
20
120
40
10
100
AcDbArc
50
-180
51
-90
0
LINE
5
175
100
AcDbEntity
8
0
6
ByLayer
62
0
370
-1
100
AcDbLine
10
165
20
110
11
239.999996777
21
110
0
ARC
5
176
100
AcDbEntity
8
0
6
ByLayer
62
0
370
-1
100
AcDbCircle
10
240
20
100
40
10
100
AcDbArc
50
-0
51
90.0000184684
0
LINE
5
177
100
AcDbEntity
8
0
6
ByLayer
62
0
370
-1
100
AcDbLine
10
250
20
100
11
250
21
-100
0
ARC
5
178
100
AcDbEntity
8
0
6
ByLayer
62
0
370
-1
100
AcDbCircle
10
240
20
-100
40
10
100
AcDbArc
50
-90.000022509
51
-0
0
LINE
5
179
100
AcDbEntity
8
0
6
ByLayer
62
0
370
-1
100
AcDbLine
10
239.999996071
20
-110
11
165
21
-110
0
ARC
5
17A
100
AcDbEntity
8
0
6
ByLayer
62
0
370
-1
100
AcDbCircle
10
165
20
-120
40
10
100
AcDbArc
50
90
51
-180
0
LINE
5
17B
100
AcDbEntity
8
0
6
ByLayer
62
0
370
-1
100
AcDbLine
10
155
20
-150
11
155
21
-120
0
ARC
5
17C
100
AcDbEntity
8
0
6
ByLayer
62
0
370
-1
100
AcDbCircle
10
145
20
-150
40
10
100
AcDbArc
50
-90
51
-0
0
LINE
5
17D
100
AcDbEntity
8
0
6
ByLayer
62
0
370
-1
100
AcDbLine
10
-120.000042967
20
-160
11
145
21
-160
0
LINE
5
17E
100
AcDbEntity
8
0
6
ByLayer
62
0
370
-1
100
AcDbLine
10
-175
20
-60.0000000604
11
-175
21
60.0000000604
0
ARC
5
17F
100
AcDbEntity
8
0
6
ByLayer
62
0
370
-1
100
AcDbCircle
10
-165
20
59.9999994435
40
10
100
AcDbArc
50
-0
51
179.999996378
0
LINE
5
180
100
AcDbEntity
8
0
6
ByLayer
62
0
370
-1
100
AcDbLine
10
-155
20
-60.0000006402
11
-155
21
59.9999993598
0
ARC
5
181
100
AcDbEntity
8
0
6
ByLayer
62
0
370
-1
100
AcDbCircle
10
-165
20
-60.0000005027
40
10
100
AcDbArc
50
179.9999973
51
-0
0
CIRCLE
5
182
100
AcDbEntity
8
0
6
ByLayer
62
0
370
-1
100
AcDbCircle
10
173
20
124
40
2.5
0
CIRCLE
5
183
100
AcDbEntity
8
0
6
ByLayer
62
0
370
-1
100
AcDbCircle
10
173
20
-124
40
2.5
0
CIRCLE
5
184
100
AcDbEntity
8
0
6
ByLayer
62
0
370
-1
100
AcDbCircle
10
-159.5
20
124
40
2.5
0
CIRCLE
5
185
100
AcDbEntity
8
0
6
ByLayer
62
0
370
-1
100
AcDbCircle
10
-159.5
20
-124
40
2.5
0
CIRCLE
5
186
100
AcDbEntity
8
0
6
ByLayer
62
0
370
-1
100
AcDbCircle
10
100
20
255
40
2
0
CIRCLE
5
187
100
AcDbEntity
8
0
6
ByLayer
62
0
370
-1
100
AcDbCircle
10
-100
20
255
40
2
0
CIRCLE
5
188
100
AcDbEntity
8
0
6
ByLayer
62
0
370
-1
100
AcDbCircle
10
100
20
-255
40
2
0
CIRCLE
5
189
100
AcDbEntity
8
0
6
ByLayer
62
0
370
-1
100
AcDbCircle
10
-100
20
-255
40
2
0
CIRCLE
5
18A
100
AcDbEntity
8
0
6
ByLayer
62
0
370
-1
100
AcDbCircle
10
242
20
-255
40
2
0
CIRCLE
5
18B
100
AcDbEntity
8
0
6
ByLayer
62
0
370
-1
100
AcDbCircle
10
242
20
255
40
2
0
ENDBLK
5
B4
330
B2
100
AcDbEntity
8
0
100
AcDbBlockEnd
0
ENDSEC
0
SECTION
2
ENTITIES
0
INSERT
5
18C
100
AcDbEntity
8
0
6
ByLayer
62
256
370
-1
100
AcDbBlockReference
2
PAD002054001_PROJ
10
0
20
0
30
0
41
1
42
1
43
0
50
270
70
1
71
1
44
0
45
0
0
LINE
5
18D
100
AcDbEntity
8
base
6
ByLayer
62
256
370
-1
100
AcDbLine
10
0
20
210
11
0
21
-300
0
DIMENSION
5
18E
100
AcDbEntity
8
dim
6
ByLayer
62
256
370
-1
100
AcDbDimension
2
*D1
10
-256.664100589
20
98.8905996075
30
0
11
-257.010788211
21
103.016182317
31
0
70
35
1
%%C4
71
5
3
Standard
53
0
210
0
220
0
230
1
100
AcDbDiametricDimension
15
-253.335899411
25
101.109400392
35
0
40
0
0
DIMENSION
5
18F
100
AcDbEntity
8
dim
6
ByLayer
62
256
370
-1
100
AcDbDimension
2
*D2
10
-256.664100589
20
-101.109400392
30
0
11
-257.010788211
21
-96.983817683
31
0
70
35
1
%%C4
71
5
3
Standard
53
0
210
0
220
0
230
1
100
AcDbDiametricDimension
15
-253.335899411
25
-98.8905996075
35
0
40
0
0
DIMENSION
5
190
100
AcDbEntity
8
dim
6
ByLayer
62
256
370
-1
100
AcDbDimension
2
*D3
10
-256.856953382
20
-242.742781353
30
0
11
-256.346291202
21
-238.634271996
31
0
70
35
1
%%C4
71
5
3
Standard
53
0
210
0
220
0
230
1
100
AcDbDiametricDimension
15
-253.143046618
25
-241.257218647
35
0
40
0
0
DIMENSION
5
191
100
AcDbEntity
8
dim
6
ByLayer
62
256
370
-1
100
AcDbDimension
2
*D4
10
256.827623097
20
100.812276932
30
0
11
253.527748061
21
103.312566864
31
0
70
35
1
%%C4
71
5
3
Standard
53
0
210
0
220
0
230
1
100
AcDbDiametricDimension
15
253.172376903
25
99.1877230679
35
0
40
0
0
DIMENSION
5
192
100
AcDbEntity
8
dim
6
ByLayer
62
256
370
-1
100
AcDbDimension
2
*D5
10
253.285014149
20
-101.028991511
30
0
11
253.134952887
21
-96.8915881443
31
0
70
35
1
%%C4
71
5
3
Standard
53
0
210
0
220
0
230
1
100
AcDbDiametricDimension
15
256.714985851
25
-98.9710084891
35
0
40
0
0
DIMENSION
5
193
100
AcDbEntity
8
dim
6
ByLayer
62
256
370
-1
100
AcDbDimension
2
*D6
10
253.211145618
20
-242.894427191
30
0
11
253.378850716
21
-238.757701433
31
0
70
35
1
%%C4
71
5
3
Standard
53
0
210
0
220
0
230
1
100
AcDbDiametricDimension
15
256.788854382
25
-241.105572809
35
0
40
0
0
DIMENSION
5
194
100
AcDbEntity
8
dim
6
ByLayer
62
256
370
-1
100
AcDbDimension
2
*D7
10
121.763932023
20
-174.118033989
30
0
11
122.378850716
21
-169.757701433
31
0
70
35
1
%%C5
71
5
3
Standard
53
0
210
0
220
0
230
1
100
AcDbDiametricDimension
15
126.236067977
25
-171.881966011
35
0
40
0
0
DIMENSION
5
195
100
AcDbEntity
8
dim
6
ByLayer
62
256
370
-1
100
AcDbDimension
2
*D8
10
121.85036314
20
160.776346885
30
0
11
125.850702984
21
162.616973446
31
0
70
35
1
%%C5
71
5
3
Standard
53
0
210
0
220
0
230
1
100
AcDbDiametricDimension
15
126.14963686
25
158.223653115
35
0
40
0
0
DIMENSION
5
196
100
AcDbEntity
8
dim
6
ByLayer
62
256
370
-1
100
AcDbDimension
2
*D9
10
-126.290393337
20
160.502047085
30
0
11
-122.547031727
21
162.821070339
31
0
70
35
1
%%C5
71
5
3
Standard
53
0
210
0
220
0
230
1
100
AcDbDiametricDimension
15
-121.709606663
25
158.497952915
35
0
40
0
0
DIMENSION
5
197
100
AcDbEntity
8
dim
6
ByLayer
62
256
370
-1
100
AcDbDimension
2
*D10
10
-126.236067977
20
-171.881966011
30
0
11
-122.378850716
21
-169.757701433
31
0
70
35
1
%%C5
71
5
3
Standard
53
0
210
0
220
0
230
1
100
AcDbDiametricDimension
15
-121.763932023
25
-174.118033989
35
0
40
0
0
DIMENSION
5
198
100
AcDbEntity
8
dim
6
ByLayer
62
256
370
-1
100
AcDbDimension
2
*D11
10
-60.0000005027
20
165
30
0
11
-74.4785404299
21
176.292143578
31
0
70
36
71
5
3
Standard
53
0
210
0
220
0
230
1
100
AcDbRadialDimension
15
-68.9442723228
25
169.472136135
35
0
40
0
0
DIMENSION
5
199
100
AcDbEntity
8
dim
6
ByLayer
62
256
370
-1
100
AcDbDimension
2
*D12
10
59.9999994435
20
165
30
0
11
72.2249996265
21
178.699999837
31
0
70
36
71
5
3
Standard
53
0
210
0
220
0
230
1
100
AcDbRadialDimension
15
67.9999995236
25
170.999999893
35
0
40
0
0
DIMENSION
5
19A
100
AcDbEntity
8
dim
6
ByLayer
62
256
370
-1
100
AcDbDimension
2
*D13
10
-150
20
120
30
0
11
-160.16465998
21
135.291184143
31
0
70
36
71
5
3
Standard
53
0
210
0
220
0
230
1
100
AcDbRadialDimension
15
-157.071067812
25
127.071067812
35
0
40
0
0
DIMENSION
5
19B
100
AcDbEntity
8
dim
6
ByLayer
62
256
370
-1
100
AcDbDimension
2
*D14
10
-300
20
-290
30
0
11
-303.625
21
-45
31
0
70
32
71
5
3
Standard
53
0
210
0
220
0
230
1
100
AcDbAlignedDimension
13
-270
23
200
33
0
14
-270
24
-290
34
0
50
90
100
AcDbRotatedDimension
0
DIMENSION
5
19C
100
AcDbEntity
8
dim
6
ByLayer
62
256
370
-1
100
AcDbDimension
2
*D15
10
270
20
230
30
0
11
5.70653787624e-14
21
233.625
31
0
70
32
71
5
3
Standard
53
0
210
0
220
0
230
1
100
AcDbAlignedDimension
13
-270
23
200
33
0
14
270
24
200
34
0
100
AcDbRotatedDimension
0
DIMENSION
5
19D
100
AcDbEntity
8
dim
6
ByLayer
62
256
370
-1
100
AcDbDimension
2
*D16
10
60.0000000757
20
210
30
0
11
7.62916152466e-09
21
213.625
31
0
70
32
71
5
3
Standard
53
0
210
0
220
0
230
1
100
AcDbAlignedDimension
13
-60.0000000604
23
175
33
0
14
60.0000000757
24
175
34
0
100
AcDbRotatedDimension
0
DIMENSION
5
19E
100
AcDbEntity
8
dim
6
ByLayer
62
256
370
-1
100
AcDbDimension
2
*D17
10
160
20
60
30
0
11
2.2195990163e-16
21
63.625
31
0
70
32
71
5
3
Standard
53
0
210
0
220
0
230
1
100
AcDbAlignedDimension
13
-160
23
100
33
0
14
160
24
100
34
0
100
AcDbRotatedDimension
0
DIMENSION
5
19F
100
AcDbEntity
8
dim
6
ByLayer
62
256
370
-1
100
AcDbDimension
2
*D18
10
-130
20
-155
30
0
11
-133.625
21
-12.5
31
0
70
32
71
5
3
Standard
53
0
210
0
220
0
230
1
100
AcDbAlignedDimension
13
-150
23
130
33
0
14
-150
24
-155
34
0
50
90
100
AcDbRotatedDimension
0
DIMENSION
5
1A0
100
AcDbEntity
8
dim
6
ByLayer
62
256
370
-1
100
AcDbDimension
2
*D19
10
-40
20
130
30
0
11
-43.625
21
-60
31
0
70
32
71
5
3
Standard
53
0
210
0
220
0
230
1
100
AcDbAlignedDimension
13
-90
23
-250
33
0
14
-90
24
130
34
0
50
90
100
AcDbRotatedDimension
0
DIMENSION
5
1A1
100
AcDbEntity
8
dim
6
ByLayer
62
256
370
-1
100
AcDbDimension
2
*D20
10
110
20
-190
30
0
11
2.2195990163e-16
21
-186.375
31
0
70
32
71
5
3
Standard
53
0
210
0
220
0
230
1
100
AcDbAlignedDimension
13
-110
23
-200
33
0
14
110
24
-200
34
0
100
AcDbRotatedDimension
0
DIMENSION
5
1A2
100
AcDbEntity
8
dim
6
ByLayer
62
256
370
-1
100
AcDbDimension
2
*D21
10
-270
20
-310
30
0
11
-262.5
21
-306.375
31
0
70
32
71
5
3
Standard
53
0
210
0
220
0
230
1
100
AcDbAlignedDimension
13
-255
23
-242
33
0
14
-270
24
-290
34
0
100
AcDbRotatedDimension
0
DIMENSION
5
1A3
100
AcDbEntity
8
dim
6
ByLayer
62
256
370
-1
100
AcDbDimension
2
*D22
10
-270
20
-330
30
0
11
-197
21
-326.375
31
0
70
32
71
5
3
Standard
53
0
210
0
220
0
230
1
100
AcDbAlignedDimension
13
-124
23
-173
33
0
14
-270
24
-290
34
0
100
AcDbRotatedDimension
0
DIMENSION
5
1A4
100
AcDbEntity
8
dim
6
ByLayer
62
256
370
-1
100
AcDbDimension
2
*D23
10
-270
20
210
30
0
11
-197
21
213.625
31
0
70
32
71
5
3
Standard
53
0
210
0
220
0
230
1
100
AcDbAlignedDimension
13
-124
23
159.5
33
0
14
-270
24
200
34
0
100
AcDbRotatedDimension
0
DIMENSION
5
1A5
100
AcDbEntity
8
dim
6
ByLayer
62
256
370
-1
100
AcDbDimension
2
*D24
10
-280
20
-290
30
0
11
-283.625
21
-266
31
0
70
32
71
5
3
Standard
53
0
210
0
220
0
230
1
100
AcDbAlignedDimension
13
-255
23
-242
33
0
14
-270
24
-290
34
0
50
90
100
AcDbRotatedDimension
0
DIMENSION
5
1A6
100
AcDbEntity
8
dim
6
ByLayer
62
256
370
-1
100
AcDbDimension
2
*D25
10
-280
20
-100
30
0
11
-283.625
21
-171
31
0
70
32
71
5
3
Standard
53
0
210
0
220
0
230
1
100
AcDbAlignedDimension
13
-255
23
-242
33
0
14
-255
24
-100
34
0
50
90
100
AcDbRotatedDimension
0
DIMENSION
5
1A7
100
AcDbEntity
8
dim
6
ByLayer
62
256
370
-1
100
AcDbDimension
2
*D26
10
-280
20
100
30
0
11
-283.625
21
4.30764839489e-14
31
0
70
32
71
5
3
Standard
53
0
210
0
220
0
230
1
100
AcDbAlignedDimension
13
-255
23
-100
33
0
14
-255
24
100
34
0
50
90
100
AcDbRotatedDimension
0
DIMENSION
5
1A8
100
AcDbEntity
8
dim
6
ByLayer
62
256
370
-1
100
AcDbDimension
2
*D27
10
-70
20
-290
30
0
11
-73.625
21
-270
31
0
70
32
71
5
3
Standard
53
0
210
0
220
0
230
1
100
AcDbAlignedDimension
13
-100
23
-250
33
0
14
-90
24
-290
34
0
50
90
100
AcDbRotatedDimension
0
DIMENSION
5
1A9
100
AcDbEntity
8
dim
6
ByLayer
62
256
370
-1
100
AcDbDimension
2
*D28
10
300
20
200
30
0
11
296.375
21
187.5
31
0
70
32
71
5
3
Standard
53
0
210
0
220
0
230
1
100
AcDbAlignedDimension
13
60.0000000604
23
175
33
0
14
270
24
200
34
0
50
90
100
AcDbRotatedDimension
0
DIMENSION
5
1AA
100
AcDbEntity
8
dim
6
ByLayer
62
256
370
-1
100
AcDbDimension
2
*D29
10
300
20
130
30
0
11
296.375
21
142.5
31
0
70
32
71
5
3
Standard
53
0
210
0
220
0
230
1
100
AcDbAlignedDimension
13
59.9999994435
23
155
33
0
14
150
24
130
34
0
50
90
100
AcDbRotatedDimension
0
DIMENSION
5
1AB
100
AcDbEntity
8
dim
6
ByLayer
62
256
370
-1
100
AcDbDimension
2
*D30
10
-160
20
-290
30
0
11
-163.625
21
-231.5
31
0
70
32
71
5
3
Standard
53
0
210
0
220
0
230
1
100
AcDbAlignedDimension
13
-124
23
-173
33
0
14
-270
24
-290
34
0
50
90
100
AcDbRotatedDimension
0
DIMENSION
5
1AC
100
AcDbEntity
8
dim
6
ByLayer
62
256
370
-1
100
AcDbDimension
2
*D31
10
-160
20
200
30
0
11
-163.625
21
179.75
31
0
70
32
71
5
3
Standard
53
0
210
0
220
0
230
1
100
AcDbAlignedDimension
13
-124
23
159.5
33
0
14
-270
24
200
34
0
50
90
100
AcDbRotatedDimension
0
DIMENSION
5
1AD
100
AcDbEntity
8
dim
6
ByLayer
62
256
370
-1
100
AcDbDimension
2
*D32
10
150
20
-290
30
0
11
146.375
21
-222.5
31
0
70
32
71
5
3
Standard
53
0
210
0
220
0
230
1
100
AcDbAlignedDimension
13
150
23
-155
33
0
14
150
24
-290
34
0
50
90
100
AcDbRotatedDimension
0
DIMENSION
5
1AE
100
AcDbEntity
8
dim
6
ByLayer
62
256
370
-1
100
AcDbDimension
2
*D33
10
-270
20
60
30
0
11
-215
21
63.625
31
0
70
32
71
5
3
Standard
53
0
210
0
220
0
230
1
100
AcDbAlignedDimension
13
-160
23
60
33
0
14
-270
24
60
34
0
100
AcDbRotatedDimension
0
DIMENSION
5
1AF
100
AcDbEntity
8
dim
6
ByLayer
62
256
370
-1
100
AcDbDimension
2
*D34
10
-270
20
-190
30
0
11
-190
21
-186.375
31
0
70
32
71
5
3
Standard
53
0
210
0
220
0
230
1
100
AcDbAlignedDimension
13
-110
23
-190
33
0
14
-270
24
-190
34
0
100
AcDbRotatedDimension
0
LINE
5
1B0
100
AcDbEntity
8
base2
6
ByLayer
62
256
370
-1
100
AcDbLine
10
270
20
-214
11
-270
21
-214
0
DIMENSION
5
1B1
100
AcDbEntity
8
dim
6
ByLayer
62
256
370
-1
100
AcDbDimension
2
*D35
10
300
20
-290
30
0
11
296.375
21
-252
31
0
70
32
71
5
3
Standard
53
0
210
0
220
0
230
1
100
AcDbAlignedDimension
13
270
23
-214
33
0
14
270
24
-290
34
0
50
90
100
AcDbRotatedDimension
0
ENDSEC
0
SECTION
2
OBJECTS
0
DICTIONARY
5
C
330
0
100
AcDbDictionary
281
1
3
ACAD_GROUP
350
D
0
DICTIONARY
5
D
330
C
100
AcDbDictionary
281
1
0
ENDSEC
0
EOF
