999
dxfrw 0.5.11
0
SECTION
2
HEADER
9
$ACADVER
1
AC1021
9
$HANDSEED
5
20000
9
$DWGCODEPAGE
3
ANSI_1252
9
$INSBASE
10
0
20
0
30
0
9
$EXTMIN
10
-266.581750746
20
-301.25
30
0
9
$EXTMAX
10
232.731468188
20
195.625
30
0
9
$LIMMIN
10
0
20
0
9
$LIMMAX
10
420
20
297
9
$ORTHOMODE
70
0
9
$LTSCALE
40
1
9
$TEXTSTYLE
7
STANDARD
9
$CLAYER
8
dim
9
$DIMASZ
40
5
9
$DIMLFAC
40
1
9
$DIMSCALE
40
1
9
$DIMEXO
40
0.625
9
$DIMEXE
40
1.25
9
$DIMTXT
40
5
9
$DIMTSZ
40
0
9
$DIMAUNIT
70
0
9
$DIMADEC
70
2
9
$DIMLUNIT
70
2
9
$DIMSTYLE
2
Standard
9
$DIMGAP
40
0.625
9
$DIMTIH
70
0
9
$LUNITS
70
2
9
$LUPREC
70
1
9
$AUNITS
70
0
9
$AUPREC
70
2
9
$SPLINESEGS
70
8
9
$GRIDMODE
70
1
9
$SNAPSTYLE
70
0
9
$GRIDUNIT
10
0
20
0
9
$PINSBASE
10
0
20
0
30
0
9
$PLIMMIN
10
0
20
0
9
$PLIMMAX
10
210
20
297
9
$INSUNITS
70
0
9
$PSVPSCALE
40
1
0
ENDSEC
0
SECTION
2
CLASSES
0
ENDSEC
0
SECTION
2
TABLES
0
TABLE
2
VPORT
5
8
330
0
100
AcDbSymbolTable
70
1
0
VPORT
5
31
330
2
100
AcDbSymbolTableRecord
100
AcDbViewportTableRecord
2
*ACTIVE
70
0
10
0
20
0
11
1
21
1
12
221.252441406
22
90.33203125
13
0
23
0
14
10
24
10
15
10
25
10
16
0
26
0
36
1
17
0
27
0
37
0
40
573.120117188
41
1.66666666667
42
50
43
0
44
0
50
0
51
0
71
0
72
100
73
1
74
3
75
0
76
1
77
0
78
0
281
0
65
1
110
0
120
0
130
0
111
1
121
0
131
0
112
0
122
1
132
0
79
0
146
0
348
10020
60
7
61
5
292
1
282
1
141
0
142
0
63
250
421
3358443
0
ENDTAB
0
TABLE
2
LTYPE
5
5
330
0
100
AcDbSymbolTable
70
4
0
LTYPE
5
14
330
5
100
AcDbSymbolTableRecord
100
AcDbLinetypeTableRecord
2
ByBlock
70
0
3

72
65
73
0
40
0
0
LTYPE
5
15
330
5
100
AcDbSymbolTableRecord
100
AcDbLinetypeTableRecord
2
ByLayer
70
0
3

72
65
73
0
40
0
0
LTYPE
5
16
330
5
100
AcDbSymbolTableRecord
100
AcDbLinetypeTableRecord
2
Continuous
70
0
3
Solid line
72
65
73
0
40
0
0
LTYPE
5
32
330
5
100
AcDbSymbolTableRecord
100
AcDbLinetypeTableRecord
2
DOT
70
0
3
Dot . . . . . . . . . . . . . . . . . . . . . .
72
65
73
2
40
6.35
49
0
74
0
49
-6.35
74
0
0
LTYPE
5
33
330
5
100
AcDbSymbolTableRecord
100
AcDbLinetypeTableRecord
2
DOT2
70
0
3
Dot (.5x) .....................................
72
65
73
2
40
3.175
49
0
74
0
49
-3.175
74
0
0
LTYPE
5
34
330
5
100
AcDbSymbolTableRecord
100
AcDbLinetypeTableRecord
2
DOTX2
70
0
3
Dot (2x) .  .  .  .  .  .  .  .  .  .  .  .  .
72
65
73
2
40
12.7
49
0
74
0
49
-12.7
74
0
0
LTYPE
5
35
330
5
100
AcDbSymbolTableRecord
100
AcDbLinetypeTableRecord
2
DASHED
70
0
3
Dot . . . . . . . . . . . . . . . . . . . . . .
72
65
73
2
40
19.05
49
12.7
74
0
49
-6.35
74
0
0
LTYPE
5
36
330
5
100
AcDbSymbolTableRecord
100
AcDbLinetypeTableRecord
2
DASHED2
70
0
3
Dashed (.5x) _ _ _ _ _ _ _ _ _ _ _ _ _ _ _ _ _
72
65
73
2
40
9.525
49
6.35
74
0
49
-3.175
74
0
0
LTYPE
5
37
330
5
100
AcDbSymbolTableRecord
100
AcDbLinetypeTableRecord
2
DASHEDX2
70
0
3
Dashed (2x) ____  ____  ____  ____  ____  ___
72
65
73
2
40
38.1
49
25.4
74
0
49
-12.7
74
0
0
LTYPE
5
38
330
5
100
AcDbSymbolTableRecord
100
AcDbLinetypeTableRecord
2
DASHDOT
70
0
3
Dash dot __ . __ . __ . __ . __ . __ . __ . __
72
65
73
4
40
25.4
49
12.7
74
0
49
-6.35
74
0
49
0
74
0
49
-6.35
74
0
0
LTYPE
5
39
330
5
100
AcDbSymbolTableRecord
100
AcDbLinetypeTableRecord
2
DASHDOT2
70
0
3
Dash dot (.5x) _._._._._._._._._._._._._._._.
72
65
73
4
40
12.7
49
6.35
74
0
49
-3.175
74
0
49
0
74
0
49
-3.175
74
0
0
LTYPE
5
3A
330
5
100
AcDbSymbolTableRecord
100
AcDbLinetypeTableRecord
2
DASHDOTX2
70
0
3
Dash dot (2x) ____  .  ____  .  ____  .  ___
72
65
73
4
40
50.8
49
25.4
74
0
49
-12.7
74
0
49
0
74
0
49
-12.7
74
0
0
LTYPE
5
3B
330
5
100
AcDbSymbolTableRecord
100
AcDbLinetypeTableRecord
2
DIVIDE
70
0
3
Divide ____ . . ____ . . ____ . . ____ . . ____
72
65
73
6
40
31.75
49
12.7
74
0
49
-6.35
74
0
49
0
74
0
49
-6.35
74
0
49
0
74
0
49
-6.35
74
0
0
LTYPE
5
3C
330
5
100
AcDbSymbolTableRecord
100
AcDbLinetypeTableRecord
2
DIVIDE2
70
0
3
Divide (.5x) __..__..__..__..__..__..__..__.._
72
65
73
6
40
15.875
49
6.35
74
0
49
-3.175
74
0
49
0
74
0
49
-3.175
74
0
49
0
74
0
49
-3.175
74
0
0
LTYPE
5
3D
330
5
100
AcDbSymbolTableRecord
100
AcDbLinetypeTableRecord
2
DIVIDEX2
70
0
3
Divide (2x) ________  .  .  ________  .  .  _
72
65
73
6
40
63.5
49
25.4
74
0
49
-12.7
74
0
49
0
74
0
49
-12.7
74
0
49
0
74
0
49
-12.7
74
0
0
LTYPE
5
3E
330
5
100
AcDbSymbolTableRecord
100
AcDbLinetypeTableRecord
2
BORDER
70
0
3
Border __ __ . __ __ . __ __ . __ __ . __ __ .
72
65
73
6
40
44.45
49
12.7
74
0
49
-6.35
74
0
49
12.7
74
0
49
-6.35
74
0
49
0
74
0
49
-6.35
74
0
0
LTYPE
5
3F
330
5
100
AcDbSymbolTableRecord
100
AcDbLinetypeTableRecord
2
BORDER2
70
0
3
Border (.5x) __.__.__.__.__.__.__.__.__.__.__.
72
65
73
6
40
22.225
49
6.35
74
0
49
-3.175
74
0
49
6.35
74
0
49
-3.175
74
0
49
0
74
0
49
-3.175
74
0
0
LTYPE
5
40
330
5
100
AcDbSymbolTableRecord
100
AcDbLinetypeTableRecord
2
BORDERX2
70
0
3
Border (2x) ____  ____  .  ____  ____  .  ___
72
65
73
6
40
88.9
49
25.4
74
0
49
-12.7
74
0
49
25.4
74
0
49
-12.7
74
0
49
0
74
0
49
-12.7
74
0
0
LTYPE
5
41
330
5
100
AcDbSymbolTableRecord
100
AcDbLinetypeTableRecord
2
CENTER
70
0
3
Center ____ _ ____ _ ____ _ ____ _ ____ _ ____
72
65
73
4
40
50.8
49
31.75
74
0
49
-6.35
74
0
49
6.35
74
0
49
-6.35
74
0
0
LTYPE
5
42
330
5
100
AcDbSymbolTableRecord
100
AcDbLinetypeTableRecord
2
CENTER2
70
0
3
Center (.5x) ___ _ ___ _ ___ _ ___ _ ___ _ ___
72
65
73
4
40
28.575
49
19.05
74
0
49
-3.175
74
0
49
3.175
74
0
49
-3.175
74
0
0
LTYPE
5
43
330
5
100
AcDbSymbolTableRecord
100
AcDbLinetypeTableRecord
2
CENTERX2
70
0
3
Center (2x) ________  __  ________  __  _____
72
65
73
4
40
101.6
49
63.5
74
0
49
-12.7
74
0
49
12.7
74
0
49
-12.7
74
0
0
ENDTAB
0
TABLE
2
LAYER
5
2
330
0
100
AcDbSymbolTable
70
1
0
LAYER
5
10
330
2
100
AcDbSymbolTableRecord
100
AcDbLayerTableRecord
2
0
70
0
62
7
6
CONTINUOUS
370
0
390
F
0
LAYER
5
44
330
2
100
AcDbSymbolTableRecord
100
AcDbLayerTableRecord
2
base
70
0
62
7
6
CENTER
370
0
390
F
0
LAYER
5
45
330
2
100
AcDbSymbolTableRecord
100
AcDbLayerTableRecord
2
dim
70
0
62
7
6
CONTINUOUS
370
0
390
F
0
ENDTAB
0
TABLE
2
STYLE
5
3
330
0
100
AcDbSymbolTable
70
3
0
STYLE
5
46
330
2
100
AcDbSymbolTableRecord
100
AcDbTextStyleTableRecord
2
Standard
70
0
40
0
41
1
50
0
71
0
42
1
3
txt
4

0
ENDTAB
0
TABLE
2
VIEW
5
6
330
0
100
AcDbSymbolTable
70
0
0
ENDTAB
0
TABLE
2
UCS
5
7
330
0
100
AcDbSymbolTable
70
0
0
ENDTAB
0
TABLE
2
APPID
5
9
330
0
100
AcDbSymbolTable
70
1
0
APPID
5
12
330
9
100
AcDbSymbolTableRecord
100
AcDbRegAppTableRecord
2
ACAD
70
0
0
ENDTAB
0
TABLE
2
DIMSTYLE
5
A
330
0
100
AcDbSymbolTable
70
1
100
AcDbDimStyleTable
71
1
0
DIMSTYLE
105
47
330
A
100
AcDbSymbolTableRecord
100
AcDbDimStyleTableRecord
2
Standard
70
0
40
1
41
5
42
0.625
43
0.38
44
1.25
45
0
46
0
47
0
48
0
140
5
141
0.09
142
0
143
25.4
144
1
145
0
146
1
147
0.625
148
0
71
0
72
0
73
0
74
1
75
0
76
0
77
0
78
0
79
0
170
0
171
2
172
0
173
0
174
0
175
0
176
0
177
0
178
0
179
0
271
4
272
4
273
2
274
2
275
0
276
0
277
2
278
46
279
0
280
0
281
0
282
0
283
1
284
0
285
0
286
0
288
0
289
3
340
Standard
341

371
-2
372
-2
0
ENDTAB
0
TABLE
2
BLOCK_RECORD
5
1
330
0
100
AcDbSymbolTable
70
2
0
BLOCK_RECORD
5
1F
330
1
100
AcDbSymbolTableRecord
100
AcDbBlockTableRecord
2
*Model_Space
70
0
280
1
281
0
0
BLOCK_RECORD
5
1E
330
1
100
AcDbSymbolTableRecord
100
AcDbBlockTableRecord
2
*Paper_Space
70
0
280
1
281
0
0
BLOCK_RECORD
5
48
330
1
100
AcDbSymbolTableRecord
100
AcDbBlockTableRecord
2
*D1
70
0
280
1
281
0
0
BLOCK_RECORD
5
4B
330
1
100
AcDbSymbolTableRecord
100
AcDbBlockTableRecord
2
*D20
70
0
280
1
281
0
0
BLOCK_RECORD
5
4E
330
1
100
AcDbSymbolTableRecord
100
AcDbBlockTableRecord
2
*D22
70
0
280
1
281
0
0
BLOCK_RECORD
5
51
330
1
100
AcDbSymbolTableRecord
100
AcDbBlockTableRecord
2
*D14
70
0
280
1
281
0
0
BLOCK_RECORD
5
54
330
1
100
AcDbSymbolTableRecord
100
AcDbBlockTableRecord
2
*D25
70
0
280
1
281
0
0
BLOCK_RECORD
5
57
330
1
100
AcDbSymbolTableRecord
100
AcDbBlockTableRecord
2
*D26
70
0
280
1
281
0
0
BLOCK_RECORD
5
5A
330
1
100
AcDbSymbolTableRecord
100
AcDbBlockTableRecord
2
*D27
70
0
280
1
281
0
0
BLOCK_RECORD
5
5D
330
1
100
AcDbSymbolTableRecord
100
AcDbBlockTableRecord
2
*D28
70
0
280
1
281
0
0
BLOCK_RECORD
5
60
330
1
100
AcDbSymbolTableRecord
100
AcDbBlockTableRecord
2
*D8
70
0
280
1
281
0
0
BLOCK_RECORD
5
63
330
1
100
AcDbSymbolTableRecord
100
AcDbBlockTableRecord
2
*D3
70
0
280
1
281
0
0
BLOCK_RECORD
5
66
330
1
100
AcDbSymbolTableRecord
100
AcDbBlockTableRecord
2
*D9
70
0
280
1
281
0
0
BLOCK_RECORD
5
69
330
1
100
AcDbSymbolTableRecord
100
AcDbBlockTableRecord
2
*D15
70
0
280
1
281
0
0
BLOCK_RECORD
5
6C
330
1
100
AcDbSymbolTableRecord
100
AcDbBlockTableRecord
2
*D5
70
0
280
1
281
0
0
BLOCK_RECORD
5
6F
330
1
100
AcDbSymbolTableRecord
100
AcDbBlockTableRecord
2
*D21
70
0
280
1
281
0
0
BLOCK_RECORD
5
72
330
1
100
AcDbSymbolTableRecord
100
AcDbBlockTableRecord
2
*D6
70
0
280
1
281
0
0
BLOCK_RECORD
5
75
330
1
100
AcDbSymbolTableRecord
100
AcDbBlockTableRecord
2
*D18
70
0
280
1
281
0
0
BLOCK_RECORD
5
78
330
1
100
AcDbSymbolTableRecord
100
AcDbBlockTableRecord
2
*D23
70
0
280
1
281
0
0
BLOCK_RECORD
5
7B
330
1
100
AcDbSymbolTableRecord
100
AcDbBlockTableRecord
2
*D11
70
0
280
1
281
0
0
BLOCK_RECORD
5
7E
330
1
100
AcDbSymbolTableRecord
100
AcDbBlockTableRecord
2
*D12
70
0
280
1
281
0
0
BLOCK_RECORD
5
81
330
1
100
AcDbSymbolTableRecord
100
AcDbBlockTableRecord
2
*D19
70
0
280
1
281
0
0
BLOCK_RECORD
5
84
330
1
100
AcDbSymbolTableRecord
100
AcDbBlockTableRecord
2
*D4
70
0
280
1
281
0
0
BLOCK_RECORD
5
87
330
1
100
AcDbSymbolTableRecord
100
AcDbBlockTableRecord
2
*D16
70
0
280
1
281
0
0
BLOCK_RECORD
5
8A
330
1
100
AcDbSymbolTableRecord
100
AcDbBlockTableRecord
2
*D10
70
0
280
1
281
0
0
BLOCK_RECORD
5
8D
330
1
100
AcDbSymbolTableRecord
100
AcDbBlockTableRecord
2
*D24
70
0
280
1
281
0
0
BLOCK_RECORD
5
90
330
1
100
AcDbSymbolTableRecord
100
AcDbBlockTableRecord
2
*D13
70
0
280
1
281
0
0
BLOCK_RECORD
5
93
330
1
100
AcDbSymbolTableRecord
100
AcDbBlockTableRecord
2
*D7
70
0
280
1
281
0
0
BLOCK_RECORD
5
96
330
1
100
AcDbSymbolTableRecord
100
AcDbBlockTableRecord
2
*D17
70
0
280
1
281
0
0
BLOCK_RECORD
5
99
330
1
100
AcDbSymbolTableRecord
100
AcDbBlockTableRecord
2
*D2
70
0
280
1
281
0
0
BLOCK_RECORD
5
9C
330
1
100
AcDbSymbolTableRecord
100
AcDbBlockTableRecord
2
PAD002054008_PROJ
70
0
280
1
281
0
0
ENDTAB
0
ENDSEC
0
SECTION
2
BLOCKS
0
BLOCK
5
20
330
1F
100
AcDbEntity
8
0
100
AcDbBlockBegin
2
*Model_Space
70
0
10
0
20
0
30
0
3
*Model_Space
1

0
ENDBLK
5
21
330
1F
100
AcDbEntity
8
0
100
AcDbBlockEnd
0
BLOCK
5
1C
330
1B
100
AcDbEntity
8
0
100
AcDbBlockBegin
2
*Paper_Space
70
0
10
0
20
0
30
0
3
*Paper_Space
1

0
ENDBLK
5
1D
330
1F
100
AcDbEntity
8
0
100
AcDbBlockEnd
0
BLOCK
5
49
330
48
100
AcDbEntity
8
0
100
AcDbBlockBegin
2
*D1
70
1
10
0
20
0
3
*D1
1

0
LINE
5
9F
100
AcDbEntity
8
dim
6
CONTINUOUS
62
7
370
0
100
AcDbLine
10
-260
20
-270
11
-260
21
165
0
SOLID
5
A0
100
AcDbEntity
8
dim
6
CONTINUOUS
62
7
370
0
100
AcDbTrace
10
-260
20
-270
30
0
11
-260.832569316
21
-265
31
0
12
-259.167430684
22
-265
32
0
13
-259.167430684
23
-265
33
0
0
SOLID
5
A1
100
AcDbEntity
8
dim
6
CONTINUOUS
62
7
370
0
100
AcDbTrace
10
-260
20
165
30
0
11
-259.167430684
21
160
31
0
12
-260.832569316
22
160
32
0
13
-260.832569316
23
160
33
0
0
MTEXT
5
A2
100
AcDbEntity
8
dim
6
CONTINUOUS
62
7
370
0
100
AcDbMText
10
-263.125
20
-52.5
30
0
40
5
41
10.5555555556
71
5
72
1
1
435
7
standard
210
0
220
0
230
1
50
90
73
2
44
1
0
LINE
5
A3
100
AcDbEntity
8
dim
6
CONTINUOUS
62
7
370
0
100
AcDbLine
10
-230.625
20
-270
11
-261.25
21
-270
0
LINE
5
A4
100
AcDbEntity
8
dim
6
CONTINUOUS
62
7
370
0
100
AcDbLine
10
-23.3564681881
20
165
11
-261.25
21
165
0
ENDBLK
5
4A
330
48
100
AcDbEntity
8
0
100
AcDbBlockEnd
0
BLOCK
5
4C
330
4B
100
AcDbEntity
8
0
100
AcDbBlockBegin
2
*D20
70
1
10
0
20
0
3
*D20
1

0
LINE
5
A5
100
AcDbEntity
8
dim
6
CONTINUOUS
62
7
370
0
100
AcDbLine
10
-150
20
-188.432621135
11
-150
21
-211.25
0
LINE
5
A6
100
AcDbEntity
8
dim
6
CONTINUOUS
62
7
370
0
100
AcDbLine
10
150
20
-188.432621135
11
150
21
-211.25
0
LINE
5
A7
100
AcDbEntity
8
dim
6
CONTINUOUS
62
7
370
0
100
AcDbLine
10
-150
20
-210
11
150
21
-210
0
SOLID
5
A8
100
AcDbEntity
8
dim
6
CONTINUOUS
62
7
370
0
100
AcDbTrace
10
-150
20
-210
30
0
11
-145
21
-209.167430684
31
0
12
-145
22
-210.832569316
32
0
13
-145
23
-210.832569316
33
0
0
SOLID
5
A9
100
AcDbEntity
8
dim
6
CONTINUOUS
62
7
370
0
100
AcDbTrace
10
150
20
-210
30
0
11
145
21
-210.832569316
31
0
12
145
22
-209.167430684
32
0
13
145
23
-209.167430684
33
0
0
MTEXT
5
AA
100
AcDbEntity
8
dim
6
CONTINUOUS
62
7
370
0
100
AcDbMText
10
2.86130541732e-14
20
-206.875
30
0
40
5
41
10
71
5
72
1
1
300
7
standard
210
0
220
0
230
1
50
0
73
2
44
1
0
ENDBLK
5
4D
330
4B
100
AcDbEntity
8
0
100
AcDbBlockEnd
0
BLOCK
5
4F
330
4E
100
AcDbEntity
8
0
100
AcDbBlockBegin
2
*D22
70
1
10
0
20
0
3
*D22
1

0
LINE
5
AB
100
AcDbEntity
8
dim
6
CONTINUOUS
62
7
370
0
100
AcDbLine
10
61.1013847047
20
72.5412660176
11
52.6411897869
21
87.1947686451
0
LINE
5
AC
100
AcDbEntity
8
dim
6
CONTINUOUS
62
7
370
0
100
AcDbLine
10
72.3597178712
20
79.0412609649
11
63.8995229533
21
93.6947635923
0
LINE
5
AD
100
AcDbEntity
8
dim
6
CONTINUOUS
62
7
370
0
100
AcDbLine
10
53.2661893011
20
86.1122366098
11
64.5245224675
21
92.6122315571
0
SOLID
5
AE
100
AcDbEntity
8
dim
6
CONTINUOUS
62
7
370
0
100
AcDbTrace
10
53.2661893011
20
86.1122366098
30
0
11
57.1800331078
21
89.333261031
31
0
12
58.0126017762
22
87.8912083019
32
0
13
58.0126017762
23
87.8912083019
33
0
0
SOLID
5
AF
100
AcDbEntity
8
dim
6
CONTINUOUS
62
7
370
0
100
AcDbTrace
10
64.5245224675
20
92.6122315571
30
0
11
60.6106786607
21
89.3912071359
31
0
12
59.7781099924
22
90.8332598649
32
0
13
59.7781099924
23
90.8332598649
33
0
0
MTEXT
5
B0
100
AcDbEntity
8
dim
6
CONTINUOUS
62
7
370
0
100
AcDbMText
10
57.3328570989
20
92.0685641715
30
0
40
5
41
5
71
5
72
1
1
13
7
standard
210
0
220
0
230
1
50
29.9999742855
73
2
44
1
0
ENDBLK
5
50
330
4E
100
AcDbEntity
8
0
100
AcDbBlockEnd
0
BLOCK
5
52
330
51
100
AcDbEntity
8
0
100
AcDbBlockBegin
2
*D14
70
1
10
0
20
0
3
*D14
1

0
LINE
5
B1
100
AcDbEntity
8
dim
6
CONTINUOUS
62
7
370
0
100
AcDbLine
10
149.413806727
20
-101.205125637
11
173.413806727
21
-101.205125637
0
SOLID
5
B2
100
AcDbEntity
8
dim
6
CONTINUOUS
62
7
370
0
100
AcDbTrace
10
159.413806727
20
-101.205125637
30
0
11
154.413806727
21
-102.037694953
31
0
12
154.413806727
22
-100.372556322
32
0
13
154.413806727
23
-100.372556322
33
0
0
SOLID
5
B3
100
AcDbEntity
8
dim
6
CONTINUOUS
62
7
370
0
100
AcDbTrace
10
163.413806727
20
-101.205125637
30
0
11
168.413806727
21
-100.372556322
31
0
12
168.413806727
22
-102.037694953
32
0
13
168.413806727
23
-102.037694953
33
0
0
MTEXT
5
B4
100
AcDbEntity
8
dim
6
CONTINUOUS
62
7
370
0
100
AcDbMText
10
167.927695616
20
-98.0801256372
30
0
40
5
41
7.77777777778
71
5
72
1
1
%%C4
7
standard
210
0
220
0
230
1
50
0
73
2
44
1
0
ENDBLK
5
53
330
51
100
AcDbEntity
8
0
100
AcDbBlockEnd
0
BLOCK
5
55
330
54
100
AcDbEntity
8
0
100
AcDbBlockBegin
2
*D25
70
1
10
0
20
0
3
*D25
1

0
LINE
5
B5
100
AcDbEntity
8
dim
6
CONTINUOUS
62
7
370
0
100
AcDbLine
10
-40
20
72
11
-40
21
165
0
SOLID
5
B6
100
AcDbEntity
8
dim
6
CONTINUOUS
62
7
370
0
100
AcDbTrace
10
-40
20
72
30
0
11
-40.8325693155
21
77
31
0
12
-39.1674306845
22
77
32
0
13
-39.1674306845
23
77
33
0
0
SOLID
5
B7
100
AcDbEntity
8
dim
6
CONTINUOUS
62
7
370
0
100
AcDbTrace
10
-40
20
165
30
0
11
-39.1674306845
21
160
31
0
12
-40.8325693155
22
160
32
0
13
-40.8325693155
23
160
33
0
0
MTEXT
5
B8
100
AcDbEntity
8
dim
6
CONTINUOUS
62
7
370
0
100
AcDbMText
10
-43.125
20
118.5
30
0
40
5
41
6.11111111111
71
5
72
1
1
93
7
standard
210
0
220
0
230
1
50
90
73
2
44
1
0
LINE
5
B9
100
AcDbEntity
8
dim
6
CONTINUOUS
62
7
370
0
100
AcDbLine
10
-0.625
20
72
11
-41.25
21
72
0
LINE
5
BA
100
AcDbEntity
8
dim
6
CONTINUOUS
62
7
370
0
100
AcDbLine
10
-23.3564681881
20
165
11
-41.25
21
165
0
ENDBLK
5
56
330
54
100
AcDbEntity
8
0
100
AcDbBlockEnd
0
BLOCK
5
58
330
57
100
AcDbEntity
8
0
100
AcDbBlockBegin
2
*D26
70
1
10
0
20
0
3
*D26
1

0
LINE
5
BB
100
AcDbEntity
8
dim
6
CONTINUOUS
62
7
370
0
100
AcDbLine
10
200
20
-247.807621135
11
200
21
-270
0
SOLID
5
BC
100
AcDbEntity
8
dim
6
CONTINUOUS
62
7
370
0
100
AcDbTrace
10
200
20
-247.807621135
30
0
11
200.832569316
21
-252.807621135
31
0
12
199.167430684
22
-252.807621135
32
0
13
199.167430684
23
-252.807621135
33
0
0
SOLID
5
BD
100
AcDbEntity
8
dim
6
CONTINUOUS
62
7
370
0
100
AcDbTrace
10
200
20
-270
30
0
11
199.167430684
21
-265
31
0
12
200.832569316
22
-265
32
0
13
200.832569316
23
-265
33
0
0
MTEXT
5
BE
100
AcDbEntity
8
dim
6
CONTINUOUS
62
7
370
0
100
AcDbMText
10
196.875
20
-258.903810567
30
0
40
5
41
11.6666666667
71
5
72
1
1
22.2
7
standard
210
0
220
0
230
1
50
90
73
2
44
1
0
LINE
5
BF
100
AcDbEntity
8
dim
6
CONTINUOUS
62
7
370
0
100
AcDbLine
10
150.624956208
20
-247.807621135
11
201.25
21
-247.807621135
0
LINE
5
C0
100
AcDbEntity
8
dim
6
CONTINUOUS
62
7
370
0
100
AcDbLine
10
230.625
20
-270
11
201.25
21
-270
0
ENDBLK
5
59
330
57
100
AcDbEntity
8
0
100
AcDbBlockEnd
0
BLOCK
5
5B
330
5A
100
AcDbEntity
8
0
100
AcDbBlockBegin
2
*D27
70
1
10
0
20
0
3
*D27
1

0
LINE
5
C1
100
AcDbEntity
8
dim
6
CONTINUOUS
62
7
370
0
100
AcDbLine
10
149.999956208
20
-290
11
230
21
-290
0
SOLID
5
C2
100
AcDbEntity
8
dim
6
CONTINUOUS
62
7
370
0
100
AcDbTrace
10
149.999956208
20
-290
30
0
11
154.999956208
21
-289.167430684
31
0
12
154.999956208
22
-290.832569316
32
0
13
154.999956208
23
-290.832569316
33
0
0
SOLID
5
C3
100
AcDbEntity
8
dim
6
CONTINUOUS
62
7
370
0
100
AcDbTrace
10
230
20
-290
30
0
11
225
21
-290.832569316
31
0
12
225
22
-289.167430684
32
0
13
225
23
-289.167430684
33
0
0
MTEXT
5
C4
100
AcDbEntity
8
dim
6
CONTINUOUS
62
7
370
0
100
AcDbMText
10
189.999978104
20
-286.875
30
0
40
5
41
6.11111111111
71
5
72
1
1
80
7
standard
210
0
220
0
230
1
50
0
73
2
44
1
0
LINE
5
C5
100
AcDbEntity
8
dim
6
CONTINUOUS
62
7
370
0
100
AcDbLine
10
149.999956208
20
-248.432621135
11
149.999956208
21
-291.25
0
LINE
5
C6
100
AcDbEntity
8
dim
6
CONTINUOUS
62
7
370
0
100
AcDbLine
10
230
20
-270.625
11
230
21
-291.25
0
ENDBLK
5
5C
330
5A
100
AcDbEntity
8
0
100
AcDbBlockEnd
0
BLOCK
5
5E
330
5D
100
AcDbEntity
8
0
100
AcDbBlockBegin
2
*D28
70
1
10
0
20
0
3
*D28
1

0
LINE
5
C7
100
AcDbEntity
8
dim
6
CONTINUOUS
62
7
370
0
100
AcDbLine
10
20
20
-197.807621135
11
20
21
-270
0
SOLID
5
C8
100
AcDbEntity
8
dim
6
CONTINUOUS
62
7
370
0
100
AcDbTrace
10
20
20
-197.807621135
30
0
11
20.8325693155
21
-202.807621135
31
0
12
19.1674306845
22
-202.807621135
32
0
13
19.1674306845
23
-202.807621135
33
0
0
SOLID
5
C9
100
AcDbEntity
8
dim
6
CONTINUOUS
62
7
370
0
100
AcDbTrace
10
20
20
-270
30
0
11
19.1674306845
21
-265
31
0
12
20.8325693155
22
-265
32
0
13
20.8325693155
23
-265
33
0
0
MTEXT
5
CA
100
AcDbEntity
8
dim
6
CONTINUOUS
62
7
370
0
100
AcDbMText
10
16.875
20
-233.903810567
30
0
40
5
41
11.6666666667
71
5
72
1
1
72.2
7
standard
210
0
220
0
230
1
50
90
73
2
44
1
0
LINE
5
CB
100
AcDbEntity
8
dim
6
CONTINUOUS
62
7
370
0
100
AcDbLine
10
149.375
20
-197.807621135
11
18.75
21
-197.807621135
0
LINE
5
CC
100
AcDbEntity
8
dim
6
CONTINUOUS
62
7
370
0
100
AcDbLine
10
-0.625
20
-270
11
18.75
21
-270
0
ENDBLK
5
5F
330
5D
100
AcDbEntity
8
0
100
AcDbBlockEnd
0
BLOCK
5
61
330
60
100
AcDbEntity
8
0
100
AcDbBlockBegin
2
*D8
70
1
10
0
20
0
3
*D8
1

0
LINE
5
CD
100
AcDbEntity
8
dim
6
CONTINUOUS
62
7
370
0
100
AcDbLine
10
-230
20
-300
11
230
21
-300
0
SOLID
5
CE
100
AcDbEntity
8
dim
6
CONTINUOUS
62
7
370
0
100
AcDbTrace
10
-230
20
-300
30
0
11
-225
21
-299.167430684
31
0
12
-225
22
-300.832569316
32
0
13
-225
23
-300.832569316
33
0
0
SOLID
5
CF
100
AcDbEntity
8
dim
6
CONTINUOUS
62
7
370
0
100
AcDbTrace
10
230
20
-300
30
0
11
225
21
-300.832569316
31
0
12
225
22
-299.167430684
32
0
13
225
23
-299.167430684
33
0
0
MTEXT
5
D0
100
AcDbEntity
8
dim
6
CONTINUOUS
62
7
370
0
100
AcDbMText
10
1.91344742785e-16
20
-296.875
30
0
40
5
41
10.5555555556
71
5
72
1
1
460
7
standard
210
0
220
0
230
1
50
0
73
2
44
1
0
LINE
5
D1
100
AcDbEntity
8
dim
6
CONTINUOUS
62
7
370
0
100
AcDbLine
10
-230
20
-270.625
11
-230
21
-301.25
0
LINE
5
D2
100
AcDbEntity
8
dim
6
CONTINUOUS
62
7
370
0
100
AcDbLine
10
230
20
-270.625
11
230
21
-301.25
0
ENDBLK
5
62
330
60
100
AcDbEntity
8
0
100
AcDbBlockEnd
0
BLOCK
5
64
330
63
100
AcDbEntity
8
0
100
AcDbBlockBegin
2
*D3
70
1
10
0
20
0
3
*D3
1

0
SOLID
5
D3
100
AcDbEntity
8
dim
6
CONTINUOUS
62
7
370
0
100
AcDbTrace
10
92.1178596429
20
-241.653551956
30
0
11
87.6644428791
21
-239.232756468
31
0
12
88.689180712
22
-237.920278265
32
0
13
88.689180712
23
-237.920278265
33
0
0
LINE
5
D4
100
AcDbEntity
8
dim
6
CONTINUOUS
62
7
370
0
100
AcDbLine
10
99.9999553376
20
-247.807621135
11
80.2947161008
21
-232.422448188
0
MTEXT
5
D5
100
AcDbEntity
8
dim
6
CONTINUOUS
62
7
370
0
100
AcDbMText
10
88.1294344903
20
-234.574845167
30
0
40
5
41
5
71
5
72
1
1
10
7
standard
210
0
220
0
230
1
50
322.01850638
73
2
44
1
0
ENDBLK
5
65
330
63
100
AcDbEntity
8
0
100
AcDbBlockEnd
0
BLOCK
5
67
330
66
100
AcDbEntity
8
0
100
AcDbBlockBegin
2
*D9
70
1
10
0
20
0
3
*D9
1

0
LINE
5
D6
100
AcDbEntity
8
dim
6
CONTINUOUS
62
7
370
0
100
AcDbLine
10
-217
20
-250
11
-230
21
-250
0
SOLID
5
D7
100
AcDbEntity
8
dim
6
CONTINUOUS
62
7
370
0
100
AcDbTrace
10
-217
20
-250
30
0
11
-222
21
-250.832569316
31
0
12
-222
22
-249.167430684
32
0
13
-222
23
-249.167430684
33
0
0
SOLID
5
D8
100
AcDbEntity
8
dim
6
CONTINUOUS
62
7
370
0
100
AcDbTrace
10
-230
20
-250
30
0
11
-225
21
-249.167430684
31
0
12
-225
22
-250.832569316
32
0
13
-225
23
-250.832569316
33
0
0
MTEXT
5
D9
100
AcDbEntity
8
dim
6
CONTINUOUS
62
7
370
0
100
AcDbMText
10
-223.5
20
-246.875
30
0
40
5
41
5
71
5
72
1
1
13
7
standard
210
0
220
0
230
1
50
360
73
2
44
1
0
LINE
5
DA
100
AcDbEntity
8
dim
6
CONTINUOUS
62
7
370
0
100
AcDbLine
10
-217
20
-222.625
11
-217
21
-251.25
0
LINE
5
DB
100
AcDbEntity
8
dim
6
CONTINUOUS
62
7
370
0
100
AcDbLine
10
-230
20
-270.625
11
-230
21
-251.25
0
ENDBLK
5
68
330
66
100
AcDbEntity
8
0
100
AcDbBlockEnd
0
BLOCK
5
6A
330
69
100
AcDbEntity
8
0
100
AcDbBlockBegin
2
*D15
70
1
10
0
20
0
3
*D15
1

0
LINE
5
DC
100
AcDbEntity
8
dim
6
CONTINUOUS
62
7
370
0
100
AcDbLine
10
207.015396468
20
-228.656402355
11
226.984603532
21
-215.343597645
0
SOLID
5
DD
100
AcDbEntity
8
dim
6
CONTINUOUS
62
7
370
0
100
AcDbTrace
10
215.335899411
20
-223.109400392
30
0
11
211.637474302
21
-226.575640918
31
0
12
210.713821577
22
-225.19016183
32
0
13
210.713821577
23
-225.19016183
33
0
0
SOLID
5
DE
100
AcDbEntity
8
dim
6
CONTINUOUS
62
7
370
0
100
AcDbTrace
10
218.664100589
20
-220.890599608
30
0
11
222.362525698
21
-217.424359082
31
0
12
223.286178423
22
-218.80983817
32
0
13
223.286178423
23
-218.80983817
33
0
0
MTEXT
5
DF
100
AcDbEntity
8
dim
6
CONTINUOUS
62
7
370
0
100
AcDbMText
10
220.686445054
20
-215.786587385
30
0
40
5
41
7.77777777778
71
5
72
1
1
%%C4
7
standard
210
0
220
0
230
1
50
33.690067526
73
2
44
1
0
ENDBLK
5
6B
330
69
100
AcDbEntity
8
0
100
AcDbBlockEnd
0
BLOCK
5
6D
330
6C
100
AcDbEntity
8
0
100
AcDbBlockBegin
2
*D5
70
1
10
0
20
0
3
*D5
1

0
SOLID
5
E0
100
AcDbEntity
8
dim
6
CONTINUOUS
62
7
370
0
100
AcDbTrace
10
158.538482256
20
-193.012841665
30
0
11
163.241094073
21
-194.904564097
31
0
12
162.374352695
22
-196.326339763
32
0
13
162.374352695
23
-196.326339763
33
0
0
LINE
5
E1
100
AcDbEntity
8
dim
6
CONTINUOUS
62
7
370
0
100
AcDbLine
10
150
20
-187.807621135
11
171.34620564
21
-200.82067246
0
MTEXT
5
E2
100
AcDbEntity
8
dim
6
CONTINUOUS
62
7
370
0
100
AcDbMText
10
166.568975364
20
-194.248481357
30
0
40
5
41
5
71
5
72
1
1
10
7
standard
210
0
220
0
230
1
50
328.632723704
73
2
44
1
0
ENDBLK
5
6E
330
6C
100
AcDbEntity
8
0
100
AcDbBlockEnd
0
BLOCK
5
70
330
6F
100
AcDbEntity
8
0
100
AcDbBlockBegin
2
*D21
70
1
10
0
20
0
3
*D21
1

0
LINE
5
E3
100
AcDbEntity
8
dim
6
CONTINUOUS
62
7
370
0
100
AcDbLine
10
61.9551504794
20
72.3124997571
11
81.2880278885
21
83.4743301646
0
LINE
5
E4
100
AcDbEntity
8
dim
6
CONTINUOUS
62
7
370
0
100
AcDbLine
10
161.955072745
20
-100.89262588
11
181.287950154
21
-89.7307954726
0
LINE
5
E5
100
AcDbEntity
8
dim
6
CONTINUOUS
62
7
370
0
100
AcDbLine
10
80.2054958533
20
82.8493306504
11
180.205418118
21
-90.3557949868
0
SOLID
5
E6
100
AcDbEntity
8
dim
6
CONTINUOUS
62
7
370
0
100
AcDbTrace
10
80.2054958533
20
82.8493306504
30
0
11
83.4265202744
21
78.9354868437
31
0
12
81.9844675454
22
78.1029181753
32
0
13
81.9844675454
23
78.1029181753
33
0
0
SOLID
5
E7
100
AcDbEntity
8
dim
6
CONTINUOUS
62
7
370
0
100
AcDbTrace
10
180.205418118
20
-90.3557949868
30
0
11
176.984393697
21
-86.44195118
31
0
12
178.426446426
22
-85.6093825117
32
0
13
178.426446426
23
-85.6093825117
33
0
0
MTEXT
5
E8
100
AcDbEntity
8
dim
6
CONTINUOUS
62
7
370
0
100
AcDbMText
10
132.911787074
20
-2.19073338278
30
0
40
5
41
10
71
5
72
1
1
200
7
standard
210
0
220
0
230
1
50
299.999974286
73
2
44
1
0
ENDBLK
5
71
330
6F
100
AcDbEntity
8
0
100
AcDbBlockEnd
0
BLOCK
5
73
330
72
100
AcDbEntity
8
0
100
AcDbBlockBegin
2
*D6
70
1
10
0
20
0
3
*D6
1

0
LINE
5
E9
100
AcDbEntity
8
dim
6
CONTINUOUS
62
7
370
0
100
AcDbLine
10
-22.7314681881
20
190
11
22.7314681881
21
190
0
SOLID
5
EA
100
AcDbEntity
8
dim
6
CONTINUOUS
62
7
370
0
100
AcDbTrace
10
-22.7314681881
20
190
30
0
11
-17.7314681881
21
190.832569316
31
0
12
-17.7314681881
22
189.167430684
32
0
13
-17.7314681881
23
189.167430684
33
0
0
SOLID
5
EB
100
AcDbEntity
8
dim
6
CONTINUOUS
62
7
370
0
100
AcDbTrace
10
22.7314681881
20
190
30
0
11
17.7314681881
21
189.167430684
31
0
12
17.7314681881
22
190.832569316
32
0
13
17.7314681881
23
190.832569316
33
0
0
MTEXT
5
EC
100
AcDbEntity
8
dim
6
CONTINUOUS
62
7
370
0
100
AcDbMText
10
3.57184815308e-14
20
193.125
30
0
40
5
41
12.2222222222
71
5
72
1
1
45.5
7
standard
210
0
220
0
230
1
50
0
73
2
44
1
0
LINE
5
ED
100
AcDbEntity
8
dim
6
CONTINUOUS
62
7
370
0
100
AcDbLine
10
-22.7314681881
20
165.625
11
-22.7314681881
21
191.25
0
LINE
5
EE
100
AcDbEntity
8
dim
6
CONTINUOUS
62
7
370
0
100
AcDbLine
10
22.7314681881
20
165.625
11
22.7314681881
21
191.25
0
ENDBLK
5
74
330
72
100
AcDbEntity
8
0
100
AcDbBlockEnd
0
BLOCK
5
76
330
75
100
AcDbEntity
8
0
100
AcDbBlockBegin
2
*D18
70
1
10
0
20
0
3
*D18
1

0
LINE
5
EF
100
AcDbEntity
8
dim
6
CONTINUOUS
62
7
370
0
100
AcDbLine
10
0.541265877365
20
72.3125
11
19.4633308777
21
83.2371593216
0
LINE
5
F0
100
AcDbEntity
8
dim
6
CONTINUOUS
62
7
370
0
100
AcDbLine
10
150.541265877
20
-187.495121135
11
169.463330878
21
-176.570461813
0
LINE
5
F1
100
AcDbEntity
8
dim
6
CONTINUOUS
62
7
370
0
100
AcDbLine
10
18.380799123
20
82.6121593216
11
168.380799123
21
-177.195461813
0
SOLID
5
F2
100
AcDbEntity
8
dim
6
CONTINUOUS
62
7
370
0
100
AcDbTrace
10
18.380799123
20
82.6121593216
30
0
11
21.6018253007
21
78.6983169605
31
0
12
20.1597729453
22
77.8657476449
32
0
13
20.1597729453
23
77.8657476449
33
0
0
SOLID
5
F3
100
AcDbEntity
8
dim
6
CONTINUOUS
62
7
370
0
100
AcDbTrace
10
168.380799123
20
-177.195461813
30
0
11
165.159772945
21
-173.281619452
31
0
12
166.601825301
22
-172.449050137
32
0
13
166.601825301
23
-172.449050137
33
0
0
MTEXT
5
F4
100
AcDbEntity
8
dim
6
CONTINUOUS
62
7
370
0
100
AcDbMText
10
96.0871285098
20
-45.7291512459
30
0
40
5
41
10
71
5
72
1
1
300
7
standard
210
0
220
0
230
1
50
300
73
2
44
1
0
ENDBLK
5
77
330
75
100
AcDbEntity
8
0
100
AcDbBlockEnd
0
BLOCK
5
79
330
78
100
AcDbEntity
8
0
100
AcDbBlockBegin
2
*D23
70
1
10
0
20
0
3
*D23
1

0
LINE
5
F5
100
AcDbEntity
8
dim
6
CONTINUOUS
62
7
370
0
100
AcDbLine
10
-90
20
72
11
-90
21
165
0
SOLID
5
F6
100
AcDbEntity
8
dim
6
CONTINUOUS
62
7
370
0
100
AcDbTrace
10
-90
20
72
30
0
11
-90.8325693155
21
77
31
0
12
-89.1674306845
22
77
32
0
13
-89.1674306845
23
77
33
0
0
SOLID
5
F7
100
AcDbEntity
8
dim
6
CONTINUOUS
62
7
370
0
100
AcDbTrace
10
-90
20
165
30
0
11
-89.1674306845
21
160
31
0
12
-90.8325693155
22
160
32
0
13
-90.8325693155
23
160
33
0
0
MTEXT
5
F8
100
AcDbEntity
8
dim
6
CONTINUOUS
62
7
370
0
100
AcDbMText
10
-93.125
20
118.5
30
0
40
5
41
6.11111111111
71
5
72
1
1
93
7
standard
210
0
220
0
230
1
50
90
73
2
44
1
0
LINE
5
F9
100
AcDbEntity
8
dim
6
CONTINUOUS
62
7
370
0
100
AcDbLine
10
-62.0388844618
20
72
11
-91.25
21
72
0
LINE
5
FA
100
AcDbEntity
8
dim
6
CONTINUOUS
62
7
370
0
100
AcDbLine
10
-23.3564681881
20
165
11
-91.25
21
165
0
ENDBLK
5
7A
330
78
100
AcDbEntity
8
0
100
AcDbBlockEnd
0
BLOCK
5
7C
330
7B
100
AcDbEntity
8
0
100
AcDbBlockBegin
2
*D11
70
1
10
0
20
0
3
*D11
1

0
LINE
5
FB
100
AcDbEntity
8
dim
6
CONTINUOUS
62
7
370
0
100
AcDbLine
10
-170.919245039
20
-93.8807388031
11
-151.908368415
21
-108.529512471
0
SOLID
5
FC
100
AcDbEntity
8
dim
6
CONTINUOUS
62
7
370
0
100
AcDbTrace
10
-162.998046446
20
-99.9843944982
30
0
11
-167.466817387
21
-97.5920613398
31
0
12
-166.450474098
22
-96.2730719615
32
0
13
-166.450474098
23
-96.2730719615
33
0
0
SOLID
5
FD
100
AcDbEntity
8
dim
6
CONTINUOUS
62
7
370
0
100
AcDbTrace
10
-159.829567008
20
-102.425856776
30
0
11
-155.360796067
21
-104.818189935
31
0
12
-156.377139356
22
-106.137179313
32
0
13
-156.377139356
23
-106.137179313
33
0
0
MTEXT
5
FE
100
AcDbEntity
8
dim
6
CONTINUOUS
62
7
370
0
100
AcDbMText
10
-154.346633572
20
-102.705604578
30
0
40
5
41
7.77777777778
71
5
72
1
1
%%C4
7
standard
210
0
220
0
230
1
50
322.384059284
73
2
44
1
0
ENDBLK
5
7D
330
7B
100
AcDbEntity
8
0
100
AcDbBlockEnd
0
BLOCK
5
7F
330
7E
100
AcDbEntity
8
0
100
AcDbBlockBegin
2
*D12
70
1
10
0
20
0
3
*D12
1

0
LINE
5
FF
100
AcDbEntity
8
dim
6
CONTINUOUS
62
7
370
0
100
AcDbLine
10
-73.2337978377
20
74.071146491
11
-49.5939710859
21
69.928853509
0
SOLID
5
100
100
AcDbEntity
8
dim
6
CONTINUOUS
62
7
370
0
100
AcDbTrace
10
-63.3838700244
20
72.3451910818
30
0
11
-68.4525316824
21
72.3880940207
31
0
12
-68.1651361797
22
74.0282435522
32
0
13
-68.1651361797
23
74.0282435522
33
0
0
SOLID
5
101
100
AcDbEntity
8
dim
6
CONTINUOUS
62
7
370
0
100
AcDbTrace
10
-59.4438988992
20
71.6548089182
30
0
11
-54.3752372412
21
71.6119059793
31
0
12
-54.6626327439
22
69.9717564478
32
0
13
-54.6626327439
23
69.9717564478
33
0
0
MTEXT
5
102
100
AcDbEntity
8
dim
6
CONTINUOUS
62
7
370
0
100
AcDbMText
10
-54.4583898625
20
73.9538342654
30
0
40
5
41
7.77777777778
71
5
72
1
1
%%C4
7
standard
210
0
220
0
230
1
50
350.061236289
73
2
44
1
0
ENDBLK
5
80
330
7E
100
AcDbEntity
8
0
100
AcDbBlockEnd
0
BLOCK
5
82
330
81
100
AcDbEntity
8
0
100
AcDbBlockBegin
2
*D19
70
1
10
0
20
0
3
*D19
1

0
LINE
5
103
100
AcDbEntity
8
dim
6
CONTINUOUS
62
7
370
0
100
AcDbLine
10
-0.541265877365
20
72.3125
11
-19.4633308777
21
83.2371593216
0
LINE
5
104
100
AcDbEntity
8
dim
6
CONTINUOUS
62
7
370
0
100
AcDbLine
10
-150.541265877
20
-187.495121135
11
-169.463330878
21
-176.570461813
0
LINE
5
105
100
AcDbEntity
8
dim
6
CONTINUOUS
62
7
370
0
100
AcDbLine
10
-18.380799123
20
82.6121593216
11
-168.380799123
21
-177.195461813
0
SOLID
5
106
100
AcDbEntity
8
dim
6
CONTINUOUS
62
7
370
0
100
AcDbTrace
10
-18.380799123
20
82.6121593216
30
0
11
-20.1597729453
21
77.8657476449
31
0
12
-21.6018253007
22
78.6983169605
32
0
13
-21.6018253007
23
78.6983169605
33
0
0
SOLID
5
107
100
AcDbEntity
8
dim
6
CONTINUOUS
62
7
370
0
100
AcDbTrace
10
-168.380799123
20
-177.195461813
30
0
11
-166.601825301
21
-172.449050137
31
0
12
-165.159772945
22
-173.281619452
32
0
13
-165.159772945
23
-173.281619452
33
0
0
MTEXT
5
108
100
AcDbEntity
8
dim
6
CONTINUOUS
62
7
370
0
100
AcDbMText
10
-96.0871285098
20
-45.7291512459
30
0
40
5
41
10
71
5
72
1
1
300
7
standard
210
0
220
0
230
1
50
60
73
2
44
1
0
ENDBLK
5
83
330
81
100
AcDbEntity
8
0
100
AcDbBlockEnd
0
BLOCK
5
85
330
84
100
AcDbEntity
8
0
100
AcDbBlockBegin
2
*D4
70
1
10
0
20
0
3
*D4
1

0
SOLID
5
109
100
AcDbEntity
8
dim
6
CONTINUOUS
62
7
370
0
100
AcDbTrace
10
157.882078308
20
-241.653585775
30
0
11
161.310773257
21
-237.920326795
31
0
12
162.335505458
22
-239.232809396
32
0
13
162.335505458
23
-239.232809396
33
0
0
LINE
5
10A
100
AcDbEntity
8
dim
6
CONTINUOUS
62
7
370
0
100
AcDbLine
10
149.999956208
20
-247.807621135
11
169.705261457
21
-232.422532736
0
MTEXT
5
10B
100
AcDbEntity
8
dim
6
CONTINUOUS
62
7
370
0
100
AcDbMText
10
161.870533832
20
-234.5748961
30
0
40
5
41
5
71
5
72
1
1
10
7
standard
210
0
220
0
230
1
50
37.9812477837
73
2
44
1
0
ENDBLK
5
86
330
84
100
AcDbEntity
8
0
100
AcDbBlockEnd
0
BLOCK
5
88
330
87
100
AcDbEntity
8
0
100
AcDbBlockBegin
2
*D16
70
1
10
0
20
0
3
*D16
1

0
SOLID
5
10C
100
AcDbEntity
8
dim
6
CONTINUOUS
62
7
370
0
100
AcDbTrace
10
4.85642931179
20
80.7415727612
30
0
11
6.55684744262
21
85.5166905446
31
0
12
8.01244049274
22
84.708027739
32
0
13
8.01244049274
23
84.708027739
33
0
0
LINE
5
10D
100
AcDbEntity
8
dim
6
CONTINUOUS
62
7
370
0
100
AcDbLine
10
3.50964916851e-14
20
72
11
12.1410732795
21
93.853931903
0
MTEXT
5
10E
100
AcDbEntity
8
dim
6
CONTINUOUS
62
7
370
0
100
AcDbMText
10
5.76700980775
20
88.8153864921
30
0
40
5
41
5
71
5
72
1
1
10
7
standard
210
0
220
0
230
1
50
60.9453959009
73
2
44
1
0
ENDBLK
5
89
330
87
100
AcDbEntity
8
0
100
AcDbBlockEnd
0
BLOCK
5
8B
330
8A
100
AcDbEntity
8
0
100
AcDbBlockBegin
2
*D10
70
1
10
0
20
0
3
*D10
1

0
LINE
5
10F
100
AcDbEntity
8
dim
6
CONTINUOUS
62
7
370
0
100
AcDbLine
10
-227.857824426
20
-216.890435564
11
-206.142175574
21
-227.109564436
0
SOLID
5
110
100
AcDbEntity
8
dim
6
CONTINUOUS
62
7
370
0
100
AcDbTrace
10
-218.809637404
20
-221.148405927
30
0
11
-223.688236463
21
-219.772745033
31
0
12
-222.979225368
22
-218.266096458
32
0
13
-222.979225368
23
-218.266096458
33
0
0
SOLID
5
111
100
AcDbEntity
8
dim
6
CONTINUOUS
62
7
370
0
100
AcDbTrace
10
-215.190362596
20
-222.851594073
30
0
11
-210.311763537
21
-224.227254967
31
0
12
-211.020774632
22
-225.733903542
32
0
13
-211.020774632
23
-225.733903542
33
0
0
MTEXT
5
112
100
AcDbEntity
8
dim
6
CONTINUOUS
62
7
370
0
100
AcDbMText
10
-209.775495771
20
-221.946036139
30
0
40
5
41
7.77777777778
71
5
72
1
1
%%C4
7
standard
210
0
220
0
230
1
50
334.798876355
73
2
44
1
0
ENDBLK
5
8C
330
8A
100
AcDbEntity
8
0
100
AcDbBlockEnd
0
BLOCK
5
8E
330
8D
100
AcDbEntity
8
0
100
AcDbBlockBegin
2
*D24
70
1
10
0
20
0
3
*D24
1

0
LINE
5
113
100
AcDbEntity
8
dim
6
CONTINUOUS
62
7
370
0
100
AcDbLine
10
-190
20
-222
11
-190
21
-270
0
SOLID
5
114
100
AcDbEntity
8
dim
6
CONTINUOUS
62
7
370
0
100
AcDbTrace
10
-190
20
-222
30
0
11
-189.167430684
21
-227
31
0
12
-190.832569316
22
-227
32
0
13
-190.832569316
23
-227
33
0
0
SOLID
5
115
100
AcDbEntity
8
dim
6
CONTINUOUS
62
7
370
0
100
AcDbTrace
10
-190
20
-270
30
0
11
-190.832569316
21
-265
31
0
12
-189.167430684
22
-265
32
0
13
-189.167430684
23
-265
33
0
0
MTEXT
5
116
100
AcDbEntity
8
dim
6
CONTINUOUS
62
7
370
0
100
AcDbMText
10
-193.125
20
-246
30
0
40
5
41
6.66666666667
71
5
72
1
1
48
7
standard
210
0
220
0
230
1
50
90
73
2
44
1
0
LINE
5
117
100
AcDbEntity
8
dim
6
CONTINUOUS
62
7
370
0
100
AcDbLine
10
-216.375
20
-222
11
-188.75
21
-222
0
LINE
5
118
100
AcDbEntity
8
dim
6
CONTINUOUS
62
7
370
0
100
AcDbLine
10
-229.375
20
-270
11
-188.75
21
-270
0
ENDBLK
5
8F
330
8D
100
AcDbEntity
8
0
100
AcDbBlockEnd
0
BLOCK
5
91
330
90
100
AcDbEntity
8
0
100
AcDbBlockBegin
2
*D13
70
1
10
0
20
0
3
*D13
1

0
LINE
5
119
100
AcDbEntity
8
dim
6
CONTINUOUS
62
7
370
0
100
AcDbLine
10
68.341012729
20
81.7987189963
11
54.4867561946
21
62.2012810037
0
SOLID
5
11A
100
AcDbEntity
8
dim
6
CONTINUOUS
62
7
370
0
100
AcDbTrace
10
62.5684058397
20
73.6331198327
30
0
11
64.7748665537
21
78.1965289512
31
0
12
66.134552015
22
77.2353098779
32
0
13
66.134552015
23
77.2353098779
33
0
0
SOLID
5
11B
100
AcDbEntity
8
dim
6
CONTINUOUS
62
7
370
0
100
AcDbTrace
10
60.2593630839
20
70.3668801673
30
0
11
58.0529023699
21
65.8034710488
31
0
12
56.6932169086
22
66.7646901221
32
0
13
56.6932169086
23
66.7646901221
33
0
0
MTEXT
5
11C
100
AcDbEntity
8
dim
6
CONTINUOUS
62
7
370
0
100
AcDbMText
10
62.6223467108
20
79.1229202192
30
0
40
5
41
7.77777777778
71
5
72
1
1
%%C4
7
standard
210
0
220
0
230
1
50
54.7418961628
73
2
44
1
0
ENDBLK
5
92
330
90
100
AcDbEntity
8
0
100
AcDbBlockEnd
0
BLOCK
5
94
330
93
100
AcDbEntity
8
0
100
AcDbBlockBegin
2
*D7
70
1
10
0
20
0
3
*D7
1

0
LINE
5
11D
100
AcDbEntity
8
dim
6
CONTINUOUS
62
7
370
0
100
AcDbLine
10
99.9999569146
20
-220
11
150
21
-220
0
SOLID
5
11E
100
AcDbEntity
8
dim
6
CONTINUOUS
62
7
370
0
100
AcDbTrace
10
99.9999569146
20
-220
30
0
11
104.999956915
21
-219.167430684
31
0
12
104.999956915
22
-220.832569316
32
0
13
104.999956915
23
-220.832569316
33
0
0
SOLID
5
11F
100
AcDbEntity
8
dim
6
CONTINUOUS
62
7
370
0
100
AcDbTrace
10
150
20
-220
30
0
11
145
21
-220.832569316
31
0
12
145
22
-219.167430684
32
0
13
145
23
-219.167430684
33
0
0
MTEXT
5
120
100
AcDbEntity
8
dim
6
CONTINUOUS
62
7
370
0
100
AcDbMText
10
124.999978457
20
-216.875
30
0
40
5
41
6.11111111111
71
5
72
1
1
50
7
standard
210
0
220
0
230
1
50
0
73
2
44
1
0
LINE
5
121
100
AcDbEntity
8
dim
6
CONTINUOUS
62
7
370
0
100
AcDbLine
10
99.9999569146
20
-237.182621135
11
99.9999569146
21
-218.75
0
LINE
5
122
100
AcDbEntity
8
dim
6
CONTINUOUS
62
7
370
0
100
AcDbLine
10
150
20
-237.182621135
11
150
21
-218.75
0
ENDBLK
5
95
330
93
100
AcDbEntity
8
0
100
AcDbBlockEnd
0
BLOCK
5
97
330
96
100
AcDbEntity
8
0
100
AcDbBlockBegin
2
*D17
70
1
10
0
20
0
3
*D17
1

0
SOLID
5
123
100
AcDbEntity
8
dim
6
CONTINUOUS
62
7
370
0
100
AcDbTrace
10
-158.538482256
20
-193.012841665
30
0
11
-162.374352695
21
-196.326339763
31
0
12
-163.241094073
22
-194.904564097
32
0
13
-163.241094073
23
-194.904564097
33
0
0
LINE
5
124
100
AcDbEntity
8
dim
6
CONTINUOUS
62
7
370
0
100
AcDbLine
10
-150
20
-187.807621135
11
-171.34620564
21
-200.82067246
0
MTEXT
5
125
100
AcDbEntity
8
dim
6
CONTINUOUS
62
7
370
0
100
AcDbMText
10
-166.568975364
20
-194.248481357
30
0
40
5
41
5
71
5
72
1
1
10
7
standard
210
0
220
0
230
1
50
31.3672762963
73
2
44
1
0
ENDBLK
5
98
330
96
100
AcDbEntity
8
0
100
AcDbBlockEnd
0
BLOCK
5
9A
330
99
100
AcDbEntity
8
0
100
AcDbBlockBegin
2
*D2
70
1
10
0
20
0
3
*D2
1

0
LINE
5
126
100
AcDbEntity
8
dim
6
CONTINUOUS
62
7
370
0
100
AcDbLine
10
-240
20
-270
11
-240
21
-194
0
SOLID
5
127
100
AcDbEntity
8
dim
6
CONTINUOUS
62
7
370
0
100
AcDbTrace
10
-240
20
-270
30
0
11
-240.832569316
21
-265
31
0
12
-239.167430684
22
-265
32
0
13
-239.167430684
23
-265
33
0
0
SOLID
5
128
100
AcDbEntity
8
dim
6
CONTINUOUS
62
7
370
0
100
AcDbTrace
10
-240
20
-194
30
0
11
-239.167430684
21
-199
31
0
12
-240.832569316
22
-199
32
0
13
-240.832569316
23
-199
33
0
0
MTEXT
5
129
100
AcDbEntity
8
dim
6
CONTINUOUS
62
7
370
0
100
AcDbMText
10
-243.125
20
-232
30
0
40
5
41
6.11111111111
71
5
72
1
1
76
7
standard
210
0
220
0
230
1
50
90
73
2
44
1
0
LINE
5
12A
100
AcDbEntity
8
dim
6
CONTINUOUS
62
7
370
0
100
AcDbLine
10
-230.625
20
-270
11
-241.25
21
-270
0
LINE
5
12B
100
AcDbEntity
8
dim
6
CONTINUOUS
62
7
370
0
100
AcDbLine
10
-230.625
20
-194
11
-241.25
21
-194
0
ENDBLK
5
9B
330
99
100
AcDbEntity
8
0
100
AcDbBlockEnd
0
BLOCK
5
9D
330
9C
100
AcDbEntity
8
0
100
AcDbBlockBegin
2
PAD002054008_PROJ
70
0
10
0
20
0
3
PAD002054008_PROJ
1

0
LINE
5
12C
100
AcDbEntity
8
0
6
ByLayer
62
0
370
-1
100
AcDbLine
10
-186
20
230
11
173
21
22.7314681881
0
LINE
5
12D
100
AcDbEntity
8
0
6
ByLayer
62
0
370
-1
100
AcDbLine
10
173
20
22.7314681881
11
173
21
-22.7314681881
0
LINE
5
12E
100
AcDbEntity
8
0
6
ByLayer
62
0
370
-1
100
AcDbLine
10
173
20
-22.7314681881
11
-186
21
-230
0
LINE
5
12F
100
AcDbEntity
8
0
6
ByLayer
62
0
370
-1
100
AcDbLine
10
-186
20
-230
11
-262
21
-230
0
LINE
5
130
100
AcDbEntity
8
0
6
ByLayer
62
0
370
-1
100
AcDbLine
10
-262
20
-230
11
-262
21
230
0
LINE
5
131
100
AcDbEntity
8
0
6
ByLayer
62
0
370
-1
100
AcDbLine
10
-262
20
230
11
-186
21
230
0
LINE
5
132
100
AcDbEntity
8
0
6
ByLayer
62
0
370
-1
100
AcDbLine
10
-174.807621135
20
158.660254038
11
85
21
8.66025403784
0
ARC
5
133
100
AcDbEntity
8
0
6
ByLayer
62
0
370
-1
100
AcDbCircle
10
80
20
-8.881784197e-15
40
10
100
AcDbArc
50
-60
51
60
0
LINE
5
134
100
AcDbEntity
8
0
6
ByLayer
62
0
370
-1
100
AcDbLine
10
85
20
-8.66025403784
11
-174.807621135
21
-158.660254038
0
ARC
5
135
100
AcDbEntity
8
0
6
ByLayer
62
0
370
-1
100
AcDbCircle
10
-179.807621135
20
-150
40
10
100
AcDbArc
50
-180
51
-60
0
LINE
5
136
100
AcDbEntity
8
0
6
ByLayer
62
0
370
-1
100
AcDbLine
10
-189.807621135
20
-150
11
-189.807621135
21
150
0
ARC
5
137
100
AcDbEntity
8
0
6
ByLayer
62
0
370
-1
100
AcDbCircle
10
-179.807621135
20
150
40
10
100
AcDbArc
50
60
51
-180
0
ARC
5
138
100
AcDbEntity
8
0
6
ByLayer
62
0
370
-1
100
AcDbCircle
10
-239.807621135
20
-99.9999553376
40
10
100
AcDbArc
50
-9.03549097569e-06
51
179.999992364
0
LINE
5
139
100
AcDbEntity
8
0
6
ByLayer
62
0
370
-1
100
AcDbLine
10
-249.807621135
20
-99.9999540053
11
-249.807621135
21
-149.999954005
0
ARC
5
13A
100
AcDbEntity
8
0
6
ByLayer
62
0
370
-1
100
AcDbCircle
10
-239.807621135
20
-149.999956208
40
10
100
AcDbArc
50
179.999987365
51
-0.000250906339103
0
LINE
5
13B
100
AcDbEntity
8
0
6
ByLayer
62
0
370
-1
100
AcDbLine
10
-229.807621135
20
-99.9999569181
11
-229.807621135
21
-150
0
CIRCLE
5
13C
100
AcDbEntity
8
0
6
ByLayer
62
0
370
-1
100
AcDbCircle
10
80
20
-61.4138844618
40
2
0
CIRCLE
5
13D
100
AcDbEntity
8
0
6
ByLayer
62
0
370
-1
100
AcDbCircle
10
80
20
61.4138844618
40
2
0
CIRCLE
5
13E
100
AcDbEntity
8
0
6
ByLayer
62
0
370
-1
100
AcDbCircle
10
-93.2051256372
20
-161.413806727
40
2
0
CIRCLE
5
13F
100
AcDbEntity
8
0
6
ByLayer
62
0
370
-1
100
AcDbCircle
10
-93.2051256372
20
161.413806727
40
2
0
CIRCLE
5
140
100
AcDbEntity
8
0
6
ByLayer
62
0
370
-1
100
AcDbCircle
10
-214
20
-217
40
2
0
CIRCLE
5
141
100
AcDbEntity
8
0
6
ByLayer
62
0
370
-1
100
AcDbCircle
10
-214
20
217
40
2
0
ENDBLK
5
9E
330
9C
100
AcDbEntity
8
0
100
AcDbBlockEnd
0
ENDSEC
0
SECTION
2
ENTITIES
0
INSERT
5
142
100
AcDbEntity
8
0
6
ByLayer
62
256
370
-1
100
AcDbBlockReference
2
PAD002054008_PROJ
10
2.13162820728e-14
20
-8
30
0
41
1
42
1
43
0
50
90
70
1
71
1
44
0
45
0
0
LINE
5
143
100
AcDbEntity
8
base
6
ByLayer
62
256
370
-1
100
AcDbLine
10
2.13162820728e-14
20
172
11
2.13162820728e-14
21
-278
0
DIMENSION
5
144
100
AcDbEntity
8
dim
6
ByLayer
62
256
370
-1
100
AcDbDimension
2
*D1
10
-260
20
165
30
0
11
-263.125
21
-52.5
31
0
70
32
71
5
3
Standard
53
0
210
0
220
0
230
1
100
AcDbAlignedDimension
13
-230
23
-270
33
0
14
-22.7314681881
24
165
34
0
50
90
100
AcDbRotatedDimension
0
DIMENSION
5
145
100
AcDbEntity
8
dim
6
ByLayer
62
256
370
-1
100
AcDbDimension
2
*D2
10
-240
20
-194
30
0
11
-243.125
21
-232
31
0
70
32
71
5
3
Standard
53
0
210
0
220
0
230
1
100
AcDbAlignedDimension
13
-230
23
-270
33
0
14
-230
24
-194
34
0
50
90
100
AcDbRotatedDimension
0
DIMENSION
5
146
100
AcDbEntity
8
dim
6
ByLayer
62
256
370
-1
100
AcDbDimension
2
*D3
10
99.9999553376
20
-247.807621135
30
0
11
88.1294344903
21
-234.574845167
31
0
70
36
71
5
3
Standard
53
0
210
0
220
0
230
1
100
AcDbRadialDimension
15
92.1178596429
25
-241.653551956
35
0
40
0
0
DIMENSION
5
147
100
AcDbEntity
8
dim
6
ByLayer
62
256
370
-1
100
AcDbDimension
2
*D4
10
149.999956208
20
-247.807621135
30
0
11
161.870533832
21
-234.5748961
31
0
70
36
71
5
3
Standard
53
0
210
0
220
0
230
1
100
AcDbRadialDimension
15
157.882078308
25
-241.653585775
35
0
40
0
0
DIMENSION
5
148
100
AcDbEntity
8
dim
6
ByLayer
62
256
370
-1
100
AcDbDimension
2
*D5
10
150
20
-187.807621135
30
0
11
166.568975364
21
-194.248481357
31
0
70
36
71
5
3
Standard
53
0
210
0
220
0
230
1
100
AcDbRadialDimension
15
158.538482256
25
-193.012841665
35
0
40
0
0
DIMENSION
5
149
100
AcDbEntity
8
dim
6
ByLayer
62
256
370
-1
100
AcDbDimension
2
*D6
10
22.7314681881
20
190
30
0
11
3.57184815308e-14
21
193.125
31
0
70
32
71
5
3
Standard
53
0
210
0
220
0
230
1
100
AcDbAlignedDimension
13
-22.7314681881
23
165
33
0
14
22.7314681881
24
165
34
0
100
AcDbRotatedDimension
0
DIMENSION
5
14A
100
AcDbEntity
8
dim
6
ByLayer
62
256
370
-1
100
AcDbDimension
2
*D7
10
150
20
-220
30
0
11
124.999978457
21
-216.875
31
0
70
32
71
5
3
Standard
53
0
210
0
220
0
230
1
100
AcDbAlignedDimension
13
99.9999569146
23
-237.807621135
33
0
14
150
24
-237.807621135
34
0
100
AcDbRotatedDimension
0
DIMENSION
5
14B
100
AcDbEntity
8
dim
6
ByLayer
62
256
370
-1
100
AcDbDimension
2
*D8
10
230
20
-300
30
0
11
1.91344742785e-16
21
-296.875
31
0
70
32
71
5
3
Standard
53
0
210
0
220
0
230
1
100
AcDbAlignedDimension
13
-230
23
-270
33
0
14
230
24
-270
34
0
100
AcDbRotatedDimension
0
DIMENSION
5
14C
100
AcDbEntity
8
dim
6
ByLayer
62
256
370
-1
100
AcDbDimension
2
*D9
10
-230
20
-250
30
0
11
-223.5
21
-246.875
31
0
70
32
71
5
3
Standard
53
0
210
0
220
0
230
1
100
AcDbAlignedDimension
13
-217
23
-222
33
0
14
-230
24
-270
34
0
100
AcDbRotatedDimension
0
DIMENSION
5
14D
100
AcDbEntity
8
dim
6
ByLayer
62
256
370
-1
100
AcDbDimension
2
*D10
10
-218.809637404
20
-221.148405927
30
0
11
-215.669384261
21
-219.172441556
31
0
70
35
1
%%C4
71
5
3
Standard
53
0
210
0
220
0
230
1
100
AcDbDiametricDimension
15
-215.190362596
25
-222.851594073
35
0
40
0
0
DIMENSION
5
14E
100
AcDbEntity
8
dim
6
ByLayer
62
256
370
-1
100
AcDbDimension
2
*D11
10
-162.998046446
20
-99.9843944982
30
0
11
-159.506414322
21
-98.7297510768
31
0
70
35
1
%%C4
71
5
3
Standard
53
0
210
0
220
0
230
1
100
AcDbDiametricDimension
15
-159.829567008
25
-102.425856776
35
0
40
0
0
DIMENSION
5
14F
100
AcDbEntity
8
dim
6
ByLayer
62
256
370
-1
100
AcDbDimension
2
*D12
10
-63.3838700244
20
72.3451910818
30
0
11
-60.8745233964
21
75.0781024416
31
0
70
35
1
%%C4
71
5
3
Standard
53
0
210
0
220
0
230
1
100
AcDbDiametricDimension
15
-59.4438988992
25
71.6548089182
35
0
40
0
0
DIMENSION
5
150
100
AcDbEntity
8
dim
6
ByLayer
62
256
370
-1
100
AcDbDimension
2
*D13
10
62.5684058397
20
73.6331198327
30
0
11
58.8621347232
21
73.8039396529
31
0
70
35
1
%%C4
71
5
3
Standard
53
0
210
0
220
0
230
1
100
AcDbDiametricDimension
15
60.2593630839
25
70.3668801673
35
0
40
0
0
DIMENSION
5
151
100
AcDbEntity
8
dim
6
ByLayer
62
256
370
-1
100
AcDbDimension
2
*D14
10
159.413806727
20
-101.205125637
30
0
11
161.413806727
21
-98.0801256372
31
0
70
35
1
%%C4
71
5
3
Standard
53
0
210
0
220
0
230
1
100
AcDbDiametricDimension
15
163.413806727
25
-101.205125637
35
0
40
0
0
DIMENSION
5
152
100
AcDbEntity
8
dim
6
ByLayer
62
256
370
-1
100
AcDbDimension
2
*D15
10
215.335899411
20
-223.109400392
30
0
11
215.266561887
21
-219.39984283
31
0
70
35
1
%%C4
71
5
3
Standard
53
0
210
0
220
0
230
1
100
AcDbDiametricDimension
15
218.664100589
25
-220.890599608
35
0
40
0
0
DIMENSION
5
153
100
AcDbEntity
8
dim
6
ByLayer
62
256
370
-1
100
AcDbDimension
2
*D16
10
3.50964916851e-14
20
72
30
0
11
5.76700980775
21
88.8153864921
31
0
70
36
71
5
3
Standard
53
0
210
0
220
0
230
1
100
AcDbRadialDimension
15
4.85642931179
25
80.7415727612
35
0
40
0
0
DIMENSION
5
154
100
AcDbEntity
8
dim
6
ByLayer
62
256
370
-1
100
AcDbDimension
2
*D17
10
-150
20
-187.807621135
30
0
11
-166.568975364
21
-194.248481357
31
0
70
36
71
5
3
Standard
53
0
210
0
220
0
230
1
100
AcDbRadialDimension
15
-158.538482256
25
-193.012841665
35
0
40
0
0
DIMENSION
5
155
100
AcDbEntity
8
dim
6
ByLayer
62
256
370
-1
100
AcDbDimension
2
*D18
10
168.380799123
20
-177.195461813
30
0
11
96.0871285098
21
-45.7291512459
31
0
70
33
71
5
3
Standard
53
0
210
0
220
0
230
1
100
AcDbAlignedDimension
13
3.50964916851e-14
23
72
33
0
14
150
24
-187.807621135
34
0
0
DIMENSION
5
156
100
AcDbEntity
8
dim
6
ByLayer
62
256
370
-1
100
AcDbDimension
2
*D19
10
-168.380799123
20
-177.195461813
30
0
11
-96.0871285098
21
-45.7291512459
31
0
70
33
71
5
3
Standard
53
0
210
0
220
0
230
1
100
AcDbAlignedDimension
13
3.50964916851e-14
23
72
33
0
14
-150
24
-187.807621135
34
0
0
DIMENSION
5
157
100
AcDbEntity
8
dim
6
ByLayer
62
256
370
-1
100
AcDbDimension
2
*D20
10
150
20
-210
30
0
11
2.86130541732e-14
21
-206.875
31
0
70
33
71
5
3
Standard
53
0
210
0
220
0
230
1
100
AcDbAlignedDimension
13
-150
23
-187.807621135
33
0
14
150
24
-187.807621135
34
0
0
DIMENSION
5
158
100
AcDbEntity
8
dim
6
ByLayer
62
256
370
-1
100
AcDbDimension
2
*D21
10
180.205418118
20
-90.3557949868
30
0
11
132.911787074
21
-2.19073338278
31
0
70
33
71
5
3
Standard
53
0
210
0
220
0
230
1
100
AcDbAlignedDimension
13
61.4138844618
23
72
33
0
14
161.413806727
24
-101.205125637
34
0
0
DIMENSION
5
159
100
AcDbEntity
8
dim
6
ByLayer
62
256
370
-1
100
AcDbDimension
2
*D22
10
64.5245224675
20
92.6122315571
30
0
11
57.3328570989
21
92.0685641715
31
0
70
33
71
5
3
Standard
53
0
210
0
220
0
230
1
100
AcDbAlignedDimension
13
61.4138844618
23
72
33
0
14
72.6722176282
24
78.4999949472
34
0
0
DIMENSION
5
15A
100
AcDbEntity
8
dim
6
ByLayer
62
256
370
-1
100
AcDbDimension
2
*D23
10
-90
20
165
30
0
11
-93.125
21
118.5
31
0
70
32
71
5
3
Standard
53
0
210
0
220
0
230
1
100
AcDbAlignedDimension
13
-61.4138844618
23
72
33
0
14
-22.7314681881
24
165
34
0
50
90
100
AcDbRotatedDimension
0
DIMENSION
5
15B
100
AcDbEntity
8
dim
6
ByLayer
62
256
370
-1
100
AcDbDimension
2
*D24
10
-190
20
-270
30
0
11
-193.125
21
-246
31
0
70
32
71
5
3
Standard
53
0
210
0
220
0
230
1
100
AcDbAlignedDimension
13
-217
23
-222
33
0
14
-230
24
-270
34
0
50
90
100
AcDbRotatedDimension
0
DIMENSION
5
15C
100
AcDbEntity
8
dim
6
ByLayer
62
256
370
-1
100
AcDbDimension
2
*D25
10
-40
20
165
30
0
11
-43.125
21
118.5
31
0
70
32
71
5
3
Standard
53
0
210
0
220
0
230
1
100
AcDbAlignedDimension
13
3.50964916851e-14
23
72
33
0
14
-22.7314681881
24
165
34
0
50
90
100
AcDbRotatedDimension
0
DIMENSION
5
15D
100
AcDbEntity
8
dim
6
ByLayer
62
256
370
-1
100
AcDbDimension
2
*D26
10
200
20
-270
30
0
11
196.875
21
-258.903810567
31
0
70
32
71
5
3
Standard
53
0
210
0
220
0
230
1
100
AcDbAlignedDimension
13
149.999956208
23
-247.807621135
33
0
14
230
24
-270
34
0
50
90
100
AcDbRotatedDimension
0
DIMENSION
5
15E
100
AcDbEntity
8
dim
6
ByLayer
62
256
370
-1
100
AcDbDimension
2
*D27
10
230
20
-290
30
0
11
189.999978104
21
-286.875
31
0
70
32
71
5
3
Standard
53
0
210
0
220
0
230
1
100
AcDbAlignedDimension
13
149.999956208
23
-247.807621135
33
0
14
230
24
-270
34
0
100
AcDbRotatedDimension
0
DIMENSION
5
15F
100
AcDbEntity
8
dim
6
ByLayer
62
256
370
-1
100
AcDbDimension
2
*D28
10
20
20
-270
30
0
11
16.875
21
-233.903810567
31
0
70
32
71
5
3
Standard
53
0
210
0
220
0
230
1
100
AcDbAlignedDimension
13
150
23
-197.807621135
33
0
14
0
24
-270
34
0
50
90
100
AcDbRotatedDimension
0
ENDSEC
0
SECTION
2
OBJECTS
0
DICTIONARY
5
C
330
0
100
AcDbDictionary
281
1
3
ACAD_GROUP
350
D
0
DICTIONARY
5
D
330
C
100
AcDbDictionary
281
1
0
ENDSEC
0
EOF
