solid OpenSCAD_Model
  facet normal 0 0 -1
    outer loop
      vertex 3 0 0
      vertex 3 0.564022 0
      vertex 20 0 0
    endloop
  endfacet
  facet normal 0 0 -1
    outer loop
      vertex 20 0 0
      vertex 3 0.564022 0
      vertex 4.21568 1.04839 0
    endloop
  endfacet
  facet normal 0 0 -1
    outer loop
      vertex 20 0 0
      vertex 4.21568 1.04839 0
      vertex 5.82648 2.14054 0
    endloop
  endfacet
  facet normal 0 0 -1
    outer loop
      vertex 5.82648 2.14054 0
      vertex 7.16484 3.55343 0
      vertex 20 0 0
    endloop
  endfacet
  facet normal 0 0 -1
    outer loop
      vertex 7.16484 3.55343 0
      vertex 8.16818 5.221 0
      vertex 20 0 0
    endloop
  endfacet
  facet normal 0 0 -1
    outer loop
      vertex 8.16818 5.221 0
      vertex 8.78958 7.06527 0
      vertex 20 0 0
    endloop
  endfacet
  facet normal 0 0 -1
    outer loop
      vertex 8.78958 7.06527 0
      vertex 9 9 0
      vertex 20 0 0
    endloop
  endfacet
  facet normal 0 0 -1
    outer loop
      vertex 9 9 0
      vertex 8.78958 10.9347 0
      vertex 20 0 0
    endloop
  endfacet
  facet normal 0 0 -1
    outer loop
      vertex 8.78958 10.9347 0
      vertex 8.16818 12.779 0
      vertex 20 0 0
    endloop
  endfacet
  facet normal 0 0 -1
    outer loop
      vertex 8.16818 12.779 0
      vertex 7.16484 14.4466 0
      vertex 20 0 0
    endloop
  endfacet
  facet normal 0 0 -1
    outer loop
      vertex 7.16484 14.4466 0
      vertex 20 18 0
      vertex 20 0 0
    endloop
  endfacet
  facet normal 0 0 -1
    outer loop
      vertex 4.21568 16.9516 0
      vertex 3 17.436 0
      vertex 3 18 0
    endloop
  endfacet
  facet normal 0 0 -1
    outer loop
      vertex 4.21568 16.9516 0
      vertex 3 18 0
      vertex 5.82648 15.8595 0
    endloop
  endfacet
  facet normal 0 0 -1
    outer loop
      vertex 5.82648 15.8595 0
      vertex 3 18 0
      vertex 20 18 0
    endloop
  endfacet
  facet normal 0 0 -1
    outer loop
      vertex 5.82648 15.8595 0
      vertex 20 18 0
      vertex 7.16484 14.4466 0
    endloop
  endfacet
  facet normal -1 0 0
    outer loop
      vertex 3 0.564022 18
      vertex 3 0.564022 0
      vertex 3 0 18
    endloop
  endfacet
  facet normal -1 0 0
    outer loop
      vertex 3 0 18
      vertex 3 0.564022 0
      vertex 3 0 0
    endloop
  endfacet
  facet normal 0 -1 0
    outer loop
      vertex 3 0 18
      vertex 3 0 0
      vertex 20 0 0
    endloop
  endfacet
  facet normal 0 -1 0
    outer loop
      vertex 20 0 18
      vertex 3 0 18
      vertex 20 0 0
    endloop
  endfacet
  facet normal 1 0 0
    outer loop
      vertex 20 0 18
      vertex 20 0 0
      vertex 20 18 0
    endloop
  endfacet
  facet normal 1 0 0
    outer loop
      vertex 20 12.0979 8.38197
      vertex 20 0 18
      vertex 20 18 0
    endloop
  endfacet
  facet normal 1 0 0
    outer loop
      vertex 20 12.8244 7.38197
      vertex 20 12.0979 8.38197
      vertex 20 18 0
    endloop
  endfacet
  facet normal 1 0 0
    outer loop
      vertex 20 12.0979 9.61803
      vertex 20 0 18
      vertex 20 12.0979 8.38197
    endloop
  endfacet
  facet normal 1 0 0
    outer loop
      vertex 20 18 18
      vertex 20 0 18
      vertex 20 12.0979 9.61803
    endloop
  endfacet
  facet normal 1 0 0
    outer loop
      vertex 20 18 18
      vertex 20 12.0979 9.61803
      vertex 20 12.8244 10.618
    endloop
  endfacet
  facet normal 1 0 0
    outer loop
      vertex 20 18 18
      vertex 20 14 11
      vertex 20 15.1756 10.618
    endloop
  endfacet
  facet normal 1 0 0
    outer loop
      vertex 20 18 18
      vertex 20 15.9021 9.61803
      vertex 20 18 0
    endloop
  endfacet
  facet normal 1 0 0
    outer loop
      vertex 20 18 18
      vertex 20 15.1756 10.618
      vertex 20 15.9021 9.61803
    endloop
  endfacet
  facet normal 1 0 0
    outer loop
      vertex 20 15.9021 9.61803
      vertex 20 15.9021 8.38197
      vertex 20 18 0
    endloop
  endfacet
  facet normal 1 0 0
    outer loop
      vertex 20 15.1756 7.38197
      vertex 20 14 7
      vertex 20 18 0
    endloop
  endfacet
  facet normal 1 0 0
    outer loop
      vertex 20 14 7
      vertex 20 12.8244 7.38197
      vertex 20 18 0
    endloop
  endfacet
  facet normal 1 0 0
    outer loop
      vertex 20 12.8244 10.618
      vertex 20 14 11
      vertex 20 18 18
    endloop
  endfacet
  facet normal 1 0 0
    outer loop
      vertex 20 15.9021 8.38197
      vertex 20 15.1756 7.38197
      vertex 20 18 0
    endloop
  endfacet
  facet normal 0 1 0
    outer loop
      vertex 3 18 0
      vertex 3 18 18
      vertex 20 18 0
    endloop
  endfacet
  facet normal 0 1 0
    outer loop
      vertex 20 18 0
      vertex 3 18 18
      vertex 20 18 18
    endloop
  endfacet
  facet normal -1 0 0
    outer loop
      vertex 3 18 18
      vertex 3 18 0
      vertex 3 17.436 18
    endloop
  endfacet
  facet normal -1 0 0
    outer loop
      vertex 3 17.436 18
      vertex 3 18 0
      vertex 3 17.436 0
    endloop
  endfacet
  facet normal -0.370138 -0.928977 0
    outer loop
      vertex 4.21568 16.9516 0
      vertex 4.21568 16.9516 18
      vertex 3 17.436 18
    endloop
  endfacet
  facet normal -0.370138 -0.928977 0
    outer loop
      vertex 3 17.436 0
      vertex 4.21568 16.9516 0
      vertex 3 17.436 18
    endloop
  endfacet
  facet normal -0.561187 -0.827689 0
    outer loop
      vertex 5.76357 15.9021 9.61803
      vertex 4.21568 16.9516 18
      vertex 5.76357 15.9021 8.38197
    endloop
  endfacet
  facet normal -0.561187 -0.827689 0
    outer loop
      vertex 5.82648 15.8595 0
      vertex 5.82648 15.8595 8.32326
      vertex 5.76357 15.9021 8.38197
    endloop
  endfacet
  facet normal -0.561187 -0.827689 0
    outer loop
      vertex 4.21568 16.9516 18
      vertex 5.82648 15.8595 0
      vertex 5.76357 15.9021 8.38197
    endloop
  endfacet
  facet normal -0.561187 -0.827689 0
    outer loop
      vertex 5.82648 15.8595 9.67674
      vertex 5.82648 15.8595 18
      vertex 5.76357 15.9021 9.61803
    endloop
  endfacet
  facet normal -0.561187 -0.827689 0
    outer loop
      vertex 5.82648 15.8595 18
      vertex 4.21568 16.9516 18
      vertex 5.76357 15.9021 9.61803
    endloop
  endfacet
  facet normal -0.561187 -0.827689 0
    outer loop
      vertex 4.21568 16.9516 18
      vertex 4.21568 16.9516 0
      vertex 5.82648 15.8595 0
    endloop
  endfacet
  facet normal -0.725995 -0.6877 0
    outer loop
      vertex 7.16484 14.4466 7.1451
      vertex 6.47429 15.1756 7.38197
      vertex 7.16484 14.4466 0
    endloop
  endfacet
  facet normal -0.725995 -0.6877 0
    outer loop
      vertex 7.16484 14.4466 0
      vertex 6.47429 15.1756 7.38197
      vertex 5.82648 15.8595 8.32326
    endloop
  endfacet
  facet normal -0.725995 -0.6877 0
    outer loop
      vertex 7.16484 14.4466 0
      vertex 5.82648 15.8595 8.32326
      vertex 5.82648 15.8595 0
    endloop
  endfacet
  facet normal -0.856857 -0.515554 0
    outer loop
      vertex 8.16818 12.779 7.44449
      vertex 8.14085 12.8244 7.38197
      vertex 8.16818 12.779 0
    endloop
  endfacet
  facet normal -0.856857 -0.515554 0
    outer loop
      vertex 8.16818 12.779 0
      vertex 8.14085 12.8244 7.38197
      vertex 7.43353 14 7
    endloop
  endfacet
  facet normal -0.856857 -0.515554 0
    outer loop
      vertex 7.43353 14 7
      vertex 7.16484 14.4466 7.1451
      vertex 8.16818 12.779 0
    endloop
  endfacet
  facet normal -0.856857 -0.515554 0
    outer loop
      vertex 8.16818 12.779 0
      vertex 7.16484 14.4466 7.1451
      vertex 7.16484 14.4466 0
    endloop
  endfacet
  facet normal -0.947653 -0.319301 0
    outer loop
      vertex 8.78958 10.9347 18
      vertex 8.16818 12.779 18
      vertex 8.78958 10.9347 0
    endloop
  endfacet
  facet normal -0.947653 -0.319301 0
    outer loop
      vertex 8.39767 12.0979 9.61803
      vertex 8.16818 12.779 18
      vertex 8.16818 12.779 10.5555
    endloop
  endfacet
  facet normal -0.947653 -0.319301 0
    outer loop
      vertex 8.78958 10.9347 0
      vertex 8.16818 12.779 18
      vertex 8.39767 12.0979 9.61803
    endloop
  endfacet
  facet normal -0.947653 -0.319301 0
    outer loop
      vertex 8.78958 10.9347 0
      vertex 8.39767 12.0979 9.61803
      vertex 8.39767 12.0979 8.38197
    endloop
  endfacet
  facet normal -0.947653 -0.319301 0
    outer loop
      vertex 8.78958 10.9347 0
      vertex 8.16818 12.779 7.44449
      vertex 8.16818 12.779 0
    endloop
  endfacet
  facet normal -0.947653 -0.319301 0
    outer loop
      vertex 8.16818 12.779 7.44449
      vertex 8.78958 10.9347 0
      vertex 8.39767 12.0979 8.38197
    endloop
  endfacet
  facet normal -0.994138 -0.108119 0
    outer loop
      vertex 9 9 18
      vertex 8.78958 10.9347 18
      vertex 9 9 0
    endloop
  endfacet
  facet normal -0.994138 -0.108119 0
    outer loop
      vertex 9 9 0
      vertex 8.78958 10.9347 18
      vertex 8.78958 10.9347 0
    endloop
  endfacet
  facet normal -0.994138 0.108119 0
    outer loop
      vertex 9 9 18
      vertex 9 9 0
      vertex 8.78958 7.06527 18
    endloop
  endfacet
  facet normal -0.994138 0.108119 0
    outer loop
      vertex 8.78958 7.06527 18
      vertex 9 9 0
      vertex 8.78958 7.06527 0
    endloop
  endfacet
  facet normal -0.947653 0.319301 0
    outer loop
      vertex 8.78958 7.06527 18
      vertex 8.78958 7.06527 0
      vertex 8.16818 5.221 18
    endloop
  endfacet
  facet normal -0.947653 0.319301 0
    outer loop
      vertex 8.16818 5.221 18
      vertex 8.78958 7.06527 0
      vertex 8.16818 5.221 0
    endloop
  endfacet
  facet normal -0.856857 0.515554 0
    outer loop
      vertex 8.16818 5.221 18
      vertex 8.16818 5.221 0
      vertex 7.16484 3.55343 18
    endloop
  endfacet
  facet normal -0.856857 0.515554 0
    outer loop
      vertex 7.16484 3.55343 18
      vertex 8.16818 5.221 0
      vertex 7.16484 3.55343 0
    endloop
  endfacet
  facet normal -0.725995 0.6877 0
    outer loop
      vertex 7.16484 3.55343 18
      vertex 7.16484 3.55343 0
      vertex 5.82648 2.14054 18
    endloop
  endfacet
  facet normal -0.725995 0.6877 0
    outer loop
      vertex 5.82648 2.14054 18
      vertex 7.16484 3.55343 0
      vertex 5.82648 2.14054 0
    endloop
  endfacet
  facet normal -0.561187 0.827689 0
    outer loop
      vertex 5.82648 2.14054 18
      vertex 5.82648 2.14054 0
      vertex 4.21568 1.04839 18
    endloop
  endfacet
  facet normal -0.561187 0.827689 0
    outer loop
      vertex 4.21568 1.04839 18
      vertex 5.82648 2.14054 0
      vertex 4.21568 1.04839 0
    endloop
  endfacet
  facet normal -0.370138 0.928977 0
    outer loop
      vertex 4.21568 1.04839 18
      vertex 4.21568 1.04839 0
      vertex 3 0.564022 18
    endloop
  endfacet
  facet normal -0.370138 0.928977 0
    outer loop
      vertex 3 0.564022 18
      vertex 4.21568 1.04839 0
      vertex 3 0.564022 0
    endloop
  endfacet
  facet normal 0 0 1
    outer loop
      vertex 3 0.564022 18
      vertex 3 0 18
      vertex 20 0 18
    endloop
  endfacet
  facet normal 0 0 1
    outer loop
      vertex 4.21568 1.04839 18
      vertex 3 0.564022 18
      vertex 20 0 18
    endloop
  endfacet
  facet normal 0 0 1
    outer loop
      vertex 3 18 18
      vertex 3 17.436 18
      vertex 20 18 18
    endloop
  endfacet
  facet normal 0 0 1
    outer loop
      vertex 3 17.436 18
      vertex 4.21568 16.9516 18
      vertex 20 18 18
    endloop
  endfacet
  facet normal 0 0 1
    outer loop
      vertex 4.21568 16.9516 18
      vertex 5.82648 15.8595 18
      vertex 20 18 18
    endloop
  endfacet
  facet normal 0 0 1
    outer loop
      vertex 5.82648 15.8595 18
      vertex 7.16484 14.4466 18
      vertex 20 18 18
    endloop
  endfacet
  facet normal 0 0 1
    outer loop
      vertex 7.16484 14.4466 18
      vertex 8.16818 12.779 18
      vertex 20 18 18
    endloop
  endfacet
  facet normal 0 0 1
    outer loop
      vertex 8.16818 12.779 18
      vertex 8.78958 10.9347 18
      vertex 20 18 18
    endloop
  endfacet
  facet normal 0 0 1
    outer loop
      vertex 8.78958 10.9347 18
      vertex 9 9 18
      vertex 20 18 18
    endloop
  endfacet
  facet normal 0 0 1
    outer loop
      vertex 9 9 18
      vertex 8.78958 7.06527 18
      vertex 20 18 18
    endloop
  endfacet
  facet normal 0 0 1
    outer loop
      vertex 20 18 18
      vertex 8.16818 5.221 18
      vertex 20 0 18
    endloop
  endfacet
  facet normal 0 0 1
    outer loop
      vertex 8.16818 5.221 18
      vertex 7.16484 3.55343 18
      vertex 20 0 18
    endloop
  endfacet
  facet normal 0 0 1
    outer loop
      vertex 7.16484 3.55343 18
      vertex 5.82648 2.14054 18
      vertex 20 0 18
    endloop
  endfacet
  facet normal 0 0 1
    outer loop
      vertex 5.82648 2.14054 18
      vertex 4.21568 1.04839 18
      vertex 20 0 18
    endloop
  endfacet
  facet normal 0 0 1
    outer loop
      vertex 8.78958 7.06527 18
      vertex 8.16818 5.221 18
      vertex 20 18 18
    endloop
  endfacet
  facet normal 0 1 0
    outer loop
      vertex 20 12.0979 9.61803
      vertex 20 12.0979 8.38197
      vertex 8.39767 12.0979 9.61803
    endloop
  endfacet
  facet normal 0 1 0
    outer loop
      vertex 8.39767 12.0979 9.61803
      vertex 20 12.0979 8.38197
      vertex 8.39767 12.0979 8.38197
    endloop
  endfacet
  facet normal -1.30514e-016 0.809017 0.587785
    outer loop
      vertex 8.39767 12.0979 8.38197
      vertex 20 12.0979 8.38197
      vertex 8.16818 12.779 7.44449
    endloop
  endfacet
  facet normal -1.30514e-016 0.809017 0.587785
    outer loop
      vertex 8.16818 12.779 7.44449
      vertex 20 12.0979 8.38197
      vertex 20 12.8244 7.38197
    endloop
  endfacet
  facet normal -1.30514e-016 0.809017 0.587785
    outer loop
      vertex 8.16818 12.779 7.44449
      vertex 20 12.8244 7.38197
      vertex 8.14085 12.8244 7.38197
    endloop
  endfacet
  facet normal -2.11177e-016 0.309017 0.951057
    outer loop
      vertex 8.14085 12.8244 7.38197
      vertex 20 12.8244 7.38197
      vertex 20 14 7
    endloop
  endfacet
  facet normal -2.11177e-016 0.309017 0.951057
    outer loop
      vertex 7.43353 14 7
      vertex 8.14085 12.8244 7.38197
      vertex 20 14 7
    endloop
  endfacet
  facet normal -2.11177e-016 -0.309017 0.951057
    outer loop
      vertex 7.16484 14.4466 7.1451
      vertex 7.43353 14 7
      vertex 20 14 7
    endloop
  endfacet
  facet normal -2.11177e-016 -0.309017 0.951057
    outer loop
      vertex 6.47429 15.1756 7.38197
      vertex 7.16484 14.4466 7.1451
      vertex 20 15.1756 7.38197
    endloop
  endfacet
  facet normal -2.11177e-016 -0.309017 0.951057
    outer loop
      vertex 20 15.1756 7.38197
      vertex 7.16484 14.4466 7.1451
      vertex 20 14 7
    endloop
  endfacet
  facet normal -1.30514e-016 -0.809017 0.587785
    outer loop
      vertex 5.82648 15.8595 8.32326
      vertex 6.47429 15.1756 7.38197
      vertex 20 15.1756 7.38197
    endloop
  endfacet
  facet normal -1.30514e-016 -0.809017 0.587785
    outer loop
      vertex 5.76357 15.9021 8.38197
      vertex 5.82648 15.8595 8.32326
      vertex 20 15.9021 8.38197
    endloop
  endfacet
  facet normal -1.30514e-016 -0.809017 0.587785
    outer loop
      vertex 20 15.9021 8.38197
      vertex 5.82648 15.8595 8.32326
      vertex 20 15.1756 7.38197
    endloop
  endfacet
  facet normal 0 -1 0
    outer loop
      vertex 20 15.9021 8.38197
      vertex 20 15.9021 9.61803
      vertex 5.76357 15.9021 9.61803
    endloop
  endfacet
  facet normal 0 -1 0
    outer loop
      vertex 5.76357 15.9021 8.38197
      vertex 20 15.9021 8.38197
      vertex 5.76357 15.9021 9.61803
    endloop
  endfacet
  facet normal 1.30514e-016 -0.809017 -0.587785
    outer loop
      vertex 20 15.9021 9.61803
      vertex 20 15.1756 10.618
      vertex 6.47429 15.1756 10.618
    endloop
  endfacet
  facet normal 1.30514e-016 -0.809017 -0.587785
    outer loop
      vertex 5.76357 15.9021 9.61803
      vertex 20 15.9021 9.61803
      vertex 5.82648 15.8595 9.67674
    endloop
  endfacet
  facet normal 1.30514e-016 -0.809017 -0.587785
    outer loop
      vertex 5.82648 15.8595 9.67674
      vertex 20 15.9021 9.61803
      vertex 6.47429 15.1756 10.618
    endloop
  endfacet
  facet normal 2.11177e-016 -0.309017 -0.951057
    outer loop
      vertex 20 14 11
      vertex 7.43353 14 11
      vertex 20 15.1756 10.618
    endloop
  endfacet
  facet normal 2.11177e-016 -0.309017 -0.951057
    outer loop
      vertex 20 15.1756 10.618
      vertex 7.43353 14 11
      vertex 7.16484 14.4466 10.8549
    endloop
  endfacet
  facet normal 2.11177e-016 -0.309017 -0.951057
    outer loop
      vertex 20 15.1756 10.618
      vertex 7.16484 14.4466 10.8549
      vertex 6.47429 15.1756 10.618
    endloop
  endfacet
  facet normal 2.11177e-016 0.309017 -0.951057
    outer loop
      vertex 20 12.8244 10.618
      vertex 8.14085 12.8244 10.618
      vertex 20 14 11
    endloop
  endfacet
  facet normal 2.11177e-016 0.309017 -0.951057
    outer loop
      vertex 20 14 11
      vertex 8.14085 12.8244 10.618
      vertex 7.43353 14 11
    endloop
  endfacet
  facet normal 1.30514e-016 0.809017 -0.587785
    outer loop
      vertex 20 12.0979 9.61803
      vertex 8.39767 12.0979 9.61803
      vertex 20 12.8244 10.618
    endloop
  endfacet
  facet normal 1.30514e-016 0.809017 -0.587785
    outer loop
      vertex 20 12.8244 10.618
      vertex 8.39767 12.0979 9.61803
      vertex 8.16818 12.779 10.5555
    endloop
  endfacet
  facet normal 1.30514e-016 0.809017 -0.587785
    outer loop
      vertex 20 12.8244 10.618
      vertex 8.16818 12.779 10.5555
      vertex 8.14085 12.8244 10.618
    endloop
  endfacet
  facet normal -0.725995 -0.6877 0
    outer loop
      vertex 7.16484 14.4466 10.8549
      vertex 7.16484 14.4466 18
      vertex 6.47429 15.1756 10.618
    endloop
  endfacet
  facet normal -0.725995 -0.6877 0
    outer loop
      vertex 6.47429 15.1756 10.618
      vertex 7.16484 14.4466 18
      vertex 5.82648 15.8595 18
    endloop
  endfacet
  facet normal -0.725995 -0.6877 0
    outer loop
      vertex 6.47429 15.1756 10.618
      vertex 5.82648 15.8595 18
      vertex 5.82648 15.8595 9.67674
    endloop
  endfacet
  facet normal -0.856857 -0.515554 0
    outer loop
      vertex 8.14085 12.8244 10.618
      vertex 8.16818 12.779 10.5555
      vertex 8.16818 12.779 18
    endloop
  endfacet
  facet normal -0.856857 -0.515554 0
    outer loop
      vertex 8.14085 12.8244 10.618
      vertex 8.16818 12.779 18
      vertex 7.43353 14 11
    endloop
  endfacet
  facet normal -0.856857 -0.515554 0
    outer loop
      vertex 8.16818 12.779 18
      vertex 7.16484 14.4466 18
      vertex 7.43353 14 11
    endloop
  endfacet
  facet normal -0.856857 -0.515554 0
    outer loop
      vertex 7.16484 14.4466 18
      vertex 7.16484 14.4466 10.8549
      vertex 7.43353 14 11
    endloop
  endfacet
endsolid OpenSCAD_Model
