  0
SECTION
  2
HEADER
  9
$ACADVER
  1
AC1009
  9
$INSBASE
 10
0.0
 20
0.0
 30
0.0
  9
$EXTMIN
 10
0.0
 20
0.0
 30
0.0
  9
$EXTMAX
 10
0.0
 20
0.0
 30
0.0
  0
ENDSEC
  0
SECTION
  2
TABLES
  0
TABLE
  2
VPORT
 70
0
  0
ENDTAB
  0
TABLE
  2
LTYPE
 70
1
  0
LTYPE
  2
CONTINUOUS
 70
0
  3
Solid line
 72
65
 73
0
 40
0.0
  0
ENDTAB
  0
TABLE
  2
LAYER
 70
1
  0
LAYER
  2
0
 70
64
 62
7
  6
continuous
  0
ENDTAB
  0
TABLE
  2
STYLE
 70
1
  0
STYLE
  2
STANDARD
 70
0
 40
0
 41
1.0
 50
0.0
 71
0
 42
1
 3
ARIAL.TTF
 4

  0
ENDTAB
  0
TABLE
  2
VIEW
 70
0
  0
ENDTAB
  0
ENDSEC
  0
SECTION
  2
BLOCKS
  0
BLOCK
  8
0
  2
POCKET006026_PROJ
 70
0
 10
0.0
 20
0.0
 30
0.0
  3
POCKET006026_PROJ
  0
LINE
  8
0
 62
0
 10
-206.0
 20
38.0
 30
0.0
 11
-154.0
 21
38.0
 31
0.0
  0
LINE
  8
0
 62
0
 10
-206.0
 20
38.0
 30
0.0
 11
-206.0
 21
15.0
 31
0.0
  0
LINE
  8
0
 62
0
 10
-154.0
 20
38.0
 30
0.0
 11
-154.0
 21
22.0
 31
0.0
  0
LINE
  8
0
 62
0
 10
-206.0
 20
15.0
 30
0.0
 11
-198.0
 21
15.0
 31
0.0
  0
LINE
  8
0
 62
0
 10
-198.0
 20
15.0
 30
0.0
 11
-198.0
 21
-15.0
 31
0.0
  0
LINE
  8
0
 62
0
 10
-198.0
 20
-15.0
 30
0.0
 11
-206.0
 21
-15.0
 31
0.0
  0
LINE
  8
0
 62
0
 10
-206.0
 20
-38.0
 30
0.0
 11
-206.0
 21
-15.0
 31
0.0
  0
LINE
  8
0
 62
0
 10
-206.0
 20
-38.0
 30
0.0
 11
-154.0
 21
-38.0
 31
0.0
  0
LINE
  8
0
 62
0
 10
-154.0
 20
-38.0
 30
0.0
 11
-154.0
 21
-22.0
 31
0.0
  0
LINE
  8
0
 62
0
 10
-154.0
 20
-22.0
 30
0.0
 11
-136.0
 21
-22.0
 31
0.0
  0
LINE
  8
0
 62
0
 10
-136.0
 20
-22.0
 30
0.0
 11
-136.0
 21
-38.0
 31
0.0
  0
LINE
  8
0
 62
0
 10
-136.0
 20
-38.0
 30
0.0
 11
136.0
 21
-38.0
 31
0.0
  0
LINE
  8
0
 62
0
 10
136.0
 20
-38.0
 30
0.0
 11
136.0
 21
-22.0
 31
0.0
  0
LINE
  8
0
 62
0
 10
136.0
 20
-22.0
 30
0.0
 11
154.0
 21
-22.0
 31
0.0
  0
LINE
  8
0
 62
0
 10
154.0
 20
-22.0
 30
0.0
 11
154.0
 21
-38.0
 31
0.0
  0
LINE
  8
0
 62
0
 10
154.0
 20
-38.0
 30
0.0
 11
206.0
 21
-38.0
 31
0.0
  0
LINE
  8
0
 62
0
 10
206.0
 20
-38.0
 30
0.0
 11
206.0
 21
-15.0
 31
0.0
  0
LINE
  8
0
 62
0
 10
198.0
 20
-15.0
 30
0.0
 11
206.0
 21
-15.0
 31
0.0
  0
LINE
  8
0
 62
0
 10
198.0
 20
15.0
 30
0.0
 11
198.0
 21
-15.0
 31
0.0
  0
LINE
  8
0
 62
0
 10
206.0
 20
15.0
 30
0.0
 11
198.0
 21
15.0
 31
0.0
  0
LINE
  8
0
 62
0
 10
206.0
 20
38.0
 30
0.0
 11
206.0
 21
15.0
 31
0.0
  0
LINE
  8
0
 62
0
 10
154.0
 20
38.0
 30
0.0
 11
206.0
 21
38.0
 31
0.0
  0
LINE
  8
0
 62
0
 10
154.0
 20
22.0
 30
0.0
 11
154.0
 21
38.0
 31
0.0
  0
LINE
  8
0
 62
0
 10
136.0
 20
22.0
 30
0.0
 11
154.0
 21
22.0
 31
0.0
  0
LINE
  8
0
 62
0
 10
136.0
 20
38.0
 30
0.0
 11
136.0
 21
22.0
 31
0.0
  0
LINE
  8
0
 62
0
 10
-136.0
 20
38.0
 30
0.0
 11
136.0
 21
38.0
 31
0.0
  0
LINE
  8
0
 62
0
 10
-136.0
 20
22.0
 30
0.0
 11
-136.0
 21
38.0
 31
0.0
  0
LINE
  8
0
 62
0
 10
-154.0
 20
22.0
 30
0.0
 11
-136.0
 21
22.0
 31
0.0
  0
ARC
  8
0
 62
0
 10
178.0
 20
8.36784205213e-28
 30
0.0
 40
12.0
 50
90.0000018768
 51
-90.0000022107
  0
LINE
  8
0
 62
0
 10
189.999999607
 20
-12.0
 30
0.0
 11
177.999999537
 21
-12.0
 31
0.0
  0
LINE
  8
0
 62
0
 10
189.999999607
 20
12.0
 30
0.0
 11
189.999999607
 21
-12.0
 31
0.0
  0
LINE
  8
0
 62
0
 10
177.999999607
 20
12.0
 30
0.0
 11
189.999999607
 21
12.0
 31
0.0
  0
LINE
  8
0
 62
0
 10
-177.999985945
 20
-12.0
 30
0.0
 11
-189.999985942
 21
-12.0
 31
0.0
  0
LINE
  8
0
 62
0
 10
-189.999985942
 20
-12.0
 30
0.0
 11
-189.999985942
 21
12.0
 31
0.0
  0
LINE
  8
0
 62
0
 10
-189.999985942
 20
12.0
 30
0.0
 11
-177.999985942
 21
12.0
 31
0.0
  0
ARC
  8
0
 62
0
 10
-178.0
 20
-5.30114528309e-28
 30
0.0
 40
12.0
 50
-89.9999328928
 51
89.9999328762
  0
CIRCLE
  8
0
 62
0
 10
145.0
 20
0.0
 30
0.0
 40
2.5
  0
CIRCLE
  8
0
 62
0
 10
-145.0
 20
0.0
 30
0.0
 40
2.5
  0
CIRCLE
  8
0
 62
0
 10
193.5
 20
-15.5
 30
0.0
 40
1.5
  0
CIRCLE
  8
0
 62
0
 10
162.5
 20
-15.5
 30
0.0
 40
1.5
  0
CIRCLE
  8
0
 62
0
 10
162.5
 20
15.5
 30
0.0
 40
1.5
  0
CIRCLE
  8
0
 62
0
 10
193.5
 20
15.5
 30
0.0
 40
1.5
  0
CIRCLE
  8
0
 62
0
 10
-162.5
 20
-15.5
 30
0.0
 40
1.5
  0
CIRCLE
  8
0
 62
0
 10
-193.5
 20
-15.5
 30
0.0
 40
1.5
  0
CIRCLE
  8
0
 62
0
 10
-193.5
 20
15.5
 30
0.0
 40
1.5
  0
CIRCLE
  8
0
 62
0
 10
-162.5
 20
15.5
 30
0.0
 40
1.5
  0
POLYLINE
  8
0
 62
0
 70
0
 66
1
 10
0.0
 20
0.0
 30
0.0
  0
VERTEX
  8
0
 10
198.0
 20
10.5
  0
VERTEX
  8
0
 10
198.0
 20
6.00347122846
  0
VERTEX
  8
0
 10
198.0
 20
4.98090172517
  0
SEQEND
  8
0
  0
POLYLINE
  8
0
 62
0
 70
0
 66
1
 10
0.0
 20
0.0
 30
0.0
  0
VERTEX
  8
0
 10
198.0
 20
-5.5
  0
VERTEX
  8
0
 10
198.0
 20
-9.99652877154
  0
VERTEX
  8
0
 10
198.0
 20
-11.0190982748
  0
SEQEND
  8
0
  0
ENDBLK
  0
ENDSEC
  0
SECTION
  2
ENTITIES
  0
INSERT
  2
POCKET006026_PROJ
  8
0
 10
0.0
 20
0.0
 30
0.0
  0
ENDSEC
  0
EOF
