G75*
G70*
%OFA0B0*%
%FSLAX24Y24*%
%IPPOS*%
%LPD*%
%AMOC8*
5,1,8,0,0,1.08239X$1,22.5*
%
%ADD10C,0.0000*%
%ADD11R,0.0513X0.0631*%
%ADD12R,0.0710X0.1104*%
%ADD13C,0.0680*%
%ADD14C,0.0680*%
%ADD15C,0.0740*%
%ADD16C,0.0671*%
%ADD17C,0.1340*%
%ADD18R,0.0552X0.0552*%
%ADD19R,0.1458X0.0710*%
%ADD20C,0.0789*%
%ADD21OC8,0.0680*%
%ADD22OC8,0.0840*%
%ADD23C,0.0986*%
%ADD24C,0.0905*%
%ADD25C,0.0640*%
%ADD26OC8,0.0640*%
%ADD27C,0.0631*%
%ADD28R,0.0820X0.0820*%
%ADD29C,0.0820*%
%ADD30R,0.0592X0.0671*%
%ADD31R,0.0592X0.0710*%
%ADD32C,0.0965*%
%ADD33R,0.0631X0.0513*%
D10*
X001260Y000847D02*
X041317Y000847D01*
X041317Y024655D01*
X001260Y024655D01*
X001260Y000847D01*
X006130Y004659D02*
X006132Y004709D01*
X006138Y004759D01*
X006148Y004808D01*
X006162Y004856D01*
X006179Y004903D01*
X006200Y004948D01*
X006225Y004992D01*
X006253Y005033D01*
X006285Y005072D01*
X006319Y005109D01*
X006356Y005143D01*
X006396Y005173D01*
X006438Y005200D01*
X006482Y005224D01*
X006528Y005245D01*
X006575Y005261D01*
X006623Y005274D01*
X006673Y005283D01*
X006722Y005288D01*
X006773Y005289D01*
X006823Y005286D01*
X006872Y005279D01*
X006921Y005268D01*
X006969Y005253D01*
X007015Y005235D01*
X007060Y005213D01*
X007103Y005187D01*
X007144Y005158D01*
X007183Y005126D01*
X007219Y005091D01*
X007251Y005053D01*
X007281Y005013D01*
X007308Y004970D01*
X007331Y004926D01*
X007350Y004880D01*
X007366Y004832D01*
X007378Y004783D01*
X007386Y004734D01*
X007390Y004684D01*
X007390Y004634D01*
X007386Y004584D01*
X007378Y004535D01*
X007366Y004486D01*
X007350Y004438D01*
X007331Y004392D01*
X007308Y004348D01*
X007281Y004305D01*
X007251Y004265D01*
X007219Y004227D01*
X007183Y004192D01*
X007144Y004160D01*
X007103Y004131D01*
X007060Y004105D01*
X007015Y004083D01*
X006969Y004065D01*
X006921Y004050D01*
X006872Y004039D01*
X006823Y004032D01*
X006773Y004029D01*
X006722Y004030D01*
X006673Y004035D01*
X006623Y004044D01*
X006575Y004057D01*
X006528Y004073D01*
X006482Y004094D01*
X006438Y004118D01*
X006396Y004145D01*
X006356Y004175D01*
X006319Y004209D01*
X006285Y004246D01*
X006253Y004285D01*
X006225Y004326D01*
X006200Y004370D01*
X006179Y004415D01*
X006162Y004462D01*
X006148Y004510D01*
X006138Y004559D01*
X006132Y004609D01*
X006130Y004659D01*
X006630Y023659D02*
X006632Y023709D01*
X006638Y023759D01*
X006648Y023808D01*
X006662Y023856D01*
X006679Y023903D01*
X006700Y023948D01*
X006725Y023992D01*
X006753Y024033D01*
X006785Y024072D01*
X006819Y024109D01*
X006856Y024143D01*
X006896Y024173D01*
X006938Y024200D01*
X006982Y024224D01*
X007028Y024245D01*
X007075Y024261D01*
X007123Y024274D01*
X007173Y024283D01*
X007222Y024288D01*
X007273Y024289D01*
X007323Y024286D01*
X007372Y024279D01*
X007421Y024268D01*
X007469Y024253D01*
X007515Y024235D01*
X007560Y024213D01*
X007603Y024187D01*
X007644Y024158D01*
X007683Y024126D01*
X007719Y024091D01*
X007751Y024053D01*
X007781Y024013D01*
X007808Y023970D01*
X007831Y023926D01*
X007850Y023880D01*
X007866Y023832D01*
X007878Y023783D01*
X007886Y023734D01*
X007890Y023684D01*
X007890Y023634D01*
X007886Y023584D01*
X007878Y023535D01*
X007866Y023486D01*
X007850Y023438D01*
X007831Y023392D01*
X007808Y023348D01*
X007781Y023305D01*
X007751Y023265D01*
X007719Y023227D01*
X007683Y023192D01*
X007644Y023160D01*
X007603Y023131D01*
X007560Y023105D01*
X007515Y023083D01*
X007469Y023065D01*
X007421Y023050D01*
X007372Y023039D01*
X007323Y023032D01*
X007273Y023029D01*
X007222Y023030D01*
X007173Y023035D01*
X007123Y023044D01*
X007075Y023057D01*
X007028Y023073D01*
X006982Y023094D01*
X006938Y023118D01*
X006896Y023145D01*
X006856Y023175D01*
X006819Y023209D01*
X006785Y023246D01*
X006753Y023285D01*
X006725Y023326D01*
X006700Y023370D01*
X006679Y023415D01*
X006662Y023462D01*
X006648Y023510D01*
X006638Y023559D01*
X006632Y023609D01*
X006630Y023659D01*
X038630Y004659D02*
X038632Y004709D01*
X038638Y004759D01*
X038648Y004808D01*
X038662Y004856D01*
X038679Y004903D01*
X038700Y004948D01*
X038725Y004992D01*
X038753Y005033D01*
X038785Y005072D01*
X038819Y005109D01*
X038856Y005143D01*
X038896Y005173D01*
X038938Y005200D01*
X038982Y005224D01*
X039028Y005245D01*
X039075Y005261D01*
X039123Y005274D01*
X039173Y005283D01*
X039222Y005288D01*
X039273Y005289D01*
X039323Y005286D01*
X039372Y005279D01*
X039421Y005268D01*
X039469Y005253D01*
X039515Y005235D01*
X039560Y005213D01*
X039603Y005187D01*
X039644Y005158D01*
X039683Y005126D01*
X039719Y005091D01*
X039751Y005053D01*
X039781Y005013D01*
X039808Y004970D01*
X039831Y004926D01*
X039850Y004880D01*
X039866Y004832D01*
X039878Y004783D01*
X039886Y004734D01*
X039890Y004684D01*
X039890Y004634D01*
X039886Y004584D01*
X039878Y004535D01*
X039866Y004486D01*
X039850Y004438D01*
X039831Y004392D01*
X039808Y004348D01*
X039781Y004305D01*
X039751Y004265D01*
X039719Y004227D01*
X039683Y004192D01*
X039644Y004160D01*
X039603Y004131D01*
X039560Y004105D01*
X039515Y004083D01*
X039469Y004065D01*
X039421Y004050D01*
X039372Y004039D01*
X039323Y004032D01*
X039273Y004029D01*
X039222Y004030D01*
X039173Y004035D01*
X039123Y004044D01*
X039075Y004057D01*
X039028Y004073D01*
X038982Y004094D01*
X038938Y004118D01*
X038896Y004145D01*
X038856Y004175D01*
X038819Y004209D01*
X038785Y004246D01*
X038753Y004285D01*
X038725Y004326D01*
X038700Y004370D01*
X038679Y004415D01*
X038662Y004462D01*
X038648Y004510D01*
X038638Y004559D01*
X038632Y004609D01*
X038630Y004659D01*
D11*
X033904Y006909D03*
X033116Y006909D03*
X031154Y006659D03*
X030366Y006659D03*
X027679Y006884D03*
X026891Y006884D03*
X025654Y006909D03*
X024866Y006909D03*
X017654Y006909D03*
X016866Y006909D03*
X015154Y006659D03*
X014366Y006659D03*
X011654Y013284D03*
X010866Y013284D03*
X015116Y015659D03*
X015904Y015659D03*
X017366Y015909D03*
X018154Y015909D03*
X019366Y015909D03*
X020154Y015909D03*
X022866Y015659D03*
X023654Y015659D03*
X025306Y016008D03*
X026094Y016008D03*
X029366Y015704D03*
X030154Y015704D03*
X030154Y016742D03*
X029366Y016742D03*
X029366Y017722D03*
X030154Y017722D03*
X014654Y021659D03*
X013866Y021659D03*
X013866Y022659D03*
X014654Y022659D03*
X011154Y022409D03*
X010366Y022409D03*
D12*
X031560Y018178D03*
X033560Y018178D03*
X035560Y018178D03*
X035560Y016760D03*
X033560Y016760D03*
X031560Y016760D03*
D13*
X031510Y019847D03*
X032510Y019847D03*
X033510Y019847D03*
X034510Y019847D03*
X035510Y019847D03*
X036510Y019847D03*
X036510Y020847D03*
X036510Y021847D03*
X035510Y021847D03*
X034510Y021847D03*
X033510Y021847D03*
X032510Y021847D03*
X031510Y021847D03*
X030510Y021847D03*
X030510Y020847D03*
X031510Y020847D03*
X032510Y020847D03*
X033510Y020847D03*
X034510Y020847D03*
X035510Y020847D03*
X036510Y022847D03*
X030510Y019847D03*
X027510Y021659D03*
X026510Y021659D03*
X025510Y021659D03*
X024510Y021659D03*
X019510Y021659D03*
X018510Y021659D03*
X017510Y021659D03*
X016510Y021659D03*
X017760Y012659D03*
X018760Y012659D03*
X019760Y012659D03*
X020760Y012659D03*
X024760Y012659D03*
X025760Y012659D03*
X026760Y012659D03*
X027760Y012659D03*
X031760Y012659D03*
X032760Y012659D03*
X033760Y012659D03*
X034760Y012659D03*
X034760Y011659D03*
X033760Y011659D03*
X032760Y011659D03*
X031760Y011659D03*
X020947Y003409D03*
X019947Y003409D03*
X018947Y003409D03*
X017947Y003409D03*
X017947Y002409D03*
X018947Y002409D03*
X019947Y002409D03*
X020947Y002409D03*
X020947Y001409D03*
X019947Y001409D03*
X018947Y001409D03*
X017947Y001409D03*
X024010Y001722D03*
X025010Y001722D03*
X026010Y001722D03*
X027010Y001722D03*
X027010Y002722D03*
X026010Y002722D03*
X025010Y002722D03*
X024010Y002722D03*
D14*
X009810Y013284D02*
X009210Y013284D01*
X009210Y014284D02*
X009810Y014284D01*
X009810Y015284D02*
X009210Y015284D01*
X009510Y018109D02*
X009510Y018709D01*
X010510Y018709D02*
X010510Y018109D01*
X011510Y018109D02*
X011510Y018709D01*
X011510Y020859D02*
X011510Y021459D01*
X010510Y021459D02*
X010510Y020859D01*
X009510Y020859D02*
X009510Y021459D01*
D15*
X011260Y008159D03*
X011260Y004159D03*
X019170Y006710D03*
X023170Y006710D03*
D16*
X023260Y004659D03*
X024260Y004659D03*
X025260Y004659D03*
X026260Y004659D03*
X027260Y004659D03*
X028260Y004659D03*
X030260Y004659D03*
X031260Y004659D03*
X032260Y004659D03*
X033260Y004659D03*
X034260Y004659D03*
X035260Y004659D03*
X036260Y004659D03*
X037260Y004659D03*
X038260Y006659D03*
X039260Y006659D03*
X039260Y007659D03*
X038260Y007659D03*
X038260Y008659D03*
X039260Y008659D03*
X039260Y009659D03*
X038260Y009659D03*
X038260Y010659D03*
X039260Y010659D03*
X039260Y011659D03*
X038260Y011659D03*
X038260Y012659D03*
X039260Y012659D03*
X039260Y013659D03*
X038260Y013659D03*
X038260Y014659D03*
X039260Y014659D03*
X039260Y015659D03*
X038260Y015659D03*
X038260Y016659D03*
X039260Y016659D03*
X039260Y017659D03*
X038260Y017659D03*
X038260Y018659D03*
X039260Y018659D03*
X039260Y019659D03*
X038260Y019659D03*
X038260Y020659D03*
X039260Y020659D03*
X039260Y021659D03*
X038260Y021659D03*
X038260Y022659D03*
X039260Y022659D03*
X039260Y023659D03*
X038260Y023659D03*
X035260Y023659D03*
X034260Y023659D03*
X033260Y023659D03*
X032260Y023659D03*
X031260Y023659D03*
X030260Y023659D03*
X029260Y023659D03*
X028260Y023659D03*
X026260Y023659D03*
X025260Y023659D03*
X024260Y023659D03*
X023260Y023659D03*
X022260Y023659D03*
X021260Y023659D03*
X020260Y023659D03*
X019260Y023659D03*
X017660Y023659D03*
X016660Y023659D03*
X015660Y023659D03*
X014660Y023659D03*
X013660Y023659D03*
X012660Y023659D03*
X011660Y023659D03*
X010660Y023659D03*
X014260Y004659D03*
X015260Y004659D03*
X016260Y004659D03*
X017260Y004659D03*
X018260Y004659D03*
X019260Y004659D03*
X021260Y004659D03*
X022260Y004659D03*
D17*
X006760Y004659D03*
X007260Y023659D03*
X039260Y004659D03*
D18*
X011673Y014284D03*
X010846Y014284D03*
X009322Y022746D03*
X009322Y023573D03*
X003260Y023573D03*
X002260Y023573D03*
X002260Y022746D03*
X003260Y022746D03*
D19*
X013697Y017659D03*
X015823Y017659D03*
X021947Y017659D03*
X024073Y017659D03*
X015323Y012597D03*
X013197Y012597D03*
X013697Y008659D03*
X015823Y008659D03*
X021697Y008659D03*
X023823Y008659D03*
X029697Y008659D03*
X031823Y008659D03*
D20*
X006864Y011159D02*
X006156Y011159D01*
X006156Y013159D02*
X006864Y013159D01*
X006864Y015159D02*
X006156Y015159D01*
X006156Y017159D02*
X006864Y017159D01*
X006864Y019159D02*
X006156Y019159D01*
X006156Y021159D02*
X006864Y021159D01*
D21*
X017760Y018159D03*
X018760Y018159D03*
X019760Y018159D03*
X019760Y017159D03*
X018760Y017159D03*
X017760Y017159D03*
X025760Y017159D03*
X026760Y017159D03*
X027760Y017159D03*
X027760Y018159D03*
X026760Y018159D03*
X025760Y018159D03*
X025760Y009159D03*
X026760Y009159D03*
X027760Y009159D03*
X027760Y008159D03*
X026760Y008159D03*
X025760Y008159D03*
X019760Y008159D03*
X018760Y008159D03*
X017760Y008159D03*
X017760Y009159D03*
X018760Y009159D03*
X019760Y009159D03*
X016150Y002044D03*
X014370Y002044D03*
X033760Y008159D03*
X034760Y008159D03*
X035760Y008159D03*
X035760Y009159D03*
X034760Y009159D03*
X033760Y009159D03*
D22*
X012760Y003534D03*
X012760Y002524D03*
X012760Y001524D03*
D23*
X010072Y003706D02*
X010072Y004612D01*
X008697Y004799D02*
X008697Y003894D01*
X008697Y007894D02*
X008697Y008799D01*
X010072Y008612D02*
X010072Y007706D01*
D24*
X004547Y006847D02*
X003722Y006847D01*
X003722Y004847D02*
X004547Y004847D01*
X004547Y002847D02*
X003722Y002847D01*
X003722Y008847D02*
X004547Y008847D01*
D25*
X031760Y014659D03*
X032760Y014659D03*
X033760Y014659D03*
X034760Y014659D03*
X035760Y014659D03*
X036760Y014659D03*
D26*
X037322Y002722D03*
X038322Y002722D03*
X039322Y002722D03*
X040322Y002722D03*
X040322Y001722D03*
X039322Y001722D03*
X038322Y001722D03*
X037322Y001722D03*
X034260Y001722D03*
X033260Y001722D03*
X032260Y001722D03*
X031260Y001722D03*
X030260Y001722D03*
X030260Y002722D03*
X031260Y002722D03*
X032260Y002722D03*
X033260Y002722D03*
X034260Y002722D03*
D27*
X034760Y005659D03*
X033760Y005659D03*
X032760Y005659D03*
X031760Y005659D03*
X030760Y005659D03*
X029760Y005659D03*
X028760Y005659D03*
X027760Y005659D03*
X026760Y005659D03*
X025760Y005659D03*
X024760Y005659D03*
X023760Y005659D03*
X022760Y005659D03*
X021760Y005659D03*
X020760Y005659D03*
X019760Y005659D03*
X018760Y005659D03*
X017760Y005659D03*
X016760Y005659D03*
X015760Y005659D03*
X014760Y005659D03*
X013760Y005659D03*
X013760Y010659D03*
X014760Y010659D03*
X015760Y010659D03*
X016760Y010659D03*
X017760Y010659D03*
X018760Y010659D03*
X019760Y010659D03*
X020760Y010659D03*
X021760Y010659D03*
X022760Y010659D03*
X023760Y010659D03*
X024760Y010659D03*
X025760Y010659D03*
X026760Y010659D03*
X027760Y010659D03*
X028760Y010659D03*
X029760Y010659D03*
X030760Y010659D03*
X031760Y010659D03*
X032760Y010659D03*
X033760Y010659D03*
X034760Y010659D03*
X035760Y010659D03*
X036760Y010659D03*
X036760Y005659D03*
X035760Y005659D03*
X028760Y014659D03*
X027760Y014659D03*
X026760Y014659D03*
X025760Y014659D03*
X024760Y014659D03*
X023760Y014659D03*
X022760Y014659D03*
X021760Y014659D03*
X020510Y014659D03*
X019510Y014659D03*
X018510Y014659D03*
X017510Y014659D03*
X016510Y014659D03*
X015510Y014659D03*
X014510Y014659D03*
X013510Y014659D03*
X013510Y019659D03*
X014510Y019659D03*
X015510Y019659D03*
X016510Y019659D03*
X017510Y019659D03*
X018510Y019659D03*
X019510Y019659D03*
X020510Y019659D03*
X021760Y019659D03*
X022760Y019659D03*
X023760Y019659D03*
X024760Y019659D03*
X025760Y019659D03*
X026760Y019659D03*
X027760Y019659D03*
X028760Y019659D03*
D28*
X040260Y006659D03*
D29*
X040260Y007659D03*
X040260Y008659D03*
X040260Y009659D03*
X040260Y010659D03*
X040260Y011659D03*
X040260Y012659D03*
X040260Y013659D03*
X040260Y014659D03*
X040260Y015659D03*
X040260Y016659D03*
X040260Y017659D03*
X040260Y018659D03*
X040260Y019659D03*
X040260Y020659D03*
X040260Y021659D03*
X040260Y022659D03*
X040260Y023659D03*
X012510Y007909D03*
X012510Y006909D03*
D30*
X011594Y015284D03*
X010925Y015284D03*
X013425Y015659D03*
X014094Y015659D03*
X012844Y022409D03*
X012175Y022409D03*
D31*
X013886Y020659D03*
X014634Y020659D03*
D32*
X013880Y003024D03*
X016640Y003024D03*
D33*
X037260Y015765D03*
X037260Y016553D03*
X037260Y017765D03*
X037260Y018553D03*
X005260Y022765D03*
X005260Y023553D03*
X004260Y023553D03*
X004260Y022765D03*
M02*
