solid OpenSCAD_Model
  facet normal 0 0 -1
    outer loop
      vertex 0.173205 0 0
      vertex 11.2583 6.4 0
      vertex 14.5 0 0
    endloop
  endfacet
  facet normal 0 0 -1
    outer loop
      vertex 14.5 0 0
      vertex 11.2583 6.4 0
      vertex 11.2583 19.4 0
    endloop
  endfacet
  facet normal 0 0 -1
    outer loop
      vertex 11.2583 19.4 0
      vertex 0.173205 25.8 0
      vertex 14.5 25.8 0
    endloop
  endfacet
  facet normal 0 0 -1
    outer loop
      vertex 11.2583 19.4 0
      vertex 14.5 25.8 0
      vertex 14.5 0 0
    endloop
  endfacet
  facet normal -0.5 0.866025 0
    outer loop
      vertex 11.2583 6.4 7
      vertex 11.2583 6.4 0
      vertex 0.173205 0 7
    endloop
  endfacet
  facet normal -0.5 0.866025 0
    outer loop
      vertex 0.173205 0 7
      vertex 11.2583 6.4 0
      vertex 0.173205 0 0
    endloop
  endfacet
  facet normal 0 -1 0
    outer loop
      vertex 0.173205 0 7
      vertex 0.173205 0 0
      vertex 14.5 0 0
    endloop
  endfacet
  facet normal 0 -1 0
    outer loop
      vertex 14.5 0 7
      vertex 0.173205 0 7
      vertex 14.5 0 0
    endloop
  endfacet
  facet normal 1 0 0
    outer loop
      vertex 14.5 0 7
      vertex 14.5 0 0
      vertex 14.5 25.8 0
    endloop
  endfacet
  facet normal 1 0 0
    outer loop
      vertex 14.5 25.8 7
      vertex 14.5 0 7
      vertex 14.5 25.8 0
    endloop
  endfacet
  facet normal 0 1 0
    outer loop
      vertex 0.173205 25.8 0
      vertex 0.173205 25.8 7
      vertex 14.5 25.8 0
    endloop
  endfacet
  facet normal 0 1 0
    outer loop
      vertex 14.5 25.8 0
      vertex 0.173205 25.8 7
      vertex 14.5 25.8 7
    endloop
  endfacet
  facet normal -0.5 -0.866025 0
    outer loop
      vertex 11.2583 19.4 0
      vertex 11.2583 19.4 7
      vertex 0.173205 25.8 7
    endloop
  endfacet
  facet normal -0.5 -0.866025 0
    outer loop
      vertex 0.173205 25.8 0
      vertex 11.2583 19.4 0
      vertex 0.173205 25.8 7
    endloop
  endfacet
  facet normal -1 6.12303e-017 0
    outer loop
      vertex 11.2583 19.4 7
      vertex 11.2583 19.4 0
      vertex 11.2583 6.4 7
    endloop
  endfacet
  facet normal -1 6.12303e-017 0
    outer loop
      vertex 11.2583 6.4 7
      vertex 11.2583 19.4 0
      vertex 11.2583 6.4 0
    endloop
  endfacet
  facet normal 0 0 1
    outer loop
      vertex 11.2583 6.4 7
      vertex 0.173205 0 7
      vertex 14.5 0 7
    endloop
  endfacet
  facet normal 0 0 1
    outer loop
      vertex 11.2583 19.4 7
      vertex 11.2583 6.4 7
      vertex 14.5 25.8 7
    endloop
  endfacet
  facet normal 0 0 1
    outer loop
      vertex 14.5 25.8 7
      vertex 11.2583 6.4 7
      vertex 14.5 0 7
    endloop
  endfacet
  facet normal 0 0 1
    outer loop
      vertex 0.173205 25.8 7
      vertex 11.2583 19.4 7
      vertex 14.5 25.8 7
    endloop
  endfacet
endsolid OpenSCAD_Model
