solid OpenSCAD_Model
  facet normal 0 0 -1
    outer loop
      vertex 1.39058 4.27975 0
      vertex -3.95 6.8416 0
      vertex 3.95 6.8416 0
    endloop
  endfacet
  facet normal 0 0 -1
    outer loop
      vertex 4.5 0 0
      vertex 3.95 6.8416 0
      vertex 7.9 0 0
    endloop
  endfacet
  facet normal 0 0 -1
    outer loop
      vertex 2.25 -3.89711 0
      vertex 7.9 0 0
      vertex 3.95 -6.8416 0
    endloop
  endfacet
  facet normal 0 0 -1
    outer loop
      vertex -7.9 0 0
      vertex -3.95 6.8416 0
      vertex -4.5 0 0
    endloop
  endfacet
  facet normal 0 0 -1
    outer loop
      vertex -7.9 0 0
      vertex -4.5 0 0
      vertex -3.95 -6.8416 0
    endloop
  endfacet
  facet normal 0 0 -1
    outer loop
      vertex -4.5 0 0
      vertex -4.40166 -0.935603 0
      vertex -3.95 -6.8416 0
    endloop
  endfacet
  facet normal 0 0 -1
    outer loop
      vertex -4.40166 0.935603 0
      vertex -3.95 6.8416 0
      vertex -4.11095 1.83031 0
    endloop
  endfacet
  facet normal 0 0 -1
    outer loop
      vertex -4.40166 -0.935603 0
      vertex -4.11095 -1.83031 0
      vertex -3.95 -6.8416 0
    endloop
  endfacet
  facet normal 0 0 -1
    outer loop
      vertex -1.39058 -4.27975 0
      vertex -3.95 -6.8416 0
      vertex -2.25 -3.89711 0
    endloop
  endfacet
  facet normal 0 0 -1
    outer loop
      vertex -3.95 -6.8416 0
      vertex -3.64058 -2.64503 0
      vertex -3.01109 -3.34415 0
    endloop
  endfacet
  facet normal 0 0 -1
    outer loop
      vertex -3.95 -6.8416 0
      vertex -3.01109 -3.34415 0
      vertex -2.25 -3.89711 0
    endloop
  endfacet
  facet normal 0 0 -1
    outer loop
      vertex 1.39058 4.27975 0
      vertex 3.95 6.8416 0
      vertex 2.25 3.89711 0
    endloop
  endfacet
  facet normal 0 0 -1
    outer loop
      vertex -3.95 -6.8416 0
      vertex -1.39058 -4.27975 0
      vertex -0.470378 -4.47535 0
    endloop
  endfacet
  facet normal 0 0 -1
    outer loop
      vertex 3.64058 -2.64503 0
      vertex 7.9 0 0
      vertex 3.01109 -3.34415 0
    endloop
  endfacet
  facet normal 0 0 -1
    outer loop
      vertex -3.95 -6.8416 0
      vertex 0.470378 -4.47535 0
      vertex 3.95 -6.8416 0
    endloop
  endfacet
  facet normal 0 0 -1
    outer loop
      vertex 4.11095 -1.83031 0
      vertex 7.9 0 0
      vertex 3.64058 -2.64503 0
    endloop
  endfacet
  facet normal 0 0 -1
    outer loop
      vertex 0.470378 -4.47535 0
      vertex 1.39058 -4.27975 0
      vertex 3.95 -6.8416 0
    endloop
  endfacet
  facet normal 0 0 -1
    outer loop
      vertex 3.01109 -3.34415 0
      vertex 7.9 0 0
      vertex 2.25 -3.89711 0
    endloop
  endfacet
  facet normal 0 0 -1
    outer loop
      vertex 1.39058 -4.27975 0
      vertex 2.25 -3.89711 0
      vertex 3.95 -6.8416 0
    endloop
  endfacet
  facet normal 0 0 -1
    outer loop
      vertex 4.40166 -0.935603 0
      vertex 7.9 0 0
      vertex 4.11095 -1.83031 0
    endloop
  endfacet
  facet normal 0 0 -1
    outer loop
      vertex 2.25 3.89711 0
      vertex 3.95 6.8416 0
      vertex 3.01109 3.34415 0
    endloop
  endfacet
  facet normal 0 0 -1
    outer loop
      vertex 4.11095 1.83031 0
      vertex 3.95 6.8416 0
      vertex 4.40166 0.935603 0
    endloop
  endfacet
  facet normal 0 0 -1
    outer loop
      vertex 4.40166 0.935603 0
      vertex 3.95 6.8416 0
      vertex 4.5 0 0
    endloop
  endfacet
  facet normal 0 0 -1
    outer loop
      vertex 4.40166 -0.935603 0
      vertex 4.5 0 0
      vertex 7.9 0 0
    endloop
  endfacet
  facet normal 0 0 -1
    outer loop
      vertex 3.64058 2.64503 0
      vertex 3.95 6.8416 0
      vertex 4.11095 1.83031 0
    endloop
  endfacet
  facet normal 0 0 -1
    outer loop
      vertex 3.01109 3.34415 0
      vertex 3.95 6.8416 0
      vertex 3.64058 2.64503 0
    endloop
  endfacet
  facet normal 0 0 -1
    outer loop
      vertex 0.470378 -4.47535 0
      vertex -3.95 -6.8416 0
      vertex -0.470378 -4.47535 0
    endloop
  endfacet
  facet normal 0 0 -1
    outer loop
      vertex 0.470378 4.47535 0
      vertex -3.95 6.8416 0
      vertex 1.39058 4.27975 0
    endloop
  endfacet
  facet normal 0 0 -1
    outer loop
      vertex -4.11095 1.83031 0
      vertex -3.95 6.8416 0
      vertex -3.64058 2.64503 0
    endloop
  endfacet
  facet normal 0 0 -1
    outer loop
      vertex -0.470378 4.47535 0
      vertex -3.95 6.8416 0
      vertex 0.470378 4.47535 0
    endloop
  endfacet
  facet normal 0 0 -1
    outer loop
      vertex -1.39058 4.27975 0
      vertex -3.95 6.8416 0
      vertex -0.470378 4.47535 0
    endloop
  endfacet
  facet normal 0 0 -1
    outer loop
      vertex -2.25 3.89711 0
      vertex -3.95 6.8416 0
      vertex -1.39058 4.27975 0
    endloop
  endfacet
  facet normal 0 0 -1
    outer loop
      vertex -3.01109 3.34415 0
      vertex -3.95 6.8416 0
      vertex -2.25 3.89711 0
    endloop
  endfacet
  facet normal 0 0 -1
    outer loop
      vertex -3.64058 2.64503 0
      vertex -3.95 6.8416 0
      vertex -3.01109 3.34415 0
    endloop
  endfacet
  facet normal 0 0 -1
    outer loop
      vertex -4.5 0 0
      vertex -3.95 6.8416 0
      vertex -4.40166 0.935603 0
    endloop
  endfacet
  facet normal 0 0 -1
    outer loop
      vertex -3.64058 -2.64503 0
      vertex -3.95 -6.8416 0
      vertex -4.11095 -1.83031 0
    endloop
  endfacet
  facet normal -0.866025 0.5 0
    outer loop
      vertex -7.9 0 0
      vertex -7.9 0 5
      vertex -3.95 6.8416 0
    endloop
  endfacet
  facet normal -0.866025 0.5 0
    outer loop
      vertex -3.95 6.8416 0
      vertex -7.9 0 5
      vertex -3.95 6.8416 5
    endloop
  endfacet
  facet normal -0.866025 -0.5 0
    outer loop
      vertex -7.9 0 0
      vertex -3.95 -6.8416 0
      vertex -7.9 0 5
    endloop
  endfacet
  facet normal -0.866025 -0.5 0
    outer loop
      vertex -7.9 0 5
      vertex -3.95 -6.8416 0
      vertex -3.95 -6.8416 5
    endloop
  endfacet
  facet normal 0 -1 0
    outer loop
      vertex -3.95 -6.8416 5
      vertex -3.95 -6.8416 0
      vertex 3.95 -6.8416 0
    endloop
  endfacet
  facet normal 0 -1 0
    outer loop
      vertex 3.95 -6.8416 5
      vertex -3.95 -6.8416 5
      vertex 3.95 -6.8416 0
    endloop
  endfacet
  facet normal 0.866025 -0.5 0
    outer loop
      vertex 3.95 -6.8416 5
      vertex 3.95 -6.8416 0
      vertex 7.9 0 0
    endloop
  endfacet
  facet normal 0.866025 -0.5 0
    outer loop
      vertex 7.9 0 5
      vertex 3.95 -6.8416 5
      vertex 7.9 0 0
    endloop
  endfacet
  facet normal 0.866025 0.5 0
    outer loop
      vertex 7.9 0 0
      vertex 3.95 6.8416 0
      vertex 3.95 6.8416 5
    endloop
  endfacet
  facet normal 0.866025 0.5 0
    outer loop
      vertex 7.9 0 5
      vertex 7.9 0 0
      vertex 3.95 6.8416 5
    endloop
  endfacet
  facet normal 0 1 0
    outer loop
      vertex -3.95 6.8416 0
      vertex -3.95 6.8416 5
      vertex 3.95 6.8416 0
    endloop
  endfacet
  facet normal 0 1 0
    outer loop
      vertex 3.95 6.8416 0
      vertex -3.95 6.8416 5
      vertex 3.95 6.8416 5
    endloop
  endfacet
  facet normal 0.994522 -0.104529 0
    outer loop
      vertex -4.40166 0.935603 0
      vertex -4.40166 0.935603 5
      vertex -4.5 0 5
    endloop
  endfacet
  facet normal 0.994522 -0.104529 0
    outer loop
      vertex -4.5 0 0
      vertex -4.40166 0.935603 0
      vertex -4.5 0 5
    endloop
  endfacet
  facet normal 0.994522 0.104529 0
    outer loop
      vertex -4.5 0 5
      vertex -4.40166 -0.935603 5
      vertex -4.40166 -0.935603 0
    endloop
  endfacet
  facet normal 0.994522 0.104529 0
    outer loop
      vertex -4.5 0 0
      vertex -4.5 0 5
      vertex -4.40166 -0.935603 0
    endloop
  endfacet
  facet normal 0.951057 -0.309016 0
    outer loop
      vertex -4.11095 1.83031 0
      vertex -4.11095 1.83031 5
      vertex -4.40166 0.935603 5
    endloop
  endfacet
  facet normal 0.951057 -0.309016 0
    outer loop
      vertex -4.40166 0.935603 0
      vertex -4.11095 1.83031 0
      vertex -4.40166 0.935603 5
    endloop
  endfacet
  facet normal 0.866025 -0.500001 0
    outer loop
      vertex -3.64058 2.64503 0
      vertex -3.64058 2.64503 5
      vertex -4.11095 1.83031 5
    endloop
  endfacet
  facet normal 0.866025 -0.500001 0
    outer loop
      vertex -4.11095 1.83031 0
      vertex -3.64058 2.64503 0
      vertex -4.11095 1.83031 5
    endloop
  endfacet
  facet normal 0.743145 -0.66913 0
    outer loop
      vertex -3.01109 3.34415 0
      vertex -3.01109 3.34415 5
      vertex -3.64058 2.64503 5
    endloop
  endfacet
  facet normal 0.743145 -0.66913 0
    outer loop
      vertex -3.64058 2.64503 0
      vertex -3.01109 3.34415 0
      vertex -3.64058 2.64503 5
    endloop
  endfacet
  facet normal 0.587785 -0.809017 0
    outer loop
      vertex -2.25 3.89711 0
      vertex -2.25 3.89711 5
      vertex -3.01109 3.34415 5
    endloop
  endfacet
  facet normal 0.587785 -0.809017 0
    outer loop
      vertex -3.01109 3.34415 0
      vertex -2.25 3.89711 0
      vertex -3.01109 3.34415 5
    endloop
  endfacet
  facet normal 0.406736 -0.913546 0
    outer loop
      vertex -1.39058 4.27975 0
      vertex -1.39058 4.27975 5
      vertex -2.25 3.89711 5
    endloop
  endfacet
  facet normal 0.406736 -0.913546 0
    outer loop
      vertex -2.25 3.89711 0
      vertex -1.39058 4.27975 0
      vertex -2.25 3.89711 5
    endloop
  endfacet
  facet normal 0.207913 -0.978147 0
    outer loop
      vertex -0.470378 4.47535 0
      vertex -0.470378 4.47535 5
      vertex -1.39058 4.27975 5
    endloop
  endfacet
  facet normal 0.207913 -0.978147 0
    outer loop
      vertex -1.39058 4.27975 0
      vertex -0.470378 4.47535 0
      vertex -1.39058 4.27975 5
    endloop
  endfacet
  facet normal 0 -1 0
    outer loop
      vertex 0.470378 4.47535 0
      vertex 0.470378 4.47535 5
      vertex -0.470378 4.47535 5
    endloop
  endfacet
  facet normal 0 -1 0
    outer loop
      vertex -0.470378 4.47535 0
      vertex 0.470378 4.47535 0
      vertex -0.470378 4.47535 5
    endloop
  endfacet
  facet normal -0.207913 -0.978147 0
    outer loop
      vertex 1.39058 4.27975 0
      vertex 1.39058 4.27975 5
      vertex 0.470378 4.47535 5
    endloop
  endfacet
  facet normal -0.207913 -0.978147 0
    outer loop
      vertex 0.470378 4.47535 0
      vertex 1.39058 4.27975 0
      vertex 0.470378 4.47535 5
    endloop
  endfacet
  facet normal -0.406736 -0.913546 0
    outer loop
      vertex 2.25 3.89711 0
      vertex 2.25 3.89711 5
      vertex 1.39058 4.27975 5
    endloop
  endfacet
  facet normal -0.406736 -0.913546 0
    outer loop
      vertex 1.39058 4.27975 0
      vertex 2.25 3.89711 0
      vertex 1.39058 4.27975 5
    endloop
  endfacet
  facet normal -0.587785 -0.809017 0
    outer loop
      vertex 3.01109 3.34415 0
      vertex 3.01109 3.34415 5
      vertex 2.25 3.89711 5
    endloop
  endfacet
  facet normal -0.587785 -0.809017 0
    outer loop
      vertex 2.25 3.89711 0
      vertex 3.01109 3.34415 0
      vertex 2.25 3.89711 5
    endloop
  endfacet
  facet normal -0.743145 -0.66913 0
    outer loop
      vertex 3.64058 2.64503 5
      vertex 3.01109 3.34415 5
      vertex 3.64058 2.64503 0
    endloop
  endfacet
  facet normal -0.743145 -0.66913 0
    outer loop
      vertex 3.64058 2.64503 0
      vertex 3.01109 3.34415 5
      vertex 3.01109 3.34415 0
    endloop
  endfacet
  facet normal -0.866025 -0.500001 0
    outer loop
      vertex 4.11095 1.83031 5
      vertex 3.64058 2.64503 5
      vertex 4.11095 1.83031 0
    endloop
  endfacet
  facet normal -0.866025 -0.500001 0
    outer loop
      vertex 4.11095 1.83031 0
      vertex 3.64058 2.64503 5
      vertex 3.64058 2.64503 0
    endloop
  endfacet
  facet normal -0.951057 -0.309016 0
    outer loop
      vertex 4.40166 0.935603 5
      vertex 4.11095 1.83031 5
      vertex 4.40166 0.935603 0
    endloop
  endfacet
  facet normal -0.951057 -0.309016 0
    outer loop
      vertex 4.40166 0.935603 0
      vertex 4.11095 1.83031 5
      vertex 4.11095 1.83031 0
    endloop
  endfacet
  facet normal -0.994522 -0.104529 0
    outer loop
      vertex 4.5 0 5
      vertex 4.40166 0.935603 5
      vertex 4.5 0 0
    endloop
  endfacet
  facet normal -0.994522 -0.104529 0
    outer loop
      vertex 4.5 0 0
      vertex 4.40166 0.935603 5
      vertex 4.40166 0.935603 0
    endloop
  endfacet
  facet normal -0.994522 0.104529 0
    outer loop
      vertex 4.5 0 5
      vertex 4.5 0 0
      vertex 4.40166 -0.935603 5
    endloop
  endfacet
  facet normal -0.994522 0.104529 0
    outer loop
      vertex 4.40166 -0.935603 5
      vertex 4.5 0 0
      vertex 4.40166 -0.935603 0
    endloop
  endfacet
  facet normal -0.951057 0.309016 0
    outer loop
      vertex 4.40166 -0.935603 5
      vertex 4.40166 -0.935603 0
      vertex 4.11095 -1.83031 5
    endloop
  endfacet
  facet normal -0.951057 0.309016 0
    outer loop
      vertex 4.11095 -1.83031 5
      vertex 4.40166 -0.935603 0
      vertex 4.11095 -1.83031 0
    endloop
  endfacet
  facet normal -0.866025 0.500001 0
    outer loop
      vertex 4.11095 -1.83031 5
      vertex 4.11095 -1.83031 0
      vertex 3.64058 -2.64503 5
    endloop
  endfacet
  facet normal -0.866025 0.500001 0
    outer loop
      vertex 3.64058 -2.64503 5
      vertex 4.11095 -1.83031 0
      vertex 3.64058 -2.64503 0
    endloop
  endfacet
  facet normal -0.743145 0.66913 0
    outer loop
      vertex 3.64058 -2.64503 5
      vertex 3.64058 -2.64503 0
      vertex 3.01109 -3.34415 5
    endloop
  endfacet
  facet normal -0.743145 0.66913 0
    outer loop
      vertex 3.01109 -3.34415 5
      vertex 3.64058 -2.64503 0
      vertex 3.01109 -3.34415 0
    endloop
  endfacet
  facet normal -0.587785 0.809017 0
    outer loop
      vertex 3.01109 -3.34415 5
      vertex 3.01109 -3.34415 0
      vertex 2.25 -3.89711 5
    endloop
  endfacet
  facet normal -0.587785 0.809017 0
    outer loop
      vertex 2.25 -3.89711 5
      vertex 3.01109 -3.34415 0
      vertex 2.25 -3.89711 0
    endloop
  endfacet
  facet normal -0.406736 0.913546 0
    outer loop
      vertex 2.25 -3.89711 5
      vertex 2.25 -3.89711 0
      vertex 1.39058 -4.27975 5
    endloop
  endfacet
  facet normal -0.406736 0.913546 0
    outer loop
      vertex 1.39058 -4.27975 5
      vertex 2.25 -3.89711 0
      vertex 1.39058 -4.27975 0
    endloop
  endfacet
  facet normal -0.207913 0.978147 0
    outer loop
      vertex 1.39058 -4.27975 5
      vertex 1.39058 -4.27975 0
      vertex 0.470378 -4.47535 5
    endloop
  endfacet
  facet normal -0.207913 0.978147 0
    outer loop
      vertex 0.470378 -4.47535 5
      vertex 1.39058 -4.27975 0
      vertex 0.470378 -4.47535 0
    endloop
  endfacet
  facet normal 0 1 0
    outer loop
      vertex 0.470378 -4.47535 5
      vertex 0.470378 -4.47535 0
      vertex -0.470378 -4.47535 5
    endloop
  endfacet
  facet normal 0 1 0
    outer loop
      vertex -0.470378 -4.47535 5
      vertex 0.470378 -4.47535 0
      vertex -0.470378 -4.47535 0
    endloop
  endfacet
  facet normal 0.207913 0.978147 0
    outer loop
      vertex -0.470378 -4.47535 5
      vertex -0.470378 -4.47535 0
      vertex -1.39058 -4.27975 5
    endloop
  endfacet
  facet normal 0.207913 0.978147 0
    outer loop
      vertex -1.39058 -4.27975 5
      vertex -0.470378 -4.47535 0
      vertex -1.39058 -4.27975 0
    endloop
  endfacet
  facet normal 0.406736 0.913546 0
    outer loop
      vertex -1.39058 -4.27975 5
      vertex -1.39058 -4.27975 0
      vertex -2.25 -3.89711 5
    endloop
  endfacet
  facet normal 0.406736 0.913546 0
    outer loop
      vertex -2.25 -3.89711 5
      vertex -1.39058 -4.27975 0
      vertex -2.25 -3.89711 0
    endloop
  endfacet
  facet normal 0.587785 0.809017 0
    outer loop
      vertex -2.25 -3.89711 5
      vertex -2.25 -3.89711 0
      vertex -3.01109 -3.34415 5
    endloop
  endfacet
  facet normal 0.587785 0.809017 0
    outer loop
      vertex -3.01109 -3.34415 5
      vertex -2.25 -3.89711 0
      vertex -3.01109 -3.34415 0
    endloop
  endfacet
  facet normal 0.743145 0.66913 0
    outer loop
      vertex -3.64058 -2.64503 5
      vertex -3.01109 -3.34415 5
      vertex -3.01109 -3.34415 0
    endloop
  endfacet
  facet normal 0.743145 0.66913 0
    outer loop
      vertex -3.64058 -2.64503 0
      vertex -3.64058 -2.64503 5
      vertex -3.01109 -3.34415 0
    endloop
  endfacet
  facet normal 0.866025 0.500001 0
    outer loop
      vertex -4.11095 -1.83031 5
      vertex -3.64058 -2.64503 5
      vertex -3.64058 -2.64503 0
    endloop
  endfacet
  facet normal 0.866025 0.500001 0
    outer loop
      vertex -4.11095 -1.83031 0
      vertex -4.11095 -1.83031 5
      vertex -3.64058 -2.64503 0
    endloop
  endfacet
  facet normal 0.951057 0.309016 0
    outer loop
      vertex -4.40166 -0.935603 5
      vertex -4.11095 -1.83031 5
      vertex -4.11095 -1.83031 0
    endloop
  endfacet
  facet normal 0.951057 0.309016 0
    outer loop
      vertex -4.40166 -0.935603 0
      vertex -4.40166 -0.935603 5
      vertex -4.11095 -1.83031 0
    endloop
  endfacet
  facet normal 0 0 1
    outer loop
      vertex -4.40166 -0.935603 5
      vertex -7.9 0 5
      vertex -3.95 -6.8416 5
    endloop
  endfacet
  facet normal 0 0 1
    outer loop
      vertex -0.470378 4.47535 5
      vertex 0.470378 4.47535 5
      vertex -3.95 6.8416 5
    endloop
  endfacet
  facet normal 0 0 1
    outer loop
      vertex -4.11095 -1.83031 5
      vertex -4.40166 -0.935603 5
      vertex -3.95 -6.8416 5
    endloop
  endfacet
  facet normal 0 0 1
    outer loop
      vertex -4.5 0 5
      vertex -7.9 0 5
      vertex -4.40166 -0.935603 5
    endloop
  endfacet
  facet normal 0 0 1
    outer loop
      vertex -3.95 6.8416 5
      vertex -7.9 0 5
      vertex -4.5 0 5
    endloop
  endfacet
  facet normal 0 0 1
    outer loop
      vertex -4.11095 1.83031 5
      vertex -3.64058 2.64503 5
      vertex -3.95 6.8416 5
    endloop
  endfacet
  facet normal 0 0 1
    outer loop
      vertex -3.95 6.8416 5
      vertex -4.5 0 5
      vertex -4.40166 0.935603 5
    endloop
  endfacet
  facet normal 0 0 1
    outer loop
      vertex -3.01109 3.34415 5
      vertex -3.95 6.8416 5
      vertex -3.64058 2.64503 5
    endloop
  endfacet
  facet normal 0 0 1
    outer loop
      vertex -2.25 3.89711 5
      vertex -3.95 6.8416 5
      vertex -3.01109 3.34415 5
    endloop
  endfacet
  facet normal 0 0 1
    outer loop
      vertex -3.64058 -2.64503 5
      vertex -4.11095 -1.83031 5
      vertex -3.95 -6.8416 5
    endloop
  endfacet
  facet normal 0 0 1
    outer loop
      vertex 3.64058 2.64503 5
      vertex 4.11095 1.83031 5
      vertex 7.9 0 5
    endloop
  endfacet
  facet normal 0 0 1
    outer loop
      vertex -0.470378 4.47535 5
      vertex -3.95 6.8416 5
      vertex -1.39058 4.27975 5
    endloop
  endfacet
  facet normal 0 0 1
    outer loop
      vertex 3.01109 3.34415 5
      vertex 3.64058 2.64503 5
      vertex 7.9 0 5
    endloop
  endfacet
  facet normal 0 0 1
    outer loop
      vertex 3.95 6.8416 5
      vertex -3.95 6.8416 5
      vertex 0.470378 4.47535 5
    endloop
  endfacet
  facet normal 0 0 1
    outer loop
      vertex 3.95 6.8416 5
      vertex 0.470378 4.47535 5
      vertex 1.39058 4.27975 5
    endloop
  endfacet
  facet normal 0 0 1
    outer loop
      vertex 3.95 6.8416 5
      vertex 2.25 3.89711 5
      vertex 7.9 0 5
    endloop
  endfacet
  facet normal 0 0 1
    outer loop
      vertex 3.95 6.8416 5
      vertex 1.39058 4.27975 5
      vertex 2.25 3.89711 5
    endloop
  endfacet
  facet normal 0 0 1
    outer loop
      vertex 2.25 3.89711 5
      vertex 3.01109 3.34415 5
      vertex 7.9 0 5
    endloop
  endfacet
  facet normal 0 0 1
    outer loop
      vertex 4.40166 -0.935603 5
      vertex 4.11095 -1.83031 5
      vertex 3.95 -6.8416 5
    endloop
  endfacet
  facet normal 0 0 1
    outer loop
      vertex 3.01109 -3.34415 5
      vertex 2.25 -3.89711 5
      vertex 3.95 -6.8416 5
    endloop
  endfacet
  facet normal 0 0 1
    outer loop
      vertex 7.9 0 5
      vertex 4.5 0 5
      vertex 3.95 -6.8416 5
    endloop
  endfacet
  facet normal 0 0 1
    outer loop
      vertex 7.9 0 5
      vertex 4.40166 0.935603 5
      vertex 4.5 0 5
    endloop
  endfacet
  facet normal 0 0 1
    outer loop
      vertex 4.5 0 5
      vertex 4.40166 -0.935603 5
      vertex 3.95 -6.8416 5
    endloop
  endfacet
  facet normal 0 0 1
    outer loop
      vertex 4.11095 -1.83031 5
      vertex 3.64058 -2.64503 5
      vertex 3.95 -6.8416 5
    endloop
  endfacet
  facet normal 0 0 1
    outer loop
      vertex 3.64058 -2.64503 5
      vertex 3.01109 -3.34415 5
      vertex 3.95 -6.8416 5
    endloop
  endfacet
  facet normal 0 0 1
    outer loop
      vertex 4.11095 1.83031 5
      vertex 4.40166 0.935603 5
      vertex 7.9 0 5
    endloop
  endfacet
  facet normal 0 0 1
    outer loop
      vertex 3.95 -6.8416 5
      vertex 1.39058 -4.27975 5
      vertex -3.95 -6.8416 5
    endloop
  endfacet
  facet normal 0 0 1
    outer loop
      vertex 1.39058 -4.27975 5
      vertex 0.470378 -4.47535 5
      vertex -3.95 -6.8416 5
    endloop
  endfacet
  facet normal 0 0 1
    outer loop
      vertex 0.470378 -4.47535 5
      vertex -0.470378 -4.47535 5
      vertex -3.95 -6.8416 5
    endloop
  endfacet
  facet normal 0 0 1
    outer loop
      vertex -0.470378 -4.47535 5
      vertex -1.39058 -4.27975 5
      vertex -3.95 -6.8416 5
    endloop
  endfacet
  facet normal 0 0 1
    outer loop
      vertex -1.39058 -4.27975 5
      vertex -2.25 -3.89711 5
      vertex -3.95 -6.8416 5
    endloop
  endfacet
  facet normal 0 0 1
    outer loop
      vertex -2.25 -3.89711 5
      vertex -3.01109 -3.34415 5
      vertex -3.95 -6.8416 5
    endloop
  endfacet
  facet normal 0 0 1
    outer loop
      vertex -3.01109 -3.34415 5
      vertex -3.64058 -2.64503 5
      vertex -3.95 -6.8416 5
    endloop
  endfacet
  facet normal 0 0 1
    outer loop
      vertex -4.40166 0.935603 5
      vertex -4.11095 1.83031 5
      vertex -3.95 6.8416 5
    endloop
  endfacet
  facet normal 0 0 1
    outer loop
      vertex -2.25 3.89711 5
      vertex -1.39058 4.27975 5
      vertex -3.95 6.8416 5
    endloop
  endfacet
  facet normal 0 0 1
    outer loop
      vertex 2.25 -3.89711 5
      vertex 1.39058 -4.27975 5
      vertex 3.95 -6.8416 5
    endloop
  endfacet
endsolid OpenSCAD_Model
