solid OpenSCAD_Model
  facet normal -1 0 0
    outer loop
      vertex -19.5 -1.11022e-015 -5
      vertex -19.5 -12 -5
      vertex -19.5 1.11022e-015 5
    endloop
  endfacet
  facet normal -1 0 0
    outer loop
      vertex -19.5 1.11022e-015 5
      vertex -19.5 -12 -5
      vertex -19.5 -12 5
    endloop
  endfacet
  facet normal 0 -2.22045e-016 -1
    outer loop
      vertex -19.5 -1.11022e-015 -5
      vertex -12.5 -1.11022e-015 -5
      vertex -19.5 -12 -5
    endloop
  endfacet
  facet normal 0 -2.22045e-016 -1
    outer loop
      vertex -19.5 -12 -5
      vertex -12.5 -1.11022e-015 -5
      vertex -12.5 -10 -5
    endloop
  endfacet
  facet normal 0 -2.22045e-016 -1
    outer loop
      vertex -19.5 -12 -5
      vertex -12.5 -10 -5
      vertex 12.5 -10 -5
    endloop
  endfacet
  facet normal 0 -2.22045e-016 -1
    outer loop
      vertex 12.5 -10 -5
      vertex 12.5 -1.11022e-015 -5
      vertex 19.5 -1.11022e-015 -5
    endloop
  endfacet
  facet normal 0 -2.22045e-016 -1
    outer loop
      vertex 12.5 -10 -5
      vertex 19.5 -1.11022e-015 -5
      vertex 19.5 -12 -5
    endloop
  endfacet
  facet normal 0 -2.22045e-016 -1
    outer loop
      vertex 12.5 -10 -5
      vertex 19.5 -12 -5
      vertex -19.5 -12 -5
    endloop
  endfacet
  facet normal 0 1 -2.22045e-016
    outer loop
      vertex -14.6183 2.69457e-016 1.21352
      vertex -19.5 1.11022e-015 5
      vertex -12.5 1.11022e-015 5
    endloop
  endfacet
  facet normal 0 1 -2.22045e-016
    outer loop
      vertex -19.5 -1.11022e-015 -5
      vertex -19.5 1.11022e-015 5
      vertex -17 0 0
    endloop
  endfacet
  facet normal 0 1 -2.22045e-016
    outer loop
      vertex -19.5 -1.11022e-015 -5
      vertex -17 0 0
      vertex -16.9266 -1.02923e-016 -0.463525
    endloop
  endfacet
  facet normal 0 1 -2.22045e-016
    outer loop
      vertex -19.5 -1.11022e-015 -5
      vertex -16.9266 -1.02923e-016 -0.463525
      vertex -16.7135 -1.95772e-016 -0.881678
    endloop
  endfacet
  facet normal 0 1 -2.22045e-016
    outer loop
      vertex -19.5 -1.11022e-015 -5
      vertex -16.7135 -1.95772e-016 -0.881678
      vertex -16.3817 -2.69457e-016 -1.21352
    endloop
  endfacet
  facet normal 0 1 -2.22045e-016
    outer loop
      vertex -19.5 -1.11022e-015 -5
      vertex -16.3817 -2.69457e-016 -1.21352
      vertex -12.5 -1.11022e-015 -5
    endloop
  endfacet
  facet normal 0 1 -2.22045e-016
    outer loop
      vertex -15.5 -3.33067e-016 -1.5
      vertex -12.5 -1.11022e-015 -5
      vertex -15.9635 -3.16766e-016 -1.42658
    endloop
  endfacet
  facet normal 0 1 -2.22045e-016
    outer loop
      vertex -14.6183 -2.69457e-016 -1.21352
      vertex -12.5 -1.11022e-015 -5
      vertex -15.0365 -3.16766e-016 -1.42658
    endloop
  endfacet
  facet normal 0 1 -2.22045e-016
    outer loop
      vertex -16.9266 1.02923e-016 0.463525
      vertex -19.5 1.11022e-015 5
      vertex -16.7135 1.95772e-016 0.881678
    endloop
  endfacet
  facet normal 0 1 -2.22045e-016
    outer loop
      vertex -15.5 -3.33067e-016 -1.5
      vertex -15.0365 -3.16766e-016 -1.42658
      vertex -12.5 -1.11022e-015 -5
    endloop
  endfacet
  facet normal 0 1 -2.22045e-016
    outer loop
      vertex -14.0734 1.02923e-016 0.463525
      vertex -12.5 1.11022e-015 5
      vertex -14 0 0
    endloop
  endfacet
  facet normal 0 1 -2.22045e-016
    outer loop
      vertex -12.5 -1.11022e-015 -5
      vertex -14.6183 -2.69457e-016 -1.21352
      vertex -14.2865 -1.95772e-016 -0.881678
    endloop
  endfacet
  facet normal 0 1 -2.22045e-016
    outer loop
      vertex -12.5 -1.11022e-015 -5
      vertex -14.2865 -1.95772e-016 -0.881678
      vertex -14.0734 -1.02923e-016 -0.463525
    endloop
  endfacet
  facet normal 0 1 -2.22045e-016
    outer loop
      vertex -12.5 -1.11022e-015 -5
      vertex -14.0734 -1.02923e-016 -0.463525
      vertex -12.5 1.11022e-015 5
    endloop
  endfacet
  facet normal 0 1 -2.22045e-016
    outer loop
      vertex -14.0734 -1.02923e-016 -0.463525
      vertex -14 0 0
      vertex -12.5 1.11022e-015 5
    endloop
  endfacet
  facet normal 0 1 -2.22045e-016
    outer loop
      vertex -16.7135 1.95772e-016 0.881678
      vertex -19.5 1.11022e-015 5
      vertex -16.3817 2.69457e-016 1.21352
    endloop
  endfacet
  facet normal 0 1 -2.22045e-016
    outer loop
      vertex -15.0365 3.16766e-016 1.42658
      vertex -19.5 1.11022e-015 5
      vertex -14.6183 2.69457e-016 1.21352
    endloop
  endfacet
  facet normal 0 1 -2.22045e-016
    outer loop
      vertex -15.5 3.33067e-016 1.5
      vertex -19.5 1.11022e-015 5
      vertex -15.0365 3.16766e-016 1.42658
    endloop
  endfacet
  facet normal 0 1 -2.22045e-016
    outer loop
      vertex -14.0734 1.02923e-016 0.463525
      vertex -14.2865 1.95772e-016 0.881678
      vertex -12.5 1.11022e-015 5
    endloop
  endfacet
  facet normal 0 1 -2.22045e-016
    outer loop
      vertex -14.2865 1.95772e-016 0.881678
      vertex -14.6183 2.69457e-016 1.21352
      vertex -12.5 1.11022e-015 5
    endloop
  endfacet
  facet normal 0 1 -2.22045e-016
    outer loop
      vertex -15.9635 3.16766e-016 1.42658
      vertex -19.5 1.11022e-015 5
      vertex -15.5 3.33067e-016 1.5
    endloop
  endfacet
  facet normal 0 1 -2.22045e-016
    outer loop
      vertex -16.3817 2.69457e-016 1.21352
      vertex -19.5 1.11022e-015 5
      vertex -15.9635 3.16766e-016 1.42658
    endloop
  endfacet
  facet normal 0 1 -2.22045e-016
    outer loop
      vertex -17 0 0
      vertex -19.5 1.11022e-015 5
      vertex -16.9266 1.02923e-016 0.463525
    endloop
  endfacet
  facet normal 0 1 -2.22045e-016
    outer loop
      vertex -15.9635 -3.16766e-016 -1.42658
      vertex -12.5 -1.11022e-015 -5
      vertex -16.3817 -2.69457e-016 -1.21352
    endloop
  endfacet
  facet normal 0 2.22045e-016 1
    outer loop
      vertex -12.5 1.11022e-015 5
      vertex -19.5 1.11022e-015 5
      vertex -19.5 -12 5
    endloop
  endfacet
  facet normal 0 2.22045e-016 1
    outer loop
      vertex -12.5 -10 5
      vertex -12.5 1.11022e-015 5
      vertex -19.5 -12 5
    endloop
  endfacet
  facet normal 0 2.22045e-016 1
    outer loop
      vertex 19.5 1.11022e-015 5
      vertex 12.5 1.11022e-015 5
      vertex 19.5 -12 5
    endloop
  endfacet
  facet normal 0 2.22045e-016 1
    outer loop
      vertex 19.5 -12 5
      vertex 12.5 -10 5
      vertex -19.5 -12 5
    endloop
  endfacet
  facet normal 0 2.22045e-016 1
    outer loop
      vertex 12.5 -10 5
      vertex -12.5 -10 5
      vertex -19.5 -12 5
    endloop
  endfacet
  facet normal 0 2.22045e-016 1
    outer loop
      vertex 12.5 1.11022e-015 5
      vertex 12.5 -10 5
      vertex 19.5 -12 5
    endloop
  endfacet
  facet normal 0 -1 2.22045e-016
    outer loop
      vertex -14.6183 -12 -1.21352
      vertex -19.5 -12 -5
      vertex 19.5 -12 -5
    endloop
  endfacet
  facet normal 0 -1 2.22045e-016
    outer loop
      vertex 15.0365 -12 -1.42658
      vertex -19.5 -12 5
      vertex 19.5 -12 -5
    endloop
  endfacet
  facet normal 0 -1 2.22045e-016
    outer loop
      vertex -14.6183 -12 -1.21352
      vertex -15.0365 -12 -1.42658
      vertex -19.5 -12 -5
    endloop
  endfacet
  facet normal 0 -1 2.22045e-016
    outer loop
      vertex -19.5 -12 5
      vertex -19.5 -12 -5
      vertex -16.9266 -12 -0.463525
    endloop
  endfacet
  facet normal 0 -1 2.22045e-016
    outer loop
      vertex -14.0734 -12 -0.463525
      vertex -14.2865 -12 -0.881678
      vertex 19.5 -12 -5
    endloop
  endfacet
  facet normal 0 -1 2.22045e-016
    outer loop
      vertex -19.5 -12 5
      vertex -16.9266 -12 -0.463525
      vertex -17 -12 2.66454e-015
    endloop
  endfacet
  facet normal 0 -1 2.22045e-016
    outer loop
      vertex -14 -12 2.66454e-015
      vertex -14.0734 -12 -0.463525
      vertex 19.5 -12 -5
    endloop
  endfacet
  facet normal 0 -1 2.22045e-016
    outer loop
      vertex -19.5 -12 5
      vertex -17 -12 2.66454e-015
      vertex -16.9266 -12 0.463525
    endloop
  endfacet
  facet normal 0 -1 2.22045e-016
    outer loop
      vertex 15.5 -12 1.5
      vertex 15.9635 -12 1.42659
      vertex 19.5 -12 5
    endloop
  endfacet
  facet normal 0 -1 2.22045e-016
    outer loop
      vertex -19.5 -12 5
      vertex -16.9266 -12 0.463525
      vertex -16.7135 -12 0.881678
    endloop
  endfacet
  facet normal 0 -1 2.22045e-016
    outer loop
      vertex -19.5 -12 5
      vertex -16.7135 -12 0.881678
      vertex -16.3817 -12 1.21353
    endloop
  endfacet
  facet normal 0 -1 2.22045e-016
    outer loop
      vertex -14.2865 -12 0.881678
      vertex -14.0734 -12 0.463525
      vertex 19.5 -12 -5
    endloop
  endfacet
  facet normal 0 -1 2.22045e-016
    outer loop
      vertex -19.5 -12 5
      vertex -16.3817 -12 1.21353
      vertex -15.9635 -12 1.42659
    endloop
  endfacet
  facet normal 0 -1 2.22045e-016
    outer loop
      vertex -14.6183 -12 1.21353
      vertex -14.2865 -12 0.881678
      vertex 19.5 -12 -5
    endloop
  endfacet
  facet normal 0 -1 2.22045e-016
    outer loop
      vertex -19.5 -12 5
      vertex -15.9635 -12 1.42659
      vertex -15.5 -12 1.5
    endloop
  endfacet
  facet normal 0 -1 2.22045e-016
    outer loop
      vertex -19.5 -12 5
      vertex -15.0365 -12 1.42659
      vertex 19.5 -12 -5
    endloop
  endfacet
  facet normal 0 -1 2.22045e-016
    outer loop
      vertex -19.5 -12 5
      vertex -15.5 -12 1.5
      vertex -15.0365 -12 1.42659
    endloop
  endfacet
  facet normal 0 -1 2.22045e-016
    outer loop
      vertex -14.2865 -12 -0.881678
      vertex -14.6183 -12 -1.21352
      vertex 19.5 -12 -5
    endloop
  endfacet
  facet normal 0 -1 2.22045e-016
    outer loop
      vertex 14.6183 -12 1.21353
      vertex 15.0365 -12 1.42659
      vertex 19.5 -12 5
    endloop
  endfacet
  facet normal 0 -1 2.22045e-016
    outer loop
      vertex -15.5 -12 -1.5
      vertex -19.5 -12 -5
      vertex -15.0365 -12 -1.42658
    endloop
  endfacet
  facet normal 0 -1 2.22045e-016
    outer loop
      vertex -15.9635 -12 -1.42658
      vertex -19.5 -12 -5
      vertex -15.5 -12 -1.5
    endloop
  endfacet
  facet normal 0 -1 2.22045e-016
    outer loop
      vertex -16.3817 -12 -1.21352
      vertex -19.5 -12 -5
      vertex -15.9635 -12 -1.42658
    endloop
  endfacet
  facet normal 0 -1 2.22045e-016
    outer loop
      vertex -16.7135 -12 -0.881678
      vertex -19.5 -12 -5
      vertex -16.3817 -12 -1.21352
    endloop
  endfacet
  facet normal 0 -1 2.22045e-016
    outer loop
      vertex -16.9266 -12 -0.463525
      vertex -19.5 -12 -5
      vertex -16.7135 -12 -0.881678
    endloop
  endfacet
  facet normal 0 -1 2.22045e-016
    outer loop
      vertex 14 -12 2.66454e-015
      vertex -19.5 -12 5
      vertex 14.0734 -12 -0.463525
    endloop
  endfacet
  facet normal 0 -1 2.22045e-016
    outer loop
      vertex 16.9266 -12 0.463525
      vertex 17 -12 2.66454e-015
      vertex 19.5 -12 -5
    endloop
  endfacet
  facet normal 0 -1 2.22045e-016
    outer loop
      vertex 14.0734 -12 0.463525
      vertex -19.5 -12 5
      vertex 14 -12 2.66454e-015
    endloop
  endfacet
  facet normal 0 -1 2.22045e-016
    outer loop
      vertex 14.2865 -12 0.881678
      vertex -19.5 -12 5
      vertex 14.0734 -12 0.463525
    endloop
  endfacet
  facet normal 0 -1 2.22045e-016
    outer loop
      vertex 14.6183 -12 1.21353
      vertex -19.5 -12 5
      vertex 14.2865 -12 0.881678
    endloop
  endfacet
  facet normal 0 -1 2.22045e-016
    outer loop
      vertex 15.0365 -12 1.42659
      vertex 15.5 -12 1.5
      vertex 19.5 -12 5
    endloop
  endfacet
  facet normal 0 -1 2.22045e-016
    outer loop
      vertex 19.5 -12 5
      vertex -19.5 -12 5
      vertex 14.6183 -12 1.21353
    endloop
  endfacet
  facet normal 0 -1 2.22045e-016
    outer loop
      vertex 17 -12 2.66454e-015
      vertex 16.9266 -12 -0.463525
      vertex 19.5 -12 -5
    endloop
  endfacet
  facet normal 0 -1 2.22045e-016
    outer loop
      vertex 15.5 -12 -1.5
      vertex 15.0365 -12 -1.42658
      vertex 19.5 -12 -5
    endloop
  endfacet
  facet normal 0 -1 2.22045e-016
    outer loop
      vertex 19.5 -12 5
      vertex 15.9635 -12 1.42659
      vertex 16.3817 -12 1.21353
    endloop
  endfacet
  facet normal 0 -1 2.22045e-016
    outer loop
      vertex 19.5 -12 5
      vertex 16.3817 -12 1.21353
      vertex 16.7135 -12 0.881678
    endloop
  endfacet
  facet normal 0 -1 2.22045e-016
    outer loop
      vertex 19.5 -12 5
      vertex 16.9266 -12 0.463525
      vertex 19.5 -12 -5
    endloop
  endfacet
  facet normal 0 -1 2.22045e-016
    outer loop
      vertex 19.5 -12 5
      vertex 16.7135 -12 0.881678
      vertex 16.9266 -12 0.463525
    endloop
  endfacet
  facet normal 0 -1 2.22045e-016
    outer loop
      vertex 16.9266 -12 -0.463525
      vertex 16.7135 -12 -0.881678
      vertex 19.5 -12 -5
    endloop
  endfacet
  facet normal 0 -1 2.22045e-016
    outer loop
      vertex 16.7135 -12 -0.881678
      vertex 16.3817 -12 -1.21352
      vertex 19.5 -12 -5
    endloop
  endfacet
  facet normal 0 -1 2.22045e-016
    outer loop
      vertex 16.3817 -12 -1.21352
      vertex 15.9635 -12 -1.42658
      vertex 19.5 -12 -5
    endloop
  endfacet
  facet normal 0 -1 2.22045e-016
    outer loop
      vertex 15.9635 -12 -1.42658
      vertex 15.5 -12 -1.5
      vertex 19.5 -12 -5
    endloop
  endfacet
  facet normal 0 -1 2.22045e-016
    outer loop
      vertex 14.6183 -12 -1.21352
      vertex -19.5 -12 5
      vertex 15.0365 -12 -1.42658
    endloop
  endfacet
  facet normal 0 -1 2.22045e-016
    outer loop
      vertex 14.2865 -12 -0.881678
      vertex -19.5 -12 5
      vertex 14.6183 -12 -1.21352
    endloop
  endfacet
  facet normal 0 -1 2.22045e-016
    outer loop
      vertex 14.0734 -12 -0.463525
      vertex -19.5 -12 5
      vertex 14.2865 -12 -0.881678
    endloop
  endfacet
  facet normal 0 -1 2.22045e-016
    outer loop
      vertex -15.0365 -12 1.42659
      vertex -14.6183 -12 1.21353
      vertex 19.5 -12 -5
    endloop
  endfacet
  facet normal 0 -1 2.22045e-016
    outer loop
      vertex -14.0734 -12 0.463525
      vertex -14 -12 2.66454e-015
      vertex 19.5 -12 -5
    endloop
  endfacet
  facet normal 1 0 0
    outer loop
      vertex 19.5 -12 -5
      vertex 19.5 -1.11022e-015 -5
      vertex 19.5 1.11022e-015 5
    endloop
  endfacet
  facet normal 1 0 0
    outer loop
      vertex 19.5 -12 5
      vertex 19.5 -12 -5
      vertex 19.5 1.11022e-015 5
    endloop
  endfacet
  facet normal 0 1 -2.22045e-016
    outer loop
      vertex 16.3817 2.69457e-016 1.21352
      vertex 12.5 1.11022e-015 5
      vertex 19.5 1.11022e-015 5
    endloop
  endfacet
  facet normal 0 1 -2.22045e-016
    outer loop
      vertex 12.5 -1.11022e-015 -5
      vertex 12.5 1.11022e-015 5
      vertex 14 0 0
    endloop
  endfacet
  facet normal 0 1 -2.22045e-016
    outer loop
      vertex 12.5 -1.11022e-015 -5
      vertex 14 0 0
      vertex 14.0734 -1.02923e-016 -0.463525
    endloop
  endfacet
  facet normal 0 1 -2.22045e-016
    outer loop
      vertex 12.5 -1.11022e-015 -5
      vertex 14.0734 -1.02923e-016 -0.463525
      vertex 14.2865 -1.95772e-016 -0.881678
    endloop
  endfacet
  facet normal 0 1 -2.22045e-016
    outer loop
      vertex 12.5 -1.11022e-015 -5
      vertex 14.2865 -1.95772e-016 -0.881678
      vertex 14.6183 -2.69457e-016 -1.21352
    endloop
  endfacet
  facet normal 0 1 -2.22045e-016
    outer loop
      vertex 12.5 -1.11022e-015 -5
      vertex 14.6183 -2.69457e-016 -1.21352
      vertex 19.5 -1.11022e-015 -5
    endloop
  endfacet
  facet normal 0 1 -2.22045e-016
    outer loop
      vertex 15.5 -3.33067e-016 -1.5
      vertex 19.5 -1.11022e-015 -5
      vertex 15.0365 -3.16766e-016 -1.42658
    endloop
  endfacet
  facet normal 0 1 -2.22045e-016
    outer loop
      vertex 15.9635 -3.16766e-016 -1.42658
      vertex 19.5 -1.11022e-015 -5
      vertex 15.5 -3.33067e-016 -1.5
    endloop
  endfacet
  facet normal 0 1 -2.22045e-016
    outer loop
      vertex 16.7135 -1.95772e-016 -0.881678
      vertex 19.5 -1.11022e-015 -5
      vertex 16.3817 -2.69457e-016 -1.21352
    endloop
  endfacet
  facet normal 0 1 -2.22045e-016
    outer loop
      vertex 14.2865 1.95772e-016 0.881678
      vertex 12.5 1.11022e-015 5
      vertex 14.6183 2.69457e-016 1.21352
    endloop
  endfacet
  facet normal 0 1 -2.22045e-016
    outer loop
      vertex 15.9635 -3.16766e-016 -1.42658
      vertex 16.3817 -2.69457e-016 -1.21352
      vertex 19.5 -1.11022e-015 -5
    endloop
  endfacet
  facet normal 0 1 -2.22045e-016
    outer loop
      vertex 14.6183 2.69457e-016 1.21352
      vertex 12.5 1.11022e-015 5
      vertex 15.0365 3.16766e-016 1.42658
    endloop
  endfacet
  facet normal 0 1 -2.22045e-016
    outer loop
      vertex 19.5 -1.11022e-015 -5
      vertex 16.7135 -1.95772e-016 -0.881678
      vertex 16.9266 -1.02923e-016 -0.463525
    endloop
  endfacet
  facet normal 0 1 -2.22045e-016
    outer loop
      vertex 19.5 -1.11022e-015 -5
      vertex 16.9266 -1.02923e-016 -0.463525
      vertex 19.5 1.11022e-015 5
    endloop
  endfacet
  facet normal 0 1 -2.22045e-016
    outer loop
      vertex 15.0365 3.16766e-016 1.42658
      vertex 12.5 1.11022e-015 5
      vertex 15.5 3.33067e-016 1.5
    endloop
  endfacet
  facet normal 0 1 -2.22045e-016
    outer loop
      vertex 15.9635 3.16766e-016 1.42658
      vertex 12.5 1.11022e-015 5
      vertex 16.3817 2.69457e-016 1.21352
    endloop
  endfacet
  facet normal 0 1 -2.22045e-016
    outer loop
      vertex 15.5 3.33067e-016 1.5
      vertex 12.5 1.11022e-015 5
      vertex 15.9635 3.16766e-016 1.42658
    endloop
  endfacet
  facet normal 0 1 -2.22045e-016
    outer loop
      vertex 17 0 0
      vertex 16.9266 1.02923e-016 0.463525
      vertex 19.5 1.11022e-015 5
    endloop
  endfacet
  facet normal 0 1 -2.22045e-016
    outer loop
      vertex 16.9266 1.02923e-016 0.463525
      vertex 16.7135 1.95772e-016 0.881678
      vertex 19.5 1.11022e-015 5
    endloop
  endfacet
  facet normal 0 1 -2.22045e-016
    outer loop
      vertex 16.7135 1.95772e-016 0.881678
      vertex 16.3817 2.69457e-016 1.21352
      vertex 19.5 1.11022e-015 5
    endloop
  endfacet
  facet normal 0 1 -2.22045e-016
    outer loop
      vertex 17 0 0
      vertex 19.5 1.11022e-015 5
      vertex 16.9266 -1.02923e-016 -0.463525
    endloop
  endfacet
  facet normal 0 1 -2.22045e-016
    outer loop
      vertex 14.0734 1.02923e-016 0.463525
      vertex 12.5 1.11022e-015 5
      vertex 14.2865 1.95772e-016 0.881678
    endloop
  endfacet
  facet normal 0 1 -2.22045e-016
    outer loop
      vertex 14 0 0
      vertex 12.5 1.11022e-015 5
      vertex 14.0734 1.02923e-016 0.463525
    endloop
  endfacet
  facet normal 0 1 -2.22045e-016
    outer loop
      vertex 15.0365 -3.16766e-016 -1.42658
      vertex 19.5 -1.11022e-015 -5
      vertex 14.6183 -2.69457e-016 -1.21352
    endloop
  endfacet
  facet normal -1 0 0
    outer loop
      vertex 12.5 -10 5
      vertex 12.5 1.11022e-015 5
      vertex 12.5 -10 -5
    endloop
  endfacet
  facet normal -1 0 0
    outer loop
      vertex 12.5 -10 -5
      vertex 12.5 1.11022e-015 5
      vertex 12.5 -1.11022e-015 -5
    endloop
  endfacet
  facet normal 0 1 -2.22045e-016
    outer loop
      vertex 12.5 -10 5
      vertex 12.5 -10 -5
      vertex -12.5 -10 5
    endloop
  endfacet
  facet normal 0 1 -2.22045e-016
    outer loop
      vertex -12.5 -10 5
      vertex 12.5 -10 -5
      vertex -12.5 -10 -5
    endloop
  endfacet
  facet normal 1 0 0
    outer loop
      vertex -12.5 1.11022e-015 5
      vertex -12.5 -10 5
      vertex -12.5 -10 -5
    endloop
  endfacet
  facet normal 1 0 0
    outer loop
      vertex -12.5 -1.11022e-015 -5
      vertex -12.5 1.11022e-015 5
      vertex -12.5 -10 -5
    endloop
  endfacet
  facet normal 0.987688 -3.47354e-017 -0.156434
    outer loop
      vertex -16.9266 1.02923e-016 0.463525
      vertex -16.9266 -12 0.463525
      vertex -17 -12 2.66454e-015
    endloop
  endfacet
  facet normal 0.987688 -3.47354e-017 -0.156434
    outer loop
      vertex -17 0 0
      vertex -16.9266 1.02923e-016 0.463525
      vertex -17 -12 2.66454e-015
    endloop
  endfacet
  facet normal 0.987688 3.47354e-017 0.156434
    outer loop
      vertex -17 -12 2.66454e-015
      vertex -16.9266 -12 -0.463525
      vertex -16.9266 -1.02923e-016 -0.463525
    endloop
  endfacet
  facet normal 0.987688 3.47354e-017 0.156434
    outer loop
      vertex -17 0 0
      vertex -17 -12 2.66454e-015
      vertex -16.9266 -1.02923e-016 -0.463525
    endloop
  endfacet
  facet normal 0.891006 -1.00806e-016 -0.453991
    outer loop
      vertex -16.7135 1.95772e-016 0.881678
      vertex -16.7135 -12 0.881678
      vertex -16.9266 -12 0.463525
    endloop
  endfacet
  facet normal 0.891006 -1.00806e-016 -0.453991
    outer loop
      vertex -16.9266 1.02923e-016 0.463525
      vertex -16.7135 1.95772e-016 0.881678
      vertex -16.9266 -12 0.463525
    endloop
  endfacet
  facet normal 0.707107 -1.57009e-016 -0.707107
    outer loop
      vertex -16.3817 2.69457e-016 1.21352
      vertex -16.3817 -12 1.21353
      vertex -16.7135 -12 0.881678
    endloop
  endfacet
  facet normal 0.707107 -1.57009e-016 -0.707107
    outer loop
      vertex -16.7135 1.95772e-016 0.881678
      vertex -16.3817 2.69457e-016 1.21352
      vertex -16.7135 -12 0.881678
    endloop
  endfacet
  facet normal 0.453991 -1.97843e-016 -0.891006
    outer loop
      vertex -15.9635 -12 1.42659
      vertex -16.3817 -12 1.21353
      vertex -15.9635 3.16766e-016 1.42658
    endloop
  endfacet
  facet normal 0.453991 -1.97843e-016 -0.891006
    outer loop
      vertex -15.9635 3.16766e-016 1.42658
      vertex -16.3817 -12 1.21353
      vertex -16.3817 2.69457e-016 1.21352
    endloop
  endfacet
  facet normal 0.156434 -2.19311e-016 -0.987688
    outer loop
      vertex -15.5 -12 1.5
      vertex -15.9635 -12 1.42659
      vertex -15.5 3.33067e-016 1.5
    endloop
  endfacet
  facet normal 0.156434 -2.19311e-016 -0.987688
    outer loop
      vertex -15.5 3.33067e-016 1.5
      vertex -15.9635 -12 1.42659
      vertex -15.9635 3.16766e-016 1.42658
    endloop
  endfacet
  facet normal -0.156434 -2.19311e-016 -0.987688
    outer loop
      vertex -15.0365 -12 1.42659
      vertex -15.5 -12 1.5
      vertex -15.0365 3.16766e-016 1.42658
    endloop
  endfacet
  facet normal -0.156434 -2.19311e-016 -0.987688
    outer loop
      vertex -15.0365 3.16766e-016 1.42658
      vertex -15.5 -12 1.5
      vertex -15.5 3.33067e-016 1.5
    endloop
  endfacet
  facet normal -0.453991 -1.97843e-016 -0.891006
    outer loop
      vertex -14.6183 -12 1.21353
      vertex -15.0365 -12 1.42659
      vertex -14.6183 2.69457e-016 1.21352
    endloop
  endfacet
  facet normal -0.453991 -1.97843e-016 -0.891006
    outer loop
      vertex -14.6183 2.69457e-016 1.21352
      vertex -15.0365 -12 1.42659
      vertex -15.0365 3.16766e-016 1.42658
    endloop
  endfacet
  facet normal -0.707107 -1.57009e-016 -0.707107
    outer loop
      vertex -14.2865 -12 0.881678
      vertex -14.6183 -12 1.21353
      vertex -14.2865 1.95772e-016 0.881678
    endloop
  endfacet
  facet normal -0.707107 -1.57009e-016 -0.707107
    outer loop
      vertex -14.2865 1.95772e-016 0.881678
      vertex -14.6183 -12 1.21353
      vertex -14.6183 2.69457e-016 1.21352
    endloop
  endfacet
  facet normal -0.891006 -1.00806e-016 -0.453991
    outer loop
      vertex -14.0734 -12 0.463525
      vertex -14.2865 -12 0.881678
      vertex -14.0734 1.02923e-016 0.463525
    endloop
  endfacet
  facet normal -0.891006 -1.00806e-016 -0.453991
    outer loop
      vertex -14.0734 1.02923e-016 0.463525
      vertex -14.2865 -12 0.881678
      vertex -14.2865 1.95772e-016 0.881678
    endloop
  endfacet
  facet normal -0.987688 -3.47354e-017 -0.156434
    outer loop
      vertex -14 -12 2.66454e-015
      vertex -14.0734 -12 0.463525
      vertex -14 0 0
    endloop
  endfacet
  facet normal -0.987688 -3.47354e-017 -0.156434
    outer loop
      vertex -14 0 0
      vertex -14.0734 -12 0.463525
      vertex -14.0734 1.02923e-016 0.463525
    endloop
  endfacet
  facet normal -0.987688 3.47354e-017 0.156434
    outer loop
      vertex -14 -12 2.66454e-015
      vertex -14 0 0
      vertex -14.0734 -12 -0.463525
    endloop
  endfacet
  facet normal -0.987688 3.47354e-017 0.156434
    outer loop
      vertex -14.0734 -12 -0.463525
      vertex -14 0 0
      vertex -14.0734 -1.02923e-016 -0.463525
    endloop
  endfacet
  facet normal -0.891006 1.00806e-016 0.453991
    outer loop
      vertex -14.0734 -12 -0.463525
      vertex -14.0734 -1.02923e-016 -0.463525
      vertex -14.2865 -12 -0.881678
    endloop
  endfacet
  facet normal -0.891006 1.00806e-016 0.453991
    outer loop
      vertex -14.2865 -12 -0.881678
      vertex -14.0734 -1.02923e-016 -0.463525
      vertex -14.2865 -1.95772e-016 -0.881678
    endloop
  endfacet
  facet normal -0.707107 1.57009e-016 0.707107
    outer loop
      vertex -14.2865 -12 -0.881678
      vertex -14.2865 -1.95772e-016 -0.881678
      vertex -14.6183 -12 -1.21352
    endloop
  endfacet
  facet normal -0.707107 1.57009e-016 0.707107
    outer loop
      vertex -14.6183 -12 -1.21352
      vertex -14.2865 -1.95772e-016 -0.881678
      vertex -14.6183 -2.69457e-016 -1.21352
    endloop
  endfacet
  facet normal -0.453991 1.97843e-016 0.891006
    outer loop
      vertex -15.0365 -12 -1.42658
      vertex -14.6183 -12 -1.21352
      vertex -14.6183 -2.69457e-016 -1.21352
    endloop
  endfacet
  facet normal -0.453991 1.97843e-016 0.891006
    outer loop
      vertex -15.0365 -3.16766e-016 -1.42658
      vertex -15.0365 -12 -1.42658
      vertex -14.6183 -2.69457e-016 -1.21352
    endloop
  endfacet
  facet normal -0.156434 2.19311e-016 0.987688
    outer loop
      vertex -15.5 -12 -1.5
      vertex -15.0365 -12 -1.42658
      vertex -15.0365 -3.16766e-016 -1.42658
    endloop
  endfacet
  facet normal -0.156434 2.19311e-016 0.987688
    outer loop
      vertex -15.5 -3.33067e-016 -1.5
      vertex -15.5 -12 -1.5
      vertex -15.0365 -3.16766e-016 -1.42658
    endloop
  endfacet
  facet normal 0.156434 2.19311e-016 0.987688
    outer loop
      vertex -15.9635 -12 -1.42658
      vertex -15.5 -12 -1.5
      vertex -15.5 -3.33067e-016 -1.5
    endloop
  endfacet
  facet normal 0.156434 2.19311e-016 0.987688
    outer loop
      vertex -15.9635 -3.16766e-016 -1.42658
      vertex -15.9635 -12 -1.42658
      vertex -15.5 -3.33067e-016 -1.5
    endloop
  endfacet
  facet normal 0.453991 1.97843e-016 0.891006
    outer loop
      vertex -16.3817 -12 -1.21352
      vertex -15.9635 -12 -1.42658
      vertex -15.9635 -3.16766e-016 -1.42658
    endloop
  endfacet
  facet normal 0.453991 1.97843e-016 0.891006
    outer loop
      vertex -16.3817 -2.69457e-016 -1.21352
      vertex -16.3817 -12 -1.21352
      vertex -15.9635 -3.16766e-016 -1.42658
    endloop
  endfacet
  facet normal 0.707107 1.57009e-016 0.707107
    outer loop
      vertex -16.7135 -12 -0.881678
      vertex -16.3817 -12 -1.21352
      vertex -16.3817 -2.69457e-016 -1.21352
    endloop
  endfacet
  facet normal 0.707107 1.57009e-016 0.707107
    outer loop
      vertex -16.7135 -1.95772e-016 -0.881678
      vertex -16.7135 -12 -0.881678
      vertex -16.3817 -2.69457e-016 -1.21352
    endloop
  endfacet
  facet normal 0.891006 1.00806e-016 0.453991
    outer loop
      vertex -16.9266 -12 -0.463525
      vertex -16.7135 -12 -0.881678
      vertex -16.7135 -1.95772e-016 -0.881678
    endloop
  endfacet
  facet normal 0.891006 1.00806e-016 0.453991
    outer loop
      vertex -16.9266 -1.02923e-016 -0.463525
      vertex -16.9266 -12 -0.463525
      vertex -16.7135 -1.95772e-016 -0.881678
    endloop
  endfacet
  facet normal 0.987688 3.47354e-017 0.156434
    outer loop
      vertex 14 -12 2.66454e-015
      vertex 14.0734 -12 -0.463525
      vertex 14.0734 -1.02923e-016 -0.463525
    endloop
  endfacet
  facet normal 0.987688 3.47354e-017 0.156434
    outer loop
      vertex 14 0 0
      vertex 14 -12 2.66454e-015
      vertex 14.0734 -1.02923e-016 -0.463525
    endloop
  endfacet
  facet normal 0.891006 1.00806e-016 0.453991
    outer loop
      vertex 14.0734 -12 -0.463525
      vertex 14.2865 -12 -0.881678
      vertex 14.2865 -1.95772e-016 -0.881678
    endloop
  endfacet
  facet normal 0.891006 1.00806e-016 0.453991
    outer loop
      vertex 14.0734 -1.02923e-016 -0.463525
      vertex 14.0734 -12 -0.463525
      vertex 14.2865 -1.95772e-016 -0.881678
    endloop
  endfacet
  facet normal 0.707107 1.57009e-016 0.707107
    outer loop
      vertex 14.2865 -12 -0.881678
      vertex 14.6183 -12 -1.21352
      vertex 14.6183 -2.69457e-016 -1.21352
    endloop
  endfacet
  facet normal 0.707107 1.57009e-016 0.707107
    outer loop
      vertex 14.2865 -1.95772e-016 -0.881678
      vertex 14.2865 -12 -0.881678
      vertex 14.6183 -2.69457e-016 -1.21352
    endloop
  endfacet
  facet normal 0.453991 1.97843e-016 0.891006
    outer loop
      vertex 14.6183 -12 -1.21352
      vertex 15.0365 -12 -1.42658
      vertex 15.0365 -3.16766e-016 -1.42658
    endloop
  endfacet
  facet normal 0.453991 1.97843e-016 0.891006
    outer loop
      vertex 14.6183 -2.69457e-016 -1.21352
      vertex 14.6183 -12 -1.21352
      vertex 15.0365 -3.16766e-016 -1.42658
    endloop
  endfacet
  facet normal 0.156434 2.19311e-016 0.987688
    outer loop
      vertex 15.0365 -12 -1.42658
      vertex 15.5 -12 -1.5
      vertex 15.5 -3.33067e-016 -1.5
    endloop
  endfacet
  facet normal 0.156434 2.19311e-016 0.987688
    outer loop
      vertex 15.0365 -3.16766e-016 -1.42658
      vertex 15.0365 -12 -1.42658
      vertex 15.5 -3.33067e-016 -1.5
    endloop
  endfacet
  facet normal -0.156434 2.19311e-016 0.987688
    outer loop
      vertex 15.5 -12 -1.5
      vertex 15.9635 -12 -1.42658
      vertex 15.9635 -3.16766e-016 -1.42658
    endloop
  endfacet
  facet normal -0.156434 2.19311e-016 0.987688
    outer loop
      vertex 15.5 -3.33067e-016 -1.5
      vertex 15.5 -12 -1.5
      vertex 15.9635 -3.16766e-016 -1.42658
    endloop
  endfacet
  facet normal -0.453991 1.97843e-016 0.891006
    outer loop
      vertex 15.9635 -12 -1.42658
      vertex 16.3817 -12 -1.21352
      vertex 16.3817 -2.69457e-016 -1.21352
    endloop
  endfacet
  facet normal -0.453991 1.97843e-016 0.891006
    outer loop
      vertex 15.9635 -3.16766e-016 -1.42658
      vertex 15.9635 -12 -1.42658
      vertex 16.3817 -2.69457e-016 -1.21352
    endloop
  endfacet
  facet normal -0.707107 1.57009e-016 0.707107
    outer loop
      vertex 16.7135 -12 -0.881678
      vertex 16.7135 -1.95772e-016 -0.881678
      vertex 16.3817 -12 -1.21352
    endloop
  endfacet
  facet normal -0.707107 1.57009e-016 0.707107
    outer loop
      vertex 16.3817 -12 -1.21352
      vertex 16.7135 -1.95772e-016 -0.881678
      vertex 16.3817 -2.69457e-016 -1.21352
    endloop
  endfacet
  facet normal -0.891006 1.00806e-016 0.453991
    outer loop
      vertex 16.9266 -12 -0.463525
      vertex 16.9266 -1.02923e-016 -0.463525
      vertex 16.7135 -12 -0.881678
    endloop
  endfacet
  facet normal -0.891006 1.00806e-016 0.453991
    outer loop
      vertex 16.7135 -12 -0.881678
      vertex 16.9266 -1.02923e-016 -0.463525
      vertex 16.7135 -1.95772e-016 -0.881678
    endloop
  endfacet
  facet normal -0.987688 3.47354e-017 0.156434
    outer loop
      vertex 17 -12 2.66454e-015
      vertex 17 0 0
      vertex 16.9266 -12 -0.463525
    endloop
  endfacet
  facet normal -0.987688 3.47354e-017 0.156434
    outer loop
      vertex 16.9266 -12 -0.463525
      vertex 17 0 0
      vertex 16.9266 -1.02923e-016 -0.463525
    endloop
  endfacet
  facet normal -0.987688 -3.47354e-017 -0.156434
    outer loop
      vertex 17 -12 2.66454e-015
      vertex 16.9266 -12 0.463525
      vertex 17 0 0
    endloop
  endfacet
  facet normal -0.987688 -3.47354e-017 -0.156434
    outer loop
      vertex 17 0 0
      vertex 16.9266 -12 0.463525
      vertex 16.9266 1.02923e-016 0.463525
    endloop
  endfacet
  facet normal -0.891006 -1.00806e-016 -0.453991
    outer loop
      vertex 16.9266 -12 0.463525
      vertex 16.7135 -12 0.881678
      vertex 16.9266 1.02923e-016 0.463525
    endloop
  endfacet
  facet normal -0.891006 -1.00806e-016 -0.453991
    outer loop
      vertex 16.9266 1.02923e-016 0.463525
      vertex 16.7135 -12 0.881678
      vertex 16.7135 1.95772e-016 0.881678
    endloop
  endfacet
  facet normal -0.707107 -1.57009e-016 -0.707107
    outer loop
      vertex 16.7135 -12 0.881678
      vertex 16.3817 -12 1.21353
      vertex 16.7135 1.95772e-016 0.881678
    endloop
  endfacet
  facet normal -0.707107 -1.57009e-016 -0.707107
    outer loop
      vertex 16.7135 1.95772e-016 0.881678
      vertex 16.3817 -12 1.21353
      vertex 16.3817 2.69457e-016 1.21352
    endloop
  endfacet
  facet normal -0.453991 -1.97843e-016 -0.891006
    outer loop
      vertex 16.3817 -12 1.21353
      vertex 15.9635 -12 1.42659
      vertex 16.3817 2.69457e-016 1.21352
    endloop
  endfacet
  facet normal -0.453991 -1.97843e-016 -0.891006
    outer loop
      vertex 16.3817 2.69457e-016 1.21352
      vertex 15.9635 -12 1.42659
      vertex 15.9635 3.16766e-016 1.42658
    endloop
  endfacet
  facet normal -0.156434 -2.19311e-016 -0.987688
    outer loop
      vertex 15.9635 -12 1.42659
      vertex 15.5 -12 1.5
      vertex 15.9635 3.16766e-016 1.42658
    endloop
  endfacet
  facet normal -0.156434 -2.19311e-016 -0.987688
    outer loop
      vertex 15.9635 3.16766e-016 1.42658
      vertex 15.5 -12 1.5
      vertex 15.5 3.33067e-016 1.5
    endloop
  endfacet
  facet normal 0.156434 -2.19311e-016 -0.987688
    outer loop
      vertex 15.5 -12 1.5
      vertex 15.0365 -12 1.42659
      vertex 15.5 3.33067e-016 1.5
    endloop
  endfacet
  facet normal 0.156434 -2.19311e-016 -0.987688
    outer loop
      vertex 15.5 3.33067e-016 1.5
      vertex 15.0365 -12 1.42659
      vertex 15.0365 3.16766e-016 1.42658
    endloop
  endfacet
  facet normal 0.453991 -1.97843e-016 -0.891006
    outer loop
      vertex 15.0365 -12 1.42659
      vertex 14.6183 -12 1.21353
      vertex 15.0365 3.16766e-016 1.42658
    endloop
  endfacet
  facet normal 0.453991 -1.97843e-016 -0.891006
    outer loop
      vertex 15.0365 3.16766e-016 1.42658
      vertex 14.6183 -12 1.21353
      vertex 14.6183 2.69457e-016 1.21352
    endloop
  endfacet
  facet normal 0.707107 -1.57009e-016 -0.707107
    outer loop
      vertex 14.6183 2.69457e-016 1.21352
      vertex 14.6183 -12 1.21353
      vertex 14.2865 -12 0.881678
    endloop
  endfacet
  facet normal 0.707107 -1.57009e-016 -0.707107
    outer loop
      vertex 14.2865 1.95772e-016 0.881678
      vertex 14.6183 2.69457e-016 1.21352
      vertex 14.2865 -12 0.881678
    endloop
  endfacet
  facet normal 0.891006 -1.00806e-016 -0.453991
    outer loop
      vertex 14.2865 1.95772e-016 0.881678
      vertex 14.2865 -12 0.881678
      vertex 14.0734 -12 0.463525
    endloop
  endfacet
  facet normal 0.891006 -1.00806e-016 -0.453991
    outer loop
      vertex 14.0734 1.02923e-016 0.463525
      vertex 14.2865 1.95772e-016 0.881678
      vertex 14.0734 -12 0.463525
    endloop
  endfacet
  facet normal 0.987688 -3.47354e-017 -0.156434
    outer loop
      vertex 14.0734 1.02923e-016 0.463525
      vertex 14.0734 -12 0.463525
      vertex 14 -12 2.66454e-015
    endloop
  endfacet
  facet normal 0.987688 -3.47354e-017 -0.156434
    outer loop
      vertex 14 0 0
      vertex 14.0734 1.02923e-016 0.463525
      vertex 14 -12 2.66454e-015
    endloop
  endfacet
endsolid OpenSCAD_Model
