solid OpenSCAD_Model
  facet normal -1 0 0
    outer loop
      vertex -12 -5 0
      vertex -12 -5 5
      vertex -12 5 0
    endloop
  endfacet
  facet normal -1 0 0
    outer loop
      vertex -12 5 0
      vertex -12 -5 5
      vertex -12 5 5
    endloop
  endfacet
  facet normal 0 -1 0
    outer loop
      vertex -3.5 -5 2.5
      vertex -12 -5 0
      vertex 12 -5 0
    endloop
  endfacet
  facet normal 0 -1 0
    outer loop
      vertex -3.5 -5 2.5
      vertex -3.5 -5 5
      vertex -12 -5 5
    endloop
  endfacet
  facet normal 0 -1 0
    outer loop
      vertex 12 -5 5
      vertex 3.5 -5 5
      vertex 12 -5 0
    endloop
  endfacet
  facet normal 0 -1 0
    outer loop
      vertex 3.5 -5 5
      vertex 3.5 -5 2.5
      vertex 12 -5 0
    endloop
  endfacet
  facet normal 0 -1 0
    outer loop
      vertex -12 -5 5
      vertex -12 -5 0
      vertex -3.5 -5 2.5
    endloop
  endfacet
  facet normal 0 -1 0
    outer loop
      vertex 3.5 -5 2.5
      vertex -3.5 -5 2.5
      vertex 12 -5 0
    endloop
  endfacet
  facet normal 0 0 -1
    outer loop
      vertex -6.9963 1.11472 0
      vertex -12 5 0
      vertex 12 -5 0
    endloop
  endfacet
  facet normal 0 0 -1
    outer loop
      vertex 7.84321 1.49178 0
      vertex -12 5 0
      vertex 12 5 0
    endloop
  endfacet
  facet normal 0 0 -1
    outer loop
      vertex -12 -5 0
      vertex -12 5 0
      vertex -9.46722 0.311868 0
    endloop
  endfacet
  facet normal 0 0 -1
    outer loop
      vertex -12 -5 0
      vertex -9.46722 0.311868 0
      vertex -9.46722 -0.311868 0
    endloop
  endfacet
  facet normal 0 0 -1
    outer loop
      vertex -12 -5 0
      vertex -9.46722 -0.311868 0
      vertex -9.21352 -0.881678 0
    endloop
  endfacet
  facet normal 0 0 -1
    outer loop
      vertex -12 -5 0
      vertex -9.21352 -0.881678 0
      vertex -8.75 -1.29904 0
    endloop
  endfacet
  facet normal 0 0 -1
    outer loop
      vertex -12 -5 0
      vertex -8.75 -1.29904 0
      vertex -8.15679 -1.49178 0
    endloop
  endfacet
  facet normal 0 0 -1
    outer loop
      vertex -12 -5 0
      vertex -8.15679 -1.49178 0
      vertex 12 -5 0
    endloop
  endfacet
  facet normal 0 0 -1
    outer loop
      vertex -6.9963 -1.11472 0
      vertex 12 -5 0
      vertex -7.53647 -1.42658 0
    endloop
  endfacet
  facet normal 0 0 -1
    outer loop
      vertex -6.62968 -0.610105 0
      vertex 12 -5 0
      vertex -6.9963 -1.11472 0
    endloop
  endfacet
  facet normal 0 0 -1
    outer loop
      vertex -6.5 0 0
      vertex 12 -5 0
      vertex -6.62968 -0.610105 0
    endloop
  endfacet
  facet normal 0 0 -1
    outer loop
      vertex 7.84321 -1.49178 0
      vertex 12 -5 0
      vertex 7.25 -1.29904 0
    endloop
  endfacet
  facet normal 0 0 -1
    outer loop
      vertex -8.15679 1.49178 0
      vertex -12 5 0
      vertex -7.53647 1.42658 0
    endloop
  endfacet
  facet normal 0 0 -1
    outer loop
      vertex -6.5 0 0
      vertex -6.62968 0.610105 0
      vertex 12 -5 0
    endloop
  endfacet
  facet normal 0 0 -1
    outer loop
      vertex -7.53647 1.42658 0
      vertex -12 5 0
      vertex -6.9963 1.11472 0
    endloop
  endfacet
  facet normal 0 0 -1
    outer loop
      vertex -6.62968 0.610105 0
      vertex -6.9963 1.11472 0
      vertex 12 -5 0
    endloop
  endfacet
  facet normal 0 0 -1
    outer loop
      vertex -8.75 1.29904 0
      vertex -12 5 0
      vertex -8.15679 1.49178 0
    endloop
  endfacet
  facet normal 0 0 -1
    outer loop
      vertex -9.21352 0.881678 0
      vertex -12 5 0
      vertex -8.75 1.29904 0
    endloop
  endfacet
  facet normal 0 0 -1
    outer loop
      vertex -9.46722 0.311868 0
      vertex -12 5 0
      vertex -9.21352 0.881678 0
    endloop
  endfacet
  facet normal 0 0 -1
    outer loop
      vertex 6.53278 -0.311868 0
      vertex -12 5 0
      vertex 6.53278 0.311868 0
    endloop
  endfacet
  facet normal 0 0 -1
    outer loop
      vertex 6.78647 -0.881678 0
      vertex -12 5 0
      vertex 6.53278 -0.311868 0
    endloop
  endfacet
  facet normal 0 0 -1
    outer loop
      vertex 7.25 -1.29904 0
      vertex -12 5 0
      vertex 6.78647 -0.881678 0
    endloop
  endfacet
  facet normal 0 0 -1
    outer loop
      vertex 12 -5 0
      vertex -12 5 0
      vertex 7.25 -1.29904 0
    endloop
  endfacet
  facet normal 0 0 -1
    outer loop
      vertex 8.46352 -1.42658 0
      vertex 12 -5 0
      vertex 7.84321 -1.49178 0
    endloop
  endfacet
  facet normal 0 0 -1
    outer loop
      vertex 9.5 0 0
      vertex 12 5 0
      vertex 9.37032 -0.610105 0
    endloop
  endfacet
  facet normal 0 0 -1
    outer loop
      vertex 12 -5 0
      vertex 8.46352 -1.42658 0
      vertex 9.0037 -1.11472 0
    endloop
  endfacet
  facet normal 0 0 -1
    outer loop
      vertex 12 -5 0
      vertex 9.0037 -1.11472 0
      vertex 9.37032 -0.610105 0
    endloop
  endfacet
  facet normal 0 0 -1
    outer loop
      vertex 12 -5 0
      vertex 9.37032 -0.610105 0
      vertex 12 5 0
    endloop
  endfacet
  facet normal 0 0 -1
    outer loop
      vertex 9.37032 0.610105 0
      vertex 12 5 0
      vertex 9.5 0 0
    endloop
  endfacet
  facet normal 0 0 -1
    outer loop
      vertex 7.84321 1.49178 0
      vertex 12 5 0
      vertex 8.46352 1.42658 0
    endloop
  endfacet
  facet normal 0 0 -1
    outer loop
      vertex 9.37032 0.610105 0
      vertex 9.0037 1.11472 0
      vertex 12 5 0
    endloop
  endfacet
  facet normal 0 0 -1
    outer loop
      vertex 9.0037 1.11472 0
      vertex 8.46352 1.42658 0
      vertex 12 5 0
    endloop
  endfacet
  facet normal 0 0 -1
    outer loop
      vertex 7.25 1.29904 0
      vertex -12 5 0
      vertex 7.84321 1.49178 0
    endloop
  endfacet
  facet normal 0 0 -1
    outer loop
      vertex 6.78647 0.881678 0
      vertex -12 5 0
      vertex 7.25 1.29904 0
    endloop
  endfacet
  facet normal 0 0 -1
    outer loop
      vertex 6.53278 0.311868 0
      vertex -12 5 0
      vertex 6.78647 0.881678 0
    endloop
  endfacet
  facet normal 0 0 -1
    outer loop
      vertex -7.53647 -1.42658 0
      vertex 12 -5 0
      vertex -8.15679 -1.49178 0
    endloop
  endfacet
  facet normal 0 1 0
    outer loop
      vertex 3.5 5 5
      vertex 12 5 0
      vertex 3.5 5 2.5
    endloop
  endfacet
  facet normal 0 1 0
    outer loop
      vertex -12 5 0
      vertex -12 5 5
      vertex -3.5 5 2.5
    endloop
  endfacet
  facet normal 0 1 0
    outer loop
      vertex -12 5 0
      vertex -3.5 5 2.5
      vertex 12 5 0
    endloop
  endfacet
  facet normal 0 1 0
    outer loop
      vertex 12 5 0
      vertex 3.5 5 5
      vertex 12 5 5
    endloop
  endfacet
  facet normal 0 1 0
    outer loop
      vertex -3.5 5 2.5
      vertex -12 5 5
      vertex -3.5 5 5
    endloop
  endfacet
  facet normal 0 1 0
    outer loop
      vertex 3.5 5 2.5
      vertex 12 5 0
      vertex -3.5 5 2.5
    endloop
  endfacet
  facet normal 0 0 1
    outer loop
      vertex -8.15679 -1.49178 5
      vertex -12 -5 5
      vertex -3.5 -5 5
    endloop
  endfacet
  facet normal 0 0 1
    outer loop
      vertex -12 5 5
      vertex -12 -5 5
      vertex -9.46722 -0.311868 5
    endloop
  endfacet
  facet normal 0 0 1
    outer loop
      vertex -7.53647 -1.42658 5
      vertex -8.15679 -1.49178 5
      vertex -3.5 -5 5
    endloop
  endfacet
  facet normal 0 0 1
    outer loop
      vertex -12 5 5
      vertex -9.46722 -0.311868 5
      vertex -9.46722 0.311868 5
    endloop
  endfacet
  facet normal 0 0 1
    outer loop
      vertex -12 5 5
      vertex -9.46722 0.311868 5
      vertex -9.21352 0.881678 5
    endloop
  endfacet
  facet normal 0 0 1
    outer loop
      vertex -3.5 5 5
      vertex -12 5 5
      vertex -8.75 1.29904 5
    endloop
  endfacet
  facet normal 0 0 1
    outer loop
      vertex -6.9963 -1.11472 5
      vertex -7.53647 -1.42658 5
      vertex -3.5 -5 5
    endloop
  endfacet
  facet normal 0 0 1
    outer loop
      vertex -3.5 5 5
      vertex -8.75 1.29904 5
      vertex -8.15679 1.49178 5
    endloop
  endfacet
  facet normal 0 0 1
    outer loop
      vertex -3.5 5 5
      vertex -8.15679 1.49178 5
      vertex -7.53647 1.42658 5
    endloop
  endfacet
  facet normal 0 0 1
    outer loop
      vertex -6.5 0 5
      vertex -6.62968 -0.610105 5
      vertex -3.5 -5 5
    endloop
  endfacet
  facet normal 0 0 1
    outer loop
      vertex -3.5 5 5
      vertex -7.53647 1.42658 5
      vertex -6.9963 1.11472 5
    endloop
  endfacet
  facet normal 0 0 1
    outer loop
      vertex -3.5 5 5
      vertex -6.62968 0.610105 5
      vertex -3.5 -5 5
    endloop
  endfacet
  facet normal 0 0 1
    outer loop
      vertex -3.5 5 5
      vertex -6.9963 1.11472 5
      vertex -6.62968 0.610105 5
    endloop
  endfacet
  facet normal 0 0 1
    outer loop
      vertex -6.62968 0.610105 5
      vertex -6.5 0 5
      vertex -3.5 -5 5
    endloop
  endfacet
  facet normal 0 0 1
    outer loop
      vertex -6.62968 -0.610105 5
      vertex -6.9963 -1.11472 5
      vertex -3.5 -5 5
    endloop
  endfacet
  facet normal 0 0 1
    outer loop
      vertex -8.75 -1.29904 5
      vertex -12 -5 5
      vertex -8.15679 -1.49178 5
    endloop
  endfacet
  facet normal 0 0 1
    outer loop
      vertex -9.21352 -0.881678 5
      vertex -12 -5 5
      vertex -8.75 -1.29904 5
    endloop
  endfacet
  facet normal 0 0 1
    outer loop
      vertex -9.46722 -0.311868 5
      vertex -12 -5 5
      vertex -9.21352 -0.881678 5
    endloop
  endfacet
  facet normal 0 0 1
    outer loop
      vertex -9.21352 0.881678 5
      vertex -8.75 1.29904 5
      vertex -12 5 5
    endloop
  endfacet
  facet normal 1 0 0
    outer loop
      vertex -3.5 5 5
      vertex -3.5 -3.75 4
      vertex -3.5 -1.25 4
    endloop
  endfacet
  facet normal 1 0 0
    outer loop
      vertex -3.5 1.25 4
      vertex -3.5 5 5
      vertex -3.5 -1.25 4
    endloop
  endfacet
  facet normal 1 0 0
    outer loop
      vertex -3.5 -3.75 2.5
      vertex -3.5 -3.75 4
      vertex -3.5 -5 5
    endloop
  endfacet
  facet normal 1 0 0
    outer loop
      vertex -3.5 -1.25 2.5
      vertex -3.5 1.25 2.5
      vertex -3.5 -1.25 4
    endloop
  endfacet
  facet normal 1 0 0
    outer loop
      vertex -3.5 1.25 2.5
      vertex -3.5 1.25 4
      vertex -3.5 -1.25 4
    endloop
  endfacet
  facet normal 1 0 0
    outer loop
      vertex -3.5 3.75 4
      vertex -3.5 5 5
      vertex -3.5 1.25 4
    endloop
  endfacet
  facet normal 1 0 0
    outer loop
      vertex -3.5 3.75 2.5
      vertex -3.5 5 2.5
      vertex -3.5 3.75 4
    endloop
  endfacet
  facet normal 1 0 0
    outer loop
      vertex -3.5 5 2.5
      vertex -3.5 5 5
      vertex -3.5 3.75 4
    endloop
  endfacet
  facet normal 1 0 0
    outer loop
      vertex -3.5 5 5
      vertex -3.5 -5 5
      vertex -3.5 -3.75 4
    endloop
  endfacet
  facet normal 1 0 0
    outer loop
      vertex -3.5 -5 5
      vertex -3.5 -5 2.5
      vertex -3.5 -3.75 2.5
    endloop
  endfacet
  facet normal 0 0 1
    outer loop
      vertex 3.5 -5 2.5
      vertex 3.5 -3.75 2.5
      vertex -3.5 -3.75 2.5
    endloop
  endfacet
  facet normal 0 0 1
    outer loop
      vertex -3.5 -5 2.5
      vertex 3.5 -5 2.5
      vertex -3.5 -3.75 2.5
    endloop
  endfacet
  facet normal -1 0 0
    outer loop
      vertex 3.5 1.25 2.5
      vertex 3.5 -1.25 4
      vertex 3.5 1.25 4
    endloop
  endfacet
  facet normal -1 0 0
    outer loop
      vertex 3.5 5 5
      vertex 3.5 5 2.5
      vertex 3.5 3.75 4
    endloop
  endfacet
  facet normal -1 0 0
    outer loop
      vertex 3.5 5 5
      vertex 3.5 3.75 4
      vertex 3.5 -5 5
    endloop
  endfacet
  facet normal -1 0 0
    outer loop
      vertex 3.5 -3.75 4
      vertex 3.5 -5 5
      vertex 3.5 -1.25 4
    endloop
  endfacet
  facet normal -1 0 0
    outer loop
      vertex 3.5 3.75 4
      vertex 3.5 1.25 4
      vertex 3.5 -5 5
    endloop
  endfacet
  facet normal -1 0 0
    outer loop
      vertex 3.5 -1.25 4
      vertex 3.5 1.25 2.5
      vertex 3.5 -1.25 2.5
    endloop
  endfacet
  facet normal -1 0 0
    outer loop
      vertex 3.5 -5 5
      vertex 3.5 -3.75 4
      vertex 3.5 -3.75 2.5
    endloop
  endfacet
  facet normal -1 0 0
    outer loop
      vertex 3.5 -5 5
      vertex 3.5 -3.75 2.5
      vertex 3.5 -5 2.5
    endloop
  endfacet
  facet normal -1 0 0
    outer loop
      vertex 3.5 3.75 4
      vertex 3.5 5 2.5
      vertex 3.5 3.75 2.5
    endloop
  endfacet
  facet normal -1 0 0
    outer loop
      vertex 3.5 -1.25 4
      vertex 3.5 -5 5
      vertex 3.5 1.25 4
    endloop
  endfacet
  facet normal 0 0 1
    outer loop
      vertex 7.84321 -1.49178 5
      vertex 3.5 -5 5
      vertex 12 -5 5
    endloop
  endfacet
  facet normal 0 0 1
    outer loop
      vertex 9.37032 0.610105 5
      vertex 9.5 0 5
      vertex 12 -5 5
    endloop
  endfacet
  facet normal 0 0 1
    outer loop
      vertex 3.5 5 5
      vertex 3.5 -5 5
      vertex 6.53278 -0.311868 5
    endloop
  endfacet
  facet normal 0 0 1
    outer loop
      vertex 3.5 5 5
      vertex 6.53278 -0.311868 5
      vertex 6.53278 0.311868 5
    endloop
  endfacet
  facet normal 0 0 1
    outer loop
      vertex 9.37032 -0.610105 5
      vertex 9.0037 -1.11472 5
      vertex 12 -5 5
    endloop
  endfacet
  facet normal 0 0 1
    outer loop
      vertex 3.5 5 5
      vertex 6.53278 0.311868 5
      vertex 6.78647 0.881678 5
    endloop
  endfacet
  facet normal 0 0 1
    outer loop
      vertex 9.0037 -1.11472 5
      vertex 8.46352 -1.42658 5
      vertex 12 -5 5
    endloop
  endfacet
  facet normal 0 0 1
    outer loop
      vertex 12 5 5
      vertex 3.5 5 5
      vertex 7.25 1.29904 5
    endloop
  endfacet
  facet normal 0 0 1
    outer loop
      vertex 8.46352 -1.42658 5
      vertex 7.84321 -1.49178 5
      vertex 12 -5 5
    endloop
  endfacet
  facet normal 0 0 1
    outer loop
      vertex 12 5 5
      vertex 7.25 1.29904 5
      vertex 7.84321 1.49178 5
    endloop
  endfacet
  facet normal 0 0 1
    outer loop
      vertex 12 5 5
      vertex 7.84321 1.49178 5
      vertex 8.46352 1.42658 5
    endloop
  endfacet
  facet normal 0 0 1
    outer loop
      vertex 9.5 0 5
      vertex 9.37032 -0.610105 5
      vertex 12 -5 5
    endloop
  endfacet
  facet normal 0 0 1
    outer loop
      vertex 12 5 5
      vertex 8.46352 1.42658 5
      vertex 9.0037 1.11472 5
    endloop
  endfacet
  facet normal 0 0 1
    outer loop
      vertex 12 5 5
      vertex 9.37032 0.610105 5
      vertex 12 -5 5
    endloop
  endfacet
  facet normal 0 0 1
    outer loop
      vertex 12 5 5
      vertex 9.0037 1.11472 5
      vertex 9.37032 0.610105 5
    endloop
  endfacet
  facet normal 0 0 1
    outer loop
      vertex 7.25 -1.29904 5
      vertex 3.5 -5 5
      vertex 7.84321 -1.49178 5
    endloop
  endfacet
  facet normal 0 0 1
    outer loop
      vertex 6.78647 -0.881678 5
      vertex 3.5 -5 5
      vertex 7.25 -1.29904 5
    endloop
  endfacet
  facet normal 0 0 1
    outer loop
      vertex 6.53278 -0.311868 5
      vertex 3.5 -5 5
      vertex 6.78647 -0.881678 5
    endloop
  endfacet
  facet normal 0 0 1
    outer loop
      vertex 6.78647 0.881678 5
      vertex 7.25 1.29904 5
      vertex 3.5 5 5
    endloop
  endfacet
  facet normal 1 0 0
    outer loop
      vertex 12 -5 5
      vertex 12 -5 0
      vertex 12 5 0
    endloop
  endfacet
  facet normal 1 0 0
    outer loop
      vertex 12 5 5
      vertex 12 -5 5
      vertex 12 5 0
    endloop
  endfacet
  facet normal 0.913545 -0.406737 0
    outer loop
      vertex -9.21352 0.881678 0
      vertex -9.21352 0.881678 5
      vertex -9.46722 0.311868 5
    endloop
  endfacet
  facet normal 0.913545 -0.406737 0
    outer loop
      vertex -9.46722 0.311868 0
      vertex -9.21352 0.881678 0
      vertex -9.46722 0.311868 5
    endloop
  endfacet
  facet normal 1 0 0
    outer loop
      vertex -9.46722 0.311868 0
      vertex -9.46722 0.311868 5
      vertex -9.46722 -0.311868 5
    endloop
  endfacet
  facet normal 1 0 0
    outer loop
      vertex -9.46722 -0.311868 0
      vertex -9.46722 0.311868 0
      vertex -9.46722 -0.311868 5
    endloop
  endfacet
  facet normal 0.669131 -0.743145 0
    outer loop
      vertex -8.75 1.29904 0
      vertex -8.75 1.29904 5
      vertex -9.21352 0.881678 5
    endloop
  endfacet
  facet normal 0.669131 -0.743145 0
    outer loop
      vertex -9.21352 0.881678 0
      vertex -8.75 1.29904 0
      vertex -9.21352 0.881678 5
    endloop
  endfacet
  facet normal 0.309018 -0.951056 0
    outer loop
      vertex -8.15679 1.49178 0
      vertex -8.15679 1.49178 5
      vertex -8.75 1.29904 5
    endloop
  endfacet
  facet normal 0.309018 -0.951056 0
    outer loop
      vertex -8.75 1.29904 0
      vertex -8.15679 1.49178 0
      vertex -8.75 1.29904 5
    endloop
  endfacet
  facet normal -0.104528 -0.994522 0
    outer loop
      vertex -7.53647 1.42658 0
      vertex -7.53647 1.42658 5
      vertex -8.15679 1.49178 5
    endloop
  endfacet
  facet normal -0.104528 -0.994522 0
    outer loop
      vertex -8.15679 1.49178 0
      vertex -7.53647 1.42658 0
      vertex -8.15679 1.49178 5
    endloop
  endfacet
  facet normal -0.5 -0.866025 0
    outer loop
      vertex -6.9963 1.11472 0
      vertex -6.9963 1.11472 5
      vertex -7.53647 1.42658 5
    endloop
  endfacet
  facet normal -0.5 -0.866025 0
    outer loop
      vertex -7.53647 1.42658 0
      vertex -6.9963 1.11472 0
      vertex -7.53647 1.42658 5
    endloop
  endfacet
  facet normal -0.809017 -0.587785 0
    outer loop
      vertex -6.62968 0.610105 5
      vertex -6.9963 1.11472 5
      vertex -6.62968 0.610105 0
    endloop
  endfacet
  facet normal -0.809017 -0.587785 0
    outer loop
      vertex -6.62968 0.610105 0
      vertex -6.9963 1.11472 5
      vertex -6.9963 1.11472 0
    endloop
  endfacet
  facet normal -0.978148 -0.207912 0
    outer loop
      vertex -6.5 0 5
      vertex -6.62968 0.610105 5
      vertex -6.5 0 0
    endloop
  endfacet
  facet normal -0.978148 -0.207912 0
    outer loop
      vertex -6.5 0 0
      vertex -6.62968 0.610105 5
      vertex -6.62968 0.610105 0
    endloop
  endfacet
  facet normal -0.978148 0.207912 0
    outer loop
      vertex -6.5 0 5
      vertex -6.5 0 0
      vertex -6.62968 -0.610105 5
    endloop
  endfacet
  facet normal -0.978148 0.207912 0
    outer loop
      vertex -6.62968 -0.610105 5
      vertex -6.5 0 0
      vertex -6.62968 -0.610105 0
    endloop
  endfacet
  facet normal -0.809017 0.587785 0
    outer loop
      vertex -6.62968 -0.610105 5
      vertex -6.62968 -0.610105 0
      vertex -6.9963 -1.11472 5
    endloop
  endfacet
  facet normal -0.809017 0.587785 0
    outer loop
      vertex -6.9963 -1.11472 5
      vertex -6.62968 -0.610105 0
      vertex -6.9963 -1.11472 0
    endloop
  endfacet
  facet normal -0.5 0.866025 0
    outer loop
      vertex -6.9963 -1.11472 5
      vertex -6.9963 -1.11472 0
      vertex -7.53647 -1.42658 5
    endloop
  endfacet
  facet normal -0.5 0.866025 0
    outer loop
      vertex -7.53647 -1.42658 5
      vertex -6.9963 -1.11472 0
      vertex -7.53647 -1.42658 0
    endloop
  endfacet
  facet normal -0.104528 0.994522 0
    outer loop
      vertex -7.53647 -1.42658 5
      vertex -7.53647 -1.42658 0
      vertex -8.15679 -1.49178 5
    endloop
  endfacet
  facet normal -0.104528 0.994522 0
    outer loop
      vertex -8.15679 -1.49178 5
      vertex -7.53647 -1.42658 0
      vertex -8.15679 -1.49178 0
    endloop
  endfacet
  facet normal 0.309018 0.951056 0
    outer loop
      vertex -8.15679 -1.49178 5
      vertex -8.15679 -1.49178 0
      vertex -8.75 -1.29904 5
    endloop
  endfacet
  facet normal 0.309018 0.951056 0
    outer loop
      vertex -8.75 -1.29904 5
      vertex -8.15679 -1.49178 0
      vertex -8.75 -1.29904 0
    endloop
  endfacet
  facet normal 0.669131 0.743145 0
    outer loop
      vertex -8.75 -1.29904 5
      vertex -8.75 -1.29904 0
      vertex -9.21352 -0.881678 5
    endloop
  endfacet
  facet normal 0.669131 0.743145 0
    outer loop
      vertex -9.21352 -0.881678 5
      vertex -8.75 -1.29904 0
      vertex -9.21352 -0.881678 0
    endloop
  endfacet
  facet normal 0.913545 0.406737 0
    outer loop
      vertex -9.46722 -0.311868 5
      vertex -9.21352 -0.881678 5
      vertex -9.21352 -0.881678 0
    endloop
  endfacet
  facet normal 0.913545 0.406737 0
    outer loop
      vertex -9.46722 -0.311868 0
      vertex -9.46722 -0.311868 5
      vertex -9.21352 -0.881678 0
    endloop
  endfacet
  facet normal 1 0 0
    outer loop
      vertex 6.53278 0.311868 0
      vertex 6.53278 0.311868 5
      vertex 6.53278 -0.311868 5
    endloop
  endfacet
  facet normal 1 0 0
    outer loop
      vertex 6.53278 -0.311868 0
      vertex 6.53278 0.311868 0
      vertex 6.53278 -0.311868 5
    endloop
  endfacet
  facet normal 0.913545 -0.406737 0
    outer loop
      vertex 6.78647 0.881678 0
      vertex 6.78647 0.881678 5
      vertex 6.53278 0.311868 5
    endloop
  endfacet
  facet normal 0.913545 -0.406737 0
    outer loop
      vertex 6.53278 0.311868 0
      vertex 6.78647 0.881678 0
      vertex 6.53278 0.311868 5
    endloop
  endfacet
  facet normal 0.669131 -0.743145 0
    outer loop
      vertex 7.25 1.29904 0
      vertex 7.25 1.29904 5
      vertex 6.78647 0.881678 5
    endloop
  endfacet
  facet normal 0.669131 -0.743145 0
    outer loop
      vertex 6.78647 0.881678 0
      vertex 7.25 1.29904 0
      vertex 6.78647 0.881678 5
    endloop
  endfacet
  facet normal 0.309018 -0.951056 0
    outer loop
      vertex 7.84321 1.49178 0
      vertex 7.84321 1.49178 5
      vertex 7.25 1.29904 5
    endloop
  endfacet
  facet normal 0.309018 -0.951056 0
    outer loop
      vertex 7.25 1.29904 0
      vertex 7.84321 1.49178 0
      vertex 7.25 1.29904 5
    endloop
  endfacet
  facet normal -0.104528 -0.994522 0
    outer loop
      vertex 8.46352 1.42658 0
      vertex 8.46352 1.42658 5
      vertex 7.84321 1.49178 5
    endloop
  endfacet
  facet normal -0.104528 -0.994522 0
    outer loop
      vertex 7.84321 1.49178 0
      vertex 8.46352 1.42658 0
      vertex 7.84321 1.49178 5
    endloop
  endfacet
  facet normal -0.5 -0.866025 0
    outer loop
      vertex 9.0037 1.11472 0
      vertex 9.0037 1.11472 5
      vertex 8.46352 1.42658 5
    endloop
  endfacet
  facet normal -0.5 -0.866025 0
    outer loop
      vertex 8.46352 1.42658 0
      vertex 9.0037 1.11472 0
      vertex 8.46352 1.42658 5
    endloop
  endfacet
  facet normal -0.809017 -0.587785 0
    outer loop
      vertex 9.37032 0.610105 5
      vertex 9.0037 1.11472 5
      vertex 9.37032 0.610105 0
    endloop
  endfacet
  facet normal -0.809017 -0.587785 0
    outer loop
      vertex 9.37032 0.610105 0
      vertex 9.0037 1.11472 5
      vertex 9.0037 1.11472 0
    endloop
  endfacet
  facet normal -0.978148 -0.207912 0
    outer loop
      vertex 9.5 0 5
      vertex 9.37032 0.610105 5
      vertex 9.5 0 0
    endloop
  endfacet
  facet normal -0.978148 -0.207912 0
    outer loop
      vertex 9.5 0 0
      vertex 9.37032 0.610105 5
      vertex 9.37032 0.610105 0
    endloop
  endfacet
  facet normal -0.978148 0.207912 0
    outer loop
      vertex 9.5 0 5
      vertex 9.5 0 0
      vertex 9.37032 -0.610105 5
    endloop
  endfacet
  facet normal -0.978148 0.207912 0
    outer loop
      vertex 9.37032 -0.610105 5
      vertex 9.5 0 0
      vertex 9.37032 -0.610105 0
    endloop
  endfacet
  facet normal -0.809017 0.587785 0
    outer loop
      vertex 9.37032 -0.610105 5
      vertex 9.37032 -0.610105 0
      vertex 9.0037 -1.11472 5
    endloop
  endfacet
  facet normal -0.809017 0.587785 0
    outer loop
      vertex 9.0037 -1.11472 5
      vertex 9.37032 -0.610105 0
      vertex 9.0037 -1.11472 0
    endloop
  endfacet
  facet normal -0.5 0.866025 0
    outer loop
      vertex 9.0037 -1.11472 5
      vertex 9.0037 -1.11472 0
      vertex 8.46352 -1.42658 5
    endloop
  endfacet
  facet normal -0.5 0.866025 0
    outer loop
      vertex 8.46352 -1.42658 5
      vertex 9.0037 -1.11472 0
      vertex 8.46352 -1.42658 0
    endloop
  endfacet
  facet normal -0.104528 0.994522 0
    outer loop
      vertex 8.46352 -1.42658 5
      vertex 8.46352 -1.42658 0
      vertex 7.84321 -1.49178 5
    endloop
  endfacet
  facet normal -0.104528 0.994522 0
    outer loop
      vertex 7.84321 -1.49178 5
      vertex 8.46352 -1.42658 0
      vertex 7.84321 -1.49178 0
    endloop
  endfacet
  facet normal 0.309018 0.951056 0
    outer loop
      vertex 7.84321 -1.49178 5
      vertex 7.84321 -1.49178 0
      vertex 7.25 -1.29904 5
    endloop
  endfacet
  facet normal 0.309018 0.951056 0
    outer loop
      vertex 7.25 -1.29904 5
      vertex 7.84321 -1.49178 0
      vertex 7.25 -1.29904 0
    endloop
  endfacet
  facet normal 0.669131 0.743145 0
    outer loop
      vertex 7.25 -1.29904 5
      vertex 7.25 -1.29904 0
      vertex 6.78647 -0.881678 5
    endloop
  endfacet
  facet normal 0.669131 0.743145 0
    outer loop
      vertex 6.78647 -0.881678 5
      vertex 7.25 -1.29904 0
      vertex 6.78647 -0.881678 0
    endloop
  endfacet
  facet normal 0.913545 0.406737 0
    outer loop
      vertex 6.53278 -0.311868 5
      vertex 6.78647 -0.881678 5
      vertex 6.78647 -0.881678 0
    endloop
  endfacet
  facet normal 0.913545 0.406737 0
    outer loop
      vertex 6.53278 -0.311868 0
      vertex 6.53278 -0.311868 5
      vertex 6.78647 -0.881678 0
    endloop
  endfacet
  facet normal 0 0 1
    outer loop
      vertex 3.5 3.75 2.5
      vertex 3.5 5 2.5
      vertex -3.5 5 2.5
    endloop
  endfacet
  facet normal 0 0 1
    outer loop
      vertex -3.5 3.75 2.5
      vertex 3.5 3.75 2.5
      vertex -3.5 5 2.5
    endloop
  endfacet
  facet normal 0 -1 0
    outer loop
      vertex 3.5 -3.75 2.5
      vertex 3.5 -3.75 4
      vertex -3.5 -3.75 4
    endloop
  endfacet
  facet normal 0 -1 0
    outer loop
      vertex -3.5 -3.75 2.5
      vertex 3.5 -3.75 2.5
      vertex -3.5 -3.75 4
    endloop
  endfacet
  facet normal 0 1 0
    outer loop
      vertex 3.5 3.75 4
      vertex 3.5 3.75 2.5
      vertex -3.5 3.75 4
    endloop
  endfacet
  facet normal 0 1 0
    outer loop
      vertex -3.5 3.75 4
      vertex 3.5 3.75 2.5
      vertex -3.5 3.75 2.5
    endloop
  endfacet
  facet normal 0 0 1
    outer loop
      vertex 3.5 1.25 4
      vertex 3.5 3.75 4
      vertex -3.5 3.75 4
    endloop
  endfacet
  facet normal 0 0 1
    outer loop
      vertex -3.5 1.25 4
      vertex 3.5 1.25 4
      vertex -3.5 3.75 4
    endloop
  endfacet
  facet normal 0 -1 0
    outer loop
      vertex 3.5 1.25 2.5
      vertex 3.5 1.25 4
      vertex -3.5 1.25 4
    endloop
  endfacet
  facet normal 0 -1 0
    outer loop
      vertex -3.5 1.25 2.5
      vertex 3.5 1.25 2.5
      vertex -3.5 1.25 4
    endloop
  endfacet
  facet normal 0 0 1
    outer loop
      vertex 3.5 -1.25 2.5
      vertex 3.5 1.25 2.5
      vertex -3.5 1.25 2.5
    endloop
  endfacet
  facet normal 0 0 1
    outer loop
      vertex -3.5 -1.25 2.5
      vertex 3.5 -1.25 2.5
      vertex -3.5 1.25 2.5
    endloop
  endfacet
  facet normal 0 1 0
    outer loop
      vertex 3.5 -1.25 4
      vertex 3.5 -1.25 2.5
      vertex -3.5 -1.25 4
    endloop
  endfacet
  facet normal 0 1 0
    outer loop
      vertex -3.5 -1.25 4
      vertex 3.5 -1.25 2.5
      vertex -3.5 -1.25 2.5
    endloop
  endfacet
  facet normal 0 0 1
    outer loop
      vertex 3.5 -3.75 4
      vertex 3.5 -1.25 4
      vertex -3.5 -1.25 4
    endloop
  endfacet
  facet normal 0 0 1
    outer loop
      vertex -3.5 -3.75 4
      vertex 3.5 -3.75 4
      vertex -3.5 -1.25 4
    endloop
  endfacet
  facet normal -1 0 0
    outer loop
      vertex -12 -20 0
      vertex -12 -20 5
      vertex -12 -10 0
    endloop
  endfacet
  facet normal -1 0 0
    outer loop
      vertex -12 -10 0
      vertex -12 -20 5
      vertex -12 -10 5
    endloop
  endfacet
  facet normal 0 -1 0
    outer loop
      vertex -12 -20 5
      vertex -12 -20 0
      vertex 12 -20 0
    endloop
  endfacet
  facet normal 0 -1 0
    outer loop
      vertex 12 -20 5
      vertex -12 -20 5
      vertex 12 -20 0
    endloop
  endfacet
  facet normal 0 0 -1
    outer loop
      vertex -6.9963 -13.8853 0
      vertex -12 -10 0
      vertex 12 -20 0
    endloop
  endfacet
  facet normal 0 0 -1
    outer loop
      vertex 7.84321 -13.5082 0
      vertex -12 -10 0
      vertex 12 -10 0
    endloop
  endfacet
  facet normal 0 0 -1
    outer loop
      vertex -12 -20 0
      vertex -12 -10 0
      vertex -9.46722 -14.6881 0
    endloop
  endfacet
  facet normal 0 0 -1
    outer loop
      vertex -12 -20 0
      vertex -9.46722 -14.6881 0
      vertex -9.46722 -15.3119 0
    endloop
  endfacet
  facet normal 0 0 -1
    outer loop
      vertex -12 -20 0
      vertex -9.46722 -15.3119 0
      vertex -9.21352 -15.8817 0
    endloop
  endfacet
  facet normal 0 0 -1
    outer loop
      vertex -12 -20 0
      vertex -9.21352 -15.8817 0
      vertex -8.75 -16.299 0
    endloop
  endfacet
  facet normal 0 0 -1
    outer loop
      vertex -12 -20 0
      vertex -8.75 -16.299 0
      vertex -8.15679 -16.4918 0
    endloop
  endfacet
  facet normal 0 0 -1
    outer loop
      vertex -12 -20 0
      vertex -8.15679 -16.4918 0
      vertex 12 -20 0
    endloop
  endfacet
  facet normal 0 0 -1
    outer loop
      vertex -6.9963 -16.1147 0
      vertex 12 -20 0
      vertex -7.53647 -16.4266 0
    endloop
  endfacet
  facet normal 0 0 -1
    outer loop
      vertex -6.62968 -15.6101 0
      vertex 12 -20 0
      vertex -6.9963 -16.1147 0
    endloop
  endfacet
  facet normal 0 0 -1
    outer loop
      vertex -6.5 -15 0
      vertex 12 -20 0
      vertex -6.62968 -15.6101 0
    endloop
  endfacet
  facet normal 0 0 -1
    outer loop
      vertex 7.84321 -16.4918 0
      vertex 12 -20 0
      vertex 7.25 -16.299 0
    endloop
  endfacet
  facet normal 0 0 -1
    outer loop
      vertex -8.15679 -13.5082 0
      vertex -12 -10 0
      vertex -7.53647 -13.5734 0
    endloop
  endfacet
  facet normal 0 0 -1
    outer loop
      vertex -6.5 -15 0
      vertex -6.62968 -14.3899 0
      vertex 12 -20 0
    endloop
  endfacet
  facet normal 0 0 -1
    outer loop
      vertex -7.53647 -13.5734 0
      vertex -12 -10 0
      vertex -6.9963 -13.8853 0
    endloop
  endfacet
  facet normal 0 0 -1
    outer loop
      vertex -6.62968 -14.3899 0
      vertex -6.9963 -13.8853 0
      vertex 12 -20 0
    endloop
  endfacet
  facet normal 0 0 -1
    outer loop
      vertex -8.75 -13.701 0
      vertex -12 -10 0
      vertex -8.15679 -13.5082 0
    endloop
  endfacet
  facet normal 0 0 -1
    outer loop
      vertex -9.21352 -14.1183 0
      vertex -12 -10 0
      vertex -8.75 -13.701 0
    endloop
  endfacet
  facet normal 0 0 -1
    outer loop
      vertex -9.46722 -14.6881 0
      vertex -12 -10 0
      vertex -9.21352 -14.1183 0
    endloop
  endfacet
  facet normal 0 0 -1
    outer loop
      vertex 6.53278 -15.3119 0
      vertex -12 -10 0
      vertex 6.53278 -14.6881 0
    endloop
  endfacet
  facet normal 0 0 -1
    outer loop
      vertex 6.78647 -15.8817 0
      vertex -12 -10 0
      vertex 6.53278 -15.3119 0
    endloop
  endfacet
  facet normal 0 0 -1
    outer loop
      vertex 7.25 -16.299 0
      vertex -12 -10 0
      vertex 6.78647 -15.8817 0
    endloop
  endfacet
  facet normal 0 0 -1
    outer loop
      vertex 12 -20 0
      vertex -12 -10 0
      vertex 7.25 -16.299 0
    endloop
  endfacet
  facet normal 0 0 -1
    outer loop
      vertex 8.46352 -16.4266 0
      vertex 12 -20 0
      vertex 7.84321 -16.4918 0
    endloop
  endfacet
  facet normal 0 0 -1
    outer loop
      vertex 9.5 -15 0
      vertex 12 -10 0
      vertex 9.37032 -15.6101 0
    endloop
  endfacet
  facet normal 0 0 -1
    outer loop
      vertex 12 -20 0
      vertex 8.46352 -16.4266 0
      vertex 9.0037 -16.1147 0
    endloop
  endfacet
  facet normal 0 0 -1
    outer loop
      vertex 12 -20 0
      vertex 9.0037 -16.1147 0
      vertex 9.37032 -15.6101 0
    endloop
  endfacet
  facet normal 0 0 -1
    outer loop
      vertex 12 -20 0
      vertex 9.37032 -15.6101 0
      vertex 12 -10 0
    endloop
  endfacet
  facet normal 0 0 -1
    outer loop
      vertex 9.37032 -14.3899 0
      vertex 12 -10 0
      vertex 9.5 -15 0
    endloop
  endfacet
  facet normal 0 0 -1
    outer loop
      vertex 7.84321 -13.5082 0
      vertex 12 -10 0
      vertex 8.46352 -13.5734 0
    endloop
  endfacet
  facet normal 0 0 -1
    outer loop
      vertex 9.37032 -14.3899 0
      vertex 9.0037 -13.8853 0
      vertex 12 -10 0
    endloop
  endfacet
  facet normal 0 0 -1
    outer loop
      vertex 9.0037 -13.8853 0
      vertex 8.46352 -13.5734 0
      vertex 12 -10 0
    endloop
  endfacet
  facet normal 0 0 -1
    outer loop
      vertex 7.25 -13.701 0
      vertex -12 -10 0
      vertex 7.84321 -13.5082 0
    endloop
  endfacet
  facet normal 0 0 -1
    outer loop
      vertex 6.78647 -14.1183 0
      vertex -12 -10 0
      vertex 7.25 -13.701 0
    endloop
  endfacet
  facet normal 0 0 -1
    outer loop
      vertex 6.53278 -14.6881 0
      vertex -12 -10 0
      vertex 6.78647 -14.1183 0
    endloop
  endfacet
  facet normal 0 0 -1
    outer loop
      vertex -7.53647 -16.4266 0
      vertex 12 -20 0
      vertex -8.15679 -16.4918 0
    endloop
  endfacet
  facet normal 0 1 0
    outer loop
      vertex -12 -10 0
      vertex -12 -10 5
      vertex 12 -10 0
    endloop
  endfacet
  facet normal 0 1 0
    outer loop
      vertex 12 -10 0
      vertex -12 -10 5
      vertex 12 -10 5
    endloop
  endfacet
  facet normal 0 0 1
    outer loop
      vertex -8 -18.3 5
      vertex -12 -20 5
      vertex 12 -20 5
    endloop
  endfacet
  facet normal 0 0 1
    outer loop
      vertex 8 -18.3 5
      vertex -12 -10 5
      vertex 12 -20 5
    endloop
  endfacet
  facet normal 0 0 1
    outer loop
      vertex -12 -10 5
      vertex -12 -20 5
      vertex -10.8579 -16.65 5
    endloop
  endfacet
  facet normal 0 0 1
    outer loop
      vertex -5.14212 -16.65 5
      vertex -8 -18.3 5
      vertex 12 -20 5
    endloop
  endfacet
  facet normal 0 0 1
    outer loop
      vertex -12 -10 5
      vertex -10.8579 -16.65 5
      vertex -10.8579 -13.35 5
    endloop
  endfacet
  facet normal 0 0 1
    outer loop
      vertex -12 -10 5
      vertex -8 -11.7 5
      vertex 12 -20 5
    endloop
  endfacet
  facet normal 0 0 1
    outer loop
      vertex -12 -10 5
      vertex -10.8579 -13.35 5
      vertex -8 -11.7 5
    endloop
  endfacet
  facet normal 0 0 1
    outer loop
      vertex -8 -11.7 5
      vertex -5.14212 -13.35 5
      vertex 12 -20 5
    endloop
  endfacet
  facet normal 0 0 1
    outer loop
      vertex -10.8579 -16.65 5
      vertex -12 -20 5
      vertex -8 -18.3 5
    endloop
  endfacet
  facet normal 0 0 1
    outer loop
      vertex 5.14212 -13.35 5
      vertex -12 -10 5
      vertex 5.14212 -16.65 5
    endloop
  endfacet
  facet normal 0 0 1
    outer loop
      vertex 10.8579 -16.65 5
      vertex 8 -18.3 5
      vertex 12 -20 5
    endloop
  endfacet
  facet normal 0 0 1
    outer loop
      vertex 8 -11.7 5
      vertex -12 -10 5
      vertex 5.14212 -13.35 5
    endloop
  endfacet
  facet normal 0 0 1
    outer loop
      vertex 12 -10 5
      vertex -12 -10 5
      vertex 8 -11.7 5
    endloop
  endfacet
  facet normal 0 0 1
    outer loop
      vertex 12 -10 5
      vertex 10.8579 -13.35 5
      vertex 12 -20 5
    endloop
  endfacet
  facet normal 0 0 1
    outer loop
      vertex 10.8579 -13.35 5
      vertex 10.8579 -16.65 5
      vertex 12 -20 5
    endloop
  endfacet
  facet normal 0 0 1
    outer loop
      vertex 5.14212 -16.65 5
      vertex -12 -10 5
      vertex 8 -18.3 5
    endloop
  endfacet
  facet normal 0 0 1
    outer loop
      vertex -5.14212 -13.35 5
      vertex -5.14212 -16.65 5
      vertex 12 -20 5
    endloop
  endfacet
  facet normal 0 0 1
    outer loop
      vertex 8 -11.7 5
      vertex 10.8579 -13.35 5
      vertex 12 -10 5
    endloop
  endfacet
  facet normal 1 0 0
    outer loop
      vertex 12 -20 5
      vertex 12 -20 0
      vertex 12 -10 0
    endloop
  endfacet
  facet normal 1 0 0
    outer loop
      vertex 12 -10 5
      vertex 12 -20 5
      vertex 12 -10 0
    endloop
  endfacet
  facet normal 0.913545 -0.406737 0
    outer loop
      vertex -9.21352 -14.1183 0
      vertex -9.21352 -14.1183 2.5
      vertex -9.46722 -14.6881 2.5
    endloop
  endfacet
  facet normal 0.913545 -0.406737 0
    outer loop
      vertex -9.46722 -14.6881 0
      vertex -9.21352 -14.1183 0
      vertex -9.46722 -14.6881 2.5
    endloop
  endfacet
  facet normal 1 0 0
    outer loop
      vertex -9.46722 -14.6881 0
      vertex -9.46722 -14.6881 2.5
      vertex -9.46722 -15.3119 2.5
    endloop
  endfacet
  facet normal 1 0 0
    outer loop
      vertex -9.46722 -15.3119 0
      vertex -9.46722 -14.6881 0
      vertex -9.46722 -15.3119 2.5
    endloop
  endfacet
  facet normal 0.669131 -0.743145 0
    outer loop
      vertex -8.75 -13.701 0
      vertex -8.75 -13.701 2.5
      vertex -9.21352 -14.1183 2.5
    endloop
  endfacet
  facet normal 0.669131 -0.743145 0
    outer loop
      vertex -9.21352 -14.1183 0
      vertex -8.75 -13.701 0
      vertex -9.21352 -14.1183 2.5
    endloop
  endfacet
  facet normal 0.309018 -0.951056 0
    outer loop
      vertex -8.15679 -13.5082 0
      vertex -8.15679 -13.5082 2.5
      vertex -8.75 -13.701 2.5
    endloop
  endfacet
  facet normal 0.309018 -0.951056 0
    outer loop
      vertex -8.75 -13.701 0
      vertex -8.15679 -13.5082 0
      vertex -8.75 -13.701 2.5
    endloop
  endfacet
  facet normal -0.104528 -0.994522 0
    outer loop
      vertex -7.53647 -13.5734 0
      vertex -7.53647 -13.5734 2.5
      vertex -8.15679 -13.5082 2.5
    endloop
  endfacet
  facet normal -0.104528 -0.994522 0
    outer loop
      vertex -8.15679 -13.5082 0
      vertex -7.53647 -13.5734 0
      vertex -8.15679 -13.5082 2.5
    endloop
  endfacet
  facet normal -0.5 -0.866025 0
    outer loop
      vertex -6.9963 -13.8853 0
      vertex -6.9963 -13.8853 2.5
      vertex -7.53647 -13.5734 2.5
    endloop
  endfacet
  facet normal -0.5 -0.866025 0
    outer loop
      vertex -7.53647 -13.5734 0
      vertex -6.9963 -13.8853 0
      vertex -7.53647 -13.5734 2.5
    endloop
  endfacet
  facet normal -0.809017 -0.587785 0
    outer loop
      vertex -6.62968 -14.3899 2.5
      vertex -6.9963 -13.8853 2.5
      vertex -6.62968 -14.3899 0
    endloop
  endfacet
  facet normal -0.809017 -0.587785 0
    outer loop
      vertex -6.62968 -14.3899 0
      vertex -6.9963 -13.8853 2.5
      vertex -6.9963 -13.8853 0
    endloop
  endfacet
  facet normal -0.978148 -0.207912 0
    outer loop
      vertex -6.5 -15 2.5
      vertex -6.62968 -14.3899 2.5
      vertex -6.5 -15 0
    endloop
  endfacet
  facet normal -0.978148 -0.207912 0
    outer loop
      vertex -6.5 -15 0
      vertex -6.62968 -14.3899 2.5
      vertex -6.62968 -14.3899 0
    endloop
  endfacet
  facet normal -0.978148 0.207912 0
    outer loop
      vertex -6.5 -15 2.5
      vertex -6.5 -15 0
      vertex -6.62968 -15.6101 2.5
    endloop
  endfacet
  facet normal -0.978148 0.207912 0
    outer loop
      vertex -6.62968 -15.6101 2.5
      vertex -6.5 -15 0
      vertex -6.62968 -15.6101 0
    endloop
  endfacet
  facet normal -0.809017 0.587785 0
    outer loop
      vertex -6.62968 -15.6101 2.5
      vertex -6.62968 -15.6101 0
      vertex -6.9963 -16.1147 2.5
    endloop
  endfacet
  facet normal -0.809017 0.587785 0
    outer loop
      vertex -6.9963 -16.1147 2.5
      vertex -6.62968 -15.6101 0
      vertex -6.9963 -16.1147 0
    endloop
  endfacet
  facet normal -0.5 0.866025 0
    outer loop
      vertex -6.9963 -16.1147 2.5
      vertex -6.9963 -16.1147 0
      vertex -7.53647 -16.4266 2.5
    endloop
  endfacet
  facet normal -0.5 0.866025 0
    outer loop
      vertex -7.53647 -16.4266 2.5
      vertex -6.9963 -16.1147 0
      vertex -7.53647 -16.4266 0
    endloop
  endfacet
  facet normal -0.104528 0.994522 0
    outer loop
      vertex -7.53647 -16.4266 2.5
      vertex -7.53647 -16.4266 0
      vertex -8.15679 -16.4918 2.5
    endloop
  endfacet
  facet normal -0.104528 0.994522 0
    outer loop
      vertex -8.15679 -16.4918 2.5
      vertex -7.53647 -16.4266 0
      vertex -8.15679 -16.4918 0
    endloop
  endfacet
  facet normal 0.309018 0.951056 0
    outer loop
      vertex -8.15679 -16.4918 2.5
      vertex -8.15679 -16.4918 0
      vertex -8.75 -16.299 2.5
    endloop
  endfacet
  facet normal 0.309018 0.951056 0
    outer loop
      vertex -8.75 -16.299 2.5
      vertex -8.15679 -16.4918 0
      vertex -8.75 -16.299 0
    endloop
  endfacet
  facet normal 0.669131 0.743145 0
    outer loop
      vertex -8.75 -16.299 2.5
      vertex -8.75 -16.299 0
      vertex -9.21352 -15.8817 2.5
    endloop
  endfacet
  facet normal 0.669131 0.743145 0
    outer loop
      vertex -9.21352 -15.8817 2.5
      vertex -8.75 -16.299 0
      vertex -9.21352 -15.8817 0
    endloop
  endfacet
  facet normal 0.913545 0.406737 0
    outer loop
      vertex -9.46722 -15.3119 2.5
      vertex -9.21352 -15.8817 2.5
      vertex -9.21352 -15.8817 0
    endloop
  endfacet
  facet normal 0.913545 0.406737 0
    outer loop
      vertex -9.46722 -15.3119 0
      vertex -9.46722 -15.3119 2.5
      vertex -9.21352 -15.8817 0
    endloop
  endfacet
  facet normal 1 0 0
    outer loop
      vertex 6.53278 -14.6881 0
      vertex 6.53278 -14.6881 2.5
      vertex 6.53278 -15.3119 2.5
    endloop
  endfacet
  facet normal 1 0 0
    outer loop
      vertex 6.53278 -15.3119 0
      vertex 6.53278 -14.6881 0
      vertex 6.53278 -15.3119 2.5
    endloop
  endfacet
  facet normal 0.913545 -0.406737 0
    outer loop
      vertex 6.78647 -14.1183 0
      vertex 6.78647 -14.1183 2.5
      vertex 6.53278 -14.6881 2.5
    endloop
  endfacet
  facet normal 0.913545 -0.406737 0
    outer loop
      vertex 6.53278 -14.6881 0
      vertex 6.78647 -14.1183 0
      vertex 6.53278 -14.6881 2.5
    endloop
  endfacet
  facet normal 0.669131 -0.743145 0
    outer loop
      vertex 7.25 -13.701 0
      vertex 7.25 -13.701 2.5
      vertex 6.78647 -14.1183 2.5
    endloop
  endfacet
  facet normal 0.669131 -0.743145 0
    outer loop
      vertex 6.78647 -14.1183 0
      vertex 7.25 -13.701 0
      vertex 6.78647 -14.1183 2.5
    endloop
  endfacet
  facet normal 0.309018 -0.951056 0
    outer loop
      vertex 7.84321 -13.5082 0
      vertex 7.84321 -13.5082 2.5
      vertex 7.25 -13.701 2.5
    endloop
  endfacet
  facet normal 0.309018 -0.951056 0
    outer loop
      vertex 7.25 -13.701 0
      vertex 7.84321 -13.5082 0
      vertex 7.25 -13.701 2.5
    endloop
  endfacet
  facet normal -0.104528 -0.994522 0
    outer loop
      vertex 8.46352 -13.5734 0
      vertex 8.46352 -13.5734 2.5
      vertex 7.84321 -13.5082 2.5
    endloop
  endfacet
  facet normal -0.104528 -0.994522 0
    outer loop
      vertex 7.84321 -13.5082 0
      vertex 8.46352 -13.5734 0
      vertex 7.84321 -13.5082 2.5
    endloop
  endfacet
  facet normal -0.5 -0.866025 0
    outer loop
      vertex 9.0037 -13.8853 0
      vertex 9.0037 -13.8853 2.5
      vertex 8.46352 -13.5734 2.5
    endloop
  endfacet
  facet normal -0.5 -0.866025 0
    outer loop
      vertex 8.46352 -13.5734 0
      vertex 9.0037 -13.8853 0
      vertex 8.46352 -13.5734 2.5
    endloop
  endfacet
  facet normal -0.809017 -0.587785 0
    outer loop
      vertex 9.37032 -14.3899 2.5
      vertex 9.0037 -13.8853 2.5
      vertex 9.37032 -14.3899 0
    endloop
  endfacet
  facet normal -0.809017 -0.587785 0
    outer loop
      vertex 9.37032 -14.3899 0
      vertex 9.0037 -13.8853 2.5
      vertex 9.0037 -13.8853 0
    endloop
  endfacet
  facet normal -0.978148 -0.207912 0
    outer loop
      vertex 9.5 -15 2.5
      vertex 9.37032 -14.3899 2.5
      vertex 9.5 -15 0
    endloop
  endfacet
  facet normal -0.978148 -0.207912 0
    outer loop
      vertex 9.5 -15 0
      vertex 9.37032 -14.3899 2.5
      vertex 9.37032 -14.3899 0
    endloop
  endfacet
  facet normal -0.978148 0.207912 0
    outer loop
      vertex 9.5 -15 2.5
      vertex 9.5 -15 0
      vertex 9.37032 -15.6101 2.5
    endloop
  endfacet
  facet normal -0.978148 0.207912 0
    outer loop
      vertex 9.37032 -15.6101 2.5
      vertex 9.5 -15 0
      vertex 9.37032 -15.6101 0
    endloop
  endfacet
  facet normal -0.809017 0.587785 0
    outer loop
      vertex 9.37032 -15.6101 2.5
      vertex 9.37032 -15.6101 0
      vertex 9.0037 -16.1147 2.5
    endloop
  endfacet
  facet normal -0.809017 0.587785 0
    outer loop
      vertex 9.0037 -16.1147 2.5
      vertex 9.37032 -15.6101 0
      vertex 9.0037 -16.1147 0
    endloop
  endfacet
  facet normal -0.5 0.866025 0
    outer loop
      vertex 9.0037 -16.1147 2.5
      vertex 9.0037 -16.1147 0
      vertex 8.46352 -16.4266 2.5
    endloop
  endfacet
  facet normal -0.5 0.866025 0
    outer loop
      vertex 8.46352 -16.4266 2.5
      vertex 9.0037 -16.1147 0
      vertex 8.46352 -16.4266 0
    endloop
  endfacet
  facet normal -0.104528 0.994522 0
    outer loop
      vertex 8.46352 -16.4266 2.5
      vertex 8.46352 -16.4266 0
      vertex 7.84321 -16.4918 2.5
    endloop
  endfacet
  facet normal -0.104528 0.994522 0
    outer loop
      vertex 7.84321 -16.4918 2.5
      vertex 8.46352 -16.4266 0
      vertex 7.84321 -16.4918 0
    endloop
  endfacet
  facet normal 0.309018 0.951056 0
    outer loop
      vertex 7.84321 -16.4918 2.5
      vertex 7.84321 -16.4918 0
      vertex 7.25 -16.299 2.5
    endloop
  endfacet
  facet normal 0.309018 0.951056 0
    outer loop
      vertex 7.25 -16.299 2.5
      vertex 7.84321 -16.4918 0
      vertex 7.25 -16.299 0
    endloop
  endfacet
  facet normal 0.669131 0.743145 0
    outer loop
      vertex 7.25 -16.299 2.5
      vertex 7.25 -16.299 0
      vertex 6.78647 -15.8817 2.5
    endloop
  endfacet
  facet normal 0.669131 0.743145 0
    outer loop
      vertex 6.78647 -15.8817 2.5
      vertex 7.25 -16.299 0
      vertex 6.78647 -15.8817 0
    endloop
  endfacet
  facet normal 0.913545 0.406737 0
    outer loop
      vertex 6.53278 -15.3119 2.5
      vertex 6.78647 -15.8817 2.5
      vertex 6.78647 -15.8817 0
    endloop
  endfacet
  facet normal 0.913545 0.406737 0
    outer loop
      vertex 6.53278 -15.3119 0
      vertex 6.53278 -15.3119 2.5
      vertex 6.78647 -15.8817 0
    endloop
  endfacet
  facet normal 0.5 0.866025 0
    outer loop
      vertex -8 -18.3 5
      vertex -8 -18.3 2.5
      vertex -10.8579 -16.65 5
    endloop
  endfacet
  facet normal 0.5 0.866025 0
    outer loop
      vertex -10.8579 -16.65 5
      vertex -8 -18.3 2.5
      vertex -10.8579 -16.65 2.5
    endloop
  endfacet
  facet normal 1 -2.22045e-016 0
    outer loop
      vertex -10.8579 -13.35 2.5
      vertex -10.8579 -13.35 5
      vertex -10.8579 -16.65 5
    endloop
  endfacet
  facet normal 1 -2.22045e-016 0
    outer loop
      vertex -10.8579 -16.65 2.5
      vertex -10.8579 -13.35 2.5
      vertex -10.8579 -16.65 5
    endloop
  endfacet
  facet normal -0.5 0.866025 0
    outer loop
      vertex -5.14212 -16.65 5
      vertex -5.14212 -16.65 2.5
      vertex -8 -18.3 5
    endloop
  endfacet
  facet normal -0.5 0.866025 0
    outer loop
      vertex -8 -18.3 5
      vertex -5.14212 -16.65 2.5
      vertex -8 -18.3 2.5
    endloop
  endfacet
  facet normal -1 2.22045e-016 0
    outer loop
      vertex -5.14212 -13.35 5
      vertex -5.14212 -13.35 2.5
      vertex -5.14212 -16.65 5
    endloop
  endfacet
  facet normal -1 2.22045e-016 0
    outer loop
      vertex -5.14212 -16.65 5
      vertex -5.14212 -13.35 2.5
      vertex -5.14212 -16.65 2.5
    endloop
  endfacet
  facet normal -0.5 -0.866025 0
    outer loop
      vertex -5.14212 -13.35 2.5
      vertex -5.14212 -13.35 5
      vertex -8 -11.7 5
    endloop
  endfacet
  facet normal -0.5 -0.866025 0
    outer loop
      vertex -8 -11.7 2.5
      vertex -5.14212 -13.35 2.5
      vertex -8 -11.7 5
    endloop
  endfacet
  facet normal 0.5 -0.866025 0
    outer loop
      vertex -8 -11.7 2.5
      vertex -8 -11.7 5
      vertex -10.8579 -13.35 5
    endloop
  endfacet
  facet normal 0.5 -0.866025 0
    outer loop
      vertex -10.8579 -13.35 2.5
      vertex -8 -11.7 2.5
      vertex -10.8579 -13.35 5
    endloop
  endfacet
  facet normal 0.5 0.866025 0
    outer loop
      vertex 8 -18.3 5
      vertex 8 -18.3 2.5
      vertex 5.14212 -16.65 5
    endloop
  endfacet
  facet normal 0.5 0.866025 0
    outer loop
      vertex 5.14212 -16.65 5
      vertex 8 -18.3 2.5
      vertex 5.14212 -16.65 2.5
    endloop
  endfacet
  facet normal 1 -2.22045e-016 0
    outer loop
      vertex 5.14212 -13.35 2.5
      vertex 5.14212 -13.35 5
      vertex 5.14212 -16.65 5
    endloop
  endfacet
  facet normal 1 -2.22045e-016 0
    outer loop
      vertex 5.14212 -16.65 2.5
      vertex 5.14212 -13.35 2.5
      vertex 5.14212 -16.65 5
    endloop
  endfacet
  facet normal -0.5 0.866025 0
    outer loop
      vertex 10.8579 -16.65 5
      vertex 10.8579 -16.65 2.5
      vertex 8 -18.3 5
    endloop
  endfacet
  facet normal -0.5 0.866025 0
    outer loop
      vertex 8 -18.3 5
      vertex 10.8579 -16.65 2.5
      vertex 8 -18.3 2.5
    endloop
  endfacet
  facet normal -1 2.22045e-016 0
    outer loop
      vertex 10.8579 -13.35 5
      vertex 10.8579 -13.35 2.5
      vertex 10.8579 -16.65 5
    endloop
  endfacet
  facet normal -1 2.22045e-016 0
    outer loop
      vertex 10.8579 -16.65 5
      vertex 10.8579 -13.35 2.5
      vertex 10.8579 -16.65 2.5
    endloop
  endfacet
  facet normal -0.5 -0.866025 0
    outer loop
      vertex 10.8579 -13.35 2.5
      vertex 10.8579 -13.35 5
      vertex 8 -11.7 5
    endloop
  endfacet
  facet normal -0.5 -0.866025 0
    outer loop
      vertex 8 -11.7 2.5
      vertex 10.8579 -13.35 2.5
      vertex 8 -11.7 5
    endloop
  endfacet
  facet normal 0.5 -0.866025 0
    outer loop
      vertex 8 -11.7 2.5
      vertex 8 -11.7 5
      vertex 5.14212 -13.35 5
    endloop
  endfacet
  facet normal 0.5 -0.866025 0
    outer loop
      vertex 5.14212 -13.35 2.5
      vertex 8 -11.7 2.5
      vertex 5.14212 -13.35 5
    endloop
  endfacet
  facet normal 0 0 1
    outer loop
      vertex -8 -18.3 2.5
      vertex -5.14212 -16.65 2.5
      vertex -5.14212 -13.35 2.5
    endloop
  endfacet
  facet normal 0 0 1
    outer loop
      vertex -6.62968 -15.6101 2.5
      vertex -8 -18.3 2.5
      vertex -5.14212 -13.35 2.5
    endloop
  endfacet
  facet normal 0 0 1
    outer loop
      vertex -10.8579 -16.65 2.5
      vertex -8 -18.3 2.5
      vertex -10.8579 -13.35 2.5
    endloop
  endfacet
  facet normal 0 0 1
    outer loop
      vertex -8.15679 -13.5082 2.5
      vertex -7.53647 -13.5734 2.5
      vertex -8 -11.7 2.5
    endloop
  endfacet
  facet normal 0 0 1
    outer loop
      vertex -10.8579 -13.35 2.5
      vertex -9.21352 -14.1183 2.5
      vertex -8 -11.7 2.5
    endloop
  endfacet
  facet normal 0 0 1
    outer loop
      vertex -10.8579 -13.35 2.5
      vertex -9.46722 -14.6881 2.5
      vertex -9.21352 -14.1183 2.5
    endloop
  endfacet
  facet normal 0 0 1
    outer loop
      vertex -8.15679 -16.4918 2.5
      vertex -8.75 -16.299 2.5
      vertex -8 -18.3 2.5
    endloop
  endfacet
  facet normal 0 0 1
    outer loop
      vertex -8.75 -13.701 2.5
      vertex -8.15679 -13.5082 2.5
      vertex -8 -11.7 2.5
    endloop
  endfacet
  facet normal 0 0 1
    outer loop
      vertex -8 -11.7 2.5
      vertex -7.53647 -13.5734 2.5
      vertex -5.14212 -13.35 2.5
    endloop
  endfacet
  facet normal 0 0 1
    outer loop
      vertex -7.53647 -13.5734 2.5
      vertex -6.9963 -13.8853 2.5
      vertex -5.14212 -13.35 2.5
    endloop
  endfacet
  facet normal 0 0 1
    outer loop
      vertex -6.9963 -13.8853 2.5
      vertex -6.62968 -14.3899 2.5
      vertex -5.14212 -13.35 2.5
    endloop
  endfacet
  facet normal 0 0 1
    outer loop
      vertex -6.62968 -14.3899 2.5
      vertex -6.5 -15 2.5
      vertex -5.14212 -13.35 2.5
    endloop
  endfacet
  facet normal 0 0 1
    outer loop
      vertex -6.5 -15 2.5
      vertex -6.62968 -15.6101 2.5
      vertex -5.14212 -13.35 2.5
    endloop
  endfacet
  facet normal 0 0 1
    outer loop
      vertex -6.9963 -16.1147 2.5
      vertex -8 -18.3 2.5
      vertex -6.62968 -15.6101 2.5
    endloop
  endfacet
  facet normal 0 0 1
    outer loop
      vertex -8.75 -16.299 2.5
      vertex -9.21352 -15.8817 2.5
      vertex -8 -18.3 2.5
    endloop
  endfacet
  facet normal 0 0 1
    outer loop
      vertex -10.8579 -13.35 2.5
      vertex -8 -18.3 2.5
      vertex -9.21352 -15.8817 2.5
    endloop
  endfacet
  facet normal 0 0 1
    outer loop
      vertex -10.8579 -13.35 2.5
      vertex -9.46722 -15.3119 2.5
      vertex -9.46722 -14.6881 2.5
    endloop
  endfacet
  facet normal 0 0 1
    outer loop
      vertex -10.8579 -13.35 2.5
      vertex -9.21352 -15.8817 2.5
      vertex -9.46722 -15.3119 2.5
    endloop
  endfacet
  facet normal 0 0 1
    outer loop
      vertex -9.21352 -14.1183 2.5
      vertex -8.75 -13.701 2.5
      vertex -8 -11.7 2.5
    endloop
  endfacet
  facet normal 0 0 1
    outer loop
      vertex -6.9963 -16.1147 2.5
      vertex -7.53647 -16.4266 2.5
      vertex -8 -18.3 2.5
    endloop
  endfacet
  facet normal 0 0 1
    outer loop
      vertex -7.53647 -16.4266 2.5
      vertex -8.15679 -16.4918 2.5
      vertex -8 -18.3 2.5
    endloop
  endfacet
  facet normal 0 0 1
    outer loop
      vertex 8 -18.3 2.5
      vertex 10.8579 -16.65 2.5
      vertex 10.8579 -13.35 2.5
    endloop
  endfacet
  facet normal 0 0 1
    outer loop
      vertex 9.37032 -15.6101 2.5
      vertex 8 -18.3 2.5
      vertex 10.8579 -13.35 2.5
    endloop
  endfacet
  facet normal 0 0 1
    outer loop
      vertex 5.14212 -16.65 2.5
      vertex 8 -18.3 2.5
      vertex 5.14212 -13.35 2.5
    endloop
  endfacet
  facet normal 0 0 1
    outer loop
      vertex 7.84321 -13.5082 2.5
      vertex 8.46352 -13.5734 2.5
      vertex 8 -11.7 2.5
    endloop
  endfacet
  facet normal 0 0 1
    outer loop
      vertex 5.14212 -13.35 2.5
      vertex 6.78647 -14.1183 2.5
      vertex 8 -11.7 2.5
    endloop
  endfacet
  facet normal 0 0 1
    outer loop
      vertex 5.14212 -13.35 2.5
      vertex 6.53278 -14.6881 2.5
      vertex 6.78647 -14.1183 2.5
    endloop
  endfacet
  facet normal 0 0 1
    outer loop
      vertex 7.84321 -16.4918 2.5
      vertex 7.25 -16.299 2.5
      vertex 8 -18.3 2.5
    endloop
  endfacet
  facet normal 0 0 1
    outer loop
      vertex 7.25 -13.701 2.5
      vertex 7.84321 -13.5082 2.5
      vertex 8 -11.7 2.5
    endloop
  endfacet
  facet normal 0 0 1
    outer loop
      vertex 8 -11.7 2.5
      vertex 8.46352 -13.5734 2.5
      vertex 10.8579 -13.35 2.5
    endloop
  endfacet
  facet normal 0 0 1
    outer loop
      vertex 8.46352 -13.5734 2.5
      vertex 9.0037 -13.8853 2.5
      vertex 10.8579 -13.35 2.5
    endloop
  endfacet
  facet normal 0 0 1
    outer loop
      vertex 9.0037 -13.8853 2.5
      vertex 9.37032 -14.3899 2.5
      vertex 10.8579 -13.35 2.5
    endloop
  endfacet
  facet normal 0 0 1
    outer loop
      vertex 9.37032 -14.3899 2.5
      vertex 9.5 -15 2.5
      vertex 10.8579 -13.35 2.5
    endloop
  endfacet
  facet normal 0 0 1
    outer loop
      vertex 9.5 -15 2.5
      vertex 9.37032 -15.6101 2.5
      vertex 10.8579 -13.35 2.5
    endloop
  endfacet
  facet normal 0 0 1
    outer loop
      vertex 9.0037 -16.1147 2.5
      vertex 8 -18.3 2.5
      vertex 9.37032 -15.6101 2.5
    endloop
  endfacet
  facet normal 0 0 1
    outer loop
      vertex 7.25 -16.299 2.5
      vertex 6.78647 -15.8817 2.5
      vertex 8 -18.3 2.5
    endloop
  endfacet
  facet normal 0 0 1
    outer loop
      vertex 5.14212 -13.35 2.5
      vertex 8 -18.3 2.5
      vertex 6.78647 -15.8817 2.5
    endloop
  endfacet
  facet normal 0 0 1
    outer loop
      vertex 5.14212 -13.35 2.5
      vertex 6.53278 -15.3119 2.5
      vertex 6.53278 -14.6881 2.5
    endloop
  endfacet
  facet normal 0 0 1
    outer loop
      vertex 5.14212 -13.35 2.5
      vertex 6.78647 -15.8817 2.5
      vertex 6.53278 -15.3119 2.5
    endloop
  endfacet
  facet normal 0 0 1
    outer loop
      vertex 6.78647 -14.1183 2.5
      vertex 7.25 -13.701 2.5
      vertex 8 -11.7 2.5
    endloop
  endfacet
  facet normal 0 0 1
    outer loop
      vertex 9.0037 -16.1147 2.5
      vertex 8.46352 -16.4266 2.5
      vertex 8 -18.3 2.5
    endloop
  endfacet
  facet normal 0 0 1
    outer loop
      vertex 8.46352 -16.4266 2.5
      vertex 7.84321 -16.4918 2.5
      vertex 8 -18.3 2.5
    endloop
  endfacet
  facet normal -1 0 0
    outer loop
      vertex -12 10 0
      vertex -12 10 5
      vertex -12 20 0
    endloop
  endfacet
  facet normal -1 0 0
    outer loop
      vertex -12 20 0
      vertex -12 10 5
      vertex -12 20 5
    endloop
  endfacet
  facet normal 0 -1 0
    outer loop
      vertex -12 10 5
      vertex -12 10 0
      vertex 12 10 0
    endloop
  endfacet
  facet normal 0 -1 0
    outer loop
      vertex 12 10 5
      vertex -12 10 5
      vertex 12 10 0
    endloop
  endfacet
  facet normal 0 0 -1
    outer loop
      vertex -6.9963 16.1147 0
      vertex -12 20 0
      vertex 12 10 0
    endloop
  endfacet
  facet normal 0 0 -1
    outer loop
      vertex 7.84321 16.4918 0
      vertex -12 20 0
      vertex 12 20 0
    endloop
  endfacet
  facet normal 0 0 -1
    outer loop
      vertex -12 10 0
      vertex -12 20 0
      vertex -9.46722 15.3119 0
    endloop
  endfacet
  facet normal 0 0 -1
    outer loop
      vertex -12 10 0
      vertex -9.46722 15.3119 0
      vertex -9.46722 14.6881 0
    endloop
  endfacet
  facet normal 0 0 -1
    outer loop
      vertex -12 10 0
      vertex -9.46722 14.6881 0
      vertex -9.21352 14.1183 0
    endloop
  endfacet
  facet normal 0 0 -1
    outer loop
      vertex -12 10 0
      vertex -9.21352 14.1183 0
      vertex -8.75 13.701 0
    endloop
  endfacet
  facet normal 0 0 -1
    outer loop
      vertex -12 10 0
      vertex -8.75 13.701 0
      vertex -8.15679 13.5082 0
    endloop
  endfacet
  facet normal 0 0 -1
    outer loop
      vertex -12 10 0
      vertex -8.15679 13.5082 0
      vertex 12 10 0
    endloop
  endfacet
  facet normal 0 0 -1
    outer loop
      vertex -6.9963 13.8853 0
      vertex 12 10 0
      vertex -7.53647 13.5734 0
    endloop
  endfacet
  facet normal 0 0 -1
    outer loop
      vertex -6.62968 14.3899 0
      vertex 12 10 0
      vertex -6.9963 13.8853 0
    endloop
  endfacet
  facet normal 0 0 -1
    outer loop
      vertex -6.5 15 0
      vertex 12 10 0
      vertex -6.62968 14.3899 0
    endloop
  endfacet
  facet normal 0 0 -1
    outer loop
      vertex 7.84321 13.5082 0
      vertex 12 10 0
      vertex 7.25 13.701 0
    endloop
  endfacet
  facet normal 0 0 -1
    outer loop
      vertex -8.15679 16.4918 0
      vertex -12 20 0
      vertex -7.53647 16.4266 0
    endloop
  endfacet
  facet normal 0 0 -1
    outer loop
      vertex -6.5 15 0
      vertex -6.62968 15.6101 0
      vertex 12 10 0
    endloop
  endfacet
  facet normal 0 0 -1
    outer loop
      vertex -7.53647 16.4266 0
      vertex -12 20 0
      vertex -6.9963 16.1147 0
    endloop
  endfacet
  facet normal 0 0 -1
    outer loop
      vertex -6.62968 15.6101 0
      vertex -6.9963 16.1147 0
      vertex 12 10 0
    endloop
  endfacet
  facet normal 0 0 -1
    outer loop
      vertex -8.75 16.299 0
      vertex -12 20 0
      vertex -8.15679 16.4918 0
    endloop
  endfacet
  facet normal 0 0 -1
    outer loop
      vertex -9.21352 15.8817 0
      vertex -12 20 0
      vertex -8.75 16.299 0
    endloop
  endfacet
  facet normal 0 0 -1
    outer loop
      vertex -9.46722 15.3119 0
      vertex -12 20 0
      vertex -9.21352 15.8817 0
    endloop
  endfacet
  facet normal 0 0 -1
    outer loop
      vertex 6.53278 14.6881 0
      vertex -12 20 0
      vertex 6.53278 15.3119 0
    endloop
  endfacet
  facet normal 0 0 -1
    outer loop
      vertex 6.78647 14.1183 0
      vertex -12 20 0
      vertex 6.53278 14.6881 0
    endloop
  endfacet
  facet normal 0 0 -1
    outer loop
      vertex 7.25 13.701 0
      vertex -12 20 0
      vertex 6.78647 14.1183 0
    endloop
  endfacet
  facet normal 0 0 -1
    outer loop
      vertex 12 10 0
      vertex -12 20 0
      vertex 7.25 13.701 0
    endloop
  endfacet
  facet normal 0 0 -1
    outer loop
      vertex 8.46352 13.5734 0
      vertex 12 10 0
      vertex 7.84321 13.5082 0
    endloop
  endfacet
  facet normal 0 0 -1
    outer loop
      vertex 9.5 15 0
      vertex 12 20 0
      vertex 9.37032 14.3899 0
    endloop
  endfacet
  facet normal 0 0 -1
    outer loop
      vertex 12 10 0
      vertex 8.46352 13.5734 0
      vertex 9.0037 13.8853 0
    endloop
  endfacet
  facet normal 0 0 -1
    outer loop
      vertex 12 10 0
      vertex 9.0037 13.8853 0
      vertex 9.37032 14.3899 0
    endloop
  endfacet
  facet normal 0 0 -1
    outer loop
      vertex 12 10 0
      vertex 9.37032 14.3899 0
      vertex 12 20 0
    endloop
  endfacet
  facet normal 0 0 -1
    outer loop
      vertex 9.37032 15.6101 0
      vertex 12 20 0
      vertex 9.5 15 0
    endloop
  endfacet
  facet normal 0 0 -1
    outer loop
      vertex 7.84321 16.4918 0
      vertex 12 20 0
      vertex 8.46352 16.4266 0
    endloop
  endfacet
  facet normal 0 0 -1
    outer loop
      vertex 9.37032 15.6101 0
      vertex 9.0037 16.1147 0
      vertex 12 20 0
    endloop
  endfacet
  facet normal 0 0 -1
    outer loop
      vertex 9.0037 16.1147 0
      vertex 8.46352 16.4266 0
      vertex 12 20 0
    endloop
  endfacet
  facet normal 0 0 -1
    outer loop
      vertex 7.25 16.299 0
      vertex -12 20 0
      vertex 7.84321 16.4918 0
    endloop
  endfacet
  facet normal 0 0 -1
    outer loop
      vertex 6.78647 15.8817 0
      vertex -12 20 0
      vertex 7.25 16.299 0
    endloop
  endfacet
  facet normal 0 0 -1
    outer loop
      vertex 6.53278 15.3119 0
      vertex -12 20 0
      vertex 6.78647 15.8817 0
    endloop
  endfacet
  facet normal 0 0 -1
    outer loop
      vertex -7.53647 13.5734 0
      vertex 12 10 0
      vertex -8.15679 13.5082 0
    endloop
  endfacet
  facet normal 0 1 0
    outer loop
      vertex -12 20 0
      vertex -12 20 5
      vertex 12 20 0
    endloop
  endfacet
  facet normal 0 1 0
    outer loop
      vertex 12 20 0
      vertex -12 20 5
      vertex 12 20 5
    endloop
  endfacet
  facet normal 0 0 1
    outer loop
      vertex -6.9963 13.8853 5
      vertex -12 10 5
      vertex 12 10 5
    endloop
  endfacet
  facet normal 0 0 1
    outer loop
      vertex 7.25 13.701 5
      vertex -12 20 5
      vertex 12 10 5
    endloop
  endfacet
  facet normal 0 0 1
    outer loop
      vertex 7.25 16.299 5
      vertex 7.84321 16.4918 5
      vertex 12 20 5
    endloop
  endfacet
  facet normal 0 0 1
    outer loop
      vertex -12 20 5
      vertex -12 10 5
      vertex -9.46722 14.6881 5
    endloop
  endfacet
  facet normal 0 0 1
    outer loop
      vertex -6.62968 14.3899 5
      vertex -6.9963 13.8853 5
      vertex 12 10 5
    endloop
  endfacet
  facet normal 0 0 1
    outer loop
      vertex -12 20 5
      vertex -9.46722 14.6881 5
      vertex -9.46722 15.3119 5
    endloop
  endfacet
  facet normal 0 0 1
    outer loop
      vertex -6.5 15 5
      vertex -6.62968 14.3899 5
      vertex 12 10 5
    endloop
  endfacet
  facet normal 0 0 1
    outer loop
      vertex -12 20 5
      vertex -9.46722 15.3119 5
      vertex -9.21352 15.8817 5
    endloop
  endfacet
  facet normal 0 0 1
    outer loop
      vertex -6.62968 15.6101 5
      vertex -6.5 15 5
      vertex 12 10 5
    endloop
  endfacet
  facet normal 0 0 1
    outer loop
      vertex -12 20 5
      vertex -9.21352 15.8817 5
      vertex -8.75 16.299 5
    endloop
  endfacet
  facet normal 0 0 1
    outer loop
      vertex -6.9963 16.1147 5
      vertex -6.62968 15.6101 5
      vertex 12 10 5
    endloop
  endfacet
  facet normal 0 0 1
    outer loop
      vertex -12 20 5
      vertex -8.75 16.299 5
      vertex -8.15679 16.4918 5
    endloop
  endfacet
  facet normal 0 0 1
    outer loop
      vertex -12 20 5
      vertex -7.53647 16.4266 5
      vertex 12 10 5
    endloop
  endfacet
  facet normal 0 0 1
    outer loop
      vertex -12 20 5
      vertex -8.15679 16.4918 5
      vertex -7.53647 16.4266 5
    endloop
  endfacet
  facet normal 0 0 1
    outer loop
      vertex -7.53647 13.5734 5
      vertex -12 10 5
      vertex -6.9963 13.8853 5
    endloop
  endfacet
  facet normal 0 0 1
    outer loop
      vertex -8.15679 13.5082 5
      vertex -12 10 5
      vertex -7.53647 13.5734 5
    endloop
  endfacet
  facet normal 0 0 1
    outer loop
      vertex -8.75 13.701 5
      vertex -12 10 5
      vertex -8.15679 13.5082 5
    endloop
  endfacet
  facet normal 0 0 1
    outer loop
      vertex -9.21352 14.1183 5
      vertex -12 10 5
      vertex -8.75 13.701 5
    endloop
  endfacet
  facet normal 0 0 1
    outer loop
      vertex -9.46722 14.6881 5
      vertex -12 10 5
      vertex -9.21352 14.1183 5
    endloop
  endfacet
  facet normal 0 0 1
    outer loop
      vertex 7.25 13.701 5
      vertex 6.78647 14.1183 5
      vertex -12 20 5
    endloop
  endfacet
  facet normal 0 0 1
    outer loop
      vertex 6.53278 15.3119 5
      vertex -12 20 5
      vertex 6.53278 14.6881 5
    endloop
  endfacet
  facet normal 0 0 1
    outer loop
      vertex 9.37032 15.6101 5
      vertex 9.5 15 5
      vertex 12 10 5
    endloop
  endfacet
  facet normal 0 0 1
    outer loop
      vertex 6.78647 15.8817 5
      vertex -12 20 5
      vertex 6.53278 15.3119 5
    endloop
  endfacet
  facet normal 0 0 1
    outer loop
      vertex 7.25 16.299 5
      vertex -12 20 5
      vertex 6.78647 15.8817 5
    endloop
  endfacet
  facet normal 0 0 1
    outer loop
      vertex 12 20 5
      vertex -12 20 5
      vertex 7.25 16.299 5
    endloop
  endfacet
  facet normal 0 0 1
    outer loop
      vertex 8.46352 13.5734 5
      vertex 7.84321 13.5082 5
      vertex 12 10 5
    endloop
  endfacet
  facet normal 0 0 1
    outer loop
      vertex 9.5 15 5
      vertex 9.37032 14.3899 5
      vertex 12 10 5
    endloop
  endfacet
  facet normal 0 0 1
    outer loop
      vertex 12 20 5
      vertex 8.46352 16.4266 5
      vertex 9.0037 16.1147 5
    endloop
  endfacet
  facet normal 0 0 1
    outer loop
      vertex 12 20 5
      vertex 9.37032 15.6101 5
      vertex 12 10 5
    endloop
  endfacet
  facet normal 0 0 1
    outer loop
      vertex 12 20 5
      vertex 9.0037 16.1147 5
      vertex 9.37032 15.6101 5
    endloop
  endfacet
  facet normal 0 0 1
    outer loop
      vertex 9.37032 14.3899 5
      vertex 9.0037 13.8853 5
      vertex 12 10 5
    endloop
  endfacet
  facet normal 0 0 1
    outer loop
      vertex 9.0037 13.8853 5
      vertex 8.46352 13.5734 5
      vertex 12 10 5
    endloop
  endfacet
  facet normal 0 0 1
    outer loop
      vertex 7.84321 13.5082 5
      vertex 7.25 13.701 5
      vertex 12 10 5
    endloop
  endfacet
  facet normal 0 0 1
    outer loop
      vertex 6.53278 14.6881 5
      vertex -12 20 5
      vertex 6.78647 14.1183 5
    endloop
  endfacet
  facet normal 0 0 1
    outer loop
      vertex -7.53647 16.4266 5
      vertex -6.9963 16.1147 5
      vertex 12 10 5
    endloop
  endfacet
  facet normal 0 0 1
    outer loop
      vertex 7.84321 16.4918 5
      vertex 8.46352 16.4266 5
      vertex 12 20 5
    endloop
  endfacet
  facet normal 1 0 0
    outer loop
      vertex 12 10 5
      vertex 12 10 0
      vertex 12 20 0
    endloop
  endfacet
  facet normal 1 0 0
    outer loop
      vertex 12 20 5
      vertex 12 10 5
      vertex 12 20 0
    endloop
  endfacet
  facet normal 0.913545 -0.406737 0
    outer loop
      vertex -9.21352 15.8817 0
      vertex -9.21352 15.8817 5
      vertex -9.46722 15.3119 5
    endloop
  endfacet
  facet normal 0.913545 -0.406737 0
    outer loop
      vertex -9.46722 15.3119 0
      vertex -9.21352 15.8817 0
      vertex -9.46722 15.3119 5
    endloop
  endfacet
  facet normal 1 0 0
    outer loop
      vertex -9.46722 15.3119 0
      vertex -9.46722 15.3119 5
      vertex -9.46722 14.6881 5
    endloop
  endfacet
  facet normal 1 0 0
    outer loop
      vertex -9.46722 14.6881 0
      vertex -9.46722 15.3119 0
      vertex -9.46722 14.6881 5
    endloop
  endfacet
  facet normal 0.669131 -0.743145 0
    outer loop
      vertex -8.75 16.299 0
      vertex -8.75 16.299 5
      vertex -9.21352 15.8817 5
    endloop
  endfacet
  facet normal 0.669131 -0.743145 0
    outer loop
      vertex -9.21352 15.8817 0
      vertex -8.75 16.299 0
      vertex -9.21352 15.8817 5
    endloop
  endfacet
  facet normal 0.309018 -0.951056 0
    outer loop
      vertex -8.15679 16.4918 0
      vertex -8.15679 16.4918 5
      vertex -8.75 16.299 5
    endloop
  endfacet
  facet normal 0.309018 -0.951056 0
    outer loop
      vertex -8.75 16.299 0
      vertex -8.15679 16.4918 0
      vertex -8.75 16.299 5
    endloop
  endfacet
  facet normal -0.104528 -0.994522 0
    outer loop
      vertex -7.53647 16.4266 0
      vertex -7.53647 16.4266 5
      vertex -8.15679 16.4918 5
    endloop
  endfacet
  facet normal -0.104528 -0.994522 0
    outer loop
      vertex -8.15679 16.4918 0
      vertex -7.53647 16.4266 0
      vertex -8.15679 16.4918 5
    endloop
  endfacet
  facet normal -0.5 -0.866025 0
    outer loop
      vertex -6.9963 16.1147 0
      vertex -6.9963 16.1147 5
      vertex -7.53647 16.4266 5
    endloop
  endfacet
  facet normal -0.5 -0.866025 0
    outer loop
      vertex -7.53647 16.4266 0
      vertex -6.9963 16.1147 0
      vertex -7.53647 16.4266 5
    endloop
  endfacet
  facet normal -0.809017 -0.587785 0
    outer loop
      vertex -6.62968 15.6101 5
      vertex -6.9963 16.1147 5
      vertex -6.62968 15.6101 0
    endloop
  endfacet
  facet normal -0.809017 -0.587785 0
    outer loop
      vertex -6.62968 15.6101 0
      vertex -6.9963 16.1147 5
      vertex -6.9963 16.1147 0
    endloop
  endfacet
  facet normal -0.978148 -0.207912 0
    outer loop
      vertex -6.5 15 5
      vertex -6.62968 15.6101 5
      vertex -6.5 15 0
    endloop
  endfacet
  facet normal -0.978148 -0.207912 0
    outer loop
      vertex -6.5 15 0
      vertex -6.62968 15.6101 5
      vertex -6.62968 15.6101 0
    endloop
  endfacet
  facet normal -0.978148 0.207912 0
    outer loop
      vertex -6.5 15 5
      vertex -6.5 15 0
      vertex -6.62968 14.3899 5
    endloop
  endfacet
  facet normal -0.978148 0.207912 0
    outer loop
      vertex -6.62968 14.3899 5
      vertex -6.5 15 0
      vertex -6.62968 14.3899 0
    endloop
  endfacet
  facet normal -0.809017 0.587785 0
    outer loop
      vertex -6.62968 14.3899 5
      vertex -6.62968 14.3899 0
      vertex -6.9963 13.8853 5
    endloop
  endfacet
  facet normal -0.809017 0.587785 0
    outer loop
      vertex -6.9963 13.8853 5
      vertex -6.62968 14.3899 0
      vertex -6.9963 13.8853 0
    endloop
  endfacet
  facet normal -0.5 0.866025 0
    outer loop
      vertex -6.9963 13.8853 5
      vertex -6.9963 13.8853 0
      vertex -7.53647 13.5734 5
    endloop
  endfacet
  facet normal -0.5 0.866025 0
    outer loop
      vertex -7.53647 13.5734 5
      vertex -6.9963 13.8853 0
      vertex -7.53647 13.5734 0
    endloop
  endfacet
  facet normal -0.104528 0.994522 0
    outer loop
      vertex -7.53647 13.5734 5
      vertex -7.53647 13.5734 0
      vertex -8.15679 13.5082 5
    endloop
  endfacet
  facet normal -0.104528 0.994522 0
    outer loop
      vertex -8.15679 13.5082 5
      vertex -7.53647 13.5734 0
      vertex -8.15679 13.5082 0
    endloop
  endfacet
  facet normal 0.309018 0.951056 0
    outer loop
      vertex -8.15679 13.5082 5
      vertex -8.15679 13.5082 0
      vertex -8.75 13.701 5
    endloop
  endfacet
  facet normal 0.309018 0.951056 0
    outer loop
      vertex -8.75 13.701 5
      vertex -8.15679 13.5082 0
      vertex -8.75 13.701 0
    endloop
  endfacet
  facet normal 0.669131 0.743145 0
    outer loop
      vertex -8.75 13.701 5
      vertex -8.75 13.701 0
      vertex -9.21352 14.1183 5
    endloop
  endfacet
  facet normal 0.669131 0.743145 0
    outer loop
      vertex -9.21352 14.1183 5
      vertex -8.75 13.701 0
      vertex -9.21352 14.1183 0
    endloop
  endfacet
  facet normal 0.913545 0.406737 0
    outer loop
      vertex -9.46722 14.6881 5
      vertex -9.21352 14.1183 5
      vertex -9.21352 14.1183 0
    endloop
  endfacet
  facet normal 0.913545 0.406737 0
    outer loop
      vertex -9.46722 14.6881 0
      vertex -9.46722 14.6881 5
      vertex -9.21352 14.1183 0
    endloop
  endfacet
  facet normal 1 0 0
    outer loop
      vertex 6.53278 15.3119 0
      vertex 6.53278 15.3119 5
      vertex 6.53278 14.6881 5
    endloop
  endfacet
  facet normal 1 0 0
    outer loop
      vertex 6.53278 14.6881 0
      vertex 6.53278 15.3119 0
      vertex 6.53278 14.6881 5
    endloop
  endfacet
  facet normal 0.913545 -0.406737 0
    outer loop
      vertex 6.78647 15.8817 0
      vertex 6.78647 15.8817 5
      vertex 6.53278 15.3119 5
    endloop
  endfacet
  facet normal 0.913545 -0.406737 0
    outer loop
      vertex 6.53278 15.3119 0
      vertex 6.78647 15.8817 0
      vertex 6.53278 15.3119 5
    endloop
  endfacet
  facet normal 0.669131 -0.743145 0
    outer loop
      vertex 7.25 16.299 0
      vertex 7.25 16.299 5
      vertex 6.78647 15.8817 5
    endloop
  endfacet
  facet normal 0.669131 -0.743145 0
    outer loop
      vertex 6.78647 15.8817 0
      vertex 7.25 16.299 0
      vertex 6.78647 15.8817 5
    endloop
  endfacet
  facet normal 0.309018 -0.951056 0
    outer loop
      vertex 7.84321 16.4918 0
      vertex 7.84321 16.4918 5
      vertex 7.25 16.299 5
    endloop
  endfacet
  facet normal 0.309018 -0.951056 0
    outer loop
      vertex 7.25 16.299 0
      vertex 7.84321 16.4918 0
      vertex 7.25 16.299 5
    endloop
  endfacet
  facet normal -0.104528 -0.994522 0
    outer loop
      vertex 8.46352 16.4266 0
      vertex 8.46352 16.4266 5
      vertex 7.84321 16.4918 5
    endloop
  endfacet
  facet normal -0.104528 -0.994522 0
    outer loop
      vertex 7.84321 16.4918 0
      vertex 8.46352 16.4266 0
      vertex 7.84321 16.4918 5
    endloop
  endfacet
  facet normal -0.5 -0.866025 0
    outer loop
      vertex 9.0037 16.1147 0
      vertex 9.0037 16.1147 5
      vertex 8.46352 16.4266 5
    endloop
  endfacet
  facet normal -0.5 -0.866025 0
    outer loop
      vertex 8.46352 16.4266 0
      vertex 9.0037 16.1147 0
      vertex 8.46352 16.4266 5
    endloop
  endfacet
  facet normal -0.809017 -0.587785 0
    outer loop
      vertex 9.37032 15.6101 5
      vertex 9.0037 16.1147 5
      vertex 9.37032 15.6101 0
    endloop
  endfacet
  facet normal -0.809017 -0.587785 0
    outer loop
      vertex 9.37032 15.6101 0
      vertex 9.0037 16.1147 5
      vertex 9.0037 16.1147 0
    endloop
  endfacet
  facet normal -0.978148 -0.207912 0
    outer loop
      vertex 9.5 15 5
      vertex 9.37032 15.6101 5
      vertex 9.5 15 0
    endloop
  endfacet
  facet normal -0.978148 -0.207912 0
    outer loop
      vertex 9.5 15 0
      vertex 9.37032 15.6101 5
      vertex 9.37032 15.6101 0
    endloop
  endfacet
  facet normal -0.978148 0.207912 0
    outer loop
      vertex 9.5 15 5
      vertex 9.5 15 0
      vertex 9.37032 14.3899 5
    endloop
  endfacet
  facet normal -0.978148 0.207912 0
    outer loop
      vertex 9.37032 14.3899 5
      vertex 9.5 15 0
      vertex 9.37032 14.3899 0
    endloop
  endfacet
  facet normal -0.809017 0.587785 0
    outer loop
      vertex 9.37032 14.3899 5
      vertex 9.37032 14.3899 0
      vertex 9.0037 13.8853 5
    endloop
  endfacet
  facet normal -0.809017 0.587785 0
    outer loop
      vertex 9.0037 13.8853 5
      vertex 9.37032 14.3899 0
      vertex 9.0037 13.8853 0
    endloop
  endfacet
  facet normal -0.5 0.866025 0
    outer loop
      vertex 9.0037 13.8853 5
      vertex 9.0037 13.8853 0
      vertex 8.46352 13.5734 5
    endloop
  endfacet
  facet normal -0.5 0.866025 0
    outer loop
      vertex 8.46352 13.5734 5
      vertex 9.0037 13.8853 0
      vertex 8.46352 13.5734 0
    endloop
  endfacet
  facet normal -0.104528 0.994522 0
    outer loop
      vertex 8.46352 13.5734 5
      vertex 8.46352 13.5734 0
      vertex 7.84321 13.5082 5
    endloop
  endfacet
  facet normal -0.104528 0.994522 0
    outer loop
      vertex 7.84321 13.5082 5
      vertex 8.46352 13.5734 0
      vertex 7.84321 13.5082 0
    endloop
  endfacet
  facet normal 0.309018 0.951056 0
    outer loop
      vertex 7.84321 13.5082 5
      vertex 7.84321 13.5082 0
      vertex 7.25 13.701 5
    endloop
  endfacet
  facet normal 0.309018 0.951056 0
    outer loop
      vertex 7.25 13.701 5
      vertex 7.84321 13.5082 0
      vertex 7.25 13.701 0
    endloop
  endfacet
  facet normal 0.669131 0.743145 0
    outer loop
      vertex 7.25 13.701 5
      vertex 7.25 13.701 0
      vertex 6.78647 14.1183 5
    endloop
  endfacet
  facet normal 0.669131 0.743145 0
    outer loop
      vertex 6.78647 14.1183 5
      vertex 7.25 13.701 0
      vertex 6.78647 14.1183 0
    endloop
  endfacet
  facet normal 0.913545 0.406737 0
    outer loop
      vertex 6.53278 14.6881 5
      vertex 6.78647 14.1183 5
      vertex 6.78647 14.1183 0
    endloop
  endfacet
  facet normal 0.913545 0.406737 0
    outer loop
      vertex 6.53278 14.6881 0
      vertex 6.53278 14.6881 5
      vertex 6.78647 14.1183 0
    endloop
  endfacet
endsolid OpenSCAD_Model
