solid OpenSCAD_Model
  facet normal -1 0 0
    outer loop
      vertex -12 -5 0
      vertex -12 -5 18
      vertex -12 5 0
    endloop
  endfacet
  facet normal -1 0 0
    outer loop
      vertex -12 5 0
      vertex -12 -5 18
      vertex -12 5 18
    endloop
  endfacet
  facet normal 0 -1 0
    outer loop
      vertex 1.39888e-15 -5 2.7
      vertex -12 -5 0
      vertex 12 -5 0
    endloop
  endfacet
  facet normal 0 -1 0
    outer loop
      vertex -2.85788 -5 7.65
      vertex -6.66134e-17 -5 9.3
      vertex -3.25 -5 10.5
    endloop
  endfacet
  facet normal 0 -1 0
    outer loop
      vertex 2.85788 -5 4.35
      vertex 1.39888e-15 -5 2.7
      vertex 12 -5 0
    endloop
  endfacet
  facet normal 0 -1 0
    outer loop
      vertex -12 -5 18
      vertex -12 -5 0
      vertex -3.25 -5 10.5
    endloop
  endfacet
  facet normal 0 -1 0
    outer loop
      vertex 12 -5 18
      vertex -12 -5 18
      vertex -3.25 -5 12
    endloop
  endfacet
  facet normal 0 -1 0
    outer loop
      vertex 12 -5 18
      vertex 3.25 -5 12
      vertex 12 -5 0
    endloop
  endfacet
  facet normal 0 -1 0
    outer loop
      vertex 12 -5 18
      vertex -3.25 -5 12
      vertex 3.25 -5 12
    endloop
  endfacet
  facet normal 0 -1 0
    outer loop
      vertex 3.25 -5 12
      vertex 3.25 -5 10.5
      vertex 12 -5 0
    endloop
  endfacet
  facet normal 0 -1 0
    outer loop
      vertex -3.25 -5 10.5
      vertex -12 -5 0
      vertex -2.85788 -5 4.35
    endloop
  endfacet
  facet normal 0 -1 0
    outer loop
      vertex -3.25 -5 10.5
      vertex -2.85788 -5 4.35
      vertex -2.85788 -5 7.65
    endloop
  endfacet
  facet normal 0 -1 0
    outer loop
      vertex 2.85788 -5 7.65
      vertex 2.85788 -5 4.35
      vertex 12 -5 0
    endloop
  endfacet
  facet normal 0 -1 0
    outer loop
      vertex 3.25 -5 10.5
      vertex 2.85788 -5 7.65
      vertex 12 -5 0
    endloop
  endfacet
  facet normal 0 -1 0
    outer loop
      vertex -2.85788 -5 4.35
      vertex -12 -5 0
      vertex 1.39888e-15 -5 2.7
    endloop
  endfacet
  facet normal 0 -1 0
    outer loop
      vertex -3.25 -5 10.5
      vertex -3.25 -5 12
      vertex -12 -5 18
    endloop
  endfacet
  facet normal 0 -1 0
    outer loop
      vertex 3.25 -5 10.5
      vertex -6.66134e-17 -5 9.3
      vertex 2.85788 -5 7.65
    endloop
  endfacet
  facet normal 0 -1 0
    outer loop
      vertex 3.25 -5 10.5
      vertex -3.25 -5 10.5
      vertex -6.66134e-17 -5 9.3
    endloop
  endfacet
  facet normal 0 0 -1
    outer loop
      vertex -7.03015 1.33488 0
      vertex -12 5 0
      vertex 12 -5 0
    endloop
  endfacet
  facet normal 0 0 -1
    outer loop
      vertex 8 1.65 0
      vertex -12 5 0
      vertex 12 5 0
    endloop
  endfacet
  facet normal 0 0 -1
    outer loop
      vertex -12 -5 0
      vertex -12 5 0
      vertex -9.65 0 0
    endloop
  endfacet
  facet normal 0 0 -1
    outer loop
      vertex -12 -5 0
      vertex -9.65 0 0
      vertex -9.56924 -0.509878 0
    endloop
  endfacet
  facet normal 0 0 -1
    outer loop
      vertex -12 -5 0
      vertex -9.56924 -0.509878 0
      vertex -9.33488 -0.969846 0
    endloop
  endfacet
  facet normal 0 0 -1
    outer loop
      vertex -12 -5 0
      vertex -9.33488 -0.969846 0
      vertex -8.96985 -1.33488 0
    endloop
  endfacet
  facet normal 0 0 -1
    outer loop
      vertex -12 -5 0
      vertex -8.96985 -1.33488 0
      vertex -8.50988 -1.56924 0
    endloop
  endfacet
  facet normal 0 0 -1
    outer loop
      vertex -12 -5 0
      vertex -8.50988 -1.56924 0
      vertex 12 -5 0
    endloop
  endfacet
  facet normal 0 0 -1
    outer loop
      vertex -8.50988 -1.56924 0
      vertex -8 -1.65 0
      vertex 12 -5 0
    endloop
  endfacet
  facet normal 0 0 -1
    outer loop
      vertex -7.03015 -1.33488 0
      vertex 12 -5 0
      vertex -7.49012 -1.56924 0
    endloop
  endfacet
  facet normal 0 0 -1
    outer loop
      vertex -6.66512 -0.969846 0
      vertex 12 -5 0
      vertex -7.03015 -1.33488 0
    endloop
  endfacet
  facet normal 0 0 -1
    outer loop
      vertex -6.43076 -0.509878 0
      vertex 12 -5 0
      vertex -6.66512 -0.969846 0
    endloop
  endfacet
  facet normal 0 0 -1
    outer loop
      vertex 7.49012 -1.56924 0
      vertex 12 -5 0
      vertex 7.03015 -1.33488 0
    endloop
  endfacet
  facet normal 0 0 -1
    outer loop
      vertex -7.49012 1.56924 0
      vertex -12 5 0
      vertex -7.03015 1.33488 0
    endloop
  endfacet
  facet normal 0 0 -1
    outer loop
      vertex -8.96985 1.33488 0
      vertex -12 5 0
      vertex -8.50988 1.56924 0
    endloop
  endfacet
  facet normal 0 0 -1
    outer loop
      vertex -6.43076 -0.509878 0
      vertex -6.35 0 0
      vertex 12 -5 0
    endloop
  endfacet
  facet normal 0 0 -1
    outer loop
      vertex -8.50988 1.56924 0
      vertex -12 5 0
      vertex -8 1.65 0
    endloop
  endfacet
  facet normal 0 0 -1
    outer loop
      vertex -6.35 0 0
      vertex -6.43076 0.509878 0
      vertex 12 -5 0
    endloop
  endfacet
  facet normal 0 0 -1
    outer loop
      vertex -8 1.65 0
      vertex -12 5 0
      vertex -7.49012 1.56924 0
    endloop
  endfacet
  facet normal 0 0 -1
    outer loop
      vertex -6.43076 0.509878 0
      vertex -6.66512 0.969846 0
      vertex 12 -5 0
    endloop
  endfacet
  facet normal 0 0 -1
    outer loop
      vertex -6.66512 0.969846 0
      vertex -7.03015 1.33488 0
      vertex 12 -5 0
    endloop
  endfacet
  facet normal 0 0 -1
    outer loop
      vertex -9.33488 0.969846 0
      vertex -12 5 0
      vertex -8.96985 1.33488 0
    endloop
  endfacet
  facet normal 0 0 -1
    outer loop
      vertex -9.56924 0.509878 0
      vertex -12 5 0
      vertex -9.33488 0.969846 0
    endloop
  endfacet
  facet normal 0 0 -1
    outer loop
      vertex -9.65 0 0
      vertex -12 5 0
      vertex -9.56924 0.509878 0
    endloop
  endfacet
  facet normal 0 0 -1
    outer loop
      vertex 6.43076 -0.509878 0
      vertex -12 5 0
      vertex 6.35 0 0
    endloop
  endfacet
  facet normal 0 0 -1
    outer loop
      vertex 6.66512 -0.969846 0
      vertex -12 5 0
      vertex 6.43076 -0.509878 0
    endloop
  endfacet
  facet normal 0 0 -1
    outer loop
      vertex 7.03015 -1.33488 0
      vertex -12 5 0
      vertex 6.66512 -0.969846 0
    endloop
  endfacet
  facet normal 0 0 -1
    outer loop
      vertex 12 -5 0
      vertex -12 5 0
      vertex 7.03015 -1.33488 0
    endloop
  endfacet
  facet normal 0 0 -1
    outer loop
      vertex 8 -1.65 0
      vertex 12 -5 0
      vertex 7.49012 -1.56924 0
    endloop
  endfacet
  facet normal 0 0 -1
    outer loop
      vertex 8.50988 -1.56924 0
      vertex 12 -5 0
      vertex 8 -1.65 0
    endloop
  endfacet
  facet normal 0 0 -1
    outer loop
      vertex 9.65 0 0
      vertex 12 5 0
      vertex 9.56924 -0.509878 0
    endloop
  endfacet
  facet normal 0 0 -1
    outer loop
      vertex 12 -5 0
      vertex 8.50988 -1.56924 0
      vertex 8.96985 -1.33488 0
    endloop
  endfacet
  facet normal 0 0 -1
    outer loop
      vertex 12 -5 0
      vertex 8.96985 -1.33488 0
      vertex 9.33488 -0.969846 0
    endloop
  endfacet
  facet normal 0 0 -1
    outer loop
      vertex 12 -5 0
      vertex 9.33488 -0.969846 0
      vertex 9.56924 -0.509878 0
    endloop
  endfacet
  facet normal 0 0 -1
    outer loop
      vertex 12 -5 0
      vertex 9.56924 -0.509878 0
      vertex 12 5 0
    endloop
  endfacet
  facet normal 0 0 -1
    outer loop
      vertex 9.56924 0.509878 0
      vertex 12 5 0
      vertex 9.65 0 0
    endloop
  endfacet
  facet normal 0 0 -1
    outer loop
      vertex 8 1.65 0
      vertex 12 5 0
      vertex 8.50988 1.56924 0
    endloop
  endfacet
  facet normal 0 0 -1
    outer loop
      vertex 9.56924 0.509878 0
      vertex 9.33488 0.969846 0
      vertex 12 5 0
    endloop
  endfacet
  facet normal 0 0 -1
    outer loop
      vertex 9.33488 0.969846 0
      vertex 8.96985 1.33488 0
      vertex 12 5 0
    endloop
  endfacet
  facet normal 0 0 -1
    outer loop
      vertex 8.96985 1.33488 0
      vertex 8.50988 1.56924 0
      vertex 12 5 0
    endloop
  endfacet
  facet normal 0 0 -1
    outer loop
      vertex 7.49012 1.56924 0
      vertex -12 5 0
      vertex 8 1.65 0
    endloop
  endfacet
  facet normal 0 0 -1
    outer loop
      vertex 7.03015 1.33488 0
      vertex -12 5 0
      vertex 7.49012 1.56924 0
    endloop
  endfacet
  facet normal 0 0 -1
    outer loop
      vertex 6.66512 0.969846 0
      vertex -12 5 0
      vertex 7.03015 1.33488 0
    endloop
  endfacet
  facet normal 0 0 -1
    outer loop
      vertex 6.43076 0.509878 0
      vertex -12 5 0
      vertex 6.66512 0.969846 0
    endloop
  endfacet
  facet normal 0 0 -1
    outer loop
      vertex 6.35 0 0
      vertex -12 5 0
      vertex 6.43076 0.509878 0
    endloop
  endfacet
  facet normal 0 0 -1
    outer loop
      vertex -7.49012 -1.56924 0
      vertex 12 -5 0
      vertex -8 -1.65 0
    endloop
  endfacet
  facet normal 0 1 0
    outer loop
      vertex 3.25 5 10.5
      vertex 12 5 0
      vertex -3.25 5 10.5
    endloop
  endfacet
  facet normal 0 1 0
    outer loop
      vertex -3.25 5 12
      vertex -12 5 18
      vertex 12 5 18
    endloop
  endfacet
  facet normal 0 1 0
    outer loop
      vertex 3.25 5 12
      vertex -3.25 5 12
      vertex 12 5 18
    endloop
  endfacet
  facet normal 0 1 0
    outer loop
      vertex -12 5 0
      vertex -12 5 18
      vertex -3.25 5 10.5
    endloop
  endfacet
  facet normal 0 1 0
    outer loop
      vertex 0.969846 5 7.33488
      vertex -3.25 5 10.5
      vertex 12 5 0
    endloop
  endfacet
  facet normal 0 1 0
    outer loop
      vertex 0 5 4.35
      vertex 12 5 0
      vertex -0.509878 5 4.43076
    endloop
  endfacet
  facet normal 0 1 0
    outer loop
      vertex 12 5 0
      vertex 3.25 5 10.5
      vertex 12 5 18
    endloop
  endfacet
  facet normal 0 1 0
    outer loop
      vertex 3.25 5 10.5
      vertex 3.25 5 12
      vertex 12 5 18
    endloop
  endfacet
  facet normal 0 1 0
    outer loop
      vertex -12 5 0
      vertex -3.25 5 10.5
      vertex -1.65 5 6
    endloop
  endfacet
  facet normal 0 1 0
    outer loop
      vertex -12 5 0
      vertex -1.65 5 6
      vertex -1.56924 5 5.49012
    endloop
  endfacet
  facet normal 0 1 0
    outer loop
      vertex -12 5 0
      vertex -1.56924 5 5.49012
      vertex -1.33488 5 5.03015
    endloop
  endfacet
  facet normal 0 1 0
    outer loop
      vertex -12 5 0
      vertex -1.33488 5 5.03015
      vertex -0.969846 5 4.66512
    endloop
  endfacet
  facet normal 0 1 0
    outer loop
      vertex -12 5 0
      vertex -0.969846 5 4.66512
      vertex -0.509878 5 4.43076
    endloop
  endfacet
  facet normal 0 1 0
    outer loop
      vertex -12 5 0
      vertex -0.509878 5 4.43076
      vertex 12 5 0
    endloop
  endfacet
  facet normal 0 1 0
    outer loop
      vertex 0.509878 5 4.43076
      vertex 12 5 0
      vertex 0 5 4.35
    endloop
  endfacet
  facet normal 0 1 0
    outer loop
      vertex 0.969846 5 4.66512
      vertex 12 5 0
      vertex 0.509878 5 4.43076
    endloop
  endfacet
  facet normal 0 1 0
    outer loop
      vertex 1.33488 5 5.03015
      vertex 12 5 0
      vertex 0.969846 5 4.66512
    endloop
  endfacet
  facet normal 0 1 0
    outer loop
      vertex 0.509878 5 7.56924
      vertex -3.25 5 10.5
      vertex 0.969846 5 7.33488
    endloop
  endfacet
  facet normal 0 1 0
    outer loop
      vertex -0.969846 5 7.33488
      vertex -3.25 5 10.5
      vertex -0.509878 5 7.56924
    endloop
  endfacet
  facet normal 0 1 0
    outer loop
      vertex 1.33488 5 5.03015
      vertex 1.56924 5 5.49012
      vertex 12 5 0
    endloop
  endfacet
  facet normal 0 1 0
    outer loop
      vertex 1.56924 5 5.49012
      vertex 1.65 5 6
      vertex 12 5 0
    endloop
  endfacet
  facet normal 0 1 0
    outer loop
      vertex -0.509878 5 7.56924
      vertex -3.25 5 10.5
      vertex 0 5 7.65
    endloop
  endfacet
  facet normal 0 1 0
    outer loop
      vertex 1.65 5 6
      vertex 1.56924 5 6.50988
      vertex 12 5 0
    endloop
  endfacet
  facet normal 0 1 0
    outer loop
      vertex 0 5 7.65
      vertex -3.25 5 10.5
      vertex 0.509878 5 7.56924
    endloop
  endfacet
  facet normal 0 1 0
    outer loop
      vertex 1.56924 5 6.50988
      vertex 1.33488 5 6.96985
      vertex 12 5 0
    endloop
  endfacet
  facet normal 0 1 0
    outer loop
      vertex 1.33488 5 6.96985
      vertex 0.969846 5 7.33488
      vertex 12 5 0
    endloop
  endfacet
  facet normal 0 1 0
    outer loop
      vertex -1.33488 5 6.96985
      vertex -3.25 5 10.5
      vertex -0.969846 5 7.33488
    endloop
  endfacet
  facet normal 0 1 0
    outer loop
      vertex -1.56924 5 6.50988
      vertex -3.25 5 10.5
      vertex -1.33488 5 6.96985
    endloop
  endfacet
  facet normal 0 1 0
    outer loop
      vertex -1.65 5 6
      vertex -3.25 5 10.5
      vertex -1.56924 5 6.50988
    endloop
  endfacet
  facet normal 0 1 0
    outer loop
      vertex -3.25 5 10.5
      vertex -12 5 18
      vertex -3.25 5 12
    endloop
  endfacet
  facet normal 0 0 1
    outer loop
      vertex -8 -3.3 18
      vertex -12 -5 18
      vertex 12 -5 18
    endloop
  endfacet
  facet normal 0 0 1
    outer loop
      vertex 8 -3.3 18
      vertex -12 5 18
      vertex 12 -5 18
    endloop
  endfacet
  facet normal 0 0 1
    outer loop
      vertex -12 5 18
      vertex -12 -5 18
      vertex -10.8579 -1.65 18
    endloop
  endfacet
  facet normal 0 0 1
    outer loop
      vertex -5.14212 -1.65 18
      vertex -8 -3.3 18
      vertex 12 -5 18
    endloop
  endfacet
  facet normal 0 0 1
    outer loop
      vertex -12 5 18
      vertex -10.8579 -1.65 18
      vertex -10.8579 1.65 18
    endloop
  endfacet
  facet normal 0 0 1
    outer loop
      vertex -12 5 18
      vertex -8 3.3 18
      vertex 12 -5 18
    endloop
  endfacet
  facet normal 0 0 1
    outer loop
      vertex -12 5 18
      vertex -10.8579 1.65 18
      vertex -8 3.3 18
    endloop
  endfacet
  facet normal 0 0 1
    outer loop
      vertex -8 3.3 18
      vertex -5.14212 1.65 18
      vertex 12 -5 18
    endloop
  endfacet
  facet normal 0 0 1
    outer loop
      vertex -10.8579 -1.65 18
      vertex -12 -5 18
      vertex -8 -3.3 18
    endloop
  endfacet
  facet normal 0 0 1
    outer loop
      vertex 5.14212 1.65 18
      vertex -12 5 18
      vertex 5.14212 -1.65 18
    endloop
  endfacet
  facet normal 0 0 1
    outer loop
      vertex 10.8579 -1.65 18
      vertex 8 -3.3 18
      vertex 12 -5 18
    endloop
  endfacet
  facet normal 0 0 1
    outer loop
      vertex 8 3.3 18
      vertex -12 5 18
      vertex 5.14212 1.65 18
    endloop
  endfacet
  facet normal 0 0 1
    outer loop
      vertex 12 5 18
      vertex -12 5 18
      vertex 8 3.3 18
    endloop
  endfacet
  facet normal 0 0 1
    outer loop
      vertex 12 5 18
      vertex 10.8579 1.65 18
      vertex 12 -5 18
    endloop
  endfacet
  facet normal 0 0 1
    outer loop
      vertex 10.8579 1.65 18
      vertex 10.8579 -1.65 18
      vertex 12 -5 18
    endloop
  endfacet
  facet normal 0 0 1
    outer loop
      vertex 5.14212 -1.65 18
      vertex -12 5 18
      vertex 8 -3.3 18
    endloop
  endfacet
  facet normal 0 0 1
    outer loop
      vertex -5.14212 1.65 18
      vertex -5.14212 -1.65 18
      vertex 12 -5 18
    endloop
  endfacet
  facet normal 0 0 1
    outer loop
      vertex 8 3.3 18
      vertex 10.8579 1.65 18
      vertex 12 5 18
    endloop
  endfacet
  facet normal 1 0 0
    outer loop
      vertex 12 -5 18
      vertex 12 -5 0
      vertex 12 5 0
    endloop
  endfacet
  facet normal 1 0 0
    outer loop
      vertex 12 5 18
      vertex 12 -5 18
      vertex 12 5 0
    endloop
  endfacet
  facet normal 1 0 0
    outer loop
      vertex -3.25 5 12
      vertex -3.25 -4.4 11.3
      vertex -3.25 -3.6 11.3
    endloop
  endfacet
  facet normal 1 0 0
    outer loop
      vertex -3.25 -2.4 11.3
      vertex -3.25 5 12
      vertex -3.25 -3.6 11.3
    endloop
  endfacet
  facet normal 1 0 0
    outer loop
      vertex -3.25 -4.4 10.5
      vertex -3.25 -4.4 11.3
      vertex -3.25 -5 12
    endloop
  endfacet
  facet normal 1 0 0
    outer loop
      vertex -3.25 -3.6 10.5
      vertex -3.25 -2.4 10.5
      vertex -3.25 -3.6 11.3
    endloop
  endfacet
  facet normal 1 0 0
    outer loop
      vertex -3.25 -2.4 10.5
      vertex -3.25 -2.4 11.3
      vertex -3.25 -3.6 11.3
    endloop
  endfacet
  facet normal 1 0 0
    outer loop
      vertex -3.25 -1.6 11.3
      vertex -3.25 5 12
      vertex -3.25 -2.4 11.3
    endloop
  endfacet
  facet normal 1 0 0
    outer loop
      vertex -3.25 -0.4 11.3
      vertex -3.25 5 12
      vertex -3.25 -1.6 11.3
    endloop
  endfacet
  facet normal 1 0 0
    outer loop
      vertex -3.25 -1.6 10.5
      vertex -3.25 -0.4 10.5
      vertex -3.25 -1.6 11.3
    endloop
  endfacet
  facet normal 1 0 0
    outer loop
      vertex -3.25 -0.4 10.5
      vertex -3.25 -0.4 11.3
      vertex -3.25 -1.6 11.3
    endloop
  endfacet
  facet normal 1 0 0
    outer loop
      vertex -3.25 0.4 11.3
      vertex -3.25 5 12
      vertex -3.25 -0.4 11.3
    endloop
  endfacet
  facet normal 1 0 0
    outer loop
      vertex -3.25 1.6 11.3
      vertex -3.25 5 12
      vertex -3.25 0.4 11.3
    endloop
  endfacet
  facet normal 1 0 0
    outer loop
      vertex -3.25 0.4 10.5
      vertex -3.25 1.6 10.5
      vertex -3.25 0.4 11.3
    endloop
  endfacet
  facet normal 1 0 0
    outer loop
      vertex -3.25 1.6 10.5
      vertex -3.25 1.6 11.3
      vertex -3.25 0.4 11.3
    endloop
  endfacet
  facet normal 1 0 0
    outer loop
      vertex -3.25 2.4 11.3
      vertex -3.25 5 12
      vertex -3.25 1.6 11.3
    endloop
  endfacet
  facet normal 1 0 0
    outer loop
      vertex -3.25 3.6 11.3
      vertex -3.25 5 12
      vertex -3.25 2.4 11.3
    endloop
  endfacet
  facet normal 1 0 0
    outer loop
      vertex -3.25 2.4 10.5
      vertex -3.25 3.6 10.5
      vertex -3.25 2.4 11.3
    endloop
  endfacet
  facet normal 1 0 0
    outer loop
      vertex -3.25 3.6 10.5
      vertex -3.25 3.6 11.3
      vertex -3.25 2.4 11.3
    endloop
  endfacet
  facet normal 1 0 0
    outer loop
      vertex -3.25 4.4 11.3
      vertex -3.25 5 12
      vertex -3.25 3.6 11.3
    endloop
  endfacet
  facet normal 1 0 0
    outer loop
      vertex -3.25 4.4 10.5
      vertex -3.25 5 10.5
      vertex -3.25 4.4 11.3
    endloop
  endfacet
  facet normal 1 0 0
    outer loop
      vertex -3.25 5 10.5
      vertex -3.25 5 12
      vertex -3.25 4.4 11.3
    endloop
  endfacet
  facet normal 1 0 0
    outer loop
      vertex -3.25 5 12
      vertex -3.25 -5 12
      vertex -3.25 -4.4 11.3
    endloop
  endfacet
  facet normal 1 0 0
    outer loop
      vertex -3.25 -5 12
      vertex -3.25 -5 10.5
      vertex -3.25 -4.4 10.5
    endloop
  endfacet
  facet normal 0 0 1
    outer loop
      vertex 3.25 -5 10.5
      vertex 3.25 -4.4 10.5
      vertex -3.25 -4.4 10.5
    endloop
  endfacet
  facet normal 0 0 1
    outer loop
      vertex -3.25 -5 10.5
      vertex 3.25 -5 10.5
      vertex -3.25 -4.4 10.5
    endloop
  endfacet
  facet normal -1 0 0
    outer loop
      vertex 3.25 3.6 10.5
      vertex 3.25 2.4 11.3
      vertex 3.25 3.6 11.3
    endloop
  endfacet
  facet normal -1 0 0
    outer loop
      vertex 3.25 5 12
      vertex 3.25 5 10.5
      vertex 3.25 4.4 11.3
    endloop
  endfacet
  facet normal -1 0 0
    outer loop
      vertex 3.25 5 12
      vertex 3.25 4.4 11.3
      vertex 3.25 -5 12
    endloop
  endfacet
  facet normal -1 0 0
    outer loop
      vertex 3.25 1.6 10.5
      vertex 3.25 0.4 11.3
      vertex 3.25 1.6 11.3
    endloop
  endfacet
  facet normal -1 0 0
    outer loop
      vertex 3.25 4.4 11.3
      vertex 3.25 3.6 11.3
      vertex 3.25 -5 12
    endloop
  endfacet
  facet normal -1 0 0
    outer loop
      vertex 3.25 2.4 11.3
      vertex 3.25 3.6 10.5
      vertex 3.25 2.4 10.5
    endloop
  endfacet
  facet normal -1 0 0
    outer loop
      vertex 3.25 -2.4 10.5
      vertex 3.25 -3.6 11.3
      vertex 3.25 -2.4 11.3
    endloop
  endfacet
  facet normal -1 0 0
    outer loop
      vertex 3.25 3.6 11.3
      vertex 3.25 2.4 11.3
      vertex 3.25 -5 12
    endloop
  endfacet
  facet normal -1 0 0
    outer loop
      vertex 3.25 -3.6 11.3
      vertex 3.25 -5 12
      vertex 3.25 -2.4 11.3
    endloop
  endfacet
  facet normal -1 0 0
    outer loop
      vertex 3.25 2.4 11.3
      vertex 3.25 1.6 11.3
      vertex 3.25 -5 12
    endloop
  endfacet
  facet normal -1 0 0
    outer loop
      vertex 3.25 0.4 11.3
      vertex 3.25 1.6 10.5
      vertex 3.25 0.4 10.5
    endloop
  endfacet
  facet normal -1 0 0
    outer loop
      vertex 3.25 -1.6 11.3
      vertex 3.25 -5 12
      vertex 3.25 -0.4 11.3
    endloop
  endfacet
  facet normal -1 0 0
    outer loop
      vertex 3.25 1.6 11.3
      vertex 3.25 0.4 11.3
      vertex 3.25 -5 12
    endloop
  endfacet
  facet normal -1 0 0
    outer loop
      vertex 3.25 -1.6 11.3
      vertex 3.25 -0.4 10.5
      vertex 3.25 -1.6 10.5
    endloop
  endfacet
  facet normal -1 0 0
    outer loop
      vertex 3.25 -2.4 11.3
      vertex 3.25 -5 12
      vertex 3.25 -1.6 11.3
    endloop
  endfacet
  facet normal -1 0 0
    outer loop
      vertex 3.25 -0.4 10.5
      vertex 3.25 -1.6 11.3
      vertex 3.25 -0.4 11.3
    endloop
  endfacet
  facet normal -1 0 0
    outer loop
      vertex 3.25 -3.6 11.3
      vertex 3.25 -2.4 10.5
      vertex 3.25 -3.6 10.5
    endloop
  endfacet
  facet normal -1 0 0
    outer loop
      vertex 3.25 -4.4 11.3
      vertex 3.25 -5 12
      vertex 3.25 -3.6 11.3
    endloop
  endfacet
  facet normal -1 0 0
    outer loop
      vertex 3.25 -5 12
      vertex 3.25 -4.4 11.3
      vertex 3.25 -4.4 10.5
    endloop
  endfacet
  facet normal -1 0 0
    outer loop
      vertex 3.25 -5 12
      vertex 3.25 -4.4 10.5
      vertex 3.25 -5 10.5
    endloop
  endfacet
  facet normal -1 0 0
    outer loop
      vertex 3.25 4.4 11.3
      vertex 3.25 5 10.5
      vertex 3.25 4.4 10.5
    endloop
  endfacet
  facet normal -1 0 0
    outer loop
      vertex 3.25 -0.4 11.3
      vertex 3.25 -5 12
      vertex 3.25 0.4 11.3
    endloop
  endfacet
  facet normal 0 0 -1
    outer loop
      vertex 3.25 5 12
      vertex 3.25 -5 12
      vertex -3.25 5 12
    endloop
  endfacet
  facet normal 0 0 -1
    outer loop
      vertex -3.25 5 12
      vertex 3.25 -5 12
      vertex -3.25 -5 12
    endloop
  endfacet
  facet normal 1 2.22045e-16 2.22045e-16
    outer loop
      vertex -2.85788 -5 7.65
      vertex -2.85788 -5 4.35
      vertex -2.85788 -2 4.35
    endloop
  endfacet
  facet normal 1 2.22045e-16 2.22045e-16
    outer loop
      vertex -2.85788 -2 7.65
      vertex -2.85788 -5 7.65
      vertex -2.85788 -2 4.35
    endloop
  endfacet
  facet normal 0.5 1.11022e-16 0.866025
    outer loop
      vertex -2.85788 -5 4.35
      vertex 1.39888e-15 -5 2.7
      vertex 7.32747e-16 -2 2.7
    endloop
  endfacet
  facet normal 0.5 1.11022e-16 0.866025
    outer loop
      vertex -2.85788 -2 4.35
      vertex -2.85788 -5 4.35
      vertex 7.32747e-16 -2 2.7
    endloop
  endfacet
  facet normal -0.5 -1.11022e-16 0.866025
    outer loop
      vertex 1.39888e-15 -5 2.7
      vertex 2.85788 -5 4.35
      vertex 2.85788 -2 4.35
    endloop
  endfacet
  facet normal -0.5 -1.11022e-16 0.866025
    outer loop
      vertex 7.32747e-16 -2 2.7
      vertex 1.39888e-15 -5 2.7
      vertex 2.85788 -2 4.35
    endloop
  endfacet
  facet normal -1 -2.22045e-16 -2.22045e-16
    outer loop
      vertex 2.85788 -5 4.35
      vertex 2.85788 -5 7.65
      vertex 2.85788 -2 4.35
    endloop
  endfacet
  facet normal -1 -2.22045e-16 -2.22045e-16
    outer loop
      vertex 2.85788 -2 4.35
      vertex 2.85788 -5 7.65
      vertex 2.85788 -2 7.65
    endloop
  endfacet
  facet normal -0.5 -1.11022e-16 -0.866025
    outer loop
      vertex 2.85788 -5 7.65
      vertex -6.66134e-17 -5 9.3
      vertex 2.85788 -2 7.65
    endloop
  endfacet
  facet normal -0.5 -1.11022e-16 -0.866025
    outer loop
      vertex 2.85788 -2 7.65
      vertex -6.66134e-17 -5 9.3
      vertex -7.32747e-16 -2 9.3
    endloop
  endfacet
  facet normal 0.5 1.11022e-16 -0.866025
    outer loop
      vertex -6.66134e-17 -5 9.3
      vertex -2.85788 -5 7.65
      vertex -7.32747e-16 -2 9.3
    endloop
  endfacet
  facet normal 0.5 1.11022e-16 -0.866025
    outer loop
      vertex -7.32747e-16 -2 9.3
      vertex -2.85788 -5 7.65
      vertex -2.85788 -2 7.65
    endloop
  endfacet
  facet normal 0.987688 -0.156435 0
    outer loop
      vertex -9.56924 0.509878 0
      vertex -9.56924 0.509878 14.5
      vertex -9.65 0 14.5
    endloop
  endfacet
  facet normal 0.987688 -0.156435 0
    outer loop
      vertex -9.65 0 0
      vertex -9.56924 0.509878 0
      vertex -9.65 0 14.5
    endloop
  endfacet
  facet normal 0.987688 0.156435 0
    outer loop
      vertex -9.65 0 14.5
      vertex -9.56924 -0.509878 14.5
      vertex -9.56924 -0.509878 0
    endloop
  endfacet
  facet normal 0.987688 0.156435 0
    outer loop
      vertex -9.65 0 0
      vertex -9.65 0 14.5
      vertex -9.56924 -0.509878 0
    endloop
  endfacet
  facet normal 0.891007 -0.45399 0
    outer loop
      vertex -9.33488 0.969846 0
      vertex -9.33488 0.969846 14.5
      vertex -9.56924 0.509878 14.5
    endloop
  endfacet
  facet normal 0.891007 -0.45399 0
    outer loop
      vertex -9.56924 0.509878 0
      vertex -9.33488 0.969846 0
      vertex -9.56924 0.509878 14.5
    endloop
  endfacet
  facet normal 0.707107 -0.707107 0
    outer loop
      vertex -8.96985 1.33488 0
      vertex -8.96985 1.33488 14.5
      vertex -9.33488 0.969846 14.5
    endloop
  endfacet
  facet normal 0.707107 -0.707107 0
    outer loop
      vertex -9.33488 0.969846 0
      vertex -8.96985 1.33488 0
      vertex -9.33488 0.969846 14.5
    endloop
  endfacet
  facet normal 0.45399 -0.891007 0
    outer loop
      vertex -8.50988 1.56924 0
      vertex -8.50988 1.56924 14.5
      vertex -8.96985 1.33488 14.5
    endloop
  endfacet
  facet normal 0.45399 -0.891007 0
    outer loop
      vertex -8.96985 1.33488 0
      vertex -8.50988 1.56924 0
      vertex -8.96985 1.33488 14.5
    endloop
  endfacet
  facet normal 0.156435 -0.987688 0
    outer loop
      vertex -8 1.65 0
      vertex -8 1.65 14.5
      vertex -8.50988 1.56924 14.5
    endloop
  endfacet
  facet normal 0.156435 -0.987688 0
    outer loop
      vertex -8.50988 1.56924 0
      vertex -8 1.65 0
      vertex -8.50988 1.56924 14.5
    endloop
  endfacet
  facet normal -0.156435 -0.987688 0
    outer loop
      vertex -7.49012 1.56924 0
      vertex -7.49012 1.56924 14.5
      vertex -8 1.65 14.5
    endloop
  endfacet
  facet normal -0.156435 -0.987688 0
    outer loop
      vertex -8 1.65 0
      vertex -7.49012 1.56924 0
      vertex -8 1.65 14.5
    endloop
  endfacet
  facet normal -0.45399 -0.891007 0
    outer loop
      vertex -7.03015 1.33488 0
      vertex -7.03015 1.33488 14.5
      vertex -7.49012 1.56924 14.5
    endloop
  endfacet
  facet normal -0.45399 -0.891007 0
    outer loop
      vertex -7.49012 1.56924 0
      vertex -7.03015 1.33488 0
      vertex -7.49012 1.56924 14.5
    endloop
  endfacet
  facet normal -0.707107 -0.707107 0
    outer loop
      vertex -6.66512 0.969846 0
      vertex -6.66512 0.969846 14.5
      vertex -7.03015 1.33488 14.5
    endloop
  endfacet
  facet normal -0.707107 -0.707107 0
    outer loop
      vertex -7.03015 1.33488 0
      vertex -6.66512 0.969846 0
      vertex -7.03015 1.33488 14.5
    endloop
  endfacet
  facet normal -0.891007 -0.45399 0
    outer loop
      vertex -6.43076 0.509878 14.5
      vertex -6.66512 0.969846 14.5
      vertex -6.43076 0.509878 0
    endloop
  endfacet
  facet normal -0.891007 -0.45399 0
    outer loop
      vertex -6.43076 0.509878 0
      vertex -6.66512 0.969846 14.5
      vertex -6.66512 0.969846 0
    endloop
  endfacet
  facet normal -0.987688 -0.156435 0
    outer loop
      vertex -6.35 0 14.5
      vertex -6.43076 0.509878 14.5
      vertex -6.35 0 0
    endloop
  endfacet
  facet normal -0.987688 -0.156435 0
    outer loop
      vertex -6.35 0 0
      vertex -6.43076 0.509878 14.5
      vertex -6.43076 0.509878 0
    endloop
  endfacet
  facet normal -0.987688 0.156435 0
    outer loop
      vertex -6.35 0 14.5
      vertex -6.35 0 0
      vertex -6.43076 -0.509878 14.5
    endloop
  endfacet
  facet normal -0.987688 0.156435 0
    outer loop
      vertex -6.43076 -0.509878 14.5
      vertex -6.35 0 0
      vertex -6.43076 -0.509878 0
    endloop
  endfacet
  facet normal -0.891007 0.45399 0
    outer loop
      vertex -6.43076 -0.509878 14.5
      vertex -6.43076 -0.509878 0
      vertex -6.66512 -0.969846 14.5
    endloop
  endfacet
  facet normal -0.891007 0.45399 0
    outer loop
      vertex -6.66512 -0.969846 14.5
      vertex -6.43076 -0.509878 0
      vertex -6.66512 -0.969846 0
    endloop
  endfacet
  facet normal -0.707107 0.707107 0
    outer loop
      vertex -6.66512 -0.969846 14.5
      vertex -6.66512 -0.969846 0
      vertex -7.03015 -1.33488 14.5
    endloop
  endfacet
  facet normal -0.707107 0.707107 0
    outer loop
      vertex -7.03015 -1.33488 14.5
      vertex -6.66512 -0.969846 0
      vertex -7.03015 -1.33488 0
    endloop
  endfacet
  facet normal -0.45399 0.891007 0
    outer loop
      vertex -7.03015 -1.33488 14.5
      vertex -7.03015 -1.33488 0
      vertex -7.49012 -1.56924 14.5
    endloop
  endfacet
  facet normal -0.45399 0.891007 0
    outer loop
      vertex -7.49012 -1.56924 14.5
      vertex -7.03015 -1.33488 0
      vertex -7.49012 -1.56924 0
    endloop
  endfacet
  facet normal -0.156435 0.987688 0
    outer loop
      vertex -7.49012 -1.56924 14.5
      vertex -7.49012 -1.56924 0
      vertex -8 -1.65 14.5
    endloop
  endfacet
  facet normal -0.156435 0.987688 0
    outer loop
      vertex -8 -1.65 14.5
      vertex -7.49012 -1.56924 0
      vertex -8 -1.65 0
    endloop
  endfacet
  facet normal 0.156435 0.987688 0
    outer loop
      vertex -8 -1.65 14.5
      vertex -8 -1.65 0
      vertex -8.50988 -1.56924 14.5
    endloop
  endfacet
  facet normal 0.156435 0.987688 0
    outer loop
      vertex -8.50988 -1.56924 14.5
      vertex -8 -1.65 0
      vertex -8.50988 -1.56924 0
    endloop
  endfacet
  facet normal 0.45399 0.891007 0
    outer loop
      vertex -8.50988 -1.56924 14.5
      vertex -8.50988 -1.56924 0
      vertex -8.96985 -1.33488 14.5
    endloop
  endfacet
  facet normal 0.45399 0.891007 0
    outer loop
      vertex -8.96985 -1.33488 14.5
      vertex -8.50988 -1.56924 0
      vertex -8.96985 -1.33488 0
    endloop
  endfacet
  facet normal 0.707107 0.707107 0
    outer loop
      vertex -8.96985 -1.33488 14.5
      vertex -8.96985 -1.33488 0
      vertex -9.33488 -0.969846 14.5
    endloop
  endfacet
  facet normal 0.707107 0.707107 0
    outer loop
      vertex -9.33488 -0.969846 14.5
      vertex -8.96985 -1.33488 0
      vertex -9.33488 -0.969846 0
    endloop
  endfacet
  facet normal 0.891007 0.45399 0
    outer loop
      vertex -9.56924 -0.509878 14.5
      vertex -9.33488 -0.969846 14.5
      vertex -9.33488 -0.969846 0
    endloop
  endfacet
  facet normal 0.891007 0.45399 0
    outer loop
      vertex -9.56924 -0.509878 0
      vertex -9.56924 -0.509878 14.5
      vertex -9.33488 -0.969846 0
    endloop
  endfacet
  facet normal 0.987688 -0.156435 0
    outer loop
      vertex 6.43076 0.509878 0
      vertex 6.43076 0.509878 14.5
      vertex 6.35 0 14.5
    endloop
  endfacet
  facet normal 0.987688 -0.156435 0
    outer loop
      vertex 6.35 0 0
      vertex 6.43076 0.509878 0
      vertex 6.35 0 14.5
    endloop
  endfacet
  facet normal 0.987688 0.156435 0
    outer loop
      vertex 6.35 0 14.5
      vertex 6.43076 -0.509878 14.5
      vertex 6.43076 -0.509878 0
    endloop
  endfacet
  facet normal 0.987688 0.156435 0
    outer loop
      vertex 6.35 0 0
      vertex 6.35 0 14.5
      vertex 6.43076 -0.509878 0
    endloop
  endfacet
  facet normal 0.891007 -0.45399 0
    outer loop
      vertex 6.66512 0.969846 0
      vertex 6.66512 0.969846 14.5
      vertex 6.43076 0.509878 14.5
    endloop
  endfacet
  facet normal 0.891007 -0.45399 0
    outer loop
      vertex 6.43076 0.509878 0
      vertex 6.66512 0.969846 0
      vertex 6.43076 0.509878 14.5
    endloop
  endfacet
  facet normal 0.707107 -0.707107 0
    outer loop
      vertex 7.03015 1.33488 0
      vertex 7.03015 1.33488 14.5
      vertex 6.66512 0.969846 14.5
    endloop
  endfacet
  facet normal 0.707107 -0.707107 0
    outer loop
      vertex 6.66512 0.969846 0
      vertex 7.03015 1.33488 0
      vertex 6.66512 0.969846 14.5
    endloop
  endfacet
  facet normal 0.45399 -0.891007 0
    outer loop
      vertex 7.49012 1.56924 0
      vertex 7.49012 1.56924 14.5
      vertex 7.03015 1.33488 14.5
    endloop
  endfacet
  facet normal 0.45399 -0.891007 0
    outer loop
      vertex 7.03015 1.33488 0
      vertex 7.49012 1.56924 0
      vertex 7.03015 1.33488 14.5
    endloop
  endfacet
  facet normal 0.156435 -0.987688 0
    outer loop
      vertex 8 1.65 0
      vertex 8 1.65 14.5
      vertex 7.49012 1.56924 14.5
    endloop
  endfacet
  facet normal 0.156435 -0.987688 0
    outer loop
      vertex 7.49012 1.56924 0
      vertex 8 1.65 0
      vertex 7.49012 1.56924 14.5
    endloop
  endfacet
  facet normal -0.156435 -0.987688 0
    outer loop
      vertex 8.50988 1.56924 0
      vertex 8.50988 1.56924 14.5
      vertex 8 1.65 14.5
    endloop
  endfacet
  facet normal -0.156435 -0.987688 0
    outer loop
      vertex 8 1.65 0
      vertex 8.50988 1.56924 0
      vertex 8 1.65 14.5
    endloop
  endfacet
  facet normal -0.45399 -0.891007 0
    outer loop
      vertex 8.96985 1.33488 0
      vertex 8.96985 1.33488 14.5
      vertex 8.50988 1.56924 14.5
    endloop
  endfacet
  facet normal -0.45399 -0.891007 0
    outer loop
      vertex 8.50988 1.56924 0
      vertex 8.96985 1.33488 0
      vertex 8.50988 1.56924 14.5
    endloop
  endfacet
  facet normal -0.707107 -0.707107 0
    outer loop
      vertex 9.33488 0.969846 0
      vertex 9.33488 0.969846 14.5
      vertex 8.96985 1.33488 14.5
    endloop
  endfacet
  facet normal -0.707107 -0.707107 0
    outer loop
      vertex 8.96985 1.33488 0
      vertex 9.33488 0.969846 0
      vertex 8.96985 1.33488 14.5
    endloop
  endfacet
  facet normal -0.891007 -0.45399 0
    outer loop
      vertex 9.56924 0.509878 14.5
      vertex 9.33488 0.969846 14.5
      vertex 9.56924 0.509878 0
    endloop
  endfacet
  facet normal -0.891007 -0.45399 0
    outer loop
      vertex 9.56924 0.509878 0
      vertex 9.33488 0.969846 14.5
      vertex 9.33488 0.969846 0
    endloop
  endfacet
  facet normal -0.987688 -0.156435 0
    outer loop
      vertex 9.65 0 14.5
      vertex 9.56924 0.509878 14.5
      vertex 9.65 0 0
    endloop
  endfacet
  facet normal -0.987688 -0.156435 0
    outer loop
      vertex 9.65 0 0
      vertex 9.56924 0.509878 14.5
      vertex 9.56924 0.509878 0
    endloop
  endfacet
  facet normal -0.987688 0.156435 0
    outer loop
      vertex 9.65 0 14.5
      vertex 9.65 0 0
      vertex 9.56924 -0.509878 14.5
    endloop
  endfacet
  facet normal -0.987688 0.156435 0
    outer loop
      vertex 9.56924 -0.509878 14.5
      vertex 9.65 0 0
      vertex 9.56924 -0.509878 0
    endloop
  endfacet
  facet normal -0.891007 0.45399 0
    outer loop
      vertex 9.56924 -0.509878 14.5
      vertex 9.56924 -0.509878 0
      vertex 9.33488 -0.969846 14.5
    endloop
  endfacet
  facet normal -0.891007 0.45399 0
    outer loop
      vertex 9.33488 -0.969846 14.5
      vertex 9.56924 -0.509878 0
      vertex 9.33488 -0.969846 0
    endloop
  endfacet
  facet normal -0.707107 0.707107 0
    outer loop
      vertex 9.33488 -0.969846 14.5
      vertex 9.33488 -0.969846 0
      vertex 8.96985 -1.33488 14.5
    endloop
  endfacet
  facet normal -0.707107 0.707107 0
    outer loop
      vertex 8.96985 -1.33488 14.5
      vertex 9.33488 -0.969846 0
      vertex 8.96985 -1.33488 0
    endloop
  endfacet
  facet normal -0.45399 0.891007 0
    outer loop
      vertex 8.96985 -1.33488 14.5
      vertex 8.96985 -1.33488 0
      vertex 8.50988 -1.56924 14.5
    endloop
  endfacet
  facet normal -0.45399 0.891007 0
    outer loop
      vertex 8.50988 -1.56924 14.5
      vertex 8.96985 -1.33488 0
      vertex 8.50988 -1.56924 0
    endloop
  endfacet
  facet normal -0.156435 0.987688 0
    outer loop
      vertex 8.50988 -1.56924 14.5
      vertex 8.50988 -1.56924 0
      vertex 8 -1.65 14.5
    endloop
  endfacet
  facet normal -0.156435 0.987688 0
    outer loop
      vertex 8 -1.65 14.5
      vertex 8.50988 -1.56924 0
      vertex 8 -1.65 0
    endloop
  endfacet
  facet normal 0.156435 0.987688 0
    outer loop
      vertex 8 -1.65 14.5
      vertex 8 -1.65 0
      vertex 7.49012 -1.56924 14.5
    endloop
  endfacet
  facet normal 0.156435 0.987688 0
    outer loop
      vertex 7.49012 -1.56924 14.5
      vertex 8 -1.65 0
      vertex 7.49012 -1.56924 0
    endloop
  endfacet
  facet normal 0.45399 0.891007 0
    outer loop
      vertex 7.49012 -1.56924 14.5
      vertex 7.49012 -1.56924 0
      vertex 7.03015 -1.33488 14.5
    endloop
  endfacet
  facet normal 0.45399 0.891007 0
    outer loop
      vertex 7.03015 -1.33488 14.5
      vertex 7.49012 -1.56924 0
      vertex 7.03015 -1.33488 0
    endloop
  endfacet
  facet normal 0.707107 0.707107 0
    outer loop
      vertex 7.03015 -1.33488 14.5
      vertex 7.03015 -1.33488 0
      vertex 6.66512 -0.969846 14.5
    endloop
  endfacet
  facet normal 0.707107 0.707107 0
    outer loop
      vertex 6.66512 -0.969846 14.5
      vertex 7.03015 -1.33488 0
      vertex 6.66512 -0.969846 0
    endloop
  endfacet
  facet normal 0.891007 0.45399 0
    outer loop
      vertex 6.43076 -0.509878 14.5
      vertex 6.66512 -0.969846 14.5
      vertex 6.66512 -0.969846 0
    endloop
  endfacet
  facet normal 0.891007 0.45399 0
    outer loop
      vertex 6.43076 -0.509878 0
      vertex 6.43076 -0.509878 14.5
      vertex 6.66512 -0.969846 0
    endloop
  endfacet
  facet normal 0 0 1
    outer loop
      vertex 3.25 4.4 10.5
      vertex 3.25 5 10.5
      vertex -3.25 5 10.5
    endloop
  endfacet
  facet normal 0 0 1
    outer loop
      vertex -3.25 4.4 10.5
      vertex 3.25 4.4 10.5
      vertex -3.25 5 10.5
    endloop
  endfacet
  facet normal 0.987688 3.47355e-17 0.156435
    outer loop
      vertex -1.56924 -2 5.49012
      vertex -1.56924 5 5.49012
      vertex -1.65 5 6
    endloop
  endfacet
  facet normal 0.987688 3.47355e-17 0.156435
    outer loop
      vertex -1.65 -2 6
      vertex -1.56924 -2 5.49012
      vertex -1.65 5 6
    endloop
  endfacet
  facet normal 0.987688 -3.47355e-17 -0.156435
    outer loop
      vertex -1.65 5 6
      vertex -1.56924 5 6.50988
      vertex -1.56924 -2 6.50988
    endloop
  endfacet
  facet normal 0.987688 -3.47355e-17 -0.156435
    outer loop
      vertex -1.65 -2 6
      vertex -1.65 5 6
      vertex -1.56924 -2 6.50988
    endloop
  endfacet
  facet normal 0.891007 -1.00806e-16 -0.45399
    outer loop
      vertex -1.56924 5 6.50988
      vertex -1.33488 5 6.96985
      vertex -1.33488 -2 6.96985
    endloop
  endfacet
  facet normal 0.891007 -1.00806e-16 -0.45399
    outer loop
      vertex -1.56924 -2 6.50988
      vertex -1.56924 5 6.50988
      vertex -1.33488 -2 6.96985
    endloop
  endfacet
  facet normal 0.707107 -1.57009e-16 -0.707107
    outer loop
      vertex -1.33488 5 6.96985
      vertex -0.969846 5 7.33488
      vertex -0.969846 -2 7.33488
    endloop
  endfacet
  facet normal 0.707107 -1.57009e-16 -0.707107
    outer loop
      vertex -1.33488 -2 6.96985
      vertex -1.33488 5 6.96985
      vertex -0.969846 -2 7.33488
    endloop
  endfacet
  facet normal 0.45399 -1.97843e-16 -0.891007
    outer loop
      vertex -0.509878 5 7.56924
      vertex -0.509878 -2 7.56924
      vertex -0.969846 5 7.33488
    endloop
  endfacet
  facet normal 0.45399 -1.97843e-16 -0.891007
    outer loop
      vertex -0.969846 5 7.33488
      vertex -0.509878 -2 7.56924
      vertex -0.969846 -2 7.33488
    endloop
  endfacet
  facet normal 0.156435 -2.19311e-16 -0.987688
    outer loop
      vertex 0 5 7.65
      vertex 0 -2 7.65
      vertex -0.509878 5 7.56924
    endloop
  endfacet
  facet normal 0.156435 -2.19311e-16 -0.987688
    outer loop
      vertex -0.509878 5 7.56924
      vertex 0 -2 7.65
      vertex -0.509878 -2 7.56924
    endloop
  endfacet
  facet normal -0.156435 -2.19311e-16 -0.987688
    outer loop
      vertex 0.509878 5 7.56924
      vertex 0.509878 -2 7.56924
      vertex 0 5 7.65
    endloop
  endfacet
  facet normal -0.156435 -2.19311e-16 -0.987688
    outer loop
      vertex 0 5 7.65
      vertex 0.509878 -2 7.56924
      vertex 0 -2 7.65
    endloop
  endfacet
  facet normal -0.45399 -1.97843e-16 -0.891007
    outer loop
      vertex 0.969846 5 7.33488
      vertex 0.969846 -2 7.33488
      vertex 0.509878 5 7.56924
    endloop
  endfacet
  facet normal -0.45399 -1.97843e-16 -0.891007
    outer loop
      vertex 0.509878 5 7.56924
      vertex 0.969846 -2 7.33488
      vertex 0.509878 -2 7.56924
    endloop
  endfacet
  facet normal -0.707107 -1.57009e-16 -0.707107
    outer loop
      vertex 1.33488 5 6.96985
      vertex 1.33488 -2 6.96985
      vertex 0.969846 5 7.33488
    endloop
  endfacet
  facet normal -0.707107 -1.57009e-16 -0.707107
    outer loop
      vertex 0.969846 5 7.33488
      vertex 1.33488 -2 6.96985
      vertex 0.969846 -2 7.33488
    endloop
  endfacet
  facet normal -0.891007 -1.00806e-16 -0.45399
    outer loop
      vertex 1.56924 5 6.50988
      vertex 1.56924 -2 6.50988
      vertex 1.33488 5 6.96985
    endloop
  endfacet
  facet normal -0.891007 -1.00806e-16 -0.45399
    outer loop
      vertex 1.33488 5 6.96985
      vertex 1.56924 -2 6.50988
      vertex 1.33488 -2 6.96985
    endloop
  endfacet
  facet normal -0.987688 -3.47355e-17 -0.156435
    outer loop
      vertex 1.65 5 6
      vertex 1.65 -2 6
      vertex 1.56924 5 6.50988
    endloop
  endfacet
  facet normal -0.987688 -3.47355e-17 -0.156435
    outer loop
      vertex 1.56924 5 6.50988
      vertex 1.65 -2 6
      vertex 1.56924 -2 6.50988
    endloop
  endfacet
  facet normal -0.987688 3.47355e-17 0.156435
    outer loop
      vertex 1.65 5 6
      vertex 1.56924 5 5.49012
      vertex 1.65 -2 6
    endloop
  endfacet
  facet normal -0.987688 3.47355e-17 0.156435
    outer loop
      vertex 1.65 -2 6
      vertex 1.56924 5 5.49012
      vertex 1.56924 -2 5.49012
    endloop
  endfacet
  facet normal -0.891007 1.00806e-16 0.45399
    outer loop
      vertex 1.56924 5 5.49012
      vertex 1.33488 5 5.03015
      vertex 1.56924 -2 5.49012
    endloop
  endfacet
  facet normal -0.891007 1.00806e-16 0.45399
    outer loop
      vertex 1.56924 -2 5.49012
      vertex 1.33488 5 5.03015
      vertex 1.33488 -2 5.03015
    endloop
  endfacet
  facet normal -0.707107 1.57009e-16 0.707107
    outer loop
      vertex 1.33488 5 5.03015
      vertex 0.969846 5 4.66512
      vertex 1.33488 -2 5.03015
    endloop
  endfacet
  facet normal -0.707107 1.57009e-16 0.707107
    outer loop
      vertex 1.33488 -2 5.03015
      vertex 0.969846 5 4.66512
      vertex 0.969846 -2 4.66512
    endloop
  endfacet
  facet normal -0.45399 1.97843e-16 0.891007
    outer loop
      vertex 0.969846 -2 4.66512
      vertex 0.969846 5 4.66512
      vertex 0.509878 5 4.43076
    endloop
  endfacet
  facet normal -0.45399 1.97843e-16 0.891007
    outer loop
      vertex 0.509878 -2 4.43076
      vertex 0.969846 -2 4.66512
      vertex 0.509878 5 4.43076
    endloop
  endfacet
  facet normal -0.156435 2.19311e-16 0.987688
    outer loop
      vertex 0.509878 -2 4.43076
      vertex 0.509878 5 4.43076
      vertex 0 5 4.35
    endloop
  endfacet
  facet normal -0.156435 2.19311e-16 0.987688
    outer loop
      vertex 0 -2 4.35
      vertex 0.509878 -2 4.43076
      vertex 0 5 4.35
    endloop
  endfacet
  facet normal 0.156435 2.19311e-16 0.987688
    outer loop
      vertex 0 -2 4.35
      vertex 0 5 4.35
      vertex -0.509878 5 4.43076
    endloop
  endfacet
  facet normal 0.156435 2.19311e-16 0.987688
    outer loop
      vertex -0.509878 -2 4.43076
      vertex 0 -2 4.35
      vertex -0.509878 5 4.43076
    endloop
  endfacet
  facet normal 0.45399 1.97843e-16 0.891007
    outer loop
      vertex -0.509878 -2 4.43076
      vertex -0.509878 5 4.43076
      vertex -0.969846 5 4.66512
    endloop
  endfacet
  facet normal 0.45399 1.97843e-16 0.891007
    outer loop
      vertex -0.969846 -2 4.66512
      vertex -0.509878 -2 4.43076
      vertex -0.969846 5 4.66512
    endloop
  endfacet
  facet normal 0.707107 1.57009e-16 0.707107
    outer loop
      vertex -0.969846 -2 4.66512
      vertex -0.969846 5 4.66512
      vertex -1.33488 5 5.03015
    endloop
  endfacet
  facet normal 0.707107 1.57009e-16 0.707107
    outer loop
      vertex -1.33488 -2 5.03015
      vertex -0.969846 -2 4.66512
      vertex -1.33488 5 5.03015
    endloop
  endfacet
  facet normal 0.891007 1.00806e-16 0.45399
    outer loop
      vertex -1.33488 -2 5.03015
      vertex -1.33488 5 5.03015
      vertex -1.56924 5 5.49012
    endloop
  endfacet
  facet normal 0.891007 1.00806e-16 0.45399
    outer loop
      vertex -1.56924 -2 5.49012
      vertex -1.33488 -2 5.03015
      vertex -1.56924 5 5.49012
    endloop
  endfacet
  facet normal 1 -2.22045e-16 0
    outer loop
      vertex -10.8579 1.65 14.5
      vertex -10.8579 1.65 18
      vertex -10.8579 -1.65 18
    endloop
  endfacet
  facet normal 1 -2.22045e-16 0
    outer loop
      vertex -10.8579 -1.65 14.5
      vertex -10.8579 1.65 14.5
      vertex -10.8579 -1.65 18
    endloop
  endfacet
  facet normal 0.5 0.866025 0
    outer loop
      vertex -8 -3.3 18
      vertex -8 -3.3 14.5
      vertex -10.8579 -1.65 18
    endloop
  endfacet
  facet normal 0.5 0.866025 0
    outer loop
      vertex -10.8579 -1.65 18
      vertex -8 -3.3 14.5
      vertex -10.8579 -1.65 14.5
    endloop
  endfacet
  facet normal -0.5 0.866025 0
    outer loop
      vertex -5.14212 -1.65 18
      vertex -5.14212 -1.65 14.5
      vertex -8 -3.3 18
    endloop
  endfacet
  facet normal -0.5 0.866025 0
    outer loop
      vertex -8 -3.3 18
      vertex -5.14212 -1.65 14.5
      vertex -8 -3.3 14.5
    endloop
  endfacet
  facet normal -1 2.22045e-16 0
    outer loop
      vertex -5.14212 1.65 18
      vertex -5.14212 1.65 14.5
      vertex -5.14212 -1.65 18
    endloop
  endfacet
  facet normal -1 2.22045e-16 0
    outer loop
      vertex -5.14212 -1.65 18
      vertex -5.14212 1.65 14.5
      vertex -5.14212 -1.65 14.5
    endloop
  endfacet
  facet normal -0.5 -0.866025 0
    outer loop
      vertex -5.14212 1.65 14.5
      vertex -5.14212 1.65 18
      vertex -8 3.3 18
    endloop
  endfacet
  facet normal -0.5 -0.866025 0
    outer loop
      vertex -8 3.3 14.5
      vertex -5.14212 1.65 14.5
      vertex -8 3.3 18
    endloop
  endfacet
  facet normal 0.5 -0.866025 0
    outer loop
      vertex -8 3.3 14.5
      vertex -8 3.3 18
      vertex -10.8579 1.65 18
    endloop
  endfacet
  facet normal 0.5 -0.866025 0
    outer loop
      vertex -10.8579 1.65 14.5
      vertex -8 3.3 14.5
      vertex -10.8579 1.65 18
    endloop
  endfacet
  facet normal 1 -2.22045e-16 0
    outer loop
      vertex 5.14212 1.65 14.5
      vertex 5.14212 1.65 18
      vertex 5.14212 -1.65 18
    endloop
  endfacet
  facet normal 1 -2.22045e-16 0
    outer loop
      vertex 5.14212 -1.65 14.5
      vertex 5.14212 1.65 14.5
      vertex 5.14212 -1.65 18
    endloop
  endfacet
  facet normal 0.5 0.866025 0
    outer loop
      vertex 8 -3.3 18
      vertex 8 -3.3 14.5
      vertex 5.14212 -1.65 18
    endloop
  endfacet
  facet normal 0.5 0.866025 0
    outer loop
      vertex 5.14212 -1.65 18
      vertex 8 -3.3 14.5
      vertex 5.14212 -1.65 14.5
    endloop
  endfacet
  facet normal -0.5 0.866025 0
    outer loop
      vertex 10.8579 -1.65 18
      vertex 10.8579 -1.65 14.5
      vertex 8 -3.3 18
    endloop
  endfacet
  facet normal -0.5 0.866025 0
    outer loop
      vertex 8 -3.3 18
      vertex 10.8579 -1.65 14.5
      vertex 8 -3.3 14.5
    endloop
  endfacet
  facet normal -1 2.22045e-16 0
    outer loop
      vertex 10.8579 1.65 18
      vertex 10.8579 1.65 14.5
      vertex 10.8579 -1.65 18
    endloop
  endfacet
  facet normal -1 2.22045e-16 0
    outer loop
      vertex 10.8579 -1.65 18
      vertex 10.8579 1.65 14.5
      vertex 10.8579 -1.65 14.5
    endloop
  endfacet
  facet normal -0.5 -0.866025 0
    outer loop
      vertex 10.8579 1.65 14.5
      vertex 10.8579 1.65 18
      vertex 8 3.3 18
    endloop
  endfacet
  facet normal -0.5 -0.866025 0
    outer loop
      vertex 8 3.3 14.5
      vertex 10.8579 1.65 14.5
      vertex 8 3.3 18
    endloop
  endfacet
  facet normal 0.5 -0.866025 0
    outer loop
      vertex 8 3.3 14.5
      vertex 8 3.3 18
      vertex 5.14212 1.65 18
    endloop
  endfacet
  facet normal 0.5 -0.866025 0
    outer loop
      vertex 5.14212 1.65 14.5
      vertex 8 3.3 14.5
      vertex 5.14212 1.65 18
    endloop
  endfacet
  facet normal 0 -1 0
    outer loop
      vertex 3.25 -4.4 10.5
      vertex 3.25 -4.4 11.3
      vertex -3.25 -4.4 11.3
    endloop
  endfacet
  facet normal 0 -1 0
    outer loop
      vertex -3.25 -4.4 10.5
      vertex 3.25 -4.4 10.5
      vertex -3.25 -4.4 11.3
    endloop
  endfacet
  facet normal 0 1 0
    outer loop
      vertex 3.25 4.4 11.3
      vertex 3.25 4.4 10.5
      vertex -3.25 4.4 11.3
    endloop
  endfacet
  facet normal 0 1 0
    outer loop
      vertex -3.25 4.4 11.3
      vertex 3.25 4.4 10.5
      vertex -3.25 4.4 10.5
    endloop
  endfacet
  facet normal 0 0 1
    outer loop
      vertex 3.25 3.6 11.3
      vertex 3.25 4.4 11.3
      vertex -3.25 4.4 11.3
    endloop
  endfacet
  facet normal 0 0 1
    outer loop
      vertex -3.25 3.6 11.3
      vertex 3.25 3.6 11.3
      vertex -3.25 4.4 11.3
    endloop
  endfacet
  facet normal 0 -1 0
    outer loop
      vertex 3.25 3.6 10.5
      vertex 3.25 3.6 11.3
      vertex -3.25 3.6 11.3
    endloop
  endfacet
  facet normal 0 -1 0
    outer loop
      vertex -3.25 3.6 10.5
      vertex 3.25 3.6 10.5
      vertex -3.25 3.6 11.3
    endloop
  endfacet
  facet normal 0 0 1
    outer loop
      vertex 3.25 2.4 10.5
      vertex 3.25 3.6 10.5
      vertex -3.25 3.6 10.5
    endloop
  endfacet
  facet normal 0 0 1
    outer loop
      vertex -3.25 2.4 10.5
      vertex 3.25 2.4 10.5
      vertex -3.25 3.6 10.5
    endloop
  endfacet
  facet normal 0 1 0
    outer loop
      vertex 3.25 2.4 11.3
      vertex 3.25 2.4 10.5
      vertex -3.25 2.4 11.3
    endloop
  endfacet
  facet normal 0 1 0
    outer loop
      vertex -3.25 2.4 11.3
      vertex 3.25 2.4 10.5
      vertex -3.25 2.4 10.5
    endloop
  endfacet
  facet normal 0 0 1
    outer loop
      vertex 3.25 1.6 11.3
      vertex 3.25 2.4 11.3
      vertex -3.25 2.4 11.3
    endloop
  endfacet
  facet normal 0 0 1
    outer loop
      vertex -3.25 1.6 11.3
      vertex 3.25 1.6 11.3
      vertex -3.25 2.4 11.3
    endloop
  endfacet
  facet normal 0 -1 0
    outer loop
      vertex 3.25 1.6 10.5
      vertex 3.25 1.6 11.3
      vertex -3.25 1.6 11.3
    endloop
  endfacet
  facet normal 0 -1 0
    outer loop
      vertex -3.25 1.6 10.5
      vertex 3.25 1.6 10.5
      vertex -3.25 1.6 11.3
    endloop
  endfacet
  facet normal 0 0 1
    outer loop
      vertex 3.25 0.4 10.5
      vertex 3.25 1.6 10.5
      vertex -3.25 1.6 10.5
    endloop
  endfacet
  facet normal 0 0 1
    outer loop
      vertex -3.25 0.4 10.5
      vertex 3.25 0.4 10.5
      vertex -3.25 1.6 10.5
    endloop
  endfacet
  facet normal 0 1 0
    outer loop
      vertex 3.25 0.4 11.3
      vertex 3.25 0.4 10.5
      vertex -3.25 0.4 11.3
    endloop
  endfacet
  facet normal 0 1 0
    outer loop
      vertex -3.25 0.4 11.3
      vertex 3.25 0.4 10.5
      vertex -3.25 0.4 10.5
    endloop
  endfacet
  facet normal 0 0 1
    outer loop
      vertex 3.25 -0.4 11.3
      vertex 3.25 0.4 11.3
      vertex -3.25 0.4 11.3
    endloop
  endfacet
  facet normal 0 0 1
    outer loop
      vertex -3.25 -0.4 11.3
      vertex 3.25 -0.4 11.3
      vertex -3.25 0.4 11.3
    endloop
  endfacet
  facet normal 0 -1 0
    outer loop
      vertex 3.25 -0.4 10.5
      vertex 3.25 -0.4 11.3
      vertex -3.25 -0.4 11.3
    endloop
  endfacet
  facet normal 0 -1 0
    outer loop
      vertex -3.25 -0.4 10.5
      vertex 3.25 -0.4 10.5
      vertex -3.25 -0.4 11.3
    endloop
  endfacet
  facet normal 0 0 1
    outer loop
      vertex 3.25 -1.6 10.5
      vertex 3.25 -0.4 10.5
      vertex -3.25 -0.4 10.5
    endloop
  endfacet
  facet normal 0 0 1
    outer loop
      vertex -3.25 -1.6 10.5
      vertex 3.25 -1.6 10.5
      vertex -3.25 -0.4 10.5
    endloop
  endfacet
  facet normal 0 1 0
    outer loop
      vertex 3.25 -1.6 11.3
      vertex 3.25 -1.6 10.5
      vertex -3.25 -1.6 11.3
    endloop
  endfacet
  facet normal 0 1 0
    outer loop
      vertex -3.25 -1.6 11.3
      vertex 3.25 -1.6 10.5
      vertex -3.25 -1.6 10.5
    endloop
  endfacet
  facet normal 0 0 1
    outer loop
      vertex 3.25 -2.4 11.3
      vertex 3.25 -1.6 11.3
      vertex -3.25 -1.6 11.3
    endloop
  endfacet
  facet normal 0 0 1
    outer loop
      vertex -3.25 -2.4 11.3
      vertex 3.25 -2.4 11.3
      vertex -3.25 -1.6 11.3
    endloop
  endfacet
  facet normal 0 -1 0
    outer loop
      vertex 3.25 -2.4 10.5
      vertex 3.25 -2.4 11.3
      vertex -3.25 -2.4 11.3
    endloop
  endfacet
  facet normal 0 -1 0
    outer loop
      vertex -3.25 -2.4 10.5
      vertex 3.25 -2.4 10.5
      vertex -3.25 -2.4 11.3
    endloop
  endfacet
  facet normal 0 0 1
    outer loop
      vertex 3.25 -3.6 10.5
      vertex 3.25 -2.4 10.5
      vertex -3.25 -2.4 10.5
    endloop
  endfacet
  facet normal 0 0 1
    outer loop
      vertex -3.25 -3.6 10.5
      vertex 3.25 -3.6 10.5
      vertex -3.25 -2.4 10.5
    endloop
  endfacet
  facet normal 0 1 0
    outer loop
      vertex 3.25 -3.6 11.3
      vertex 3.25 -3.6 10.5
      vertex -3.25 -3.6 11.3
    endloop
  endfacet
  facet normal 0 1 0
    outer loop
      vertex -3.25 -3.6 11.3
      vertex 3.25 -3.6 10.5
      vertex -3.25 -3.6 10.5
    endloop
  endfacet
  facet normal 0 0 1
    outer loop
      vertex 3.25 -4.4 11.3
      vertex 3.25 -3.6 11.3
      vertex -3.25 -3.6 11.3
    endloop
  endfacet
  facet normal 0 0 1
    outer loop
      vertex -3.25 -4.4 11.3
      vertex 3.25 -4.4 11.3
      vertex -3.25 -3.6 11.3
    endloop
  endfacet
  facet normal 2.22045e-16 -1 4.93038e-32
    outer loop
      vertex -2.85788 -2 4.35
      vertex 7.32747e-16 -2 2.7
      vertex 2.85788 -2 4.35
    endloop
  endfacet
  facet normal 2.22045e-16 -1 4.93038e-32
    outer loop
      vertex 0 -2 4.35
      vertex -0.509878 -2 4.43076
      vertex -2.85788 -2 4.35
    endloop
  endfacet
  facet normal 2.22045e-16 -1 4.93038e-32
    outer loop
      vertex 0 -2 4.35
      vertex -2.85788 -2 4.35
      vertex 2.85788 -2 4.35
    endloop
  endfacet
  facet normal 2.22045e-16 -1 4.93038e-32
    outer loop
      vertex -2.85788 -2 7.65
      vertex -2.85788 -2 4.35
      vertex -7.32747e-16 -2 9.3
    endloop
  endfacet
  facet normal 2.22045e-16 -1 4.93038e-32
    outer loop
      vertex 1.33488 -2 6.96985
      vertex 1.56924 -2 6.50988
      vertex 2.85788 -2 7.65
    endloop
  endfacet
  facet normal 2.22045e-16 -1 4.93038e-32
    outer loop
      vertex -1.56924 -2 6.50988
      vertex -2.85788 -2 4.35
      vertex -1.65 -2 6
    endloop
  endfacet
  facet normal 2.22045e-16 -1 4.93038e-32
    outer loop
      vertex 0 -2 7.65
      vertex 0.509878 -2 7.56924
      vertex 2.85788 -2 7.65
    endloop
  endfacet
  facet normal 2.22045e-16 -1 4.93038e-32
    outer loop
      vertex -1.33488 -2 6.96985
      vertex -2.85788 -2 4.35
      vertex -1.56924 -2 6.50988
    endloop
  endfacet
  facet normal 2.22045e-16 -1 4.93038e-32
    outer loop
      vertex -0.509878 -2 4.43076
      vertex -0.969846 -2 4.66512
      vertex -2.85788 -2 4.35
    endloop
  endfacet
  facet normal 2.22045e-16 -1 4.93038e-32
    outer loop
      vertex -7.32747e-16 -2 9.3
      vertex -2.85788 -2 4.35
      vertex -1.33488 -2 6.96985
    endloop
  endfacet
  facet normal 2.22045e-16 -1 4.93038e-32
    outer loop
      vertex 0.969846 -2 7.33488
      vertex 1.33488 -2 6.96985
      vertex 2.85788 -2 7.65
    endloop
  endfacet
  facet normal 2.22045e-16 -1 4.93038e-32
    outer loop
      vertex 0.509878 -2 7.56924
      vertex 0.969846 -2 7.33488
      vertex 2.85788 -2 7.65
    endloop
  endfacet
  facet normal 2.22045e-16 -1 4.93038e-32
    outer loop
      vertex -7.32747e-16 -2 9.3
      vertex -0.969846 -2 7.33488
      vertex -0.509878 -2 7.56924
    endloop
  endfacet
  facet normal 2.22045e-16 -1 4.93038e-32
    outer loop
      vertex -7.32747e-16 -2 9.3
      vertex 0 -2 7.65
      vertex 2.85788 -2 7.65
    endloop
  endfacet
  facet normal 2.22045e-16 -1 4.93038e-32
    outer loop
      vertex -7.32747e-16 -2 9.3
      vertex -0.509878 -2 7.56924
      vertex 0 -2 7.65
    endloop
  endfacet
  facet normal 2.22045e-16 -1 4.93038e-32
    outer loop
      vertex 2.85788 -2 7.65
      vertex 1.56924 -2 6.50988
      vertex 2.85788 -2 4.35
    endloop
  endfacet
  facet normal 2.22045e-16 -1 4.93038e-32
    outer loop
      vertex 1.56924 -2 6.50988
      vertex 1.65 -2 6
      vertex 2.85788 -2 4.35
    endloop
  endfacet
  facet normal 2.22045e-16 -1 4.93038e-32
    outer loop
      vertex 1.65 -2 6
      vertex 1.56924 -2 5.49012
      vertex 2.85788 -2 4.35
    endloop
  endfacet
  facet normal 2.22045e-16 -1 4.93038e-32
    outer loop
      vertex 1.56924 -2 5.49012
      vertex 1.33488 -2 5.03015
      vertex 2.85788 -2 4.35
    endloop
  endfacet
  facet normal 2.22045e-16 -1 4.93038e-32
    outer loop
      vertex 1.33488 -2 5.03015
      vertex 0.969846 -2 4.66512
      vertex 2.85788 -2 4.35
    endloop
  endfacet
  facet normal 2.22045e-16 -1 4.93038e-32
    outer loop
      vertex 0.969846 -2 4.66512
      vertex 0.509878 -2 4.43076
      vertex 2.85788 -2 4.35
    endloop
  endfacet
  facet normal 2.22045e-16 -1 4.93038e-32
    outer loop
      vertex 0.509878 -2 4.43076
      vertex 0 -2 4.35
      vertex 2.85788 -2 4.35
    endloop
  endfacet
  facet normal 2.22045e-16 -1 4.93038e-32
    outer loop
      vertex -0.969846 -2 4.66512
      vertex -1.33488 -2 5.03015
      vertex -2.85788 -2 4.35
    endloop
  endfacet
  facet normal 2.22045e-16 -1 4.93038e-32
    outer loop
      vertex -1.33488 -2 5.03015
      vertex -1.56924 -2 5.49012
      vertex -2.85788 -2 4.35
    endloop
  endfacet
  facet normal 2.22045e-16 -1 4.93038e-32
    outer loop
      vertex -1.65 -2 6
      vertex -2.85788 -2 4.35
      vertex -1.56924 -2 5.49012
    endloop
  endfacet
  facet normal 2.22045e-16 -1 4.93038e-32
    outer loop
      vertex -1.33488 -2 6.96985
      vertex -0.969846 -2 7.33488
      vertex -7.32747e-16 -2 9.3
    endloop
  endfacet
  facet normal 0 0 1
    outer loop
      vertex -8 -3.3 14.5
      vertex -5.14212 -1.65 14.5
      vertex -5.14212 1.65 14.5
    endloop
  endfacet
  facet normal 0 0 1
    outer loop
      vertex -6.66512 -0.969846 14.5
      vertex -7.03015 -1.33488 14.5
      vertex -8 -3.3 14.5
    endloop
  endfacet
  facet normal 0 0 1
    outer loop
      vertex -6.66512 -0.969846 14.5
      vertex -8 -3.3 14.5
      vertex -5.14212 1.65 14.5
    endloop
  endfacet
  facet normal 0 0 1
    outer loop
      vertex -10.8579 -1.65 14.5
      vertex -8 -3.3 14.5
      vertex -10.8579 1.65 14.5
    endloop
  endfacet
  facet normal 0 0 1
    outer loop
      vertex -8 1.65 14.5
      vertex -7.49012 1.56924 14.5
      vertex -8 3.3 14.5
    endloop
  endfacet
  facet normal 0 0 1
    outer loop
      vertex -10.8579 1.65 14.5
      vertex -9.65 0 14.5
      vertex -9.56924 0.509878 14.5
    endloop
  endfacet
  facet normal 0 0 1
    outer loop
      vertex -10.8579 1.65 14.5
      vertex -9.33488 0.969846 14.5
      vertex -8 3.3 14.5
    endloop
  endfacet
  facet normal 0 0 1
    outer loop
      vertex -10.8579 1.65 14.5
      vertex -9.56924 0.509878 14.5
      vertex -9.33488 0.969846 14.5
    endloop
  endfacet
  facet normal 0 0 1
    outer loop
      vertex -8.96985 1.33488 14.5
      vertex -8.50988 1.56924 14.5
      vertex -8 3.3 14.5
    endloop
  endfacet
  facet normal 0 0 1
    outer loop
      vertex -8.96985 -1.33488 14.5
      vertex -9.33488 -0.969846 14.5
      vertex -8 -3.3 14.5
    endloop
  endfacet
  facet normal 0 0 1
    outer loop
      vertex -8.50988 1.56924 14.5
      vertex -8 1.65 14.5
      vertex -8 3.3 14.5
    endloop
  endfacet
  facet normal 0 0 1
    outer loop
      vertex -8 3.3 14.5
      vertex -7.49012 1.56924 14.5
      vertex -5.14212 1.65 14.5
    endloop
  endfacet
  facet normal 0 0 1
    outer loop
      vertex -7.49012 1.56924 14.5
      vertex -7.03015 1.33488 14.5
      vertex -5.14212 1.65 14.5
    endloop
  endfacet
  facet normal 0 0 1
    outer loop
      vertex -7.03015 1.33488 14.5
      vertex -6.66512 0.969846 14.5
      vertex -5.14212 1.65 14.5
    endloop
  endfacet
  facet normal 0 0 1
    outer loop
      vertex -6.66512 0.969846 14.5
      vertex -6.43076 0.509878 14.5
      vertex -5.14212 1.65 14.5
    endloop
  endfacet
  facet normal 0 0 1
    outer loop
      vertex -6.43076 0.509878 14.5
      vertex -6.35 0 14.5
      vertex -5.14212 1.65 14.5
    endloop
  endfacet
  facet normal 0 0 1
    outer loop
      vertex -6.35 0 14.5
      vertex -6.43076 -0.509878 14.5
      vertex -5.14212 1.65 14.5
    endloop
  endfacet
  facet normal 0 0 1
    outer loop
      vertex -6.43076 -0.509878 14.5
      vertex -6.66512 -0.969846 14.5
      vertex -5.14212 1.65 14.5
    endloop
  endfacet
  facet normal 0 0 1
    outer loop
      vertex -7.03015 -1.33488 14.5
      vertex -7.49012 -1.56924 14.5
      vertex -8 -3.3 14.5
    endloop
  endfacet
  facet normal 0 0 1
    outer loop
      vertex -7.49012 -1.56924 14.5
      vertex -8 -1.65 14.5
      vertex -8 -3.3 14.5
    endloop
  endfacet
  facet normal 0 0 1
    outer loop
      vertex -8.96985 -1.33488 14.5
      vertex -8 -3.3 14.5
      vertex -8.50988 -1.56924 14.5
    endloop
  endfacet
  facet normal 0 0 1
    outer loop
      vertex -10.8579 1.65 14.5
      vertex -8 -3.3 14.5
      vertex -9.33488 -0.969846 14.5
    endloop
  endfacet
  facet normal 0 0 1
    outer loop
      vertex -10.8579 1.65 14.5
      vertex -9.56924 -0.509878 14.5
      vertex -9.65 0 14.5
    endloop
  endfacet
  facet normal 0 0 1
    outer loop
      vertex -10.8579 1.65 14.5
      vertex -9.33488 -0.969846 14.5
      vertex -9.56924 -0.509878 14.5
    endloop
  endfacet
  facet normal 0 0 1
    outer loop
      vertex -9.33488 0.969846 14.5
      vertex -8.96985 1.33488 14.5
      vertex -8 3.3 14.5
    endloop
  endfacet
  facet normal 0 0 1
    outer loop
      vertex -8 -1.65 14.5
      vertex -8.50988 -1.56924 14.5
      vertex -8 -3.3 14.5
    endloop
  endfacet
  facet normal 0 0 1
    outer loop
      vertex 8 -3.3 14.5
      vertex 10.8579 -1.65 14.5
      vertex 10.8579 1.65 14.5
    endloop
  endfacet
  facet normal 0 0 1
    outer loop
      vertex 9.33488 -0.969846 14.5
      vertex 8.96985 -1.33488 14.5
      vertex 8 -3.3 14.5
    endloop
  endfacet
  facet normal 0 0 1
    outer loop
      vertex 9.33488 -0.969846 14.5
      vertex 8 -3.3 14.5
      vertex 10.8579 1.65 14.5
    endloop
  endfacet
  facet normal 0 0 1
    outer loop
      vertex 5.14212 -1.65 14.5
      vertex 8 -3.3 14.5
      vertex 5.14212 1.65 14.5
    endloop
  endfacet
  facet normal 0 0 1
    outer loop
      vertex 8 1.65 14.5
      vertex 8.50988 1.56924 14.5
      vertex 8 3.3 14.5
    endloop
  endfacet
  facet normal 0 0 1
    outer loop
      vertex 5.14212 1.65 14.5
      vertex 6.35 0 14.5
      vertex 6.43076 0.509878 14.5
    endloop
  endfacet
  facet normal 0 0 1
    outer loop
      vertex 5.14212 1.65 14.5
      vertex 6.66512 0.969846 14.5
      vertex 8 3.3 14.5
    endloop
  endfacet
  facet normal 0 0 1
    outer loop
      vertex 5.14212 1.65 14.5
      vertex 6.43076 0.509878 14.5
      vertex 6.66512 0.969846 14.5
    endloop
  endfacet
  facet normal 0 0 1
    outer loop
      vertex 7.03015 1.33488 14.5
      vertex 7.49012 1.56924 14.5
      vertex 8 3.3 14.5
    endloop
  endfacet
  facet normal 0 0 1
    outer loop
      vertex 7.03015 -1.33488 14.5
      vertex 6.66512 -0.969846 14.5
      vertex 8 -3.3 14.5
    endloop
  endfacet
  facet normal 0 0 1
    outer loop
      vertex 7.49012 1.56924 14.5
      vertex 8 1.65 14.5
      vertex 8 3.3 14.5
    endloop
  endfacet
  facet normal 0 0 1
    outer loop
      vertex 8 3.3 14.5
      vertex 8.50988 1.56924 14.5
      vertex 10.8579 1.65 14.5
    endloop
  endfacet
  facet normal 0 0 1
    outer loop
      vertex 8.50988 1.56924 14.5
      vertex 8.96985 1.33488 14.5
      vertex 10.8579 1.65 14.5
    endloop
  endfacet
  facet normal 0 0 1
    outer loop
      vertex 8.96985 1.33488 14.5
      vertex 9.33488 0.969846 14.5
      vertex 10.8579 1.65 14.5
    endloop
  endfacet
  facet normal 0 0 1
    outer loop
      vertex 9.33488 0.969846 14.5
      vertex 9.56924 0.509878 14.5
      vertex 10.8579 1.65 14.5
    endloop
  endfacet
  facet normal 0 0 1
    outer loop
      vertex 9.56924 0.509878 14.5
      vertex 9.65 0 14.5
      vertex 10.8579 1.65 14.5
    endloop
  endfacet
  facet normal 0 0 1
    outer loop
      vertex 9.65 0 14.5
      vertex 9.56924 -0.509878 14.5
      vertex 10.8579 1.65 14.5
    endloop
  endfacet
  facet normal 0 0 1
    outer loop
      vertex 9.56924 -0.509878 14.5
      vertex 9.33488 -0.969846 14.5
      vertex 10.8579 1.65 14.5
    endloop
  endfacet
  facet normal 0 0 1
    outer loop
      vertex 8.96985 -1.33488 14.5
      vertex 8.50988 -1.56924 14.5
      vertex 8 -3.3 14.5
    endloop
  endfacet
  facet normal 0 0 1
    outer loop
      vertex 8.50988 -1.56924 14.5
      vertex 8 -1.65 14.5
      vertex 8 -3.3 14.5
    endloop
  endfacet
  facet normal 0 0 1
    outer loop
      vertex 7.03015 -1.33488 14.5
      vertex 8 -3.3 14.5
      vertex 7.49012 -1.56924 14.5
    endloop
  endfacet
  facet normal 0 0 1
    outer loop
      vertex 5.14212 1.65 14.5
      vertex 8 -3.3 14.5
      vertex 6.66512 -0.969846 14.5
    endloop
  endfacet
  facet normal 0 0 1
    outer loop
      vertex 5.14212 1.65 14.5
      vertex 6.43076 -0.509878 14.5
      vertex 6.35 0 14.5
    endloop
  endfacet
  facet normal 0 0 1
    outer loop
      vertex 5.14212 1.65 14.5
      vertex 6.66512 -0.969846 14.5
      vertex 6.43076 -0.509878 14.5
    endloop
  endfacet
  facet normal 0 0 1
    outer loop
      vertex 6.66512 0.969846 14.5
      vertex 7.03015 1.33488 14.5
      vertex 8 3.3 14.5
    endloop
  endfacet
  facet normal 0 0 1
    outer loop
      vertex 8 -1.65 14.5
      vertex 7.49012 -1.56924 14.5
      vertex 8 -3.3 14.5
    endloop
  endfacet
  facet normal -1 0 0
    outer loop
      vertex -12 -5 -5
      vertex -12 -5 -3
      vertex -12 5 -5
    endloop
  endfacet
  facet normal -1 0 0
    outer loop
      vertex -12 5 -5
      vertex -12 -5 -3
      vertex -12 5 -3
    endloop
  endfacet
  facet normal 0 -1 0
    outer loop
      vertex -12 -5 -3
      vertex -12 -5 -5
      vertex 12 -5 -5
    endloop
  endfacet
  facet normal 0 -1 0
    outer loop
      vertex 12 -5 -3
      vertex -12 -5 -3
      vertex 12 -5 -5
    endloop
  endfacet
  facet normal 0 0 -1
    outer loop
      vertex -7.03015 1.33488 -5
      vertex -12 5 -5
      vertex 12 -5 -5
    endloop
  endfacet
  facet normal 0 0 -1
    outer loop
      vertex 8 1.65 -5
      vertex -12 5 -5
      vertex 12 5 -5
    endloop
  endfacet
  facet normal 0 0 -1
    outer loop
      vertex -12 -5 -5
      vertex -12 5 -5
      vertex -9.65 0 -5
    endloop
  endfacet
  facet normal 0 0 -1
    outer loop
      vertex -12 -5 -5
      vertex -9.65 0 -5
      vertex -9.56924 -0.509878 -5
    endloop
  endfacet
  facet normal 0 0 -1
    outer loop
      vertex -12 -5 -5
      vertex -9.56924 -0.509878 -5
      vertex -9.33488 -0.969846 -5
    endloop
  endfacet
  facet normal 0 0 -1
    outer loop
      vertex -12 -5 -5
      vertex -9.33488 -0.969846 -5
      vertex -8.96985 -1.33488 -5
    endloop
  endfacet
  facet normal 0 0 -1
    outer loop
      vertex -12 -5 -5
      vertex -8.96985 -1.33488 -5
      vertex -8.50988 -1.56924 -5
    endloop
  endfacet
  facet normal 0 0 -1
    outer loop
      vertex -12 -5 -5
      vertex -8.50988 -1.56924 -5
      vertex 12 -5 -5
    endloop
  endfacet
  facet normal 0 0 -1
    outer loop
      vertex -8.50988 -1.56924 -5
      vertex -8 -1.65 -5
      vertex 12 -5 -5
    endloop
  endfacet
  facet normal 0 0 -1
    outer loop
      vertex -7.03015 -1.33488 -5
      vertex 12 -5 -5
      vertex -7.49012 -1.56924 -5
    endloop
  endfacet
  facet normal 0 0 -1
    outer loop
      vertex -6.66512 -0.969846 -5
      vertex 12 -5 -5
      vertex -7.03015 -1.33488 -5
    endloop
  endfacet
  facet normal 0 0 -1
    outer loop
      vertex -6.43076 -0.509878 -5
      vertex 12 -5 -5
      vertex -6.66512 -0.969846 -5
    endloop
  endfacet
  facet normal 0 0 -1
    outer loop
      vertex 7.49012 -1.56924 -5
      vertex 12 -5 -5
      vertex 7.03015 -1.33488 -5
    endloop
  endfacet
  facet normal 0 0 -1
    outer loop
      vertex -7.49012 1.56924 -5
      vertex -12 5 -5
      vertex -7.03015 1.33488 -5
    endloop
  endfacet
  facet normal 0 0 -1
    outer loop
      vertex -8.96985 1.33488 -5
      vertex -12 5 -5
      vertex -8.50988 1.56924 -5
    endloop
  endfacet
  facet normal 0 0 -1
    outer loop
      vertex -6.43076 -0.509878 -5
      vertex -6.35 0 -5
      vertex 12 -5 -5
    endloop
  endfacet
  facet normal 0 0 -1
    outer loop
      vertex -8.50988 1.56924 -5
      vertex -12 5 -5
      vertex -8 1.65 -5
    endloop
  endfacet
  facet normal 0 0 -1
    outer loop
      vertex -6.35 0 -5
      vertex -6.43076 0.509878 -5
      vertex 12 -5 -5
    endloop
  endfacet
  facet normal 0 0 -1
    outer loop
      vertex -8 1.65 -5
      vertex -12 5 -5
      vertex -7.49012 1.56924 -5
    endloop
  endfacet
  facet normal 0 0 -1
    outer loop
      vertex -6.43076 0.509878 -5
      vertex -6.66512 0.969846 -5
      vertex 12 -5 -5
    endloop
  endfacet
  facet normal 0 0 -1
    outer loop
      vertex -6.66512 0.969846 -5
      vertex -7.03015 1.33488 -5
      vertex 12 -5 -5
    endloop
  endfacet
  facet normal 0 0 -1
    outer loop
      vertex -9.33488 0.969846 -5
      vertex -12 5 -5
      vertex -8.96985 1.33488 -5
    endloop
  endfacet
  facet normal 0 0 -1
    outer loop
      vertex -9.56924 0.509878 -5
      vertex -12 5 -5
      vertex -9.33488 0.969846 -5
    endloop
  endfacet
  facet normal 0 0 -1
    outer loop
      vertex -9.65 0 -5
      vertex -12 5 -5
      vertex -9.56924 0.509878 -5
    endloop
  endfacet
  facet normal 0 0 -1
    outer loop
      vertex 6.43076 -0.509878 -5
      vertex -12 5 -5
      vertex 6.35 0 -5
    endloop
  endfacet
  facet normal 0 0 -1
    outer loop
      vertex 6.66512 -0.969846 -5
      vertex -12 5 -5
      vertex 6.43076 -0.509878 -5
    endloop
  endfacet
  facet normal 0 0 -1
    outer loop
      vertex 7.03015 -1.33488 -5
      vertex -12 5 -5
      vertex 6.66512 -0.969846 -5
    endloop
  endfacet
  facet normal 0 0 -1
    outer loop
      vertex 12 -5 -5
      vertex -12 5 -5
      vertex 7.03015 -1.33488 -5
    endloop
  endfacet
  facet normal 0 0 -1
    outer loop
      vertex 8 -1.65 -5
      vertex 12 -5 -5
      vertex 7.49012 -1.56924 -5
    endloop
  endfacet
  facet normal 0 0 -1
    outer loop
      vertex 8.50988 -1.56924 -5
      vertex 12 -5 -5
      vertex 8 -1.65 -5
    endloop
  endfacet
  facet normal 0 0 -1
    outer loop
      vertex 9.65 0 -5
      vertex 12 5 -5
      vertex 9.56924 -0.509878 -5
    endloop
  endfacet
  facet normal 0 0 -1
    outer loop
      vertex 12 -5 -5
      vertex 8.50988 -1.56924 -5
      vertex 8.96985 -1.33488 -5
    endloop
  endfacet
  facet normal 0 0 -1
    outer loop
      vertex 12 -5 -5
      vertex 8.96985 -1.33488 -5
      vertex 9.33488 -0.969846 -5
    endloop
  endfacet
  facet normal 0 0 -1
    outer loop
      vertex 12 -5 -5
      vertex 9.33488 -0.969846 -5
      vertex 9.56924 -0.509878 -5
    endloop
  endfacet
  facet normal 0 0 -1
    outer loop
      vertex 12 -5 -5
      vertex 9.56924 -0.509878 -5
      vertex 12 5 -5
    endloop
  endfacet
  facet normal 0 0 -1
    outer loop
      vertex 9.56924 0.509878 -5
      vertex 12 5 -5
      vertex 9.65 0 -5
    endloop
  endfacet
  facet normal 0 0 -1
    outer loop
      vertex 8 1.65 -5
      vertex 12 5 -5
      vertex 8.50988 1.56924 -5
    endloop
  endfacet
  facet normal 0 0 -1
    outer loop
      vertex 9.56924 0.509878 -5
      vertex 9.33488 0.969846 -5
      vertex 12 5 -5
    endloop
  endfacet
  facet normal 0 0 -1
    outer loop
      vertex 9.33488 0.969846 -5
      vertex 8.96985 1.33488 -5
      vertex 12 5 -5
    endloop
  endfacet
  facet normal 0 0 -1
    outer loop
      vertex 8.96985 1.33488 -5
      vertex 8.50988 1.56924 -5
      vertex 12 5 -5
    endloop
  endfacet
  facet normal 0 0 -1
    outer loop
      vertex 7.49012 1.56924 -5
      vertex -12 5 -5
      vertex 8 1.65 -5
    endloop
  endfacet
  facet normal 0 0 -1
    outer loop
      vertex 7.03015 1.33488 -5
      vertex -12 5 -5
      vertex 7.49012 1.56924 -5
    endloop
  endfacet
  facet normal 0 0 -1
    outer loop
      vertex 6.66512 0.969846 -5
      vertex -12 5 -5
      vertex 7.03015 1.33488 -5
    endloop
  endfacet
  facet normal 0 0 -1
    outer loop
      vertex 6.43076 0.509878 -5
      vertex -12 5 -5
      vertex 6.66512 0.969846 -5
    endloop
  endfacet
  facet normal 0 0 -1
    outer loop
      vertex 6.35 0 -5
      vertex -12 5 -5
      vertex 6.43076 0.509878 -5
    endloop
  endfacet
  facet normal 0 0 -1
    outer loop
      vertex -7.49012 -1.56924 -5
      vertex 12 -5 -5
      vertex -8 -1.65 -5
    endloop
  endfacet
  facet normal 0 1 0
    outer loop
      vertex -12 5 -5
      vertex -12 5 -3
      vertex 12 5 -5
    endloop
  endfacet
  facet normal 0 1 0
    outer loop
      vertex 12 5 -5
      vertex -12 5 -3
      vertex 12 5 -3
    endloop
  endfacet
  facet normal 0 0 1
    outer loop
      vertex -7.03015 -1.33488 -3
      vertex -12 -5 -3
      vertex 12 -5 -3
    endloop
  endfacet
  facet normal 0 0 1
    outer loop
      vertex 7.49012 -1.56924 -3
      vertex -12 5 -3
      vertex 12 -5 -3
    endloop
  endfacet
  facet normal 0 0 1
    outer loop
      vertex 7.03015 1.33488 -3
      vertex 7.49012 1.56924 -3
      vertex 12 5 -3
    endloop
  endfacet
  facet normal 0 0 1
    outer loop
      vertex -12 5 -3
      vertex -12 -5 -3
      vertex -9.56924 -0.509878 -3
    endloop
  endfacet
  facet normal 0 0 1
    outer loop
      vertex -6.66512 -0.969846 -3
      vertex -7.03015 -1.33488 -3
      vertex 12 -5 -3
    endloop
  endfacet
  facet normal 0 0 1
    outer loop
      vertex -12 5 -3
      vertex -9.56924 -0.509878 -3
      vertex -9.65 0 -3
    endloop
  endfacet
  facet normal 0 0 1
    outer loop
      vertex -6.43076 -0.509878 -3
      vertex -6.66512 -0.969846 -3
      vertex 12 -5 -3
    endloop
  endfacet
  facet normal 0 0 1
    outer loop
      vertex -12 5 -3
      vertex -9.65 0 -3
      vertex -9.56924 0.509878 -3
    endloop
  endfacet
  facet normal 0 0 1
    outer loop
      vertex -6.35 0 -3
      vertex -6.43076 -0.509878 -3
      vertex 12 -5 -3
    endloop
  endfacet
  facet normal 0 0 1
    outer loop
      vertex -12 5 -3
      vertex -9.56924 0.509878 -3
      vertex -9.33488 0.969846 -3
    endloop
  endfacet
  facet normal 0 0 1
    outer loop
      vertex -6.43076 0.509878 -3
      vertex -6.35 0 -3
      vertex 12 -5 -3
    endloop
  endfacet
  facet normal 0 0 1
    outer loop
      vertex -12 5 -3
      vertex -9.33488 0.969846 -3
      vertex -8.96985 1.33488 -3
    endloop
  endfacet
  facet normal 0 0 1
    outer loop
      vertex -6.66512 0.969846 -3
      vertex -6.43076 0.509878 -3
      vertex 12 -5 -3
    endloop
  endfacet
  facet normal 0 0 1
    outer loop
      vertex -12 5 -3
      vertex -8.96985 1.33488 -3
      vertex -8.50988 1.56924 -3
    endloop
  endfacet
  facet normal 0 0 1
    outer loop
      vertex -12 5 -3
      vertex -8.50988 1.56924 -3
      vertex -8 1.65 -3
    endloop
  endfacet
  facet normal 0 0 1
    outer loop
      vertex -12 5 -3
      vertex -7.49012 1.56924 -3
      vertex 12 -5 -3
    endloop
  endfacet
  facet normal 0 0 1
    outer loop
      vertex -12 5 -3
      vertex -8 1.65 -3
      vertex -7.49012 1.56924 -3
    endloop
  endfacet
  facet normal 0 0 1
    outer loop
      vertex -7.49012 1.56924 -3
      vertex -7.03015 1.33488 -3
      vertex 12 -5 -3
    endloop
  endfacet
  facet normal 0 0 1
    outer loop
      vertex -7.49012 -1.56924 -3
      vertex -12 -5 -3
      vertex -7.03015 -1.33488 -3
    endloop
  endfacet
  facet normal 0 0 1
    outer loop
      vertex -8 -1.65 -3
      vertex -12 -5 -3
      vertex -7.49012 -1.56924 -3
    endloop
  endfacet
  facet normal 0 0 1
    outer loop
      vertex -8.50988 -1.56924 -3
      vertex -12 -5 -3
      vertex -8 -1.65 -3
    endloop
  endfacet
  facet normal 0 0 1
    outer loop
      vertex -8.96985 -1.33488 -3
      vertex -12 -5 -3
      vertex -8.50988 -1.56924 -3
    endloop
  endfacet
  facet normal 0 0 1
    outer loop
      vertex -9.33488 -0.969846 -3
      vertex -12 -5 -3
      vertex -8.96985 -1.33488 -3
    endloop
  endfacet
  facet normal 0 0 1
    outer loop
      vertex -9.56924 -0.509878 -3
      vertex -12 -5 -3
      vertex -9.33488 -0.969846 -3
    endloop
  endfacet
  facet normal 0 0 1
    outer loop
      vertex 6.35 0 -3
      vertex -12 5 -3
      vertex 6.43076 -0.509878 -3
    endloop
  endfacet
  facet normal 0 0 1
    outer loop
      vertex 6.43076 0.509878 -3
      vertex -12 5 -3
      vertex 6.35 0 -3
    endloop
  endfacet
  facet normal 0 0 1
    outer loop
      vertex 6.66512 0.969846 -3
      vertex -12 5 -3
      vertex 6.43076 0.509878 -3
    endloop
  endfacet
  facet normal 0 0 1
    outer loop
      vertex 7.03015 1.33488 -3
      vertex -12 5 -3
      vertex 6.66512 0.969846 -3
    endloop
  endfacet
  facet normal 0 0 1
    outer loop
      vertex 7.49012 1.56924 -3
      vertex 8 1.65 -3
      vertex 12 5 -3
    endloop
  endfacet
  facet normal 0 0 1
    outer loop
      vertex 12 5 -3
      vertex -12 5 -3
      vertex 7.03015 1.33488 -3
    endloop
  endfacet
  facet normal 0 0 1
    outer loop
      vertex 8 1.65 -3
      vertex 8.50988 1.56924 -3
      vertex 12 5 -3
    endloop
  endfacet
  facet normal 0 0 1
    outer loop
      vertex 8.50988 1.56924 -3
      vertex 8.96985 1.33488 -3
      vertex 12 5 -3
    endloop
  endfacet
  facet normal 0 0 1
    outer loop
      vertex 9.56924 0.509878 -3
      vertex 9.65 0 -3
      vertex 12 -5 -3
    endloop
  endfacet
  facet normal 0 0 1
    outer loop
      vertex 8 -1.65 -3
      vertex 7.49012 -1.56924 -3
      vertex 12 -5 -3
    endloop
  endfacet
  facet normal 0 0 1
    outer loop
      vertex 9.65 0 -3
      vertex 9.56924 -0.509878 -3
      vertex 12 -5 -3
    endloop
  endfacet
  facet normal 0 0 1
    outer loop
      vertex 12 5 -3
      vertex 8.96985 1.33488 -3
      vertex 9.33488 0.969846 -3
    endloop
  endfacet
  facet normal 0 0 1
    outer loop
      vertex 12 5 -3
      vertex 9.56924 0.509878 -3
      vertex 12 -5 -3
    endloop
  endfacet
  facet normal 0 0 1
    outer loop
      vertex 12 5 -3
      vertex 9.33488 0.969846 -3
      vertex 9.56924 0.509878 -3
    endloop
  endfacet
  facet normal 0 0 1
    outer loop
      vertex 9.56924 -0.509878 -3
      vertex 9.33488 -0.969846 -3
      vertex 12 -5 -3
    endloop
  endfacet
  facet normal 0 0 1
    outer loop
      vertex 9.33488 -0.969846 -3
      vertex 8.96985 -1.33488 -3
      vertex 12 -5 -3
    endloop
  endfacet
  facet normal 0 0 1
    outer loop
      vertex 8.96985 -1.33488 -3
      vertex 8.50988 -1.56924 -3
      vertex 12 -5 -3
    endloop
  endfacet
  facet normal 0 0 1
    outer loop
      vertex 8.50988 -1.56924 -3
      vertex 8 -1.65 -3
      vertex 12 -5 -3
    endloop
  endfacet
  facet normal 0 0 1
    outer loop
      vertex 7.03015 -1.33488 -3
      vertex -12 5 -3
      vertex 7.49012 -1.56924 -3
    endloop
  endfacet
  facet normal 0 0 1
    outer loop
      vertex 6.66512 -0.969846 -3
      vertex -12 5 -3
      vertex 7.03015 -1.33488 -3
    endloop
  endfacet
  facet normal 0 0 1
    outer loop
      vertex 6.43076 -0.509878 -3
      vertex -12 5 -3
      vertex 6.66512 -0.969846 -3
    endloop
  endfacet
  facet normal 0 0 1
    outer loop
      vertex -7.03015 1.33488 -3
      vertex -6.66512 0.969846 -3
      vertex 12 -5 -3
    endloop
  endfacet
  facet normal 1 0 0
    outer loop
      vertex 12 -5 -3
      vertex 12 -5 -5
      vertex 12 5 -5
    endloop
  endfacet
  facet normal 1 0 0
    outer loop
      vertex 12 5 -3
      vertex 12 -5 -3
      vertex 12 5 -5
    endloop
  endfacet
  facet normal 0.987688 -0.156435 0
    outer loop
      vertex -9.56924 0.509878 -5
      vertex -9.56924 0.509878 -3
      vertex -9.65 0 -3
    endloop
  endfacet
  facet normal 0.987688 -0.156435 0
    outer loop
      vertex -9.65 0 -5
      vertex -9.56924 0.509878 -5
      vertex -9.65 0 -3
    endloop
  endfacet
  facet normal 0.987688 0.156435 0
    outer loop
      vertex -9.65 0 -3
      vertex -9.56924 -0.509878 -3
      vertex -9.56924 -0.509878 -5
    endloop
  endfacet
  facet normal 0.987688 0.156435 0
    outer loop
      vertex -9.65 0 -5
      vertex -9.65 0 -3
      vertex -9.56924 -0.509878 -5
    endloop
  endfacet
  facet normal 0.891007 -0.45399 0
    outer loop
      vertex -9.33488 0.969846 -5
      vertex -9.33488 0.969846 -3
      vertex -9.56924 0.509878 -3
    endloop
  endfacet
  facet normal 0.891007 -0.45399 0
    outer loop
      vertex -9.56924 0.509878 -5
      vertex -9.33488 0.969846 -5
      vertex -9.56924 0.509878 -3
    endloop
  endfacet
  facet normal 0.707107 -0.707107 0
    outer loop
      vertex -8.96985 1.33488 -5
      vertex -8.96985 1.33488 -3
      vertex -9.33488 0.969846 -3
    endloop
  endfacet
  facet normal 0.707107 -0.707107 0
    outer loop
      vertex -9.33488 0.969846 -5
      vertex -8.96985 1.33488 -5
      vertex -9.33488 0.969846 -3
    endloop
  endfacet
  facet normal 0.45399 -0.891007 0
    outer loop
      vertex -8.50988 1.56924 -5
      vertex -8.50988 1.56924 -3
      vertex -8.96985 1.33488 -3
    endloop
  endfacet
  facet normal 0.45399 -0.891007 0
    outer loop
      vertex -8.96985 1.33488 -5
      vertex -8.50988 1.56924 -5
      vertex -8.96985 1.33488 -3
    endloop
  endfacet
  facet normal 0.156435 -0.987688 0
    outer loop
      vertex -8 1.65 -5
      vertex -8 1.65 -3
      vertex -8.50988 1.56924 -3
    endloop
  endfacet
  facet normal 0.156435 -0.987688 0
    outer loop
      vertex -8.50988 1.56924 -5
      vertex -8 1.65 -5
      vertex -8.50988 1.56924 -3
    endloop
  endfacet
  facet normal -0.156435 -0.987688 0
    outer loop
      vertex -7.49012 1.56924 -5
      vertex -7.49012 1.56924 -3
      vertex -8 1.65 -3
    endloop
  endfacet
  facet normal -0.156435 -0.987688 0
    outer loop
      vertex -8 1.65 -5
      vertex -7.49012 1.56924 -5
      vertex -8 1.65 -3
    endloop
  endfacet
  facet normal -0.45399 -0.891007 0
    outer loop
      vertex -7.03015 1.33488 -5
      vertex -7.03015 1.33488 -3
      vertex -7.49012 1.56924 -3
    endloop
  endfacet
  facet normal -0.45399 -0.891007 0
    outer loop
      vertex -7.49012 1.56924 -5
      vertex -7.03015 1.33488 -5
      vertex -7.49012 1.56924 -3
    endloop
  endfacet
  facet normal -0.707107 -0.707107 0
    outer loop
      vertex -6.66512 0.969846 -5
      vertex -6.66512 0.969846 -3
      vertex -7.03015 1.33488 -3
    endloop
  endfacet
  facet normal -0.707107 -0.707107 0
    outer loop
      vertex -7.03015 1.33488 -5
      vertex -6.66512 0.969846 -5
      vertex -7.03015 1.33488 -3
    endloop
  endfacet
  facet normal -0.891007 -0.45399 0
    outer loop
      vertex -6.43076 0.509878 -3
      vertex -6.66512 0.969846 -3
      vertex -6.43076 0.509878 -5
    endloop
  endfacet
  facet normal -0.891007 -0.45399 0
    outer loop
      vertex -6.43076 0.509878 -5
      vertex -6.66512 0.969846 -3
      vertex -6.66512 0.969846 -5
    endloop
  endfacet
  facet normal -0.987688 -0.156435 0
    outer loop
      vertex -6.35 0 -3
      vertex -6.43076 0.509878 -3
      vertex -6.35 0 -5
    endloop
  endfacet
  facet normal -0.987688 -0.156435 0
    outer loop
      vertex -6.35 0 -5
      vertex -6.43076 0.509878 -3
      vertex -6.43076 0.509878 -5
    endloop
  endfacet
  facet normal -0.987688 0.156435 0
    outer loop
      vertex -6.35 0 -3
      vertex -6.35 0 -5
      vertex -6.43076 -0.509878 -3
    endloop
  endfacet
  facet normal -0.987688 0.156435 0
    outer loop
      vertex -6.43076 -0.509878 -3
      vertex -6.35 0 -5
      vertex -6.43076 -0.509878 -5
    endloop
  endfacet
  facet normal -0.891007 0.45399 0
    outer loop
      vertex -6.43076 -0.509878 -3
      vertex -6.43076 -0.509878 -5
      vertex -6.66512 -0.969846 -3
    endloop
  endfacet
  facet normal -0.891007 0.45399 0
    outer loop
      vertex -6.66512 -0.969846 -3
      vertex -6.43076 -0.509878 -5
      vertex -6.66512 -0.969846 -5
    endloop
  endfacet
  facet normal -0.707107 0.707107 0
    outer loop
      vertex -6.66512 -0.969846 -3
      vertex -6.66512 -0.969846 -5
      vertex -7.03015 -1.33488 -3
    endloop
  endfacet
  facet normal -0.707107 0.707107 0
    outer loop
      vertex -7.03015 -1.33488 -3
      vertex -6.66512 -0.969846 -5
      vertex -7.03015 -1.33488 -5
    endloop
  endfacet
  facet normal -0.45399 0.891007 0
    outer loop
      vertex -7.03015 -1.33488 -3
      vertex -7.03015 -1.33488 -5
      vertex -7.49012 -1.56924 -3
    endloop
  endfacet
  facet normal -0.45399 0.891007 0
    outer loop
      vertex -7.49012 -1.56924 -3
      vertex -7.03015 -1.33488 -5
      vertex -7.49012 -1.56924 -5
    endloop
  endfacet
  facet normal -0.156435 0.987688 0
    outer loop
      vertex -7.49012 -1.56924 -3
      vertex -7.49012 -1.56924 -5
      vertex -8 -1.65 -3
    endloop
  endfacet
  facet normal -0.156435 0.987688 0
    outer loop
      vertex -8 -1.65 -3
      vertex -7.49012 -1.56924 -5
      vertex -8 -1.65 -5
    endloop
  endfacet
  facet normal 0.156435 0.987688 0
    outer loop
      vertex -8 -1.65 -3
      vertex -8 -1.65 -5
      vertex -8.50988 -1.56924 -3
    endloop
  endfacet
  facet normal 0.156435 0.987688 0
    outer loop
      vertex -8.50988 -1.56924 -3
      vertex -8 -1.65 -5
      vertex -8.50988 -1.56924 -5
    endloop
  endfacet
  facet normal 0.45399 0.891007 0
    outer loop
      vertex -8.50988 -1.56924 -3
      vertex -8.50988 -1.56924 -5
      vertex -8.96985 -1.33488 -3
    endloop
  endfacet
  facet normal 0.45399 0.891007 0
    outer loop
      vertex -8.96985 -1.33488 -3
      vertex -8.50988 -1.56924 -5
      vertex -8.96985 -1.33488 -5
    endloop
  endfacet
  facet normal 0.707107 0.707107 0
    outer loop
      vertex -8.96985 -1.33488 -3
      vertex -8.96985 -1.33488 -5
      vertex -9.33488 -0.969846 -3
    endloop
  endfacet
  facet normal 0.707107 0.707107 0
    outer loop
      vertex -9.33488 -0.969846 -3
      vertex -8.96985 -1.33488 -5
      vertex -9.33488 -0.969846 -5
    endloop
  endfacet
  facet normal 0.891007 0.45399 0
    outer loop
      vertex -9.56924 -0.509878 -3
      vertex -9.33488 -0.969846 -3
      vertex -9.33488 -0.969846 -5
    endloop
  endfacet
  facet normal 0.891007 0.45399 0
    outer loop
      vertex -9.56924 -0.509878 -5
      vertex -9.56924 -0.509878 -3
      vertex -9.33488 -0.969846 -5
    endloop
  endfacet
  facet normal 0.987688 -0.156435 0
    outer loop
      vertex 6.43076 0.509878 -5
      vertex 6.43076 0.509878 -3
      vertex 6.35 0 -3
    endloop
  endfacet
  facet normal 0.987688 -0.156435 0
    outer loop
      vertex 6.35 0 -5
      vertex 6.43076 0.509878 -5
      vertex 6.35 0 -3
    endloop
  endfacet
  facet normal 0.987688 0.156435 0
    outer loop
      vertex 6.35 0 -3
      vertex 6.43076 -0.509878 -3
      vertex 6.43076 -0.509878 -5
    endloop
  endfacet
  facet normal 0.987688 0.156435 0
    outer loop
      vertex 6.35 0 -5
      vertex 6.35 0 -3
      vertex 6.43076 -0.509878 -5
    endloop
  endfacet
  facet normal 0.891007 -0.45399 0
    outer loop
      vertex 6.66512 0.969846 -5
      vertex 6.66512 0.969846 -3
      vertex 6.43076 0.509878 -3
    endloop
  endfacet
  facet normal 0.891007 -0.45399 0
    outer loop
      vertex 6.43076 0.509878 -5
      vertex 6.66512 0.969846 -5
      vertex 6.43076 0.509878 -3
    endloop
  endfacet
  facet normal 0.707107 -0.707107 0
    outer loop
      vertex 7.03015 1.33488 -5
      vertex 7.03015 1.33488 -3
      vertex 6.66512 0.969846 -3
    endloop
  endfacet
  facet normal 0.707107 -0.707107 0
    outer loop
      vertex 6.66512 0.969846 -5
      vertex 7.03015 1.33488 -5
      vertex 6.66512 0.969846 -3
    endloop
  endfacet
  facet normal 0.45399 -0.891007 0
    outer loop
      vertex 7.49012 1.56924 -5
      vertex 7.49012 1.56924 -3
      vertex 7.03015 1.33488 -3
    endloop
  endfacet
  facet normal 0.45399 -0.891007 0
    outer loop
      vertex 7.03015 1.33488 -5
      vertex 7.49012 1.56924 -5
      vertex 7.03015 1.33488 -3
    endloop
  endfacet
  facet normal 0.156435 -0.987688 0
    outer loop
      vertex 8 1.65 -5
      vertex 8 1.65 -3
      vertex 7.49012 1.56924 -3
    endloop
  endfacet
  facet normal 0.156435 -0.987688 0
    outer loop
      vertex 7.49012 1.56924 -5
      vertex 8 1.65 -5
      vertex 7.49012 1.56924 -3
    endloop
  endfacet
  facet normal -0.156435 -0.987688 0
    outer loop
      vertex 8.50988 1.56924 -5
      vertex 8.50988 1.56924 -3
      vertex 8 1.65 -3
    endloop
  endfacet
  facet normal -0.156435 -0.987688 0
    outer loop
      vertex 8 1.65 -5
      vertex 8.50988 1.56924 -5
      vertex 8 1.65 -3
    endloop
  endfacet
  facet normal -0.45399 -0.891007 0
    outer loop
      vertex 8.96985 1.33488 -5
      vertex 8.96985 1.33488 -3
      vertex 8.50988 1.56924 -3
    endloop
  endfacet
  facet normal -0.45399 -0.891007 0
    outer loop
      vertex 8.50988 1.56924 -5
      vertex 8.96985 1.33488 -5
      vertex 8.50988 1.56924 -3
    endloop
  endfacet
  facet normal -0.707107 -0.707107 0
    outer loop
      vertex 9.33488 0.969846 -5
      vertex 9.33488 0.969846 -3
      vertex 8.96985 1.33488 -3
    endloop
  endfacet
  facet normal -0.707107 -0.707107 0
    outer loop
      vertex 8.96985 1.33488 -5
      vertex 9.33488 0.969846 -5
      vertex 8.96985 1.33488 -3
    endloop
  endfacet
  facet normal -0.891007 -0.45399 0
    outer loop
      vertex 9.56924 0.509878 -3
      vertex 9.33488 0.969846 -3
      vertex 9.56924 0.509878 -5
    endloop
  endfacet
  facet normal -0.891007 -0.45399 0
    outer loop
      vertex 9.56924 0.509878 -5
      vertex 9.33488 0.969846 -3
      vertex 9.33488 0.969846 -5
    endloop
  endfacet
  facet normal -0.987688 -0.156435 0
    outer loop
      vertex 9.65 0 -3
      vertex 9.56924 0.509878 -3
      vertex 9.65 0 -5
    endloop
  endfacet
  facet normal -0.987688 -0.156435 0
    outer loop
      vertex 9.65 0 -5
      vertex 9.56924 0.509878 -3
      vertex 9.56924 0.509878 -5
    endloop
  endfacet
  facet normal -0.987688 0.156435 0
    outer loop
      vertex 9.65 0 -3
      vertex 9.65 0 -5
      vertex 9.56924 -0.509878 -3
    endloop
  endfacet
  facet normal -0.987688 0.156435 0
    outer loop
      vertex 9.56924 -0.509878 -3
      vertex 9.65 0 -5
      vertex 9.56924 -0.509878 -5
    endloop
  endfacet
  facet normal -0.891007 0.45399 0
    outer loop
      vertex 9.56924 -0.509878 -3
      vertex 9.56924 -0.509878 -5
      vertex 9.33488 -0.969846 -3
    endloop
  endfacet
  facet normal -0.891007 0.45399 0
    outer loop
      vertex 9.33488 -0.969846 -3
      vertex 9.56924 -0.509878 -5
      vertex 9.33488 -0.969846 -5
    endloop
  endfacet
  facet normal -0.707107 0.707107 0
    outer loop
      vertex 9.33488 -0.969846 -3
      vertex 9.33488 -0.969846 -5
      vertex 8.96985 -1.33488 -3
    endloop
  endfacet
  facet normal -0.707107 0.707107 0
    outer loop
      vertex 8.96985 -1.33488 -3
      vertex 9.33488 -0.969846 -5
      vertex 8.96985 -1.33488 -5
    endloop
  endfacet
  facet normal -0.45399 0.891007 0
    outer loop
      vertex 8.96985 -1.33488 -3
      vertex 8.96985 -1.33488 -5
      vertex 8.50988 -1.56924 -3
    endloop
  endfacet
  facet normal -0.45399 0.891007 0
    outer loop
      vertex 8.50988 -1.56924 -3
      vertex 8.96985 -1.33488 -5
      vertex 8.50988 -1.56924 -5
    endloop
  endfacet
  facet normal -0.156435 0.987688 0
    outer loop
      vertex 8.50988 -1.56924 -3
      vertex 8.50988 -1.56924 -5
      vertex 8 -1.65 -3
    endloop
  endfacet
  facet normal -0.156435 0.987688 0
    outer loop
      vertex 8 -1.65 -3
      vertex 8.50988 -1.56924 -5
      vertex 8 -1.65 -5
    endloop
  endfacet
  facet normal 0.156435 0.987688 0
    outer loop
      vertex 8 -1.65 -3
      vertex 8 -1.65 -5
      vertex 7.49012 -1.56924 -3
    endloop
  endfacet
  facet normal 0.156435 0.987688 0
    outer loop
      vertex 7.49012 -1.56924 -3
      vertex 8 -1.65 -5
      vertex 7.49012 -1.56924 -5
    endloop
  endfacet
  facet normal 0.45399 0.891007 0
    outer loop
      vertex 7.49012 -1.56924 -3
      vertex 7.49012 -1.56924 -5
      vertex 7.03015 -1.33488 -3
    endloop
  endfacet
  facet normal 0.45399 0.891007 0
    outer loop
      vertex 7.03015 -1.33488 -3
      vertex 7.49012 -1.56924 -5
      vertex 7.03015 -1.33488 -5
    endloop
  endfacet
  facet normal 0.707107 0.707107 0
    outer loop
      vertex 7.03015 -1.33488 -3
      vertex 7.03015 -1.33488 -5
      vertex 6.66512 -0.969846 -3
    endloop
  endfacet
  facet normal 0.707107 0.707107 0
    outer loop
      vertex 6.66512 -0.969846 -3
      vertex 7.03015 -1.33488 -5
      vertex 6.66512 -0.969846 -5
    endloop
  endfacet
  facet normal 0.891007 0.45399 0
    outer loop
      vertex 6.43076 -0.509878 -3
      vertex 6.66512 -0.969846 -3
      vertex 6.66512 -0.969846 -5
    endloop
  endfacet
  facet normal 0.891007 0.45399 0
    outer loop
      vertex 6.43076 -0.509878 -5
      vertex 6.43076 -0.509878 -3
      vertex 6.66512 -0.969846 -5
    endloop
  endfacet
endsolid OpenSCAD_Model
