999
dxfrw 0.5.10
0
SECTION
2
HEADER
9
$ACADVER
1
AC1021
9
$HANDSEED
5
20000
9
$DWGCODEPAGE
3
ANSI_1252
9
$INSBASE
10
0
20
0
30
0
9
$EXTMIN
10
10000000000
20
10000000000
30
0
9
$EXTMAX
10
-10000000000
20
-10000000000
30
0
9
$LIMMIN
10
0
20
0
9
$LIMMAX
10
420
20
297
9
$ORTHOMODE
70
0
9
$LTSCALE
40
1
9
$TEXTSTYLE
7
STANDARD
9
$CLAYER
8
dim
9
$DIMASZ
40
2.5
9
$DIMLFAC
40
1
9
$DIMSCALE
40
1
9
$DIMEXO
40
0.625
9
$DIMEXE
40
1.25
9
$DIMTXT
40
1.5
9
$DIMTSZ
40
0
9
$DIMAUNIT
70
0
9
$DIMADEC
70
2
9
$DIMLUNIT
70
2
9
$DIMSTYLE
2
Standard
9
$DIMGAP
40
0.625
9
$DIMTIH
70
0
9
$LUNITS
70
2
9
$LUPREC
70
4
9
$AUNITS
70
0
9
$AUPREC
70
2
9
$SPLINESEGS
70
8
9
$GRIDMODE
70
1
9
$SNAPSTYLE
70
0
9
$GRIDUNIT
10
0
20
0
9
$PINSBASE
10
0
20
0
30
0
9
$PLIMMIN
10
0
20
0
9
$PLIMMAX
10
210
20
297
9
$INSUNITS
70
0
9
$PSVPSCALE
40
1
0
ENDSEC
0
SECTION
2
CLASSES
0
ENDSEC
0
SECTION
2
TABLES
0
TABLE
2
VPORT
5
8
330
0
100
AcDbSymbolTable
70
1
0
VPORT
5
31
330
2
100
AcDbSymbolTableRecord
100
AcDbViewportTableRecord
2
*ACTIVE
70
0
10
0
20
0
11
1
21
1
12
32.2969364447
22
13.3611153585
13
0
23
0
14
10
24
10
15
10
25
10
16
0
26
0
36
1
17
0
27
0
37
0
40
56.8983552
41
1.66666666667
42
50
43
0
44
0
50
0
51
0
71
0
72
100
73
1
74
3
75
0
76
1
77
0
78
0
281
0
65
1
110
0
120
0
130
0
111
1
121
0
131
0
112
0
122
1
132
0
79
0
146
0
348
10020
60
7
61
5
292
1
282
1
141
0
142
0
63
250
421
3358443
0
ENDTAB
0
TABLE
2
LTYPE
5
5
330
0
100
AcDbSymbolTable
70
4
0
LTYPE
5
14
330
5
100
AcDbSymbolTableRecord
100
AcDbLinetypeTableRecord
2
ByBlock
70
0
3

72
65
73
0
40
0
0
LTYPE
5
15
330
5
100
AcDbSymbolTableRecord
100
AcDbLinetypeTableRecord
2
ByLayer
70
0
3

72
65
73
0
40
0
0
LTYPE
5
16
330
5
100
AcDbSymbolTableRecord
100
AcDbLinetypeTableRecord
2
Continuous
70
0
3
Solid line
72
65
73
0
40
0
0
LTYPE
5
32
330
5
100
AcDbSymbolTableRecord
100
AcDbLinetypeTableRecord
2
DOT
70
0
3
Dot . . . . . . . . . . . . . . . . . . . . . .
72
65
73
2
40
6.35
49
0
74
0
49
-6.35
74
0
0
LTYPE
5
33
330
5
100
AcDbSymbolTableRecord
100
AcDbLinetypeTableRecord
2
DOT2
70
0
3
Dot (.5x) .....................................
72
65
73
2
40
3.175
49
0
74
0
49
-3.175
74
0
0
LTYPE
5
34
330
5
100
AcDbSymbolTableRecord
100
AcDbLinetypeTableRecord
2
DOTX2
70
0
3
Dot (2x) .  .  .  .  .  .  .  .  .  .  .  .  .
72
65
73
2
40
12.7
49
0
74
0
49
-12.7
74
0
0
LTYPE
5
35
330
5
100
AcDbSymbolTableRecord
100
AcDbLinetypeTableRecord
2
DASHED
70
0
3
Dot . . . . . . . . . . . . . . . . . . . . . .
72
65
73
2
40
19.05
49
12.7
74
0
49
-6.35
74
0
0
LTYPE
5
36
330
5
100
AcDbSymbolTableRecord
100
AcDbLinetypeTableRecord
2
DASHED2
70
0
3
Dashed (.5x) _ _ _ _ _ _ _ _ _ _ _ _ _ _ _ _ _
72
65
73
2
40
9.525
49
6.35
74
0
49
-3.175
74
0
0
LTYPE
5
37
330
5
100
AcDbSymbolTableRecord
100
AcDbLinetypeTableRecord
2
DASHEDX2
70
0
3
Dashed (2x) ____  ____  ____  ____  ____  ___
72
65
73
2
40
38.1
49
25.4
74
0
49
-12.7
74
0
0
LTYPE
5
38
330
5
100
AcDbSymbolTableRecord
100
AcDbLinetypeTableRecord
2
DASHDOT
70
0
3
Dash dot __ . __ . __ . __ . __ . __ . __ . __
72
65
73
4
40
25.4
49
12.7
74
0
49
-6.35
74
0
49
0
74
0
49
-6.35
74
0
0
LTYPE
5
39
330
5
100
AcDbSymbolTableRecord
100
AcDbLinetypeTableRecord
2
DASHDOT2
70
0
3
Dash dot (.5x) _._._._._._._._._._._._._._._.
72
65
73
4
40
12.7
49
6.35
74
0
49
-3.175
74
0
49
0
74
0
49
-3.175
74
0
0
LTYPE
5
3A
330
5
100
AcDbSymbolTableRecord
100
AcDbLinetypeTableRecord
2
DASHDOTX2
70
0
3
Dash dot (2x) ____  .  ____  .  ____  .  ___
72
65
73
4
40
50.8
49
25.4
74
0
49
-12.7
74
0
49
0
74
0
49
-12.7
74
0
0
LTYPE
5
3B
330
5
100
AcDbSymbolTableRecord
100
AcDbLinetypeTableRecord
2
DIVIDE
70
0
3
Divide ____ . . ____ . . ____ . . ____ . . ____
72
65
73
6
40
31.75
49
12.7
74
0
49
-6.35
74
0
49
0
74
0
49
-6.35
74
0
49
0
74
0
49
-6.35
74
0
0
LTYPE
5
3C
330
5
100
AcDbSymbolTableRecord
100
AcDbLinetypeTableRecord
2
DIVIDE2
70
0
3
Divide (.5x) __..__..__..__..__..__..__..__.._
72
65
73
6
40
15.875
49
6.35
74
0
49
-3.175
74
0
49
0
74
0
49
-3.175
74
0
49
0
74
0
49
-3.175
74
0
0
LTYPE
5
3D
330
5
100
AcDbSymbolTableRecord
100
AcDbLinetypeTableRecord
2
DIVIDEX2
70
0
3
Divide (2x) ________  .  .  ________  .  .  _
72
65
73
6
40
63.5
49
25.4
74
0
49
-12.7
74
0
49
0
74
0
49
-12.7
74
0
49
0
74
0
49
-12.7
74
0
0
LTYPE
5
3E
330
5
100
AcDbSymbolTableRecord
100
AcDbLinetypeTableRecord
2
BORDER
70
0
3
Border __ __ . __ __ . __ __ . __ __ . __ __ .
72
65
73
6
40
44.45
49
12.7
74
0
49
-6.35
74
0
49
12.7
74
0
49
-6.35
74
0
49
0
74
0
49
-6.35
74
0
0
LTYPE
5
3F
330
5
100
AcDbSymbolTableRecord
100
AcDbLinetypeTableRecord
2
BORDER2
70
0
3
Border (.5x) __.__.__.__.__.__.__.__.__.__.__.
72
65
73
6
40
22.225
49
6.35
74
0
49
-3.175
74
0
49
6.35
74
0
49
-3.175
74
0
49
0
74
0
49
-3.175
74
0
0
LTYPE
5
40
330
5
100
AcDbSymbolTableRecord
100
AcDbLinetypeTableRecord
2
BORDERX2
70
0
3
Border (2x) ____  ____  .  ____  ____  .  ___
72
65
73
6
40
88.9
49
25.4
74
0
49
-12.7
74
0
49
25.4
74
0
49
-12.7
74
0
49
0
74
0
49
-12.7
74
0
0
LTYPE
5
41
330
5
100
AcDbSymbolTableRecord
100
AcDbLinetypeTableRecord
2
CENTER
70
0
3
Center ____ _ ____ _ ____ _ ____ _ ____ _ ____
72
65
73
4
40
50.8
49
31.75
74
0
49
-6.35
74
0
49
6.35
74
0
49
-6.35
74
0
0
LTYPE
5
42
330
5
100
AcDbSymbolTableRecord
100
AcDbLinetypeTableRecord
2
CENTER2
70
0
3
Center (.5x) ___ _ ___ _ ___ _ ___ _ ___ _ ___
72
65
73
4
40
28.575
49
19.05
74
0
49
-3.175
74
0
49
3.175
74
0
49
-3.175
74
0
0
LTYPE
5
43
330
5
100
AcDbSymbolTableRecord
100
AcDbLinetypeTableRecord
2
CENTERX2
70
0
3
Center (2x) ________  __  ________  __  _____
72
65
73
4
40
101.6
49
63.5
74
0
49
-12.7
74
0
49
12.7
74
0
49
-12.7
74
0
0
ENDTAB
0
TABLE
2
LAYER
5
2
330
0
100
AcDbSymbolTable
70
1
0
LAYER
5
10
330
2
100
AcDbSymbolTableRecord
100
AcDbLayerTableRecord
2
0
70
0
62
7
6
CONTINUOUS
370
25
390
F
0
LAYER
5
44
330
2
100
AcDbSymbolTableRecord
100
AcDbLayerTableRecord
2
base
70
0
62
7
6
CENTER
370
0
390
F
0
LAYER
5
45
330
2
100
AcDbSymbolTableRecord
100
AcDbLayerTableRecord
2
dim
70
0
62
7
6
CONTINUOUS
370
0
390
F
0
LAYER
5
46
330
2
100
AcDbSymbolTableRecord
100
AcDbLayerTableRecord
2
base2
70
0
62
7
6
CONTINUOUS
370
0
390
F
0
ENDTAB
0
TABLE
2
STYLE
5
3
330
0
100
AcDbSymbolTable
70
3
0
STYLE
5
47
330
2
100
AcDbSymbolTableRecord
100
AcDbTextStyleTableRecord
2
cyrillic_ii
70
0
40
0
41
1
50
0
71
0
42
1
3
cyrillic_ii
4

0
STYLE
5
48
330
2
100
AcDbSymbolTableRecord
100
AcDbTextStyleTableRecord
2
Standard
70
0
40
0
41
1
50
0
71
0
42
1
3
txt
4

0
ENDTAB
0
TABLE
2
VIEW
5
6
330
0
100
AcDbSymbolTable
70
0
0
ENDTAB
0
TABLE
2
UCS
5
7
330
0
100
AcDbSymbolTable
70
0
0
ENDTAB
0
TABLE
2
APPID
5
9
330
0
100
AcDbSymbolTable
70
1
0
APPID
5
12
330
9
100
AcDbSymbolTableRecord
100
AcDbRegAppTableRecord
2
ACAD
70
0
0
ENDTAB
0
TABLE
2
DIMSTYLE
5
A
330
0
100
AcDbSymbolTable
70
1
100
AcDbDimStyleTable
71
1
0
DIMSTYLE
105
49
330
A
100
AcDbSymbolTableRecord
100
AcDbDimStyleTableRecord
2
Standard
70
0
40
1
41
2.5
42
0.625
43
0.38
44
1.25
45
0
46
0
47
0
48
0
140
1.5
141
0.09
142
0
143
25.4
144
1
145
0
146
1
147
0.625
148
0
71
0
72
0
73
0
74
1
75
0
76
0
77
0
78
0
79
0
170
0
171
2
172
0
173
0
174
0
175
0
176
0
177
0
178
0
179
0
271
4
272
4
273
2
274
2
275
0
276
0
277
2
278
46
279
0
280
0
281
0
282
0
283
1
284
0
285
0
286
0
288
0
289
3
340
Standard
341

371
-2
372
-2
0
ENDTAB
0
TABLE
2
BLOCK_RECORD
5
1
330
0
100
AcDbSymbolTable
70
2
0
BLOCK_RECORD
5
1F
330
1
100
AcDbSymbolTableRecord
100
AcDbBlockTableRecord
2
*Model_Space
70
0
280
1
281
0
0
BLOCK_RECORD
5
1E
330
1
100
AcDbSymbolTableRecord
100
AcDbBlockTableRecord
2
*Paper_Space
70
0
280
1
281
0
0
BLOCK_RECORD
5
4A
330
1
100
AcDbSymbolTableRecord
100
AcDbBlockTableRecord
2
*D6
70
0
280
1
281
0
0
BLOCK_RECORD
5
4D
330
1
100
AcDbSymbolTableRecord
100
AcDbBlockTableRecord
2
*D10
70
0
280
1
281
0
0
BLOCK_RECORD
5
50
330
1
100
AcDbSymbolTableRecord
100
AcDbBlockTableRecord
2
*D1
70
0
280
1
281
0
0
BLOCK_RECORD
5
53
330
1
100
AcDbSymbolTableRecord
100
AcDbBlockTableRecord
2
*D3
70
0
280
1
281
0
0
BLOCK_RECORD
5
56
330
1
100
AcDbSymbolTableRecord
100
AcDbBlockTableRecord
2
*D5
70
0
280
1
281
0
0
BLOCK_RECORD
5
59
330
1
100
AcDbSymbolTableRecord
100
AcDbBlockTableRecord
2
*D7
70
0
280
1
281
0
0
BLOCK_RECORD
5
5C
330
1
100
AcDbSymbolTableRecord
100
AcDbBlockTableRecord
2
*D9
70
0
280
1
281
0
0
BLOCK_RECORD
5
5F
330
1
100
AcDbSymbolTableRecord
100
AcDbBlockTableRecord
2
*D4
70
0
280
1
281
0
0
BLOCK_RECORD
5
62
330
1
100
AcDbSymbolTableRecord
100
AcDbBlockTableRecord
2
*D11
70
0
280
1
281
0
0
BLOCK_RECORD
5
65
330
1
100
AcDbSymbolTableRecord
100
AcDbBlockTableRecord
2
*D2
70
0
280
1
281
0
0
BLOCK_RECORD
5
68
330
1
100
AcDbSymbolTableRecord
100
AcDbBlockTableRecord
2
*D8
70
0
280
1
281
0
0
BLOCK_RECORD
5
6B
330
1
100
AcDbSymbolTableRecord
100
AcDbBlockTableRecord
2
POCKET006001_PROJ001
70
0
280
1
281
0
0
BLOCK_RECORD
5
6E
330
1
100
AcDbSymbolTableRecord
100
AcDbBlockTableRecord
2
POCKET006001_PROJ
70
0
280
1
281
0
0
ENDTAB
0
ENDSEC
0
SECTION
2
BLOCKS
0
BLOCK
5
20
330
1F
100
AcDbEntity
8
0
100
AcDbBlockBegin
2
*Model_Space
70
0
10
0
20
0
30
0
3
*Model_Space
1

0
ENDBLK
5
21
330
1F
100
AcDbEntity
8
0
100
AcDbBlockEnd
0
BLOCK
5
1C
330
1B
100
AcDbEntity
8
0
100
AcDbBlockBegin
2
*Paper_Space
70
0
10
0
20
0
30
0
3
*Paper_Space
1

0
ENDBLK
5
1D
330
1F
100
AcDbEntity
8
0
100
AcDbBlockEnd
0
BLOCK
5
4B
330
4A
100
AcDbEntity
8
0
100
AcDbBlockBegin
2
*D6
70
1
10
0
20
0
3
*D6
1

0
LINE
5
71
100
AcDbEntity
8
dim
6
CONTINUOUS
62
7
370
0
100
AcDbLine
10
-5.61456285584
20
12.0251616659
11
5.61456285584
21
5.47483833409
0
SOLID
5
72
100
AcDbEntity
8
dim
6
CONTINUOUS
62
7
370
0
100
AcDbTrace
10
-1.29566835135
20
9.50580653829
30
0
11
-3.66486938102
21
10.4059061979
31
0
12
-3.24536182617
22
11.1250620062
32
0
13
-3.24536182617
23
11.1250620062
33
0
0
SOLID
5
73
100
AcDbEntity
8
dim
6
CONTINUOUS
62
7
370
0
100
AcDbTrace
10
1.29566835135
20
7.99419346171
30
0
11
3.66486938102
21
7.09409380206
31
0
12
3.24536182617
22
6.37493799375
32
0
13
3.24536182617
23
6.37493799375
33
0
0
MTEXT
5
74
100
AcDbEntity
8
dim
6
CONTINUOUS
62
7
370
0
100
AcDbMText
10
0.692822660096
20
9.93769598874
30
0
40
1.5
41
2.16666666667
71
5
72
1
1
    ø3
7
standard
210
0
220
0
230
1
50
329.743562836
73
2
44
1
0
ENDBLK
5
4C
330
4A
100
AcDbEntity
8
0
100
AcDbBlockEnd
0
BLOCK
5
4E
330
4D
100
AcDbEntity
8
0
100
AcDbBlockBegin
2
*D10
70
1
10
0
20
0
3
*D10
1

0
LINE
5
75
100
AcDbEntity
8
dim
6
CONTINUOUS
62
7
370
0
100
AcDbLine
10
1.00533969682
20
-8.93611687412
11
14.1501048694
21
0.186116874123
0
SOLID
5
76
100
AcDbEntity
8
dim
6
CONTINUOUS
62
7
370
0
100
AcDbTrace
10
5.11307881325
20
-6.0854188278
30
0
11
3.29654962716
21
-7.85276560542
31
0
12
2.82186888291
22
-7.1687700965
32
0
13
2.82186888291
23
-7.1687700965
33
0
0
SOLID
5
77
100
AcDbEntity
8
dim
6
CONTINUOUS
62
7
370
0
100
AcDbTrace
10
10.042365753
20
-2.6645811722
30
0
11
11.8588949391
21
-0.89723439458
31
0
12
12.3335756833
22
-1.5812299035
32
0
13
12.3335756833
23
-1.5812299035
33
0
0
MTEXT
5
78
100
AcDbEntity
8
dim
6
CONTINUOUS
62
7
370
0
100
AcDbMText
10
6.79378032037
20
-3.24537174298
30
0
40
1.5
41
2.16666666667
71
5
72
1
1
    ø6
7
standard
210
0
220
0
230
1
50
34.7599617056
73
2
44
1
0
ENDBLK
5
4F
330
4D
100
AcDbEntity
8
0
100
AcDbBlockEnd
0
BLOCK
5
51
330
50
100
AcDbEntity
8
0
100
AcDbBlockBegin
2
*D1
70
1
10
0
20
0
3
*D1
1

0
LINE
5
79
100
AcDbEntity
8
dim
6
CONTINUOUS
62
7
370
0
100
AcDbLine
10
6.5512178208
20
10.6457289588
11
-6.5512178208
21
-10.6457289588
0
SOLID
5
7A
100
AcDbEntity
8
dim
6
CONTINUOUS
62
7
370
0
100
AcDbTrace
10
6.5512178208
20
10.6457289588
30
0
11
5.59550654755
21
8.29840944956
31
0
12
4.88644196573
22
8.73475688452
32
0
13
4.88644196573
23
8.73475688452
33
0
0
SOLID
5
7B
100
AcDbEntity
8
dim
6
CONTINUOUS
62
7
370
0
100
AcDbTrace
10
-6.5512178208
20
-10.6457289588
30
0
11
-5.59550654755
21
-8.29840944956
31
0
12
-4.88644196573
22
-8.73475688452
32
0
13
-4.88644196573
23
-8.73475688452
33
0
0
MTEXT
5
7C
100
AcDbEntity
8
dim
6
CONTINUOUS
62
7
370
0
100
AcDbMText
10
-1.17103018547
20
0.720633960288
30
0
40
1.5
41
1.83333333333
71
5
72
1
1
25
7
standard
210
0
220
0
230
1
50
58.3924977538
73
2
44
1
0
ENDBLK
5
52
330
50
100
AcDbEntity
8
0
100
AcDbBlockEnd
0
BLOCK
5
54
330
53
100
AcDbEntity
8
0
100
AcDbBlockBegin
2
*D3
70
1
10
0
20
0
3
*D3
1

0
LINE
5
7D
100
AcDbEntity
8
dim
6
CONTINUOUS
62
7
370
0
100
AcDbLine
10
30
20
-18.432
11
40
21
-18.432
0
SOLID
5
7E
100
AcDbEntity
8
dim
6
CONTINUOUS
62
7
370
0
100
AcDbTrace
10
30
20
-18.432
30
0
11
32.5
21
-18.0157153422
31
0
12
32.5
22
-18.8482846578
32
0
13
32.5
23
-18.8482846578
33
0
0
SOLID
5
7F
100
AcDbEntity
8
dim
6
CONTINUOUS
62
7
370
0
100
AcDbTrace
10
40
20
-18.432
30
0
11
37.5
21
-18.8482846578
31
0
12
37.5
22
-18.0157153422
32
0
13
37.5
23
-18.0157153422
33
0
0
MTEXT
5
80
100
AcDbEntity
8
dim
6
CONTINUOUS
62
7
370
0
100
AcDbMText
10
35
20
-17.057
30
0
40
1.5
41
1.5
71
5
72
1
1
10
7
standard
210
0
220
0
230
1
50
0
73
2
44
1
0
LINE
5
81
100
AcDbEntity
8
dim
6
CONTINUOUS
62
7
370
0
100
AcDbLine
10
30
20
-13.125
11
30
21
-19.682
0
LINE
5
82
100
AcDbEntity
8
dim
6
CONTINUOUS
62
7
370
0
100
AcDbLine
10
40
20
-13.125
11
40
21
-19.682
0
ENDBLK
5
55
330
53
100
AcDbEntity
8
0
100
AcDbBlockEnd
0
BLOCK
5
57
330
56
100
AcDbEntity
8
0
100
AcDbBlockBegin
2
*D5
70
1
10
0
20
0
3
*D5
1

0
LINE
5
83
100
AcDbEntity
8
dim
6
CONTINUOUS
62
7
370
0
100
AcDbLine
10
-8.68243142124
20
-1.08530392766
11
8.68243142124
21
1.08530392766
0
SOLID
5
84
100
AcDbEntity
8
dim
6
CONTINUOUS
62
7
370
0
100
AcDbTrace
10
-8.68243142124
20
-1.08530392766
30
0
11
-6.2533704865
21
-0.362147034862
31
0
12
-6.15010297242
22
-1.18828714751
32
0
13
-6.15010297242
23
-1.18828714751
33
0
0
SOLID
5
85
100
AcDbEntity
8
dim
6
CONTINUOUS
62
7
370
0
100
AcDbTrace
10
8.68243142124
20
1.08530392766
30
0
11
6.2533704865
21
0.362147034862
31
0
12
6.15010297242
22
1.18828714751
32
0
13
6.15010297242
23
1.18828714751
33
0
0
MTEXT
5
86
100
AcDbEntity
8
dim
6
CONTINUOUS
62
7
370
0
100
AcDbMText
10
-0.170547760061
20
1.36438208048
30
0
40
1.5
41
4.66666666667
71
5
72
1
1
      ø17.5
7
standard
210
0
220
0
230
1
50
7.12501634893
73
2
44
1
0
ENDBLK
5
58
330
56
100
AcDbEntity
8
0
100
AcDbBlockEnd
0
BLOCK
5
5A
330
59
100
AcDbEntity
8
0
100
AcDbBlockBegin
2
*D7
70
1
10
0
20
0
3
*D7
1

0
LINE
5
87
100
AcDbEntity
8
dim
6
CONTINUOUS
62
7
370
0
100
AcDbLine
10
1.70603162111
20
-1.58694534311
11
13.4494129451
21
-7.16305465689
0
SOLID
5
88
100
AcDbEntity
8
dim
6
CONTINUOUS
62
7
370
0
100
AcDbTrace
10
6.22271674573
20
-3.73160277149
30
0
11
3.7858165867
21
-3.03531940157
31
0
12
4.14293178014
22
-2.28322871302
32
0
13
4.14293178014
23
-2.28322871302
33
0
0
SOLID
5
89
100
AcDbEntity
8
dim
6
CONTINUOUS
62
7
370
0
100
AcDbTrace
10
8.93272782049
20
-5.01839722851
30
0
11
11.3696279795
21
-5.71468059843
31
0
12
11.0125127861
22
-6.46677128698
32
0
13
11.0125127861
23
-6.46677128698
33
0
0
MTEXT
5
8A
100
AcDbEntity
8
dim
6
CONTINUOUS
62
7
370
0
100
AcDbMText
10
8.16750307591
20
-3.13291159073
30
0
40
1.5
41
2.16666666667
71
5
72
1
1
    ø3
7
standard
210
0
220
0
230
1
50
334.600231364
73
2
44
1
0
ENDBLK
5
5B
330
59
100
AcDbEntity
8
0
100
AcDbBlockEnd
0
BLOCK
5
5D
330
5C
100
AcDbEntity
8
0
100
AcDbBlockBegin
2
*D9
70
1
10
0
20
0
3
*D9
1

0
LINE
5
8B
100
AcDbEntity
8
dim
6
CONTINUOUS
62
7
370
0
100
AcDbLine
10
-7.98442062786
20
8.25097371076
11
7.98442062786
21
9.24902628924
0
SOLID
5
8C
100
AcDbEntity
8
dim
6
CONTINUOUS
62
7
370
0
100
AcDbTrace
10
-2.99415773545
20
8.56286514153
30
0
11
-5.46332205815
21
7.99144545007
31
0
12
-5.51525630516
22
8.82239340222
32
0
13
-5.51525630516
23
8.82239340222
33
0
0
SOLID
5
8D
100
AcDbEntity
8
dim
6
CONTINUOUS
62
7
370
0
100
AcDbTrace
10
2.99415773545
20
8.93713485847
30
0
11
5.46332205815
21
9.50855454993
31
0
12
5.51525630516
22
8.67760659778
32
0
13
5.51525630516
23
8.67760659778
33
0
0
MTEXT
5
8E
100
AcDbEntity
8
dim
6
CONTINUOUS
62
7
370
0
100
AcDbMText
10
-0.0857701434634
20
10.1223222954
30
0
40
1.5
41
2.16666666667
71
5
72
1
1
    ø6
7
standard
210
0
220
0
230
1
50
3.576334375
73
2
44
1
0
ENDBLK
5
5E
330
5C
100
AcDbEntity
8
0
100
AcDbBlockEnd
0
BLOCK
5
60
330
5F
100
AcDbEntity
8
0
100
AcDbBlockBegin
2
*D4
70
1
10
0
20
0
3
*D4
1

0
LINE
5
8F
100
AcDbEntity
8
dim
6
CONTINUOUS
62
7
370
0
100
AcDbLine
10
32
20
16.9869312
11
45
21
16.9869312
0
SOLID
5
90
100
AcDbEntity
8
dim
6
CONTINUOUS
62
7
370
0
100
AcDbTrace
10
37
20
16.9869312
30
0
11
34.5
21
16.5706465422
31
0
12
34.5
22
17.4032158578
32
0
13
34.5
23
17.4032158578
33
0
0
SOLID
5
91
100
AcDbEntity
8
dim
6
CONTINUOUS
62
7
370
0
100
AcDbTrace
10
40
20
16.9869312
30
0
11
42.5
21
17.4032158578
31
0
12
42.5
22
16.5706465422
32
0
13
42.5
23
16.5706465422
33
0
0
MTEXT
5
92
100
AcDbEntity
8
dim
6
CONTINUOUS
62
7
370
0
100
AcDbMText
10
38.5
20
18.3619312
30
0
40
1.5
41
0.666666666667
71
5
72
1
1
3
7
standard
210
0
220
0
230
1
50
0
73
2
44
1
0
LINE
5
93
100
AcDbEntity
8
dim
6
CONTINUOUS
62
7
370
0
100
AcDbLine
10
37
20
11.6110679775
11
37
21
18.2369312
0
LINE
5
94
100
AcDbEntity
8
dim
6
CONTINUOUS
62
7
370
0
100
AcDbLine
10
40
20
11.6110679775
11
40
21
18.2369312
0
ENDBLK
5
61
330
5F
100
AcDbEntity
8
0
100
AcDbBlockEnd
0
BLOCK
5
63
330
62
100
AcDbEntity
8
0
100
AcDbBlockBegin
2
*D11
70
1
10
0
20
0
3
*D11
1

0
LINE
5
95
100
AcDbEntity
8
dim
6
CONTINUOUS
62
7
370
0
100
AcDbLine
10
0.0599127294298
20
-1.99455226581
11
-15.2153572956
21
-6.75544773419
0
SOLID
5
96
100
AcDbEntity
8
dim
6
CONTINUOUS
62
7
370
0
100
AcDbTrace
10
-4.71360915341
20
-3.48233209968
30
0
11
-2.45071619579
21
-2.34101339807
31
0
12
-2.20298022819
22
-3.13587096742
32
0
13
-2.20298022819
23
-3.13587096742
33
0
0
SOLID
5
97
100
AcDbEntity
8
dim
6
CONTINUOUS
62
7
370
0
100
AcDbTrace
10
-10.4418354128
20
-5.26766790032
30
0
11
-12.7047283704
21
-6.40898660193
31
0
12
-12.952464338
22
-5.61412903258
32
0
13
-12.952464338
23
-5.61412903258
33
0
0
MTEXT
5
98
100
AcDbEntity
8
dim
6
CONTINUOUS
62
7
370
0
100
AcDbMText
10
-7.98686173742
20
-3.06228148222
30
0
40
1.5
41
2.16666666667
71
5
72
1
1
    ø6
7
standard
210
0
220
0
230
1
50
17.3108678046
73
2
44
1
0
ENDBLK
5
64
330
62
100
AcDbEntity
8
0
100
AcDbBlockEnd
0
BLOCK
5
66
330
65
100
AcDbEntity
8
0
100
AcDbBlockBegin
2
*D2
70
1
10
0
20
0
3
*D2
1

0
LINE
5
99
100
AcDbEntity
8
dim
6
CONTINUOUS
62
7
370
0
100
AcDbLine
10
-1.21267812518
20
4.85071250073
11
1.21267812518
21
-4.85071250073
0
SOLID
5
9A
100
AcDbEntity
8
dim
6
CONTINUOUS
62
7
370
0
100
AcDbTrace
10
-1.21267812518
20
4.85071250073
30
0
11
-0.202483623926
21
2.52632011003
31
0
12
-1.01019450125
22
2.3243923907
32
0
13
-1.01019450125
23
2.3243923907
33
0
0
SOLID
5
9B
100
AcDbEntity
8
dim
6
CONTINUOUS
62
7
370
0
100
AcDbTrace
10
1.21267812518
20
-4.85071250073
30
0
11
0.202483623926
21
-2.52632011003
31
0
12
1.01019450125
22
-2.3243923907
32
0
13
1.01019450125
23
-2.3243923907
33
0
0
MTEXT
5
9C
100
AcDbEntity
8
dim
6
CONTINUOUS
62
7
370
0
100
AcDbMText
10
1.3339459377
20
0.333486484424
30
0
40
1.5
41
1.5
71
5
72
1
1
10
7
standard
210
0
220
0
230
1
50
284.036243468
73
2
44
1
0
ENDBLK
5
67
330
65
100
AcDbEntity
8
0
100
AcDbBlockEnd
0
BLOCK
5
69
330
68
100
AcDbEntity
8
0
100
AcDbBlockBegin
2
*D8
70
1
10
0
20
0
3
*D8
1

0
LINE
5
9D
100
AcDbEntity
8
dim
6
CONTINUOUS
62
7
370
0
100
AcDbLine
10
-13.0763212533
20
-0.908674948179
11
-2.07912331291
21
-7.84132505182
0
SOLID
5
9E
100
AcDbEntity
8
dim
6
CONTINUOUS
62
7
370
0
100
AcDbTrace
10
-8.84662973777
20
-3.5750788342
30
0
11
-11.1834721014
21
-2.59402802819
31
0
12
-10.7394788897
22
-1.88972575418
32
0
13
-10.7394788897
23
-1.88972575418
33
0
0
SOLID
5
9F
100
AcDbEntity
8
dim
6
CONTINUOUS
62
7
370
0
100
AcDbTrace
10
-6.30881482845
20
-5.1749211658
30
0
11
-3.97197246484
21
-6.15597197181
31
0
12
-4.41596567651
22
-6.86027424582
32
0
13
-4.41596567651
23
-6.86027424582
33
0
0
MTEXT
5
A0
100
AcDbEntity
8
dim
6
CONTINUOUS
62
7
370
0
100
AcDbMText
10
-6.84446121446
20
-3.21183483323
30
0
40
1.5
41
2.16666666667
71
5
72
1
1
    ø3
7
standard
210
0
220
0
230
1
50
327.772607084
73
2
44
1
0
ENDBLK
5
6A
330
68
100
AcDbEntity
8
0
100
AcDbBlockEnd
0
BLOCK
5
6C
330
6B
100
AcDbEntity
8
0
100
AcDbBlockBegin
2
POCKET006001_PROJ001
70
0
10
0
20
0
3
POCKET006001_PROJ001
1

0
LWPOLYLINE
5
A1
100
AcDbEntity
8
0
6
ByLayer
62
0
370
-1
100
AcDbPolyline
90
2
70
0
43
0
10
2
20
12.5
10
2
20
-12.5
0
LINE
5
A2
100
AcDbEntity
8
0
6
ByLayer
62
0
370
-1
100
AcDbLine
10
2
20
-12.5
11
12
21
-12.5
0
LWPOLYLINE
5
A3
100
AcDbEntity
8
0
6
ByLayer
62
0
370
-1
100
AcDbPolyline
90
2
70
0
43
0
10
12
20
12.5
10
12
20
-12.5
0
LINE
5
A4
100
AcDbEntity
8
0
6
ByLayer
62
0
370
-1
100
AcDbLine
10
12
20
12.5
11
2
21
12.5
0
ENDBLK
5
6D
330
6B
100
AcDbEntity
8
0
100
AcDbBlockEnd
0
BLOCK
5
6F
330
6E
100
AcDbEntity
8
0
100
AcDbBlockBegin
2
POCKET006001_PROJ
70
0
10
0
20
0
3
POCKET006001_PROJ
1

0
ARC
5
A5
100
AcDbEntity
8
0
6
ByLayer
62
0
370
-1
100
AcDbCircle
10
-7.57772228311
20
-4.375
40
1.5
100
AcDbArc
50
0
51
-90
0
ARC
5
A6
100
AcDbEntity
8
0
6
ByLayer
62
0
370
-1
100
AcDbCircle
10
-7.57772228311
20
-4.375
40
1.5
100
AcDbArc
50
-90
51
0
0
ARC
5
A7
100
AcDbEntity
8
0
6
ByLayer
62
0
370
-1
100
AcDbCircle
10
7.57772228311
20
-4.375
40
1.5
100
AcDbArc
50
0
51
-90
0
ARC
5
A8
100
AcDbEntity
8
0
6
ByLayer
62
0
370
-1
100
AcDbCircle
10
7.57772228311
20
-4.375
40
1.5
100
AcDbArc
50
-90
51
0
0
ARC
5
A9
100
AcDbEntity
8
0
6
ByLayer
62
0
370
-1
100
AcDbCircle
10
-8.572242e-16
20
8.75
40
1.5
100
AcDbArc
50
0
51
-90
0
ARC
5
AA
100
AcDbEntity
8
0
6
ByLayer
62
0
370
-1
100
AcDbCircle
10
-8.572242e-16
20
8.75
40
1.5
100
AcDbArc
50
-90
51
0
0
ARC
5
AB
100
AcDbEntity
8
0
6
ByLayer
62
0
370
-1
100
AcDbCircle
10
-1.224606e-15
20
0
40
5
100
AcDbArc
50
-0
51
90
0
ARC
5
AC
100
AcDbEntity
8
0
6
ByLayer
62
0
370
-1
100
AcDbCircle
10
-1.224606e-15
20
0
40
5
100
AcDbArc
50
90
51
-0
0
CIRCLE
5
AD
100
AcDbEntity
8
0
6
ByLayer
62
0
370
-1
100
AcDbCircle
10
-1.224606e-15
20
0
40
12.5
0
CIRCLE
5
AE
100
AcDbEntity
8
0
6
ByLayer
62
0
370
-1
100
AcDbCircle
10
7.57772228311
20
-4.375
40
3
0
CIRCLE
5
AF
100
AcDbEntity
8
0
6
ByLayer
62
0
370
-1
100
AcDbCircle
10
7.57772228311
20
-4.375
40
3
0
CIRCLE
5
B0
100
AcDbEntity
8
0
6
ByLayer
62
0
370
-1
100
AcDbCircle
10
-1.224606e-15
20
8.75
40
3
0
CIRCLE
5
B1
100
AcDbEntity
8
0
6
ByLayer
62
0
370
-1
100
AcDbCircle
10
-7.57772228311
20
-4.375
40
3
0
ENDBLK
5
70
330
6E
100
AcDbEntity
8
0
100
AcDbBlockEnd
0
ENDSEC
0
SECTION
2
ENTITIES
0
HATCH
5
B2
100
AcDbEntity
8
base2
6
ByLayer
62
256
370
-1
100
AcDbHatch
10
0
20
0
30
0
210
0
220
0
230
1
2
ansi31
70
0
71
0
91
1
92
0
93
6
72
1
10
30
20
10.25
11
37
21
10.25
72
1
10
37
20
10.25
11
37
21
11.75
72
1
10
37
20
11.75
11
40
21
11.75
72
1
10
40
20
11.75
11
40
21
12.5
72
1
10
40
20
12.5
11
30
21
12.5
72
1
10
30
20
12.5
11
30
21
10.25
97
0
75
0
76
1
52
0
41
1
77
0
78
0
98
0
0
HATCH
5
B3
100
AcDbEntity
8
base2
6
ByLayer
62
256
370
-1
100
AcDbHatch
10
0
20
0
30
0
210
0
220
0
230
1
2
ansi31
70
0
71
0
91
1
92
0
93
6
72
1
10
37
20
7.25
11
30
21
7.25
72
1
10
30
20
7.25
11
30
21
5
72
1
10
30
20
5
11
40
21
5
72
1
10
40
20
5
11
40
21
5.75
72
1
10
40
20
5.75
11
37
21
5.75
72
1
10
37
20
5.75
11
37
21
7.25
97
0
75
0
76
1
52
0
41
1
77
0
78
0
98
0
0
HATCH
5
B4
100
AcDbEntity
8
base2
6
ByLayer
62
256
370
-1
100
AcDbHatch
10
0
20
0
30
0
210
0
220
0
230
1
2
ansi31
70
0
71
0
91
1
92
0
93
4
72
1
10
30
20
-5
11
40
21
-5
72
1
10
40
20
-5
11
40
21
-12.5
72
1
10
40
20
-12.5
11
30
21
-12.5
72
1
10
30
20
-12.5
11
30
21
-5
97
0
75
0
76
1
52
0
41
1
77
0
78
0
98
0
0
INSERT
5
B5
100
AcDbEntity
8
0
6
ByLayer
62
256
370
-1
100
AcDbBlockReference
2
POCKET006001_PROJ001
10
28
20
0
30
0
41
1
42
1
43
0
50
0
70
1
71
1
44
0
45
0
0
LINE
5
B6
100
AcDbEntity
8
base
6
ByLayer
62
256
370
-1
100
AcDbLine
10
-14
20
0
11
14
21
0
0
LINE
5
B7
100
AcDbEntity
8
base
6
ByLayer
62
256
370
-1
100
AcDbLine
10
0
20
14
11
0
21
-14
0
LINE
5
B8
100
AcDbEntity
8
base
6
ByLayer
62
256
370
-1
100
AcDbLine
10
2.6645352591e-15
20
8.75
11
4
21
8.75
0
LINE
5
B9
100
AcDbEntity
8
base
6
ByLayer
62
256
370
-1
100
AcDbLine
10
4
20
8.75
11
2.6645352591e-15
21
8.75
0
LINE
5
BA
100
AcDbEntity
8
base
6
ByLayer
62
256
370
-1
100
AcDbLine
10
2.6645352591e-15
20
8.75
11
-4
21
8.75
0
LINE
5
BB
100
AcDbEntity
8
base
6
ByLayer
62
256
370
-1
100
AcDbLine
10
7.57772228311
20
-4.375
11
-14
21
-4.375
0
LINE
5
BC
100
AcDbEntity
8
base
6
ByLayer
62
256
370
-1
100
AcDbLine
10
-14
20
-4.375
11
14
21
-4.375
0
LINE
5
BD
100
AcDbEntity
8
base
6
ByLayer
62
256
370
-1
100
AcDbLine
10
28
20
0
11
42
21
0
0
LINE
5
BE
100
AcDbEntity
8
base
6
ByLayer
62
256
370
-1
100
AcDbLine
10
7.57772228311
20
-4.375
11
7.57772228311
21
1
0
LINE
5
BF
100
AcDbEntity
8
base
6
ByLayer
62
256
370
-1
100
AcDbLine
10
7.57772228311
20
1
11
7.57772228311
21
-4.375
0
LINE
5
C0
100
AcDbEntity
8
base
6
ByLayer
62
256
370
-1
100
AcDbLine
10
7.57772228311
20
-4.375
11
7.57772228311
21
-12
0
LINE
5
C1
100
AcDbEntity
8
base
6
ByLayer
62
256
370
-1
100
AcDbLine
10
-7.57772228311
20
-4.375
11
-7.57772228311
21
1
0
LINE
5
C2
100
AcDbEntity
8
base
6
ByLayer
62
256
370
-1
100
AcDbLine
10
-7.57772228311
20
1
11
-7.57772228311
21
-11
0
DIMENSION
5
C3
100
AcDbEntity
8
dim
6
ByLayer
62
256
370
-1
100
AcDbDimension
2
*D1
10
6.5512178208
20
10.6457289588
30
0
11
-1.17103018547
21
0.720633960288
31
0
70
35
71
5
3
Standard
53
0
210
0
220
0
230
1
100
AcDbDiametricDimension
15
-6.5512178208
25
-10.6457289588
35
0
40
0
0
DIMENSION
5
C4
100
AcDbEntity
8
dim
6
ByLayer
62
256
370
-1
100
AcDbDimension
2
*D2
10
-1.21267812518
20
4.85071250073
30
0
11
1.3339459377
21
0.333486484424
31
0
70
35
71
5
3
Standard
53
0
210
0
220
0
230
1
100
AcDbDiametricDimension
15
1.21267812518
25
-4.85071250073
35
0
40
0
0
DIMENSION
5
C5
100
AcDbEntity
8
dim
6
ByLayer
62
256
370
-1
100
AcDbDimension
2
*D3
10
40
20
-18.432
30
0
11
35
21
-17.057
31
0
70
32
71
5
3
Standard
53
0
210
0
220
0
230
1
100
AcDbAlignedDimension
13
30
23
-12.5
33
0
14
40
24
-12.5
34
0
100
AcDbRotatedDimension
0
LINE
5
C6
100
AcDbEntity
8
base
6
ByLayer
62
256
370
-1
100
AcDbLine
10
35
20
12.5
11
35
21
12.5
0
LINE
5
C7
100
AcDbEntity
8
base
6
ByLayer
62
256
370
-1
100
AcDbLine
10
35
20
-12.5
11
35
21
-12.5
0
LINE
5
C8
100
AcDbEntity
8
0
6
ByLayer
62
256
370
-1
100
AcDbLine
10
30
20
10.25
11
30
21
10.25
0
LINE
5
C9
100
AcDbEntity
8
0
6
ByLayer
62
256
370
-1
100
AcDbLine
10
37
20
10.25
11
37
21
10.25
0
LINE
5
CA
100
AcDbEntity
8
0
6
ByLayer
62
256
370
-1
100
AcDbLine
10
30
20
7.25
11
30
21
7.25
0
LINE
5
CB
100
AcDbEntity
8
0
6
ByLayer
62
256
370
-1
100
AcDbLine
10
35
20
7.25
11
35
21
7.25
0
LINE
5
CC
100
AcDbEntity
8
0
6
ByLayer
62
256
370
-1
100
AcDbLine
10
37
20
7.25
11
37
21
7.25
0
LINE
5
CD
100
AcDbEntity
8
0
6
ByLayer
62
256
370
-1
100
AcDbLine
10
35
20
7.25
11
35
21
7.25
0
LINE
5
CE
100
AcDbEntity
8
0
6
ByLayer
62
256
370
-1
100
AcDbLine
10
37
20
10.9860679775
11
37
21
10.9860679775
0
LINE
5
CF
100
AcDbEntity
8
0
6
ByLayer
62
256
370
-1
100
AcDbLine
10
37
20
6.5139320225
11
37
21
6.5139320225
0
LINE
5
D0
100
AcDbEntity
8
0
6
ByLayer
62
256
370
-1
100
AcDbLine
10
40
20
6.5139320225
11
40
21
6.5139320225
0
LINE
5
D1
100
AcDbEntity
8
0
6
ByLayer
62
256
370
-1
100
AcDbLine
10
37
20
6.5139320225
11
37
21
6.5139320225
0
LINE
5
D2
100
AcDbEntity
8
0
6
ByLayer
62
256
370
-1
100
AcDbLine
10
40
20
10.9860679775
11
40
21
10.9860679775
0
LINE
5
D3
100
AcDbEntity
8
0
6
ByLayer
62
256
370
-1
100
AcDbLine
10
37
20
10.9860679775
11
37
21
10.9860679775
0
LINE
5
D4
100
AcDbEntity
8
base2
6
ByLayer
62
256
370
-1
100
AcDbLine
10
30
20
10.25
11
37
21
10.25
0
LINE
5
D5
100
AcDbEntity
8
base2
6
ByLayer
62
256
370
-1
100
AcDbLine
10
37
20
7.25
11
30
21
7.25
0
DIMENSION
5
D6
100
AcDbEntity
8
dim
6
ByLayer
62
256
370
-1
100
AcDbDimension
2
*D4
10
40
20
16.9869312
30
0
11
38.5
21
18.3619312
31
0
70
32
71
5
3
Standard
53
0
210
0
220
0
230
1
100
AcDbAlignedDimension
13
37
23
10.9860679775
33
0
14
40
24
10.9860679775
34
0
100
AcDbRotatedDimension
0
LINE
5
D7
100
AcDbEntity
8
base2
6
ByLayer
62
256
370
-1
100
AcDbLine
10
40
20
11.75
11
37
21
11.75
0
LINE
5
D8
100
AcDbEntity
8
base2
6
ByLayer
62
256
370
-1
100
AcDbLine
10
37
20
5.75
11
40
21
5.75
0
INSERT
5
D9
100
AcDbEntity
8
0
6
ByLayer
62
256
370
-1
100
AcDbBlockReference
2
POCKET006001_PROJ
10
0
20
0
30
0
41
1
42
1
43
0
50
0
70
1
71
1
44
0
45
0
0
LINE
5
DA
100
AcDbEntity
8
base
6
ByLayer
62
256
370
-1
100
AcDbLine
10
27.9969792
20
8.75
11
41.9954688
21
8.75
0
LINE
5
DB
100
AcDbEntity
8
base2
6
ByLayer
62
256
370
-1
100
AcDbLine
10
30
20
5
11
40
21
5
0
LINE
5
DC
100
AcDbEntity
8
base2
6
ByLayer
62
256
370
-1
100
AcDbLine
10
30
20
-5
11
40
21
-5
0
LINE
5
DD
100
AcDbEntity
8
base2
6
ByLayer
62
256
370
-1
100
AcDbLine
10
30
20
7.25
11
30
21
5
0
LINE
5
DE
100
AcDbEntity
8
base2
6
ByLayer
62
256
370
-1
100
AcDbLine
10
40
20
5.75
11
40
21
5
0
LINE
5
DF
100
AcDbEntity
8
base2
6
ByLayer
62
256
370
-1
100
AcDbLine
10
30
20
10.25
11
30
21
12.5
0
LINE
5
E0
100
AcDbEntity
8
base2
6
ByLayer
62
256
370
-1
100
AcDbLine
10
30
20
12.5
11
40
21
12.5
0
LINE
5
E1
100
AcDbEntity
8
base2
6
ByLayer
62
256
370
-1
100
AcDbLine
10
40
20
12.5
11
40
21
11.75
0
LINE
5
E2
100
AcDbEntity
8
base2
6
ByLayer
62
256
370
-1
100
AcDbLine
10
30
20
-5
11
30
21
-12.5
0
LINE
5
E3
100
AcDbEntity
8
base2
6
ByLayer
62
256
370
-1
100
AcDbLine
10
30
20
-12.5
11
40
21
-12.5
0
LINE
5
E4
100
AcDbEntity
8
base2
6
ByLayer
62
256
370
-1
100
AcDbLine
10
40
20
-12.5
11
40
21
-5
0
LINE
5
E5
100
AcDbEntity
8
base2
6
ByLayer
62
256
370
-1
100
AcDbLine
10
37
20
11.75
11
37
21
10.25
0
LINE
5
E6
100
AcDbEntity
8
base2
6
ByLayer
62
256
370
-1
100
AcDbLine
10
37
20
10.25
11
37
21
7.25
0
LINE
5
E7
100
AcDbEntity
8
base2
6
ByLayer
62
256
370
-1
100
AcDbLine
10
37
20
7.25
11
37
21
5.75
0
CIRCLE
5
E8
100
AcDbEntity
8
base
6
ByLayer
62
256
370
-1
100
AcDbCircle
10
0
20
0
40
8.75
0
DIMENSION
5
E9
100
AcDbEntity
8
dim
6
ByLayer
62
256
370
-1
100
AcDbDimension
2
*D5
10
-8.68243142124
20
-1.08530392766
30
0
11
-0.170547760061
21
1.36438208048
31
0
70
35
1
      ø17.5
71
5
72
0
3
Standard
53
0
210
0
220
0
230
1
100
AcDbDiametricDimension
15
8.68243142124
25
1.08530392766
35
0
40
0
0
MTEXT
5
EA
100
AcDbEntity
8
dim
6
ByLayer
62
256
370
-1
100
AcDbMText
10
-11
20
-15
30
0
40
2
41
35.8888888889
71
1
72
1
1
Отверстия расположены\Pв углах равностороннего\Pтреугольника
7
cyrillic_ii
210
0
220
0
230
1
50
0
73
2
44
1
0
DIMENSION
5
EB
100
AcDbEntity
8
dim
6
ByLayer
62
256
370
-1
100
AcDbDimension
2
*D6
10
-1.29566835135
20
9.50580653829
30
0
11
0.692822660096
21
9.93769598874
31
0
70
35
1
    ø3
71
5
3
Standard
53
0
210
0
220
0
230
1
100
AcDbDiametricDimension
15
1.29566835135
25
7.99419346171
35
0
40
0
0
DIMENSION
5
EC
100
AcDbEntity
8
dim
6
ByLayer
62
256
370
-1
100
AcDbDimension
2
*D7
10
6.22271674573
20
-3.73160277149
30
0
11
8.16750307591
21
-3.13291159073
31
0
70
35
1
    ø3
71
5
3
Standard
53
0
210
0
220
0
230
1
100
AcDbDiametricDimension
15
8.93272782049
25
-5.01839722851
35
0
40
0
0
DIMENSION
5
ED
100
AcDbEntity
8
dim
6
ByLayer
62
256
370
-1
100
AcDbDimension
2
*D8
10
-8.84662973777
20
-3.5750788342
30
0
11
-6.84446121446
21
-3.21183483323
31
0
70
35
1
    ø3
71
5
3
Standard
53
0
210
0
220
0
230
1
100
AcDbDiametricDimension
15
-6.30881482845
25
-5.1749211658
35
0
40
0
0
DIMENSION
5
EE
100
AcDbEntity
8
dim
6
ByLayer
62
256
370
-1
100
AcDbDimension
2
*D9
10
-2.99415773545
20
8.56286514153
30
0
11
-0.0857701434634
21
10.1223222954
31
0
70
35
1
    ø6
71
5
3
Standard
53
0
210
0
220
0
230
1
100
AcDbDiametricDimension
15
2.99415773545
25
8.93713485847
35
0
40
0
0
DIMENSION
5
EF
100
AcDbEntity
8
dim
6
ByLayer
62
256
370
-1
100
AcDbDimension
2
*D10
10
5.11307881325
20
-6.0854188278
30
0
11
6.79378032037
21
-3.24537174298
31
0
70
35
1
    ø6
71
5
3
Standard
53
0
210
0
220
0
230
1
100
AcDbDiametricDimension
15
10.042365753
25
-2.6645811722
35
0
40
0
0
DIMENSION
5
F0
100
AcDbEntity
8
dim
6
ByLayer
62
256
370
-1
100
AcDbDimension
2
*D11
10
-4.71360915341
20
-3.48233209968
30
0
11
-7.98686173742
21
-3.06228148222
31
0
70
35
1
    ø6
71
5
3
Standard
53
0
210
0
220
0
230
1
100
AcDbDiametricDimension
15
-10.4418354128
25
-5.26766790032
35
0
40
0
0
ENDSEC
0
SECTION
2
OBJECTS
0
DICTIONARY
5
C
330
0
100
AcDbDictionary
281
1
3
ACAD_GROUP
350
D
0
DICTIONARY
5
D
330
C
100
AcDbDictionary
281
1
0
ENDSEC
0
EOF
