999
dxfrw 0.5.10
0
SECTION
2
HEADER
9
$ACADVER
1
AC1021
9
$HANDSEED
5
20000
9
$DWGCODEPAGE
3
ANSI_1252
9
$INSBASE
10
0
20
0
30
0
9
$EXTMIN
10
10000000000
20
10000000000
30
0
9
$EXTMAX
10
-10000000000
20
-10000000000
30
0
9
$LIMMIN
10
0
20
0
9
$LIMMAX
10
420
20
297
9
$ORTHOMODE
70
0
9
$LTSCALE
40
1
9
$TEXTSTYLE
7
STANDARD
9
$CLAYER
8
dim
9
$DIMASZ
40
2.5
9
$DIMLFAC
40
1
9
$DIMSCALE
40
1
9
$DIMEXO
40
0.625
9
$DIMEXE
40
1.25
9
$DIMTXT
40
2.5
9
$DIMTSZ
40
0
9
$DIMAUNIT
70
0
9
$DIMADEC
70
0
9
$DIMLUNIT
70
2
9
$DIMSTYLE
2
Standard
9
$DIMGAP
40
0.625
9
$DIMTIH
70
0
9
$LUNITS
70
2
9
$LUPREC
70
4
9
$AUNITS
70
0
9
$AUPREC
70
2
9
$SPLINESEGS
70
8
9
$GRIDMODE
70
1
9
$SNAPSTYLE
70
0
9
$PINSBASE
10
0
20
0
30
0
9
$PLIMMIN
10
0
20
0
9
$PLIMMAX
10
210
20
297
9
$INSUNITS
70
0
9
$PSVPSCALE
40
1
0
ENDSEC
0
SECTION
2
CLASSES
0
ENDSEC
0
SECTION
2
TABLES
0
TABLE
2
VPORT
5
8
330
0
100
AcDbSymbolTable
70
1
0
VPORT
5
31
330
2
100
AcDbSymbolTableRecord
100
AcDbViewportTableRecord
2
*ACTIVE
70
0
10
0
20
0
11
1
21
1
12
39.6009540397
22
20.8395691083
13
0
23
0
14
10
24
10
15
10
25
10
16
0
26
0
36
1
17
0
27
0
37
0
40
92.8255599064
41
1.76119402985
42
50
43
0
44
0
50
0
51
0
71
0
72
100
73
1
74
3
75
0
76
1
77
0
78
0
281
0
65
1
110
0
120
0
130
0
111
1
121
0
131
0
112
0
122
1
132
0
79
0
146
0
348
10020
60
7
61
5
292
1
282
1
141
0
142
0
63
250
421
3358443
0
ENDTAB
0
TABLE
2
LTYPE
5
5
330
0
100
AcDbSymbolTable
70
4
0
LTYPE
5
14
330
5
100
AcDbSymbolTableRecord
100
AcDbLinetypeTableRecord
2
ByBlock
70
0
3

72
65
73
0
40
0
0
LTYPE
5
15
330
5
100
AcDbSymbolTableRecord
100
AcDbLinetypeTableRecord
2
ByLayer
70
0
3

72
65
73
0
40
0
0
LTYPE
5
16
330
5
100
AcDbSymbolTableRecord
100
AcDbLinetypeTableRecord
2
Continuous
70
0
3
Solid line
72
65
73
0
40
0
0
LTYPE
5
32
330
5
100
AcDbSymbolTableRecord
100
AcDbLinetypeTableRecord
2
DOT
70
0
3
Dot . . . . . . . . . . . . . . . . . . . . . .
72
65
73
2
40
6.35
49
0
74
0
49
-6.35
74
0
0
LTYPE
5
33
330
5
100
AcDbSymbolTableRecord
100
AcDbLinetypeTableRecord
2
DOT2
70
0
3
Dot (.5x) .....................................
72
65
73
2
40
3.175
49
0
74
0
49
-3.175
74
0
0
LTYPE
5
34
330
5
100
AcDbSymbolTableRecord
100
AcDbLinetypeTableRecord
2
DOTX2
70
0
3
Dot (2x) .  .  .  .  .  .  .  .  .  .  .  .  .
72
65
73
2
40
12.7
49
0
74
0
49
-12.7
74
0
0
LTYPE
5
35
330
5
100
AcDbSymbolTableRecord
100
AcDbLinetypeTableRecord
2
DASHED
70
0
3
Dot . . . . . . . . . . . . . . . . . . . . . .
72
65
73
2
40
19.05
49
12.7
74
0
49
-6.35
74
0
0
LTYPE
5
36
330
5
100
AcDbSymbolTableRecord
100
AcDbLinetypeTableRecord
2
DASHED2
70
0
3
Dashed (.5x) _ _ _ _ _ _ _ _ _ _ _ _ _ _ _ _ _
72
65
73
2
40
9.525
49
6.35
74
0
49
-3.175
74
0
0
LTYPE
5
37
330
5
100
AcDbSymbolTableRecord
100
AcDbLinetypeTableRecord
2
DASHEDX2
70
0
3
Dashed (2x) ____  ____  ____  ____  ____  ___
72
65
73
2
40
38.1
49
25.4
74
0
49
-12.7
74
0
0
LTYPE
5
38
330
5
100
AcDbSymbolTableRecord
100
AcDbLinetypeTableRecord
2
DASHDOT
70
0
3
Dash dot __ . __ . __ . __ . __ . __ . __ . __
72
65
73
4
40
25.4
49
12.7
74
0
49
-6.35
74
0
49
0
74
0
49
-6.35
74
0
0
LTYPE
5
39
330
5
100
AcDbSymbolTableRecord
100
AcDbLinetypeTableRecord
2
DASHDOT2
70
0
3
Dash dot (.5x) _._._._._._._._._._._._._._._.
72
65
73
4
40
12.7
49
6.35
74
0
49
-3.175
74
0
49
0
74
0
49
-3.175
74
0
0
LTYPE
5
3A
330
5
100
AcDbSymbolTableRecord
100
AcDbLinetypeTableRecord
2
DASHDOTX2
70
0
3
Dash dot (2x) ____  .  ____  .  ____  .  ___
72
65
73
4
40
50.8
49
25.4
74
0
49
-12.7
74
0
49
0
74
0
49
-12.7
74
0
0
LTYPE
5
3B
330
5
100
AcDbSymbolTableRecord
100
AcDbLinetypeTableRecord
2
DIVIDE
70
0
3
Divide ____ . . ____ . . ____ . . ____ . . ____
72
65
73
6
40
31.75
49
12.7
74
0
49
-6.35
74
0
49
0
74
0
49
-6.35
74
0
49
0
74
0
49
-6.35
74
0
0
LTYPE
5
3C
330
5
100
AcDbSymbolTableRecord
100
AcDbLinetypeTableRecord
2
DIVIDE2
70
0
3
Divide (.5x) __..__..__..__..__..__..__..__.._
72
65
73
6
40
15.875
49
6.35
74
0
49
-3.175
74
0
49
0
74
0
49
-3.175
74
0
49
0
74
0
49
-3.175
74
0
0
LTYPE
5
3D
330
5
100
AcDbSymbolTableRecord
100
AcDbLinetypeTableRecord
2
DIVIDEX2
70
0
3
Divide (2x) ________  .  .  ________  .  .  _
72
65
73
6
40
63.5
49
25.4
74
0
49
-12.7
74
0
49
0
74
0
49
-12.7
74
0
49
0
74
0
49
-12.7
74
0
0
LTYPE
5
3E
330
5
100
AcDbSymbolTableRecord
100
AcDbLinetypeTableRecord
2
BORDER
70
0
3
Border __ __ . __ __ . __ __ . __ __ . __ __ .
72
65
73
6
40
44.45
49
12.7
74
0
49
-6.35
74
0
49
12.7
74
0
49
-6.35
74
0
49
0
74
0
49
-6.35
74
0
0
LTYPE
5
3F
330
5
100
AcDbSymbolTableRecord
100
AcDbLinetypeTableRecord
2
BORDER2
70
0
3
Border (.5x) __.__.__.__.__.__.__.__.__.__.__.
72
65
73
6
40
22.225
49
6.35
74
0
49
-3.175
74
0
49
6.35
74
0
49
-3.175
74
0
49
0
74
0
49
-3.175
74
0
0
LTYPE
5
40
330
5
100
AcDbSymbolTableRecord
100
AcDbLinetypeTableRecord
2
BORDERX2
70
0
3
Border (2x) ____  ____  .  ____  ____  .  ___
72
65
73
6
40
88.9
49
25.4
74
0
49
-12.7
74
0
49
25.4
74
0
49
-12.7
74
0
49
0
74
0
49
-12.7
74
0
0
LTYPE
5
41
330
5
100
AcDbSymbolTableRecord
100
AcDbLinetypeTableRecord
2
CENTER
70
0
3
Center ____ _ ____ _ ____ _ ____ _ ____ _ ____
72
65
73
4
40
50.8
49
31.75
74
0
49
-6.35
74
0
49
6.35
74
0
49
-6.35
74
0
0
LTYPE
5
42
330
5
100
AcDbSymbolTableRecord
100
AcDbLinetypeTableRecord
2
CENTER2
70
0
3
Center (.5x) ___ _ ___ _ ___ _ ___ _ ___ _ ___
72
65
73
4
40
28.575
49
19.05
74
0
49
-3.175
74
0
49
3.175
74
0
49
-3.175
74
0
0
LTYPE
5
43
330
5
100
AcDbSymbolTableRecord
100
AcDbLinetypeTableRecord
2
CENTERX2
70
0
3
Center (2x) ________  __  ________  __  _____
72
65
73
4
40
101.6
49
63.5
74
0
49
-12.7
74
0
49
12.7
74
0
49
-12.7
74
0
0
ENDTAB
0
TABLE
2
LAYER
5
2
330
0
100
AcDbSymbolTable
70
1
0
LAYER
5
10
330
2
100
AcDbSymbolTableRecord
100
AcDbLayerTableRecord
2
0
70
0
62
7
6
CONTINUOUS
370
25
390
F
0
LAYER
5
44
330
2
100
AcDbSymbolTableRecord
100
AcDbLayerTableRecord
2
base
70
0
62
7
6
CENTER
370
0
390
F
0
LAYER
5
45
330
2
100
AcDbSymbolTableRecord
100
AcDbLayerTableRecord
2
base2
70
0
62
7
6
CONTINUOUS
370
0
390
F
0
LAYER
5
46
330
2
100
AcDbSymbolTableRecord
100
AcDbLayerTableRecord
2
dim
70
0
62
7
6
CONTINUOUS
370
0
390
F
0
ENDTAB
0
TABLE
2
STYLE
5
3
330
0
100
AcDbSymbolTable
70
3
0
STYLE
5
47
330
2
100
AcDbSymbolTableRecord
100
AcDbTextStyleTableRecord
2
cyrillic_ii
70
0
40
0
41
1
50
0
71
0
42
1
3
cyrillic_ii
4

0
STYLE
5
48
330
2
100
AcDbSymbolTableRecord
100
AcDbTextStyleTableRecord
2
Standard
70
0
40
0
41
1
50
0
71
0
42
1
3
txt
4

0
ENDTAB
0
TABLE
2
VIEW
5
6
330
0
100
AcDbSymbolTable
70
0
0
ENDTAB
0
TABLE
2
UCS
5
7
330
0
100
AcDbSymbolTable
70
0
0
ENDTAB
0
TABLE
2
APPID
5
9
330
0
100
AcDbSymbolTable
70
1
0
APPID
5
12
330
9
100
AcDbSymbolTableRecord
100
AcDbRegAppTableRecord
2
ACAD
70
0
0
ENDTAB
0
TABLE
2
DIMSTYLE
5
A
330
0
100
AcDbSymbolTable
70
1
100
AcDbDimStyleTable
71
1
0
DIMSTYLE
105
49
330
A
100
AcDbSymbolTableRecord
100
AcDbDimStyleTableRecord
2
Standard
70
0
40
1
41
2.5
42
0.625
43
0.38
44
1.25
45
0
46
0
47
0
48
0
140
2.5
141
0.09
142
0
143
25.4
144
1
145
0
146
1
147
0.625
148
0
71
0
72
0
73
0
74
1
75
0
76
0
77
0
78
0
79
0
170
0
171
2
172
0
173
0
174
0
175
0
176
0
177
0
178
0
179
0
271
4
272
4
273
2
274
2
275
0
276
0
277
2
278
46
279
0
280
0
281
0
282
0
283
1
284
0
285
0
286
0
288
0
289
3
340
Standard
341

371
-2
372
-2
0
ENDTAB
0
TABLE
2
BLOCK_RECORD
5
1
330
0
100
AcDbSymbolTable
70
2
0
BLOCK_RECORD
5
1F
330
1
100
AcDbSymbolTableRecord
100
AcDbBlockTableRecord
2
*Model_Space
70
0
280
1
281
0
0
BLOCK_RECORD
5
1E
330
1
100
AcDbSymbolTableRecord
100
AcDbBlockTableRecord
2
*Paper_Space
70
0
280
1
281
0
0
BLOCK_RECORD
5
4A
330
1
100
AcDbSymbolTableRecord
100
AcDbBlockTableRecord
2
*D3
70
0
280
1
281
0
0
BLOCK_RECORD
5
4D
330
1
100
AcDbSymbolTableRecord
100
AcDbBlockTableRecord
2
*D2
70
0
280
1
281
0
0
BLOCK_RECORD
5
50
330
1
100
AcDbSymbolTableRecord
100
AcDbBlockTableRecord
2
*D1
70
0
280
1
281
0
0
BLOCK_RECORD
5
53
330
1
100
AcDbSymbolTableRecord
100
AcDbBlockTableRecord
2
*D4
70
0
280
1
281
0
0
BLOCK_RECORD
5
56
330
1
100
AcDbSymbolTableRecord
100
AcDbBlockTableRecord
2
*D5
70
0
280
1
281
0
0
BLOCK_RECORD
5
59
330
1
100
AcDbSymbolTableRecord
100
AcDbBlockTableRecord
2
*D6
70
0
280
1
281
0
0
BLOCK_RECORD
5
5C
330
1
100
AcDbSymbolTableRecord
100
AcDbBlockTableRecord
2
*D7
70
0
280
1
281
0
0
BLOCK_RECORD
5
5F
330
1
100
AcDbSymbolTableRecord
100
AcDbBlockTableRecord
2
PAD002001_PROJ
70
0
280
1
281
0
0
BLOCK_RECORD
5
62
330
1
100
AcDbSymbolTableRecord
100
AcDbBlockTableRecord
2
PAD002001_PROJ002
70
0
280
1
281
0
0
BLOCK_RECORD
5
65
330
1
100
AcDbSymbolTableRecord
100
AcDbBlockTableRecord
2
PAD002001_PROJ001
70
0
280
1
281
0
0
ENDTAB
0
ENDSEC
0
SECTION
2
BLOCKS
0
BLOCK
5
20
330
1F
100
AcDbEntity
8
0
100
AcDbBlockBegin
2
*Model_Space
70
0
10
0
20
0
30
0
3
*Model_Space
1

0
ENDBLK
5
21
330
1F
100
AcDbEntity
8
0
100
AcDbBlockEnd
0
BLOCK
5
1C
330
1B
100
AcDbEntity
8
0
100
AcDbBlockBegin
2
*Paper_Space
70
0
10
0
20
0
30
0
3
*Paper_Space
1

0
ENDBLK
5
1D
330
1F
100
AcDbEntity
8
0
100
AcDbBlockEnd
0
BLOCK
5
4B
330
4A
100
AcDbEntity
8
0
100
AcDbBlockBegin
2
*D3
70
1
10
0
20
0
3
*D3
1

0
LINE
5
68
100
AcDbEntity
8
dim
6
CONTINUOUS
62
7
370
0
100
AcDbLine
10
-39.97696
20
-6
11
-39.97696
21
6
0
SOLID
5
69
100
AcDbEntity
8
dim
6
CONTINUOUS
62
7
370
0
100
AcDbTrace
10
-39.97696
20
-6
30
0
11
-40.3932446578
21
-3.5
31
0
12
-39.5606753422
22
-3.5
32
0
13
-39.5606753422
23
-3.5
33
0
0
SOLID
5
6A
100
AcDbEntity
8
dim
6
CONTINUOUS
62
7
370
0
100
AcDbTrace
10
-39.97696
20
6
30
0
11
-39.5606753422
21
3.5
31
0
12
-40.3932446578
22
3.5
32
0
13
-40.3932446578
23
3.5
33
0
0
MTEXT
5
6B
100
AcDbEntity
8
dim
6
CONTINUOUS
62
7
370
0
100
AcDbMText
10
-41.85196
20
1.11779211104e-15
30
0
40
2.5
41
5
71
5
72
1
1
%%C12
7
standard
210
0
220
0
230
1
50
90
73
2
44
1
0
LINE
5
6C
100
AcDbEntity
8
dim
6
CONTINUOUS
62
7
370
0
100
AcDbLine
10
-30.625
20
-6
11
-41.22696
21
-6
0
LINE
5
6D
100
AcDbEntity
8
dim
6
CONTINUOUS
62
7
370
0
100
AcDbLine
10
-30.625
20
6
11
-41.22696
21
6
0
ENDBLK
5
4C
330
4A
100
AcDbEntity
8
0
100
AcDbBlockEnd
0
BLOCK
5
4E
330
4D
100
AcDbEntity
8
0
100
AcDbBlockBegin
2
*D2
70
1
10
0
20
0
3
*D2
1

0
LINE
5
6E
100
AcDbEntity
8
dim
6
CONTINUOUS
62
7
370
0
100
AcDbLine
10
-33.01376
20
7.5
11
-33.01376
21
-7.5
0
SOLID
5
6F
100
AcDbEntity
8
dim
6
CONTINUOUS
62
7
370
0
100
AcDbTrace
10
-33.01376
20
2.5
30
0
11
-33.4300446578
21
5
31
0
12
-32.5974753422
22
5
32
0
13
-32.5974753422
23
5
33
0
0
SOLID
5
70
100
AcDbEntity
8
dim
6
CONTINUOUS
62
7
370
0
100
AcDbTrace
10
-33.01376
20
-2.5
30
0
11
-32.5974753422
21
-5
31
0
12
-33.4300446578
22
-5
32
0
13
-33.4300446578
23
-5
33
0
0
MTEXT
5
71
100
AcDbEntity
8
dim
6
CONTINUOUS
62
7
370
0
100
AcDbMText
10
-34.88876
20
2.29613691342e-16
30
0
40
2.5
41
3.61111111111
71
5
72
1
1
%%C5
7
standard
210
0
220
0
230
1
50
90
73
2
44
1
0
LINE
5
72
100
AcDbEntity
8
dim
6
CONTINUOUS
62
7
370
0
100
AcDbLine
10
-30.625
20
2.5
11
-34.26376
21
2.5
0
LINE
5
73
100
AcDbEntity
8
dim
6
CONTINUOUS
62
7
370
0
100
AcDbLine
10
-30.625
20
-2.5
11
-34.26376
21
-2.5
0
ENDBLK
5
4F
330
4D
100
AcDbEntity
8
0
100
AcDbBlockEnd
0
BLOCK
5
51
330
50
100
AcDbEntity
8
0
100
AcDbBlockBegin
2
*D1
70
1
10
0
20
0
3
*D1
1

0
LINE
5
74
100
AcDbEntity
8
dim
6
CONTINUOUS
62
7
370
0
100
AcDbLine
10
-30
20
-10.97728
11
-20
21
-10.97728
0
SOLID
5
75
100
AcDbEntity
8
dim
6
CONTINUOUS
62
7
370
0
100
AcDbTrace
10
-30
20
-10.97728
30
0
11
-27.5
21
-10.5609953422
31
0
12
-27.5
22
-11.3935646578
32
0
13
-27.5
23
-11.3935646578
33
0
0
SOLID
5
76
100
AcDbEntity
8
dim
6
CONTINUOUS
62
7
370
0
100
AcDbTrace
10
-20
20
-10.97728
30
0
11
-22.5
21
-11.3935646578
31
0
12
-22.5
22
-10.5609953422
32
0
13
-22.5
23
-10.5609953422
33
0
0
MTEXT
5
77
100
AcDbEntity
8
dim
6
CONTINUOUS
62
7
370
0
100
AcDbMText
10
-25
20
-9.10228
30
0
40
2.5
41
2.5
71
5
72
1
1
10
7
standard
210
0
220
0
230
1
50
0
73
2
44
1
0
LINE
5
78
100
AcDbEntity
8
dim
6
CONTINUOUS
62
7
370
0
100
AcDbLine
10
-30
20
-3.125
11
-30
21
-12.22728
0
LINE
5
79
100
AcDbEntity
8
dim
6
CONTINUOUS
62
7
370
0
100
AcDbLine
10
-20
20
-2.375
11
-20
21
-12.22728
0
ENDBLK
5
52
330
50
100
AcDbEntity
8
0
100
AcDbBlockEnd
0
BLOCK
5
54
330
53
100
AcDbEntity
8
0
100
AcDbBlockBegin
2
*D4
70
1
10
0
20
0
3
*D4
1

0
LINE
5
7A
100
AcDbEntity
8
dim
6
CONTINUOUS
62
7
370
0
100
AcDbLine
10
-1.5999999988e-05
20
10
11
11.999994087
21
10
0
SOLID
5
7B
100
AcDbEntity
8
dim
6
CONTINUOUS
62
7
370
0
100
AcDbTrace
10
-1.5999999988e-05
20
10
30
0
11
2.499984
21
10.4162846578
31
0
12
2.499984
22
9.58371534223
32
0
13
2.499984
23
9.58371534223
33
0
0
SOLID
5
7C
100
AcDbEntity
8
dim
6
CONTINUOUS
62
7
370
0
100
AcDbTrace
10
11.999994087
20
10
30
0
11
9.49999408696
21
9.58371534223
31
0
12
9.49999408696
22
10.4162846578
32
0
13
9.49999408696
23
10.4162846578
33
0
0
MTEXT
5
7D
100
AcDbEntity
8
dim
6
CONTINUOUS
62
7
370
0
100
AcDbMText
10
5.99998904348
20
11.875
30
0
40
2.5
41
2.5
71
5
72
1
1
12
7
standard
210
0
220
0
230
1
50
0
73
2
44
1
0
LINE
5
7E
100
AcDbEntity
8
dim
6
CONTINUOUS
62
7
370
0
100
AcDbLine
10
-1.5999999988e-05
20
4.625008
11
-1.59999999879e-05
21
11.25
0
LINE
5
7F
100
AcDbEntity
8
dim
6
CONTINUOUS
62
7
370
0
100
AcDbLine
10
11.999994087
20
4.625
11
11.999994087
21
11.25
0
ENDBLK
5
55
330
53
100
AcDbEntity
8
0
100
AcDbBlockEnd
0
BLOCK
5
57
330
56
100
AcDbEntity
8
0
100
AcDbBlockBegin
2
*D5
70
1
10
0
20
0
3
*D5
1

0
LINE
5
80
100
AcDbEntity
8
dim
6
CONTINUOUS
62
7
370
0
100
AcDbLine
10
-30
20
15
11
11.999994087
21
15
0
SOLID
5
81
100
AcDbEntity
8
dim
6
CONTINUOUS
62
7
370
0
100
AcDbTrace
10
-30
20
15
30
0
11
-27.5
21
15.4162846578
31
0
12
-27.5
22
14.5837153422
32
0
13
-27.5
23
14.5837153422
33
0
0
SOLID
5
82
100
AcDbEntity
8
dim
6
CONTINUOUS
62
7
370
0
100
AcDbTrace
10
11.999994087
20
15
30
0
11
9.49999408696
21
14.5837153422
31
0
12
9.49999408696
22
15.4162846578
32
0
13
9.49999408696
23
15.4162846578
33
0
0
MTEXT
5
83
100
AcDbEntity
8
dim
6
CONTINUOUS
62
7
370
0
100
AcDbMText
10
-9.00000295652
20
16.875
30
0
40
2.5
41
3.33333333333
71
5
72
1
1
42
7
standard
210
0
220
0
230
1
50
0
73
2
44
1
0
LINE
5
84
100
AcDbEntity
8
dim
6
CONTINUOUS
62
7
370
0
100
AcDbLine
10
-30
20
6.625
11
-30
21
16.25
0
LINE
5
85
100
AcDbEntity
8
dim
6
CONTINUOUS
62
7
370
0
100
AcDbLine
10
11.999994087
20
4.625
11
11.999994087
21
16.25
0
ENDBLK
5
58
330
56
100
AcDbEntity
8
0
100
AcDbBlockEnd
0
BLOCK
5
5A
330
59
100
AcDbEntity
8
0
100
AcDbBlockBegin
2
*D6
70
1
10
0
20
0
3
*D6
1

0
LINE
5
86
100
AcDbEntity
8
dim
6
CONTINUOUS
62
7
370
0
100
AcDbLine
10
17
20
6
11
17
21
-6
0
SOLID
5
87
100
AcDbEntity
8
dim
6
CONTINUOUS
62
7
370
0
100
AcDbTrace
10
17
20
1
30
0
11
16.5837153422
21
3.5
31
0
12
17.4162846578
22
3.5
32
0
13
17.4162846578
23
3.5
33
0
0
SOLID
5
88
100
AcDbEntity
8
dim
6
CONTINUOUS
62
7
370
0
100
AcDbTrace
10
17
20
-1
30
0
11
17.4162846578
21
-3.5
31
0
12
16.5837153422
22
-3.5
32
0
13
16.5837153422
23
-3.5
33
0
0
MTEXT
5
89
100
AcDbEntity
8
dim
6
CONTINUOUS
62
7
370
0
100
AcDbMText
10
15.125
20
2.2962127484e-16
30
0
40
2.5
41
1.11111111111
71
5
72
1
1
2
7
standard
210
0
220
0
230
1
50
90
73
2
44
1
0
LINE
5
8A
100
AcDbEntity
8
dim
6
CONTINUOUS
62
7
370
0
100
AcDbLine
10
12.625
20
1
11
18.25
21
1
0
LINE
5
8B
100
AcDbEntity
8
dim
6
CONTINUOUS
62
7
370
0
100
AcDbLine
10
12.625
20
-1
11
18.25
21
-1
0
ENDBLK
5
5B
330
59
100
AcDbEntity
8
0
100
AcDbBlockEnd
0
BLOCK
5
5D
330
5C
100
AcDbEntity
8
0
100
AcDbBlockBegin
2
*D7
70
1
10
0
20
0
3
*D7
1

0
LINE
5
8C
100
AcDbEntity
8
dim
6
CONTINUOUS
62
7
370
0
100
AcDbLine
10
23
20
-4
11
23
21
4
0
SOLID
5
8D
100
AcDbEntity
8
dim
6
CONTINUOUS
62
7
370
0
100
AcDbTrace
10
23
20
-4
30
0
11
22.5837153422
21
-1.5
31
0
12
23.4162846578
22
-1.5
32
0
13
23.4162846578
23
-1.5
33
0
0
SOLID
5
8E
100
AcDbEntity
8
dim
6
CONTINUOUS
62
7
370
0
100
AcDbTrace
10
23
20
4
30
0
11
23.4162846578
21
1.5
31
0
12
22.5837153422
22
1.5
32
0
13
22.5837153422
23
1.5
33
0
0
MTEXT
5
8F
100
AcDbEntity
8
dim
6
CONTINUOUS
62
7
370
0
100
AcDbMText
10
21.125
20
7.5766699151e-18
30
0
40
2.5
41
3.61111111111
71
5
72
1
1
M8
7
standard
210
0
220
0
230
1
50
90
73
2
44
1
0
LINE
5
90
100
AcDbEntity
8
dim
6
CONTINUOUS
62
7
370
0
100
AcDbLine
10
12.625
20
-4
11
24.25
21
-4
0
LINE
5
91
100
AcDbEntity
8
dim
6
CONTINUOUS
62
7
370
0
100
AcDbLine
10
12.624994087
20
4
11
24.25
21
4
0
ENDBLK
5
5E
330
5C
100
AcDbEntity
8
0
100
AcDbBlockEnd
0
BLOCK
5
60
330
5F
100
AcDbEntity
8
0
100
AcDbBlockBegin
2
PAD002001_PROJ
70
0
10
0
20
0
3
PAD002001_PROJ
1

0
LWPOLYLINE
5
92
100
AcDbEntity
8
0
6
ByLayer
62
0
370
-1
100
AcDbPolyline
90
2
70
0
43
0
10
-30
20
6
10
-30
20
-6
0
LINE
5
93
100
AcDbEntity
8
0
6
ByLayer
62
0
370
-1
100
AcDbLine
10
-30
20
-6
11
0
21
-6
0
LWPOLYLINE
5
94
100
AcDbEntity
8
0
6
ByLayer
62
0
370
-1
100
AcDbPolyline
90
2
70
0
43
0
10
-7.347636e-16
20
6
10
7.347636e-16
20
-6
0
LINE
5
95
100
AcDbEntity
8
0
6
ByLayer
62
0
370
-1
100
AcDbLine
10
0
20
6
11
-30
21
6
0
LWPOLYLINE
5
96
100
AcDbEntity
8
0
6
ByLayer
62
0
370
-1
100
AcDbPolyline
90
2
70
0
43
0
10
12
20
4
10
12
20
-4
0
LINE
5
97
100
AcDbEntity
8
0
6
ByLayer
62
0
370
-1
100
AcDbLine
10
12
20
4
11
-4.89842e-16
21
4
0
LINE
5
98
100
AcDbEntity
8
0
6
ByLayer
62
0
370
-1
100
AcDbLine
10
0
20
-4
11
12
21
-4
0
ENDBLK
5
61
330
5F
100
AcDbEntity
8
0
100
AcDbBlockEnd
0
BLOCK
5
63
330
62
100
AcDbEntity
8
0
100
AcDbBlockBegin
2
PAD002001_PROJ002
70
0
10
0
20
0
3
PAD002001_PROJ002
1

0
CIRCLE
5
99
100
AcDbEntity
8
0
6
ByLayer
62
0
370
-1
100
AcDbCircle
10
-3.673818e-15
20
0
40
6
0
CIRCLE
5
9A
100
AcDbEntity
8
0
6
ByLayer
62
0
370
-1
100
AcDbCircle
10
-5.1433452e-15
20
0
40
4
0
CIRCLE
5
9B
100
AcDbEntity
8
0
6
ByLayer
62
256
370
-1
100
AcDbCircle
10
0
20
0
40
1
0
ENDBLK
5
64
330
62
100
AcDbEntity
8
0
100
AcDbBlockEnd
0
BLOCK
5
66
330
65
100
AcDbEntity
8
0
100
AcDbBlockBegin
2
PAD002001_PROJ001
70
0
10
0
20
0
3
PAD002001_PROJ001
1

0
CIRCLE
5
9C
100
AcDbEntity
8
0
6
ByLayer
62
0
370
-1
100
AcDbCircle
10
0
20
0
40
2.5
0
CIRCLE
5
9D
100
AcDbEntity
8
0
6
ByLayer
62
0
370
-1
100
AcDbCircle
10
0
20
0
40
6
0
CIRCLE
5
9E
100
AcDbEntity
8
0
6
ByLayer
62
256
370
-1
100
AcDbCircle
10
0
20
0
40
1
0
ENDBLK
5
67
330
65
100
AcDbEntity
8
0
100
AcDbBlockEnd
0
ENDSEC
0
SECTION
2
ENTITIES
0
HATCH
5
9F
100
AcDbEntity
8
base2
6
ByLayer
62
256
370
-1
100
AcDbHatch
10
0
20
0
30
0
210
0
220
0
230
1
2
ansi31
70
0
71
0
91
1
92
0
93
8
72
1
10
-30
20
-2.5
11
-20
21
-2.5
72
1
10
-20
20
-2.5
11
-20
21
-1
72
1
10
-20
20
-1
11
12
21
-1
72
1
10
12
20
-1
11
12
21
-4
72
1
10
12
20
-4
11
4.89842e-16
21
-4
72
1
10
4.898424e-16
20
-4
11
7.347636e-16
21
-6
72
1
10
7.347636e-16
20
-6
11
-30
21
-6
72
1
10
-30
20
-6
11
-30
21
-2.5
97
0
75
0
76
1
52
0
41
1
77
0
78
0
98
0
0
HATCH
5
A0
100
AcDbEntity
8
base2
6
ByLayer
62
256
370
-1
100
AcDbHatch
10
0
20
0
30
0
210
0
220
0
230
1
2
ansi31
70
0
71
0
91
1
92
0
93
8
72
1
10
-30
20
2.5
11
-20
21
2.5
72
1
10
-20
20
2.5
11
-20
21
1
72
1
10
-20
20
1
11
12
21
1
72
1
10
12
20
1
11
12
21
4
72
1
10
12
20
4
11
-4.89842e-16
21
4
72
1
10
-4.898424e-16
20
4
11
-7.347636e-16
21
6
72
1
10
-7.347636e-16
20
6
11
-30
21
6
72
1
10
-30
20
6
11
-30
21
2.5
97
0
75
0
76
1
52
0
41
1
77
0
78
0
98
0
0
INSERT
5
A1
100
AcDbEntity
8
0
6
ByLayer
62
256
370
-1
100
AcDbBlockReference
2
PAD002001_PROJ
10
0
20
0
30
0
41
1
42
1
43
0
50
0
70
1
71
1
44
0
45
0
0
INSERT
5
A2
100
AcDbEntity
8
0
6
ByLayer
62
256
370
-1
100
AcDbBlockReference
2
PAD002001_PROJ001
10
-53
20
0
30
0
41
1
42
1
43
0
50
0
70
1
71
1
44
0
45
0
0
INSERT
5
A3
100
AcDbEntity
8
0
6
ByLayer
62
256
370
-1
100
AcDbBlockReference
2
PAD002001_PROJ002
10
35
20
0
30
0
41
1
42
1
43
0
50
0
70
1
71
1
44
0
45
0
0
LINE
5
A4
100
AcDbEntity
8
base
6
ByLayer
62
256
370
-1
100
AcDbLine
10
-60
20
0
11
42
21
0
0
LINE
5
A5
100
AcDbEntity
8
base
6
ByLayer
62
256
370
-1
100
AcDbLine
10
-53
20
-8
11
-53
21
8
0
LINE
5
A6
100
AcDbEntity
8
base
6
ByLayer
62
256
370
-1
100
AcDbLine
10
35
20
8
11
35
21
-8
0
LINE
5
A7
100
AcDbEntity
8
base2
6
ByLayer
62
256
370
-1
100
AcDbLine
10
-30
20
2.5
11
-20
21
2.5
0
LINE
5
A8
100
AcDbEntity
8
base2
6
ByLayer
62
256
370
-1
100
AcDbLine
10
-4.898424e-16
20
4
11
-7.347636e-16
21
6
0
LINE
5
A9
100
AcDbEntity
8
base2
6
ByLayer
62
256
370
-1
100
AcDbLine
10
-7.347636e-16
20
6
11
-30
21
6
0
LINE
5
AA
100
AcDbEntity
8
base2
6
ByLayer
62
256
370
-1
100
AcDbLine
10
-30
20
6
11
-30
21
2.5
0
LINE
5
AB
100
AcDbEntity
8
base2
6
ByLayer
62
256
370
-1
100
AcDbLine
10
-30
20
-2.5
11
-20
21
-2.5
0
LINE
5
AC
100
AcDbEntity
8
base2
6
ByLayer
62
256
370
-1
100
AcDbLine
10
4.898424e-16
20
-4
11
7.347636e-16
21
-6
0
LINE
5
AD
100
AcDbEntity
8
base2
6
ByLayer
62
256
370
-1
100
AcDbLine
10
7.347636e-16
20
-6
11
-30
21
-6
0
LINE
5
AE
100
AcDbEntity
8
base2
6
ByLayer
62
256
370
-1
100
AcDbLine
10
-30
20
-6
11
-30
21
-2.5
0
DIMENSION
5
AF
100
AcDbEntity
8
dim
6
ByLayer
62
256
370
-1
100
AcDbDimension
2
*D1
10
-20
20
-10.97728
30
0
11
-25
21
-9.10228
31
0
70
32
71
5
72
0
3
Standard
53
0
210
0
220
0
230
1
100
AcDbAlignedDimension
13
-30
23
-2.5
33
0
14
-20
24
-1.75
34
0
100
AcDbRotatedDimension
0
DIMENSION
5
B0
100
AcDbEntity
8
dim
6
ByLayer
62
256
370
-1
100
AcDbDimension
2
*D2
10
-33.01376
20
-2.5
30
0
11
-34.88876
21
2.29613691342e-16
31
0
70
32
1
%%C<>
71
5
72
0
3
Standard
53
0
210
0
220
0
230
1
100
AcDbAlignedDimension
13
-30
23
2.5
33
0
14
-30
24
-2.5
34
0
50
90
100
AcDbRotatedDimension
0
DIMENSION
5
B1
100
AcDbEntity
8
dim
6
ByLayer
62
256
370
-1
100
AcDbDimension
2
*D3
10
-39.97696
20
6
30
0
11
-41.85196
21
1.11779211104e-15
31
0
70
32
1
%%C<>
71
5
72
0
3
Standard
53
0
210
0
220
0
230
1
100
AcDbAlignedDimension
13
-30
23
-6
33
0
14
-30
24
6
34
0
50
90
100
AcDbRotatedDimension
0
MTEXT
5
B2
100
AcDbEntity
8
base2
6
ByLayer
62
256
370
-1
100
AcDbMText
10
-9.4558264199
20
-9.33762858965
30
0
40
2
41
42.1111111111
71
1
72
1
1
Резьбу до упора не доводить
7
cyrillic_ii
210
0
220
0
230
1
50
0
73
2
44
1
0
LINE
5
B3
100
AcDbEntity
8
base2
6
ByLayer
62
256
370
-1
100
AcDbLine
10
-20
20
1
11
-20
21
-1
0
LINE
5
B4
100
AcDbEntity
8
base2
6
ByLayer
62
256
370
-1
100
AcDbLine
10
-20
20
2.5
11
-20
21
1
0
LINE
5
B5
100
AcDbEntity
8
base2
6
ByLayer
62
256
370
-1
100
AcDbLine
10
-20
20
-2.5
11
-20
21
-1
0
LINE
5
B6
100
AcDbEntity
8
base2
6
ByLayer
62
256
370
-1
100
AcDbLine
10
12
20
1
11
12
21
4
0
LINE
5
B7
100
AcDbEntity
8
base2
6
ByLayer
62
256
370
-1
100
AcDbLine
10
-20
20
1
11
12
21
1
0
LINE
5
B8
100
AcDbEntity
8
base2
6
ByLayer
62
256
370
-1
100
AcDbLine
10
12
20
4
11
-4.89842e-16
21
4
0
LINE
5
B9
100
AcDbEntity
8
base2
6
ByLayer
62
256
370
-1
100
AcDbLine
10
12
20
-1
11
12
21
-4
0
LINE
5
BA
100
AcDbEntity
8
base2
6
ByLayer
62
256
370
-1
100
AcDbLine
10
-20
20
-1
11
12
21
-1
0
LINE
5
BB
100
AcDbEntity
8
base2
6
ByLayer
62
256
370
-1
100
AcDbLine
10
12
20
-4
11
4.89842e-16
21
-4
0
DIMENSION
5
BC
100
AcDbEntity
8
dim
6
ByLayer
62
256
370
-1
100
AcDbDimension
2
*D4
10
11.999994087
20
10
30
0
11
5.99998904348
21
11.875
31
0
70
32
71
5
3
Standard
53
0
210
0
220
0
230
1
100
AcDbAlignedDimension
13
-1.5999999988e-05
23
4.000008
33
0
14
11.999994087
24
4
34
0
100
AcDbRotatedDimension
0
DIMENSION
5
BD
100
AcDbEntity
8
dim
6
ByLayer
62
256
370
-1
100
AcDbDimension
2
*D5
10
11.999994087
20
15
30
0
11
-9.00000295652
21
16.875
31
0
70
32
71
5
3
Standard
53
0
210
0
220
0
230
1
100
AcDbAlignedDimension
13
-30
23
6
33
0
14
11.999994087
24
4
34
0
100
AcDbRotatedDimension
0
DIMENSION
5
BE
100
AcDbEntity
8
dim
6
ByLayer
62
256
370
-1
100
AcDbDimension
2
*D6
10
17
20
-1
30
0
11
15.125
21
2.2962127484e-16
31
0
70
32
71
5
3
Standard
53
0
210
0
220
0
230
1
100
AcDbAlignedDimension
13
12
23
1
33
0
14
12
24
-1
34
0
50
90
100
AcDbRotatedDimension
0
DIMENSION
5
BF
100
AcDbEntity
8
dim
6
ByLayer
62
256
370
-1
100
AcDbDimension
2
*D7
10
23
20
4
30
0
11
21.125
21
7.5766699151e-18
31
0
70
32
1
M8
71
5
3
Standard
53
0
210
0
220
0
230
1
100
AcDbAlignedDimension
13
12
23
-4
33
0
14
11.999994087
24
4
34
0
50
90
100
AcDbRotatedDimension
0
ENDSEC
0
SECTION
2
OBJECTS
0
DICTIONARY
5
C
330
0
100
AcDbDictionary
281
1
3
ACAD_GROUP
350
D
0
DICTIONARY
5
D
330
C
100
AcDbDictionary
281
1
0
ENDSEC
0
EOF
