  0
SECTION
  2
BLOCKS
  0
ENDSEC
  0
SECTION
  2
ENTITIES
  0
LINE
  8
0
 10
177.658
 20
15
 11
221.658
 21
15
  0
LINE
  8
0
 10
221.658
 20
15
 11
221.658
 21
0
  0
LINE
  8
0
 10
221.658
 20
0
 11
390.755
 21
0
  0
LINE
  8
0
 10
390.755
 20
0
 11
399.316
 21
25
  0
LINE
  8
0
 10
399.316
 20
25
 11
399.316
 21
90
  0
LINE
  8
0
 10
399.316
 20
90
 11
237.658
 21
370
  0
LINE
  8
0
 10
237.658
 20
370
 11
188.658
 21
370
  0
LINE
  8
0
 10
188.658
 20
370
 11
188.658
 21
350
  0
LINE
  8
0
 10
188.658
 20
350
 11
173.658
 21
350
  0
LINE
  8
0
 10
173.658
 20
350
 11
173.658
 21
370
  0
LINE
  8
0
 10
173.658
 20
370
 11
161.658
 21
370
  0
LINE
  8
0
 10
161.658
 20
370
 11
0
 21
90
  0
LINE
  8
0
 10
0
 20
90
 11
0
 21
25
  0
LINE
  8
0
 10
0
 20
25
 11
8.56163
 21
0
  0
LINE
  8
0
 10
8.56163
 20
0
 11
177.658
 21
0
  0
LINE
  8
0
 10
177.658
 20
0
 11
177.658
 21
15
  0
LINE
  8
0
 10
55
 20
50
 11
35.094
 21
90
  0
LINE
  8
0
 10
35.094
 20
90
 11
173.658
 21
330
  0
LINE
  8
0
 10
173.658
 20
330
 11
225.658
 21
330
  0
LINE
  8
0
 10
225.658
 20
330
 11
364.222
 21
90
  0
LINE
  8
0
 10
364.222
 20
90
 11
344.316
 21
50
  0
LINE
  8
0
 10
344.316
 20
50
 11
55
 21
50
  0
LINE
  8
0
 10
125
 20
118
 11
78.5616
 21
118
  0
LINE
  8
0
 10
78.5616
 20
118
 11
95
 21
70
  0
LINE
  8
0
 10
95
 20
70
 11
125
 21
70
  0
LINE
  8
0
 10
125
 20
70
 11
125
 21
118
  0
LINE
  8
0
 10
195
 20
118
 11
148.562
 21
118
  0
LINE
  8
0
 10
148.562
 20
118
 11
165
 21
70
  0
LINE
  8
0
 10
165
 20
70
 11
195
 21
70
  0
LINE
  8
0
 10
195
 20
70
 11
195
 21
118
  0
LINE
  8
0
 10
380.24
 20
35.0219
 11
379.422
 21
35.1958
  0
LINE
  8
0
 10
379.422
 20
35.1958
 11
378.658
 21
35.5359
  0
LINE
  8
0
 10
378.658
 20
35.5359
 11
377.982
 21
36.0274
  0
LINE
  8
0
 10
377.982
 20
36.0274
 11
377.422
 21
36.6488
  0
LINE
  8
0
 10
377.422
 20
36.6488
 11
377.004
 21
37.373
  0
LINE
  8
0
 10
377.004
 20
37.373
 11
376.745
 21
38.1684
  0
LINE
  8
0
 10
376.745
 20
38.1684
 11
376.658
 21
39
  0
LINE
  8
0
 10
376.658
 20
39
 11
376.745
 21
39.8316
  0
LINE
  8
0
 10
376.745
 20
39.8316
 11
377.004
 21
40.6269
  0
LINE
  8
0
 10
377.004
 20
40.6269
 11
377.422
 21
41.3511
  0
LINE
  8
0
 10
377.422
 20
41.3511
 11
377.982
 21
41.9726
  0
LINE
  8
0
 10
377.982
 20
41.9726
 11
378.658
 21
42.4641
  0
LINE
  8
0
 10
378.658
 20
42.4641
 11
379.422
 21
42.8042
  0
LINE
  8
0
 10
379.422
 20
42.8042
 11
380.24
 21
42.9781
  0
LINE
  8
0
 10
380.24
 20
42.9781
 11
381.076
 21
42.9781
  0
LINE
  8
0
 10
381.076
 20
42.9781
 11
381.894
 21
42.8042
  0
LINE
  8
0
 10
381.894
 20
42.8042
 11
382.658
 21
42.4641
  0
LINE
  8
0
 10
382.658
 20
42.4641
 11
383.335
 21
41.9726
  0
LINE
  8
0
 10
383.335
 20
41.9726
 11
383.894
 21
41.3511
  0
LINE
  8
0
 10
383.894
 20
41.3511
 11
384.312
 21
40.6269
  0
LINE
  8
0
 10
384.312
 20
40.6269
 11
384.571
 21
39.8316
  0
LINE
  8
0
 10
384.571
 20
39.8316
 11
384.658
 21
39
  0
LINE
  8
0
 10
384.658
 20
39
 11
384.571
 21
38.1684
  0
LINE
  8
0
 10
384.571
 20
38.1684
 11
384.312
 21
37.373
  0
LINE
  8
0
 10
384.312
 20
37.373
 11
383.894
 21
36.6488
  0
LINE
  8
0
 10
383.894
 20
36.6488
 11
383.335
 21
36.0274
  0
LINE
  8
0
 10
383.335
 20
36.0274
 11
382.658
 21
35.5359
  0
LINE
  8
0
 10
382.658
 20
35.5359
 11
381.894
 21
35.1958
  0
LINE
  8
0
 10
381.894
 20
35.1958
 11
381.076
 21
35.0219
  0
LINE
  8
0
 10
381.076
 20
35.0219
 11
380.24
 21
35.0219
  0
LINE
  8
0
 10
18.24
 20
35.0219
 11
17.422
 21
35.1958
  0
LINE
  8
0
 10
17.422
 20
35.1958
 11
16.6581
 21
35.5359
  0
LINE
  8
0
 10
16.6581
 20
35.5359
 11
15.9816
 21
36.0274
  0
LINE
  8
0
 10
15.9816
 20
36.0274
 11
15.422
 21
36.6488
  0
LINE
  8
0
 10
15.422
 20
36.6488
 11
15.0039
 21
37.373
  0
LINE
  8
0
 10
15.0039
 20
37.373
 11
14.7455
 21
38.1684
  0
LINE
  8
0
 10
14.7455
 20
38.1684
 11
14.6581
 21
39
  0
LINE
  8
0
 10
14.6581
 20
39
 11
14.7455
 21
39.8316
  0
LINE
  8
0
 10
14.7455
 20
39.8316
 11
15.0039
 21
40.6269
  0
LINE
  8
0
 10
15.0039
 20
40.6269
 11
15.422
 21
41.3511
  0
LINE
  8
0
 10
15.422
 20
41.3511
 11
15.9816
 21
41.9726
  0
LINE
  8
0
 10
15.9816
 20
41.9726
 11
16.6581
 21
42.4641
  0
LINE
  8
0
 10
16.6581
 20
42.4641
 11
17.422
 21
42.8042
  0
LINE
  8
0
 10
17.422
 20
42.8042
 11
18.24
 21
42.9781
  0
LINE
  8
0
 10
18.24
 20
42.9781
 11
19.0762
 21
42.9781
  0
LINE
  8
0
 10
19.0762
 20
42.9781
 11
19.8941
 21
42.8042
  0
LINE
  8
0
 10
19.8941
 20
42.8042
 11
20.6581
 21
42.4641
  0
LINE
  8
0
 10
20.6581
 20
42.4641
 11
21.3346
 21
41.9726
  0
LINE
  8
0
 10
21.3346
 20
41.9726
 11
21.8941
 21
41.3511
  0
LINE
  8
0
 10
21.8941
 20
41.3511
 11
22.3123
 21
40.6269
  0
LINE
  8
0
 10
22.3123
 20
40.6269
 11
22.5707
 21
39.8316
  0
LINE
  8
0
 10
22.5707
 20
39.8316
 11
22.6581
 21
39
  0
LINE
  8
0
 10
22.6581
 20
39
 11
22.5707
 21
38.1684
  0
LINE
  8
0
 10
22.5707
 20
38.1684
 11
22.3123
 21
37.373
  0
LINE
  8
0
 10
22.3123
 20
37.373
 11
21.8941
 21
36.6488
  0
LINE
  8
0
 10
21.8941
 20
36.6488
 11
21.3346
 21
36.0274
  0
LINE
  8
0
 10
21.3346
 20
36.0274
 11
20.6581
 21
35.5359
  0
LINE
  8
0
 10
20.6581
 20
35.5359
 11
19.8941
 21
35.1958
  0
LINE
  8
0
 10
19.8941
 20
35.1958
 11
19.0762
 21
35.0219
  0
LINE
  8
0
 10
19.0762
 20
35.0219
 11
18.24
 21
35.0219
  0
LINE
  8
0
 10
34.24
 20
10.0219
 11
33.422
 21
10.1958
  0
LINE
  8
0
 10
33.422
 20
10.1958
 11
32.6581
 21
10.5359
  0
LINE
  8
0
 10
32.6581
 20
10.5359
 11
31.9816
 21
11.0274
  0
LINE
  8
0
 10
31.9816
 20
11.0274
 11
31.422
 21
11.6488
  0
LINE
  8
0
 10
31.422
 20
11.6488
 11
31.0039
 21
12.373
  0
LINE
  8
0
 10
31.0039
 20
12.373
 11
30.7455
 21
13.1684
  0
LINE
  8
0
 10
30.7455
 20
13.1684
 11
30.6581
 21
14
  0
LINE
  8
0
 10
30.6581
 20
14
 11
30.7455
 21
14.8316
  0
LINE
  8
0
 10
30.7455
 20
14.8316
 11
31.0039
 21
15.6269
  0
LINE
  8
0
 10
31.0039
 20
15.6269
 11
31.422
 21
16.3511
  0
LINE
  8
0
 10
31.422
 20
16.3511
 11
31.9816
 21
16.9726
  0
LINE
  8
0
 10
31.9816
 20
16.9726
 11
32.6581
 21
17.4641
  0
LINE
  8
0
 10
32.6581
 20
17.4641
 11
33.422
 21
17.8042
  0
LINE
  8
0
 10
33.422
 20
17.8042
 11
34.24
 21
17.9781
  0
LINE
  8
0
 10
34.24
 20
17.9781
 11
35.0762
 21
17.9781
  0
LINE
  8
0
 10
35.0762
 20
17.9781
 11
35.8941
 21
17.8042
  0
LINE
  8
0
 10
35.8941
 20
17.8042
 11
36.6581
 21
17.4641
  0
LINE
  8
0
 10
36.6581
 20
17.4641
 11
37.3346
 21
16.9726
  0
LINE
  8
0
 10
37.3346
 20
16.9726
 11
37.8941
 21
16.3511
  0
LINE
  8
0
 10
37.8941
 20
16.3511
 11
38.3123
 21
15.6269
  0
LINE
  8
0
 10
38.3123
 20
15.6269
 11
38.5707
 21
14.8316
  0
LINE
  8
0
 10
38.5707
 20
14.8316
 11
38.6581
 21
14
  0
LINE
  8
0
 10
38.6581
 20
14
 11
38.5707
 21
13.1684
  0
LINE
  8
0
 10
38.5707
 20
13.1684
 11
38.3123
 21
12.373
  0
LINE
  8
0
 10
38.3123
 20
12.373
 11
37.8941
 21
11.6488
  0
LINE
  8
0
 10
37.8941
 20
11.6488
 11
37.3346
 21
11.0274
  0
LINE
  8
0
 10
37.3346
 20
11.0274
 11
36.6581
 21
10.5359
  0
LINE
  8
0
 10
36.6581
 20
10.5359
 11
35.8941
 21
10.1958
  0
LINE
  8
0
 10
35.8941
 20
10.1958
 11
35.0762
 21
10.0219
  0
LINE
  8
0
 10
35.0762
 20
10.0219
 11
34.24
 21
10.0219
  0
LINE
  8
0
 10
364.24
 20
10.0219
 11
363.422
 21
10.1958
  0
LINE
  8
0
 10
363.422
 20
10.1958
 11
362.658
 21
10.5359
  0
LINE
  8
0
 10
362.658
 20
10.5359
 11
361.982
 21
11.0274
  0
LINE
  8
0
 10
361.982
 20
11.0274
 11
361.422
 21
11.6488
  0
LINE
  8
0
 10
361.422
 20
11.6488
 11
361.004
 21
12.373
  0
LINE
  8
0
 10
361.004
 20
12.373
 11
360.745
 21
13.1684
  0
LINE
  8
0
 10
360.745
 20
13.1684
 11
360.658
 21
14
  0
LINE
  8
0
 10
360.658
 20
14
 11
360.745
 21
14.8316
  0
LINE
  8
0
 10
360.745
 20
14.8316
 11
361.004
 21
15.6269
  0
LINE
  8
0
 10
361.004
 20
15.6269
 11
361.422
 21
16.3511
  0
LINE
  8
0
 10
361.422
 20
16.3511
 11
361.982
 21
16.9726
  0
LINE
  8
0
 10
361.982
 20
16.9726
 11
362.658
 21
17.4641
  0
LINE
  8
0
 10
362.658
 20
17.4641
 11
363.422
 21
17.8042
  0
LINE
  8
0
 10
363.422
 20
17.8042
 11
364.24
 21
17.9781
  0
LINE
  8
0
 10
364.24
 20
17.9781
 11
365.076
 21
17.9781
  0
LINE
  8
0
 10
365.076
 20
17.9781
 11
365.894
 21
17.8042
  0
LINE
  8
0
 10
365.894
 20
17.8042
 11
366.658
 21
17.4641
  0
LINE
  8
0
 10
366.658
 20
17.4641
 11
367.335
 21
16.9726
  0
LINE
  8
0
 10
367.335
 20
16.9726
 11
367.894
 21
16.3511
  0
LINE
  8
0
 10
367.894
 20
16.3511
 11
368.312
 21
15.6269
  0
LINE
  8
0
 10
368.312
 20
15.6269
 11
368.571
 21
14.8316
  0
LINE
  8
0
 10
368.571
 20
14.8316
 11
368.658
 21
14
  0
LINE
  8
0
 10
368.658
 20
14
 11
368.571
 21
13.1684
  0
LINE
  8
0
 10
368.571
 20
13.1684
 11
368.312
 21
12.373
  0
LINE
  8
0
 10
368.312
 20
12.373
 11
367.894
 21
11.6488
  0
LINE
  8
0
 10
367.894
 20
11.6488
 11
367.335
 21
11.0274
  0
LINE
  8
0
 10
367.335
 20
11.0274
 11
366.658
 21
10.5359
  0
LINE
  8
0
 10
366.658
 20
10.5359
 11
365.894
 21
10.1958
  0
LINE
  8
0
 10
365.894
 20
10.1958
 11
365.076
 21
10.0219
  0
LINE
  8
0
 10
365.076
 20
10.0219
 11
364.24
 21
10.0219
  0
LINE
  8
0
 10
617.832
 20
2.79231
 11
613.592
 21
9.57671
  0
LINE
  8
0
 10
613.592
 20
9.57671
 11
639.034
 21
25.4743
  0
LINE
  8
0
 10
639.034
 20
25.4743
 11
643.273
 21
18.6899
  0
LINE
  8
0
 10
643.273
 20
18.6899
 11
662.778
 21
30.878
  0
LINE
  8
0
 10
662.778
 20
30.878
 11
634.428
 21
76.2486
  0
LINE
  8
0
 10
634.428
 20
76.2486
 11
620.859
 21
67.7699
  0
LINE
  8
0
 10
620.859
 20
67.7699
 11
612.91
 21
80.4906
  0
LINE
  8
0
 10
612.91
 20
80.4906
 11
626.479
 21
88.9693
  0
LINE
  8
0
 10
626.479
 20
88.9693
 11
480.751
 21
322.183
  0
LINE
  8
0
 10
480.751
 20
322.183
 11
467.182
 21
313.704
  0
LINE
  8
0
 10
467.182
 20
313.704
 11
459.234
 21
326.425
  0
LINE
  8
0
 10
459.234
 20
326.425
 11
472.802
 21
334.903
  0
LINE
  8
0
 10
472.802
 20
334.903
 11
455.05
 21
363.313
  0
LINE
  8
0
 10
455.05
 20
363.313
 11
427.491
 21
369.675
  0
LINE
  8
0
 10
427.491
 20
369.675
 11
424.947
 21
368.086
  0
LINE
  8
0
 10
424.947
 20
368.086
 11
429.186
 21
361.301
  0
LINE
  8
0
 10
429.186
 20
361.301
 11
403.744
 21
345.404
  0
LINE
  8
0
 10
403.744
 20
345.404
 11
399.505
 21
352.188
  0
LINE
  8
0
 10
399.505
 20
352.188
 11
380
 21
340
  0
LINE
  8
0
 10
380
 20
340
 11
408.351
 21
294.629
  0
LINE
  8
0
 10
408.351
 20
294.629
 11
421.919
 21
303.108
  0
LINE
  8
0
 10
421.919
 20
303.108
 11
429.868
 21
290.387
  0
LINE
  8
0
 10
429.868
 20
290.387
 11
416.299
 21
281.909
  0
LINE
  8
0
 10
416.299
 20
281.909
 11
562.027
 21
48.6955
  0
LINE
  8
0
 10
562.027
 20
48.6955
 11
575.596
 21
57.1742
  0
LINE
  8
0
 10
575.596
 20
57.1742
 11
583.545
 21
44.4535
  0
LINE
  8
0
 10
583.545
 20
44.4535
 11
569.976
 21
35.9747
  0
LINE
  8
0
 10
569.976
 20
35.9747
 11
587.728
 21
7.56514
  0
LINE
  8
0
 10
587.728
 20
7.56514
 11
615.288
 21
1.20256
  0
LINE
  8
0
 10
615.288
 20
1.20256
 11
617.832
 21
2.79231
  0
LINE
  8
0
 10
431.673
 20
357.367
 11
431.509
 21
357.629
  0
LINE
  8
0
 10
431.509
 20
357.629
 11
431.531
 21
357.937
  0
LINE
  8
0
 10
431.531
 20
357.937
 11
431.73
 21
358.174
  0
LINE
  8
0
 10
431.73
 20
358.174
 11
432.029
 21
358.249
  0
LINE
  8
0
 10
432.029
 20
358.249
 11
432.316
 21
358.133
  0
LINE
  8
0
 10
432.316
 20
358.133
 11
432.48
 21
357.871
  0
LINE
  8
0
 10
432.48
 20
357.871
 11
432.458
 21
357.563
  0
LINE
  8
0
 10
432.458
 20
357.563
 11
432.26
 21
357.326
  0
LINE
  8
0
 10
432.26
 20
357.326
 11
431.96
 21
357.251
  0
LINE
  8
0
 10
431.96
 20
357.251
 11
431.673
 21
357.367
  0
LINE
  8
0
 10
423.756
 20
324.856
 11
421.43
 21
325.796
  0
LINE
  8
0
 10
421.43
 20
325.796
 11
419.35
 21
327.199
  0
LINE
  8
0
 10
419.35
 20
327.199
 11
417.607
 21
329.004
  0
LINE
  8
0
 10
417.607
 20
329.004
 11
416.943
 21
330.067
  0
LINE
  8
0
 10
416.943
 20
330.067
 11
416.887
 21
330.033
  0
LINE
  8
0
 10
416.887
 20
330.033
 11
410.528
 21
340.209
  0
LINE
  8
0
 10
410.528
 20
340.209
 11
430.881
 21
352.927
  0
LINE
  8
0
 10
430.881
 20
352.927
 11
437.24
 21
342.751
  0
LINE
  8
0
 10
437.24
 20
342.751
 11
437.184
 21
342.716
  0
LINE
  8
0
 10
437.184
 20
342.716
 11
437.849
 21
341.652
  0
LINE
  8
0
 10
437.849
 20
341.652
 11
438.707
 21
339.295
  0
LINE
  8
0
 10
438.707
 20
339.295
 11
439.056
 21
336.81
  0
LINE
  8
0
 10
439.056
 20
336.81
 11
438.881
 21
334.308
  0
LINE
  8
0
 10
438.881
 20
334.308
 11
438.19
 21
331.896
  0
LINE
  8
0
 10
438.19
 20
331.896
 11
437.012
 21
329.681
  0
LINE
  8
0
 10
437.012
 20
329.681
 11
435.399
 21
327.76
  0
LINE
  8
0
 10
435.399
 20
327.76
 11
433.423
 21
326.215
  0
LINE
  8
0
 10
433.423
 20
326.215
 11
431.168
 21
325.115
  0
LINE
  8
0
 10
431.168
 20
325.115
 11
428.734
 21
324.508
  0
LINE
  8
0
 10
428.734
 20
324.508
 11
426.227
 21
324.421
  0
LINE
  8
0
 10
426.227
 20
324.421
 11
423.756
 21
324.856
  0
LINE
  8
0
 10
405.384
 20
340.94
 11
405.22
 21
341.202
  0
LINE
  8
0
 10
405.22
 20
341.202
 11
405.241
 21
341.51
  0
LINE
  8
0
 10
405.241
 20
341.51
 11
405.44
 21
341.747
  0
LINE
  8
0
 10
405.44
 20
341.747
 11
405.74
 21
341.821
  0
LINE
  8
0
 10
405.74
 20
341.821
 11
406.026
 21
341.706
  0
LINE
  8
0
 10
406.026
 20
341.706
 11
406.19
 21
341.444
  0
LINE
  8
0
 10
406.19
 20
341.444
 11
406.169
 21
341.135
  0
LINE
  8
0
 10
406.169
 20
341.135
 11
405.97
 21
340.899
  0
LINE
  8
0
 10
405.97
 20
340.899
 11
405.67
 21
340.824
  0
LINE
  8
0
 10
405.67
 20
340.824
 11
405.384
 21
340.94
  0
LINE
  8
0
 10
448.101
 20
331.078
 11
447.937
 21
331.34
  0
LINE
  8
0
 10
447.937
 20
331.34
 11
447.958
 21
331.648
  0
LINE
  8
0
 10
447.958
 20
331.648
 11
448.157
 21
331.885
  0
LINE
  8
0
 10
448.157
 20
331.885
 11
448.457
 21
331.959
  0
LINE
  8
0
 10
448.457
 20
331.959
 11
448.743
 21
331.844
  0
LINE
  8
0
 10
448.743
 20
331.844
 11
448.907
 21
331.582
  0
LINE
  8
0
 10
448.907
 20
331.582
 11
448.886
 21
331.273
  0
LINE
  8
0
 10
448.886
 20
331.273
 11
448.687
 21
331.037
  0
LINE
  8
0
 10
448.687
 20
331.037
 11
448.387
 21
330.962
  0
LINE
  8
0
 10
448.387
 20
330.962
 11
448.101
 21
331.078
  0
LINE
  8
0
 10
421.811
 20
314.65
 11
421.647
 21
314.912
  0
LINE
  8
0
 10
421.647
 20
314.912
 11
421.669
 21
315.22
  0
LINE
  8
0
 10
421.669
 20
315.22
 11
421.868
 21
315.457
  0
LINE
  8
0
 10
421.868
 20
315.457
 11
422.167
 21
315.532
  0
LINE
  8
0
 10
422.167
 20
315.532
 11
422.454
 21
315.416
  0
LINE
  8
0
 10
422.454
 20
315.416
 11
422.618
 21
315.154
  0
LINE
  8
0
 10
422.618
 20
315.154
 11
422.596
 21
314.846
  0
LINE
  8
0
 10
422.596
 20
314.846
 11
422.398
 21
314.609
  0
LINE
  8
0
 10
422.398
 20
314.609
 11
422.098
 21
314.534
  0
LINE
  8
0
 10
422.098
 20
314.534
 11
421.811
 21
314.65
  0
LINE
  8
0
 10
444.413
 20
307.925
 11
444.316
 21
307.965
  0
LINE
  8
0
 10
444.316
 20
307.965
 11
444.23
 21
308.023
  0
LINE
  8
0
 10
444.23
 20
308.023
 11
444.157
 21
308.098
  0
LINE
  8
0
 10
444.157
 20
308.098
 11
444.102
 21
308.187
  0
LINE
  8
0
 10
444.102
 20
308.187
 11
444.066
 21
308.285
  0
LINE
  8
0
 10
444.066
 20
308.285
 11
444.051
 21
308.389
  0
LINE
  8
0
 10
444.051
 20
308.389
 11
444.059
 21
308.493
  0
LINE
  8
0
 10
444.059
 20
308.493
 11
444.087
 21
308.593
  0
LINE
  8
0
 10
444.087
 20
308.593
 11
444.136
 21
308.686
  0
LINE
  8
0
 10
444.136
 20
308.686
 11
444.204
 21
308.766
  0
LINE
  8
0
 10
444.204
 20
308.766
 11
444.286
 21
308.83
  0
LINE
  8
0
 10
444.286
 20
308.83
 11
444.38
 21
308.876
  0
LINE
  8
0
 10
444.38
 20
308.876
 11
444.481
 21
308.901
  0
LINE
  8
0
 10
444.481
 20
308.901
 11
444.586
 21
308.905
  0
LINE
  8
0
 10
444.586
 20
308.905
 11
444.689
 21
308.887
  0
LINE
  8
0
 10
444.689
 20
308.887
 11
444.786
 21
308.847
  0
LINE
  8
0
 10
444.786
 20
308.847
 11
444.872
 21
308.789
  0
LINE
  8
0
 10
444.872
 20
308.789
 11
444.945
 21
308.714
  0
LINE
  8
0
 10
444.945
 20
308.714
 11
445
 21
308.625
  0
LINE
  8
0
 10
445
 20
308.625
 11
445.036
 21
308.527
  0
LINE
  8
0
 10
445.036
 20
308.527
 11
445.051
 21
308.423
  0
LINE
  8
0
 10
445.051
 20
308.423
 11
445.043
 21
308.319
  0
LINE
  8
0
 10
445.043
 20
308.319
 11
445.014
 21
308.219
  0
LINE
  8
0
 10
445.014
 20
308.219
 11
444.965
 21
308.126
  0
LINE
  8
0
 10
444.965
 20
308.126
 11
444.898
 21
308.046
  0
LINE
  8
0
 10
444.898
 20
308.046
 11
444.816
 21
307.982
  0
LINE
  8
0
 10
444.816
 20
307.982
 11
444.722
 21
307.936
  0
LINE
  8
0
 10
444.722
 20
307.936
 11
444.62
 21
307.911
  0
LINE
  8
0
 10
444.62
 20
307.911
 11
444.516
 21
307.907
  0
LINE
  8
0
 10
444.516
 20
307.907
 11
444.413
 21
307.925
  0
LINE
  8
0
 10
598.09
 20
61.9914
 11
597.993
 21
62.0306
  0
LINE
  8
0
 10
597.993
 20
62.0306
 11
597.906
 21
62.089
  0
LINE
  8
0
 10
597.906
 20
62.089
 11
597.833
 21
62.1642
  0
LINE
  8
0
 10
597.833
 20
62.1642
 11
597.778
 21
62.2529
  0
LINE
  8
0
 10
597.778
 20
62.2529
 11
597.742
 21
62.3511
  0
LINE
  8
0
 10
597.742
 20
62.3511
 11
597.728
 21
62.4546
  0
LINE
  8
0
 10
597.728
 20
62.4546
 11
597.735
 21
62.5589
  0
LINE
  8
0
 10
597.735
 20
62.5589
 11
597.764
 21
62.6593
  0
LINE
  8
0
 10
597.764
 20
62.6593
 11
597.813
 21
62.7516
  0
LINE
  8
0
 10
597.813
 20
62.7516
 11
597.88
 21
62.8317
  0
LINE
  8
0
 10
597.88
 20
62.8317
 11
597.963
 21
62.8961
  0
LINE
  8
0
 10
597.963
 20
62.8961
 11
598.056
 21
62.9419
  0
LINE
  8
0
 10
598.056
 20
62.9419
 11
598.158
 21
62.9672
  0
LINE
  8
0
 10
598.158
 20
62.9672
 11
598.262
 21
62.9708
  0
LINE
  8
0
 10
598.262
 20
62.9708
 11
598.365
 21
62.9527
  0
LINE
  8
0
 10
598.365
 20
62.9527
 11
598.462
 21
62.9135
  0
LINE
  8
0
 10
598.462
 20
62.9135
 11
598.549
 21
62.8551
  0
LINE
  8
0
 10
598.549
 20
62.8551
 11
598.622
 21
62.7799
  0
LINE
  8
0
 10
598.622
 20
62.7799
 11
598.677
 21
62.6912
  0
LINE
  8
0
 10
598.677
 20
62.6912
 11
598.713
 21
62.593
  0
LINE
  8
0
 10
598.713
 20
62.593
 11
598.727
 21
62.4895
  0
LINE
  8
0
 10
598.727
 20
62.4895
 11
598.72
 21
62.3852
  0
LINE
  8
0
 10
598.72
 20
62.3852
 11
598.691
 21
62.2847
  0
LINE
  8
0
 10
598.691
 20
62.2847
 11
598.642
 21
62.1924
  0
LINE
  8
0
 10
598.642
 20
62.1924
 11
598.575
 21
62.1124
  0
LINE
  8
0
 10
598.575
 20
62.1124
 11
598.492
 21
62.048
  0
LINE
  8
0
 10
598.492
 20
62.048
 11
598.398
 21
62.0022
  0
LINE
  8
0
 10
598.398
 20
62.0022
 11
598.297
 21
61.9769
  0
LINE
  8
0
 10
598.297
 20
61.9769
 11
598.193
 21
61.9733
  0
LINE
  8
0
 10
598.193
 20
61.9733
 11
598.09
 21
61.9914
  0
LINE
  8
0
 10
620.324
 20
55.4619
 11
620.161
 21
55.724
  0
LINE
  8
0
 10
620.161
 20
55.724
 11
620.182
 21
56.0323
  0
LINE
  8
0
 10
620.182
 20
56.0323
 11
620.381
 21
56.269
  0
LINE
  8
0
 10
620.381
 20
56.269
 11
620.681
 21
56.3437
  0
LINE
  8
0
 10
620.681
 20
56.3437
 11
620.967
 21
56.228
  0
LINE
  8
0
 10
620.967
 20
56.228
 11
621.131
 21
55.9659
  0
LINE
  8
0
 10
621.131
 20
55.9659
 11
621.109
 21
55.6577
  0
LINE
  8
0
 10
621.109
 20
55.6577
 11
620.911
 21
55.4209
  0
LINE
  8
0
 10
620.911
 20
55.4209
 11
620.611
 21
55.3462
  0
LINE
  8
0
 10
620.611
 20
55.3462
 11
620.324
 21
55.4619
  0
LINE
  8
0
 10
605.538
 20
28.1274
 11
605.594
 21
28.1623
  0
LINE
  8
0
 10
605.594
 20
28.1623
 11
604.929
 21
29.226
  0
LINE
  8
0
 10
604.929
 20
29.226
 11
604.071
 21
31.5834
  0
LINE
  8
0
 10
604.071
 20
31.5834
 11
603.722
 21
34.0677
  0
LINE
  8
0
 10
603.722
 20
34.0677
 11
603.897
 21
36.5702
  0
LINE
  8
0
 10
603.897
 20
36.5702
 11
604.589
 21
38.9817
  0
LINE
  8
0
 10
604.589
 20
38.9817
 11
605.766
 21
41.1968
  0
LINE
  8
0
 10
605.766
 20
41.1968
 11
607.379
 21
43.1185
  0
LINE
  8
0
 10
607.379
 20
43.1185
 11
609.356
 21
44.663
  0
LINE
  8
0
 10
609.356
 20
44.663
 11
611.611
 21
45.7628
  0
LINE
  8
0
 10
611.611
 20
45.7628
 11
614.045
 21
46.3697
  0
LINE
  8
0
 10
614.045
 20
46.3697
 11
616.552
 21
46.4572
  0
LINE
  8
0
 10
616.552
 20
46.4572
 11
619.022
 21
46.0216
  0
LINE
  8
0
 10
619.022
 20
46.0216
 11
621.349
 21
45.0818
  0
LINE
  8
0
 10
621.349
 20
45.0818
 11
623.428
 21
43.679
  0
LINE
  8
0
 10
623.428
 20
43.679
 11
625.171
 21
41.8744
  0
LINE
  8
0
 10
625.171
 20
41.8744
 11
625.836
 21
40.8107
  0
LINE
  8
0
 10
625.836
 20
40.8107
 11
625.891
 21
40.8455
  0
LINE
  8
0
 10
625.891
 20
40.8455
 11
632.25
 21
30.6689
  0
LINE
  8
0
 10
632.25
 20
30.6689
 11
611.897
 21
17.9509
  0
LINE
  8
0
 10
611.897
 20
17.9509
 11
605.538
 21
28.1274
  0
LINE
  8
0
 10
594.035
 20
39.0344
 11
593.871
 21
39.2965
  0
LINE
  8
0
 10
593.871
 20
39.2965
 11
593.893
 21
39.6048
  0
LINE
  8
0
 10
593.893
 20
39.6048
 11
594.091
 21
39.8415
  0
LINE
  8
0
 10
594.091
 20
39.8415
 11
594.391
 21
39.9162
  0
LINE
  8
0
 10
594.391
 20
39.9162
 11
594.678
 21
39.8005
  0
LINE
  8
0
 10
594.678
 20
39.8005
 11
594.841
 21
39.5384
  0
LINE
  8
0
 10
594.841
 20
39.5384
 11
594.82
 21
39.2301
  0
LINE
  8
0
 10
594.82
 20
39.2301
 11
594.621
 21
38.9934
  0
LINE
  8
0
 10
594.621
 20
38.9934
 11
594.321
 21
38.9187
  0
LINE
  8
0
 10
594.321
 20
38.9187
 11
594.035
 21
39.0344
  0
LINE
  8
0
 10
636.752
 20
29.1724
 11
636.588
 21
29.4345
  0
LINE
  8
0
 10
636.588
 20
29.4345
 11
636.61
 21
29.7428
  0
LINE
  8
0
 10
636.61
 20
29.7428
 11
636.808
 21
29.9795
  0
LINE
  8
0
 10
636.808
 20
29.9795
 11
637.108
 21
30.0542
  0
LINE
  8
0
 10
637.108
 20
30.0542
 11
637.395
 21
29.9385
  0
LINE
  8
0
 10
637.395
 20
29.9385
 11
637.558
 21
29.6764
  0
LINE
  8
0
 10
637.558
 20
29.6764
 11
637.537
 21
29.3682
  0
LINE
  8
0
 10
637.537
 20
29.3682
 11
637.338
 21
29.1314
  0
LINE
  8
0
 10
637.338
 20
29.1314
 11
637.038
 21
29.0567
  0
LINE
  8
0
 10
637.038
 20
29.0567
 11
636.752
 21
29.1724
  0
LINE
  8
0
 10
610.462
 20
12.7449
 11
610.299
 21
13.007
  0
LINE
  8
0
 10
610.299
 20
13.007
 11
610.32
 21
13.3153
  0
LINE
  8
0
 10
610.32
 20
13.3153
 11
610.519
 21
13.552
  0
LINE
  8
0
 10
610.519
 20
13.552
 11
610.819
 21
13.6267
  0
LINE
  8
0
 10
610.819
 20
13.6267
 11
611.105
 21
13.511
  0
LINE
  8
0
 10
611.105
 20
13.511
 11
611.269
 21
13.2489
  0
LINE
  8
0
 10
611.269
 20
13.2489
 11
611.247
 21
12.9407
  0
LINE
  8
0
 10
611.247
 20
12.9407
 11
611.049
 21
12.7039
  0
LINE
  8
0
 10
611.049
 20
12.7039
 11
610.749
 21
12.6292
  0
LINE
  8
0
 10
610.749
 20
12.6292
 11
610.462
 21
12.7449
  0
LINE
  8
0
 10
507.832
 20
2.79231
 11
503.592
 21
9.57671
  0
LINE
  8
0
 10
503.592
 20
9.57671
 11
529.034
 21
25.4743
  0
LINE
  8
0
 10
529.034
 20
25.4743
 11
533.273
 21
18.6899
  0
LINE
  8
0
 10
533.273
 20
18.6899
 11
552.778
 21
30.878
  0
LINE
  8
0
 10
552.778
 20
30.878
 11
524.428
 21
76.2486
  0
LINE
  8
0
 10
524.428
 20
76.2486
 11
510.859
 21
67.7699
  0
LINE
  8
0
 10
510.859
 20
67.7699
 11
502.91
 21
80.4906
  0
LINE
  8
0
 10
502.91
 20
80.4906
 11
516.479
 21
88.9693
  0
LINE
  8
0
 10
516.479
 20
88.9693
 11
370.751
 21
322.183
  0
LINE
  8
0
 10
370.751
 20
322.183
 11
357.182
 21
313.704
  0
LINE
  8
0
 10
357.182
 20
313.704
 11
349.234
 21
326.425
  0
LINE
  8
0
 10
349.234
 20
326.425
 11
362.802
 21
334.903
  0
LINE
  8
0
 10
362.802
 20
334.903
 11
345.05
 21
363.313
  0
LINE
  8
0
 10
345.05
 20
363.313
 11
317.491
 21
369.675
  0
LINE
  8
0
 10
317.491
 20
369.675
 11
314.947
 21
368.086
  0
LINE
  8
0
 10
314.947
 20
368.086
 11
319.186
 21
361.301
  0
LINE
  8
0
 10
319.186
 20
361.301
 11
293.744
 21
345.404
  0
LINE
  8
0
 10
293.744
 20
345.404
 11
289.505
 21
352.188
  0
LINE
  8
0
 10
289.505
 20
352.188
 11
270
 21
340
  0
LINE
  8
0
 10
270
 20
340
 11
298.351
 21
294.629
  0
LINE
  8
0
 10
298.351
 20
294.629
 11
311.919
 21
303.108
  0
LINE
  8
0
 10
311.919
 20
303.108
 11
319.868
 21
290.387
  0
LINE
  8
0
 10
319.868
 20
290.387
 11
306.299
 21
281.909
  0
LINE
  8
0
 10
306.299
 20
281.909
 11
452.027
 21
48.6955
  0
LINE
  8
0
 10
452.027
 20
48.6955
 11
465.596
 21
57.1742
  0
LINE
  8
0
 10
465.596
 20
57.1742
 11
473.545
 21
44.4535
  0
LINE
  8
0
 10
473.545
 20
44.4535
 11
459.976
 21
35.9747
  0
LINE
  8
0
 10
459.976
 20
35.9747
 11
477.728
 21
7.56514
  0
LINE
  8
0
 10
477.728
 20
7.56514
 11
505.288
 21
1.20256
  0
LINE
  8
0
 10
505.288
 20
1.20256
 11
507.832
 21
2.79231
  0
LINE
  8
0
 10
321.673
 20
357.367
 11
321.509
 21
357.629
  0
LINE
  8
0
 10
321.509
 20
357.629
 11
321.531
 21
357.937
  0
LINE
  8
0
 10
321.531
 20
357.937
 11
321.73
 21
358.174
  0
LINE
  8
0
 10
321.73
 20
358.174
 11
322.029
 21
358.249
  0
LINE
  8
0
 10
322.029
 20
358.249
 11
322.316
 21
358.133
  0
LINE
  8
0
 10
322.316
 20
358.133
 11
322.48
 21
357.871
  0
LINE
  8
0
 10
322.48
 20
357.871
 11
322.458
 21
357.563
  0
LINE
  8
0
 10
322.458
 20
357.563
 11
322.26
 21
357.326
  0
LINE
  8
0
 10
322.26
 20
357.326
 11
321.96
 21
357.251
  0
LINE
  8
0
 10
321.96
 20
357.251
 11
321.673
 21
357.367
  0
LINE
  8
0
 10
313.756
 20
324.856
 11
311.43
 21
325.796
  0
LINE
  8
0
 10
311.43
 20
325.796
 11
309.35
 21
327.199
  0
LINE
  8
0
 10
309.35
 20
327.199
 11
307.607
 21
329.004
  0
LINE
  8
0
 10
307.607
 20
329.004
 11
306.943
 21
330.067
  0
LINE
  8
0
 10
306.943
 20
330.067
 11
306.887
 21
330.033
  0
LINE
  8
0
 10
306.887
 20
330.033
 11
300.528
 21
340.209
  0
LINE
  8
0
 10
300.528
 20
340.209
 11
320.881
 21
352.927
  0
LINE
  8
0
 10
320.881
 20
352.927
 11
327.24
 21
342.751
  0
LINE
  8
0
 10
327.24
 20
342.751
 11
327.184
 21
342.716
  0
LINE
  8
0
 10
327.184
 20
342.716
 11
327.849
 21
341.652
  0
LINE
  8
0
 10
327.849
 20
341.652
 11
328.707
 21
339.295
  0
LINE
  8
0
 10
328.707
 20
339.295
 11
329.056
 21
336.81
  0
LINE
  8
0
 10
329.056
 20
336.81
 11
328.881
 21
334.308
  0
LINE
  8
0
 10
328.881
 20
334.308
 11
328.19
 21
331.896
  0
LINE
  8
0
 10
328.19
 20
331.896
 11
327.012
 21
329.681
  0
LINE
  8
0
 10
327.012
 20
329.681
 11
325.399
 21
327.76
  0
LINE
  8
0
 10
325.399
 20
327.76
 11
323.423
 21
326.215
  0
LINE
  8
0
 10
323.423
 20
326.215
 11
321.168
 21
325.115
  0
LINE
  8
0
 10
321.168
 20
325.115
 11
318.734
 21
324.508
  0
LINE
  8
0
 10
318.734
 20
324.508
 11
316.227
 21
324.421
  0
LINE
  8
0
 10
316.227
 20
324.421
 11
313.756
 21
324.856
  0
LINE
  8
0
 10
295.384
 20
340.94
 11
295.22
 21
341.202
  0
LINE
  8
0
 10
295.22
 20
341.202
 11
295.241
 21
341.51
  0
LINE
  8
0
 10
295.241
 20
341.51
 11
295.44
 21
341.747
  0
LINE
  8
0
 10
295.44
 20
341.747
 11
295.74
 21
341.821
  0
LINE
  8
0
 10
295.74
 20
341.821
 11
296.026
 21
341.706
  0
LINE
  8
0
 10
296.026
 20
341.706
 11
296.19
 21
341.444
  0
LINE
  8
0
 10
296.19
 20
341.444
 11
296.169
 21
341.135
  0
LINE
  8
0
 10
296.169
 20
341.135
 11
295.97
 21
340.899
  0
LINE
  8
0
 10
295.97
 20
340.899
 11
295.67
 21
340.824
  0
LINE
  8
0
 10
295.67
 20
340.824
 11
295.384
 21
340.94
  0
LINE
  8
0
 10
338.101
 20
331.078
 11
337.937
 21
331.34
  0
LINE
  8
0
 10
337.937
 20
331.34
 11
337.958
 21
331.648
  0
LINE
  8
0
 10
337.958
 20
331.648
 11
338.157
 21
331.885
  0
LINE
  8
0
 10
338.157
 20
331.885
 11
338.457
 21
331.959
  0
LINE
  8
0
 10
338.457
 20
331.959
 11
338.743
 21
331.844
  0
LINE
  8
0
 10
338.743
 20
331.844
 11
338.907
 21
331.582
  0
LINE
  8
0
 10
338.907
 20
331.582
 11
338.886
 21
331.273
  0
LINE
  8
0
 10
338.886
 20
331.273
 11
338.687
 21
331.037
  0
LINE
  8
0
 10
338.687
 20
331.037
 11
338.387
 21
330.962
  0
LINE
  8
0
 10
338.387
 20
330.962
 11
338.101
 21
331.078
  0
LINE
  8
0
 10
311.811
 20
314.65
 11
311.647
 21
314.912
  0
LINE
  8
0
 10
311.647
 20
314.912
 11
311.669
 21
315.22
  0
LINE
  8
0
 10
311.669
 20
315.22
 11
311.868
 21
315.457
  0
LINE
  8
0
 10
311.868
 20
315.457
 11
312.167
 21
315.532
  0
LINE
  8
0
 10
312.167
 20
315.532
 11
312.454
 21
315.416
  0
LINE
  8
0
 10
312.454
 20
315.416
 11
312.618
 21
315.154
  0
LINE
  8
0
 10
312.618
 20
315.154
 11
312.596
 21
314.846
  0
LINE
  8
0
 10
312.596
 20
314.846
 11
312.398
 21
314.609
  0
LINE
  8
0
 10
312.398
 20
314.609
 11
312.098
 21
314.534
  0
LINE
  8
0
 10
312.098
 20
314.534
 11
311.811
 21
314.65
  0
LINE
  8
0
 10
334.413
 20
307.925
 11
334.316
 21
307.965
  0
LINE
  8
0
 10
334.316
 20
307.965
 11
334.23
 21
308.023
  0
LINE
  8
0
 10
334.23
 20
308.023
 11
334.157
 21
308.098
  0
LINE
  8
0
 10
334.157
 20
308.098
 11
334.102
 21
308.187
  0
LINE
  8
0
 10
334.102
 20
308.187
 11
334.066
 21
308.285
  0
LINE
  8
0
 10
334.066
 20
308.285
 11
334.051
 21
308.389
  0
LINE
  8
0
 10
334.051
 20
308.389
 11
334.059
 21
308.493
  0
LINE
  8
0
 10
334.059
 20
308.493
 11
334.087
 21
308.593
  0
LINE
  8
0
 10
334.087
 20
308.593
 11
334.136
 21
308.686
  0
LINE
  8
0
 10
334.136
 20
308.686
 11
334.204
 21
308.766
  0
LINE
  8
0
 10
334.204
 20
308.766
 11
334.286
 21
308.83
  0
LINE
  8
0
 10
334.286
 20
308.83
 11
334.38
 21
308.876
  0
LINE
  8
0
 10
334.38
 20
308.876
 11
334.481
 21
308.901
  0
LINE
  8
0
 10
334.481
 20
308.901
 11
334.586
 21
308.905
  0
LINE
  8
0
 10
334.586
 20
308.905
 11
334.689
 21
308.887
  0
LINE
  8
0
 10
334.689
 20
308.887
 11
334.786
 21
308.847
  0
LINE
  8
0
 10
334.786
 20
308.847
 11
334.872
 21
308.789
  0
LINE
  8
0
 10
334.872
 20
308.789
 11
334.945
 21
308.714
  0
LINE
  8
0
 10
334.945
 20
308.714
 11
335
 21
308.625
  0
LINE
  8
0
 10
335
 20
308.625
 11
335.036
 21
308.527
  0
LINE
  8
0
 10
335.036
 20
308.527
 11
335.051
 21
308.423
  0
LINE
  8
0
 10
335.051
 20
308.423
 11
335.043
 21
308.319
  0
LINE
  8
0
 10
335.043
 20
308.319
 11
335.014
 21
308.219
  0
LINE
  8
0
 10
335.014
 20
308.219
 11
334.965
 21
308.126
  0
LINE
  8
0
 10
334.965
 20
308.126
 11
334.898
 21
308.046
  0
LINE
  8
0
 10
334.898
 20
308.046
 11
334.816
 21
307.982
  0
LINE
  8
0
 10
334.816
 20
307.982
 11
334.722
 21
307.936
  0
LINE
  8
0
 10
334.722
 20
307.936
 11
334.62
 21
307.911
  0
LINE
  8
0
 10
334.62
 20
307.911
 11
334.516
 21
307.907
  0
LINE
  8
0
 10
334.516
 20
307.907
 11
334.413
 21
307.925
  0
LINE
  8
0
 10
488.09
 20
61.9914
 11
487.993
 21
62.0306
  0
LINE
  8
0
 10
487.993
 20
62.0306
 11
487.906
 21
62.089
  0
LINE
  8
0
 10
487.906
 20
62.089
 11
487.833
 21
62.1642
  0
LINE
  8
0
 10
487.833
 20
62.1642
 11
487.778
 21
62.2529
  0
LINE
  8
0
 10
487.778
 20
62.2529
 11
487.742
 21
62.3511
  0
LINE
  8
0
 10
487.742
 20
62.3511
 11
487.728
 21
62.4546
  0
LINE
  8
0
 10
487.728
 20
62.4546
 11
487.735
 21
62.5589
  0
LINE
  8
0
 10
487.735
 20
62.5589
 11
487.764
 21
62.6593
  0
LINE
  8
0
 10
487.764
 20
62.6593
 11
487.813
 21
62.7516
  0
LINE
  8
0
 10
487.813
 20
62.7516
 11
487.88
 21
62.8317
  0
LINE
  8
0
 10
487.88
 20
62.8317
 11
487.963
 21
62.8961
  0
LINE
  8
0
 10
487.963
 20
62.8961
 11
488.056
 21
62.9419
  0
LINE
  8
0
 10
488.056
 20
62.9419
 11
488.158
 21
62.9672
  0
LINE
  8
0
 10
488.158
 20
62.9672
 11
488.262
 21
62.9708
  0
LINE
  8
0
 10
488.262
 20
62.9708
 11
488.365
 21
62.9527
  0
LINE
  8
0
 10
488.365
 20
62.9527
 11
488.462
 21
62.9135
  0
LINE
  8
0
 10
488.462
 20
62.9135
 11
488.549
 21
62.8551
  0
LINE
  8
0
 10
488.549
 20
62.8551
 11
488.621
 21
62.7799
  0
LINE
  8
0
 10
488.621
 20
62.7799
 11
488.677
 21
62.6912
  0
LINE
  8
0
 10
488.677
 20
62.6912
 11
488.713
 21
62.593
  0
LINE
  8
0
 10
488.713
 20
62.593
 11
488.727
 21
62.4895
  0
LINE
  8
0
 10
488.727
 20
62.4895
 11
488.72
 21
62.3852
  0
LINE
  8
0
 10
488.72
 20
62.3852
 11
488.691
 21
62.2847
  0
LINE
  8
0
 10
488.691
 20
62.2847
 11
488.642
 21
62.1924
  0
LINE
  8
0
 10
488.642
 20
62.1924
 11
488.575
 21
62.1124
  0
LINE
  8
0
 10
488.575
 20
62.1124
 11
488.492
 21
62.048
  0
LINE
  8
0
 10
488.492
 20
62.048
 11
488.398
 21
62.0022
  0
LINE
  8
0
 10
488.398
 20
62.0022
 11
488.297
 21
61.9769
  0
LINE
  8
0
 10
488.297
 20
61.9769
 11
488.193
 21
61.9733
  0
LINE
  8
0
 10
488.193
 20
61.9733
 11
488.09
 21
61.9914
  0
LINE
  8
0
 10
510.324
 20
55.4619
 11
510.161
 21
55.724
  0
LINE
  8
0
 10
510.161
 20
55.724
 11
510.182
 21
56.0323
  0
LINE
  8
0
 10
510.182
 20
56.0323
 11
510.381
 21
56.269
  0
LINE
  8
0
 10
510.381
 20
56.269
 11
510.681
 21
56.3437
  0
LINE
  8
0
 10
510.681
 20
56.3437
 11
510.967
 21
56.228
  0
LINE
  8
0
 10
510.967
 20
56.228
 11
511.131
 21
55.9659
  0
LINE
  8
0
 10
511.131
 20
55.9659
 11
511.109
 21
55.6577
  0
LINE
  8
0
 10
511.109
 20
55.6577
 11
510.911
 21
55.4209
  0
LINE
  8
0
 10
510.911
 20
55.4209
 11
510.611
 21
55.3462
  0
LINE
  8
0
 10
510.611
 20
55.3462
 11
510.324
 21
55.4619
  0
LINE
  8
0
 10
495.538
 20
28.1274
 11
495.594
 21
28.1623
  0
LINE
  8
0
 10
495.594
 20
28.1623
 11
494.929
 21
29.226
  0
LINE
  8
0
 10
494.929
 20
29.226
 11
494.071
 21
31.5834
  0
LINE
  8
0
 10
494.071
 20
31.5834
 11
493.722
 21
34.0677
  0
LINE
  8
0
 10
493.722
 20
34.0677
 11
493.897
 21
36.5702
  0
LINE
  8
0
 10
493.897
 20
36.5702
 11
494.589
 21
38.9817
  0
LINE
  8
0
 10
494.589
 20
38.9817
 11
495.766
 21
41.1968
  0
LINE
  8
0
 10
495.766
 20
41.1968
 11
497.379
 21
43.1185
  0
LINE
  8
0
 10
497.379
 20
43.1185
 11
499.356
 21
44.663
  0
LINE
  8
0
 10
499.356
 20
44.663
 11
501.611
 21
45.7628
  0
LINE
  8
0
 10
501.611
 20
45.7628
 11
504.045
 21
46.3697
  0
LINE
  8
0
 10
504.045
 20
46.3697
 11
506.552
 21
46.4572
  0
LINE
  8
0
 10
506.552
 20
46.4572
 11
509.022
 21
46.0216
  0
LINE
  8
0
 10
509.022
 20
46.0216
 11
511.348
 21
45.0818
  0
LINE
  8
0
 10
511.348
 20
45.0818
 11
513.428
 21
43.679
  0
LINE
  8
0
 10
513.428
 20
43.679
 11
515.171
 21
41.8744
  0
LINE
  8
0
 10
515.171
 20
41.8744
 11
515.836
 21
40.8107
  0
LINE
  8
0
 10
515.836
 20
40.8107
 11
515.891
 21
40.8455
  0
LINE
  8
0
 10
515.891
 20
40.8455
 11
522.25
 21
30.6689
  0
LINE
  8
0
 10
522.25
 20
30.6689
 11
501.897
 21
17.9509
  0
LINE
  8
0
 10
501.897
 20
17.9509
 11
495.538
 21
28.1274
  0
LINE
  8
0
 10
484.035
 20
39.0344
 11
483.871
 21
39.2965
  0
LINE
  8
0
 10
483.871
 20
39.2965
 11
483.893
 21
39.6048
  0
LINE
  8
0
 10
483.893
 20
39.6048
 11
484.091
 21
39.8415
  0
LINE
  8
0
 10
484.091
 20
39.8415
 11
484.391
 21
39.9162
  0
LINE
  8
0
 10
484.391
 20
39.9162
 11
484.678
 21
39.8005
  0
LINE
  8
0
 10
484.678
 20
39.8005
 11
484.841
 21
39.5384
  0
LINE
  8
0
 10
484.841
 20
39.5384
 11
484.82
 21
39.2301
  0
LINE
  8
0
 10
484.82
 20
39.2301
 11
484.621
 21
38.9934
  0
LINE
  8
0
 10
484.621
 20
38.9934
 11
484.321
 21
38.9187
  0
LINE
  8
0
 10
484.321
 20
38.9187
 11
484.035
 21
39.0344
  0
LINE
  8
0
 10
526.752
 20
29.1724
 11
526.588
 21
29.4345
  0
LINE
  8
0
 10
526.588
 20
29.4345
 11
526.61
 21
29.7428
  0
LINE
  8
0
 10
526.61
 20
29.7428
 11
526.808
 21
29.9795
  0
LINE
  8
0
 10
526.808
 20
29.9795
 11
527.108
 21
30.0542
  0
LINE
  8
0
 10
527.108
 20
30.0542
 11
527.395
 21
29.9385
  0
LINE
  8
0
 10
527.395
 20
29.9385
 11
527.558
 21
29.6764
  0
LINE
  8
0
 10
527.558
 20
29.6764
 11
527.537
 21
29.3682
  0
LINE
  8
0
 10
527.537
 20
29.3682
 11
527.338
 21
29.1314
  0
LINE
  8
0
 10
527.338
 20
29.1314
 11
527.038
 21
29.0567
  0
LINE
  8
0
 10
527.038
 20
29.0567
 11
526.752
 21
29.1724
  0
LINE
  8
0
 10
500.462
 20
12.7449
 11
500.299
 21
13.007
  0
LINE
  8
0
 10
500.299
 20
13.007
 11
500.32
 21
13.3153
  0
LINE
  8
0
 10
500.32
 20
13.3153
 11
500.519
 21
13.552
  0
LINE
  8
0
 10
500.519
 20
13.552
 11
500.819
 21
13.6267
  0
LINE
  8
0
 10
500.819
 20
13.6267
 11
501.105
 21
13.511
  0
LINE
  8
0
 10
501.105
 20
13.511
 11
501.269
 21
13.2489
  0
LINE
  8
0
 10
501.269
 20
13.2489
 11
501.247
 21
12.9407
  0
LINE
  8
0
 10
501.247
 20
12.9407
 11
501.049
 21
12.7039
  0
LINE
  8
0
 10
501.049
 20
12.7039
 11
500.749
 21
12.6292
  0
LINE
  8
0
 10
500.749
 20
12.6292
 11
500.462
 21
12.7449
  0
ENDSEC
  0
SECTION
  2
OBJECTS
  0
DICTIONARY
  0
ENDSEC
  0
EOF
