  0
SECTION
  2
BLOCKS
  0
ENDSEC
  0
SECTION
  2
ENTITIES
  0
LINE
  8
0
 10
496.486
 20
6.37573
 11
522.466
 21
21.3757
  0
LINE
  8
0
 10
522.466
 20
21.3757
 11
526.466
 21
14.4475
  0
LINE
  8
0
 10
526.466
 20
14.4475
 11
527.332
 21
14.9475
  0
LINE
  8
0
 10
527.332
 20
14.9475
 11
535.568
 21
45.6831
  0
LINE
  8
0
 10
535.568
 20
45.6831
 11
520.068
 21
72.5299
  0
LINE
  8
0
 10
520.068
 20
72.5299
 11
506.212
 21
64.5299
  0
LINE
  8
0
 10
506.212
 20
64.5299
 11
498.712
 21
77.5203
  0
LINE
  8
0
 10
498.712
 20
77.5203
 11
512.568
 21
85.5203
  0
LINE
  8
0
 10
512.568
 20
85.5203
 11
375.068
 21
323.677
  0
LINE
  8
0
 10
375.068
 20
323.677
 11
361.212
 21
315.677
  0
LINE
  8
0
 10
361.212
 20
315.677
 11
353.712
 21
328.668
  0
LINE
  8
0
 10
353.712
 20
328.668
 11
367.568
 21
336.668
  0
LINE
  8
0
 10
367.568
 20
336.668
 11
352.068
 21
363.514
  0
LINE
  8
0
 10
352.068
 20
363.514
 11
321.332
 21
371.75
  0
LINE
  8
0
 10
321.332
 20
371.75
 11
320.466
 21
371.25
  0
LINE
  8
0
 10
320.466
 20
371.25
 11
324.466
 21
364.322
  0
LINE
  8
0
 10
324.466
 20
364.322
 11
298.486
 21
349.322
  0
LINE
  8
0
 10
298.486
 20
349.322
 11
294.486
 21
356.25
  0
LINE
  8
0
 10
294.486
 20
356.25
 11
286.25
 21
325.514
  0
LINE
  8
0
 10
286.25
 20
325.514
 11
301.75
 21
298.668
  0
LINE
  8
0
 10
301.75
 20
298.668
 11
315.606
 21
306.668
  0
LINE
  8
0
 10
315.606
 20
306.668
 11
323.106
 21
293.677
  0
LINE
  8
0
 10
323.106
 20
293.677
 11
309.25
 21
285.677
  0
LINE
  8
0
 10
309.25
 20
285.677
 11
446.75
 21
47.5203
  0
LINE
  8
0
 10
446.75
 20
47.5203
 11
460.606
 21
55.5203
  0
LINE
  8
0
 10
460.606
 20
55.5203
 11
468.106
 21
42.5299
  0
LINE
  8
0
 10
468.106
 20
42.5299
 11
454.25
 21
34.5299
  0
LINE
  8
0
 10
454.25
 20
34.5299
 11
469.75
 21
7.68309
  0
LINE
  8
0
 10
469.75
 20
7.68309
 11
500.486
 21
-0.55246
  0
LINE
  8
0
 10
500.486
 20
-0.55246
 11
496.486
 21
6.37573
  0
LINE
  8
0
 10
327.248
 20
360.553
 11
327.093
 21
360.821
  0
LINE
  8
0
 10
327.093
 20
360.821
 11
327.126
 21
361.128
  0
LINE
  8
0
 10
327.126
 20
361.128
 11
327.332
 21
361.358
  0
LINE
  8
0
 10
327.332
 20
361.358
 11
327.635
 21
361.422
  0
LINE
  8
0
 10
327.635
 20
361.422
 11
327.917
 21
361.296
  0
LINE
  8
0
 10
327.917
 20
361.296
 11
328.071
 21
361.029
  0
LINE
  8
0
 10
328.071
 20
361.029
 11
328.039
 21
360.721
  0
LINE
  8
0
 10
328.039
 20
360.721
 11
327.832
 21
360.492
  0
LINE
  8
0
 10
327.832
 20
360.492
 11
327.53
 21
360.427
  0
LINE
  8
0
 10
327.53
 20
360.427
 11
327.248
 21
360.553
  0
LINE
  8
0
 10
320.655
 20
327.817
 11
318.201
 21
328.339
  0
LINE
  8
0
 10
318.201
 20
328.339
 11
315.909
 21
329.359
  0
LINE
  8
0
 10
315.909
 20
329.359
 11
313.879
 21
330.834
  0
LINE
  8
0
 10
313.879
 20
330.834
 11
312.201
 21
332.698
  0
LINE
  8
0
 10
312.201
 20
332.698
 11
311.574
 21
333.784
  0
LINE
  8
0
 10
311.574
 20
333.784
 11
311.517
 21
333.751
  0
LINE
  8
0
 10
311.517
 20
333.751
 11
305.517
 21
344.144
  0
LINE
  8
0
 10
305.517
 20
344.144
 11
326.301
 21
356.144
  0
LINE
  8
0
 10
326.301
 20
356.144
 11
332.301
 21
345.751
  0
LINE
  8
0
 10
332.301
 20
345.751
 11
332.244
 21
345.718
  0
LINE
  8
0
 10
332.244
 20
345.718
 11
332.872
 21
344.632
  0
LINE
  8
0
 10
332.872
 20
344.632
 11
333.647
 21
342.246
  0
LINE
  8
0
 10
333.647
 20
342.246
 11
333.909
 21
339.751
  0
LINE
  8
0
 10
333.909
 20
339.751
 11
333.647
 21
337.256
  0
LINE
  8
0
 10
333.647
 20
337.256
 11
332.872
 21
334.87
  0
LINE
  8
0
 10
332.872
 20
334.87
 11
331.617
 21
332.698
  0
LINE
  8
0
 10
331.617
 20
332.698
 11
329.939
 21
330.834
  0
LINE
  8
0
 10
329.939
 20
330.834
 11
327.909
 21
329.359
  0
LINE
  8
0
 10
327.909
 20
329.359
 11
325.617
 21
328.339
  0
LINE
  8
0
 10
325.617
 20
328.339
 11
323.163
 21
327.817
  0
LINE
  8
0
 10
323.163
 20
327.817
 11
320.655
 21
327.817
  0
LINE
  8
0
 10
300.401
 20
345.053
 11
300.246
 21
345.321
  0
LINE
  8
0
 10
300.246
 20
345.321
 11
300.279
 21
345.628
  0
LINE
  8
0
 10
300.279
 20
345.628
 11
300.486
 21
345.858
  0
LINE
  8
0
 10
300.486
 20
345.858
 11
300.788
 21
345.922
  0
LINE
  8
0
 10
300.788
 20
345.922
 11
301.07
 21
345.796
  0
LINE
  8
0
 10
301.07
 20
345.796
 11
301.225
 21
345.529
  0
LINE
  8
0
 10
301.225
 20
345.529
 11
301.192
 21
345.221
  0
LINE
  8
0
 10
301.192
 20
345.221
 11
300.986
 21
344.992
  0
LINE
  8
0
 10
300.986
 20
344.992
 11
300.683
 21
344.927
  0
LINE
  8
0
 10
300.683
 20
344.927
 11
300.401
 21
345.053
  0
LINE
  8
0
 10
342.748
 20
333.706
 11
342.593
 21
333.974
  0
LINE
  8
0
 10
342.593
 20
333.974
 11
342.626
 21
334.281
  0
LINE
  8
0
 10
342.626
 20
334.281
 11
342.832
 21
334.511
  0
LINE
  8
0
 10
342.832
 20
334.511
 11
343.135
 21
334.575
  0
LINE
  8
0
 10
343.135
 20
334.575
 11
343.417
 21
334.449
  0
LINE
  8
0
 10
343.417
 20
334.449
 11
343.571
 21
334.182
  0
LINE
  8
0
 10
343.571
 20
334.182
 11
343.539
 21
333.875
  0
LINE
  8
0
 10
343.539
 20
333.875
 11
343.332
 21
333.645
  0
LINE
  8
0
 10
343.332
 20
333.645
 11
343.03
 21
333.581
  0
LINE
  8
0
 10
343.03
 20
333.581
 11
342.748
 21
333.706
  0
LINE
  8
0
 10
315.901
 20
318.206
 11
315.746
 21
318.474
  0
LINE
  8
0
 10
315.746
 20
318.474
 11
315.779
 21
318.781
  0
LINE
  8
0
 10
315.779
 20
318.781
 11
315.986
 21
319.011
  0
LINE
  8
0
 10
315.986
 20
319.011
 11
316.288
 21
319.075
  0
LINE
  8
0
 10
316.288
 20
319.075
 11
316.57
 21
318.949
  0
LINE
  8
0
 10
316.57
 20
318.949
 11
316.725
 21
318.682
  0
LINE
  8
0
 10
316.725
 20
318.682
 11
316.692
 21
318.375
  0
LINE
  8
0
 10
316.692
 20
318.375
 11
316.486
 21
318.145
  0
LINE
  8
0
 10
316.486
 20
318.145
 11
316.183
 21
318.081
  0
LINE
  8
0
 10
316.183
 20
318.081
 11
315.901
 21
318.206
  0
LINE
  8
0
 10
338.357
 20
310.675
 11
338.254
 21
310.697
  0
LINE
  8
0
 10
338.254
 20
310.697
 11
338.159
 21
310.739
  0
LINE
  8
0
 10
338.159
 20
310.739
 11
338.074
 21
310.801
  0
LINE
  8
0
 10
338.074
 20
310.801
 11
338.004
 21
310.879
  0
LINE
  8
0
 10
338.004
 20
310.879
 11
337.952
 21
310.969
  0
LINE
  8
0
 10
337.952
 20
310.969
 11
337.92
 21
311.068
  0
LINE
  8
0
 10
337.92
 20
311.068
 11
337.909
 21
311.172
  0
LINE
  8
0
 10
337.909
 20
311.172
 11
337.92
 21
311.276
  0
LINE
  8
0
 10
337.92
 20
311.276
 11
337.952
 21
311.376
  0
LINE
  8
0
 10
337.952
 20
311.376
 11
338.004
 21
311.466
  0
LINE
  8
0
 10
338.004
 20
311.466
 11
338.074
 21
311.544
  0
LINE
  8
0
 10
338.074
 20
311.544
 11
338.159
 21
311.605
  0
LINE
  8
0
 10
338.159
 20
311.605
 11
338.254
 21
311.648
  0
LINE
  8
0
 10
338.254
 20
311.648
 11
338.357
 21
311.67
  0
LINE
  8
0
 10
338.357
 20
311.67
 11
338.461
 21
311.67
  0
LINE
  8
0
 10
338.461
 20
311.67
 11
338.563
 21
311.648
  0
LINE
  8
0
 10
338.563
 20
311.648
 11
338.659
 21
311.605
  0
LINE
  8
0
 10
338.659
 20
311.605
 11
338.744
 21
311.544
  0
LINE
  8
0
 10
338.744
 20
311.544
 11
338.813
 21
311.466
  0
LINE
  8
0
 10
338.813
 20
311.466
 11
338.866
 21
311.376
  0
LINE
  8
0
 10
338.866
 20
311.376
 11
338.898
 21
311.276
  0
LINE
  8
0
 10
338.898
 20
311.276
 11
338.909
 21
311.172
  0
LINE
  8
0
 10
338.909
 20
311.172
 11
338.898
 21
311.068
  0
LINE
  8
0
 10
338.898
 20
311.068
 11
338.866
 21
310.969
  0
LINE
  8
0
 10
338.866
 20
310.969
 11
338.813
 21
310.879
  0
LINE
  8
0
 10
338.813
 20
310.879
 11
338.744
 21
310.801
  0
LINE
  8
0
 10
338.744
 20
310.801
 11
338.659
 21
310.739
  0
LINE
  8
0
 10
338.659
 20
310.739
 11
338.563
 21
310.697
  0
LINE
  8
0
 10
338.563
 20
310.697
 11
338.461
 21
310.675
  0
LINE
  8
0
 10
338.461
 20
310.675
 11
338.357
 21
310.675
  0
LINE
  8
0
 10
483.357
 20
59.5278
 11
483.254
 21
59.5495
  0
LINE
  8
0
 10
483.254
 20
59.5495
 11
483.159
 21
59.5921
  0
LINE
  8
0
 10
483.159
 20
59.5921
 11
483.074
 21
59.6535
  0
LINE
  8
0
 10
483.074
 20
59.6535
 11
483.004
 21
59.7312
  0
LINE
  8
0
 10
483.004
 20
59.7312
 11
482.952
 21
59.8217
  0
LINE
  8
0
 10
482.952
 20
59.8217
 11
482.92
 21
59.9211
  0
LINE
  8
0
 10
482.92
 20
59.9211
 11
482.909
 21
60.0251
  0
LINE
  8
0
 10
482.909
 20
60.0251
 11
482.92
 21
60.129
  0
LINE
  8
0
 10
482.92
 20
60.129
 11
482.952
 21
60.2284
  0
LINE
  8
0
 10
482.952
 20
60.2284
 11
483.004
 21
60.319
  0
LINE
  8
0
 10
483.004
 20
60.319
 11
483.074
 21
60.3967
  0
LINE
  8
0
 10
483.074
 20
60.3967
 11
483.159
 21
60.4581
  0
LINE
  8
0
 10
483.159
 20
60.4581
 11
483.254
 21
60.5006
  0
LINE
  8
0
 10
483.254
 20
60.5006
 11
483.357
 21
60.5223
  0
LINE
  8
0
 10
483.357
 20
60.5223
 11
483.461
 21
60.5223
  0
LINE
  8
0
 10
483.461
 20
60.5223
 11
483.563
 21
60.5006
  0
LINE
  8
0
 10
483.563
 20
60.5006
 11
483.659
 21
60.4581
  0
LINE
  8
0
 10
483.659
 20
60.4581
 11
483.744
 21
60.3967
  0
LINE
  8
0
 10
483.744
 20
60.3967
 11
483.813
 21
60.319
  0
LINE
  8
0
 10
483.813
 20
60.319
 11
483.866
 21
60.2284
  0
LINE
  8
0
 10
483.866
 20
60.2284
 11
483.898
 21
60.129
  0
LINE
  8
0
 10
483.898
 20
60.129
 11
483.909
 21
60.0251
  0
LINE
  8
0
 10
483.909
 20
60.0251
 11
483.898
 21
59.9211
  0
LINE
  8
0
 10
483.898
 20
59.9211
 11
483.866
 21
59.8217
  0
LINE
  8
0
 10
483.866
 20
59.8217
 11
483.813
 21
59.7312
  0
LINE
  8
0
 10
483.813
 20
59.7312
 11
483.744
 21
59.6535
  0
LINE
  8
0
 10
483.744
 20
59.6535
 11
483.659
 21
59.5921
  0
LINE
  8
0
 10
483.659
 20
59.5921
 11
483.563
 21
59.5495
  0
LINE
  8
0
 10
483.563
 20
59.5495
 11
483.461
 21
59.5278
  0
LINE
  8
0
 10
483.461
 20
59.5278
 11
483.357
 21
59.5278
  0
LINE
  8
0
 10
505.248
 20
52.2481
 11
505.093
 21
52.5157
  0
LINE
  8
0
 10
505.093
 20
52.5157
 11
505.126
 21
52.823
  0
LINE
  8
0
 10
505.126
 20
52.823
 11
505.332
 21
53.0526
  0
LINE
  8
0
 10
505.332
 20
53.0526
 11
505.635
 21
53.1169
  0
LINE
  8
0
 10
505.635
 20
53.1169
 11
505.917
 21
52.9912
  0
LINE
  8
0
 10
505.917
 20
52.9912
 11
506.071
 21
52.7236
  0
LINE
  8
0
 10
506.071
 20
52.7236
 11
506.039
 21
52.4163
  0
LINE
  8
0
 10
506.039
 20
52.4163
 11
505.832
 21
52.1866
  0
LINE
  8
0
 10
505.832
 20
52.1866
 11
505.53
 21
52.1224
  0
LINE
  8
0
 10
505.53
 20
52.1224
 11
505.248
 21
52.2481
  0
LINE
  8
0
 10
489.517
 20
25.4462
 11
489.574
 21
25.4791
  0
LINE
  8
0
 10
489.574
 20
25.4791
 11
488.946
 21
26.5654
  0
LINE
  8
0
 10
488.946
 20
26.5654
 11
488.171
 21
28.9513
  0
LINE
  8
0
 10
488.171
 20
28.9513
 11
487.909
 21
31.4462
  0
LINE
  8
0
 10
487.909
 20
31.4462
 11
488.171
 21
33.9412
  0
LINE
  8
0
 10
488.171
 20
33.9412
 11
488.946
 21
36.3271
  0
LINE
  8
0
 10
488.946
 20
36.3271
 11
490.201
 21
38.4997
  0
LINE
  8
0
 10
490.201
 20
38.4997
 11
491.879
 21
40.364
  0
LINE
  8
0
 10
491.879
 20
40.364
 11
493.909
 21
41.8385
  0
LINE
  8
0
 10
493.909
 20
41.8385
 11
496.201
 21
42.8589
  0
LINE
  8
0
 10
496.201
 20
42.8589
 11
498.655
 21
43.3805
  0
LINE
  8
0
 10
498.655
 20
43.3805
 11
501.163
 21
43.3805
  0
LINE
  8
0
 10
501.163
 20
43.3805
 11
503.617
 21
42.8589
  0
LINE
  8
0
 10
503.617
 20
42.8589
 11
505.909
 21
41.8385
  0
LINE
  8
0
 10
505.909
 20
41.8385
 11
507.939
 21
40.364
  0
LINE
  8
0
 10
507.939
 20
40.364
 11
509.617
 21
38.4997
  0
LINE
  8
0
 10
509.617
 20
38.4997
 11
510.244
 21
37.4134
  0
LINE
  8
0
 10
510.244
 20
37.4134
 11
510.301
 21
37.4462
  0
LINE
  8
0
 10
510.301
 20
37.4462
 11
516.301
 21
27.0539
  0
LINE
  8
0
 10
516.301
 20
27.0539
 11
495.517
 21
15.0539
  0
LINE
  8
0
 10
495.517
 20
15.0539
 11
489.517
 21
25.4462
  0
LINE
  8
0
 10
478.401
 20
36.7481
 11
478.246
 21
37.0157
  0
LINE
  8
0
 10
478.246
 20
37.0157
 11
478.279
 21
37.323
  0
LINE
  8
0
 10
478.279
 20
37.323
 11
478.486
 21
37.5526
  0
LINE
  8
0
 10
478.486
 20
37.5526
 11
478.788
 21
37.6169
  0
LINE
  8
0
 10
478.788
 20
37.6169
 11
479.07
 21
37.4912
  0
LINE
  8
0
 10
479.07
 20
37.4912
 11
479.225
 21
37.2236
  0
LINE
  8
0
 10
479.225
 20
37.2236
 11
479.192
 21
36.9163
  0
LINE
  8
0
 10
479.192
 20
36.9163
 11
478.986
 21
36.6866
  0
LINE
  8
0
 10
478.986
 20
36.6866
 11
478.683
 21
36.6224
  0
LINE
  8
0
 10
478.683
 20
36.6224
 11
478.401
 21
36.7481
  0
LINE
  8
0
 10
520.748
 20
25.4013
 11
520.593
 21
25.6689
  0
LINE
  8
0
 10
520.593
 20
25.6689
 11
520.626
 21
25.9762
  0
LINE
  8
0
 10
520.626
 20
25.9762
 11
520.832
 21
26.2059
  0
LINE
  8
0
 10
520.832
 20
26.2059
 11
521.135
 21
26.2701
  0
LINE
  8
0
 10
521.135
 20
26.2701
 11
521.417
 21
26.1444
  0
LINE
  8
0
 10
521.417
 20
26.1444
 11
521.571
 21
25.8768
  0
LINE
  8
0
 10
521.571
 20
25.8768
 11
521.539
 21
25.5695
  0
LINE
  8
0
 10
521.539
 20
25.5695
 11
521.332
 21
25.3398
  0
LINE
  8
0
 10
521.332
 20
25.3398
 11
521.03
 21
25.2756
  0
LINE
  8
0
 10
521.03
 20
25.2756
 11
520.748
 21
25.4013
  0
LINE
  8
0
 10
493.901
 20
9.90128
 11
493.746
 21
10.1689
  0
LINE
  8
0
 10
493.746
 20
10.1689
 11
493.779
 21
10.4762
  0
LINE
  8
0
 10
493.779
 20
10.4762
 11
493.986
 21
10.7059
  0
LINE
  8
0
 10
493.986
 20
10.7059
 11
494.288
 21
10.7701
  0
LINE
  8
0
 10
494.288
 20
10.7701
 11
494.57
 21
10.6444
  0
LINE
  8
0
 10
494.57
 20
10.6444
 11
494.725
 21
10.3768
  0
LINE
  8
0
 10
494.725
 20
10.3768
 11
494.692
 21
10.0695
  0
LINE
  8
0
 10
494.692
 20
10.0695
 11
494.486
 21
9.83983
  0
LINE
  8
0
 10
494.486
 20
9.83983
 11
494.183
 21
9.77559
  0
LINE
  8
0
 10
494.183
 20
9.77559
 11
493.901
 21
9.90128
  0
LINE
  8
0
 10
606.486
 20
6.37573
 11
632.466
 21
21.3757
  0
LINE
  8
0
 10
632.466
 20
21.3757
 11
636.466
 21
14.4475
  0
LINE
  8
0
 10
636.466
 20
14.4475
 11
637.332
 21
14.9475
  0
LINE
  8
0
 10
637.332
 20
14.9475
 11
645.568
 21
45.6831
  0
LINE
  8
0
 10
645.568
 20
45.6831
 11
630.068
 21
72.5299
  0
LINE
  8
0
 10
630.068
 20
72.5299
 11
616.212
 21
64.5299
  0
LINE
  8
0
 10
616.212
 20
64.5299
 11
608.712
 21
77.5203
  0
LINE
  8
0
 10
608.712
 20
77.5203
 11
622.568
 21
85.5203
  0
LINE
  8
0
 10
622.568
 20
85.5203
 11
485.068
 21
323.677
  0
LINE
  8
0
 10
485.068
 20
323.677
 11
471.212
 21
315.677
  0
LINE
  8
0
 10
471.212
 20
315.677
 11
463.712
 21
328.668
  0
LINE
  8
0
 10
463.712
 20
328.668
 11
477.568
 21
336.668
  0
LINE
  8
0
 10
477.568
 20
336.668
 11
462.068
 21
363.514
  0
LINE
  8
0
 10
462.068
 20
363.514
 11
431.332
 21
371.75
  0
LINE
  8
0
 10
431.332
 20
371.75
 11
430.466
 21
371.25
  0
LINE
  8
0
 10
430.466
 20
371.25
 11
434.466
 21
364.322
  0
LINE
  8
0
 10
434.466
 20
364.322
 11
408.486
 21
349.322
  0
LINE
  8
0
 10
408.486
 20
349.322
 11
404.486
 21
356.25
  0
LINE
  8
0
 10
404.486
 20
356.25
 11
396.25
 21
325.514
  0
LINE
  8
0
 10
396.25
 20
325.514
 11
411.75
 21
298.668
  0
LINE
  8
0
 10
411.75
 20
298.668
 11
425.606
 21
306.668
  0
LINE
  8
0
 10
425.606
 20
306.668
 11
433.106
 21
293.677
  0
LINE
  8
0
 10
433.106
 20
293.677
 11
419.25
 21
285.677
  0
LINE
  8
0
 10
419.25
 20
285.677
 11
556.75
 21
47.5203
  0
LINE
  8
0
 10
556.75
 20
47.5203
 11
570.606
 21
55.5203
  0
LINE
  8
0
 10
570.606
 20
55.5203
 11
578.106
 21
42.5299
  0
LINE
  8
0
 10
578.106
 20
42.5299
 11
564.25
 21
34.5299
  0
LINE
  8
0
 10
564.25
 20
34.5299
 11
579.75
 21
7.68309
  0
LINE
  8
0
 10
579.75
 20
7.68309
 11
610.486
 21
-0.55246
  0
LINE
  8
0
 10
610.486
 20
-0.55246
 11
606.486
 21
6.37573
  0
LINE
  8
0
 10
437.248
 20
360.553
 11
437.093
 21
360.821
  0
LINE
  8
0
 10
437.093
 20
360.821
 11
437.126
 21
361.128
  0
LINE
  8
0
 10
437.126
 20
361.128
 11
437.332
 21
361.358
  0
LINE
  8
0
 10
437.332
 20
361.358
 11
437.635
 21
361.422
  0
LINE
  8
0
 10
437.635
 20
361.422
 11
437.917
 21
361.296
  0
LINE
  8
0
 10
437.917
 20
361.296
 11
438.071
 21
361.029
  0
LINE
  8
0
 10
438.071
 20
361.029
 11
438.039
 21
360.721
  0
LINE
  8
0
 10
438.039
 20
360.721
 11
437.832
 21
360.492
  0
LINE
  8
0
 10
437.832
 20
360.492
 11
437.53
 21
360.427
  0
LINE
  8
0
 10
437.53
 20
360.427
 11
437.248
 21
360.553
  0
LINE
  8
0
 10
430.655
 20
327.817
 11
428.201
 21
328.339
  0
LINE
  8
0
 10
428.201
 20
328.339
 11
425.909
 21
329.359
  0
LINE
  8
0
 10
425.909
 20
329.359
 11
423.879
 21
330.834
  0
LINE
  8
0
 10
423.879
 20
330.834
 11
422.201
 21
332.698
  0
LINE
  8
0
 10
422.201
 20
332.698
 11
421.574
 21
333.784
  0
LINE
  8
0
 10
421.574
 20
333.784
 11
421.517
 21
333.751
  0
LINE
  8
0
 10
421.517
 20
333.751
 11
415.517
 21
344.144
  0
LINE
  8
0
 10
415.517
 20
344.144
 11
436.301
 21
356.144
  0
LINE
  8
0
 10
436.301
 20
356.144
 11
442.301
 21
345.751
  0
LINE
  8
0
 10
442.301
 20
345.751
 11
442.244
 21
345.718
  0
LINE
  8
0
 10
442.244
 20
345.718
 11
442.872
 21
344.632
  0
LINE
  8
0
 10
442.872
 20
344.632
 11
443.647
 21
342.246
  0
LINE
  8
0
 10
443.647
 20
342.246
 11
443.909
 21
339.751
  0
LINE
  8
0
 10
443.909
 20
339.751
 11
443.647
 21
337.256
  0
LINE
  8
0
 10
443.647
 20
337.256
 11
442.872
 21
334.87
  0
LINE
  8
0
 10
442.872
 20
334.87
 11
441.617
 21
332.698
  0
LINE
  8
0
 10
441.617
 20
332.698
 11
439.939
 21
330.834
  0
LINE
  8
0
 10
439.939
 20
330.834
 11
437.909
 21
329.359
  0
LINE
  8
0
 10
437.909
 20
329.359
 11
435.617
 21
328.339
  0
LINE
  8
0
 10
435.617
 20
328.339
 11
433.163
 21
327.817
  0
LINE
  8
0
 10
433.163
 20
327.817
 11
430.655
 21
327.817
  0
LINE
  8
0
 10
410.401
 20
345.053
 11
410.246
 21
345.321
  0
LINE
  8
0
 10
410.246
 20
345.321
 11
410.279
 21
345.628
  0
LINE
  8
0
 10
410.279
 20
345.628
 11
410.486
 21
345.858
  0
LINE
  8
0
 10
410.486
 20
345.858
 11
410.788
 21
345.922
  0
LINE
  8
0
 10
410.788
 20
345.922
 11
411.07
 21
345.796
  0
LINE
  8
0
 10
411.07
 20
345.796
 11
411.225
 21
345.529
  0
LINE
  8
0
 10
411.225
 20
345.529
 11
411.192
 21
345.221
  0
LINE
  8
0
 10
411.192
 20
345.221
 11
410.986
 21
344.992
  0
LINE
  8
0
 10
410.986
 20
344.992
 11
410.683
 21
344.927
  0
LINE
  8
0
 10
410.683
 20
344.927
 11
410.401
 21
345.053
  0
LINE
  8
0
 10
452.748
 20
333.706
 11
452.593
 21
333.974
  0
LINE
  8
0
 10
452.593
 20
333.974
 11
452.626
 21
334.281
  0
LINE
  8
0
 10
452.626
 20
334.281
 11
452.832
 21
334.511
  0
LINE
  8
0
 10
452.832
 20
334.511
 11
453.135
 21
334.575
  0
LINE
  8
0
 10
453.135
 20
334.575
 11
453.417
 21
334.449
  0
LINE
  8
0
 10
453.417
 20
334.449
 11
453.571
 21
334.182
  0
LINE
  8
0
 10
453.571
 20
334.182
 11
453.539
 21
333.875
  0
LINE
  8
0
 10
453.539
 20
333.875
 11
453.332
 21
333.645
  0
LINE
  8
0
 10
453.332
 20
333.645
 11
453.03
 21
333.581
  0
LINE
  8
0
 10
453.03
 20
333.581
 11
452.748
 21
333.706
  0
LINE
  8
0
 10
425.901
 20
318.206
 11
425.746
 21
318.474
  0
LINE
  8
0
 10
425.746
 20
318.474
 11
425.779
 21
318.781
  0
LINE
  8
0
 10
425.779
 20
318.781
 11
425.986
 21
319.011
  0
LINE
  8
0
 10
425.986
 20
319.011
 11
426.288
 21
319.075
  0
LINE
  8
0
 10
426.288
 20
319.075
 11
426.57
 21
318.949
  0
LINE
  8
0
 10
426.57
 20
318.949
 11
426.725
 21
318.682
  0
LINE
  8
0
 10
426.725
 20
318.682
 11
426.692
 21
318.375
  0
LINE
  8
0
 10
426.692
 20
318.375
 11
426.486
 21
318.145
  0
LINE
  8
0
 10
426.486
 20
318.145
 11
426.183
 21
318.081
  0
LINE
  8
0
 10
426.183
 20
318.081
 11
425.901
 21
318.206
  0
LINE
  8
0
 10
448.357
 20
310.675
 11
448.254
 21
310.697
  0
LINE
  8
0
 10
448.254
 20
310.697
 11
448.159
 21
310.739
  0
LINE
  8
0
 10
448.159
 20
310.739
 11
448.074
 21
310.801
  0
LINE
  8
0
 10
448.074
 20
310.801
 11
448.004
 21
310.879
  0
LINE
  8
0
 10
448.004
 20
310.879
 11
447.952
 21
310.969
  0
LINE
  8
0
 10
447.952
 20
310.969
 11
447.92
 21
311.068
  0
LINE
  8
0
 10
447.92
 20
311.068
 11
447.909
 21
311.172
  0
LINE
  8
0
 10
447.909
 20
311.172
 11
447.92
 21
311.276
  0
LINE
  8
0
 10
447.92
 20
311.276
 11
447.952
 21
311.376
  0
LINE
  8
0
 10
447.952
 20
311.376
 11
448.004
 21
311.466
  0
LINE
  8
0
 10
448.004
 20
311.466
 11
448.074
 21
311.544
  0
LINE
  8
0
 10
448.074
 20
311.544
 11
448.159
 21
311.605
  0
LINE
  8
0
 10
448.159
 20
311.605
 11
448.254
 21
311.648
  0
LINE
  8
0
 10
448.254
 20
311.648
 11
448.357
 21
311.67
  0
LINE
  8
0
 10
448.357
 20
311.67
 11
448.461
 21
311.67
  0
LINE
  8
0
 10
448.461
 20
311.67
 11
448.563
 21
311.648
  0
LINE
  8
0
 10
448.563
 20
311.648
 11
448.659
 21
311.605
  0
LINE
  8
0
 10
448.659
 20
311.605
 11
448.744
 21
311.544
  0
LINE
  8
0
 10
448.744
 20
311.544
 11
448.813
 21
311.466
  0
LINE
  8
0
 10
448.813
 20
311.466
 11
448.866
 21
311.376
  0
LINE
  8
0
 10
448.866
 20
311.376
 11
448.898
 21
311.276
  0
LINE
  8
0
 10
448.898
 20
311.276
 11
448.909
 21
311.172
  0
LINE
  8
0
 10
448.909
 20
311.172
 11
448.898
 21
311.068
  0
LINE
  8
0
 10
448.898
 20
311.068
 11
448.866
 21
310.969
  0
LINE
  8
0
 10
448.866
 20
310.969
 11
448.813
 21
310.879
  0
LINE
  8
0
 10
448.813
 20
310.879
 11
448.744
 21
310.801
  0
LINE
  8
0
 10
448.744
 20
310.801
 11
448.659
 21
310.739
  0
LINE
  8
0
 10
448.659
 20
310.739
 11
448.563
 21
310.697
  0
LINE
  8
0
 10
448.563
 20
310.697
 11
448.461
 21
310.675
  0
LINE
  8
0
 10
448.461
 20
310.675
 11
448.357
 21
310.675
  0
LINE
  8
0
 10
593.357
 20
59.5278
 11
593.254
 21
59.5495
  0
LINE
  8
0
 10
593.254
 20
59.5495
 11
593.159
 21
59.5921
  0
LINE
  8
0
 10
593.159
 20
59.5921
 11
593.074
 21
59.6535
  0
LINE
  8
0
 10
593.074
 20
59.6535
 11
593.004
 21
59.7312
  0
LINE
  8
0
 10
593.004
 20
59.7312
 11
592.952
 21
59.8217
  0
LINE
  8
0
 10
592.952
 20
59.8217
 11
592.92
 21
59.9211
  0
LINE
  8
0
 10
592.92
 20
59.9211
 11
592.909
 21
60.0251
  0
LINE
  8
0
 10
592.909
 20
60.0251
 11
592.92
 21
60.129
  0
LINE
  8
0
 10
592.92
 20
60.129
 11
592.952
 21
60.2284
  0
LINE
  8
0
 10
592.952
 20
60.2284
 11
593.004
 21
60.319
  0
LINE
  8
0
 10
593.004
 20
60.319
 11
593.074
 21
60.3967
  0
LINE
  8
0
 10
593.074
 20
60.3967
 11
593.159
 21
60.4581
  0
LINE
  8
0
 10
593.159
 20
60.4581
 11
593.254
 21
60.5006
  0
LINE
  8
0
 10
593.254
 20
60.5006
 11
593.357
 21
60.5223
  0
LINE
  8
0
 10
593.357
 20
60.5223
 11
593.461
 21
60.5223
  0
LINE
  8
0
 10
593.461
 20
60.5223
 11
593.563
 21
60.5006
  0
LINE
  8
0
 10
593.563
 20
60.5006
 11
593.659
 21
60.4581
  0
LINE
  8
0
 10
593.659
 20
60.4581
 11
593.744
 21
60.3967
  0
LINE
  8
0
 10
593.744
 20
60.3967
 11
593.813
 21
60.319
  0
LINE
  8
0
 10
593.813
 20
60.319
 11
593.866
 21
60.2284
  0
LINE
  8
0
 10
593.866
 20
60.2284
 11
593.898
 21
60.129
  0
LINE
  8
0
 10
593.898
 20
60.129
 11
593.909
 21
60.0251
  0
LINE
  8
0
 10
593.909
 20
60.0251
 11
593.898
 21
59.9211
  0
LINE
  8
0
 10
593.898
 20
59.9211
 11
593.866
 21
59.8217
  0
LINE
  8
0
 10
593.866
 20
59.8217
 11
593.813
 21
59.7312
  0
LINE
  8
0
 10
593.813
 20
59.7312
 11
593.744
 21
59.6535
  0
LINE
  8
0
 10
593.744
 20
59.6535
 11
593.659
 21
59.5921
  0
LINE
  8
0
 10
593.659
 20
59.5921
 11
593.563
 21
59.5495
  0
LINE
  8
0
 10
593.563
 20
59.5495
 11
593.461
 21
59.5278
  0
LINE
  8
0
 10
593.461
 20
59.5278
 11
593.357
 21
59.5278
  0
LINE
  8
0
 10
615.248
 20
52.2481
 11
615.093
 21
52.5157
  0
LINE
  8
0
 10
615.093
 20
52.5157
 11
615.126
 21
52.823
  0
LINE
  8
0
 10
615.126
 20
52.823
 11
615.332
 21
53.0526
  0
LINE
  8
0
 10
615.332
 20
53.0526
 11
615.635
 21
53.1169
  0
LINE
  8
0
 10
615.635
 20
53.1169
 11
615.917
 21
52.9912
  0
LINE
  8
0
 10
615.917
 20
52.9912
 11
616.071
 21
52.7236
  0
LINE
  8
0
 10
616.071
 20
52.7236
 11
616.039
 21
52.4163
  0
LINE
  8
0
 10
616.039
 20
52.4163
 11
615.832
 21
52.1866
  0
LINE
  8
0
 10
615.832
 20
52.1866
 11
615.53
 21
52.1224
  0
LINE
  8
0
 10
615.53
 20
52.1224
 11
615.248
 21
52.2481
  0
LINE
  8
0
 10
599.517
 20
25.4462
 11
599.574
 21
25.4791
  0
LINE
  8
0
 10
599.574
 20
25.4791
 11
598.946
 21
26.5654
  0
LINE
  8
0
 10
598.946
 20
26.5654
 11
598.171
 21
28.9513
  0
LINE
  8
0
 10
598.171
 20
28.9513
 11
597.909
 21
31.4462
  0
LINE
  8
0
 10
597.909
 20
31.4462
 11
598.171
 21
33.9412
  0
LINE
  8
0
 10
598.171
 20
33.9412
 11
598.946
 21
36.3271
  0
LINE
  8
0
 10
598.946
 20
36.3271
 11
600.201
 21
38.4997
  0
LINE
  8
0
 10
600.201
 20
38.4997
 11
601.879
 21
40.364
  0
LINE
  8
0
 10
601.879
 20
40.364
 11
603.909
 21
41.8385
  0
LINE
  8
0
 10
603.909
 20
41.8385
 11
606.201
 21
42.8589
  0
LINE
  8
0
 10
606.201
 20
42.8589
 11
608.655
 21
43.3805
  0
LINE
  8
0
 10
608.655
 20
43.3805
 11
611.163
 21
43.3805
  0
LINE
  8
0
 10
611.163
 20
43.3805
 11
613.617
 21
42.8589
  0
LINE
  8
0
 10
613.617
 20
42.8589
 11
615.909
 21
41.8385
  0
LINE
  8
0
 10
615.909
 20
41.8385
 11
617.939
 21
40.364
  0
LINE
  8
0
 10
617.939
 20
40.364
 11
619.617
 21
38.4997
  0
LINE
  8
0
 10
619.617
 20
38.4997
 11
620.244
 21
37.4134
  0
LINE
  8
0
 10
620.244
 20
37.4134
 11
620.301
 21
37.4462
  0
LINE
  8
0
 10
620.301
 20
37.4462
 11
626.301
 21
27.0539
  0
LINE
  8
0
 10
626.301
 20
27.0539
 11
605.517
 21
15.0539
  0
LINE
  8
0
 10
605.517
 20
15.0539
 11
599.517
 21
25.4462
  0
LINE
  8
0
 10
588.401
 20
36.7481
 11
588.247
 21
37.0157
  0
LINE
  8
0
 10
588.247
 20
37.0157
 11
588.279
 21
37.323
  0
LINE
  8
0
 10
588.279
 20
37.323
 11
588.486
 21
37.5526
  0
LINE
  8
0
 10
588.486
 20
37.5526
 11
588.788
 21
37.6169
  0
LINE
  8
0
 10
588.788
 20
37.6169
 11
589.07
 21
37.4912
  0
LINE
  8
0
 10
589.07
 20
37.4912
 11
589.225
 21
37.2236
  0
LINE
  8
0
 10
589.225
 20
37.2236
 11
589.192
 21
36.9163
  0
LINE
  8
0
 10
589.192
 20
36.9163
 11
588.986
 21
36.6866
  0
LINE
  8
0
 10
588.986
 20
36.6866
 11
588.683
 21
36.6224
  0
LINE
  8
0
 10
588.683
 20
36.6224
 11
588.401
 21
36.7481
  0
LINE
  8
0
 10
630.748
 20
25.4013
 11
630.593
 21
25.6689
  0
LINE
  8
0
 10
630.593
 20
25.6689
 11
630.626
 21
25.9762
  0
LINE
  8
0
 10
630.626
 20
25.9762
 11
630.832
 21
26.2059
  0
LINE
  8
0
 10
630.832
 20
26.2059
 11
631.135
 21
26.2701
  0
LINE
  8
0
 10
631.135
 20
26.2701
 11
631.417
 21
26.1444
  0
LINE
  8
0
 10
631.417
 20
26.1444
 11
631.571
 21
25.8768
  0
LINE
  8
0
 10
631.571
 20
25.8768
 11
631.539
 21
25.5695
  0
LINE
  8
0
 10
631.539
 20
25.5695
 11
631.332
 21
25.3398
  0
LINE
  8
0
 10
631.332
 20
25.3398
 11
631.03
 21
25.2756
  0
LINE
  8
0
 10
631.03
 20
25.2756
 11
630.748
 21
25.4013
  0
LINE
  8
0
 10
603.901
 20
9.90128
 11
603.747
 21
10.1689
  0
LINE
  8
0
 10
603.747
 20
10.1689
 11
603.779
 21
10.4762
  0
LINE
  8
0
 10
603.779
 20
10.4762
 11
603.986
 21
10.7059
  0
LINE
  8
0
 10
603.986
 20
10.7059
 11
604.288
 21
10.7701
  0
LINE
  8
0
 10
604.288
 20
10.7701
 11
604.57
 21
10.6444
  0
LINE
  8
0
 10
604.57
 20
10.6444
 11
604.725
 21
10.3768
  0
LINE
  8
0
 10
604.725
 20
10.3768
 11
604.692
 21
10.0695
  0
LINE
  8
0
 10
604.692
 20
10.0695
 11
604.486
 21
9.83983
  0
LINE
  8
0
 10
604.486
 20
9.83983
 11
604.183
 21
9.77559
  0
LINE
  8
0
 10
604.183
 20
9.77559
 11
603.901
 21
9.90128
  0
LINE
  8
0
 10
177.658
 20
15
 11
221.658
 21
15
  0
LINE
  8
0
 10
221.658
 20
15
 11
221.658
 21
0
  0
LINE
  8
0
 10
221.658
 20
0
 11
390.755
 21
0
  0
LINE
  8
0
 10
390.755
 20
0
 11
399.316
 21
25
  0
LINE
  8
0
 10
399.316
 20
25
 11
399.316
 21
90
  0
LINE
  8
0
 10
399.316
 20
90
 11
237.658
 21
370
  0
LINE
  8
0
 10
237.658
 20
370
 11
188.658
 21
370
  0
LINE
  8
0
 10
188.658
 20
370
 11
188.658
 21
350
  0
LINE
  8
0
 10
188.658
 20
350
 11
173.658
 21
350
  0
LINE
  8
0
 10
173.658
 20
350
 11
173.658
 21
370
  0
LINE
  8
0
 10
173.658
 20
370
 11
161.658
 21
370
  0
LINE
  8
0
 10
161.658
 20
370
 11
0
 21
90
  0
LINE
  8
0
 10
0
 20
90
 11
0
 21
25
  0
LINE
  8
0
 10
0
 20
25
 11
8.56163
 21
0
  0
LINE
  8
0
 10
8.56163
 20
0
 11
177.658
 21
0
  0
LINE
  8
0
 10
177.658
 20
0
 11
177.658
 21
15
  0
LINE
  8
0
 10
55
 20
50
 11
35.094
 21
90
  0
LINE
  8
0
 10
35.094
 20
90
 11
173.658
 21
330
  0
LINE
  8
0
 10
173.658
 20
330
 11
225.658
 21
330
  0
LINE
  8
0
 10
225.658
 20
330
 11
364.222
 21
90
  0
LINE
  8
0
 10
364.222
 20
90
 11
344.316
 21
50
  0
LINE
  8
0
 10
344.316
 20
50
 11
55
 21
50
  0
LINE
  8
0
 10
195
 20
118
 11
148.562
 21
118
  0
LINE
  8
0
 10
148.562
 20
118
 11
165
 21
70
  0
LINE
  8
0
 10
165
 20
70
 11
195
 21
70
  0
LINE
  8
0
 10
195
 20
70
 11
195
 21
118
  0
LINE
  8
0
 10
125
 20
118
 11
78.5616
 21
118
  0
LINE
  8
0
 10
78.5616
 20
118
 11
95
 21
70
  0
LINE
  8
0
 10
95
 20
70
 11
125
 21
70
  0
LINE
  8
0
 10
125
 20
70
 11
125
 21
118
  0
LINE
  8
0
 10
18.24
 20
35.0219
 11
17.422
 21
35.1958
  0
LINE
  8
0
 10
17.422
 20
35.1958
 11
16.6581
 21
35.5359
  0
LINE
  8
0
 10
16.6581
 20
35.5359
 11
15.9816
 21
36.0274
  0
LINE
  8
0
 10
15.9816
 20
36.0274
 11
15.422
 21
36.6488
  0
LINE
  8
0
 10
15.422
 20
36.6488
 11
15.0039
 21
37.373
  0
LINE
  8
0
 10
15.0039
 20
37.373
 11
14.7455
 21
38.1684
  0
LINE
  8
0
 10
14.7455
 20
38.1684
 11
14.6581
 21
39
  0
LINE
  8
0
 10
14.6581
 20
39
 11
14.7455
 21
39.8316
  0
LINE
  8
0
 10
14.7455
 20
39.8316
 11
15.0039
 21
40.6269
  0
LINE
  8
0
 10
15.0039
 20
40.6269
 11
15.422
 21
41.3511
  0
LINE
  8
0
 10
15.422
 20
41.3511
 11
15.9816
 21
41.9726
  0
LINE
  8
0
 10
15.9816
 20
41.9726
 11
16.6581
 21
42.4641
  0
LINE
  8
0
 10
16.6581
 20
42.4641
 11
17.422
 21
42.8042
  0
LINE
  8
0
 10
17.422
 20
42.8042
 11
18.24
 21
42.9781
  0
LINE
  8
0
 10
18.24
 20
42.9781
 11
19.0762
 21
42.9781
  0
LINE
  8
0
 10
19.0762
 20
42.9781
 11
19.8941
 21
42.8042
  0
LINE
  8
0
 10
19.8941
 20
42.8042
 11
20.6581
 21
42.4641
  0
LINE
  8
0
 10
20.6581
 20
42.4641
 11
21.3346
 21
41.9726
  0
LINE
  8
0
 10
21.3346
 20
41.9726
 11
21.8941
 21
41.3511
  0
LINE
  8
0
 10
21.8941
 20
41.3511
 11
22.3123
 21
40.6269
  0
LINE
  8
0
 10
22.3123
 20
40.6269
 11
22.5707
 21
39.8316
  0
LINE
  8
0
 10
22.5707
 20
39.8316
 11
22.6581
 21
39
  0
LINE
  8
0
 10
22.6581
 20
39
 11
22.5707
 21
38.1684
  0
LINE
  8
0
 10
22.5707
 20
38.1684
 11
22.3123
 21
37.373
  0
LINE
  8
0
 10
22.3123
 20
37.373
 11
21.8941
 21
36.6488
  0
LINE
  8
0
 10
21.8941
 20
36.6488
 11
21.3346
 21
36.0274
  0
LINE
  8
0
 10
21.3346
 20
36.0274
 11
20.6581
 21
35.5359
  0
LINE
  8
0
 10
20.6581
 20
35.5359
 11
19.8941
 21
35.1958
  0
LINE
  8
0
 10
19.8941
 20
35.1958
 11
19.0762
 21
35.0219
  0
LINE
  8
0
 10
19.0762
 20
35.0219
 11
18.24
 21
35.0219
  0
LINE
  8
0
 10
380.24
 20
35.0219
 11
379.422
 21
35.1958
  0
LINE
  8
0
 10
379.422
 20
35.1958
 11
378.658
 21
35.5359
  0
LINE
  8
0
 10
378.658
 20
35.5359
 11
377.982
 21
36.0274
  0
LINE
  8
0
 10
377.982
 20
36.0274
 11
377.422
 21
36.6488
  0
LINE
  8
0
 10
377.422
 20
36.6488
 11
377.004
 21
37.373
  0
LINE
  8
0
 10
377.004
 20
37.373
 11
376.745
 21
38.1684
  0
LINE
  8
0
 10
376.745
 20
38.1684
 11
376.658
 21
39
  0
LINE
  8
0
 10
376.658
 20
39
 11
376.745
 21
39.8316
  0
LINE
  8
0
 10
376.745
 20
39.8316
 11
377.004
 21
40.6269
  0
LINE
  8
0
 10
377.004
 20
40.6269
 11
377.422
 21
41.3511
  0
LINE
  8
0
 10
377.422
 20
41.3511
 11
377.982
 21
41.9726
  0
LINE
  8
0
 10
377.982
 20
41.9726
 11
378.658
 21
42.4641
  0
LINE
  8
0
 10
378.658
 20
42.4641
 11
379.422
 21
42.8042
  0
LINE
  8
0
 10
379.422
 20
42.8042
 11
380.24
 21
42.9781
  0
LINE
  8
0
 10
380.24
 20
42.9781
 11
381.076
 21
42.9781
  0
LINE
  8
0
 10
381.076
 20
42.9781
 11
381.894
 21
42.8042
  0
LINE
  8
0
 10
381.894
 20
42.8042
 11
382.658
 21
42.4641
  0
LINE
  8
0
 10
382.658
 20
42.4641
 11
383.335
 21
41.9726
  0
LINE
  8
0
 10
383.335
 20
41.9726
 11
383.894
 21
41.3511
  0
LINE
  8
0
 10
383.894
 20
41.3511
 11
384.312
 21
40.6269
  0
LINE
  8
0
 10
384.312
 20
40.6269
 11
384.571
 21
39.8316
  0
LINE
  8
0
 10
384.571
 20
39.8316
 11
384.658
 21
39
  0
LINE
  8
0
 10
384.658
 20
39
 11
384.571
 21
38.1684
  0
LINE
  8
0
 10
384.571
 20
38.1684
 11
384.312
 21
37.373
  0
LINE
  8
0
 10
384.312
 20
37.373
 11
383.894
 21
36.6488
  0
LINE
  8
0
 10
383.894
 20
36.6488
 11
383.335
 21
36.0274
  0
LINE
  8
0
 10
383.335
 20
36.0274
 11
382.658
 21
35.5359
  0
LINE
  8
0
 10
382.658
 20
35.5359
 11
381.894
 21
35.1958
  0
LINE
  8
0
 10
381.894
 20
35.1958
 11
381.076
 21
35.0219
  0
LINE
  8
0
 10
381.076
 20
35.0219
 11
380.24
 21
35.0219
  0
LINE
  8
0
 10
34.24
 20
10.0219
 11
33.422
 21
10.1958
  0
LINE
  8
0
 10
33.422
 20
10.1958
 11
32.6581
 21
10.5359
  0
LINE
  8
0
 10
32.6581
 20
10.5359
 11
31.9816
 21
11.0274
  0
LINE
  8
0
 10
31.9816
 20
11.0274
 11
31.422
 21
11.6488
  0
LINE
  8
0
 10
31.422
 20
11.6488
 11
31.0039
 21
12.373
  0
LINE
  8
0
 10
31.0039
 20
12.373
 11
30.7455
 21
13.1684
  0
LINE
  8
0
 10
30.7455
 20
13.1684
 11
30.6581
 21
14
  0
LINE
  8
0
 10
30.6581
 20
14
 11
30.7455
 21
14.8316
  0
LINE
  8
0
 10
30.7455
 20
14.8316
 11
31.0039
 21
15.6269
  0
LINE
  8
0
 10
31.0039
 20
15.6269
 11
31.422
 21
16.3511
  0
LINE
  8
0
 10
31.422
 20
16.3511
 11
31.9816
 21
16.9726
  0
LINE
  8
0
 10
31.9816
 20
16.9726
 11
32.6581
 21
17.4641
  0
LINE
  8
0
 10
32.6581
 20
17.4641
 11
33.422
 21
17.8042
  0
LINE
  8
0
 10
33.422
 20
17.8042
 11
34.24
 21
17.9781
  0
LINE
  8
0
 10
34.24
 20
17.9781
 11
35.0762
 21
17.9781
  0
LINE
  8
0
 10
35.0762
 20
17.9781
 11
35.8941
 21
17.8042
  0
LINE
  8
0
 10
35.8941
 20
17.8042
 11
36.6581
 21
17.4641
  0
LINE
  8
0
 10
36.6581
 20
17.4641
 11
37.3346
 21
16.9726
  0
LINE
  8
0
 10
37.3346
 20
16.9726
 11
37.8941
 21
16.3511
  0
LINE
  8
0
 10
37.8941
 20
16.3511
 11
38.3123
 21
15.6269
  0
LINE
  8
0
 10
38.3123
 20
15.6269
 11
38.5707
 21
14.8316
  0
LINE
  8
0
 10
38.5707
 20
14.8316
 11
38.6581
 21
14
  0
LINE
  8
0
 10
38.6581
 20
14
 11
38.5707
 21
13.1684
  0
LINE
  8
0
 10
38.5707
 20
13.1684
 11
38.3123
 21
12.373
  0
LINE
  8
0
 10
38.3123
 20
12.373
 11
37.8941
 21
11.6488
  0
LINE
  8
0
 10
37.8941
 20
11.6488
 11
37.3346
 21
11.0274
  0
LINE
  8
0
 10
37.3346
 20
11.0274
 11
36.6581
 21
10.5359
  0
LINE
  8
0
 10
36.6581
 20
10.5359
 11
35.8941
 21
10.1958
  0
LINE
  8
0
 10
35.8941
 20
10.1958
 11
35.0762
 21
10.0219
  0
LINE
  8
0
 10
35.0762
 20
10.0219
 11
34.24
 21
10.0219
  0
LINE
  8
0
 10
364.24
 20
10.0219
 11
363.422
 21
10.1958
  0
LINE
  8
0
 10
363.422
 20
10.1958
 11
362.658
 21
10.5359
  0
LINE
  8
0
 10
362.658
 20
10.5359
 11
361.982
 21
11.0274
  0
LINE
  8
0
 10
361.982
 20
11.0274
 11
361.422
 21
11.6488
  0
LINE
  8
0
 10
361.422
 20
11.6488
 11
361.004
 21
12.373
  0
LINE
  8
0
 10
361.004
 20
12.373
 11
360.745
 21
13.1684
  0
LINE
  8
0
 10
360.745
 20
13.1684
 11
360.658
 21
14
  0
LINE
  8
0
 10
360.658
 20
14
 11
360.745
 21
14.8316
  0
LINE
  8
0
 10
360.745
 20
14.8316
 11
361.004
 21
15.6269
  0
LINE
  8
0
 10
361.004
 20
15.6269
 11
361.422
 21
16.3511
  0
LINE
  8
0
 10
361.422
 20
16.3511
 11
361.982
 21
16.9726
  0
LINE
  8
0
 10
361.982
 20
16.9726
 11
362.658
 21
17.4641
  0
LINE
  8
0
 10
362.658
 20
17.4641
 11
363.422
 21
17.8042
  0
LINE
  8
0
 10
363.422
 20
17.8042
 11
364.24
 21
17.9781
  0
LINE
  8
0
 10
364.24
 20
17.9781
 11
365.076
 21
17.9781
  0
LINE
  8
0
 10
365.076
 20
17.9781
 11
365.894
 21
17.8042
  0
LINE
  8
0
 10
365.894
 20
17.8042
 11
366.658
 21
17.4641
  0
LINE
  8
0
 10
366.658
 20
17.4641
 11
367.335
 21
16.9726
  0
LINE
  8
0
 10
367.335
 20
16.9726
 11
367.894
 21
16.3511
  0
LINE
  8
0
 10
367.894
 20
16.3511
 11
368.312
 21
15.6269
  0
LINE
  8
0
 10
368.312
 20
15.6269
 11
368.571
 21
14.8316
  0
LINE
  8
0
 10
368.571
 20
14.8316
 11
368.658
 21
14
  0
LINE
  8
0
 10
368.658
 20
14
 11
368.571
 21
13.1684
  0
LINE
  8
0
 10
368.571
 20
13.1684
 11
368.312
 21
12.373
  0
LINE
  8
0
 10
368.312
 20
12.373
 11
367.894
 21
11.6488
  0
LINE
  8
0
 10
367.894
 20
11.6488
 11
367.335
 21
11.0274
  0
LINE
  8
0
 10
367.335
 20
11.0274
 11
366.658
 21
10.5359
  0
LINE
  8
0
 10
366.658
 20
10.5359
 11
365.894
 21
10.1958
  0
LINE
  8
0
 10
365.894
 20
10.1958
 11
365.076
 21
10.0219
  0
LINE
  8
0
 10
365.076
 20
10.0219
 11
364.24
 21
10.0219
  0
ENDSEC
  0
SECTION
  2
OBJECTS
  0
DICTIONARY
  0
ENDSEC
  0
EOF
