999
dxfrw 0.5.11
0
SECTION
2
HEADER
9
$ACADVER
1
AC1021
9
$HANDSEED
5
20000
9
$DWGCODEPAGE
3
ANSI_1252
9
$INSBASE
10
0
20
0
30
0
9
$EXTMIN
10
0
20
0
30
0
9
$EXTMAX
10
412
20
76
30
0
9
$LIMMIN
10
0
20
0
9
$LIMMAX
10
420
20
297
9
$ORTHOMODE
70
0
9
$LTSCALE
40
1
9
$TEXTSTYLE
7
STANDARD
9
$CLAYER
8
0
9
$DIMASZ
40
2.5
9
$DIMLFAC
40
1
9
$DIMSCALE
40
1
9
$DIMEXO
40
0.625
9
$DIMEXE
40
1.25
9
$DIMTXT
40
2.5
9
$DIMTSZ
40
0
9
$DIMAUNIT
70
0
9
$DIMADEC
70
0
9
$DIMLUNIT
70
2
9
$DIMSTYLE
2
STANDARD
9
$DIMGAP
40
0.625
9
$DIMTIH
70
0
9
$LUNITS
70
2
9
$LUPREC
70
4
9
$AUNITS
70
0
9
$AUPREC
70
2
9
$SPLINESEGS
70
8
9
$SNAPSTYLE
70
0
9
$PINSBASE
10
0
20
0
30
0
9
$PLIMMIN
10
0
20
0
9
$PLIMMAX
10
210
20
297
9
$INSUNITS
70
0
9
$PSVPSCALE
40
1
0
ENDSEC
0
SECTION
2
CLASSES
0
ENDSEC
0
SECTION
2
TABLES
0
TABLE
2
VPORT
5
8
330
0
100
AcDbSymbolTable
70
1
0
VPORT
5
31
330
2
100
AcDbSymbolTableRecord
100
AcDbViewportTableRecord
2
*ACTIVE
70
0
10
0
20
0
11
1
21
1
12
0.651828
22
-0.16
13
0
23
0
14
10
24
10
15
10
25
10
16
0
26
0
36
1
17
0
27
0
37
0
40
5.13732
41
2.4426877
42
50
43
0
44
0
50
0
51
0
71
0
72
100
73
1
74
3
75
0
76
1
77
0
78
0
281
0
65
1
110
0
120
0
130
0
111
1
121
0
131
0
112
0
122
1
132
0
79
0
146
0
348
10020
60
7
61
5
292
1
282
1
141
0
142
0
63
250
421
3358443
0
ENDTAB
0
TABLE
2
LTYPE
5
5
330
0
100
AcDbSymbolTable
70
4
0
LTYPE
5
14
330
5
100
AcDbSymbolTableRecord
100
AcDbLinetypeTableRecord
2
ByBlock
70
0
3

72
65
73
0
40
0
0
LTYPE
5
15
330
5
100
AcDbSymbolTableRecord
100
AcDbLinetypeTableRecord
2
ByLayer
70
0
3

72
65
73
0
40
0
0
LTYPE
5
16
330
5
100
AcDbSymbolTableRecord
100
AcDbLinetypeTableRecord
2
Continuous
70
0
3
Solid line
72
65
73
0
40
0
0
LTYPE
5
32
330
5
100
AcDbSymbolTableRecord
100
AcDbLinetypeTableRecord
2
DOT
70
0
3
Dot . . . . . . . . . . . . . . . . . . . . . .
72
65
73
2
40
6.35
49
0
74
0
49
-6.35
74
0
0
LTYPE
5
33
330
5
100
AcDbSymbolTableRecord
100
AcDbLinetypeTableRecord
2
DOT2
70
0
3
Dot (.5x) .....................................
72
65
73
2
40
3.175
49
0
74
0
49
-3.175
74
0
0
LTYPE
5
34
330
5
100
AcDbSymbolTableRecord
100
AcDbLinetypeTableRecord
2
DOTX2
70
0
3
Dot (2x) .  .  .  .  .  .  .  .  .  .  .  .  .
72
65
73
2
40
12.7
49
0
74
0
49
-12.7
74
0
0
LTYPE
5
35
330
5
100
AcDbSymbolTableRecord
100
AcDbLinetypeTableRecord
2
DASHED
70
0
3
Dot . . . . . . . . . . . . . . . . . . . . . .
72
65
73
2
40
19.05
49
12.7
74
0
49
-6.35
74
0
0
LTYPE
5
36
330
5
100
AcDbSymbolTableRecord
100
AcDbLinetypeTableRecord
2
DASHED2
70
0
3
Dashed (.5x) _ _ _ _ _ _ _ _ _ _ _ _ _ _ _ _ _
72
65
73
2
40
9.525
49
6.35
74
0
49
-3.175
74
0
0
LTYPE
5
37
330
5
100
AcDbSymbolTableRecord
100
AcDbLinetypeTableRecord
2
DASHEDX2
70
0
3
Dashed (2x) ____  ____  ____  ____  ____  ___
72
65
73
2
40
38.1
49
25.4
74
0
49
-12.7
74
0
0
LTYPE
5
38
330
5
100
AcDbSymbolTableRecord
100
AcDbLinetypeTableRecord
2
DASHDOT
70
0
3
Dash dot __ . __ . __ . __ . __ . __ . __ . __
72
65
73
4
40
25.4
49
12.7
74
0
49
-6.35
74
0
49
0
74
0
49
-6.35
74
0
0
LTYPE
5
39
330
5
100
AcDbSymbolTableRecord
100
AcDbLinetypeTableRecord
2
DASHDOT2
70
0
3
Dash dot (.5x) _._._._._._._._._._._._._._._.
72
65
73
4
40
12.7
49
6.35
74
0
49
-3.175
74
0
49
0
74
0
49
-3.175
74
0
0
LTYPE
5
3A
330
5
100
AcDbSymbolTableRecord
100
AcDbLinetypeTableRecord
2
DASHDOTX2
70
0
3
Dash dot (2x) ____  .  ____  .  ____  .  ___
72
65
73
4
40
50.8
49
25.4
74
0
49
-12.7
74
0
49
0
74
0
49
-12.7
74
0
0
LTYPE
5
3B
330
5
100
AcDbSymbolTableRecord
100
AcDbLinetypeTableRecord
2
DIVIDE
70
0
3
Divide ____ . . ____ . . ____ . . ____ . . ____
72
65
73
6
40
31.75
49
12.7
74
0
49
-6.35
74
0
49
0
74
0
49
-6.35
74
0
49
0
74
0
49
-6.35
74
0
0
LTYPE
5
3C
330
5
100
AcDbSymbolTableRecord
100
AcDbLinetypeTableRecord
2
DIVIDE2
70
0
3
Divide (.5x) __..__..__..__..__..__..__..__.._
72
65
73
6
40
15.875
49
6.35
74
0
49
-3.175
74
0
49
0
74
0
49
-3.175
74
0
49
0
74
0
49
-3.175
74
0
0
LTYPE
5
3D
330
5
100
AcDbSymbolTableRecord
100
AcDbLinetypeTableRecord
2
DIVIDEX2
70
0
3
Divide (2x) ________  .  .  ________  .  .  _
72
65
73
6
40
63.5
49
25.4
74
0
49
-12.7
74
0
49
0
74
0
49
-12.7
74
0
49
0
74
0
49
-12.7
74
0
0
LTYPE
5
3E
330
5
100
AcDbSymbolTableRecord
100
AcDbLinetypeTableRecord
2
BORDER
70
0
3
Border __ __ . __ __ . __ __ . __ __ . __ __ .
72
65
73
6
40
44.45
49
12.7
74
0
49
-6.35
74
0
49
12.7
74
0
49
-6.35
74
0
49
0
74
0
49
-6.35
74
0
0
LTYPE
5
3F
330
5
100
AcDbSymbolTableRecord
100
AcDbLinetypeTableRecord
2
BORDER2
70
0
3
Border (.5x) __.__.__.__.__.__.__.__.__.__.__.
72
65
73
6
40
22.225
49
6.35
74
0
49
-3.175
74
0
49
6.35
74
0
49
-3.175
74
0
49
0
74
0
49
-3.175
74
0
0
LTYPE
5
40
330
5
100
AcDbSymbolTableRecord
100
AcDbLinetypeTableRecord
2
BORDERX2
70
0
3
Border (2x) ____  ____  .  ____  ____  .  ___
72
65
73
6
40
88.9
49
25.4
74
0
49
-12.7
74
0
49
25.4
74
0
49
-12.7
74
0
49
0
74
0
49
-12.7
74
0
0
LTYPE
5
41
330
5
100
AcDbSymbolTableRecord
100
AcDbLinetypeTableRecord
2
CENTER
70
0
3
Center ____ _ ____ _ ____ _ ____ _ ____ _ ____
72
65
73
4
40
50.8
49
31.75
74
0
49
-6.35
74
0
49
6.35
74
0
49
-6.35
74
0
0
LTYPE
5
42
330
5
100
AcDbSymbolTableRecord
100
AcDbLinetypeTableRecord
2
CENTER2
70
0
3
Center (.5x) ___ _ ___ _ ___ _ ___ _ ___ _ ___
72
65
73
4
40
28.575
49
19.05
74
0
49
-3.175
74
0
49
3.175
74
0
49
-3.175
74
0
0
LTYPE
5
43
330
5
100
AcDbSymbolTableRecord
100
AcDbLinetypeTableRecord
2
CENTERX2
70
0
3
Center (2x) ________  __  ________  __  _____
72
65
73
4
40
101.6
49
63.5
74
0
49
-12.7
74
0
49
12.7
74
0
49
-12.7
74
0
0
ENDTAB
0
TABLE
2
LAYER
5
2
330
0
100
AcDbSymbolTable
70
1
0
LAYER
5
10
330
2
100
AcDbSymbolTableRecord
100
AcDbLayerTableRecord
2
0
70
0
62
7
6
CONTINUOUS
370
-3
390
F
0
ENDTAB
0
TABLE
2
STYLE
5
3
330
0
100
AcDbSymbolTable
70
3
0
STYLE
5
44
330
2
100
AcDbSymbolTableRecord
100
AcDbTextStyleTableRecord
2
Standard
70
0
40
0
41
1
50
0
71
0
42
1
3
txt
4

0
ENDTAB
0
TABLE
2
VIEW
5
6
330
0
100
AcDbSymbolTable
70
0
0
ENDTAB
0
TABLE
2
UCS
5
7
330
0
100
AcDbSymbolTable
70
0
0
ENDTAB
0
TABLE
2
APPID
5
9
330
0
100
AcDbSymbolTable
70
1
0
APPID
5
12
330
9
100
AcDbSymbolTableRecord
100
AcDbRegAppTableRecord
2
ACAD
70
0
0
ENDTAB
0
TABLE
2
DIMSTYLE
5
A
330
0
100
AcDbSymbolTable
70
1
100
AcDbDimStyleTable
71
1
0
DIMSTYLE
105
45
330
A
100
AcDbSymbolTableRecord
100
AcDbDimStyleTableRecord
2
Standard
70
0
40
1
41
2.5
42
0.625
43
0.38
44
1.25
45
0
46
0
47
0
48
0
140
2.5
141
0.09
142
0
143
25.4
144
1
145
0
146
1
147
0.625
148
0
71
0
72
0
73
0
74
1
75
0
76
0
77
0
78
0
79
0
170
0
171
2
172
0
173
0
174
0
175
0
176
0
177
0
178
0
179
0
271
4
272
4
273
2
274
2
275
0
276
0
277
2
278
46
279
0
280
0
281
0
282
0
283
1
284
0
285
0
286
0
288
0
289
3
340
Standard
341

371
-2
372
-2
0
ENDTAB
0
TABLE
2
BLOCK_RECORD
5
1
330
0
100
AcDbSymbolTable
70
2
0
BLOCK_RECORD
5
1F
330
1
100
AcDbSymbolTableRecord
100
AcDbBlockTableRecord
2
*Model_Space
70
0
280
1
281
0
0
BLOCK_RECORD
5
1E
330
1
100
AcDbSymbolTableRecord
100
AcDbBlockTableRecord
2
*Paper_Space
70
0
280
1
281
0
0
ENDTAB
0
ENDSEC
0
SECTION
2
BLOCKS
0
BLOCK
5
20
330
1F
100
AcDbEntity
8
0
100
AcDbBlockBegin
2
*Model_Space
70
0
10
0
20
0
30
0
3
*Model_Space
1

0
ENDBLK
5
21
330
1F
100
AcDbEntity
8
0
100
AcDbBlockEnd
0
BLOCK
5
1C
330
1B
100
AcDbEntity
8
0
100
AcDbBlockBegin
2
*Paper_Space
70
0
10
0
20
0
30
0
3
*Paper_Space
1

0
ENDBLK
5
1D
330
1F
100
AcDbEntity
8
0
100
AcDbBlockEnd
0
ENDSEC
0
SECTION
2
ENTITIES
0
LINE
5
46
100
AcDbEntity
8
0
6
ByLayer
62
256
370
-1
100
AcDbLine
10
53.5
20
16
11
68.5
21
16
0
LINE
5
47
100
AcDbEntity
8
0
6
ByLayer
62
256
370
-1
100
AcDbLine
10
68.5
20
16
11
68.5
21
0
0
LINE
5
48
100
AcDbEntity
8
0
6
ByLayer
62
256
370
-1
100
AcDbLine
10
68.5
20
0
11
343.5
21
0
0
LINE
5
49
100
AcDbEntity
8
0
6
ByLayer
62
256
370
-1
100
AcDbLine
10
343.5
20
0
11
343.5
21
16
0
LINE
5
4A
100
AcDbEntity
8
0
6
ByLayer
62
256
370
-1
100
AcDbLine
10
343.5
20
16
11
358.5
21
16
0
LINE
5
4B
100
AcDbEntity
8
0
6
ByLayer
62
256
370
-1
100
AcDbLine
10
358.5
20
16
11
358.5
21
0
0
LINE
5
4C
100
AcDbEntity
8
0
6
ByLayer
62
256
370
-1
100
AcDbLine
10
358.5
20
0
11
412
21
0
0
LINE
5
4D
100
AcDbEntity
8
0
6
ByLayer
62
256
370
-1
100
AcDbLine
10
412
20
0
11
412
21
22.5
0
LINE
5
4E
100
AcDbEntity
8
0
6
ByLayer
62
256
370
-1
100
AcDbLine
10
412
20
22.5
11
404
21
22.5
0
LINE
5
4F
100
AcDbEntity
8
0
6
ByLayer
62
256
370
-1
100
AcDbLine
10
404
20
22.5
11
404
21
52.5
0
LINE
5
50
100
AcDbEntity
8
0
6
ByLayer
62
256
370
-1
100
AcDbLine
10
404
20
52.5
11
412
21
52.5
0
LINE
5
51
100
AcDbEntity
8
0
6
ByLayer
62
256
370
-1
100
AcDbLine
10
412
20
52.5
11
412
21
76
0
LINE
5
52
100
AcDbEntity
8
0
6
ByLayer
62
256
370
-1
100
AcDbLine
10
412
20
76
11
358.5
21
76
0
LINE
5
53
100
AcDbEntity
8
0
6
ByLayer
62
256
370
-1
100
AcDbLine
10
358.5
20
76
11
358.5
21
60
0
LINE
5
54
100
AcDbEntity
8
0
6
ByLayer
62
256
370
-1
100
AcDbLine
10
358.5
20
60
11
343.5
21
60
0
LINE
5
55
100
AcDbEntity
8
0
6
ByLayer
62
256
370
-1
100
AcDbLine
10
343.5
20
60
11
343.5
21
76
0
LINE
5
56
100
AcDbEntity
8
0
6
ByLayer
62
256
370
-1
100
AcDbLine
10
343.5
20
76
11
68.5
21
76
0
LINE
5
57
100
AcDbEntity
8
0
6
ByLayer
62
256
370
-1
100
AcDbLine
10
68.5
20
76
11
68.5
21
60
0
LINE
5
58
100
AcDbEntity
8
0
6
ByLayer
62
256
370
-1
100
AcDbLine
10
68.5
20
60
11
53.5
21
60
0
LINE
5
59
100
AcDbEntity
8
0
6
ByLayer
62
256
370
-1
100
AcDbLine
10
53.5
20
60
11
53.5
21
76
0
LINE
5
5A
100
AcDbEntity
8
0
6
ByLayer
62
256
370
-1
100
AcDbLine
10
53.5
20
76
11
0
21
76
0
LINE
5
5B
100
AcDbEntity
8
0
6
ByLayer
62
256
370
-1
100
AcDbLine
10
0
20
76
11
0
21
52.5
0
LINE
5
5C
100
AcDbEntity
8
0
6
ByLayer
62
256
370
-1
100
AcDbLine
10
0
20
52.5
11
8
21
52.5
0
LINE
5
5D
100
AcDbEntity
8
0
6
ByLayer
62
256
370
-1
100
AcDbLine
10
8
20
52.5
11
8
21
22.5
0
LINE
5
5E
100
AcDbEntity
8
0
6
ByLayer
62
256
370
-1
100
AcDbLine
10
8
20
22.5
11
0
21
22.5
0
LINE
5
5F
100
AcDbEntity
8
0
6
ByLayer
62
256
370
-1
100
AcDbLine
10
0
20
22.5
11
0
21
0
0
LINE
5
60
100
AcDbEntity
8
0
6
ByLayer
62
256
370
-1
100
AcDbLine
10
0
20
0
11
53.5
21
0
0
LINE
5
61
100
AcDbEntity
8
0
6
ByLayer
62
256
370
-1
100
AcDbLine
10
53.5
20
0
11
53.5
21
16
0
LINE
5
62
100
AcDbEntity
8
0
6
ByLayer
62
256
370
-1
100
AcDbLine
10
399.345
20
53.0245
11
399.095
21
53.2061
0
LINE
5
63
100
AcDbEntity
8
0
6
ByLayer
62
256
370
-1
100
AcDbLine
10
399.095
20
53.2061
11
399
21
53.5
0
LINE
5
64
100
AcDbEntity
8
0
6
ByLayer
62
256
370
-1
100
AcDbLine
10
399
20
53.5
11
399.095
21
53.7939
0
LINE
5
65
100
AcDbEntity
8
0
6
ByLayer
62
256
370
-1
100
AcDbLine
10
399.095
20
53.7939
11
399.345
21
53.9755
0
LINE
5
66
100
AcDbEntity
8
0
6
ByLayer
62
256
370
-1
100
AcDbLine
10
399.345
20
53.9755
11
399.655
21
53.9755
0
LINE
5
67
100
AcDbEntity
8
0
6
ByLayer
62
256
370
-1
100
AcDbLine
10
399.655
20
53.9755
11
399.905
21
53.7939
0
LINE
5
68
100
AcDbEntity
8
0
6
ByLayer
62
256
370
-1
100
AcDbLine
10
399.905
20
53.7939
11
400
21
53.5
0
LINE
5
69
100
AcDbEntity
8
0
6
ByLayer
62
256
370
-1
100
AcDbLine
10
400
20
53.5
11
399.905
21
53.2061
0
LINE
5
6A
100
AcDbEntity
8
0
6
ByLayer
62
256
370
-1
100
AcDbLine
10
399.905
20
53.2061
11
399.655
21
53.0245
0
LINE
5
6B
100
AcDbEntity
8
0
6
ByLayer
62
256
370
-1
100
AcDbLine
10
399.655
20
53.0245
11
399.345
21
53.0245
0
LINE
5
6C
100
AcDbEntity
8
0
6
ByLayer
62
256
370
-1
100
AcDbLine
10
43.3455
20
53.0245
11
43.0955
21
53.2061
0
LINE
5
6D
100
AcDbEntity
8
0
6
ByLayer
62
256
370
-1
100
AcDbLine
10
43.0955
20
53.2061
11
43
21
53.5
0
LINE
5
6E
100
AcDbEntity
8
0
6
ByLayer
62
256
370
-1
100
AcDbLine
10
43
20
53.5
11
43.0955
21
53.7939
0
LINE
5
6F
100
AcDbEntity
8
0
6
ByLayer
62
256
370
-1
100
AcDbLine
10
43.0955
20
53.7939
11
43.3455
21
53.9755
0
LINE
5
70
100
AcDbEntity
8
0
6
ByLayer
62
256
370
-1
100
AcDbLine
10
43.3455
20
53.9755
11
43.6545
21
53.9755
0
LINE
5
71
100
AcDbEntity
8
0
6
ByLayer
62
256
370
-1
100
AcDbLine
10
43.6545
20
53.9755
11
43.9045
21
53.7939
0
LINE
5
72
100
AcDbEntity
8
0
6
ByLayer
62
256
370
-1
100
AcDbLine
10
43.9045
20
53.7939
11
44
21
53.5
0
LINE
5
73
100
AcDbEntity
8
0
6
ByLayer
62
256
370
-1
100
AcDbLine
10
44
20
53.5
11
43.9045
21
53.2061
0
LINE
5
74
100
AcDbEntity
8
0
6
ByLayer
62
256
370
-1
100
AcDbLine
10
43.9045
20
53.2061
11
43.6545
21
53.0245
0
LINE
5
75
100
AcDbEntity
8
0
6
ByLayer
62
256
370
-1
100
AcDbLine
10
43.6545
20
53.0245
11
43.3455
21
53.0245
0
LINE
5
76
100
AcDbEntity
8
0
6
ByLayer
62
256
370
-1
100
AcDbLine
10
12.3455
20
53.0245
11
12.0955
21
53.2061
0
LINE
5
77
100
AcDbEntity
8
0
6
ByLayer
62
256
370
-1
100
AcDbLine
10
12.0955
20
53.2061
11
12
21
53.5
0
LINE
5
78
100
AcDbEntity
8
0
6
ByLayer
62
256
370
-1
100
AcDbLine
10
12
20
53.5
11
12.0955
21
53.7939
0
LINE
5
79
100
AcDbEntity
8
0
6
ByLayer
62
256
370
-1
100
AcDbLine
10
12.0955
20
53.7939
11
12.3455
21
53.9755
0
LINE
5
7A
100
AcDbEntity
8
0
6
ByLayer
62
256
370
-1
100
AcDbLine
10
12.3455
20
53.9755
11
12.6545
21
53.9755
0
LINE
5
7B
100
AcDbEntity
8
0
6
ByLayer
62
256
370
-1
100
AcDbLine
10
12.6545
20
53.9755
11
12.9045
21
53.7939
0
LINE
5
7C
100
AcDbEntity
8
0
6
ByLayer
62
256
370
-1
100
AcDbLine
10
12.9045
20
53.7939
11
13
21
53.5
0
LINE
5
7D
100
AcDbEntity
8
0
6
ByLayer
62
256
370
-1
100
AcDbLine
10
13
20
53.5
11
12.9045
21
53.2061
0
LINE
5
7E
100
AcDbEntity
8
0
6
ByLayer
62
256
370
-1
100
AcDbLine
10
12.9045
20
53.2061
11
12.6545
21
53.0245
0
LINE
5
7F
100
AcDbEntity
8
0
6
ByLayer
62
256
370
-1
100
AcDbLine
10
12.6545
20
53.0245
11
12.3455
21
53.0245
0
LINE
5
80
100
AcDbEntity
8
0
6
ByLayer
62
256
370
-1
100
AcDbLine
10
368.345
20
53.0245
11
368.095
21
53.2061
0
LINE
5
81
100
AcDbEntity
8
0
6
ByLayer
62
256
370
-1
100
AcDbLine
10
368.095
20
53.2061
11
368
21
53.5
0
LINE
5
82
100
AcDbEntity
8
0
6
ByLayer
62
256
370
-1
100
AcDbLine
10
368
20
53.5
11
368.095
21
53.7939
0
LINE
5
83
100
AcDbEntity
8
0
6
ByLayer
62
256
370
-1
100
AcDbLine
10
368.095
20
53.7939
11
368.345
21
53.9755
0
LINE
5
84
100
AcDbEntity
8
0
6
ByLayer
62
256
370
-1
100
AcDbLine
10
368.345
20
53.9755
11
368.655
21
53.9755
0
LINE
5
85
100
AcDbEntity
8
0
6
ByLayer
62
256
370
-1
100
AcDbLine
10
368.655
20
53.9755
11
368.905
21
53.7939
0
LINE
5
86
100
AcDbEntity
8
0
6
ByLayer
62
256
370
-1
100
AcDbLine
10
368.905
20
53.7939
11
369
21
53.5
0
LINE
5
87
100
AcDbEntity
8
0
6
ByLayer
62
256
370
-1
100
AcDbLine
10
369
20
53.5
11
368.905
21
53.2061
0
LINE
5
88
100
AcDbEntity
8
0
6
ByLayer
62
256
370
-1
100
AcDbLine
10
368.905
20
53.2061
11
368.655
21
53.0245
0
LINE
5
89
100
AcDbEntity
8
0
6
ByLayer
62
256
370
-1
100
AcDbLine
10
368.655
20
53.0245
11
368.345
21
53.0245
0
LINE
5
8A
100
AcDbEntity
8
0
6
ByLayer
62
256
370
-1
100
AcDbLine
10
384
20
26
11
384
21
26.0657
0
LINE
5
8B
100
AcDbEntity
8
0
6
ByLayer
62
256
370
-1
100
AcDbLine
10
384
20
26.0657
11
382.746
21
26.0657
0
LINE
5
8C
100
AcDbEntity
8
0
6
ByLayer
62
256
370
-1
100
AcDbLine
10
382.746
20
26.0657
11
380.292
21
26.5873
0
LINE
5
8D
100
AcDbEntity
8
0
6
ByLayer
62
256
370
-1
100
AcDbLine
10
380.292
20
26.5873
11
378
21
27.6077
0
LINE
5
8E
100
AcDbEntity
8
0
6
ByLayer
62
256
370
-1
100
AcDbLine
10
378
20
27.6077
11
375.97
21
29.0823
0
LINE
5
8F
100
AcDbEntity
8
0
6
ByLayer
62
256
370
-1
100
AcDbLine
10
375.97
20
29.0823
11
374.292
21
30.9466
0
LINE
5
90
100
AcDbEntity
8
0
6
ByLayer
62
256
370
-1
100
AcDbLine
10
374.292
20
30.9466
11
373.037
21
33.1192
0
LINE
5
91
100
AcDbEntity
8
0
6
ByLayer
62
256
370
-1
100
AcDbLine
10
373.037
20
33.1192
11
372.262
21
35.5051
0
LINE
5
92
100
AcDbEntity
8
0
6
ByLayer
62
256
370
-1
100
AcDbLine
10
372.262
20
35.5051
11
372
21
38
0
LINE
5
93
100
AcDbEntity
8
0
6
ByLayer
62
256
370
-1
100
AcDbLine
10
372
20
38
11
372.262
21
40.4949
0
LINE
5
94
100
AcDbEntity
8
0
6
ByLayer
62
256
370
-1
100
AcDbLine
10
372.262
20
40.4949
11
373.037
21
42.8808
0
LINE
5
95
100
AcDbEntity
8
0
6
ByLayer
62
256
370
-1
100
AcDbLine
10
373.037
20
42.8808
11
374.292
21
45.0534
0
LINE
5
96
100
AcDbEntity
8
0
6
ByLayer
62
256
370
-1
100
AcDbLine
10
374.292
20
45.0534
11
375.97
21
46.9177
0
LINE
5
97
100
AcDbEntity
8
0
6
ByLayer
62
256
370
-1
100
AcDbLine
10
375.97
20
46.9177
11
378
21
48.3923
0
LINE
5
98
100
AcDbEntity
8
0
6
ByLayer
62
256
370
-1
100
AcDbLine
10
378
20
48.3923
11
380.292
21
49.4127
0
LINE
5
99
100
AcDbEntity
8
0
6
ByLayer
62
256
370
-1
100
AcDbLine
10
380.292
20
49.4127
11
382.746
21
49.9342
0
LINE
5
9A
100
AcDbEntity
8
0
6
ByLayer
62
256
370
-1
100
AcDbLine
10
382.746
20
49.9342
11
384
21
49.9342
0
LINE
5
9B
100
AcDbEntity
8
0
6
ByLayer
62
256
370
-1
100
AcDbLine
10
384
20
49.9342
11
384
21
50
0
LINE
5
9C
100
AcDbEntity
8
0
6
ByLayer
62
256
370
-1
100
AcDbLine
10
384
20
50
11
396
21
50
0
LINE
5
9D
100
AcDbEntity
8
0
6
ByLayer
62
256
370
-1
100
AcDbLine
10
396
20
50
11
396
21
26
0
LINE
5
9E
100
AcDbEntity
8
0
6
ByLayer
62
256
370
-1
100
AcDbLine
10
396
20
26
11
384
21
26
0
LINE
5
9F
100
AcDbEntity
8
0
6
ByLayer
62
256
370
-1
100
AcDbLine
10
16
20
26
11
16
21
50
0
LINE
5
A0
100
AcDbEntity
8
0
6
ByLayer
62
256
370
-1
100
AcDbLine
10
16
20
50
11
28
21
50
0
LINE
5
A1
100
AcDbEntity
8
0
6
ByLayer
62
256
370
-1
100
AcDbLine
10
28
20
50
11
28
21
49.9342
0
LINE
5
A2
100
AcDbEntity
8
0
6
ByLayer
62
256
370
-1
100
AcDbLine
10
28
20
49.9342
11
29.2543
21
49.9342
0
LINE
5
A3
100
AcDbEntity
8
0
6
ByLayer
62
256
370
-1
100
AcDbLine
10
29.2543
20
49.9342
11
31.7082
21
49.4127
0
LINE
5
A4
100
AcDbEntity
8
0
6
ByLayer
62
256
370
-1
100
AcDbLine
10
31.7082
20
49.4127
11
34
21
48.3923
0
LINE
5
A5
100
AcDbEntity
8
0
6
ByLayer
62
256
370
-1
100
AcDbLine
10
34
20
48.3923
11
36.0296
21
46.9177
0
LINE
5
A6
100
AcDbEntity
8
0
6
ByLayer
62
256
370
-1
100
AcDbLine
10
36.0296
20
46.9177
11
37.7082
21
45.0534
0
LINE
5
A7
100
AcDbEntity
8
0
6
ByLayer
62
256
370
-1
100
AcDbLine
10
37.7082
20
45.0534
11
38.9625
21
42.8808
0
LINE
5
A8
100
AcDbEntity
8
0
6
ByLayer
62
256
370
-1
100
AcDbLine
10
38.9625
20
42.8808
11
39.7378
21
40.4949
0
LINE
5
A9
100
AcDbEntity
8
0
6
ByLayer
62
256
370
-1
100
AcDbLine
10
39.7378
20
40.4949
11
40
21
38
0
LINE
5
AA
100
AcDbEntity
8
0
6
ByLayer
62
256
370
-1
100
AcDbLine
10
40
20
38
11
39.7378
21
35.5051
0
LINE
5
AB
100
AcDbEntity
8
0
6
ByLayer
62
256
370
-1
100
AcDbLine
10
39.7378
20
35.5051
11
38.9625
21
33.1192
0
LINE
5
AC
100
AcDbEntity
8
0
6
ByLayer
62
256
370
-1
100
AcDbLine
10
38.9625
20
33.1192
11
37.7082
21
30.9466
0
LINE
5
AD
100
AcDbEntity
8
0
6
ByLayer
62
256
370
-1
100
AcDbLine
10
37.7082
20
30.9466
11
36.0296
21
29.0823
0
LINE
5
AE
100
AcDbEntity
8
0
6
ByLayer
62
256
370
-1
100
AcDbLine
10
36.0296
20
29.0823
11
34
21
27.6077
0
LINE
5
AF
100
AcDbEntity
8
0
6
ByLayer
62
256
370
-1
100
AcDbLine
10
34
20
27.6077
11
31.7082
21
26.5873
0
LINE
5
B0
100
AcDbEntity
8
0
6
ByLayer
62
256
370
-1
100
AcDbLine
10
31.7082
20
26.5873
11
29.2543
21
26.0657
0
LINE
5
B1
100
AcDbEntity
8
0
6
ByLayer
62
256
370
-1
100
AcDbLine
10
29.2543
20
26.0657
11
28
21
26.0657
0
LINE
5
B2
100
AcDbEntity
8
0
6
ByLayer
62
256
370
-1
100
AcDbLine
10
28
20
26.0657
11
28
21
26
0
LINE
5
B3
100
AcDbEntity
8
0
6
ByLayer
62
256
370
-1
100
AcDbLine
10
28
20
26
11
16
21
26
0
LINE
5
B4
100
AcDbEntity
8
0
6
ByLayer
62
256
370
-1
100
AcDbLine
10
60.9477
20
37.5027
11
60.8455
21
37.5245
0
LINE
5
B5
100
AcDbEntity
8
0
6
ByLayer
62
256
370
-1
100
AcDbLine
10
60.8455
20
37.5245
11
60.75
21
37.567
0
LINE
5
B6
100
AcDbEntity
8
0
6
ByLayer
62
256
370
-1
100
AcDbLine
10
60.75
20
37.567
11
60.6654
21
37.6284
0
LINE
5
B7
100
AcDbEntity
8
0
6
ByLayer
62
256
370
-1
100
AcDbLine
10
60.6654
20
37.6284
11
60.5955
21
37.7061
0
LINE
5
B8
100
AcDbEntity
8
0
6
ByLayer
62
256
370
-1
100
AcDbLine
10
60.5955
20
37.7061
11
60.5432
21
37.7966
0
LINE
5
B9
100
AcDbEntity
8
0
6
ByLayer
62
256
370
-1
100
AcDbLine
10
60.5432
20
37.7966
11
60.5109
21
37.896
0
LINE
5
BA
100
AcDbEntity
8
0
6
ByLayer
62
256
370
-1
100
AcDbLine
10
60.5109
20
37.896
11
60.5
21
38
0
LINE
5
BB
100
AcDbEntity
8
0
6
ByLayer
62
256
370
-1
100
AcDbLine
10
60.5
20
38
11
60.5109
21
38.1039
0
LINE
5
BC
100
AcDbEntity
8
0
6
ByLayer
62
256
370
-1
100
AcDbLine
10
60.5109
20
38.1039
11
60.5432
21
38.2034
0
LINE
5
BD
100
AcDbEntity
8
0
6
ByLayer
62
256
370
-1
100
AcDbLine
10
60.5432
20
38.2034
11
60.5955
21
38.2939
0
LINE
5
BE
100
AcDbEntity
8
0
6
ByLayer
62
256
370
-1
100
AcDbLine
10
60.5955
20
38.2939
11
60.6654
21
38.3716
0
LINE
5
BF
100
AcDbEntity
8
0
6
ByLayer
62
256
370
-1
100
AcDbLine
10
60.6654
20
38.3716
11
60.75
21
38.433
0
LINE
5
C0
100
AcDbEntity
8
0
6
ByLayer
62
256
370
-1
100
AcDbLine
10
60.75
20
38.433
11
60.8455
21
38.4755
0
LINE
5
C1
100
AcDbEntity
8
0
6
ByLayer
62
256
370
-1
100
AcDbLine
10
60.8455
20
38.4755
11
60.9477
21
38.4973
0
LINE
5
C2
100
AcDbEntity
8
0
6
ByLayer
62
256
370
-1
100
AcDbLine
10
60.9477
20
38.4973
11
61.0523
21
38.4973
0
LINE
5
C3
100
AcDbEntity
8
0
6
ByLayer
62
256
370
-1
100
AcDbLine
10
61.0523
20
38.4973
11
61.1545
21
38.4755
0
LINE
5
C4
100
AcDbEntity
8
0
6
ByLayer
62
256
370
-1
100
AcDbLine
10
61.1545
20
38.4755
11
61.25
21
38.433
0
LINE
5
C5
100
AcDbEntity
8
0
6
ByLayer
62
256
370
-1
100
AcDbLine
10
61.25
20
38.433
11
61.3346
21
38.3716
0
LINE
5
C6
100
AcDbEntity
8
0
6
ByLayer
62
256
370
-1
100
AcDbLine
10
61.3346
20
38.3716
11
61.4045
21
38.2939
0
LINE
5
C7
100
AcDbEntity
8
0
6
ByLayer
62
256
370
-1
100
AcDbLine
10
61.4045
20
38.2939
11
61.4568
21
38.2034
0
LINE
5
C8
100
AcDbEntity
8
0
6
ByLayer
62
256
370
-1
100
AcDbLine
10
61.4568
20
38.2034
11
61.4891
21
38.1039
0
LINE
5
C9
100
AcDbEntity
8
0
6
ByLayer
62
256
370
-1
100
AcDbLine
10
61.4891
20
38.1039
11
61.5
21
38
0
LINE
5
CA
100
AcDbEntity
8
0
6
ByLayer
62
256
370
-1
100
AcDbLine
10
61.5
20
38
11
61.4891
21
37.896
0
LINE
5
CB
100
AcDbEntity
8
0
6
ByLayer
62
256
370
-1
100
AcDbLine
10
61.4891
20
37.896
11
61.4568
21
37.7966
0
LINE
5
CC
100
AcDbEntity
8
0
6
ByLayer
62
256
370
-1
100
AcDbLine
10
61.4568
20
37.7966
11
61.4045
21
37.7061
0
LINE
5
CD
100
AcDbEntity
8
0
6
ByLayer
62
256
370
-1
100
AcDbLine
10
61.4045
20
37.7061
11
61.3346
21
37.6284
0
LINE
5
CE
100
AcDbEntity
8
0
6
ByLayer
62
256
370
-1
100
AcDbLine
10
61.3346
20
37.6284
11
61.25
21
37.567
0
LINE
5
CF
100
AcDbEntity
8
0
6
ByLayer
62
256
370
-1
100
AcDbLine
10
61.25
20
37.567
11
61.1545
21
37.5245
0
LINE
5
D0
100
AcDbEntity
8
0
6
ByLayer
62
256
370
-1
100
AcDbLine
10
61.1545
20
37.5245
11
61.0523
21
37.5027
0
LINE
5
D1
100
AcDbEntity
8
0
6
ByLayer
62
256
370
-1
100
AcDbLine
10
61.0523
20
37.5027
11
60.9477
21
37.5027
0
LINE
5
D2
100
AcDbEntity
8
0
6
ByLayer
62
256
370
-1
100
AcDbLine
10
350.948
20
37.5027
11
350.845
21
37.5245
0
LINE
5
D3
100
AcDbEntity
8
0
6
ByLayer
62
256
370
-1
100
AcDbLine
10
350.845
20
37.5245
11
350.75
21
37.567
0
LINE
5
D4
100
AcDbEntity
8
0
6
ByLayer
62
256
370
-1
100
AcDbLine
10
350.75
20
37.567
11
350.665
21
37.6284
0
LINE
5
D5
100
AcDbEntity
8
0
6
ByLayer
62
256
370
-1
100
AcDbLine
10
350.665
20
37.6284
11
350.595
21
37.7061
0
LINE
5
D6
100
AcDbEntity
8
0
6
ByLayer
62
256
370
-1
100
AcDbLine
10
350.595
20
37.7061
11
350.543
21
37.7966
0
LINE
5
D7
100
AcDbEntity
8
0
6
ByLayer
62
256
370
-1
100
AcDbLine
10
350.543
20
37.7966
11
350.511
21
37.896
0
LINE
5
D8
100
AcDbEntity
8
0
6
ByLayer
62
256
370
-1
100
AcDbLine
10
350.511
20
37.896
11
350.5
21
38
0
LINE
5
D9
100
AcDbEntity
8
0
6
ByLayer
62
256
370
-1
100
AcDbLine
10
350.5
20
38
11
350.511
21
38.1039
0
LINE
5
DA
100
AcDbEntity
8
0
6
ByLayer
62
256
370
-1
100
AcDbLine
10
350.511
20
38.1039
11
350.543
21
38.2034
0
LINE
5
DB
100
AcDbEntity
8
0
6
ByLayer
62
256
370
-1
100
AcDbLine
10
350.543
20
38.2034
11
350.595
21
38.2939
0
LINE
5
DC
100
AcDbEntity
8
0
6
ByLayer
62
256
370
-1
100
AcDbLine
10
350.595
20
38.2939
11
350.665
21
38.3716
0
LINE
5
DD
100
AcDbEntity
8
0
6
ByLayer
62
256
370
-1
100
AcDbLine
10
350.665
20
38.3716
11
350.75
21
38.433
0
LINE
5
DE
100
AcDbEntity
8
0
6
ByLayer
62
256
370
-1
100
AcDbLine
10
350.75
20
38.433
11
350.845
21
38.4755
0
LINE
5
DF
100
AcDbEntity
8
0
6
ByLayer
62
256
370
-1
100
AcDbLine
10
350.845
20
38.4755
11
350.948
21
38.4973
0
LINE
5
E0
100
AcDbEntity
8
0
6
ByLayer
62
256
370
-1
100
AcDbLine
10
350.948
20
38.4973
11
351.052
21
38.4973
0
LINE
5
E1
100
AcDbEntity
8
0
6
ByLayer
62
256
370
-1
100
AcDbLine
10
351.052
20
38.4973
11
351.155
21
38.4755
0
LINE
5
E2
100
AcDbEntity
8
0
6
ByLayer
62
256
370
-1
100
AcDbLine
10
351.155
20
38.4755
11
351.25
21
38.433
0
LINE
5
E3
100
AcDbEntity
8
0
6
ByLayer
62
256
370
-1
100
AcDbLine
10
351.25
20
38.433
11
351.335
21
38.3716
0
LINE
5
E4
100
AcDbEntity
8
0
6
ByLayer
62
256
370
-1
100
AcDbLine
10
351.335
20
38.3716
11
351.405
21
38.2939
0
LINE
5
E5
100
AcDbEntity
8
0
6
ByLayer
62
256
370
-1
100
AcDbLine
10
351.405
20
38.2939
11
351.457
21
38.2034
0
LINE
5
E6
100
AcDbEntity
8
0
6
ByLayer
62
256
370
-1
100
AcDbLine
10
351.457
20
38.2034
11
351.489
21
38.1039
0
LINE
5
E7
100
AcDbEntity
8
0
6
ByLayer
62
256
370
-1
100
AcDbLine
10
351.489
20
38.1039
11
351.5
21
38
0
LINE
5
E8
100
AcDbEntity
8
0
6
ByLayer
62
256
370
-1
100
AcDbLine
10
351.5
20
38
11
351.489
21
37.896
0
LINE
5
E9
100
AcDbEntity
8
0
6
ByLayer
62
256
370
-1
100
AcDbLine
10
351.489
20
37.896
11
351.457
21
37.7966
0
LINE
5
EA
100
AcDbEntity
8
0
6
ByLayer
62
256
370
-1
100
AcDbLine
10
351.457
20
37.7966
11
351.405
21
37.7061
0
LINE
5
EB
100
AcDbEntity
8
0
6
ByLayer
62
256
370
-1
100
AcDbLine
10
351.405
20
37.7061
11
351.335
21
37.6284
0
LINE
5
EC
100
AcDbEntity
8
0
6
ByLayer
62
256
370
-1
100
AcDbLine
10
351.335
20
37.6284
11
351.25
21
37.567
0
LINE
5
ED
100
AcDbEntity
8
0
6
ByLayer
62
256
370
-1
100
AcDbLine
10
351.25
20
37.567
11
351.155
21
37.5245
0
LINE
5
EE
100
AcDbEntity
8
0
6
ByLayer
62
256
370
-1
100
AcDbLine
10
351.155
20
37.5245
11
351.052
21
37.5027
0
LINE
5
EF
100
AcDbEntity
8
0
6
ByLayer
62
256
370
-1
100
AcDbLine
10
351.052
20
37.5027
11
350.948
21
37.5027
0
LINE
5
F0
100
AcDbEntity
8
0
6
ByLayer
62
256
370
-1
100
AcDbLine
10
12.3455
20
22.0245
11
12.0955
21
22.2061
0
LINE
5
F1
100
AcDbEntity
8
0
6
ByLayer
62
256
370
-1
100
AcDbLine
10
12.0955
20
22.2061
11
12
21
22.5
0
LINE
5
F2
100
AcDbEntity
8
0
6
ByLayer
62
256
370
-1
100
AcDbLine
10
12
20
22.5
11
12.0955
21
22.7939
0
LINE
5
F3
100
AcDbEntity
8
0
6
ByLayer
62
256
370
-1
100
AcDbLine
10
12.0955
20
22.7939
11
12.3455
21
22.9755
0
LINE
5
F4
100
AcDbEntity
8
0
6
ByLayer
62
256
370
-1
100
AcDbLine
10
12.3455
20
22.9755
11
12.6545
21
22.9755
0
LINE
5
F5
100
AcDbEntity
8
0
6
ByLayer
62
256
370
-1
100
AcDbLine
10
12.6545
20
22.9755
11
12.9045
21
22.7939
0
LINE
5
F6
100
AcDbEntity
8
0
6
ByLayer
62
256
370
-1
100
AcDbLine
10
12.9045
20
22.7939
11
13
21
22.5
0
LINE
5
F7
100
AcDbEntity
8
0
6
ByLayer
62
256
370
-1
100
AcDbLine
10
13
20
22.5
11
12.9045
21
22.2061
0
LINE
5
F8
100
AcDbEntity
8
0
6
ByLayer
62
256
370
-1
100
AcDbLine
10
12.9045
20
22.2061
11
12.6545
21
22.0245
0
LINE
5
F9
100
AcDbEntity
8
0
6
ByLayer
62
256
370
-1
100
AcDbLine
10
12.6545
20
22.0245
11
12.3455
21
22.0245
0
LINE
5
FA
100
AcDbEntity
8
0
6
ByLayer
62
256
370
-1
100
AcDbLine
10
368.345
20
22.0245
11
368.095
21
22.2061
0
LINE
5
FB
100
AcDbEntity
8
0
6
ByLayer
62
256
370
-1
100
AcDbLine
10
368.095
20
22.2061
11
368
21
22.5
0
LINE
5
FC
100
AcDbEntity
8
0
6
ByLayer
62
256
370
-1
100
AcDbLine
10
368
20
22.5
11
368.095
21
22.7939
0
LINE
5
FD
100
AcDbEntity
8
0
6
ByLayer
62
256
370
-1
100
AcDbLine
10
368.095
20
22.7939
11
368.345
21
22.9755
0
LINE
5
FE
100
AcDbEntity
8
0
6
ByLayer
62
256
370
-1
100
AcDbLine
10
368.345
20
22.9755
11
368.655
21
22.9755
0
LINE
5
FF
100
AcDbEntity
8
0
6
ByLayer
62
256
370
-1
100
AcDbLine
10
368.655
20
22.9755
11
368.905
21
22.7939
0
LINE
5
100
100
AcDbEntity
8
0
6
ByLayer
62
256
370
-1
100
AcDbLine
10
368.905
20
22.7939
11
369
21
22.5
0
LINE
5
101
100
AcDbEntity
8
0
6
ByLayer
62
256
370
-1
100
AcDbLine
10
369
20
22.5
11
368.905
21
22.2061
0
LINE
5
102
100
AcDbEntity
8
0
6
ByLayer
62
256
370
-1
100
AcDbLine
10
368.905
20
22.2061
11
368.655
21
22.0245
0
LINE
5
103
100
AcDbEntity
8
0
6
ByLayer
62
256
370
-1
100
AcDbLine
10
368.655
20
22.0245
11
368.345
21
22.0245
0
LINE
5
104
100
AcDbEntity
8
0
6
ByLayer
62
256
370
-1
100
AcDbLine
10
43.3455
20
22.0245
11
43.0955
21
22.2061
0
LINE
5
105
100
AcDbEntity
8
0
6
ByLayer
62
256
370
-1
100
AcDbLine
10
43.0955
20
22.2061
11
43
21
22.5
0
LINE
5
106
100
AcDbEntity
8
0
6
ByLayer
62
256
370
-1
100
AcDbLine
10
43
20
22.5
11
43.0955
21
22.7939
0
LINE
5
107
100
AcDbEntity
8
0
6
ByLayer
62
256
370
-1
100
AcDbLine
10
43.0955
20
22.7939
11
43.3455
21
22.9755
0
LINE
5
108
100
AcDbEntity
8
0
6
ByLayer
62
256
370
-1
100
AcDbLine
10
43.3455
20
22.9755
11
43.6545
21
22.9755
0
LINE
5
109
100
AcDbEntity
8
0
6
ByLayer
62
256
370
-1
100
AcDbLine
10
43.6545
20
22.9755
11
43.9045
21
22.7939
0
LINE
5
10A
100
AcDbEntity
8
0
6
ByLayer
62
256
370
-1
100
AcDbLine
10
43.9045
20
22.7939
11
44
21
22.5
0
LINE
5
10B
100
AcDbEntity
8
0
6
ByLayer
62
256
370
-1
100
AcDbLine
10
44
20
22.5
11
43.9045
21
22.2061
0
LINE
5
10C
100
AcDbEntity
8
0
6
ByLayer
62
256
370
-1
100
AcDbLine
10
43.9045
20
22.2061
11
43.6545
21
22.0245
0
LINE
5
10D
100
AcDbEntity
8
0
6
ByLayer
62
256
370
-1
100
AcDbLine
10
43.6545
20
22.0245
11
43.3455
21
22.0245
0
LINE
5
10E
100
AcDbEntity
8
0
6
ByLayer
62
256
370
-1
100
AcDbLine
10
399.345
20
22.0245
11
399.095
21
22.2061
0
LINE
5
10F
100
AcDbEntity
8
0
6
ByLayer
62
256
370
-1
100
AcDbLine
10
399.095
20
22.2061
11
399
21
22.5
0
LINE
5
110
100
AcDbEntity
8
0
6
ByLayer
62
256
370
-1
100
AcDbLine
10
399
20
22.5
11
399.095
21
22.7939
0
LINE
5
111
100
AcDbEntity
8
0
6
ByLayer
62
256
370
-1
100
AcDbLine
10
399.095
20
22.7939
11
399.345
21
22.9755
0
LINE
5
112
100
AcDbEntity
8
0
6
ByLayer
62
256
370
-1
100
AcDbLine
10
399.345
20
22.9755
11
399.655
21
22.9755
0
LINE
5
113
100
AcDbEntity
8
0
6
ByLayer
62
256
370
-1
100
AcDbLine
10
399.655
20
22.9755
11
399.905
21
22.7939
0
LINE
5
114
100
AcDbEntity
8
0
6
ByLayer
62
256
370
-1
100
AcDbLine
10
399.905
20
22.7939
11
400
21
22.5
0
LINE
5
115
100
AcDbEntity
8
0
6
ByLayer
62
256
370
-1
100
AcDbLine
10
400
20
22.5
11
399.905
21
22.2061
0
LINE
5
116
100
AcDbEntity
8
0
6
ByLayer
62
256
370
-1
100
AcDbLine
10
399.905
20
22.2061
11
399.655
21
22.0245
0
LINE
5
117
100
AcDbEntity
8
0
6
ByLayer
62
256
370
-1
100
AcDbLine
10
399.655
20
22.0245
11
399.345
21
22.0245
0
ENDSEC
0
SECTION
2
OBJECTS
0
DICTIONARY
5
C
330
0
100
AcDbDictionary
281
1
3
ACAD_GROUP
350
D
0
DICTIONARY
5
D
330
C
100
AcDbDictionary
281
1
0
ENDSEC
0
EOF
