  0
SECTION
  2
BLOCKS
  0
ENDSEC
  0
SECTION
  2
ENTITIES
  0
LINE
  8
0
 10
177.658
 20
15
 11
221.658
 21
15
  0
LINE
  8
0
 10
221.658
 20
15
 11
221.658
 21
0
  0
LINE
  8
0
 10
221.658
 20
0
 11
390.755
 21
0
  0
LINE
  8
0
 10
390.755
 20
0
 11
399.316
 21
25
  0
LINE
  8
0
 10
399.316
 20
25
 11
399.316
 21
90
  0
LINE
  8
0
 10
399.316
 20
90
 11
237.658
 21
370
  0
LINE
  8
0
 10
237.658
 20
370
 11
188.658
 21
370
  0
LINE
  8
0
 10
188.658
 20
370
 11
188.658
 21
350
  0
LINE
  8
0
 10
188.658
 20
350
 11
173.658
 21
350
  0
LINE
  8
0
 10
173.658
 20
350
 11
173.658
 21
370
  0
LINE
  8
0
 10
173.658
 20
370
 11
161.658
 21
370
  0
LINE
  8
0
 10
161.658
 20
370
 11
0
 21
90
  0
LINE
  8
0
 10
0
 20
90
 11
0
 21
25
  0
LINE
  8
0
 10
0
 20
25
 11
8.56163
 21
0
  0
LINE
  8
0
 10
8.56163
 20
0
 11
177.658
 21
0
  0
LINE
  8
0
 10
177.658
 20
0
 11
177.658
 21
15
  0
LINE
  8
0
 10
55
 20
50
 11
35.094
 21
90
  0
LINE
  8
0
 10
35.094
 20
90
 11
173.658
 21
330
  0
LINE
  8
0
 10
173.658
 20
330
 11
225.658
 21
330
  0
LINE
  8
0
 10
225.658
 20
330
 11
364.222
 21
90
  0
LINE
  8
0
 10
364.222
 20
90
 11
344.316
 21
50
  0
LINE
  8
0
 10
344.316
 20
50
 11
55
 21
50
  0
LINE
  8
0
 10
195
 20
118
 11
148.562
 21
118
  0
LINE
  8
0
 10
148.562
 20
118
 11
165
 21
70
  0
LINE
  8
0
 10
165
 20
70
 11
195
 21
70
  0
LINE
  8
0
 10
195
 20
70
 11
195
 21
118
  0
LINE
  8
0
 10
125
 20
118
 11
78.5616
 21
118
  0
LINE
  8
0
 10
78.5616
 20
118
 11
95
 21
70
  0
LINE
  8
0
 10
95
 20
70
 11
125
 21
70
  0
LINE
  8
0
 10
125
 20
70
 11
125
 21
118
  0
LINE
  8
0
 10
380.24
 20
35.0219
 11
379.422
 21
35.1958
  0
LINE
  8
0
 10
379.422
 20
35.1958
 11
378.658
 21
35.5359
  0
LINE
  8
0
 10
378.658
 20
35.5359
 11
377.982
 21
36.0274
  0
LINE
  8
0
 10
377.982
 20
36.0274
 11
377.422
 21
36.6488
  0
LINE
  8
0
 10
377.422
 20
36.6488
 11
377.004
 21
37.373
  0
LINE
  8
0
 10
377.004
 20
37.373
 11
376.745
 21
38.1684
  0
LINE
  8
0
 10
376.745
 20
38.1684
 11
376.658
 21
39
  0
LINE
  8
0
 10
376.658
 20
39
 11
376.745
 21
39.8316
  0
LINE
  8
0
 10
376.745
 20
39.8316
 11
377.004
 21
40.6269
  0
LINE
  8
0
 10
377.004
 20
40.6269
 11
377.422
 21
41.3511
  0
LINE
  8
0
 10
377.422
 20
41.3511
 11
377.982
 21
41.9726
  0
LINE
  8
0
 10
377.982
 20
41.9726
 11
378.658
 21
42.4641
  0
LINE
  8
0
 10
378.658
 20
42.4641
 11
379.422
 21
42.8042
  0
LINE
  8
0
 10
379.422
 20
42.8042
 11
380.24
 21
42.9781
  0
LINE
  8
0
 10
380.24
 20
42.9781
 11
381.076
 21
42.9781
  0
LINE
  8
0
 10
381.076
 20
42.9781
 11
381.894
 21
42.8042
  0
LINE
  8
0
 10
381.894
 20
42.8042
 11
382.658
 21
42.4641
  0
LINE
  8
0
 10
382.658
 20
42.4641
 11
383.335
 21
41.9726
  0
LINE
  8
0
 10
383.335
 20
41.9726
 11
383.894
 21
41.3511
  0
LINE
  8
0
 10
383.894
 20
41.3511
 11
384.312
 21
40.6269
  0
LINE
  8
0
 10
384.312
 20
40.6269
 11
384.571
 21
39.8316
  0
LINE
  8
0
 10
384.571
 20
39.8316
 11
384.658
 21
39
  0
LINE
  8
0
 10
384.658
 20
39
 11
384.571
 21
38.1684
  0
LINE
  8
0
 10
384.571
 20
38.1684
 11
384.312
 21
37.373
  0
LINE
  8
0
 10
384.312
 20
37.373
 11
383.894
 21
36.6488
  0
LINE
  8
0
 10
383.894
 20
36.6488
 11
383.335
 21
36.0274
  0
LINE
  8
0
 10
383.335
 20
36.0274
 11
382.658
 21
35.5359
  0
LINE
  8
0
 10
382.658
 20
35.5359
 11
381.894
 21
35.1958
  0
LINE
  8
0
 10
381.894
 20
35.1958
 11
381.076
 21
35.0219
  0
LINE
  8
0
 10
381.076
 20
35.0219
 11
380.24
 21
35.0219
  0
LINE
  8
0
 10
18.24
 20
35.0219
 11
17.422
 21
35.1958
  0
LINE
  8
0
 10
17.422
 20
35.1958
 11
16.6581
 21
35.5359
  0
LINE
  8
0
 10
16.6581
 20
35.5359
 11
15.9816
 21
36.0274
  0
LINE
  8
0
 10
15.9816
 20
36.0274
 11
15.422
 21
36.6488
  0
LINE
  8
0
 10
15.422
 20
36.6488
 11
15.0039
 21
37.373
  0
LINE
  8
0
 10
15.0039
 20
37.373
 11
14.7455
 21
38.1684
  0
LINE
  8
0
 10
14.7455
 20
38.1684
 11
14.6581
 21
39
  0
LINE
  8
0
 10
14.6581
 20
39
 11
14.7455
 21
39.8316
  0
LINE
  8
0
 10
14.7455
 20
39.8316
 11
15.0039
 21
40.6269
  0
LINE
  8
0
 10
15.0039
 20
40.6269
 11
15.422
 21
41.3511
  0
LINE
  8
0
 10
15.422
 20
41.3511
 11
15.9816
 21
41.9726
  0
LINE
  8
0
 10
15.9816
 20
41.9726
 11
16.6581
 21
42.4641
  0
LINE
  8
0
 10
16.6581
 20
42.4641
 11
17.422
 21
42.8042
  0
LINE
  8
0
 10
17.422
 20
42.8042
 11
18.24
 21
42.9781
  0
LINE
  8
0
 10
18.24
 20
42.9781
 11
19.0762
 21
42.9781
  0
LINE
  8
0
 10
19.0762
 20
42.9781
 11
19.8941
 21
42.8042
  0
LINE
  8
0
 10
19.8941
 20
42.8042
 11
20.6581
 21
42.4641
  0
LINE
  8
0
 10
20.6581
 20
42.4641
 11
21.3346
 21
41.9726
  0
LINE
  8
0
 10
21.3346
 20
41.9726
 11
21.8941
 21
41.3511
  0
LINE
  8
0
 10
21.8941
 20
41.3511
 11
22.3123
 21
40.6269
  0
LINE
  8
0
 10
22.3123
 20
40.6269
 11
22.5707
 21
39.8316
  0
LINE
  8
0
 10
22.5707
 20
39.8316
 11
22.6581
 21
39
  0
LINE
  8
0
 10
22.6581
 20
39
 11
22.5707
 21
38.1684
  0
LINE
  8
0
 10
22.5707
 20
38.1684
 11
22.3123
 21
37.373
  0
LINE
  8
0
 10
22.3123
 20
37.373
 11
21.8941
 21
36.6488
  0
LINE
  8
0
 10
21.8941
 20
36.6488
 11
21.3346
 21
36.0274
  0
LINE
  8
0
 10
21.3346
 20
36.0274
 11
20.6581
 21
35.5359
  0
LINE
  8
0
 10
20.6581
 20
35.5359
 11
19.8941
 21
35.1958
  0
LINE
  8
0
 10
19.8941
 20
35.1958
 11
19.0762
 21
35.0219
  0
LINE
  8
0
 10
19.0762
 20
35.0219
 11
18.24
 21
35.0219
  0
LINE
  8
0
 10
364.24
 20
10.0219
 11
363.422
 21
10.1958
  0
LINE
  8
0
 10
363.422
 20
10.1958
 11
362.658
 21
10.5359
  0
LINE
  8
0
 10
362.658
 20
10.5359
 11
361.982
 21
11.0274
  0
LINE
  8
0
 10
361.982
 20
11.0274
 11
361.422
 21
11.6488
  0
LINE
  8
0
 10
361.422
 20
11.6488
 11
361.004
 21
12.373
  0
LINE
  8
0
 10
361.004
 20
12.373
 11
360.745
 21
13.1684
  0
LINE
  8
0
 10
360.745
 20
13.1684
 11
360.658
 21
14
  0
LINE
  8
0
 10
360.658
 20
14
 11
360.745
 21
14.8316
  0
LINE
  8
0
 10
360.745
 20
14.8316
 11
361.004
 21
15.6269
  0
LINE
  8
0
 10
361.004
 20
15.6269
 11
361.422
 21
16.3511
  0
LINE
  8
0
 10
361.422
 20
16.3511
 11
361.982
 21
16.9726
  0
LINE
  8
0
 10
361.982
 20
16.9726
 11
362.658
 21
17.4641
  0
LINE
  8
0
 10
362.658
 20
17.4641
 11
363.422
 21
17.8042
  0
LINE
  8
0
 10
363.422
 20
17.8042
 11
364.24
 21
17.9781
  0
LINE
  8
0
 10
364.24
 20
17.9781
 11
365.076
 21
17.9781
  0
LINE
  8
0
 10
365.076
 20
17.9781
 11
365.894
 21
17.8042
  0
LINE
  8
0
 10
365.894
 20
17.8042
 11
366.658
 21
17.4641
  0
LINE
  8
0
 10
366.658
 20
17.4641
 11
367.335
 21
16.9726
  0
LINE
  8
0
 10
367.335
 20
16.9726
 11
367.894
 21
16.3511
  0
LINE
  8
0
 10
367.894
 20
16.3511
 11
368.312
 21
15.6269
  0
LINE
  8
0
 10
368.312
 20
15.6269
 11
368.571
 21
14.8316
  0
LINE
  8
0
 10
368.571
 20
14.8316
 11
368.658
 21
14
  0
LINE
  8
0
 10
368.658
 20
14
 11
368.571
 21
13.1684
  0
LINE
  8
0
 10
368.571
 20
13.1684
 11
368.312
 21
12.373
  0
LINE
  8
0
 10
368.312
 20
12.373
 11
367.894
 21
11.6488
  0
LINE
  8
0
 10
367.894
 20
11.6488
 11
367.335
 21
11.0274
  0
LINE
  8
0
 10
367.335
 20
11.0274
 11
366.658
 21
10.5359
  0
LINE
  8
0
 10
366.658
 20
10.5359
 11
365.894
 21
10.1958
  0
LINE
  8
0
 10
365.894
 20
10.1958
 11
365.076
 21
10.0219
  0
LINE
  8
0
 10
365.076
 20
10.0219
 11
364.24
 21
10.0219
  0
LINE
  8
0
 10
34.24
 20
10.0219
 11
33.422
 21
10.1958
  0
LINE
  8
0
 10
33.422
 20
10.1958
 11
32.6581
 21
10.5359
  0
LINE
  8
0
 10
32.6581
 20
10.5359
 11
31.9816
 21
11.0274
  0
LINE
  8
0
 10
31.9816
 20
11.0274
 11
31.422
 21
11.6488
  0
LINE
  8
0
 10
31.422
 20
11.6488
 11
31.0039
 21
12.373
  0
LINE
  8
0
 10
31.0039
 20
12.373
 11
30.7455
 21
13.1684
  0
LINE
  8
0
 10
30.7455
 20
13.1684
 11
30.6581
 21
14
  0
LINE
  8
0
 10
30.6581
 20
14
 11
30.7455
 21
14.8316
  0
LINE
  8
0
 10
30.7455
 20
14.8316
 11
31.0039
 21
15.6269
  0
LINE
  8
0
 10
31.0039
 20
15.6269
 11
31.422
 21
16.3511
  0
LINE
  8
0
 10
31.422
 20
16.3511
 11
31.9816
 21
16.9726
  0
LINE
  8
0
 10
31.9816
 20
16.9726
 11
32.6581
 21
17.4641
  0
LINE
  8
0
 10
32.6581
 20
17.4641
 11
33.422
 21
17.8042
  0
LINE
  8
0
 10
33.422
 20
17.8042
 11
34.24
 21
17.9781
  0
LINE
  8
0
 10
34.24
 20
17.9781
 11
35.0762
 21
17.9781
  0
LINE
  8
0
 10
35.0762
 20
17.9781
 11
35.8941
 21
17.8042
  0
LINE
  8
0
 10
35.8941
 20
17.8042
 11
36.6581
 21
17.4641
  0
LINE
  8
0
 10
36.6581
 20
17.4641
 11
37.3346
 21
16.9726
  0
LINE
  8
0
 10
37.3346
 20
16.9726
 11
37.8941
 21
16.3511
  0
LINE
  8
0
 10
37.8941
 20
16.3511
 11
38.3123
 21
15.6269
  0
LINE
  8
0
 10
38.3123
 20
15.6269
 11
38.5707
 21
14.8316
  0
LINE
  8
0
 10
38.5707
 20
14.8316
 11
38.6581
 21
14
  0
LINE
  8
0
 10
38.6581
 20
14
 11
38.5707
 21
13.1684
  0
LINE
  8
0
 10
38.5707
 20
13.1684
 11
38.3123
 21
12.373
  0
LINE
  8
0
 10
38.3123
 20
12.373
 11
37.8941
 21
11.6488
  0
LINE
  8
0
 10
37.8941
 20
11.6488
 11
37.3346
 21
11.0274
  0
LINE
  8
0
 10
37.3346
 20
11.0274
 11
36.6581
 21
10.5359
  0
LINE
  8
0
 10
36.6581
 20
10.5359
 11
35.8941
 21
10.1958
  0
LINE
  8
0
 10
35.8941
 20
10.1958
 11
35.0762
 21
10.0219
  0
LINE
  8
0
 10
35.0762
 20
10.0219
 11
34.24
 21
10.0219
  0
LINE
  8
0
 10
631.287
 20
10.8779
 11
389.238
 21
356.56
  0
LINE
  8
0
 10
389.238
 20
356.56
 11
361.383
 21
361.472
  0
LINE
  8
0
 10
361.383
 20
361.472
 11
345
 21
350
  0
LINE
  8
0
 10
345
 20
350
 11
384.29
 21
293.888
  0
LINE
  8
0
 10
384.29
 20
293.888
 11
400.673
 21
305.36
  0
LINE
  8
0
 10
400.673
 20
305.36
 11
409.277
 21
293.072
  0
LINE
  8
0
 10
409.277
 20
293.072
 11
392.894
 21
281.601
  0
LINE
  8
0
 10
392.894
 20
281.601
 11
550.627
 21
56.334
  0
LINE
  8
0
 10
550.627
 20
56.334
 11
567.01
 21
67.8055
  0
LINE
  8
0
 10
567.01
 20
67.8055
 11
575.614
 21
55.5182
  0
LINE
  8
0
 10
575.614
 20
55.5182
 11
559.231
 21
44.0467
  0
LINE
  8
0
 10
559.231
 20
44.0467
 11
587.049
 21
4.31783
  0
LINE
  8
0
 10
587.049
 20
4.31783
 11
614.904
 21
-0.593674
  0
LINE
  8
0
 10
614.904
 20
-0.593674
 11
631.287
 21
10.8779
  0
LINE
  8
0
 10
365.097
 20
355.338
 11
364.92
 21
355.591
  0
LINE
  8
0
 10
364.92
 20
355.591
 11
364.925
 21
355.9
  0
LINE
  8
0
 10
364.925
 20
355.9
 11
365.111
 21
356.147
  0
LINE
  8
0
 10
365.111
 20
356.147
 11
365.407
 21
356.237
  0
LINE
  8
0
 10
365.407
 20
356.237
 11
365.699
 21
356.137
  0
LINE
  8
0
 10
365.699
 20
356.137
 11
365.876
 21
355.884
  0
LINE
  8
0
 10
365.876
 20
355.884
 11
365.871
 21
355.575
  0
LINE
  8
0
 10
365.871
 20
355.575
 11
365.685
 21
355.328
  0
LINE
  8
0
 10
365.685
 20
355.328
 11
365.389
 21
355.238
  0
LINE
  8
0
 10
365.389
 20
355.238
 11
365.097
 21
355.338
  0
LINE
  8
0
 10
374.274
 20
342.232
 11
374.097
 21
342.485
  0
LINE
  8
0
 10
374.097
 20
342.485
 11
374.103
 21
342.794
  0
LINE
  8
0
 10
374.103
 20
342.794
 11
374.289
 21
343.041
  0
LINE
  8
0
 10
374.289
 20
343.041
 11
374.584
 21
343.131
  0
LINE
  8
0
 10
374.584
 20
343.131
 11
374.876
 21
343.03
  0
LINE
  8
0
 10
374.876
 20
343.03
 11
375.053
 21
342.777
  0
LINE
  8
0
 10
375.053
 20
342.777
 11
375.048
 21
342.468
  0
LINE
  8
0
 10
375.048
 20
342.468
 11
374.862
 21
342.221
  0
LINE
  8
0
 10
374.862
 20
342.221
 11
374.567
 21
342.131
  0
LINE
  8
0
 10
374.567
 20
342.131
 11
374.274
 21
342.232
  0
LINE
  8
0
 10
601.411
 20
17.8475
 11
601.233
 21
18.1006
  0
LINE
  8
0
 10
601.233
 20
18.1006
 11
601.239
 21
18.4096
  0
LINE
  8
0
 10
601.239
 20
18.4096
 11
601.425
 21
18.6564
  0
LINE
  8
0
 10
601.425
 20
18.6564
 11
601.72
 21
18.7467
  0
LINE
  8
0
 10
601.72
 20
18.7467
 11
602.012
 21
18.6461
  0
LINE
  8
0
 10
602.012
 20
18.6461
 11
602.19
 21
18.393
  0
LINE
  8
0
 10
602.19
 20
18.393
 11
602.184
 21
18.084
  0
LINE
  8
0
 10
602.184
 20
18.084
 11
601.998
 21
17.8372
  0
LINE
  8
0
 10
601.998
 20
17.8372
 11
601.703
 21
17.7469
  0
LINE
  8
0
 10
601.703
 20
17.7469
 11
601.411
 21
17.8475
  0
LINE
  8
0
 10
610.588
 20
4.74106
 11
610.411
 21
4.9942
  0
LINE
  8
0
 10
610.411
 20
4.9942
 11
610.416
 21
5.30316
  0
LINE
  8
0
 10
610.416
 20
5.30316
 11
610.602
 21
5.54996
  0
LINE
  8
0
 10
610.602
 20
5.54996
 11
610.898
 21
5.6403
  0
LINE
  8
0
 10
610.898
 20
5.6403
 11
611.19
 21
5.5397
  0
LINE
  8
0
 10
611.19
 20
5.5397
 11
611.367
 21
5.28656
  0
LINE
  8
0
 10
611.367
 20
5.28656
 11
611.362
 21
4.9776
  0
LINE
  8
0
 10
611.362
 20
4.9776
 11
611.176
 21
4.7308
  0
LINE
  8
0
 10
611.176
 20
4.7308
 11
610.88
 21
4.64046
  0
LINE
  8
0
 10
610.88
 20
4.64046
 11
610.588
 21
4.74106
  0
LINE
  8
0
 10
556.287
 20
10.8779
 11
314.238
 21
356.56
  0
LINE
  8
0
 10
314.238
 20
356.56
 11
286.383
 21
361.472
  0
LINE
  8
0
 10
286.383
 20
361.472
 11
270
 21
350
  0
LINE
  8
0
 10
270
 20
350
 11
309.29
 21
293.888
  0
LINE
  8
0
 10
309.29
 20
293.888
 11
325.673
 21
305.36
  0
LINE
  8
0
 10
325.673
 20
305.36
 11
334.277
 21
293.072
  0
LINE
  8
0
 10
334.277
 20
293.072
 11
317.894
 21
281.601
  0
LINE
  8
0
 10
317.894
 20
281.601
 11
475.627
 21
56.334
  0
LINE
  8
0
 10
475.627
 20
56.334
 11
492.01
 21
67.8055
  0
LINE
  8
0
 10
492.01
 20
67.8055
 11
500.614
 21
55.5182
  0
LINE
  8
0
 10
500.614
 20
55.5182
 11
484.231
 21
44.0467
  0
LINE
  8
0
 10
484.231
 20
44.0467
 11
512.049
 21
4.31783
  0
LINE
  8
0
 10
512.049
 20
4.31783
 11
539.904
 21
-0.593674
  0
LINE
  8
0
 10
539.904
 20
-0.593674
 11
556.287
 21
10.8779
  0
LINE
  8
0
 10
290.097
 20
355.338
 11
289.92
 21
355.591
  0
LINE
  8
0
 10
289.92
 20
355.591
 11
289.925
 21
355.9
  0
LINE
  8
0
 10
289.925
 20
355.9
 11
290.111
 21
356.147
  0
LINE
  8
0
 10
290.111
 20
356.147
 11
290.407
 21
356.237
  0
LINE
  8
0
 10
290.407
 20
356.237
 11
290.699
 21
356.137
  0
LINE
  8
0
 10
290.699
 20
356.137
 11
290.876
 21
355.884
  0
LINE
  8
0
 10
290.876
 20
355.884
 11
290.871
 21
355.575
  0
LINE
  8
0
 10
290.871
 20
355.575
 11
290.685
 21
355.328
  0
LINE
  8
0
 10
290.685
 20
355.328
 11
290.389
 21
355.238
  0
LINE
  8
0
 10
290.389
 20
355.238
 11
290.097
 21
355.338
  0
LINE
  8
0
 10
299.274
 20
342.232
 11
299.097
 21
342.485
  0
LINE
  8
0
 10
299.097
 20
342.485
 11
299.103
 21
342.794
  0
LINE
  8
0
 10
299.103
 20
342.794
 11
299.289
 21
343.041
  0
LINE
  8
0
 10
299.289
 20
343.041
 11
299.584
 21
343.131
  0
LINE
  8
0
 10
299.584
 20
343.131
 11
299.876
 21
343.03
  0
LINE
  8
0
 10
299.876
 20
343.03
 11
300.053
 21
342.777
  0
LINE
  8
0
 10
300.053
 20
342.777
 11
300.048
 21
342.468
  0
LINE
  8
0
 10
300.048
 20
342.468
 11
299.862
 21
342.221
  0
LINE
  8
0
 10
299.862
 20
342.221
 11
299.567
 21
342.131
  0
LINE
  8
0
 10
299.567
 20
342.131
 11
299.274
 21
342.232
  0
LINE
  8
0
 10
526.411
 20
17.8475
 11
526.233
 21
18.1006
  0
LINE
  8
0
 10
526.233
 20
18.1006
 11
526.239
 21
18.4096
  0
LINE
  8
0
 10
526.239
 20
18.4096
 11
526.425
 21
18.6564
  0
LINE
  8
0
 10
526.425
 20
18.6564
 11
526.72
 21
18.7467
  0
LINE
  8
0
 10
526.72
 20
18.7467
 11
527.012
 21
18.6461
  0
LINE
  8
0
 10
527.012
 20
18.6461
 11
527.19
 21
18.393
  0
LINE
  8
0
 10
527.19
 20
18.393
 11
527.184
 21
18.084
  0
LINE
  8
0
 10
527.184
 20
18.084
 11
526.998
 21
17.8372
  0
LINE
  8
0
 10
526.998
 20
17.8372
 11
526.703
 21
17.7469
  0
LINE
  8
0
 10
526.703
 20
17.7469
 11
526.411
 21
17.8475
  0
LINE
  8
0
 10
535.588
 20
4.74106
 11
535.411
 21
4.9942
  0
LINE
  8
0
 10
535.411
 20
4.9942
 11
535.416
 21
5.30316
  0
LINE
  8
0
 10
535.416
 20
5.30316
 11
535.602
 21
5.54996
  0
LINE
  8
0
 10
535.602
 20
5.54996
 11
535.898
 21
5.6403
  0
LINE
  8
0
 10
535.898
 20
5.6403
 11
536.19
 21
5.5397
  0
LINE
  8
0
 10
536.19
 20
5.5397
 11
536.367
 21
5.28656
  0
LINE
  8
0
 10
536.367
 20
5.28656
 11
536.362
 21
4.9776
  0
LINE
  8
0
 10
536.362
 20
4.9776
 11
536.176
 21
4.7308
  0
LINE
  8
0
 10
536.176
 20
4.7308
 11
535.88
 21
4.64046
  0
LINE
  8
0
 10
535.88
 20
4.64046
 11
535.588
 21
4.74106
  0
ENDSEC
  0
SECTION
  2
OBJECTS
  0
DICTIONARY
  0
ENDSEC
  0
EOF
