999
dxfrw 0.5.11
0
SECTION
2
HEADER
9
$ACADVER
1
AC1021
9
$HANDSEED
5
20000
9
$DWGCODEPAGE
3
ANSI_1252
9
$INSBASE
10
0
20
0
30
0
9
$EXTMIN
10
-10
20
-131
30
0
9
$EXTMAX
10
154.312473306
20
59.1066960965
30
0
9
$LIMMIN
10
0
20
0
9
$LIMMAX
10
420
20
297
9
$ORTHOMODE
70
0
9
$LTSCALE
40
1
9
$TEXTSTYLE
7
STANDARD
9
$CLAYER
8
dim
9
$DIMASZ
40
2.5
9
$DIMLFAC
40
1
9
$DIMSCALE
40
1
9
$DIMEXO
40
0.625
9
$DIMEXE
40
1.25
9
$DIMTXT
40
2.5
9
$DIMTSZ
40
0
9
$DIMAUNIT
70
0
9
$DIMADEC
70
1
9
$DIMLUNIT
70
2
9
$DIMSTYLE
2
Standard
9
$DIMGAP
40
0.625
9
$DIMTIH
70
0
9
$LUNITS
70
2
9
$LUPREC
70
0
9
$AUNITS
70
0
9
$AUPREC
70
1
9
$SPLINESEGS
70
8
9
$GRIDMODE
70
1
9
$SNAPSTYLE
70
0
9
$GRIDUNIT
10
0
20
0
9
$PINSBASE
10
0
20
0
30
0
9
$PLIMMIN
10
0
20
0
9
$PLIMMAX
10
210
20
297
9
$INSUNITS
70
0
9
$PSVPSCALE
40
1
0
ENDSEC
0
SECTION
2
CLASSES
0
ENDSEC
0
SECTION
2
TABLES
0
TABLE
2
VPORT
5
8
330
0
100
AcDbSymbolTable
70
1
0
VPORT
5
31
330
2
100
AcDbSymbolTableRecord
100
AcDbViewportTableRecord
2
*ACTIVE
70
0
10
0
20
0
11
1
21
1
12
123.86190107
22
61.516696685
13
0
23
0
14
10
24
10
15
10
25
10
16
0
26
0
36
1
17
0
27
0
37
0
40
194.492182449
41
1.66666666667
42
50
43
0
44
0
50
0
51
0
71
0
72
100
73
1
74
3
75
0
76
1
77
0
78
0
281
0
65
1
110
0
120
0
130
0
111
1
121
0
131
0
112
0
122
1
132
0
79
0
146
0
348
10020
60
7
61
5
292
1
282
1
141
0
142
0
63
250
421
3358443
0
ENDTAB
0
TABLE
2
LTYPE
5
5
330
0
100
AcDbSymbolTable
70
4
0
LTYPE
5
14
330
5
100
AcDbSymbolTableRecord
100
AcDbLinetypeTableRecord
2
ByBlock
70
0
3

72
65
73
0
40
0
0
LTYPE
5
15
330
5
100
AcDbSymbolTableRecord
100
AcDbLinetypeTableRecord
2
ByLayer
70
0
3

72
65
73
0
40
0
0
LTYPE
5
16
330
5
100
AcDbSymbolTableRecord
100
AcDbLinetypeTableRecord
2
Continuous
70
0
3
Solid line
72
65
73
0
40
0
0
LTYPE
5
32
330
5
100
AcDbSymbolTableRecord
100
AcDbLinetypeTableRecord
2
DOT
70
0
3
Dot . . . . . . . . . . . . . . . . . . . . . .
72
65
73
2
40
6.35
49
0
74
0
49
-6.35
74
0
0
LTYPE
5
33
330
5
100
AcDbSymbolTableRecord
100
AcDbLinetypeTableRecord
2
DOT2
70
0
3
Dot (.5x) .....................................
72
65
73
2
40
3.175
49
0
74
0
49
-3.175
74
0
0
LTYPE
5
34
330
5
100
AcDbSymbolTableRecord
100
AcDbLinetypeTableRecord
2
DOTX2
70
0
3
Dot (2x) .  .  .  .  .  .  .  .  .  .  .  .  .
72
65
73
2
40
12.7
49
0
74
0
49
-12.7
74
0
0
LTYPE
5
35
330
5
100
AcDbSymbolTableRecord
100
AcDbLinetypeTableRecord
2
DASHED
70
0
3
Dot . . . . . . . . . . . . . . . . . . . . . .
72
65
73
2
40
19.05
49
12.7
74
0
49
-6.35
74
0
0
LTYPE
5
36
330
5
100
AcDbSymbolTableRecord
100
AcDbLinetypeTableRecord
2
DASHED2
70
0
3
Dashed (.5x) _ _ _ _ _ _ _ _ _ _ _ _ _ _ _ _ _
72
65
73
2
40
9.525
49
6.35
74
0
49
-3.175
74
0
0
LTYPE
5
37
330
5
100
AcDbSymbolTableRecord
100
AcDbLinetypeTableRecord
2
DASHEDX2
70
0
3
Dashed (2x) ____  ____  ____  ____  ____  ___
72
65
73
2
40
38.1
49
25.4
74
0
49
-12.7
74
0
0
LTYPE
5
38
330
5
100
AcDbSymbolTableRecord
100
AcDbLinetypeTableRecord
2
DASHDOT
70
0
3
Dash dot __ . __ . __ . __ . __ . __ . __ . __
72
65
73
4
40
25.4
49
12.7
74
0
49
-6.35
74
0
49
0
74
0
49
-6.35
74
0
0
LTYPE
5
39
330
5
100
AcDbSymbolTableRecord
100
AcDbLinetypeTableRecord
2
DASHDOT2
70
0
3
Dash dot (.5x) _._._._._._._._._._._._._._._.
72
65
73
4
40
12.7
49
6.35
74
0
49
-3.175
74
0
49
0
74
0
49
-3.175
74
0
0
LTYPE
5
3A
330
5
100
AcDbSymbolTableRecord
100
AcDbLinetypeTableRecord
2
DASHDOTX2
70
0
3
Dash dot (2x) ____  .  ____  .  ____  .  ___
72
65
73
4
40
50.8
49
25.4
74
0
49
-12.7
74
0
49
0
74
0
49
-12.7
74
0
0
LTYPE
5
3B
330
5
100
AcDbSymbolTableRecord
100
AcDbLinetypeTableRecord
2
DIVIDE
70
0
3
Divide ____ . . ____ . . ____ . . ____ . . ____
72
65
73
6
40
31.75
49
12.7
74
0
49
-6.35
74
0
49
0
74
0
49
-6.35
74
0
49
0
74
0
49
-6.35
74
0
0
LTYPE
5
3C
330
5
100
AcDbSymbolTableRecord
100
AcDbLinetypeTableRecord
2
DIVIDE2
70
0
3
Divide (.5x) __..__..__..__..__..__..__..__.._
72
65
73
6
40
15.875
49
6.35
74
0
49
-3.175
74
0
49
0
74
0
49
-3.175
74
0
49
0
74
0
49
-3.175
74
0
0
LTYPE
5
3D
330
5
100
AcDbSymbolTableRecord
100
AcDbLinetypeTableRecord
2
DIVIDEX2
70
0
3
Divide (2x) ________  .  .  ________  .  .  _
72
65
73
6
40
63.5
49
25.4
74
0
49
-12.7
74
0
49
0
74
0
49
-12.7
74
0
49
0
74
0
49
-12.7
74
0
0
LTYPE
5
3E
330
5
100
AcDbSymbolTableRecord
100
AcDbLinetypeTableRecord
2
BORDER
70
0
3
Border __ __ . __ __ . __ __ . __ __ . __ __ .
72
65
73
6
40
44.45
49
12.7
74
0
49
-6.35
74
0
49
12.7
74
0
49
-6.35
74
0
49
0
74
0
49
-6.35
74
0
0
LTYPE
5
3F
330
5
100
AcDbSymbolTableRecord
100
AcDbLinetypeTableRecord
2
BORDER2
70
0
3
Border (.5x) __.__.__.__.__.__.__.__.__.__.__.
72
65
73
6
40
22.225
49
6.35
74
0
49
-3.175
74
0
49
6.35
74
0
49
-3.175
74
0
49
0
74
0
49
-3.175
74
0
0
LTYPE
5
40
330
5
100
AcDbSymbolTableRecord
100
AcDbLinetypeTableRecord
2
BORDERX2
70
0
3
Border (2x) ____  ____  .  ____  ____  .  ___
72
65
73
6
40
88.9
49
25.4
74
0
49
-12.7
74
0
49
25.4
74
0
49
-12.7
74
0
49
0
74
0
49
-12.7
74
0
0
LTYPE
5
41
330
5
100
AcDbSymbolTableRecord
100
AcDbLinetypeTableRecord
2
CENTER
70
0
3
Center ____ _ ____ _ ____ _ ____ _ ____ _ ____
72
65
73
4
40
50.8
49
31.75
74
0
49
-6.35
74
0
49
6.35
74
0
49
-6.35
74
0
0
LTYPE
5
42
330
5
100
AcDbSymbolTableRecord
100
AcDbLinetypeTableRecord
2
CENTER2
70
0
3
Center (.5x) ___ _ ___ _ ___ _ ___ _ ___ _ ___
72
65
73
4
40
28.575
49
19.05
74
0
49
-3.175
74
0
49
3.175
74
0
49
-3.175
74
0
0
LTYPE
5
43
330
5
100
AcDbSymbolTableRecord
100
AcDbLinetypeTableRecord
2
CENTERX2
70
0
3
Center (2x) ________  __  ________  __  _____
72
65
73
4
40
101.6
49
63.5
74
0
49
-12.7
74
0
49
12.7
74
0
49
-12.7
74
0
0
ENDTAB
0
TABLE
2
LAYER
5
2
330
0
100
AcDbSymbolTable
70
1
0
LAYER
5
10
330
2
100
AcDbSymbolTableRecord
100
AcDbLayerTableRecord
2
0
70
0
62
7
6
CONTINUOUS
370
50
390
F
0
LAYER
5
44
330
2
100
AcDbSymbolTableRecord
100
AcDbLayerTableRecord
2
base
70
0
62
7
6
CENTER
370
0
390
F
0
LAYER
5
45
330
2
100
AcDbSymbolTableRecord
100
AcDbLayerTableRecord
2
base2
70
0
62
7
6
DASHED
370
0
390
F
0
LAYER
5
46
330
2
100
AcDbSymbolTableRecord
100
AcDbLayerTableRecord
2
dim
70
0
62
7
6
CONTINUOUS
370
-3
390
F
0
ENDTAB
0
TABLE
2
STYLE
5
3
330
0
100
AcDbSymbolTable
70
3
0
STYLE
5
47
330
2
100
AcDbSymbolTableRecord
100
AcDbTextStyleTableRecord
2
Standard
70
0
40
0
41
1
50
0
71
0
42
1
3
txt
4

0
ENDTAB
0
TABLE
2
VIEW
5
6
330
0
100
AcDbSymbolTable
70
0
0
ENDTAB
0
TABLE
2
UCS
5
7
330
0
100
AcDbSymbolTable
70
0
0
ENDTAB
0
TABLE
2
APPID
5
9
330
0
100
AcDbSymbolTable
70
1
0
APPID
5
12
330
9
100
AcDbSymbolTableRecord
100
AcDbRegAppTableRecord
2
ACAD
70
0
0
ENDTAB
0
TABLE
2
DIMSTYLE
5
A
330
0
100
AcDbSymbolTable
70
1
100
AcDbDimStyleTable
71
1
0
DIMSTYLE
105
48
330
A
100
AcDbSymbolTableRecord
100
AcDbDimStyleTableRecord
2
Standard
70
0
40
1
41
2.5
42
0.625
43
0.38
44
1.25
45
0
46
0
47
0
48
0
140
2.5
141
0.09
142
0
143
25.4
144
1
145
0
146
1
147
0.625
148
0
71
0
72
0
73
0
74
1
75
0
76
0
77
0
78
0
79
0
170
0
171
2
172
0
173
0
174
0
175
0
176
0
177
0
178
0
179
0
271
4
272
4
273
2
274
2
275
0
276
0
277
2
278
46
279
0
280
0
281
0
282
0
283
1
284
0
285
0
286
0
288
0
289
3
340
Standard
341

371
-2
372
-2
0
ENDTAB
0
TABLE
2
BLOCK_RECORD
5
1
330
0
100
AcDbSymbolTable
70
2
0
BLOCK_RECORD
5
1F
330
1
100
AcDbSymbolTableRecord
100
AcDbBlockTableRecord
2
*Model_Space
70
0
280
1
281
0
0
BLOCK_RECORD
5
1E
330
1
100
AcDbSymbolTableRecord
100
AcDbBlockTableRecord
2
*Paper_Space
70
0
280
1
281
0
0
BLOCK_RECORD
5
49
330
1
100
AcDbSymbolTableRecord
100
AcDbBlockTableRecord
2
*D6
70
0
280
1
281
0
0
BLOCK_RECORD
5
4C
330
1
100
AcDbSymbolTableRecord
100
AcDbBlockTableRecord
2
*D14
70
0
280
1
281
0
0
BLOCK_RECORD
5
4F
330
1
100
AcDbSymbolTableRecord
100
AcDbBlockTableRecord
2
*D10
70
0
280
1
281
0
0
BLOCK_RECORD
5
52
330
1
100
AcDbSymbolTableRecord
100
AcDbBlockTableRecord
2
*D13
70
0
280
1
281
0
0
BLOCK_RECORD
5
55
330
1
100
AcDbSymbolTableRecord
100
AcDbBlockTableRecord
2
*D3
70
0
280
1
281
0
0
BLOCK_RECORD
5
58
330
1
100
AcDbSymbolTableRecord
100
AcDbBlockTableRecord
2
*D2
70
0
280
1
281
0
0
BLOCK_RECORD
5
5B
330
1
100
AcDbSymbolTableRecord
100
AcDbBlockTableRecord
2
*D8
70
0
280
1
281
0
0
BLOCK_RECORD
5
5E
330
1
100
AcDbSymbolTableRecord
100
AcDbBlockTableRecord
2
*D11
70
0
280
1
281
0
0
BLOCK_RECORD
5
61
330
1
100
AcDbSymbolTableRecord
100
AcDbBlockTableRecord
2
*D12
70
0
280
1
281
0
0
BLOCK_RECORD
5
64
330
1
100
AcDbSymbolTableRecord
100
AcDbBlockTableRecord
2
*D4
70
0
280
1
281
0
0
BLOCK_RECORD
5
67
330
1
100
AcDbSymbolTableRecord
100
AcDbBlockTableRecord
2
*D1
70
0
280
1
281
0
0
BLOCK_RECORD
5
6A
330
1
100
AcDbSymbolTableRecord
100
AcDbBlockTableRecord
2
*D7
70
0
280
1
281
0
0
BLOCK_RECORD
5
6D
330
1
100
AcDbSymbolTableRecord
100
AcDbBlockTableRecord
2
*D5
70
0
280
1
281
0
0
BLOCK_RECORD
5
70
330
1
100
AcDbSymbolTableRecord
100
AcDbBlockTableRecord
2
*D9
70
0
280
1
281
0
0
BLOCK_RECORD
5
73
330
1
100
AcDbSymbolTableRecord
100
AcDbBlockTableRecord
2
CUT001008009045_PROJ
70
0
280
1
281
0
0
BLOCK_RECORD
5
76
330
1
100
AcDbSymbolTableRecord
100
AcDbBlockTableRecord
2
CUT001008009045_PROJ002
70
0
280
1
281
0
0
BLOCK_RECORD
5
79
330
1
100
AcDbSymbolTableRecord
100
AcDbBlockTableRecord
2
CUT001008009045_PROJ001
70
0
280
1
281
0
0
ENDTAB
0
ENDSEC
0
SECTION
2
BLOCKS
0
BLOCK
5
20
330
1F
100
AcDbEntity
8
0
100
AcDbBlockBegin
2
*Model_Space
70
0
10
0
20
0
30
0
3
*Model_Space
1

0
ENDBLK
5
21
330
1F
100
AcDbEntity
8
0
100
AcDbBlockEnd
0
BLOCK
5
1C
330
1B
100
AcDbEntity
8
0
100
AcDbBlockBegin
2
*Paper_Space
70
0
10
0
20
0
30
0
3
*Paper_Space
1

0
ENDBLK
5
1D
330
1F
100
AcDbEntity
8
0
100
AcDbBlockEnd
0
BLOCK
5
4A
330
49
100
AcDbEntity
8
0
100
AcDbBlockBegin
2
*D6
70
1
10
0
20
0
3
*D6
1

0
LINE
5
7C
100
AcDbEntity
8
dim
6
CONTINUOUS
62
7
370
0
100
AcDbLine
10
0
20
-58.3352429807
11
18
21
-58.3352429807
0
SOLID
5
7D
100
AcDbEntity
8
dim
6
CONTINUOUS
62
7
370
0
100
AcDbTrace
10
0
20
-58.3352429807
30
0
11
2.5
21
-57.9189583229
31
0
12
2.5
22
-58.7515276385
32
0
13
2.5
23
-58.7515276385
33
0
0
SOLID
5
7E
100
AcDbEntity
8
dim
6
CONTINUOUS
62
7
370
0
100
AcDbTrace
10
18
20
-58.3352429807
30
0
11
15.5
21
-58.7515276385
31
0
12
15.5
22
-57.9189583229
32
0
13
15.5
23
-57.9189583229
33
0
0
MTEXT
5
7F
100
AcDbEntity
8
dim
6
CONTINUOUS
62
7
370
0
100
AcDbMText
10
9
20
-56.4602429807
30
0
40
2.5
41
2.5
71
5
72
1
1
18
7
standard
210
0
220
0
230
1
50
0
73
2
44
1
0
LINE
5
80
100
AcDbEntity
8
dim
6
CONTINUOUS
62
7
370
0
100
AcDbLine
10
-1.14806845671e-16
20
-48.615378487
11
-2.29613691342e-16
21
-59.5852429807
0
LINE
5
81
100
AcDbEntity
8
dim
6
CONTINUOUS
62
7
370
0
100
AcDbLine
10
18
20
-48.615378487
11
18
21
-59.5852429807
0
ENDBLK
5
4B
330
49
100
AcDbEntity
8
0
100
AcDbBlockEnd
0
BLOCK
5
4D
330
4C
100
AcDbEntity
8
0
100
AcDbBlockBegin
2
*D14
70
1
10
0
20
0
3
*D14
1

0
LINE
5
82
100
AcDbEntity
8
dim
6
CONTINUOUS
62
7
370
0
100
AcDbLine
10
117.481162688
20
28.9458135509
11
125.198335986
21
31.0541864491
0
SOLID
5
83
100
AcDbEntity
8
dim
6
CONTINUOUS
62
7
370
0
100
AcDbTrace
10
117.481162688
20
28.9458135509
30
0
11
119.783068932
21
30.0062476873
31
0
12
120.002489755
22
29.2031124759
32
0
13
120.002489755
23
29.2031124759
33
0
0
SOLID
5
84
100
AcDbEntity
8
dim
6
CONTINUOUS
62
7
370
0
100
AcDbTrace
10
125.198335986
20
31.0541864491
30
0
11
122.896429742
21
29.9937523127
31
0
12
122.677008919
22
30.7968875241
32
0
13
122.677008919
23
30.7968875241
33
0
0
MTEXT
5
85
100
AcDbEntity
8
dim
6
CONTINUOUS
62
7
370
0
100
AcDbMText
10
120.845599439
20
31.8087124919
30
0
40
2.5
41
3.61111111111
71
5
72
1
1
   %%C8
7
standard
210
0
220
0
230
1
50
15.280610137
73
2
44
1
0
ENDBLK
5
4E
330
4C
100
AcDbEntity
8
0
100
AcDbBlockEnd
0
BLOCK
5
50
330
4F
100
AcDbEntity
8
0
100
AcDbBlockBegin
2
*D10
70
1
10
0
20
0
3
*D10
1

0
LINE
5
86
100
AcDbEntity
8
dim
6
CONTINUOUS
62
7
370
0
100
AcDbLine
10
107.138227036
20
26.6522463189
11
91.4806964557
21
35.6921304993
0
LINE
5
87
100
AcDbEntity
8
dim
6
CONTINUOUS
62
7
370
0
100
AcDbLine
10
119.638233529
20
48.3028814386
11
103.980702949
21
57.342765619
0
LINE
5
88
100
AcDbEntity
8
dim
6
CONTINUOUS
62
7
370
0
100
AcDbLine
10
92.5632280702
20
35.0671302564
11
105.063234563
21
56.7177653761
0
SOLID
5
89
100
AcDbEntity
8
dim
6
CONTINUOUS
62
7
370
0
100
AcDbTrace
10
92.5632280702
20
35.0671302564
30
0
11
93.4527155139
21
37.4403358951
31
0
12
94.1737415982
22
37.0240510755
32
0
13
94.1737415982
23
37.0240510755
33
0
0
SOLID
5
8A
100
AcDbEntity
8
dim
6
CONTINUOUS
62
7
370
0
100
AcDbTrace
10
105.063234563
20
56.7177653761
30
0
11
104.173747119
21
54.3445597374
31
0
12
103.452721035
22
54.7608445569
32
0
13
103.452721035
23
54.7608445569
33
0
0
MTEXT
5
8B
100
AcDbEntity
8
dim
6
CONTINUOUS
62
7
370
0
100
AcDbMText
10
97.189433895
20
46.8299481804
30
0
40
2.5
41
3.05555555556
71
5
72
1
1
25
7
standard
210
0
220
0
230
1
50
59.9999871415
73
2
44
1
0
ENDBLK
5
51
330
4F
100
AcDbEntity
8
0
100
AcDbBlockEnd
0
BLOCK
5
53
330
52
100
AcDbEntity
8
0
100
AcDbBlockBegin
2
*D13
70
1
10
0
20
0
3
*D13
1

0
LINE
5
8C
100
AcDbEntity
8
dim
6
CONTINUOUS
62
7
370
0
100
AcDbLine
10
117.428776226
20
-30.8392194742
11
125.250722448
21
-29.1607805258
0
SOLID
5
8D
100
AcDbEntity
8
dim
6
CONTINUOUS
62
7
370
0
100
AcDbTrace
10
117.428776226
20
-30.8392194742
30
0
11
119.785795873
21
-29.9076877771
31
0
12
119.960472968
22
-30.7217268286
32
0
13
119.960472968
23
-30.7217268286
33
0
0
SOLID
5
8E
100
AcDbEntity
8
dim
6
CONTINUOUS
62
7
370
0
100
AcDbTrace
10
125.250722448
20
-29.1607805258
30
0
11
122.893702801
21
-30.0923122229
31
0
12
122.719025706
22
-29.2782731714
32
0
13
122.719025706
23
-29.2782731714
33
0
0
MTEXT
5
8F
100
AcDbEntity
8
dim
6
CONTINUOUS
62
7
370
0
100
AcDbMText
10
120.946365208
20
-28.1667313543
30
0
40
2.5
41
3.61111111111
71
5
72
1
1
   %%C8
7
standard
210
0
220
0
230
1
50
12.1109172918
73
2
44
1
0
ENDBLK
5
54
330
52
100
AcDbEntity
8
0
100
AcDbBlockEnd
0
BLOCK
5
56
330
55
100
AcDbEntity
8
0
100
AcDbBlockBegin
2
*D3
70
1
10
0
20
0
3
*D3
1

0
LINE
5
90
100
AcDbEntity
8
dim
6
CONTINUOUS
62
7
370
0
100
AcDbLine
10
137.812506923
20
38.5316460677
11
135.564364009
21
34.6377503344
0
LINE
5
91
100
AcDbEntity
8
dim
6
CONTINUOUS
62
7
370
0
100
AcDbLine
10
137.812506923
20
-38.5316460677
11
135.564364009
21
-34.6377503344
0
ARC
5
92
100
AcDbEntity
8
dim
6
CONTINUOUS
62
7
370
0
100
AcDbCircle
10
115.566239165
20
0
40
38.7462341413
100
AcDbArc
50
300.000012858
51
59.9999871425
0
SOLID
5
93
100
AcDbEntity
8
dim
6
CONTINUOUS
62
7
370
0
100
AcDbTrace
10
134.939363766
20
33.5552187199
30
0
11
137.282643558
21
32.5896449376
31
0
12
136.84331822
22
31.8824215556
32
0
13
136.84331822
23
31.8824215556
33
0
0
SOLID
5
94
100
AcDbEntity
8
dim
6
CONTINUOUS
62
7
370
0
100
AcDbTrace
10
134.939363766
20
-33.5552187199
30
0
11
136.84331822
21
-31.8824215556
31
0
12
137.282643558
22
-32.5896449376
32
0
13
137.282643558
23
-32.5896449376
33
0
0
MTEXT
5
95
100
AcDbEntity
8
dim
6
CONTINUOUS
62
7
370
0
100
AcDbMText
10
153.687473306
20
-9.41323900611e-15
30
0
40
2.5
41
8.88888888889
71
8
72
1
1
120.0%%D
7
standard
210
0
220
0
230
1
50
90
73
2
44
1
0
ENDBLK
5
57
330
55
100
AcDbEntity
8
0
100
AcDbBlockEnd
0
BLOCK
5
59
330
58
100
AcDbEntity
8
0
100
AcDbBlockBegin
2
*D2
70
1
10
0
20
0
3
*D2
1

0
LINE
5
96
100
AcDbEntity
8
dim
6
CONTINUOUS
62
7
370
0
100
AcDbLine
10
100
20
-0.625
11
100
21
-61.65
0
LINE
5
97
100
AcDbEntity
8
dim
6
CONTINUOUS
62
7
370
0
100
AcDbLine
10
120
20
-0.625
11
120
21
-61.65
0
LINE
5
98
100
AcDbEntity
8
dim
6
CONTINUOUS
62
7
370
0
100
AcDbLine
10
100
20
-60.4
11
120
21
-60.4
0
SOLID
5
99
100
AcDbEntity
8
dim
6
CONTINUOUS
62
7
370
0
100
AcDbTrace
10
100
20
-60.4
30
0
11
102.5
21
-59.9837153422
31
0
12
102.5
22
-60.8162846578
32
0
13
102.5
23
-60.8162846578
33
0
0
SOLID
5
9A
100
AcDbEntity
8
dim
6
CONTINUOUS
62
7
370
0
100
AcDbTrace
10
120
20
-60.4
30
0
11
117.5
21
-60.8162846578
31
0
12
117.5
22
-59.9837153422
32
0
13
117.5
23
-59.9837153422
33
0
0
MTEXT
5
9B
100
AcDbEntity
8
dim
6
CONTINUOUS
62
7
370
0
100
AcDbMText
10
110
20
-58.525
30
0
40
2.5
41
3.05555555556
71
5
72
1
1
20
7
standard
210
0
220
0
230
1
50
0
73
2
44
1
0
ENDBLK
5
5A
330
58
100
AcDbEntity
8
0
100
AcDbBlockEnd
0
BLOCK
5
5C
330
5B
100
AcDbEntity
8
0
100
AcDbBlockBegin
2
*D8
70
1
10
0
20
0
3
*D8
1

0
LINE
5
9C
100
AcDbEntity
8
dim
6
CONTINUOUS
62
7
370
0
100
AcDbLine
10
121.652249458
20
30.5412658072
11
132.493644018
21
49.3191022784
0
LINE
5
9D
100
AcDbEntity
8
dim
6
CONTINUOUS
62
7
370
0
100
AcDbLine
10
112.991996542
20
35.5412677506
11
123.833391102
21
54.3191042218
0
LINE
5
9E
100
AcDbEntity
8
dim
6
CONTINUOUS
62
7
370
0
100
AcDbLine
10
131.868643775
20
48.2365706639
11
123.208390859
21
53.2365726073
0
SOLID
5
9F
100
AcDbEntity
8
dim
6
CONTINUOUS
62
7
370
0
100
AcDbTrace
10
131.868643775
20
48.2365706639
30
0
11
129.495438136
21
49.1260581076
31
0
12
129.911722956
22
49.8470841919
32
0
13
129.911722956
23
49.8470841919
33
0
0
SOLID
5
A0
100
AcDbEntity
8
dim
6
CONTINUOUS
62
7
370
0
100
AcDbTrace
10
123.208390859
20
53.2365726073
30
0
11
125.581596498
21
52.3470851636
31
0
12
125.165311678
22
51.6260590793
32
0
13
125.165311678
23
51.6260590793
33
0
0
MTEXT
5
A1
100
AcDbEntity
8
dim
6
CONTINUOUS
62
7
370
0
100
AcDbMText
10
128.476017681
20
52.3603690574
30
0
40
2.5
41
2.5
71
5
72
1
1
10
7
standard
210
0
220
0
230
1
50
329.999987143
73
2
44
1
0
ENDBLK
5
5D
330
5B
100
AcDbEntity
8
0
100
AcDbBlockEnd
0
BLOCK
5
5F
330
5E
100
AcDbEntity
8
0
100
AcDbBlockBegin
2
*D11
70
1
10
0
20
0
3
*D11
1

0
LINE
5
A2
100
AcDbEntity
8
dim
6
CONTINUOUS
62
7
370
0
100
AcDbLine
10
123.541266973
20
12.5631466831
11
128.969796196
21
9.42898225039
0
LINE
5
A3
100
AcDbEntity
8
dim
6
CONTINUOUS
62
7
370
0
100
AcDbLine
10
127.541268528
20
19.4913490158
11
132.969797751
21
16.3571845831
0
LINE
5
A4
100
AcDbEntity
8
dim
6
CONTINUOUS
62
7
370
0
100
AcDbLine
10
127.887264582
20
10.0539824933
11
131.887266137
21
16.982184826
0
SOLID
5
A5
100
AcDbEntity
8
dim
6
CONTINUOUS
62
7
370
0
100
AcDbTrace
10
127.887264582
20
10.0539824933
30
0
11
128.776752026
21
12.4271881321
31
0
12
129.49777811
22
12.0109033125
32
0
13
129.49777811
23
12.0109033125
33
0
0
SOLID
5
A6
100
AcDbEntity
8
dim
6
CONTINUOUS
62
7
370
0
100
AcDbTrace
10
131.887266137
20
16.982184826
30
0
11
130.997778693
21
14.6089791873
31
0
12
130.276752609
22
15.0252640069
32
0
13
130.276752609
23
15.0252640069
33
0
0
MTEXT
5
A7
100
AcDbEntity
8
dim
6
CONTINUOUS
62
7
370
0
100
AcDbMText
10
128.263467938
20
14.4555840243
30
0
40
2.5
41
1.11111111111
71
5
72
1
1
8
7
standard
210
0
220
0
230
1
50
59.999987141
73
2
44
1
0
ENDBLK
5
60
330
5E
100
AcDbEntity
8
0
100
AcDbBlockEnd
0
BLOCK
5
62
330
61
100
AcDbEntity
8
0
100
AcDbBlockBegin
2
*D12
70
1
10
0
20
0
3
*D12
1

0
LINE
5
A8
100
AcDbEntity
8
dim
6
CONTINUOUS
62
7
370
0
100
AcDbLine
10
123.541275283
20
-12.5631421214
11
129.077723999
21
-9.36667272126
0
LINE
5
A9
100
AcDbEntity
8
dim
6
CONTINUOUS
62
7
370
0
100
AcDbLine
10
127.541274573
20
-19.4913457613
11
133.077723289
21
-16.2948763612
0
LINE
5
AA
100
AcDbEntity
8
dim
6
CONTINUOUS
62
7
370
0
100
AcDbLine
10
127.99519218
20
-9.99167261035
11
131.99519147
21
-16.9198762502
0
SOLID
5
AB
100
AcDbEntity
8
dim
6
CONTINUOUS
62
7
370
0
100
AcDbTrace
10
127.99519218
20
-9.99167261035
30
0
11
129.605705069
21
-11.9485939559
31
0
12
128.884678848
22
-12.3648785398
32
0
13
128.884678848
23
-12.3648785398
33
0
0
SOLID
5
AC
100
AcDbEntity
8
dim
6
CONTINUOUS
62
7
370
0
100
AcDbTrace
10
131.99519147
20
-16.9198762502
30
0
11
130.384678582
21
-14.9629549047
31
0
12
131.105704802
22
-14.5466703208
32
0
13
131.105704802
23
-14.5466703208
33
0
0
MTEXT
5
AD
100
AcDbEntity
8
dim
6
CONTINUOUS
62
7
370
0
100
AcDbMText
10
131.618989554
20
-12.5182745967
30
0
40
2.5
41
1.11111111111
71
5
72
1
1
8
7
standard
210
0
220
0
230
1
50
299.999994129
73
2
44
1
0
ENDBLK
5
63
330
61
100
AcDbEntity
8
0
100
AcDbBlockEnd
0
BLOCK
5
65
330
64
100
AcDbEntity
8
0
100
AcDbBlockBegin
2
*D4
70
1
10
0
20
0
3
*D4
1

0
LINE
5
AE
100
AcDbEntity
8
dim
6
CONTINUOUS
62
7
370
0
100
AcDbLine
10
138.041272609
20
37.677880139
11
147.665199119
21
32.1215006987
0
LINE
5
AF
100
AcDbEntity
8
dim
6
CONTINUOUS
62
7
370
0
100
AcDbLine
10
120.541265807
20
7.36699493362
11
130.165192317
21
1.81061549327
0
LINE
5
B0
100
AcDbEntity
8
dim
6
CONTINUOUS
62
7
370
0
100
AcDbLine
10
146.582667504
20
32.7465009416
11
129.082660702
21
2.43561573619
0
SOLID
5
B1
100
AcDbEntity
8
dim
6
CONTINUOUS
62
7
370
0
100
AcDbTrace
10
146.582667504
20
32.7465009416
30
0
11
145.69318006
21
30.3732953029
31
0
12
144.972153976
22
30.7895801224
32
0
13
144.972153976
23
30.7895801224
33
0
0
SOLID
5
B2
100
AcDbEntity
8
dim
6
CONTINUOUS
62
7
370
0
100
AcDbTrace
10
129.082660702
20
2.43561573619
30
0
11
129.972148146
21
4.80882137493
31
0
12
130.69317423
22
4.39253655536
32
0
13
130.69317423
23
4.39253655536
33
0
0
MTEXT
5
B3
100
AcDbEntity
8
dim
6
CONTINUOUS
62
7
370
0
100
AcDbMText
10
136.208866681
20
18.5285587032
30
0
40
2.5
41
3.05555555556
71
5
72
1
1
35
7
standard
210
0
220
0
230
1
50
59.9999871425
73
2
44
1
0
ENDBLK
5
66
330
64
100
AcDbEntity
8
0
100
AcDbBlockEnd
0
BLOCK
5
68
330
67
100
AcDbEntity
8
0
100
AcDbBlockBegin
2
*D1
70
1
10
0
20
0
3
*D1
1

0
LINE
5
B4
100
AcDbEntity
8
dim
6
CONTINUOUS
62
7
370
0
100
AcDbLine
10
120.491997647
20
48.5316443964
11
126.597505148
21
59.1066960965
0
LINE
5
B5
100
AcDbEntity
8
dim
6
CONTINUOUS
62
7
370
0
100
AcDbLine
10
137.812506747
20
38.5316461699
11
143.918014248
21
49.10669787
0
LINE
5
B6
100
AcDbEntity
8
dim
6
CONTINUOUS
62
7
370
0
100
AcDbLine
10
125.972505259
20
58.0241642777
11
143.293014359
21
48.0241660512
0
SOLID
5
B7
100
AcDbEntity
8
dim
6
CONTINUOUS
62
7
370
0
100
AcDbTrace
10
125.972505259
20
58.0241642777
30
0
11
128.345711189
21
57.1346776096
31
0
12
127.929426605
22
56.4136513893
32
0
13
127.929426605
23
56.4136513893
33
0
0
SOLID
5
B8
100
AcDbEntity
8
dim
6
CONTINUOUS
62
7
370
0
100
AcDbTrace
10
143.293014359
20
48.0241660512
30
0
11
140.91980843
21
48.9136527194
31
0
12
141.336093014
22
49.6346789397
32
0
13
141.336093014
23
49.6346789397
33
0
0
MTEXT
5
B9
100
AcDbEntity
8
dim
6
CONTINUOUS
62
7
370
0
100
AcDbMText
10
135.570259643
20
54.6479628927
30
0
40
2.5
41
3.05555555556
71
5
72
1
1
20
7
standard
210
0
220
0
230
1
50
330.000005867
73
2
44
1
0
ENDBLK
5
69
330
67
100
AcDbEntity
8
0
100
AcDbBlockEnd
0
BLOCK
5
6B
330
6A
100
AcDbEntity
8
0
100
AcDbBlockBegin
2
*D7
70
1
10
0
20
0
3
*D7
1

0
LINE
5
BA
100
AcDbEntity
8
dim
6
CONTINUOUS
62
7
370
0
100
AcDbLine
10
120.79848353
20
30.3125001215
11
101.75098701
21
41.3095830636
0
LINE
5
BB
100
AcDbEntity
8
dim
6
CONTINUOUS
62
7
370
0
100
AcDbLine
10
128.298486445
20
43.3028794953
11
109.250989925
21
54.2999624374
0
LINE
5
BC
100
AcDbEntity
8
dim
6
CONTINUOUS
62
7
370
0
100
AcDbLine
10
102.833518624
20
40.6845828207
11
110.333521539
21
53.6749621945
0
SOLID
5
BD
100
AcDbEntity
8
dim
6
CONTINUOUS
62
7
370
0
100
AcDbTrace
10
102.833518624
20
40.6845828207
30
0
11
103.723006068
21
43.0577884594
31
0
12
104.444032152
22
42.6415036399
32
0
13
104.444032152
23
42.6415036399
33
0
0
SOLID
5
BE
100
AcDbEntity
8
dim
6
CONTINUOUS
62
7
370
0
100
AcDbTrace
10
110.333521539
20
53.6749621945
30
0
11
109.444034096
21
51.3017565557
31
0
12
108.723008011
22
51.7180413753
32
0
13
108.723008011
23
51.7180413753
33
0
0
MTEXT
5
BF
100
AcDbEntity
8
dim
6
CONTINUOUS
62
7
370
0
100
AcDbMText
10
104.95972266
20
48.1172728716
30
0
40
2.5
41
2.5
71
5
72
1
1
15
7
standard
210
0
220
0
230
1
50
59.999987143
73
2
44
1
0
ENDBLK
5
6C
330
6A
100
AcDbEntity
8
0
100
AcDbBlockEnd
0
BLOCK
5
6E
330
6D
100
AcDbEntity
8
0
100
AcDbBlockBegin
2
*D5
70
1
10
0
20
0
3
*D5
1

0
LINE
5
C0
100
AcDbEntity
8
dim
6
CONTINUOUS
62
7
370
0
100
AcDbLine
10
18.625
20
7.67949505508
11
32.6931096917
21
7.67949505508
0
LINE
5
C1
100
AcDbEntity
8
dim
6
CONTINUOUS
62
7
370
0
100
AcDbLine
10
18.625
20
-7.67949505508
11
32.6931096917
21
-7.67949505508
0
LINE
5
C2
100
AcDbEntity
8
dim
6
CONTINUOUS
62
7
370
0
100
AcDbLine
10
31.4431096917
20
7.67949505508
11
31.4431096917
21
-7.67949505508
0
SOLID
5
C3
100
AcDbEntity
8
dim
6
CONTINUOUS
62
7
370
0
100
AcDbTrace
10
31.4431096917
20
7.67949505508
30
0
11
31.8593943495
21
5.17949505508
31
0
12
31.0268250339
22
5.17949505508
32
0
13
31.0268250339
23
5.17949505508
33
0
0
SOLID
5
C4
100
AcDbEntity
8
dim
6
CONTINUOUS
62
7
370
0
100
AcDbTrace
10
31.4431096917
20
-7.67949505508
30
0
11
31.0268250339
21
-5.17949505508
31
0
12
31.8593943495
22
-5.17949505508
32
0
13
31.8593943495
23
-5.17949505508
33
0
0
MTEXT
5
C5
100
AcDbEntity
8
dim
6
CONTINUOUS
62
7
370
0
100
AcDbMText
10
29.5681096917
20
-3.32309998746e-15
30
0
40
2.5
41
2.5
71
5
72
1
1
15
7
standard
210
0
220
0
230
1
50
90
73
2
44
1
0
ENDBLK
5
6F
330
6D
100
AcDbEntity
8
0
100
AcDbBlockEnd
0
BLOCK
5
71
330
70
100
AcDbEntity
8
0
100
AcDbBlockBegin
2
*D9
70
1
10
0
20
0
3
*D9
1

0
LINE
5
C6
100
AcDbEntity
8
dim
6
CONTINUOUS
62
7
370
0
100
AcDbLine
10
89.5714901086
20
30
11
89.5714901086
21
-30
0
SOLID
5
C7
100
AcDbEntity
8
dim
6
CONTINUOUS
62
7
370
0
100
AcDbTrace
10
89.5714901086
20
30
30
0
11
89.9877747664
21
27.5
31
0
12
89.1552054508
22
27.5
32
0
13
89.1552054508
23
27.5
33
0
0
SOLID
5
C8
100
AcDbEntity
8
dim
6
CONTINUOUS
62
7
370
0
100
AcDbTrace
10
89.5714901086
20
-30
30
0
11
89.1552054508
21
-27.5
31
0
12
89.9877747664
22
-27.5
32
0
13
89.9877747664
23
-27.5
33
0
0
MTEXT
5
C9
100
AcDbEntity
8
dim
6
CONTINUOUS
62
7
370
0
100
AcDbMText
10
87.6964901086
20
2.00597053074e-15
30
0
40
2.5
41
3.05555555556
71
5
72
1
1
60
7
standard
210
0
220
0
230
1
50
90
73
2
44
1
0
LINE
5
CA
100
AcDbEntity
8
dim
6
CONTINUOUS
62
7
370
0
100
AcDbLine
10
120.714749337
20
30
11
88.3214901086
21
30
0
LINE
5
CB
100
AcDbEntity
8
dim
6
CONTINUOUS
62
7
370
0
100
AcDbLine
10
120.714749337
20
-30
11
88.3214901086
21
-30
0
ENDBLK
5
72
330
70
100
AcDbEntity
8
0
100
AcDbBlockEnd
0
BLOCK
5
74
330
73
100
AcDbEntity
8
0
100
AcDbBlockBegin
2
CUT001008009045_PROJ
70
0
10
0
20
0
3
CUT001008009045_PROJ
1

0
LINE
5
CC
100
AcDbEntity
8
0
6
ByLayer
62
0
370
-1
100
AcDbLine
10
20.179497702
20
47.990378487
11
37.500006802
21
37.9903802605
0
LINE
5
CD
100
AcDbEntity
8
0
6
ByLayer
62
0
370
-1
100
AcDbLine
10
2.679494168
20
17.6794989418
11
20.179497702
21
47.990378487
0
LINE
5
CE
100
AcDbEntity
8
0
6
ByLayer
62
0
370
-1
100
AcDbLine
10
37.500006802
20
37.9903802605
11
20
21
7.67949505508
0
LINE
5
CF
100
AcDbEntity
8
0
6
ByLayer
62
0
370
-1
100
AcDbLine
10
20
20
7.67949505508
11
20
21
-7.67949505508
0
LINE
5
D0
100
AcDbEntity
8
0
6
ByLayer
62
0
370
-1
100
AcDbLine
10
20
20
-7.67949505508
11
37.500006802
21
-37.9903802605
0
LINE
5
D1
100
AcDbEntity
8
0
6
ByLayer
62
0
370
-1
100
AcDbLine
10
37.500006802
20
-37.9903802605
11
20.179497702
21
-47.990378487
0
LINE
5
D2
100
AcDbEntity
8
0
6
ByLayer
62
0
370
-1
100
AcDbLine
10
20.179497702
20
-47.990378487
11
2.679494168
21
-17.6794989418
0
ARC
5
D3
100
AcDbEntity
8
0
6
ByLayer
62
0
370
-1
100
AcDbCircle
10
20
20
-7.67949505508
40
20
100
AcDbArc
50
180
51
-149.999987143
0
LINE
5
D4
100
AcDbEntity
8
0
6
ByLayer
62
0
370
-1
100
AcDbLine
10
0
20
7.67949505508
11
0
21
-7.67949505508
0
ARC
5
D5
100
AcDbEntity
8
0
6
ByLayer
62
0
370
-1
100
AcDbCircle
10
20
20
7.67949505508
40
20
100
AcDbArc
50
149.999987143
51
180
0
CIRCLE
5
D6
100
AcDbEntity
8
0
6
ByLayer
62
0
370
-1
100
AcDbCircle
10
21.339749337
20
-30
40
4
0
CIRCLE
5
D7
100
AcDbEntity
8
0
6
ByLayer
62
0
370
-1
100
AcDbCircle
10
21.339749337
20
30
40
4
0
ENDBLK
5
75
330
73
100
AcDbEntity
8
0
100
AcDbBlockEnd
0
BLOCK
5
77
330
76
100
AcDbEntity
8
0
100
AcDbBlockBegin
2
CUT001008009045_PROJ002
70
0
10
0
20
0
3
CUT001008009045_PROJ002
1

0
LINE
5
D8
100
AcDbEntity
8
0
6
ByLayer
62
0
370
-1
100
AcDbLine
10
18
20
17.3205091
11
-8.90815334138e-15
21
17.3205091
0
LINE
5
D9
100
AcDbEntity
8
0
6
ByLayer
62
0
370
-1
100
AcDbLine
10
18
20
-5.5107285922e-15
11
-1.42108547152e-14
21
4.35067574437e-30
0
LINE
5
DA
100
AcDbEntity
8
0
6
ByLayer
62
0
370
-1
100
AcDbLine
10
18
20
17.3205091
11
18
21
-5.5107285922e-15
0
LINE
5
DB
100
AcDbEntity
8
0
6
ByLayer
62
0
370
-1
100
AcDbLine
10
-8.90815334138e-15
20
17.3205091
11
-1.42108547152e-14
21
4.35067574437e-30
0
LINE
5
DC
100
AcDbEntity
8
0
6
ByLayer
62
0
370
-1
100
AcDbLine
10
18
20
34.820512634
11
18
21
17.3205091
0
LINE
5
DD
100
AcDbEntity
8
0
6
ByLayer
62
0
370
-1
100
AcDbLine
10
-3.55049946146e-15
20
34.820512634
11
-8.90815334138e-15
21
17.3205091
0
LWPOLYLINE
5
DE
100
AcDbEntity
8
0
6
ByLayer
62
0
370
-1
100
AcDbPolyline
90
2
70
0
43
0
10
18
20
34.820512634
10
18
20
37.500006802
0
LWPOLYLINE
5
DF
100
AcDbEntity
8
0
6
ByLayer
62
0
370
-1
100
AcDbPolyline
90
2
70
0
43
0
10
-3.55049946146e-15
20
34.820512634
10
-2.73016806567e-15
20
37.500006802
0
LINE
5
E0
100
AcDbEntity
8
0
6
ByLayer
62
0
370
-1
100
AcDbLine
10
18
20
37.500006802
11
-2.73016806567e-15
21
37.500006802
0
LINE
5
E1
100
AcDbEntity
8
0
6
ByLayer
62
0
370
-1
100
AcDbLine
10
18
20
37.500006802
11
-2.73016806567e-15
21
37.500006802
0
LINE
5
E2
100
AcDbEntity
8
0
6
ByLayer
62
0
370
-1
100
AcDbLine
10
18
20
34.820512634
11
-3.55049946146e-15
21
34.820512634
0
ELLIPSE
5
E3
100
AcDbEntity
8
0
6
ByLayer
62
256
370
-1
100
AcDbEllipse
10
8.999999999
20
29.8204926615
30
0
11
-4
21
-4.99993487693e-10
31
0
40
0.500000194375
41
0
42
6.28318530718
0
ENDBLK
5
78
330
76
100
AcDbEntity
8
0
100
AcDbBlockEnd
0
BLOCK
5
7A
330
79
100
AcDbEntity
8
0
100
AcDbBlockBegin
2
CUT001008009045_PROJ001
70
0
10
0
20
0
3
CUT001008009045_PROJ001
1

0
LINE
5
E4
100
AcDbEntity
8
0
6
ByLayer
62
0
370
-1
100
AcDbLine
10
0
20
-47.990378487
11
18
21
-47.990378487
0
LINE
5
E5
100
AcDbEntity
8
0
6
ByLayer
62
0
370
-1
100
AcDbLine
10
0
20
-37.9903802605
11
18
21
-37.9903802605
0
LINE
5
E6
100
AcDbEntity
8
0
6
ByLayer
62
0
370
-1
100
AcDbLine
10
0
20
-47.990378487
11
0
21
-37.9903802605
0
LINE
5
E7
100
AcDbEntity
8
0
6
ByLayer
62
0
370
-1
100
AcDbLine
10
18
20
-47.990378487
11
18
21
-37.9903802605
0
LINE
5
E8
100
AcDbEntity
8
0
6
ByLayer
62
0
370
-1
100
AcDbLine
10
0
20
-37.9903802605
11
0
21
-7.67949505508
0
LINE
5
E9
100
AcDbEntity
8
0
6
ByLayer
62
0
370
-1
100
AcDbLine
10
18
20
-37.9903802605
11
18
21
-7.67949505508
0
LINE
5
EA
100
AcDbEntity
8
0
6
ByLayer
62
0
370
-1
100
AcDbLine
10
0
20
-7.67949505508
11
18
21
-7.67949505508
0
LINE
5
EB
100
AcDbEntity
8
0
6
ByLayer
62
0
370
-1
100
AcDbLine
10
0
20
-7.67949505508
11
0
21
7.67949505508
0
LINE
5
EC
100
AcDbEntity
8
0
6
ByLayer
62
0
370
-1
100
AcDbLine
10
0
20
7.67949505508
11
0
21
37.9903802605
0
LINE
5
ED
100
AcDbEntity
8
0
6
ByLayer
62
0
370
-1
100
AcDbLine
10
0
20
37.9903802605
11
0
21
47.990378487
0
LINE
5
EE
100
AcDbEntity
8
0
6
ByLayer
62
0
370
-1
100
AcDbLine
10
18
20
-7.67949505508
11
18
21
7.67949505508
0
LINE
5
EF
100
AcDbEntity
8
0
6
ByLayer
62
0
370
-1
100
AcDbLine
10
18
20
7.67949505508
11
18
21
37.9903802605
0
LINE
5
F0
100
AcDbEntity
8
0
6
ByLayer
62
0
370
-1
100
AcDbLine
10
18
20
37.9903802605
11
18
21
47.990378487
0
LINE
5
F1
100
AcDbEntity
8
0
6
ByLayer
62
0
370
-1
100
AcDbLine
10
0
20
7.67949505508
11
18
21
7.67949505508
0
LINE
5
F2
100
AcDbEntity
8
0
6
ByLayer
62
0
370
-1
100
AcDbLine
10
0
20
37.9903802605
11
18
21
37.9903802605
0
LINE
5
F3
100
AcDbEntity
8
0
6
ByLayer
62
0
370
-1
100
AcDbLine
10
0
20
47.990378487
11
18
21
47.990378487
0
ELLIPSE
5
F4
100
AcDbEntity
8
0
6
ByLayer
62
256
370
-1
100
AcDbEllipse
10
9
20
16.3397861508
30
0
11
4
21
5.49999157329e-10
31
0
40
0.866025291462
41
0
42
6.28318530718
0
ELLIPSE
5
F5
100
AcDbEntity
8
0
6
ByLayer
62
256
370
-1
100
AcDbEllipse
10
9.139913
20
-16.3397861507
30
0
11
4
21
-4.99998265013e-10
31
0
40
0.86602529145
41
0
42
6.28318530718
0
ENDBLK
5
7B
330
79
100
AcDbEntity
8
0
100
AcDbBlockEnd
0
ENDSEC
0
SECTION
2
ENTITIES
0
INSERT
5
F6
100
AcDbEntity
8
0
6
ByLayer
62
256
370
-1
100
AcDbBlockReference
2
CUT001008009045_PROJ001
10
0
20
0
30
0
41
1
42
1
43
0
50
0
70
1
71
1
44
0
45
0
0
INSERT
5
F7
100
AcDbEntity
8
0
6
ByLayer
62
256
370
-1
100
AcDbBlockReference
2
CUT001008009045_PROJ
10
100
20
0
30
0
41
1
42
1
43
0
50
0
70
1
71
1
44
0
45
0
0
INSERT
5
F8
100
AcDbEntity
8
0
6
ByLayer
62
256
370
-1
100
AcDbBlockReference
2
CUT001008009045_PROJ002
10
0
20
-130
30
0
41
1
42
1
43
0
50
0
70
1
71
1
44
0
45
0
0
LINE
5
F9
100
AcDbEntity
8
base
6
ByLayer
62
256
370
-1
100
AcDbLine
10
-10
20
0
11
30
21
0
0
LINE
5
FA
100
AcDbEntity
8
base
6
ByLayer
62
256
370
-1
100
AcDbLine
10
90
20
0
11
130
21
0
0
LINE
5
FB
100
AcDbEntity
8
base
6
ByLayer
62
256
370
-1
100
AcDbLine
10
9
20
48
11
9
21
-47.990378487
0
LINE
5
FC
100
AcDbEntity
8
base
6
ByLayer
62
256
370
-1
100
AcDbLine
10
9
20
-92
11
9
21
-131
0
LINE
5
FD
100
AcDbEntity
8
base
6
ByLayer
62
256
370
-1
100
AcDbLine
10
121.339749337
20
30
11
121.339749337
21
-30
0
LINE
5
FE
100
AcDbEntity
8
base
6
ByLayer
62
256
370
-1
100
AcDbLine
10
130
20
-30
11
113.44
21
-30
0
LINE
5
FF
100
AcDbEntity
8
base
6
ByLayer
62
256
370
-1
100
AcDbLine
10
130
20
30
11
113.44
21
30
0
LINE
5
100
100
AcDbEntity
8
base
6
ByLayer
62
256
370
-1
100
AcDbLine
10
121.339749337
20
30
11
121.339749337
21
38.24
0
LINE
5
101
100
AcDbEntity
8
base
6
ByLayer
62
256
370
-1
100
AcDbLine
10
121.339749337
20
-30
11
121.339749337
21
-37.28
0
DIMENSION
5
102
100
AcDbEntity
8
dim
6
ByLayer
62
256
370
-1
100
AcDbDimension
2
*D1
10
143.293014359
20
48.0241660512
30
0
11
135.570259643
21
54.6479628927
31
0
70
33
71
5
72
0
3
Standard
53
0
210
0
220
0
230
1
100
AcDbAlignedDimension
13
120.179497702
23
47.990378487
33
0
14
137.500006802
24
37.9903802605
34
0
0
DIMENSION
5
103
100
AcDbEntity
8
dim
6
ByLayer
62
256
370
-1
100
AcDbDimension
2
*D2
10
120
20
-60.4
30
0
11
110
21
-58.525
31
0
70
33
71
5
72
0
3
Standard
53
0
210
0
220
0
230
1
100
AcDbAlignedDimension
13
100
23
0
33
0
14
120
24
0
34
0
0
DIMENSION
5
104
100
AcDbEntity
8
dim
6
ByLayer
62
256
370
-1
100
AcDbDimension
2
*D3
10
137.500006802
20
-37.9903802605
30
0
11
0
21
0
31
0
70
34
71
5
72
0
3
Standard
53
0
210
0
220
0
230
1
100
AcDb2LineAngularDimension
13
120
23
7.67949505508
33
0
14
137.500006802
24
37.9903802605
34
0
15
120
25
-7.67949505508
35
0
16
154.112610002
26
-3.93038871146
36
0
0
DIMENSION
5
105
100
AcDbEntity
8
dim
6
ByLayer
62
256
370
-1
100
AcDbDimension
2
*D4
10
129.082660702
20
2.43561573619
30
0
11
136.208866681
21
18.5285587032
31
0
70
33
71
5
72
0
3
Standard
53
0
210
0
220
0
230
1
100
AcDbAlignedDimension
13
137.500006802
23
37.9903802605
33
0
14
120
24
7.67949505508
34
0
0
DIMENSION
5
106
100
AcDbEntity
8
dim
6
ByLayer
62
256
370
-1
100
AcDbDimension
2
*D5
10
31.4431096917
20
-7.67949505508
30
0
11
29.5681096917
21
-3.32309998746e-15
31
0
70
33
71
5
72
0
3
Standard
53
0
210
0
220
0
230
1
100
AcDbAlignedDimension
13
18
23
7.67949505508
33
0
14
18
24
-7.67949505508
34
0
0
DIMENSION
5
107
100
AcDbEntity
8
dim
6
ByLayer
62
256
370
-1
100
AcDbDimension
2
*D6
10
18
20
-58.3352429807
30
0
11
9
21
-56.4602429807
31
0
70
32
71
5
72
0
3
Standard
53
0
210
0
220
0
230
1
100
AcDbAlignedDimension
13
0
23
-47.990378487
33
0
14
18
24
-47.990378487
34
0
100
AcDbRotatedDimension
0
DIMENSION
5
108
100
AcDbEntity
8
dim
6
ByLayer
62
256
370
-1
100
AcDbDimension
2
*D7
10
110.333521539
20
53.6749621945
30
0
11
104.95972266
21
48.1172728716
31
0
70
33
71
5
72
0
3
Standard
53
0
210
0
220
0
230
1
100
AcDbAlignedDimension
13
121.339749337
23
30
33
0
14
128.839752252
24
42.9903793738
34
0
0
DIMENSION
5
109
100
AcDbEntity
8
dim
6
ByLayer
62
256
370
-1
100
AcDbDimension
2
*D8
10
123.208390859
20
53.2365726073
30
0
11
128.476017681
21
52.3603690574
31
0
70
33
71
5
72
0
3
Standard
53
0
210
0
220
0
230
1
100
AcDbAlignedDimension
13
121.339749337
23
30
33
0
14
112.679496421
24
35.0000019434
34
0
0
DIMENSION
5
10A
100
AcDbEntity
8
dim
6
ByLayer
62
256
370
-1
100
AcDbDimension
2
*D9
10
89.5714901086
20
-30
30
0
11
87.6964901086
21
2.00597053074e-15
31
0
70
32
71
5
72
0
3
Standard
53
0
210
0
220
0
230
1
100
AcDbAlignedDimension
13
121.339749337
23
30
33
0
14
121.339749337
24
-30
34
0
50
90
100
AcDbRotatedDimension
0
LINE
5
10B
100
AcDbEntity
8
base
6
ByLayer
62
256
370
-1
100
AcDbLine
10
107.679499919
20
26.3397421124
11
125.000009019
21
16.3397438859
0
LINE
5
10C
100
AcDbEntity
8
base2
6
ByLayer
62
256
370
-1
100
AcDbLine
10
105.679500274
20
22.8756402924
11
123.000009374
21
12.8756420659
0
LINE
5
10D
100
AcDbEntity
8
base2
6
ByLayer
62
256
370
-1
100
AcDbLine
10
109.679499564
20
29.8038439323
11
127.000008664
21
19.8038457058
0
LINE
5
10E
100
AcDbEntity
8
base
6
ByLayer
62
256
370
-1
100
AcDbLine
10
125.000009019
20
-16.3397438859
11
107.679499919
21
-26.3397421124
0
LINE
5
10F
100
AcDbEntity
8
base2
6
ByLayer
62
256
370
-1
100
AcDbLine
10
127.000008664
20
-19.8038457058
11
109.679499564
21
-29.8038439323
0
LINE
5
110
100
AcDbEntity
8
base2
6
ByLayer
62
256
370
-1
100
AcDbLine
10
123.000009374
20
-12.8756420659
11
105.679500274
21
-22.8756402924
0
DIMENSION
5
111
100
AcDbEntity
8
dim
6
ByLayer
62
256
370
-1
100
AcDbDimension
2
*D10
10
105.063234563
20
56.7177653761
30
0
11
97.189433895
21
46.8299481804
31
0
70
33
71
5
72
0
3
Standard
53
0
210
0
220
0
230
1
100
AcDbAlignedDimension
13
107.679492843
23
26.3397461974
33
0
14
120.179499336
24
47.9903813171
34
0
0
DIMENSION
5
112
100
AcDbEntity
8
dim
6
ByLayer
62
256
370
-1
100
AcDbDimension
2
*D11
10
131.887266137
20
16.982184826
30
0
11
128.263467938
21
14.4555840243
31
0
70
33
71
5
72
0
3
Standard
53
0
210
0
220
0
230
1
100
AcDbAlignedDimension
13
123.000001166
23
12.8756468046
33
0
14
127.000002721
24
19.8038491373
34
0
0
DIMENSION
5
113
100
AcDbEntity
8
dim
6
ByLayer
62
256
370
-1
100
AcDbDimension
2
*D12
10
131.99519147
20
-16.9198762502
30
0
11
131.618989554
21
-12.5182745967
31
0
70
33
71
5
3
Standard
53
0
210
0
220
0
230
1
100
AcDbAlignedDimension
13
123.000009374
23
-12.8756420659
33
0
14
127.000008664
24
-19.8038457058
34
0
0
DIMENSION
5
114
100
AcDbEntity
8
dim
6
ByLayer
62
256
370
-1
100
AcDbDimension
2
*D13
10
117.428776226
20
-30.8392194742
30
0
11
120.946365208
21
-28.1667313543
31
0
70
35
1
   %%C8
71
5
3
Standard
53
0
210
0
220
0
230
1
100
AcDbDiametricDimension
15
125.250722448
25
-29.1607805258
35
0
40
0
0
DIMENSION
5
115
100
AcDbEntity
8
dim
6
ByLayer
62
256
370
-1
100
AcDbDimension
2
*D14
10
117.481162688
20
28.9458135509
30
0
11
120.845599439
21
31.8087124919
31
0
70
35
1
   %%C8
71
5
3
Standard
53
0
210
0
220
0
230
1
100
AcDbDiametricDimension
15
125.198335986
25
31.0541864491
35
0
40
0
0
ENDSEC
0
SECTION
2
OBJECTS
0
DICTIONARY
5
C
330
0
100
AcDbDictionary
281
1
3
ACAD_GROUP
350
D
0
DICTIONARY
5
D
330
C
100
AcDbDictionary
281
1
0
ENDSEC
0
EOF
