<?xml version="1.0" encoding="UTF-8" standalone="no"?>
<!-- Created with Inkscape (http://www.inkscape.org/) -->

<svg
   xmlns:dc="http://purl.org/dc/elements/1.1/"
   xmlns:cc="http://creativecommons.org/ns#"
   xmlns:rdf="http://www.w3.org/1999/02/22-rdf-syntax-ns#"
   xmlns:svg="http://www.w3.org/2000/svg"
   xmlns="http://www.w3.org/2000/svg"
   xmlns:sodipodi="http://sodipodi.sourceforge.net/DTD/sodipodi-0.dtd"
   xmlns:inkscape="http://www.inkscape.org/namespaces/inkscape"
   width="744.09448819"
   height="1052.3622047"
   id="svg6836"
   version="1.1"
   inkscape:version="0.48.3.1 r9886"
   sodipodi:docname="parts8.svg">
  <defs
     id="defs6838">
    <marker
       orient="auto"
       markerHeight="3"
       markerWidth="4"
       markerUnits="strokeWidth"
       refY="5"
       refX="10"
       viewBox="0 0 10 10"
       id="ArrowStart">
      <path
         id="path3637"
         d="M 10 0 L 0 5 L 10 10 z" />
    </marker>
    <marker
       orient="auto"
       markerHeight="3"
       markerWidth="4"
       markerUnits="strokeWidth"
       refY="5"
       refX="0"
       viewBox="0 0 10 10"
       id="ArrowEnd">
      <path
         id="path3634"
         d="M 0 0 L 10 5 L 0 10 z" />
    </marker>
    <marker
       orient="auto"
       markerHeight="3"
       markerWidth="4"
       markerUnits="strokeWidth"
       refY="5"
       refX="10"
       viewBox="0 0 10 10"
       id="ArrowStart-1">
      <path
         id="path3871"
         d="M 10 0 L 0 5 L 10 10 z" />
    </marker>
    <marker
       orient="auto"
       markerHeight="3"
       markerWidth="4"
       markerUnits="strokeWidth"
       refY="5"
       refX="0"
       viewBox="0 0 10 10"
       id="ArrowEnd-2">
      <path
         id="path3868"
         d="M 0 0 L 10 5 L 0 10 z" />
    </marker>
    <marker
       orient="auto"
       markerHeight="3"
       markerWidth="4"
       markerUnits="strokeWidth"
       refY="5"
       refX="10"
       viewBox="0 0 10 10"
       id="ArrowStart-0">
      <path
         id="path4063"
         d="M 10 0 L 0 5 L 10 10 z" />
    </marker>
    <marker
       orient="auto"
       markerHeight="3"
       markerWidth="4"
       markerUnits="strokeWidth"
       refY="5"
       refX="0"
       viewBox="0 0 10 10"
       id="ArrowEnd-8">
      <path
         id="path4060"
         d="M 0 0 L 10 5 L 0 10 z" />
    </marker>
    <marker
       orient="auto"
       markerHeight="3"
       markerWidth="4"
       markerUnits="strokeWidth"
       refY="5"
       refX="10"
       viewBox="0 0 10 10"
       id="ArrowStart-9">
      <path
         id="path4063-2"
         d="M 10 0 L 0 5 L 10 10 z" />
    </marker>
    <marker
       orient="auto"
       markerHeight="3"
       markerWidth="4"
       markerUnits="strokeWidth"
       refY="5"
       refX="0"
       viewBox="0 0 10 10"
       id="ArrowEnd-1">
      <path
         id="path4060-1"
         d="M 0 0 L 10 5 L 0 10 z" />
    </marker>
    <marker
       orient="auto"
       markerHeight="3"
       markerWidth="4"
       markerUnits="strokeWidth"
       refY="5"
       refX="10"
       viewBox="0 0 10 10"
       id="ArrowStart-10">
      <path
         id="path5007"
         d="M 10 0 L 0 5 L 10 10 z" />
    </marker>
    <marker
       orient="auto"
       markerHeight="3"
       markerWidth="4"
       markerUnits="strokeWidth"
       refY="5"
       refX="0"
       viewBox="0 0 10 10"
       id="ArrowEnd-9">
      <path
         id="path5004"
         d="M 0 0 L 10 5 L 0 10 z" />
    </marker>
    <marker
       orient="auto"
       markerHeight="3"
       markerWidth="4"
       markerUnits="strokeWidth"
       refY="5"
       refX="10"
       viewBox="0 0 10 10"
       id="ArrowStart-2">
      <path
         id="path3581"
         d="M 10 0 L 0 5 L 10 10 z" />
    </marker>
    <marker
       orient="auto"
       markerHeight="3"
       markerWidth="4"
       markerUnits="strokeWidth"
       refY="5"
       refX="0"
       viewBox="0 0 10 10"
       id="ArrowEnd-5">
      <path
         id="path3578"
         d="M 0 0 L 10 5 L 0 10 z" />
    </marker>
  </defs>
  <sodipodi:namedview
     id="base"
     pagecolor="#ffffff"
     bordercolor="#666666"
     borderopacity="1.0"
     inkscape:pageopacity="0.0"
     inkscape:pageshadow="2"
     inkscape:zoom="0.35"
     inkscape:cx="375"
     inkscape:cy="520"
     inkscape:document-units="px"
     inkscape:current-layer="layer1"
     showgrid="false"
     inkscape:window-width="900"
     inkscape:window-height="813"
     inkscape:window-x="826"
     inkscape:window-y="113"
     inkscape:window-maximized="0" />
  <metadata
     id="metadata6841">
    <rdf:RDF>
      <cc:Work
         rdf:about="">
        <dc:format>image/svg+xml</dc:format>
        <dc:type
           rdf:resource="http://purl.org/dc/dcmitype/StillImage" />
        <dc:title></dc:title>
      </cc:Work>
    </rdf:RDF>
  </metadata>
  <g
     inkscape:label="Layer 1"
     inkscape:groupmode="layer"
     id="layer1">
    <g
       style="fill-rule:evenodd"
       id="g7127"
       transform="matrix(1.25,0,0,1.25,45.645323,26.808503)">
      <path
         inkscape:connector-curvature="0"
         id="path3685"
         d="m 87.570457,27.470007 -2.543,-2.5427 1.249,-3.6481 -5.504,-3.9996 -3.084,2.3153 -3.204,-1.6323 0.061,-3.8556 -6.471,-2.1028 -2.218,3.1548 -3.551,-0.5624 -1.134,-3.6856 -6.804,0 -1.134,3.6856 -3.552,0.5624 -2.217,-3.1539 -6.471,2.1016 0.06,3.8559 -3.204,1.6323 -3.083,-2.3144 -5.505,3.9985 1.249,3.6483 -2.542,2.5427 -3.648,-1.2485 -4,5.5039 2.315,3.0839 -1.632,3.2038 -3.855,-0.0601 -2.104,6.4706 3.155,2.2175 -0.562,3.5514 -3.685,1.1341 -0.001,6.8039 3.686,1.1341 0.562,3.5514 -3.154,2.2172 2.102,6.4712 3.856,-0.0604 1.632,3.2038 -2.314,3.0834 3.998,5.505 3.649,-1.2491 2.542,2.5427 -1.248,3.6478 5.504,3.9997 3.083,-2.3151 3.204,1.6321 -0.06,3.855 6.471,2.104 2.217,-3.155 3.552,0.562 1.134,3.685 6.804,0.001 1.134,-3.686 3.551,-0.562 2.217,3.154 6.472,-2.102 -0.061,-3.856 3.204,-1.6321 3.083,2.3151 5.505,-3.9992 -1.249,-3.6483 2.543,-2.5427 3.648,1.2488 4,-5.5042 -2.316,-3.0839 1.633,-3.2038 3.855,0.0604 2.103003,-6.4709 -3.155003,-2.2175 0.563,-3.5514 3.685003,-1.1341 10e-4,-6.8039 -3.686003,-1.1341 -0.563,-3.5514 3.155003,-2.2172 -2.102003,-6.4712 -3.856,0.0604 -1.633,-3.2038 2.315,-3.0837 -3.999,-5.5047 -3.648,1.2491 z m -29.801,6.694 8.905,5.141 8.905,5.1413 0,10.2826 0,10.2825 -8.905,5.1412 -8.905,5.141 -8.905,-5.141 -8.905,-5.1412 0,-10.2825 0,-10.2826 8.905,-5.1413 8.905,-5.141 z"
         style="fill:#99ffff;stroke:#000000;stroke-width:1" />
      <g
         style="stroke:#000000"
         id="g3687" />
    </g>
    <g
       style="fill-rule:evenodd"
       id="g7284"
       transform="matrix(1.25,0,0,1.25,209.85914,-4.4736443)">
      <path
         inkscape:connector-curvature="0"
         id="path3903"
         d="m 16.266688,178.19269 175.721002,0.12 55.971,-104.596002 -105.168,-55.9492 -72.597002,0.0481 -53.9137,64.6981 -0.0133,95.679002 z M 167.38869,66.855188 c 17.22,0 31.185,13.9645 31.185,31.1845 0,17.221002 -13.965,31.185002 -31.185,31.185002 -17.22,0 -31.185,-13.964 -31.185,-31.185002 0,-17.22 13.965,-31.1845 31.185,-31.1845 z m -80.211002,-10.2474 c 5.87,0 10.631,4.7606 10.631,10.6313 0,5.8706 -4.761,10.6316 -10.631,10.6316 -5.871,0 -10.632,-4.761 -10.632,-10.6316 0,-5.8707 4.761,-10.6313 10.632,-10.6313 z m -42.5607,71.263902 c 5.8704,0 10.6309,4.76 10.6309,10.631 0,5.87 -4.7605,10.631 -10.6309,10.631 -5.8708,0 -10.6316,-4.761 -10.6316,-10.631 0,-5.871 4.7608,-10.631 10.6316,-10.631 z m 140.940702,26.053 c 1.957,0 3.544,1.587 3.544,3.544 0,1.957 -1.587,3.544 -3.544,3.544 -1.956,0 -3.543,-1.587 -3.543,-3.544 0,-1.957 1.587,-3.544 3.543,-3.544 z m 41.26,-77.597002 c 1.957,0 3.544,1.586 3.544,3.543 0,1.957 -1.587,3.544 -3.544,3.544 -1.957,0 -3.544,-1.587 -3.544,-3.544 0,-1.957 1.587,-3.543 3.544,-3.543 z m -77.598,-41.2599 c 1.957,0 3.544,1.5867 3.544,3.5437 0,1.957 -1.587,3.5438 -3.544,3.5438 -1.957,0 -3.544,-1.5868 -3.544,-3.5438 0,-1.957 1.587,-3.5437 3.544,-3.5437 z m -41.259,77.597902 c 1.957,0 3.543,1.587 3.543,3.544 0,1.957 -1.586,3.544 -3.543,3.544 -1.957,0 -3.544,-1.587 -3.544,-3.544 0,-1.957 1.587,-3.544 3.544,-3.544 z"
         style="fill:#99ffff;stroke:#000000;stroke-width:1" />
    </g>
    <g
       style="fill-rule:evenodd"
       id="g7414"
       transform="matrix(1.25,0,0,1.25,497.15624,13.049473)">
      <path
         inkscape:connector-curvature="0"
         id="path4205"
         d="m 101.13165,118.95688 c 5.87,0 10.631,4.761 10.631,10.632 0,5.87 -4.761,10.631 -10.631,10.631 -5.871001,0 -10.631998,-4.761 -10.631998,-10.631 0,-5.871 4.760997,-10.632 10.631998,-10.632 z m 56.817,-42.373997 0,-50.893 -20.656,0.018 -0.015,15.892 -15.593,0 0.015,-15.892 -41.121998,-0.019 0,15.911 -15.593,0 0.006,-15.917 -20.442,0.007 0.012,50.906 -14.305,-0.021 0,106.028997 14.305,0.001 -0.012,51.174 20.442,0.01 -0.006,-16.032 15.593,0 0.006,16.032 41.103998,0 -0.003,-16.032 15.593,0 0.003,16.032 20.668,-0.01 -0.003,-51.171 14.063,-0.004 0,-106.028997 -14.06,0.008 z"
         style="fill:#99ffff;stroke:#000000;stroke-width:1" />
    </g>
    <g
       style="fill-rule:evenodd"
       id="g7535"
       transform="matrix(1.25,0,0,1.25,4.4113004,168.89112)">
      <path
         inkscape:connector-curvature="0"
         id="path4223"
         d="m 87.793747,113.2887 c 5.87,0 10.631,4.761 10.631,10.632 0,5.87 -4.761,10.631 -10.631,10.631 -5.871,0 -10.632,-4.761 -10.632,-10.631 0,-5.871 4.761,-10.632 10.632,-10.632 z m 177.232003,51.016 c 1.957,0 3.544,1.587 3.544,3.543 0,1.957 -1.587,3.544 -3.544,3.544 -1.957,0 -3.544,-1.587 -3.544,-3.544 0,-1.956 1.587,-3.543 3.544,-3.543 z m -87.885,0 c 1.957,0 3.544,1.587 3.544,3.543 0,1.957 -1.587,3.544 -3.544,3.544 -1.957,0 -3.544,-1.587 -3.544,-3.544 0,-1.956 1.587,-3.543 3.544,-3.543 z m 0,-87.884996 c 1.957,0 3.544,1.587 3.544,3.543 0,1.957 -1.587,3.544 -3.544,3.544 -1.957,0 -3.544,-1.587 -3.544,-3.544 0,-1.956 1.587,-3.543 3.544,-3.543 z m 43.943,16.301 c 17.22,0 31.185,13.964996 31.185,31.184996 0,17.22 -13.965,31.185 -31.185,31.185 -17.22,0 -31.185,-13.965 -31.185,-31.185 0,-17.22 13.965,-31.184996 31.185,-31.184996 z m 43.942,-16.301 c 1.957,0 3.544,1.587 3.544,3.543 0,1.957 -1.587,3.544 -3.544,3.544 -1.957,0 -3.544,-1.587 -3.544,-3.544 0,-1.956 1.587,-3.543 3.544,-3.543 z m -106.365,100.408996 -14.054,-0.036 0.003,51.17 -20.669,0.01 -0.003,-16.032 -15.592,0 0.002,16.032 -41.103003,0 -0.007,-16.032 -15.592,0 0.005,16.032 -20.441,-0.01 0.011,-51.174 -14.304,-0.001 0,-106.028996 14.304,0.021 -0.011,-50.906 20.441,-0.007 -0.005,15.917 15.592,0 0,-15.91 41.123003,0.018 -0.015,15.892 15.592,0 0.016,-15.892 20.656,-0.018 0,50.893 14.053,0.029 -0.012,-9.168 124.803,-0.092 0,124.739996 -124.805,0.058 0.012,-9.505 z"
         style="fill:#99ffff;stroke:#000000;stroke-width:1" />
    </g>
    <g
       style="fill-rule:evenodd"
       id="g7786"
       transform="matrix(1.25,0,0,1.25,30.631483,477.82357)">
      <path
         inkscape:connector-curvature="0"
         id="path3597"
         d="m 69.780527,16.645315 c 31.310003,0 56.700003,25.3903 56.700003,56.7 0,31.309705 -25.39,56.699705 -56.700003,56.699705 -31.31,0 -56.7,-25.39 -56.7,-56.699705 0,-31.3097 25.39,-56.7 56.7,-56.7 z m 0,89.705705 c 3.914,0 7.087,3.173 7.087,7.087 0,3.914 -3.173,7.088 -7.087,7.088 -3.914,0 -7.088,-3.174 -7.088,-7.088 0,-3.914 3.174,-7.087 7.088,-7.087 z m -40.093,-40.093205 c 3.914,0 7.088,3.1738 7.088,7.0875 0,3.9137 -3.174,7.0877 -7.088,7.0877 -3.914,0 -7.087,-3.174 -7.087,-7.0877 0,-3.9137 3.173,-7.0875 7.087,-7.0875 z m 80.186003,0 c 3.914,0 7.087,3.1738 7.087,7.0875 0,3.9137 -3.173,7.0877 -7.087,7.0877 -3.914,0 -7.088,-3.174 -7.088,-7.0877 0,-3.9137 3.174,-7.0875 7.088,-7.0875 z m -40.093003,-40.0928 c 3.914,0 7.087,3.1737 7.087,7.0875 0,3.9137 -3.173,7.0875 -7.087,7.0875 -3.914,0 -7.088,-3.1738 -7.088,-7.0875 0,-3.9138 3.174,-7.0875 7.088,-7.0875 z m 0,15.9953 c 17.22,0 31.185003,13.9647 31.185003,31.185 0,17.2207 -13.965003,31.184705 -31.185003,31.184705 -17.22,0 -31.185,-13.964005 -31.185,-31.184705 0,-17.2203 13.965,-31.185 31.185,-31.185 z"
         style="fill:#99ffff;stroke:#000000;stroke-width:1" />
    </g>
    <g
       id="layer1-6"
       inkscape:label="Layer 1"
       transform="translate(212.14286,462.85713)">
      <path
         inkscape:connector-curvature="0"
         d="m 140.04338,151.46662 -28.65819,0 -14.329103,-24.81873 14.329103,-24.81872 28.6582,0 14.32909,24.81873 z m 89.81641,-30.61672 5.181,1.799 5.15599,2.537 0,2.924 -5.15599,2.537 -5.181,1.799 -0.26701,3.644 4.864,2.534 4.732,3.261 -0.426,2.892 -5.471,1.76 -5.388,1.025 -0.794,3.567 4.443,3.215 4.207,3.915 -0.842,2.8 -5.669,0.944 -5.48,0.23 -1.305,3.413 3.928,3.827 3.592,4.487 -1.241,2.647 -5.746,0.108 -5.455,-0.57 -1.788,3.186 3.328,4.359 2.901,4.962 -1.613,2.438 -5.701,-0.729 -5.313,-1.359 -2.234,2.892 2.659,4.797 2.147,5.331 -1.951,2.177 -5.534,-1.551 -5.059,-2.118 -2.63,2.537 1.931,5.133 1.349,5.586 -2.247,1.87 -5.249,-2.34 -4.697,-2.832 -2.972,2.126 1.164,5.36 0.52,5.723 -2.495,1.523 -4.852,-3.08 -4.235,-3.485 -3.249,1.67 0.37,5.472 -0.318,5.739 -2.691,1.143 -4.352,-3.754 -3.681,-4.064 -3.459,1.179 -0.43,5.468 -1.15,5.631 -2.828,0.739 -3.76,-4.347 -3.04999,-4.558 -3.59401,0.664 -1.221,5.347 -1.95799,5.403 -2.906,0.32 -3.086,-4.849 -2.355,-4.953 -3.651,0.134 -1.987,5.112 -2.724,5.06 -2.921,-0.107 -2.348,-5.246 -1.608,-5.243 -3.632,-0.399 -2.71,4.768 -3.432,4.61 -2.875,-0.531 -1.558,-5.532 -0.828,-5.422 -3.535003,-0.924 -3.375,4.323 -4.067,4.061 -2.767,-0.944 -0.736,-5.7 -0.03,-5.484 -3.363,-1.429 -3.968,3.785 -4.615,3.426 -2.6,-1.336 0.101,-5.747 0.77,-5.43 -3.119,-1.903 -4.478,3.167 -5.064,2.717 -2.377,-1.701 0.936,-5.67 1.552,-5.261 -2.809,-2.337 -4.89,2.482 -5.406,1.951 -2.105,-2.029 1.753,-5.474 2.301,-4.978 -2.439,-2.722 -5.2,1.743 -5.632,1.144 -1.787,-2.314 2.531,-5.16 3.001,-4.59 -2.016,-3.048 -5.398,0.967 -5.739,0.311 -1.431,-2.549 3.255,-4.737 3.638,-4.104 -1.551,-3.308 -5.482,0.17 -5.723,-0.528 -1.044,-2.73 3.91,-4.212 4.197,-3.531 -1.053,-3.499 -5.448,-0.629 -5.585,-1.356 -0.636,-2.853 4.482,-3.598 4.666,-2.882 -0.532,-3.615 -5.299,-1.416 -5.328,-2.154 -0.213,-2.916 4.957,-2.907 5.036,-2.172 0,-3.654 -5.036,-2.172 -4.957,-2.907 0.213,-2.916 5.328,-2.154 5.299,-1.416 0.532,-3.615 -4.666,-2.882 -4.482,-3.598 0.636,-2.853 5.585,-1.356 5.448,-0.629 1.053,-3.499 -4.197,-3.531 -3.91,-4.212 1.044,-2.73 5.723,-0.528 5.482,0.17 1.551,-3.308 -3.638,-4.104 -3.255,-4.737 1.431,-2.549 5.739,0.311 5.398,0.967 2.016,-3.048 -3.001,-4.59 -2.531,-5.16 1.787,-2.314 5.632,1.144 5.2,1.743 2.439,-2.722 -2.301,-4.978 -1.753,-5.474 2.105,-2.029 5.406,1.951 4.89,2.482 2.809,-2.337 -1.552,-5.261 -0.936,-5.67 2.377,-1.701 5.064,2.717 4.478,3.167 3.119,-1.903 -0.77,-5.43 -0.101,-5.747 2.6,-1.336 4.615,3.426 3.968,3.785 3.363,-1.429 0.03,-5.484 0.736,-5.7 2.767,-0.944 4.067,4.061 3.375,4.323 3.535003,-0.924 0.828,-5.422 1.558,-5.532 2.875,-0.531 3.432,4.61 2.71,4.768 3.632,-0.399 1.608,-5.243 2.348,-5.246 2.921,-0.107 2.724,5.06 1.987,5.112 3.651,0.134 2.355,-4.953 3.086,-4.849 2.906,0.32 1.95799,5.403 1.221,5.347 3.59401,0.664 3.04999,-4.558 3.76,-4.347 2.828,0.739 1.15,5.631 0.43,5.468 3.459,1.179 3.681,-4.064 4.352,-3.754 2.691,1.143 0.318,5.739 -0.37,5.472 3.249,1.67 4.235,-3.485 4.852,-3.08 2.495,1.523 -0.52,5.723 -1.164,5.36 2.972,2.126 4.697,-2.832 5.249,-2.34 2.247,1.87 -1.349,5.586 -1.931,5.133 2.63,2.537 5.059,-2.118 5.534,-1.551 1.951,2.177 -2.147,5.331 -2.659,4.797 2.234,2.892 5.313,-1.359 5.701,-0.729 1.613,2.438 -2.901,4.962 -3.328,4.359 1.788,3.186 5.455,-0.57 5.746,0.108 1.241,2.647 -3.592,4.487 -3.928,3.827 1.305,3.413 5.48,0.23 5.669,0.944 0.842,2.8 -4.207,3.915 -4.443,3.215 0.794,3.567 5.388,1.025 5.471,1.76 0.426,2.892 -4.732,3.261 -4.864,2.534 z"
         style="fill:#99ffff;fill-opacity:1;fill-rule:evenodd;stroke:#000000;stroke-width:1;stroke-linejoin:miter;stroke-miterlimit:4;stroke-opacity:1"
         id="path4516" />
    </g>
    <g
       style="fill-rule:evenodd"
       id="g7665"
       transform="matrix(1.25,0,0,1.25,443.30437,316.17682)">
      <path
         inkscape:connector-curvature="0"
         id="path5101"
         d="m 165.08816,41.431138 -0.786,-0.6121 0.059,-9.4471 -1.01,-0.6682 -8.672,3.7496 -0.867,-0.491 -1.316,-9.355 -1.097,-0.514 -8.034,4.9721 -0.929,-0.3595 -2.664,-9.0635 -1.161,-0.349 -7.223,6.0887 -0.972,-0.2202 -3.956,-8.5791 -1.198,-0.1763 -6.261,7.0756 -0.993,-0.0765 -5.163,-7.9114 -1.211,0 -5.167,7.9122 -0.996,0.0689 -6.261001,-7.0756 -1.198,0.1764 -3.956,8.5803 -0.973,0.2127 -7.224,-6.0888 -1.16,0.349 -2.664,9.065 -0.932,0.3521 -8.034,-4.9721 -1.096,0.5143 -1.316,9.3561 -0.871,0.4842 -8.672,-3.7496 -1.01,0.6685 0.06,9.4482 -0.791,0.6056 -9.125,-2.4469 -0.902,0.8085 1.435,9.3386 -0.694,0.7144 -9.385,-1.0921 -0.774,0.931 2.779,9.0303 -0.583,0.8077 -9.443,0.2861 -0.631,1.0339 4.065,8.5291 -0.459,0.8842 -9.301,1.6579 -0.474,1.1148 5.263,7.8464 -0.325,0.9415 -8.961,2.9946 -0.306,1.1717 6.35,6.997 -0.185,0.978 -8.429,4.268 -0.132,1.203 7.3,5.998002 -0.04,0.996 -7.718,5.448 0.044,1.211 8.096,4.87 0.105,0.991 -6.842,6.515 0.22,1.191 8.719,3.64 0.248,0.964 -5.821,7.442 0.391,1.146 9.156,2.332 0.386,0.918 -4.675,8.21 0.554,1.077 9.397,0.974 0.516,0.852 -3.43,8.803 0.705,0.985 9.439,-0.404 0.634,0.767 -2.111,9.209 0.84,0.872 9.28,-1.775 0.739,0.668 -0.748,9.417 0.959,0.74 8.922,-3.106 0.829,0.552 0.63,9.427 1.056,0.592 8.375,-4.372 0.901,0.426 1.996,9.234 1.131,0.432 7.649,-5.545 0.953,0.29 3.32,8.845 1.182,0.264 6.76,-6.6 0.985001,0.148 4.572,8.267 1.208,0.089 5.727,-7.514 0.996,0.003 5.727,7.514 1.208,-0.088 4.572,-8.268 0.986,-0.142 6.76,6.6 1.182,-0.263 3.32,-8.846 0.955,-0.283 7.649,5.545 1.131,-0.433 1.996,-9.234 0.904,-0.42 8.374,4.373 1.056,-0.593 0.631,-9.427 0.833,-0.546 8.922,3.106 0.958,-0.74 -0.748,-9.418 0.744,-0.662 9.279,1.774 0.841,-0.872 -2.112,-9.209 0.64,-0.763 9.439,0.404 0.704,-0.985 -3.43,-8.803 0.522,-0.848 9.397,-0.975 0.554,-1.077 -4.675,-8.209 0.393,-0.916 9.154,-2.332 0.391,-1.146 -5.821,-7.442 0.256,-0.963 8.717,-3.64 0.22,-1.191 -6.842,-6.514 0.113,-0.99 8.095,-4.871 0.043,-1.211 -7.717,-5.448 -0.033,-0.996 7.299,-5.998002 -0.132,-1.204 -8.429,-4.266 -0.177,-0.981 6.348,-6.9963 -0.307,-1.1717 -8.96,-2.9943 -0.318,-0.9441 5.262,-7.8461 -0.474,-1.1148 -9.301,-1.6576 -0.452,-0.8876 4.064,-8.5288 -0.632,-1.034 -9.443,-0.2854 -0.577,-0.8126 2.779,-9.0295 -0.775,-0.9309 -9.384,1.0923 -0.689,-0.7198 1.434,-9.3379 -0.902,-0.8083 -9.125,2.4472 z m -64.199,47.9027 11.325,-3e-4 11.324,6e-4 5.662,9.8072 5.662,9.807002 -5.662,9.807 -5.662,9.808 -11.324,0 -11.325,-0.001 -5.662001,-9.807 -5.662,-9.807 5.662,-9.807002 5.662001,-9.8075 z"
         style="fill:#99ffff;stroke:#000000;stroke-width:1" />
    </g>
  </g>
</svg>
