999
dxfrw 0.5.11
0
SECTION
2
HEADER
9
$ACADVER
1
AC1021
9
$HANDSEED
5
20000
9
$DWGCODEPAGE
3
ANSI_1252
9
$INSBASE
10
0
20
0
30
0
9
$EXTMIN
10
-113.125
20
-100
30
0
9
$EXTMAX
10
31.25
20
133.694222001
30
0
9
$LIMMIN
10
0
20
0
9
$LIMMAX
10
420
20
297
9
$ORTHOMODE
70
0
9
$LTSCALE
40
1
9
$TEXTSTYLE
7
STANDARD
9
$CLAYER
8
dim
9
$DIMASZ
40
2.5
9
$DIMLFAC
40
1
9
$DIMSCALE
40
1
9
$DIMEXO
40
0.625
9
$DIMEXE
40
1.25
9
$DIMTXT
40
2.5
9
$DIMTSZ
40
0
9
$DIMAUNIT
70
0
9
$DIMADEC
70
1
9
$DIMLUNIT
70
2
9
$DIMSTYLE
2
Standard
9
$DIMGAP
40
0.625
9
$DIMTIH
70
0
9
$LUNITS
70
2
9
$LUPREC
70
0
9
$AUNITS
70
0
9
$AUPREC
70
1
9
$SPLINESEGS
70
8
9
$GRIDMODE
70
1
9
$SNAPSTYLE
70
0
9
$GRIDUNIT
10
0
20
0
9
$PINSBASE
10
0
20
0
30
0
9
$PLIMMIN
10
0
20
0
9
$PLIMMAX
10
210
20
297
9
$INSUNITS
70
0
9
$PSVPSCALE
40
1
0
ENDSEC
0
SECTION
2
CLASSES
0
ENDSEC
0
SECTION
2
TABLES
0
TABLE
2
VPORT
5
8
330
0
100
AcDbSymbolTable
70
1
0
VPORT
5
31
330
2
100
AcDbSymbolTableRecord
100
AcDbViewportTableRecord
2
*ACTIVE
70
0
10
0
20
0
11
1
21
1
12
68.6876677317
22
75.8968690096
13
0
23
0
14
10
24
10
15
10
25
10
16
0
26
0
36
1
17
0
27
0
37
0
40
188.04
41
1.66666666667
42
50
43
0
44
0
50
0
51
0
71
0
72
100
73
1
74
3
75
0
76
1
77
0
78
0
281
0
65
1
110
0
120
0
130
0
111
1
121
0
131
0
112
0
122
1
132
0
79
0
146
0
348
10020
60
7
61
5
292
1
282
1
141
0
142
0
63
250
421
3358443
0
ENDTAB
0
TABLE
2
LTYPE
5
5
330
0
100
AcDbSymbolTable
70
4
0
LTYPE
5
14
330
5
100
AcDbSymbolTableRecord
100
AcDbLinetypeTableRecord
2
ByBlock
70
0
3

72
65
73
0
40
0
0
LTYPE
5
15
330
5
100
AcDbSymbolTableRecord
100
AcDbLinetypeTableRecord
2
ByLayer
70
0
3

72
65
73
0
40
0
0
LTYPE
5
16
330
5
100
AcDbSymbolTableRecord
100
AcDbLinetypeTableRecord
2
Continuous
70
0
3
Solid line
72
65
73
0
40
0
0
LTYPE
5
32
330
5
100
AcDbSymbolTableRecord
100
AcDbLinetypeTableRecord
2
DOT
70
0
3
Dot . . . . . . . . . . . . . . . . . . . . . .
72
65
73
2
40
6.35
49
0
74
0
49
-6.35
74
0
0
LTYPE
5
33
330
5
100
AcDbSymbolTableRecord
100
AcDbLinetypeTableRecord
2
DOT2
70
0
3
Dot (.5x) .....................................
72
65
73
2
40
3.175
49
0
74
0
49
-3.175
74
0
0
LTYPE
5
34
330
5
100
AcDbSymbolTableRecord
100
AcDbLinetypeTableRecord
2
DOTX2
70
0
3
Dot (2x) .  .  .  .  .  .  .  .  .  .  .  .  .
72
65
73
2
40
12.7
49
0
74
0
49
-12.7
74
0
0
LTYPE
5
35
330
5
100
AcDbSymbolTableRecord
100
AcDbLinetypeTableRecord
2
DASHED
70
0
3
Dot . . . . . . . . . . . . . . . . . . . . . .
72
65
73
2
40
19.05
49
12.7
74
0
49
-6.35
74
0
0
LTYPE
5
36
330
5
100
AcDbSymbolTableRecord
100
AcDbLinetypeTableRecord
2
DASHED2
70
0
3
Dashed (.5x) _ _ _ _ _ _ _ _ _ _ _ _ _ _ _ _ _
72
65
73
2
40
9.525
49
6.35
74
0
49
-3.175
74
0
0
LTYPE
5
37
330
5
100
AcDbSymbolTableRecord
100
AcDbLinetypeTableRecord
2
DASHEDX2
70
0
3
Dashed (2x) ____  ____  ____  ____  ____  ___
72
65
73
2
40
38.1
49
25.4
74
0
49
-12.7
74
0
0
LTYPE
5
38
330
5
100
AcDbSymbolTableRecord
100
AcDbLinetypeTableRecord
2
DASHDOT
70
0
3
Dash dot __ . __ . __ . __ . __ . __ . __ . __
72
65
73
4
40
25.4
49
12.7
74
0
49
-6.35
74
0
49
0
74
0
49
-6.35
74
0
0
LTYPE
5
39
330
5
100
AcDbSymbolTableRecord
100
AcDbLinetypeTableRecord
2
DASHDOT2
70
0
3
Dash dot (.5x) _._._._._._._._._._._._._._._.
72
65
73
4
40
12.7
49
6.35
74
0
49
-3.175
74
0
49
0
74
0
49
-3.175
74
0
0
LTYPE
5
3A
330
5
100
AcDbSymbolTableRecord
100
AcDbLinetypeTableRecord
2
DASHDOTX2
70
0
3
Dash dot (2x) ____  .  ____  .  ____  .  ___
72
65
73
4
40
50.8
49
25.4
74
0
49
-12.7
74
0
49
0
74
0
49
-12.7
74
0
0
LTYPE
5
3B
330
5
100
AcDbSymbolTableRecord
100
AcDbLinetypeTableRecord
2
DIVIDE
70
0
3
Divide ____ . . ____ . . ____ . . ____ . . ____
72
65
73
6
40
31.75
49
12.7
74
0
49
-6.35
74
0
49
0
74
0
49
-6.35
74
0
49
0
74
0
49
-6.35
74
0
0
LTYPE
5
3C
330
5
100
AcDbSymbolTableRecord
100
AcDbLinetypeTableRecord
2
DIVIDE2
70
0
3
Divide (.5x) __..__..__..__..__..__..__..__.._
72
65
73
6
40
15.875
49
6.35
74
0
49
-3.175
74
0
49
0
74
0
49
-3.175
74
0
49
0
74
0
49
-3.175
74
0
0
LTYPE
5
3D
330
5
100
AcDbSymbolTableRecord
100
AcDbLinetypeTableRecord
2
DIVIDEX2
70
0
3
Divide (2x) ________  .  .  ________  .  .  _
72
65
73
6
40
63.5
49
25.4
74
0
49
-12.7
74
0
49
0
74
0
49
-12.7
74
0
49
0
74
0
49
-12.7
74
0
0
LTYPE
5
3E
330
5
100
AcDbSymbolTableRecord
100
AcDbLinetypeTableRecord
2
BORDER
70
0
3
Border __ __ . __ __ . __ __ . __ __ . __ __ .
72
65
73
6
40
44.45
49
12.7
74
0
49
-6.35
74
0
49
12.7
74
0
49
-6.35
74
0
49
0
74
0
49
-6.35
74
0
0
LTYPE
5
3F
330
5
100
AcDbSymbolTableRecord
100
AcDbLinetypeTableRecord
2
BORDER2
70
0
3
Border (.5x) __.__.__.__.__.__.__.__.__.__.__.
72
65
73
6
40
22.225
49
6.35
74
0
49
-3.175
74
0
49
6.35
74
0
49
-3.175
74
0
49
0
74
0
49
-3.175
74
0
0
LTYPE
5
40
330
5
100
AcDbSymbolTableRecord
100
AcDbLinetypeTableRecord
2
BORDERX2
70
0
3
Border (2x) ____  ____  .  ____  ____  .  ___
72
65
73
6
40
88.9
49
25.4
74
0
49
-12.7
74
0
49
25.4
74
0
49
-12.7
74
0
49
0
74
0
49
-12.7
74
0
0
LTYPE
5
41
330
5
100
AcDbSymbolTableRecord
100
AcDbLinetypeTableRecord
2
CENTER
70
0
3
Center ____ _ ____ _ ____ _ ____ _ ____ _ ____
72
65
73
4
40
50.8
49
31.75
74
0
49
-6.35
74
0
49
6.35
74
0
49
-6.35
74
0
0
LTYPE
5
42
330
5
100
AcDbSymbolTableRecord
100
AcDbLinetypeTableRecord
2
CENTER2
70
0
3
Center (.5x) ___ _ ___ _ ___ _ ___ _ ___ _ ___
72
65
73
4
40
28.575
49
19.05
74
0
49
-3.175
74
0
49
3.175
74
0
49
-3.175
74
0
0
LTYPE
5
43
330
5
100
AcDbSymbolTableRecord
100
AcDbLinetypeTableRecord
2
CENTERX2
70
0
3
Center (2x) ________  __  ________  __  _____
72
65
73
4
40
101.6
49
63.5
74
0
49
-12.7
74
0
49
12.7
74
0
49
-12.7
74
0
0
ENDTAB
0
TABLE
2
LAYER
5
2
330
0
100
AcDbSymbolTable
70
1
0
LAYER
5
10
330
2
100
AcDbSymbolTableRecord
100
AcDbLayerTableRecord
2
0
70
0
62
7
6
CONTINUOUS
370
50
390
F
0
LAYER
5
44
330
2
100
AcDbSymbolTableRecord
100
AcDbLayerTableRecord
2
base
70
0
62
7
6
CENTER
370
0
390
F
0
LAYER
5
45
330
2
100
AcDbSymbolTableRecord
100
AcDbLayerTableRecord
2
base2
70
0
62
7
6
DASHED
370
0
390
F
0
LAYER
5
46
330
2
100
AcDbSymbolTableRecord
100
AcDbLayerTableRecord
2
dim
70
0
62
7
6
CONTINUOUS
370
-3
390
F
0
ENDTAB
0
TABLE
2
STYLE
5
3
330
0
100
AcDbSymbolTable
70
3
0
STYLE
5
47
330
2
100
AcDbSymbolTableRecord
100
AcDbTextStyleTableRecord
2
Standard
70
0
40
0
41
1
50
0
71
0
42
1
3
txt
4

0
ENDTAB
0
TABLE
2
VIEW
5
6
330
0
100
AcDbSymbolTable
70
0
0
ENDTAB
0
TABLE
2
UCS
5
7
330
0
100
AcDbSymbolTable
70
0
0
ENDTAB
0
TABLE
2
APPID
5
9
330
0
100
AcDbSymbolTable
70
1
0
APPID
5
12
330
9
100
AcDbSymbolTableRecord
100
AcDbRegAppTableRecord
2
ACAD
70
0
0
ENDTAB
0
TABLE
2
DIMSTYLE
5
A
330
0
100
AcDbSymbolTable
70
1
100
AcDbDimStyleTable
71
1
0
DIMSTYLE
105
48
330
A
100
AcDbSymbolTableRecord
100
AcDbDimStyleTableRecord
2
Standard
70
0
40
1
41
2.5
42
0.625
43
0.38
44
1.25
45
0
46
0
47
0
48
0
140
2.5
141
0.09
142
0
143
25.4
144
1
145
0
146
1
147
0.625
148
0
71
0
72
0
73
0
74
1
75
0
76
0
77
0
78
0
79
0
170
0
171
2
172
0
173
0
174
0
175
0
176
0
177
0
178
0
179
0
271
4
272
4
273
2
274
2
275
0
276
0
277
2
278
46
279
0
280
0
281
0
282
0
283
1
284
0
285
0
286
0
288
0
289
3
340
Standard
341

371
-2
372
-2
0
ENDTAB
0
TABLE
2
BLOCK_RECORD
5
1
330
0
100
AcDbSymbolTable
70
2
0
BLOCK_RECORD
5
1F
330
1
100
AcDbSymbolTableRecord
100
AcDbBlockTableRecord
2
*Model_Space
70
0
280
1
281
0
0
BLOCK_RECORD
5
1E
330
1
100
AcDbSymbolTableRecord
100
AcDbBlockTableRecord
2
*Paper_Space
70
0
280
1
281
0
0
BLOCK_RECORD
5
49
330
1
100
AcDbSymbolTableRecord
100
AcDbBlockTableRecord
2
*D6
70
0
280
1
281
0
0
BLOCK_RECORD
5
4C
330
1
100
AcDbSymbolTableRecord
100
AcDbBlockTableRecord
2
*D5
70
0
280
1
281
0
0
BLOCK_RECORD
5
4F
330
1
100
AcDbSymbolTableRecord
100
AcDbBlockTableRecord
2
*D11
70
0
280
1
281
0
0
BLOCK_RECORD
5
52
330
1
100
AcDbSymbolTableRecord
100
AcDbBlockTableRecord
2
*D2
70
0
280
1
281
0
0
BLOCK_RECORD
5
55
330
1
100
AcDbSymbolTableRecord
100
AcDbBlockTableRecord
2
*D3
70
0
280
1
281
0
0
BLOCK_RECORD
5
58
330
1
100
AcDbSymbolTableRecord
100
AcDbBlockTableRecord
2
*D13
70
0
280
1
281
0
0
BLOCK_RECORD
5
5B
330
1
100
AcDbSymbolTableRecord
100
AcDbBlockTableRecord
2
*D12
70
0
280
1
281
0
0
BLOCK_RECORD
5
5E
330
1
100
AcDbSymbolTableRecord
100
AcDbBlockTableRecord
2
*D10
70
0
280
1
281
0
0
BLOCK_RECORD
5
61
330
1
100
AcDbSymbolTableRecord
100
AcDbBlockTableRecord
2
*D15
70
0
280
1
281
0
0
BLOCK_RECORD
5
64
330
1
100
AcDbSymbolTableRecord
100
AcDbBlockTableRecord
2
*D4
70
0
280
1
281
0
0
BLOCK_RECORD
5
67
330
1
100
AcDbSymbolTableRecord
100
AcDbBlockTableRecord
2
*D1
70
0
280
1
281
0
0
BLOCK_RECORD
5
6A
330
1
100
AcDbSymbolTableRecord
100
AcDbBlockTableRecord
2
*D14
70
0
280
1
281
0
0
BLOCK_RECORD
5
6D
330
1
100
AcDbSymbolTableRecord
100
AcDbBlockTableRecord
2
*D7
70
0
280
1
281
0
0
BLOCK_RECORD
5
70
330
1
100
AcDbSymbolTableRecord
100
AcDbBlockTableRecord
2
*D8
70
0
280
1
281
0
0
BLOCK_RECORD
5
73
330
1
100
AcDbSymbolTableRecord
100
AcDbBlockTableRecord
2
*D9
70
0
280
1
281
0
0
BLOCK_RECORD
5
76
330
1
100
AcDbSymbolTableRecord
100
AcDbBlockTableRecord
2
CUT001008009044_PROJ
70
0
280
1
281
0
0
BLOCK_RECORD
5
79
330
1
100
AcDbSymbolTableRecord
100
AcDbBlockTableRecord
2
CUT001008009044_PROJ001
70
0
280
1
281
0
0
BLOCK_RECORD
5
7C
330
1
100
AcDbSymbolTableRecord
100
AcDbBlockTableRecord
2
CUT001008009044_PROJ002
70
0
280
1
281
0
0
ENDTAB
0
ENDSEC
0
SECTION
2
BLOCKS
0
BLOCK
5
20
330
1F
100
AcDbEntity
8
0
100
AcDbBlockBegin
2
*Model_Space
70
0
10
0
20
0
30
0
3
*Model_Space
1

0
ENDBLK
5
21
330
1F
100
AcDbEntity
8
0
100
AcDbBlockEnd
0
BLOCK
5
1C
330
1B
100
AcDbEntity
8
0
100
AcDbBlockBegin
2
*Paper_Space
70
0
10
0
20
0
30
0
3
*Paper_Space
1

0
ENDBLK
5
1D
330
1F
100
AcDbEntity
8
0
100
AcDbBlockEnd
0
BLOCK
5
4A
330
49
100
AcDbEntity
8
0
100
AcDbBlockBegin
2
*D6
70
1
10
0
20
0
3
*D6
1

0
LINE
5
7F
100
AcDbEntity
8
dim
6
CONTINUOUS
62
7
370
0
100
AcDbLine
10
-110
20
82
11
-110
21
57
0
SOLID
5
80
100
AcDbEntity
8
dim
6
CONTINUOUS
62
7
370
0
100
AcDbTrace
10
-110
20
82
30
0
11
-109.583715342
21
79.5
31
0
12
-110.416284658
22
79.5
32
0
13
-110.416284658
23
79.5
33
0
0
SOLID
5
81
100
AcDbEntity
8
dim
6
CONTINUOUS
62
7
370
0
100
AcDbTrace
10
-110
20
57
30
0
11
-110.416284658
21
59.5
31
0
12
-109.583715342
22
59.5
32
0
13
-109.583715342
23
59.5
33
0
0
MTEXT
5
82
100
AcDbEntity
8
dim
6
CONTINUOUS
62
7
370
0
100
AcDbMText
10
-111.875
20
69.5
30
0
40
2.5
41
3.05555555556
71
5
72
1
1
25
7
standard
210
0
220
0
230
1
50
90
73
2
44
1
0
LINE
5
83
100
AcDbEntity
8
dim
6
CONTINUOUS
62
7
370
0
100
AcDbLine
10
-74.625
20
82
11
-111.25
21
82
0
LINE
5
84
100
AcDbEntity
8
dim
6
CONTINUOUS
62
7
370
0
100
AcDbLine
10
-90.625
20
57
11
-111.25
21
57
0
ENDBLK
5
4B
330
49
100
AcDbEntity
8
0
100
AcDbBlockEnd
0
BLOCK
5
4D
330
4C
100
AcDbEntity
8
0
100
AcDbBlockBegin
2
*D5
70
1
10
0
20
0
3
*D5
1

0
LINE
5
85
100
AcDbEntity
8
dim
6
CONTINUOUS
62
7
370
0
100
AcDbLine
10
-110
20
57
11
-110
21
0
0
SOLID
5
86
100
AcDbEntity
8
dim
6
CONTINUOUS
62
7
370
0
100
AcDbTrace
10
-110
20
57
30
0
11
-109.583715342
21
54.5
31
0
12
-110.416284658
22
54.5
32
0
13
-110.416284658
23
54.5
33
0
0
SOLID
5
87
100
AcDbEntity
8
dim
6
CONTINUOUS
62
7
370
0
100
AcDbTrace
10
-110
20
0
30
0
11
-110.416284658
21
2.5
31
0
12
-109.583715342
22
2.5
32
0
13
-109.583715342
23
2.5
33
0
0
MTEXT
5
88
100
AcDbEntity
8
dim
6
CONTINUOUS
62
7
370
0
100
AcDbMText
10
-111.875
20
28.5
30
0
40
2.5
41
3.05555555556
71
5
72
1
1
57
7
standard
210
0
220
0
230
1
50
90
73
2
44
1
0
LINE
5
89
100
AcDbEntity
8
dim
6
CONTINUOUS
62
7
370
0
100
AcDbLine
10
-90.625
20
57
11
-111.25
21
57
0
LINE
5
8A
100
AcDbEntity
8
dim
6
CONTINUOUS
62
7
370
0
100
AcDbLine
10
-100.625
20
7.65378971139e-17
11
-111.25
21
1.53075794228e-16
0
ENDBLK
5
4E
330
4C
100
AcDbEntity
8
0
100
AcDbBlockEnd
0
BLOCK
5
50
330
4F
100
AcDbEntity
8
0
100
AcDbBlockBegin
2
*D11
70
1
10
0
20
0
3
*D11
1

0
LINE
5
8B
100
AcDbEntity
8
dim
6
CONTINUOUS
62
7
370
0
100
AcDbLine
10
-40.0856691141
20
108.508661187
11
-53.134888491
21
100.974698413
0
LINE
5
8C
100
AcDbEntity
8
dim
6
CONTINUOUS
62
7
370
0
100
AcDbLine
10
-80
20
-0.625
11
-80
21
54.4429836325
0
ARC
5
8D
100
AcDbEntity
8
dim
6
CONTINUOUS
62
7
370
0
100
AcDbCircle
10
-80
20
85.4641345877
40
29.7711509552
100
AcDbArc
50
270
51
29.9999751499
0
SOLID
5
8E
100
AcDbEntity
8
dim
6
CONTINUOUS
62
7
370
0
100
AcDbTrace
10
-54.2174205168
20
100.349698883
30
0
11
-52.6904687108
21
98.3269010437
31
0
12
-53.4283329895
22
97.9412483872
32
0
13
-53.4283329895
23
97.9412483872
33
0
0
SOLID
5
8F
100
AcDbEntity
8
dim
6
CONTINUOUS
62
7
370
0
100
AcDbTrace
10
-80
20
55.6929836325
30
0
11
-77.5196766974
21
56.2138379601
31
0
12
-77.4847299164
22
55.3820024069
32
0
13
-77.4847299164
23
55.3820024069
33
0
0
MTEXT
5
90
100
AcDbEntity
8
dim
6
CONTINUOUS
62
7
370
0
100
AcDbMText
10
-54.7586960105
20
70.8910536363
30
0
40
2.5
41
8.88888888889
71
8
72
1
1
120.0%%D
7
standard
210
0
220
0
230
1
50
59.999987575
73
2
44
1
0
ENDBLK
5
51
330
4F
100
AcDbEntity
8
0
100
AcDbBlockEnd
0
BLOCK
5
53
330
52
100
AcDbEntity
8
0
100
AcDbBlockBegin
2
*D2
70
1
10
0
20
0
3
*D2
1

0
LINE
5
91
100
AcDbEntity
8
dim
6
CONTINUOUS
62
7
370
0
100
AcDbLine
10
30
20
67
11
30
21
-4.15908843823e-15
0
SOLID
5
92
100
AcDbEntity
8
dim
6
CONTINUOUS
62
7
370
0
100
AcDbTrace
10
30
20
67
30
0
11
30.4162846578
21
64.5
31
0
12
29.5837153422
22
64.5
32
0
13
29.5837153422
23
64.5
33
0
0
SOLID
5
93
100
AcDbEntity
8
dim
6
CONTINUOUS
62
7
370
0
100
AcDbTrace
10
30
20
-4.15908843823e-15
30
0
11
29.5837153422
21
2.5
31
0
12
30.4162846578
22
2.5
32
0
13
30.4162846578
23
2.5
33
0
0
MTEXT
5
94
100
AcDbEntity
8
dim
6
CONTINUOUS
62
7
370
0
100
AcDbMText
10
28.125
20
33.5
30
0
40
2.5
41
3.05555555556
71
5
72
1
1
67
7
standard
210
0
220
0
230
1
50
90
73
2
44
1
0
LINE
5
95
100
AcDbEntity
8
dim
6
CONTINUOUS
62
7
370
0
100
AcDbLine
10
9.625
20
67
11
31.25
21
67
0
LINE
5
96
100
AcDbEntity
8
dim
6
CONTINUOUS
62
7
370
0
100
AcDbLine
10
18.625
20
-3.30643715532e-15
11
31.25
21
-4.15908843823e-15
0
ENDBLK
5
54
330
52
100
AcDbEntity
8
0
100
AcDbBlockEnd
0
BLOCK
5
56
330
55
100
AcDbEntity
8
0
100
AcDbBlockBegin
2
*D3
70
1
10
0
20
0
3
*D3
1

0
LINE
5
97
100
AcDbEntity
8
dim
6
CONTINUOUS
62
7
370
0
100
AcDbLine
10
-100
20
-13
11
-80
21
-13
0
SOLID
5
98
100
AcDbEntity
8
dim
6
CONTINUOUS
62
7
370
0
100
AcDbTrace
10
-100
20
-13
30
0
11
-97.5
21
-12.5837153422
31
0
12
-97.5
22
-13.4162846578
32
0
13
-97.5
23
-13.4162846578
33
0
0
SOLID
5
99
100
AcDbEntity
8
dim
6
CONTINUOUS
62
7
370
0
100
AcDbTrace
10
-80
20
-13
30
0
11
-82.5
21
-13.4162846578
31
0
12
-82.5
22
-12.5837153422
32
0
13
-82.5
23
-12.5837153422
33
0
0
MTEXT
5
9A
100
AcDbEntity
8
dim
6
CONTINUOUS
62
7
370
0
100
AcDbMText
10
-90
20
-11.125
30
0
40
2.5
41
3.05555555556
71
5
72
1
1
20
7
standard
210
0
220
0
230
1
50
0
73
2
44
1
0
LINE
5
9B
100
AcDbEntity
8
dim
6
CONTINUOUS
62
7
370
0
100
AcDbLine
10
-100
20
-0.625
11
-100
21
-14.25
0
LINE
5
9C
100
AcDbEntity
8
dim
6
CONTINUOUS
62
7
370
0
100
AcDbLine
10
-80
20
-0.625
11
-80
21
-14.25
0
ENDBLK
5
57
330
55
100
AcDbEntity
8
0
100
AcDbBlockEnd
0
BLOCK
5
59
330
58
100
AcDbEntity
8
0
100
AcDbBlockBegin
2
*D13
70
1
10
0
20
0
3
*D13
1

0
SOLID
5
9D
100
AcDbEntity
8
dim
6
CONTINUOUS
62
7
370
0
100
AcDbTrace
10
-69.5187092023
20
76.6224510428
30
0
11
-71.438968934
21
78.2765052981
31
0
12
-70.799371469
22
78.8095031855
32
0
13
-70.799371469
23
78.8095031855
33
0
0
LINE
5
9E
100
AcDbEntity
8
dim
6
CONTINUOUS
62
7
370
0
100
AcDbLine
10
-74
20
82
11
-69.5187092023
21
76.6224510428
0
MTEXT
5
9F
100
AcDbEntity
8
dim
6
CONTINUOUS
62
7
370
0
100
AcDbMText
10
-65.2330303046
20
74.408479994
30
0
40
2.5
41
1.11111111111
71
5
72
1
1
7
7
standard
210
0
220
0
230
1
50
309.805571092
73
2
44
1
0
ENDBLK
5
5A
330
58
100
AcDbEntity
8
0
100
AcDbBlockEnd
0
BLOCK
5
5C
330
5B
100
AcDbEntity
8
0
100
AcDbBlockBegin
2
*D12
70
1
10
0
20
0
3
*D12
1

0
LINE
5
A0
100
AcDbEntity
8
dim
6
CONTINUOUS
62
7
370
0
100
AcDbLine
10
-86.0776772972
20
57.7844645406
11
-93.9223227028
21
56.2155354594
0
SOLID
5
A1
100
AcDbEntity
8
dim
6
CONTINUOUS
62
7
370
0
100
AcDbTrace
10
-86.0776772972
20
57.7844645406
30
0
11
-88.4474888483
21
56.8859735117
31
0
12
-88.6107691247
22
57.7023748937
32
0
13
-88.6107691247
23
57.7023748937
33
0
0
SOLID
5
A2
100
AcDbEntity
8
dim
6
CONTINUOUS
62
7
370
0
100
AcDbTrace
10
-93.9223227028
20
56.2155354594
30
0
11
-91.5525111517
21
57.1140264883
31
0
12
-91.3892308753
22
56.2976251063
32
0
13
-91.3892308753
23
56.2976251063
33
0
0
MTEXT
5
A3
100
AcDbEntity
8
dim
6
CONTINUOUS
62
7
370
0
100
AcDbMText
10
-90.3677177534
20
58.8385887669
30
0
40
2.5
41
3.61111111111
71
5
72
1
1
   %%C8
7
standard
210
0
220
0
230
1
50
11.309932474
73
2
44
1
0
ENDBLK
5
5D
330
5B
100
AcDbEntity
8
0
100
AcDbBlockEnd
0
BLOCK
5
5F
330
5E
100
AcDbEntity
8
0
100
AcDbBlockBegin
2
*D10
70
1
10
0
20
0
3
*D10
1

0
LINE
5
A4
100
AcDbEntity
8
dim
6
CONTINUOUS
62
7
370
0
100
AcDbLine
10
-65.4291783608
20
93.1549063018
11
-60.0477623811
21
83.834011071
0
LINE
5
A5
100
AcDbEntity
8
dim
6
CONTINUOUS
62
7
370
0
100
AcDbLine
10
-58.5009733948
20
97.1549032969
11
-53.1195574151
21
87.8340080661
0
LINE
5
A6
100
AcDbEntity
8
dim
6
CONTINUOUS
62
7
370
0
100
AcDbLine
10
-60.6727619115
20
84.9165430968
11
-53.7445569455
21
88.9165400919
0
SOLID
5
A7
100
AcDbEntity
8
dim
6
CONTINUOUS
62
7
370
0
100
AcDbTrace
10
-60.6727619115
20
84.9165430968
30
0
11
-58.7158400323
21
86.5270553368
31
0
12
-58.2995556873
22
85.8060289785
32
0
13
-58.2995556873
23
85.8060289785
33
0
0
SOLID
5
A8
100
AcDbEntity
8
dim
6
CONTINUOUS
62
7
370
0
100
AcDbTrace
10
-53.7445569455
20
88.9165400919
30
0
11
-55.7014788247
21
87.3060278519
31
0
12
-56.1177631697
22
88.0270542102
32
0
13
-56.1177631697
23
88.0270542102
33
0
0
MTEXT
5
A9
100
AcDbEntity
8
dim
6
CONTINUOUS
62
7
370
0
100
AcDbMText
10
-58.146158724
20
88.5403396333
30
0
40
2.5
41
1.11111111111
71
5
72
1
1
8
7
standard
210
0
220
0
230
1
50
29.9999751467
73
2
44
1
0
ENDBLK
5
60
330
5E
100
AcDbEntity
8
0
100
AcDbBlockEnd
0
BLOCK
5
62
330
61
100
AcDbEntity
8
0
100
AcDbBlockBegin
2
*D15
70
1
10
0
20
0
3
*D15
1

0
LINE
5
AA
100
AcDbEntity
8
dim
6
CONTINUOUS
62
7
370
0
100
AcDbLine
10
5.2052668078
20
65.7350889359
11
12.7947331922
21
68.2649110641
0
SOLID
5
AB
100
AcDbEntity
8
dim
6
CONTINUOUS
62
7
370
0
100
AcDbTrace
10
5.2052668078
20
65.7350889359
30
0
11
7.44533428557
21
66.920580653
31
0
12
7.70861582028
22
66.1307360489
32
0
13
7.70861582028
23
66.1307360489
33
0
0
SOLID
5
AC
100
AcDbEntity
8
dim
6
CONTINUOUS
62
7
370
0
100
AcDbTrace
10
12.7947331922
20
68.2649110641
30
0
11
10.5546657144
21
67.079419347
31
0
12
10.2913841797
22
67.8692639511
32
0
13
10.2913841797
23
67.8692639511
33
0
0
MTEXT
5
AD
100
AcDbEntity
8
dim
6
CONTINUOUS
62
7
370
0
100
AcDbMText
10
8.40707293872
20
68.7787811838
30
0
40
2.5
41
3.61111111111
71
5
72
1
1
   %%C8
7
standard
210
0
220
0
230
1
50
18.4349488229
73
2
44
1
0
ENDBLK
5
63
330
61
100
AcDbEntity
8
0
100
AcDbBlockEnd
0
BLOCK
5
65
330
64
100
AcDbEntity
8
0
100
AcDbBlockBegin
2
*D4
70
1
10
0
20
0
3
*D4
1

0
LINE
5
AE
100
AcDbEntity
8
dim
6
CONTINUOUS
62
7
370
0
100
AcDbLine
10
-50.08565584
20
125.829176691
11
-36.4629738338
21
133.694222001
0
LINE
5
AF
100
AcDbEntity
8
dim
6
CONTINUOUS
62
7
370
0
100
AcDbLine
10
-40.085669012
20
108.50866101
11
-26.4629870058
21
116.37370632
0
LINE
5
B0
100
AcDbEntity
8
dim
6
CONTINUOUS
62
7
370
0
100
AcDbLine
10
-37.5455060638
20
133.069222825
11
-27.5455192358
21
115.748707144
0
SOLID
5
B1
100
AcDbEntity
8
dim
6
CONTINUOUS
62
7
370
0
100
AcDbTrace
10
-37.5455060638
20
133.069222825
30
0
11
-35.9349944632
21
131.112300419
31
0
12
-36.6560209575
22
130.69601631
32
0
13
-36.6560209575
23
130.69601631
33
0
0
SOLID
5
B2
100
AcDbEntity
8
dim
6
CONTINUOUS
62
7
370
0
100
AcDbTrace
10
-27.5455192358
20
115.748707144
30
0
11
-29.1560308364
21
117.705629549
31
0
12
-28.4350043422
22
118.121913658
32
0
13
-28.4350043422
23
118.121913658
33
0
0
MTEXT
5
B3
100
AcDbEntity
8
dim
6
CONTINUOUS
62
7
370
0
100
AcDbMText
10
-30.921714305
20
125.346463749
30
0
40
2.5
41
3.05555555556
71
5
72
1
1
20
7
standard
210
0
220
0
230
1
50
299.999956427
73
2
44
1
0
ENDBLK
5
66
330
64
100
AcDbEntity
8
0
100
AcDbBlockEnd
0
BLOCK
5
68
330
67
100
AcDbEntity
8
0
100
AcDbBlockBegin
2
*D1
70
1
10
0
20
0
3
*D1
1

0
LINE
5
B4
100
AcDbEntity
8
dim
6
CONTINUOUS
62
7
370
0
100
AcDbLine
10
0
20
-16
11
18
21
-16
0
SOLID
5
B5
100
AcDbEntity
8
dim
6
CONTINUOUS
62
7
370
0
100
AcDbTrace
10
0
20
-16
30
0
11
2.5
21
-15.5837153422
31
0
12
2.5
22
-16.4162846578
32
0
13
2.5
23
-16.4162846578
33
0
0
SOLID
5
B6
100
AcDbEntity
8
dim
6
CONTINUOUS
62
7
370
0
100
AcDbTrace
10
18
20
-16
30
0
11
15.5
21
-16.4162846578
31
0
12
15.5
22
-15.5837153422
32
0
13
15.5
23
-15.5837153422
33
0
0
MTEXT
5
B7
100
AcDbEntity
8
dim
6
CONTINUOUS
62
7
370
0
100
AcDbMText
10
9
20
-14.125
30
0
40
2.5
41
2.5
71
5
72
1
1
18
7
standard
210
0
220
0
230
1
50
0
73
2
44
1
0
LINE
5
B8
100
AcDbEntity
8
dim
6
CONTINUOUS
62
7
370
0
100
AcDbLine
10
-1.14806845671e-16
20
-0.625
11
-2.29613691342e-16
21
-17.25
0
LINE
5
B9
100
AcDbEntity
8
dim
6
CONTINUOUS
62
7
370
0
100
AcDbLine
10
18
20
-0.625
11
18
21
-17.25
0
ENDBLK
5
69
330
67
100
AcDbEntity
8
0
100
AcDbBlockEnd
0
BLOCK
5
6B
330
6A
100
AcDbEntity
8
0
100
AcDbBlockBegin
2
*D14
70
1
10
0
20
0
3
*D14
1

0
LINE
5
BA
100
AcDbEntity
8
dim
6
CONTINUOUS
62
7
370
0
100
AcDbLine
10
-74
20
78
11
-74
21
86
0
SOLID
5
BB
100
AcDbEntity
8
dim
6
CONTINUOUS
62
7
370
0
100
AcDbTrace
10
-74
20
78
30
0
11
-74.4162846578
21
80.5
31
0
12
-73.5837153422
22
80.5
32
0
13
-73.5837153422
23
80.5
33
0
0
SOLID
5
BC
100
AcDbEntity
8
dim
6
CONTINUOUS
62
7
370
0
100
AcDbTrace
10
-74
20
86
30
0
11
-73.5837153422
21
83.5
31
0
12
-74.4162846578
22
83.5
32
0
13
-74.4162846578
23
83.5
33
0
0
MTEXT
5
BD
100
AcDbEntity
8
dim
6
CONTINUOUS
62
7
370
0
100
AcDbMText
10
-75.875
20
82
30
0
40
2.5
41
3.61111111111
71
5
72
1
1
   %%C8
7
standard
210
0
220
0
230
1
50
90
73
2
44
1
0
ENDBLK
5
6C
330
6A
100
AcDbEntity
8
0
100
AcDbBlockEnd
0
BLOCK
5
6E
330
6D
100
AcDbEntity
8
0
100
AcDbBlockBegin
2
*D7
70
1
10
0
20
0
3
*D7
1

0
LINE
5
BE
100
AcDbEntity
8
dim
6
CONTINUOUS
62
7
370
0
100
AcDbLine
10
-90
20
120
11
-74
21
120
0
SOLID
5
BF
100
AcDbEntity
8
dim
6
CONTINUOUS
62
7
370
0
100
AcDbTrace
10
-90
20
120
30
0
11
-87.5
21
120.416284658
31
0
12
-87.5
22
119.583715342
32
0
13
-87.5
23
119.583715342
33
0
0
SOLID
5
C0
100
AcDbEntity
8
dim
6
CONTINUOUS
62
7
370
0
100
AcDbTrace
10
-74
20
120
30
0
11
-76.5
21
119.583715342
31
0
12
-76.5
22
120.416284658
32
0
13
-76.5
23
120.416284658
33
0
0
MTEXT
5
C1
100
AcDbEntity
8
dim
6
CONTINUOUS
62
7
370
0
100
AcDbMText
10
-82
20
121.875
30
0
40
2.5
41
2.5
71
5
72
1
1
16
7
standard
210
0
220
0
230
1
50
0
73
2
44
1
0
LINE
5
C2
100
AcDbEntity
8
dim
6
CONTINUOUS
62
7
370
0
100
AcDbLine
10
-90
20
57.625
11
-90
21
121.25
0
LINE
5
C3
100
AcDbEntity
8
dim
6
CONTINUOUS
62
7
370
0
100
AcDbLine
10
-74
20
82.625
11
-74
21
121.25
0
ENDBLK
5
6F
330
6D
100
AcDbEntity
8
0
100
AcDbBlockEnd
0
BLOCK
5
71
330
70
100
AcDbEntity
8
0
100
AcDbBlockBegin
2
*D8
70
1
10
0
20
0
3
*D8
1

0
LINE
5
C4
100
AcDbEntity
8
dim
6
CONTINUOUS
62
7
370
0
100
AcDbLine
10
-70.6253320848
20
90.1549085551
11
-54.0487358904
21
61.4433729718
0
LINE
5
C5
100
AcDbEntity
8
dim
6
CONTINUOUS
62
7
370
0
100
AcDbLine
10
-40.3144353618
20
107.654895409
11
-23.7378391674
21
78.9433598258
0
LINE
5
C6
100
AcDbEntity
8
dim
6
CONTINUOUS
62
7
370
0
100
AcDbLine
10
-54.6737354209
20
62.5259049976
11
-24.3628386979
21
80.0258918516
0
SOLID
5
C7
100
AcDbEntity
8
dim
6
CONTINUOUS
62
7
370
0
100
AcDbTrace
10
-54.6737354209
20
62.5259049976
30
0
11
-52.7168135418
21
64.1364172377
31
0
12
-52.3005291968
22
63.4153908795
32
0
13
-52.3005291968
23
63.4153908795
33
0
0
SOLID
5
C8
100
AcDbEntity
8
dim
6
CONTINUOUS
62
7
370
0
100
AcDbTrace
10
-24.3628386979
20
80.0258918516
30
0
11
-26.319760577
21
78.4153796116
31
0
12
-26.736044922
22
79.1364059698
32
0
13
-26.736044922
23
79.1364059698
33
0
0
MTEXT
5
C9
100
AcDbEntity
8
dim
6
CONTINUOUS
62
7
370
0
100
AcDbMText
10
-40.455786355
20
72.8996964633
30
0
40
2.5
41
3.05555555556
71
5
72
1
1
35
7
standard
210
0
220
0
230
1
50
29.9999751499
73
2
44
1
0
ENDBLK
5
72
330
70
100
AcDbEntity
8
0
100
AcDbBlockEnd
0
BLOCK
5
74
330
73
100
AcDbEntity
8
0
100
AcDbBlockBegin
2
*D9
70
1
10
0
20
0
3
*D9
1

0
LINE
5
CA
100
AcDbEntity
8
dim
6
CONTINUOUS
62
7
370
0
100
AcDbLine
10
-61.9650758778
20
95.1549047993
11
-50.3695641488
21
75.0708692284
0
LINE
5
CB
100
AcDbEntity
8
dim
6
CONTINUOUS
62
7
370
0
100
AcDbLine
10
-40.3144353618
20
107.654895409
11
-28.7189236328
21
87.5708598382
0
LINE
5
CC
100
AcDbEntity
8
dim
6
CONTINUOUS
62
7
370
0
100
AcDbLine
10
-50.9945636793
20
76.1534012542
11
-29.3439231633
21
88.653391864
0
SOLID
5
CD
100
AcDbEntity
8
dim
6
CONTINUOUS
62
7
370
0
100
AcDbTrace
10
-50.9945636793
20
76.1534012542
30
0
11
-49.0376418002
21
77.7639134943
31
0
12
-48.6213574552
22
77.0428871361
32
0
13
-48.6213574552
23
77.0428871361
33
0
0
SOLID
5
CE
100
AcDbEntity
8
dim
6
CONTINUOUS
62
7
370
0
100
AcDbTrace
10
-29.3439231633
20
88.653391864
30
0
11
-31.3008450424
21
87.0428796239
31
0
12
-31.7171293874
22
87.7639059822
32
0
13
-31.7171293874
23
87.7639059822
33
0
0
MTEXT
5
CF
100
AcDbEntity
8
dim
6
CONTINUOUS
62
7
370
0
100
AcDbMText
10
-41.106742717
20
84.027194598
30
0
40
2.5
41
3.05555555556
71
5
72
1
1
25
7
standard
210
0
220
0
230
1
50
29.99997515
73
2
44
1
0
ENDBLK
5
75
330
73
100
AcDbEntity
8
0
100
AcDbBlockEnd
0
BLOCK
5
77
330
76
100
AcDbEntity
8
0
100
AcDbBlockBegin
2
CUT001008009044_PROJ
70
0
10
0
20
0
3
CUT001008009044_PROJ
1

0
LINE
5
D0
100
AcDbEntity
8
0
6
ByLayer
62
0
370
-1
100
AcDbLine
10
20
20
-1.22460635382e-15
11
0
21
0
0
LINE
5
D1
100
AcDbEntity
8
0
6
ByLayer
62
0
370
-1
100
AcDbLine
10
20
20
75
11
20
21
-1.22460635382e-15
0
LINE
5
D2
100
AcDbEntity
8
0
6
ByLayer
62
0
370
-1
100
AcDbLine
10
0
20
0
11
4.59227382683e-15
21
75
0
ARC
5
D3
100
AcDbEntity
8
0
6
ByLayer
62
0
370
-1
100
AcDbCircle
10
38.124322211
20
75.00004704
40
38.1243222113
100
AcDbArc
50
119.999974285
51
180.000070694
0
LINE
5
D4
100
AcDbEntity
8
0
6
ByLayer
62
0
370
-1
100
AcDbLine
10
19.062175924
20
108.016687132
11
49.373078045
21
125.516677103
0
LINE
5
D5
100
AcDbEntity
8
0
6
ByLayer
62
0
370
-1
100
AcDbLine
10
49.373078045
20
125.516677103
11
59.373064873
21
108.196161422
0
LINE
5
D6
100
AcDbEntity
8
0
6
ByLayer
62
0
370
-1
100
AcDbLine
10
59.373064873
20
108.196161422
11
29.06216815
21
90.696174568
0
LINE
5
D7
100
AcDbEntity
8
0
6
ByLayer
62
0
370
-1
100
AcDbLine
10
29.06216815
20
90.696174568
11
32.062179397
21
85.499997279
0
ARC
5
D8
100
AcDbEntity
8
0
6
ByLayer
62
0
370
-1
100
AcDbCircle
10
26
20
82
40
7
100
AcDbArc
50
270
51
29.9999742855
0
LINE
5
D9
100
AcDbEntity
8
0
6
ByLayer
62
0
370
-1
100
AcDbLine
10
20
20
75
11
26
21
75
0
CIRCLE
5
DA
100
AcDbEntity
8
0
6
ByLayer
62
0
370
-1
100
AcDbCircle
10
10
20
57
40
4
0
CIRCLE
5
DB
100
AcDbEntity
8
0
6
ByLayer
62
0
370
-1
100
AcDbCircle
10
26
20
82
40
4
0
ENDBLK
5
78
330
76
100
AcDbEntity
8
0
100
AcDbBlockEnd
0
BLOCK
5
7A
330
79
100
AcDbEntity
8
0
100
AcDbBlockBegin
2
CUT001008009044_PROJ001
70
0
10
0
20
0
3
CUT001008009044_PROJ001
1

0
LINE
5
DC
100
AcDbEntity
8
0
6
ByLayer
62
0
370
-1
100
AcDbLine
10
0
20
-0
11
18
21
-3.30643715532e-15
0
LINE
5
DD
100
AcDbEntity
8
0
6
ByLayer
62
0
370
-1
100
AcDbLine
10
0
20
-0
11
1.37768214805e-14
21
75
0
LINE
5
DE
100
AcDbEntity
8
0
6
ByLayer
62
0
370
-1
100
AcDbLine
10
18
20
-3.30643715532e-15
11
18
21
75
0
CIRCLE
5
DF
100
AcDbEntity
8
0
6
ByLayer
62
0
370
-1
100
AcDbCircle
10
9
20
67
40
4
0
LWPOLYLINE
5
E0
100
AcDbEntity
8
0
6
ByLayer
62
0
370
-1
100
AcDbPolyline
90
2
70
0
43
0
10
1.98416882071e-14
20
108.016687132
10
1.37768214805e-14
20
75
0
LINE
5
E1
100
AcDbEntity
8
0
6
ByLayer
62
0
370
-1
100
AcDbLine
10
1.98416882071e-14
20
108.016687132
11
2.30562780437e-14
21
125.516677103
0
LWPOLYLINE
5
E2
100
AcDbEntity
8
0
6
ByLayer
62
0
370
-1
100
AcDbPolyline
90
2
70
0
43
0
10
18
20
108.016687132
10
18
20
75
0
LINE
5
E3
100
AcDbEntity
8
0
6
ByLayer
62
0
370
-1
100
AcDbLine
10
18
20
108.016687132
11
18
21
125.516677103
0
LWPOLYLINE
5
E4
100
AcDbEntity
8
0
6
ByLayer
62
0
370
-1
100
AcDbPolyline
90
2
70
0
43
0
10
18
20
86
10
18
20
78
0
LINE
5
E5
100
AcDbEntity
8
0
6
ByLayer
62
0
370
-1
100
AcDbLine
10
2.30562780437e-14
20
125.516677103
11
18
21
125.516677103
0
LINE
5
E6
100
AcDbEntity
8
0
6
ByLayer
62
0
370
-1
100
AcDbLine
10
1.37768214805e-14
20
75
11
18
21
75
0
LINE
5
E7
100
AcDbEntity
8
0
6
ByLayer
62
0
370
-1
100
AcDbLine
10
1.98416882071e-14
20
108.016687132
11
18
21
108.016687132
0
ELLIPSE
5
E8
100
AcDbEntity
8
0
6
ByLayer
62
256
370
-1
100
AcDbEllipse
10
9
20
113.02612881
30
0
11
4
21
0
31
0
40
0.49999962425
41
0
42
6.28318530718
0
ENDBLK
5
7B
330
79
100
AcDbEntity
8
0
100
AcDbBlockEnd
0
BLOCK
5
7D
330
7C
100
AcDbEntity
8
0
100
AcDbBlockBegin
2
CUT001008009044_PROJ002
70
0
10
0
20
0
3
CUT001008009044_PROJ002
1

0
LINE
5
E9
100
AcDbEntity
8
0
6
ByLayer
62
0
370
-1
100
AcDbLine
10
0
20
0
11
18
21
0
0
LWPOLYLINE
5
EA
100
AcDbEntity
8
0
6
ByLayer
62
0
370
-1
100
AcDbPolyline
90
2
70
0
43
0
10
0
20
19.062175924
10
0
20
0
0
LINE
5
EB
100
AcDbEntity
8
0
6
ByLayer
62
0
370
-1
100
AcDbLine
10
0
20
19.062175924
11
0
21
49.373078045
0
LINE
5
EC
100
AcDbEntity
8
0
6
ByLayer
62
0
370
-1
100
AcDbLine
10
0
20
49.373078045
11
0
21
59.373064873
0
LWPOLYLINE
5
ED
100
AcDbEntity
8
0
6
ByLayer
62
0
370
-1
100
AcDbPolyline
90
2
70
0
43
0
10
18
20
19.062175924
10
18
20
0
0
LINE
5
EE
100
AcDbEntity
8
0
6
ByLayer
62
0
370
-1
100
AcDbLine
10
18
20
19.062175924
11
18
21
49.373078045
0
LINE
5
EF
100
AcDbEntity
8
0
6
ByLayer
62
0
370
-1
100
AcDbLine
10
18
20
49.373078045
11
18
21
59.373064873
0
LWPOLYLINE
5
F0
100
AcDbEntity
8
0
6
ByLayer
62
0
370
-1
100
AcDbPolyline
90
2
70
0
43
0
10
18
20
14
10
18
20
6
0
LINE
5
F1
100
AcDbEntity
8
0
6
ByLayer
62
0
370
-1
100
AcDbLine
10
0
20
49.373078045
11
18
21
49.373078045
0
LINE
5
F2
100
AcDbEntity
8
0
6
ByLayer
62
0
370
-1
100
AcDbLine
10
0
20
59.373064873
11
18
21
59.373064873
0
LINE
5
F3
100
AcDbEntity
8
0
6
ByLayer
62
0
370
-1
100
AcDbLine
10
0
20
19.062175924
11
18
21
19.062175924
0
ELLIPSE
5
F4
100
AcDbEntity
8
0
6
ByLayer
62
256
370
-1
100
AcDbEllipse
10
9
20
27.7387921185
30
0
11
4
21
-5.00001817727e-10
31
0
40
0.866025620625
41
0
42
6.28318530718
0
ENDBLK
5
7E
330
7C
100
AcDbEntity
8
0
100
AcDbBlockEnd
0
ENDSEC
0
SECTION
2
ENTITIES
0
INSERT
5
F5
100
AcDbEntity
8
0
6
ByLayer
62
256
370
-1
100
AcDbBlockReference
2
CUT001008009044_PROJ001
10
0
20
0
30
0
41
1
42
1
43
0
50
0
70
1
71
1
44
0
45
0
0
INSERT
5
F6
100
AcDbEntity
8
0
6
ByLayer
62
256
370
-1
100
AcDbBlockReference
2
CUT001008009044_PROJ002
10
0
20
-100
30
0
41
1
42
1
43
0
50
0
70
1
71
1
44
0
45
0
0
DIMENSION
5
F7
100
AcDbEntity
8
dim
6
ByLayer
62
256
370
-1
100
AcDbDimension
2
*D1
10
18
20
-16
30
0
11
9
21
-14.125
31
0
70
32
71
5
3
Standard
53
0
210
0
220
0
230
1
100
AcDbAlignedDimension
13
0
23
0
33
0
14
18
24
-3.30643715532e-15
34
0
100
AcDbRotatedDimension
0
DIMENSION
5
F8
100
AcDbEntity
8
dim
6
ByLayer
62
256
370
-1
100
AcDbDimension
2
*D2
10
30
20
-4.77596477991e-15
30
0
11
28.125
21
33.5
31
0
70
32
71
5
3
Standard
53
0
210
0
220
0
230
1
100
AcDbAlignedDimension
13
9
23
67
33
0
14
18
24
-3.30643715532e-15
34
0
50
90
100
AcDbRotatedDimension
0
LINE
5
F9
100
AcDbEntity
8
base
6
ByLayer
62
256
370
-1
100
AcDbLine
10
9
20
125.516677103
11
9
21
-3.30643715532e-15
0
LINE
5
FA
100
AcDbEntity
8
base
6
ByLayer
62
256
370
-1
100
AcDbLine
10
9
20
-40.626935127
11
9
21
-100
0
INSERT
5
FB
100
AcDbEntity
8
0
6
ByLayer
62
256
370
-1
100
AcDbBlockReference
2
CUT001008009044_PROJ
10
-100
20
0
30
0
41
1
42
1
43
0
50
0
70
1
71
1
44
0
45
0
0
DIMENSION
5
FC
100
AcDbEntity
8
dim
6
ByLayer
62
256
370
-1
100
AcDbDimension
2
*D3
10
-80
20
-13
30
0
11
-90
21
-11.125
31
0
70
32
71
5
3
Standard
53
0
210
0
220
0
230
1
100
AcDbAlignedDimension
13
-100
23
0
33
0
14
-80
24
-1.22460635382e-15
34
0
100
AcDbRotatedDimension
0
DIMENSION
5
FD
100
AcDbEntity
8
dim
6
ByLayer
62
256
370
-1
100
AcDbDimension
2
*D4
10
-27.5455192358
20
115.748707144
30
0
11
-30.921714305
21
125.346463749
31
0
70
33
71
5
3
Standard
53
0
210
0
220
0
230
1
100
AcDbAlignedDimension
13
-50.626921955
23
125.516677103
33
0
14
-40.626935127
24
108.196161422
34
0
0
DIMENSION
5
FE
100
AcDbEntity
8
dim
6
ByLayer
62
256
370
-1
100
AcDbDimension
2
*D5
10
-110
20
1.22460635382e-15
30
0
11
-111.875
21
28.5
31
0
70
32
71
5
3
Standard
53
0
210
0
220
0
230
1
100
AcDbAlignedDimension
13
-90
23
57
33
0
14
-100
24
0
34
0
50
90
100
AcDbRotatedDimension
0
DIMENSION
5
FF
100
AcDbEntity
8
dim
6
ByLayer
62
256
370
-1
100
AcDbDimension
2
*D6
10
-110
20
57
30
0
11
-111.875
21
69.5
31
0
70
32
71
5
3
Standard
53
0
210
0
220
0
230
1
100
AcDbAlignedDimension
13
-74
23
82
33
0
14
-90
24
57
34
0
50
90
100
AcDbRotatedDimension
0
DIMENSION
5
100
100
AcDbEntity
8
dim
6
ByLayer
62
256
370
-1
100
AcDbDimension
2
*D7
10
-74
20
120
30
0
11
-82
21
121.875
31
0
70
32
71
5
3
Standard
53
0
210
0
220
0
230
1
100
AcDbAlignedDimension
13
-90
23
57
33
0
14
-74
24
82
34
0
100
AcDbRotatedDimension
0
DIMENSION
5
101
100
AcDbEntity
8
dim
6
ByLayer
62
256
370
-1
100
AcDbDimension
2
*D8
10
-24.3628386979
20
80.0258918516
30
0
11
-40.455786355
21
72.8996964633
31
0
70
33
71
5
72
0
3
Standard
53
0
210
0
220
0
230
1
100
AcDbAlignedDimension
13
-70.93783185
23
90.696174568
33
0
14
-40.626935127
24
108.196161422
34
0
0
LINE
5
102
100
AcDbEntity
8
base
6
ByLayer
62
256
370
-1
100
AcDbLine
10
-72.277566556
20
113.016693568
11
-62.277579728
21
95.6961778872
0
LINE
5
103
100
AcDbEntity
8
base2
6
ByLayer
62
256
370
-1
100
AcDbLine
10
-68.81346342
20
115.016690934
11
-58.813476592
21
97.6961752528
0
LINE
5
104
100
AcDbEntity
8
base2
6
ByLayer
62
256
370
-1
100
AcDbLine
10
-75.741669692
20
111.016696203
11
-65.741682864
21
93.6961805217
0
DIMENSION
5
105
100
AcDbEntity
8
dim
6
ByLayer
62
256
370
-1
100
AcDbDimension
2
*D9
10
-29.3439231633
20
88.653391864
30
0
11
-41.106742717
21
84.027194598
31
0
70
33
71
5
72
0
3
Standard
53
0
210
0
220
0
230
1
100
AcDbAlignedDimension
13
-62.277575643
23
95.6961708122
33
0
14
-40.626935127
24
108.196161422
34
0
0
DIMENSION
5
106
100
AcDbEntity
8
dim
6
ByLayer
62
256
370
-1
100
AcDbDimension
2
*D10
10
-53.7445569455
20
88.9165400919
30
0
11
-58.146158724
21
88.5403396333
31
0
70
33
71
5
72
0
3
Standard
53
0
210
0
220
0
230
1
100
AcDbAlignedDimension
13
-65.741678126
23
93.6961723147
33
0
14
-58.81347316
24
97.6961693098
34
0
0
LINE
5
107
100
AcDbEntity
8
base
6
ByLayer
62
256
370
-1
100
AcDbLine
10
-80
20
67
11
-100
21
67
0
LINE
5
108
100
AcDbEntity
8
base2
6
ByLayer
62
256
370
-1
100
AcDbLine
10
-80
20
63
11
-100
21
63
0
LINE
5
109
100
AcDbEntity
8
base2
6
ByLayer
62
256
370
-1
100
AcDbLine
10
-80
20
71
11
-100
21
71
0
DIMENSION
5
10A
100
AcDbEntity
8
dim
6
ByLayer
62
256
370
-1
100
AcDbDimension
2
*D11
10
-80
20
-1.22460635382e-15
30
0
11
0
21
0
31
0
70
34
71
5
72
0
3
Standard
53
0
210
0
220
0
230
1
100
AcDb2LineAngularDimension
13
-70.93783185
23
90.696174568
33
0
14
-40.626935127
24
108.196161422
34
0
15
-80
25
75
35
0
16
-63.125
26
60.9375
36
0
0
DIMENSION
5
10B
100
AcDbEntity
8
dim
6
ByLayer
62
256
370
-1
100
AcDbDimension
2
*D12
10
-86.0776772972
20
57.7844645406
30
0
11
-90.3677177534
21
58.8385887669
31
0
70
35
1
   %%C8
71
5
3
Standard
53
0
210
0
220
0
230
1
100
AcDbDiametricDimension
15
-93.9223227028
25
56.2155354594
35
0
40
0
0
DIMENSION
5
10C
100
AcDbEntity
8
dim
6
ByLayer
62
256
370
-1
100
AcDbDimension
2
*D13
10
-74
20
82
30
0
11
-65.2330303046
21
74.408479994
31
0
70
36
71
5
3
Standard
53
0
210
0
220
0
230
1
100
AcDbRadialDimension
15
-69.5187092023
25
76.6224510428
35
0
40
0
0
DIMENSION
5
10D
100
AcDbEntity
8
dim
6
ByLayer
62
256
370
-1
100
AcDbDimension
2
*D14
10
-74
20
78
30
0
11
-75.875
21
82
31
0
70
35
1
   %%C8
71
5
3
Standard
53
0
210
0
220
0
230
1
100
AcDbDiametricDimension
15
-74
25
86
35
0
40
0
0
DIMENSION
5
10E
100
AcDbEntity
8
dim
6
ByLayer
62
256
370
-1
100
AcDbDimension
2
*D15
10
5.2052668078
20
65.7350889359
30
0
11
8.40707293872
21
68.7787811838
31
0
70
35
1
   %%C8
71
5
3
Standard
53
0
210
0
220
0
230
1
100
AcDbDiametricDimension
15
12.7947331922
25
68.2649110641
35
0
40
0
0
ENDSEC
0
SECTION
2
OBJECTS
0
DICTIONARY
5
C
330
0
100
AcDbDictionary
281
1
3
ACAD_GROUP
350
D
0
DICTIONARY
5
D
330
C
100
AcDbDictionary
281
1
0
ENDSEC
0
EOF
