<?xml version="1.0" encoding="UTF-8" standalone="no"?>
<!-- Created with sK1/UniConvertor (http://sk1project.org/) -->

<svg
   xmlns:dc="http://purl.org/dc/elements/1.1/"
   xmlns:cc="http://creativecommons.org/ns#"
   xmlns:rdf="http://www.w3.org/1999/02/22-rdf-syntax-ns#"
   xmlns:svg="http://www.w3.org/2000/svg"
   xmlns="http://www.w3.org/2000/svg"
   xmlns:sodipodi="http://sodipodi.sourceforge.net/DTD/sodipodi-0.dtd"
   xmlns:inkscape="http://www.inkscape.org/namespaces/inkscape"
   width="595.276pt"
   height="841.89pt"
   viewBox="0 0 595.276 841.89"
   fill-rule="evenodd"
   id="svg4329"
   version="1.1"
   inkscape:version="0.48.3.1 r9886"
   sodipodi:docname="part04.svg">
  <metadata
     id="metadata4375">
    <rdf:RDF>
      <cc:Work
         rdf:about="">
        <dc:format>image/svg+xml</dc:format>
        <dc:type
           rdf:resource="http://purl.org/dc/dcmitype/StillImage" />
        <dc:title />
      </cc:Work>
    </rdf:RDF>
  </metadata>
  <sodipodi:namedview
     pagecolor="#ffffff"
     bordercolor="#666666"
     borderopacity="1"
     objecttolerance="10"
     gridtolerance="10"
     guidetolerance="10"
     inkscape:pageopacity="0"
     inkscape:pageshadow="2"
     inkscape:window-width="653"
     inkscape:window-height="480"
     id="namedview4373"
     showgrid="false"
     inkscape:zoom="0.22425732"
     inkscape:cx="372.0475"
     inkscape:cy="526.18128"
     inkscape:window-x="379"
     inkscape:window-y="384"
     inkscape:window-maximized="0"
     inkscape:current-layer="svg4329" />
  <defs
     id="defs4331">
    <marker
       id="ArrowEnd"
       viewBox="0 0 10 10"
       refX="0"
       refY="5"
       markerUnits="strokeWidth"
       markerWidth="4"
       markerHeight="3"
       orient="auto">
      <path
         d="M 0 0 L 10 5 L 0 10 z"
         id="path4334" />
    </marker>
    <marker
       id="ArrowStart"
       viewBox="0 0 10 10"
       refX="10"
       refY="5"
       markerUnits="strokeWidth"
       markerWidth="4"
       markerHeight="3"
       orient="auto">
      <path
         d="M 10 0 L 0 5 L 10 10 z"
         id="path4337" />
    </marker>
  </defs>
  <path
     style="fill:#00ccff;stroke:#000000;stroke-width:1"
     d="m 108.2299,732.24304 c 17.22,0 31.185,13.964 31.185,31.185 0,17.22 -13.965,31.185 -31.185,31.185 -17.219999,0 -31.184999,-13.965 -31.184999,-31.185 0,-17.221 13.965,-31.185 31.184999,-31.185 z M 0.5,685.46534 l 215.4599,0 0,155.9247 -97.042,0 c -0.003,-5.899 -4.788,-10.682 -10.688,-10.682 -5.9,0 -10.684999,4.783 -10.687999,10.682 l -97.041901,0 0,-155.9247 z m 63.7875,30.4762 c 1.9567,0 3.5437,1.587 3.5437,3.5438 0,1.9567 -1.587,3.5437 -3.5437,3.5437 -1.9568,0 -3.5438,-1.587 -3.5438,-3.5437 0,-1.9568 1.587,-3.5438 3.5438,-3.5438 z m 87.8854,0 c 1.956,0 3.543,1.587 3.543,3.5438 0,1.9567 -1.587,3.5437 -3.543,3.5437 -1.957,0 -3.544,-1.587 -3.544,-3.5437 0,-1.9568 1.587,-3.5438 3.544,-3.5438 z m -87.8854,87.8855 c 1.9567,0 3.5437,1.587 3.5437,3.543 0,1.957 -1.587,3.544 -3.5437,3.544 -1.9568,0 -3.5438,-1.587 -3.5438,-3.544 0,-1.956 1.587,-3.543 3.5438,-3.543 z m 87.8854,0 c 1.956,0 3.543,1.587 3.543,3.543 0,1.957 -1.587,3.544 -3.543,3.544 -1.957,0 -3.544,-1.587 -3.544,-3.544 0,-1.956 1.587,-3.543 3.544,-3.543 z"
     id="path4369"
     inkscape:connector-curvature="0" />
</svg>
