999
dxfrw 0.5.11
0
SECTION
2
HEADER
9
$ACADVER
1
AC1021
9
$HANDSEED
5
20000
9
$DWGCODEPAGE
3
ANSI_1252
9
$INSBASE
10
0
20
0
30
0
9
$EXTMIN
10
-53.125
20
-122
30
0
9
$EXTMAX
10
109
20
43.125
30
0
9
$LIMMIN
10
0
20
0
9
$LIMMAX
10
420
20
297
9
$ORTHOMODE
70
0
9
$LTSCALE
40
1
9
$TEXTSTYLE
7
STANDARD
9
$CLAYER
8
dim
9
$DIMASZ
40
2.5
9
$DIMLFAC
40
1
9
$DIMSCALE
40
1
9
$DIMEXO
40
0.625
9
$DIMEXE
40
1.25
9
$DIMTXT
40
2.5
9
$DIMTSZ
40
0
9
$DIMAUNIT
70
0
9
$DIMADEC
70
2
9
$DIMLUNIT
70
2
9
$DIMSTYLE
2
Standard
9
$DIMGAP
40
0.625
9
$DIMTIH
70
0
9
$LUNITS
70
2
9
$LUPREC
70
0
9
$AUNITS
70
0
9
$AUPREC
70
2
9
$SPLINESEGS
70
8
9
$GRIDMODE
70
1
9
$SNAPSTYLE
70
0
9
$GRIDUNIT
10
0
20
0
9
$PINSBASE
10
0
20
0
30
0
9
$PLIMMIN
10
0
20
0
9
$PLIMMAX
10
210
20
297
9
$INSUNITS
70
0
9
$PSVPSCALE
40
1
0
ENDSEC
0
SECTION
2
CLASSES
0
ENDSEC
0
SECTION
2
TABLES
0
TABLE
2
VPORT
5
8
330
0
100
AcDbSymbolTable
70
1
0
VPORT
5
31
330
2
100
AcDbSymbolTableRecord
100
AcDbViewportTableRecord
2
*ACTIVE
70
0
10
0
20
0
11
1
21
1
12
89.7247311611
22
46.4924357359
13
0
23
0
14
10
24
10
15
10
25
10
16
0
26
0
36
1
17
0
27
0
37
0
40
266.197543634
41
1.66666666667
42
50
43
0
44
0
50
0
51
0
71
0
72
100
73
1
74
3
75
0
76
1
77
0
78
0
281
0
65
1
110
0
120
0
130
0
111
1
121
0
131
0
112
0
122
1
132
0
79
0
146
0
348
10020
60
7
61
5
292
1
282
1
141
0
142
0
63
250
421
3358443
0
ENDTAB
0
TABLE
2
LTYPE
5
5
330
0
100
AcDbSymbolTable
70
4
0
LTYPE
5
14
330
5
100
AcDbSymbolTableRecord
100
AcDbLinetypeTableRecord
2
ByBlock
70
0
3

72
65
73
0
40
0
0
LTYPE
5
15
330
5
100
AcDbSymbolTableRecord
100
AcDbLinetypeTableRecord
2
ByLayer
70
0
3

72
65
73
0
40
0
0
LTYPE
5
16
330
5
100
AcDbSymbolTableRecord
100
AcDbLinetypeTableRecord
2
Continuous
70
0
3
Solid line
72
65
73
0
40
0
0
LTYPE
5
32
330
5
100
AcDbSymbolTableRecord
100
AcDbLinetypeTableRecord
2
DOT
70
0
3
Dot . . . . . . . . . . . . . . . . . . . . . .
72
65
73
2
40
6.35
49
0
74
0
49
-6.35
74
0
0
LTYPE
5
33
330
5
100
AcDbSymbolTableRecord
100
AcDbLinetypeTableRecord
2
DOT2
70
0
3
Dot (.5x) .....................................
72
65
73
2
40
3.175
49
0
74
0
49
-3.175
74
0
0
LTYPE
5
34
330
5
100
AcDbSymbolTableRecord
100
AcDbLinetypeTableRecord
2
DOTX2
70
0
3
Dot (2x) .  .  .  .  .  .  .  .  .  .  .  .  .
72
65
73
2
40
12.7
49
0
74
0
49
-12.7
74
0
0
LTYPE
5
35
330
5
100
AcDbSymbolTableRecord
100
AcDbLinetypeTableRecord
2
DASHED
70
0
3
Dot . . . . . . . . . . . . . . . . . . . . . .
72
65
73
2
40
19.05
49
12.7
74
0
49
-6.35
74
0
0
LTYPE
5
36
330
5
100
AcDbSymbolTableRecord
100
AcDbLinetypeTableRecord
2
DASHED2
70
0
3
Dashed (.5x) _ _ _ _ _ _ _ _ _ _ _ _ _ _ _ _ _
72
65
73
2
40
9.525
49
6.35
74
0
49
-3.175
74
0
0
LTYPE
5
37
330
5
100
AcDbSymbolTableRecord
100
AcDbLinetypeTableRecord
2
DASHEDX2
70
0
3
Dashed (2x) ____  ____  ____  ____  ____  ___
72
65
73
2
40
38.1
49
25.4
74
0
49
-12.7
74
0
0
LTYPE
5
38
330
5
100
AcDbSymbolTableRecord
100
AcDbLinetypeTableRecord
2
DASHDOT
70
0
3
Dash dot __ . __ . __ . __ . __ . __ . __ . __
72
65
73
4
40
25.4
49
12.7
74
0
49
-6.35
74
0
49
0
74
0
49
-6.35
74
0
0
LTYPE
5
39
330
5
100
AcDbSymbolTableRecord
100
AcDbLinetypeTableRecord
2
DASHDOT2
70
0
3
Dash dot (.5x) _._._._._._._._._._._._._._._.
72
65
73
4
40
12.7
49
6.35
74
0
49
-3.175
74
0
49
0
74
0
49
-3.175
74
0
0
LTYPE
5
3A
330
5
100
AcDbSymbolTableRecord
100
AcDbLinetypeTableRecord
2
DASHDOTX2
70
0
3
Dash dot (2x) ____  .  ____  .  ____  .  ___
72
65
73
4
40
50.8
49
25.4
74
0
49
-12.7
74
0
49
0
74
0
49
-12.7
74
0
0
LTYPE
5
3B
330
5
100
AcDbSymbolTableRecord
100
AcDbLinetypeTableRecord
2
DIVIDE
70
0
3
Divide ____ . . ____ . . ____ . . ____ . . ____
72
65
73
6
40
31.75
49
12.7
74
0
49
-6.35
74
0
49
0
74
0
49
-6.35
74
0
49
0
74
0
49
-6.35
74
0
0
LTYPE
5
3C
330
5
100
AcDbSymbolTableRecord
100
AcDbLinetypeTableRecord
2
DIVIDE2
70
0
3
Divide (.5x) __..__..__..__..__..__..__..__.._
72
65
73
6
40
15.875
49
6.35
74
0
49
-3.175
74
0
49
0
74
0
49
-3.175
74
0
49
0
74
0
49
-3.175
74
0
0
LTYPE
5
3D
330
5
100
AcDbSymbolTableRecord
100
AcDbLinetypeTableRecord
2
DIVIDEX2
70
0
3
Divide (2x) ________  .  .  ________  .  .  _
72
65
73
6
40
63.5
49
25.4
74
0
49
-12.7
74
0
49
0
74
0
49
-12.7
74
0
49
0
74
0
49
-12.7
74
0
0
LTYPE
5
3E
330
5
100
AcDbSymbolTableRecord
100
AcDbLinetypeTableRecord
2
BORDER
70
0
3
Border __ __ . __ __ . __ __ . __ __ . __ __ .
72
65
73
6
40
44.45
49
12.7
74
0
49
-6.35
74
0
49
12.7
74
0
49
-6.35
74
0
49
0
74
0
49
-6.35
74
0
0
LTYPE
5
3F
330
5
100
AcDbSymbolTableRecord
100
AcDbLinetypeTableRecord
2
BORDER2
70
0
3
Border (.5x) __.__.__.__.__.__.__.__.__.__.__.
72
65
73
6
40
22.225
49
6.35
74
0
49
-3.175
74
0
49
6.35
74
0
49
-3.175
74
0
49
0
74
0
49
-3.175
74
0
0
LTYPE
5
40
330
5
100
AcDbSymbolTableRecord
100
AcDbLinetypeTableRecord
2
BORDERX2
70
0
3
Border (2x) ____  ____  .  ____  ____  .  ___
72
65
73
6
40
88.9
49
25.4
74
0
49
-12.7
74
0
49
25.4
74
0
49
-12.7
74
0
49
0
74
0
49
-12.7
74
0
0
LTYPE
5
41
330
5
100
AcDbSymbolTableRecord
100
AcDbLinetypeTableRecord
2
CENTER
70
0
3
Center ____ _ ____ _ ____ _ ____ _ ____ _ ____
72
65
73
4
40
50.8
49
31.75
74
0
49
-6.35
74
0
49
6.35
74
0
49
-6.35
74
0
0
LTYPE
5
42
330
5
100
AcDbSymbolTableRecord
100
AcDbLinetypeTableRecord
2
CENTER2
70
0
3
Center (.5x) ___ _ ___ _ ___ _ ___ _ ___ _ ___
72
65
73
4
40
28.575
49
19.05
74
0
49
-3.175
74
0
49
3.175
74
0
49
-3.175
74
0
0
LTYPE
5
43
330
5
100
AcDbSymbolTableRecord
100
AcDbLinetypeTableRecord
2
CENTERX2
70
0
3
Center (2x) ________  __  ________  __  _____
72
65
73
4
40
101.6
49
63.5
74
0
49
-12.7
74
0
49
12.7
74
0
49
-12.7
74
0
0
ENDTAB
0
TABLE
2
LAYER
5
2
330
0
100
AcDbSymbolTable
70
1
0
LAYER
5
10
330
2
100
AcDbSymbolTableRecord
100
AcDbLayerTableRecord
2
0
70
0
62
7
6
CONTINUOUS
370
50
390
F
0
LAYER
5
44
330
2
100
AcDbSymbolTableRecord
100
AcDbLayerTableRecord
2
base
70
0
62
7
6
CENTER
370
0
390
F
0
LAYER
5
45
330
2
100
AcDbSymbolTableRecord
100
AcDbLayerTableRecord
2
base2
70
0
62
7
6
DASHED
370
0
390
F
0
LAYER
5
46
330
2
100
AcDbSymbolTableRecord
100
AcDbLayerTableRecord
2
dim
70
0
62
7
6
CONTINUOUS
370
-3
390
F
0
ENDTAB
0
TABLE
2
STYLE
5
3
330
0
100
AcDbSymbolTable
70
3
0
STYLE
5
47
330
2
100
AcDbSymbolTableRecord
100
AcDbTextStyleTableRecord
2
cyrillic_ii
70
0
40
0
41
1
50
0
71
0
42
1
3
cyrillic_ii
4

0
STYLE
5
48
330
2
100
AcDbSymbolTableRecord
100
AcDbTextStyleTableRecord
2
Standard
70
0
40
0
41
1
50
0
71
0
42
1
3
txt
4

0
ENDTAB
0
TABLE
2
VIEW
5
6
330
0
100
AcDbSymbolTable
70
0
0
ENDTAB
0
TABLE
2
UCS
5
7
330
0
100
AcDbSymbolTable
70
0
0
ENDTAB
0
TABLE
2
APPID
5
9
330
0
100
AcDbSymbolTable
70
1
0
APPID
5
12
330
9
100
AcDbSymbolTableRecord
100
AcDbRegAppTableRecord
2
ACAD
70
0
0
ENDTAB
0
TABLE
2
DIMSTYLE
5
A
330
0
100
AcDbSymbolTable
70
1
100
AcDbDimStyleTable
71
1
0
DIMSTYLE
105
49
330
A
100
AcDbSymbolTableRecord
100
AcDbDimStyleTableRecord
2
Standard
70
0
40
1
41
2.5
42
0.625
43
0.38
44
1.25
45
0
46
0
47
0
48
0
140
2.5
141
0.09
142
0
143
25.4
144
1
145
0
146
1
147
0.625
148
0
71
0
72
0
73
0
74
1
75
0
76
0
77
0
78
0
79
0
170
0
171
2
172
0
173
0
174
0
175
0
176
0
177
0
178
0
179
0
271
4
272
4
273
2
274
2
275
0
276
0
277
2
278
46
279
0
280
0
281
0
282
0
283
1
284
0
285
0
286
0
288
0
289
3
340
Standard
341

371
-2
372
-2
0
ENDTAB
0
TABLE
2
BLOCK_RECORD
5
1
330
0
100
AcDbSymbolTable
70
2
0
BLOCK_RECORD
5
1F
330
1
100
AcDbSymbolTableRecord
100
AcDbBlockTableRecord
2
*Model_Space
70
0
280
1
281
0
0
BLOCK_RECORD
5
1E
330
1
100
AcDbSymbolTableRecord
100
AcDbBlockTableRecord
2
*Paper_Space
70
0
280
1
281
0
0
BLOCK_RECORD
5
4A
330
1
100
AcDbSymbolTableRecord
100
AcDbBlockTableRecord
2
*D22
70
0
280
1
281
0
0
BLOCK_RECORD
5
4D
330
1
100
AcDbSymbolTableRecord
100
AcDbBlockTableRecord
2
*D18
70
0
280
1
281
0
0
BLOCK_RECORD
5
50
330
1
100
AcDbSymbolTableRecord
100
AcDbBlockTableRecord
2
*D9
70
0
280
1
281
0
0
BLOCK_RECORD
5
53
330
1
100
AcDbSymbolTableRecord
100
AcDbBlockTableRecord
2
*D19
70
0
280
1
281
0
0
BLOCK_RECORD
5
56
330
1
100
AcDbSymbolTableRecord
100
AcDbBlockTableRecord
2
*D14
70
0
280
1
281
0
0
BLOCK_RECORD
5
59
330
1
100
AcDbSymbolTableRecord
100
AcDbBlockTableRecord
2
*D1
70
0
280
1
281
0
0
BLOCK_RECORD
5
5C
330
1
100
AcDbSymbolTableRecord
100
AcDbBlockTableRecord
2
*D17
70
0
280
1
281
0
0
BLOCK_RECORD
5
5F
330
1
100
AcDbSymbolTableRecord
100
AcDbBlockTableRecord
2
*D25
70
0
280
1
281
0
0
BLOCK_RECORD
5
62
330
1
100
AcDbSymbolTableRecord
100
AcDbBlockTableRecord
2
*D21
70
0
280
1
281
0
0
BLOCK_RECORD
5
65
330
1
100
AcDbSymbolTableRecord
100
AcDbBlockTableRecord
2
*D10
70
0
280
1
281
0
0
BLOCK_RECORD
5
68
330
1
100
AcDbSymbolTableRecord
100
AcDbBlockTableRecord
2
*D13
70
0
280
1
281
0
0
BLOCK_RECORD
5
6B
330
1
100
AcDbSymbolTableRecord
100
AcDbBlockTableRecord
2
*D8
70
0
280
1
281
0
0
BLOCK_RECORD
5
6E
330
1
100
AcDbSymbolTableRecord
100
AcDbBlockTableRecord
2
*D15
70
0
280
1
281
0
0
BLOCK_RECORD
5
71
330
1
100
AcDbSymbolTableRecord
100
AcDbBlockTableRecord
2
*D23
70
0
280
1
281
0
0
BLOCK_RECORD
5
74
330
1
100
AcDbSymbolTableRecord
100
AcDbBlockTableRecord
2
*D5
70
0
280
1
281
0
0
BLOCK_RECORD
5
77
330
1
100
AcDbSymbolTableRecord
100
AcDbBlockTableRecord
2
*D16
70
0
280
1
281
0
0
BLOCK_RECORD
5
7A
330
1
100
AcDbSymbolTableRecord
100
AcDbBlockTableRecord
2
*D20
70
0
280
1
281
0
0
BLOCK_RECORD
5
7D
330
1
100
AcDbSymbolTableRecord
100
AcDbBlockTableRecord
2
*D24
70
0
280
1
281
0
0
BLOCK_RECORD
5
80
330
1
100
AcDbSymbolTableRecord
100
AcDbBlockTableRecord
2
*D12
70
0
280
1
281
0
0
BLOCK_RECORD
5
83
330
1
100
AcDbSymbolTableRecord
100
AcDbBlockTableRecord
2
*D2
70
0
280
1
281
0
0
BLOCK_RECORD
5
86
330
1
100
AcDbSymbolTableRecord
100
AcDbBlockTableRecord
2
*D11
70
0
280
1
281
0
0
BLOCK_RECORD
5
89
330
1
100
AcDbSymbolTableRecord
100
AcDbBlockTableRecord
2
*D4
70
0
280
1
281
0
0
BLOCK_RECORD
5
8C
330
1
100
AcDbSymbolTableRecord
100
AcDbBlockTableRecord
2
*D6
70
0
280
1
281
0
0
BLOCK_RECORD
5
8F
330
1
100
AcDbSymbolTableRecord
100
AcDbBlockTableRecord
2
*D7
70
0
280
1
281
0
0
BLOCK_RECORD
5
92
330
1
100
AcDbSymbolTableRecord
100
AcDbBlockTableRecord
2
*D3
70
0
280
1
281
0
0
BLOCK_RECORD
5
95
330
1
100
AcDbSymbolTableRecord
100
AcDbBlockTableRecord
2
CUT001008009041_PROJ
70
0
280
1
281
0
0
BLOCK_RECORD
5
98
330
1
100
AcDbSymbolTableRecord
100
AcDbBlockTableRecord
2
CUT001008009041_PROJ001
70
0
280
1
281
0
0
BLOCK_RECORD
5
9B
330
1
100
AcDbSymbolTableRecord
100
AcDbBlockTableRecord
2
CUT001008009041_PROJ002
70
0
280
1
281
0
0
ENDTAB
0
ENDSEC
0
SECTION
2
BLOCKS
0
BLOCK
5
20
330
1F
100
AcDbEntity
8
0
100
AcDbBlockBegin
2
*Model_Space
70
0
10
0
20
0
30
0
3
*Model_Space
1

0
ENDBLK
5
21
330
1F
100
AcDbEntity
8
0
100
AcDbBlockEnd
0
BLOCK
5
1C
330
1B
100
AcDbEntity
8
0
100
AcDbBlockBegin
2
*Paper_Space
70
0
10
0
20
0
30
0
3
*Paper_Space
1

0
ENDBLK
5
1D
330
1F
100
AcDbEntity
8
0
100
AcDbBlockEnd
0
BLOCK
5
4B
330
4A
100
AcDbEntity
8
0
100
AcDbBlockBegin
2
*D22
70
1
10
0
20
0
3
*D22
1

0
LINE
5
9E
100
AcDbEntity
8
dim
6
CONTINUOUS
62
7
370
0
100
AcDbLine
10
-50
20
-100
11
-50
21
-91
0
SOLID
5
9F
100
AcDbEntity
8
dim
6
CONTINUOUS
62
7
370
0
100
AcDbTrace
10
-50
20
-100
30
0
11
-50.4162846578
21
-97.5
31
0
12
-49.5837153422
22
-97.5
32
0
13
-49.5837153422
23
-97.5
33
0
0
SOLID
5
A0
100
AcDbEntity
8
dim
6
CONTINUOUS
62
7
370
0
100
AcDbTrace
10
-50
20
-91
30
0
11
-49.5837153422
21
-93.5
31
0
12
-50.4162846578
22
-93.5
32
0
13
-50.4162846578
23
-93.5
33
0
0
MTEXT
5
A1
100
AcDbEntity
8
dim
6
CONTINUOUS
62
7
370
0
100
AcDbMText
10
-51.875
20
-95.5
30
0
40
2.5
41
1.11111111111
71
5
72
1
1
9
7
standard
210
0
220
0
230
1
50
90
73
2
44
1
0
LINE
5
A2
100
AcDbEntity
8
dim
6
CONTINUOUS
62
7
370
0
100
AcDbLine
10
-30.625
20
-100
11
-51.25
21
-100
0
LINE
5
A3
100
AcDbEntity
8
dim
6
CONTINUOUS
62
7
370
0
100
AcDbLine
10
-38.625
20
-91
11
-51.25
21
-91
0
ENDBLK
5
4C
330
4A
100
AcDbEntity
8
0
100
AcDbBlockEnd
0
BLOCK
5
4E
330
4D
100
AcDbEntity
8
0
100
AcDbBlockBegin
2
*D18
70
1
10
0
20
0
3
*D18
1

0
LINE
5
A4
100
AcDbEntity
8
dim
6
CONTINUOUS
62
7
370
0
100
AcDbLine
10
-8
20
-80
11
8
21
-80
0
SOLID
5
A5
100
AcDbEntity
8
dim
6
CONTINUOUS
62
7
370
0
100
AcDbTrace
10
-8
20
-80
30
0
11
-5.5
21
-79.5837153422
31
0
12
-5.5
22
-80.4162846578
32
0
13
-5.5
23
-80.4162846578
33
0
0
SOLID
5
A6
100
AcDbEntity
8
dim
6
CONTINUOUS
62
7
370
0
100
AcDbTrace
10
8
20
-80
30
0
11
5.5
21
-80.4162846578
31
0
12
5.5
22
-79.5837153422
32
0
13
5.5
23
-79.5837153422
33
0
0
MTEXT
5
A7
100
AcDbEntity
8
dim
6
CONTINUOUS
62
7
370
0
100
AcDbMText
10
1.00298526537e-15
20
-78.125
30
0
40
2.5
41
2.5
71
5
72
1
1
16
7
standard
210
0
220
0
230
1
50
0
73
2
44
1
0
LINE
5
A8
100
AcDbEntity
8
dim
6
CONTINUOUS
62
7
370
0
100
AcDbLine
10
-8
20
-99.375
11
-8
21
-78.75
0
LINE
5
A9
100
AcDbEntity
8
dim
6
CONTINUOUS
62
7
370
0
100
AcDbLine
10
8
20
-99.375
11
8
21
-78.75
0
ENDBLK
5
4F
330
4D
100
AcDbEntity
8
0
100
AcDbBlockEnd
0
BLOCK
5
51
330
50
100
AcDbEntity
8
0
100
AcDbBlockBegin
2
*D9
70
1
10
0
20
0
3
*D9
1

0
LINE
5
AA
100
AcDbEntity
8
dim
6
CONTINUOUS
62
7
370
0
100
AcDbLine
10
26.2052666268
20
-101.264909567
11
33.7947333732
21
-98.735088525
0
SOLID
5
AB
100
AcDbEntity
8
dim
6
CONTINUOUS
62
7
370
0
100
AcDbTrace
10
26.2052666268
20
-101.264909567
30
0
11
28.4453342742
21
-100.07941817
31
0
12
28.7086156959
22
-100.869262812
32
0
13
28.7086156959
23
-100.869262812
33
0
0
SOLID
5
AC
100
AcDbEntity
8
dim
6
CONTINUOUS
62
7
370
0
100
AcDbTrace
10
33.7947333732
20
-98.735088525
30
0
11
31.5546657258
21
-99.9205799215
31
0
12
31.2913843041
22
-99.1307352797
32
0
13
31.2913843041
23
-99.1307352797
33
0
0
MTEXT
5
AD
100
AcDbEntity
8
dim
6
CONTINUOUS
62
7
370
0
100
AcDbMText
10
29.4070731933
20
-98.2212177773
30
0
40
2.5
41
3.61111111111
71
5
72
1
1
   %%C8
7
standard
210
0
220
0
230
1
50
18.4349406234
73
2
44
1
0
ENDBLK
5
52
330
50
100
AcDbEntity
8
0
100
AcDbBlockEnd
0
BLOCK
5
54
330
53
100
AcDbEntity
8
0
100
AcDbBlockBegin
2
*D19
70
1
10
0
20
0
3
*D19
1

0
LINE
5
AE
100
AcDbEntity
8
dim
6
CONTINUOUS
62
7
370
0
100
AcDbLine
10
8
20
-80
11
30
21
-80
0
SOLID
5
AF
100
AcDbEntity
8
dim
6
CONTINUOUS
62
7
370
0
100
AcDbTrace
10
8
20
-80
30
0
11
10.5
21
-79.5837153422
31
0
12
10.5
22
-80.4162846578
32
0
13
10.5
23
-80.4162846578
33
0
0
SOLID
5
B0
100
AcDbEntity
8
dim
6
CONTINUOUS
62
7
370
0
100
AcDbTrace
10
30
20
-80
30
0
11
27.5
21
-80.4162846578
31
0
12
27.5
22
-79.5837153422
32
0
13
27.5
23
-79.5837153422
33
0
0
MTEXT
5
B1
100
AcDbEntity
8
dim
6
CONTINUOUS
62
7
370
0
100
AcDbMText
10
19
20
-78.125
30
0
40
2.5
41
3.05555555556
71
5
72
1
1
22
7
standard
210
0
220
0
230
1
50
0
73
2
44
1
0
LINE
5
B2
100
AcDbEntity
8
dim
6
CONTINUOUS
62
7
370
0
100
AcDbLine
10
8
20
-99.375
11
8
21
-78.75
0
LINE
5
B3
100
AcDbEntity
8
dim
6
CONTINUOUS
62
7
370
0
100
AcDbLine
10
30
20
-99.375
11
30
21
-78.75
0
ENDBLK
5
55
330
53
100
AcDbEntity
8
0
100
AcDbBlockEnd
0
BLOCK
5
57
330
56
100
AcDbEntity
8
0
100
AcDbBlockBegin
2
*D14
70
1
10
0
20
0
3
*D14
1

0
LINE
5
B4
100
AcDbEntity
8
dim
6
CONTINUOUS
62
7
370
0
100
AcDbLine
10
9.81732357022
20
12.4562877876
11
21.1826764298
21
18.767290432
0
SOLID
5
B5
100
AcDbEntity
8
dim
6
CONTINUOUS
62
7
370
0
100
AcDbTrace
10
14.1886131316
20
14.883596497
30
0
11
12.205058626
21
13.3060019865
31
0
12
11.8008780758
22
14.0338822981
32
0
13
11.8008780758
23
14.0338822981
33
0
0
SOLID
5
B6
100
AcDbEntity
8
dim
6
CONTINUOUS
62
7
370
0
100
AcDbTrace
10
16.8113868684
20
16.3399817226
30
0
11
18.794941374
21
17.9175762331
31
0
12
19.1991219242
22
17.1896959215
32
0
13
19.1991219242
23
17.1896959215
33
0
0
MTEXT
5
B7
100
AcDbEntity
8
dim
6
CONTINUOUS
62
7
370
0
100
AcDbMText
10
18.0260785281
20
19.1591570418
30
0
40
2.5
41
3.61111111111
71
5
72
1
1
 %%C3
7
standard
210
0
220
0
230
1
50
29.0427289077
73
2
44
1
0
ENDBLK
5
58
330
56
100
AcDbEntity
8
0
100
AcDbBlockEnd
0
BLOCK
5
5A
330
59
100
AcDbEntity
8
0
100
AcDbBlockBegin
2
*D1
70
1
10
0
20
0
3
*D1
1

0
LINE
5
B8
100
AcDbEntity
8
dim
6
CONTINUOUS
62
7
370
0
100
AcDbLine
10
10.5680470387
20
-2.94048574476
11
-10.5680470387
21
3.16406396433
0
SOLID
5
B9
100
AcDbEntity
8
dim
6
CONTINUOUS
62
7
370
0
100
AcDbTrace
10
10.5680470387
20
-2.94048574476
30
0
11
8.05070769415
21
-2.64672471826
31
0
12
8.28172863838
22
-1.84684911011
32
0
13
8.28172863838
23
-1.84684911011
33
0
0
SOLID
5
BA
100
AcDbEntity
8
dim
6
CONTINUOUS
62
7
370
0
100
AcDbTrace
10
-10.5680470387
20
3.16406396433
30
0
11
-8.05070769415
21
2.87030293783
31
0
12
-8.28172863838
22
2.07042732968
32
0
13
-8.28172863838
23
2.07042732968
33
0
0
MTEXT
5
BB
100
AcDbEntity
8
dim
6
CONTINUOUS
62
7
370
0
100
AcDbMText
10
0.520274122934
20
1.91316076411
30
0
40
2.5
41
3.05555555556
71
5
72
1
1
22
7
standard
210
0
220
0
230
1
50
343.89016725
73
2
44
1
0
ENDBLK
5
5B
330
59
100
AcDbEntity
8
0
100
AcDbBlockEnd
0
BLOCK
5
5D
330
5C
100
AcDbEntity
8
0
100
AcDbBlockBegin
2
*D17
70
1
10
0
20
0
3
*D17
1

0
LINE
5
BC
100
AcDbEntity
8
dim
6
CONTINUOUS
62
7
370
0
100
AcDbLine
10
-10.5
20
-100
11
-38
21
-121
0
LINE
5
BD
100
AcDbEntity
8
dim
6
CONTINUOUS
62
7
370
0
100
AcDbLine
10
-38
20
-121
11
-38
21
-122
0
LINE
5
BE
100
AcDbEntity
8
dim
6
CONTINUOUS
62
7
370
0
100
AcDbLine
10
-38
20
-122
11
34
21
-122
0
SOLID
5
BF
100
AcDbEntity
8
dim
6
CONTINUOUS
62
7
370
0
100
AcDbTrace
10
-10.5
20
-100
30
0
11
-12.2342707131
21
-101.848133656
31
0
12
-12.7395683565
22
-101.186434361
32
0
13
-12.7395683565
23
-101.186434361
33
0
0
ENDBLK
5
5E
330
5C
100
AcDbEntity
8
0
100
AcDbBlockEnd
0
BLOCK
5
60
330
5F
100
AcDbEntity
8
0
100
AcDbBlockBegin
2
*D25
70
1
10
0
20
0
3
*D25
1

0
LINE
5
C0
100
AcDbEntity
8
dim
6
CONTINUOUS
62
7
370
0
100
AcDbLine
10
44
20
15.6117891098
11
44
21
28.1117891098
0
SOLID
5
C1
100
AcDbEntity
8
dim
6
CONTINUOUS
62
7
370
0
100
AcDbTrace
10
44
20
15.6117891098
30
0
11
43.5837153422
21
18.1117891098
31
0
12
44.4162846578
22
18.1117891098
32
0
13
44.4162846578
23
18.1117891098
33
0
0
SOLID
5
C2
100
AcDbEntity
8
dim
6
CONTINUOUS
62
7
370
0
100
AcDbTrace
10
44
20
28.1117891098
30
0
11
44.4162846578
21
25.6117891098
31
0
12
43.5837153422
22
25.6117891098
32
0
13
43.5837153422
23
25.6117891098
33
0
0
MTEXT
5
C3
100
AcDbEntity
8
dim
6
CONTINUOUS
62
7
370
0
100
AcDbMText
10
42.125
20
21.8617891098
30
0
40
2.5
41
2.5
71
5
72
1
1
13
7
standard
210
0
220
0
230
1
50
90
73
2
44
1
0
LINE
5
C4
100
AcDbEntity
8
dim
6
CONTINUOUS
62
7
370
0
100
AcDbLine
10
16.125
20
15.6117891098
11
45.25
21
15.6117891098
0
LINE
5
C5
100
AcDbEntity
8
dim
6
CONTINUOUS
62
7
370
0
100
AcDbLine
10
38.625
20
28.1117891098
11
45.25
21
28.1117891098
0
ENDBLK
5
61
330
5F
100
AcDbEntity
8
0
100
AcDbBlockEnd
0
BLOCK
5
63
330
62
100
AcDbEntity
8
0
100
AcDbBlockBegin
2
*D21
70
1
10
0
20
0
3
*D21
1

0
LINE
5
C6
100
AcDbEntity
8
dim
6
CONTINUOUS
62
7
370
0
100
AcDbLine
10
-30
20
-80
11
-8
21
-80
0
SOLID
5
C7
100
AcDbEntity
8
dim
6
CONTINUOUS
62
7
370
0
100
AcDbTrace
10
-30
20
-80
30
0
11
-27.5
21
-79.5837153422
31
0
12
-27.5
22
-80.4162846578
32
0
13
-27.5
23
-80.4162846578
33
0
0
SOLID
5
C8
100
AcDbEntity
8
dim
6
CONTINUOUS
62
7
370
0
100
AcDbTrace
10
-8
20
-80
30
0
11
-10.5
21
-80.4162846578
31
0
12
-10.5
22
-79.5837153422
32
0
13
-10.5
23
-79.5837153422
33
0
0
MTEXT
5
C9
100
AcDbEntity
8
dim
6
CONTINUOUS
62
7
370
0
100
AcDbMText
10
-19
20
-78.125
30
0
40
2.5
41
3.05555555556
71
5
72
1
1
22
7
standard
210
0
220
0
230
1
50
0
73
2
44
1
0
LINE
5
CA
100
AcDbEntity
8
dim
6
CONTINUOUS
62
7
370
0
100
AcDbLine
10
-30
20
-99.375
11
-30
21
-78.75
0
LINE
5
CB
100
AcDbEntity
8
dim
6
CONTINUOUS
62
7
370
0
100
AcDbLine
10
-8
20
-99.375
11
-8
21
-78.75
0
ENDBLK
5
64
330
62
100
AcDbEntity
8
0
100
AcDbBlockEnd
0
BLOCK
5
66
330
65
100
AcDbEntity
8
0
100
AcDbBlockBegin
2
*D10
70
1
10
0
20
0
3
*D10
1

0
LINE
5
CC
100
AcDbEntity
8
dim
6
CONTINUOUS
62
7
370
0
100
AcDbLine
10
-33.7139067635
20
-101.485562705
11
-26.2860932365
21
-98.5144372946
0
SOLID
5
CD
100
AcDbEntity
8
dim
6
CONTINUOUS
62
7
370
0
100
AcDbTrace
10
-33.7139067635
20
-101.485562705
30
0
11
-31.5473192768
21
-100.170575413
31
0
12
-31.2381107957
22
-100.943596616
32
0
13
-31.2381107957
23
-100.943596616
33
0
0
SOLID
5
CE
100
AcDbEntity
8
dim
6
CONTINUOUS
62
7
370
0
100
AcDbTrace
10
-26.2860932365
20
-98.5144372946
30
0
11
-28.4526807232
21
-99.8294245869
31
0
12
-28.7618892043
22
-99.0564033839
32
0
13
-28.7618892043
23
-99.0564033839
33
0
0
MTEXT
5
CF
100
AcDbEntity
8
dim
6
CONTINUOUS
62
7
370
0
100
AcDbMText
10
-30.6963575182
20
-98.2591062046
30
0
40
2.5
41
3.61111111111
71
5
72
1
1
   %%C8
7
standard
210
0
220
0
230
1
50
21.8014094837
73
2
44
1
0
ENDBLK
5
67
330
65
100
AcDbEntity
8
0
100
AcDbBlockEnd
0
BLOCK
5
69
330
68
100
AcDbEntity
8
0
100
AcDbBlockBegin
2
*D13
70
1
10
0
20
0
3
*D13
1

0
LINE
5
D0
100
AcDbEntity
8
dim
6
CONTINUOUS
62
7
370
0
100
AcDbLine
10
-21.5420908088
20
13.2153044639
11
-9.45790919119
21
18.0082737557
0
SOLID
5
D1
100
AcDbEntity
8
dim
6
CONTINUOUS
62
7
370
0
100
AcDbTrace
10
-16.8943286482
20
15.0587541915
30
0
11
-19.0647297607
21
13.7500709116
31
0
12
-19.3716896963
22
14.5239877438
32
0
13
-19.3716896963
23
14.5239877438
33
0
0
SOLID
5
D2
100
AcDbEntity
8
dim
6
CONTINUOUS
62
7
370
0
100
AcDbTrace
10
-14.1056713518
20
16.1648240281
30
0
11
-11.9352702393
21
17.473507308
31
0
12
-11.6283103037
22
16.6995904758
32
0
13
-11.6283103037
23
16.6995904758
33
0
0
MTEXT
5
D3
100
AcDbEntity
8
dim
6
CONTINUOUS
62
7
370
0
100
AcDbMText
10
-12.5376361715
20
18.8038562337
30
0
40
2.5
41
3.61111111111
71
5
72
1
1
 %%C3
7
standard
210
0
220
0
230
1
50
21.6348454998
73
2
44
1
0
ENDBLK
5
6A
330
68
100
AcDbEntity
8
0
100
AcDbBlockEnd
0
BLOCK
5
6C
330
6B
100
AcDbEntity
8
0
100
AcDbBlockBegin
2
*D8
70
1
10
0
20
0
3
*D8
1

0
LINE
5
D4
100
AcDbEntity
8
dim
6
CONTINUOUS
62
7
370
0
100
AcDbLine
10
-43.9756303555
20
28.1117891098
11
-43.9756303555
21
13.1117891098
0
SOLID
5
D5
100
AcDbEntity
8
dim
6
CONTINUOUS
62
7
370
0
100
AcDbTrace
10
-43.9756303555
20
28.1117891098
30
0
11
-43.5593456977
21
25.6117891098
31
0
12
-44.3919150133
22
25.6117891098
32
0
13
-44.3919150133
23
25.6117891098
33
0
0
SOLID
5
D6
100
AcDbEntity
8
dim
6
CONTINUOUS
62
7
370
0
100
AcDbTrace
10
-43.9756303555
20
13.1117891098
30
0
11
-44.3919150133
21
15.6117891098
31
0
12
-43.5593456977
22
15.6117891098
32
0
13
-43.5593456977
23
15.6117891098
33
0
0
MTEXT
5
D7
100
AcDbEntity
8
dim
6
CONTINUOUS
62
7
370
0
100
AcDbMText
10
-45.8506303555
20
20.6117891098
30
0
40
2.5
41
2.5
71
5
72
1
1
15
7
standard
210
0
220
0
230
1
50
90
73
2
44
1
0
LINE
5
D8
100
AcDbEntity
8
dim
6
CONTINUOUS
62
7
370
0
100
AcDbLine
10
-8.625
20
28.1117891098
11
-45.2256303555
21
28.1117891098
0
LINE
5
D9
100
AcDbEntity
8
dim
6
CONTINUOUS
62
7
370
0
100
AcDbLine
10
-8.625
20
13.1117891098
11
-45.2256303555
21
13.1117891098
0
ENDBLK
5
6D
330
6B
100
AcDbEntity
8
0
100
AcDbBlockEnd
0
BLOCK
5
6F
330
6E
100
AcDbEntity
8
0
100
AcDbBlockBegin
2
*D15
70
1
10
0
20
0
3
*D15
1

0
LINE
5
DA
100
AcDbEntity
8
dim
6
CONTINUOUS
62
7
370
0
100
AcDbLine
10
0.72393124901
20
-101.819017189
11
15.276068751
21
-98.1809828118
0
SOLID
5
DB
100
AcDbEntity
8
dim
6
CONTINUOUS
62
7
370
0
100
AcDbTrace
10
5.57464374964
20
-100.606339063
30
0
11
3.25025135902
21
-101.616533564
31
0
12
3.04832363963
22
-100.808822687
32
0
13
3.04832363963
23
-100.808822687
33
0
0
SOLID
5
DC
100
AcDbEntity
8
dim
6
CONTINUOUS
62
7
370
0
100
AcDbTrace
10
10.4253562504
20
-99.3936609374
30
0
11
12.749748641
21
-98.383466436
31
0
12
12.9516763604
22
-99.1911773133
32
0
13
12.9516763604
23
-99.1911773133
33
0
0
MTEXT
5
DD
100
AcDbEntity
8
dim
6
CONTINUOUS
62
7
370
0
100
AcDbMText
10
7.54524570306
20
-98.1809828122
30
0
40
2.5
41
3.61111111111
71
5
72
1
1
   %%C5
7
standard
210
0
220
0
230
1
50
14.0362434725
73
2
44
1
0
ENDBLK
5
70
330
6E
100
AcDbEntity
8
0
100
AcDbBlockEnd
0
BLOCK
5
72
330
71
100
AcDbEntity
8
0
100
AcDbBlockBegin
2
*D23
70
1
10
0
20
0
3
*D23
1

0
LINE
5
DE
100
AcDbEntity
8
dim
6
CONTINUOUS
62
7
370
0
100
AcDbLine
10
10.5
20
-100
11
37
21
-121
0
SOLID
5
DF
100
AcDbEntity
8
dim
6
CONTINUOUS
62
7
370
0
100
AcDbTrace
10
10.5
20
-100
30
0
11
12.7179114484
21
-101.226442711
31
0
12
12.2008179342
22
-101.878965479
32
0
13
12.2008179342
23
-101.878965479
33
0
0
LINE
5
E0
100
AcDbEntity
8
dim
6
CONTINUOUS
62
7
370
0
100
AcDbLine
10
37
20
-121
11
37
21
-122
0
LINE
5
E1
100
AcDbEntity
8
dim
6
CONTINUOUS
62
7
370
0
100
AcDbLine
10
37
20
-122
11
-35
21
-122
0
ENDBLK
5
73
330
71
100
AcDbEntity
8
0
100
AcDbBlockEnd
0
BLOCK
5
75
330
74
100
AcDbEntity
8
0
100
AcDbBlockBegin
2
*D5
70
1
10
0
20
0
3
*D5
1

0
LINE
5
E2
100
AcDbEntity
8
dim
6
CONTINUOUS
62
7
370
0
100
AcDbLine
10
91
20
-40
11
109
21
-40
0
SOLID
5
E3
100
AcDbEntity
8
dim
6
CONTINUOUS
62
7
370
0
100
AcDbTrace
10
91
20
-40
30
0
11
93.5
21
-39.5837153422
31
0
12
93.5
22
-40.4162846578
32
0
13
93.5
23
-40.4162846578
33
0
0
SOLID
5
E4
100
AcDbEntity
8
dim
6
CONTINUOUS
62
7
370
0
100
AcDbTrace
10
109
20
-40
30
0
11
106.5
21
-40.4162846578
31
0
12
106.5
22
-39.5837153422
32
0
13
106.5
23
-39.5837153422
33
0
0
MTEXT
5
E5
100
AcDbEntity
8
dim
6
CONTINUOUS
62
7
370
0
100
AcDbMText
10
100
20
-38.125
30
0
40
2.5
41
2.5
71
5
72
1
1
18
7
standard
210
0
220
0
230
1
50
0
73
2
44
1
0
LINE
5
E6
100
AcDbEntity
8
dim
6
CONTINUOUS
62
7
370
0
100
AcDbLine
10
91
20
-28.625
11
91
21
-41.25
0
LINE
5
E7
100
AcDbEntity
8
dim
6
CONTINUOUS
62
7
370
0
100
AcDbLine
10
109
20
-28.625
11
109
21
-41.25
0
ENDBLK
5
76
330
74
100
AcDbEntity
8
0
100
AcDbBlockEnd
0
BLOCK
5
78
330
77
100
AcDbEntity
8
0
100
AcDbBlockBegin
2
*D16
70
1
10
0
20
0
3
*D16
1

0
LINE
5
E8
100
AcDbEntity
8
dim
6
CONTINUOUS
62
7
370
0
100
AcDbLine
10
-15.1151247354
20
-97.628291755
11
-0.884875264594
21
-102.371708245
0
SOLID
5
E9
100
AcDbEntity
8
dim
6
CONTINUOUS
62
7
370
0
100
AcDbTrace
10
-10.3717082451
20
-99.209430585
30
0
11
-12.8750572576
21
-98.8137834721
31
0
12
-12.6117757229
22
-98.0239388679
32
0
13
-12.6117757229
23
-98.0239388679
33
0
0
SOLID
5
EA
100
AcDbEntity
8
dim
6
CONTINUOUS
62
7
370
0
100
AcDbTrace
10
-5.62829175487
20
-100.790569415
30
0
11
-3.12494274238
21
-101.186216528
31
0
12
-3.38822427708
22
-101.976061132
32
0
13
-3.38822427708
23
-101.976061132
33
0
0
MTEXT
5
EB
100
AcDbEntity
8
dim
6
CONTINUOUS
62
7
370
0
100
AcDbMText
10
-7.40707293872
20
-98.2212188162
30
0
40
2.5
41
3.61111111111
71
5
72
1
1
   %%C5
7
standard
210
0
220
0
230
1
50
341.565051178
73
2
44
1
0
ENDBLK
5
79
330
77
100
AcDbEntity
8
0
100
AcDbBlockEnd
0
BLOCK
5
7B
330
7A
100
AcDbEntity
8
0
100
AcDbBlockBegin
2
*D20
70
1
10
0
20
0
3
*D20
1

0
LINE
5
EC
100
AcDbEntity
8
dim
6
CONTINUOUS
62
7
370
0
100
AcDbLine
10
-30
20
-80
11
-38
21
-80
0
SOLID
5
ED
100
AcDbEntity
8
dim
6
CONTINUOUS
62
7
370
0
100
AcDbTrace
10
-30
20
-80
30
0
11
-32.5
21
-80.4162846578
31
0
12
-32.5
22
-79.5837153422
32
0
13
-32.5
23
-79.5837153422
33
0
0
SOLID
5
EE
100
AcDbEntity
8
dim
6
CONTINUOUS
62
7
370
0
100
AcDbTrace
10
-38
20
-80
30
0
11
-35.5
21
-79.5837153422
31
0
12
-35.5
22
-80.4162846578
32
0
13
-35.5
23
-80.4162846578
33
0
0
MTEXT
5
EF
100
AcDbEntity
8
dim
6
CONTINUOUS
62
7
370
0
100
AcDbMText
10
-34
20
-78.125
30
0
40
2.5
41
1.11111111111
71
5
72
1
1
8
7
standard
210
0
220
0
230
1
50
360
73
2
44
1
0
LINE
5
F0
100
AcDbEntity
8
dim
6
CONTINUOUS
62
7
370
0
100
AcDbLine
10
-30
20
-99.375
11
-30
21
-78.75
0
LINE
5
F1
100
AcDbEntity
8
dim
6
CONTINUOUS
62
7
370
0
100
AcDbLine
10
-38
20
-90.375
11
-38
21
-78.75
0
ENDBLK
5
7C
330
7A
100
AcDbEntity
8
0
100
AcDbBlockEnd
0
BLOCK
5
7E
330
7D
100
AcDbEntity
8
0
100
AcDbBlockBegin
2
*D24
70
1
10
0
20
0
3
*D24
1

0
LINE
5
F2
100
AcDbEntity
8
dim
6
CONTINUOUS
62
7
370
0
100
AcDbLine
10
-15.5
20
40
11
-38
21
40
0
SOLID
5
F3
100
AcDbEntity
8
dim
6
CONTINUOUS
62
7
370
0
100
AcDbTrace
10
-15.5
20
40
30
0
11
-18
21
39.5837153422
31
0
12
-18
22
40.4162846578
32
0
13
-18
23
40.4162846578
33
0
0
SOLID
5
F4
100
AcDbEntity
8
dim
6
CONTINUOUS
62
7
370
0
100
AcDbTrace
10
-38
20
40
30
0
11
-35.5
21
40.4162846578
31
0
12
-35.5
22
39.5837153422
32
0
13
-35.5
23
39.5837153422
33
0
0
MTEXT
5
F5
100
AcDbEntity
8
dim
6
CONTINUOUS
62
7
370
0
100
AcDbMText
10
-26.75
20
41.875
30
0
40
2.5
41
3.05555555556
71
5
72
1
1
22
7
standard
210
0
220
0
230
1
50
360
73
2
44
1
0
LINE
5
F6
100
AcDbEntity
8
dim
6
CONTINUOUS
62
7
370
0
100
AcDbLine
10
-15.5
20
16.2367891098
11
-15.5
21
41.25
0
LINE
5
F7
100
AcDbEntity
8
dim
6
CONTINUOUS
62
7
370
0
100
AcDbLine
10
-38
20
28.7367891098
11
-38
21
41.25
0
ENDBLK
5
7F
330
7D
100
AcDbEntity
8
0
100
AcDbBlockEnd
0
BLOCK
5
81
330
80
100
AcDbEntity
8
0
100
AcDbBlockBegin
2
*D12
70
1
10
0
20
0
3
*D12
1

0
LINE
5
F8
100
AcDbEntity
8
dim
6
CONTINUOUS
62
7
370
0
100
AcDbLine
10
-21.7926702366
20
-17.0167996329
11
-9.20732976336
21
-13.7596221475
0
SOLID
5
F9
100
AcDbEntity
8
dim
6
CONTINUOUS
62
7
370
0
100
AcDbTrace
10
-16.95215467
20
-15.7640390616
30
0
11
-19.2681114522
21
-16.7934258205
31
0
12
-19.4767134545
22
-15.987412874
32
0
13
-19.4767134545
23
-15.987412874
33
0
0
SOLID
5
FA
100
AcDbEntity
8
dim
6
CONTINUOUS
62
7
370
0
100
AcDbTrace
10
-14.04784533
20
-15.0123827188
30
0
11
-11.7318885478
21
-13.9829959599
31
0
12
-11.5232865455
22
-14.7890089064
32
0
13
-11.5232865455
23
-14.7890089064
33
0
0
MTEXT
5
FB
100
AcDbEntity
8
dim
6
CONTINUOUS
62
7
370
0
100
AcDbMText
10
-12.1646021438
20
-12.588208548
30
0
40
2.5
41
3.61111111111
71
5
72
1
1
 %%C3
7
standard
210
0
220
0
230
1
50
14.5101858591
73
2
44
1
0
ENDBLK
5
82
330
80
100
AcDbEntity
8
0
100
AcDbBlockEnd
0
BLOCK
5
84
330
83
100
AcDbEntity
8
0
100
AcDbBlockBegin
2
*D2
70
1
10
0
20
0
3
*D2
1

0
SOLID
5
FC
100
AcDbEntity
8
dim
6
CONTINUOUS
62
7
370
0
100
AcDbTrace
10
-3.2303547323
20
25.7528045182
30
0
11
-5.00382416664
21
23.9422523699
31
0
12
-5.49482871335
22
24.614625927
32
0
13
-5.49482871335
23
24.614625927
33
0
0
LINE
5
FD
100
AcDbEntity
8
dim
6
CONTINUOUS
62
7
370
0
100
AcDbLine
10
1.5190947949e-14
20
28.1117891098
11
-8.38994909641
21
21.9849819066
0
MTEXT
5
FE
100
AcDbEntity
8
dim
6
CONTINUOUS
62
7
370
0
100
AcDbMText
10
-6.91592594167
20
25.3831219931
30
0
40
2.5
41
1.38888888889
71
5
72
1
1
4
7
standard
210
0
220
0
230
1
50
36.1389961559
73
2
44
1
0
ENDBLK
5
85
330
83
100
AcDbEntity
8
0
100
AcDbBlockEnd
0
BLOCK
5
87
330
86
100
AcDbEntity
8
0
100
AcDbBlockBegin
2
*D11
70
1
10
0
20
0
3
*D11
1

0
LINE
5
FF
100
AcDbEntity
8
dim
6
CONTINUOUS
62
7
370
0
100
AcDbLine
10
9.20732976336
20
-17.0167996329
11
21.7926702366
21
-13.7596221475
0
SOLID
5
100
100
AcDbEntity
8
dim
6
CONTINUOUS
62
7
370
0
100
AcDbTrace
10
14.04784533
20
-15.7640390616
30
0
11
11.7318885478
21
-16.7934258205
31
0
12
11.5232865455
22
-15.987412874
32
0
13
11.5232865455
23
-15.987412874
33
0
0
SOLID
5
101
100
AcDbEntity
8
dim
6
CONTINUOUS
62
7
370
0
100
AcDbTrace
10
16.95215467
20
-15.0123827188
30
0
11
19.2681114522
21
-13.9829959599
31
0
12
19.4767134545
22
-14.7890089064
32
0
13
19.4767134545
23
-14.7890089064
33
0
0
MTEXT
5
102
100
AcDbEntity
8
dim
6
CONTINUOUS
62
7
370
0
100
AcDbMText
10
18.8353978562
20
-12.588208548
30
0
40
2.5
41
3.61111111111
71
5
72
1
1
 %%C3
7
standard
210
0
220
0
230
1
50
14.5101858591
73
2
44
1
0
ENDBLK
5
88
330
86
100
AcDbEntity
8
0
100
AcDbBlockEnd
0
BLOCK
5
8A
330
89
100
AcDbEntity
8
0
100
AcDbBlockBegin
2
*D4
70
1
10
0
20
0
3
*D4
1

0
LINE
5
103
100
AcDbEntity
8
dim
6
CONTINUOUS
62
7
370
0
100
AcDbLine
10
-38
20
-40
11
38
21
-40
0
SOLID
5
104
100
AcDbEntity
8
dim
6
CONTINUOUS
62
7
370
0
100
AcDbTrace
10
-38
20
-40
30
0
11
-35.5
21
-39.5837153422
31
0
12
-35.5
22
-40.4162846578
32
0
13
-35.5
23
-40.4162846578
33
0
0
SOLID
5
105
100
AcDbEntity
8
dim
6
CONTINUOUS
62
7
370
0
100
AcDbTrace
10
38
20
-40
30
0
11
35.5
21
-40.4162846578
31
0
12
35.5
22
-39.5837153422
32
0
13
35.5
23
-39.5837153422
33
0
0
MTEXT
5
106
100
AcDbEntity
8
dim
6
CONTINUOUS
62
7
370
0
100
AcDbMText
10
-6.99062051193e-15
20
-38.125
30
0
40
2.5
41
3.05555555556
71
5
72
1
1
76
7
standard
210
0
220
0
230
1
50
0
73
2
44
1
0
LINE
5
107
100
AcDbEntity
8
dim
6
CONTINUOUS
62
7
370
0
100
AcDbLine
10
-38
20
-28.5132108902
11
-38
21
-41.25
0
LINE
5
108
100
AcDbEntity
8
dim
6
CONTINUOUS
62
7
370
0
100
AcDbLine
10
38
20
-28.5132108902
11
38
21
-41.25
0
ENDBLK
5
8B
330
89
100
AcDbEntity
8
0
100
AcDbBlockEnd
0
BLOCK
5
8D
330
8C
100
AcDbEntity
8
0
100
AcDbBlockBegin
2
*D6
70
1
10
0
20
0
3
*D6
1

0
LINE
5
109
100
AcDbEntity
8
dim
6
CONTINUOUS
62
7
370
0
100
AcDbLine
10
-15.5
20
40
11
15.5
21
40
0
SOLID
5
10A
100
AcDbEntity
8
dim
6
CONTINUOUS
62
7
370
0
100
AcDbTrace
10
-15.5
20
40
30
0
11
-13
21
40.4162846578
31
0
12
-13
22
39.5837153422
32
0
13
-13
23
39.5837153422
33
0
0
SOLID
5
10B
100
AcDbEntity
8
dim
6
CONTINUOUS
62
7
370
0
100
AcDbTrace
10
15.5
20
40
30
0
11
13
21
39.5837153422
31
0
12
13
22
40.4162846578
32
0
13
13
23
40.4162846578
33
0
0
MTEXT
5
10C
100
AcDbEntity
8
dim
6
CONTINUOUS
62
7
370
0
100
AcDbMText
10
6.33205578357e-15
20
41.875
30
0
40
2.5
41
2.5
71
5
72
1
1
31
7
standard
210
0
220
0
230
1
50
0
73
2
44
1
0
LINE
5
10D
100
AcDbEntity
8
dim
6
CONTINUOUS
62
7
370
0
100
AcDbLine
10
-15.5
20
16.2367891098
11
-15.5
21
41.25
0
LINE
5
10E
100
AcDbEntity
8
dim
6
CONTINUOUS
62
7
370
0
100
AcDbLine
10
15.5
20
16.2367891098
11
15.5
21
41.25
0
ENDBLK
5
8E
330
8C
100
AcDbEntity
8
0
100
AcDbBlockEnd
0
BLOCK
5
90
330
8F
100
AcDbEntity
8
0
100
AcDbBlockBegin
2
*D7
70
1
10
0
20
0
3
*D7
1

0
LINE
5
10F
100
AcDbEntity
8
dim
6
CONTINUOUS
62
7
370
0
100
AcDbLine
10
-50
20
15.6117891098
11
-50
21
-15.3882108902
0
SOLID
5
110
100
AcDbEntity
8
dim
6
CONTINUOUS
62
7
370
0
100
AcDbTrace
10
-50
20
15.6117891098
30
0
11
-49.5837153422
21
13.1117891098
31
0
12
-50.4162846578
22
13.1117891098
32
0
13
-50.4162846578
23
13.1117891098
33
0
0
SOLID
5
111
100
AcDbEntity
8
dim
6
CONTINUOUS
62
7
370
0
100
AcDbTrace
10
-50
20
-15.3882108902
30
0
11
-50.4162846578
21
-12.8882108902
31
0
12
-49.5837153422
22
-12.8882108902
32
0
13
-49.5837153422
23
-12.8882108902
33
0
0
MTEXT
5
112
100
AcDbEntity
8
dim
6
CONTINUOUS
62
7
370
0
100
AcDbMText
10
-51.875
20
0.111789109787
30
0
40
2.5
41
2.5
71
5
72
1
1
31
7
standard
210
0
220
0
230
1
50
90
73
2
44
1
0
LINE
5
113
100
AcDbEntity
8
dim
6
CONTINUOUS
62
7
370
0
100
AcDbLine
10
-16.125
20
15.6117891098
11
-51.25
21
15.6117891098
0
LINE
5
114
100
AcDbEntity
8
dim
6
CONTINUOUS
62
7
370
0
100
AcDbLine
10
-16.125
20
-15.3882108902
11
-51.25
21
-15.3882108902
0
ENDBLK
5
91
330
8F
100
AcDbEntity
8
0
100
AcDbBlockEnd
0
BLOCK
5
93
330
92
100
AcDbEntity
8
0
100
AcDbBlockBegin
2
*D3
70
1
10
0
20
0
3
*D3
1

0
LINE
5
115
100
AcDbEntity
8
dim
6
CONTINUOUS
62
7
370
0
100
AcDbLine
10
50
20
28.1117891098
11
50
21
-27.8882108902
0
SOLID
5
116
100
AcDbEntity
8
dim
6
CONTINUOUS
62
7
370
0
100
AcDbTrace
10
50
20
28.1117891098
30
0
11
50.4162846578
21
25.6117891098
31
0
12
49.5837153422
22
25.6117891098
32
0
13
49.5837153422
23
25.6117891098
33
0
0
SOLID
5
117
100
AcDbEntity
8
dim
6
CONTINUOUS
62
7
370
0
100
AcDbTrace
10
50
20
-27.8882108902
30
0
11
49.5837153422
21
-25.3882108902
31
0
12
50.4162846578
22
-25.3882108902
32
0
13
50.4162846578
23
-25.3882108902
33
0
0
MTEXT
5
118
100
AcDbEntity
8
dim
6
CONTINUOUS
62
7
370
0
100
AcDbMText
10
48.125
20
0.111789109787
30
0
40
2.5
41
3.05555555556
71
5
72
1
1
56
7
standard
210
0
220
0
230
1
50
90
73
2
44
1
0
LINE
5
119
100
AcDbEntity
8
dim
6
CONTINUOUS
62
7
370
0
100
AcDbLine
10
38.625
20
28.1117891098
11
51.25
21
28.1117891098
0
LINE
5
11A
100
AcDbEntity
8
dim
6
CONTINUOUS
62
7
370
0
100
AcDbLine
10
38.625
20
-27.8882108902
11
51.25
21
-27.8882108902
0
ENDBLK
5
94
330
92
100
AcDbEntity
8
0
100
AcDbBlockEnd
0
BLOCK
5
96
330
95
100
AcDbEntity
8
0
100
AcDbBlockBegin
2
CUT001008009041_PROJ
70
0
10
0
20
0
3
CUT001008009041_PROJ
1

0
LINE
5
11B
100
AcDbEntity
8
0
6
ByLayer
62
0
370
-1
100
AcDbLine
10
-38
20
28.1117891098
11
-38
21
-27.8882108902
0
LINE
5
11C
100
AcDbEntity
8
0
6
ByLayer
62
0
370
-1
100
AcDbLine
10
-38
20
28.1117891098
11
-4
21
28.1117891098
0
LINE
5
11D
100
AcDbEntity
8
0
6
ByLayer
62
0
370
-1
100
AcDbLine
10
-38
20
-27.8882108902
11
38
21
-27.8882108902
0
LINE
5
11E
100
AcDbEntity
8
0
6
ByLayer
62
0
370
-1
100
AcDbLine
10
38
20
-27.8882108902
11
38
21
28.1117891098
0
LINE
5
11F
100
AcDbEntity
8
0
6
ByLayer
62
0
370
-1
100
AcDbLine
10
38
20
28.1117891098
11
4
21
28.1117891098
0
ARC
5
120
100
AcDbEntity
8
0
6
ByLayer
62
0
370
-1
100
AcDbCircle
10
1.5190947949e-14
20
28.1117891098
40
4
100
AcDbArc
50
180
51
360
0
CIRCLE
5
121
100
AcDbEntity
8
0
6
ByLayer
62
0
370
-1
100
AcDbCircle
10
3.42244135334e-17
20
0.111789109787
40
11
0
CIRCLE
5
122
100
AcDbEntity
8
0
6
ByLayer
62
0
370
-1
100
AcDbCircle
10
15.5
20
-15.3882108902
40
1.5
0
CIRCLE
5
123
100
AcDbEntity
8
0
6
ByLayer
62
0
370
-1
100
AcDbCircle
10
15.5
20
15.6117891098
40
1.5
0
CIRCLE
5
124
100
AcDbEntity
8
0
6
ByLayer
62
0
370
-1
100
AcDbCircle
10
-15.5
20
15.6117891098
40
1.5
0
CIRCLE
5
125
100
AcDbEntity
8
0
6
ByLayer
62
0
370
-1
100
AcDbCircle
10
-15.5
20
-15.3882108902
40
1.5
0
ENDBLK
5
97
330
95
100
AcDbEntity
8
0
100
AcDbBlockEnd
0
BLOCK
5
99
330
98
100
AcDbEntity
8
0
100
AcDbBlockBegin
2
CUT001008009041_PROJ001
70
0
10
0
20
0
3
CUT001008009041_PROJ001
1

0
LINE
5
126
100
AcDbEntity
8
0
6
ByLayer
62
0
370
-1
100
AcDbLine
10
-38
20
9
11
-38
21
-9
0
CIRCLE
5
127
100
AcDbEntity
8
0
6
ByLayer
62
0
370
-1
100
AcDbCircle
10
-8
20
1.46952762459e-15
40
2.5
0
CIRCLE
5
128
100
AcDbEntity
8
0
6
ByLayer
62
0
370
-1
100
AcDbCircle
10
-30
20
5.5107285922e-15
40
4
0
LINE
5
129
100
AcDbEntity
8
0
6
ByLayer
62
0
370
-1
100
AcDbLine
10
-38
20
9
11
-4
21
9
0
LINE
5
12A
100
AcDbEntity
8
0
6
ByLayer
62
0
370
-1
100
AcDbLine
10
-38
20
-9
11
-4
21
-9
0
LINE
5
12B
100
AcDbEntity
8
0
6
ByLayer
62
0
370
-1
100
AcDbLine
10
-4
20
9
11
-4
21
-9
0
LINE
5
12C
100
AcDbEntity
8
0
6
ByLayer
62
0
370
-1
100
AcDbLine
10
38
20
9
11
4
21
9
0
LWPOLYLINE
5
12D
100
AcDbEntity
8
0
6
ByLayer
62
0
370
-1
100
AcDbPolyline
90
2
70
0
43
0
10
-4
20
9
10
4
20
9
0
LINE
5
12E
100
AcDbEntity
8
0
6
ByLayer
62
0
370
-1
100
AcDbLine
10
38
20
-9
11
4
21
-9
0
LWPOLYLINE
5
12F
100
AcDbEntity
8
0
6
ByLayer
62
0
370
-1
100
AcDbPolyline
90
2
70
0
43
0
10
-4
20
-9
10
4
20
-9
0
LINE
5
130
100
AcDbEntity
8
0
6
ByLayer
62
0
370
-1
100
AcDbLine
10
4
20
9
11
4
21
-9
0
CIRCLE
5
131
100
AcDbEntity
8
0
6
ByLayer
62
0
370
-1
100
AcDbCircle
10
30
20
9.53999995264e-07
40
4
0
LINE
5
132
100
AcDbEntity
8
0
6
ByLayer
62
0
370
-1
100
AcDbLine
10
38
20
9
11
38
21
-9
0
CIRCLE
5
133
100
AcDbEntity
8
0
6
ByLayer
62
0
370
-1
100
AcDbCircle
10
8
20
-1.46952762459e-15
40
2.5
0
CIRCLE
5
134
100
AcDbEntity
8
0
6
ByLayer
62
0
370
-1
100
AcDbCircle
10
8
20
-1.46952762459e-15
40
2.5
0
ENDBLK
5
9A
330
98
100
AcDbEntity
8
0
100
AcDbBlockEnd
0
BLOCK
5
9C
330
9B
100
AcDbEntity
8
0
100
AcDbBlockBegin
2
CUT001008009041_PROJ002
70
0
10
0
20
0
3
CUT001008009041_PROJ002
1

0
LINE
5
135
100
AcDbEntity
8
0
6
ByLayer
62
0
370
-1
100
AcDbLine
10
9
20
-28
11
-9
21
-28
0
LINE
5
136
100
AcDbEntity
8
0
6
ByLayer
62
0
370
-1
100
AcDbLine
10
9
20
-28
11
9
21
28
0
LINE
5
137
100
AcDbEntity
8
0
6
ByLayer
62
0
370
-1
100
AcDbLine
10
-9
20
-28
11
-9
21
28
0
LINE
5
138
100
AcDbEntity
8
0
6
ByLayer
62
0
370
-1
100
AcDbLine
10
9
20
28
11
4.000000954
21
28
0
LINE
5
139
100
AcDbEntity
8
0
6
ByLayer
62
0
370
-1
100
AcDbLine
10
-3.999999046
20
28
11
-9
21
28
0
LWPOLYLINE
5
13A
100
AcDbEntity
8
0
6
ByLayer
62
0
370
-1
100
AcDbPolyline
90
2
70
0
43
0
10
-3.999999046
20
28
10
4.000000954
20
28
0
LINE
5
13B
100
AcDbEntity
8
0
6
ByLayer
62
0
370
-1
100
AcDbLine
10
9
20
28
11
-9
21
28
0
ENDBLK
5
9D
330
9B
100
AcDbEntity
8
0
100
AcDbBlockEnd
0
ENDSEC
0
SECTION
2
ENTITIES
0
INSERT
5
13C
100
AcDbEntity
8
0
6
ByLayer
62
256
370
-1
100
AcDbBlockReference
2
CUT001008009041_PROJ
10
0
20
0
30
0
41
1
42
1
43
0
50
0
70
1
71
1
44
0
45
0
0
INSERT
5
13D
100
AcDbEntity
8
0
6
ByLayer
62
256
370
-1
100
AcDbBlockReference
2
CUT001008009041_PROJ001
10
0
20
-100
30
0
41
1
42
1
43
0
50
0
70
1
71
1
44
0
45
0
0
INSERT
5
13E
100
AcDbEntity
8
0
6
ByLayer
62
256
370
-1
100
AcDbBlockReference
2
CUT001008009041_PROJ002
10
100
20
0
30
0
41
1
42
1
43
0
50
0
70
1
71
1
44
0
45
0
0
DIMENSION
5
13F
100
AcDbEntity
8
dim
6
ByLayer
62
256
370
-1
100
AcDbDimension
2
*D1
10
10.5680470387
20
-2.94048574476
30
0
11
0.520274122934
21
1.91316076411
31
0
70
35
71
5
72
0
3
Standard
53
0
210
0
220
0
230
1
100
AcDbDiametricDimension
15
-10.5680470387
25
3.16406396433
35
0
40
0
0
DIMENSION
5
140
100
AcDbEntity
8
dim
6
ByLayer
62
256
370
-1
100
AcDbDimension
2
*D2
10
1.5190947949e-14
20
28.1117891098
30
0
11
-6.91592594167
21
25.3831219931
31
0
70
36
71
5
72
0
3
Standard
53
0
210
0
220
0
230
1
100
AcDbRadialDimension
15
-3.2303547323
25
25.7528045182
35
0
40
0
0
DIMENSION
5
141
100
AcDbEntity
8
dim
6
ByLayer
62
256
370
-1
100
AcDbDimension
2
*D3
10
50
20
-27.8882108902
30
0
11
48.125
21
0.111789109787
31
0
70
32
71
5
72
0
3
Standard
53
0
210
0
220
0
230
1
100
AcDbAlignedDimension
13
38
23
28.1117891098
33
0
14
38
24
-27.8882108902
34
0
50
90
100
AcDbRotatedDimension
0
DIMENSION
5
142
100
AcDbEntity
8
dim
6
ByLayer
62
256
370
-1
100
AcDbDimension
2
*D4
10
38
20
-40
30
0
11
-6.99062051193e-15
21
-38.125
31
0
70
32
71
5
72
0
3
Standard
53
0
210
0
220
0
230
1
100
AcDbAlignedDimension
13
-38
23
-27.8882108902
33
0
14
38
24
-27.8882108902
34
0
100
AcDbRotatedDimension
0
DIMENSION
5
143
100
AcDbEntity
8
dim
6
ByLayer
62
256
370
-1
100
AcDbDimension
2
*D5
10
109
20
-40
30
0
11
100
21
-38.125
31
0
70
32
71
5
72
0
3
Standard
53
0
210
0
220
0
230
1
100
AcDbAlignedDimension
13
91
23
-28
33
0
14
109
24
-28
34
0
100
AcDbRotatedDimension
0
LINE
5
144
100
AcDbEntity
8
base
6
ByLayer
62
256
370
-1
100
AcDbLine
10
0
20
30
11
0
21
-30
0
LINE
5
145
100
AcDbEntity
8
base
6
ByLayer
62
256
370
-1
100
AcDbLine
10
100
20
30
11
100
21
-30
0
LINE
5
146
100
AcDbEntity
8
base
6
ByLayer
62
256
370
-1
100
AcDbLine
10
0
20
-90
11
0
21
-110
0
LINE
5
147
100
AcDbEntity
8
base
6
ByLayer
62
256
370
-1
100
AcDbLine
10
-40
20
-100
11
40
21
-100
0
LINE
5
148
100
AcDbEntity
8
base
6
ByLayer
62
256
370
-1
100
AcDbLine
10
-20
20
0
11
20
21
0
0
DIMENSION
5
149
100
AcDbEntity
8
dim
6
ByLayer
62
256
370
-1
100
AcDbDimension
2
*D6
10
15.5
20
40
30
0
11
6.33205578357e-15
21
41.875
31
0
70
32
71
5
72
0
3
Standard
53
0
210
0
220
0
230
1
100
AcDbAlignedDimension
13
-15.5
23
15.6117891098
33
0
14
15.5
24
15.6117891098
34
0
100
AcDbRotatedDimension
0
DIMENSION
5
14A
100
AcDbEntity
8
dim
6
ByLayer
62
256
370
-1
100
AcDbDimension
2
*D7
10
-50
20
-15.3882108902
30
0
11
-51.875
21
0.111789109787
31
0
70
32
71
5
72
0
3
Standard
53
0
210
0
220
0
230
1
100
AcDbAlignedDimension
13
-15.5
23
15.6117891098
33
0
14
-15.5
24
-15.3882108902
34
0
50
90
100
AcDbRotatedDimension
0
LINE
5
14B
100
AcDbEntity
8
base
6
ByLayer
62
256
370
-1
100
AcDbLine
10
-30
20
28.1117891098
11
-30
21
-27.8882108902
0
LINE
5
14C
100
AcDbEntity
8
base
6
ByLayer
62
256
370
-1
100
AcDbLine
10
30
20
-27.8882108902
11
30
21
28.1117891098
0
LINE
5
14D
100
AcDbEntity
8
base2
6
ByLayer
62
256
370
-1
100
AcDbLine
10
-34
20
28.1117891098
11
-34
21
-27.8882108902
0
LINE
5
14E
100
AcDbEntity
8
base2
6
ByLayer
62
256
370
-1
100
AcDbLine
10
-26
20
28.1117891098
11
-26
21
-27.8882108902
0
LINE
5
14F
100
AcDbEntity
8
base2
6
ByLayer
62
256
370
-1
100
AcDbLine
10
34
20
-27.8882108902
11
34
21
28.1117891098
0
LINE
5
150
100
AcDbEntity
8
base2
6
ByLayer
62
256
370
-1
100
AcDbLine
10
26
20
-27.8882108902
11
26
21
28.1117891098
0
LINE
5
151
100
AcDbEntity
8
base2
6
ByLayer
62
256
370
-1
100
AcDbLine
10
-10.5
20
30
11
-10.5
21
13.1117891098
0
LINE
5
152
100
AcDbEntity
8
base
6
ByLayer
62
256
370
-1
100
AcDbLine
10
-8
20
30
11
-8
21
13.1117891098
0
LINE
5
153
100
AcDbEntity
8
base2
6
ByLayer
62
256
370
-1
100
AcDbLine
10
-5.5
20
30
11
-5.5
21
13.1117891098
0
LINE
5
154
100
AcDbEntity
8
base2
6
ByLayer
62
256
370
-1
100
AcDbLine
10
5.5
20
30
11
5.5
21
13.1117891098
0
LINE
5
155
100
AcDbEntity
8
base
6
ByLayer
62
256
370
-1
100
AcDbLine
10
8
20
30
11
8
21
13.1117891098
0
LINE
5
156
100
AcDbEntity
8
base2
6
ByLayer
62
256
370
-1
100
AcDbLine
10
10.5
20
30
11
10.5
21
13.1117891098
0
LINE
5
157
100
AcDbEntity
8
base2
6
ByLayer
62
256
370
-1
100
AcDbLine
10
10.5
20
13.1117891098
11
5.5
21
13.1117891098
0
LINE
5
158
100
AcDbEntity
8
base2
6
ByLayer
62
256
370
-1
100
AcDbLine
10
-10.5
20
13.1117891098
11
-5.5
21
13.1117891098
0
DIMENSION
5
159
100
AcDbEntity
8
dim
6
ByLayer
62
256
370
-1
100
AcDbDimension
2
*D8
10
-43.9756303555
20
13.1117891098
30
0
11
-45.8506303555
21
20.6117891098
31
0
70
32
71
5
72
0
3
Standard
53
0
210
0
220
0
230
1
100
AcDbAlignedDimension
13
-8
23
28.1117891098
33
0
14
-8
24
13.1117891098
34
0
50
90
100
AcDbRotatedDimension
0
DIMENSION
5
15A
100
AcDbEntity
8
dim
6
ByLayer
62
256
370
-1
100
AcDbDimension
2
*D9
10
26.2052666268
20
-101.264909567
30
0
11
29.4070731933
21
-98.2212177773
31
0
70
35
1
   %%C8
71
5
72
0
3
Standard
53
0
210
0
220
0
230
1
100
AcDbDiametricDimension
15
33.7947333732
25
-98.735088525
35
0
40
0
0
DIMENSION
5
15B
100
AcDbEntity
8
dim
6
ByLayer
62
256
370
-1
100
AcDbDimension
2
*D10
10
-33.7139067635
20
-101.485562705
30
0
11
-30.6963575182
21
-98.2591062046
31
0
70
35
1
   %%C8
71
5
72
0
3
Standard
53
0
210
0
220
0
230
1
100
AcDbDiametricDimension
15
-26.2860932365
25
-98.5144372946
35
0
40
0
0
DIMENSION
5
15C
100
AcDbEntity
8
dim
6
ByLayer
62
256
370
-1
100
AcDbDimension
2
*D11
10
14.04784533
20
-15.7640390616
30
0
11
15.0302147857
21
-13.5730175527
31
0
70
35
1
 %%C3
71
5
72
0
3
Standard
53
0
210
0
220
0
230
1
100
AcDbDiametricDimension
15
16.95215467
25
-15.0123827188
35
0
40
0
0
DIMENSION
5
15D
100
AcDbEntity
8
dim
6
ByLayer
62
256
370
-1
100
AcDbDimension
2
*D12
10
-16.95215467
20
-15.7640390616
30
0
11
-15.9697852143
21
-13.5730175527
31
0
70
35
1
 %%C3
71
5
72
0
3
Standard
53
0
210
0
220
0
230
1
100
AcDbDiametricDimension
15
-14.04784533
25
-15.0123827188
35
0
40
0
0
DIMENSION
5
15E
100
AcDbEntity
8
dim
6
ByLayer
62
256
370
-1
100
AcDbDimension
2
*D13
10
-16.8943286482
20
15.0587541915
30
0
11
-16.1912936478
21
17.35469992
31
0
70
35
1
 %%C3
71
5
72
0
3
Standard
53
0
210
0
220
0
230
1
100
AcDbDiametricDimension
15
-14.1056713518
25
16.1648240281
35
0
40
0
0
DIMENSION
5
15F
100
AcDbEntity
8
dim
6
ByLayer
62
256
370
-1
100
AcDbDimension
2
*D14
10
14.1886131316
20
14.883596497
30
0
11
14.589759234
21
17.2510226953
31
0
70
35
1
 %%C3
71
5
72
0
3
Standard
53
0
210
0
220
0
230
1
100
AcDbDiametricDimension
15
16.8113868684
25
16.3399817226
35
0
40
0
0
DIMENSION
5
160
100
AcDbEntity
8
dim
6
ByLayer
62
256
370
-1
100
AcDbDimension
2
*D15
10
5.57464374964
20
-100.606339063
30
0
11
7.54524570306
21
-98.1809828122
31
0
70
35
1
   %%C5
71
5
72
0
3
Standard
53
0
210
0
220
0
230
1
100
AcDbDiametricDimension
15
10.4253562504
25
-99.3936609374
35
0
40
0
0
DIMENSION
5
161
100
AcDbEntity
8
dim
6
ByLayer
62
256
370
-1
100
AcDbDimension
2
*D16
10
-10.3717082451
20
-99.209430585
30
0
11
-7.40707293872
21
-98.2212188162
31
0
70
35
1
   %%C5
71
5
72
0
3
Standard
53
0
210
0
220
0
230
1
100
AcDbDiametricDimension
15
-5.62829175487
25
-100.790569415
35
0
40
0
0
MTEXT
5
162
100
AcDbEntity
8
dim
6
ByLayer
62
256
370
-1
100
AcDbMText
10
-33
20
-118
30
0
40
3
41
66.4166666667
71
1
72
1
1
Резьба M5, глубина отв. 15 мм
7
cyrillic_ii
210
0
220
0
230
1
50
0
73
2
44
1
0
LEADER
5
163
100
AcDbEntity
8
dim
6
ByLayer
62
256
370
-1
100
AcDbLeader
3
Standard
71
1
72
0
73
3
74
0
75
0
40
1
41
10
76
4
76
4
10
-10.5
20
-100
30
0
10
-38
20
-121
30
0
10
-38
20
-122
30
0
10
34
20
-122
30
0
0
DIMENSION
5
164
100
AcDbEntity
8
dim
6
ByLayer
62
256
370
-1
100
AcDbDimension
2
*D18
10
8
20
-80
30
0
11
1.00298526537e-15
21
-78.125
31
0
70
32
71
5
3
Standard
53
0
210
0
220
0
230
1
100
AcDbAlignedDimension
13
-8
23
-100
33
0
14
8
24
-100
34
0
100
AcDbRotatedDimension
0
DIMENSION
5
165
100
AcDbEntity
8
dim
6
ByLayer
62
256
370
-1
100
AcDbDimension
2
*D19
10
30
20
-80
30
0
11
19
21
-78.125
31
0
70
32
71
5
3
Standard
53
0
210
0
220
0
230
1
100
AcDbAlignedDimension
13
8
23
-100
33
0
14
30
24
-100
34
0
100
AcDbRotatedDimension
0
DIMENSION
5
166
100
AcDbEntity
8
dim
6
ByLayer
62
256
370
-1
100
AcDbDimension
2
*D20
10
-38
20
-80
30
0
11
-34
21
-78.125
31
0
70
32
71
5
3
Standard
53
0
210
0
220
0
230
1
100
AcDbAlignedDimension
13
-30
23
-100
33
0
14
-38
24
-91
34
0
100
AcDbRotatedDimension
0
DIMENSION
5
167
100
AcDbEntity
8
dim
6
ByLayer
62
256
370
-1
100
AcDbDimension
2
*D21
10
-8
20
-80
30
0
11
-19
21
-78.125
31
0
70
32
71
5
3
Standard
53
0
210
0
220
0
230
1
100
AcDbAlignedDimension
13
-30
23
-100
33
0
14
-8
24
-100
34
0
100
AcDbRotatedDimension
0
DIMENSION
5
168
100
AcDbEntity
8
dim
6
ByLayer
62
256
370
-1
100
AcDbDimension
2
*D22
10
-50
20
-91
30
0
11
-51.875
21
-95.5
31
0
70
32
71
5
3
Standard
53
0
210
0
220
0
230
1
100
AcDbAlignedDimension
13
-30
23
-100
33
0
14
-38
24
-91
34
0
50
90
100
AcDbRotatedDimension
0
LEADER
5
169
100
AcDbEntity
8
dim
6
ByLayer
62
256
370
-1
100
AcDbLeader
3
Standard
71
1
72
0
73
3
74
0
75
0
40
1
41
10
76
4
76
4
10
10.5
20
-100
30
0
10
37
20
-121
30
0
10
37
20
-122
30
0
10
-35
20
-122
30
0
0
DIMENSION
5
16A
100
AcDbEntity
8
dim
6
ByLayer
62
256
370
-1
100
AcDbDimension
2
*D24
10
-38
20
40
30
0
11
-26.75
21
41.875
31
0
70
32
71
5
3
Standard
53
0
210
0
220
0
230
1
100
AcDbAlignedDimension
13
-15.5
23
15.6117891098
33
0
14
-38
24
28.1117891098
34
0
100
AcDbRotatedDimension
0
DIMENSION
5
16B
100
AcDbEntity
8
dim
6
ByLayer
62
256
370
-1
100
AcDbDimension
2
*D25
10
44
20
28.1117891098
30
0
11
42.125
21
21.8617891098
31
0
70
32
71
5
3
Standard
53
0
210
0
220
0
230
1
100
AcDbAlignedDimension
13
15.5
23
15.6117891098
33
0
14
38
24
28.1117891098
34
0
50
90
100
AcDbRotatedDimension
0
ENDSEC
0
SECTION
2
OBJECTS
0
DICTIONARY
5
C
330
0
100
AcDbDictionary
281
1
3
ACAD_GROUP
350
D
0
DICTIONARY
5
D
330
C
100
AcDbDictionary
281
1
0
ENDSEC
0
EOF
