<?xml version="1.0" encoding="UTF-8" standalone="no"?>
<!-- Created with sK1/UniConvertor (http://sk1project.org/) -->

<svg
   xmlns:dc="http://purl.org/dc/elements/1.1/"
   xmlns:cc="http://creativecommons.org/ns#"
   xmlns:rdf="http://www.w3.org/1999/02/22-rdf-syntax-ns#"
   xmlns:svg="http://www.w3.org/2000/svg"
   xmlns="http://www.w3.org/2000/svg"
   xmlns:sodipodi="http://sodipodi.sourceforge.net/DTD/sodipodi-0.dtd"
   xmlns:inkscape="http://www.inkscape.org/namespaces/inkscape"
   width="595.276pt"
   height="841.89pt"
   viewBox="0 0 595.276 841.89"
   fill-rule="evenodd"
   id="svg3863"
   version="1.1"
   inkscape:version="0.48.3.1 r9886"
   sodipodi:docname="part13.svg">
  <metadata
     id="metadata3909">
    <rdf:RDF>
      <cc:Work
         rdf:about="">
        <dc:format>image/svg+xml</dc:format>
        <dc:type
           rdf:resource="http://purl.org/dc/dcmitype/StillImage" />
        <dc:title />
      </cc:Work>
    </rdf:RDF>
  </metadata>
  <sodipodi:namedview
     pagecolor="#ffffff"
     bordercolor="#666666"
     borderopacity="1"
     objecttolerance="10"
     gridtolerance="10"
     guidetolerance="10"
     inkscape:pageopacity="0"
     inkscape:pageshadow="2"
     inkscape:window-width="952"
     inkscape:window-height="746"
     id="namedview3907"
     showgrid="false"
     inkscape:zoom="0.44851463"
     inkscape:cx="268.29032"
     inkscape:cy="562.42946"
     inkscape:window-x="65"
     inkscape:window-y="24"
     inkscape:window-maximized="0"
     inkscape:current-layer="svg3863" />
  <defs
     id="defs3865">
    <marker
       id="ArrowEnd"
       viewBox="0 0 10 10"
       refX="0"
       refY="5"
       markerUnits="strokeWidth"
       markerWidth="4"
       markerHeight="3"
       orient="auto">
      <path
         d="M 0 0 L 10 5 L 0 10 z"
         id="path3868" />
    </marker>
    <marker
       id="ArrowStart"
       viewBox="0 0 10 10"
       refX="10"
       refY="5"
       markerUnits="strokeWidth"
       markerWidth="4"
       markerHeight="3"
       orient="auto">
      <path
         d="M 10 0 L 0 5 L 10 10 z"
         id="path3871" />
    </marker>
  </defs>
  <path
     style="fill:#99ffff;stroke:#000000;stroke-width:1"
     d="m 0.5,841.27004 175.721,0.12 55.971,-104.59601 -105.168,-55.9492 -72.597,0.0481 L 0.5133,745.59103 0.5,841.27004 z M 151.622,729.93253 c 17.22,0 31.185,13.9645 31.185,31.1845 0,17.22101 -13.965,31.18501 -31.185,31.18501 -17.22,0 -31.185,-13.964 -31.185,-31.18501 0,-17.22 13.965,-31.1845 31.185,-31.1845 z m -80.211,-10.2474 c 5.87,0 10.631,4.7606 10.631,10.6313 0,5.8706 -4.761,10.6316 -10.631,10.6316 -5.871,0 -10.632,-4.761 -10.632,-10.6316 0,-5.8707 4.761,-10.6313 10.632,-10.6313 z m -42.5607,71.26391 c 5.8704,0 10.6309,4.76 10.6309,10.631 0,5.87 -4.7605,10.631 -10.6309,10.631 -5.8708,0 -10.6316,-4.761 -10.6316,-10.631 0,-5.871 4.7608,-10.631 10.6316,-10.631 z m 140.9407,26.053 c 1.957,0 3.544,1.587 3.544,3.544 0,1.957 -1.587,3.544 -3.544,3.544 -1.956,0 -3.543,-1.587 -3.543,-3.544 0,-1.957 1.587,-3.544 3.543,-3.544 z m 41.26,-77.59701 c 1.957,0 3.544,1.586 3.544,3.543 0,1.957 -1.587,3.544 -3.544,3.544 -1.957,0 -3.544,-1.587 -3.544,-3.544 0,-1.957 1.587,-3.543 3.544,-3.543 z m -77.598,-41.2599 c 1.957,0 3.544,1.5867 3.544,3.5437 0,1.957 -1.587,3.5438 -3.544,3.5438 -1.957,0 -3.544,-1.5868 -3.544,-3.5438 0,-1.957 1.587,-3.5437 3.544,-3.5437 z m -41.258998,77.59791 c 1.957,0 3.543,1.587 3.543,3.544 0,1.957 -1.586,3.544 -3.543,3.544 -1.957,0 -3.544,-1.587 -3.544,-3.544 0,-1.957 1.587,-3.544 3.544,-3.544 z"
     id="path3903"
     inkscape:connector-curvature="0" />
</svg>
