<?xml version="1.0" encoding="UTF-8" standalone="no"?>
<!-- Created with sK1/UniConvertor (http://sk1project.org/) -->

<svg
   xmlns:dc="http://purl.org/dc/elements/1.1/"
   xmlns:cc="http://creativecommons.org/ns#"
   xmlns:rdf="http://www.w3.org/1999/02/22-rdf-syntax-ns#"
   xmlns:svg="http://www.w3.org/2000/svg"
   xmlns="http://www.w3.org/2000/svg"
   xmlns:sodipodi="http://sodipodi.sourceforge.net/DTD/sodipodi-0.dtd"
   xmlns:inkscape="http://www.inkscape.org/namespaces/inkscape"
   width="595.276pt"
   height="841.89pt"
   viewBox="0 0 595.276 841.89"
   fill-rule="evenodd"
   id="svg4521"
   version="1.1"
   inkscape:version="0.48.3.1 r9886"
   sodipodi:docname="part05.svg">
  <metadata
     id="metadata4569">
    <rdf:RDF>
      <cc:Work
         rdf:about="">
        <dc:format>image/svg+xml</dc:format>
        <dc:type
           rdf:resource="http://purl.org/dc/dcmitype/StillImage" />
        <dc:title />
      </cc:Work>
    </rdf:RDF>
  </metadata>
  <sodipodi:namedview
     pagecolor="#ffffff"
     bordercolor="#666666"
     borderopacity="1"
     objecttolerance="10"
     gridtolerance="10"
     guidetolerance="10"
     inkscape:pageopacity="0"
     inkscape:pageshadow="2"
     inkscape:window-width="653"
     inkscape:window-height="480"
     id="namedview4567"
     showgrid="false"
     inkscape:zoom="0.22425732"
     inkscape:cx="372.0475"
     inkscape:cy="526.18128"
     inkscape:window-x="65"
     inkscape:window-y="24"
     inkscape:window-maximized="0"
     inkscape:current-layer="svg4521" />
  <defs
     id="defs4523">
    <marker
       id="ArrowEnd"
       viewBox="0 0 10 10"
       refX="0"
       refY="5"
       markerUnits="strokeWidth"
       markerWidth="4"
       markerHeight="3"
       orient="auto">
      <path
         d="M 0 0 L 10 5 L 0 10 z"
         id="path4526" />
    </marker>
    <marker
       id="ArrowStart"
       viewBox="0 0 10 10"
       refX="10"
       refY="5"
       markerUnits="strokeWidth"
       markerWidth="4"
       markerHeight="3"
       orient="auto">
      <path
         d="M 10 0 L 0 5 L 10 10 z"
         id="path4529" />
    </marker>
  </defs>
  <path
     style="fill:#00ccff;stroke:#000000;stroke-width:1"
     d="m 108.23,798.55904 c 2.739,0 4.961,2.222 4.961,4.961 0,2.74 -2.222,4.962 -4.961,4.962 -2.74,0 -4.961,-2.222 -4.961,-4.962 0,-2.739 2.221,-4.961 4.961,-4.961 z m -40.093,-40.093 c 2.74,0 4.961,2.222 4.961,4.962 0,2.739 -2.221,4.961 -4.961,4.961 -2.74,0 -4.961,-2.222 -4.961,-4.961 0,-2.74 2.221,-4.962 4.961,-4.962 z m 80.186,0 c 2.74,0 4.961,2.222 4.961,4.962 0,2.739 -2.221,4.961 -4.961,4.961 -2.74,0 -4.961,-2.222 -4.961,-4.961 0,-2.74 2.221,-4.962 4.961,-4.962 z m -40.093,-40.0926 c 2.739,0 4.961,2.2216 4.961,4.9613 0,2.7398 -2.222,4.9613 -4.961,4.9613 -2.74,0 -4.961,-2.2215 -4.961,-4.9613 0,-2.7397 2.221,-4.9613 4.961,-4.9613 z m 0,20.9566 c 13.307,0 24.097,10.791 24.097,24.098 0,13.306 -10.79,24.097 -24.097,24.097 -13.307003,0 -24.098,-10.791 -24.098,-24.097 0,-13.307 10.790997,-24.098 24.098,-24.098 z m -107.73,-53.865 215.46,0 0,155.925 -97.042,0 c -0.003,-5.899 -4.788,-10.683 -10.688,-10.683 -5.9,0 -10.685003,4.784 -10.688003,10.683 l -97.041997,0 0,-155.925 z"
     id="path4535"
     inkscape:connector-curvature="0" />
</svg>
