999
dxfrw 0.5.11
0
SECTION
2
HEADER
9
$ACADVER
1
AC1021
9
$HANDSEED
5
20000
9
$DWGCODEPAGE
3
ANSI_1252
9
$INSBASE
10
0
20
0
30
0
9
$EXTMIN
10
-43.125
20
-49.25
30
0
9
$EXTMAX
10
81.25
20
40
30
0
9
$LIMMIN
10
0
20
0
9
$LIMMAX
10
420
20
297
9
$ORTHOMODE
70
0
9
$LTSCALE
40
1
9
$TEXTSTYLE
7
STANDARD
9
$CLAYER
8
dim
9
$DIMASZ
40
2.5
9
$DIMLFAC
40
1
9
$DIMSCALE
40
1
9
$DIMEXO
40
0.625
9
$DIMEXE
40
1.25
9
$DIMTXT
40
2.5
9
$DIMTSZ
40
0
9
$DIMAUNIT
70
0
9
$DIMADEC
70
2
9
$DIMLUNIT
70
2
9
$DIMSTYLE
2
Standard
9
$DIMGAP
40
0.625
9
$DIMTIH
70
0
9
$LUNITS
70
2
9
$LUPREC
70
1
9
$AUNITS
70
0
9
$AUPREC
70
2
9
$SPLINESEGS
70
8
9
$GRIDMODE
70
1
9
$SNAPSTYLE
70
0
9
$GRIDUNIT
10
0
20
0
9
$PINSBASE
10
0
20
0
30
0
9
$PLIMMIN
10
0
20
0
9
$PLIMMAX
10
210
20
297
9
$INSUNITS
70
0
9
$PSVPSCALE
40
1
0
ENDSEC
0
SECTION
2
CLASSES
0
ENDSEC
0
SECTION
2
TABLES
0
TABLE
2
VPORT
5
8
330
0
100
AcDbSymbolTable
70
1
0
VPORT
5
31
330
2
100
AcDbSymbolTableRecord
100
AcDbViewportTableRecord
2
*ACTIVE
70
0
10
0
20
0
11
1
21
1
12
48.7429171191
22
33.9295848542
13
0
23
0
14
10
24
10
15
10
25
10
16
0
26
0
36
1
17
0
27
0
37
0
40
132.473514254
41
1.66666666667
42
50
43
0
44
0
50
0
51
0
71
0
72
100
73
1
74
3
75
0
76
1
77
0
78
0
281
0
65
1
110
0
120
0
130
0
111
1
121
0
131
0
112
0
122
1
132
0
79
0
146
0
348
10020
60
7
61
5
292
1
282
1
141
0
142
0
63
250
421
3358443
0
ENDTAB
0
TABLE
2
LTYPE
5
5
330
0
100
AcDbSymbolTable
70
4
0
LTYPE
5
14
330
5
100
AcDbSymbolTableRecord
100
AcDbLinetypeTableRecord
2
ByBlock
70
0
3

72
65
73
0
40
0
0
LTYPE
5
15
330
5
100
AcDbSymbolTableRecord
100
AcDbLinetypeTableRecord
2
ByLayer
70
0
3

72
65
73
0
40
0
0
LTYPE
5
16
330
5
100
AcDbSymbolTableRecord
100
AcDbLinetypeTableRecord
2
Continuous
70
0
3
Solid line
72
65
73
0
40
0
0
LTYPE
5
32
330
5
100
AcDbSymbolTableRecord
100
AcDbLinetypeTableRecord
2
DOT
70
0
3
Dot . . . . . . . . . . . . . . . . . . . . . .
72
65
73
2
40
6.35
49
0
74
0
49
-6.35
74
0
0
LTYPE
5
33
330
5
100
AcDbSymbolTableRecord
100
AcDbLinetypeTableRecord
2
DOT2
70
0
3
Dot (.5x) .....................................
72
65
73
2
40
3.175
49
0
74
0
49
-3.175
74
0
0
LTYPE
5
34
330
5
100
AcDbSymbolTableRecord
100
AcDbLinetypeTableRecord
2
DOTX2
70
0
3
Dot (2x) .  .  .  .  .  .  .  .  .  .  .  .  .
72
65
73
2
40
12.7
49
0
74
0
49
-12.7
74
0
0
LTYPE
5
35
330
5
100
AcDbSymbolTableRecord
100
AcDbLinetypeTableRecord
2
DASHED
70
0
3
Dot . . . . . . . . . . . . . . . . . . . . . .
72
65
73
2
40
19.05
49
12.7
74
0
49
-6.35
74
0
0
LTYPE
5
36
330
5
100
AcDbSymbolTableRecord
100
AcDbLinetypeTableRecord
2
DASHED2
70
0
3
Dashed (.5x) _ _ _ _ _ _ _ _ _ _ _ _ _ _ _ _ _
72
65
73
2
40
9.525
49
6.35
74
0
49
-3.175
74
0
0
LTYPE
5
37
330
5
100
AcDbSymbolTableRecord
100
AcDbLinetypeTableRecord
2
DASHEDX2
70
0
3
Dashed (2x) ____  ____  ____  ____  ____  ___
72
65
73
2
40
38.1
49
25.4
74
0
49
-12.7
74
0
0
LTYPE
5
38
330
5
100
AcDbSymbolTableRecord
100
AcDbLinetypeTableRecord
2
DASHDOT
70
0
3
Dash dot __ . __ . __ . __ . __ . __ . __ . __
72
65
73
4
40
25.4
49
12.7
74
0
49
-6.35
74
0
49
0
74
0
49
-6.35
74
0
0
LTYPE
5
39
330
5
100
AcDbSymbolTableRecord
100
AcDbLinetypeTableRecord
2
DASHDOT2
70
0
3
Dash dot (.5x) _._._._._._._._._._._._._._._.
72
65
73
4
40
12.7
49
6.35
74
0
49
-3.175
74
0
49
0
74
0
49
-3.175
74
0
0
LTYPE
5
3A
330
5
100
AcDbSymbolTableRecord
100
AcDbLinetypeTableRecord
2
DASHDOTX2
70
0
3
Dash dot (2x) ____  .  ____  .  ____  .  ___
72
65
73
4
40
50.8
49
25.4
74
0
49
-12.7
74
0
49
0
74
0
49
-12.7
74
0
0
LTYPE
5
3B
330
5
100
AcDbSymbolTableRecord
100
AcDbLinetypeTableRecord
2
DIVIDE
70
0
3
Divide ____ . . ____ . . ____ . . ____ . . ____
72
65
73
6
40
31.75
49
12.7
74
0
49
-6.35
74
0
49
0
74
0
49
-6.35
74
0
49
0
74
0
49
-6.35
74
0
0
LTYPE
5
3C
330
5
100
AcDbSymbolTableRecord
100
AcDbLinetypeTableRecord
2
DIVIDE2
70
0
3
Divide (.5x) __..__..__..__..__..__..__..__.._
72
65
73
6
40
15.875
49
6.35
74
0
49
-3.175
74
0
49
0
74
0
49
-3.175
74
0
49
0
74
0
49
-3.175
74
0
0
LTYPE
5
3D
330
5
100
AcDbSymbolTableRecord
100
AcDbLinetypeTableRecord
2
DIVIDEX2
70
0
3
Divide (2x) ________  .  .  ________  .  .  _
72
65
73
6
40
63.5
49
25.4
74
0
49
-12.7
74
0
49
0
74
0
49
-12.7
74
0
49
0
74
0
49
-12.7
74
0
0
LTYPE
5
3E
330
5
100
AcDbSymbolTableRecord
100
AcDbLinetypeTableRecord
2
BORDER
70
0
3
Border __ __ . __ __ . __ __ . __ __ . __ __ .
72
65
73
6
40
44.45
49
12.7
74
0
49
-6.35
74
0
49
12.7
74
0
49
-6.35
74
0
49
0
74
0
49
-6.35
74
0
0
LTYPE
5
3F
330
5
100
AcDbSymbolTableRecord
100
AcDbLinetypeTableRecord
2
BORDER2
70
0
3
Border (.5x) __.__.__.__.__.__.__.__.__.__.__.
72
65
73
6
40
22.225
49
6.35
74
0
49
-3.175
74
0
49
6.35
74
0
49
-3.175
74
0
49
0
74
0
49
-3.175
74
0
0
LTYPE
5
40
330
5
100
AcDbSymbolTableRecord
100
AcDbLinetypeTableRecord
2
BORDERX2
70
0
3
Border (2x) ____  ____  .  ____  ____  .  ___
72
65
73
6
40
88.9
49
25.4
74
0
49
-12.7
74
0
49
25.4
74
0
49
-12.7
74
0
49
0
74
0
49
-12.7
74
0
0
LTYPE
5
41
330
5
100
AcDbSymbolTableRecord
100
AcDbLinetypeTableRecord
2
CENTER
70
0
3
Center ____ _ ____ _ ____ _ ____ _ ____ _ ____
72
65
73
4
40
50.8
49
31.75
74
0
49
-6.35
74
0
49
6.35
74
0
49
-6.35
74
0
0
LTYPE
5
42
330
5
100
AcDbSymbolTableRecord
100
AcDbLinetypeTableRecord
2
CENTER2
70
0
3
Center (.5x) ___ _ ___ _ ___ _ ___ _ ___ _ ___
72
65
73
4
40
28.575
49
19.05
74
0
49
-3.175
74
0
49
3.175
74
0
49
-3.175
74
0
0
LTYPE
5
43
330
5
100
AcDbSymbolTableRecord
100
AcDbLinetypeTableRecord
2
CENTERX2
70
0
3
Center (2x) ________  __  ________  __  _____
72
65
73
4
40
101.6
49
63.5
74
0
49
-12.7
74
0
49
12.7
74
0
49
-12.7
74
0
0
ENDTAB
0
TABLE
2
LAYER
5
2
330
0
100
AcDbSymbolTable
70
1
0
LAYER
5
10
330
2
100
AcDbSymbolTableRecord
100
AcDbLayerTableRecord
2
0
70
0
62
7
6
CONTINUOUS
370
50
390
F
0
LAYER
5
44
330
2
100
AcDbSymbolTableRecord
100
AcDbLayerTableRecord
2
base
70
0
62
7
6
CENTER
370
0
390
F
0
LAYER
5
45
330
2
100
AcDbSymbolTableRecord
100
AcDbLayerTableRecord
2
dim
70
0
62
7
6
CONTINUOUS
370
-3
390
F
0
ENDTAB
0
TABLE
2
STYLE
5
3
330
0
100
AcDbSymbolTable
70
3
0
STYLE
5
46
330
2
100
AcDbSymbolTableRecord
100
AcDbTextStyleTableRecord
2
Standard
70
0
40
0
41
1
50
0
71
0
42
1
3
txt
4

0
ENDTAB
0
TABLE
2
VIEW
5
6
330
0
100
AcDbSymbolTable
70
0
0
ENDTAB
0
TABLE
2
UCS
5
7
330
0
100
AcDbSymbolTable
70
0
0
ENDTAB
0
TABLE
2
APPID
5
9
330
0
100
AcDbSymbolTable
70
1
0
APPID
5
12
330
9
100
AcDbSymbolTableRecord
100
AcDbRegAppTableRecord
2
ACAD
70
0
0
ENDTAB
0
TABLE
2
DIMSTYLE
5
A
330
0
100
AcDbSymbolTable
70
1
100
AcDbDimStyleTable
71
1
0
DIMSTYLE
105
47
330
A
100
AcDbSymbolTableRecord
100
AcDbDimStyleTableRecord
2
Standard
70
0
40
1
41
2.5
42
0.625
43
0.38
44
1.25
45
0
46
0
47
0
48
0
140
2.5
141
0.09
142
0
143
25.4
144
1
145
0
146
1
147
0.625
148
0
71
0
72
0
73
0
74
1
75
0
76
0
77
0
78
0
79
0
170
0
171
2
172
0
173
0
174
0
175
0
176
0
177
0
178
0
179
0
271
4
272
4
273
2
274
2
275
0
276
0
277
2
278
46
279
0
280
0
281
0
282
0
283
1
284
0
285
0
286
0
288
0
289
3
340
Standard
341

371
-2
372
-2
0
ENDTAB
0
TABLE
2
BLOCK_RECORD
5
1
330
0
100
AcDbSymbolTable
70
2
0
BLOCK_RECORD
5
1F
330
1
100
AcDbSymbolTableRecord
100
AcDbBlockTableRecord
2
*Model_Space
70
0
280
1
281
0
0
BLOCK_RECORD
5
1E
330
1
100
AcDbSymbolTableRecord
100
AcDbBlockTableRecord
2
*Paper_Space
70
0
280
1
281
0
0
BLOCK_RECORD
5
48
330
1
100
AcDbSymbolTableRecord
100
AcDbBlockTableRecord
2
*D10
70
0
280
1
281
0
0
BLOCK_RECORD
5
4B
330
1
100
AcDbSymbolTableRecord
100
AcDbBlockTableRecord
2
*D14
70
0
280
1
281
0
0
BLOCK_RECORD
5
4E
330
1
100
AcDbSymbolTableRecord
100
AcDbBlockTableRecord
2
*D17
70
0
280
1
281
0
0
BLOCK_RECORD
5
51
330
1
100
AcDbSymbolTableRecord
100
AcDbBlockTableRecord
2
*D1
70
0
280
1
281
0
0
BLOCK_RECORD
5
54
330
1
100
AcDbSymbolTableRecord
100
AcDbBlockTableRecord
2
*D8
70
0
280
1
281
0
0
BLOCK_RECORD
5
57
330
1
100
AcDbSymbolTableRecord
100
AcDbBlockTableRecord
2
*D2
70
0
280
1
281
0
0
BLOCK_RECORD
5
5A
330
1
100
AcDbSymbolTableRecord
100
AcDbBlockTableRecord
2
*D4
70
0
280
1
281
0
0
BLOCK_RECORD
5
5D
330
1
100
AcDbSymbolTableRecord
100
AcDbBlockTableRecord
2
*D6
70
0
280
1
281
0
0
BLOCK_RECORD
5
60
330
1
100
AcDbSymbolTableRecord
100
AcDbBlockTableRecord
2
*D16
70
0
280
1
281
0
0
BLOCK_RECORD
5
63
330
1
100
AcDbSymbolTableRecord
100
AcDbBlockTableRecord
2
*D18
70
0
280
1
281
0
0
BLOCK_RECORD
5
66
330
1
100
AcDbSymbolTableRecord
100
AcDbBlockTableRecord
2
*D12
70
0
280
1
281
0
0
BLOCK_RECORD
5
69
330
1
100
AcDbSymbolTableRecord
100
AcDbBlockTableRecord
2
*D3
70
0
280
1
281
0
0
BLOCK_RECORD
5
6C
330
1
100
AcDbSymbolTableRecord
100
AcDbBlockTableRecord
2
*D13
70
0
280
1
281
0
0
BLOCK_RECORD
5
6F
330
1
100
AcDbSymbolTableRecord
100
AcDbBlockTableRecord
2
*D7
70
0
280
1
281
0
0
BLOCK_RECORD
5
72
330
1
100
AcDbSymbolTableRecord
100
AcDbBlockTableRecord
2
*D9
70
0
280
1
281
0
0
BLOCK_RECORD
5
75
330
1
100
AcDbSymbolTableRecord
100
AcDbBlockTableRecord
2
*D11
70
0
280
1
281
0
0
BLOCK_RECORD
5
78
330
1
100
AcDbSymbolTableRecord
100
AcDbBlockTableRecord
2
*D5
70
0
280
1
281
0
0
BLOCK_RECORD
5
7B
330
1
100
AcDbSymbolTableRecord
100
AcDbBlockTableRecord
2
*D15
70
0
280
1
281
0
0
BLOCK_RECORD
5
7E
330
1
100
AcDbSymbolTableRecord
100
AcDbBlockTableRecord
2
PAD002054011_PROJ
70
0
280
1
281
0
0
ENDTAB
0
ENDSEC
0
SECTION
2
BLOCKS
0
BLOCK
5
20
330
1F
100
AcDbEntity
8
0
100
AcDbBlockBegin
2
*Model_Space
70
0
10
0
20
0
30
0
3
*Model_Space
1

0
ENDBLK
5
21
330
1F
100
AcDbEntity
8
0
100
AcDbBlockEnd
0
BLOCK
5
1C
330
1B
100
AcDbEntity
8
0
100
AcDbBlockBegin
2
*Paper_Space
70
0
10
0
20
0
30
0
3
*Paper_Space
1

0
ENDBLK
5
1D
330
1F
100
AcDbEntity
8
0
100
AcDbBlockEnd
0
BLOCK
5
49
330
48
100
AcDbEntity
8
0
100
AcDbBlockBegin
2
*D10
70
1
10
0
20
0
3
*D10
1

0
LINE
5
81
100
AcDbEntity
8
dim
6
CONTINUOUS
62
7
370
0
100
AcDbLine
10
-30
20
-30
11
-30
21
-36.5
0
SOLID
5
82
100
AcDbEntity
8
dim
6
CONTINUOUS
62
7
370
0
100
AcDbTrace
10
-30
20
-30
30
0
11
-29.5837153422
21
-32.5
31
0
12
-30.4162846578
22
-32.5
32
0
13
-30.4162846578
23
-32.5
33
0
0
SOLID
5
83
100
AcDbEntity
8
dim
6
CONTINUOUS
62
7
370
0
100
AcDbTrace
10
-30
20
-36.5
30
0
11
-30.4162846578
21
-34
31
0
12
-29.5837153422
22
-34
32
0
13
-29.5837153422
23
-34
33
0
0
MTEXT
5
84
100
AcDbEntity
8
dim
6
CONTINUOUS
62
7
370
0
100
AcDbMText
10
-31.875
20
-33.25
30
0
40
2.5
41
3.88888888889
71
5
72
1
1
6.5
7
standard
210
0
220
0
230
1
50
90
73
2
44
1
0
LINE
5
85
100
AcDbEntity
8
dim
6
CONTINUOUS
62
7
370
0
100
AcDbLine
10
-13.625
20
-30
11
-31.25
21
-30
0
LINE
5
86
100
AcDbEntity
8
dim
6
CONTINUOUS
62
7
370
0
100
AcDbLine
10
-13.625
20
-36.5
11
-31.25
21
-36.5
0
ENDBLK
5
4A
330
48
100
AcDbEntity
8
0
100
AcDbBlockEnd
0
BLOCK
5
4C
330
4B
100
AcDbEntity
8
0
100
AcDbBlockBegin
2
*D14
70
1
10
0
20
0
3
*D14
1

0
LINE
5
87
100
AcDbEntity
8
dim
6
CONTINUOUS
62
7
370
0
100
AcDbLine
10
-25
20
-48
11
25
21
-48
0
SOLID
5
88
100
AcDbEntity
8
dim
6
CONTINUOUS
62
7
370
0
100
AcDbTrace
10
-25
20
-48
30
0
11
-22.5
21
-47.5837153422
31
0
12
-22.5
22
-48.4162846578
32
0
13
-22.5
23
-48.4162846578
33
0
0
SOLID
5
89
100
AcDbEntity
8
dim
6
CONTINUOUS
62
7
370
0
100
AcDbTrace
10
25
20
-48
30
0
11
22.5
21
-48.4162846578
31
0
12
22.5
22
-47.5837153422
32
0
13
22.5
23
-47.5837153422
33
0
0
MTEXT
5
8A
100
AcDbEntity
8
dim
6
CONTINUOUS
62
7
370
0
100
AcDbMText
10
-1.66154999373e-15
20
-46.125
30
0
40
2.5
41
5.83333333333
71
5
72
1
1
50.0
7
standard
210
0
220
0
230
1
50
0
73
2
44
1
0
LINE
5
8B
100
AcDbEntity
8
dim
6
CONTINUOUS
62
7
370
0
100
AcDbLine
10
-25
20
-19.125
11
-25
21
-49.25
0
LINE
5
8C
100
AcDbEntity
8
dim
6
CONTINUOUS
62
7
370
0
100
AcDbLine
10
25
20
-19.125
11
25
21
-49.25
0
ENDBLK
5
4D
330
4B
100
AcDbEntity
8
0
100
AcDbBlockEnd
0
BLOCK
5
4F
330
4E
100
AcDbEntity
8
0
100
AcDbBlockBegin
2
*D17
70
1
10
0
20
0
3
*D17
1

0
LINE
5
8D
100
AcDbEntity
8
dim
6
CONTINUOUS
62
7
370
0
100
AcDbLine
10
25.3335585627
20
-17.5554804791
11
37.6664414373
21
-13.4445195209
0
SOLID
5
8E
100
AcDbEntity
8
dim
6
CONTINUOUS
62
7
370
0
100
AcDbTrace
10
30.0769750529
20
-15.974341649
30
0
11
27.8369075752
21
-17.1598333661
31
0
12
27.5736260404
22
-16.369988762
32
0
13
27.5736260404
23
-16.369988762
33
0
0
SOLID
5
8F
100
AcDbEntity
8
dim
6
CONTINUOUS
62
7
370
0
100
AcDbTrace
10
32.9230249471
20
-15.025658351
30
0
11
35.1630924248
21
-13.8401666339
31
0
12
35.4263739596
22
-14.630011238
32
0
13
35.4263739596
23
-14.630011238
33
0
0
MTEXT
5
90
100
AcDbEntity
8
dim
6
CONTINUOUS
62
7
370
0
100
AcDbMText
10
34.6359253463
20
-12.4782680136
30
0
40
2.5
41
3.61111111111
71
5
72
1
1
 %%C3
7
standard
210
0
220
0
230
1
50
18.4349488229
73
2
44
1
0
ENDBLK
5
50
330
4E
100
AcDbEntity
8
0
100
AcDbBlockEnd
0
BLOCK
5
52
330
51
100
AcDbEntity
8
0
100
AcDbBlockBegin
2
*D1
70
1
10
0
20
0
3
*D1
1

0
LINE
5
91
100
AcDbEntity
8
dim
6
CONTINUOUS
62
7
370
0
100
AcDbLine
10
3.577708764
20
1.788854382
11
-3.577708764
21
-1.788854382
0
SOLID
5
92
100
AcDbEntity
8
dim
6
CONTINUOUS
62
7
370
0
100
AcDbTrace
10
3.577708764
20
1.788854382
30
0
11
1.52780894505
21
0.298484076142
31
0
12
1.15547262795
22
1.04315671036
32
0
13
1.15547262795
23
1.04315671036
33
0
0
SOLID
5
93
100
AcDbEntity
8
dim
6
CONTINUOUS
62
7
370
0
100
AcDbTrace
10
-3.577708764
20
-1.788854382
30
0
11
-1.52780894505
21
-0.298484076142
31
0
12
-1.15547262795
22
-1.04315671036
32
0
13
-1.15547262795
23
-1.04315671036
33
0
0
MTEXT
5
94
100
AcDbEntity
8
dim
6
CONTINUOUS
62
7
370
0
100
AcDbMText
10
-0.838525491562
20
1.67705098312
30
0
40
2.5
41
3.88888888889
71
5
72
1
1
8.0
7
standard
210
0
220
0
230
1
50
26.5650511771
73
2
44
1
0
ENDBLK
5
53
330
51
100
AcDbEntity
8
0
100
AcDbBlockEnd
0
BLOCK
5
55
330
54
100
AcDbEntity
8
0
100
AcDbBlockBegin
2
*D8
70
1
10
0
20
0
3
*D8
1

0
LINE
5
95
100
AcDbEntity
8
dim
6
CONTINUOUS
62
7
370
0
100
AcDbLine
10
31.5
20
-26.6594124048
11
62.5
21
-26.6594124048
0
SOLID
5
96
100
AcDbEntity
8
dim
6
CONTINUOUS
62
7
370
0
100
AcDbTrace
10
31.5
20
-26.6594124048
30
0
11
34
21
-26.243127747
31
0
12
34
22
-27.0756970626
32
0
13
34
23
-27.0756970626
33
0
0
SOLID
5
97
100
AcDbEntity
8
dim
6
CONTINUOUS
62
7
370
0
100
AcDbTrace
10
62.5
20
-26.6594124048
30
0
11
60
21
-27.0756970626
31
0
12
60
22
-26.243127747
32
0
13
60
23
-26.243127747
33
0
0
MTEXT
5
98
100
AcDbEntity
8
dim
6
CONTINUOUS
62
7
370
0
100
AcDbMText
10
47
20
-24.7844124048
30
0
40
2.5
41
5.27777777778
71
5
72
1
1
31.0
7
standard
210
0
220
0
230
1
50
0
73
2
44
1
0
LINE
5
99
100
AcDbEntity
8
dim
6
CONTINUOUS
62
7
370
0
100
AcDbLine
10
31.5
20
-16.125
11
31.5
21
-27.9094124048
0
LINE
5
9A
100
AcDbEntity
8
dim
6
CONTINUOUS
62
7
370
0
100
AcDbLine
10
62.5
20
-16.125
11
62.5
21
-27.9094124048
0
ENDBLK
5
56
330
54
100
AcDbEntity
8
0
100
AcDbBlockEnd
0
BLOCK
5
58
330
57
100
AcDbEntity
8
0
100
AcDbBlockBegin
2
*D2
70
1
10
0
20
0
3
*D2
1

0
LINE
5
9B
100
AcDbEntity
8
dim
6
CONTINUOUS
62
7
370
0
100
AcDbLine
10
57.2132435997
20
4.0852974399
11
36.7867564003
21
-4.0852974399
0
SOLID
5
9C
100
AcDbEntity
8
dim
6
CONTINUOUS
62
7
370
0
100
AcDbTrace
10
57.2132435997
20
4.0852974399
30
0
11
55.0466561131
21
2.7703101475
31
0
12
54.7374476319
22
3.54333135053
32
0
13
54.7374476319
23
3.54333135053
33
0
0
SOLID
5
9D
100
AcDbEntity
8
dim
6
CONTINUOUS
62
7
370
0
100
AcDbTrace
10
36.7867564003
20
-4.0852974399
30
0
11
38.9533438869
21
-2.7703101475
31
0
12
39.2625523681
22
-3.54333135053
32
0
13
39.2625523681
23
-3.54333135053
33
0
0
MTEXT
5
9E
100
AcDbEntity
8
dim
6
CONTINUOUS
62
7
370
0
100
AcDbMText
10
46.3036424818
20
1.74089379541
30
0
40
2.5
41
5.83333333333
71
5
72
1
1
22.0
7
standard
210
0
220
0
230
1
50
21.8014094864
73
2
44
1
0
ENDBLK
5
59
330
57
100
AcDbEntity
8
0
100
AcDbBlockEnd
0
BLOCK
5
5B
330
5A
100
AcDbEntity
8
0
100
AcDbBlockBegin
2
*D4
70
1
10
0
20
0
3
*D4
1

0
LINE
5
9F
100
AcDbEntity
8
dim
6
CONTINUOUS
62
7
370
0
100
AcDbLine
10
-40
20
36.5
11
-40
21
-36.5
0
SOLID
5
A0
100
AcDbEntity
8
dim
6
CONTINUOUS
62
7
370
0
100
AcDbTrace
10
-40
20
36.5
30
0
11
-39.5837153422
21
34
31
0
12
-40.4162846578
22
34
32
0
13
-40.4162846578
23
34
33
0
0
SOLID
5
A1
100
AcDbEntity
8
dim
6
CONTINUOUS
62
7
370
0
100
AcDbTrace
10
-40
20
-36.5
30
0
11
-40.4162846578
21
-34
31
0
12
-39.5837153422
22
-34
32
0
13
-39.5837153422
23
-34
33
0
0
MTEXT
5
A2
100
AcDbEntity
8
dim
6
CONTINUOUS
62
7
370
0
100
AcDbMText
10
-41.875
20
2.29613691342e-16
30
0
40
2.5
41
5.83333333333
71
5
72
1
1
73.0
7
standard
210
0
220
0
230
1
50
90
73
2
44
1
0
LINE
5
A3
100
AcDbEntity
8
dim
6
CONTINUOUS
62
7
370
0
100
AcDbLine
10
-20.625
20
36.5
11
-41.25
21
36.5
0
LINE
5
A4
100
AcDbEntity
8
dim
6
CONTINUOUS
62
7
370
0
100
AcDbLine
10
-20.625
20
-36.5
11
-41.25
21
-36.5
0
ENDBLK
5
5C
330
5A
100
AcDbEntity
8
0
100
AcDbBlockEnd
0
BLOCK
5
5E
330
5D
100
AcDbEntity
8
0
100
AcDbBlockBegin
2
*D6
70
1
10
0
20
0
3
*D6
1

0
LINE
5
A5
100
AcDbEntity
8
dim
6
CONTINUOUS
62
7
370
0
100
AcDbLine
10
20
20
-18.5
11
20
21
18.5
0
SOLID
5
A6
100
AcDbEntity
8
dim
6
CONTINUOUS
62
7
370
0
100
AcDbTrace
10
20
20
-18.5
30
0
11
19.5837153422
21
-16
31
0
12
20.4162846578
22
-16
32
0
13
20.4162846578
23
-16
33
0
0
SOLID
5
A7
100
AcDbEntity
8
dim
6
CONTINUOUS
62
7
370
0
100
AcDbTrace
10
20
20
18.5
30
0
11
20.4162846578
21
16
31
0
12
19.5837153422
22
16
32
0
13
19.5837153422
23
16
33
0
0
MTEXT
5
A8
100
AcDbEntity
8
dim
6
CONTINUOUS
62
7
370
0
100
AcDbMText
10
18.125
20
2.29613691342e-16
30
0
40
2.5
41
5.83333333333
71
5
72
1
1
37.0
7
standard
210
0
220
0
230
1
50
90
73
2
44
1
0
LINE
5
A9
100
AcDbEntity
8
dim
6
CONTINUOUS
62
7
370
0
100
AcDbLine
10
19.375
20
-18.5
11
18.75
21
-18.5
0
LINE
5
AA
100
AcDbEntity
8
dim
6
CONTINUOUS
62
7
370
0
100
AcDbLine
10
19.375
20
18.5
11
18.75
21
18.5
0
ENDBLK
5
5F
330
5D
100
AcDbEntity
8
0
100
AcDbBlockEnd
0
BLOCK
5
61
330
60
100
AcDbEntity
8
0
100
AcDbBlockBegin
2
*D16
70
1
10
0
20
0
3
*D16
1

0
LINE
5
AB
100
AcDbEntity
8
dim
6
CONTINUOUS
62
7
370
0
100
AcDbLine
10
64.5554804791
20
9.33355856267
11
60.4445195209
21
21.6664414373
0
SOLID
5
AC
100
AcDbEntity
8
dim
6
CONTINUOUS
62
7
370
0
100
AcDbTrace
10
62.974341649
20
14.0769750529
30
0
11
64.1598333661
21
11.8369075752
31
0
12
63.369988762
22
11.5736260404
32
0
13
63.369988762
23
11.5736260404
33
0
0
SOLID
5
AD
100
AcDbEntity
8
dim
6
CONTINUOUS
62
7
370
0
100
AcDbTrace
10
62.025658351
20
16.9230249471
30
0
11
60.8401666339
21
19.1630924248
31
0
12
61.630011238
22
19.4263739596
32
0
13
61.630011238
23
19.4263739596
33
0
0
MTEXT
5
AE
100
AcDbEntity
8
dim
6
CONTINUOUS
62
7
370
0
100
AcDbMText
10
65.5217319864
20
12.3640746537
30
0
40
2.5
41
3.61111111111
71
5
72
1
1
 %%C3
7
standard
210
0
220
0
230
1
50
288.434948823
73
2
44
1
0
ENDBLK
5
62
330
60
100
AcDbEntity
8
0
100
AcDbBlockEnd
0
BLOCK
5
64
330
63
100
AcDbEntity
8
0
100
AcDbBlockBegin
2
*D18
70
1
10
0
20
0
3
*D18
1

0
LINE
5
AF
100
AcDbEntity
8
dim
6
CONTINUOUS
62
7
370
0
100
AcDbLine
10
67.0961940777
20
-10.9038059223
11
57.9038059223
21
-20.0961940777
0
SOLID
5
B0
100
AcDbEntity
8
dim
6
CONTINUOUS
62
7
370
0
100
AcDbTrace
10
63.5606601718
20
-14.4393398282
30
0
11
65.0340694203
21
-12.3772151708
31
0
12
65.6227848292
22
-12.9659305797
32
0
13
65.6227848292
23
-12.9659305797
33
0
0
SOLID
5
B1
100
AcDbEntity
8
dim
6
CONTINUOUS
62
7
370
0
100
AcDbTrace
10
61.4393398282
20
-16.5606601718
30
0
11
59.9659305797
21
-18.6227848292
31
0
12
59.3772151708
22
-18.0340694203
32
0
13
59.3772151708
23
-18.0340694203
33
0
0
MTEXT
5
B2
100
AcDbEntity
8
dim
6
CONTINUOUS
62
7
370
0
100
AcDbMText
10
63.9534972724
20
-11.3948522981
30
0
40
2.5
41
3.61111111111
71
5
72
1
1
 %%C3
7
standard
210
0
220
0
230
1
50
45
73
2
44
1
0
ENDBLK
5
65
330
63
100
AcDbEntity
8
0
100
AcDbBlockEnd
0
BLOCK
5
67
330
66
100
AcDbEntity
8
0
100
AcDbBlockBegin
2
*D12
70
1
10
0
20
0
3
*D12
1

0
LINE
5
B3
100
AcDbEntity
8
dim
6
CONTINUOUS
62
7
370
0
100
AcDbLine
10
-7
20
-20
11
7
21
-20
0
SOLID
5
B4
100
AcDbEntity
8
dim
6
CONTINUOUS
62
7
370
0
100
AcDbTrace
10
-7
20
-20
30
0
11
-4.5
21
-19.5837153422
31
0
12
-4.5
22
-20.4162846578
32
0
13
-4.5
23
-20.4162846578
33
0
0
SOLID
5
B5
100
AcDbEntity
8
dim
6
CONTINUOUS
62
7
370
0
100
AcDbTrace
10
7
20
-20
30
0
11
4.5
21
-20.4162846578
31
0
12
4.5
22
-19.5837153422
32
0
13
4.5
23
-19.5837153422
33
0
0
MTEXT
5
B6
100
AcDbEntity
8
dim
6
CONTINUOUS
62
7
370
0
100
AcDbMText
10
5.58896055521e-16
20
-18.125
30
0
40
2.5
41
5.55555555556
71
5
72
1
1
14.0
7
standard
210
0
220
0
230
1
50
0
73
2
44
1
0
LINE
5
B7
100
AcDbEntity
8
dim
6
CONTINUOUS
62
7
370
0
100
AcDbLine
10
-7
20
-29.375
11
-7
21
-18.75
0
LINE
5
B8
100
AcDbEntity
8
dim
6
CONTINUOUS
62
7
370
0
100
AcDbLine
10
7
20
-29.375
11
7
21
-18.75
0
ENDBLK
5
68
330
66
100
AcDbEntity
8
0
100
AcDbBlockEnd
0
BLOCK
5
6A
330
69
100
AcDbEntity
8
0
100
AcDbBlockBegin
2
*D3
70
1
10
0
20
0
3
*D3
1

0
LINE
5
B9
100
AcDbEntity
8
dim
6
CONTINUOUS
62
7
370
0
100
AcDbLine
10
-30
20
18.5
11
-30
21
-18.5
0
SOLID
5
BA
100
AcDbEntity
8
dim
6
CONTINUOUS
62
7
370
0
100
AcDbTrace
10
-30
20
18.5
30
0
11
-29.5837153422
21
16
31
0
12
-30.4162846578
22
16
32
0
13
-30.4162846578
23
16
33
0
0
SOLID
5
BB
100
AcDbEntity
8
dim
6
CONTINUOUS
62
7
370
0
100
AcDbTrace
10
-30
20
-18.5
30
0
11
-30.4162846578
21
-16
31
0
12
-29.5837153422
22
-16
32
0
13
-29.5837153422
23
-16
33
0
0
MTEXT
5
BC
100
AcDbEntity
8
dim
6
CONTINUOUS
62
7
370
0
100
AcDbMText
10
-31.875
20
2.29613691342e-16
30
0
40
2.5
41
5.83333333333
71
5
72
1
1
37.0
7
standard
210
0
220
0
230
1
50
90
73
2
44
1
0
LINE
5
BD
100
AcDbEntity
8
dim
6
CONTINUOUS
62
7
370
0
100
AcDbLine
10
-25.625
20
18.5
11
-31.25
21
18.5
0
LINE
5
BE
100
AcDbEntity
8
dim
6
CONTINUOUS
62
7
370
0
100
AcDbLine
10
-25.625
20
-18.5
11
-31.25
21
-18.5
0
ENDBLK
5
6B
330
69
100
AcDbEntity
8
0
100
AcDbBlockEnd
0
BLOCK
5
6D
330
6C
100
AcDbEntity
8
0
100
AcDbBlockBegin
2
*D13
70
1
10
0
20
0
3
*D13
1

0
LINE
5
BF
100
AcDbEntity
8
dim
6
CONTINUOUS
62
7
370
0
100
AcDbLine
10
-20
20
-42
11
20
21
-42
0
SOLID
5
C0
100
AcDbEntity
8
dim
6
CONTINUOUS
62
7
370
0
100
AcDbTrace
10
-20
20
-42
30
0
11
-17.5
21
-41.5837153422
31
0
12
-17.5
22
-42.4162846578
32
0
13
-17.5
23
-42.4162846578
33
0
0
SOLID
5
C1
100
AcDbEntity
8
dim
6
CONTINUOUS
62
7
370
0
100
AcDbTrace
10
20
20
-42
30
0
11
17.5
21
-42.4162846578
31
0
12
17.5
22
-41.5837153422
32
0
13
17.5
23
-41.5837153422
33
0
0
MTEXT
5
C2
100
AcDbEntity
8
dim
6
CONTINUOUS
62
7
370
0
100
AcDbMText
10
-3.43790683313e-15
20
-40.125
30
0
40
2.5
41
6.11111111111
71
5
72
1
1
40.0
7
standard
210
0
220
0
230
1
50
0
73
2
44
1
0
LINE
5
C3
100
AcDbEntity
8
dim
6
CONTINUOUS
62
7
370
0
100
AcDbLine
10
-20
20
-37.125
11
-20
21
-43.25
0
LINE
5
C4
100
AcDbEntity
8
dim
6
CONTINUOUS
62
7
370
0
100
AcDbLine
10
20
20
-37.125
11
20
21
-43.25
0
ENDBLK
5
6E
330
6C
100
AcDbEntity
8
0
100
AcDbBlockEnd
0
BLOCK
5
70
330
6F
100
AcDbEntity
8
0
100
AcDbBlockBegin
2
*D7
70
1
10
0
20
0
3
*D7
1

0
LINE
5
C5
100
AcDbEntity
8
dim
6
CONTINUOUS
62
7
370
0
100
AcDbLine
10
74.2655059848
20
15.5
11
74.2655059848
21
-15.5
0
SOLID
5
C6
100
AcDbEntity
8
dim
6
CONTINUOUS
62
7
370
0
100
AcDbTrace
10
74.2655059848
20
15.5
30
0
11
74.6817906426
21
13
31
0
12
73.849221327
22
13
32
0
13
73.849221327
23
13
33
0
0
SOLID
5
C7
100
AcDbEntity
8
dim
6
CONTINUOUS
62
7
370
0
100
AcDbTrace
10
74.2655059848
20
-15.5
30
0
11
73.849221327
21
-13
31
0
12
74.6817906426
22
-13
32
0
13
74.6817906426
23
-13
33
0
0
MTEXT
5
C8
100
AcDbEntity
8
dim
6
CONTINUOUS
62
7
370
0
100
AcDbMText
10
72.3905059848
20
-4.21127840716e-15
30
0
40
2.5
41
5.27777777778
71
5
72
1
1
31.0
7
standard
210
0
220
0
230
1
50
90
73
2
44
1
0
LINE
5
C9
100
AcDbEntity
8
dim
6
CONTINUOUS
62
7
370
0
100
AcDbLine
10
63.125
20
15.5
11
75.5155059848
21
15.5
0
LINE
5
CA
100
AcDbEntity
8
dim
6
CONTINUOUS
62
7
370
0
100
AcDbLine
10
63.125
20
-15.5
11
75.5155059848
21
-15.5
0
ENDBLK
5
71
330
6F
100
AcDbEntity
8
0
100
AcDbBlockEnd
0
BLOCK
5
73
330
72
100
AcDbEntity
8
0
100
AcDbBlockBegin
2
*D9
70
1
10
0
20
0
3
*D9
1

0
LINE
5
CB
100
AcDbEntity
8
dim
6
CONTINUOUS
62
7
370
0
100
AcDbLine
10
25
20
-31.4200217628
11
69
21
-31.4200217628
0
SOLID
5
CC
100
AcDbEntity
8
dim
6
CONTINUOUS
62
7
370
0
100
AcDbTrace
10
25
20
-31.4200217628
30
0
11
27.5
21
-31.003737105
31
0
12
27.5
22
-31.8363064206
32
0
13
27.5
23
-31.8363064206
33
0
0
SOLID
5
CD
100
AcDbEntity
8
dim
6
CONTINUOUS
62
7
370
0
100
AcDbTrace
10
69
20
-31.4200217628
30
0
11
66.5
21
-31.8363064206
31
0
12
66.5
22
-31.003737105
32
0
13
66.5
23
-31.003737105
33
0
0
MTEXT
5
CE
100
AcDbEntity
8
dim
6
CONTINUOUS
62
7
370
0
100
AcDbMText
10
47
20
-29.5450217628
30
0
40
2.5
41
6.38888888889
71
5
72
1
1
44.0
7
standard
210
0
220
0
230
1
50
0
73
2
44
1
0
LINE
5
CF
100
AcDbEntity
8
dim
6
CONTINUOUS
62
7
370
0
100
AcDbLine
10
25
20
-22.625
11
25
21
-32.6700217628
0
LINE
5
D0
100
AcDbEntity
8
dim
6
CONTINUOUS
62
7
370
0
100
AcDbLine
10
69
20
-22.625
11
69
21
-32.6700217628
0
ENDBLK
5
74
330
72
100
AcDbEntity
8
0
100
AcDbBlockEnd
0
BLOCK
5
76
330
75
100
AcDbEntity
8
0
100
AcDbBlockBegin
2
*D11
70
1
10
0
20
0
3
*D11
1

0
LINE
5
D1
100
AcDbEntity
8
dim
6
CONTINUOUS
62
7
370
0
100
AcDbLine
10
-18
20
-20
11
-2
21
-20
0
SOLID
5
D2
100
AcDbEntity
8
dim
6
CONTINUOUS
62
7
370
0
100
AcDbTrace
10
-13
20
-20
30
0
11
-15.5
21
-20.4162846578
31
0
12
-15.5
22
-19.5837153422
32
0
13
-15.5
23
-19.5837153422
33
0
0
SOLID
5
D3
100
AcDbEntity
8
dim
6
CONTINUOUS
62
7
370
0
100
AcDbTrace
10
-7
20
-20
30
0
11
-4.5
21
-19.5837153422
31
0
12
-4.5
22
-20.4162846578
32
0
13
-4.5
23
-20.4162846578
33
0
0
MTEXT
5
D4
100
AcDbEntity
8
dim
6
CONTINUOUS
62
7
370
0
100
AcDbMText
10
-10
20
-18.125
30
0
40
2.5
41
3.88888888889
71
5
72
1
1
6.0
7
standard
210
0
220
0
230
1
50
0
73
2
44
1
0
LINE
5
D5
100
AcDbEntity
8
dim
6
CONTINUOUS
62
7
370
0
100
AcDbLine
10
-13
20
-29.375
11
-13
21
-18.75
0
LINE
5
D6
100
AcDbEntity
8
dim
6
CONTINUOUS
62
7
370
0
100
AcDbLine
10
-7
20
-29.375
11
-7
21
-18.75
0
ENDBLK
5
77
330
75
100
AcDbEntity
8
0
100
AcDbBlockEnd
0
BLOCK
5
79
330
78
100
AcDbEntity
8
0
100
AcDbBlockBegin
2
*D5
70
1
10
0
20
0
3
*D5
1

0
LINE
5
D7
100
AcDbEntity
8
dim
6
CONTINUOUS
62
7
370
0
100
AcDbLine
10
80
20
22
11
80
21
-22
0
SOLID
5
D8
100
AcDbEntity
8
dim
6
CONTINUOUS
62
7
370
0
100
AcDbTrace
10
80
20
22
30
0
11
80.4162846578
21
19.5
31
0
12
79.5837153422
22
19.5
32
0
13
79.5837153422
23
19.5
33
0
0
SOLID
5
D9
100
AcDbEntity
8
dim
6
CONTINUOUS
62
7
370
0
100
AcDbTrace
10
80
20
-22
30
0
11
79.5837153422
21
-19.5
31
0
12
80.4162846578
22
-19.5
32
0
13
80.4162846578
23
-19.5
33
0
0
MTEXT
5
DA
100
AcDbEntity
8
dim
6
CONTINUOUS
62
7
370
0
100
AcDbMText
10
78.125
20
-3.32309998746e-15
30
0
40
2.5
41
6.38888888889
71
5
72
1
1
44.0
7
standard
210
0
220
0
230
1
50
90
73
2
44
1
0
LINE
5
DB
100
AcDbEntity
8
dim
6
CONTINUOUS
62
7
370
0
100
AcDbLine
10
69.625
20
22
11
81.25
21
22
0
LINE
5
DC
100
AcDbEntity
8
dim
6
CONTINUOUS
62
7
370
0
100
AcDbLine
10
69.625
20
-22
11
81.25
21
-22
0
ENDBLK
5
7A
330
78
100
AcDbEntity
8
0
100
AcDbBlockEnd
0
BLOCK
5
7C
330
7B
100
AcDbEntity
8
0
100
AcDbBlockBegin
2
*D15
70
1
10
0
20
0
3
*D15
1

0
LINE
5
DD
100
AcDbEntity
8
dim
6
CONTINUOUS
62
7
370
0
100
AcDbLine
10
25.126225608
20
14.2252451216
11
37.873774392
21
16.7747548784
0
SOLID
5
DE
100
AcDbEntity
8
dim
6
CONTINUOUS
62
7
370
0
100
AcDbTrace
10
30.0291289865
20
15.2058257973
30
0
11
27.6593174354
21
14.3073347684
31
0
12
27.496037159
22
15.1237361504
32
0
13
27.496037159
23
15.1237361504
33
0
0
SOLID
5
DF
100
AcDbEntity
8
dim
6
CONTINUOUS
62
7
370
0
100
AcDbTrace
10
32.9708710135
20
15.7941742027
30
0
11
35.3406825646
21
16.6926652316
31
0
12
35.503962841
22
15.8762638496
32
0
13
35.503962841
23
15.8762638496
33
0
0
MTEXT
5
E0
100
AcDbEntity
8
dim
6
CONTINUOUS
62
7
370
0
100
AcDbMText
10
34.9865090691
20
18.1094341314
30
0
40
2.5
41
3.61111111111
71
5
72
1
1
 %%C3
7
standard
210
0
220
0
230
1
50
11.309932474
73
2
44
1
0
ENDBLK
5
7D
330
7B
100
AcDbEntity
8
0
100
AcDbBlockEnd
0
BLOCK
5
7F
330
7E
100
AcDbEntity
8
0
100
AcDbBlockBegin
2
PAD002054011_PROJ
70
0
10
0
20
0
3
PAD002054011_PROJ
1

0
LINE
5
E1
100
AcDbEntity
8
0
6
ByLayer
62
0
370
-1
100
AcDbLine
10
-18.5
20
-20
11
-18.5
21
-25
0
LINE
5
E2
100
AcDbEntity
8
0
6
ByLayer
62
0
370
-1
100
AcDbLine
10
-18.5
20
-25
11
-22
21
-25
0
LINE
5
E3
100
AcDbEntity
8
0
6
ByLayer
62
0
370
-1
100
AcDbLine
10
-22
20
-25
11
-22
21
-69
0
LINE
5
E4
100
AcDbEntity
8
0
6
ByLayer
62
0
370
-1
100
AcDbLine
10
-22
20
-69
11
22
21
-69
0
LINE
5
E5
100
AcDbEntity
8
0
6
ByLayer
62
0
370
-1
100
AcDbLine
10
22
20
-69
11
22
21
-25
0
LINE
5
E6
100
AcDbEntity
8
0
6
ByLayer
62
0
370
-1
100
AcDbLine
10
22
20
-25
11
18.5
21
-25
0
LINE
5
E7
100
AcDbEntity
8
0
6
ByLayer
62
0
370
-1
100
AcDbLine
10
18.5
20
-25
11
18.5
21
-20
0
LINE
5
E8
100
AcDbEntity
8
0
6
ByLayer
62
0
370
-1
100
AcDbLine
10
18.5
20
-20
11
36.5
21
-20
0
LINE
5
E9
100
AcDbEntity
8
0
6
ByLayer
62
0
370
-1
100
AcDbLine
10
36.5
20
-20
11
36.5
21
-13
0
LINE
5
EA
100
AcDbEntity
8
0
6
ByLayer
62
0
370
-1
100
AcDbLine
10
36.5
20
-13
11
30
21
-13
0
LINE
5
EB
100
AcDbEntity
8
0
6
ByLayer
62
0
370
-1
100
AcDbLine
10
30
20
-13
11
30
21
-7
0
LINE
5
EC
100
AcDbEntity
8
0
6
ByLayer
62
0
370
-1
100
AcDbLine
10
30
20
-7
11
36.5
21
-7
0
LINE
5
ED
100
AcDbEntity
8
0
6
ByLayer
62
0
370
-1
100
AcDbLine
10
36.5
20
-7
11
36.5
21
7
0
LINE
5
EE
100
AcDbEntity
8
0
6
ByLayer
62
0
370
-1
100
AcDbLine
10
36.5
20
7
11
30
21
7
0
LINE
5
EF
100
AcDbEntity
8
0
6
ByLayer
62
0
370
-1
100
AcDbLine
10
30
20
7
11
30
21
13
0
LINE
5
F0
100
AcDbEntity
8
0
6
ByLayer
62
0
370
-1
100
AcDbLine
10
30
20
13
11
36.5
21
13
0
LINE
5
F1
100
AcDbEntity
8
0
6
ByLayer
62
0
370
-1
100
AcDbLine
10
36.5
20
13
11
36.5
21
20
0
LINE
5
F2
100
AcDbEntity
8
0
6
ByLayer
62
0
370
-1
100
AcDbLine
10
36.5
20
20
11
18.5
21
20
0
LINE
5
F3
100
AcDbEntity
8
0
6
ByLayer
62
0
370
-1
100
AcDbLine
10
18.5
20
20
11
18.5
21
25
0
LINE
5
F4
100
AcDbEntity
8
0
6
ByLayer
62
0
370
-1
100
AcDbLine
10
18.5
20
25
11
-18.5
21
25
0
LINE
5
F5
100
AcDbEntity
8
0
6
ByLayer
62
0
370
-1
100
AcDbLine
10
-18.5
20
25
11
-18.5
21
20
0
LINE
5
F6
100
AcDbEntity
8
0
6
ByLayer
62
0
370
-1
100
AcDbLine
10
-18.5
20
20
11
-36.5
21
20
0
LINE
5
F7
100
AcDbEntity
8
0
6
ByLayer
62
0
370
-1
100
AcDbLine
10
-36.5
20
20
11
-36.5
21
13
0
LINE
5
F8
100
AcDbEntity
8
0
6
ByLayer
62
0
370
-1
100
AcDbLine
10
-36.5
20
13
11
-30
21
13
0
LINE
5
F9
100
AcDbEntity
8
0
6
ByLayer
62
0
370
-1
100
AcDbLine
10
-30
20
13
11
-30
21
7
0
LINE
5
FA
100
AcDbEntity
8
0
6
ByLayer
62
0
370
-1
100
AcDbLine
10
-30
20
7
11
-36.5
21
7
0
LINE
5
FB
100
AcDbEntity
8
0
6
ByLayer
62
0
370
-1
100
AcDbLine
10
-36.5
20
7
11
-36.5
21
-7
0
LINE
5
FC
100
AcDbEntity
8
0
6
ByLayer
62
0
370
-1
100
AcDbLine
10
-36.5
20
-7
11
-30
21
-7
0
LINE
5
FD
100
AcDbEntity
8
0
6
ByLayer
62
0
370
-1
100
AcDbLine
10
-30
20
-7
11
-30
21
-13
0
LINE
5
FE
100
AcDbEntity
8
0
6
ByLayer
62
0
370
-1
100
AcDbLine
10
-30
20
-13
11
-36.5
21
-13
0
LINE
5
FF
100
AcDbEntity
8
0
6
ByLayer
62
0
370
-1
100
AcDbLine
10
-36.5
20
-13
11
-36.5
21
-20
0
LINE
5
100
100
AcDbEntity
8
0
6
ByLayer
62
0
370
-1
100
AcDbLine
10
-36.5
20
-20
11
-18.5
21
-20
0
CIRCLE
5
101
100
AcDbEntity
8
0
6
ByLayer
62
0
370
-1
100
AcDbCircle
10
-1.33226762955e-15
20
-47
40
11
0
CIRCLE
5
102
100
AcDbEntity
8
0
6
ByLayer
62
0
370
-1
100
AcDbCircle
10
-1.33226762955e-15
20
0
40
4
0
CIRCLE
5
103
100
AcDbEntity
8
0
6
ByLayer
62
0
370
-1
100
AcDbCircle
10
15.5
20
-31.5
40
1.5
0
CIRCLE
5
104
100
AcDbEntity
8
0
6
ByLayer
62
0
370
-1
100
AcDbCircle
10
-15.5
20
-31.5
40
1.5
0
CIRCLE
5
105
100
AcDbEntity
8
0
6
ByLayer
62
0
370
-1
100
AcDbCircle
10
-15.5
20
-62.5
40
1.5
0
CIRCLE
5
106
100
AcDbEntity
8
0
6
ByLayer
62
0
370
-1
100
AcDbCircle
10
15.5
20
-62.5
40
1.5
0
ENDBLK
5
80
330
7E
100
AcDbEntity
8
0
100
AcDbBlockEnd
0
ENDSEC
0
SECTION
2
ENTITIES
0
INSERT
5
107
100
AcDbEntity
8
0
6
ByLayer
62
256
370
-1
100
AcDbBlockReference
2
PAD002054011_PROJ
10
0
20
0
30
0
41
1
42
1
43
0
50
90
70
1
71
1
44
0
45
0
0
LINE
5
108
100
AcDbEntity
8
base
6
ByLayer
62
256
370
-1
100
AcDbLine
10
0
20
40
11
0
21
-40
0
LINE
5
109
100
AcDbEntity
8
base
6
ByLayer
62
256
370
-1
100
AcDbLine
10
-30
20
0
11
70
21
0
0
LINE
5
10A
100
AcDbEntity
8
base
6
ByLayer
62
256
370
-1
100
AcDbLine
10
47
20
12
11
47
21
-12
0
LINE
5
10B
100
AcDbEntity
8
base
6
ByLayer
62
256
370
-1
100
AcDbLine
10
31.5
20
15.5
11
62.5
21
15.5
0
LINE
5
10C
100
AcDbEntity
8
base
6
ByLayer
62
256
370
-1
100
AcDbLine
10
62.5
20
15.5
11
62.5
21
-15.5
0
LINE
5
10D
100
AcDbEntity
8
base
6
ByLayer
62
256
370
-1
100
AcDbLine
10
62.5
20
-15.5
11
31.5
21
-15.5
0
LINE
5
10E
100
AcDbEntity
8
base
6
ByLayer
62
256
370
-1
100
AcDbLine
10
31.5
20
-15.5
11
31.5
21
15.5
0
DIMENSION
5
10F
100
AcDbEntity
8
dim
6
ByLayer
62
256
370
-1
100
AcDbDimension
2
*D1
10
3.577708764
20
1.788854382
30
0
11
-0.838525491562
21
1.67705098312
31
0
70
35
71
5
72
0
3
Standard
53
0
210
0
220
0
230
1
100
AcDbDiametricDimension
15
-3.577708764
25
-1.788854382
35
0
40
0
0
DIMENSION
5
110
100
AcDbEntity
8
dim
6
ByLayer
62
256
370
-1
100
AcDbDimension
2
*D2
10
57.2132435997
20
4.0852974399
30
0
11
46.3036424818
21
1.74089379541
31
0
70
35
71
5
72
0
3
Standard
53
0
210
0
220
0
230
1
100
AcDbDiametricDimension
15
36.7867564003
25
-4.0852974399
35
0
40
0
0
DIMENSION
5
111
100
AcDbEntity
8
dim
6
ByLayer
62
256
370
-1
100
AcDbDimension
2
*D3
10
-30
20
-18.5
30
0
11
-31.875
21
2.29613691342e-16
31
0
70
32
71
5
72
0
3
Standard
53
0
210
0
220
0
230
1
100
AcDbAlignedDimension
13
-25
23
18.5
33
0
14
-25
24
-18.5
34
0
50
90
100
AcDbRotatedDimension
0
DIMENSION
5
112
100
AcDbEntity
8
dim
6
ByLayer
62
256
370
-1
100
AcDbDimension
2
*D4
10
-40
20
-36.5
30
0
11
-41.875
21
2.29613691342e-16
31
0
70
32
71
5
72
0
3
Standard
53
0
210
0
220
0
230
1
100
AcDbAlignedDimension
13
-20
23
36.5
33
0
14
-20
24
-36.5
34
0
50
90
100
AcDbRotatedDimension
0
DIMENSION
5
113
100
AcDbEntity
8
dim
6
ByLayer
62
256
370
-1
100
AcDbDimension
2
*D5
10
80
20
-22
30
0
11
78.125
21
-3.32309998746e-15
31
0
70
32
71
5
72
0
3
Standard
53
0
210
0
220
0
230
1
100
AcDbAlignedDimension
13
69
23
22
33
0
14
69
24
-22
34
0
50
90
100
AcDbRotatedDimension
0
DIMENSION
5
114
100
AcDbEntity
8
dim
6
ByLayer
62
256
370
-1
100
AcDbDimension
2
*D6
10
20
20
18.5
30
0
11
18.125
21
2.29613691342e-16
31
0
70
32
71
5
72
0
3
Standard
53
0
210
0
220
0
230
1
100
AcDbAlignedDimension
13
20
23
-18.5
33
0
14
20
24
18.5
34
0
50
90
100
AcDbRotatedDimension
0
DIMENSION
5
115
100
AcDbEntity
8
dim
6
ByLayer
62
256
370
-1
100
AcDbDimension
2
*D7
10
74.2655059848
20
-15.5
30
0
11
72.3905059848
21
-4.21127840716e-15
31
0
70
32
71
5
72
0
3
Standard
53
0
210
0
220
0
230
1
100
AcDbAlignedDimension
13
62.5
23
15.5
33
0
14
62.5
24
-15.5
34
0
50
90
100
AcDbRotatedDimension
0
DIMENSION
5
116
100
AcDbEntity
8
dim
6
ByLayer
62
256
370
-1
100
AcDbDimension
2
*D8
10
62.5
20
-26.6594124048
30
0
11
47
21
-24.7844124048
31
0
70
32
71
5
72
0
3
Standard
53
0
210
0
220
0
230
1
100
AcDbAlignedDimension
13
31.5
23
-15.5
33
0
14
62.5
24
-15.5
34
0
100
AcDbRotatedDimension
0
DIMENSION
5
117
100
AcDbEntity
8
dim
6
ByLayer
62
256
370
-1
100
AcDbDimension
2
*D9
10
69
20
-31.4200217628
30
0
11
47
21
-29.5450217628
31
0
70
32
71
5
72
0
3
Standard
53
0
210
0
220
0
230
1
100
AcDbAlignedDimension
13
25
23
-22
33
0
14
69
24
-22
34
0
100
AcDbRotatedDimension
0
DIMENSION
5
118
100
AcDbEntity
8
dim
6
ByLayer
62
256
370
-1
100
AcDbDimension
2
*D10
10
-30
20
-36.5
30
0
11
-31.875
21
-33.25
31
0
70
32
71
5
72
0
3
Standard
53
0
210
0
220
0
230
1
100
AcDbAlignedDimension
13
-13
23
-30
33
0
14
-13
24
-36.5
34
0
50
90
100
AcDbRotatedDimension
0
DIMENSION
5
119
100
AcDbEntity
8
dim
6
ByLayer
62
256
370
-1
100
AcDbDimension
2
*D11
10
-7
20
-20
30
0
11
-10
21
-18.125
31
0
70
32
71
5
72
0
3
Standard
53
0
210
0
220
0
230
1
100
AcDbAlignedDimension
13
-13
23
-30
33
0
14
-7
24
-30
34
0
100
AcDbRotatedDimension
0
DIMENSION
5
11A
100
AcDbEntity
8
dim
6
ByLayer
62
256
370
-1
100
AcDbDimension
2
*D12
10
7
20
-20
30
0
11
5.58896055521e-16
21
-18.125
31
0
70
32
71
5
72
0
3
Standard
53
0
210
0
220
0
230
1
100
AcDbAlignedDimension
13
-7
23
-30
33
0
14
7
24
-30
34
0
100
AcDbRotatedDimension
0
DIMENSION
5
11B
100
AcDbEntity
8
dim
6
ByLayer
62
256
370
-1
100
AcDbDimension
2
*D13
10
20
20
-42
30
0
11
-3.43790683313e-15
21
-40.125
31
0
70
32
71
5
72
0
3
Standard
53
0
210
0
220
0
230
1
100
AcDbAlignedDimension
13
-20
23
-36.5
33
0
14
20
24
-36.5
34
0
100
AcDbRotatedDimension
0
DIMENSION
5
11C
100
AcDbEntity
8
dim
6
ByLayer
62
256
370
-1
100
AcDbDimension
2
*D14
10
25
20
-48
30
0
11
-1.66154999373e-15
21
-46.125
31
0
70
32
71
5
72
0
3
Standard
53
0
210
0
220
0
230
1
100
AcDbAlignedDimension
13
-25
23
-18.5
33
0
14
25
24
-18.5
34
0
100
AcDbRotatedDimension
0
DIMENSION
5
11D
100
AcDbEntity
8
dim
6
ByLayer
62
256
370
-1
100
AcDbDimension
2
*D15
10
30.0291289865
20
15.2058257973
30
0
11
31.1322822466
21
17.3385887669
31
0
70
35
1
 %%C3
71
5
3
Standard
53
0
210
0
220
0
230
1
100
AcDbDiametricDimension
15
32.9708710135
25
15.7941742027
35
0
40
0
0
DIMENSION
5
11E
100
AcDbEntity
8
dim
6
ByLayer
62
256
370
-1
100
AcDbDimension
2
*D16
10
62.974341649
20
14.0769750529
30
0
11
64.2787811838
21
16.0929270613
31
0
70
35
1
 %%C3
71
5
3
Standard
53
0
210
0
220
0
230
1
100
AcDbDiametricDimension
15
62.025658351
25
16.9230249471
35
0
40
0
0
DIMENSION
5
11F
100
AcDbEntity
8
dim
6
ByLayer
62
256
370
-1
100
AcDbDimension
2
*D17
10
30.0769750529
20
-15.974341649
30
0
11
30.9070729387
21
-13.7212188162
31
0
70
35
1
 %%C3
71
5
3
Standard
53
0
210
0
220
0
230
1
100
AcDbDiametricDimension
15
32.9230249471
25
-15.025658351
35
0
40
0
0
DIMENSION
5
120
100
AcDbEntity
8
dim
6
ByLayer
62
256
370
-1
100
AcDbDimension
2
*D18
10
63.5606601718
20
-14.4393398282
30
0
11
61.1741747853
21
-14.1741747853
31
0
70
35
1
 %%C3
71
5
3
Standard
53
0
210
0
220
0
230
1
100
AcDbDiametricDimension
15
61.4393398282
25
-16.5606601718
35
0
40
0
0
ENDSEC
0
SECTION
2
OBJECTS
0
DICTIONARY
5
C
330
0
100
AcDbDictionary
281
1
3
ACAD_GROUP
350
D
0
DICTIONARY
5
D
330
C
100
AcDbDictionary
281
1
0
ENDSEC
0
EOF
