<?xml version="1.0" encoding="UTF-8" standalone="no"?>
<!-- Created with Inkscape (http://www.inkscape.org/) -->

<svg
   xmlns:dc="http://purl.org/dc/elements/1.1/"
   xmlns:cc="http://creativecommons.org/ns#"
   xmlns:rdf="http://www.w3.org/1999/02/22-rdf-syntax-ns#"
   xmlns:svg="http://www.w3.org/2000/svg"
   xmlns="http://www.w3.org/2000/svg"
   xmlns:sodipodi="http://sodipodi.sourceforge.net/DTD/sodipodi-0.dtd"
   xmlns:inkscape="http://www.inkscape.org/namespaces/inkscape"
   width="744.09448819"
   height="1052.3622047"
   id="svg2"
   version="1.1"
   inkscape:version="0.48.3.1 r9886"
   sodipodi:docname="parts18.svg">
  <defs
     id="defs4">
    <marker
       orient="auto"
       markerHeight="3"
       markerWidth="4"
       markerUnits="strokeWidth"
       refY="5"
       refX="10"
       viewBox="0 0 10 10"
       id="ArrowStart">
      <path
         id="path3089"
         d="M 10 0 L 0 5 L 10 10 z" />
    </marker>
    <marker
       orient="auto"
       markerHeight="3"
       markerWidth="4"
       markerUnits="strokeWidth"
       refY="5"
       refX="0"
       viewBox="0 0 10 10"
       id="ArrowEnd">
      <path
         id="path3086"
         d="M 0 0 L 10 5 L 0 10 z" />
    </marker>
    <marker
       orient="auto"
       markerHeight="3"
       markerWidth="4"
       markerUnits="strokeWidth"
       refY="5"
       refX="10"
       viewBox="0 0 10 10"
       id="ArrowStart-2">
      <path
         id="path3267"
         d="M 10 0 L 0 5 L 10 10 z" />
    </marker>
    <marker
       orient="auto"
       markerHeight="3"
       markerWidth="4"
       markerUnits="strokeWidth"
       refY="5"
       refX="0"
       viewBox="0 0 10 10"
       id="ArrowEnd-8">
      <path
         id="path3264"
         d="M 0 0 L 10 5 L 0 10 z" />
    </marker>
    <marker
       orient="auto"
       markerHeight="3"
       markerWidth="4"
       markerUnits="strokeWidth"
       refY="5"
       refX="10"
       viewBox="0 0 10 10"
       id="ArrowStart-6">
      <path
         id="path4185"
         d="M 10 0 L 0 5 L 10 10 z" />
    </marker>
    <marker
       orient="auto"
       markerHeight="3"
       markerWidth="4"
       markerUnits="strokeWidth"
       refY="5"
       refX="0"
       viewBox="0 0 10 10"
       id="ArrowEnd-9">
      <path
         id="path4182"
         d="M 0 0 L 10 5 L 0 10 z" />
    </marker>
    <marker
       orient="auto"
       markerHeight="3"
       markerWidth="4"
       markerUnits="strokeWidth"
       refY="5"
       refX="10"
       viewBox="0 0 10 10"
       id="ArrowStart-28">
      <path
         id="path4337"
         d="M 10 0 L 0 5 L 10 10 z" />
    </marker>
    <marker
       orient="auto"
       markerHeight="3"
       markerWidth="4"
       markerUnits="strokeWidth"
       refY="5"
       refX="0"
       viewBox="0 0 10 10"
       id="ArrowEnd-1">
      <path
         id="path4334"
         d="M 0 0 L 10 5 L 0 10 z" />
    </marker>
    <marker
       orient="auto"
       markerHeight="3"
       markerWidth="4"
       markerUnits="strokeWidth"
       refY="5"
       refX="10"
       viewBox="0 0 10 10"
       id="ArrowStart-3">
      <path
         id="path4529"
         d="M 10 0 L 0 5 L 10 10 z" />
    </marker>
    <marker
       orient="auto"
       markerHeight="3"
       markerWidth="4"
       markerUnits="strokeWidth"
       refY="5"
       refX="0"
       viewBox="0 0 10 10"
       id="ArrowEnd-5">
      <path
         id="path4526"
         d="M 0 0 L 10 5 L 0 10 z" />
    </marker>
    <marker
       orient="auto"
       markerHeight="3"
       markerWidth="4"
       markerUnits="strokeWidth"
       refY="5"
       refX="10"
       viewBox="0 0 10 10"
       id="ArrowStart-9">
      <path
         id="path3089-6"
         d="M 10 0 L 0 5 L 10 10 z" />
    </marker>
    <marker
       orient="auto"
       markerHeight="3"
       markerWidth="4"
       markerUnits="strokeWidth"
       refY="5"
       refX="0"
       viewBox="0 0 10 10"
       id="ArrowEnd-50">
      <path
         id="path3086-6"
         d="M 0 0 L 10 5 L 0 10 z" />
    </marker>
    <marker
       orient="auto"
       markerHeight="3"
       markerWidth="4"
       markerUnits="strokeWidth"
       refY="5"
       refX="10"
       viewBox="0 0 10 10"
       id="ArrowStart-7">
      <path
         id="path3241"
         d="M 10 0 L 0 5 L 10 10 z" />
    </marker>
    <marker
       orient="auto"
       markerHeight="3"
       markerWidth="4"
       markerUnits="strokeWidth"
       refY="5"
       refX="0"
       viewBox="0 0 10 10"
       id="ArrowEnd-58">
      <path
         id="path3238"
         d="M 0 0 L 10 5 L 0 10 z" />
    </marker>
    <marker
       orient="auto"
       markerHeight="3"
       markerWidth="4"
       markerUnits="strokeWidth"
       refY="5"
       refX="10"
       viewBox="0 0 10 10"
       id="ArrowStart-96">
      <path
         id="path3449"
         d="M 10 0 L 0 5 L 10 10 z" />
    </marker>
    <marker
       orient="auto"
       markerHeight="3"
       markerWidth="4"
       markerUnits="strokeWidth"
       refY="5"
       refX="0"
       viewBox="0 0 10 10"
       id="ArrowEnd-3">
      <path
         id="path3446"
         d="M 0 0 L 10 5 L 0 10 z" />
    </marker>
    <marker
       orient="auto"
       markerHeight="3"
       markerWidth="4"
       markerUnits="strokeWidth"
       refY="5"
       refX="10"
       viewBox="0 0 10 10"
       id="ArrowStart-37">
      <path
         id="path4063"
         d="M 10 0 L 0 5 L 10 10 z" />
    </marker>
    <marker
       orient="auto"
       markerHeight="3"
       markerWidth="4"
       markerUnits="strokeWidth"
       refY="5"
       refX="0"
       viewBox="0 0 10 10"
       id="ArrowEnd-4">
      <path
         id="path4060"
         d="M 0 0 L 10 5 L 0 10 z" />
    </marker>
    <marker
       orient="auto"
       markerHeight="3"
       markerWidth="4"
       markerUnits="strokeWidth"
       refY="5"
       refX="10"
       viewBox="0 0 10 10"
       id="ArrowStart-1">
      <path
         id="path3757"
         d="M 10 0 L 0 5 L 10 10 z" />
    </marker>
    <marker
       orient="auto"
       markerHeight="3"
       markerWidth="4"
       markerUnits="strokeWidth"
       refY="5"
       refX="0"
       viewBox="0 0 10 10"
       id="ArrowEnd-80">
      <path
         id="path3754"
         d="M 0 0 L 10 5 L 0 10 z" />
    </marker>
  </defs>
  <sodipodi:namedview
     id="base"
     pagecolor="#ffffff"
     bordercolor="#666666"
     borderopacity="1.0"
     inkscape:pageopacity="0.0"
     inkscape:pageshadow="2"
     inkscape:zoom="0.35"
     inkscape:cx="264.37843"
     inkscape:cy="694.01931"
     inkscape:document-units="px"
     inkscape:current-layer="layer1"
     showgrid="false"
     inkscape:window-width="1318"
     inkscape:window-height="715"
     inkscape:window-x="98"
     inkscape:window-y="102"
     inkscape:window-maximized="0" />
  <metadata
     id="metadata7">
    <rdf:RDF>
      <cc:Work
         rdf:about="">
        <dc:format>image/svg+xml</dc:format>
        <dc:type
           rdf:resource="http://purl.org/dc/dcmitype/StillImage" />
        <dc:title></dc:title>
      </cc:Work>
    </rdf:RDF>
  </metadata>
  <g
     inkscape:label="Layer 1"
     inkscape:groupmode="layer"
     id="layer1">
    <g
       style="fill-rule:evenodd"
       id="g3208"
       transform="matrix(1.25,0,0,1.25,226.70572,99.508723)">
      <path
         inkscape:connector-curvature="0"
         id="path3095"
         d="m 29.4902,17.886 c 5.8705,0 10.6313,4.7608 10.6313,10.6312 0,5.8704 -4.7608,10.6312 -10.6313,10.6312 -5.8704,0 -10.6312,-4.7608 -10.6312,-10.6312 0,-5.8704 4.7608,-10.6312 10.6312,-10.6312 z m 1.6066,25.3854 -2.825,3e-4 -0.0222,31.9286 -20.00825,0 0,-46.7644 C 7.79512,16.8475 18.2999,7.16028 29.5566,7.16028 c 11.7411,0 21.2625,9.52132 21.2625,21.26252 l -0.0528,46.7775 -19.6817,0 0.0122,-31.9289 z"
         style="fill:#00ccff;stroke:#000000" />
    </g>
    <g
       style="fill-rule:evenodd"
       id="g3329"
       transform="matrix(1.25,0,0,1.25,-1.3203509,-19.019501)">
      <path
         inkscape:connector-curvature="0"
         id="path3279"
         d="m 48.2007,200.322 c 5.8704,0 10.6312,4.761 10.6312,10.631 0,5.871 -4.7608,10.632 -10.6312,10.632 -5.8705,0 -10.6313,-4.761 -10.6313,-10.632 0,-5.87 4.7608,-10.631 10.6313,-10.631 z m 42.6072,-71.215 c 5.8704,0 10.6311,4.761 10.6311,10.631 0,5.871 -4.7607,10.632 -10.6311,10.632 -5.8704,0 -10.6313,-4.761 -10.6313,-10.632 0,-5.87 4.7609,-10.631 10.6313,-10.631 z m 10.7641,-11.478 6.54,11.264 c 8.204,13.427 -0.822,31.821 -17.3041,31.821 l -14.2317,0.059 -0.0014,129.242 -0.0015,56.714 -56.6999,0 0.0014,-56.714 0.0014,-129.15 c 0,-38.284 20.901,-73.6052 53.4763,-92.4125 l 67.9815,-39.2209 28.35,49.1039 -68.112,39.2935 z"
         style="fill:#00ccff;stroke:#000000" />
    </g>
    <g
       style="fill-rule:evenodd"
       id="g3450"
       transform="matrix(1.25,0,0,1.25,251.37543,-4.0307184)">
      <path
         inkscape:connector-curvature="0"
         id="path4191"
         d="m 281.152,98.0915 -47.293,27.4925 -3.869,-0.022 -18.208,-13.641 -57.763,0 -18.208,13.641 -4.661,0 -47.3582,-27.5862 -46.7542,-26.9931 25.515,-44.1931 47.0634,27.104 47.68,27.7076 50.454,0 47.684,-27.6526 47.299,-27.184 25.515,44.1931 -47.096,27.1338 z M 267.475,65.6328 c 5.87,0 10.631,4.7605 10.631,10.6312 0,5.8705 -4.761,10.6313 -10.631,10.6313 -5.871,0 -10.631,-4.7608 -10.631,-10.6313 0,-5.8707 4.76,-10.6312 10.631,-10.6312 z M 97.4713,65.586 c 5.8707,0 10.6317,4.7605 10.6317,10.6312 0,5.8704 -4.761,10.6312 -10.6317,10.6312 -5.8708,0 -10.6313,-4.7608 -10.6313,-10.6312 0,-5.8707 4.7605,-10.6312 10.6313,-10.6312 z"
         style="fill:#00ccff;stroke:#000000" />
    </g>
    <g
       style="fill-rule:evenodd"
       id="g3580"
       transform="matrix(1.25,0,0,1.25,114.59203,184.03393)">
      <path
         inkscape:connector-curvature="0"
         id="path4369"
         d="m 131.60967,67.614692 c 17.22,0 31.185,13.964 31.185,31.185 0,17.219998 -13.965,31.184998 -31.185,31.184998 -17.22,0 -31.185,-13.965 -31.185,-31.184998 0,-17.221 13.965,-31.185 31.185,-31.185 z m -107.729901,-46.7777 215.459901,0 0,155.924698 -97.042,0 c -0.003,-5.899 -4.788,-10.682 -10.688,-10.682 -5.9,0 -10.685,4.783 -10.688,10.682 l -97.041901,0 0,-155.924698 z m 63.7875,30.4762 c 1.9567,0 3.5437,1.587 3.5437,3.5438 0,1.9567 -1.587,3.5437 -3.5437,3.5437 -1.9568,0 -3.5438,-1.587 -3.5438,-3.5437 0,-1.9568 1.587,-3.5438 3.5438,-3.5438 z m 87.885401,0 c 1.956,0 3.543,1.587 3.543,3.5438 0,1.9567 -1.587,3.5437 -3.543,3.5437 -1.957,0 -3.544,-1.587 -3.544,-3.5437 0,-1.9568 1.587,-3.5438 3.544,-3.5438 z M 87.667269,139.19869 c 1.9567,0 3.5437,1.587 3.5437,3.543 0,1.957 -1.587,3.544 -3.5437,3.544 -1.9568,0 -3.5438,-1.587 -3.5438,-3.544 0,-1.956 1.587,-3.543 3.5438,-3.543 z m 87.885401,0 c 1.956,0 3.543,1.587 3.543,3.543 0,1.957 -1.587,3.544 -3.543,3.544 -1.957,0 -3.544,-1.587 -3.544,-3.544 0,-1.956 1.587,-3.543 3.544,-3.543 z"
         style="fill:#00ccff;stroke:#000000;stroke-width:1" />
    </g>
    <g
       style="fill-rule:evenodd"
       id="g3701"
       transform="matrix(1.25,0,0,1.25,126.33431,423.185)">
      <path
         inkscape:connector-curvature="0"
         id="path4535"
         d="m 122.2159,126.33103 c 2.739,0 4.961,2.222 4.961,4.961 0,2.74 -2.222,4.962 -4.961,4.962 -2.74,0 -4.961,-2.222 -4.961,-4.962 0,-2.739 2.221,-4.961 4.961,-4.961 z m -40.092997,-40.093 c 2.74,0 4.961,2.222 4.961,4.962 0,2.739 -2.221,4.961 -4.961,4.961 -2.74,0 -4.961,-2.222 -4.961,-4.961 0,-2.74 2.221,-4.962 4.961,-4.962 z m 80.185997,0 c 2.74,0 4.961,2.222 4.961,4.962 0,2.739 -2.221,4.961 -4.961,4.961 -2.74,0 -4.961,-2.222 -4.961,-4.961 0,-2.74 2.221,-4.962 4.961,-4.962 z m -40.093,-40.0926 c 2.739,0 4.961,2.2216 4.961,4.9613 0,2.7398 -2.222,4.9613 -4.961,4.9613 -2.74,0 -4.961,-2.2215 -4.961,-4.9613 0,-2.7397 2.221,-4.9613 4.961,-4.9613 z m 0,20.9566 c 13.307,0 24.097,10.791 24.097,24.098 0,13.306 -10.79,24.097 -24.097,24.097 -13.307,0 -24.097997,-10.791 -24.097997,-24.097 0,-13.307 10.790997,-24.098 24.097997,-24.098 z m -107.729997,-53.865 215.459997,0 0,155.925 -97.042,0 c -0.003,-5.899 -4.788,-10.683 -10.688,-10.683 -5.9,0 -10.685,4.784 -10.688,10.683 l -97.041997,0 0,-155.925 z"
         style="fill:#00ccff;stroke:#000000;stroke-width:1" />
    </g>
    <g
       style="fill-rule:evenodd"
       id="g3822"
       transform="matrix(1.25,0,0,1.25,589.21094,138.88273)">
      <path
         inkscape:connector-curvature="0"
         id="path3095-5"
         d="m 13.8099,11.118 31.8373,0 0,2e-4 c 0,5.9019 4.786,10.688 10.6874,10.688 5.9019,0 10.6879,-4.7861 10.6879,-10.688 l 0,-2e-4 31.8374,0 0,28.35 -85.05,0 0,-28.35 z"
         style="fill:#00ccff;stroke:#000000" />
    </g>
    <g
       style="fill-rule:evenodd"
       id="g3971"
       transform="matrix(1.25,0,0,1.25,620.89374,415.58667)">
      <path
         inkscape:connector-curvature="0"
         id="path3265"
         d="m 26.736164,36.153244 -0.003,-9.4635 c 1.081,-1.1048 2.589,-1.7903 4.256,-1.7903 1.666,0 3.174,0.6852 4.254,1.7889 l -0.002,9.4652 c -1.08,1.1025 -2.586,1.7869 -4.252,1.7869 -1.666,0 -3.172,-0.6844 -4.253,-1.7872 z m 7.369,-18.3393 0,-3.6855 -6.237,0 -0.001,3.6849 -4.297,1.7813 -2.605,-2.6054 -4.41,4.4101 2.603,2.606 -1.779,4.2975 -3.682,6e-4 0,6.2367 3.681,0.0011 1.782,4.297 -2.603,2.6048 4.411,4.4102 2.602,-2.6034 4.298,1.779 0.004,3.6827 6.236,0 -0.001,-3.6822 4.296,-1.7812 2.608,2.6025 4.41,-4.4101 -2.606,-2.6031 1.779,-4.2979 3.686,-0.0031 0,-6.2367 -3.685,0.0014 -1.781,-4.2967 2.605,-2.6076 -4.41,-4.4101 -2.606,2.6059 -4.298,-1.7787 z"
         style="fill:#00ccff;stroke:#000000;stroke-width:1" />
    </g>
    <g
       style="fill-rule:evenodd"
       id="g4092"
       transform="matrix(1.25,0,0,1.25,614.9659,315.76422)">
      <path
         inkscape:connector-curvature="0"
         id="path3479"
         d="m 31.478433,42.060215 -0.002,-9.4635 c 1.08,-1.1048 2.588,-1.7903 4.255,-1.7903 1.667,0 3.174,0.6853 4.254,1.7889 l -0.002,9.4652 c -1.08,1.1026 -2.586,1.787 -4.252,1.787 -1.666,0 -3.172,-0.6844 -4.253,-1.7873 z m 17.99,5.2468 9,-2.0219 0.336,-1.0339 -6.093,-6.9254 6.092,-6.9254 -0.336,-1.0336 -9,-2.0216 0.858,-9.1834 -0.879,-0.639 -8.469,3.6543 -4.704,-7.9338 -1.087,0 -4.704,7.9346 -8.469,-3.6537 -0.879,0.6387 0.858,9.184 -8.999,2.0219 -0.336,1.034 6.093,6.925 -6.092,6.9256 0.336,1.0336 8.999,2.0217 -0.857,9.1834 0.879,0.639 8.469,-3.6543 4.704,7.9338 1.087,0 4.704,-7.9347 8.468,3.6538 0.88,-0.6387 -0.859,-9.184 z"
         style="fill:#00ccff;stroke:#000000;stroke-width:1" />
    </g>
    <g
       id="layer1-0"
       inkscape:label="Layer 1"
       transform="translate(622.31344,-746.76014)"
       style="fill:#00ccff;fill-opacity:1;fill-rule:evenodd">
      <path
         inkscape:connector-curvature="0"
         d="m 31.481515,1006.5511 11.66874,0 0,17.3364 -11.66874,0 z m 25.85061,4.8802 2.66,-0.504 2.475,0.308 5.389,2.946 0,2.076 -5.389,2.946 -2.475,0.308 -2.66,-0.504 -1.596,4.912 2.448,1.157 1.821,1.704 2.629,5.55 -1.221,1.68 -6.091,-0.785 -2.183,-1.205 -1.856,-1.971 -4.179,3.036 1.301,2.374 0.472,2.449 -1.136,6.036 -1.975,0.641 -4.466,-4.215 -1.058,-2.258 -0.344,-2.686 -5.164,0 -0.344,2.686 -1.058,2.258 -4.466,4.215 -1.975,-0.641 -1.136,-6.036 0.472,-2.449 1.301,-2.374 -4.179,-3.036 -1.856,1.971 -2.183,1.205 -6.091,0.785 -1.221,-1.68 2.629,-5.55 1.821,-1.704 2.448,-1.157 -1.596,-4.912 -2.66,0.504 -2.475,-0.308 -5.3889999,-2.946 0,-2.076 5.3889999,-2.946 2.475,-0.308 2.66,0.504 1.596,-4.912 -2.448,-1.157 -1.821,-1.704 -2.629,-5.54997 1.221,-1.68 6.091,0.785 2.183,1.205 1.856,1.97097 4.179,-3.03597 -1.301,-2.374 -0.472,-2.449 1.136,-6.036 1.975,-0.641 4.466,4.215 1.058,2.258 0.344,2.686 5.164,0 0.344,-2.686 1.058,-2.258 4.466,-4.215 1.975,0.641 1.136,6.036 -0.472,2.449 -1.301,2.374 4.179,3.03597 1.856,-1.97097 2.183,-1.205 6.091,-0.785 1.221,1.68 -2.629,5.54997 -1.821,1.704 -2.448,1.157 z"
         style="fill:#00ccff;fill-opacity:1;fill-rule:evenodd;stroke:#000000;stroke-width:1;stroke-linejoin:miter;stroke-miterlimit:4;stroke-opacity:1"
         id="rect4528" />
    </g>
    <g
       style="fill-rule:evenodd"
       id="g4414"
       transform="matrix(1.25,0,0,1.25,431.55894,315.3862)">
      <path
         inkscape:connector-curvature="0"
         id="path4227"
         d="m 12.319607,11.094361 119.070003,0 0,141.749999 -119.070003,0 0,-141.749999 z m 40.852,14.175 22.680003,0 0,113.399999 -22.680003,0 0,-113.399999 z m 49.715003,1.622 c 9.08,0 16.443,7.363 16.443,16.443 0,9.08 -7.363,16.443 -16.443,16.443 -9.08,0 -16.443,-7.363 -16.443,-16.443 0,-9.08 7.363,-16.443 16.443,-16.443 z m 0,73.989999 8.84,5.104 8.84,5.104 0,10.208 0,10.207 -8.84,5.104 -8.84,5.104 -8.84,-5.104 -8.84,-5.104 0,-10.207 0,-10.208 8.84,-5.104 8.84,-5.104 z"
         style="fill:#00ccff;stroke:#000000;stroke-width:1" />
    </g>
    <g
       style="fill:#00ccff;fill-opacity:1;fill-rule:evenodd"
       id="g4679"
       transform="matrix(1.25,0,0,1.25,441.60764,193.46522)">
      <g
         style="fill:#00ccff;fill-opacity:1;stroke:#000000"
         id="g3759">
        <g
           style="fill:#00ccff;fill-opacity:1;stroke:#000000"
           id="g3761">
          <path
             id="path3763"
             d="m 63.8158,38.9809 c 9.0797,0 16.4431,7.3633 16.4431,16.443 0,9.0796 -7.3634,16.443 -16.4431,16.443 -9.0796,0 -16.443,-7.3634 -16.443,-16.443 0,-9.0797 7.3634,-16.443 16.443,-16.443 z m 44.6472,-7.7931 8.367,-3e-4 0,-15.309 -106.0287,0 0,15.309 8.3817,3e-4 -0.0195,-7.0872 15.5925,0 0.0011,56.9801 58.1175,0 -0.0011,-56.9801 15.5925,0 -0.003,7.0872 z"
             style="fill:#00ccff;fill-opacity:1;stroke:#000000"
             inkscape:connector-curvature="0" />
        </g>
      </g>
      <g
         style="fill:#00ccff;fill-opacity:1;stroke:#000000"
         id="g3765" />
    </g>
  </g>
</svg>
