999
dxfrw 0.5.11
0
SECTION
2
HEADER
9
$ACADVER
1
AC1021
9
$HANDSEED
5
20000
9
$DWGCODEPAGE
3
ANSI_1252
9
$INSBASE
10
0
20
0
30
0
9
$EXTMIN
10
-53.125
20
-114
30
0
9
$EXTMAX
10
119
20
43.125
30
0
9
$LIMMIN
10
0
20
0
9
$LIMMAX
10
420
20
297
9
$ORTHOMODE
70
0
9
$LTSCALE
40
1
9
$TEXTSTYLE
7
STANDARD
9
$CLAYER
8
dim
9
$DIMASZ
40
2.5
9
$DIMLFAC
40
1
9
$DIMSCALE
40
1
9
$DIMEXO
40
0.625
9
$DIMEXE
40
1.25
9
$DIMTXT
40
2.5
9
$DIMTSZ
40
0
9
$DIMAUNIT
70
0
9
$DIMADEC
70
2
9
$DIMLUNIT
70
2
9
$DIMSTYLE
2
Standard
9
$DIMGAP
40
0.625
9
$DIMTIH
70
0
9
$LUNITS
70
2
9
$LUPREC
70
0
9
$AUNITS
70
0
9
$AUPREC
70
2
9
$SPLINESEGS
70
8
9
$GRIDMODE
70
1
9
$SNAPSTYLE
70
0
9
$GRIDUNIT
10
0
20
0
9
$PINSBASE
10
0
20
0
30
0
9
$PLIMMIN
10
0
20
0
9
$PLIMMAX
10
210
20
297
9
$INSUNITS
70
0
9
$PSVPSCALE
40
1
0
ENDSEC
0
SECTION
2
CLASSES
0
ENDSEC
0
SECTION
2
TABLES
0
TABLE
2
VPORT
5
8
330
0
100
AcDbSymbolTable
70
1
0
VPORT
5
31
330
2
100
AcDbSymbolTableRecord
100
AcDbViewportTableRecord
2
*ACTIVE
70
0
10
0
20
0
11
1
21
1
12
91.7176398581
22
61.7663060873
13
0
23
0
14
10
24
10
15
10
25
10
16
0
26
0
36
1
17
0
27
0
37
0
40
249.993799207
41
1.66666666667
42
50
43
0
44
0
50
0
51
0
71
0
72
100
73
1
74
3
75
0
76
1
77
0
78
0
281
0
65
1
110
0
120
0
130
0
111
1
121
0
131
0
112
0
122
1
132
0
79
0
146
0
348
10020
60
7
61
5
292
1
282
1
141
0
142
0
63
250
421
3358443
0
ENDTAB
0
TABLE
2
LTYPE
5
5
330
0
100
AcDbSymbolTable
70
4
0
LTYPE
5
14
330
5
100
AcDbSymbolTableRecord
100
AcDbLinetypeTableRecord
2
ByBlock
70
0
3

72
65
73
0
40
0
0
LTYPE
5
15
330
5
100
AcDbSymbolTableRecord
100
AcDbLinetypeTableRecord
2
ByLayer
70
0
3

72
65
73
0
40
0
0
LTYPE
5
16
330
5
100
AcDbSymbolTableRecord
100
AcDbLinetypeTableRecord
2
Continuous
70
0
3
Solid line
72
65
73
0
40
0
0
LTYPE
5
32
330
5
100
AcDbSymbolTableRecord
100
AcDbLinetypeTableRecord
2
DOT
70
0
3
Dot . . . . . . . . . . . . . . . . . . . . . .
72
65
73
2
40
6.35
49
0
74
0
49
-6.35
74
0
0
LTYPE
5
33
330
5
100
AcDbSymbolTableRecord
100
AcDbLinetypeTableRecord
2
DOT2
70
0
3
Dot (.5x) .....................................
72
65
73
2
40
3.175
49
0
74
0
49
-3.175
74
0
0
LTYPE
5
34
330
5
100
AcDbSymbolTableRecord
100
AcDbLinetypeTableRecord
2
DOTX2
70
0
3
Dot (2x) .  .  .  .  .  .  .  .  .  .  .  .  .
72
65
73
2
40
12.7
49
0
74
0
49
-12.7
74
0
0
LTYPE
5
35
330
5
100
AcDbSymbolTableRecord
100
AcDbLinetypeTableRecord
2
DASHED
70
0
3
Dot . . . . . . . . . . . . . . . . . . . . . .
72
65
73
2
40
19.05
49
12.7
74
0
49
-6.35
74
0
0
LTYPE
5
36
330
5
100
AcDbSymbolTableRecord
100
AcDbLinetypeTableRecord
2
DASHED2
70
0
3
Dashed (.5x) _ _ _ _ _ _ _ _ _ _ _ _ _ _ _ _ _
72
65
73
2
40
9.525
49
6.35
74
0
49
-3.175
74
0
0
LTYPE
5
37
330
5
100
AcDbSymbolTableRecord
100
AcDbLinetypeTableRecord
2
DASHEDX2
70
0
3
Dashed (2x) ____  ____  ____  ____  ____  ___
72
65
73
2
40
38.1
49
25.4
74
0
49
-12.7
74
0
0
LTYPE
5
38
330
5
100
AcDbSymbolTableRecord
100
AcDbLinetypeTableRecord
2
DASHDOT
70
0
3
Dash dot __ . __ . __ . __ . __ . __ . __ . __
72
65
73
4
40
25.4
49
12.7
74
0
49
-6.35
74
0
49
0
74
0
49
-6.35
74
0
0
LTYPE
5
39
330
5
100
AcDbSymbolTableRecord
100
AcDbLinetypeTableRecord
2
DASHDOT2
70
0
3
Dash dot (.5x) _._._._._._._._._._._._._._._.
72
65
73
4
40
12.7
49
6.35
74
0
49
-3.175
74
0
49
0
74
0
49
-3.175
74
0
0
LTYPE
5
3A
330
5
100
AcDbSymbolTableRecord
100
AcDbLinetypeTableRecord
2
DASHDOTX2
70
0
3
Dash dot (2x) ____  .  ____  .  ____  .  ___
72
65
73
4
40
50.8
49
25.4
74
0
49
-12.7
74
0
49
0
74
0
49
-12.7
74
0
0
LTYPE
5
3B
330
5
100
AcDbSymbolTableRecord
100
AcDbLinetypeTableRecord
2
DIVIDE
70
0
3
Divide ____ . . ____ . . ____ . . ____ . . ____
72
65
73
6
40
31.75
49
12.7
74
0
49
-6.35
74
0
49
0
74
0
49
-6.35
74
0
49
0
74
0
49
-6.35
74
0
0
LTYPE
5
3C
330
5
100
AcDbSymbolTableRecord
100
AcDbLinetypeTableRecord
2
DIVIDE2
70
0
3
Divide (.5x) __..__..__..__..__..__..__..__.._
72
65
73
6
40
15.875
49
6.35
74
0
49
-3.175
74
0
49
0
74
0
49
-3.175
74
0
49
0
74
0
49
-3.175
74
0
0
LTYPE
5
3D
330
5
100
AcDbSymbolTableRecord
100
AcDbLinetypeTableRecord
2
DIVIDEX2
70
0
3
Divide (2x) ________  .  .  ________  .  .  _
72
65
73
6
40
63.5
49
25.4
74
0
49
-12.7
74
0
49
0
74
0
49
-12.7
74
0
49
0
74
0
49
-12.7
74
0
0
LTYPE
5
3E
330
5
100
AcDbSymbolTableRecord
100
AcDbLinetypeTableRecord
2
BORDER
70
0
3
Border __ __ . __ __ . __ __ . __ __ . __ __ .
72
65
73
6
40
44.45
49
12.7
74
0
49
-6.35
74
0
49
12.7
74
0
49
-6.35
74
0
49
0
74
0
49
-6.35
74
0
0
LTYPE
5
3F
330
5
100
AcDbSymbolTableRecord
100
AcDbLinetypeTableRecord
2
BORDER2
70
0
3
Border (.5x) __.__.__.__.__.__.__.__.__.__.__.
72
65
73
6
40
22.225
49
6.35
74
0
49
-3.175
74
0
49
6.35
74
0
49
-3.175
74
0
49
0
74
0
49
-3.175
74
0
0
LTYPE
5
40
330
5
100
AcDbSymbolTableRecord
100
AcDbLinetypeTableRecord
2
BORDERX2
70
0
3
Border (2x) ____  ____  .  ____  ____  .  ___
72
65
73
6
40
88.9
49
25.4
74
0
49
-12.7
74
0
49
25.4
74
0
49
-12.7
74
0
49
0
74
0
49
-12.7
74
0
0
LTYPE
5
41
330
5
100
AcDbSymbolTableRecord
100
AcDbLinetypeTableRecord
2
CENTER
70
0
3
Center ____ _ ____ _ ____ _ ____ _ ____ _ ____
72
65
73
4
40
50.8
49
31.75
74
0
49
-6.35
74
0
49
6.35
74
0
49
-6.35
74
0
0
LTYPE
5
42
330
5
100
AcDbSymbolTableRecord
100
AcDbLinetypeTableRecord
2
CENTER2
70
0
3
Center (.5x) ___ _ ___ _ ___ _ ___ _ ___ _ ___
72
65
73
4
40
28.575
49
19.05
74
0
49
-3.175
74
0
49
3.175
74
0
49
-3.175
74
0
0
LTYPE
5
43
330
5
100
AcDbSymbolTableRecord
100
AcDbLinetypeTableRecord
2
CENTERX2
70
0
3
Center (2x) ________  __  ________  __  _____
72
65
73
4
40
101.6
49
63.5
74
0
49
-12.7
74
0
49
12.7
74
0
49
-12.7
74
0
0
ENDTAB
0
TABLE
2
LAYER
5
2
330
0
100
AcDbSymbolTable
70
1
0
LAYER
5
10
330
2
100
AcDbSymbolTableRecord
100
AcDbLayerTableRecord
2
0
70
0
62
7
6
CONTINUOUS
370
50
390
F
0
LAYER
5
44
330
2
100
AcDbSymbolTableRecord
100
AcDbLayerTableRecord
2
base
70
0
62
7
6
CENTER
370
0
390
F
0
LAYER
5
45
330
2
100
AcDbSymbolTableRecord
100
AcDbLayerTableRecord
2
base2
70
0
62
7
6
DASHED
370
0
390
F
0
LAYER
5
46
330
2
100
AcDbSymbolTableRecord
100
AcDbLayerTableRecord
2
dim
70
0
62
7
6
CONTINUOUS
370
-3
390
F
0
ENDTAB
0
TABLE
2
STYLE
5
3
330
0
100
AcDbSymbolTable
70
3
0
STYLE
5
47
330
2
100
AcDbSymbolTableRecord
100
AcDbTextStyleTableRecord
2
cyrillic_ii
70
0
40
0
41
1
50
0
71
0
42
1
3
cyrillic_ii
4

0
STYLE
5
48
330
2
100
AcDbSymbolTableRecord
100
AcDbTextStyleTableRecord
2
Standard
70
0
40
0
41
1
50
0
71
0
42
1
3
txt
4

0
ENDTAB
0
TABLE
2
VIEW
5
6
330
0
100
AcDbSymbolTable
70
0
0
ENDTAB
0
TABLE
2
UCS
5
7
330
0
100
AcDbSymbolTable
70
0
0
ENDTAB
0
TABLE
2
APPID
5
9
330
0
100
AcDbSymbolTable
70
1
0
APPID
5
12
330
9
100
AcDbSymbolTableRecord
100
AcDbRegAppTableRecord
2
ACAD
70
0
0
ENDTAB
0
TABLE
2
DIMSTYLE
5
A
330
0
100
AcDbSymbolTable
70
1
100
AcDbDimStyleTable
71
1
0
DIMSTYLE
105
49
330
A
100
AcDbSymbolTableRecord
100
AcDbDimStyleTableRecord
2
Standard
70
0
40
1
41
2.5
42
0.625
43
0.38
44
1.25
45
0
46
0
47
0
48
0
140
2.5
141
0.09
142
0
143
25.4
144
1
145
0
146
1
147
0.625
148
0
71
0
72
0
73
0
74
1
75
0
76
0
77
0
78
0
79
0
170
0
171
2
172
0
173
0
174
0
175
0
176
0
177
0
178
0
179
0
271
4
272
4
273
2
274
2
275
0
276
0
277
2
278
46
279
0
280
0
281
0
282
0
283
1
284
0
285
0
286
0
288
0
289
3
340
Standard
341

371
-2
372
-2
0
ENDTAB
0
TABLE
2
BLOCK_RECORD
5
1
330
0
100
AcDbSymbolTable
70
2
0
BLOCK_RECORD
5
1F
330
1
100
AcDbSymbolTableRecord
100
AcDbBlockTableRecord
2
*Model_Space
70
0
280
1
281
0
0
BLOCK_RECORD
5
1E
330
1
100
AcDbSymbolTableRecord
100
AcDbBlockTableRecord
2
*Paper_Space
70
0
280
1
281
0
0
BLOCK_RECORD
5
4A
330
1
100
AcDbSymbolTableRecord
100
AcDbBlockTableRecord
2
*D6
70
0
280
1
281
0
0
BLOCK_RECORD
5
4D
330
1
100
AcDbSymbolTableRecord
100
AcDbBlockTableRecord
2
*D1
70
0
280
1
281
0
0
BLOCK_RECORD
5
50
330
1
100
AcDbSymbolTableRecord
100
AcDbBlockTableRecord
2
*D28
70
0
280
1
281
0
0
BLOCK_RECORD
5
53
330
1
100
AcDbSymbolTableRecord
100
AcDbBlockTableRecord
2
*D24
70
0
280
1
281
0
0
BLOCK_RECORD
5
56
330
1
100
AcDbSymbolTableRecord
100
AcDbBlockTableRecord
2
*D4
70
0
280
1
281
0
0
BLOCK_RECORD
5
59
330
1
100
AcDbSymbolTableRecord
100
AcDbBlockTableRecord
2
*D21
70
0
280
1
281
0
0
BLOCK_RECORD
5
5C
330
1
100
AcDbSymbolTableRecord
100
AcDbBlockTableRecord
2
*D23
70
0
280
1
281
0
0
BLOCK_RECORD
5
5F
330
1
100
AcDbSymbolTableRecord
100
AcDbBlockTableRecord
2
*D5
70
0
280
1
281
0
0
BLOCK_RECORD
5
62
330
1
100
AcDbSymbolTableRecord
100
AcDbBlockTableRecord
2
*D17
70
0
280
1
281
0
0
BLOCK_RECORD
5
65
330
1
100
AcDbSymbolTableRecord
100
AcDbBlockTableRecord
2
*D25
70
0
280
1
281
0
0
BLOCK_RECORD
5
68
330
1
100
AcDbSymbolTableRecord
100
AcDbBlockTableRecord
2
*D26
70
0
280
1
281
0
0
BLOCK_RECORD
5
6B
330
1
100
AcDbSymbolTableRecord
100
AcDbBlockTableRecord
2
*D18
70
0
280
1
281
0
0
BLOCK_RECORD
5
6E
330
1
100
AcDbSymbolTableRecord
100
AcDbBlockTableRecord
2
*D16
70
0
280
1
281
0
0
BLOCK_RECORD
5
71
330
1
100
AcDbSymbolTableRecord
100
AcDbBlockTableRecord
2
*D7
70
0
280
1
281
0
0
BLOCK_RECORD
5
74
330
1
100
AcDbSymbolTableRecord
100
AcDbBlockTableRecord
2
*D12
70
0
280
1
281
0
0
BLOCK_RECORD
5
77
330
1
100
AcDbSymbolTableRecord
100
AcDbBlockTableRecord
2
*D13
70
0
280
1
281
0
0
BLOCK_RECORD
5
7A
330
1
100
AcDbSymbolTableRecord
100
AcDbBlockTableRecord
2
*D8
70
0
280
1
281
0
0
BLOCK_RECORD
5
7D
330
1
100
AcDbSymbolTableRecord
100
AcDbBlockTableRecord
2
*D19
70
0
280
1
281
0
0
BLOCK_RECORD
5
80
330
1
100
AcDbSymbolTableRecord
100
AcDbBlockTableRecord
2
*D29
70
0
280
1
281
0
0
BLOCK_RECORD
5
83
330
1
100
AcDbSymbolTableRecord
100
AcDbBlockTableRecord
2
*D27
70
0
280
1
281
0
0
BLOCK_RECORD
5
86
330
1
100
AcDbSymbolTableRecord
100
AcDbBlockTableRecord
2
*D9
70
0
280
1
281
0
0
BLOCK_RECORD
5
89
330
1
100
AcDbSymbolTableRecord
100
AcDbBlockTableRecord
2
*D20
70
0
280
1
281
0
0
BLOCK_RECORD
5
8C
330
1
100
AcDbSymbolTableRecord
100
AcDbBlockTableRecord
2
*D22
70
0
280
1
281
0
0
BLOCK_RECORD
5
8F
330
1
100
AcDbSymbolTableRecord
100
AcDbBlockTableRecord
2
*D14
70
0
280
1
281
0
0
BLOCK_RECORD
5
92
330
1
100
AcDbSymbolTableRecord
100
AcDbBlockTableRecord
2
*D30
70
0
280
1
281
0
0
BLOCK_RECORD
5
95
330
1
100
AcDbSymbolTableRecord
100
AcDbBlockTableRecord
2
*D11
70
0
280
1
281
0
0
BLOCK_RECORD
5
98
330
1
100
AcDbSymbolTableRecord
100
AcDbBlockTableRecord
2
*D3
70
0
280
1
281
0
0
BLOCK_RECORD
5
9B
330
1
100
AcDbSymbolTableRecord
100
AcDbBlockTableRecord
2
*D31
70
0
280
1
281
0
0
BLOCK_RECORD
5
9E
330
1
100
AcDbSymbolTableRecord
100
AcDbBlockTableRecord
2
*D10
70
0
280
1
281
0
0
BLOCK_RECORD
5
A1
330
1
100
AcDbSymbolTableRecord
100
AcDbBlockTableRecord
2
*D15
70
0
280
1
281
0
0
BLOCK_RECORD
5
A4
330
1
100
AcDbSymbolTableRecord
100
AcDbBlockTableRecord
2
*D2
70
0
280
1
281
0
0
BLOCK_RECORD
5
A7
330
1
100
AcDbSymbolTableRecord
100
AcDbBlockTableRecord
2
CUT001008009042_PROJ
70
0
280
1
281
0
0
BLOCK_RECORD
5
AA
330
1
100
AcDbSymbolTableRecord
100
AcDbBlockTableRecord
2
CUT001008009042_PROJ001
70
0
280
1
281
0
0
BLOCK_RECORD
5
AD
330
1
100
AcDbSymbolTableRecord
100
AcDbBlockTableRecord
2
CUT001008009042_PROJ002
70
0
280
1
281
0
0
ENDTAB
0
ENDSEC
0
SECTION
2
BLOCKS
0
BLOCK
5
20
330
1F
100
AcDbEntity
8
0
100
AcDbBlockBegin
2
*Model_Space
70
0
10
0
20
0
30
0
3
*Model_Space
1

0
ENDBLK
5
21
330
1F
100
AcDbEntity
8
0
100
AcDbBlockEnd
0
BLOCK
5
1C
330
1B
100
AcDbEntity
8
0
100
AcDbBlockBegin
2
*Paper_Space
70
0
10
0
20
0
30
0
3
*Paper_Space
1

0
ENDBLK
5
1D
330
1F
100
AcDbEntity
8
0
100
AcDbBlockEnd
0
BLOCK
5
4B
330
4A
100
AcDbEntity
8
0
100
AcDbBlockBegin
2
*D6
70
1
10
0
20
0
3
*D6
1

0
LINE
5
B0
100
AcDbEntity
8
dim
6
CONTINUOUS
62
7
370
0
100
AcDbLine
10
-50
20
-14
11
-50
21
3.5527136788e-15
0
SOLID
5
B1
100
AcDbEntity
8
dim
6
CONTINUOUS
62
7
370
0
100
AcDbTrace
10
-50
20
-14
30
0
11
-50.4162846578
21
-11.5
31
0
12
-49.5837153422
22
-11.5
32
0
13
-49.5837153422
23
-11.5
33
0
0
SOLID
5
B2
100
AcDbEntity
8
dim
6
CONTINUOUS
62
7
370
0
100
AcDbTrace
10
-50
20
3.5527136788e-15
30
0
11
-49.5837153422
21
-2.5
31
0
12
-50.4162846578
22
-2.5
32
0
13
-50.4162846578
23
-2.5
33
0
0
MTEXT
5
B3
100
AcDbEntity
8
dim
6
CONTINUOUS
62
7
370
0
100
AcDbMText
10
-51.875
20
-7
30
0
40
2.5
41
2.77777777778
71
5
72
1
1
14
7
standard
210
0
220
0
230
1
50
90
73
2
44
1
0
LINE
5
B4
100
AcDbEntity
8
dim
6
CONTINUOUS
62
7
370
0
100
AcDbLine
10
-0.625
20
-14
11
-51.25
21
-14
0
LINE
5
B5
100
AcDbEntity
8
dim
6
CONTINUOUS
62
7
370
0
100
AcDbLine
10
-0.625
20
7.65378971139e-17
11
-51.25
21
3.70578947303e-15
0
ENDBLK
5
4C
330
4A
100
AcDbEntity
8
0
100
AcDbBlockEnd
0
BLOCK
5
4E
330
4D
100
AcDbEntity
8
0
100
AcDbBlockBegin
2
*D1
70
1
10
0
20
0
3
*D1
1

0
LINE
5
B6
100
AcDbEntity
8
dim
6
CONTINUOUS
62
7
370
0
100
AcDbLine
10
8.31367902214
20
-3.4471352043
11
-8.31367902214
21
3.4471352043
0
SOLID
5
B7
100
AcDbEntity
8
dim
6
CONTINUOUS
62
7
370
0
100
AcDbTrace
10
8.31367902214
20
-3.4471352043
30
0
11
5.84488046056
21
-2.87413731717
31
0
12
6.16376701586
22
-2.10505797793
32
0
13
6.16376701586
23
-2.10505797793
33
0
0
SOLID
5
B8
100
AcDbEntity
8
dim
6
CONTINUOUS
62
7
370
0
100
AcDbTrace
10
-8.31367902214
20
3.4471352043
30
0
11
-5.84488046056
21
2.87413731717
31
0
12
-6.16376701586
22
2.10505797793
32
0
13
-6.16376701586
23
2.10505797793
33
0
0
MTEXT
5
B9
100
AcDbEntity
8
dim
6
CONTINUOUS
62
7
370
0
100
AcDbMText
10
0.718153167563
20
1.73201646295
30
0
40
2.5
41
2.5
71
5
72
1
1
18
7
standard
210
0
220
0
230
1
50
337.479434397
73
2
44
1
0
ENDBLK
5
4F
330
4D
100
AcDbEntity
8
0
100
AcDbBlockEnd
0
BLOCK
5
51
330
50
100
AcDbEntity
8
0
100
AcDbBlockBegin
2
*D28
70
1
10
0
20
0
3
*D28
1

0
LINE
5
BA
100
AcDbEntity
8
dim
6
CONTINUOUS
62
7
370
0
100
AcDbLine
10
-38
20
40
11
-14
21
40
0
SOLID
5
BB
100
AcDbEntity
8
dim
6
CONTINUOUS
62
7
370
0
100
AcDbTrace
10
-38
20
40
30
0
11
-35.5
21
40.4162846578
31
0
12
-35.5
22
39.5837153422
32
0
13
-35.5
23
39.5837153422
33
0
0
SOLID
5
BC
100
AcDbEntity
8
dim
6
CONTINUOUS
62
7
370
0
100
AcDbTrace
10
-14
20
40
30
0
11
-16.5
21
39.5837153422
31
0
12
-16.5
22
40.4162846578
32
0
13
-16.5
23
40.4162846578
33
0
0
MTEXT
5
BD
100
AcDbEntity
8
dim
6
CONTINUOUS
62
7
370
0
100
AcDbMText
10
-26
20
41.875
30
0
40
2.5
41
3.33333333333
71
5
72
1
1
24
7
standard
210
0
220
0
230
1
50
0
73
2
44
1
0
LINE
5
BE
100
AcDbEntity
8
dim
6
CONTINUOUS
62
7
370
0
100
AcDbLine
10
-38
20
28.625
11
-38
21
41.25
0
LINE
5
BF
100
AcDbEntity
8
dim
6
CONTINUOUS
62
7
370
0
100
AcDbLine
10
-14
20
-4.375
11
-14
21
41.25
0
ENDBLK
5
52
330
50
100
AcDbEntity
8
0
100
AcDbBlockEnd
0
BLOCK
5
54
330
53
100
AcDbEntity
8
0
100
AcDbBlockBegin
2
*D24
70
1
10
0
20
0
3
*D24
1

0
LINE
5
C0
100
AcDbEntity
8
dim
6
CONTINUOUS
62
7
370
0
100
AcDbLine
10
10.5
20
-90
11
38
21
-111
0
SOLID
5
C1
100
AcDbEntity
8
dim
6
CONTINUOUS
62
7
370
0
100
AcDbTrace
10
10.5
20
-90
30
0
11
12.7395683565
21
-91.186434361
31
0
12
12.2342707131
22
-91.8481336558
32
0
13
12.2342707131
23
-91.8481336558
33
0
0
LINE
5
C2
100
AcDbEntity
8
dim
6
CONTINUOUS
62
7
370
0
100
AcDbLine
10
38
20
-111
11
38
21
-114
0
LINE
5
C3
100
AcDbEntity
8
dim
6
CONTINUOUS
62
7
370
0
100
AcDbLine
10
38
20
-114
11
-32
21
-114
0
ENDBLK
5
55
330
53
100
AcDbEntity
8
0
100
AcDbBlockEnd
0
BLOCK
5
57
330
56
100
AcDbEntity
8
0
100
AcDbBlockBegin
2
*D4
70
1
10
0
20
0
3
*D4
1

0
LINE
5
C4
100
AcDbEntity
8
dim
6
CONTINUOUS
62
7
370
0
100
AcDbLine
10
101
20
-40
11
119
21
-40
0
SOLID
5
C5
100
AcDbEntity
8
dim
6
CONTINUOUS
62
7
370
0
100
AcDbTrace
10
101
20
-40
30
0
11
103.5
21
-39.5837153422
31
0
12
103.5
22
-40.4162846578
32
0
13
103.5
23
-40.4162846578
33
0
0
SOLID
5
C6
100
AcDbEntity
8
dim
6
CONTINUOUS
62
7
370
0
100
AcDbTrace
10
119
20
-40
30
0
11
116.5
21
-40.4162846578
31
0
12
116.5
22
-39.5837153422
32
0
13
116.5
23
-39.5837153422
33
0
0
MTEXT
5
C7
100
AcDbEntity
8
dim
6
CONTINUOUS
62
7
370
0
100
AcDbMText
10
110
20
-38.125
30
0
40
2.5
41
2.5
71
5
72
1
1
18
7
standard
210
0
220
0
230
1
50
0
73
2
44
1
0
LINE
5
C8
100
AcDbEntity
8
dim
6
CONTINUOUS
62
7
370
0
100
AcDbLine
10
101
20
-28.625
11
101
21
-41.25
0
LINE
5
C9
100
AcDbEntity
8
dim
6
CONTINUOUS
62
7
370
0
100
AcDbLine
10
119
20
-28.625
11
119
21
-41.25
0
ENDBLK
5
58
330
56
100
AcDbEntity
8
0
100
AcDbBlockEnd
0
BLOCK
5
5A
330
59
100
AcDbEntity
8
0
100
AcDbBlockBegin
2
*D21
70
1
10
0
20
0
3
*D21
1

0
LINE
5
CA
100
AcDbEntity
8
dim
6
CONTINUOUS
62
7
370
0
100
AcDbLine
10
-8
20
-70
11
8
21
-70
0
SOLID
5
CB
100
AcDbEntity
8
dim
6
CONTINUOUS
62
7
370
0
100
AcDbTrace
10
-8
20
-70
30
0
11
-5.5
21
-69.5837153422
31
0
12
-5.5
22
-70.4162846578
32
0
13
-5.5
23
-70.4162846578
33
0
0
SOLID
5
CC
100
AcDbEntity
8
dim
6
CONTINUOUS
62
7
370
0
100
AcDbTrace
10
8
20
-70
30
0
11
5.5
21
-70.4162846578
31
0
12
5.5
22
-69.5837153422
32
0
13
5.5
23
-69.5837153422
33
0
0
MTEXT
5
CD
100
AcDbEntity
8
dim
6
CONTINUOUS
62
7
370
0
100
AcDbMText
10
1.00298526537e-15
20
-68.125
30
0
40
2.5
41
2.5
71
5
72
1
1
16
7
standard
210
0
220
0
230
1
50
0
73
2
44
1
0
LINE
5
CE
100
AcDbEntity
8
dim
6
CONTINUOUS
62
7
370
0
100
AcDbLine
10
-8
20
-89.375
11
-8
21
-68.75
0
LINE
5
CF
100
AcDbEntity
8
dim
6
CONTINUOUS
62
7
370
0
100
AcDbLine
10
8
20
-89.375
11
8
21
-68.75
0
ENDBLK
5
5B
330
59
100
AcDbEntity
8
0
100
AcDbBlockEnd
0
BLOCK
5
5D
330
5C
100
AcDbEntity
8
0
100
AcDbBlockBegin
2
*D23
70
1
10
0
20
0
3
*D23
1

0
LINE
5
D0
100
AcDbEntity
8
dim
6
CONTINUOUS
62
7
370
0
100
AcDbLine
10
-50
20
-90
11
-50
21
-81
0
SOLID
5
D1
100
AcDbEntity
8
dim
6
CONTINUOUS
62
7
370
0
100
AcDbTrace
10
-50
20
-90
30
0
11
-50.4162846578
21
-87.5
31
0
12
-49.5837153422
22
-87.5
32
0
13
-49.5837153422
23
-87.5
33
0
0
SOLID
5
D2
100
AcDbEntity
8
dim
6
CONTINUOUS
62
7
370
0
100
AcDbTrace
10
-50
20
-81
30
0
11
-49.5837153422
21
-83.5
31
0
12
-50.4162846578
22
-83.5
32
0
13
-50.4162846578
23
-83.5
33
0
0
MTEXT
5
D3
100
AcDbEntity
8
dim
6
CONTINUOUS
62
7
370
0
100
AcDbMText
10
-51.875
20
-85.5
30
0
40
2.5
41
1.11111111111
71
5
72
1
1
9
7
standard
210
0
220
0
230
1
50
90
73
2
44
1
0
LINE
5
D4
100
AcDbEntity
8
dim
6
CONTINUOUS
62
7
370
0
100
AcDbLine
10
-30.625
20
-90
11
-51.25
21
-90
0
LINE
5
D5
100
AcDbEntity
8
dim
6
CONTINUOUS
62
7
370
0
100
AcDbLine
10
-38.625
20
-81
11
-51.25
21
-81
0
ENDBLK
5
5E
330
5C
100
AcDbEntity
8
0
100
AcDbBlockEnd
0
BLOCK
5
60
330
5F
100
AcDbEntity
8
0
100
AcDbBlockBegin
2
*D5
70
1
10
0
20
0
3
*D5
1

0
LINE
5
D6
100
AcDbEntity
8
dim
6
CONTINUOUS
62
7
370
0
100
AcDbLine
10
50
20
28
11
50
21
-28
0
SOLID
5
D7
100
AcDbEntity
8
dim
6
CONTINUOUS
62
7
370
0
100
AcDbTrace
10
50
20
28
30
0
11
50.4162846578
21
25.5
31
0
12
49.5837153422
22
25.5
32
0
13
49.5837153422
23
25.5
33
0
0
SOLID
5
D8
100
AcDbEntity
8
dim
6
CONTINUOUS
62
7
370
0
100
AcDbTrace
10
50
20
-28
30
0
11
49.5837153422
21
-25.5
31
0
12
50.4162846578
22
-25.5
32
0
13
50.4162846578
23
-25.5
33
0
0
MTEXT
5
D9
100
AcDbEntity
8
dim
6
CONTINUOUS
62
7
370
0
100
AcDbMText
10
48.125
20
-6.87581366626e-15
30
0
40
2.5
41
3.05555555556
71
5
72
1
1
56
7
standard
210
0
220
0
230
1
50
90
73
2
44
1
0
LINE
5
DA
100
AcDbEntity
8
dim
6
CONTINUOUS
62
7
370
0
100
AcDbLine
10
38.625
20
28
11
51.25
21
28
0
LINE
5
DB
100
AcDbEntity
8
dim
6
CONTINUOUS
62
7
370
0
100
AcDbLine
10
38.625
20
-28
11
51.25
21
-28
0
ENDBLK
5
61
330
5F
100
AcDbEntity
8
0
100
AcDbBlockEnd
0
BLOCK
5
63
330
62
100
AcDbEntity
8
0
100
AcDbBlockBegin
2
*D17
70
1
10
0
20
0
3
*D17
1

0
LINE
5
DC
100
AcDbEntity
8
dim
6
CONTINUOUS
62
7
370
0
100
AcDbLine
10
-1.6578605873e-16
20
-16
11
-30
21
-50
0
LINE
5
DD
100
AcDbEntity
8
dim
6
CONTINUOUS
62
7
370
0
100
AcDbLine
10
-30
20
-50
11
-30
21
-54
0
LINE
5
DE
100
AcDbEntity
8
dim
6
CONTINUOUS
62
7
370
0
100
AcDbLine
10
-30
20
-54
11
25
21
-54
0
SOLID
5
DF
100
AcDbEntity
8
dim
6
CONTINUOUS
62
7
370
0
100
AcDbTrace
10
-1.6578605873e-16
20
-16
30
0
11
-1.34190809771
21
-18.1500175752
31
0
12
-1.96620008772
22
-17.5991717016
32
0
13
-1.96620008772
23
-17.5991717016
33
0
0
ENDBLK
5
64
330
62
100
AcDbEntity
8
0
100
AcDbBlockEnd
0
BLOCK
5
66
330
65
100
AcDbEntity
8
0
100
AcDbBlockBegin
2
*D25
70
1
10
0
20
0
3
*D25
1

0
LINE
5
E0
100
AcDbEntity
8
dim
6
CONTINUOUS
62
7
370
0
100
AcDbLine
10
-14
20
-2
11
-30
21
-50
0
SOLID
5
E1
100
AcDbEntity
8
dim
6
CONTINUOUS
62
7
370
0
100
AcDbTrace
10
-14
20
-2
30
0
11
-14.395647113
21
-4.50334901248
31
0
12
-15.1854917171
22
-4.24006747777
32
0
13
-15.1854917171
23
-4.24006747777
33
0
0
LINE
5
E2
100
AcDbEntity
8
dim
6
CONTINUOUS
62
7
370
0
100
AcDbLine
10
-30
20
-50
11
-30
21
-54
0
LINE
5
E3
100
AcDbEntity
8
dim
6
CONTINUOUS
62
7
370
0
100
AcDbLine
10
-30
20
-54
11
25
21
-54
0
ENDBLK
5
67
330
65
100
AcDbEntity
8
0
100
AcDbBlockEnd
0
BLOCK
5
69
330
68
100
AcDbEntity
8
0
100
AcDbBlockBegin
2
*D26
70
1
10
0
20
0
3
*D26
1

0
LINE
5
E4
100
AcDbEntity
8
dim
6
CONTINUOUS
62
7
370
0
100
AcDbLine
10
14
20
-2
11
25
21
-50
0
SOLID
5
E5
100
AcDbEntity
8
dim
6
CONTINUOUS
62
7
370
0
100
AcDbTrace
10
14
20
-2
30
0
11
14.9642065005
21
-4.34384272953
31
0
12
14.1526742812
22
-4.52981886311
32
0
13
14.1526742812
23
-4.52981886311
33
0
0
LINE
5
E6
100
AcDbEntity
8
dim
6
CONTINUOUS
62
7
370
0
100
AcDbLine
10
25
20
-50
11
25
21
-54
0
LINE
5
E7
100
AcDbEntity
8
dim
6
CONTINUOUS
62
7
370
0
100
AcDbLine
10
25
20
-54
11
-30
21
-54
0
ENDBLK
5
6A
330
68
100
AcDbEntity
8
0
100
AcDbBlockEnd
0
BLOCK
5
6C
330
6B
100
AcDbEntity
8
0
100
AcDbBlockBegin
2
*D18
70
1
10
0
20
0
3
*D18
1

0
LINE
5
E8
100
AcDbEntity
8
dim
6
CONTINUOUS
62
7
370
0
100
AcDbLine
10
-10.5
20
-90
11
-32
21
-111
0
LINE
5
E9
100
AcDbEntity
8
dim
6
CONTINUOUS
62
7
370
0
100
AcDbLine
10
-32
20
-111
11
-32
21
-114
0
LINE
5
EA
100
AcDbEntity
8
dim
6
CONTINUOUS
62
7
370
0
100
AcDbLine
10
-32
20
-114
11
38
21
-114
0
SOLID
5
EB
100
AcDbEntity
8
dim
6
CONTINUOUS
62
7
370
0
100
AcDbTrace
10
-10.5
20
-90
30
0
11
-11.9975659044
21
-92.0446489376
31
0
12
-12.5793149916
22
-91.4490486817
32
0
13
-12.5793149916
23
-91.4490486817
33
0
0
ENDBLK
5
6D
330
6B
100
AcDbEntity
8
0
100
AcDbBlockEnd
0
BLOCK
5
6F
330
6E
100
AcDbEntity
8
0
100
AcDbBlockBegin
2
*D16
70
1
10
0
20
0
3
*D16
1

0
ENDBLK
5
70
330
6E
100
AcDbEntity
8
0
100
AcDbBlockEnd
0
BLOCK
5
72
330
71
100
AcDbEntity
8
0
100
AcDbBlockBegin
2
*D7
70
1
10
0
20
0
3
*D7
1

0
LINE
5
EC
100
AcDbEntity
8
dim
6
CONTINUOUS
62
7
370
0
100
AcDbLine
10
-50
20
28
11
-50
21
13
0
SOLID
5
ED
100
AcDbEntity
8
dim
6
CONTINUOUS
62
7
370
0
100
AcDbTrace
10
-50
20
28
30
0
11
-49.5837153422
21
25.5
31
0
12
-50.4162846578
22
25.5
32
0
13
-50.4162846578
23
25.5
33
0
0
SOLID
5
EE
100
AcDbEntity
8
dim
6
CONTINUOUS
62
7
370
0
100
AcDbTrace
10
-50
20
13
30
0
11
-50.4162846578
21
15.5
31
0
12
-49.5837153422
22
15.5
32
0
13
-49.5837153422
23
15.5
33
0
0
MTEXT
5
EF
100
AcDbEntity
8
dim
6
CONTINUOUS
62
7
370
0
100
AcDbMText
10
-51.875
20
20.5
30
0
40
2.5
41
2.5
71
5
72
1
1
15
7
standard
210
0
220
0
230
1
50
90
73
2
44
1
0
LINE
5
F0
100
AcDbEntity
8
dim
6
CONTINUOUS
62
7
370
0
100
AcDbLine
10
-11.125
20
28
11
-51.25
21
28
0
LINE
5
F1
100
AcDbEntity
8
dim
6
CONTINUOUS
62
7
370
0
100
AcDbLine
10
-11.125
20
13
11
-51.25
21
13
0
ENDBLK
5
73
330
71
100
AcDbEntity
8
0
100
AcDbBlockEnd
0
BLOCK
5
75
330
74
100
AcDbEntity
8
0
100
AcDbBlockBegin
2
*D12
70
1
10
0
20
0
3
*D12
1

0
LINE
5
F2
100
AcDbEntity
8
dim
6
CONTINUOUS
62
7
370
0
100
AcDbLine
10
7.739009663
20
-3.1304951685
11
20.260990337
21
3.1304951685
0
SOLID
5
F3
100
AcDbEntity
8
dim
6
CONTINUOUS
62
7
370
0
100
AcDbTrace
10
12.211145618
20
-0.894427191
30
0
11
10.1612457991
21
-2.38479749686
31
0
12
9.78890948195
22
-1.64012486264
32
0
13
9.78890948195
23
-1.64012486264
33
0
0
SOLID
5
F4
100
AcDbEntity
8
dim
6
CONTINUOUS
62
7
370
0
100
AcDbTrace
10
15.788854382
20
0.894427191
30
0
11
17.8387542009
21
2.38479749686
31
0
12
18.2110905181
22
1.64012486264
32
0
13
18.2110905181
23
1.64012486264
33
0
0
MTEXT
5
F5
100
AcDbEntity
8
dim
6
CONTINUOUS
62
7
370
0
100
AcDbMText
10
13.1614745084
20
1.67705098312
30
0
40
2.5
41
3.61111111111
71
5
72
1
1
   %%C5
7
standard
210
0
220
0
230
1
50
26.5650511771
73
2
44
1
0
ENDBLK
5
76
330
74
100
AcDbEntity
8
0
100
AcDbBlockEnd
0
BLOCK
5
78
330
77
100
AcDbEntity
8
0
100
AcDbBlockBegin
2
*D13
70
1
10
0
20
0
3
*D13
1

0
LINE
5
F6
100
AcDbEntity
8
dim
6
CONTINUOUS
62
7
370
0
100
AcDbLine
10
-5.82435206032
20
10.1170986263
11
5.82435206032
21
17.8829013737
0
SOLID
5
F7
100
AcDbEntity
8
dim
6
CONTINUOUS
62
7
370
0
100
AcDbTrace
10
-1.66410058868
20
12.8905996075
30
0
11
-3.51331314314
21
11.1574793449
31
0
12
-3.97513950586
22
11.8502188889
32
0
13
-3.97513950586
23
11.8502188889
33
0
0
SOLID
5
F8
100
AcDbEntity
8
dim
6
CONTINUOUS
62
7
370
0
100
AcDbTrace
10
1.66410058868
20
15.1094003925
30
0
11
3.51331314314
21
16.8425206551
31
0
12
3.97513950586
22
16.1497811111
32
0
13
3.97513950586
23
16.1497811111
33
0
0
MTEXT
5
F9
100
AcDbEntity
8
dim
6
CONTINUOUS
62
7
370
0
100
AcDbMText
10
-1.04006286792
20
15.5600943019
30
0
40
2.5
41
3.61111111111
71
5
72
1
1
   %%C5
7
standard
210
0
220
0
230
1
50
33.6900675271
73
2
44
1
0
ENDBLK
5
79
330
77
100
AcDbEntity
8
0
100
AcDbBlockEnd
0
BLOCK
5
7B
330
7A
100
AcDbEntity
8
0
100
AcDbBlockBegin
2
*D8
70
1
10
0
20
0
3
*D8
1

0
LINE
5
FA
100
AcDbEntity
8
dim
6
CONTINUOUS
62
7
370
0
100
AcDbLine
10
-33.9223227028
20
-90.7844645406
11
-26.0776772972
21
-89.2155354594
0
SOLID
5
FB
100
AcDbEntity
8
dim
6
CONTINUOUS
62
7
370
0
100
AcDbTrace
10
-33.9223227028
20
-90.7844645406
30
0
11
-31.5525111518
21
-89.8859735117
31
0
12
-31.3892308754
22
-90.7023748937
32
0
13
-31.3892308754
23
-90.7023748937
33
0
0
SOLID
5
FC
100
AcDbEntity
8
dim
6
CONTINUOUS
62
7
370
0
100
AcDbTrace
10
-26.0776772972
20
-89.2155354594
30
0
11
-28.4474888482
21
-90.1140264883
31
0
12
-28.6107691246
22
-89.2976251063
32
0
13
-28.6107691246
23
-89.2976251063
33
0
0
MTEXT
5
FD
100
AcDbEntity
8
dim
6
CONTINUOUS
62
7
370
0
100
AcDbMText
10
-30.3677177534
20
-88.1614112331
30
0
40
2.5
41
3.61111111111
71
5
72
1
1
   %%C8
7
standard
210
0
220
0
230
1
50
11.3099324746
73
2
44
1
0
ENDBLK
5
7C
330
7A
100
AcDbEntity
8
0
100
AcDbBlockEnd
0
BLOCK
5
7E
330
7D
100
AcDbEntity
8
0
100
AcDbBlockBegin
2
*D19
70
1
10
0
20
0
3
*D19
1

0
LINE
5
FE
100
AcDbEntity
8
dim
6
CONTINUOUS
62
7
370
0
100
AcDbLine
10
-38
20
-70
11
-30
21
-70
0
SOLID
5
FF
100
AcDbEntity
8
dim
6
CONTINUOUS
62
7
370
0
100
AcDbTrace
10
-38
20
-70
30
0
11
-35.5
21
-69.5837153422
31
0
12
-35.5
22
-70.4162846578
32
0
13
-35.5
23
-70.4162846578
33
0
0
SOLID
5
100
100
AcDbEntity
8
dim
6
CONTINUOUS
62
7
370
0
100
AcDbTrace
10
-30
20
-70
30
0
11
-32.5
21
-70.4162846578
31
0
12
-32.5
22
-69.5837153422
32
0
13
-32.5
23
-69.5837153422
33
0
0
MTEXT
5
101
100
AcDbEntity
8
dim
6
CONTINUOUS
62
7
370
0
100
AcDbMText
10
-34
20
-68.125
30
0
40
2.5
41
1.11111111111
71
5
72
1
1
8
7
standard
210
0
220
0
230
1
50
0
73
2
44
1
0
LINE
5
102
100
AcDbEntity
8
dim
6
CONTINUOUS
62
7
370
0
100
AcDbLine
10
-38
20
-80.375
11
-38
21
-68.75
0
LINE
5
103
100
AcDbEntity
8
dim
6
CONTINUOUS
62
7
370
0
100
AcDbLine
10
-30
20
-89.375
11
-30
21
-68.75
0
ENDBLK
5
7F
330
7D
100
AcDbEntity
8
0
100
AcDbBlockEnd
0
BLOCK
5
81
330
80
100
AcDbEntity
8
0
100
AcDbBlockBegin
2
*D29
70
1
10
0
20
0
3
*D29
1

0
LINE
5
104
100
AcDbEntity
8
dim
6
CONTINUOUS
62
7
370
0
100
AcDbLine
10
-14
20
40
11
14
21
40
0
SOLID
5
105
100
AcDbEntity
8
dim
6
CONTINUOUS
62
7
370
0
100
AcDbTrace
10
-14
20
40
30
0
11
-11.5
21
40.4162846578
31
0
12
-11.5
22
39.5837153422
32
0
13
-11.5
23
39.5837153422
33
0
0
SOLID
5
106
100
AcDbEntity
8
dim
6
CONTINUOUS
62
7
370
0
100
AcDbTrace
10
14
20
40
30
0
11
11.5
21
39.5837153422
31
0
12
11.5
22
40.4162846578
32
0
13
11.5
23
40.4162846578
33
0
0
MTEXT
5
107
100
AcDbEntity
8
dim
6
CONTINUOUS
62
7
370
0
100
AcDbMText
10
1.00298526537e-15
20
41.875
30
0
40
2.5
41
3.05555555556
71
5
72
1
1
28
7
standard
210
0
220
0
230
1
50
0
73
2
44
1
0
LINE
5
108
100
AcDbEntity
8
dim
6
CONTINUOUS
62
7
370
0
100
AcDbLine
10
-14
20
0.625
11
-14
21
41.25
0
LINE
5
109
100
AcDbEntity
8
dim
6
CONTINUOUS
62
7
370
0
100
AcDbLine
10
14
20
0.625
11
14
21
41.25
0
ENDBLK
5
82
330
80
100
AcDbEntity
8
0
100
AcDbBlockEnd
0
BLOCK
5
84
330
83
100
AcDbEntity
8
0
100
AcDbBlockBegin
2
*D27
70
1
10
0
20
0
3
*D27
1

0
LINE
5
10A
100
AcDbEntity
8
dim
6
CONTINUOUS
62
7
370
0
100
AcDbLine
10
0
20
12
11
25
21
-50
0
SOLID
5
10B
100
AcDbEntity
8
dim
6
CONTINUOUS
62
7
370
0
100
AcDbTrace
10
0
20
12
30
0
11
1.32100049453
21
9.83707360048
31
0
12
0.548841182953
22
9.52571903936
32
0
13
0.548841182953
23
9.52571903936
33
0
0
LINE
5
10C
100
AcDbEntity
8
dim
6
CONTINUOUS
62
7
370
0
100
AcDbLine
10
25
20
-50
11
25
21
-54
0
LINE
5
10D
100
AcDbEntity
8
dim
6
CONTINUOUS
62
7
370
0
100
AcDbLine
10
25
20
-54
11
-30
21
-54
0
ENDBLK
5
85
330
83
100
AcDbEntity
8
0
100
AcDbBlockEnd
0
BLOCK
5
87
330
86
100
AcDbEntity
8
0
100
AcDbBlockBegin
2
*D9
70
1
10
0
20
0
3
*D9
1

0
LINE
5
10E
100
AcDbEntity
8
dim
6
CONTINUOUS
62
7
370
0
100
AcDbLine
10
26.1194299994
20
-90.9701425001
11
33.8805700006
21
-89.0298574999
0
SOLID
5
10F
100
AcDbEntity
8
dim
6
CONTINUOUS
62
7
370
0
100
AcDbTrace
10
26.1194299994
20
-90.9701425001
30
0
11
28.4438223901
21
-89.9599479989
31
0
12
28.6457501094
22
-90.7676588762
32
0
13
28.6457501094
23
-90.7676588762
33
0
0
SOLID
5
110
100
AcDbEntity
8
dim
6
CONTINUOUS
62
7
370
0
100
AcDbTrace
10
33.8805700006
20
-89.0298574999
30
0
11
31.5561776099
21
-90.0400520011
31
0
12
31.3542498906
22
-89.2323411238
32
0
13
31.3542498906
23
-89.2323411238
33
0
0
MTEXT
5
111
100
AcDbEntity
8
dim
6
CONTINUOUS
62
7
370
0
100
AcDbMText
10
29.5452457031
20
-88.1809828122
30
0
40
2.5
41
3.61111111111
71
5
72
1
1
   %%C8
7
standard
210
0
220
0
230
1
50
14.0362434672
73
2
44
1
0
ENDBLK
5
88
330
86
100
AcDbEntity
8
0
100
AcDbBlockEnd
0
BLOCK
5
8A
330
89
100
AcDbEntity
8
0
100
AcDbBlockBegin
2
*D20
70
1
10
0
20
0
3
*D20
1

0
LINE
5
112
100
AcDbEntity
8
dim
6
CONTINUOUS
62
7
370
0
100
AcDbLine
10
-30
20
-70
11
-8
21
-70
0
SOLID
5
113
100
AcDbEntity
8
dim
6
CONTINUOUS
62
7
370
0
100
AcDbTrace
10
-30
20
-70
30
0
11
-27.5
21
-69.5837153422
31
0
12
-27.5
22
-70.4162846578
32
0
13
-27.5
23
-70.4162846578
33
0
0
SOLID
5
114
100
AcDbEntity
8
dim
6
CONTINUOUS
62
7
370
0
100
AcDbTrace
10
-8
20
-70
30
0
11
-10.5
21
-70.4162846578
31
0
12
-10.5
22
-69.5837153422
32
0
13
-10.5
23
-69.5837153422
33
0
0
MTEXT
5
115
100
AcDbEntity
8
dim
6
CONTINUOUS
62
7
370
0
100
AcDbMText
10
-19
20
-68.125
30
0
40
2.5
41
3.05555555556
71
5
72
1
1
22
7
standard
210
0
220
0
230
1
50
0
73
2
44
1
0
LINE
5
116
100
AcDbEntity
8
dim
6
CONTINUOUS
62
7
370
0
100
AcDbLine
10
-30
20
-89.375
11
-30
21
-68.75
0
LINE
5
117
100
AcDbEntity
8
dim
6
CONTINUOUS
62
7
370
0
100
AcDbLine
10
-8
20
-89.375
11
-8
21
-68.75
0
ENDBLK
5
8B
330
89
100
AcDbEntity
8
0
100
AcDbBlockEnd
0
BLOCK
5
8D
330
8C
100
AcDbEntity
8
0
100
AcDbBlockBegin
2
*D22
70
1
10
0
20
0
3
*D22
1

0
LINE
5
118
100
AcDbEntity
8
dim
6
CONTINUOUS
62
7
370
0
100
AcDbLine
10
8
20
-70
11
30
21
-70
0
SOLID
5
119
100
AcDbEntity
8
dim
6
CONTINUOUS
62
7
370
0
100
AcDbTrace
10
8
20
-70
30
0
11
10.5
21
-69.5837153422
31
0
12
10.5
22
-70.4162846578
32
0
13
10.5
23
-70.4162846578
33
0
0
SOLID
5
11A
100
AcDbEntity
8
dim
6
CONTINUOUS
62
7
370
0
100
AcDbTrace
10
30
20
-70
30
0
11
27.5
21
-70.4162846578
31
0
12
27.5
22
-69.5837153422
32
0
13
27.5
23
-69.5837153422
33
0
0
MTEXT
5
11B
100
AcDbEntity
8
dim
6
CONTINUOUS
62
7
370
0
100
AcDbMText
10
19
20
-68.125
30
0
40
2.5
41
3.05555555556
71
5
72
1
1
22
7
standard
210
0
220
0
230
1
50
0
73
2
44
1
0
LINE
5
11C
100
AcDbEntity
8
dim
6
CONTINUOUS
62
7
370
0
100
AcDbLine
10
8
20
-89.375
11
8
21
-68.75
0
LINE
5
11D
100
AcDbEntity
8
dim
6
CONTINUOUS
62
7
370
0
100
AcDbLine
10
30
20
-89.375
11
30
21
-68.75
0
ENDBLK
5
8E
330
8C
100
AcDbEntity
8
0
100
AcDbBlockEnd
0
BLOCK
5
90
330
8F
100
AcDbEntity
8
0
100
AcDbBlockBegin
2
*D14
70
1
10
0
20
0
3
*D14
1

0
LINE
5
11E
100
AcDbEntity
8
dim
6
CONTINUOUS
62
7
370
0
100
AcDbLine
10
-18.9497474684
20
-4.94974746827
11
-9.05025253163
21
4.94974746827
0
SOLID
5
11F
100
AcDbEntity
8
dim
6
CONTINUOUS
62
7
370
0
100
AcDbTrace
10
-15.4142135624
20
-1.41421356237
30
0
11
-16.887622811
21
-3.47633821974
31
0
12
-17.4763382198
22
-2.8876228109
32
0
13
-17.4763382198
23
-2.8876228109
33
0
0
SOLID
5
120
100
AcDbEntity
8
dim
6
CONTINUOUS
62
7
370
0
100
AcDbTrace
10
-12.5857864376
20
1.41421356237
30
0
11
-11.112377189
21
3.47633821974
31
0
12
-10.5236617802
22
2.8876228109
32
0
13
-10.5236617802
23
2.8876228109
33
0
0
MTEXT
5
121
100
AcDbEntity
8
dim
6
CONTINUOUS
62
7
370
0
100
AcDbMText
10
-15.3258252147
20
1.32582521472
30
0
40
2.5
41
3.61111111111
71
5
72
1
1
   %%C5
7
standard
210
0
220
0
230
1
50
44.9999999994
73
2
44
1
0
ENDBLK
5
91
330
8F
100
AcDbEntity
8
0
100
AcDbBlockEnd
0
BLOCK
5
93
330
92
100
AcDbEntity
8
0
100
AcDbBlockBegin
2
*D30
70
1
10
0
20
0
3
*D30
1

0
LINE
5
122
100
AcDbEntity
8
dim
6
CONTINUOUS
62
7
370
0
100
AcDbLine
10
44
20
28
11
44
21
14
0
SOLID
5
123
100
AcDbEntity
8
dim
6
CONTINUOUS
62
7
370
0
100
AcDbTrace
10
44
20
28
30
0
11
44.4162846578
21
25.5
31
0
12
43.5837153422
22
25.5
32
0
13
43.5837153422
23
25.5
33
0
0
SOLID
5
124
100
AcDbEntity
8
dim
6
CONTINUOUS
62
7
370
0
100
AcDbTrace
10
44
20
14
30
0
11
43.5837153422
21
16.5
31
0
12
44.4162846578
22
16.5
32
0
13
44.4162846578
23
16.5
33
0
0
MTEXT
5
125
100
AcDbEntity
8
dim
6
CONTINUOUS
62
7
370
0
100
AcDbMText
10
42.125
20
21
30
0
40
2.5
41
2.77777777778
71
5
72
1
1
14
7
standard
210
0
220
0
230
1
50
90
73
2
44
1
0
LINE
5
126
100
AcDbEntity
8
dim
6
CONTINUOUS
62
7
370
0
100
AcDbLine
10
38.625
20
28
11
45.25
21
28
0
LINE
5
127
100
AcDbEntity
8
dim
6
CONTINUOUS
62
7
370
0
100
AcDbLine
10
0.625
20
14
11
45.25
21
14
0
ENDBLK
5
94
330
92
100
AcDbEntity
8
0
100
AcDbBlockEnd
0
BLOCK
5
96
330
95
100
AcDbEntity
8
0
100
AcDbBlockBegin
2
*D11
70
1
10
0
20
0
3
*D11
1

0
LINE
5
128
100
AcDbEntity
8
dim
6
CONTINUOUS
62
7
370
0
100
AcDbLine
10
3.83974852828
20
-96.2403772075
11
12.1602514717
21
-83.7596227925
0
SOLID
5
129
100
AcDbEntity
8
dim
6
CONTINUOUS
62
7
370
0
100
AcDbTrace
10
6.61324950944
20
-92.0801257358
30
0
11
5.57286879088
21
-94.391164653
31
0
12
4.88012924683
22
-93.9293382903
32
0
13
4.88012924683
23
-93.9293382903
33
0
0
SOLID
5
12A
100
AcDbEntity
8
dim
6
CONTINUOUS
62
7
370
0
100
AcDbTrace
10
9.38675049056
20
-87.9198742642
30
0
11
10.4271312091
21
-85.608835347
31
0
12
11.1198707532
22
-86.0706617097
32
0
13
11.1198707532
23
-86.0706617097
33
0
0
MTEXT
5
12B
100
AcDbEntity
8
dim
6
CONTINUOUS
62
7
370
0
100
AcDbMText
10
6.43990569812
20
-88.9599371321
30
0
40
2.5
41
3.61111111111
71
5
72
1
1
   %%C5
7
standard
210
0
220
0
230
1
50
56.3099324735
73
2
44
1
0
ENDBLK
5
97
330
95
100
AcDbEntity
8
0
100
AcDbBlockEnd
0
BLOCK
5
99
330
98
100
AcDbEntity
8
0
100
AcDbBlockBegin
2
*D3
70
1
10
0
20
0
3
*D3
1

0
LINE
5
12C
100
AcDbEntity
8
dim
6
CONTINUOUS
62
7
370
0
100
AcDbLine
10
-38
20
-40
11
38
21
-40
0
SOLID
5
12D
100
AcDbEntity
8
dim
6
CONTINUOUS
62
7
370
0
100
AcDbTrace
10
-38
20
-40
30
0
11
-35.5
21
-39.5837153422
31
0
12
-35.5
22
-40.4162846578
32
0
13
-35.5
23
-40.4162846578
33
0
0
SOLID
5
12E
100
AcDbEntity
8
dim
6
CONTINUOUS
62
7
370
0
100
AcDbTrace
10
38
20
-40
30
0
11
35.5
21
-40.4162846578
31
0
12
35.5
22
-39.5837153422
32
0
13
35.5
23
-39.5837153422
33
0
0
MTEXT
5
12F
100
AcDbEntity
8
dim
6
CONTINUOUS
62
7
370
0
100
AcDbMText
10
1.14806845671e-16
20
-38.125
30
0
40
2.5
41
3.05555555556
71
5
72
1
1
76
7
standard
210
0
220
0
230
1
50
0
73
2
44
1
0
LINE
5
130
100
AcDbEntity
8
dim
6
CONTINUOUS
62
7
370
0
100
AcDbLine
10
-38
20
-28.625
11
-38
21
-41.25
0
LINE
5
131
100
AcDbEntity
8
dim
6
CONTINUOUS
62
7
370
0
100
AcDbLine
10
38
20
-28.625
11
38
21
-41.25
0
ENDBLK
5
9A
330
98
100
AcDbEntity
8
0
100
AcDbBlockEnd
0
BLOCK
5
9C
330
9B
100
AcDbEntity
8
0
100
AcDbBlockBegin
2
*D31
70
1
10
0
20
0
3
*D31
1

0
LINE
5
132
100
AcDbEntity
8
dim
6
CONTINUOUS
62
7
370
0
100
AcDbLine
10
44
20
14
11
44
21
-14
0
SOLID
5
133
100
AcDbEntity
8
dim
6
CONTINUOUS
62
7
370
0
100
AcDbTrace
10
44
20
14
30
0
11
44.4162846578
21
11.5
31
0
12
43.5837153422
22
11.5
32
0
13
43.5837153422
23
11.5
33
0
0
SOLID
5
134
100
AcDbEntity
8
dim
6
CONTINUOUS
62
7
370
0
100
AcDbTrace
10
44
20
-14
30
0
11
43.5837153422
21
-11.5
31
0
12
44.4162846578
22
-11.5
32
0
13
44.4162846578
23
-11.5
33
0
0
MTEXT
5
135
100
AcDbEntity
8
dim
6
CONTINUOUS
62
7
370
0
100
AcDbMText
10
42.125
20
-6.58564728358e-16
30
0
40
2.5
41
3.05555555556
71
5
72
1
1
28
7
standard
210
0
220
0
230
1
50
90
73
2
44
1
0
LINE
5
136
100
AcDbEntity
8
dim
6
CONTINUOUS
62
7
370
0
100
AcDbLine
10
0.625
20
14
11
45.25
21
14
0
LINE
5
137
100
AcDbEntity
8
dim
6
CONTINUOUS
62
7
370
0
100
AcDbLine
10
0.625
20
-14
11
45.25
21
-14
0
ENDBLK
5
9D
330
9B
100
AcDbEntity
8
0
100
AcDbBlockEnd
0
BLOCK
5
9F
330
9E
100
AcDbEntity
8
0
100
AcDbBlockBegin
2
*D10
70
1
10
0
20
0
3
*D10
1

0
LINE
5
138
100
AcDbEntity
8
dim
6
CONTINUOUS
62
7
370
0
100
AcDbLine
10
-12.1602514717
20
-96.2403772075
11
-3.83974852828
21
-83.7596227925
0
SOLID
5
139
100
AcDbEntity
8
dim
6
CONTINUOUS
62
7
370
0
100
AcDbTrace
10
-9.38675049056
20
-92.0801257358
30
0
11
-10.4271312091
21
-94.391164653
31
0
12
-11.1198707532
22
-93.9293382903
32
0
13
-11.1198707532
23
-93.9293382903
33
0
0
SOLID
5
13A
100
AcDbEntity
8
dim
6
CONTINUOUS
62
7
370
0
100
AcDbTrace
10
-6.61324950944
20
-87.9198742642
30
0
11
-5.57286879088
21
-85.608835347
31
0
12
-4.88012924683
22
-86.0706617097
32
0
13
-4.88012924683
23
-86.0706617097
33
0
0
MTEXT
5
13B
100
AcDbEntity
8
dim
6
CONTINUOUS
62
7
370
0
100
AcDbMText
10
-9.56009430188
20
-88.9599371321
30
0
40
2.5
41
3.61111111111
71
5
72
1
1
   %%C5
7
standard
210
0
220
0
230
1
50
56.3099324735
73
2
44
1
0
ENDBLK
5
A0
330
9E
100
AcDbEntity
8
0
100
AcDbBlockEnd
0
BLOCK
5
A2
330
A1
100
AcDbEntity
8
0
100
AcDbBlockBegin
2
*D15
70
1
10
0
20
0
3
*D15
1

0
LINE
5
13C
100
AcDbEntity
8
dim
6
CONTINUOUS
62
7
370
0
100
AcDbLine
10
-6.260990337
20
-17.1304951685
11
6.260990337
21
-10.8695048315
0
SOLID
5
13D
100
AcDbEntity
8
dim
6
CONTINUOUS
62
7
370
0
100
AcDbTrace
10
-1.788854382
20
-14.894427191
30
0
11
-3.83875420095
21
-16.3847974969
31
0
12
-4.21109051805
22
-15.6401248626
32
0
13
-4.21109051805
23
-15.6401248626
33
0
0
SOLID
5
13E
100
AcDbEntity
8
dim
6
CONTINUOUS
62
7
370
0
100
AcDbTrace
10
1.788854382
20
-13.105572809
30
0
11
3.83875420095
21
-11.6152025031
31
0
12
4.21109051805
22
-12.3598751374
32
0
13
4.21109051805
23
-12.3598751374
33
0
0
MTEXT
5
13F
100
AcDbEntity
8
dim
6
CONTINUOUS
62
7
370
0
100
AcDbMText
10
-0.838525491562
20
-12.3229490169
30
0
40
2.5
41
3.61111111111
71
5
72
1
1
   %%C5
7
standard
210
0
220
0
230
1
50
26.5650511771
73
2
44
1
0
ENDBLK
5
A3
330
A1
100
AcDbEntity
8
0
100
AcDbBlockEnd
0
BLOCK
5
A5
330
A4
100
AcDbEntity
8
0
100
AcDbBlockBegin
2
*D2
70
1
10
0
20
0
3
*D2
1

0
SOLID
5
140
100
AcDbEntity
8
dim
6
CONTINUOUS
62
7
370
0
100
AcDbTrace
10
-3.38755995541
20
25.8729274699
30
0
11
-5.28341801249
21
24.1909598294
31
0
12
-5.72615184262
22
24.8960544478
32
0
13
-5.72615184262
23
24.8960544478
33
0
0
LINE
5
141
100
AcDbEntity
8
dim
6
CONTINUOUS
62
7
370
0
100
AcDbLine
10
7.93408307803e-15
20
28
11
-8.79824599533
21
22.4755199565
0
MTEXT
5
142
100
AcDbEntity
8
dim
6
CONTINUOUS
62
7
370
0
100
AcDbMText
10
-7.08996822386
20
25.7621424422
30
0
40
2.5
41
1.38888888889
71
5
72
1
1
4
7
standard
210
0
220
0
230
1
50
32.1249984399
73
2
44
1
0
ENDBLK
5
A6
330
A4
100
AcDbEntity
8
0
100
AcDbBlockEnd
0
BLOCK
5
A8
330
A7
100
AcDbEntity
8
0
100
AcDbBlockBegin
2
CUT001008009042_PROJ
70
0
10
0
20
0
3
CUT001008009042_PROJ
1

0
LINE
5
143
100
AcDbEntity
8
0
6
ByLayer
62
0
370
-1
100
AcDbLine
10
-38
20
-28
11
-38
21
28
0
LINE
5
144
100
AcDbEntity
8
0
6
ByLayer
62
0
370
-1
100
AcDbLine
10
38
20
-28
11
-38
21
-28
0
LINE
5
145
100
AcDbEntity
8
0
6
ByLayer
62
0
370
-1
100
AcDbLine
10
-38
20
28
11
-4
21
28
0
ARC
5
146
100
AcDbEntity
8
0
6
ByLayer
62
0
370
-1
100
AcDbCircle
10
7.93408307803e-15
20
28
40
4
100
AcDbArc
50
180
51
0
0
LINE
5
147
100
AcDbEntity
8
0
6
ByLayer
62
0
370
-1
100
AcDbLine
10
38
20
28
11
4
21
28
0
LINE
5
148
100
AcDbEntity
8
0
6
ByLayer
62
0
370
-1
100
AcDbLine
10
38
20
28
11
38
21
-28
0
CIRCLE
5
149
100
AcDbEntity
8
0
6
ByLayer
62
0
370
-1
100
AcDbCircle
10
0
20
0
40
9
0
CIRCLE
5
14A
100
AcDbEntity
8
0
6
ByLayer
62
256
370
-1
100
AcDbCircle
10
14
20
0
40
2
0
CIRCLE
5
14B
100
AcDbEntity
8
0
6
ByLayer
62
256
370
-1
100
AcDbCircle
10
0
20
14
40
2
0
CIRCLE
5
14C
100
AcDbEntity
8
0
6
ByLayer
62
256
370
-1
100
AcDbCircle
10
-14
20
0
40
2
0
CIRCLE
5
14D
100
AcDbEntity
8
0
6
ByLayer
62
256
370
-1
100
AcDbCircle
10
-3.96584891663e-15
20
-14
40
2
0
ENDBLK
5
A9
330
A7
100
AcDbEntity
8
0
100
AcDbBlockEnd
0
BLOCK
5
AB
330
AA
100
AcDbEntity
8
0
100
AcDbBlockBegin
2
CUT001008009042_PROJ001
70
0
10
0
20
0
3
CUT001008009042_PROJ001
1

0
LINE
5
14E
100
AcDbEntity
8
0
6
ByLayer
62
0
370
-1
100
AcDbLine
10
38
20
-9
11
38
21
9
0
CIRCLE
5
14F
100
AcDbEntity
8
0
6
ByLayer
62
0
370
-1
100
AcDbCircle
10
30
20
-1.83690953073e-15
40
4
0
CIRCLE
5
150
100
AcDbEntity
8
0
6
ByLayer
62
0
370
-1
100
AcDbCircle
10
8
20
-4.89842541529e-16
40
2.5
0
LINE
5
151
100
AcDbEntity
8
0
6
ByLayer
62
0
370
-1
100
AcDbLine
10
38
20
-9
11
4
21
-9
0
LINE
5
152
100
AcDbEntity
8
0
6
ByLayer
62
0
370
-1
100
AcDbLine
10
38
20
9
11
4
21
9
0
LINE
5
153
100
AcDbEntity
8
0
6
ByLayer
62
0
370
-1
100
AcDbLine
10
4
20
-9
11
4
21
9
0
LWPOLYLINE
5
154
100
AcDbEntity
8
0
6
ByLayer
62
0
370
-1
100
AcDbPolyline
90
2
70
0
43
0
10
4
20
-9
10
-4
20
-9
0
LINE
5
155
100
AcDbEntity
8
0
6
ByLayer
62
0
370
-1
100
AcDbLine
10
-38
20
-9
11
-4
21
-9
0
LWPOLYLINE
5
156
100
AcDbEntity
8
0
6
ByLayer
62
0
370
-1
100
AcDbPolyline
90
2
70
0
43
0
10
4
20
9
10
-4
20
9
0
LINE
5
157
100
AcDbEntity
8
0
6
ByLayer
62
0
370
-1
100
AcDbLine
10
-38
20
9
11
-4
21
9
0
LINE
5
158
100
AcDbEntity
8
0
6
ByLayer
62
0
370
-1
100
AcDbLine
10
-38
20
-9
11
-38
21
9
0
CIRCLE
5
159
100
AcDbEntity
8
0
6
ByLayer
62
0
370
-1
100
AcDbCircle
10
-30
20
1.83690953073e-15
40
4
0
LINE
5
15A
100
AcDbEntity
8
0
6
ByLayer
62
0
370
-1
100
AcDbLine
10
-4
20
-9
11
-4
21
9
0
CIRCLE
5
15B
100
AcDbEntity
8
0
6
ByLayer
62
0
370
-1
100
AcDbCircle
10
-8
20
4.89842541529e-16
40
2.5
0
CIRCLE
5
15C
100
AcDbEntity
8
0
6
ByLayer
62
0
370
-1
100
AcDbCircle
10
-8
20
4.89842541529e-16
40
2.5
0
ENDBLK
5
AC
330
AA
100
AcDbEntity
8
0
100
AcDbBlockEnd
0
BLOCK
5
AE
330
AD
100
AcDbEntity
8
0
100
AcDbBlockBegin
2
CUT001008009042_PROJ002
70
0
10
0
20
0
3
CUT001008009042_PROJ002
1

0
LINE
5
15D
100
AcDbEntity
8
0
6
ByLayer
62
0
370
-1
100
AcDbLine
10
9
20
-28
11
-9
21
-28
0
LWPOLYLINE
5
15E
100
AcDbEntity
8
0
6
ByLayer
62
0
370
-1
100
AcDbPolyline
90
2
70
0
43
0
10
-4
20
-28
10
4
20
-28
0
LINE
5
15F
100
AcDbEntity
8
0
6
ByLayer
62
0
370
-1
100
AcDbLine
10
9
20
28
11
9
21
-28
0
LINE
5
160
100
AcDbEntity
8
0
6
ByLayer
62
0
370
-1
100
AcDbLine
10
-9
20
28
11
-9
21
-28
0
LINE
5
161
100
AcDbEntity
8
0
6
ByLayer
62
0
370
-1
100
AcDbLine
10
9
20
28
11
-9
21
28
0
ENDBLK
5
AF
330
AD
100
AcDbEntity
8
0
100
AcDbBlockEnd
0
ENDSEC
0
SECTION
2
ENTITIES
0
INSERT
5
162
100
AcDbEntity
8
0
6
ByLayer
62
256
370
-1
100
AcDbBlockReference
2
CUT001008009042_PROJ
10
0
20
0
30
0
41
1
42
1
43
0
50
0
70
1
71
1
44
0
45
0
0
INSERT
5
163
100
AcDbEntity
8
0
6
ByLayer
62
256
370
-1
100
AcDbBlockReference
2
CUT001008009042_PROJ002
10
110
20
0
30
0
41
1
42
1
43
0
50
0
70
1
71
1
44
0
45
0
0
INSERT
5
164
100
AcDbEntity
8
0
6
ByLayer
62
256
370
-1
100
AcDbBlockReference
2
CUT001008009042_PROJ001
10
0
20
-90
30
0
41
1
42
1
43
0
50
0
70
1
71
1
44
0
45
0
0
DIMENSION
5
165
100
AcDbEntity
8
dim
6
ByLayer
62
256
370
-1
100
AcDbDimension
2
*D1
10
8.31367902214
20
-3.4471352043
30
0
11
0.718153167563
21
1.73201646295
31
0
70
35
71
5
72
0
3
Standard
53
0
210
0
220
0
230
1
100
AcDbDiametricDimension
15
-8.31367902214
25
3.4471352043
35
0
40
0
0
DIMENSION
5
166
100
AcDbEntity
8
dim
6
ByLayer
62
256
370
-1
100
AcDbDimension
2
*D2
10
7.93408307803e-15
20
28
30
0
11
-7.08996822386
21
25.7621424422
31
0
70
36
71
5
72
0
3
Standard
53
0
210
0
220
0
230
1
100
AcDbRadialDimension
15
-3.38755995541
25
25.8729274699
35
0
40
0
0
LINE
5
167
100
AcDbEntity
8
base
6
ByLayer
62
256
370
-1
100
AcDbLine
10
7.93408307803e-15
20
28
11
7.93408307803e-15
21
-32
0
LINE
5
168
100
AcDbEntity
8
base
6
ByLayer
62
256
370
-1
100
AcDbLine
10
0
20
-80
11
0
21
-100
0
LINE
5
169
100
AcDbEntity
8
base
6
ByLayer
62
256
370
-1
100
AcDbLine
10
-20
20
0
11
20
21
0
0
LINE
5
16A
100
AcDbEntity
8
base
6
ByLayer
62
256
370
-1
100
AcDbLine
10
110
20
30
11
110
21
-30
0
LINE
5
16B
100
AcDbEntity
8
base
6
ByLayer
62
256
370
-1
100
AcDbLine
10
-40
20
-90
11
40
21
-90
0
LINE
5
16C
100
AcDbEntity
8
base
6
ByLayer
62
256
370
-1
100
AcDbLine
10
3.96584891663e-15
20
14
11
10
21
14
0
LINE
5
16D
100
AcDbEntity
8
base
6
ByLayer
62
256
370
-1
100
AcDbLine
10
3.96584891663e-15
20
14
11
-10
21
14
0
LINE
5
16E
100
AcDbEntity
8
base
6
ByLayer
62
256
370
-1
100
AcDbLine
10
-3.96584891663e-15
20
-14
11
10
21
-14
0
LINE
5
16F
100
AcDbEntity
8
base
6
ByLayer
62
256
370
-1
100
AcDbLine
10
-3.96584891663e-15
20
-14
11
-10
21
-14
0
LINE
5
170
100
AcDbEntity
8
base
6
ByLayer
62
256
370
-1
100
AcDbLine
10
14
20
-8.57224447676e-16
11
14
21
10
0
LINE
5
171
100
AcDbEntity
8
base
6
ByLayer
62
256
370
-1
100
AcDbLine
10
14
20
-8.57224447676e-16
11
14
21
-10
0
LINE
5
172
100
AcDbEntity
8
base
6
ByLayer
62
256
370
-1
100
AcDbLine
10
-14
20
8.57224447676e-16
11
-14
21
10
0
LINE
5
173
100
AcDbEntity
8
base
6
ByLayer
62
256
370
-1
100
AcDbLine
10
-14
20
8.57224447676e-16
11
-14
21
-10
0
DIMENSION
5
174
100
AcDbEntity
8
dim
6
ByLayer
62
256
370
-1
100
AcDbDimension
2
*D3
10
38
20
-40
30
0
11
1.14806845671e-16
21
-38.125
31
0
70
32
71
5
72
0
3
Standard
53
0
210
0
220
0
230
1
100
AcDbAlignedDimension
13
-38
23
-28
33
0
14
38
24
-28
34
0
100
AcDbRotatedDimension
0
DIMENSION
5
175
100
AcDbEntity
8
dim
6
ByLayer
62
256
370
-1
100
AcDbDimension
2
*D4
10
119
20
-40
30
0
11
110
21
-38.125
31
0
70
32
71
5
72
0
3
Standard
53
0
210
0
220
0
230
1
100
AcDbAlignedDimension
13
101
23
-28
33
0
14
119
24
-28
34
0
100
AcDbRotatedDimension
0
DIMENSION
5
176
100
AcDbEntity
8
dim
6
ByLayer
62
256
370
-1
100
AcDbDimension
2
*D5
10
50
20
-28
30
0
11
48.125
21
-6.87581366626e-15
31
0
70
32
71
5
72
0
3
Standard
53
0
210
0
220
0
230
1
100
AcDbAlignedDimension
13
38
23
28
33
0
14
38
24
-28
34
0
50
90
100
AcDbRotatedDimension
0
DIMENSION
5
177
100
AcDbEntity
8
dim
6
ByLayer
62
256
370
-1
100
AcDbDimension
2
*D6
10
-50
20
6.12303176911e-15
30
0
11
-51.875
21
-7
31
0
70
32
71
5
72
0
3
Standard
53
0
210
0
220
0
230
1
100
AcDbAlignedDimension
13
7.93408307803e-15
23
-14
33
0
14
0
24
0
34
0
50
90
100
AcDbRotatedDimension
0
LINE
5
178
100
AcDbEntity
8
base
6
ByLayer
62
256
370
-1
100
AcDbLine
10
-30
20
-28
11
-30
21
28
0
LINE
5
179
100
AcDbEntity
8
base
6
ByLayer
62
256
370
-1
100
AcDbLine
10
30
20
28
11
30
21
-28
0
LINE
5
17A
100
AcDbEntity
8
base2
6
ByLayer
62
256
370
-1
100
AcDbLine
10
-26
20
-28
11
-26
21
28
0
LINE
5
17B
100
AcDbEntity
8
base2
6
ByLayer
62
256
370
-1
100
AcDbLine
10
-34
20
-28
11
-34
21
28
0
LINE
5
17C
100
AcDbEntity
8
base2
6
ByLayer
62
256
370
-1
100
AcDbLine
10
34
20
28
11
34
21
-28
0
LINE
5
17D
100
AcDbEntity
8
base2
6
ByLayer
62
256
370
-1
100
AcDbLine
10
26
20
28
11
26
21
-28
0
LINE
5
17E
100
AcDbEntity
8
base2
6
ByLayer
62
256
370
-1
100
AcDbLine
10
-5.5
20
28
11
-5.5
21
13
0
LINE
5
17F
100
AcDbEntity
8
base
6
ByLayer
62
256
370
-1
100
AcDbLine
10
-8
20
28
11
-8
21
13
0
LINE
5
180
100
AcDbEntity
8
base2
6
ByLayer
62
256
370
-1
100
AcDbLine
10
-10.5
20
28
11
-10.5
21
13
0
LINE
5
181
100
AcDbEntity
8
base2
6
ByLayer
62
256
370
-1
100
AcDbLine
10
-10.5
20
13
11
-5.5
21
13
0
LINE
5
182
100
AcDbEntity
8
base2
6
ByLayer
62
256
370
-1
100
AcDbLine
10
10.5
20
28
11
10.5
21
13
0
LINE
5
183
100
AcDbEntity
8
base
6
ByLayer
62
256
370
-1
100
AcDbLine
10
8
20
28
11
8
21
13
0
LINE
5
184
100
AcDbEntity
8
base2
6
ByLayer
62
256
370
-1
100
AcDbLine
10
5.5
20
28
11
5.5
21
13
0
LINE
5
185
100
AcDbEntity
8
base2
6
ByLayer
62
256
370
-1
100
AcDbLine
10
10.5
20
13
11
5.5
21
13
0
DIMENSION
5
186
100
AcDbEntity
8
dim
6
ByLayer
62
256
370
-1
100
AcDbDimension
2
*D7
10
-50
20
13
30
0
11
-51.875
21
20.5
31
0
70
32
71
5
72
0
3
Standard
53
0
210
0
220
0
230
1
100
AcDbAlignedDimension
13
-10.5
23
28
33
0
14
-10.5
24
13
34
0
50
90
100
AcDbRotatedDimension
0
DIMENSION
5
187
100
AcDbEntity
8
dim
6
ByLayer
62
256
370
-1
100
AcDbDimension
2
*D8
10
-33.9223227028
20
-90.7844645406
30
0
11
-30.3677177534
21
-88.1614112331
31
0
70
35
1
   %%C8
71
5
72
0
3
Standard
53
0
210
0
220
0
230
1
100
AcDbDiametricDimension
15
-26.0776772972
25
-89.2155354594
35
0
40
0
0
DIMENSION
5
188
100
AcDbEntity
8
dim
6
ByLayer
62
256
370
-1
100
AcDbDimension
2
*D9
10
26.1194299994
20
-90.9701425001
30
0
11
29.5452457031
21
-88.1809828122
31
0
70
35
1
   %%C8
71
5
72
0
3
Standard
53
0
210
0
220
0
230
1
100
AcDbDiametricDimension
15
33.8805700006
25
-89.0298574999
35
0
40
0
0
DIMENSION
5
189
100
AcDbEntity
8
dim
6
ByLayer
62
256
370
-1
100
AcDbDimension
2
*D10
10
-9.38675049056
20
-92.0801257358
30
0
11
-9.56009430188
21
-88.9599371321
31
0
70
35
1
   %%C5
71
5
72
0
3
Standard
53
0
210
0
220
0
230
1
100
AcDbDiametricDimension
15
-6.61324950944
25
-87.9198742642
35
0
40
0
0
DIMENSION
5
18A
100
AcDbEntity
8
dim
6
ByLayer
62
256
370
-1
100
AcDbDimension
2
*D11
10
6.61324950944
20
-92.0801257358
30
0
11
6.43990569812
21
-88.9599371321
31
0
70
35
1
   %%C5
71
5
72
0
3
Standard
53
0
210
0
220
0
230
1
100
AcDbDiametricDimension
15
9.38675049056
25
-87.9198742642
35
0
40
0
0
DIMENSION
5
18B
100
AcDbEntity
8
dim
6
ByLayer
62
256
370
-1
100
AcDbDimension
2
*D12
10
12.211145618
20
-0.894427191
30
0
11
13.1614745084
21
1.67705098312
31
0
70
35
1
   %%C5
71
5
72
0
3
Standard
53
0
210
0
220
0
230
1
100
AcDbDiametricDimension
15
15.788854382
25
0.894427191
35
0
40
0
0
DIMENSION
5
18C
100
AcDbEntity
8
dim
6
ByLayer
62
256
370
-1
100
AcDbDimension
2
*D13
10
-1.66410058868
20
12.8905996075
30
0
11
-1.04006286792
21
15.5600943019
31
0
70
35
1
   %%C5
71
5
72
0
3
Standard
53
0
210
0
220
0
230
1
100
AcDbDiametricDimension
15
1.66410058868
25
15.1094003925
35
0
40
0
0
DIMENSION
5
18D
100
AcDbEntity
8
dim
6
ByLayer
62
256
370
-1
100
AcDbDimension
2
*D14
10
-15.4142135624
20
-1.41421356237
30
0
11
-15.3258252147
21
1.32582521472
31
0
70
35
1
   %%C5
71
5
72
0
3
Standard
53
0
210
0
220
0
230
1
100
AcDbDiametricDimension
15
-12.5857864376
25
1.41421356237
35
0
40
0
0
DIMENSION
5
18E
100
AcDbEntity
8
dim
6
ByLayer
62
256
370
-1
100
AcDbDimension
2
*D15
10
-1.788854382
20
-14.894427191
30
0
11
-0.838525491562
21
-12.3229490169
31
0
70
35
1
   %%C5
71
5
72
0
3
Standard
53
0
210
0
220
0
230
1
100
AcDbDiametricDimension
15
1.788854382
25
-13.105572809
35
0
40
0
0
MTEXT
5
18F
100
AcDbEntity
8
dim
6
ByLayer
62
256
370
-1
100
AcDbMText
10
-30
20
-110
30
0
40
3
41
66.4166666667
71
1
72
1
1
 M5,  . 15 
7
cyrillic_ii
210
0
220
0
230
1
50
0
73
2
44
1
0
LEADER
5
190
100
AcDbEntity
8
dim
6
ByLayer
62
256
370
-1
100
AcDbLeader
3
Standard
71
1
72
0
73
3
74
0
75
0
40
1
41
10
76
0
76
0
0
LEADER
5
191
100
AcDbEntity
8
dim
6
ByLayer
62
256
370
-1
100
AcDbLeader
3
Standard
71
1
72
0
73
3
74
0
75
0
40
1
41
10
76
4
76
4
10
-1.6578605873e-16
20
-16
30
0
10
-30
20
-50
30
0
10
-30
20
-54
30
0
10
25
20
-54
30
0
0
LEADER
5
192
100
AcDbEntity
8
dim
6
ByLayer
62
256
370
-1
100
AcDbLeader
3
Standard
71
1
72
0
73
3
74
0
75
0
40
1
41
10
76
4
76
4
10
-10.5
20
-90
30
0
10
-32
20
-111
30
0
10
-32
20
-114
30
0
10
38
20
-114
30
0
0
DIMENSION
5
193
100
AcDbEntity
8
dim
6
ByLayer
62
256
370
-1
100
AcDbDimension
2
*D19
10
-30
20
-70
30
0
11
-34
21
-68.125
31
0
70
32
71
5
3
Standard
53
0
210
0
220
0
230
1
100
AcDbAlignedDimension
13
-38
23
-81
33
0
14
-30
24
-90
34
0
100
AcDbRotatedDimension
0
DIMENSION
5
194
100
AcDbEntity
8
dim
6
ByLayer
62
256
370
-1
100
AcDbDimension
2
*D20
10
-8
20
-70
30
0
11
-19
21
-68.125
31
0
70
32
71
5
3
Standard
53
0
210
0
220
0
230
1
100
AcDbAlignedDimension
13
-30
23
-90
33
0
14
-8
24
-90
34
0
100
AcDbRotatedDimension
0
DIMENSION
5
195
100
AcDbEntity
8
dim
6
ByLayer
62
256
370
-1
100
AcDbDimension
2
*D21
10
8
20
-70
30
0
11
1.00298526537e-15
21
-68.125
31
0
70
32
71
5
3
Standard
53
0
210
0
220
0
230
1
100
AcDbAlignedDimension
13
-8
23
-90
33
0
14
8
24
-90
34
0
100
AcDbRotatedDimension
0
DIMENSION
5
196
100
AcDbEntity
8
dim
6
ByLayer
62
256
370
-1
100
AcDbDimension
2
*D22
10
30
20
-70
30
0
11
19
21
-68.125
31
0
70
32
71
5
3
Standard
53
0
210
0
220
0
230
1
100
AcDbAlignedDimension
13
8
23
-90
33
0
14
30
24
-90
34
0
100
AcDbRotatedDimension
0
DIMENSION
5
197
100
AcDbEntity
8
dim
6
ByLayer
62
256
370
-1
100
AcDbDimension
2
*D23
10
-50
20
-81
30
0
11
-51.875
21
-85.5
31
0
70
32
71
5
3
Standard
53
0
210
0
220
0
230
1
100
AcDbAlignedDimension
13
-30
23
-90
33
0
14
-38
24
-81
34
0
50
90
100
AcDbRotatedDimension
0
LEADER
5
198
100
AcDbEntity
8
dim
6
ByLayer
62
256
370
-1
100
AcDbLeader
3
Standard
71
1
72
0
73
3
74
0
75
0
40
1
41
10
76
4
76
4
10
10.5
20
-90
30
0
10
38
20
-111
30
0
10
38
20
-114
30
0
10
-32
20
-114
30
0
0
LEADER
5
199
100
AcDbEntity
8
dim
6
ByLayer
62
256
370
-1
100
AcDbLeader
3
Standard
71
1
72
0
73
3
74
0
75
0
40
1
41
10
76
4
76
4
10
-14
20
-2
30
0
10
-30
20
-50
30
0
10
-30
20
-54
30
0
10
25
20
-54
30
0
0
LEADER
5
19A
100
AcDbEntity
8
dim
6
ByLayer
62
256
370
-1
100
AcDbLeader
3
Standard
71
1
72
0
73
3
74
0
75
0
40
1
41
10
76
4
76
4
10
14
20
-2
30
0
10
25
20
-50
30
0
10
25
20
-54
30
0
10
-30
20
-54
30
0
0
LEADER
5
19B
100
AcDbEntity
8
dim
6
ByLayer
62
256
370
-1
100
AcDbLeader
3
Standard
71
1
72
0
73
3
74
0
75
0
40
1
41
10
76
4
76
4
10
0
20
12
30
0
10
25
20
-50
30
0
10
25
20
-54
30
0
10
-30
20
-54
30
0
0
MTEXT
5
19C
100
AcDbEntity
8
dim
6
ByLayer
62
256
370
-1
100
AcDbMText
10
-25
20
-50
30
0
40
3
41
43.6666666667
71
1
72
1
1
 M5, 
7
cyrillic_ii
210
0
220
0
230
1
50
0
73
2
44
1
0
DIMENSION
5
19D
100
AcDbEntity
8
dim
6
ByLayer
62
256
370
-1
100
AcDbDimension
2
*D28
10
-14
20
40
30
0
11
-26
21
41.875
31
0
70
32
71
5
3
Standard
53
0
210
0
220
0
230
1
100
AcDbAlignedDimension
13
-38
23
28
33
0
14
-14
24
-5
34
0
100
AcDbRotatedDimension
0
DIMENSION
5
19E
100
AcDbEntity
8
dim
6
ByLayer
62
256
370
-1
100
AcDbDimension
2
*D29
10
14
20
40
30
0
11
1.00298526537e-15
21
41.875
31
0
70
32
71
5
3
Standard
53
0
210
0
220
0
230
1
100
AcDbAlignedDimension
13
-14
23
0
33
0
14
14
24
0
34
0
100
AcDbRotatedDimension
0
DIMENSION
5
19F
100
AcDbEntity
8
dim
6
ByLayer
62
256
370
-1
100
AcDbDimension
2
*D30
10
44
20
14
30
0
11
42.125
21
21
31
0
70
32
71
5
3
Standard
53
0
210
0
220
0
230
1
100
AcDbAlignedDimension
13
38
23
28
33
0
14
3.96584891663e-15
24
14
34
0
50
90
100
AcDbRotatedDimension
0
DIMENSION
5
1A0
100
AcDbEntity
8
dim
6
ByLayer
62
256
370
-1
100
AcDbDimension
2
*D31
10
44
20
-14
30
0
11
42.125
21
-6.58564728358e-16
31
0
70
32
71
5
3
Standard
53
0
210
0
220
0
230
1
100
AcDbAlignedDimension
13
3.96584891663e-15
23
14
33
0
14
-3.96584891663e-15
24
-14
34
0
50
90
100
AcDbRotatedDimension
0
ENDSEC
0
SECTION
2
OBJECTS
0
DICTIONARY
5
C
330
0
100
AcDbDictionary
281
1
3
ACAD_GROUP
350
D
0
DICTIONARY
5
D
330
C
100
AcDbDictionary
281
1
0
ENDSEC
0
EOF
