<?xml version="1.0" encoding="UTF-8" standalone="no"?>
<!-- Created with sK1/UniConvertor (http://sk1project.org/) -->

<svg
   xmlns:dc="http://purl.org/dc/elements/1.1/"
   xmlns:cc="http://creativecommons.org/ns#"
   xmlns:rdf="http://www.w3.org/1999/02/22-rdf-syntax-ns#"
   xmlns:svg="http://www.w3.org/2000/svg"
   xmlns="http://www.w3.org/2000/svg"
   xmlns:sodipodi="http://sodipodi.sourceforge.net/DTD/sodipodi-0.dtd"
   xmlns:inkscape="http://www.inkscape.org/namespaces/inkscape"
   width="595.276pt"
   height="841.89pt"
   viewBox="0 0 595.276 841.89"
   fill-rule="evenodd"
   id="svg4055"
   version="1.1"
   inkscape:version="0.48.3.1 r9886"
   sodipodi:docname="part14.svg">
  <metadata
     id="metadata4233">
    <rdf:RDF>
      <cc:Work
         rdf:about="">
        <dc:format>image/svg+xml</dc:format>
        <dc:type
           rdf:resource="http://purl.org/dc/dcmitype/StillImage" />
        <dc:title />
      </cc:Work>
    </rdf:RDF>
  </metadata>
  <sodipodi:namedview
     pagecolor="#ffffff"
     bordercolor="#666666"
     borderopacity="1"
     objecttolerance="10"
     gridtolerance="10"
     guidetolerance="10"
     inkscape:pageopacity="0"
     inkscape:pageshadow="2"
     inkscape:window-width="1069"
     inkscape:window-height="742"
     id="namedview4231"
     showgrid="false"
     inkscape:zoom="0.63429547"
     inkscape:cx="500.50023"
     inkscape:cy="698.59474"
     inkscape:window-x="65"
     inkscape:window-y="24"
     inkscape:window-maximized="0"
     inkscape:current-layer="svg4055" />
  <defs
     id="defs4057">
    <marker
       id="ArrowEnd"
       viewBox="0 0 10 10"
       refX="0"
       refY="5"
       markerUnits="strokeWidth"
       markerWidth="4"
       markerHeight="3"
       orient="auto">
      <path
         d="M 0 0 L 10 5 L 0 10 z"
         id="path4060" />
    </marker>
    <marker
       id="ArrowStart"
       viewBox="0 0 10 10"
       refX="10"
       refY="5"
       markerUnits="strokeWidth"
       markerWidth="4"
       markerHeight="3"
       orient="auto">
      <path
         d="M 10 0 L 0 5 L 10 10 z"
         id="path4063" />
    </marker>
  </defs>
  <path
     style="fill:#99ffff;stroke:#000000;stroke-width:1"
     d="m 71.375998,726.55804 c 5.87,0 10.631,4.761 10.631,10.632 0,5.87 -4.761,10.631 -10.631,10.631 -5.871001,0 -10.631998,-4.761 -10.631998,-10.631 0,-5.871 4.760997,-10.632 10.631998,-10.632 z m 56.817002,-42.374 0,-50.893 -20.656,0.018 -0.015,15.892 -15.593002,0 0.015,-15.892 -41.121998,-0.019 0,15.911 -15.593,0 0.006,-15.917 -20.442,0.007 0.012,50.906 -14.305,-0.021 0,106.029 14.305,10e-4 -0.012,51.174 20.442,0.01 -0.006,-16.032 15.593,0 0.006,16.032 41.103998,0 -0.003,-16.032 15.593002,0 0.003,16.032 20.668,-0.01 -0.003,-51.171 14.063,-0.004 0,-106.029 -14.06,0.008 z"
     id="path4205"
     inkscape:connector-curvature="0" />
</svg>
