999
dxfrw 0.5.11
0
SECTION
2
HEADER
9
$ACADVER
1
AC1021
9
$HANDSEED
5
20000
9
$DWGCODEPAGE
3
ANSI_1252
9
$INSBASE
10
0
20
0
30
0
9
$EXTMIN
10
-23.125
20
-18.25
30
0
9
$EXTMAX
10
91.25
20
73.125
30
0
9
$LIMMIN
10
0
20
0
9
$LIMMAX
10
420
20
297
9
$ORTHOMODE
70
0
9
$LTSCALE
40
1
9
$TEXTSTYLE
7
STANDARD
9
$CLAYER
8
0
9
$DIMASZ
40
2.5
9
$DIMLFAC
40
1
9
$DIMSCALE
40
1
9
$DIMEXO
40
0.625
9
$DIMEXE
40
1.25
9
$DIMTXT
40
2.5
9
$DIMTSZ
40
0
9
$DIMAUNIT
70
0
9
$DIMADEC
70
2
9
$DIMLUNIT
70
2
9
$DIMSTYLE
2
Standard
9
$DIMGAP
40
0.625
9
$DIMTIH
70
0
9
$LUNITS
70
2
9
$LUPREC
70
1
9
$AUNITS
70
0
9
$AUPREC
70
2
9
$SPLINESEGS
70
8
9
$GRIDMODE
70
1
9
$SNAPSTYLE
70
0
9
$GRIDUNIT
10
0
20
0
9
$PINSBASE
10
0
20
0
30
0
9
$PLIMMIN
10
0
20
0
9
$PLIMMAX
10
210
20
297
9
$INSUNITS
70
0
9
$PSVPSCALE
40
1
0
ENDSEC
0
SECTION
2
CLASSES
0
ENDSEC
0
SECTION
2
TABLES
0
TABLE
2
VPORT
5
8
330
0
100
AcDbSymbolTable
70
1
0
VPORT
5
31
330
2
100
AcDbSymbolTableRecord
100
AcDbViewportTableRecord
2
*ACTIVE
70
0
10
0
20
0
11
1
21
1
12
76.0650837061
22
37.6800920128
13
0
23
0
14
10
24
10
15
10
25
10
16
0
26
0
36
1
17
0
27
0
37
0
40
120.3456
41
1.66666666667
42
50
43
0
44
0
50
0
51
0
71
0
72
100
73
1
74
3
75
0
76
1
77
0
78
0
281
0
65
1
110
0
120
0
130
0
111
1
121
0
131
0
112
0
122
1
132
0
79
0
146
0
348
10020
60
7
61
5
292
1
282
1
141
0
142
0
63
250
421
3358443
0
ENDTAB
0
TABLE
2
LTYPE
5
5
330
0
100
AcDbSymbolTable
70
4
0
LTYPE
5
14
330
5
100
AcDbSymbolTableRecord
100
AcDbLinetypeTableRecord
2
ByBlock
70
0
3

72
65
73
0
40
0
0
LTYPE
5
15
330
5
100
AcDbSymbolTableRecord
100
AcDbLinetypeTableRecord
2
ByLayer
70
0
3

72
65
73
0
40
0
0
LTYPE
5
16
330
5
100
AcDbSymbolTableRecord
100
AcDbLinetypeTableRecord
2
Continuous
70
0
3
Solid line
72
65
73
0
40
0
0
LTYPE
5
32
330
5
100
AcDbSymbolTableRecord
100
AcDbLinetypeTableRecord
2
DOT
70
0
3
Dot . . . . . . . . . . . . . . . . . . . . . .
72
65
73
2
40
6.35
49
0
74
0
49
-6.35
74
0
0
LTYPE
5
33
330
5
100
AcDbSymbolTableRecord
100
AcDbLinetypeTableRecord
2
DOT2
70
0
3
Dot (.5x) .....................................
72
65
73
2
40
3.175
49
0
74
0
49
-3.175
74
0
0
LTYPE
5
34
330
5
100
AcDbSymbolTableRecord
100
AcDbLinetypeTableRecord
2
DOTX2
70
0
3
Dot (2x) .  .  .  .  .  .  .  .  .  .  .  .  .
72
65
73
2
40
12.7
49
0
74
0
49
-12.7
74
0
0
LTYPE
5
35
330
5
100
AcDbSymbolTableRecord
100
AcDbLinetypeTableRecord
2
DASHED
70
0
3
Dot . . . . . . . . . . . . . . . . . . . . . .
72
65
73
2
40
19.05
49
12.7
74
0
49
-6.35
74
0
0
LTYPE
5
36
330
5
100
AcDbSymbolTableRecord
100
AcDbLinetypeTableRecord
2
DASHED2
70
0
3
Dashed (.5x) _ _ _ _ _ _ _ _ _ _ _ _ _ _ _ _ _
72
65
73
2
40
9.525
49
6.35
74
0
49
-3.175
74
0
0
LTYPE
5
37
330
5
100
AcDbSymbolTableRecord
100
AcDbLinetypeTableRecord
2
DASHEDX2
70
0
3
Dashed (2x) ____  ____  ____  ____  ____  ___
72
65
73
2
40
38.1
49
25.4
74
0
49
-12.7
74
0
0
LTYPE
5
38
330
5
100
AcDbSymbolTableRecord
100
AcDbLinetypeTableRecord
2
DASHDOT
70
0
3
Dash dot __ . __ . __ . __ . __ . __ . __ . __
72
65
73
4
40
25.4
49
12.7
74
0
49
-6.35
74
0
49
0
74
0
49
-6.35
74
0
0
LTYPE
5
39
330
5
100
AcDbSymbolTableRecord
100
AcDbLinetypeTableRecord
2
DASHDOT2
70
0
3
Dash dot (.5x) _._._._._._._._._._._._._._._.
72
65
73
4
40
12.7
49
6.35
74
0
49
-3.175
74
0
49
0
74
0
49
-3.175
74
0
0
LTYPE
5
3A
330
5
100
AcDbSymbolTableRecord
100
AcDbLinetypeTableRecord
2
DASHDOTX2
70
0
3
Dash dot (2x) ____  .  ____  .  ____  .  ___
72
65
73
4
40
50.8
49
25.4
74
0
49
-12.7
74
0
49
0
74
0
49
-12.7
74
0
0
LTYPE
5
3B
330
5
100
AcDbSymbolTableRecord
100
AcDbLinetypeTableRecord
2
DIVIDE
70
0
3
Divide ____ . . ____ . . ____ . . ____ . . ____
72
65
73
6
40
31.75
49
12.7
74
0
49
-6.35
74
0
49
0
74
0
49
-6.35
74
0
49
0
74
0
49
-6.35
74
0
0
LTYPE
5
3C
330
5
100
AcDbSymbolTableRecord
100
AcDbLinetypeTableRecord
2
DIVIDE2
70
0
3
Divide (.5x) __..__..__..__..__..__..__..__.._
72
65
73
6
40
15.875
49
6.35
74
0
49
-3.175
74
0
49
0
74
0
49
-3.175
74
0
49
0
74
0
49
-3.175
74
0
0
LTYPE
5
3D
330
5
100
AcDbSymbolTableRecord
100
AcDbLinetypeTableRecord
2
DIVIDEX2
70
0
3
Divide (2x) ________  .  .  ________  .  .  _
72
65
73
6
40
63.5
49
25.4
74
0
49
-12.7
74
0
49
0
74
0
49
-12.7
74
0
49
0
74
0
49
-12.7
74
0
0
LTYPE
5
3E
330
5
100
AcDbSymbolTableRecord
100
AcDbLinetypeTableRecord
2
BORDER
70
0
3
Border __ __ . __ __ . __ __ . __ __ . __ __ .
72
65
73
6
40
44.45
49
12.7
74
0
49
-6.35
74
0
49
12.7
74
0
49
-6.35
74
0
49
0
74
0
49
-6.35
74
0
0
LTYPE
5
3F
330
5
100
AcDbSymbolTableRecord
100
AcDbLinetypeTableRecord
2
BORDER2
70
0
3
Border (.5x) __.__.__.__.__.__.__.__.__.__.__.
72
65
73
6
40
22.225
49
6.35
74
0
49
-3.175
74
0
49
6.35
74
0
49
-3.175
74
0
49
0
74
0
49
-3.175
74
0
0
LTYPE
5
40
330
5
100
AcDbSymbolTableRecord
100
AcDbLinetypeTableRecord
2
BORDERX2
70
0
3
Border (2x) ____  ____  .  ____  ____  .  ___
72
65
73
6
40
88.9
49
25.4
74
0
49
-12.7
74
0
49
25.4
74
0
49
-12.7
74
0
49
0
74
0
49
-12.7
74
0
0
LTYPE
5
41
330
5
100
AcDbSymbolTableRecord
100
AcDbLinetypeTableRecord
2
CENTER
70
0
3
Center ____ _ ____ _ ____ _ ____ _ ____ _ ____
72
65
73
4
40
50.8
49
31.75
74
0
49
-6.35
74
0
49
6.35
74
0
49
-6.35
74
0
0
LTYPE
5
42
330
5
100
AcDbSymbolTableRecord
100
AcDbLinetypeTableRecord
2
CENTER2
70
0
3
Center (.5x) ___ _ ___ _ ___ _ ___ _ ___ _ ___
72
65
73
4
40
28.575
49
19.05
74
0
49
-3.175
74
0
49
3.175
74
0
49
-3.175
74
0
0
LTYPE
5
43
330
5
100
AcDbSymbolTableRecord
100
AcDbLinetypeTableRecord
2
CENTERX2
70
0
3
Center (2x) ________  __  ________  __  _____
72
65
73
4
40
101.6
49
63.5
74
0
49
-12.7
74
0
49
12.7
74
0
49
-12.7
74
0
0
ENDTAB
0
TABLE
2
LAYER
5
2
330
0
100
AcDbSymbolTable
70
1
0
LAYER
5
10
330
2
100
AcDbSymbolTableRecord
100
AcDbLayerTableRecord
2
0
70
0
62
7
6
CONTINUOUS
370
50
390
F
0
LAYER
5
44
330
2
100
AcDbSymbolTableRecord
100
AcDbLayerTableRecord
2
base
70
0
62
7
6
CENTER
370
0
390
F
0
LAYER
5
45
330
2
100
AcDbSymbolTableRecord
100
AcDbLayerTableRecord
2
dim
70
0
62
7
6
CONTINUOUS
370
-3
390
F
0
ENDTAB
0
TABLE
2
STYLE
5
3
330
0
100
AcDbSymbolTable
70
3
0
STYLE
5
46
330
2
100
AcDbSymbolTableRecord
100
AcDbTextStyleTableRecord
2
Standard
70
0
40
0
41
1
50
0
71
0
42
1
3
txt
4

0
ENDTAB
0
TABLE
2
VIEW
5
6
330
0
100
AcDbSymbolTable
70
0
0
ENDTAB
0
TABLE
2
UCS
5
7
330
0
100
AcDbSymbolTable
70
0
0
ENDTAB
0
TABLE
2
APPID
5
9
330
0
100
AcDbSymbolTable
70
1
0
APPID
5
12
330
9
100
AcDbSymbolTableRecord
100
AcDbRegAppTableRecord
2
ACAD
70
0
0
ENDTAB
0
TABLE
2
DIMSTYLE
5
A
330
0
100
AcDbSymbolTable
70
1
100
AcDbDimStyleTable
71
1
0
DIMSTYLE
105
47
330
A
100
AcDbSymbolTableRecord
100
AcDbDimStyleTableRecord
2
Standard
70
0
40
1
41
2.5
42
0.625
43
0.38
44
1.25
45
0
46
0
47
0
48
0
140
2.5
141
0.09
142
0
143
25.4
144
1
145
0
146
1
147
0.625
148
0
71
0
72
0
73
0
74
1
75
0
76
0
77
0
78
0
79
0
170
0
171
2
172
0
173
0
174
0
175
0
176
0
177
0
178
0
179
0
271
4
272
4
273
2
274
2
275
0
276
0
277
2
278
46
279
0
280
0
281
0
282
0
283
1
284
0
285
0
286
0
288
0
289
3
340
Standard
341

371
-2
372
-2
0
ENDTAB
0
TABLE
2
BLOCK_RECORD
5
1
330
0
100
AcDbSymbolTable
70
2
0
BLOCK_RECORD
5
1F
330
1
100
AcDbSymbolTableRecord
100
AcDbBlockTableRecord
2
*Model_Space
70
0
280
1
281
0
0
BLOCK_RECORD
5
1E
330
1
100
AcDbSymbolTableRecord
100
AcDbBlockTableRecord
2
*Paper_Space
70
0
280
1
281
0
0
BLOCK_RECORD
5
48
330
1
100
AcDbSymbolTableRecord
100
AcDbBlockTableRecord
2
*D21
70
0
280
1
281
0
0
BLOCK_RECORD
5
4B
330
1
100
AcDbSymbolTableRecord
100
AcDbBlockTableRecord
2
*D11
70
0
280
1
281
0
0
BLOCK_RECORD
5
4E
330
1
100
AcDbSymbolTableRecord
100
AcDbBlockTableRecord
2
*D4
70
0
280
1
281
0
0
BLOCK_RECORD
5
51
330
1
100
AcDbSymbolTableRecord
100
AcDbBlockTableRecord
2
*D8
70
0
280
1
281
0
0
BLOCK_RECORD
5
54
330
1
100
AcDbSymbolTableRecord
100
AcDbBlockTableRecord
2
*D18
70
0
280
1
281
0
0
BLOCK_RECORD
5
57
330
1
100
AcDbSymbolTableRecord
100
AcDbBlockTableRecord
2
*D9
70
0
280
1
281
0
0
BLOCK_RECORD
5
5A
330
1
100
AcDbSymbolTableRecord
100
AcDbBlockTableRecord
2
*D13
70
0
280
1
281
0
0
BLOCK_RECORD
5
5D
330
1
100
AcDbSymbolTableRecord
100
AcDbBlockTableRecord
2
*D15
70
0
280
1
281
0
0
BLOCK_RECORD
5
60
330
1
100
AcDbSymbolTableRecord
100
AcDbBlockTableRecord
2
*D20
70
0
280
1
281
0
0
BLOCK_RECORD
5
63
330
1
100
AcDbSymbolTableRecord
100
AcDbBlockTableRecord
2
*D3
70
0
280
1
281
0
0
BLOCK_RECORD
5
66
330
1
100
AcDbSymbolTableRecord
100
AcDbBlockTableRecord
2
*D5
70
0
280
1
281
0
0
BLOCK_RECORD
5
69
330
1
100
AcDbSymbolTableRecord
100
AcDbBlockTableRecord
2
*D17
70
0
280
1
281
0
0
BLOCK_RECORD
5
6C
330
1
100
AcDbSymbolTableRecord
100
AcDbBlockTableRecord
2
*D14
70
0
280
1
281
0
0
BLOCK_RECORD
5
6F
330
1
100
AcDbSymbolTableRecord
100
AcDbBlockTableRecord
2
*D12
70
0
280
1
281
0
0
BLOCK_RECORD
5
72
330
1
100
AcDbSymbolTableRecord
100
AcDbBlockTableRecord
2
*D6
70
0
280
1
281
0
0
BLOCK_RECORD
5
75
330
1
100
AcDbSymbolTableRecord
100
AcDbBlockTableRecord
2
*D2
70
0
280
1
281
0
0
BLOCK_RECORD
5
78
330
1
100
AcDbSymbolTableRecord
100
AcDbBlockTableRecord
2
*D22
70
0
280
1
281
0
0
BLOCK_RECORD
5
7B
330
1
100
AcDbSymbolTableRecord
100
AcDbBlockTableRecord
2
*D10
70
0
280
1
281
0
0
BLOCK_RECORD
5
7E
330
1
100
AcDbSymbolTableRecord
100
AcDbBlockTableRecord
2
*D1
70
0
280
1
281
0
0
BLOCK_RECORD
5
81
330
1
100
AcDbSymbolTableRecord
100
AcDbBlockTableRecord
2
*D16
70
0
280
1
281
0
0
BLOCK_RECORD
5
84
330
1
100
AcDbSymbolTableRecord
100
AcDbBlockTableRecord
2
*D19
70
0
280
1
281
0
0
BLOCK_RECORD
5
87
330
1
100
AcDbSymbolTableRecord
100
AcDbBlockTableRecord
2
*D7
70
0
280
1
281
0
0
BLOCK_RECORD
5
8A
330
1
100
AcDbSymbolTableRecord
100
AcDbBlockTableRecord
2
PAD002054009_PROJ
70
0
280
1
281
0
0
ENDTAB
0
ENDSEC
0
SECTION
2
BLOCKS
0
BLOCK
5
20
330
1F
100
AcDbEntity
8
0
100
AcDbBlockBegin
2
*Model_Space
70
0
10
0
20
0
30
0
3
*Model_Space
1

0
ENDBLK
5
21
330
1F
100
AcDbEntity
8
0
100
AcDbBlockEnd
0
BLOCK
5
1C
330
1B
100
AcDbEntity
8
0
100
AcDbBlockBegin
2
*Paper_Space
70
0
10
0
20
0
30
0
3
*Paper_Space
1

0
ENDBLK
5
1D
330
1F
100
AcDbEntity
8
0
100
AcDbBlockEnd
0
BLOCK
5
49
330
48
100
AcDbEntity
8
0
100
AcDbBlockBegin
2
*D21
70
1
10
0
20
0
3
*D21
1

0
LINE
5
8D
100
AcDbEntity
8
dim
6
CONTINUOUS
62
7
370
0
100
AcDbLine
10
45
20
70
11
83
21
70
0
SOLID
5
8E
100
AcDbEntity
8
dim
6
CONTINUOUS
62
7
370
0
100
AcDbTrace
10
45
20
70
30
0
11
47.5
21
70.4162846578
31
0
12
47.5
22
69.5837153422
32
0
13
47.5
23
69.5837153422
33
0
0
SOLID
5
8F
100
AcDbEntity
8
dim
6
CONTINUOUS
62
7
370
0
100
AcDbTrace
10
83
20
70
30
0
11
80.5
21
69.5837153422
31
0
12
80.5
22
70.4162846578
32
0
13
80.5
23
70.4162846578
33
0
0
MTEXT
5
90
100
AcDbEntity
8
dim
6
CONTINUOUS
62
7
370
0
100
AcDbMText
10
64
20
71.875
30
0
40
2.5
41
5.83333333333
71
5
72
1
1
38.0
7
standard
210
0
220
0
230
1
50
0
73
2
44
1
0
LINE
5
91
100
AcDbEntity
8
dim
6
CONTINUOUS
62
7
370
0
100
AcDbLine
10
45
20
60.625
11
45
21
71.25
0
LINE
5
92
100
AcDbEntity
8
dim
6
CONTINUOUS
62
7
370
0
100
AcDbLine
10
83
20
38.625
11
83
21
71.25
0
ENDBLK
5
4A
330
48
100
AcDbEntity
8
0
100
AcDbBlockEnd
0
BLOCK
5
4C
330
4B
100
AcDbEntity
8
0
100
AcDbBlockBegin
2
*D11
70
1
10
0
20
0
3
*D11
1

0
LINE
5
93
100
AcDbEntity
8
dim
6
CONTINUOUS
62
7
370
0
100
AcDbLine
10
-1.28250952615e-16
20
-0.625
11
5.76729000061e-15
21
31.4698901107
0
LINE
5
94
100
AcDbEntity
8
dim
6
CONTINUOUS
62
7
370
0
100
AcDbLine
10
20.4419219139
20
60.4419419549
11
6.03169559028
21
46.0317015037
0
ARC
5
95
100
AcDbEntity
8
dim
6
CONTINUOUS
62
7
370
0
100
AcDbCircle
10
7.33419401599e-15
20
40
40
7.28010988928
100
AcDbArc
50
270
51
45.000028086
0
SOLID
5
96
100
AcDbEntity
8
dim
6
CONTINUOUS
62
7
370
0
100
AcDbTrace
10
5.99690369195e-15
20
32.7198901107
30
0
11
2.3921133453
21
33.5571992887
31
0
12
2.53436471691
22
32.7368723951
32
0
13
2.53436471691
23
32.7368723951
33
0
0
SOLID
5
97
100
AcDbEntity
8
dim
6
CONTINUOUS
62
7
370
0
100
AcDbTrace
10
5.14781254707
20
45.1478175939
30
0
11
6.92787162033
21
43.3437437007
31
0
12
6.24722623657
22
42.8642715673
32
0
13
6.24722623657
23
42.8642715673
33
0
0
MTEXT
5
98
100
AcDbEntity
8
dim
6
CONTINUOUS
62
7
370
0
100
AcDbMText
10
6.14852043753
20
37.4532012118
30
0
40
2.5
41
10.8333333333
71
8
72
1
1
135.00%%D
7
standard
210
0
220
0
230
1
50
67.500014043
73
2
44
1
0
ENDBLK
5
4D
330
4B
100
AcDbEntity
8
0
100
AcDbBlockEnd
0
BLOCK
5
4F
330
4E
100
AcDbEntity
8
0
100
AcDbBlockBegin
2
*D4
70
1
10
0
20
0
3
*D4
1

0
SOLID
5
99
100
AcDbEntity
8
dim
6
CONTINUOUS
62
7
370
0
100
AcDbTrace
10
73.6762227552
20
35.5812804579
30
0
11
71.2065081997
21
35.012243613
31
0
12
71.1553757868
22
35.8432412914
32
0
13
71.1553757868
23
35.8432412914
33
0
0
LINE
5
9A
100
AcDbEntity
8
dim
6
CONTINUOUS
62
7
370
0
100
AcDbLine
10
75.1733912124
20
35.6734032613
11
65.3586202155
21
35.0694871057
0
MTEXT
5
9B
100
AcDbEntity
8
dim
6
CONTINUOUS
62
7
370
0
100
AcDbMText
10
69.4022679812
20
37.1968443533
30
0
40
2.5
41
3.33333333333
71
5
72
1
1
1.5
7
standard
210
0
220
0
230
1
50
3.52104772165
73
2
44
1
0
ENDBLK
5
50
330
4E
100
AcDbEntity
8
0
100
AcDbBlockEnd
0
BLOCK
5
52
330
51
100
AcDbEntity
8
0
100
AcDbBlockBegin
2
*D8
70
1
10
0
20
0
3
*D8
1

0
LINE
5
9C
100
AcDbEntity
8
dim
6
CONTINUOUS
62
7
370
0
100
AcDbLine
10
48.6390964958
20
51.71465723
11
53.4192578472
21
59.9941481404
0
LINE
5
9D
100
AcDbEntity
8
dim
6
CONTINUOUS
62
7
370
0
100
AcDbLine
10
75.4858909695
20
36.2146692789
11
80.2660523209
21
44.4941601893
0
LINE
5
9E
100
AcDbEntity
8
dim
6
CONTINUOUS
62
7
370
0
100
AcDbLine
10
52.794258333
20
58.9116161052
11
79.6410528067
21
43.4116281541
0
SOLID
5
9F
100
AcDbEntity
8
dim
6
CONTINUOUS
62
7
370
0
100
AcDbTrace
10
52.794258333
20
58.9116161052
30
0
11
55.1674645706
21
58.0221302591
31
0
12
54.7511802364
22
57.3011038946
32
0
13
54.7511802364
23
57.3011038946
33
0
0
SOLID
5
A0
100
AcDbEntity
8
dim
6
CONTINUOUS
62
7
370
0
100
AcDbTrace
10
79.6410528067
20
43.4116281541
30
0
11
77.2678465692
21
44.3011140001
31
0
12
77.6841309034
22
45.0221403647
32
0
13
77.6841309034
23
45.0221403647
33
0
0
MTEXT
5
A1
100
AcDbEntity
8
dim
6
CONTINUOUS
62
7
370
0
100
AcDbMText
10
67.1551548411
20
52.7854201824
30
0
40
2.5
41
5.27777777778
71
5
72
1
1
31.0
7
standard
210
0
220
0
230
1
50
330.000025714
73
2
44
1
0
ENDBLK
5
53
330
51
100
AcDbEntity
8
0
100
AcDbBlockEnd
0
BLOCK
5
55
330
54
100
AcDbEntity
8
0
100
AcDbBlockBegin
2
*D18
70
1
10
0
20
0
3
*D18
1

0
LINE
5
A2
100
AcDbEntity
8
dim
6
CONTINUOUS
62
7
370
0
100
AcDbLine
10
-10
20
15
11
-10
21
40
0
SOLID
5
A3
100
AcDbEntity
8
dim
6
CONTINUOUS
62
7
370
0
100
AcDbTrace
10
-10
20
15
30
0
11
-10.4162846578
21
17.5
31
0
12
-9.58371534223
22
17.5
32
0
13
-9.58371534223
23
17.5
33
0
0
SOLID
5
A4
100
AcDbEntity
8
dim
6
CONTINUOUS
62
7
370
0
100
AcDbTrace
10
-10
20
40
30
0
11
-9.58371534223
21
37.5
31
0
12
-10.4162846578
22
37.5
32
0
13
-10.4162846578
23
37.5
33
0
0
MTEXT
5
A5
100
AcDbEntity
8
dim
6
CONTINUOUS
62
7
370
0
100
AcDbMText
10
-11.875
20
27.5
30
0
40
2.5
41
5.83333333333
71
5
72
1
1
25.0
7
standard
210
0
220
0
230
1
50
90
73
2
44
1
0
LINE
5
A6
100
AcDbEntity
8
dim
6
CONTINUOUS
62
7
370
0
100
AcDbLine
10
9.375
20
15
11
-11.25
21
15
0
LINE
5
A7
100
AcDbEntity
8
dim
6
CONTINUOUS
62
7
370
0
100
AcDbLine
10
25.375
20
40
11
-11.25
21
40
0
ENDBLK
5
56
330
54
100
AcDbEntity
8
0
100
AcDbBlockEnd
0
BLOCK
5
58
330
57
100
AcDbEntity
8
0
100
AcDbBlockBegin
2
*D9
70
1
10
0
20
0
3
*D9
1

0
LINE
5
A8
100
AcDbEntity
8
dim
6
CONTINUOUS
62
7
370
0
100
AcDbLine
10
75.71465723
20
35.3609035042
11
84.3554793005
21
30.3721277265
0
LINE
5
A9
100
AcDbEntity
8
dim
6
CONTINUOUS
62
7
370
0
100
AcDbLine
10
60.2146692789
20
8.5141090305
11
68.8554913494
21
3.52533325276
0
LINE
5
AA
100
AcDbEntity
8
dim
6
CONTINUOUS
62
7
370
0
100
AcDbLine
10
83.2729472653
20
30.9971272406
11
67.7729593142
21
4.15033276692
0
SOLID
5
AB
100
AcDbEntity
8
dim
6
CONTINUOUS
62
7
370
0
100
AcDbTrace
10
83.2729472653
20
30.9971272406
30
0
11
82.3834614192
21
28.6239210031
31
0
12
81.6624350547
22
29.0402053373
32
0
13
81.6624350547
23
29.0402053373
33
0
0
SOLID
5
AC
100
AcDbEntity
8
dim
6
CONTINUOUS
62
7
370
0
100
AcDbTrace
10
67.7729593142
20
4.15033276692
30
0
11
68.6624451603
21
6.52353900447
31
0
12
69.3834715248
22
6.1072546703
32
0
13
69.3834715248
23
6.1072546703
33
0
0
MTEXT
5
AD
100
AcDbEntity
8
dim
6
CONTINUOUS
62
7
370
0
100
AcDbMText
10
73.8991552369
20
18.511229275
30
0
40
2.5
41
5.27777777778
71
5
72
1
1
31.0
7
standard
210
0
220
0
230
1
50
60.0000257144
73
2
44
1
0
ENDBLK
5
59
330
57
100
AcDbEntity
8
0
100
AcDbBlockEnd
0
BLOCK
5
5B
330
5A
100
AcDbEntity
8
0
100
AcDbBlockBegin
2
*D13
70
1
10
0
20
0
3
*D13
1

0
LINE
5
AE
100
AcDbEntity
8
dim
6
CONTINUOUS
62
7
370
0
100
AcDbLine
10
10
20
-10
11
26
21
-10
0
SOLID
5
AF
100
AcDbEntity
8
dim
6
CONTINUOUS
62
7
370
0
100
AcDbTrace
10
10
20
-10
30
0
11
12.5
21
-9.58371534223
31
0
12
12.5
22
-10.4162846578
32
0
13
12.5
23
-10.4162846578
33
0
0
SOLID
5
B0
100
AcDbEntity
8
dim
6
CONTINUOUS
62
7
370
0
100
AcDbTrace
10
26
20
-10
30
0
11
23.5
21
-10.4162846578
31
0
12
23.5
22
-9.58371534223
32
0
13
23.5
23
-9.58371534223
33
0
0
MTEXT
5
B1
100
AcDbEntity
8
dim
6
CONTINUOUS
62
7
370
0
100
AcDbMText
10
18
20
-8.125
30
0
40
2.5
41
5.27777777778
71
5
72
1
1
16.0
7
standard
210
0
220
0
230
1
50
0
73
2
44
1
0
LINE
5
B2
100
AcDbEntity
8
dim
6
CONTINUOUS
62
7
370
0
100
AcDbLine
10
10
20
14.375
11
10
21
-11.25
0
LINE
5
B3
100
AcDbEntity
8
dim
6
CONTINUOUS
62
7
370
0
100
AcDbLine
10
26
20
39.375
11
26
21
-11.25
0
ENDBLK
5
5C
330
5A
100
AcDbEntity
8
0
100
AcDbBlockEnd
0
BLOCK
5
5E
330
5D
100
AcDbEntity
8
0
100
AcDbBlockBegin
2
*D15
70
1
10
0
20
0
3
*D15
1

0
LINE
5
B4
100
AcDbEntity
8
dim
6
CONTINUOUS
62
7
370
0
100
AcDbLine
10
61
20
-10
11
83
21
-10
0
SOLID
5
B5
100
AcDbEntity
8
dim
6
CONTINUOUS
62
7
370
0
100
AcDbTrace
10
61
20
-10
30
0
11
63.5
21
-9.58371534223
31
0
12
63.5
22
-10.4162846578
32
0
13
63.5
23
-10.4162846578
33
0
0
SOLID
5
B6
100
AcDbEntity
8
dim
6
CONTINUOUS
62
7
370
0
100
AcDbTrace
10
83
20
-10
30
0
11
80.5
21
-10.4162846578
31
0
12
80.5
22
-9.58371534223
32
0
13
80.5
23
-9.58371534223
33
0
0
MTEXT
5
B7
100
AcDbEntity
8
dim
6
CONTINUOUS
62
7
370
0
100
AcDbMText
10
72
20
-8.125
30
0
40
2.5
41
5.83333333333
71
5
72
1
1
22.0
7
standard
210
0
220
0
230
1
50
0
73
2
44
1
0
LINE
5
B8
100
AcDbEntity
8
dim
6
CONTINUOUS
62
7
370
0
100
AcDbLine
10
61
20
-0.625
11
61
21
-11.25
0
LINE
5
B9
100
AcDbEntity
8
dim
6
CONTINUOUS
62
7
370
0
100
AcDbLine
10
83
20
37.375
11
83
21
-11.25
0
ENDBLK
5
5F
330
5D
100
AcDbEntity
8
0
100
AcDbBlockEnd
0
BLOCK
5
61
330
60
100
AcDbEntity
8
0
100
AcDbBlockBegin
2
*D20
70
1
10
0
20
0
3
*D20
1

0
LINE
5
BA
100
AcDbEntity
8
dim
6
CONTINUOUS
62
7
370
0
100
AcDbLine
10
20
20
70
11
45
21
70
0
SOLID
5
BB
100
AcDbEntity
8
dim
6
CONTINUOUS
62
7
370
0
100
AcDbTrace
10
20
20
70
30
0
11
22.5
21
70.4162846578
31
0
12
22.5
22
69.5837153422
32
0
13
22.5
23
69.5837153422
33
0
0
SOLID
5
BC
100
AcDbEntity
8
dim
6
CONTINUOUS
62
7
370
0
100
AcDbTrace
10
45
20
70
30
0
11
42.5
21
69.5837153422
31
0
12
42.5
22
70.4162846578
32
0
13
42.5
23
70.4162846578
33
0
0
MTEXT
5
BD
100
AcDbEntity
8
dim
6
CONTINUOUS
62
7
370
0
100
AcDbMText
10
32.5
20
71.875
30
0
40
2.5
41
5.83333333333
71
5
72
1
1
25.0
7
standard
210
0
220
0
230
1
50
0
73
2
44
1
0
LINE
5
BE
100
AcDbEntity
8
dim
6
CONTINUOUS
62
7
370
0
100
AcDbLine
10
20
20
60.625
11
20
21
71.25
0
LINE
5
BF
100
AcDbEntity
8
dim
6
CONTINUOUS
62
7
370
0
100
AcDbLine
10
45
20
60.625
11
45
21
71.25
0
ENDBLK
5
62
330
60
100
AcDbEntity
8
0
100
AcDbBlockEnd
0
BLOCK
5
64
330
63
100
AcDbEntity
8
0
100
AcDbBlockBegin
2
*D3
70
1
10
0
20
0
3
*D3
1

0
SOLID
5
C0
100
AcDbEntity
8
dim
6
CONTINUOUS
62
7
370
0
100
AcDbTrace
10
58.2523607955
20
8.34636061167
30
0
11
56.0172366509
21
7.15157486747
31
0
12
55.7506767208
22
7.94031910286
32
0
13
55.7506767208
23
7.94031910286
33
0
0
LINE
5
C1
100
AcDbEntity
8
dim
6
CONTINUOUS
62
7
370
0
100
AcDbLine
10
59.6734032613
20
8.82660878758
11
50.3576804301
21
5.67831518999
0
MTEXT
5
C2
100
AcDbEntity
8
dim
6
CONTINUOUS
62
7
370
0
100
AcDbMText
10
53.7047103929
20
8.78864098304
30
0
40
2.5
41
3.33333333333
71
5
72
1
1
1.5
7
standard
210
0
220
0
230
1
50
18.6729309281
73
2
44
1
0
ENDBLK
5
65
330
63
100
AcDbEntity
8
0
100
AcDbBlockEnd
0
BLOCK
5
67
330
66
100
AcDbEntity
8
0
100
AcDbBlockBegin
2
*D5
70
1
10
0
20
0
3
*D5
1

0
LINE
5
C3
100
AcDbEntity
8
dim
6
CONTINUOUS
62
7
370
0
100
AcDbLine
10
29.8165859504
20
41.1973602981
11
22.1834140496
21
38.8026397019
0
SOLID
5
C4
100
AcDbEntity
8
dim
6
CONTINUOUS
62
7
370
0
100
AcDbTrace
10
29.8165859504
20
41.1973602981
30
0
11
27.5558304119
21
40.0518135677
31
0
12
27.3066090509
22
40.8462066558
32
0
13
27.3066090509
23
40.8462066558
33
0
0
SOLID
5
C5
100
AcDbEntity
8
dim
6
CONTINUOUS
62
7
370
0
100
AcDbTrace
10
22.1834140496
20
38.8026397019
30
0
11
24.4441695881
21
39.9481864323
31
0
12
24.6933909491
22
39.1537933442
32
0
13
24.6933909491
23
39.1537933442
33
0
0
MTEXT
5
C6
100
AcDbEntity
8
dim
6
CONTINUOUS
62
7
370
0
100
AcDbMText
10
25.4387373602
20
41.7890246642
30
0
40
2.5
41
3.88888888889
71
5
72
1
1
8.0
7
standard
210
0
220
0
230
1
50
17.4179707913
73
2
44
1
0
ENDBLK
5
68
330
66
100
AcDbEntity
8
0
100
AcDbBlockEnd
0
BLOCK
5
6A
330
69
100
AcDbEntity
8
0
100
AcDbBlockBegin
2
*D17
70
1
10
0
20
0
3
*D17
1

0
LINE
5
C7
100
AcDbEntity
8
dim
6
CONTINUOUS
62
7
370
0
100
AcDbLine
10
-10
20
0
11
-10
21
15
0
SOLID
5
C8
100
AcDbEntity
8
dim
6
CONTINUOUS
62
7
370
0
100
AcDbTrace
10
-10
20
0
30
0
11
-10.4162846578
21
2.5
31
0
12
-9.58371534223
22
2.5
32
0
13
-9.58371534223
23
2.5
33
0
0
SOLID
5
C9
100
AcDbEntity
8
dim
6
CONTINUOUS
62
7
370
0
100
AcDbTrace
10
-10
20
15
30
0
11
-9.58371534223
21
12.5
31
0
12
-10.4162846578
22
12.5
32
0
13
-10.4162846578
23
12.5
33
0
0
MTEXT
5
CA
100
AcDbEntity
8
dim
6
CONTINUOUS
62
7
370
0
100
AcDbMText
10
-11.875
20
7.5
30
0
40
2.5
41
5.27777777778
71
5
72
1
1
15.0
7
standard
210
0
220
0
230
1
50
90
73
2
44
1
0
LINE
5
CB
100
AcDbEntity
8
dim
6
CONTINUOUS
62
7
370
0
100
AcDbLine
10
-0.625
20
7.65378971139e-17
11
-11.25
21
1.53075794228e-16
0
LINE
5
CC
100
AcDbEntity
8
dim
6
CONTINUOUS
62
7
370
0
100
AcDbLine
10
9.375
20
15
11
-11.25
21
15
0
ENDBLK
5
6B
330
69
100
AcDbEntity
8
0
100
AcDbBlockEnd
0
BLOCK
5
6D
330
6C
100
AcDbEntity
8
0
100
AcDbBlockBegin
2
*D14
70
1
10
0
20
0
3
*D14
1

0
LINE
5
CD
100
AcDbEntity
8
dim
6
CONTINUOUS
62
7
370
0
100
AcDbLine
10
26
20
-10
11
54
21
-10
0
SOLID
5
CE
100
AcDbEntity
8
dim
6
CONTINUOUS
62
7
370
0
100
AcDbTrace
10
26
20
-10
30
0
11
28.5
21
-9.58371534223
31
0
12
28.5
22
-10.4162846578
32
0
13
28.5
23
-10.4162846578
33
0
0
SOLID
5
CF
100
AcDbEntity
8
dim
6
CONTINUOUS
62
7
370
0
100
AcDbTrace
10
54
20
-10
30
0
11
51.5
21
-10.4162846578
31
0
12
51.5
22
-9.58371534223
32
0
13
51.5
23
-9.58371534223
33
0
0
MTEXT
5
D0
100
AcDbEntity
8
dim
6
CONTINUOUS
62
7
370
0
100
AcDbMText
10
40
20
-8.125
30
0
40
2.5
41
5.83333333333
71
5
72
1
1
28.0
7
standard
210
0
220
0
230
1
50
0
73
2
44
1
0
LINE
5
D1
100
AcDbEntity
8
dim
6
CONTINUOUS
62
7
370
0
100
AcDbLine
10
26
20
39.375
11
26
21
-11.25
0
LINE
5
D2
100
AcDbEntity
8
dim
6
CONTINUOUS
62
7
370
0
100
AcDbLine
10
54
20
29.375
11
54
21
-11.25
0
ENDBLK
5
6E
330
6C
100
AcDbEntity
8
0
100
AcDbBlockEnd
0
BLOCK
5
70
330
6F
100
AcDbEntity
8
0
100
AcDbBlockBegin
2
*D12
70
1
10
0
20
0
3
*D12
1

0
LINE
5
D3
100
AcDbEntity
8
dim
6
CONTINUOUS
62
7
370
0
100
AcDbLine
10
0
20
-10
11
10
21
-10
0
SOLID
5
D4
100
AcDbEntity
8
dim
6
CONTINUOUS
62
7
370
0
100
AcDbTrace
10
0
20
-10
30
0
11
2.5
21
-9.58371534223
31
0
12
2.5
22
-10.4162846578
32
0
13
2.5
23
-10.4162846578
33
0
0
SOLID
5
D5
100
AcDbEntity
8
dim
6
CONTINUOUS
62
7
370
0
100
AcDbTrace
10
10
20
-10
30
0
11
7.5
21
-10.4162846578
31
0
12
7.5
22
-9.58371534223
32
0
13
7.5
23
-9.58371534223
33
0
0
MTEXT
5
D6
100
AcDbEntity
8
dim
6
CONTINUOUS
62
7
370
0
100
AcDbMText
10
5
20
-8.125
30
0
40
2.5
41
5.27777777778
71
5
72
1
1
10.0
7
standard
210
0
220
0
230
1
50
0
73
2
44
1
0
LINE
5
D7
100
AcDbEntity
8
dim
6
CONTINUOUS
62
7
370
0
100
AcDbLine
10
-1.14806845671e-16
20
-0.625
11
-2.29613691342e-16
21
-11.25
0
LINE
5
D8
100
AcDbEntity
8
dim
6
CONTINUOUS
62
7
370
0
100
AcDbLine
10
10
20
14.375
11
10
21
-11.25
0
ENDBLK
5
71
330
6F
100
AcDbEntity
8
0
100
AcDbBlockEnd
0
BLOCK
5
73
330
72
100
AcDbEntity
8
0
100
AcDbBlockBegin
2
*D6
70
1
10
0
20
0
3
*D6
1

0
LINE
5
D9
100
AcDbEntity
8
dim
6
CONTINUOUS
62
7
370
0
100
AcDbLine
10
13.8391876925
20
16.1227813063
11
6.1608123075
21
13.8772186937
0
SOLID
5
DA
100
AcDbEntity
8
dim
6
CONTINUOUS
62
7
370
0
100
AcDbTrace
10
13.8391876925
20
16.1227813063
30
0
11
11.5565445427
21
15.0214942562
31
0
12
11.3228462267
22
15.8205917235
32
0
13
11.3228462267
23
15.8205917235
33
0
0
SOLID
5
DB
100
AcDbEntity
8
dim
6
CONTINUOUS
62
7
370
0
100
AcDbTrace
10
6.1608123075
20
13.8772186937
30
0
11
8.44345545735
21
14.9785057438
31
0
12
8.67715377327
22
14.1794082765
32
0
13
8.67715377327
23
14.1794082765
33
0
0
MTEXT
5
DC
100
AcDbEntity
8
dim
6
CONTINUOUS
62
7
370
0
100
AcDbMText
10
9.47369626267
20
16.7996192309
30
0
40
2.5
41
3.88888888889
71
5
72
1
1
8.0
7
standard
210
0
220
0
230
1
50
16.3017083443
73
2
44
1
0
ENDBLK
5
74
330
72
100
AcDbEntity
8
0
100
AcDbBlockEnd
0
BLOCK
5
76
330
75
100
AcDbEntity
8
0
100
AcDbBlockBegin
2
*D2
70
1
10
0
20
0
3
*D2
1

0
SOLID
5
DD
100
AcDbEntity
8
dim
6
CONTINUOUS
62
7
370
0
100
AcDbTrace
10
46.9594397992
20
51.7905475158
30
0
11
44.5095697664
21
52.4397237157
31
0
12
44.8521200338
22
53.1985589939
32
0
13
44.8521200338
23
53.1985589939
33
0
0
LINE
5
DE
100
AcDbEntity
8
dim
6
CONTINUOUS
62
7
370
0
100
AcDbLine
10
48.3265967387
20
51.1733912124
11
39.3641234687
21
55.2191936458
0
MTEXT
5
DF
100
AcDbEntity
8
dim
6
CONTINUOUS
62
7
370
0
100
AcDbMText
10
43.9332270132
20
55.2138167552
30
0
40
2.5
41
3.33333333333
71
5
72
1
1
1.5
7
standard
210
0
220
0
230
1
50
335.704829421
73
2
44
1
0
ENDBLK
5
77
330
75
100
AcDbEntity
8
0
100
AcDbBlockEnd
0
BLOCK
5
79
330
78
100
AcDbEntity
8
0
100
AcDbBlockBegin
2
*D22
70
1
10
0
20
0
3
*D22
1

0
LINE
5
E0
100
AcDbEntity
8
dim
6
CONTINUOUS
62
7
370
0
100
AcDbLine
10
90
20
60
11
90
21
38
0
SOLID
5
E1
100
AcDbEntity
8
dim
6
CONTINUOUS
62
7
370
0
100
AcDbTrace
10
90
20
60
30
0
11
90.4162846578
21
57.5
31
0
12
89.5837153422
22
57.5
32
0
13
89.5837153422
23
57.5
33
0
0
SOLID
5
E2
100
AcDbEntity
8
dim
6
CONTINUOUS
62
7
370
0
100
AcDbTrace
10
90
20
38
30
0
11
89.5837153422
21
40.5
31
0
12
90.4162846578
22
40.5
32
0
13
90.4162846578
23
40.5
33
0
0
MTEXT
5
E3
100
AcDbEntity
8
dim
6
CONTINUOUS
62
7
370
0
100
AcDbMText
10
88.125
20
49
30
0
40
2.5
41
5.83333333333
71
5
72
1
1
22.0
7
standard
210
0
220
0
230
1
50
90
73
2
44
1
0
LINE
5
E4
100
AcDbEntity
8
dim
6
CONTINUOUS
62
7
370
0
100
AcDbLine
10
45.625
20
60
11
91.25
21
60
0
LINE
5
E5
100
AcDbEntity
8
dim
6
CONTINUOUS
62
7
370
0
100
AcDbLine
10
83.625
20
38
11
91.25
21
38
0
ENDBLK
5
7A
330
78
100
AcDbEntity
8
0
100
AcDbBlockEnd
0
BLOCK
5
7C
330
7B
100
AcDbEntity
8
0
100
AcDbBlockBegin
2
*D10
70
1
10
0
20
0
3
*D10
1

0
LINE
5
E6
100
AcDbEntity
8
dim
6
CONTINUOUS
62
7
370
0
100
AcDbLine
10
-0.625
20
3.81158727627e-15
11
44.75
21
-1.7450640542e-15
0
LINE
5
E7
100
AcDbEntity
8
dim
6
CONTINUOUS
62
7
370
0
100
AcDbLine
10
83.3124997571
20
38.6464232788
11
69.124993684
21
14.072916458
0
ARC
5
E8
100
AcDbEntity
8
dim
6
CONTINUOUS
62
7
370
0
100
AcDbCircle
10
61
20
-3.73504937916e-15
40
15
100
AcDbArc
50
60.0000257145
51
180
0
SOLID
5
E9
100
AcDbEntity
8
dim
6
CONTINUOUS
62
7
370
0
100
AcDbTrace
10
46
20
-1.89813984843e-15
30
0
11
45.7932522293
21
2.52597471793
31
0
12
46.6229323517
22
2.45667421558
32
0
13
46.6229323517
23
2.45667421558
33
0
0
SOLID
5
EA
100
AcDbEntity
8
dim
6
CONTINUOUS
62
7
370
0
100
AcDbTrace
10
68.4999941699
20
12.9903844228
30
0
11
66.0609854053
21
13.6792451945
31
0
12
66.415809133
22
14.432419668
32
0
13
66.415809133
23
14.432419668
33
0
0
MTEXT
5
EB
100
AcDbEntity
8
dim
6
CONTINUOUS
62
7
370
0
100
AcDbMText
10
53.1874969635
20
13.531645181
30
0
40
2.5
41
10.8333333333
71
8
72
1
1
120.00%%D
7
standard
210
0
220
0
230
1
50
390.000012857
73
2
44
1
0
ENDBLK
5
7D
330
7B
100
AcDbEntity
8
0
100
AcDbBlockEnd
0
BLOCK
5
7F
330
7E
100
AcDbEntity
8
0
100
AcDbBlockBegin
2
*D1
70
1
10
0
20
0
3
*D1
1

0
SOLID
5
EC
100
AcDbEntity
8
dim
6
CONTINUOUS
62
7
370
0
100
AcDbTrace
10
31.4548095605
20
24.9333643059
30
0
11
29.000085496
21
25.5639376034
31
0
12
29.3368695347
22
26.3253495657
32
0
13
29.3368695347
23
26.3253495657
33
0
0
LINE
5
ED
100
AcDbEntity
8
dim
6
CONTINUOUS
62
7
370
0
100
AcDbLine
10
32.8266087876
20
24.3265967387
11
23.8337027434
21
28.3042952347
0
MTEXT
5
EE
100
AcDbEntity
8
dim
6
CONTINUOUS
62
7
370
0
100
AcDbMText
10
28.4027156109
20
28.333578804
30
0
40
2.5
41
3.33333333333
71
5
72
1
1
1.5
7
standard
210
0
220
0
230
1
50
336.13946791
73
2
44
1
0
ENDBLK
5
80
330
7E
100
AcDbEntity
8
0
100
AcDbBlockEnd
0
BLOCK
5
82
330
81
100
AcDbEntity
8
0
100
AcDbBlockBegin
2
*D16
70
1
10
0
20
0
3
*D16
1

0
LINE
5
EF
100
AcDbEntity
8
dim
6
CONTINUOUS
62
7
370
0
100
AcDbLine
10
0
20
-17
11
61
21
-17
0
SOLID
5
F0
100
AcDbEntity
8
dim
6
CONTINUOUS
62
7
370
0
100
AcDbTrace
10
0
20
-17
30
0
11
2.5
21
-16.5837153422
31
0
12
2.5
22
-17.4162846578
32
0
13
2.5
23
-17.4162846578
33
0
0
SOLID
5
F1
100
AcDbEntity
8
dim
6
CONTINUOUS
62
7
370
0
100
AcDbTrace
10
61
20
-17
30
0
11
58.5
21
-17.4162846578
31
0
12
58.5
22
-16.5837153422
32
0
13
58.5
23
-16.5837153422
33
0
0
MTEXT
5
F2
100
AcDbEntity
8
dim
6
CONTINUOUS
62
7
370
0
100
AcDbMText
10
30.5
20
-15.125
30
0
40
2.5
41
5.27777777778
71
5
72
1
1
61.0
7
standard
210
0
220
0
230
1
50
0
73
2
44
1
0
LINE
5
F3
100
AcDbEntity
8
dim
6
CONTINUOUS
62
7
370
0
100
AcDbLine
10
-1.14806845671e-16
20
-0.625
11
-2.29613691342e-16
21
-18.25
0
LINE
5
F4
100
AcDbEntity
8
dim
6
CONTINUOUS
62
7
370
0
100
AcDbLine
10
61
20
-0.625
11
61
21
-18.25
0
ENDBLK
5
83
330
81
100
AcDbEntity
8
0
100
AcDbBlockEnd
0
BLOCK
5
85
330
84
100
AcDbEntity
8
0
100
AcDbBlockBegin
2
*D19
70
1
10
0
20
0
3
*D19
1

0
LINE
5
F5
100
AcDbEntity
8
dim
6
CONTINUOUS
62
7
370
0
100
AcDbLine
10
-20
20
0
11
-20
21
60
0
SOLID
5
F6
100
AcDbEntity
8
dim
6
CONTINUOUS
62
7
370
0
100
AcDbTrace
10
-20
20
0
30
0
11
-20.4162846578
21
2.5
31
0
12
-19.5837153422
22
2.5
32
0
13
-19.5837153422
23
2.5
33
0
0
SOLID
5
F7
100
AcDbEntity
8
dim
6
CONTINUOUS
62
7
370
0
100
AcDbTrace
10
-20
20
60
30
0
11
-19.5837153422
21
57.5
31
0
12
-20.4162846578
22
57.5
32
0
13
-20.4162846578
23
57.5
33
0
0
MTEXT
5
F8
100
AcDbEntity
8
dim
6
CONTINUOUS
62
7
370
0
100
AcDbMText
10
-21.875
20
30
30
0
40
2.5
41
5.83333333333
71
5
72
1
1
60.0
7
standard
210
0
220
0
230
1
50
90
73
2
44
1
0
LINE
5
F9
100
AcDbEntity
8
dim
6
CONTINUOUS
62
7
370
0
100
AcDbLine
10
-0.625
20
7.65378971139e-17
11
-21.25
21
1.53075794228e-16
0
LINE
5
FA
100
AcDbEntity
8
dim
6
CONTINUOUS
62
7
370
0
100
AcDbLine
10
19.375
20
60
11
-21.25
21
60
0
ENDBLK
5
86
330
84
100
AcDbEntity
8
0
100
AcDbBlockEnd
0
BLOCK
5
88
330
87
100
AcDbEntity
8
0
100
AcDbBlockBegin
2
*D7
70
1
10
0
20
0
3
*D7
1

0
LINE
5
FB
100
AcDbEntity
8
dim
6
CONTINUOUS
62
7
370
0
100
AcDbLine
10
64.449457561
20
33.4363987952
11
43.550542439
21
26.5636012048
0
SOLID
5
FC
100
AcDbEntity
8
dim
6
CONTINUOUS
62
7
370
0
100
AcDbTrace
10
64.449457561
20
33.4363987952
30
0
11
62.2046281241
21
32.2599491722
31
0
12
61.9445335611
22
33.0508489658
32
0
13
61.9445335611
23
33.0508489658
33
0
0
SOLID
5
FD
100
AcDbEntity
8
dim
6
CONTINUOUS
62
7
370
0
100
AcDbTrace
10
43.550542439
20
26.5636012048
30
0
11
45.7953718759
21
27.7400508278
31
0
12
46.0554664389
22
26.9491510342
32
0
13
46.0554664389
23
26.9491510342
33
0
0
MTEXT
5
FE
100
AcDbEntity
8
dim
6
CONTINUOUS
62
7
370
0
100
AcDbMText
10
53.4142502054
20
31.7811575388
30
0
40
2.5
41
5.83333333333
71
5
72
1
1
22.0
7
standard
210
0
220
0
230
1
50
18.2039187059
73
2
44
1
0
ENDBLK
5
89
330
87
100
AcDbEntity
8
0
100
AcDbBlockEnd
0
BLOCK
5
8B
330
8A
100
AcDbEntity
8
0
100
AcDbBlockBegin
2
PAD002054009_PROJ
70
0
10
0
20
0
3
PAD002054009_PROJ
1

0
LINE
5
FF
100
AcDbEntity
8
0
6
ByLayer
62
0
370
-1
100
AcDbLine
10
4.4408920985e-16
20
-4.93038065763e-32
11
61
21
-3.73504937916e-15
0
LINE
5
100
100
AcDbEntity
8
0
6
ByLayer
62
0
370
-1
100
AcDbLine
10
61
20
-3.73504937916e-15
11
83
21
38.1051572612
0
LINE
5
101
100
AcDbEntity
8
0
6
ByLayer
62
0
370
-1
100
AcDbLine
10
83
20
38.1051572612
11
45.0769806468
21
60
0
LINE
5
102
100
AcDbEntity
8
0
6
ByLayer
62
0
370
-1
100
AcDbLine
10
45.0769806468
20
60
11
19.9999803923
21
60
0
LINE
5
103
100
AcDbEntity
8
0
6
ByLayer
62
0
370
-1
100
AcDbLine
10
19.9999803923
20
60
11
3.84204387055e-14
21
40
0
LINE
5
104
100
AcDbEntity
8
0
6
ByLayer
62
0
370
-1
100
AcDbLine
10
7.33419401599e-15
20
40
11
4.4408920985e-16
21
-4.4408920985e-16
0
CIRCLE
5
105
100
AcDbEntity
8
0
6
ByLayer
62
0
370
-1
100
AcDbCircle
10
54
20
30
40
11
0
CIRCLE
5
106
100
AcDbEntity
8
0
6
ByLayer
62
0
370
-1
100
AcDbCircle
10
26
20
40
40
4
0
CIRCLE
5
107
100
AcDbEntity
8
0
6
ByLayer
62
0
370
-1
100
AcDbCircle
10
10
20
15
40
4
0
CIRCLE
5
108
100
AcDbEntity
8
0
6
ByLayer
62
0
370
-1
100
AcDbCircle
10
32.8266087876
20
24.3265967387
40
1.5
0
CIRCLE
5
109
100
AcDbEntity
8
0
6
ByLayer
62
0
370
-1
100
AcDbCircle
10
59.6734032613
20
8.82660878758
40
1.5
0
CIRCLE
5
10A
100
AcDbEntity
8
0
6
ByLayer
62
0
370
-1
100
AcDbCircle
10
48.3265967387
20
51.1733912124
40
1.5
0
CIRCLE
5
10B
100
AcDbEntity
8
0
6
ByLayer
62
0
370
-1
100
AcDbCircle
10
75.1733912124
20
35.6734032613
40
1.5
0
ENDBLK
5
8C
330
8A
100
AcDbEntity
8
0
100
AcDbBlockEnd
0
ENDSEC
0
SECTION
2
ENTITIES
0
INSERT
5
10C
100
AcDbEntity
8
0
6
ByLayer
62
256
370
-1
100
AcDbBlockReference
2
PAD002054009_PROJ
10
0
20
0
30
0
41
1
42
1
43
0
50
0
70
1
71
1
44
0
45
0
0
DIMENSION
5
10D
100
AcDbEntity
8
dim
6
ByLayer
62
256
370
-1
100
AcDbDimension
2
*D1
10
32.8266087876
20
24.3265967387
30
0
11
28.4027156109
21
28.333578804
31
0
70
36
71
5
3
Standard
53
0
210
0
220
0
230
1
100
AcDbRadialDimension
15
31.4548095605
25
24.9333643059
35
0
40
0
0
DIMENSION
5
10E
100
AcDbEntity
8
dim
6
ByLayer
62
256
370
-1
100
AcDbDimension
2
*D2
10
48.3265967387
20
51.1733912124
30
0
11
43.9332270132
21
55.2138167552
31
0
70
36
71
5
3
Standard
53
0
210
0
220
0
230
1
100
AcDbRadialDimension
15
46.9594397992
25
51.7905475158
35
0
40
0
0
DIMENSION
5
10F
100
AcDbEntity
8
dim
6
ByLayer
62
256
370
-1
100
AcDbDimension
2
*D3
10
59.6734032613
20
8.82660878758
30
0
11
53.7047103929
21
8.78864098304
31
0
70
36
71
5
3
Standard
53
0
210
0
220
0
230
1
100
AcDbRadialDimension
15
58.2523607955
25
8.34636061167
35
0
40
0
0
DIMENSION
5
110
100
AcDbEntity
8
dim
6
ByLayer
62
256
370
-1
100
AcDbDimension
2
*D4
10
75.1733912124
20
35.6734032613
30
0
11
69.4022679812
21
37.1968443533
31
0
70
36
71
5
3
Standard
53
0
210
0
220
0
230
1
100
AcDbRadialDimension
15
73.6762227552
25
35.5812804579
35
0
40
0
0
DIMENSION
5
111
100
AcDbEntity
8
dim
6
ByLayer
62
256
370
-1
100
AcDbDimension
2
*D5
10
29.8165859504
20
41.1973602981
30
0
11
25.4387373602
21
41.7890246642
31
0
70
35
71
5
3
Standard
53
0
210
0
220
0
230
1
100
AcDbDiametricDimension
15
22.1834140496
25
38.8026397019
35
0
40
0
0
DIMENSION
5
112
100
AcDbEntity
8
dim
6
ByLayer
62
256
370
-1
100
AcDbDimension
2
*D6
10
13.8391876925
20
16.1227813063
30
0
11
9.47369626267
21
16.7996192309
31
0
70
35
71
5
3
Standard
53
0
210
0
220
0
230
1
100
AcDbDiametricDimension
15
6.1608123075
25
13.8772186937
35
0
40
0
0
DIMENSION
5
113
100
AcDbEntity
8
dim
6
ByLayer
62
256
370
-1
100
AcDbDimension
2
*D7
10
64.449457561
20
33.4363987952
30
0
11
53.4142502054
21
31.7811575388
31
0
70
35
71
5
3
Standard
53
0
210
0
220
0
230
1
100
AcDbDiametricDimension
15
43.550542439
25
26.5636012048
35
0
40
0
0
DIMENSION
5
114
100
AcDbEntity
8
dim
6
ByLayer
62
256
370
-1
100
AcDbDimension
2
*D8
10
79.6410528067
20
43.4116281541
30
0
11
67.1551548411
21
52.7854201824
31
0
70
33
71
5
3
Standard
53
0
210
0
220
0
230
1
100
AcDbAlignedDimension
13
48.3265967387
23
51.1733912124
33
0
14
75.1733912124
24
35.6734032613
34
0
0
DIMENSION
5
115
100
AcDbEntity
8
dim
6
ByLayer
62
256
370
-1
100
AcDbDimension
2
*D9
10
67.7729593142
20
4.15033276692
30
0
11
73.8991552369
21
18.511229275
31
0
70
33
71
5
3
Standard
53
0
210
0
220
0
230
1
100
AcDbAlignedDimension
13
75.1733912124
23
35.6734032613
33
0
14
59.6734032613
24
8.82660878758
34
0
0
LINE
5
116
100
AcDbEntity
8
base
6
ByLayer
62
256
370
-1
100
AcDbLine
10
26
20
45
11
26
21
35
0
LINE
5
117
100
AcDbEntity
8
base
6
ByLayer
62
256
370
-1
100
AcDbLine
10
21
20
40
11
31
21
40
0
LINE
5
118
100
AcDbEntity
8
base
6
ByLayer
62
256
370
-1
100
AcDbLine
10
10
20
20
11
10
21
10
0
LINE
5
119
100
AcDbEntity
8
base
6
ByLayer
62
256
370
-1
100
AcDbLine
10
5
20
15
11
15
21
15
0
LINE
5
11A
100
AcDbEntity
8
base
6
ByLayer
62
256
370
-1
100
AcDbLine
10
54
20
42
11
54
21
18
0
LINE
5
11B
100
AcDbEntity
8
base
6
ByLayer
62
256
370
-1
100
AcDbLine
10
42
20
30
11
66
21
30
0
DIMENSION
5
11C
100
AcDbEntity
8
dim
6
ByLayer
62
256
370
-1
100
AcDbDimension
2
*D10
10
83
20
38.1051572612
30
0
11
0
21
0
31
0
70
34
71
5
3
Standard
53
0
210
0
220
0
230
1
100
AcDb2LineAngularDimension
13
61
23
-3.73504937916e-15
33
0
14
4.4408920985e-16
24
-4.93038065763e-32
34
0
15
61
25
-3.73504937916e-15
35
0
16
49
26
9
36
0
0
DIMENSION
5
11D
100
AcDbEntity
8
dim
6
ByLayer
62
256
370
-1
100
AcDbDimension
2
*D11
10
19.9999803923
20
60
30
0
11
0
21
0
31
0
70
34
71
5
3
Standard
53
0
210
0
220
0
230
1
100
AcDb2LineAngularDimension
13
7.33419401599e-15
23
40
33
0
14
4.4408920985e-16
24
-4.4408920985e-16
34
0
15
3.84204387055e-14
25
40
35
0
16
7
26
38
36
0
0
DIMENSION
5
11E
100
AcDbEntity
8
dim
6
ByLayer
62
256
370
-1
100
AcDbDimension
2
*D12
10
10
20
-10
30
0
11
5
21
-8.125
31
0
70
32
71
5
3
Standard
53
0
210
0
220
0
230
1
100
AcDbAlignedDimension
13
0
23
0
33
0
14
10
24
15
34
0
100
AcDbRotatedDimension
0
DIMENSION
5
11F
100
AcDbEntity
8
dim
6
ByLayer
62
256
370
-1
100
AcDbDimension
2
*D13
10
26
20
-10
30
0
11
18
21
-8.125
31
0
70
32
71
5
3
Standard
53
0
210
0
220
0
230
1
100
AcDbAlignedDimension
13
10
23
15
33
0
14
26
24
40
34
0
100
AcDbRotatedDimension
0
DIMENSION
5
120
100
AcDbEntity
8
dim
6
ByLayer
62
256
370
-1
100
AcDbDimension
2
*D14
10
54
20
-10
30
0
11
40
21
-8.125
31
0
70
32
71
5
3
Standard
53
0
210
0
220
0
230
1
100
AcDbAlignedDimension
13
26
23
40
33
0
14
54
24
30
34
0
100
AcDbRotatedDimension
0
DIMENSION
5
121
100
AcDbEntity
8
dim
6
ByLayer
62
256
370
-1
100
AcDbDimension
2
*D15
10
83
20
-10
30
0
11
72
21
-8.125
31
0
70
32
71
5
3
Standard
53
0
210
0
220
0
230
1
100
AcDbAlignedDimension
13
61
23
0
33
0
14
83
24
38
34
0
100
AcDbRotatedDimension
0
DIMENSION
5
122
100
AcDbEntity
8
dim
6
ByLayer
62
256
370
-1
100
AcDbDimension
2
*D16
10
61
20
-17
30
0
11
30.5
21
-15.125
31
0
70
32
71
5
3
Standard
53
0
210
0
220
0
230
1
100
AcDbAlignedDimension
13
0
23
0
33
0
14
61
24
0
34
0
100
AcDbRotatedDimension
0
DIMENSION
5
123
100
AcDbEntity
8
dim
6
ByLayer
62
256
370
-1
100
AcDbDimension
2
*D17
10
-10
20
15
30
0
11
-11.875
21
7.5
31
0
70
32
71
5
3
Standard
53
0
210
0
220
0
230
1
100
AcDbAlignedDimension
13
0
23
0
33
0
14
10
24
15
34
0
50
90
100
AcDbRotatedDimension
0
DIMENSION
5
124
100
AcDbEntity
8
dim
6
ByLayer
62
256
370
-1
100
AcDbDimension
2
*D18
10
-10
20
40
30
0
11
-11.875
21
27.5
31
0
70
32
71
5
3
Standard
53
0
210
0
220
0
230
1
100
AcDbAlignedDimension
13
10
23
15
33
0
14
26
24
40
34
0
50
90
100
AcDbRotatedDimension
0
DIMENSION
5
125
100
AcDbEntity
8
dim
6
ByLayer
62
256
370
-1
100
AcDbDimension
2
*D19
10
-20
20
60
30
0
11
-21.875
21
30
31
0
70
32
71
5
3
Standard
53
0
210
0
220
0
230
1
100
AcDbAlignedDimension
13
0
23
0
33
0
14
20
24
60
34
0
50
90
100
AcDbRotatedDimension
0
DIMENSION
5
126
100
AcDbEntity
8
dim
6
ByLayer
62
256
370
-1
100
AcDbDimension
2
*D20
10
45
20
70
30
0
11
32.5
21
71.875
31
0
70
32
71
5
3
Standard
53
0
210
0
220
0
230
1
100
AcDbAlignedDimension
13
20
23
60
33
0
14
45
24
60
34
0
100
AcDbRotatedDimension
0
DIMENSION
5
127
100
AcDbEntity
8
dim
6
ByLayer
62
256
370
-1
100
AcDbDimension
2
*D21
10
83
20
70
30
0
11
64
21
71.875
31
0
70
32
71
5
3
Standard
53
0
210
0
220
0
230
1
100
AcDbAlignedDimension
13
45
23
60
33
0
14
83
24
38
34
0
100
AcDbRotatedDimension
0
DIMENSION
5
128
100
AcDbEntity
8
dim
6
ByLayer
62
256
370
-1
100
AcDbDimension
2
*D22
10
90
20
38
30
0
11
88.125
21
49
31
0
70
32
71
5
3
Standard
53
0
210
0
220
0
230
1
100
AcDbAlignedDimension
13
45
23
60
33
0
14
83
24
38
34
0
50
90
100
AcDbRotatedDimension
0
LINE
5
129
100
AcDbEntity
8
base
6
ByLayer
62
256
370
-1
100
AcDbLine
10
48.3265967387
20
51.1733912124
11
75.1733912124
21
35.6734032613
0
LINE
5
12A
100
AcDbEntity
8
base
6
ByLayer
62
256
370
-1
100
AcDbLine
10
75.1733912124
20
35.6734032613
11
59.6734032613
21
8.82660878758
0
LINE
5
12B
100
AcDbEntity
8
base
6
ByLayer
62
256
370
-1
100
AcDbLine
10
59.6734032613
20
8.82660878758
11
32.8266087876
21
24.3265967387
0
LINE
5
12C
100
AcDbEntity
8
base
6
ByLayer
62
256
370
-1
100
AcDbLine
10
32.8266087876
20
24.3265967387
11
48.3265967387
21
51.1733912124
0
ENDSEC
0
SECTION
2
OBJECTS
0
DICTIONARY
5
C
330
0
100
AcDbDictionary
281
1
3
ACAD_GROUP
350
D
0
DICTIONARY
5
D
330
C
100
AcDbDictionary
281
1
0
ENDSEC
0
EOF
