999
dxfrw 0.6.1
  0
SECTION
  2
HEADER
  9
$ACADVER
  1
AC1021
  9
$DWGCODEPAGE
  3
ANSI_1252
  9
$INSBASE
 10
0
 20
0
 30
0
  9
$EXTMIN
 10
-43.125
 20
-49.25
 30
0
  9
$EXTMAX
 10
89.25
 20
40
 30
0
  9
$LIMMIN
 10
0
 20
0
  9
$LIMMAX
 10
420
 20
297
  9
$ORTHOMODE
 70
    0
  9
$REGENMODE
 70
    1
  9
$FILLMODE
 70
    1
  9
$QTEXTMODE
 70
    0
  9
$MIRRTEXT
 70
    0
  9
$LTSCALE
 40
1
  9
$ATTMODE
 70
    0
  9
$TEXTSIZE
 40
2.5
  9
$TRACEWID
 40
15.68
  9
$TEXTSTYLE
  7
STANDARD
  9
$CLAYER
  8
dim
  9
$CELTYPE
  6
BYLAYER
  9
$CECOLOR
 62
  256
  9
$CELTSCALE
 40
1
  9
$DISPSILH
 70
    0
  9
$DIMSCALE
 40
1
  9
$DIMASZ
 40
2.5
  9
$DIMEXO
 40
0.625
  9
$DIMDLI
 40
3.75
  9
$DIMRND
 40
0
  9
$DIMDLE
 40
0
  9
$DIMEXE
 40
1.25
  9
$DIMTP
 40
0
  9
$DIMTM
 40
0
  9
$DIMTXT
 40
2.5
  9
$DIMCEN
 40
2.5
  9
$DIMTSZ
 40
0
  9
$DIMTOL
 70
    0
  9
$DIMLIM
 70
    0
  9
$DIMTIH
 70
    0
  9
$DIMTOH
 70
    0
  9
$DIMSE1
 70
    0
  9
$DIMSE2
 70
    0
  9
$DIMTAD
 70
    1
  9
$DIMZIN
 70
    8
  9
$DIMBLK
  1

  9
$DIMASO
 70
    1
  9
$DIMSHO
 70
    1
  9
$DIMPOST
  1

  9
$DIMAPOST
  1

  9
$DIMALT
 70
    0
  9
$DIMALTD
 70
    3
  9
$DIMALTF
 40
0.03937
  9
$DIMLFAC
 40
1
  9
$DIMTOFL
 70
    1
  9
$DIMTVP
 40
0
  9
$DIMTIX
 70
    0
  9
$DIMSOXD
 70
    0
  9
$DIMSAH
 70
    0
  9
$DIMBLK1
  1

  9
$DIMBLK2
  1

  9
$DIMSTYLE
  2
Standard
  9
$DIMCLRD
 70
    0
  9
$DIMCLRE
 70
    0
  9
$DIMCLRT
 70
    0
  9
$DIMTFAC
 40
1
  9
$DIMGAP
 40
0.625
  9
$DIMJUST
 70
    0
  9
$DIMSD1
 70
    0
  9
$DIMSD2
 70
    0
  9
$DIMTOLJ
 70
    0
  9
$DIMTZIN
 70
    8
  9
$DIMALTZ
 70
    0
  9
$DIMALTTZ
 70
    0
  9
$DIMUPT
 70
    0
  9
$DIMDEC
 70
    2
  9
$DIMTDEC
 70
    2
  9
$DIMALTU
 70
    2
  9
$DIMALTTD
 70
    3
  9
$DIMTXSTY
  7
standard
  9
$DIMAUNIT
 70
    0
  9
$DIMADEC
 70
    2
  9
$DIMALTRND
 40
0
  9
$DIMAZIN
 70
    0
  9
$DIMDSEP
 70
    0
  9
$DIMATFIT
 70
    3
  9
$DIMFRAC
 70
    0
  9
$DIMLDRBLK
  1
STANDARD
  9
$DIMLUNIT
 70
    2
  9
$DIMLWD
 70
   -2
  9
$DIMLWE
 70
   -2
  9
$DIMTMOVE
 70
    0
  9
$DIMFXL
 40
1
  9
$DIMFXLON
 70
    0
  9
$DIMJOGANG
 40
0.7854
  9
$DIMTFILL
 70
    0
  9
$DIMTFILLCLR
 70
    0
  9
$DIMARCSYM
 70
    0
  9
$DIMLTYPE
  6

  9
$DIMLTEX1
  6

  9
$DIMLTEX2
  6

  9
$LUNITS
 70
    2
  9
$LUPREC
 70
    1
  9
$SKETCHINC
 40
1
  9
$FILLETRAD
 40
0
  9
$AUNITS
 70
    0
  9
$AUPREC
 70
    2
  9
$MENU
  1
.
  9
$ELEVATION
 40
0
  9
$PELEVATION
 40
0
  9
$THICKNESS
 40
0
  9
$LIMCHECK
 70
    0
  9
$CHAMFERA
 40
0
  9
$CHAMFERB
 40
0
  9
$CHAMFERC
 40
0
  9
$CHAMFERD
 40
0
  9
$SKPOLY
 70
    0
  9
$USRTIMER
 70
    1
  9
$ANGBASE
 50
0
  9
$ANGDIR
 70
    0
  9
$PDMODE
 70
   34
  9
$PDSIZE
 40
0
  9
$PLINEWID
 40
0
  9
$SPLFRAME
 70
    0
  9
$SPLINETYPE
 70
    2
  9
$SPLINESEGS
 70
    8
  9
$HANDSEED
  5
20000
  9
$SURFTAB1
 70
    6
  9
$SURFTAB2
 70
    6
  9
$SURFTYPE
 70
    6
  9
$SURFU
 70
    6
  9
$SURFV
 70
    6
  9
$UCSBASE
  2

  9
$UCSNAME
  2

  9
$UCSORG
 10
0
 20
0
 30
0
  9
$UCSXDIR
 10
1
 20
0
 30
0
  9
$UCSYDIR
 10
0
 20
1
 30
0
  9
$UCSORTHOREF
  2

  9
$UCSORTHOVIEW
 70
    0
  9
$UCSORGTOP
 10
0
 20
0
 30
0
  9
$UCSORGBOTTOM
 10
0
 20
0
 30
0
  9
$UCSORGLEFT
 10
0
 20
0
 30
0
  9
$UCSORGRIGHT
 10
0
 20
0
 30
0
  9
$UCSORGFRONT
 10
0
 20
0
 30
0
  9
$UCSORGBACK
 10
0
 20
0
 30
0
  9
$PUCSBASE
  2

  9
$PUCSNAME
  2

  9
$PUCSORG
 10
0
 20
0
 30
0
  9
$PUCSXDIR
 10
1
 20
0
 30
0
  9
$PUCSYDIR
 10
0
 20
1
 30
0
  9
$PUCSORTHOREF
  2

  9
$PUCSORTHOVIEW
 70
    0
  9
$PUCSORGTOP
 10
0
 20
0
 30
0
  9
$PUCSORGBOTTOM
 10
0
 20
0
 30
0
  9
$PUCSORGLEFT
 10
0
 20
0
 30
0
  9
$PUCSORGRIGHT
 10
0
 20
0
 30
0
  9
$PUCSORGFRONT
 10
0
 20
0
 30
0
  9
$PUCSORGBACK
 10
0
 20
0
 30
0
  9
$USERI1
 70
    0
  9
$USERI2
 70
    0
  9
$USERI3
 70
    0
  9
$USERI4
 70
    0
  9
$USERI5
 70
    0
  9
$USERR1
 40
0
  9
$USERR2
 40
0
  9
$USERR3
 40
0
  9
$USERR4
 40
0
  9
$USERR5
 40
0
  9
$WORLDVIEW
 70
    1
  9
$SHADEDGE
 70
    3
  9
$SHADEDIF
 70
   70
  9
$TILEMODE
 70
    1
  9
$MAXACTVP
 70
   64
  9
$PINSBASE
 10
0
 20
0
 30
0
  9
$PLIMCHECK
 70
    0
  9
$PEXTMIN
 10
0
 20
0
 30
0
  9
$PEXTMAX
 10
0
 20
0
 30
0
  9
$GRIDMODE
 70
    1
  9
$SNAPSTYLE
 70
    0
  9
$GRIDUNIT
 10
0
 20
0
  9
$PLIMMIN
 10
0
 20
0
  9
$PLIMMAX
 10
210
 20
297
  9
$UNITMODE
 70
    0
  9
$VISRETAIN
 70
    1
  9
$PLINEGEN
 70
    0
  9
$PSLTSCALE
 70
    1
  9
$TREEDEPTH
 70
 3020
  9
$CMLSTYLE
  2
Standard
  9
$CMLJUST
 70
    0
  9
$CMLSCALE
 40
20
  9
$PROXYGRAPHICS
 70
    1
  9
$MEASUREMENT
 70
    1
  9
$CELWEIGHT
370
   -1
  9
$ENDCAPS
280
    0
  9
$JOINSTYLE
280
    0
  9
$LWDISPLAY
290
    0
  9
$INSUNITS
 70
    0
  9
$HYPERLINKBASE
  1

  9
$STYLESHEET
  1

  9
$XEDIT
290
    1
  9
$CEPSNTYPE
380
    0
  9
$PSTYLEMODE
290
    1
  9
$EXTNAMES
290
    1
  9
$PSVPSCALE
 40
1
  9
$OLESTARTUP
290
    0
  9
$SORTENTS
280
  127
  9
$INDEXCTL
280
    0
  9
$HIDETEXT
280
    1
  9
$XCLIPFRAME
290
    0
  9
$HALOGAP
280
    0
  9
$OBSCOLOR
 70
  257
  9
$OBSLTYPE
280
    0
  9
$INTERSECTIONDISPLAY
280
    0
  9
$INTERSECTIONCOLOR
 70
  257
  9
$DIMASSOC
280
    0
  9
$PROJECTNAME
  1

  9
$CAMERADISPLAY
290
    0
  9
$LENSLENGTH
 40
50
  9
$CAMERAHEIGHT
 40
0
  9
$STEPSPERSEC
 40
2
  9
$STEPSIZE
 40
50
  9
$3DDWFPREC
 40
2
  9
$PSOLWIDTH
 40
5
  9
$PSOLHEIGHT
 40
80
  9
$LOFTANG1
 40
1.570796326794897
  9
$LOFTANG2
 40
1.570796326794897
  9
$LOFTMAG1
 40
0
  9
$LOFTMAG2
 40
0
  9
$LOFTPARAM
 70
    7
  9
$LOFTNORMALS
280
    1
  9
$LATITUDE
 40
1
  9
$LONGITUDE
 40
1
  9
$NORTHDIRECTION
 40
0
  9
$TIMEZONE
 70
-8000
  9
$LIGHTGLYPHDISPLAY
280
    1
  9
$TILEMODELIGHTSYNCH
280
    1
  9
$SOLIDHIST
280
    1
  9
$SHOWHIST
280
    1
  9
$DWFFRAME
280
    2
  9
$DGNFRAME
280
    0
  9
$REALWORLDSCALE
290
    1
  9
$INTERFERECOLOR
 62
    1
  9
$CSHADOW
280
    0
  9
$SHADOWPLANELOCATION
 40
0
  0
ENDSEC
  0
SECTION
  2
CLASSES
  0
ENDSEC
  0
SECTION
  2
TABLES
  0
TABLE
  2
VPORT
  5
8
330
0
100
AcDbSymbolTable
 70
    1
  0
VPORT
  5
31
330
2
100
AcDbSymbolTableRecord
100
AcDbViewportTableRecord
  2
*ACTIVE
 70
    0
 10
0
 20
0
 11
1
 21
1
 12
65.42588994596085
 22
24.19285319545176
 13
0
 23
0
 14
10
 24
10
 15
10
 25
10
 16
0
 26
0
 36
1
 17
0
 27
0
 37
0
 40
127.3455692838852
 41
1.670704845814978
 42
50
 43
0
 44
0
 50
0
 51
0
 71
    0
 72
  100
 73
    1
 74
    3
 75
    0
 76
    1
 77
    0
 78
    0
281
    0
 65
    1
110
0
120
0
130
0
111
1
121
0
131
0
112
0
122
1
132
0
 79
    0
146
0
348
10020
 60
    7
 61
    5
292
1
282
    1
141
0
142
0
 63
  250
421
3358443
  0
ENDTAB
  0
TABLE
  2
LTYPE
  5
5
330
0
100
AcDbSymbolTable
 70
    4
  0
LTYPE
  5
14
330
5
100
AcDbSymbolTableRecord
100
AcDbLinetypeTableRecord
  2
ByBlock
 70
    0
  3

 72
   65
 73
    0
 40
0
  0
LTYPE
  5
15
330
5
100
AcDbSymbolTableRecord
100
AcDbLinetypeTableRecord
  2
ByLayer
 70
    0
  3

 72
   65
 73
    0
 40
0
  0
LTYPE
  5
16
330
5
100
AcDbSymbolTableRecord
100
AcDbLinetypeTableRecord
  2
Continuous
 70
    0
  3
Solid line
 72
   65
 73
    0
 40
0
  0
LTYPE
  5
32
330
5
100
AcDbSymbolTableRecord
100
AcDbLinetypeTableRecord
  2
DOT
 70
    0
  3
Dot . . . . . . . . . . . . . . . . . . . . . .
 72
   65
 73
    2
 40
6.35
 49
0
 74
    0
 49
-6.35
 74
    0
  0
LTYPE
  5
33
330
5
100
AcDbSymbolTableRecord
100
AcDbLinetypeTableRecord
  2
DOTTINY
 70
    0
  3
Dot (.15x) .....................................
 72
   65
 73
    2
 40
0.9525
 49
0
 74
    0
 49
-0.9525
 74
    0
  0
LTYPE
  5
34
330
5
100
AcDbSymbolTableRecord
100
AcDbLinetypeTableRecord
  2
DOT2
 70
    0
  3
Dot (.5x) .....................................
 72
   65
 73
    2
 40
3.175
 49
0
 74
    0
 49
-3.175
 74
    0
  0
LTYPE
  5
35
330
5
100
AcDbSymbolTableRecord
100
AcDbLinetypeTableRecord
  2
DOTX2
 70
    0
  3
Dot (2x) .  .  .  .  .  .  .  .  .  .  .  .  .
 72
   65
 73
    2
 40
12.7
 49
0
 74
    0
 49
-12.7
 74
    0
  0
LTYPE
  5
36
330
5
100
AcDbSymbolTableRecord
100
AcDbLinetypeTableRecord
  2
DASHED
 70
    0
  3
Dashed _ _ _ _ _ _ _ _ _ _ _ _ _ _ _ _ _
 72
   65
 73
    2
 40
19.05
 49
12.7
 74
    0
 49
-6.35
 74
    0
  0
LTYPE
  5
37
330
5
100
AcDbSymbolTableRecord
100
AcDbLinetypeTableRecord
  2
DASHEDTINY
 70
    0
  3
Dashed (.15x) _ _ _ _ _ _ _ _ _ _ _ _ _ _ _ _ _
 72
   65
 73
    2
 40
2.8575
 49
1.905
 74
    0
 49
-0.9525
 74
    0
  0
LTYPE
  5
38
330
5
100
AcDbSymbolTableRecord
100
AcDbLinetypeTableRecord
  2
DASHED2
 70
    0
  3
Dashed (.5x) _ _ _ _ _ _ _ _ _ _ _ _ _ _ _ _ _
 72
   65
 73
    2
 40
9.524999999999999
 49
6.35
 74
    0
 49
-3.175
 74
    0
  0
LTYPE
  5
39
330
5
100
AcDbSymbolTableRecord
100
AcDbLinetypeTableRecord
  2
DASHEDX2
 70
    0
  3
Dashed (2x) ____  ____  ____  ____  ____  ___
 72
   65
 73
    2
 40
38.09999999999999
 49
25.4
 74
    0
 49
-12.7
 74
    0
  0
LTYPE
  5
3A
330
5
100
AcDbSymbolTableRecord
100
AcDbLinetypeTableRecord
  2
DASHDOT
 70
    0
  3
Dash dot __ . __ . __ . __ . __ . __ . __ . __
 72
   65
 73
    4
 40
25.4
 49
12.7
 74
    0
 49
-6.35
 74
    0
 49
0
 74
    0
 49
-6.35
 74
    0
  0
LTYPE
  5
3B
330
5
100
AcDbSymbolTableRecord
100
AcDbLinetypeTableRecord
  2
DASHDOTTINY
 70
    0
  3
Dash dot (.15x) _._._._._._._._._._._._._._._.
 72
   65
 73
    4
 40
3.81
 49
1.905
 74
    0
 49
-0.9525
 74
    0
 49
0
 74
    0
 49
-0.9525
 74
    0
  0
LTYPE
  5
3C
330
5
100
AcDbSymbolTableRecord
100
AcDbLinetypeTableRecord
  2
DASHDOT2
 70
    0
  3
Dash dot (.5x) _._._._._._._._._._._._._._._.
 72
   65
 73
    4
 40
12.7
 49
6.35
 74
    0
 49
-3.175
 74
    0
 49
0
 74
    0
 49
-3.175
 74
    0
  0
LTYPE
  5
3D
330
5
100
AcDbSymbolTableRecord
100
AcDbLinetypeTableRecord
  2
DASHDOTX2
 70
    0
  3
Dash dot (2x) ____  .  ____  .  ____  .  ___
 72
   65
 73
    4
 40
50.8
 49
25.4
 74
    0
 49
-12.7
 74
    0
 49
0
 74
    0
 49
-12.7
 74
    0
  0
LTYPE
  5
3E
330
5
100
AcDbSymbolTableRecord
100
AcDbLinetypeTableRecord
  2
DIVIDE
 70
    0
  3
Divide ____ . . ____ . . ____ . . ____ . . ____
 72
   65
 73
    6
 40
31.75
 49
12.7
 74
    0
 49
-6.35
 74
    0
 49
0
 74
    0
 49
-6.35
 74
    0
 49
0
 74
    0
 49
-6.35
 74
    0
  0
LTYPE
  5
3F
330
5
100
AcDbSymbolTableRecord
100
AcDbLinetypeTableRecord
  2
DIVIDETINY
 70
    0
  3
Divide (.15x) __..__..__..__..__..__..__..__.._
 72
   65
 73
    6
 40
4.7625
 49
1.905
 74
    0
 49
-0.9525
 74
    0
 49
0
 74
    0
 49
-0.9525
 74
    0
 49
0
 74
    0
 49
-0.9525
 74
    0
  0
LTYPE
  5
40
330
5
100
AcDbSymbolTableRecord
100
AcDbLinetypeTableRecord
  2
DIVIDE2
 70
    0
  3
Divide (.5x) __..__..__..__..__..__..__..__.._
 72
   65
 73
    6
 40
15.875
 49
6.35
 74
    0
 49
-3.175
 74
    0
 49
0
 74
    0
 49
-3.175
 74
    0
 49
0
 74
    0
 49
-3.175
 74
    0
  0
LTYPE
  5
41
330
5
100
AcDbSymbolTableRecord
100
AcDbLinetypeTableRecord
  2
DIVIDEX2
 70
    0
  3
Divide (2x) ________  .  .  ________  .  .  _
 72
   65
 73
    6
 40
63.5
 49
25.4
 74
    0
 49
-12.7
 74
    0
 49
0
 74
    0
 49
-12.7
 74
    0
 49
0
 74
    0
 49
-12.7
 74
    0
  0
LTYPE
  5
42
330
5
100
AcDbSymbolTableRecord
100
AcDbLinetypeTableRecord
  2
BORDER
 70
    0
  3
Border __ __ . __ __ . __ __ . __ __ . __ __ .
 72
   65
 73
    6
 40
44.45
 49
12.7
 74
    0
 49
-6.35
 74
    0
 49
12.7
 74
    0
 49
-6.35
 74
    0
 49
0
 74
    0
 49
-6.35
 74
    0
  0
LTYPE
  5
43
330
5
100
AcDbSymbolTableRecord
100
AcDbLinetypeTableRecord
  2
BORDERTINY
 70
    0
  3
Border (.15x) __.__.__.__.__.__.__.__.__.__.__.
 72
   65
 73
    6
 40
6.6675
 49
1.905
 74
    0
 49
-0.9525
 74
    0
 49
1.905
 74
    0
 49
-0.9525
 74
    0
 49
0
 74
    0
 49
-0.9525
 74
    0
  0
LTYPE
  5
44
330
5
100
AcDbSymbolTableRecord
100
AcDbLinetypeTableRecord
  2
BORDER2
 70
    0
  3
Border (.5x) __.__.__.__.__.__.__.__.__.__.__.
 72
   65
 73
    6
 40
22.225
 49
6.35
 74
    0
 49
-3.175
 74
    0
 49
6.35
 74
    0
 49
-3.175
 74
    0
 49
0
 74
    0
 49
-3.175
 74
    0
  0
LTYPE
  5
45
330
5
100
AcDbSymbolTableRecord
100
AcDbLinetypeTableRecord
  2
BORDERX2
 70
    0
  3
Border (2x) ____  ____  .  ____  ____  .  ___
 72
   65
 73
    6
 40
88.89999999999999
 49
25.4
 74
    0
 49
-12.7
 74
    0
 49
25.4
 74
    0
 49
-12.7
 74
    0
 49
0
 74
    0
 49
-12.7
 74
    0
  0
LTYPE
  5
46
330
5
100
AcDbSymbolTableRecord
100
AcDbLinetypeTableRecord
  2
CENTER
 70
    0
  3
Center ____ _ ____ _ ____ _ ____ _ ____ _ ____
 72
   65
 73
    4
 40
50.8
 49
31.75
 74
    0
 49
-6.35
 74
    0
 49
6.35
 74
    0
 49
-6.35
 74
    0
  0
LTYPE
  5
47
330
5
100
AcDbSymbolTableRecord
100
AcDbLinetypeTableRecord
  2
CENTERTINY
 70
    0
  3
Center (.15x) ___ _ ___ _ ___ _ ___ _ ___ _ ___
 72
   65
 73
    4
 40
7.619999999999999
 49
4.7625
 74
    0
 49
-0.9525
 74
    0
 49
0.9525
 74
    0
 49
-0.9525
 74
    0
  0
LTYPE
  5
48
330
5
100
AcDbSymbolTableRecord
100
AcDbLinetypeTableRecord
  2
CENTER2
 70
    0
  3
Center (.5x) ___ _ ___ _ ___ _ ___ _ ___ _ ___
 72
   65
 73
    4
 40
28.575
 49
19.05
 74
    0
 49
-3.175
 74
    0
 49
3.175
 74
    0
 49
-3.175
 74
    0
  0
LTYPE
  5
49
330
5
100
AcDbSymbolTableRecord
100
AcDbLinetypeTableRecord
  2
CENTERX2
 70
    0
  3
Center (2x) ________  __  ________  __  _____
 72
   65
 73
    4
 40
101.6
 49
63.5
 74
    0
 49
-12.7
 74
    0
 49
12.7
 74
    0
 49
-12.7
 74
    0
  0
ENDTAB
  0
TABLE
  2
LAYER
  5
2
330
0
100
AcDbSymbolTable
 70
    1
  0
LAYER
  5
10
330
2
100
AcDbSymbolTableRecord
100
AcDbLayerTableRecord
  2
0
 70
    0
 62
    7
  6
CONTINUOUS
370
   50
390
F
  0
LAYER
  5
4A
330
2
100
AcDbSymbolTableRecord
100
AcDbLayerTableRecord
  2
base
 70
    0
 62
    7
  6
CENTER
370
    0
390
F
  0
LAYER
  5
4B
330
2
100
AcDbSymbolTableRecord
100
AcDbLayerTableRecord
  2
dim
 70
    0
 62
    7
  6
CONTINUOUS
370
   -3
390
F
  0
ENDTAB
  0
TABLE
  2
STYLE
  5
3
330
0
100
AcDbSymbolTable
 70
    3
  0
STYLE
  5
4C
330
2
100
AcDbSymbolTableRecord
100
AcDbTextStyleTableRecord
  2
Standard
 70
    0
 40
0
 41
1
 50
0
 71
    0
 42
1
  3
txt
  4

  0
ENDTAB
  0
TABLE
  2
VIEW
  5
6
330
0
100
AcDbSymbolTable
 70
    0
  0
ENDTAB
  0
TABLE
  2
UCS
  5
7
330
0
100
AcDbSymbolTable
 70
    0
  0
ENDTAB
  0
TABLE
  2
APPID
  5
9
330
0
100
AcDbSymbolTable
 70
    1
  0
APPID
  5
12
330
9
100
AcDbSymbolTableRecord
100
AcDbRegAppTableRecord
  2
ACAD
 70
    0
  0
APPID
  5
4D
330
9
100
AcDbSymbolTableRecord
100
AcDbRegAppTableRecord
  2
LibreCad
 70
    0
  0
ENDTAB
  0
TABLE
  2
DIMSTYLE
  5
A
330
0
100
AcDbSymbolTable
 70
    1
100
AcDbDimStyleTable
 71
    1
  0
DIMSTYLE
105
4E
330
A
100
AcDbSymbolTableRecord
100
AcDbDimStyleTableRecord
  2
Standard
 70
    0
 40
1
 41
2.5
 42
0.625
 43
0.38
 44
1.25
 45
0
 46
0
 47
0
 48
0
140
2.5
141
0.09
142
0
143
25.4
144
1
145
0
146
1
147
0.625
148
0
 71
    0
 72
    0
 73
    0
 74
    1
 75
    0
 76
    0
 77
    0
 78
    0
 79
    0
170
    0
171
    2
172
    0
173
    0
174
    0
175
    0
176
    0
177
    0
178
    0
179
    0
271
    4
272
    4
273
    2
274
    2
275
    0
276
    0
277
    2
278
   46
279
    0
280
    0
281
    0
282
    0
283
    1
284
    0
285
    0
286
    0
288
    0
289
    3
340
Standard
341

371
   -2
372
   -2
  0
ENDTAB
  0
TABLE
  2
BLOCK_RECORD
  5
1
330
0
100
AcDbSymbolTable
 70
    2
  0
BLOCK_RECORD
  5
1F
330
1
100
AcDbSymbolTableRecord
100
AcDbBlockTableRecord
  2
*Model_Space
 70
    0
280
    1
281
    0
  0
BLOCK_RECORD
  5
1E
330
1
100
AcDbSymbolTableRecord
100
AcDbBlockTableRecord
  2
*Paper_Space
 70
    0
280
    1
281
    0
  0
BLOCK_RECORD
  5
4F
330
1
100
AcDbSymbolTableRecord
100
AcDbBlockTableRecord
  2
*D12
 70
    0
280
    1
281
    0
  0
BLOCK_RECORD
  5
52
330
1
100
AcDbSymbolTableRecord
100
AcDbBlockTableRecord
  2
*D19
 70
    0
280
    1
281
    0
  0
BLOCK_RECORD
  5
55
330
1
100
AcDbSymbolTableRecord
100
AcDbBlockTableRecord
  2
*D17
 70
    0
280
    1
281
    0
  0
BLOCK_RECORD
  5
58
330
1
100
AcDbSymbolTableRecord
100
AcDbBlockTableRecord
  2
*D16
 70
    0
280
    1
281
    0
  0
BLOCK_RECORD
  5
5B
330
1
100
AcDbSymbolTableRecord
100
AcDbBlockTableRecord
  2
*D3
 70
    0
280
    1
281
    0
  0
BLOCK_RECORD
  5
5E
330
1
100
AcDbSymbolTableRecord
100
AcDbBlockTableRecord
  2
*D5
 70
    0
280
    1
281
    0
  0
BLOCK_RECORD
  5
61
330
1
100
AcDbSymbolTableRecord
100
AcDbBlockTableRecord
  2
*D13
 70
    0
280
    1
281
    0
  0
BLOCK_RECORD
  5
64
330
1
100
AcDbSymbolTableRecord
100
AcDbBlockTableRecord
  2
*D1
 70
    0
280
    1
281
    0
  0
BLOCK_RECORD
  5
67
330
1
100
AcDbSymbolTableRecord
100
AcDbBlockTableRecord
  2
*D23
 70
    0
280
    1
281
    0
  0
BLOCK_RECORD
  5
6A
330
1
100
AcDbSymbolTableRecord
100
AcDbBlockTableRecord
  2
*D7
 70
    0
280
    1
281
    0
  0
BLOCK_RECORD
  5
6D
330
1
100
AcDbSymbolTableRecord
100
AcDbBlockTableRecord
  2
*D2
 70
    0
280
    1
281
    0
  0
BLOCK_RECORD
  5
70
330
1
100
AcDbSymbolTableRecord
100
AcDbBlockTableRecord
  2
*D21
 70
    0
280
    1
281
    0
  0
BLOCK_RECORD
  5
73
330
1
100
AcDbSymbolTableRecord
100
AcDbBlockTableRecord
  2
*D18
 70
    0
280
    1
281
    0
  0
BLOCK_RECORD
  5
76
330
1
100
AcDbSymbolTableRecord
100
AcDbBlockTableRecord
  2
*D14
 70
    0
280
    1
281
    0
  0
BLOCK_RECORD
  5
79
330
1
100
AcDbSymbolTableRecord
100
AcDbBlockTableRecord
  2
*D22
 70
    0
280
    1
281
    0
  0
BLOCK_RECORD
  5
7C
330
1
100
AcDbSymbolTableRecord
100
AcDbBlockTableRecord
  2
*D6
 70
    0
280
    1
281
    0
  0
BLOCK_RECORD
  5
7F
330
1
100
AcDbSymbolTableRecord
100
AcDbBlockTableRecord
  2
*D11
 70
    0
280
    1
281
    0
  0
BLOCK_RECORD
  5
82
330
1
100
AcDbSymbolTableRecord
100
AcDbBlockTableRecord
  2
*D24
 70
    0
280
    1
281
    0
  0
BLOCK_RECORD
  5
85
330
1
100
AcDbSymbolTableRecord
100
AcDbBlockTableRecord
  2
*D20
 70
    0
280
    1
281
    0
  0
BLOCK_RECORD
  5
88
330
1
100
AcDbSymbolTableRecord
100
AcDbBlockTableRecord
  2
*D4
 70
    0
280
    1
281
    0
  0
BLOCK_RECORD
  5
8B
330
1
100
AcDbSymbolTableRecord
100
AcDbBlockTableRecord
  2
*D10
 70
    0
280
    1
281
    0
  0
BLOCK_RECORD
  5
8E
330
1
100
AcDbSymbolTableRecord
100
AcDbBlockTableRecord
  2
*D8
 70
    0
280
    1
281
    0
  0
BLOCK_RECORD
  5
91
330
1
100
AcDbSymbolTableRecord
100
AcDbBlockTableRecord
  2
*D9
 70
    0
280
    1
281
    0
  0
BLOCK_RECORD
  5
94
330
1
100
AcDbSymbolTableRecord
100
AcDbBlockTableRecord
  2
*D15
 70
    0
280
    1
281
    0
  0
BLOCK_RECORD
  5
97
330
1
100
AcDbSymbolTableRecord
100
AcDbBlockTableRecord
  2
part15_block
 70
    0
280
    1
281
    0
  0
ENDTAB
  0
ENDSEC
  0
SECTION
  2
BLOCKS
  0
BLOCK
  5
20
330
1F
100
AcDbEntity
  8
0
100
AcDbBlockBegin
  2
*Model_Space
 70
    0
 10
0
 20
0
 30
0
  3
*Model_Space
  1

  0
ENDBLK
  5
21
330
1F
100
AcDbEntity
  8
0
100
AcDbBlockEnd
  0
BLOCK
  5
1C
330
1B
100
AcDbEntity
  8
0
100
AcDbBlockBegin
  2
*Paper_Space
 70
    0
 10
0
 20
0
 30
0
  3
*Paper_Space
  1

  0
ENDBLK
  5
1D
330
1F
100
AcDbEntity
  8
0
100
AcDbBlockEnd
  0
BLOCK
  5
50
330
4F
100
AcDbEntity
  8
0
100
AcDbBlockBegin
  2
*D12
 70
    1
 10
0
 20
0
  3
*D12
  1

  0
LINE
  5
9A
100
AcDbEntity
  8
dim
  6
ByBlock
 62
    0
370
   -2
100
AcDbLine
 10
25.3335585626141
 20
-17.55548047898419
 11
37.6664414373859
 21
-13.44451952101581
  0
SOLID
  5
9B
100
AcDbEntity
  8
dim
  6
ByBlock
 62
    0
370
   -2
100
AcDbTrace
 10
30.0769750529
 20
-15.974341649
 30
0
 11
27.83690757510331
 21
-17.15983336605864
 31
0
 12
27.57362604041079
 22
-16.36998876192555
 32
0
 13
27.57362604041079
 23
-16.36998876192555
 33
0
  0
SOLID
  5
9C
100
AcDbEntity
  8
dim
  6
ByBlock
 62
    0
370
   -2
100
AcDbTrace
 10
32.9230249471
 20
-15.025658351
 30
0
 11
35.16309242489668
 21
-13.84016663394136
 31
0
 12
35.42637395958921
 22
-14.63001123807445
 32
0
 13
35.42637395958921
 23
-14.63001123807445
 33
0
  0
MTEXT
  5
9D
100
AcDbEntity
  8
dim
  6
CONTINUOUS
 62
    0
370
   -2
100
AcDbMText
 10
34.63592534635572
 20
-12.47826801373544
 30
0
 40
2.5
 41
3.611111111111267
 71
    5
 72
    1
  1
 %%C3
  7
standard
210
0
220
0
230
1
 50
18.43494882171411
 73
    2
 44
1
  0
ENDBLK
  5
51
330
4F
100
AcDbEntity
  8
0
100
AcDbBlockEnd
  0
BLOCK
  5
53
330
52
100
AcDbEntity
  8
0
100
AcDbBlockBegin
  2
*D19
 70
    1
 10
0
 20
0
  3
*D19
  1

  0
LINE
  5
9E
100
AcDbEntity
  8
dim
  6
ByBlock
 62
    0
370
   -2
100
AcDbLine
 10
-2.82842712475
 20
-2.82842712475
 11
2.82842712475
 21
2.82842712475
  0
SOLID
  5
9F
100
AcDbEntity
  8
dim
  6
ByBlock
 62
    0
370
   -2
100
AcDbTrace
 10
-2.82842712475
 20
-2.82842712475
 30
0
 11
-1.355017876198728
 21
-0.7663024673685346
 31
0
 12
-0.7663024673685346
 22
-1.355017876198728
 32
0
 13
-0.7663024673685346
 23
-1.355017876198728
 33
0
  0
SOLID
  5
A0
100
AcDbEntity
  8
dim
  6
ByBlock
 62
    0
370
   -2
100
AcDbTrace
 10
2.82842712475
 20
2.82842712475
 30
0
 11
1.355017876198728
 21
0.7663024673685346
 31
0
 12
0.7663024673685346
 22
1.355017876198728
 32
0
 13
0.7663024673685346
 23
1.355017876198728
 33
0
  0
MTEXT
  5
A1
100
AcDbEntity
  8
dim
  6
CONTINUOUS
 62
    0
370
   -2
100
AcDbMText
 10
4.89082190321554
 20
7.542472332655539
 30
0
 40
2.5
 41
8.333333333333334
 71
    5
 72
    1
  1
%%C8.00
  7
standard
210
0
220
0
230
1
 50
45
 73
    2
 44
1
  0
ENDBLK
  5
54
330
52
100
AcDbEntity
  8
0
100
AcDbBlockEnd
  0
BLOCK
  5
56
330
55
100
AcDbEntity
  8
0
100
AcDbBlockBegin
  2
*D17
 70
    1
 10
0
 20
0
  3
*D17
  1

  0
LINE
  5
A2
100
AcDbEntity
  8
dim
  6
ByBlock
 62
    0
370
   -2
100
AcDbLine
 10
-4.265161647085287
 20
26.40493589395287
 11
4.265161647085287
 21
16.59506410604713
  0
SOLID
  5
A3
100
AcDbEntity
  8
dim
  6
ByBlock
 62
    0
370
   -2
100
AcDbTrace
 10
-0.984268072387
 20
22.6319082832
 30
0
 11
-2.93884556127809
 21
24.24526495678996
 31
0
 12
-2.310584158194195
 22
24.79157922036291
 32
0
 13
-2.310584158194195
 23
24.79157922036291
 33
0
  0
SOLID
  5
A4
100
AcDbEntity
  8
dim
  6
ByBlock
 62
    0
370
   -2
100
AcDbTrace
 10
0.984268072387
 20
20.3680917168
 30
0
 11
2.93884556127809
 21
18.75473504321004
 31
0
 12
2.310584158194196
 22
18.20842077963709
 32
0
 13
2.310584158194196
 23
18.20842077963709
 33
0
  0
MTEXT
  5
A5
100
AcDbEntity
  8
dim
  6
CONTINUOUS
 62
    0
370
   -2
100
AcDbMText
 10
5.543343102199574
 20
17.98260868032844
 30
0
 40
2.5
 41
8.333333333333488
 71
    5
 72
    1
  1
%%C3.00
  7
standard
210
0
220
0
230
1
 50
311.0090869026993
 73
    2
 44
1
  0
ENDBLK
  5
57
330
55
100
AcDbEntity
  8
0
100
AcDbBlockEnd
  0
BLOCK
  5
59
330
58
100
AcDbEntity
  8
0
100
AcDbBlockBegin
  2
*D16
 70
    1
 10
0
 20
0
  3
*D16
  1

  0
LINE
  5
A6
100
AcDbEntity
  8
dim
  6
ByBlock
 62
    0
370
   -2
100
AcDbLine
 10
4.999999999999999
 20
21.5
 11
5
 21
36.5
  0
SOLID
  5
A7
100
AcDbEntity
  8
dim
  6
ByBlock
 62
    0
370
   -2
100
AcDbTrace
 10
4.999999999999999
 20
21.5
 30
0
 11
4.583715342227159
 21
24
 31
0
 12
5.41628465777284
 22
24
 32
0
 13
5.41628465777284
 23
24
 33
0
  0
SOLID
  5
A8
100
AcDbEntity
  8
dim
  6
ByBlock
 62
    0
370
   -2
100
AcDbTrace
 10
5
 20
36.5
 30
0
 11
5.416284657772841
 21
34
 31
0
 12
4.583715342227159
 22
34
 32
0
 13
4.583715342227159
 23
34
 33
0
  0
MTEXT
  5
A9
100
AcDbEntity
  8
dim
  6
CONTINUOUS
 62
    0
370
   -2
100
AcDbMText
 10
3.125
 20
29
 30
0
 40
2.5
 41
7.222222222222378
 71
    5
 72
    1
  1
15.00
  7
standard
210
0
220
0
230
1
 50
270
 73
    2
 44
1
  0
LINE
  5
AA
100
AcDbEntity
  8
dim
  6
ByBlock
 62
    0
370
   -2
100
AcDbLine
 10
0.625
 20
21.5
 11
6.249999999999999
 21
21.5
  0
LINE
  5
AB
100
AcDbEntity
  8
dim
  6
ByBlock
 62
    0
370
   -2
100
AcDbLine
 10
-19.375
 20
36.5
 11
6.25
 21
36.5
  0
ENDBLK
  5
5A
330
58
100
AcDbEntity
  8
0
100
AcDbBlockEnd
  0
BLOCK
  5
5C
330
5B
100
AcDbEntity
  8
0
100
AcDbBlockBegin
  2
*D3
 70
    1
 10
0
 20
0
  3
*D3
  1

  0
LINE
  5
AC
100
AcDbEntity
  8
dim
  6
ByBlock
 62
    0
370
   -2
100
AcDbLine
 10
20
 20
-18.5
 11
20
 21
18.5
  0
SOLID
  5
AD
100
AcDbEntity
  8
dim
  6
ByBlock
 62
    0
370
   -2
100
AcDbTrace
 10
20
 20
-18.5
 30
0
 11
19.58371534222715
 21
-16
 31
0
 12
20.41628465777284
 22
-16
 32
0
 13
20.41628465777284
 23
-16
 33
0
  0
SOLID
  5
AE
100
AcDbEntity
  8
dim
  6
ByBlock
 62
    0
370
   -2
100
AcDbTrace
 10
20
 20
18.5
 30
0
 11
20.41628465777284
 21
16
 31
0
 12
19.58371534222716
 22
16
 32
0
 13
19.58371534222716
 23
16
 33
0
  0
MTEXT
  5
AF
100
AcDbEntity
  8
dim
  6
CONTINUOUS
 62
    0
370
   -2
100
AcDbMText
 10
18.125
 20
2.29613691342e-16
 30
0
 40
2.5
 41
7.777777777777933
 71
    5
 72
    1
  1
37.00
  7
standard
210
0
220
0
230
1
 50
270
 73
    2
 44
1
  0
LINE
  5
B0
100
AcDbEntity
  8
dim
  6
ByBlock
 62
    0
370
   -2
100
AcDbLine
 10
19.375
 20
-18.5
 11
18.75
 21
-18.5
  0
LINE
  5
B1
100
AcDbEntity
  8
dim
  6
ByBlock
 62
    0
370
   -2
100
AcDbLine
 10
19.375
 20
18.5
 11
18.75
 21
18.5
  0
ENDBLK
  5
5D
330
5B
100
AcDbEntity
  8
0
100
AcDbBlockEnd
  0
BLOCK
  5
5F
330
5E
100
AcDbEntity
  8
0
100
AcDbBlockBegin
  2
*D5
 70
    1
 10
0
 20
0
  3
*D5
  1

  0
LINE
  5
B2
100
AcDbEntity
  8
dim
  6
ByBlock
 62
    0
370
   -2
100
AcDbLine
 10
31.5
 20
-26.6594124048
 11
62.5
 21
-26.6594124048
  0
SOLID
  5
B3
100
AcDbEntity
  8
dim
  6
ByBlock
 62
    0
370
   -2
100
AcDbTrace
 10
31.5
 20
-26.6594124048
 30
0
 11
34
 21
-26.24312774702716
 31
0
 12
34
 22
-27.07569706257284
 32
0
 13
34
 23
-27.07569706257284
 33
0
  0
SOLID
  5
B4
100
AcDbEntity
  8
dim
  6
ByBlock
 62
    0
370
   -2
100
AcDbTrace
 10
62.5
 20
-26.6594124048
 30
0
 11
60
 21
-27.07569706257284
 31
0
 12
60
 22
-26.24312774702716
 32
0
 13
60
 23
-26.24312774702716
 33
0
  0
MTEXT
  5
B5
100
AcDbEntity
  8
dim
  6
CONTINUOUS
 62
    0
370
   -2
100
AcDbMText
 10
47
 20
-24.7844124048
 30
0
 40
2.5
 41
7.222222222222378
 71
    5
 72
    1
  1
31.00
  7
standard
210
0
220
0
230
1
 50
0
 73
    2
 44
1
  0
LINE
  5
B6
100
AcDbEntity
  8
dim
  6
ByBlock
 62
    0
370
   -2
100
AcDbLine
 10
31.5
 20
-16.125
 11
31.5
 21
-27.9094124048
  0
LINE
  5
B7
100
AcDbEntity
  8
dim
  6
ByBlock
 62
    0
370
   -2
100
AcDbLine
 10
62.5
 20
-16.125
 11
62.5
 21
-27.9094124048
  0
ENDBLK
  5
60
330
5E
100
AcDbEntity
  8
0
100
AcDbBlockEnd
  0
BLOCK
  5
62
330
61
100
AcDbEntity
  8
0
100
AcDbBlockBegin
  2
*D13
 70
    1
 10
0
 20
0
  3
*D13
  1

  0
LINE
  5
B8
100
AcDbEntity
  8
dim
  6
ByBlock
 62
    0
370
   -2
100
AcDbLine
 10
67.09619407773275
 20
-10.90380592226727
 11
57.90380592226725
 21
-20.09619407773273
  0
SOLID
  5
B9
100
AcDbEntity
  8
dim
  6
ByBlock
 62
    0
370
   -2
100
AcDbTrace
 10
63.5606601718
 20
-14.4393398282
 30
0
 11
65.03406942035127
 21
-12.37721517081854
 31
0
 12
65.62278482918147
 22
-12.96593057964873
 32
0
 13
65.62278482918147
 23
-12.96593057964873
 33
0
  0
SOLID
  5
BA
100
AcDbEntity
  8
dim
  6
ByBlock
 62
    0
370
   -2
100
AcDbTrace
 10
61.4393398282
 20
-16.5606601718
 30
0
 11
59.96593057964872
 21
-18.62278482918146
 31
0
 12
59.37721517081853
 22
-18.03406942035127
 32
0
 13
59.37721517081853
 23
-18.03406942035127
 33
0
  0
MTEXT
  5
BB
100
AcDbEntity
  8
dim
  6
CONTINUOUS
 62
    0
370
   -2
100
AcDbMText
 10
63.95349727248404
 20
-11.39485229811598
 30
0
 40
2.5
 41
3.611111111111267
 71
    5
 72
    1
  1
 %%C3
  7
standard
210
0
220
0
230
1
 50
44.9999999999999
 73
    2
 44
1
  0
ENDBLK
  5
63
330
61
100
AcDbEntity
  8
0
100
AcDbBlockEnd
  0
BLOCK
  5
65
330
64
100
AcDbEntity
  8
0
100
AcDbBlockBegin
  2
*D1
 70
    1
 10
0
 20
0
  3
*D1
  1

  0
LINE
  5
BC
100
AcDbEntity
  8
dim
  6
ByBlock
 62
    0
370
   -2
100
AcDbLine
 10
-30
 20
18.5
 11
-30
 21
-18.5
  0
SOLID
  5
BD
100
AcDbEntity
  8
dim
  6
ByBlock
 62
    0
370
   -2
100
AcDbTrace
 10
-30
 20
18.5
 30
0
 11
-29.58371534222715
 21
16
 31
0
 12
-30.41628465777284
 22
16
 32
0
 13
-30.41628465777284
 23
16
 33
0
  0
SOLID
  5
BE
100
AcDbEntity
  8
dim
  6
ByBlock
 62
    0
370
   -2
100
AcDbTrace
 10
-30
 20
-18.5
 30
0
 11
-30.41628465777284
 21
-16
 31
0
 12
-29.58371534222716
 22
-16
 32
0
 13
-29.58371534222716
 23
-16
 33
0
  0
MTEXT
  5
BF
100
AcDbEntity
  8
dim
  6
CONTINUOUS
 62
    0
370
   -2
100
AcDbMText
 10
-31.875
 20
2.29613691342e-16
 30
0
 40
2.5
 41
7.777777777777933
 71
    5
 72
    1
  1
37.00
  7
standard
210
0
220
0
230
1
 50
90
 73
    2
 44
1
  0
LINE
  5
C0
100
AcDbEntity
  8
dim
  6
ByBlock
 62
    0
370
   -2
100
AcDbLine
 10
-25.625
 20
18.5
 11
-31.25
 21
18.5
  0
LINE
  5
C1
100
AcDbEntity
  8
dim
  6
ByBlock
 62
    0
370
   -2
100
AcDbLine
 10
-25.625
 20
-18.5
 11
-31.25
 21
-18.5
  0
ENDBLK
  5
66
330
64
100
AcDbEntity
  8
0
100
AcDbBlockEnd
  0
BLOCK
  5
68
330
67
100
AcDbEntity
  8
0
100
AcDbBlockBegin
  2
*D23
 70
    1
 10
0
 20
0
  3
*D23
  1

  0
LINE
  5
C2
100
AcDbEntity
  8
dim
  6
ByBlock
 62
    0
370
   -2
100
AcDbLine
 10
80
 20
-12
 11
80
 21
-26
  0
SOLID
  5
C3
100
AcDbEntity
  8
dim
  6
ByBlock
 62
    0
370
   -2
100
AcDbTrace
 10
80
 20
-17
 30
0
 11
79.58371534222717
 21
-14.5
 31
0
 12
80.41628465777283
 22
-14.5
 32
0
 13
80.41628465777283
 23
-14.5
 33
0
  0
SOLID
  5
C4
100
AcDbEntity
  8
dim
  6
ByBlock
 62
    0
370
   -2
100
AcDbTrace
 10
80
 20
-21
 30
0
 11
80.41628465777283
 21
-23.5
 31
0
 12
79.58371534222717
 22
-23.5
 32
0
 13
79.58371534222717
 23
-23.5
 33
0
  0
MTEXT
  5
C5
100
AcDbEntity
  8
dim
  6
CONTINUOUS
 62
    0
370
   -2
100
AcDbMText
 10
78.125
 20
-13.31944444444444
 30
0
 40
2.5
 41
6.111111111111112
 71
    5
 72
    1
  1
4.00
  7
standard
210
0
220
0
230
1
 50
90
 73
    2
 44
1
  0
LINE
  5
C6
100
AcDbEntity
  8
dim
  6
ByBlock
 62
    0
370
   -2
100
AcDbLine
 10
68.625
 20
-17
 11
81.25
 21
-17
  0
LINE
  5
C7
100
AcDbEntity
  8
dim
  6
ByBlock
 62
    0
370
   -2
100
AcDbLine
 10
64.625
 20
-21
 11
81.25
 21
-21
  0
ENDBLK
  5
69
330
67
100
AcDbEntity
  8
0
100
AcDbBlockEnd
  0
BLOCK
  5
6B
330
6A
100
AcDbEntity
  8
0
100
AcDbBlockBegin
  2
*D7
 70
    1
 10
0
 20
0
  3
*D7
  1

  0
LINE
  5
C8
100
AcDbEntity
  8
dim
  6
ByBlock
 62
    0
370
   -2
100
AcDbLine
 10
-18
 20
-20
 11
-2
 21
-20
  0
SOLID
  5
C9
100
AcDbEntity
  8
dim
  6
ByBlock
 62
    0
370
   -2
100
AcDbTrace
 10
-13
 20
-20
 30
0
 11
-15.5
 21
-20.41628465777284
 31
0
 12
-15.5
 22
-19.58371534222716
 32
0
 13
-15.5
 23
-19.58371534222716
 33
0
  0
SOLID
  5
CA
100
AcDbEntity
  8
dim
  6
ByBlock
 62
    0
370
   -2
100
AcDbTrace
 10
-7
 20
-20
 30
0
 11
-4.5
 21
-19.58371534222716
 31
0
 12
-4.5
 22
-20.41628465777284
 32
0
 13
-4.5
 23
-20.41628465777284
 33
0
  0
MTEXT
  5
CB
100
AcDbEntity
  8
dim
  6
CONTINUOUS
 62
    0
370
   -2
100
AcDbMText
 10
-10
 20
-18.125
 30
0
 40
2.5
 41
5.833333333333488
 71
    5
 72
    1
  1
6.00
  7
standard
210
0
220
0
230
1
 50
0
 73
    2
 44
1
  0
LINE
  5
CC
100
AcDbEntity
  8
dim
  6
ByBlock
 62
    0
370
   -2
100
AcDbLine
 10
-13
 20
-29.375
 11
-13
 21
-18.75
  0
LINE
  5
CD
100
AcDbEntity
  8
dim
  6
ByBlock
 62
    0
370
   -2
100
AcDbLine
 10
-7
 20
-29.375
 11
-7
 21
-18.75
  0
ENDBLK
  5
6C
330
6A
100
AcDbEntity
  8
0
100
AcDbBlockEnd
  0
BLOCK
  5
6E
330
6D
100
AcDbEntity
  8
0
100
AcDbBlockBegin
  2
*D2
 70
    1
 10
0
 20
0
  3
*D2
  1

  0
LINE
  5
CE
100
AcDbEntity
  8
dim
  6
ByBlock
 62
    0
370
   -2
100
AcDbLine
 10
-39.99999999999999
 20
36.5
 11
-40
 21
-36.5
  0
SOLID
  5
CF
100
AcDbEntity
  8
dim
  6
ByBlock
 62
    0
370
   -2
100
AcDbTrace
 10
-39.99999999999999
 20
36.5
 30
0
 11
-39.58371534222715
 21
34
 31
0
 12
-40.41628465777283
 22
34
 32
0
 13
-40.41628465777283
 23
34
 33
0
  0
SOLID
  5
D0
100
AcDbEntity
  8
dim
  6
ByBlock
 62
    0
370
   -2
100
AcDbTrace
 10
-40
 20
-36.5
 30
0
 11
-40.41628465777284
 21
-34
 31
0
 12
-39.58371534222716
 22
-34
 32
0
 13
-39.58371534222716
 23
-34
 33
0
  0
MTEXT
  5
D1
100
AcDbEntity
  8
dim
  6
CONTINUOUS
 62
    0
370
   -2
100
AcDbMText
 10
-41.875
 20
2.29613691342e-16
 30
0
 40
2.5
 41
7.777777777777934
 71
    5
 72
    1
  1
73.00
  7
standard
210
0
220
0
230
1
 50
90
 73
    2
 44
1
  0
LINE
  5
D2
100
AcDbEntity
  8
dim
  6
ByBlock
 62
    0
370
   -2
100
AcDbLine
 10
-20.625
 20
36.5
 11
-41.24999999999999
 21
36.5
  0
LINE
  5
D3
100
AcDbEntity
  8
dim
  6
ByBlock
 62
    0
370
   -2
100
AcDbLine
 10
-20.625
 20
-36.5
 11
-41.25
 21
-36.5
  0
ENDBLK
  5
6F
330
6D
100
AcDbEntity
  8
0
100
AcDbBlockEnd
  0
BLOCK
  5
71
330
70
100
AcDbEntity
  8
0
100
AcDbBlockBegin
  2
*D21
 70
    1
 10
0
 20
0
  3
*D21
  1

  0
LINE
  5
D4
100
AcDbEntity
  8
dim
  6
ByBlock
 62
    0
370
   -2
100
AcDbLine
 10
25
 20
-48
 11
68
 21
-48
  0
SOLID
  5
D5
100
AcDbEntity
  8
dim
  6
ByBlock
 62
    0
370
   -2
100
AcDbTrace
 10
25
 20
-48
 30
0
 11
27.5
 21
-47.58371534222716
 31
0
 12
27.5
 22
-48.41628465777284
 32
0
 13
27.5
 23
-48.41628465777284
 33
0
  0
SOLID
  5
D6
100
AcDbEntity
  8
dim
  6
ByBlock
 62
    0
370
   -2
100
AcDbTrace
 10
68
 20
-48
 30
0
 11
65.5
 21
-48.41628465777284
 31
0
 12
65.5
 22
-47.58371534222716
 32
0
 13
65.5
 23
-47.58371534222716
 33
0
  0
MTEXT
  5
D7
100
AcDbEntity
  8
dim
  6
CONTINUOUS
 62
    0
370
   -2
100
AcDbMText
 10
46.5
 20
-46.125
 30
0
 40
2.5
 41
8.055555555555712
 71
    5
 72
    1
  1
43.00
  7
standard
210
0
220
0
230
1
 50
0
 73
    2
 44
1
  0
LINE
  5
D8
100
AcDbEntity
  8
dim
  6
ByBlock
 62
    0
370
   -2
100
AcDbLine
 10
25
 20
-21.625
 11
25
 21
-49.25
  0
LINE
  5
D9
100
AcDbEntity
  8
dim
  6
ByBlock
 62
    0
370
   -2
100
AcDbLine
 10
68
 20
-17.625
 11
68
 21
-49.25
  0
ENDBLK
  5
72
330
70
100
AcDbEntity
  8
0
100
AcDbBlockEnd
  0
BLOCK
  5
74
330
73
100
AcDbEntity
  8
0
100
AcDbBlockBegin
  2
*D18
 70
    1
 10
0
 20
0
  3
*D18
  1

  0
LINE
  5
DA
100
AcDbEntity
  8
dim
  6
ByBlock
 62
    0
370
   -2
100
AcDbLine
 10
-4.265161647085288
 20
-26.40493589395287
 11
4.265161647085288
 21
-16.59506410604713
  0
SOLID
  5
DB
100
AcDbEntity
  8
dim
  6
ByBlock
 62
    0
370
   -2
100
AcDbTrace
 10
-0.984268072387
 20
-22.6319082832
 30
0
 11
-2.310584158194196
 21
-24.79157922036291
 31
0
 12
-2.93884556127809
 22
-24.24526495678996
 32
0
 13
-2.93884556127809
 23
-24.24526495678996
 33
0
  0
SOLID
  5
DC
100
AcDbEntity
  8
dim
  6
ByBlock
 62
    0
370
   -2
100
AcDbTrace
 10
0.984268072387
 20
-20.3680917168
 30
0
 11
2.310584158194196
 21
-18.20842077963709
 31
0
 12
2.938845561278091
 22
-18.75473504321004
 32
0
 13
2.938845561278091
 23
-18.75473504321004
 33
0
  0
MTEXT
  5
DD
100
AcDbEntity
  8
dim
  6
CONTINUOUS
 62
    0
370
   -2
100
AcDbMText
 10
2.713572394079578
 20
-15.52193849932845
 30
0
 40
2.5
 41
8.333333333333488
 71
    5
 72
    1
  1
%%C3.00
  7
standard
210
0
220
0
230
1
 50
48.99091309730065
 73
    2
 44
1
  0
ENDBLK
  5
75
330
73
100
AcDbEntity
  8
0
100
AcDbBlockEnd
  0
BLOCK
  5
77
330
76
100
AcDbEntity
  8
0
100
AcDbBlockBegin
  2
*D14
 70
    1
 10
0
 20
0
  3
*D14
  1

  0
LINE
  5
DE
100
AcDbEntity
  8
dim
  6
ByBlock
 62
    0
370
   -2
100
AcDbLine
 10
7
 20
-27
 11
-7
 21
-27
  0
SOLID
  5
DF
100
AcDbEntity
  8
dim
  6
ByBlock
 62
    0
370
   -2
100
AcDbTrace
 10
7
 20
-27
 30
0
 11
4.5
 21
-27.41628465777284
 31
0
 12
4.5
 22
-26.58371534222716
 32
0
 13
4.5
 23
-26.58371534222716
 33
0
  0
SOLID
  5
E0
100
AcDbEntity
  8
dim
  6
ByBlock
 62
    0
370
   -2
100
AcDbTrace
 10
-7
 20
-27
 30
0
 11
-4.5
 21
-26.58371534222716
 31
0
 12
-4.5
 22
-27.41628465777284
 32
0
 13
-4.5
 23
-27.41628465777284
 33
0
  0
MTEXT
  5
E1
100
AcDbEntity
  8
dim
  6
CONTINUOUS
 62
    0
370
   -2
100
AcDbMText
 10
-1.66154999373e-15
 20
-25.125
 30
0
 40
2.5
 41
7.5
 71
    5
 72
    1
  1
14.00
  7
standard
210
0
220
0
230
1
 50
360
 73
    2
 44
1
  0
LINE
  5
E2
100
AcDbEntity
  8
dim
  6
ByBlock
 62
    0
370
   -2
100
AcDbLine
 10
7
 20
-29.375
 11
7
 21
-25.75
  0
LINE
  5
E3
100
AcDbEntity
  8
dim
  6
ByBlock
 62
    0
370
   -2
100
AcDbLine
 10
-7
 20
-29.375
 11
-7
 21
-25.75
  0
ENDBLK
  5
78
330
76
100
AcDbEntity
  8
0
100
AcDbBlockEnd
  0
BLOCK
  5
7A
330
79
100
AcDbEntity
  8
0
100
AcDbBlockBegin
  2
*D22
 70
    1
 10
0
 20
0
  3
*D22
  1

  0
LINE
  5
E4
100
AcDbEntity
  8
dim
  6
ByBlock
 62
    0
370
   -2
100
AcDbLine
 10
59
 20
-42
 11
73
 21
-42
  0
SOLID
  5
E5
100
AcDbEntity
  8
dim
  6
ByBlock
 62
    0
370
   -2
100
AcDbTrace
 10
64
 20
-42
 30
0
 11
61.5
 21
-42.41628465777284
 31
0
 12
61.5
 22
-41.58371534222716
 32
0
 13
61.5
 23
-41.58371534222716
 33
0
  0
SOLID
  5
E6
100
AcDbEntity
  8
dim
  6
ByBlock
 62
    0
370
   -2
100
AcDbTrace
 10
68
 20
-42
 30
0
 11
70.5
 21
-41.58371534222716
 31
0
 12
70.5
 22
-42.41628465777284
 32
0
 13
70.5
 23
-42.41628465777284
 33
0
  0
MTEXT
  5
E7
100
AcDbEntity
  8
dim
  6
CONTINUOUS
 62
    0
370
   -2
100
AcDbMText
 10
71.68055555555556
 20
-40.125
 30
0
 40
2.5
 41
6.111111111111112
 71
    5
 72
    1
  1
4.00
  7
standard
210
0
220
0
230
1
 50
0
 73
    2
 44
1
  0
LINE
  5
E8
100
AcDbEntity
  8
dim
  6
ByBlock
 62
    0
370
   -2
100
AcDbLine
 10
64
 20
-21.625
 11
64
 21
-43.25
  0
LINE
  5
E9
100
AcDbEntity
  8
dim
  6
ByBlock
 62
    0
370
   -2
100
AcDbLine
 10
68
 20
-17.625
 11
68
 21
-43.25
  0
ENDBLK
  5
7B
330
79
100
AcDbEntity
  8
0
100
AcDbBlockEnd
  0
BLOCK
  5
7D
330
7C
100
AcDbEntity
  8
0
100
AcDbBlockBegin
  2
*D6
 70
    1
 10
0
 20
0
  3
*D6
  1

  0
LINE
  5
EA
100
AcDbEntity
  8
dim
  6
ByBlock
 62
    0
370
   -2
100
AcDbLine
 10
-30
 20
-30
 11
-30
 21
-36.5
  0
SOLID
  5
EB
100
AcDbEntity
  8
dim
  6
ByBlock
 62
    0
370
   -2
100
AcDbTrace
 10
-30
 20
-30
 30
0
 11
-29.58371534222716
 21
-32.5
 31
0
 12
-30.41628465777284
 22
-32.5
 32
0
 13
-30.41628465777284
 23
-32.5
 33
0
  0
SOLID
  5
EC
100
AcDbEntity
  8
dim
  6
ByBlock
 62
    0
370
   -2
100
AcDbTrace
 10
-30
 20
-36.5
 30
0
 11
-30.41628465777284
 21
-34
 31
0
 12
-29.58371534222716
 22
-34
 32
0
 13
-29.58371534222716
 23
-34
 33
0
  0
MTEXT
  5
ED
100
AcDbEntity
  8
dim
  6
CONTINUOUS
 62
    0
370
   -2
100
AcDbMText
 10
-31.875
 20
-33.25
 30
0
 40
2.5
 41
5.833333333333643
 71
    5
 72
    1
  1
6.50
  7
standard
210
0
220
0
230
1
 50
90
 73
    2
 44
1
  0
LINE
  5
EE
100
AcDbEntity
  8
dim
  6
ByBlock
 62
    0
370
   -2
100
AcDbLine
 10
-13.625
 20
-30
 11
-31.25
 21
-30
  0
LINE
  5
EF
100
AcDbEntity
  8
dim
  6
ByBlock
 62
    0
370
   -2
100
AcDbLine
 10
-13.625
 20
-36.5
 11
-31.25
 21
-36.5
  0
ENDBLK
  5
7E
330
7C
100
AcDbEntity
  8
0
100
AcDbBlockEnd
  0
BLOCK
  5
80
330
7F
100
AcDbEntity
  8
0
100
AcDbBlockBegin
  2
*D11
 70
    1
 10
0
 20
0
  3
*D11
  1

  0
LINE
  5
F0
100
AcDbEntity
  8
dim
  6
ByBlock
 62
    0
370
   -2
100
AcDbLine
 10
64.55548047898419
 20
9.333558562614101
 11
60.4445195210158
 21
21.6664414373859
  0
SOLID
  5
F1
100
AcDbEntity
  8
dim
  6
ByBlock
 62
    0
370
   -2
100
AcDbTrace
 10
62.974341649
 20
14.0769750529
 30
0
 11
64.15983336605865
 21
11.83690757510331
 31
0
 12
63.36998876192556
 22
11.57362604041079
 32
0
 13
63.36998876192556
 23
11.57362604041079
 33
0
  0
SOLID
  5
F2
100
AcDbEntity
  8
dim
  6
ByBlock
 62
    0
370
   -2
100
AcDbTrace
 10
62.025658351
 20
16.9230249471
 30
0
 11
60.84016663394136
 21
19.16309242489669
 31
0
 12
61.63001123807444
 22
19.42637395958921
 32
0
 13
61.63001123807444
 23
19.42637395958921
 33
0
  0
MTEXT
  5
F3
100
AcDbEntity
  8
dim
  6
CONTINUOUS
 62
    0
370
   -2
100
AcDbMText
 10
65.52173198626457
 20
12.36407465364428
 30
0
 40
2.5
 41
3.611111111111267
 71
    5
 72
    1
  1
 %%C3
  7
standard
210
0
220
0
230
1
 50
288.4349488217142
 73
    2
 44
1
  0
ENDBLK
  5
81
330
7F
100
AcDbEntity
  8
0
100
AcDbBlockEnd
  0
BLOCK
  5
83
330
82
100
AcDbEntity
  8
0
100
AcDbBlockBegin
  2
*D24
 70
    1
 10
0
 20
0
  3
*D24
  1

  0
LINE
  5
F4
100
AcDbEntity
  8
dim
  6
ByBlock
 62
    0
370
   -2
100
AcDbLine
 10
88
 20
21
 11
88
 21
-21
  0
SOLID
  5
F5
100
AcDbEntity
  8
dim
  6
ByBlock
 62
    0
370
   -2
100
AcDbTrace
 10
88
 20
21
 30
0
 11
88.41628465777283
 21
18.5
 31
0
 12
87.58371534222717
 22
18.5
 32
0
 13
87.58371534222717
 23
18.5
 33
0
  0
SOLID
  5
F6
100
AcDbEntity
  8
dim
  6
ByBlock
 62
    0
370
   -2
100
AcDbTrace
 10
88
 20
-21
 30
0
 11
87.58371534222717
 21
-18.5
 31
0
 12
88.41628465777283
 22
-18.5
 32
0
 13
88.41628465777283
 23
-18.5
 33
0
  0
MTEXT
  5
F7
100
AcDbEntity
  8
dim
  6
CONTINUOUS
 62
    0
370
   -2
100
AcDbMText
 10
86.125
 20
-1.546735564560122e-15
 30
0
 40
2.5
 41
8.055555555555557
 71
    5
 72
    1
  1
42.00
  7
standard
210
0
220
0
230
1
 50
90
 73
    2
 44
1
  0
LINE
  5
F8
100
AcDbEntity
  8
dim
  6
ByBlock
 62
    0
370
   -2
100
AcDbLine
 10
64.625
 20
21
 11
89.25
 21
21
  0
LINE
  5
F9
100
AcDbEntity
  8
dim
  6
ByBlock
 62
    0
370
   -2
100
AcDbLine
 10
64.625
 20
-21
 11
89.25
 21
-21
  0
ENDBLK
  5
84
330
82
100
AcDbEntity
  8
0
100
AcDbBlockEnd
  0
BLOCK
  5
86
330
85
100
AcDbEntity
  8
0
100
AcDbBlockBegin
  2
*D20
 70
    1
 10
0
 20
0
  3
*D20
  1

  0
LINE
  5
FA
100
AcDbEntity
  8
dim
  6
ByBlock
 62
    0
370
   -2
100
AcDbLine
 10
36.9122293812
 20
-4.38598722556
 11
57.0877706188
 21
4.38598722556
  0
SOLID
  5
FB
100
AcDbEntity
  8
dim
  6
ByBlock
 62
    0
370
   -2
100
AcDbTrace
 10
36.9122293812
 20
-4.38598722556
 30
0
 11
39.03892095899842
 21
-3.007409752503703
 31
0
 12
39.37088808466861
 22
-3.770934141546042
 32
0
 13
39.37088808466861
 23
-3.770934141546042
 33
0
  0
SOLID
  5
FC
100
AcDbEntity
  8
dim
  6
ByBlock
 62
    0
370
   -2
100
AcDbTrace
 10
57.0877706188
 20
4.38598722556
 30
0
 11
54.96107904100158
 21
3.007409752503703
 31
0
 12
54.62911191533139
 22
3.770934141546042
 32
0
 13
54.62911191533139
 23
3.770934141546042
 33
0
  0
MTEXT
  5
FD
100
AcDbEntity
  8
dim
  6
CONTINUOUS
 62
    0
370
   -2
100
AcDbMText
 10
46.2523885411
 20
1.71950635547
 30
0
 40
2.5
 41
10.27777777777778
 71
    5
 72
    1
  1
%%C22.00
  7
standard
210
0
220
0
230
1
 50
23.49856567592717
 73
    2
 44
1
  0
ENDBLK
  5
87
330
85
100
AcDbEntity
  8
0
100
AcDbBlockEnd
  0
BLOCK
  5
89
330
88
100
AcDbEntity
  8
0
100
AcDbBlockBegin
  2
*D4
 70
    1
 10
0
 20
0
  3
*D4
  1

  0
LINE
  5
FE
100
AcDbEntity
  8
dim
  6
ByBlock
 62
    0
370
   -2
100
AcDbLine
 10
74.2655059848
 20
15.5
 11
74.2655059848
 21
-15.5
  0
SOLID
  5
FF
100
AcDbEntity
  8
dim
  6
ByBlock
 62
    0
370
   -2
100
AcDbTrace
 10
74.2655059848
 20
15.5
 30
0
 11
74.68179064257284
 21
13
 31
0
 12
73.84922132702717
 22
13
 32
0
 13
73.84922132702717
 23
13
 33
0
  0
SOLID
  5
100
100
AcDbEntity
  8
dim
  6
ByBlock
 62
    0
370
   -2
100
AcDbTrace
 10
74.2655059848
 20
-15.5
 30
0
 11
73.84922132702717
 21
-13
 31
0
 12
74.68179064257284
 22
-13
 32
0
 13
74.68179064257284
 23
-13
 33
0
  0
MTEXT
  5
101
100
AcDbEntity
  8
dim
  6
CONTINUOUS
 62
    0
370
   -2
100
AcDbMText
 10
72.3905059848
 20
-4.21127840716e-15
 30
0
 40
2.5
 41
7.222222222222378
 71
    5
 72
    1
  1
31.00
  7
standard
210
0
220
0
230
1
 50
90
 73
    2
 44
1
  0
LINE
  5
102
100
AcDbEntity
  8
dim
  6
ByBlock
 62
    0
370
   -2
100
AcDbLine
 10
63.125
 20
15.5
 11
75.5155059848
 21
15.5
  0
LINE
  5
103
100
AcDbEntity
  8
dim
  6
ByBlock
 62
    0
370
   -2
100
AcDbLine
 10
63.125
 20
-15.5
 11
75.5155059848
 21
-15.5
  0
ENDBLK
  5
8A
330
88
100
AcDbEntity
  8
0
100
AcDbBlockEnd
  0
BLOCK
  5
8C
330
8B
100
AcDbEntity
  8
0
100
AcDbBlockBegin
  2
*D10
 70
    1
 10
0
 20
0
  3
*D10
  1

  0
LINE
  5
104
100
AcDbEntity
  8
dim
  6
ByBlock
 62
    0
370
   -2
100
AcDbLine
 10
25.1262256080454
 20
14.22524512160908
 11
37.8737743919546
 21
16.77475487839092
  0
SOLID
  5
105
100
AcDbEntity
  8
dim
  6
ByBlock
 62
    0
370
   -2
100
AcDbTrace
 10
30.0291289865
 20
15.2058257973
 30
0
 11
27.65931743547243
 21
14.30733476845588
 31
0
 12
27.49603715907297
 22
15.12373615045319
 32
0
 13
27.49603715907297
 23
15.12373615045319
 33
0
  0
SOLID
  5
106
100
AcDbEntity
  8
dim
  6
ByBlock
 62
    0
370
   -2
100
AcDbTrace
 10
32.9708710135
 20
15.7941742027
 30
0
 11
35.34068256452757
 21
16.69266523154412
 31
0
 12
35.50396284092703
 22
15.8762638495468
 32
0
 13
35.50396284092703
 23
15.8762638495468
 33
0
  0
MTEXT
  5
107
100
AcDbEntity
  8
dim
  6
CONTINUOUS
 62
    0
370
   -2
100
AcDbMText
 10
34.98650906907106
 20
18.10943413139421
 30
0
 40
2.5
 41
3.611111111111267
 71
    5
 72
    1
  1
 %%C3
  7
standard
210
0
220
0
230
1
 50
11.3099324740202
 73
    2
 44
1
  0
ENDBLK
  5
8D
330
8B
100
AcDbEntity
  8
0
100
AcDbBlockEnd
  0
BLOCK
  5
8F
330
8E
100
AcDbEntity
  8
0
100
AcDbBlockBegin
  2
*D8
 70
    1
 10
0
 20
0
  3
*D8
  1

  0
LINE
  5
108
100
AcDbEntity
  8
dim
  6
ByBlock
 62
    0
370
   -2
100
AcDbLine
 10
-20
 20
-42
 11
20
 21
-42
  0
SOLID
  5
109
100
AcDbEntity
  8
dim
  6
ByBlock
 62
    0
370
   -2
100
AcDbTrace
 10
-20
 20
-42
 30
0
 11
-17.5
 21
-41.58371534222716
 31
0
 12
-17.5
 22
-42.41628465777284
 32
0
 13
-17.5
 23
-42.41628465777284
 33
0
  0
SOLID
  5
10A
100
AcDbEntity
  8
dim
  6
ByBlock
 62
    0
370
   -2
100
AcDbTrace
 10
20
 20
-42
 30
0
 11
17.5
 21
-42.41628465777284
 31
0
 12
17.5
 22
-41.58371534222716
 32
0
 13
17.5
 23
-41.58371534222716
 33
0
  0
MTEXT
  5
10B
100
AcDbEntity
  8
dim
  6
CONTINUOUS
 62
    0
370
   -2
100
AcDbMText
 10
-3.43790683313e-15
 20
-40.125
 30
0
 40
2.5
 41
8.055555555555557
 71
    5
 72
    1
  1
40.00
  7
standard
210
0
220
0
230
1
 50
0
 73
    2
 44
1
  0
LINE
  5
10C
100
AcDbEntity
  8
dim
  6
ByBlock
 62
    0
370
   -2
100
AcDbLine
 10
-20
 20
-37.125
 11
-20
 21
-43.25
  0
LINE
  5
10D
100
AcDbEntity
  8
dim
  6
ByBlock
 62
    0
370
   -2
100
AcDbLine
 10
20
 20
-37.125
 11
20
 21
-43.25
  0
ENDBLK
  5
90
330
8E
100
AcDbEntity
  8
0
100
AcDbBlockEnd
  0
BLOCK
  5
92
330
91
100
AcDbEntity
  8
0
100
AcDbBlockBegin
  2
*D9
 70
    1
 10
0
 20
0
  3
*D9
  1

  0
LINE
  5
10E
100
AcDbEntity
  8
dim
  6
ByBlock
 62
    0
370
   -2
100
AcDbLine
 10
-25
 20
-48
 11
25
 21
-48
  0
SOLID
  5
10F
100
AcDbEntity
  8
dim
  6
ByBlock
 62
    0
370
   -2
100
AcDbTrace
 10
-25
 20
-48
 30
0
 11
-22.5
 21
-47.58371534222716
 31
0
 12
-22.5
 22
-48.41628465777284
 32
0
 13
-22.5
 23
-48.41628465777284
 33
0
  0
SOLID
  5
110
100
AcDbEntity
  8
dim
  6
ByBlock
 62
    0
370
   -2
100
AcDbTrace
 10
25
 20
-48
 30
0
 11
22.5
 21
-48.41628465777284
 31
0
 12
22.5
 22
-47.58371534222716
 32
0
 13
22.5
 23
-47.58371534222716
 33
0
  0
MTEXT
  5
111
100
AcDbEntity
  8
dim
  6
CONTINUOUS
 62
    0
370
   -2
100
AcDbMText
 10
-1.66154999373e-15
 20
-46.125
 30
0
 40
2.5
 41
7.777777777777933
 71
    5
 72
    1
  1
50.00
  7
standard
210
0
220
0
230
1
 50
0
 73
    2
 44
1
  0
LINE
  5
112
100
AcDbEntity
  8
dim
  6
ByBlock
 62
    0
370
   -2
100
AcDbLine
 10
-25
 20
-19.125
 11
-25
 21
-49.25
  0
LINE
  5
113
100
AcDbEntity
  8
dim
  6
ByBlock
 62
    0
370
   -2
100
AcDbLine
 10
25
 20
-19.125
 11
25
 21
-49.25
  0
ENDBLK
  5
93
330
91
100
AcDbEntity
  8
0
100
AcDbBlockEnd
  0
BLOCK
  5
95
330
94
100
AcDbEntity
  8
0
100
AcDbBlockBegin
  2
*D15
 70
    1
 10
0
 20
0
  3
*D15
  1

  0
LINE
  5
114
100
AcDbEntity
  8
dim
  6
ByBlock
 62
    0
370
   -2
100
AcDbLine
 10
18
 20
-21.5
 11
18
 21
-36.5
  0
SOLID
  5
115
100
AcDbEntity
  8
dim
  6
ByBlock
 62
    0
370
   -2
100
AcDbTrace
 10
18
 20
-21.5
 30
0
 11
18.41628465777284
 21
-24
 31
0
 12
17.58371534222716
 22
-24
 32
0
 13
17.58371534222716
 23
-24
 33
0
  0
SOLID
  5
116
100
AcDbEntity
  8
dim
  6
ByBlock
 62
    0
370
   -2
100
AcDbTrace
 10
18
 20
-36.5
 30
0
 11
17.58371534222716
 21
-34
 31
0
 12
18.41628465777284
 22
-34
 32
0
 13
18.41628465777284
 23
-34
 33
0
  0
MTEXT
  5
117
100
AcDbEntity
  8
dim
  6
CONTINUOUS
 62
    0
370
   -2
100
AcDbMText
 10
16.125
 20
-29
 30
0
 40
2.5
 41
7.222222222222378
 71
    5
 72
    1
  1
15.00
  7
standard
210
0
220
0
230
1
 50
90
 73
    2
 44
1
  0
LINE
  5
118
100
AcDbEntity
  8
dim
  6
ByBlock
 62
    0
370
   -2
100
AcDbLine
 10
0.625
 20
-21.5
 11
19.25
 21
-21.5
  0
LINE
  5
119
100
AcDbEntity
  8
dim
  6
ByBlock
 62
    0
370
   -2
100
AcDbLine
 10
19.375
 20
-36.5
 11
16.75
 21
-36.5
  0
ENDBLK
  5
96
330
94
100
AcDbEntity
  8
0
100
AcDbBlockEnd
  0
BLOCK
  5
98
330
97
100
AcDbEntity
  8
0
100
AcDbBlockBegin
  2
part15_block
 70
    0
 10
0
 20
0
  3
part15_block
  1

  0
LINE
  5
11A
100
AcDbEntity
  8
0
  6
ByLayer
 62
  256
370
   -1
100
AcDbLine
 10
-13
 20
-30
 11
-7
 21
-30
  0
LINE
  5
11B
100
AcDbEntity
  8
0
  6
ByLayer
 62
  256
370
   -1
100
AcDbLine
 10
-7
 20
-30
 11
-7
 21
-36.5
  0
LINE
  5
11C
100
AcDbEntity
  8
0
  6
ByLayer
 62
  256
370
   -1
100
AcDbLine
 10
-7
 20
-36.5
 11
7
 21
-36.5
  0
LINE
  5
11D
100
AcDbEntity
  8
0
  6
ByLayer
 62
  256
370
   -1
100
AcDbLine
 10
7
 20
-36.5
 11
7
 21
-30
  0
LINE
  5
11E
100
AcDbEntity
  8
0
  6
ByLayer
 62
  256
370
   -1
100
AcDbLine
 10
7
 20
-30
 11
13
 21
-30
  0
LINE
  5
11F
100
AcDbEntity
  8
0
  6
ByLayer
 62
  256
370
   -1
100
AcDbLine
 10
13
 20
-30
 11
13
 21
-36.5
  0
LINE
  5
120
100
AcDbEntity
  8
0
  6
ByLayer
 62
  256
370
   -1
100
AcDbLine
 10
13
 20
-36.5
 11
20
 21
-36.5
  0
LINE
  5
121
100
AcDbEntity
  8
0
  6
ByLayer
 62
  256
370
   -1
100
AcDbLine
 10
20
 20
-36.5
 11
20
 21
-18.5
  0
LINE
  5
122
100
AcDbEntity
  8
0
  6
ByLayer
 62
  256
370
   -1
100
AcDbLine
 10
20
 20
-18.5
 11
25
 21
-18.5
  0
LINE
  5
123
100
AcDbEntity
  8
0
  6
ByLayer
 62
  256
370
   -1
100
AcDbLine
 10
25
 20
-18.5
 11
25
 21
-21
  0
LINE
  5
124
100
AcDbEntity
  8
0
  6
ByLayer
 62
  256
370
   -1
100
AcDbLine
 10
25
 20
-21
 11
64
 21
-21
  0
LINE
  5
125
100
AcDbEntity
  8
0
  6
ByLayer
 62
  256
370
   -1
100
AcDbLine
 10
64
 20
-21
 11
68
 21
-17
  0
LINE
  5
126
100
AcDbEntity
  8
0
  6
ByLayer
 62
  256
370
   -1
100
AcDbLine
 10
68
 20
-17
 11
68
 21
17
  0
LINE
  5
127
100
AcDbEntity
  8
0
  6
ByLayer
 62
  256
370
   -1
100
AcDbLine
 10
68
 20
17
 11
64
 21
21
  0
LINE
  5
128
100
AcDbEntity
  8
0
  6
ByLayer
 62
  256
370
   -1
100
AcDbLine
 10
64
 20
21
 11
25
 21
21
  0
LINE
  5
129
100
AcDbEntity
  8
0
  6
ByLayer
 62
  256
370
   -1
100
AcDbLine
 10
25
 20
21
 11
25
 21
18.5
  0
LINE
  5
12A
100
AcDbEntity
  8
0
  6
ByLayer
 62
  256
370
   -1
100
AcDbLine
 10
25
 20
18.5
 11
20
 21
18.5
  0
LINE
  5
12B
100
AcDbEntity
  8
0
  6
ByLayer
 62
  256
370
   -1
100
AcDbLine
 10
20
 20
18.5
 11
20
 21
36.5
  0
LINE
  5
12C
100
AcDbEntity
  8
0
  6
ByLayer
 62
  256
370
   -1
100
AcDbLine
 10
20
 20
36.5
 11
13
 21
36.5
  0
LINE
  5
12D
100
AcDbEntity
  8
0
  6
ByLayer
 62
  256
370
   -1
100
AcDbLine
 10
13
 20
36.5
 11
13
 21
30
  0
LINE
  5
12E
100
AcDbEntity
  8
0
  6
ByLayer
 62
  256
370
   -1
100
AcDbLine
 10
13
 20
30
 11
7
 21
30
  0
LINE
  5
12F
100
AcDbEntity
  8
0
  6
ByLayer
 62
  256
370
   -1
100
AcDbLine
 10
7
 20
30
 11
7
 21
36.5
  0
LINE
  5
130
100
AcDbEntity
  8
0
  6
ByLayer
 62
  256
370
   -1
100
AcDbLine
 10
7
 20
36.5
 11
-7
 21
36.5
  0
LINE
  5
131
100
AcDbEntity
  8
0
  6
ByLayer
 62
  256
370
   -1
100
AcDbLine
 10
-7
 20
36.5
 11
-7
 21
30
  0
LINE
  5
132
100
AcDbEntity
  8
0
  6
ByLayer
 62
  256
370
   -1
100
AcDbLine
 10
-7
 20
30
 11
-13
 21
30
  0
LINE
  5
133
100
AcDbEntity
  8
0
  6
ByLayer
 62
  256
370
   -1
100
AcDbLine
 10
-13
 20
30
 11
-13
 21
36.5
  0
LINE
  5
134
100
AcDbEntity
  8
0
  6
ByLayer
 62
  256
370
   -1
100
AcDbLine
 10
-13
 20
36.5
 11
-20
 21
36.5
  0
LINE
  5
135
100
AcDbEntity
  8
0
  6
ByLayer
 62
  256
370
   -1
100
AcDbLine
 10
-20
 20
36.5
 11
-20
 21
18.5
  0
LINE
  5
136
100
AcDbEntity
  8
0
  6
ByLayer
 62
  256
370
   -1
100
AcDbLine
 10
-20
 20
18.5
 11
-25
 21
18.5
  0
LINE
  5
137
100
AcDbEntity
  8
0
  6
ByLayer
 62
  256
370
   -1
100
AcDbLine
 10
-25
 20
18.5
 11
-25
 21
-18.5
  0
LINE
  5
138
100
AcDbEntity
  8
0
  6
ByLayer
 62
  256
370
   -1
100
AcDbLine
 10
-25
 20
-18.5
 11
-20
 21
-18.5
  0
LINE
  5
139
100
AcDbEntity
  8
0
  6
ByLayer
 62
  256
370
   -1
100
AcDbLine
 10
-20
 20
-18.5
 11
-20
 21
-36.5
  0
LINE
  5
13A
100
AcDbEntity
  8
0
  6
ByLayer
 62
  256
370
   -1
100
AcDbLine
 10
-20
 20
-36.5
 11
-13
 21
-36.5
  0
LINE
  5
13B
100
AcDbEntity
  8
0
  6
ByLayer
 62
  256
370
   -1
100
AcDbLine
 10
-13
 20
-36.5
 11
-13
 21
-30
  0
CIRCLE
  5
13C
100
AcDbEntity
  8
0
  6
ByLayer
 62
  256
370
   -1
100
AcDbCircle
 10
0
 20
21.5
 40
1.500008560108907
  0
CIRCLE
  5
13D
100
AcDbEntity
  8
0
  6
ByLayer
 62
  256
370
   -1
100
AcDbCircle
 10
0
 20
0
 40
3.999984862733858
  0
CIRCLE
  5
13E
100
AcDbEntity
  8
0
  6
ByLayer
 62
  256
370
   -1
100
AcDbCircle
 10
47
 20
1.77635683940025e-15
 40
10.99997317397183
  0
CIRCLE
  5
13F
100
AcDbEntity
  8
0
  6
ByLayer
 62
  256
370
   -1
100
AcDbCircle
 10
1.713286066729047e-05
 20
-21.5
 40
1.499994699509094
  0
CIRCLE
  5
140
100
AcDbEntity
  8
0
  6
ByLayer
 62
  256
370
   -1
100
AcDbCircle
 10
31.5
 20
-15.4999889261295
 40
1.499985870753256
  0
CIRCLE
  5
141
100
AcDbEntity
  8
0
  6
ByLayer
 62
  256
370
   -1
100
AcDbCircle
 10
62.5
 20
-15.4999889261295
 40
1.499985870753258
  0
CIRCLE
  5
142
100
AcDbEntity
  8
0
  6
ByLayer
 62
  256
370
   -1
100
AcDbCircle
 10
62.5
 20
15.49998892612951
 40
1.499985870753258
  0
CIRCLE
  5
143
100
AcDbEntity
  8
0
  6
ByLayer
 62
  256
370
   -1
100
AcDbCircle
 10
31.5
 20
15.49998892612951
 40
1.499985870753258
  0
ENDBLK
  5
99
330
97
100
AcDbEntity
  8
0
100
AcDbBlockEnd
  0
ENDSEC
  0
SECTION
  2
ENTITIES
  0
LINE
  5
144
100
AcDbEntity
  8
base
  6
ByLayer
 62
  256
370
   -1
100
AcDbLine
 10
0
 20
40
 11
0
 21
-40
  0
LINE
  5
145
100
AcDbEntity
  8
base
  6
ByLayer
 62
  256
370
   -1
100
AcDbLine
 10
-30
 20
0
 11
70
 21
0
  0
LINE
  5
146
100
AcDbEntity
  8
base
  6
ByLayer
 62
  256
370
   -1
100
AcDbLine
 10
47
 20
12
 11
47
 21
-12
  0
LINE
  5
147
100
AcDbEntity
  8
base
  6
ByLayer
 62
  256
370
   -1
100
AcDbLine
 10
31.5
 20
15.5
 11
62.5
 21
15.5
  0
LINE
  5
148
100
AcDbEntity
  8
base
  6
ByLayer
 62
  256
370
   -1
100
AcDbLine
 10
62.5
 20
15.5
 11
62.5
 21
-15.5
  0
LINE
  5
149
100
AcDbEntity
  8
base
  6
ByLayer
 62
  256
370
   -1
100
AcDbLine
 10
62.5
 20
-15.5
 11
31.5
 21
-15.5
  0
LINE
  5
14A
100
AcDbEntity
  8
base
  6
ByLayer
 62
  256
370
   -1
100
AcDbLine
 10
31.5
 20
-15.5
 11
31.5
 21
15.5
  0
DIMENSION
  5
14B
100
AcDbEntity
  8
dim
  6
ByLayer
 62
  256
370
   -1
100
AcDbDimension
  2
*D1
 10
-30
 20
-18.5
 30
0
 11
-31.875
 21
2.29613691342e-16
 31
0
 70
   32
 71
    5
  3
Standard
 53
0
210
0
220
0
230
1
100
AcDbAlignedDimension
 13
-25
 23
18.5
 33
0
 14
-25
 24
-18.5
 34
0
 50
90
100
AcDbRotatedDimension
  0
DIMENSION
  5
14C
100
AcDbEntity
  8
dim
  6
ByLayer
 62
  256
370
   -1
100
AcDbDimension
  2
*D2
 10
-40
 20
-36.5
 30
0
 11
-41.875
 21
2.29613691342e-16
 31
0
 70
   32
 71
    5
  3
Standard
 53
0
210
0
220
0
230
1
100
AcDbAlignedDimension
 13
-20
 23
36.5
 33
0
 14
-20
 24
-36.5
 34
0
 50
90
100
AcDbRotatedDimension
  0
DIMENSION
  5
14D
100
AcDbEntity
  8
dim
  6
ByLayer
 62
  256
370
   -1
100
AcDbDimension
  2
*D3
 10
20
 20
18.5
 30
0
 11
18.125
 21
2.29613691342e-16
 31
0
 70
   32
 71
    5
  3
Standard
 53
0
210
0
220
0
230
1
100
AcDbAlignedDimension
 13
20
 23
-18.5
 33
0
 14
20
 24
18.5
 34
0
 50
90
100
AcDbRotatedDimension
  0
DIMENSION
  5
14E
100
AcDbEntity
  8
dim
  6
ByLayer
 62
  256
370
   -1
100
AcDbDimension
  2
*D4
 10
74.2655059848
 20
-15.5
 30
0
 11
72.3905059848
 21
-4.21127840716e-15
 31
0
 70
   32
 71
    5
  3
Standard
 53
0
210
0
220
0
230
1
100
AcDbAlignedDimension
 13
62.5
 23
15.5
 33
0
 14
62.5
 24
-15.5
 34
0
 50
90
100
AcDbRotatedDimension
  0
DIMENSION
  5
14F
100
AcDbEntity
  8
dim
  6
ByLayer
 62
  256
370
   -1
100
AcDbDimension
  2
*D5
 10
62.5
 20
-26.6594124048
 30
0
 11
47
 21
-24.7844124048
 31
0
 70
   32
 71
    5
  3
Standard
 53
0
210
0
220
0
230
1
100
AcDbAlignedDimension
 13
31.5
 23
-15.5
 33
0
 14
62.5
 24
-15.5
 34
0
100
AcDbRotatedDimension
  0
DIMENSION
  5
150
100
AcDbEntity
  8
dim
  6
ByLayer
 62
  256
370
   -1
100
AcDbDimension
  2
*D6
 10
-30
 20
-36.5
 30
0
 11
-31.875
 21
-33.25
 31
0
 70
   32
 71
    5
  3
Standard
 53
0
210
0
220
0
230
1
100
AcDbAlignedDimension
 13
-13
 23
-30
 33
0
 14
-13
 24
-36.5
 34
0
 50
90
100
AcDbRotatedDimension
  0
DIMENSION
  5
151
100
AcDbEntity
  8
dim
  6
ByLayer
 62
  256
370
   -1
100
AcDbDimension
  2
*D7
 10
-7
 20
-20
 30
0
 11
-10
 21
-18.125
 31
0
 70
   32
 71
    5
  3
Standard
 53
0
210
0
220
0
230
1
100
AcDbAlignedDimension
 13
-13
 23
-30
 33
0
 14
-7
 24
-30
 34
0
100
AcDbRotatedDimension
  0
DIMENSION
  5
152
100
AcDbEntity
  8
dim
  6
ByLayer
 62
  256
370
   -1
100
AcDbDimension
  2
*D8
 10
20
 20
-42
 30
0
 11
-3.43790683313e-15
 21
-40.125
 31
0
 70
   32
 71
    5
  3
Standard
 53
0
210
0
220
0
230
1
100
AcDbAlignedDimension
 13
-20
 23
-36.5
 33
0
 14
20
 24
-36.5
 34
0
100
AcDbRotatedDimension
  0
DIMENSION
  5
153
100
AcDbEntity
  8
dim
  6
ByLayer
 62
  256
370
   -1
100
AcDbDimension
  2
*D9
 10
25
 20
-48
 30
0
 11
-1.66154999373e-15
 21
-46.125
 31
0
 70
   32
 71
    5
  3
Standard
 53
0
210
0
220
0
230
1
100
AcDbAlignedDimension
 13
-25
 23
-18.5
 33
0
 14
25
 24
-18.5
 34
0
100
AcDbRotatedDimension
  0
DIMENSION
  5
154
100
AcDbEntity
  8
dim
  6
ByLayer
 62
  256
370
   -1
100
AcDbDimension
  2
*D10
 10
30.0291289865
 20
15.2058257973
 30
0
 11
31.1322822466
 21
17.3385887669
 31
0
 70
   35
  1
 %%C3
 71
    5
 72
    0
  3
Standard
 53
0
210
0
220
0
230
1
100
AcDbDiametricDimension
 15
32.9708710135
 25
15.7941742027
 35
0
 40
0
  0
DIMENSION
  5
155
100
AcDbEntity
  8
dim
  6
ByLayer
 62
  256
370
   -1
100
AcDbDimension
  2
*D11
 10
62.974341649
 20
14.0769750529
 30
0
 11
64.27878118380001
 21
16.0929270613
 31
0
 70
   35
  1
 %%C3
 71
    5
 72
    0
  3
Standard
 53
0
210
0
220
0
230
1
100
AcDbDiametricDimension
 15
62.025658351
 25
16.9230249471
 35
0
 40
0
  0
DIMENSION
  5
156
100
AcDbEntity
  8
dim
  6
ByLayer
 62
  256
370
   -1
100
AcDbDimension
  2
*D12
 10
30.0769750529
 20
-15.974341649
 30
0
 11
30.9070729387
 21
-13.7212188162
 31
0
 70
   35
  1
 %%C3
 71
    5
 72
    0
  3
Standard
 53
0
210
0
220
0
230
1
100
AcDbDiametricDimension
 15
32.9230249471
 25
-15.025658351
 35
0
 40
0
  0
DIMENSION
  5
157
100
AcDbEntity
  8
dim
  6
ByLayer
 62
  256
370
   -1
100
AcDbDimension
  2
*D13
 10
63.5606601718
 20
-14.4393398282
 30
0
 11
61.1741747853
 21
-14.1741747853
 31
0
 70
   35
  1
 %%C3
 71
    5
 72
    0
  3
Standard
 53
0
210
0
220
0
230
1
100
AcDbDiametricDimension
 15
61.4393398282
 25
-16.5606601718
 35
0
 40
0
  0
LINE
  5
158
100
AcDbEntity
  8
base
  6
ByLayer
 62
  256
370
   -1
100
AcDbLine
 10
7
 20
21.5
 11
-7
 21
21.5
  0
LINE
  5
159
100
AcDbEntity
  8
base
  6
ByLayer
 62
  256
370
   -1
100
AcDbLine
 10
-7
 20
-21.5
 11
7
 21
-21.5
  0
CIRCLE
  5
15A
100
AcDbEntity
  8
0
  6
ByLayer
 62
  256
370
   -1
100
AcDbCircle
 10
0
 20
21.5
 40
1.5
  0
CIRCLE
  5
15B
100
AcDbEntity
  8
0
  6
ByLayer
 62
  256
370
   -1
100
AcDbCircle
 10
0
 20
-21.5
 40
1.5
  0
DIMENSION
  5
15C
100
AcDbEntity
  8
dim
  6
ByLayer
 62
  256
370
   -1
100
AcDbDimension
  2
*D14
 10
-7
 20
-27
 30
0
 11
-1.66154999373e-15
 21
-25.125
 31
0
 70
   32
 71
    5
  3
Standard
 53
0
210
0
220
0
230
1
100
AcDbAlignedDimension
 13
7
 23
-30
 33
0
 14
-7
 24
-30
 34
0
100
AcDbRotatedDimension
  0
DIMENSION
  5
15D
100
AcDbEntity
  8
dim
  6
ByLayer
 62
  256
370
   -1
100
AcDbDimension
  2
*D15
 10
18
 20
-36.5
 30
0
 11
16.125
 21
-29
 31
0
 70
   32
 71
    5
  3
Standard
 53
0
210
0
220
0
230
1
100
AcDbAlignedDimension
 13
0
 23
-21.5
 33
0
 14
20
 24
-36.5
 34
0
 50
90
100
AcDbRotatedDimension
  0
DIMENSION
  5
15E
100
AcDbEntity
  8
dim
  6
ByLayer
 62
  256
370
   -1
100
AcDbDimension
  2
*D16
 10
5
 20
36.5
 30
0
 11
3.125
 21
29
 31
0
 70
   32
 71
    5
  3
Standard
 53
0
210
0
220
0
230
1
100
AcDbAlignedDimension
 13
0
 23
21.5
 33
0
 14
-20
 24
36.5
 34
0
 50
90
100
AcDbRotatedDimension
  0
DIMENSION
  5
15F
100
AcDbEntity
  8
dim
  6
ByLayer
 62
  256
370
   -1
100
AcDbDimension
  2
*D17
 10
-0.984268072387
 20
22.6319082832
 30
0
 11
1.41488535406
 21
22.7303350905
 31
0
 70
   35
  1
%%C<>
 71
    5
 72
    0
  3
Standard
 53
0
210
0
220
0
230
1
100
AcDbDiametricDimension
 15
0.984268072387
 25
20.3680917168
 35
0
 40
0
  0
DIMENSION
  5
160
100
AcDbEntity
  8
dim
  6
ByLayer
 62
  256
370
   -1
100
AcDbDimension
  2
*D18
 10
-0.984268072387
 20
-22.6319082832
 30
0
 11
-1.41488535406
 21
-20.2696649095
 31
0
 70
   35
  1
%%C<>
 71
    5
 72
    0
  3
Standard
 53
0
210
0
220
0
230
1
100
AcDbDiametricDimension
 15
0.984268072387
 25
-20.3680917168
 35
0
 40
0
  0
DIMENSION
  5
161
100
AcDbEntity
  8
dim
  6
ByLayer
 62
  256
370
   -1
100
AcDbDimension
  2
*D19
 10
-2.82842712475
 20
-2.82842712475
 30
0
 11
-1.32582521472
 21
1.32582521472
 31
0
 70
   35
  1
%%C<>
 71
    5
 72
    0
  3
Standard
 53
0
210
0
220
0
230
1
100
AcDbDiametricDimension
 15
2.82842712475
 25
2.82842712475
 35
0
 40
0
  0
DIMENSION
  5
162
100
AcDbEntity
  8
dim
  6
ByLayer
 62
  256
370
   -1
100
AcDbDimension
  2
*D20
 10
36.9122293812
 20
-4.38598722556
 30
0
 11
46.2523885411
 21
1.71950635547
 31
0
 70
   35
  1
%%C<>
 71
    5
 72
    0
  3
Standard
 53
0
210
0
220
0
230
1
100
AcDbDiametricDimension
 15
57.0877706188
 25
4.38598722556
 35
0
 40
0
  0
INSERT
  5
163
100
AcDbEntity
  8
0
  6
ByLayer
 62
  256
370
   -1
100
AcDbBlockReference
  2
part15_block
 10
0
 20
0
 30
0
 41
1
 42
1
 43
0
 50
0
 70
    1
 71
    1
 44
0
 45
0
  0
DIMENSION
  5
164
100
AcDbEntity
  8
dim
  6
ByLayer
 62
  256
370
   -1
100
AcDbDimension
  2
*D21
 10
68
 20
-48
 30
0
 11
46.5
 21
-46.125
 31
0
 70
   32
 71
    5
  3
Standard
 53
0
210
0
220
0
230
1
100
AcDbAlignedDimension
 13
25
 23
-21
 33
0
 14
68
 24
-17
 34
0
100
AcDbRotatedDimension
  0
DIMENSION
  5
165
100
AcDbEntity
  8
dim
  6
ByLayer
 62
  256
370
   -1
100
AcDbDimension
  2
*D22
 10
68
 20
-42
 30
0
 11
66
 21
-40.125
 31
0
 70
   32
 71
    5
  3
Standard
 53
0
210
0
220
0
230
1
100
AcDbAlignedDimension
 13
64
 23
-21
 33
0
 14
68
 24
-17
 34
0
100
AcDbRotatedDimension
  0
DIMENSION
  5
166
100
AcDbEntity
  8
dim
  6
ByLayer
 62
  256
370
   -1
100
AcDbDimension
  2
*D23
 10
80
 20
-21
 30
0
 11
78.125
 21
-19
 31
0
 70
   32
 71
    5
  3
Standard
 53
0
210
0
220
0
230
1
100
AcDbAlignedDimension
 13
68
 23
-17
 33
0
 14
64
 24
-21
 34
0
 50
90
100
AcDbRotatedDimension
  0
DIMENSION
  5
167
100
AcDbEntity
  8
dim
  6
ByLayer
 62
  256
370
   -1
100
AcDbDimension
  2
*D24
 10
88
 20
-21
 30
0
 11
86.125
 21
-1.546735564560122e-15
 31
0
 70
   32
 71
    5
  3
Standard
 53
0
210
0
220
0
230
1
100
AcDbAlignedDimension
 13
64
 23
21
 33
0
 14
64
 24
-21
 34
0
 50
90
100
AcDbRotatedDimension
  0
ENDSEC
  0
SECTION
  2
OBJECTS
  0
DICTIONARY
  5
C
330
0
100
AcDbDictionary
281
    1
  3
ACAD_GROUP
350
D
  0
DICTIONARY
  5
D
330
C
100
AcDbDictionary
281
    1
  0
ENDSEC
  0
EOF
