<?xml version="1.0" encoding="UTF-8" standalone="no"?>
<!-- Created with sK1/UniConvertor (http://sk1project.org/) -->

<svg
   xmlns:dc="http://purl.org/dc/elements/1.1/"
   xmlns:cc="http://creativecommons.org/ns#"
   xmlns:rdf="http://www.w3.org/1999/02/22-rdf-syntax-ns#"
   xmlns:svg="http://www.w3.org/2000/svg"
   xmlns="http://www.w3.org/2000/svg"
   xmlns:sodipodi="http://sodipodi.sourceforge.net/DTD/sodipodi-0.dtd"
   xmlns:inkscape="http://www.inkscape.org/namespaces/inkscape"
   width="595.276pt"
   height="841.89pt"
   viewBox="0 0 595.276 841.89"
   fill-rule="evenodd"
   id="svg3081"
   version="1.1"
   inkscape:version="0.48.3.1 r9886"
   sodipodi:docname="part01.svg">
  <metadata
     id="metadata3111">
    <rdf:RDF>
      <cc:Work
         rdf:about="">
        <dc:format>image/svg+xml</dc:format>
        <dc:type
           rdf:resource="http://purl.org/dc/dcmitype/StillImage" />
        <dc:title />
      </cc:Work>
    </rdf:RDF>
  </metadata>
  <sodipodi:namedview
     pagecolor="#ffffff"
     bordercolor="#666666"
     borderopacity="1"
     objecttolerance="10"
     gridtolerance="10"
     guidetolerance="10"
     inkscape:pageopacity="0"
     inkscape:pageshadow="2"
     inkscape:window-width="1017"
     inkscape:window-height="872"
     id="namedview3109"
     showgrid="false"
     inkscape:zoom="0.63429547"
     inkscape:cx="62.970568"
     inkscape:cy="564.13717"
     inkscape:window-x="72"
     inkscape:window-y="24"
     inkscape:window-maximized="0"
     inkscape:current-layer="svg3081" />
  <defs
     id="defs3083">
    <marker
       id="ArrowEnd"
       viewBox="0 0 10 10"
       refX="0"
       refY="5"
       markerUnits="strokeWidth"
       markerWidth="4"
       markerHeight="3"
       orient="auto">
      <path
         d="M 0 0 L 10 5 L 0 10 z"
         id="path3086" />
    </marker>
    <marker
       id="ArrowStart"
       viewBox="0 0 10 10"
       refX="10"
       refY="5"
       markerUnits="strokeWidth"
       markerWidth="4"
       markerHeight="3"
       orient="auto">
      <path
         d="M 10 0 L 0 5 L 10 10 z"
         id="path3089" />
    </marker>
  </defs>
  <path
     style="fill:#00ccff;stroke:#000000;stroke-width:1"
     d="m 21.762575,784.07574 c 5.8705,0 10.6313,4.7608 10.6313,10.6312 0,5.8704 -4.7608,10.6312 -10.6313,10.6312 -5.8704,0 -10.6312,-4.7608 -10.6312,-10.6312 0,-5.8704 4.7608,-10.6312 10.6312,-10.6312 z m 1.6066,25.3854 -2.825,3e-4 -0.0222,31.9286 -20.00825031,0 0,-46.7644 c -0.44623,-11.5884 10.05855031,-21.27562 21.31525031,-21.27562 11.7411,0 21.2625,9.52132 21.2625,21.26252 l -0.0528,46.7775 -19.6817,0 0.0122,-31.9289 z"
     id="path3095"
     inkscape:connector-curvature="0" />
</svg>
