<?xml version="1.0" encoding="UTF-8" standalone="no"?>
<!-- Created with sK1/UniConvertor (http://sk1project.org/) -->

<svg
   xmlns:dc="http://purl.org/dc/elements/1.1/"
   xmlns:cc="http://creativecommons.org/ns#"
   xmlns:rdf="http://www.w3.org/1999/02/22-rdf-syntax-ns#"
   xmlns:svg="http://www.w3.org/2000/svg"
   xmlns="http://www.w3.org/2000/svg"
   xmlns:sodipodi="http://sodipodi.sourceforge.net/DTD/sodipodi-0.dtd"
   xmlns:inkscape="http://www.inkscape.org/namespaces/inkscape"
   width="595.276pt"
   height="841.89pt"
   viewBox="0 0 595.276 841.89"
   fill-rule="evenodd"
   id="svg3259"
   version="1.1"
   inkscape:version="0.48.3.1 r9886"
   sodipodi:docname="part02.svg">
  <metadata
     id="metadata3285">
    <rdf:RDF>
      <cc:Work
         rdf:about="">
        <dc:format>image/svg+xml</dc:format>
        <dc:type
           rdf:resource="http://purl.org/dc/dcmitype/StillImage" />
        <dc:title />
      </cc:Work>
    </rdf:RDF>
  </metadata>
  <sodipodi:namedview
     pagecolor="#ffffff"
     bordercolor="#666666"
     borderopacity="1"
     objecttolerance="10"
     gridtolerance="10"
     guidetolerance="10"
     inkscape:pageopacity="0"
     inkscape:pageshadow="2"
     inkscape:window-width="653"
     inkscape:window-height="480"
     id="namedview3283"
     showgrid="false"
     inkscape:zoom="0.31714774"
     inkscape:cx="586.34798"
     inkscape:cy="723.63728"
     inkscape:window-x="65"
     inkscape:window-y="24"
     inkscape:window-maximized="0"
     inkscape:current-layer="svg3259" />
  <defs
     id="defs3261">
    <marker
       id="ArrowEnd"
       viewBox="0 0 10 10"
       refX="0"
       refY="5"
       markerUnits="strokeWidth"
       markerWidth="4"
       markerHeight="3"
       orient="auto">
      <path
         d="M 0 0 L 10 5 L 0 10 z"
         id="path3264" />
    </marker>
    <marker
       id="ArrowStart"
       viewBox="0 0 10 10"
       refX="10"
       refY="5"
       markerUnits="strokeWidth"
       markerWidth="4"
       markerHeight="3"
       orient="auto">
      <path
         d="M 10 0 L 0 5 L 10 10 z"
         id="path3267" />
    </marker>
  </defs>
  <path
     style="fill:#00ccff;stroke:#000000;stroke-width:1"
     d="m 28.8273,694.98304 c 5.8704,0 10.6312,4.761 10.6312,10.631 0,5.871 -4.7608,10.632 -10.6312,10.632 -5.8705,0 -10.6313,-4.761 -10.6313,-10.632 0,-5.87 4.7608,-10.631 10.6313,-10.631 z m 42.6072,-71.215 c 5.8704,0 10.6311,4.761 10.6311,10.631 0,5.871 -4.7607,10.632 -10.6311,10.632 -5.8704,0 -10.6313,-4.761 -10.6313,-10.632 0,-5.87 4.7609,-10.631 10.6313,-10.631 z m 10.7641,-11.478 6.54,11.264 c 8.204,13.427 -0.822,31.821 -17.3041,31.821 l -14.2317,0.059 -0.0014,129.242 -0.0015,56.714 -56.6999,0 0.0014,-56.714 0.0014,-129.15 c 0,-38.284 20.901,-73.6052 53.4763,-92.4125 l 67.9815,-39.2209 28.35,49.1039 -68.112,39.2935 z"
     id="path3279"
     inkscape:connector-curvature="0" />
</svg>
