<?xml version="1.0" encoding="UTF-8" standalone="no"?>
<!-- Created with sK1/UniConvertor (http://sk1project.org/) -->

<svg
   xmlns:dc="http://purl.org/dc/elements/1.1/"
   xmlns:cc="http://creativecommons.org/ns#"
   xmlns:rdf="http://www.w3.org/1999/02/22-rdf-syntax-ns#"
   xmlns:svg="http://www.w3.org/2000/svg"
   xmlns="http://www.w3.org/2000/svg"
   xmlns:sodipodi="http://sodipodi.sourceforge.net/DTD/sodipodi-0.dtd"
   xmlns:inkscape="http://www.inkscape.org/namespaces/inkscape"
   width="595.276pt"
   height="841.89pt"
   viewBox="0 0 595.276 841.89"
   fill-rule="evenodd"
   id="svg4177"
   version="1.1"
   inkscape:version="0.48.3.1 r9886"
   sodipodi:docname="part03.svg">
  <metadata
     id="metadata4203">
    <rdf:RDF>
      <cc:Work
         rdf:about="">
        <dc:format>image/svg+xml</dc:format>
        <dc:type
           rdf:resource="http://purl.org/dc/dcmitype/StillImage" />
        <dc:title />
      </cc:Work>
    </rdf:RDF>
  </metadata>
  <sodipodi:namedview
     pagecolor="#ffffff"
     bordercolor="#666666"
     borderopacity="1"
     objecttolerance="10"
     gridtolerance="10"
     guidetolerance="10"
     inkscape:pageopacity="0"
     inkscape:pageshadow="2"
     inkscape:window-width="1033"
     inkscape:window-height="732"
     id="namedview4201"
     showgrid="false"
     inkscape:zoom="0.89702926"
     inkscape:cx="264.78714"
     inkscape:cy="808.08919"
     inkscape:window-x="185"
     inkscape:window-y="194"
     inkscape:window-maximized="0"
     inkscape:current-layer="svg4177" />
  <defs
     id="defs4179">
    <marker
       id="ArrowEnd"
       viewBox="0 0 10 10"
       refX="0"
       refY="5"
       markerUnits="strokeWidth"
       markerWidth="4"
       markerHeight="3"
       orient="auto">
      <path
         d="M 0 0 L 10 5 L 0 10 z"
         id="path4182" />
    </marker>
    <marker
       id="ArrowStart"
       viewBox="0 0 10 10"
       refX="10"
       refY="5"
       markerUnits="strokeWidth"
       markerWidth="4"
       markerHeight="3"
       orient="auto">
      <path
         d="M 10 0 L 0 5 L 10 10 z"
         id="path4185" />
    </marker>
  </defs>
  <path
     style="fill:#00ccff;stroke:#000000;stroke-width:1"
     d="m 244.6144,813.89754 -47.293,27.4925 -3.869,-0.022 -18.208,-13.641 -57.763,0 -18.208,13.641 -4.661,0 -47.3582,-27.5862 -46.7542,-26.9931 25.515,-44.1931 47.0634,27.104 47.68,27.7076 50.454,0 47.684,-27.6526 47.299,-27.184 25.515,44.1931 -47.096,27.1338 z m -13.677,-32.4587 c 5.87,0 10.631,4.7605 10.631,10.6312 0,5.8705 -4.761,10.6313 -10.631,10.6313 -5.871,0 -10.631,-4.7608 -10.631,-10.6313 0,-5.8707 4.76,-10.6312 10.631,-10.6312 z m -170.0037,-0.0468 c 5.8707,0 10.6317,4.7605 10.6317,10.6312 0,5.8704 -4.761,10.6312 -10.6317,10.6312 -5.8708,0 -10.6313,-4.7608 -10.6313,-10.6312 0,-5.8707 4.7605,-10.6312 10.6313,-10.6312 z"
     id="path4191"
     inkscape:connector-curvature="0" />
</svg>
