999
dxfrw 0.5.10
0
SECTION
2
HEADER
9
$ACADVER
1
AC1021
9
$HANDSEED
5
20000
9
$DWGCODEPAGE
3
ANSI_1252
9
$INSBASE
10
0
20
0
30
0
9
$EXTMIN
10
10000000000
20
10000000000
30
0
9
$EXTMAX
10
-10000000000
20
-10000000000
30
0
9
$LIMMIN
10
0
20
0
9
$LIMMAX
10
420
20
297
9
$ORTHOMODE
70
0
9
$LTSCALE
40
1
9
$TEXTSTYLE
7
STANDARD
9
$DIMASZ
40
2.5
9
$DIMSCALE
40
1
9
$DIMEXO
40
0.625
9
$DIMEXE
40
1.25
9
$DIMTXT
40
2.5
9
$DIMTSZ
40
0
9
$DIMAUNIT
70
0
9
$DIMADEC
70
0
9
$DIMLUNIT
70
2
9
$DIMSTYLE
2
Standard
9
$DIMGAP
40
0.625
9
$DIMTIH
70
0
9
$LUNITS
70
2
9
$LUPREC
70
4
9
$AUNITS
70
0
9
$AUPREC
70
2
9
$SPLINESEGS
70
8
9
$SNAPSTYLE
70
0
9
$PINSBASE
10
0
20
0
30
0
9
$PLIMMIN
10
0
20
0
9
$PLIMMAX
10
210
20
297
9
$INSUNITS
70
0
9
$PSVPSCALE
40
1
0
ENDSEC
0
SECTION
2
CLASSES
0
ENDSEC
0
SECTION
2
TABLES
0
TABLE
2
VPORT
5
8
330
0
100
AcDbSymbolTable
70
1
0
VPORT
5
31
330
2
100
AcDbSymbolTableRecord
100
AcDbViewportTableRecord
2
*ACTIVE
70
0
10
0
20
0
11
1
21
1
12
43.29472
22
5.20192
13
0
23
0
14
10
24
10
15
10
25
10
16
0
26
0
36
1
17
0
27
0
37
0
40
76.92288
41
1.66879659212
42
50
43
0
44
0
50
0
51
0
71
0
72
100
73
1
74
3
75
0
76
1
77
0
78
0
281
0
65
1
110
0
120
0
130
0
111
1
121
0
131
0
112
0
122
1
132
0
79
0
146
0
348
10020
60
7
61
5
292
1
282
1
141
0
142
0
63
250
421
3358443
0
ENDTAB
0
TABLE
2
LTYPE
5
5
330
0
100
AcDbSymbolTable
70
4
0
LTYPE
5
14
330
5
100
AcDbSymbolTableRecord
100
AcDbLinetypeTableRecord
2
ByBlock
70
0
3

72
65
73
0
40
0
0
LTYPE
5
15
330
5
100
AcDbSymbolTableRecord
100
AcDbLinetypeTableRecord
2
ByLayer
70
0
3

72
65
73
0
40
0
0
LTYPE
5
16
330
5
100
AcDbSymbolTableRecord
100
AcDbLinetypeTableRecord
2
Continuous
70
0
3
Solid line
72
65
73
0
40
0
0
LTYPE
5
32
330
5
100
AcDbSymbolTableRecord
100
AcDbLinetypeTableRecord
2
DOT
70
0
3
Dot . . . . . . . . . . . . . . . . . . . . . .
72
65
73
2
40
6.35
49
0
74
0
49
-6.35
74
0
0
LTYPE
5
33
330
5
100
AcDbSymbolTableRecord
100
AcDbLinetypeTableRecord
2
DOT2
70
0
3
Dot (.5x) .....................................
72
65
73
2
40
3.175
49
0
74
0
49
-3.175
74
0
0
LTYPE
5
34
330
5
100
AcDbSymbolTableRecord
100
AcDbLinetypeTableRecord
2
DOTX2
70
0
3
Dot (2x) .  .  .  .  .  .  .  .  .  .  .  .  .
72
65
73
2
40
12.7
49
0
74
0
49
-12.7
74
0
0
LTYPE
5
35
330
5
100
AcDbSymbolTableRecord
100
AcDbLinetypeTableRecord
2
DASHED
70
0
3
Dot . . . . . . . . . . . . . . . . . . . . . .
72
65
73
2
40
19.05
49
12.7
74
0
49
-6.35
74
0
0
LTYPE
5
36
330
5
100
AcDbSymbolTableRecord
100
AcDbLinetypeTableRecord
2
DASHED2
70
0
3
Dashed (.5x) _ _ _ _ _ _ _ _ _ _ _ _ _ _ _ _ _
72
65
73
2
40
9.525
49
6.35
74
0
49
-3.175
74
0
0
LTYPE
5
37
330
5
100
AcDbSymbolTableRecord
100
AcDbLinetypeTableRecord
2
DASHEDX2
70
0
3
Dashed (2x) ____  ____  ____  ____  ____  ___
72
65
73
2
40
38.1
49
25.4
74
0
49
-12.7
74
0
0
LTYPE
5
38
330
5
100
AcDbSymbolTableRecord
100
AcDbLinetypeTableRecord
2
DASHDOT
70
0
3
Dash dot __ . __ . __ . __ . __ . __ . __ . __
72
65
73
4
40
25.4
49
12.7
74
0
49
-6.35
74
0
49
0
74
0
49
-6.35
74
0
0
LTYPE
5
39
330
5
100
AcDbSymbolTableRecord
100
AcDbLinetypeTableRecord
2
DASHDOT2
70
0
3
Dash dot (.5x) _._._._._._._._._._._._._._._.
72
65
73
4
40
12.7
49
6.35
74
0
49
-3.175
74
0
49
0
74
0
49
-3.175
74
0
0
LTYPE
5
3A
330
5
100
AcDbSymbolTableRecord
100
AcDbLinetypeTableRecord
2
DASHDOTX2
70
0
3
Dash dot (2x) ____  .  ____  .  ____  .  ___
72
65
73
4
40
50.8
49
25.4
74
0
49
-12.7
74
0
49
0
74
0
49
-12.7
74
0
0
LTYPE
5
3B
330
5
100
AcDbSymbolTableRecord
100
AcDbLinetypeTableRecord
2
DIVIDE
70
0
3
Divide ____ . . ____ . . ____ . . ____ . . ____
72
65
73
6
40
31.75
49
12.7
74
0
49
-6.35
74
0
49
0
74
0
49
-6.35
74
0
49
0
74
0
49
-6.35
74
0
0
LTYPE
5
3C
330
5
100
AcDbSymbolTableRecord
100
AcDbLinetypeTableRecord
2
DIVIDE2
70
0
3
Divide (.5x) __..__..__..__..__..__..__..__.._
72
65
73
6
40
15.875
49
6.35
74
0
49
-3.175
74
0
49
0
74
0
49
-3.175
74
0
49
0
74
0
49
-3.175
74
0
0
LTYPE
5
3D
330
5
100
AcDbSymbolTableRecord
100
AcDbLinetypeTableRecord
2
DIVIDEX2
70
0
3
Divide (2x) ________  .  .  ________  .  .  _
72
65
73
6
40
63.5
49
25.4
74
0
49
-12.7
74
0
49
0
74
0
49
-12.7
74
0
49
0
74
0
49
-12.7
74
0
0
LTYPE
5
3E
330
5
100
AcDbSymbolTableRecord
100
AcDbLinetypeTableRecord
2
BORDER
70
0
3
Border __ __ . __ __ . __ __ . __ __ . __ __ .
72
65
73
6
40
44.45
49
12.7
74
0
49
-6.35
74
0
49
12.7
74
0
49
-6.35
74
0
49
0
74
0
49
-6.35
74
0
0
LTYPE
5
3F
330
5
100
AcDbSymbolTableRecord
100
AcDbLinetypeTableRecord
2
BORDER2
70
0
3
Border (.5x) __.__.__.__.__.__.__.__.__.__.__.
72
65
73
6
40
22.225
49
6.35
74
0
49
-3.175
74
0
49
6.35
74
0
49
-3.175
74
0
49
0
74
0
49
-3.175
74
0
0
LTYPE
5
40
330
5
100
AcDbSymbolTableRecord
100
AcDbLinetypeTableRecord
2
BORDERX2
70
0
3
Border (2x) ____  ____  .  ____  ____  .  ___
72
65
73
6
40
88.9
49
25.4
74
0
49
-12.7
74
0
49
25.4
74
0
49
-12.7
74
0
49
0
74
0
49
-12.7
74
0
0
LTYPE
5
41
330
5
100
AcDbSymbolTableRecord
100
AcDbLinetypeTableRecord
2
CENTER
70
0
3
Center ____ _ ____ _ ____ _ ____ _ ____ _ ____
72
65
73
4
40
50.8
49
31.75
74
0
49
-6.35
74
0
49
6.35
74
0
49
-6.35
74
0
0
LTYPE
5
42
330
5
100
AcDbSymbolTableRecord
100
AcDbLinetypeTableRecord
2
CENTER2
70
0
3
Center (.5x) ___ _ ___ _ ___ _ ___ _ ___ _ ___
72
65
73
4
40
28.575
49
19.05
74
0
49
-3.175
74
0
49
3.175
74
0
49
-3.175
74
0
0
LTYPE
5
43
330
5
100
AcDbSymbolTableRecord
100
AcDbLinetypeTableRecord
2
CENTERX2
70
0
3
Center (2x) ________  __  ________  __  _____
72
65
73
4
40
101.6
49
63.5
74
0
49
-12.7
74
0
49
12.7
74
0
49
-12.7
74
0
0
ENDTAB
0
TABLE
2
LAYER
5
2
330
0
100
AcDbSymbolTable
70
1
0
LAYER
5
10
330
2
100
AcDbSymbolTableRecord
100
AcDbLayerTableRecord
2
0
70
0
62
7
6
CONTINUOUS
370
50
390
F
0
LAYER
5
44
330
2
100
AcDbSymbolTableRecord
100
AcDbLayerTableRecord
2
dim
70
0
62
7
6
CONTINUOUS
370
-3
390
F
0
LAYER
5
45
330
2
100
AcDbSymbolTableRecord
100
AcDbLayerTableRecord
2
base
70
0
62
7
6
CENTER
370
0
390
F
0
LAYER
5
46
330
2
100
AcDbSymbolTableRecord
100
AcDbLayerTableRecord
2
base2
70
0
62
7
6
DASHED
370
0
390
F
0
ENDTAB
0
TABLE
2
STYLE
5
3
330
0
100
AcDbSymbolTable
70
3
0
STYLE
5
47
330
2
100
AcDbSymbolTableRecord
100
AcDbTextStyleTableRecord
2
Standard
70
0
40
0
41
1
50
0
71
0
42
1
3
txt
4

0
ENDTAB
0
TABLE
2
VIEW
5
6
330
0
100
AcDbSymbolTable
70
0
0
ENDTAB
0
TABLE
2
UCS
5
7
330
0
100
AcDbSymbolTable
70
0
0
ENDTAB
0
TABLE
2
APPID
5
9
330
0
100
AcDbSymbolTable
70
1
0
APPID
5
12
330
9
100
AcDbSymbolTableRecord
100
AcDbRegAppTableRecord
2
ACAD
70
0
0
ENDTAB
0
TABLE
2
DIMSTYLE
5
A
330
0
100
AcDbSymbolTable
70
1
100
AcDbDimStyleTable
71
1
0
DIMSTYLE
105
48
330
A
100
AcDbSymbolTableRecord
100
AcDbDimStyleTableRecord
2
Standard
70
0
40
1
41
2.5
42
0.625
43
0.38
44
1.25
45
0
46
0
47
0
48
0
140
2.5
141
0.09
142
0
143
25.4
144
1
145
0
146
1
147
0.625
148
0
71
0
72
0
73
0
74
1
75
0
76
0
77
0
78
0
79
0
170
0
171
2
172
0
173
0
174
0
175
0
176
0
177
0
178
0
179
0
271
4
272
4
273
2
274
2
275
0
276
0
277
2
278
46
279
0
280
0
281
0
282
0
283
1
284
0
285
0
286
0
288
0
289
3
340
Standard
341

371
-2
372
-2
0
ENDTAB
0
TABLE
2
BLOCK_RECORD
5
1
330
0
100
AcDbSymbolTable
70
2
0
BLOCK_RECORD
5
1F
330
1
100
AcDbSymbolTableRecord
100
AcDbBlockTableRecord
2
*Model_Space
70
0
280
1
281
0
0
BLOCK_RECORD
5
1E
330
1
100
AcDbSymbolTableRecord
100
AcDbBlockTableRecord
2
*Paper_Space
70
0
280
1
281
0
0
BLOCK_RECORD
5
49
330
1
100
AcDbSymbolTableRecord
100
AcDbBlockTableRecord
2
CUT001008009046_PROJ
70
0
280
1
281
0
0
BLOCK_RECORD
5
4C
330
1
100
AcDbSymbolTableRecord
100
AcDbBlockTableRecord
2
CUT001008009046_PROJ001
70
0
280
1
281
0
0
BLOCK_RECORD
5
4F
330
1
100
AcDbSymbolTableRecord
100
AcDbBlockTableRecord
2
CUT001008009046_PROJ002
70
0
280
1
281
0
0
ENDTAB
0
ENDSEC
0
SECTION
2
BLOCKS
0
BLOCK
5
20
330
1F
100
AcDbEntity
8
0
100
AcDbBlockBegin
2
*Model_Space
70
0
10
0
20
0
30
0
3
*Model_Space
1

0
ENDBLK
5
21
330
1F
100
AcDbEntity
8
0
100
AcDbBlockEnd
0
BLOCK
5
1C
330
1B
100
AcDbEntity
8
0
100
AcDbBlockBegin
2
*Paper_Space
70
0
10
0
20
0
30
0
3
*Paper_Space
1

0
ENDBLK
5
1D
330
1F
100
AcDbEntity
8
0
100
AcDbBlockEnd
0
BLOCK
5
4A
330
49
100
AcDbEntity
8
0
100
AcDbBlockBegin
2
CUT001008009046_PROJ
70
0
10
0
20
0
3
CUT001008009046_PROJ
1

0
LINE
5
52
100
AcDbEntity
8
0
6
ByLayer
62
0
370
-1
100
AcDbLine
10
-9
20
-3
11
-9
21
-20
0
LINE
5
53
100
AcDbEntity
8
0
6
ByLayer
62
0
370
-1
100
AcDbLine
10
-14.5
20
-3
11
-9
21
-3
0
LINE
5
54
100
AcDbEntity
8
0
6
ByLayer
62
0
370
-1
100
AcDbLine
10
-9
20
-20
11
9
21
-20
0
LINE
5
55
100
AcDbEntity
8
0
6
ByLayer
62
0
370
-1
100
AcDbLine
10
9
20
-20
11
9
21
-3
0
LINE
5
56
100
AcDbEntity
8
0
6
ByLayer
62
0
370
-1
100
AcDbLine
10
9
20
-3
11
14.5
21
-3
0
LINE
5
57
100
AcDbEntity
8
0
6
ByLayer
62
0
370
-1
100
AcDbLine
10
14.5
20
-3
11
14.5
21
-6
0
LINE
5
58
100
AcDbEntity
8
0
6
ByLayer
62
0
370
-1
100
AcDbLine
10
14.5
20
-6
11
18
21
-6
0
LINE
5
59
100
AcDbEntity
8
0
6
ByLayer
62
0
370
-1
100
AcDbLine
10
18
20
-6
11
18
21
-3.5527136788e-15
0
LINE
5
5A
100
AcDbEntity
8
0
6
ByLayer
62
0
370
-1
100
AcDbLine
10
18
20
-3.5527136788e-15
11
-18
21
3.5527136788e-15
0
LINE
5
5B
100
AcDbEntity
8
0
6
ByLayer
62
0
370
-1
100
AcDbLine
10
-18
20
3.5527136788e-15
11
-18
21
-6
0
LINE
5
5C
100
AcDbEntity
8
0
6
ByLayer
62
0
370
-1
100
AcDbLine
10
-18
20
-6
11
-14.5
21
-6
0
LINE
5
5D
100
AcDbEntity
8
0
6
ByLayer
62
0
370
-1
100
AcDbLine
10
-14.5
20
-6
11
-14.5
21
-3
0
CIRCLE
5
5E
100
AcDbEntity
8
0
6
ByLayer
62
0
370
-1
100
AcDbCircle
10
-3.5527136788e-15
20
-12
40
5.75
0
LWPOLYLINE
5
5F
100
AcDbEntity
8
0
6
ByLayer
62
0
370
-1
100
AcDbPolyline
90
2
70
0
43
0
10
-13.2199792862
20
1.7763568394e-15
10
-11.7199792862
20
1.7763568394e-15
0
LWPOLYLINE
5
60
100
AcDbEntity
8
0
6
ByLayer
62
0
370
-1
100
AcDbPolyline
90
2
70
0
43
0
10
-11.7199792862
20
1.7763568394e-15
10
-10.2199792862
20
1.7763568394e-15
0
LWPOLYLINE
5
61
100
AcDbEntity
8
0
6
ByLayer
62
0
370
-1
100
AcDbPolyline
90
2
70
0
43
0
10
11.75
20
-1.7763568394e-15
10
13.25
20
-1.7763568394e-15
0
LWPOLYLINE
5
62
100
AcDbEntity
8
0
6
ByLayer
62
0
370
-1
100
AcDbPolyline
90
2
70
0
43
0
10
10.25
20
-1.7763568394e-15
10
11.75
20
-1.7763568394e-15
0
ENDBLK
5
4B
330
49
100
AcDbEntity
8
0
100
AcDbBlockEnd
0
BLOCK
5
4D
330
4C
100
AcDbEntity
8
0
100
AcDbBlockBegin
2
CUT001008009046_PROJ001
70
0
10
0
20
0
3
CUT001008009046_PROJ001
1

0
LINE
5
63
100
AcDbEntity
8
0
6
ByLayer
62
0
370
-1
100
AcDbLine
10
9
20
-20
11
-9
21
-20
0
LINE
5
64
100
AcDbEntity
8
0
6
ByLayer
62
0
370
-1
100
AcDbLine
10
9
20
-20
11
9
21
-6
0
LINE
5
65
100
AcDbEntity
8
0
6
ByLayer
62
0
370
-1
100
AcDbLine
10
9
20
-6
11
9
21
-5.5107285922e-16
0
LWPOLYLINE
5
66
100
AcDbEntity
8
0
6
ByLayer
62
0
370
-1
100
AcDbPolyline
90
2
70
0
43
0
10
9
20
-12
10
9
20
-6.25
0
LWPOLYLINE
5
67
100
AcDbEntity
8
0
6
ByLayer
62
0
370
-1
100
AcDbPolyline
90
2
70
0
43
0
10
9
20
-17.75
10
9
20
-12
0
LINE
5
68
100
AcDbEntity
8
0
6
ByLayer
62
0
370
-1
100
AcDbLine
10
-9
20
-20
11
-9
21
-6
0
LINE
5
69
100
AcDbEntity
8
0
6
ByLayer
62
0
370
-1
100
AcDbLine
10
-9
20
-6
11
-9
21
5.5107285922e-16
0
LWPOLYLINE
5
6A
100
AcDbEntity
8
0
6
ByLayer
62
0
370
-1
100
AcDbPolyline
90
2
70
0
43
0
10
4.0060052872
20
-2.45288976408e-16
10
5.5060052872
20
-3.37134452944e-16
0
LWPOLYLINE
5
6B
100
AcDbEntity
8
0
6
ByLayer
62
0
370
-1
100
AcDbPolyline
90
2
70
0
43
0
10
2.5060052872
20
-1.53443499871e-16
10
4.0060052872
20
-2.45288976408e-16
0
LINE
5
6C
100
AcDbEntity
8
0
6
ByLayer
62
0
370
-1
100
AcDbLine
10
9
20
-6
11
-9
21
-6
0
LINE
5
6D
100
AcDbEntity
8
0
6
ByLayer
62
0
370
-1
100
AcDbLine
10
9
20
-5.5107285922e-16
11
-9
21
5.5107285922e-16
0
LWPOLYLINE
5
6E
100
AcDbEntity
8
0
6
ByLayer
62
0
370
-1
100
AcDbPolyline
90
2
70
0
43
0
10
-5.5000019073
20
3.36766864086e-16
10
-4.0000019073
20
2.44921387549e-16
0
LWPOLYLINE
5
6F
100
AcDbEntity
8
0
6
ByLayer
62
0
370
-1
100
AcDbPolyline
90
2
70
0
43
0
10
-4.0000019073
20
2.44921387549e-16
10
-2.5000019073
20
1.53075911012e-16
0
ENDBLK
5
4E
330
4C
100
AcDbEntity
8
0
100
AcDbBlockEnd
0
BLOCK
5
50
330
4F
100
AcDbEntity
8
0
100
AcDbBlockBegin
2
CUT001008009046_PROJ002
70
0
10
0
20
0
3
CUT001008009046_PROJ002
1

0
LINE
5
70
100
AcDbEntity
8
0
6
ByLayer
62
0
370
-1
100
AcDbLine
10
18
20
0
11
-18
21
0
0
LINE
5
71
100
AcDbEntity
8
0
6
ByLayer
62
0
370
-1
100
AcDbLine
10
18
20
-18
11
-18
21
-18
0
LINE
5
72
100
AcDbEntity
8
0
6
ByLayer
62
0
370
-1
100
AcDbLine
10
18
20
0
11
18
21
-18
0
ARC
5
73
100
AcDbEntity
8
0
6
ByLayer
62
0
370
-1
100
AcDbCircle
10
11.75
20
-13.0000019073
40
1.5
100
AcDbArc
50
-90
51
0
0
ARC
5
74
100
AcDbEntity
8
0
6
ByLayer
62
0
370
-1
100
AcDbCircle
10
11.75
20
-13.0000019073
40
1.5
100
AcDbArc
50
0
51
-90
0
LINE
5
75
100
AcDbEntity
8
0
6
ByLayer
62
0
370
-1
100
AcDbLine
10
-18
20
0
11
-18
21
-18
0
ARC
5
76
100
AcDbEntity
8
0
6
ByLayer
62
0
370
-1
100
AcDbCircle
10
-11.75
20
-5
40
1.5
100
AcDbArc
50
0
51
-90
0
ARC
5
77
100
AcDbEntity
8
0
6
ByLayer
62
0
370
-1
100
AcDbCircle
10
-11.75
20
-5
40
1.5
100
AcDbArc
50
-90
51
0
0
ENDBLK
5
51
330
4F
100
AcDbEntity
8
0
100
AcDbBlockEnd
0
ENDSEC
0
SECTION
2
ENTITIES
0
INSERT
5
78
100
AcDbEntity
8
0
6
ByLayer
62
256
370
-1
100
AcDbBlockReference
2
CUT001008009046_PROJ
10
0
20
0
30
0
41
1
42
1
43
0
50
0
70
1
71
1
44
0
45
0
0
INSERT
5
79
100
AcDbEntity
8
0
6
ByLayer
62
256
370
-1
100
AcDbBlockReference
2
CUT001008009046_PROJ002
10
0
20
-50
30
0
41
1
42
1
43
0
50
0
70
1
71
1
44
0
45
0
0
INSERT
5
7A
100
AcDbEntity
8
0
6
ByLayer
62
256
370
-1
100
AcDbBlockReference
2
CUT001008009046_PROJ001
10
70
20
0
30
0
41
1
42
1
43
0
50
0
70
1
71
1
44
0
45
0
0
LINE
5
7B
100
AcDbEntity
8
base
6
ByLayer
62
256
370
-1
100
AcDbLine
10
0
20
1
11
0
21
-21
0
LINE
5
7C
100
AcDbEntity
8
base
6
ByLayer
62
256
370
-1
100
AcDbLine
10
70
20
1
11
70
21
-21
0
LINE
5
7D
100
AcDbEntity
8
base
6
ByLayer
62
256
370
-1
100
AcDbLine
10
0
20
-49
11
0
21
-69
0
LINE
5
7E
100
AcDbEntity
8
base
6
ByLayer
62
256
370
-1
100
AcDbLine
10
-19
20
-59
11
19
21
-59
0
LINE
5
7F
100
AcDbEntity
8
base
6
ByLayer
62
256
370
-1
100
AcDbLine
10
-7
20
-12
11
7
21
-12
0
LINE
5
80
100
AcDbEntity
8
base
6
ByLayer
62
256
370
-1
100
AcDbLine
10
11.75
20
-63.0000019073
11
11.75
21
-60
0
LINE
5
81
100
AcDbEntity
8
base
6
ByLayer
62
256
370
-1
100
AcDbLine
10
11.75
20
-63.0000019073
11
11.75
21
-65
0
LINE
5
82
100
AcDbEntity
8
base
6
ByLayer
62
256
370
-1
100
AcDbLine
10
11.75
20
-63.0000019073
11
10
21
-63.0000019073
0
LINE
5
83
100
AcDbEntity
8
base
6
ByLayer
62
256
370
-1
100
AcDbLine
10
11.75
20
-63.0000019073
11
14
21
-63.0000019073
0
LINE
5
84
100
AcDbEntity
8
base
6
ByLayer
62
256
370
-1
100
AcDbLine
10
10
20
-63
11
9
21
-63
0
DIMENSION
5
85
100
AcDbEntity
8
dim
6
ByLayer
62
256
370
-1
100
AcDbDimension
10
5.14295634825
20
-9.42852182588
30
0
11
-0.838525491562
21
-10.3229490169
31
0
70
35
71
5
3
Standard
53
0
210
0
220
0
230
1
100
AcDbDiametricDimension
15
-5.14295634825
25
-14.5714781741
35
0
40
0
0
DIMENSION
5
86
100
AcDbEntity
8
dim
6
ByLayer
62
256
370
-1
100
AcDbDimension
10
11.75
20
-63.0000019073
30
0
11
5.78373558343
21
-63.1744296077
31
0
70
36
71
5
3
Standard
53
0
210
0
220
0
230
1
100
AcDbRadialDimension
15
10.3403095508
25
-63.5126156384
35
0
40
0
0
DIMENSION
5
87
100
AcDbEntity
8
dim
6
ByLayer
62
256
370
-1
100
AcDbDimension
10
-30
20
5.02224130339e-15
30
0
11
-31.875
21
-10
31
0
70
32
71
5
3
Standard
53
0
210
0
220
0
230
1
100
AcDbAlignedDimension
13
-9
23
-20
33
0
14
-18
24
3.5527136788e-15
34
0
50
90
100
AcDbRotatedDimension
0
DIMENSION
5
88
100
AcDbEntity
8
dim
6
ByLayer
62
256
370
-1
100
AcDbDimension
10
-22
20
4.04255622033e-15
30
0
11
-23.875
21
-1.5
31
0
70
32
71
5
3
Standard
53
0
210
0
220
0
230
1
100
AcDbAlignedDimension
13
-14.5
23
-3
33
0
14
-18
24
3.5527136788e-15
34
0
50
90
100
AcDbRotatedDimension
0
DIMENSION
5
89
100
AcDbEntity
8
dim
6
ByLayer
62
256
370
-1
100
AcDbDimension
10
25
20
-6
30
0
11
23.125
21
-3
31
0
70
32
71
5
3
Standard
53
0
210
0
220
0
230
1
100
AcDbAlignedDimension
13
18
23
-3.5527136788e-15
33
0
14
18
24
-6
34
0
50
90
100
AcDbRotatedDimension
0
DIMENSION
5
8A
100
AcDbEntity
8
dim
6
ByLayer
62
256
370
-1
100
AcDbDimension
10
-30
20
-67
30
0
11
-31.875
21
-58.5
31
0
70
32
71
5
3
Standard
53
0
210
0
220
0
230
1
100
AcDbAlignedDimension
13
-18
23
-50
33
0
14
-18
24
-67
34
0
50
90
100
AcDbRotatedDimension
0
DIMENSION
5
8B
100
AcDbEntity
8
dim
6
ByLayer
62
256
370
-1
100
AcDbDimension
10
9
20
-26
30
0
11
-1.66154999373e-15
21
-24.125
31
0
70
32
71
5
3
Standard
53
0
210
0
220
0
230
1
100
AcDbAlignedDimension
13
-9
23
-20
33
0
14
9
24
-20
34
0
100
AcDbRotatedDimension
0
DIMENSION
5
8C
100
AcDbEntity
8
dim
6
ByLayer
62
256
370
-1
100
AcDbDimension
10
18
20
-40
30
0
11
1.14806845671e-16
21
-38.125
31
0
70
32
71
5
3
Standard
53
0
210
0
220
0
230
1
100
AcDbAlignedDimension
13
-18
23
-50
33
0
14
18
24
-50
34
0
100
AcDbRotatedDimension
0
DIMENSION
5
8D
100
AcDbEntity
8
dim
6
ByLayer
62
256
370
-1
100
AcDbDimension
10
-9
20
4
30
0
11
-11.75
21
5.875
31
0
70
32
71
5
3
Standard
53
0
210
0
220
0
230
1
100
AcDbAlignedDimension
13
-14.5
23
-3
33
0
14
-9
24
-3
34
0
100
AcDbRotatedDimension
0
DIMENSION
5
8E
100
AcDbEntity
8
dim
6
ByLayer
62
256
370
-1
100
AcDbDimension
10
25
20
-68
30
0
11
23.125
21
-65.5000009537
31
0
70
32
71
5
3
Standard
53
0
210
0
220
0
230
1
100
AcDbAlignedDimension
13
11.75
23
-63.0000019073
33
0
14
18
24
-68
34
0
50
90
100
AcDbRotatedDimension
0
DIMENSION
5
8F
100
AcDbEntity
8
dim
6
ByLayer
62
256
370
-1
100
AcDbDimension
10
18
20
-73
30
0
11
14.875
21
-71.125
31
0
70
32
71
5
3
Standard
53
0
210
0
220
0
230
1
100
AcDbAlignedDimension
13
11.75
23
-63.0000019073
33
0
14
18
24
-68
34
0
100
AcDbRotatedDimension
0
LINE
5
90
100
AcDbEntity
8
base
6
ByLayer
62
256
370
-1
100
AcDbLine
10
-11.75
20
-55
11
-14
21
-55
0
LINE
5
91
100
AcDbEntity
8
base
6
ByLayer
62
256
370
-1
100
AcDbLine
10
-11.75
20
-55
11
-9
21
-55
0
LINE
5
92
100
AcDbEntity
8
base
6
ByLayer
62
256
370
-1
100
AcDbLine
10
-11.75
20
-55
11
-11.75
21
-53
0
LINE
5
93
100
AcDbEntity
8
base
6
ByLayer
62
256
370
-1
100
AcDbLine
10
-11.75
20
-55
11
-11.75
21
-57
0
DIMENSION
5
94
100
AcDbEntity
8
dim
6
ByLayer
62
256
370
-1
100
AcDbDimension
10
-11.75
20
-55
30
0
11
-6.52188206244
21
-52.1201529655
31
0
70
36
71
5
3
Standard
53
0
210
0
220
0
230
1
100
AcDbRadialDimension
15
-10.2753049258
25
-54.7256381257
35
0
40
0
0
DIMENSION
5
95
100
AcDbEntity
8
dim
6
ByLayer
62
256
370
-1
100
AcDbDimension
10
-18
20
-46
30
0
11
-14.875
21
-44.125
31
0
70
32
71
5
3
Standard
53
0
210
0
220
0
230
1
100
AcDbAlignedDimension
13
-11.75
23
-55
33
0
14
-18
24
-50
34
0
100
AcDbRotatedDimension
0
DIMENSION
5
96
100
AcDbEntity
8
dim
6
ByLayer
62
256
370
-1
100
AcDbDimension
10
11.75
20
-46
30
0
11
1.00298526537e-15
21
-44.125
31
0
70
32
71
5
3
Standard
53
0
210
0
220
0
230
1
100
AcDbAlignedDimension
13
-11.75
23
-55
33
0
14
11.75
24
-63.0000019073
34
0
100
AcDbRotatedDimension
0
DIMENSION
5
97
100
AcDbEntity
8
dim
6
ByLayer
62
256
370
-1
100
AcDbDimension
10
-22
20
-50
30
0
11
-23.875
21
-52.5
31
0
70
32
71
5
3
Standard
53
0
210
0
220
0
230
1
100
AcDbAlignedDimension
13
-11.75
23
-55
33
0
14
-18
24
-50
34
0
50
90
100
AcDbRotatedDimension
0
DIMENSION
5
98
100
AcDbEntity
8
dim
6
ByLayer
62
256
370
-1
100
AcDbDimension
10
25
20
-55
30
0
11
23.125
21
-59.0000009537
31
0
70
32
71
5
3
Standard
53
0
210
0
220
0
230
1
100
AcDbAlignedDimension
13
11.75
23
-63.0000019073
33
0
14
-11.75
24
-55
34
0
50
90
100
AcDbRotatedDimension
0
LINE
5
99
100
AcDbEntity
8
base
6
ByLayer
62
256
370
-1
100
AcDbLine
10
-11.75
20
-3.5291593866e-15
11
-11.75
21
-6
0
LINE
5
9A
100
AcDbEntity
8
base
6
ByLayer
62
256
370
-1
100
AcDbLine
10
11.75
20
-6
11
11.75
21
-1.17771460986e-17
0
LINE
5
9B
100
AcDbEntity
8
base2
6
ByLayer
62
256
370
-1
100
AcDbLine
10
-10.25
20
-5.2288089223e-15
11
-10.25
21
-6
0
LINE
5
9C
100
AcDbEntity
8
base2
6
ByLayer
62
256
370
-1
100
AcDbLine
10
-13.25
20
-2.97808652738e-15
11
-13.25
21
-6
0
LINE
5
9D
100
AcDbEntity
8
base2
6
ByLayer
62
256
370
-1
100
AcDbLine
10
13.25
20
-6
11
13.25
21
-3.79159052245e-16
0
LINE
5
9E
100
AcDbEntity
8
base2
6
ByLayer
62
256
370
-1
100
AcDbLine
10
10.25
20
-6
11
10.25
21
8.3804762175e-16
0
ENDSEC
0
SECTION
2
OBJECTS
0
DICTIONARY
5
C
330
0
100
AcDbDictionary
281
1
3
ACAD_GROUP
350
D
0
DICTIONARY
5
D
330
C
100
AcDbDictionary
281
1
0
ENDSEC
0
EOF
