<?xml version="1.0" encoding="UTF-8" standalone="no"?>
<!-- Created with sK1/UniConvertor (http://sk1project.org/) -->

<svg
   xmlns:dc="http://purl.org/dc/elements/1.1/"
   xmlns:cc="http://creativecommons.org/ns#"
   xmlns:rdf="http://www.w3.org/1999/02/22-rdf-syntax-ns#"
   xmlns:svg="http://www.w3.org/2000/svg"
   xmlns="http://www.w3.org/2000/svg"
   xmlns:sodipodi="http://sodipodi.sourceforge.net/DTD/sodipodi-0.dtd"
   xmlns:inkscape="http://www.inkscape.org/namespaces/inkscape"
   width="595.276pt"
   height="841.89pt"
   viewBox="0 0 595.276 841.89"
   fill-rule="evenodd"
   id="svg3573"
   version="1.1"
   inkscape:version="0.48.3.1 r9886"
   sodipodi:docname="part21.svg">
  <metadata
     id="metadata3603">
    <rdf:RDF>
      <cc:Work
         rdf:about="">
        <dc:format>image/svg+xml</dc:format>
        <dc:type
           rdf:resource="http://purl.org/dc/dcmitype/StillImage" />
        <dc:title />
      </cc:Work>
    </rdf:RDF>
  </metadata>
  <sodipodi:namedview
     pagecolor="#ffffff"
     bordercolor="#666666"
     borderopacity="1"
     objecttolerance="10"
     gridtolerance="10"
     guidetolerance="10"
     inkscape:pageopacity="0"
     inkscape:pageshadow="2"
     inkscape:window-width="653"
     inkscape:window-height="480"
     id="namedview3601"
     showgrid="false"
     inkscape:zoom="0.22425732"
     inkscape:cx="372.04749"
     inkscape:cy="526.18127"
     inkscape:window-x="72"
     inkscape:window-y="24"
     inkscape:window-maximized="0"
     inkscape:current-layer="svg3573" />
  <defs
     id="defs3575">
    <marker
       id="ArrowEnd"
       viewBox="0 0 10 10"
       refX="0"
       refY="5"
       markerUnits="strokeWidth"
       markerWidth="4"
       markerHeight="3"
       orient="auto">
      <path
         d="M 0 0 L 10 5 L 0 10 z"
         id="path3578" />
    </marker>
    <marker
       id="ArrowStart"
       viewBox="0 0 10 10"
       refX="10"
       refY="5"
       markerUnits="strokeWidth"
       markerWidth="4"
       markerHeight="3"
       orient="auto">
      <path
         d="M 10 0 L 0 5 L 10 10 z"
         id="path3581" />
    </marker>
  </defs>
  <path
     style="fill:#99ffff;stroke:#000000;stroke-width:1"
     d="m 57.2,727.99033 c 31.310003,0 56.7,25.3903 56.7,56.7 0,31.30971 -25.389997,56.69971 -56.7,56.69971 -31.31,0 -56.7,-25.39 -56.7,-56.69971 0,-31.3097 25.39,-56.7 56.7,-56.7 z m 0,89.70571 c 3.914,0 7.087,3.173 7.087,7.087 0,3.914 -3.173,7.088 -7.087,7.088 -3.914,0 -7.088,-3.174 -7.088,-7.088 0,-3.914 3.174,-7.087 7.088,-7.087 z M 17.107,777.60283 c 3.914,0 7.088,3.1738 7.088,7.0875 0,3.9137 -3.174,7.0877 -7.088,7.0877 -3.914,0 -7.087,-3.174 -7.087,-7.0877 0,-3.9137 3.173,-7.0875 7.087,-7.0875 z m 80.186003,0 c 3.913997,0 7.086997,3.1738 7.086997,7.0875 0,3.9137 -3.173,7.0877 -7.086997,7.0877 -3.914,0 -7.088,-3.174 -7.088,-7.0877 0,-3.9137 3.174,-7.0875 7.088,-7.0875 z M 57.2,737.51003 c 3.914,0 7.087,3.1737 7.087,7.0875 0,3.9137 -3.173,7.0875 -7.087,7.0875 -3.914,0 -7.088,-3.1738 -7.088,-7.0875 0,-3.9138 3.174,-7.0875 7.088,-7.0875 z m 0,15.9953 c 17.22,0 31.185003,13.9647 31.185003,31.185 0,17.2207 -13.965003,31.18471 -31.185003,31.18471 -17.22,0 -31.185,-13.96401 -31.185,-31.18471 0,-17.2203 13.965,-31.185 31.185,-31.185 z"
     id="path3597"
     inkscape:connector-curvature="0" />
</svg>
