solid OpenSCAD_Model
  facet normal -1 0 0
    outer loop
      vertex -19.5 6.2 10.5
      vertex -19.5 6.2 -7.59256e-016
      vertex -19.5 -6.2 10.5
    endloop
  endfacet
  facet normal -1 0 0
    outer loop
      vertex -19.5 -6.2 10.5
      vertex -19.5 6.2 -7.59256e-016
      vertex -19.5 -6.2 7.59256e-016
    endloop
  endfacet
  facet normal 0 1 -1.22461e-016
    outer loop
      vertex -19.5 6.2 10.5
      vertex -11.9 6.2 10.5
      vertex -19.5 6.2 -7.59256e-016
    endloop
  endfacet
  facet normal 0 1 -1.22461e-016
    outer loop
      vertex -19.5 6.2 -7.59256e-016
      vertex -11.9 6.2 10.5
      vertex -11.9 6.2 2
    endloop
  endfacet
  facet normal 0 1 -1.22461e-016
    outer loop
      vertex -19.5 6.2 -7.59256e-016
      vertex -11.9 6.2 2
      vertex 11.9 6.2 2
    endloop
  endfacet
  facet normal 0 1 -1.22461e-016
    outer loop
      vertex 11.9 6.2 2
      vertex 11.9 6.2 10.5
      vertex 19.5 6.2 10.5
    endloop
  endfacet
  facet normal 0 1 -1.22461e-016
    outer loop
      vertex 11.9 6.2 2
      vertex 19.5 6.2 10.5
      vertex 19.5 6.2 -7.59256e-016
    endloop
  endfacet
  facet normal 0 1 -1.22461e-016
    outer loop
      vertex 11.9 6.2 2
      vertex 19.5 6.2 -7.59256e-016
      vertex -19.5 6.2 -7.59256e-016
    endloop
  endfacet
  facet normal 0 1.22461e-016 1
    outer loop
      vertex -17.1 0 10.5
      vertex -19.5 6.2 10.5
      vertex -19.5 -6.2 10.5
    endloop
  endfacet
  facet normal 0 1.22461e-016 1
    outer loop
      vertex -11.5 -2.6 10.5
      vertex -13 -2.6 10.5
      vertex -19.5 -6.2 10.5
    endloop
  endfacet
  facet normal 0 1.22461e-016 1
    outer loop
      vertex -13.9783 0.494427 10.5
      vertex -13.9 0 10.5
      vertex -13 -1.1 10.5
    endloop
  endfacet
  facet normal 0 1.22461e-016 1
    outer loop
      vertex -13 -1.1 10.5
      vertex -11.9 -1.1 10.5
      vertex -11.9 6.2 10.5
    endloop
  endfacet
  facet normal 0 1.22461e-016 1
    outer loop
      vertex -10.7 -6.2 10.5
      vertex -11.5 -2.6 10.5
      vertex -19.5 -6.2 10.5
    endloop
  endfacet
  facet normal 0 1.22461e-016 1
    outer loop
      vertex -13 -2.6 10.5
      vertex -13 -1.1 10.5
      vertex -19.5 -6.2 10.5
    endloop
  endfacet
  facet normal 0 1.22461e-016 1
    outer loop
      vertex -16.4405 1.29443 10.5
      vertex -15.9944 1.52169 10.5
      vertex -11.9 6.2 10.5
    endloop
  endfacet
  facet normal 0 1.22461e-016 1
    outer loop
      vertex -17.0217 -0.494427 10.5
      vertex -17.1 0 10.5
      vertex -19.5 -6.2 10.5
    endloop
  endfacet
  facet normal 0 1.22461e-016 1
    outer loop
      vertex -17.0217 0.494427 10.5
      vertex -19.5 6.2 10.5
      vertex -17.1 0 10.5
    endloop
  endfacet
  facet normal 0 1.22461e-016 1
    outer loop
      vertex -16.7944 0.940456 10.5
      vertex -19.5 6.2 10.5
      vertex -17.0217 0.494427 10.5
    endloop
  endfacet
  facet normal 0 1.22461e-016 1
    outer loop
      vertex -11.9 6.2 10.5
      vertex -19.5 6.2 10.5
      vertex -16.7944 0.940456 10.5
    endloop
  endfacet
  facet normal 0 1.22461e-016 1
    outer loop
      vertex -15.9944 1.52169 10.5
      vertex -15.5 1.6 10.5
      vertex -11.9 6.2 10.5
    endloop
  endfacet
  facet normal 0 1.22461e-016 1
    outer loop
      vertex -11.9 6.2 10.5
      vertex -16.7944 0.940456 10.5
      vertex -16.4405 1.29443 10.5
    endloop
  endfacet
  facet normal 0 1.22461e-016 1
    outer loop
      vertex -16.7944 -0.940456 10.5
      vertex -17.0217 -0.494427 10.5
      vertex -19.5 -6.2 10.5
    endloop
  endfacet
  facet normal 0 1.22461e-016 1
    outer loop
      vertex -14.5595 -1.29443 10.5
      vertex -15.0056 -1.52169 10.5
      vertex -19.5 -6.2 10.5
    endloop
  endfacet
  facet normal 0 1.22461e-016 1
    outer loop
      vertex -11.9 6.2 10.5
      vertex -15.5 1.6 10.5
      vertex -15.0056 1.52169 10.5
    endloop
  endfacet
  facet normal 0 1.22461e-016 1
    outer loop
      vertex -16.4405 -1.29443 10.5
      vertex -16.7944 -0.940456 10.5
      vertex -19.5 -6.2 10.5
    endloop
  endfacet
  facet normal 0 1.22461e-016 1
    outer loop
      vertex -14.2056 0.940456 10.5
      vertex -11.9 6.2 10.5
      vertex -14.5595 1.29443 10.5
    endloop
  endfacet
  facet normal 0 1.22461e-016 1
    outer loop
      vertex -13 -1.1 10.5
      vertex -11.9 6.2 10.5
      vertex -14.2056 0.940456 10.5
    endloop
  endfacet
  facet normal 0 1.22461e-016 1
    outer loop
      vertex -13 -1.1 10.5
      vertex -14.2056 0.940456 10.5
      vertex -13.9783 0.494427 10.5
    endloop
  endfacet
  facet normal 0 1.22461e-016 1
    outer loop
      vertex -15.9944 -1.52169 10.5
      vertex -16.4405 -1.29443 10.5
      vertex -19.5 -6.2 10.5
    endloop
  endfacet
  facet normal 0 1.22461e-016 1
    outer loop
      vertex -15.0056 -1.52169 10.5
      vertex -15.5 -1.6 10.5
      vertex -19.5 -6.2 10.5
    endloop
  endfacet
  facet normal 0 1.22461e-016 1
    outer loop
      vertex -13 -1.1 10.5
      vertex -13.9 0 10.5
      vertex -13.9783 -0.494427 10.5
    endloop
  endfacet
  facet normal 0 1.22461e-016 1
    outer loop
      vertex -13 -1.1 10.5
      vertex -13.9783 -0.494427 10.5
      vertex -14.2056 -0.940456 10.5
    endloop
  endfacet
  facet normal 0 1.22461e-016 1
    outer loop
      vertex -13 -1.1 10.5
      vertex -14.5595 -1.29443 10.5
      vertex -19.5 -6.2 10.5
    endloop
  endfacet
  facet normal 0 1.22461e-016 1
    outer loop
      vertex -13 -1.1 10.5
      vertex -14.2056 -0.940456 10.5
      vertex -14.5595 -1.29443 10.5
    endloop
  endfacet
  facet normal 0 1.22461e-016 1
    outer loop
      vertex -15.5 -1.6 10.5
      vertex -15.9944 -1.52169 10.5
      vertex -19.5 -6.2 10.5
    endloop
  endfacet
  facet normal 0 1.22461e-016 1
    outer loop
      vertex -10.7 -2.6 10.5
      vertex -11.5 -2.6 10.5
      vertex -10.7 -6.2 10.5
    endloop
  endfacet
  facet normal 0 1.22461e-016 1
    outer loop
      vertex -15.0056 1.52169 10.5
      vertex -14.5595 1.29443 10.5
      vertex -11.9 6.2 10.5
    endloop
  endfacet
  facet normal 0 -1 1.22461e-016
    outer loop
      vertex -10.7 -6.2 10.5
      vertex -19.5 -6.2 10.5
      vertex -19.5 -6.2 7.59256e-016
    endloop
  endfacet
  facet normal 0 -1 1.22461e-016
    outer loop
      vertex -4.4 -6.2 2
      vertex -4.70902 -6.2 2.04894
      vertex -19.5 -6.2 7.59256e-016
    endloop
  endfacet
  facet normal 0 -1 1.22461e-016
    outer loop
      vertex -10.7 -6.2 3
      vertex -10.7 -6.2 10.5
      vertex -19.5 -6.2 7.59256e-016
    endloop
  endfacet
  facet normal 0 -1 1.22461e-016
    outer loop
      vertex 19.5 -6.2 10.5
      vertex 10.7 -6.2 10.5
      vertex 19.5 -6.2 7.59256e-016
    endloop
  endfacet
  facet normal 0 -1 1.22461e-016
    outer loop
      vertex 19.5 -6.2 7.59256e-016
      vertex 10.7 -6.2 3
      vertex -19.5 -6.2 7.59256e-016
    endloop
  endfacet
  facet normal 0 -1 1.22461e-016
    outer loop
      vertex -5.4 -6.2 3
      vertex -10.7 -6.2 3
      vertex -5.35106 -6.2 2.69098
    endloop
  endfacet
  facet normal 0 -1 1.22461e-016
    outer loop
      vertex 10.7 -6.2 3
      vertex -3.4 -6.2 3
      vertex -3.44894 -6.2 2.69098
    endloop
  endfacet
  facet normal 0 -1 1.22461e-016
    outer loop
      vertex -5.20902 -6.2 2.41221
      vertex -5.35106 -6.2 2.69098
      vertex -19.5 -6.2 7.59256e-016
    endloop
  endfacet
  facet normal 0 -1 1.22461e-016
    outer loop
      vertex 10.7 -6.2 3
      vertex -3.44894 -6.2 2.69098
      vertex -3.59098 -6.2 2.41221
    endloop
  endfacet
  facet normal 0 -1 1.22461e-016
    outer loop
      vertex 10.7 -6.2 3
      vertex -3.59098 -6.2 2.41221
      vertex -3.81222 -6.2 2.19098
    endloop
  endfacet
  facet normal 0 -1 1.22461e-016
    outer loop
      vertex -4.70902 -6.2 2.04894
      vertex -4.98778 -6.2 2.19098
      vertex -19.5 -6.2 7.59256e-016
    endloop
  endfacet
  facet normal 0 -1 1.22461e-016
    outer loop
      vertex 10.7 -6.2 3
      vertex -3.81222 -6.2 2.19098
      vertex -4.09098 -6.2 2.04894
    endloop
  endfacet
  facet normal 0 -1 1.22461e-016
    outer loop
      vertex 10.7 -6.2 3
      vertex -4.4 -6.2 2
      vertex -19.5 -6.2 7.59256e-016
    endloop
  endfacet
  facet normal 0 -1 1.22461e-016
    outer loop
      vertex 10.7 -6.2 3
      vertex -4.09098 -6.2 2.04894
      vertex -4.4 -6.2 2
    endloop
  endfacet
  facet normal 0 -1 1.22461e-016
    outer loop
      vertex -5.35106 -6.2 2.69098
      vertex -10.7 -6.2 3
      vertex -19.5 -6.2 7.59256e-016
    endloop
  endfacet
  facet normal 0 -1 1.22461e-016
    outer loop
      vertex 10.7 -6.2 10.5
      vertex 10.7 -6.2 3
      vertex 19.5 -6.2 7.59256e-016
    endloop
  endfacet
  facet normal 0 -1 1.22461e-016
    outer loop
      vertex -4.98778 -6.2 2.19098
      vertex -5.20902 -6.2 2.41221
      vertex -19.5 -6.2 7.59256e-016
    endloop
  endfacet
  facet normal 0 -1.22461e-016 -1
    outer loop
      vertex -14.5575 -2.90072 3.55224e-016
      vertex 19.5 6.2 -7.59256e-016
      vertex -19.5 -6.2 7.59256e-016
    endloop
  endfacet
  facet normal 0 -1.22461e-016 -1
    outer loop
      vertex 18.55 -1.28584e-015 0
      vertex 19.5 6.2 -7.59256e-016
      vertex 19.5 -6.2 7.59256e-016
    endloop
  endfacet
  facet normal 0 -1.22461e-016 -1
    outer loop
      vertex -15.5 3.05 -3.73505e-016
      vertex -19.5 6.2 -7.59256e-016
      vertex -14.5575 2.90072 -3.55224e-016
    endloop
  endfacet
  facet normal 0 -1.22461e-016 -1
    outer loop
      vertex -19.5 6.2 -7.59256e-016
      vertex -18.4007 0.942502 -1.15419e-016
      vertex -18.55 -1.28584e-015 0
    endloop
  endfacet
  facet normal 0 -1.22461e-016 -1
    outer loop
      vertex -19.5 6.2 -7.59256e-016
      vertex -18.55 -1.28584e-015 0
      vertex -19.5 -6.2 7.59256e-016
    endloop
  endfacet
  facet normal 0 -1.22461e-016 -1
    outer loop
      vertex -13.0325 1.79274 -2.19541e-016
      vertex 19.5 6.2 -7.59256e-016
      vertex -12.5993 0.942502 -1.15419e-016
    endloop
  endfacet
  facet normal 0 -1.22461e-016 -1
    outer loop
      vertex -13.7073 -2.4675 3.02172e-016
      vertex 19.5 6.2 -7.59256e-016
      vertex -14.5575 -2.90072 3.55224e-016
    endloop
  endfacet
  facet normal 0 -1.22461e-016 -1
    outer loop
      vertex -12.5993 0.942502 -1.15419e-016
      vertex 19.5 6.2 -7.59256e-016
      vertex -12.45 -1.28584e-015 0
    endloop
  endfacet
  facet normal 0 -1.22461e-016 -1
    outer loop
      vertex -18.4007 -0.942502 1.15419e-016
      vertex -17.9675 -1.79275 2.19541e-016
      vertex -19.5 -6.2 7.59256e-016
    endloop
  endfacet
  facet normal 0 -1.22461e-016 -1
    outer loop
      vertex -12.45 -1.28584e-015 0
      vertex 19.5 6.2 -7.59256e-016
      vertex -12.5993 -0.942502 1.15419e-016
    endloop
  endfacet
  facet normal 0 -1.22461e-016 -1
    outer loop
      vertex -17.9675 -1.79275 2.19541e-016
      vertex -17.2927 -2.4675 3.02172e-016
      vertex -19.5 -6.2 7.59256e-016
    endloop
  endfacet
  facet normal 0 -1.22461e-016 -1
    outer loop
      vertex -12.5993 -0.942502 1.15419e-016
      vertex 19.5 6.2 -7.59256e-016
      vertex -13.0325 -1.79275 2.19541e-016
    endloop
  endfacet
  facet normal 0 -1.22461e-016 -1
    outer loop
      vertex -17.2927 -2.4675 3.02172e-016
      vertex -16.4425 -2.90072 3.55224e-016
      vertex -19.5 -6.2 7.59256e-016
    endloop
  endfacet
  facet normal 0 -1.22461e-016 -1
    outer loop
      vertex -13.0325 -1.79275 2.19541e-016
      vertex 19.5 6.2 -7.59256e-016
      vertex -13.7073 -2.4675 3.02172e-016
    endloop
  endfacet
  facet normal 0 -1.22461e-016 -1
    outer loop
      vertex -16.4425 -2.90072 3.55224e-016
      vertex -15.5 -3.05 3.73505e-016
      vertex -19.5 -6.2 7.59256e-016
    endloop
  endfacet
  facet normal 0 -1.22461e-016 -1
    outer loop
      vertex -15.5 -3.05 3.73505e-016
      vertex -14.5575 -2.90072 3.55224e-016
      vertex -19.5 -6.2 7.59256e-016
    endloop
  endfacet
  facet normal 0 -1.22461e-016 -1
    outer loop
      vertex -13.7073 2.4675 -3.02172e-016
      vertex 19.5 6.2 -7.59256e-016
      vertex -13.0325 1.79274 -2.19541e-016
    endloop
  endfacet
  facet normal 0 -1.22461e-016 -1
    outer loop
      vertex -19.5 6.2 -7.59256e-016
      vertex 19.5 6.2 -7.59256e-016
      vertex -13.7073 2.4675 -3.02172e-016
    endloop
  endfacet
  facet normal 0 -1.22461e-016 -1
    outer loop
      vertex -19.5 6.2 -7.59256e-016
      vertex -13.7073 2.4675 -3.02172e-016
      vertex -14.5575 2.90072 -3.55224e-016
    endloop
  endfacet
  facet normal 0 -1.22461e-016 -1
    outer loop
      vertex 15.5 -3.05 3.73505e-016
      vertex 19.5 -6.2 7.59256e-016
      vertex 14.5575 -2.90072 3.55224e-016
    endloop
  endfacet
  facet normal 0 -1.22461e-016 -1
    outer loop
      vertex -19.5 6.2 -7.59256e-016
      vertex -15.5 3.05 -3.73505e-016
      vertex -16.4425 2.90072 -3.55224e-016
    endloop
  endfacet
  facet normal 0 -1.22461e-016 -1
    outer loop
      vertex -19.5 6.2 -7.59256e-016
      vertex -16.4425 2.90072 -3.55224e-016
      vertex -17.2927 2.4675 -3.02172e-016
    endloop
  endfacet
  facet normal 0 -1.22461e-016 -1
    outer loop
      vertex -19.5 6.2 -7.59256e-016
      vertex -17.2927 2.4675 -3.02172e-016
      vertex -17.9675 1.79274 -2.19541e-016
    endloop
  endfacet
  facet normal 0 -1.22461e-016 -1
    outer loop
      vertex -19.5 6.2 -7.59256e-016
      vertex -17.9675 1.79274 -2.19541e-016
      vertex -18.4007 0.942502 -1.15419e-016
    endloop
  endfacet
  facet normal 0 -1.22461e-016 -1
    outer loop
      vertex -19.5 -6.2 7.59256e-016
      vertex 12.5993 0.942502 -1.15419e-016
      vertex 12.45 -1.28584e-015 0
    endloop
  endfacet
  facet normal 0 -1.22461e-016 -1
    outer loop
      vertex -19.5 -6.2 7.59256e-016
      vertex 12.45 -1.28584e-015 0
      vertex 12.5993 -0.942502 1.15419e-016
    endloop
  endfacet
  facet normal 0 -1.22461e-016 -1
    outer loop
      vertex -19.5 -6.2 7.59256e-016
      vertex 12.5993 -0.942502 1.15419e-016
      vertex 13.0325 -1.79275 2.19541e-016
    endloop
  endfacet
  facet normal 0 -1.22461e-016 -1
    outer loop
      vertex -19.5 -6.2 7.59256e-016
      vertex 13.0325 -1.79275 2.19541e-016
      vertex 13.7073 -2.4675 3.02172e-016
    endloop
  endfacet
  facet normal 0 -1.22461e-016 -1
    outer loop
      vertex -19.5 -6.2 7.59256e-016
      vertex 13.7073 -2.4675 3.02172e-016
      vertex 19.5 -6.2 7.59256e-016
    endloop
  endfacet
  facet normal 0 -1.22461e-016 -1
    outer loop
      vertex 13.7073 -2.4675 3.02172e-016
      vertex 14.5575 -2.90072 3.55224e-016
      vertex 19.5 -6.2 7.59256e-016
    endloop
  endfacet
  facet normal 0 -1.22461e-016 -1
    outer loop
      vertex 16.4425 -2.90072 3.55224e-016
      vertex 19.5 -6.2 7.59256e-016
      vertex 15.5 -3.05 3.73505e-016
    endloop
  endfacet
  facet normal 0 -1.22461e-016 -1
    outer loop
      vertex 14.5575 2.90072 -3.55224e-016
      vertex 19.5 6.2 -7.59256e-016
      vertex 15.5 3.05 -3.73505e-016
    endloop
  endfacet
  facet normal 0 -1.22461e-016 -1
    outer loop
      vertex 18.4007 0.942502 -1.15419e-016
      vertex 19.5 6.2 -7.59256e-016
      vertex 18.55 -1.28584e-015 0
    endloop
  endfacet
  facet normal 0 -1.22461e-016 -1
    outer loop
      vertex 16.4425 -2.90072 3.55224e-016
      vertex 17.2927 -2.4675 3.02172e-016
      vertex 19.5 -6.2 7.59256e-016
    endloop
  endfacet
  facet normal 0 -1.22461e-016 -1
    outer loop
      vertex 17.9675 1.79274 -2.19541e-016
      vertex 19.5 6.2 -7.59256e-016
      vertex 18.4007 0.942502 -1.15419e-016
    endloop
  endfacet
  facet normal 0 -1.22461e-016 -1
    outer loop
      vertex 17.2927 -2.4675 3.02172e-016
      vertex 17.9675 -1.79275 2.19541e-016
      vertex 19.5 -6.2 7.59256e-016
    endloop
  endfacet
  facet normal 0 -1.22461e-016 -1
    outer loop
      vertex 17.9675 -1.79275 2.19541e-016
      vertex 18.4007 -0.942502 1.15419e-016
      vertex 19.5 -6.2 7.59256e-016
    endloop
  endfacet
  facet normal 0 -1.22461e-016 -1
    outer loop
      vertex 18.4007 -0.942502 1.15419e-016
      vertex 18.55 -1.28584e-015 0
      vertex 19.5 -6.2 7.59256e-016
    endloop
  endfacet
  facet normal 0 -1.22461e-016 -1
    outer loop
      vertex 17.2927 2.4675 -3.02172e-016
      vertex 19.5 6.2 -7.59256e-016
      vertex 17.9675 1.79274 -2.19541e-016
    endloop
  endfacet
  facet normal 0 -1.22461e-016 -1
    outer loop
      vertex 16.4425 2.90072 -3.55224e-016
      vertex 19.5 6.2 -7.59256e-016
      vertex 17.2927 2.4675 -3.02172e-016
    endloop
  endfacet
  facet normal 0 -1.22461e-016 -1
    outer loop
      vertex 15.5 3.05 -3.73505e-016
      vertex 19.5 6.2 -7.59256e-016
      vertex 16.4425 2.90072 -3.55224e-016
    endloop
  endfacet
  facet normal 0 -1.22461e-016 -1
    outer loop
      vertex -19.5 -6.2 7.59256e-016
      vertex 19.5 6.2 -7.59256e-016
      vertex 14.5575 2.90072 -3.55224e-016
    endloop
  endfacet
  facet normal 0 -1.22461e-016 -1
    outer loop
      vertex -19.5 -6.2 7.59256e-016
      vertex 14.5575 2.90072 -3.55224e-016
      vertex 13.7073 2.4675 -3.02172e-016
    endloop
  endfacet
  facet normal 0 -1.22461e-016 -1
    outer loop
      vertex -19.5 -6.2 7.59256e-016
      vertex 13.7073 2.4675 -3.02172e-016
      vertex 13.0325 1.79274 -2.19541e-016
    endloop
  endfacet
  facet normal 0 -1.22461e-016 -1
    outer loop
      vertex -19.5 -6.2 7.59256e-016
      vertex 13.0325 1.79274 -2.19541e-016
      vertex 12.5993 0.942502 -1.15419e-016
    endloop
  endfacet
  facet normal 0 -1.22461e-016 -1
    outer loop
      vertex -18.4007 -0.942502 1.15419e-016
      vertex -19.5 -6.2 7.59256e-016
      vertex -18.55 -1.28584e-015 0
    endloop
  endfacet
  facet normal 1 0 0
    outer loop
      vertex 19.5 6.2 -7.59256e-016
      vertex 19.5 6.2 10.5
      vertex 19.5 -6.2 10.5
    endloop
  endfacet
  facet normal 1 0 0
    outer loop
      vertex 19.5 -6.2 7.59256e-016
      vertex 19.5 6.2 -7.59256e-016
      vertex 19.5 -6.2 10.5
    endloop
  endfacet
  facet normal 0 1.22461e-016 1
    outer loop
      vertex 11.5 -2.6 10.5
      vertex 10.7 -2.6 10.5
      vertex 10.7 -6.2 10.5
    endloop
  endfacet
  facet normal 0 1.22461e-016 1
    outer loop
      vertex 13.9783 -0.494427 10.5
      vertex 13.9 0 10.5
      vertex 13 -1.1 10.5
    endloop
  endfacet
  facet normal 0 1.22461e-016 1
    outer loop
      vertex 11.9 6.2 10.5
      vertex 11.9 -1.1 10.5
      vertex 19.5 6.2 10.5
    endloop
  endfacet
  facet normal 0 1.22461e-016 1
    outer loop
      vertex 15.0056 -1.52169 10.5
      vertex 13 -1.1 10.5
      vertex 19.5 -6.2 10.5
    endloop
  endfacet
  facet normal 0 1.22461e-016 1
    outer loop
      vertex 13 -1.1 10.5
      vertex 13 -2.6 10.5
      vertex 19.5 -6.2 10.5
    endloop
  endfacet
  facet normal 0 1.22461e-016 1
    outer loop
      vertex 19.5 -6.2 10.5
      vertex 11.5 -2.6 10.5
      vertex 10.7 -6.2 10.5
    endloop
  endfacet
  facet normal 0 1.22461e-016 1
    outer loop
      vertex 13 -2.6 10.5
      vertex 11.5 -2.6 10.5
      vertex 19.5 -6.2 10.5
    endloop
  endfacet
  facet normal 0 1.22461e-016 1
    outer loop
      vertex 17.0217 -0.494427 10.5
      vertex 16.7944 -0.940456 10.5
      vertex 19.5 -6.2 10.5
    endloop
  endfacet
  facet normal 0 1.22461e-016 1
    outer loop
      vertex 11.9 -1.1 10.5
      vertex 14.5595 1.29443 10.5
      vertex 19.5 6.2 10.5
    endloop
  endfacet
  facet normal 0 1.22461e-016 1
    outer loop
      vertex 11.9 -1.1 10.5
      vertex 14.2056 0.940456 10.5
      vertex 14.5595 1.29443 10.5
    endloop
  endfacet
  facet normal 0 1.22461e-016 1
    outer loop
      vertex 15.0056 -1.52169 10.5
      vertex 14.5595 -1.29443 10.5
      vertex 13 -1.1 10.5
    endloop
  endfacet
  facet normal 0 1.22461e-016 1
    outer loop
      vertex 19.5 6.2 10.5
      vertex 15.5 1.6 10.5
      vertex 15.9944 1.52169 10.5
    endloop
  endfacet
  facet normal 0 1.22461e-016 1
    outer loop
      vertex 19.5 6.2 10.5
      vertex 15.9944 1.52169 10.5
      vertex 16.4405 1.29443 10.5
    endloop
  endfacet
  facet normal 0 1.22461e-016 1
    outer loop
      vertex 17.1 0 10.5
      vertex 17.0217 -0.494427 10.5
      vertex 19.5 -6.2 10.5
    endloop
  endfacet
  facet normal 0 1.22461e-016 1
    outer loop
      vertex 19.5 6.2 10.5
      vertex 16.4405 1.29443 10.5
      vertex 16.7944 0.940456 10.5
    endloop
  endfacet
  facet normal 0 1.22461e-016 1
    outer loop
      vertex 19.5 6.2 10.5
      vertex 17.0217 0.494427 10.5
      vertex 19.5 -6.2 10.5
    endloop
  endfacet
  facet normal 0 1.22461e-016 1
    outer loop
      vertex 19.5 6.2 10.5
      vertex 16.7944 0.940456 10.5
      vertex 17.0217 0.494427 10.5
    endloop
  endfacet
  facet normal 0 1.22461e-016 1
    outer loop
      vertex 16.7944 -0.940456 10.5
      vertex 16.4405 -1.29443 10.5
      vertex 19.5 -6.2 10.5
    endloop
  endfacet
  facet normal 0 1.22461e-016 1
    outer loop
      vertex 16.4405 -1.29443 10.5
      vertex 15.9944 -1.52169 10.5
      vertex 19.5 -6.2 10.5
    endloop
  endfacet
  facet normal 0 1.22461e-016 1
    outer loop
      vertex 15.9944 -1.52169 10.5
      vertex 15.5 -1.6 10.5
      vertex 19.5 -6.2 10.5
    endloop
  endfacet
  facet normal 0 1.22461e-016 1
    outer loop
      vertex 15.5 -1.6 10.5
      vertex 15.0056 -1.52169 10.5
      vertex 19.5 -6.2 10.5
    endloop
  endfacet
  facet normal 0 1.22461e-016 1
    outer loop
      vertex 14.5595 -1.29443 10.5
      vertex 14.2056 -0.940456 10.5
      vertex 13 -1.1 10.5
    endloop
  endfacet
  facet normal 0 1.22461e-016 1
    outer loop
      vertex 13.9783 -0.494427 10.5
      vertex 13 -1.1 10.5
      vertex 14.2056 -0.940456 10.5
    endloop
  endfacet
  facet normal 0 1.22461e-016 1
    outer loop
      vertex 14.5595 1.29443 10.5
      vertex 15.0056 1.52169 10.5
      vertex 19.5 6.2 10.5
    endloop
  endfacet
  facet normal 0 1.22461e-016 1
    outer loop
      vertex 15.0056 1.52169 10.5
      vertex 15.5 1.6 10.5
      vertex 19.5 6.2 10.5
    endloop
  endfacet
  facet normal 0 1.22461e-016 1
    outer loop
      vertex 11.9 -1.1 10.5
      vertex 13.9783 0.494427 10.5
      vertex 14.2056 0.940456 10.5
    endloop
  endfacet
  facet normal 0 1.22461e-016 1
    outer loop
      vertex 17.0217 0.494427 10.5
      vertex 17.1 0 10.5
      vertex 19.5 -6.2 10.5
    endloop
  endfacet
  facet normal 0 1.22461e-016 1
    outer loop
      vertex 11.9 -1.1 10.5
      vertex 13.9 0 10.5
      vertex 13.9783 0.494427 10.5
    endloop
  endfacet
  facet normal 0 1.22461e-016 1
    outer loop
      vertex 11.9 -1.1 10.5
      vertex 13 -1.1 10.5
      vertex 13.9 0 10.5
    endloop
  endfacet
  facet normal -1 0 0
    outer loop
      vertex 11.9 -1.1 2
      vertex 11.9 -1.1 10.5
      vertex 11.9 6.2 2
    endloop
  endfacet
  facet normal -1 0 0
    outer loop
      vertex 11.9 6.2 2
      vertex 11.9 -1.1 10.5
      vertex 11.9 6.2 10.5
    endloop
  endfacet
  facet normal 0 1.22461e-016 1
    outer loop
      vertex -4.4 -2.6 2
      vertex -11.5 -1.1 2
      vertex -11.5 -2.6 2
    endloop
  endfacet
  facet normal 0 1.22461e-016 1
    outer loop
      vertex -4.4 2.6 2
      vertex -11.5 -1.1 2
      vertex -4.4 -2.6 2
    endloop
  endfacet
  facet normal 0 1.22461e-016 1
    outer loop
      vertex -11.9 -1.1 2
      vertex -11.5 -1.1 2
      vertex -4.4 2.6 2
    endloop
  endfacet
  facet normal 0 1.22461e-016 1
    outer loop
      vertex -11.9 6.2 2
      vertex -11.9 -1.1 2
      vertex -4.4 2.6 2
    endloop
  endfacet
  facet normal 0 1.22461e-016 1
    outer loop
      vertex 11.5 -2.6 2
      vertex -4.4 2.6 2
      vertex -4.4 -2.6 2
    endloop
  endfacet
  facet normal 0 1.22461e-016 1
    outer loop
      vertex 11.5 -1.1 2
      vertex -4.4 2.6 2
      vertex 11.5 -2.6 2
    endloop
  endfacet
  facet normal 0 1.22461e-016 1
    outer loop
      vertex 11.9 -1.1 2
      vertex -4.4 2.6 2
      vertex 11.5 -1.1 2
    endloop
  endfacet
  facet normal 0 1.22461e-016 1
    outer loop
      vertex 11.9 6.2 2
      vertex -4.4 2.6 2
      vertex 11.9 -1.1 2
    endloop
  endfacet
  facet normal 0 1.22461e-016 1
    outer loop
      vertex -11.9 6.2 2
      vertex -4.4 2.6 2
      vertex 11.9 6.2 2
    endloop
  endfacet
  facet normal 1 0 0
    outer loop
      vertex -11.9 -1.1 10.5
      vertex -11.9 -1.1 2
      vertex -11.9 6.2 2
    endloop
  endfacet
  facet normal 1 0 0
    outer loop
      vertex -11.9 6.2 10.5
      vertex -11.9 -1.1 10.5
      vertex -11.9 6.2 2
    endloop
  endfacet
  facet normal 0 -1 1.22461e-016
    outer loop
      vertex -11.9 -1.1 2
      vertex -12.6795 -1.1 4.5
      vertex -12.6795 -1.1 2
    endloop
  endfacet
  facet normal 0 -1 1.22461e-016
    outer loop
      vertex -11.9 -1.1 2
      vertex -11.9 -1.1 10.5
      vertex -12.6795 -1.1 4.5
    endloop
  endfacet
  facet normal 0 -1 1.22461e-016
    outer loop
      vertex -13 -1.1 4.5
      vertex -12.6795 -1.1 4.5
      vertex -11.9 -1.1 10.5
    endloop
  endfacet
  facet normal 0 -1 1.22461e-016
    outer loop
      vertex -11.5 -1.1 2
      vertex -11.9 -1.1 2
      vertex -12.6795 -1.1 2
    endloop
  endfacet
  facet normal 0 -1 1.22461e-016
    outer loop
      vertex -13 -1.1 10.5
      vertex -13 -1.1 4.5
      vertex -11.9 -1.1 10.5
    endloop
  endfacet
  facet normal 1 0 0
    outer loop
      vertex -13 -2.6 10.5
      vertex -13 -2.6 2
      vertex -13 -1.72896 2
    endloop
  endfacet
  facet normal 1 0 0
    outer loop
      vertex -13 -1.1 4.5
      vertex -13 -2.6 10.5
      vertex -13 -1.72896 4.5
    endloop
  endfacet
  facet normal 1 0 0
    outer loop
      vertex -13 -1.72896 4.5
      vertex -13 -2.6 10.5
      vertex -13 -1.72896 2
    endloop
  endfacet
  facet normal 1 0 0
    outer loop
      vertex -13 -1.1 10.5
      vertex -13 -2.6 10.5
      vertex -13 -1.1 4.5
    endloop
  endfacet
  facet normal 0 1 -1.22461e-016
    outer loop
      vertex -11.5 -2.6 2
      vertex -13 -2.6 2
      vertex -11.5 -2.6 10.5
    endloop
  endfacet
  facet normal 0 1 -1.22461e-016
    outer loop
      vertex -11.5 -2.6 10.5
      vertex -13 -2.6 2
      vertex -13 -2.6 10.5
    endloop
  endfacet
  facet normal 0 1 -1.22461e-016
    outer loop
      vertex -10.7 -2.6 3
      vertex -5.4 -2.6 3
      vertex -5.35106 -2.6 2.69098
    endloop
  endfacet
  facet normal 0 1 -1.22461e-016
    outer loop
      vertex -10.7 -2.6 3
      vertex -11.5 -2.6 2
      vertex -10.7 -2.6 10.5
    endloop
  endfacet
  facet normal 0 1 -1.22461e-016
    outer loop
      vertex -5.35106 -2.6 2.69098
      vertex -5.20902 -2.6 2.41221
      vertex -10.7 -2.6 3
    endloop
  endfacet
  facet normal 0 1 -1.22461e-016
    outer loop
      vertex -5.20902 -2.6 2.41221
      vertex -4.98778 -2.6 2.19098
      vertex -10.7 -2.6 3
    endloop
  endfacet
  facet normal 0 1 -1.22461e-016
    outer loop
      vertex -4.98778 -2.6 2.19098
      vertex -4.70902 -2.6 2.04894
      vertex -10.7 -2.6 3
    endloop
  endfacet
  facet normal 0 1 -1.22461e-016
    outer loop
      vertex -4.70902 -2.6 2.04894
      vertex -4.4 -2.6 2
      vertex -11.5 -2.6 2
    endloop
  endfacet
  facet normal 0 1 -1.22461e-016
    outer loop
      vertex -4.70902 -2.6 2.04894
      vertex -11.5 -2.6 2
      vertex -10.7 -2.6 3
    endloop
  endfacet
  facet normal 0 1 -1.22461e-016
    outer loop
      vertex -11.5 -2.6 2
      vertex -11.5 -2.6 10.5
      vertex -10.7 -2.6 10.5
    endloop
  endfacet
  facet normal 1 0 0
    outer loop
      vertex -10.7 -6.2 10.5
      vertex -10.7 -6.2 3
      vertex -10.7 -2.6 3
    endloop
  endfacet
  facet normal 1 0 0
    outer loop
      vertex -10.7 -2.6 10.5
      vertex -10.7 -6.2 10.5
      vertex -10.7 -2.6 3
    endloop
  endfacet
  facet normal 0.987688 0.156435 -1.91572e-017
    outer loop
      vertex -17.0217 -0.494427 10.5
      vertex -17.0217 -0.494427 6
      vertex -17.1 -5.51073e-016 6
    endloop
  endfacet
  facet normal 0.987688 0.156435 -1.91572e-017
    outer loop
      vertex -17.1 0 10.5
      vertex -17.0217 -0.494427 10.5
      vertex -17.1 -5.51073e-016 6
    endloop
  endfacet
  facet normal 0.987688 -0.156435 1.91572e-017
    outer loop
      vertex -17.1 -5.51073e-016 6
      vertex -17.0217 0.494427 6
      vertex -17.0217 0.494427 10.5
    endloop
  endfacet
  facet normal 0.987688 -0.156435 1.91572e-017
    outer loop
      vertex -17.1 0 10.5
      vertex -17.1 -5.51073e-016 6
      vertex -17.0217 0.494427 10.5
    endloop
  endfacet
  facet normal 0.891007 0.45399 -5.55959e-017
    outer loop
      vertex -16.7944 -0.940456 10.5
      vertex -16.7944 -0.940456 6
      vertex -17.0217 -0.494427 6
    endloop
  endfacet
  facet normal 0.891007 0.45399 -5.55959e-017
    outer loop
      vertex -17.0217 -0.494427 10.5
      vertex -16.7944 -0.940456 10.5
      vertex -17.0217 -0.494427 6
    endloop
  endfacet
  facet normal 0.707107 0.707107 -8.65927e-017
    outer loop
      vertex -16.4405 -1.29443 10.5
      vertex -16.4405 -1.29443 6
      vertex -16.7944 -0.940456 6
    endloop
  endfacet
  facet normal 0.707107 0.707107 -8.65927e-017
    outer loop
      vertex -16.7944 -0.940456 10.5
      vertex -16.4405 -1.29443 10.5
      vertex -16.7944 -0.940456 6
    endloop
  endfacet
  facet normal 0.45399 0.891007 -1.09113e-016
    outer loop
      vertex -15.9944 -1.52169 6
      vertex -16.4405 -1.29443 6
      vertex -15.9944 -1.52169 10.5
    endloop
  endfacet
  facet normal 0.45399 0.891007 -1.09113e-016
    outer loop
      vertex -15.9944 -1.52169 10.5
      vertex -16.4405 -1.29443 6
      vertex -16.4405 -1.29443 10.5
    endloop
  endfacet
  facet normal 0.156435 0.987688 -1.20953e-016
    outer loop
      vertex -15.5 -1.6 6
      vertex -15.9944 -1.52169 6
      vertex -15.5 -1.6 10.5
    endloop
  endfacet
  facet normal 0.156435 0.987688 -1.20953e-016
    outer loop
      vertex -15.5 -1.6 10.5
      vertex -15.9944 -1.52169 6
      vertex -15.9944 -1.52169 10.5
    endloop
  endfacet
  facet normal -0.156435 0.987688 -1.20953e-016
    outer loop
      vertex -15.0056 -1.52169 6
      vertex -15.5 -1.6 6
      vertex -15.0056 -1.52169 10.5
    endloop
  endfacet
  facet normal -0.156435 0.987688 -1.20953e-016
    outer loop
      vertex -15.0056 -1.52169 10.5
      vertex -15.5 -1.6 6
      vertex -15.5 -1.6 10.5
    endloop
  endfacet
  facet normal -0.45399 0.891007 -1.09113e-016
    outer loop
      vertex -14.5595 -1.29443 6
      vertex -15.0056 -1.52169 6
      vertex -14.5595 -1.29443 10.5
    endloop
  endfacet
  facet normal -0.45399 0.891007 -1.09113e-016
    outer loop
      vertex -14.5595 -1.29443 10.5
      vertex -15.0056 -1.52169 6
      vertex -15.0056 -1.52169 10.5
    endloop
  endfacet
  facet normal -0.707107 0.707107 -8.65927e-017
    outer loop
      vertex -14.2056 -0.940456 6
      vertex -14.5595 -1.29443 6
      vertex -14.2056 -0.940456 10.5
    endloop
  endfacet
  facet normal -0.707107 0.707107 -8.65927e-017
    outer loop
      vertex -14.2056 -0.940456 10.5
      vertex -14.5595 -1.29443 6
      vertex -14.5595 -1.29443 10.5
    endloop
  endfacet
  facet normal -0.891007 0.45399 -5.55959e-017
    outer loop
      vertex -13.9783 -0.494427 6
      vertex -14.2056 -0.940456 6
      vertex -13.9783 -0.494427 10.5
    endloop
  endfacet
  facet normal -0.891007 0.45399 -5.55959e-017
    outer loop
      vertex -13.9783 -0.494427 10.5
      vertex -14.2056 -0.940456 6
      vertex -14.2056 -0.940456 10.5
    endloop
  endfacet
  facet normal -0.987688 0.156435 -1.91572e-017
    outer loop
      vertex -13.9 -5.51073e-016 6
      vertex -13.9783 -0.494427 6
      vertex -13.9 0 10.5
    endloop
  endfacet
  facet normal -0.987688 0.156435 -1.91572e-017
    outer loop
      vertex -13.9 0 10.5
      vertex -13.9783 -0.494427 6
      vertex -13.9783 -0.494427 10.5
    endloop
  endfacet
  facet normal -0.987688 -0.156435 1.91572e-017
    outer loop
      vertex -13.9 -5.51073e-016 6
      vertex -13.9 0 10.5
      vertex -13.9783 0.494427 6
    endloop
  endfacet
  facet normal -0.987688 -0.156435 1.91572e-017
    outer loop
      vertex -13.9783 0.494427 6
      vertex -13.9 0 10.5
      vertex -13.9783 0.494427 10.5
    endloop
  endfacet
  facet normal -0.891007 -0.45399 5.55959e-017
    outer loop
      vertex -13.9783 0.494427 6
      vertex -13.9783 0.494427 10.5
      vertex -14.2056 0.940456 6
    endloop
  endfacet
  facet normal -0.891007 -0.45399 5.55959e-017
    outer loop
      vertex -14.2056 0.940456 6
      vertex -13.9783 0.494427 10.5
      vertex -14.2056 0.940456 10.5
    endloop
  endfacet
  facet normal -0.707107 -0.707107 8.65927e-017
    outer loop
      vertex -14.2056 0.940456 6
      vertex -14.2056 0.940456 10.5
      vertex -14.5595 1.29443 6
    endloop
  endfacet
  facet normal -0.707107 -0.707107 8.65927e-017
    outer loop
      vertex -14.5595 1.29443 6
      vertex -14.2056 0.940456 10.5
      vertex -14.5595 1.29443 10.5
    endloop
  endfacet
  facet normal -0.45399 -0.891007 1.09113e-016
    outer loop
      vertex -15.0056 1.52169 6
      vertex -14.5595 1.29443 6
      vertex -14.5595 1.29443 10.5
    endloop
  endfacet
  facet normal -0.45399 -0.891007 1.09113e-016
    outer loop
      vertex -15.0056 1.52169 10.5
      vertex -15.0056 1.52169 6
      vertex -14.5595 1.29443 10.5
    endloop
  endfacet
  facet normal -0.156435 -0.987688 1.20953e-016
    outer loop
      vertex -15.5 1.6 6
      vertex -15.0056 1.52169 6
      vertex -15.0056 1.52169 10.5
    endloop
  endfacet
  facet normal -0.156435 -0.987688 1.20953e-016
    outer loop
      vertex -15.5 1.6 10.5
      vertex -15.5 1.6 6
      vertex -15.0056 1.52169 10.5
    endloop
  endfacet
  facet normal 0.156435 -0.987688 1.20953e-016
    outer loop
      vertex -15.9944 1.52169 6
      vertex -15.5 1.6 6
      vertex -15.5 1.6 10.5
    endloop
  endfacet
  facet normal 0.156435 -0.987688 1.20953e-016
    outer loop
      vertex -15.9944 1.52169 10.5
      vertex -15.9944 1.52169 6
      vertex -15.5 1.6 10.5
    endloop
  endfacet
  facet normal 0.45399 -0.891007 1.09113e-016
    outer loop
      vertex -16.4405 1.29443 6
      vertex -15.9944 1.52169 6
      vertex -15.9944 1.52169 10.5
    endloop
  endfacet
  facet normal 0.45399 -0.891007 1.09113e-016
    outer loop
      vertex -16.4405 1.29443 10.5
      vertex -16.4405 1.29443 6
      vertex -15.9944 1.52169 10.5
    endloop
  endfacet
  facet normal 0.707107 -0.707107 8.65927e-017
    outer loop
      vertex -16.7944 0.940456 6
      vertex -16.4405 1.29443 6
      vertex -16.4405 1.29443 10.5
    endloop
  endfacet
  facet normal 0.707107 -0.707107 8.65927e-017
    outer loop
      vertex -16.7944 0.940456 10.5
      vertex -16.7944 0.940456 6
      vertex -16.4405 1.29443 10.5
    endloop
  endfacet
  facet normal 0.891007 -0.45399 5.55959e-017
    outer loop
      vertex -17.0217 0.494427 6
      vertex -16.7944 0.940456 6
      vertex -16.7944 0.940456 10.5
    endloop
  endfacet
  facet normal 0.891007 -0.45399 5.55959e-017
    outer loop
      vertex -17.0217 0.494427 10.5
      vertex -17.0217 0.494427 6
      vertex -16.7944 0.940456 10.5
    endloop
  endfacet
  facet normal 0 1.22461e-016 1
    outer loop
      vertex -10.7 -6.2 3
      vertex -5.4 -6.2 3
      vertex -5.4 -2.6 3
    endloop
  endfacet
  facet normal 0 1.22461e-016 1
    outer loop
      vertex -10.7 -2.6 3
      vertex -10.7 -6.2 3
      vertex -5.4 -2.6 3
    endloop
  endfacet
  facet normal 0.987689 5.3892e-017 0.156433
    outer loop
      vertex -5.4 -6.2 3
      vertex -5.35106 -6.2 2.69098
      vertex -5.35106 -2.6 2.69098
    endloop
  endfacet
  facet normal 0.987689 5.3892e-017 0.156433
    outer loop
      vertex -5.4 -2.6 3
      vertex -5.4 -6.2 3
      vertex -5.35106 -2.6 2.69098
    endloop
  endfacet
  facet normal 0.891006 1.56403e-016 0.453992
    outer loop
      vertex -5.35106 -6.2 2.69098
      vertex -5.20902 -6.2 2.41221
      vertex -5.20902 -2.6 2.41221
    endloop
  endfacet
  facet normal 0.891006 1.56403e-016 0.453992
    outer loop
      vertex -5.35106 -2.6 2.69098
      vertex -5.35106 -6.2 2.69098
      vertex -5.20902 -2.6 2.41221
    endloop
  endfacet
  facet normal 0.707107 2.43602e-016 0.707107
    outer loop
      vertex -5.20902 -6.2 2.41221
      vertex -4.98778 -6.2 2.19098
      vertex -4.98778 -2.6 2.19098
    endloop
  endfacet
  facet normal 0.707107 2.43602e-016 0.707107
    outer loop
      vertex -5.20902 -2.6 2.41221
      vertex -5.20902 -6.2 2.41221
      vertex -4.98778 -2.6 2.19098
    endloop
  endfacet
  facet normal 0.453992 3.06956e-016 0.891006
    outer loop
      vertex -4.98778 -6.2 2.19098
      vertex -4.70902 -6.2 2.04894
      vertex -4.70902 -2.6 2.04894
    endloop
  endfacet
  facet normal 0.453992 3.06956e-016 0.891006
    outer loop
      vertex -4.98778 -2.6 2.19098
      vertex -4.98778 -6.2 2.19098
      vertex -4.70902 -2.6 2.04894
    endloop
  endfacet
  facet normal 0.156433 3.40264e-016 0.987689
    outer loop
      vertex -4.4 -2.6 2
      vertex -4.4 -6.2 2
      vertex -4.4 2.6 2
    endloop
  endfacet
  facet normal 0.156433 3.40264e-016 0.987689
    outer loop
      vertex -4.4 -2.6 2
      vertex -4.70902 -2.6 2.04894
      vertex -4.70902 -6.2 2.04894
    endloop
  endfacet
  facet normal 0.156433 3.40264e-016 0.987689
    outer loop
      vertex -4.70902 -6.2 2.04894
      vertex -4.4 -6.2 2
      vertex -4.4 -2.6 2
    endloop
  endfacet
  facet normal -0.156433 3.40264e-016 0.987689
    outer loop
      vertex -4.4 -6.2 2
      vertex -4.09098 -6.2 2.04894
      vertex -4.09098 -2.6 2.04894
    endloop
  endfacet
  facet normal -0.156433 3.40264e-016 0.987689
    outer loop
      vertex -4.4 2.6 2
      vertex -4.4 -6.2 2
      vertex -4.4 -2.6 2
    endloop
  endfacet
  facet normal -0.156433 3.40264e-016 0.987689
    outer loop
      vertex -4.4 -2.6 2
      vertex -4.4 -6.2 2
      vertex -4.09098 -2.6 2.04894
    endloop
  endfacet
  facet normal -0.453992 3.06956e-016 0.891006
    outer loop
      vertex -4.09098 -6.2 2.04894
      vertex -3.81222 -6.2 2.19098
      vertex -3.81222 -2.6 2.19098
    endloop
  endfacet
  facet normal -0.453992 3.06956e-016 0.891006
    outer loop
      vertex -4.09098 -2.6 2.04894
      vertex -4.09098 -6.2 2.04894
      vertex -3.81222 -2.6 2.19098
    endloop
  endfacet
  facet normal -0.707107 2.43602e-016 0.707107
    outer loop
      vertex -3.59098 -6.2 2.41221
      vertex -3.59098 -2.6 2.41221
      vertex -3.81222 -6.2 2.19098
    endloop
  endfacet
  facet normal -0.707107 2.43602e-016 0.707107
    outer loop
      vertex -3.81222 -6.2 2.19098
      vertex -3.59098 -2.6 2.41221
      vertex -3.81222 -2.6 2.19098
    endloop
  endfacet
  facet normal -0.891006 1.56403e-016 0.453992
    outer loop
      vertex -3.44894 -6.2 2.69098
      vertex -3.44894 -2.6 2.69098
      vertex -3.59098 -6.2 2.41221
    endloop
  endfacet
  facet normal -0.891006 1.56403e-016 0.453992
    outer loop
      vertex -3.59098 -6.2 2.41221
      vertex -3.44894 -2.6 2.69098
      vertex -3.59098 -2.6 2.41221
    endloop
  endfacet
  facet normal -0.987689 5.3892e-017 0.156433
    outer loop
      vertex -3.4 -6.2 3
      vertex -3.4 -2.6 3
      vertex -3.44894 -6.2 2.69098
    endloop
  endfacet
  facet normal -0.987689 5.3892e-017 0.156433
    outer loop
      vertex -3.44894 -6.2 2.69098
      vertex -3.4 -2.6 3
      vertex -3.44894 -2.6 2.69098
    endloop
  endfacet
  facet normal 0 1.22461e-016 1
    outer loop
      vertex -3.4 -6.2 3
      vertex 10.7 -6.2 3
      vertex 10.7 -2.6 3
    endloop
  endfacet
  facet normal 0 1.22461e-016 1
    outer loop
      vertex -3.4 -2.6 3
      vertex -3.4 -6.2 3
      vertex 10.7 -2.6 3
    endloop
  endfacet
  facet normal -1 0 0
    outer loop
      vertex 10.7 -6.2 3
      vertex 10.7 -6.2 10.5
      vertex 10.7 -2.6 3
    endloop
  endfacet
  facet normal -1 0 0
    outer loop
      vertex 10.7 -2.6 3
      vertex 10.7 -6.2 10.5
      vertex 10.7 -2.6 10.5
    endloop
  endfacet
  facet normal 0.987688 -0.156435 1.91571e-017
    outer loop
      vertex -18.55 -1.28584e-015 0
      vertex -18.4007 0.942502 -1.15419e-016
      vertex -18.4007 0.942502 4.5
    endloop
  endfacet
  facet normal 0.987688 -0.156435 1.91571e-017
    outer loop
      vertex -18.55 -7.34764e-016 4.5
      vertex -18.55 -1.28584e-015 0
      vertex -18.4007 0.942502 4.5
    endloop
  endfacet
  facet normal 0.891007 -0.45399 5.55959e-017
    outer loop
      vertex -18.4007 0.942502 -1.15419e-016
      vertex -17.9675 1.79274 -2.19541e-016
      vertex -17.9675 1.79274 4.5
    endloop
  endfacet
  facet normal 0.891007 -0.45399 5.55959e-017
    outer loop
      vertex -18.4007 0.942502 4.5
      vertex -18.4007 0.942502 -1.15419e-016
      vertex -17.9675 1.79274 4.5
    endloop
  endfacet
  facet normal 0.707107 -0.707107 8.65927e-017
    outer loop
      vertex -17.9675 1.79274 -2.19541e-016
      vertex -17.2927 2.4675 -3.02172e-016
      vertex -17.2927 2.4675 4.5
    endloop
  endfacet
  facet normal 0.707107 -0.707107 8.65927e-017
    outer loop
      vertex -17.9675 1.79274 4.5
      vertex -17.9675 1.79274 -2.19541e-016
      vertex -17.2927 2.4675 4.5
    endloop
  endfacet
  facet normal 0.45399 -0.891007 1.09113e-016
    outer loop
      vertex -17.2927 2.4675 -3.02172e-016
      vertex -16.4425 2.90072 -3.55224e-016
      vertex -16.4425 2.90072 4.5
    endloop
  endfacet
  facet normal 0.45399 -0.891007 1.09113e-016
    outer loop
      vertex -17.2927 2.4675 4.5
      vertex -17.2927 2.4675 -3.02172e-016
      vertex -16.4425 2.90072 4.5
    endloop
  endfacet
  facet normal 0.156435 -0.987688 1.20953e-016
    outer loop
      vertex -16.4425 2.90072 -3.55224e-016
      vertex -15.5 3.05 -3.73505e-016
      vertex -15.5 3.05 4.5
    endloop
  endfacet
  facet normal 0.156435 -0.987688 1.20953e-016
    outer loop
      vertex -16.4425 2.90072 4.5
      vertex -16.4425 2.90072 -3.55224e-016
      vertex -15.5 3.05 4.5
    endloop
  endfacet
  facet normal -0.156435 -0.987688 1.20953e-016
    outer loop
      vertex -15.5 3.05 -3.73505e-016
      vertex -14.5575 2.90072 -3.55224e-016
      vertex -14.5575 2.90072 4.5
    endloop
  endfacet
  facet normal -0.156435 -0.987688 1.20953e-016
    outer loop
      vertex -15.5 3.05 4.5
      vertex -15.5 3.05 -3.73505e-016
      vertex -14.5575 2.90072 4.5
    endloop
  endfacet
  facet normal -0.45399 -0.891007 1.09113e-016
    outer loop
      vertex -14.5575 2.90072 -3.55224e-016
      vertex -13.7073 2.4675 -3.02172e-016
      vertex -13.7073 2.4675 4.5
    endloop
  endfacet
  facet normal -0.45399 -0.891007 1.09113e-016
    outer loop
      vertex -14.5575 2.90072 4.5
      vertex -14.5575 2.90072 -3.55224e-016
      vertex -13.7073 2.4675 4.5
    endloop
  endfacet
  facet normal -0.707107 -0.707107 8.65927e-017
    outer loop
      vertex -13.0325 1.79274 -2.19541e-016
      vertex -13.0325 1.79274 4.5
      vertex -13.7073 2.4675 -3.02172e-016
    endloop
  endfacet
  facet normal -0.707107 -0.707107 8.65927e-017
    outer loop
      vertex -13.7073 2.4675 -3.02172e-016
      vertex -13.0325 1.79274 4.5
      vertex -13.7073 2.4675 4.5
    endloop
  endfacet
  facet normal -0.891007 -0.45399 5.55959e-017
    outer loop
      vertex -12.5993 0.942502 -1.15419e-016
      vertex -12.5993 0.942502 4.5
      vertex -13.0325 1.79274 -2.19541e-016
    endloop
  endfacet
  facet normal -0.891007 -0.45399 5.55959e-017
    outer loop
      vertex -13.0325 1.79274 -2.19541e-016
      vertex -12.5993 0.942502 4.5
      vertex -13.0325 1.79274 4.5
    endloop
  endfacet
  facet normal -0.987688 -0.156435 1.91571e-017
    outer loop
      vertex -12.45 -1.28584e-015 0
      vertex -12.45 -7.34764e-016 4.5
      vertex -12.5993 0.942502 -1.15419e-016
    endloop
  endfacet
  facet normal -0.987688 -0.156435 1.91571e-017
    outer loop
      vertex -12.5993 0.942502 -1.15419e-016
      vertex -12.45 -7.34764e-016 4.5
      vertex -12.5993 0.942502 4.5
    endloop
  endfacet
  facet normal -0.987688 0.156435 -1.91571e-017
    outer loop
      vertex -12.45 -1.28584e-015 0
      vertex -12.5993 -0.942502 1.15419e-016
      vertex -12.45 -7.34764e-016 4.5
    endloop
  endfacet
  facet normal -0.987688 0.156435 -1.91571e-017
    outer loop
      vertex -12.45 -7.34764e-016 4.5
      vertex -12.5993 -0.942502 1.15419e-016
      vertex -12.5993 -0.942502 4.5
    endloop
  endfacet
  facet normal -0.891007 0.45399 -5.55959e-017
    outer loop
      vertex -12.5993 -0.942502 4.5
      vertex -12.6795 -1.1 2
      vertex -12.6795 -1.1 4.5
    endloop
  endfacet
  facet normal -0.891007 0.45399 -5.55959e-017
    outer loop
      vertex -12.5993 -0.942502 1.15419e-016
      vertex -12.6795 -1.1 2
      vertex -12.5993 -0.942502 4.5
    endloop
  endfacet
  facet normal -0.891007 0.45399 -5.55959e-017
    outer loop
      vertex -13 -1.72896 2
      vertex -12.6795 -1.1 2
      vertex -12.5993 -0.942502 1.15419e-016
    endloop
  endfacet
  facet normal -0.891007 0.45399 -5.55959e-017
    outer loop
      vertex -13 -1.72896 2
      vertex -12.5993 -0.942502 1.15419e-016
      vertex -13.0325 -1.79275 2.19541e-016
    endloop
  endfacet
  facet normal -0.891007 0.45399 -5.55959e-017
    outer loop
      vertex -13 -1.72896 2
      vertex -13.0325 -1.79275 2.19541e-016
      vertex -13 -1.72896 4.5
    endloop
  endfacet
  facet normal -0.891007 0.45399 -5.55959e-017
    outer loop
      vertex -13.0325 -1.79275 2.19541e-016
      vertex -13.0325 -1.79275 4.5
      vertex -13 -1.72896 4.5
    endloop
  endfacet
  facet normal -0.707107 0.707107 -8.65927e-017
    outer loop
      vertex -13.0325 -1.79275 2.19541e-016
      vertex -13.7073 -2.4675 3.02172e-016
      vertex -13.0325 -1.79275 4.5
    endloop
  endfacet
  facet normal -0.707107 0.707107 -8.65927e-017
    outer loop
      vertex -13.0325 -1.79275 4.5
      vertex -13.7073 -2.4675 3.02172e-016
      vertex -13.7073 -2.4675 4.5
    endloop
  endfacet
  facet normal -0.45399 0.891007 -1.09113e-016
    outer loop
      vertex -13.7073 -2.4675 3.02172e-016
      vertex -14.5575 -2.90072 3.55224e-016
      vertex -13.7073 -2.4675 4.5
    endloop
  endfacet
  facet normal -0.45399 0.891007 -1.09113e-016
    outer loop
      vertex -13.7073 -2.4675 4.5
      vertex -14.5575 -2.90072 3.55224e-016
      vertex -14.5575 -2.90072 4.5
    endloop
  endfacet
  facet normal -0.156435 0.987688 -1.20953e-016
    outer loop
      vertex -14.5575 -2.90072 3.55224e-016
      vertex -15.5 -3.05 3.73505e-016
      vertex -14.5575 -2.90072 4.5
    endloop
  endfacet
  facet normal -0.156435 0.987688 -1.20953e-016
    outer loop
      vertex -14.5575 -2.90072 4.5
      vertex -15.5 -3.05 3.73505e-016
      vertex -15.5 -3.05 4.5
    endloop
  endfacet
  facet normal 0.156435 0.987688 -1.20953e-016
    outer loop
      vertex -15.5 -3.05 3.73505e-016
      vertex -16.4425 -2.90072 3.55224e-016
      vertex -15.5 -3.05 4.5
    endloop
  endfacet
  facet normal 0.156435 0.987688 -1.20953e-016
    outer loop
      vertex -15.5 -3.05 4.5
      vertex -16.4425 -2.90072 3.55224e-016
      vertex -16.4425 -2.90072 4.5
    endloop
  endfacet
  facet normal 0.45399 0.891007 -1.09113e-016
    outer loop
      vertex -16.4425 -2.90072 3.55224e-016
      vertex -17.2927 -2.4675 3.02172e-016
      vertex -16.4425 -2.90072 4.5
    endloop
  endfacet
  facet normal 0.45399 0.891007 -1.09113e-016
    outer loop
      vertex -16.4425 -2.90072 4.5
      vertex -17.2927 -2.4675 3.02172e-016
      vertex -17.2927 -2.4675 4.5
    endloop
  endfacet
  facet normal 0.707107 0.707107 -8.65927e-017
    outer loop
      vertex -17.2927 -2.4675 4.5
      vertex -17.2927 -2.4675 3.02172e-016
      vertex -17.9675 -1.79275 2.19541e-016
    endloop
  endfacet
  facet normal 0.707107 0.707107 -8.65927e-017
    outer loop
      vertex -17.9675 -1.79275 4.5
      vertex -17.2927 -2.4675 4.5
      vertex -17.9675 -1.79275 2.19541e-016
    endloop
  endfacet
  facet normal 0.891007 0.45399 -5.55959e-017
    outer loop
      vertex -17.9675 -1.79275 4.5
      vertex -17.9675 -1.79275 2.19541e-016
      vertex -18.4007 -0.942502 1.15419e-016
    endloop
  endfacet
  facet normal 0.891007 0.45399 -5.55959e-017
    outer loop
      vertex -18.4007 -0.942502 4.5
      vertex -17.9675 -1.79275 4.5
      vertex -18.4007 -0.942502 1.15419e-016
    endloop
  endfacet
  facet normal 0.987688 0.156435 -1.91571e-017
    outer loop
      vertex -18.4007 -0.942502 4.5
      vertex -18.4007 -0.942502 1.15419e-016
      vertex -18.55 -1.28584e-015 0
    endloop
  endfacet
  facet normal 0.987688 0.156435 -1.91571e-017
    outer loop
      vertex -18.55 -7.34764e-016 4.5
      vertex -18.4007 -0.942502 4.5
      vertex -18.55 -1.28584e-015 0
    endloop
  endfacet
  facet normal 0.987688 -0.156435 1.91571e-017
    outer loop
      vertex 12.45 -1.28584e-015 0
      vertex 12.5993 0.942502 -1.15419e-016
      vertex 12.5993 0.942502 5
    endloop
  endfacet
  facet normal 0.987688 -0.156435 1.91571e-017
    outer loop
      vertex 12.45 -6.73533e-016 5
      vertex 12.45 -1.28584e-015 0
      vertex 12.5993 0.942502 5
    endloop
  endfacet
  facet normal 0.891007 -0.45399 5.55959e-017
    outer loop
      vertex 12.5993 0.942502 -1.15419e-016
      vertex 13.0325 1.79274 -2.19541e-016
      vertex 13.0325 1.79274 5
    endloop
  endfacet
  facet normal 0.891007 -0.45399 5.55959e-017
    outer loop
      vertex 12.5993 0.942502 5
      vertex 12.5993 0.942502 -1.15419e-016
      vertex 13.0325 1.79274 5
    endloop
  endfacet
  facet normal 0.707107 -0.707107 8.65927e-017
    outer loop
      vertex 13.0325 1.79274 -2.19541e-016
      vertex 13.7073 2.4675 -3.02172e-016
      vertex 13.7073 2.4675 5
    endloop
  endfacet
  facet normal 0.707107 -0.707107 8.65927e-017
    outer loop
      vertex 13.0325 1.79274 5
      vertex 13.0325 1.79274 -2.19541e-016
      vertex 13.7073 2.4675 5
    endloop
  endfacet
  facet normal 0.45399 -0.891007 1.09113e-016
    outer loop
      vertex 13.7073 2.4675 -3.02172e-016
      vertex 14.5575 2.90072 -3.55224e-016
      vertex 14.5575 2.90072 5
    endloop
  endfacet
  facet normal 0.45399 -0.891007 1.09113e-016
    outer loop
      vertex 13.7073 2.4675 5
      vertex 13.7073 2.4675 -3.02172e-016
      vertex 14.5575 2.90072 5
    endloop
  endfacet
  facet normal 0.156435 -0.987688 1.20953e-016
    outer loop
      vertex 14.5575 2.90072 -3.55224e-016
      vertex 15.5 3.05 -3.73505e-016
      vertex 15.5 3.05 5
    endloop
  endfacet
  facet normal 0.156435 -0.987688 1.20953e-016
    outer loop
      vertex 14.5575 2.90072 5
      vertex 14.5575 2.90072 -3.55224e-016
      vertex 15.5 3.05 5
    endloop
  endfacet
  facet normal -0.156435 -0.987688 1.20953e-016
    outer loop
      vertex 15.5 3.05 -3.73505e-016
      vertex 16.4425 2.90072 -3.55224e-016
      vertex 16.4425 2.90072 5
    endloop
  endfacet
  facet normal -0.156435 -0.987688 1.20953e-016
    outer loop
      vertex 15.5 3.05 5
      vertex 15.5 3.05 -3.73505e-016
      vertex 16.4425 2.90072 5
    endloop
  endfacet
  facet normal -0.45399 -0.891007 1.09113e-016
    outer loop
      vertex 16.4425 2.90072 -3.55224e-016
      vertex 17.2927 2.4675 -3.02172e-016
      vertex 17.2927 2.4675 5
    endloop
  endfacet
  facet normal -0.45399 -0.891007 1.09113e-016
    outer loop
      vertex 16.4425 2.90072 5
      vertex 16.4425 2.90072 -3.55224e-016
      vertex 17.2927 2.4675 5
    endloop
  endfacet
  facet normal -0.707107 -0.707107 8.65927e-017
    outer loop
      vertex 17.9675 1.79274 -2.19541e-016
      vertex 17.9675 1.79274 5
      vertex 17.2927 2.4675 -3.02172e-016
    endloop
  endfacet
  facet normal -0.707107 -0.707107 8.65927e-017
    outer loop
      vertex 17.2927 2.4675 -3.02172e-016
      vertex 17.9675 1.79274 5
      vertex 17.2927 2.4675 5
    endloop
  endfacet
  facet normal -0.891007 -0.45399 5.55959e-017
    outer loop
      vertex 18.4007 0.942502 -1.15419e-016
      vertex 18.4007 0.942502 5
      vertex 17.9675 1.79274 -2.19541e-016
    endloop
  endfacet
  facet normal -0.891007 -0.45399 5.55959e-017
    outer loop
      vertex 17.9675 1.79274 -2.19541e-016
      vertex 18.4007 0.942502 5
      vertex 17.9675 1.79274 5
    endloop
  endfacet
  facet normal -0.987688 -0.156435 1.91571e-017
    outer loop
      vertex 18.55 -1.28584e-015 0
      vertex 18.55 -6.73533e-016 5
      vertex 18.4007 0.942502 -1.15419e-016
    endloop
  endfacet
  facet normal -0.987688 -0.156435 1.91571e-017
    outer loop
      vertex 18.4007 0.942502 -1.15419e-016
      vertex 18.55 -6.73533e-016 5
      vertex 18.4007 0.942502 5
    endloop
  endfacet
  facet normal -0.987688 0.156435 -1.91571e-017
    outer loop
      vertex 18.55 -1.28584e-015 0
      vertex 18.4007 -0.942502 1.15419e-016
      vertex 18.55 -6.73533e-016 5
    endloop
  endfacet
  facet normal -0.987688 0.156435 -1.91571e-017
    outer loop
      vertex 18.55 -6.73533e-016 5
      vertex 18.4007 -0.942502 1.15419e-016
      vertex 18.4007 -0.942502 5
    endloop
  endfacet
  facet normal -0.891007 0.45399 -5.55959e-017
    outer loop
      vertex 18.4007 -0.942502 1.15419e-016
      vertex 17.9675 -1.79275 2.19541e-016
      vertex 18.4007 -0.942502 5
    endloop
  endfacet
  facet normal -0.891007 0.45399 -5.55959e-017
    outer loop
      vertex 18.4007 -0.942502 5
      vertex 17.9675 -1.79275 2.19541e-016
      vertex 17.9675 -1.79275 5
    endloop
  endfacet
  facet normal -0.707107 0.707107 -8.65927e-017
    outer loop
      vertex 17.9675 -1.79275 2.19541e-016
      vertex 17.2927 -2.4675 3.02172e-016
      vertex 17.9675 -1.79275 5
    endloop
  endfacet
  facet normal -0.707107 0.707107 -8.65927e-017
    outer loop
      vertex 17.9675 -1.79275 5
      vertex 17.2927 -2.4675 3.02172e-016
      vertex 17.2927 -2.4675 5
    endloop
  endfacet
  facet normal -0.45399 0.891007 -1.09113e-016
    outer loop
      vertex 17.2927 -2.4675 3.02172e-016
      vertex 16.4425 -2.90072 3.55224e-016
      vertex 17.2927 -2.4675 5
    endloop
  endfacet
  facet normal -0.45399 0.891007 -1.09113e-016
    outer loop
      vertex 17.2927 -2.4675 5
      vertex 16.4425 -2.90072 3.55224e-016
      vertex 16.4425 -2.90072 5
    endloop
  endfacet
  facet normal -0.156435 0.987688 -1.20953e-016
    outer loop
      vertex 16.4425 -2.90072 3.55224e-016
      vertex 15.5 -3.05 3.73505e-016
      vertex 16.4425 -2.90072 5
    endloop
  endfacet
  facet normal -0.156435 0.987688 -1.20953e-016
    outer loop
      vertex 16.4425 -2.90072 5
      vertex 15.5 -3.05 3.73505e-016
      vertex 15.5 -3.05 5
    endloop
  endfacet
  facet normal 0.156435 0.987688 -1.20953e-016
    outer loop
      vertex 15.5 -3.05 3.73505e-016
      vertex 14.5575 -2.90072 3.55224e-016
      vertex 15.5 -3.05 5
    endloop
  endfacet
  facet normal 0.156435 0.987688 -1.20953e-016
    outer loop
      vertex 15.5 -3.05 5
      vertex 14.5575 -2.90072 3.55224e-016
      vertex 14.5575 -2.90072 5
    endloop
  endfacet
  facet normal 0.45399 0.891007 -1.09113e-016
    outer loop
      vertex 14.5575 -2.90072 3.55224e-016
      vertex 13.7073 -2.4675 3.02172e-016
      vertex 14.5575 -2.90072 5
    endloop
  endfacet
  facet normal 0.45399 0.891007 -1.09113e-016
    outer loop
      vertex 14.5575 -2.90072 5
      vertex 13.7073 -2.4675 3.02172e-016
      vertex 13.7073 -2.4675 5
    endloop
  endfacet
  facet normal 0.707107 0.707107 -8.65927e-017
    outer loop
      vertex 13.7073 -2.4675 5
      vertex 13.7073 -2.4675 3.02172e-016
      vertex 13.0325 -1.79275 2.19541e-016
    endloop
  endfacet
  facet normal 0.707107 0.707107 -8.65927e-017
    outer loop
      vertex 13.0325 -1.79275 5
      vertex 13.7073 -2.4675 5
      vertex 13.0325 -1.79275 2.19541e-016
    endloop
  endfacet
  facet normal 0.891007 0.45399 -5.55959e-017
    outer loop
      vertex 13.0325 -1.79275 2.19541e-016
      vertex 12.6795 -1.1 2
      vertex 13 -1.72896 2
    endloop
  endfacet
  facet normal 0.891007 0.45399 -5.55959e-017
    outer loop
      vertex 12.6795 -1.1 5
      vertex 12.6795 -1.1 2
      vertex 12.5993 -0.942502 1.15419e-016
    endloop
  endfacet
  facet normal 0.891007 0.45399 -5.55959e-017
    outer loop
      vertex 13 -1.72896 5
      vertex 13.0325 -1.79275 5
      vertex 13 -1.72896 2
    endloop
  endfacet
  facet normal 0.891007 0.45399 -5.55959e-017
    outer loop
      vertex 13.0325 -1.79275 5
      vertex 13.0325 -1.79275 2.19541e-016
      vertex 13 -1.72896 2
    endloop
  endfacet
  facet normal 0.891007 0.45399 -5.55959e-017
    outer loop
      vertex 13.0325 -1.79275 2.19541e-016
      vertex 12.5993 -0.942502 1.15419e-016
      vertex 12.6795 -1.1 2
    endloop
  endfacet
  facet normal 0.891007 0.45399 -5.55959e-017
    outer loop
      vertex 12.5993 -0.942502 1.15419e-016
      vertex 12.5993 -0.942502 5
      vertex 12.6795 -1.1 5
    endloop
  endfacet
  facet normal 0.987688 0.156435 -1.91571e-017
    outer loop
      vertex 12.5993 -0.942502 5
      vertex 12.5993 -0.942502 1.15419e-016
      vertex 12.45 -1.28584e-015 0
    endloop
  endfacet
  facet normal 0.987688 0.156435 -1.91571e-017
    outer loop
      vertex 12.45 -6.73533e-016 5
      vertex 12.5993 -0.942502 5
      vertex 12.45 -1.28584e-015 0
    endloop
  endfacet
  facet normal 0 1 -1.22461e-016
    outer loop
      vertex -3.81222 -2.6 2.19098
      vertex 10.7 -2.6 3
      vertex -4.09098 -2.6 2.04894
    endloop
  endfacet
  facet normal 0 1 -1.22461e-016
    outer loop
      vertex -3.81222 -2.6 2.19098
      vertex -3.59098 -2.6 2.41221
      vertex 10.7 -2.6 3
    endloop
  endfacet
  facet normal 0 1 -1.22461e-016
    outer loop
      vertex 10.7 -2.6 3
      vertex -3.44894 -2.6 2.69098
      vertex -3.4 -2.6 3
    endloop
  endfacet
  facet normal 0 1 -1.22461e-016
    outer loop
      vertex -3.59098 -2.6 2.41221
      vertex -3.44894 -2.6 2.69098
      vertex 10.7 -2.6 3
    endloop
  endfacet
  facet normal 0 1 -1.22461e-016
    outer loop
      vertex 11.5 -2.6 10.5
      vertex 10.7 -2.6 3
      vertex 10.7 -2.6 10.5
    endloop
  endfacet
  facet normal 0 1 -1.22461e-016
    outer loop
      vertex 11.5 -2.6 2
      vertex 10.7 -2.6 3
      vertex 11.5 -2.6 10.5
    endloop
  endfacet
  facet normal 0 1 -1.22461e-016
    outer loop
      vertex -4.09098 -2.6 2.04894
      vertex 10.7 -2.6 3
      vertex 11.5 -2.6 2
    endloop
  endfacet
  facet normal 0 1 -1.22461e-016
    outer loop
      vertex 11.5 -2.6 2
      vertex -4.4 -2.6 2
      vertex -4.09098 -2.6 2.04894
    endloop
  endfacet
  facet normal 0 1 -1.22461e-016
    outer loop
      vertex 13 -2.6 2
      vertex 11.5 -2.6 2
      vertex 13 -2.6 10.5
    endloop
  endfacet
  facet normal 0 1 -1.22461e-016
    outer loop
      vertex 13 -2.6 10.5
      vertex 11.5 -2.6 2
      vertex 11.5 -2.6 10.5
    endloop
  endfacet
  facet normal -1 0 0
    outer loop
      vertex 13 -1.72896 5
      vertex 13 -1.72896 2
      vertex 13 -2.6 2
    endloop
  endfacet
  facet normal -1 0 0
    outer loop
      vertex 13 -1.72896 5
      vertex 13 -2.6 2
      vertex 13 -2.6 10.5
    endloop
  endfacet
  facet normal -1 0 0
    outer loop
      vertex 13 -1.72896 5
      vertex 13 -2.6 10.5
      vertex 13 -1.1 5
    endloop
  endfacet
  facet normal -1 0 0
    outer loop
      vertex 13 -2.6 10.5
      vertex 13 -1.1 10.5
      vertex 13 -1.1 5
    endloop
  endfacet
  facet normal 0 -1 1.22461e-016
    outer loop
      vertex 11.9 -1.1 2
      vertex 12.6795 -1.1 2
      vertex 12.6795 -1.1 5
    endloop
  endfacet
  facet normal 0 -1 1.22461e-016
    outer loop
      vertex 13 -1.1 5
      vertex 13 -1.1 10.5
      vertex 12.6795 -1.1 5
    endloop
  endfacet
  facet normal 0 -1 1.22461e-016
    outer loop
      vertex 11.5 -1.1 2
      vertex 12.6795 -1.1 2
      vertex 11.9 -1.1 2
    endloop
  endfacet
  facet normal 0 -1 1.22461e-016
    outer loop
      vertex 11.9 -1.1 10.5
      vertex 12.6795 -1.1 5
      vertex 13 -1.1 10.5
    endloop
  endfacet
  facet normal 0 -1 1.22461e-016
    outer loop
      vertex 11.9 -1.1 10.5
      vertex 11.9 -1.1 2
      vertex 12.6795 -1.1 5
    endloop
  endfacet
  facet normal 0.987688 0.156435 -1.91572e-017
    outer loop
      vertex 13.9783 -0.494427 10.5
      vertex 13.9783 -0.494427 6
      vertex 13.9 -5.51073e-016 6
    endloop
  endfacet
  facet normal 0.987688 0.156435 -1.91572e-017
    outer loop
      vertex 13.9 0 10.5
      vertex 13.9783 -0.494427 10.5
      vertex 13.9 -5.51073e-016 6
    endloop
  endfacet
  facet normal 0.987688 -0.156435 1.91572e-017
    outer loop
      vertex 13.9 -5.51073e-016 6
      vertex 13.9783 0.494427 6
      vertex 13.9783 0.494427 10.5
    endloop
  endfacet
  facet normal 0.987688 -0.156435 1.91572e-017
    outer loop
      vertex 13.9 0 10.5
      vertex 13.9 -5.51073e-016 6
      vertex 13.9783 0.494427 10.5
    endloop
  endfacet
  facet normal 0.891007 0.45399 -5.55959e-017
    outer loop
      vertex 14.2056 -0.940456 10.5
      vertex 14.2056 -0.940456 6
      vertex 13.9783 -0.494427 6
    endloop
  endfacet
  facet normal 0.891007 0.45399 -5.55959e-017
    outer loop
      vertex 13.9783 -0.494427 10.5
      vertex 14.2056 -0.940456 10.5
      vertex 13.9783 -0.494427 6
    endloop
  endfacet
  facet normal 0.707107 0.707107 -8.65927e-017
    outer loop
      vertex 14.5595 -1.29443 10.5
      vertex 14.5595 -1.29443 6
      vertex 14.2056 -0.940456 6
    endloop
  endfacet
  facet normal 0.707107 0.707107 -8.65927e-017
    outer loop
      vertex 14.2056 -0.940456 10.5
      vertex 14.5595 -1.29443 10.5
      vertex 14.2056 -0.940456 6
    endloop
  endfacet
  facet normal 0.45399 0.891007 -1.09113e-016
    outer loop
      vertex 15.0056 -1.52169 6
      vertex 14.5595 -1.29443 6
      vertex 15.0056 -1.52169 10.5
    endloop
  endfacet
  facet normal 0.45399 0.891007 -1.09113e-016
    outer loop
      vertex 15.0056 -1.52169 10.5
      vertex 14.5595 -1.29443 6
      vertex 14.5595 -1.29443 10.5
    endloop
  endfacet
  facet normal 0.156435 0.987688 -1.20953e-016
    outer loop
      vertex 15.5 -1.6 6
      vertex 15.0056 -1.52169 6
      vertex 15.5 -1.6 10.5
    endloop
  endfacet
  facet normal 0.156435 0.987688 -1.20953e-016
    outer loop
      vertex 15.5 -1.6 10.5
      vertex 15.0056 -1.52169 6
      vertex 15.0056 -1.52169 10.5
    endloop
  endfacet
  facet normal -0.156435 0.987688 -1.20953e-016
    outer loop
      vertex 15.9944 -1.52169 6
      vertex 15.5 -1.6 6
      vertex 15.9944 -1.52169 10.5
    endloop
  endfacet
  facet normal -0.156435 0.987688 -1.20953e-016
    outer loop
      vertex 15.9944 -1.52169 10.5
      vertex 15.5 -1.6 6
      vertex 15.5 -1.6 10.5
    endloop
  endfacet
  facet normal -0.45399 0.891007 -1.09113e-016
    outer loop
      vertex 16.4405 -1.29443 6
      vertex 15.9944 -1.52169 6
      vertex 16.4405 -1.29443 10.5
    endloop
  endfacet
  facet normal -0.45399 0.891007 -1.09113e-016
    outer loop
      vertex 16.4405 -1.29443 10.5
      vertex 15.9944 -1.52169 6
      vertex 15.9944 -1.52169 10.5
    endloop
  endfacet
  facet normal -0.707107 0.707107 -8.65927e-017
    outer loop
      vertex 16.7944 -0.940456 6
      vertex 16.4405 -1.29443 6
      vertex 16.7944 -0.940456 10.5
    endloop
  endfacet
  facet normal -0.707107 0.707107 -8.65927e-017
    outer loop
      vertex 16.7944 -0.940456 10.5
      vertex 16.4405 -1.29443 6
      vertex 16.4405 -1.29443 10.5
    endloop
  endfacet
  facet normal -0.891007 0.45399 -5.55959e-017
    outer loop
      vertex 17.0217 -0.494427 6
      vertex 16.7944 -0.940456 6
      vertex 17.0217 -0.494427 10.5
    endloop
  endfacet
  facet normal -0.891007 0.45399 -5.55959e-017
    outer loop
      vertex 17.0217 -0.494427 10.5
      vertex 16.7944 -0.940456 6
      vertex 16.7944 -0.940456 10.5
    endloop
  endfacet
  facet normal -0.987688 0.156435 -1.91572e-017
    outer loop
      vertex 17.1 -5.51073e-016 6
      vertex 17.0217 -0.494427 6
      vertex 17.1 0 10.5
    endloop
  endfacet
  facet normal -0.987688 0.156435 -1.91572e-017
    outer loop
      vertex 17.1 0 10.5
      vertex 17.0217 -0.494427 6
      vertex 17.0217 -0.494427 10.5
    endloop
  endfacet
  facet normal -0.987688 -0.156435 1.91572e-017
    outer loop
      vertex 17.1 -5.51073e-016 6
      vertex 17.1 0 10.5
      vertex 17.0217 0.494427 6
    endloop
  endfacet
  facet normal -0.987688 -0.156435 1.91572e-017
    outer loop
      vertex 17.0217 0.494427 6
      vertex 17.1 0 10.5
      vertex 17.0217 0.494427 10.5
    endloop
  endfacet
  facet normal -0.891007 -0.45399 5.55959e-017
    outer loop
      vertex 17.0217 0.494427 6
      vertex 17.0217 0.494427 10.5
      vertex 16.7944 0.940456 6
    endloop
  endfacet
  facet normal -0.891007 -0.45399 5.55959e-017
    outer loop
      vertex 16.7944 0.940456 6
      vertex 17.0217 0.494427 10.5
      vertex 16.7944 0.940456 10.5
    endloop
  endfacet
  facet normal -0.707107 -0.707107 8.65927e-017
    outer loop
      vertex 16.7944 0.940456 6
      vertex 16.7944 0.940456 10.5
      vertex 16.4405 1.29443 6
    endloop
  endfacet
  facet normal -0.707107 -0.707107 8.65927e-017
    outer loop
      vertex 16.4405 1.29443 6
      vertex 16.7944 0.940456 10.5
      vertex 16.4405 1.29443 10.5
    endloop
  endfacet
  facet normal -0.45399 -0.891007 1.09113e-016
    outer loop
      vertex 15.9944 1.52169 6
      vertex 16.4405 1.29443 6
      vertex 16.4405 1.29443 10.5
    endloop
  endfacet
  facet normal -0.45399 -0.891007 1.09113e-016
    outer loop
      vertex 15.9944 1.52169 10.5
      vertex 15.9944 1.52169 6
      vertex 16.4405 1.29443 10.5
    endloop
  endfacet
  facet normal -0.156435 -0.987688 1.20953e-016
    outer loop
      vertex 15.5 1.6 6
      vertex 15.9944 1.52169 6
      vertex 15.9944 1.52169 10.5
    endloop
  endfacet
  facet normal -0.156435 -0.987688 1.20953e-016
    outer loop
      vertex 15.5 1.6 10.5
      vertex 15.5 1.6 6
      vertex 15.9944 1.52169 10.5
    endloop
  endfacet
  facet normal 0.156435 -0.987688 1.20953e-016
    outer loop
      vertex 15.0056 1.52169 6
      vertex 15.5 1.6 6
      vertex 15.5 1.6 10.5
    endloop
  endfacet
  facet normal 0.156435 -0.987688 1.20953e-016
    outer loop
      vertex 15.0056 1.52169 10.5
      vertex 15.0056 1.52169 6
      vertex 15.5 1.6 10.5
    endloop
  endfacet
  facet normal 0.45399 -0.891007 1.09113e-016
    outer loop
      vertex 14.5595 1.29443 6
      vertex 15.0056 1.52169 6
      vertex 15.0056 1.52169 10.5
    endloop
  endfacet
  facet normal 0.45399 -0.891007 1.09113e-016
    outer loop
      vertex 14.5595 1.29443 10.5
      vertex 14.5595 1.29443 6
      vertex 15.0056 1.52169 10.5
    endloop
  endfacet
  facet normal 0.707107 -0.707107 8.65927e-017
    outer loop
      vertex 14.2056 0.940456 6
      vertex 14.5595 1.29443 6
      vertex 14.5595 1.29443 10.5
    endloop
  endfacet
  facet normal 0.707107 -0.707107 8.65927e-017
    outer loop
      vertex 14.2056 0.940456 10.5
      vertex 14.2056 0.940456 6
      vertex 14.5595 1.29443 10.5
    endloop
  endfacet
  facet normal 0.891007 -0.45399 5.55959e-017
    outer loop
      vertex 13.9783 0.494427 6
      vertex 14.2056 0.940456 6
      vertex 14.2056 0.940456 10.5
    endloop
  endfacet
  facet normal 0.891007 -0.45399 5.55959e-017
    outer loop
      vertex 13.9783 0.494427 10.5
      vertex 13.9783 0.494427 6
      vertex 14.2056 0.940456 10.5
    endloop
  endfacet
  facet normal 0 -1.22461e-016 -1
    outer loop
      vertex -17.9675 1.79274 4.5
      vertex -17.2927 2.4675 4.5
      vertex -18.4007 0.942502 4.5
    endloop
  endfacet
  facet normal 0 -1.22461e-016 -1
    outer loop
      vertex -18.4007 0.942502 4.5
      vertex -17.2927 2.4675 4.5
      vertex -16.4425 2.90072 4.5
    endloop
  endfacet
  facet normal 0 -1.22461e-016 -1
    outer loop
      vertex -18.4007 0.942502 4.5
      vertex -16.4425 2.90072 4.5
      vertex -15.5 3.05 4.5
    endloop
  endfacet
  facet normal 0 -1.22461e-016 -1
    outer loop
      vertex -18.4007 0.942502 4.5
      vertex -15.5 3.05 4.5
      vertex -14.5575 2.90072 4.5
    endloop
  endfacet
  facet normal 0 -1.22461e-016 -1
    outer loop
      vertex -18.4007 0.942502 4.5
      vertex -14.5575 2.90072 4.5
      vertex -13.7073 2.4675 4.5
    endloop
  endfacet
  facet normal 0 -1.22461e-016 -1
    outer loop
      vertex -18.4007 0.942502 4.5
      vertex -13.7073 2.4675 4.5
      vertex -13.0325 1.79274 4.5
    endloop
  endfacet
  facet normal 0 -1.22461e-016 -1
    outer loop
      vertex -18.4007 0.942502 4.5
      vertex -13.0325 1.79274 4.5
      vertex -12.5993 0.942502 4.5
    endloop
  endfacet
  facet normal 0 -1.22461e-016 -1
    outer loop
      vertex -18.4007 0.942502 4.5
      vertex -12.5993 0.942502 4.5
      vertex -12.45 -7.34764e-016 4.5
    endloop
  endfacet
  facet normal 0 -1.22461e-016 -1
    outer loop
      vertex -18.4007 0.942502 4.5
      vertex -12.45 -7.34764e-016 4.5
      vertex -12.5993 -0.942502 4.5
    endloop
  endfacet
  facet normal 0 -1.22461e-016 -1
    outer loop
      vertex -18.4007 0.942502 4.5
      vertex -12.5993 -0.942502 4.5
      vertex -12.6795 -1.1 4.5
    endloop
  endfacet
  facet normal 0 -1.22461e-016 -1
    outer loop
      vertex -18.4007 0.942502 4.5
      vertex -12.6795 -1.1 4.5
      vertex -13 -1.1 4.5
    endloop
  endfacet
  facet normal 0 -1.22461e-016 -1
    outer loop
      vertex -18.4007 0.942502 4.5
      vertex -13 -1.1 4.5
      vertex -13 -1.72896 4.5
    endloop
  endfacet
  facet normal 0 -1.22461e-016 -1
    outer loop
      vertex -18.4007 0.942502 4.5
      vertex -13 -1.72896 4.5
      vertex -13.0325 -1.79275 4.5
    endloop
  endfacet
  facet normal 0 -1.22461e-016 -1
    outer loop
      vertex -18.4007 0.942502 4.5
      vertex -13.0325 -1.79275 4.5
      vertex -13.7073 -2.4675 4.5
    endloop
  endfacet
  facet normal 0 -1.22461e-016 -1
    outer loop
      vertex -18.4007 0.942502 4.5
      vertex -13.7073 -2.4675 4.5
      vertex -14.5575 -2.90072 4.5
    endloop
  endfacet
  facet normal 0 -1.22461e-016 -1
    outer loop
      vertex -18.4007 0.942502 4.5
      vertex -14.5575 -2.90072 4.5
      vertex -15.5 -3.05 4.5
    endloop
  endfacet
  facet normal 0 -1.22461e-016 -1
    outer loop
      vertex -18.4007 0.942502 4.5
      vertex -15.5 -3.05 4.5
      vertex -16.4425 -2.90072 4.5
    endloop
  endfacet
  facet normal 0 -1.22461e-016 -1
    outer loop
      vertex -18.4007 0.942502 4.5
      vertex -16.4425 -2.90072 4.5
      vertex -17.2927 -2.4675 4.5
    endloop
  endfacet
  facet normal 0 -1.22461e-016 -1
    outer loop
      vertex -18.4007 0.942502 4.5
      vertex -17.2927 -2.4675 4.5
      vertex -17.9675 -1.79275 4.5
    endloop
  endfacet
  facet normal 0 -1.22461e-016 -1
    outer loop
      vertex -18.4007 0.942502 4.5
      vertex -17.9675 -1.79275 4.5
      vertex -18.4007 -0.942502 4.5
    endloop
  endfacet
  facet normal 0 -1.22461e-016 -1
    outer loop
      vertex -18.4007 0.942502 4.5
      vertex -18.4007 -0.942502 4.5
      vertex -18.55 -7.34764e-016 4.5
    endloop
  endfacet
  facet normal 0 1.22461e-016 1
    outer loop
      vertex -13 -2.6 2
      vertex -11.5 -2.6 2
      vertex -11.5 -1.1 2
    endloop
  endfacet
  facet normal 0 1.22461e-016 1
    outer loop
      vertex -13 -1.72896 2
      vertex -13 -2.6 2
      vertex -12.6795 -1.1 2
    endloop
  endfacet
  facet normal 0 1.22461e-016 1
    outer loop
      vertex -12.6795 -1.1 2
      vertex -13 -2.6 2
      vertex -11.5 -1.1 2
    endloop
  endfacet
  facet normal 0 1.22461e-016 1
    outer loop
      vertex -17.0217 -0.494427 6
      vertex -16.7944 -0.940456 6
      vertex -16.4405 -1.29443 6
    endloop
  endfacet
  facet normal 0 1.22461e-016 1
    outer loop
      vertex -15.5 -1.6 6
      vertex -17.0217 -0.494427 6
      vertex -15.9944 -1.52169 6
    endloop
  endfacet
  facet normal 0 1.22461e-016 1
    outer loop
      vertex -15.9944 -1.52169 6
      vertex -17.0217 -0.494427 6
      vertex -16.4405 -1.29443 6
    endloop
  endfacet
  facet normal 0 1.22461e-016 1
    outer loop
      vertex -15.0056 -1.52169 6
      vertex -17.0217 -0.494427 6
      vertex -15.5 -1.6 6
    endloop
  endfacet
  facet normal 0 1.22461e-016 1
    outer loop
      vertex -14.5595 -1.29443 6
      vertex -17.0217 -0.494427 6
      vertex -15.0056 -1.52169 6
    endloop
  endfacet
  facet normal 0 1.22461e-016 1
    outer loop
      vertex -14.2056 -0.940456 6
      vertex -17.0217 -0.494427 6
      vertex -14.5595 -1.29443 6
    endloop
  endfacet
  facet normal 0 1.22461e-016 1
    outer loop
      vertex -13.9783 -0.494427 6
      vertex -17.0217 -0.494427 6
      vertex -14.2056 -0.940456 6
    endloop
  endfacet
  facet normal 0 1.22461e-016 1
    outer loop
      vertex -13.9 -5.51073e-016 6
      vertex -17.0217 -0.494427 6
      vertex -13.9783 -0.494427 6
    endloop
  endfacet
  facet normal 0 1.22461e-016 1
    outer loop
      vertex -13.9783 0.494427 6
      vertex -17.0217 -0.494427 6
      vertex -13.9 -5.51073e-016 6
    endloop
  endfacet
  facet normal 0 1.22461e-016 1
    outer loop
      vertex -14.2056 0.940456 6
      vertex -17.0217 -0.494427 6
      vertex -13.9783 0.494427 6
    endloop
  endfacet
  facet normal 0 1.22461e-016 1
    outer loop
      vertex -14.5595 1.29443 6
      vertex -17.0217 -0.494427 6
      vertex -14.2056 0.940456 6
    endloop
  endfacet
  facet normal 0 1.22461e-016 1
    outer loop
      vertex -15.0056 1.52169 6
      vertex -17.0217 -0.494427 6
      vertex -14.5595 1.29443 6
    endloop
  endfacet
  facet normal 0 1.22461e-016 1
    outer loop
      vertex -15.5 1.6 6
      vertex -17.0217 -0.494427 6
      vertex -15.0056 1.52169 6
    endloop
  endfacet
  facet normal 0 1.22461e-016 1
    outer loop
      vertex -15.9944 1.52169 6
      vertex -17.0217 -0.494427 6
      vertex -15.5 1.6 6
    endloop
  endfacet
  facet normal 0 1.22461e-016 1
    outer loop
      vertex -16.4405 1.29443 6
      vertex -17.0217 -0.494427 6
      vertex -15.9944 1.52169 6
    endloop
  endfacet
  facet normal 0 1.22461e-016 1
    outer loop
      vertex -16.7944 0.940456 6
      vertex -17.0217 -0.494427 6
      vertex -16.4405 1.29443 6
    endloop
  endfacet
  facet normal 0 1.22461e-016 1
    outer loop
      vertex -17.0217 0.494427 6
      vertex -17.0217 -0.494427 6
      vertex -16.7944 0.940456 6
    endloop
  endfacet
  facet normal 0 1.22461e-016 1
    outer loop
      vertex -17.1 -5.51073e-016 6
      vertex -17.0217 -0.494427 6
      vertex -17.0217 0.494427 6
    endloop
  endfacet
  facet normal 0 -1.22461e-016 -1
    outer loop
      vertex 13.0325 1.79274 5
      vertex 13.7073 2.4675 5
      vertex 12.5993 0.942502 5
    endloop
  endfacet
  facet normal 0 -1.22461e-016 -1
    outer loop
      vertex 12.5993 0.942502 5
      vertex 13.7073 2.4675 5
      vertex 14.5575 2.90072 5
    endloop
  endfacet
  facet normal 0 -1.22461e-016 -1
    outer loop
      vertex 12.5993 0.942502 5
      vertex 14.5575 2.90072 5
      vertex 15.5 3.05 5
    endloop
  endfacet
  facet normal 0 -1.22461e-016 -1
    outer loop
      vertex 12.5993 0.942502 5
      vertex 15.5 3.05 5
      vertex 16.4425 2.90072 5
    endloop
  endfacet
  facet normal 0 -1.22461e-016 -1
    outer loop
      vertex 12.5993 0.942502 5
      vertex 16.4425 2.90072 5
      vertex 17.2927 2.4675 5
    endloop
  endfacet
  facet normal 0 -1.22461e-016 -1
    outer loop
      vertex 12.5993 0.942502 5
      vertex 17.2927 2.4675 5
      vertex 17.9675 1.79274 5
    endloop
  endfacet
  facet normal 0 -1.22461e-016 -1
    outer loop
      vertex 12.5993 0.942502 5
      vertex 17.9675 1.79274 5
      vertex 18.4007 0.942502 5
    endloop
  endfacet
  facet normal 0 -1.22461e-016 -1
    outer loop
      vertex 12.5993 0.942502 5
      vertex 18.4007 0.942502 5
      vertex 18.55 -6.73533e-016 5
    endloop
  endfacet
  facet normal 0 -1.22461e-016 -1
    outer loop
      vertex 12.5993 0.942502 5
      vertex 18.55 -6.73533e-016 5
      vertex 18.4007 -0.942502 5
    endloop
  endfacet
  facet normal 0 -1.22461e-016 -1
    outer loop
      vertex 12.5993 0.942502 5
      vertex 18.4007 -0.942502 5
      vertex 17.9675 -1.79275 5
    endloop
  endfacet
  facet normal 0 -1.22461e-016 -1
    outer loop
      vertex 12.5993 0.942502 5
      vertex 17.9675 -1.79275 5
      vertex 17.2927 -2.4675 5
    endloop
  endfacet
  facet normal 0 -1.22461e-016 -1
    outer loop
      vertex 12.5993 0.942502 5
      vertex 17.2927 -2.4675 5
      vertex 16.4425 -2.90072 5
    endloop
  endfacet
  facet normal 0 -1.22461e-016 -1
    outer loop
      vertex 12.5993 0.942502 5
      vertex 16.4425 -2.90072 5
      vertex 15.5 -3.05 5
    endloop
  endfacet
  facet normal 0 -1.22461e-016 -1
    outer loop
      vertex 12.5993 0.942502 5
      vertex 15.5 -3.05 5
      vertex 14.5575 -2.90072 5
    endloop
  endfacet
  facet normal 0 -1.22461e-016 -1
    outer loop
      vertex 12.5993 0.942502 5
      vertex 14.5575 -2.90072 5
      vertex 13.7073 -2.4675 5
    endloop
  endfacet
  facet normal 0 -1.22461e-016 -1
    outer loop
      vertex 13 -1.1 5
      vertex 13.7073 -2.4675 5
      vertex 13.0325 -1.79275 5
    endloop
  endfacet
  facet normal 0 -1.22461e-016 -1
    outer loop
      vertex 12.5993 0.942502 5
      vertex 13.7073 -2.4675 5
      vertex 13 -1.1 5
    endloop
  endfacet
  facet normal 0 -1.22461e-016 -1
    outer loop
      vertex 12.6795 -1.1 5
      vertex 12.5993 0.942502 5
      vertex 13 -1.1 5
    endloop
  endfacet
  facet normal 0 -1.22461e-016 -1
    outer loop
      vertex 12.5993 0.942502 5
      vertex 12.6795 -1.1 5
      vertex 12.5993 -0.942502 5
    endloop
  endfacet
  facet normal 0 -1.22461e-016 -1
    outer loop
      vertex 12.5993 0.942502 5
      vertex 12.5993 -0.942502 5
      vertex 12.45 -6.73533e-016 5
    endloop
  endfacet
  facet normal 0 -1.22461e-016 -1
    outer loop
      vertex 13 -1.1 5
      vertex 13.0325 -1.79275 5
      vertex 13 -1.72896 5
    endloop
  endfacet
  facet normal 0 1.22461e-016 1
    outer loop
      vertex 11.5 -2.6 2
      vertex 13 -2.6 2
      vertex 13 -1.72896 2
    endloop
  endfacet
  facet normal 0 1.22461e-016 1
    outer loop
      vertex 11.5 -1.1 2
      vertex 11.5 -2.6 2
      vertex 12.6795 -1.1 2
    endloop
  endfacet
  facet normal 0 1.22461e-016 1
    outer loop
      vertex 12.6795 -1.1 2
      vertex 11.5 -2.6 2
      vertex 13 -1.72896 2
    endloop
  endfacet
  facet normal 0 1.22461e-016 1
    outer loop
      vertex 13.9783 -0.494427 6
      vertex 14.2056 -0.940456 6
      vertex 14.5595 -1.29443 6
    endloop
  endfacet
  facet normal 0 1.22461e-016 1
    outer loop
      vertex 15.5 -1.6 6
      vertex 13.9783 -0.494427 6
      vertex 15.0056 -1.52169 6
    endloop
  endfacet
  facet normal 0 1.22461e-016 1
    outer loop
      vertex 15.0056 -1.52169 6
      vertex 13.9783 -0.494427 6
      vertex 14.5595 -1.29443 6
    endloop
  endfacet
  facet normal 0 1.22461e-016 1
    outer loop
      vertex 15.9944 -1.52169 6
      vertex 13.9783 -0.494427 6
      vertex 15.5 -1.6 6
    endloop
  endfacet
  facet normal 0 1.22461e-016 1
    outer loop
      vertex 16.4405 -1.29443 6
      vertex 13.9783 -0.494427 6
      vertex 15.9944 -1.52169 6
    endloop
  endfacet
  facet normal 0 1.22461e-016 1
    outer loop
      vertex 16.7944 -0.940456 6
      vertex 13.9783 -0.494427 6
      vertex 16.4405 -1.29443 6
    endloop
  endfacet
  facet normal 0 1.22461e-016 1
    outer loop
      vertex 17.0217 -0.494427 6
      vertex 13.9783 -0.494427 6
      vertex 16.7944 -0.940456 6
    endloop
  endfacet
  facet normal 0 1.22461e-016 1
    outer loop
      vertex 17.1 -5.51073e-016 6
      vertex 13.9783 -0.494427 6
      vertex 17.0217 -0.494427 6
    endloop
  endfacet
  facet normal 0 1.22461e-016 1
    outer loop
      vertex 17.0217 0.494427 6
      vertex 13.9783 -0.494427 6
      vertex 17.1 -5.51073e-016 6
    endloop
  endfacet
  facet normal 0 1.22461e-016 1
    outer loop
      vertex 16.7944 0.940456 6
      vertex 13.9783 -0.494427 6
      vertex 17.0217 0.494427 6
    endloop
  endfacet
  facet normal 0 1.22461e-016 1
    outer loop
      vertex 16.4405 1.29443 6
      vertex 13.9783 -0.494427 6
      vertex 16.7944 0.940456 6
    endloop
  endfacet
  facet normal 0 1.22461e-016 1
    outer loop
      vertex 15.9944 1.52169 6
      vertex 13.9783 -0.494427 6
      vertex 16.4405 1.29443 6
    endloop
  endfacet
  facet normal 0 1.22461e-016 1
    outer loop
      vertex 15.5 1.6 6
      vertex 13.9783 -0.494427 6
      vertex 15.9944 1.52169 6
    endloop
  endfacet
  facet normal 0 1.22461e-016 1
    outer loop
      vertex 15.0056 1.52169 6
      vertex 13.9783 -0.494427 6
      vertex 15.5 1.6 6
    endloop
  endfacet
  facet normal 0 1.22461e-016 1
    outer loop
      vertex 14.5595 1.29443 6
      vertex 13.9783 -0.494427 6
      vertex 15.0056 1.52169 6
    endloop
  endfacet
  facet normal 0 1.22461e-016 1
    outer loop
      vertex 14.2056 0.940456 6
      vertex 13.9783 -0.494427 6
      vertex 14.5595 1.29443 6
    endloop
  endfacet
  facet normal 0 1.22461e-016 1
    outer loop
      vertex 13.9783 0.494427 6
      vertex 13.9783 -0.494427 6
      vertex 14.2056 0.940456 6
    endloop
  endfacet
  facet normal 0 1.22461e-016 1
    outer loop
      vertex 13.9 -5.51073e-016 6
      vertex 13.9783 -0.494427 6
      vertex 13.9783 0.494427 6
    endloop
  endfacet
endsolid OpenSCAD_Model
