999
dxfrw 0.5.10
0
SECTION
2
HEADER
9
$ACADVER
1
AC1021
9
$HANDSEED
5
20000
9
$DWGCODEPAGE
3
ANSI_1251
9
$INSBASE
10
0
20
0
30
0
9
$EXTMIN
10
10000000000
20
10000000000
30
0
9
$EXTMAX
10
-10000000000
20
-10000000000
30
0
9
$LIMMIN
10
0
20
0
9
$LIMMAX
10
12
20
9
9
$ORTHOMODE
70
0
9
$LTSCALE
40
1
9
$TEXTSTYLE
7
Standard
9
$CLAYER
8
0
9
$DIMASZ
40
5
9
$DIMLFAC
40
1
9
$DIMSCALE
40
1
9
$DIMEXO
40
2
9
$DIMEXE
40
1
9
$DIMTXT
40
5
9
$DIMTSZ
40
0
9
$DIMAUNIT
70
0
9
$DIMADEC
70
0
9
$DIMLUNIT
70
2
9
$DIMSTYLE
2
Standard
9
$DIMGAP
40
1
9
$DIMTIH
70
0
9
$LUNITS
70
2
9
$LUPREC
70
2
9
$AUNITS
70
0
9
$AUPREC
70
0
9
$SPLINESEGS
70
8
9
$GRIDMODE
70
1
9
$SNAPSTYLE
70
0
9
$GRIDUNIT
10
0
20
0
9
$PINSBASE
10
0
20
0
30
0
9
$PLIMMIN
10
0
20
0
9
$PLIMMAX
10
12
20
9
9
$INSUNITS
70
4
9
$PSVPSCALE
40
0
0
ENDSEC
0
SECTION
2
CLASSES
0
ENDSEC
0
SECTION
2
TABLES
0
TABLE
2
VPORT
5
8
330
0
100
AcDbSymbolTable
70
1
0
VPORT
5
31
330
2
100
AcDbSymbolTableRecord
100
AcDbViewportTableRecord
2
*ACTIVE
70
0
10
0
20
0
11
1
21
1
12
132.027698864
22
74.6164772728
13
0
23
0
14
10
24
10
15
10
25
10
16
0
26
0
36
1
17
0
27
0
37
0
40
239.0625
41
1.93484848485
42
50
43
0
44
0
50
0
51
0
71
0
72
100
73
1
74
3
75
0
76
1
77
0
78
0
281
0
65
1
110
0
120
0
130
0
111
1
121
0
131
0
112
0
122
1
132
0
79
0
146
0
348
10020
60
7
61
5
292
1
282
1
141
0
142
0
63
250
421
3358443
0
ENDTAB
0
TABLE
2
LTYPE
5
5
330
0
100
AcDbSymbolTable
70
4
0
LTYPE
5
14
330
5
100
AcDbSymbolTableRecord
100
AcDbLinetypeTableRecord
2
ByBlock
70
0
3

72
65
73
0
40
0
0
LTYPE
5
15
330
5
100
AcDbSymbolTableRecord
100
AcDbLinetypeTableRecord
2
ByLayer
70
0
3

72
65
73
0
40
0
0
LTYPE
5
16
330
5
100
AcDbSymbolTableRecord
100
AcDbLinetypeTableRecord
2
Continuous
70
0
3
Solid line
72
65
73
0
40
0
0
LTYPE
5
32
330
5
100
AcDbSymbolTableRecord
100
AcDbLinetypeTableRecord
2
DOT
70
0
3
Dot . . . . . . . . . . . . . . . . . . . . . .
72
65
73
2
40
6.35
49
0
74
0
49
-6.35
74
0
0
LTYPE
5
33
330
5
100
AcDbSymbolTableRecord
100
AcDbLinetypeTableRecord
2
DOT2
70
0
3
Dot (.5x) .....................................
72
65
73
2
40
3.175
49
0
74
0
49
-3.175
74
0
0
LTYPE
5
34
330
5
100
AcDbSymbolTableRecord
100
AcDbLinetypeTableRecord
2
DOTX2
70
0
3
Dot (2x) .  .  .  .  .  .  .  .  .  .  .  .  .
72
65
73
2
40
12.7
49
0
74
0
49
-12.7
74
0
0
LTYPE
5
35
330
5
100
AcDbSymbolTableRecord
100
AcDbLinetypeTableRecord
2
DASHED
70
0
3
Dot . . . . . . . . . . . . . . . . . . . . . .
72
65
73
2
40
19.05
49
12.7
74
0
49
-6.35
74
0
0
LTYPE
5
36
330
5
100
AcDbSymbolTableRecord
100
AcDbLinetypeTableRecord
2
DASHED2
70
0
3
Dashed (.5x) _ _ _ _ _ _ _ _ _ _ _ _ _ _ _ _ _
72
65
73
2
40
9.525
49
6.35
74
0
49
-3.175
74
0
0
LTYPE
5
37
330
5
100
AcDbSymbolTableRecord
100
AcDbLinetypeTableRecord
2
DASHEDX2
70
0
3
Dashed (2x) ____  ____  ____  ____  ____  ___
72
65
73
2
40
38.1
49
25.4
74
0
49
-12.7
74
0
0
LTYPE
5
38
330
5
100
AcDbSymbolTableRecord
100
AcDbLinetypeTableRecord
2
DASHDOT
70
0
3
Dash dot __ . __ . __ . __ . __ . __ . __ . __
72
65
73
4
40
25.4
49
12.7
74
0
49
-6.35
74
0
49
0
74
0
49
-6.35
74
0
0
LTYPE
5
39
330
5
100
AcDbSymbolTableRecord
100
AcDbLinetypeTableRecord
2
DASHDOT2
70
0
3
Dash dot (.5x) _._._._._._._._._._._._._._._.
72
65
73
4
40
12.7
49
6.35
74
0
49
-3.175
74
0
49
0
74
0
49
-3.175
74
0
0
LTYPE
5
3A
330
5
100
AcDbSymbolTableRecord
100
AcDbLinetypeTableRecord
2
DASHDOTX2
70
0
3
Dash dot (2x) ____  .  ____  .  ____  .  ___
72
65
73
4
40
50.8
49
25.4
74
0
49
-12.7
74
0
49
0
74
0
49
-12.7
74
0
0
LTYPE
5
3B
330
5
100
AcDbSymbolTableRecord
100
AcDbLinetypeTableRecord
2
DIVIDE
70
0
3
Divide ____ . . ____ . . ____ . . ____ . . ____
72
65
73
6
40
31.75
49
12.7
74
0
49
-6.35
74
0
49
0
74
0
49
-6.35
74
0
49
0
74
0
49
-6.35
74
0
0
LTYPE
5
3C
330
5
100
AcDbSymbolTableRecord
100
AcDbLinetypeTableRecord
2
DIVIDE2
70
0
3
Divide (.5x) __..__..__..__..__..__..__..__.._
72
65
73
6
40
15.875
49
6.35
74
0
49
-3.175
74
0
49
0
74
0
49
-3.175
74
0
49
0
74
0
49
-3.175
74
0
0
LTYPE
5
3D
330
5
100
AcDbSymbolTableRecord
100
AcDbLinetypeTableRecord
2
DIVIDEX2
70
0
3
Divide (2x) ________  .  .  ________  .  .  _
72
65
73
6
40
63.5
49
25.4
74
0
49
-12.7
74
0
49
0
74
0
49
-12.7
74
0
49
0
74
0
49
-12.7
74
0
0
LTYPE
5
3E
330
5
100
AcDbSymbolTableRecord
100
AcDbLinetypeTableRecord
2
BORDER
70
0
3
Border __ __ . __ __ . __ __ . __ __ . __ __ .
72
65
73
6
40
44.45
49
12.7
74
0
49
-6.35
74
0
49
12.7
74
0
49
-6.35
74
0
49
0
74
0
49
-6.35
74
0
0
LTYPE
5
3F
330
5
100
AcDbSymbolTableRecord
100
AcDbLinetypeTableRecord
2
BORDER2
70
0
3
Border (.5x) __.__.__.__.__.__.__.__.__.__.__.
72
65
73
6
40
22.225
49
6.35
74
0
49
-3.175
74
0
49
6.35
74
0
49
-3.175
74
0
49
0
74
0
49
-3.175
74
0
0
LTYPE
5
40
330
5
100
AcDbSymbolTableRecord
100
AcDbLinetypeTableRecord
2
BORDERX2
70
0
3
Border (2x) ____  ____  .  ____  ____  .  ___
72
65
73
6
40
88.9
49
25.4
74
0
49
-12.7
74
0
49
25.4
74
0
49
-12.7
74
0
49
0
74
0
49
-12.7
74
0
0
LTYPE
5
41
330
5
100
AcDbSymbolTableRecord
100
AcDbLinetypeTableRecord
2
CENTER
70
0
3
Center ____ _ ____ _ ____ _ ____ _ ____ _ ____
72
65
73
4
40
50.8
49
31.75
74
0
49
-6.35
74
0
49
6.35
74
0
49
-6.35
74
0
0
LTYPE
5
42
330
5
100
AcDbSymbolTableRecord
100
AcDbLinetypeTableRecord
2
CENTER2
70
0
3
Center (.5x) ___ _ ___ _ ___ _ ___ _ ___ _ ___
72
65
73
4
40
28.575
49
19.05
74
0
49
-3.175
74
0
49
3.175
74
0
49
-3.175
74
0
0
LTYPE
5
43
330
5
100
AcDbSymbolTableRecord
100
AcDbLinetypeTableRecord
2
CENTERX2
70
0
3
Center (2x) ________  __  ________  __  _____
72
65
73
4
40
101.6
49
63.5
74
0
49
-12.7
74
0
49
12.7
74
0
49
-12.7
74
0
0
ENDTAB
0
TABLE
2
LAYER
5
2
330
0
100
AcDbSymbolTable
70
1
0
LAYER
5
10
330
2
100
AcDbSymbolTableRecord
100
AcDbLayerTableRecord
2
0
70
0
62
7
6
DASHDOT
370
-3
390
F
0
LAYER
5
44
330
2
100
AcDbSymbolTableRecord
100
AcDbLayerTableRecord
2
Default
70
0
62
7
6
CONTINUOUS
370
50
390
F
0
LAYER
5
45
330
2
100
AcDbSymbolTableRecord
100
AcDbLayerTableRecord
2
dim
70
0
62
7
6
CONTINUOUS
370
0
390
F
0
ENDTAB
0
TABLE
2
STYLE
5
3
330
0
100
AcDbSymbolTable
70
3
0
STYLE
5
46
330
2
100
AcDbSymbolTableRecord
100
AcDbTextStyleTableRecord
2
Standard
70
0
40
0
41
1
50
0
71
0
42
1
3
txt
4

0
ENDTAB
0
TABLE
2
VIEW
5
6
330
0
100
AcDbSymbolTable
70
0
0
ENDTAB
0
TABLE
2
UCS
5
7
330
0
100
AcDbSymbolTable
70
0
0
ENDTAB
0
TABLE
2
APPID
5
9
330
0
100
AcDbSymbolTable
70
1
0
APPID
5
12
330
9
100
AcDbSymbolTableRecord
100
AcDbRegAppTableRecord
2
ACAD
70
0
0
ENDTAB
0
TABLE
2
DIMSTYLE
5
A
330
0
100
AcDbSymbolTable
70
1
100
AcDbDimStyleTable
71
1
0
DIMSTYLE
105
47
330
A
100
AcDbSymbolTableRecord
100
AcDbDimStyleTableRecord
2
Standard
70
0
40
1
41
5
42
2
43
0.38
44
1
45
0
46
0
47
0
48
0
140
5
141
0.09
142
0
143
25.4
144
1
145
0
146
1
147
1
148
0
71
0
72
0
73
0
74
1
75
0
76
0
77
0
78
0
79
0
170
0
171
2
172
0
173
0
174
0
175
0
176
0
177
0
178
0
179
0
271
4
272
4
273
2
274
2
275
0
276
0
277
2
278
46
279
0
280
0
281
0
282
0
283
1
284
0
285
0
286
0
288
0
289
3
340
Standard
341

371
-2
372
-2
0
ENDTAB
0
TABLE
2
BLOCK_RECORD
5
1
330
0
100
AcDbSymbolTable
70
2
0
BLOCK_RECORD
5
1F
330
1
100
AcDbSymbolTableRecord
100
AcDbBlockTableRecord
2
*Model_Space
70
0
280
1
281
0
0
BLOCK_RECORD
5
1E
330
1
100
AcDbSymbolTableRecord
100
AcDbBlockTableRecord
2
*Paper_Space
70
0
280
1
281
0
0
BLOCK_RECORD
5
48
330
1
100
AcDbSymbolTableRecord
100
AcDbBlockTableRecord
2
*D5
70
0
280
1
281
0
0
BLOCK_RECORD
5
4B
330
1
100
AcDbSymbolTableRecord
100
AcDbBlockTableRecord
2
*D20
70
0
280
1
281
0
0
BLOCK_RECORD
5
4E
330
1
100
AcDbSymbolTableRecord
100
AcDbBlockTableRecord
2
*D11
70
0
280
1
281
0
0
BLOCK_RECORD
5
51
330
1
100
AcDbSymbolTableRecord
100
AcDbBlockTableRecord
2
*D2
70
0
280
1
281
0
0
BLOCK_RECORD
5
54
330
1
100
AcDbSymbolTableRecord
100
AcDbBlockTableRecord
2
*D1
70
0
280
1
281
0
0
BLOCK_RECORD
5
57
330
1
100
AcDbSymbolTableRecord
100
AcDbBlockTableRecord
2
*D17
70
0
280
1
281
0
0
BLOCK_RECORD
5
5A
330
1
100
AcDbSymbolTableRecord
100
AcDbBlockTableRecord
2
*D10
70
0
280
1
281
0
0
BLOCK_RECORD
5
5D
330
1
100
AcDbSymbolTableRecord
100
AcDbBlockTableRecord
2
*D13
70
0
280
1
281
0
0
BLOCK_RECORD
5
60
330
1
100
AcDbSymbolTableRecord
100
AcDbBlockTableRecord
2
*D8
70
0
280
1
281
0
0
BLOCK_RECORD
5
63
330
1
100
AcDbSymbolTableRecord
100
AcDbBlockTableRecord
2
*D15
70
0
280
1
281
0
0
BLOCK_RECORD
5
66
330
1
100
AcDbSymbolTableRecord
100
AcDbBlockTableRecord
2
*D14
70
0
280
1
281
0
0
BLOCK_RECORD
5
69
330
1
100
AcDbSymbolTableRecord
100
AcDbBlockTableRecord
2
*D16
70
0
280
1
281
0
0
BLOCK_RECORD
5
6C
330
1
100
AcDbSymbolTableRecord
100
AcDbBlockTableRecord
2
*D4
70
0
280
1
281
0
0
BLOCK_RECORD
5
6F
330
1
100
AcDbSymbolTableRecord
100
AcDbBlockTableRecord
2
*D18
70
0
280
1
281
0
0
BLOCK_RECORD
5
72
330
1
100
AcDbSymbolTableRecord
100
AcDbBlockTableRecord
2
*D6
70
0
280
1
281
0
0
BLOCK_RECORD
5
75
330
1
100
AcDbSymbolTableRecord
100
AcDbBlockTableRecord
2
*D7
70
0
280
1
281
0
0
BLOCK_RECORD
5
78
330
1
100
AcDbSymbolTableRecord
100
AcDbBlockTableRecord
2
*D9
70
0
280
1
281
0
0
BLOCK_RECORD
5
7B
330
1
100
AcDbSymbolTableRecord
100
AcDbBlockTableRecord
2
*D12
70
0
280
1
281
0
0
BLOCK_RECORD
5
7E
330
1
100
AcDbSymbolTableRecord
100
AcDbBlockTableRecord
2
*D3
70
0
280
1
281
0
0
BLOCK_RECORD
5
81
330
1
100
AcDbSymbolTableRecord
100
AcDbBlockTableRecord
2
*D19
70
0
280
1
281
0
0
ENDTAB
0
ENDSEC
0
SECTION
2
BLOCKS
0
BLOCK
5
20
330
1F
100
AcDbEntity
8
0
100
AcDbBlockBegin
2
*Model_Space
70
0
10
0
20
0
30
0
3
*Model_Space
1

0
ENDBLK
5
21
330
1F
100
AcDbEntity
8
0
100
AcDbBlockEnd
0
BLOCK
5
1C
330
1B
100
AcDbEntity
8
0
100
AcDbBlockBegin
2
*Paper_Space
70
0
10
0
20
0
30
0
3
*Paper_Space
1

0
ENDBLK
5
1D
330
1F
100
AcDbEntity
8
0
100
AcDbBlockEnd
0
BLOCK
5
49
330
48
100
AcDbEntity
8
0
100
AcDbBlockBegin
2
*D5
70
1
10
0
20
0
3
*D5
1

0
LINE
5
84
100
AcDbEntity
8
dim
6
CONTINUOUS
62
7
370
0
100
AcDbLine
10
-17.7519804961
20
-23.90501219
11
1.75198049606
21
-36.09498781
0
SOLID
5
85
100
AcDbEntity
8
dim
6
CONTINUOUS
62
7
370
0
100
AcDbTrace
10
-9.27199745601
20
-29.20500159
30
0
11
-13.9532498308
21
-27.2610242575
31
0
12
-13.0707281213
22
-25.8489895224
32
0
13
-13.0707281213
23
-25.8489895224
33
0
0
SOLID
5
86
100
AcDbEntity
8
dim
6
CONTINUOUS
62
7
370
0
100
AcDbTrace
10
-6.72800254399
20
-30.79499841
30
0
11
-2.04675016925
21
-32.7389757425
31
0
12
-2.92927187869
22
-34.1510104776
32
0
13
-2.92927187869
23
-34.1510104776
33
0
0
MTEXT
5
87
100
AcDbEntity
8
dim
6
CONTINUOUS
62
7
370
0
100
AcDbMText
10
-0.96279185218
20
-30.2708883471
30
0
40
5
41
7.22222222222
71
5
72
1
1
ø3
7
standard
210
0
220
0
230
1
50
327.994616792
73
2
44
1
0
ENDBLK
5
4A
330
48
100
AcDbEntity
8
0
100
AcDbBlockEnd
0
BLOCK
5
4C
330
4B
100
AcDbEntity
8
0
100
AcDbBlockBegin
2
*D20
70
1
10
0
20
0
3
*D20
1

0
LINE
5
88
100
AcDbEntity
8
dim
6
CONTINUOUS
62
7
370
0
100
AcDbLine
10
-2.32682891838e-15
20
42
11
1.83697019872e-15
21
70
0
SOLID
5
89
100
AcDbEntity
8
dim
6
CONTINUOUS
62
7
370
0
100
AcDbTrace
10
-4.89858719659e-16
20
52
30
0
11
0.832569315546
21
47
31
0
12
-0.832569315546
22
47
32
0
13
-0.832569315546
23
47
33
0
0
SOLID
5
8A
100
AcDbEntity
8
dim
6
CONTINUOUS
62
7
370
0
100
AcDbTrace
10
5.32717935907e-31
20
60
30
0
11
-0.832569315546
21
65
31
0
12
0.832569315546
22
65
32
0
13
0.832569315546
23
65
33
0
0
MTEXT
5
8B
100
AcDbEntity
8
dim
6
CONTINUOUS
62
7
370
0
100
AcDbMText
10
-3.5
20
56
30
0
40
5
41
2.22222222222
71
5
72
1
1
8
7
standard
210
0
220
0
230
1
50
90
73
2
44
1
0
LINE
5
8C
100
AcDbEntity
8
dim
6
CONTINUOUS
62
7
370
0
100
AcDbLine
10
-6
20
52
11
1
21
52
0
LINE
5
8D
100
AcDbEntity
8
dim
6
CONTINUOUS
62
7
370
0
100
AcDbLine
10
-88
20
60
11
1
21
60
0
ENDBLK
5
4D
330
4B
100
AcDbEntity
8
0
100
AcDbBlockEnd
0
BLOCK
5
4F
330
4E
100
AcDbEntity
8
0
100
AcDbBlockBegin
2
*D11
70
1
10
0
20
0
3
*D11
1

0
LINE
5
8E
100
AcDbEntity
8
dim
6
CONTINUOUS
62
7
370
0
100
AcDbLine
10
-40
20
-20
11
-23
21
-20
0
SOLID
5
8F
100
AcDbEntity
8
dim
6
CONTINUOUS
62
7
370
0
100
AcDbTrace
10
-40
20
-20
30
0
11
-35
21
-19.1674306845
31
0
12
-35
22
-20.8325693155
32
0
13
-35
23
-20.8325693155
33
0
0
SOLID
5
90
100
AcDbEntity
8
dim
6
CONTINUOUS
62
7
370
0
100
AcDbTrace
10
-23
20
-20
30
0
11
-28
21
-20.8325693155
31
0
12
-28
22
-19.1674306845
32
0
13
-28
23
-19.1674306845
33
0
0
MTEXT
5
91
100
AcDbEntity
8
dim
6
CONTINUOUS
62
7
370
0
100
AcDbMText
10
-31.5
20
-16.5
30
0
40
5
41
5
71
5
72
1
1
17
7
standard
210
0
220
0
230
1
50
0
73
2
44
1
0
LINE
5
92
100
AcDbEntity
8
dim
6
CONTINUOUS
62
7
370
0
100
AcDbLine
10
-40
20
-28
11
-40
21
-19
0
LINE
5
93
100
AcDbEntity
8
dim
6
CONTINUOUS
62
7
370
0
100
AcDbLine
10
-23
20
-28
11
-23
21
-19
0
ENDBLK
5
50
330
4E
100
AcDbEntity
8
0
100
AcDbBlockEnd
0
BLOCK
5
52
330
51
100
AcDbEntity
8
0
100
AcDbBlockBegin
2
*D2
70
1
10
0
20
0
3
*D2
1

0
LINE
5
94
100
AcDbEntity
8
dim
6
CONTINUOUS
62
7
370
0
100
AcDbLine
10
110
20
60
11
110
21
-60
0
SOLID
5
95
100
AcDbEntity
8
dim
6
CONTINUOUS
62
7
370
0
100
AcDbTrace
10
110
20
60
30
0
11
110.832569316
21
55
31
0
12
109.167430684
22
55
32
0
13
109.167430684
23
55
33
0
0
SOLID
5
96
100
AcDbEntity
8
dim
6
CONTINUOUS
62
7
370
0
100
AcDbTrace
10
110
20
-60
30
0
11
109.167430684
21
-55
31
0
12
110.832569316
22
-55
32
0
13
110.832569316
23
-55
33
0
0
MTEXT
5
97
100
AcDbEntity
8
dim
6
CONTINUOUS
62
7
370
0
100
AcDbMText
10
106.5
20
4.28626379702e-16
30
0
40
5
41
8.88888888889
71
5
72
1
1
120
7
standard
210
0
220
0
230
1
50
90
73
2
44
1
0
LINE
5
98
100
AcDbEntity
8
dim
6
CONTINUOUS
62
7
370
0
100
AcDbLine
10
92
20
60
11
111
21
60
0
LINE
5
99
100
AcDbEntity
8
dim
6
CONTINUOUS
62
7
370
0
100
AcDbLine
10
92
20
-60
11
111
21
-60
0
ENDBLK
5
53
330
51
100
AcDbEntity
8
0
100
AcDbBlockEnd
0
BLOCK
5
55
330
54
100
AcDbEntity
8
0
100
AcDbBlockBegin
2
*D1
70
1
10
0
20
0
3
*D1
1

0
LINE
5
9A
100
AcDbEntity
8
dim
6
CONTINUOUS
62
7
370
0
100
AcDbLine
10
-90
20
80
11
90
21
80
0
SOLID
5
9B
100
AcDbEntity
8
dim
6
CONTINUOUS
62
7
370
0
100
AcDbTrace
10
-90
20
80
30
0
11
-85
21
80.8325693155
31
0
12
-85
22
79.1674306845
32
0
13
-85
23
79.1674306845
33
0
0
SOLID
5
9C
100
AcDbEntity
8
dim
6
CONTINUOUS
62
7
370
0
100
AcDbTrace
10
90
20
80
30
0
11
85
21
79.1674306845
31
0
12
85
22
80.8325693155
32
0
13
85
23
80.8325693155
33
0
0
MTEXT
5
9D
100
AcDbEntity
8
dim
6
CONTINUOUS
62
7
370
0
100
AcDbMText
10
2.14313189851e-16
20
83.5
30
0
40
5
41
8.88888888889
71
5
72
1
1
180
7
standard
210
0
220
0
230
1
50
0
73
2
44
1
0
LINE
5
9E
100
AcDbEntity
8
dim
6
CONTINUOUS
62
7
370
0
100
AcDbLine
10
-90
20
62
11
-90
21
81
0
LINE
5
9F
100
AcDbEntity
8
dim
6
CONTINUOUS
62
7
370
0
100
AcDbLine
10
90
20
62
11
90
21
81
0
ENDBLK
5
56
330
54
100
AcDbEntity
8
0
100
AcDbBlockEnd
0
BLOCK
5
58
330
57
100
AcDbEntity
8
0
100
AcDbBlockBegin
2
*D17
70
1
10
0
20
0
3
*D17
1

0
LINE
5
A0
100
AcDbEntity
8
dim
6
CONTINUOUS
62
7
370
0
100
AcDbLine
10
-120
20
33
11
-120
21
60
0
SOLID
5
A1
100
AcDbEntity
8
dim
6
CONTINUOUS
62
7
370
0
100
AcDbTrace
10
-120
20
33
30
0
11
-120.832569316
21
38
31
0
12
-119.167430684
22
38
32
0
13
-119.167430684
23
38
33
0
0
SOLID
5
A2
100
AcDbEntity
8
dim
6
CONTINUOUS
62
7
370
0
100
AcDbTrace
10
-120
20
60
30
0
11
-119.167430684
21
55
31
0
12
-120.832569316
22
55
32
0
13
-120.832569316
23
55
33
0
0
MTEXT
5
A3
100
AcDbEntity
8
dim
6
CONTINUOUS
62
7
370
0
100
AcDbMText
10
-123.5
20
46.5
30
0
40
5
41
6.11111111111
71
5
72
1
1
27
7
standard
210
0
220
0
230
1
50
90
73
2
44
1
0
LINE
5
A4
100
AcDbEntity
8
dim
6
CONTINUOUS
62
7
370
0
100
AcDbLine
10
-61
20
33
11
-121
21
33
0
LINE
5
A5
100
AcDbEntity
8
dim
6
CONTINUOUS
62
7
370
0
100
AcDbLine
10
-92
20
60
11
-121
21
60
0
ENDBLK
5
59
330
57
100
AcDbEntity
8
0
100
AcDbBlockEnd
0
BLOCK
5
5B
330
5A
100
AcDbEntity
8
0
100
AcDbBlockBegin
2
*D10
70
1
10
0
20
0
3
*D10
1

0
LINE
5
A6
100
AcDbEntity
8
dim
6
CONTINUOUS
62
7
370
0
100
AcDbLine
10
-20
20
40
11
-20
21
-19
0
SOLID
5
A7
100
AcDbEntity
8
dim
6
CONTINUOUS
62
7
370
0
100
AcDbTrace
10
-20
20
40
30
0
11
-19.1674306845
21
35
31
0
12
-20.8325693155
22
35
32
0
13
-20.8325693155
23
35
33
0
0
SOLID
5
A8
100
AcDbEntity
8
dim
6
CONTINUOUS
62
7
370
0
100
AcDbTrace
10
-20
20
-19
30
0
11
-20.8325693155
21
-14
31
0
12
-19.1674306845
22
-14
32
0
13
-19.1674306845
23
-14
33
0
0
MTEXT
5
A9
100
AcDbEntity
8
dim
6
CONTINUOUS
62
7
370
0
100
AcDbMText
10
-23.5
20
10.5
30
0
40
5
41
6.11111111111
71
5
72
1
1
59
7
standard
210
0
220
0
230
1
50
90
73
2
44
1
0
LINE
5
AA
100
AcDbEntity
8
dim
6
CONTINUOUS
62
7
370
0
100
AcDbLine
10
-14
20
40
11
-21
21
40
0
LINE
5
AB
100
AcDbEntity
8
dim
6
CONTINUOUS
62
7
370
0
100
AcDbLine
10
-14
20
-19
11
-21
21
-19
0
ENDBLK
5
5C
330
5A
100
AcDbEntity
8
0
100
AcDbBlockEnd
0
BLOCK
5
5E
330
5D
100
AcDbEntity
8
0
100
AcDbBlockBegin
2
*D13
70
1
10
0
20
0
3
*D13
1

0
LINE
5
AC
100
AcDbEntity
8
dim
6
CONTINUOUS
62
7
370
0
100
AcDbLine
10
-90
20
70
11
-45
21
70
0
SOLID
5
AD
100
AcDbEntity
8
dim
6
CONTINUOUS
62
7
370
0
100
AcDbTrace
10
-90
20
70
30
0
11
-85
21
70.8325693155
31
0
12
-85
22
69.1674306845
32
0
13
-85
23
69.1674306845
33
0
0
SOLID
5
AE
100
AcDbEntity
8
dim
6
CONTINUOUS
62
7
370
0
100
AcDbTrace
10
-45
20
70
30
0
11
-50
21
69.1674306845
31
0
12
-50
22
70.8325693155
32
0
13
-50
23
70.8325693155
33
0
0
MTEXT
5
AF
100
AcDbEntity
8
dim
6
CONTINUOUS
62
7
370
0
100
AcDbMText
10
-67.5
20
73.5
30
0
40
5
41
6.66666666667
71
5
72
1
1
45
7
standard
210
0
220
0
230
1
50
0
73
2
44
1
0
LINE
5
B0
100
AcDbEntity
8
dim
6
CONTINUOUS
62
7
370
0
100
AcDbLine
10
-90
20
62
11
-90
21
71
0
LINE
5
B1
100
AcDbEntity
8
dim
6
CONTINUOUS
62
7
370
0
100
AcDbLine
10
-45
20
47
11
-45
21
71
0
ENDBLK
5
5F
330
5D
100
AcDbEntity
8
0
100
AcDbBlockEnd
0
BLOCK
5
61
330
60
100
AcDbEntity
8
0
100
AcDbBlockBegin
2
*D8
70
1
10
0
20
0
3
*D8
1

0
LINE
5
B2
100
AcDbEntity
8
dim
6
CONTINUOUS
62
7
370
0
100
AcDbLine
10
-100
20
-45
11
-100
21
-70
0
SOLID
5
B3
100
AcDbEntity
8
dim
6
CONTINUOUS
62
7
370
0
100
AcDbTrace
10
-100
20
-55
30
0
11
-100.832569316
21
-50
31
0
12
-99.1674306845
22
-50
32
0
13
-99.1674306845
23
-50
33
0
0
SOLID
5
B4
100
AcDbEntity
8
dim
6
CONTINUOUS
62
7
370
0
100
AcDbTrace
10
-100
20
-60
30
0
11
-99.1674306845
21
-65
31
0
12
-100.832569316
22
-65
32
0
13
-100.832569316
23
-65
33
0
0
MTEXT
5
B5
100
AcDbEntity
8
dim
6
CONTINUOUS
62
7
370
0
100
AcDbMText
10
-103.5
20
-57.5
30
0
40
5
41
2.22222222222
71
5
72
1
1
5
7
standard
210
0
220
0
230
1
50
90
73
2
44
1
0
LINE
5
B6
100
AcDbEntity
8
dim
6
CONTINUOUS
62
7
370
0
100
AcDbLine
10
-10
20
-55
11
-101
21
-55
0
LINE
5
B7
100
AcDbEntity
8
dim
6
CONTINUOUS
62
7
370
0
100
AcDbLine
10
-92
20
-60
11
-101
21
-60
0
ENDBLK
5
62
330
60
100
AcDbEntity
8
0
100
AcDbBlockEnd
0
BLOCK
5
64
330
63
100
AcDbEntity
8
0
100
AcDbBlockBegin
2
*D15
70
1
10
0
20
0
3
*D15
1

0
LINE
5
B8
100
AcDbEntity
8
dim
6
CONTINUOUS
62
7
370
0
100
AcDbLine
10
-100
20
45
11
-100
21
70
0
SOLID
5
B9
100
AcDbEntity
8
dim
6
CONTINUOUS
62
7
370
0
100
AcDbTrace
10
-100
20
55
30
0
11
-99.1674306845
21
50
31
0
12
-100.832569316
22
50
32
0
13
-100.832569316
23
50
33
0
0
SOLID
5
BA
100
AcDbEntity
8
dim
6
CONTINUOUS
62
7
370
0
100
AcDbTrace
10
-100
20
60
30
0
11
-100.832569316
21
65
31
0
12
-99.1674306845
22
65
32
0
13
-99.1674306845
23
65
33
0
0
MTEXT
5
BB
100
AcDbEntity
8
dim
6
CONTINUOUS
62
7
370
0
100
AcDbMText
10
-103.5
20
57.5
30
0
40
5
41
2.22222222222
71
5
72
1
1
5
7
standard
210
0
220
0
230
1
50
90
73
2
44
1
0
LINE
5
BC
100
AcDbEntity
8
dim
6
CONTINUOUS
62
7
370
0
100
AcDbLine
10
-87
20
55
11
-101
21
55
0
LINE
5
BD
100
AcDbEntity
8
dim
6
CONTINUOUS
62
7
370
0
100
AcDbLine
10
-92
20
60
11
-101
21
60
0
ENDBLK
5
65
330
63
100
AcDbEntity
8
0
100
AcDbBlockEnd
0
BLOCK
5
67
330
66
100
AcDbEntity
8
0
100
AcDbBlockBegin
2
*D14
70
1
10
0
20
0
3
*D14
1

0
LINE
5
BE
100
AcDbEntity
8
dim
6
CONTINUOUS
62
7
370
0
100
AcDbLine
10
-100
20
44.9147727273
11
-75
21
44.9147727273
0
SOLID
5
BF
100
AcDbEntity
8
dim
6
CONTINUOUS
62
7
370
0
100
AcDbTrace
10
-90
20
44.9147727273
30
0
11
-95
21
44.0822034118
31
0
12
-95
22
45.7473420429
32
0
13
-95
23
45.7473420429
33
0
0
SOLID
5
C0
100
AcDbEntity
8
dim
6
CONTINUOUS
62
7
370
0
100
AcDbTrace
10
-85
20
44.9147727273
30
0
11
-80
21
45.7473420429
31
0
12
-80
22
44.0822034118
32
0
13
-80
23
44.0822034118
33
0
0
MTEXT
5
C1
100
AcDbEntity
8
dim
6
CONTINUOUS
62
7
370
0
100
AcDbMText
10
-87.5
20
48.4147727273
30
0
40
5
41
2.22222222222
71
5
72
1
1
5
7
standard
210
0
220
0
230
1
50
0
73
2
44
1
0
LINE
5
C2
100
AcDbEntity
8
dim
6
CONTINUOUS
62
7
370
0
100
AcDbLine
10
-90
20
58
11
-90
21
43.9147727273
0
LINE
5
C3
100
AcDbEntity
8
dim
6
CONTINUOUS
62
7
370
0
100
AcDbLine
10
-85
20
53
11
-85
21
43.9147727273
0
ENDBLK
5
68
330
66
100
AcDbEntity
8
0
100
AcDbBlockEnd
0
BLOCK
5
6A
330
69
100
AcDbEntity
8
0
100
AcDbBlockBegin
2
*D16
70
1
10
0
20
0
3
*D16
1

0
LINE
5
C4
100
AcDbEntity
8
dim
6
CONTINUOUS
62
7
370
0
100
AcDbLine
10
-110
20
45
11
-110
21
60
0
SOLID
5
C5
100
AcDbEntity
8
dim
6
CONTINUOUS
62
7
370
0
100
AcDbTrace
10
-110
20
45
30
0
11
-110.832569316
21
50
31
0
12
-109.167430684
22
50
32
0
13
-109.167430684
23
50
33
0
0
SOLID
5
C6
100
AcDbEntity
8
dim
6
CONTINUOUS
62
7
370
0
100
AcDbTrace
10
-110
20
60
30
0
11
-109.167430684
21
55
31
0
12
-110.832569316
22
55
32
0
13
-110.832569316
23
55
33
0
0
MTEXT
5
C7
100
AcDbEntity
8
dim
6
CONTINUOUS
62
7
370
0
100
AcDbMText
10
-113.5
20
52.5
30
0
40
5
41
5
71
5
72
1
1
15
7
standard
210
0
220
0
230
1
50
90
73
2
44
1
0
LINE
5
C8
100
AcDbEntity
8
dim
6
CONTINUOUS
62
7
370
0
100
AcDbLine
10
-47
20
45
11
-111
21
45
0
LINE
5
C9
100
AcDbEntity
8
dim
6
CONTINUOUS
62
7
370
0
100
AcDbLine
10
-92
20
60
11
-111
21
60
0
ENDBLK
5
6B
330
69
100
AcDbEntity
8
0
100
AcDbBlockEnd
0
BLOCK
5
6D
330
6C
100
AcDbEntity
8
0
100
AcDbBlockBegin
2
*D4
70
1
10
0
20
0
3
*D4
1

0
LINE
5
CA
100
AcDbEntity
8
dim
6
CONTINUOUS
62
7
370
0
100
AcDbLine
10
-54.5407591919
20
52.2783180778
11
-35.4592408081
21
37.7216819222
0
SOLID
5
CB
100
AcDbEntity
8
dim
6
CONTINUOUS
62
7
370
0
100
AcDbTrace
10
-46.590126532
20
46.213053013
30
0
11
-51.0704182203
21
48.5837402662
31
0
12
-50.0604675036
22
49.9076308246
32
0
13
-50.0604675036
23
49.9076308246
33
0
0
SOLID
5
CC
100
AcDbEntity
8
dim
6
CONTINUOUS
62
7
370
0
100
AcDbTrace
10
-43.409873468
20
43.786946987
30
0
11
-38.9295817797
21
41.4162597338
31
0
12
-39.9395324964
22
40.0923691754
32
0
13
-39.9395324964
23
40.0923691754
33
0
0
MTEXT
5
CD
100
AcDbEntity
8
dim
6
CONTINUOUS
62
7
370
0
100
AcDbMText
10
-37.4000547282
20
43.6044277196
30
0
40
5
41
7.77777777778
71
5
72
1
1
ø4
7
standard
210
0
220
0
230
1
50
322.661231686
73
2
44
1
0
ENDBLK
5
6E
330
6C
100
AcDbEntity
8
0
100
AcDbBlockEnd
0
BLOCK
5
70
330
6F
100
AcDbEntity
8
0
100
AcDbBlockBegin
2
*D18
70
1
10
0
20
0
3
*D18
1

0
LINE
5
CE
100
AcDbEntity
8
dim
6
CONTINUOUS
62
7
370
0
100
AcDbLine
10
-59
20
22.6022727273
11
-90
21
22.6022727273
0
SOLID
5
CF
100
AcDbEntity
8
dim
6
CONTINUOUS
62
7
370
0
100
AcDbTrace
10
-59
20
22.6022727273
30
0
11
-64
21
21.7697034117
31
0
12
-64
22
23.4348420428
32
0
13
-64
23
23.4348420428
33
0
0
SOLID
5
D0
100
AcDbEntity
8
dim
6
CONTINUOUS
62
7
370
0
100
AcDbTrace
10
-90
20
22.6022727273
30
0
11
-85
21
23.4348420428
31
0
12
-85
22
21.7697034117
32
0
13
-85
23
21.7697034117
33
0
0
MTEXT
5
D1
100
AcDbEntity
8
dim
6
CONTINUOUS
62
7
370
0
100
AcDbMText
10
-74.5
20
26.1022727273
30
0
40
5
41
5
71
5
72
1
1
31
7
standard
210
0
220
0
230
1
50
360
73
2
44
1
0
LINE
5
D2
100
AcDbEntity
8
dim
6
CONTINUOUS
62
7
370
0
100
AcDbLine
10
-59
20
31
11
-59
21
21.6022727273
0
LINE
5
D3
100
AcDbEntity
8
dim
6
CONTINUOUS
62
7
370
0
100
AcDbLine
10
-90
20
58
11
-90
21
21.6022727273
0
ENDBLK
5
71
330
6F
100
AcDbEntity
8
0
100
AcDbBlockEnd
0
BLOCK
5
73
330
72
100
AcDbEntity
8
0
100
AcDbBlockBegin
2
*D6
70
1
10
0
20
0
3
*D6
1

0
LINE
5
D4
100
AcDbEntity
8
dim
6
CONTINUOUS
62
7
370
0
100
AcDbLine
10
-30
20
-34.5
11
-30
21
-65
0
SOLID
5
D5
100
AcDbEntity
8
dim
6
CONTINUOUS
62
7
370
0
100
AcDbTrace
10
-30
20
-44.5
30
0
11
-30.8325693155
21
-39.5
31
0
12
-29.1674306845
22
-39.5
32
0
13
-29.1674306845
23
-39.5
33
0
0
SOLID
5
D6
100
AcDbEntity
8
dim
6
CONTINUOUS
62
7
370
0
100
AcDbTrace
10
-30
20
-55
30
0
11
-29.1674306845
21
-60
31
0
12
-30.8325693155
22
-60
32
0
13
-30.8325693155
23
-60
33
0
0
MTEXT
5
D7
100
AcDbEntity
8
dim
6
CONTINUOUS
62
7
370
0
100
AcDbMText
10
-33.5
20
-38.2222222222
30
0
40
5
41
10.5555555556
71
5
72
1
1
10.5
7
standard
210
0
220
0
230
1
50
90
73
2
44
1
0
LINE
5
D8
100
AcDbEntity
8
dim
6
CONTINUOUS
62
7
370
0
100
AcDbLine
10
-10
20
-44.5
11
-31
21
-44.5
0
LINE
5
D9
100
AcDbEntity
8
dim
6
CONTINUOUS
62
7
370
0
100
AcDbLine
10
-10
20
-55
11
-31
21
-55
0
ENDBLK
5
74
330
72
100
AcDbEntity
8
0
100
AcDbBlockEnd
0
BLOCK
5
76
330
75
100
AcDbEntity
8
0
100
AcDbBlockBegin
2
*D7
70
1
10
0
20
0
3
*D7
1

0
LINE
5
DA
100
AcDbEntity
8
dim
6
CONTINUOUS
62
7
370
0
100
AcDbLine
10
-8
20
-90
11
-90
21
-90
0
SOLID
5
DB
100
AcDbEntity
8
dim
6
CONTINUOUS
62
7
370
0
100
AcDbTrace
10
-8
20
-90
30
0
11
-13
21
-90.8325693155
31
0
12
-13
22
-89.1674306845
32
0
13
-13
23
-89.1674306845
33
0
0
SOLID
5
DC
100
AcDbEntity
8
dim
6
CONTINUOUS
62
7
370
0
100
AcDbTrace
10
-90
20
-90
30
0
11
-85
21
-89.1674306845
31
0
12
-85
22
-90.8325693155
32
0
13
-85
23
-90.8325693155
33
0
0
MTEXT
5
DD
100
AcDbEntity
8
dim
6
CONTINUOUS
62
7
370
0
100
AcDbMText
10
-49
20
-86.5
30
0
40
5
41
6.11111111111
71
5
72
1
1
82
7
standard
210
0
220
0
230
1
50
360
73
2
44
1
0
LINE
5
DE
100
AcDbEntity
8
dim
6
CONTINUOUS
62
7
370
0
100
AcDbLine
10
-8
20
-57
11
-8
21
-91
0
LINE
5
DF
100
AcDbEntity
8
dim
6
CONTINUOUS
62
7
370
0
100
AcDbLine
10
-90
20
-62
11
-90
21
-91
0
ENDBLK
5
77
330
75
100
AcDbEntity
8
0
100
AcDbBlockEnd
0
BLOCK
5
79
330
78
100
AcDbEntity
8
0
100
AcDbBlockBegin
2
*D9
70
1
10
0
20
0
3
*D9
1

0
LINE
5
E0
100
AcDbEntity
8
dim
6
CONTINUOUS
62
7
370
0
100
AcDbLine
10
-45
20
16
11
-45
21
-11
0
SOLID
5
E1
100
AcDbEntity
8
dim
6
CONTINUOUS
62
7
370
0
100
AcDbTrace
10
-45
20
16
30
0
11
-44.1674306845
21
11
31
0
12
-45.8325693155
22
11
32
0
13
-45.8325693155
23
11
33
0
0
SOLID
5
E2
100
AcDbEntity
8
dim
6
CONTINUOUS
62
7
370
0
100
AcDbTrace
10
-45
20
-11
30
0
11
-45.8325693155
21
-6
31
0
12
-44.1674306845
22
-6
32
0
13
-44.1674306845
23
-6
33
0
0
MTEXT
5
E3
100
AcDbEntity
8
dim
6
CONTINUOUS
62
7
370
0
100
AcDbMText
10
-48.5
20
2.5
30
0
40
5
41
6.11111111111
71
5
72
1
1
27
7
standard
210
0
220
0
230
1
50
90
73
2
44
1
0
LINE
5
E4
100
AcDbEntity
8
dim
6
CONTINUOUS
62
7
370
0
100
AcDbLine
10
-57
20
16
11
-44
21
16
0
LINE
5
E5
100
AcDbEntity
8
dim
6
CONTINUOUS
62
7
370
0
100
AcDbLine
10
-57
20
-11
11
-44
21
-11
0
ENDBLK
5
7A
330
78
100
AcDbEntity
8
0
100
AcDbBlockEnd
0
BLOCK
5
7C
330
7B
100
AcDbEntity
8
0
100
AcDbBlockBegin
2
*D12
70
1
10
0
20
0
3
*D12
1

0
LINE
5
E6
100
AcDbEntity
8
dim
6
CONTINUOUS
62
7
370
0
100
AcDbLine
10
-30
20
50
11
-17
21
50
0
SOLID
5
E7
100
AcDbEntity
8
dim
6
CONTINUOUS
62
7
370
0
100
AcDbTrace
10
-30
20
50
30
0
11
-25
21
50.8325693155
31
0
12
-25
22
49.1674306845
32
0
13
-25
23
49.1674306845
33
0
0
SOLID
5
E8
100
AcDbEntity
8
dim
6
CONTINUOUS
62
7
370
0
100
AcDbTrace
10
-17
20
50
30
0
11
-22
21
49.1674306845
31
0
12
-22
22
50.8325693155
32
0
13
-22
23
50.8325693155
33
0
0
MTEXT
5
E9
100
AcDbEntity
8
dim
6
CONTINUOUS
62
7
370
0
100
AcDbMText
10
-23.5
20
53.5
30
0
40
5
41
5
71
5
72
1
1
13
7
standard
210
0
220
0
230
1
50
0
73
2
44
1
0
LINE
5
EA
100
AcDbEntity
8
dim
6
CONTINUOUS
62
7
370
0
100
AcDbLine
10
-30
20
47
11
-30
21
51
0
LINE
5
EB
100
AcDbEntity
8
dim
6
CONTINUOUS
62
7
370
0
100
AcDbLine
10
-17
20
47
11
-17
21
51
0
ENDBLK
5
7D
330
7B
100
AcDbEntity
8
0
100
AcDbBlockEnd
0
BLOCK
5
7F
330
7E
100
AcDbEntity
8
0
100
AcDbBlockBegin
2
*D3
70
1
10
0
20
0
3
*D3
1

0
LINE
5
EC
100
AcDbEntity
8
dim
6
CONTINUOUS
62
7
370
0
100
AcDbLine
10
-69.9098579276
20
36.6366193092
11
-48.0901420724
21
29.3633806908
0
SOLID
5
ED
100
AcDbEntity
8
dim
6
CONTINUOUS
62
7
370
0
100
AcDbTrace
10
-60.4230249471
20
33.474341649
30
0
11
-65.429722972
21
34.265635875
31
0
12
-64.9031599026
22
35.8453250832
32
0
13
-64.9031599026
23
35.8453250832
33
0
0
SOLID
5
EE
100
AcDbEntity
8
dim
6
CONTINUOUS
62
7
370
0
100
AcDbTrace
10
-57.5769750529
20
32.525658351
30
0
11
-52.570277028
21
31.734364125
31
0
12
-53.0968400974
22
30.1546749168
32
0
13
-53.0968400974
23
30.1546749168
33
0
0
MTEXT
5
EF
100
AcDbEntity
8
dim
6
CONTINUOUS
62
7
370
0
100
AcDbMText
10
-52.0956937753
20
34.3878885286
30
0
40
5
41
7.22222222222
71
5
72
1
1
ø3
7
standard
210
0
220
0
230
1
50
341.565051177
73
2
44
1
0
ENDBLK
5
80
330
7E
100
AcDbEntity
8
0
100
AcDbBlockEnd
0
BLOCK
5
82
330
81
100
AcDbEntity
8
0
100
AcDbBlockBegin
2
*D19
70
1
10
0
20
0
3
*D19
1

0
LINE
5
F0
100
AcDbEntity
8
dim
6
CONTINUOUS
62
7
370
0
100
AcDbLine
10
-8
20
90
11
-90
21
90
0
SOLID
5
F1
100
AcDbEntity
8
dim
6
CONTINUOUS
62
7
370
0
100
AcDbTrace
10
-8
20
90
30
0
11
-13
21
89.1674306845
31
0
12
-13
22
90.8325693155
32
0
13
-13
23
90.8325693155
33
0
0
SOLID
5
F2
100
AcDbEntity
8
dim
6
CONTINUOUS
62
7
370
0
100
AcDbTrace
10
-90
20
90
30
0
11
-85
21
90.8325693155
31
0
12
-85
22
89.1674306845
32
0
13
-85
23
89.1674306845
33
0
0
MTEXT
5
F3
100
AcDbEntity
8
dim
6
CONTINUOUS
62
7
370
0
100
AcDbMText
10
-49
20
93.5
30
0
40
5
41
6.11111111111
71
5
72
1
1
82
7
standard
210
0
220
0
230
1
50
360
73
2
44
1
0
LINE
5
F4
100
AcDbEntity
8
dim
6
CONTINUOUS
62
7
370
0
100
AcDbLine
10
-8
20
54
11
-8
21
91
0
LINE
5
F5
100
AcDbEntity
8
dim
6
CONTINUOUS
62
7
370
0
100
AcDbLine
10
-90
20
62
11
-90
21
91
0
ENDBLK
5
83
330
81
100
AcDbEntity
8
0
100
AcDbBlockEnd
0
ENDSEC
0
SECTION
2
ENTITIES
0
LINE
5
F6
100
AcDbEntity
8
Default
6
ByLayer
62
256
370
-1
100
AcDbLine
10
-90
20
-60
11
-90
21
60
0
LINE
5
F7
100
AcDbEntity
8
Default
6
ByLayer
62
256
370
-1
100
AcDbLine
10
-90
20
60
11
90
21
60
0
LINE
5
F8
100
AcDbEntity
8
Default
6
ByLayer
62
256
370
-1
100
AcDbLine
10
90
20
60
11
90
21
-60
0
LINE
5
F9
100
AcDbEntity
8
Default
6
ByLayer
62
256
370
-1
100
AcDbLine
10
90
20
-60
11
-90
21
-60
0
LINE
5
FA
100
AcDbEntity
8
Default
6
ByLayer
62
256
370
-1
100
AcDbLine
10
17
20
45
11
12
21
40
0
LINE
5
FB
100
AcDbEntity
8
Default
6
ByLayer
62
256
370
-1
100
AcDbLine
10
12
20
40
11
12
21
-19
0
LINE
5
FC
100
AcDbEntity
8
Default
6
ByLayer
62
256
370
-1
100
AcDbLine
10
12
20
-19
11
23
21
-30
0
LINE
5
FD
100
AcDbEntity
8
Default
6
ByLayer
62
256
370
-1
100
AcDbLine
10
23
20
-30
11
40
21
-30
0
LINE
5
FE
100
AcDbEntity
8
Default
6
ByLayer
62
256
370
-1
100
AcDbLine
10
40
20
-30
11
59
21
-11
0
LINE
5
FF
100
AcDbEntity
8
Default
6
ByLayer
62
256
370
-1
100
AcDbLine
10
59
20
-11
11
59
21
16
0
LINE
5
100
100
AcDbEntity
8
Default
6
ByLayer
62
256
370
-1
100
AcDbLine
10
59
20
16
11
30
21
45
0
LINE
5
101
100
AcDbEntity
8
Default
6
ByLayer
62
256
370
-1
100
AcDbLine
10
30
20
45
11
17
21
45
0
LINE
5
102
100
AcDbEntity
8
Default
6
ByLayer
62
256
370
-1
100
AcDbLine
10
-17
20
45
11
-30
21
45
0
LINE
5
103
100
AcDbEntity
8
Default
6
ByLayer
62
256
370
-1
100
AcDbLine
10
-30
20
45
11
-59
21
16
0
LINE
5
104
100
AcDbEntity
8
Default
6
ByLayer
62
256
370
-1
100
AcDbLine
10
-59
20
16
11
-59
21
-11
0
LINE
5
105
100
AcDbEntity
8
Default
6
ByLayer
62
256
370
-1
100
AcDbLine
10
-59
20
-11
11
-40
21
-30
0
LINE
5
106
100
AcDbEntity
8
Default
6
ByLayer
62
256
370
-1
100
AcDbLine
10
-40
20
-30
11
-23
21
-30
0
LINE
5
107
100
AcDbEntity
8
Default
6
ByLayer
62
256
370
-1
100
AcDbLine
10
-23
20
-30
11
-12
21
-19
0
LINE
5
108
100
AcDbEntity
8
Default
6
ByLayer
62
256
370
-1
100
AcDbLine
10
-12
20
-19
11
-12
21
40
0
LINE
5
109
100
AcDbEntity
8
Default
6
ByLayer
62
256
370
-1
100
AcDbLine
10
-12
20
40
11
-17
21
45
0
CIRCLE
5
10A
100
AcDbEntity
8
Default
6
ByLayer
62
256
370
-1
100
AcDbCircle
10
-85
20
55
40
1.5
0
CIRCLE
5
10B
100
AcDbEntity
8
Default
6
ByLayer
62
256
370
-1
100
AcDbCircle
10
-59
20
55
40
1.5
0
CIRCLE
5
10C
100
AcDbEntity
8
Default
6
ByLayer
62
256
370
-1
100
AcDbCircle
10
-85
20
33
40
1.5
0
CIRCLE
5
10D
100
AcDbEntity
8
Default
6
ByLayer
62
256
370
-1
100
AcDbCircle
10
-59
20
33
40
1.5
0
CIRCLE
5
10E
100
AcDbEntity
8
Default
6
ByLayer
62
256
370
-1
100
AcDbCircle
10
-45
20
45
40
2
0
CIRCLE
5
10F
100
AcDbEntity
8
Default
6
ByLayer
62
256
370
-1
100
AcDbCircle
10
-45
20
-45
40
2
0
CIRCLE
5
110
100
AcDbEntity
8
Default
6
ByLayer
62
256
370
-1
100
AcDbCircle
10
-59
20
-33
40
1.5
0
CIRCLE
5
111
100
AcDbEntity
8
Default
6
ByLayer
62
256
370
-1
100
AcDbCircle
10
-85
20
-33
40
1.5
0
CIRCLE
5
112
100
AcDbEntity
8
Default
6
ByLayer
62
256
370
-1
100
AcDbCircle
10
-59
20
-55
40
1.5
0
CIRCLE
5
113
100
AcDbEntity
8
Default
6
ByLayer
62
256
370
-1
100
AcDbCircle
10
-85
20
-55
40
1.5
0
CIRCLE
5
114
100
AcDbEntity
8
Default
6
ByLayer
62
256
370
-1
100
AcDbCircle
10
85
20
-55
40
1.5
0
CIRCLE
5
115
100
AcDbEntity
8
Default
6
ByLayer
62
256
370
-1
100
AcDbCircle
10
59
20
-55
40
1.5
0
CIRCLE
5
116
100
AcDbEntity
8
Default
6
ByLayer
62
256
370
-1
100
AcDbCircle
10
85
20
-33
40
1.5
0
CIRCLE
5
117
100
AcDbEntity
8
Default
6
ByLayer
62
256
370
-1
100
AcDbCircle
10
59
20
-33
40
1.5
0
CIRCLE
5
118
100
AcDbEntity
8
Default
6
ByLayer
62
256
370
-1
100
AcDbCircle
10
45
20
-45
40
2
0
CIRCLE
5
119
100
AcDbEntity
8
Default
6
ByLayer
62
256
370
-1
100
AcDbCircle
10
59
20
33
40
1.5
0
CIRCLE
5
11A
100
AcDbEntity
8
Default
6
ByLayer
62
256
370
-1
100
AcDbCircle
10
85
20
33
40
1.5
0
CIRCLE
5
11B
100
AcDbEntity
8
Default
6
ByLayer
62
256
370
-1
100
AcDbCircle
10
59
20
55
40
1.5
0
CIRCLE
5
11C
100
AcDbEntity
8
Default
6
ByLayer
62
256
370
-1
100
AcDbCircle
10
85
20
55
40
1.5
0
CIRCLE
5
11D
100
AcDbEntity
8
Default
6
ByLayer
62
256
370
-1
100
AcDbCircle
10
45
20
45
40
2
0
ARC
5
11E
100
AcDbEntity
8
Default
6
ByLayer
62
256
370
-1
100
AcDbCircle
10
8
20
-55
40
1.5
100
AcDbArc
50
180
51
0
0
LINE
5
11F
100
AcDbEntity
8
Default
6
ByLayer
62
256
370
-1
100
AcDbLine
10
6.5
20
-44.5
11
6.5
21
-55
0
LINE
5
120
100
AcDbEntity
8
Default
6
ByLayer
62
256
370
-1
100
AcDbLine
10
9.5
20
-55
11
9.5
21
-44.5
0
ARC
5
121
100
AcDbEntity
8
Default
6
ByLayer
62
256
370
-1
100
AcDbCircle
10
8
20
-44.5
40
1.5
100
AcDbArc
50
0
51
180
0
LINE
5
122
100
AcDbEntity
8
Default
6
ByLayer
62
256
370
-1
100
AcDbLine
10
-9.5
20
-44.5
11
-9.5
21
-55
0
LINE
5
123
100
AcDbEntity
8
Default
6
ByLayer
62
256
370
-1
100
AcDbLine
10
-6.5
20
-55
11
-6.5
21
-44.5
0
ARC
5
124
100
AcDbEntity
8
Default
6
ByLayer
62
256
370
-1
100
AcDbCircle
10
-8
20
-44.5
40
1.5
100
AcDbArc
50
0
51
180
0
ARC
5
125
100
AcDbEntity
8
Default
6
ByLayer
62
256
370
-1
100
AcDbCircle
10
-8
20
-55
40
1.5
100
AcDbArc
50
180
51
0
0
CIRCLE
5
126
100
AcDbEntity
8
Default
6
ByLayer
62
256
370
-1
100
AcDbCircle
10
-8
20
-30
40
1.5
0
CIRCLE
5
127
100
AcDbEntity
8
Default
6
ByLayer
62
256
370
-1
100
AcDbCircle
10
8
20
-30
40
1.5
0
DIMENSION
5
128
100
AcDbEntity
8
dim
6
ByLayer
62
256
370
-1
100
AcDbDimension
2
*D1
10
90
20
80
30
0
11
2.14313189851e-16
21
83.5
31
0
70
32
71
5
3
Standard
53
0
210
0
220
0
230
1
100
AcDbAlignedDimension
13
-90
23
60
33
0
14
90
24
60
34
0
100
AcDbRotatedDimension
0
DIMENSION
5
129
100
AcDbEntity
8
dim
6
ByLayer
62
256
370
-1
100
AcDbDimension
2
*D2
10
110
20
-60
30
0
11
106.5
21
4.28626379702e-16
31
0
70
32
71
5
3
Standard
53
0
210
0
220
0
230
1
100
AcDbAlignedDimension
13
90
23
60
33
0
14
90
24
-60
34
0
50
90
100
AcDbRotatedDimension
0
DIMENSION
5
12A
100
AcDbEntity
8
dim
6
ByLayer
62
256
370
-1
100
AcDbDimension
2
*D3
10
-60.4230249471
20
33.474341649
30
0
11
-57.8932028189
21
36.3203915432
31
0
70
35
1
ø3
71
5
3
Standard
53
0
210
0
220
0
230
1
100
AcDbDiametricDimension
15
-57.5769750529
25
32.525658351
35
0
40
0
0
DIMENSION
5
12B
100
AcDbEntity
8
dim
6
ByLayer
62
256
370
-1
100
AcDbDimension
2
*D4
10
-46.590126532
20
46.213053013
30
0
11
-42.8771572273
21
47.782721431
31
0
70
35
1
ø4
71
5
3
Standard
53
0
210
0
220
0
230
1
100
AcDbDiametricDimension
15
-43.409873468
25
43.786946987
35
0
40
0
0
DIMENSION
5
12C
100
AcDbEntity
8
dim
6
ByLayer
62
256
370
-1
100
AcDbDimension
2
*D5
10
-9.27199745601
20
-29.20500159
30
0
11
-6.14500370999
21
-27.032005936
31
0
70
35
1
ø3
71
5
3
Standard
53
0
210
0
220
0
230
1
100
AcDbDiametricDimension
15
-6.72800254399
25
-30.79499841
35
0
40
0
0
CIRCLE
5
12D
100
AcDbEntity
8
Default
6
ByLayer
62
256
370
-1
100
AcDbCircle
10
-8
20
52
40
1.5
0
CIRCLE
5
12E
100
AcDbEntity
8
Default
6
ByLayer
62
256
370
-1
100
AcDbCircle
10
8
20
52
40
1.5
0
DIMENSION
5
12F
100
AcDbEntity
8
dim
6
ByLayer
62
256
370
-1
100
AcDbDimension
2
*D6
10
-30
20
-55
30
0
11
-33.5
21
-49.75
31
0
70
32
71
5
3
Standard
53
0
210
0
220
0
230
1
100
AcDbAlignedDimension
13
-8
23
-44.5
33
0
14
-8
24
-55
34
0
50
90
100
AcDbRotatedDimension
0
DIMENSION
5
130
100
AcDbEntity
8
dim
6
ByLayer
62
256
370
-1
100
AcDbDimension
2
*D7
10
-90
20
-90
30
0
11
-49
21
-86.5
31
0
70
32
71
5
3
Standard
53
0
210
0
220
0
230
1
100
AcDbAlignedDimension
13
-8
23
-55
33
0
14
-90
24
-60
34
0
100
AcDbRotatedDimension
0
DIMENSION
5
131
100
AcDbEntity
8
dim
6
ByLayer
62
256
370
-1
100
AcDbDimension
2
*D8
10
-100
20
-60
30
0
11
-103.5
21
-57.5
31
0
70
32
71
5
3
Standard
53
0
210
0
220
0
230
1
100
AcDbAlignedDimension
13
-8
23
-55
33
0
14
-90
24
-60
34
0
50
90
100
AcDbRotatedDimension
0
DIMENSION
5
132
100
AcDbEntity
8
dim
6
ByLayer
62
256
370
-1
100
AcDbDimension
2
*D9
10
-45
20
-11
30
0
11
-48.5
21
2.5
31
0
70
32
71
5
3
Standard
53
0
210
0
220
0
230
1
100
AcDbAlignedDimension
13
-59
23
16
33
0
14
-59
24
-11
34
0
50
90
100
AcDbRotatedDimension
0
DIMENSION
5
133
100
AcDbEntity
8
dim
6
ByLayer
62
256
370
-1
100
AcDbDimension
2
*D10
10
-20
20
-19
30
0
11
-23.5
21
10.5
31
0
70
32
71
5
3
Standard
53
0
210
0
220
0
230
1
100
AcDbAlignedDimension
13
-12
23
40
33
0
14
-12
24
-19
34
0
50
90
100
AcDbRotatedDimension
0
DIMENSION
5
134
100
AcDbEntity
8
dim
6
ByLayer
62
256
370
-1
100
AcDbDimension
2
*D11
10
-23
20
-20
30
0
11
-31.5
21
-16.5
31
0
70
32
71
5
3
Standard
53
0
210
0
220
0
230
1
100
AcDbAlignedDimension
13
-40
23
-30
33
0
14
-23
24
-30
34
0
100
AcDbRotatedDimension
0
DIMENSION
5
135
100
AcDbEntity
8
dim
6
ByLayer
62
256
370
-1
100
AcDbDimension
2
*D12
10
-17
20
50
30
0
11
-23.5
21
53.5
31
0
70
32
71
5
3
Standard
53
0
210
0
220
0
230
1
100
AcDbAlignedDimension
13
-30
23
45
33
0
14
-17
24
45
34
0
100
AcDbRotatedDimension
0
DIMENSION
5
136
100
AcDbEntity
8
dim
6
ByLayer
62
256
370
-1
100
AcDbDimension
2
*D13
10
-45
20
70
30
0
11
-67.5
21
73.5
31
0
70
32
71
5
3
Standard
53
0
210
0
220
0
230
1
100
AcDbAlignedDimension
13
-90
23
60
33
0
14
-45
24
45
34
0
100
AcDbRotatedDimension
0
DIMENSION
5
137
100
AcDbEntity
8
dim
6
ByLayer
62
256
370
-1
100
AcDbDimension
2
*D14
10
-85
20
44.9147727273
30
0
11
-87.5
21
48.4147727273
31
0
70
32
71
5
3
Standard
53
0
210
0
220
0
230
1
100
AcDbAlignedDimension
13
-90
23
60
33
0
14
-85
24
55
34
0
100
AcDbRotatedDimension
0
DIMENSION
5
138
100
AcDbEntity
8
dim
6
ByLayer
62
256
370
-1
100
AcDbDimension
2
*D15
10
-100
20
60
30
0
11
-103.5
21
57.5
31
0
70
32
71
5
3
Standard
53
0
210
0
220
0
230
1
100
AcDbAlignedDimension
13
-85
23
55
33
0
14
-90
24
60
34
0
50
90
100
AcDbRotatedDimension
0
DIMENSION
5
139
100
AcDbEntity
8
dim
6
ByLayer
62
256
370
-1
100
AcDbDimension
2
*D16
10
-110
20
60
30
0
11
-113.5
21
52.5
31
0
70
32
71
5
3
Standard
53
0
210
0
220
0
230
1
100
AcDbAlignedDimension
13
-45
23
45
33
0
14
-90
24
60
34
0
50
90
100
AcDbRotatedDimension
0
DIMENSION
5
13A
100
AcDbEntity
8
dim
6
ByLayer
62
256
370
-1
100
AcDbDimension
2
*D17
10
-120
20
60
30
0
11
-123.5
21
46.5
31
0
70
32
71
5
3
Standard
53
0
210
0
220
0
230
1
100
AcDbAlignedDimension
13
-59
23
33
33
0
14
-90
24
60
34
0
50
90
100
AcDbRotatedDimension
0
DIMENSION
5
13B
100
AcDbEntity
8
dim
6
ByLayer
62
256
370
-1
100
AcDbDimension
2
*D18
10
-90
20
22.6022727273
30
0
11
-74.5
21
26.1022727273
31
0
70
32
71
5
3
Standard
53
0
210
0
220
0
230
1
100
AcDbAlignedDimension
13
-59
23
33
33
0
14
-90
24
60
34
0
100
AcDbRotatedDimension
0
DIMENSION
5
13C
100
AcDbEntity
8
dim
6
ByLayer
62
256
370
-1
100
AcDbDimension
2
*D19
10
-90
20
90
30
0
11
-49
21
93.5
31
0
70
32
71
5
3
Standard
53
0
210
0
220
0
230
1
100
AcDbAlignedDimension
13
-8
23
52
33
0
14
-90
24
60
34
0
100
AcDbRotatedDimension
0
DIMENSION
5
13D
100
AcDbEntity
8
dim
6
ByLayer
62
256
370
-1
100
AcDbDimension
2
*D20
10
0
20
60
30
0
11
-3.5
21
56
31
0
70
32
71
5
3
Standard
53
0
210
0
220
0
230
1
100
AcDbAlignedDimension
13
-8
23
52
33
0
14
-90
24
60
34
0
50
90
100
AcDbRotatedDimension
0
LINE
5
13E
100
AcDbEntity
8
0
6
ByLayer
62
256
370
-1
100
AcDbLine
10
-100
20
0
11
100
21
0
0
LINE
5
13F
100
AcDbEntity
8
0
6
ByLayer
62
256
370
-1
100
AcDbLine
10
0
20
70
11
0
21
-70
0
ENDSEC
0
SECTION
2
OBJECTS
0
DICTIONARY
5
C
330
0
100
AcDbDictionary
281
1
3
ACAD_GROUP
350
D
0
DICTIONARY
5
D
330
C
100
AcDbDictionary
281
1
0
ENDSEC
0
EOF
