solid OpenSCAD_Model
  facet normal -1 0 0
    outer loop
      vertex 0 0 0
      vertex 0 0 7
      vertex 0 42 0
    endloop
  endfacet
  facet normal -1 0 0
    outer loop
      vertex 0 42 0
      vertex 0 0 7
      vertex 0 42 7
    endloop
  endfacet
  facet normal 0 -1 0
    outer loop
      vertex 0 0 7
      vertex 0 0 0
      vertex 31 0 0
    endloop
  endfacet
  facet normal 0 -1 0
    outer loop
      vertex 31 0 7
      vertex 0 0 7
      vertex 31 0 0
    endloop
  endfacet
  facet normal 0 0 -1
    outer loop
      vertex 18.5402 23.7026 0
      vertex 0 42 0
      vertex 31 42 0
    endloop
  endfacet
  facet normal 0 0 -1
    outer loop
      vertex 0 0 0
      vertex 0 42 0
      vertex 5.45993 19.4525 0
    endloop
  endfacet
  facet normal 0 0 -1
    outer loop
      vertex 0 0 0
      vertex 5.45993 19.4525 0
      vertex 5.45993 17.5475 0
    endloop
  endfacet
  facet normal 0 0 -1
    outer loop
      vertex 0 0 0
      vertex 5.45993 17.5475 0
      vertex 5.9337 15.7023 0
    endloop
  endfacet
  facet normal 0 0 -1
    outer loop
      vertex 0 0 0
      vertex 5.9337 15.7023 0
      vertex 6.85147 14.0328 0
    endloop
  endfacet
  facet normal 0 0 -1
    outer loop
      vertex 6.78647 10.8817 0
      vertex 6.85147 14.0328 0
      vertex 8.15558 12.6441 0
    endloop
  endfacet
  facet normal 0 0 -1
    outer loop
      vertex 8.46352 11.4266 0
      vertex 8.15558 12.6441 0
      vertex 9.76408 11.6233 0
    endloop
  endfacet
  facet normal 0 0 -1
    outer loop
      vertex 9.5 10 0
      vertex 9.76408 11.6233 0
      vertex 31 0 0
    endloop
  endfacet
  facet normal 0 0 -1
    outer loop
      vertex 13.4772 10.915 0
      vertex 31 0 0
      vertex 11.5759 11.0346 0
    endloop
  endfacet
  facet normal 0 0 -1
    outer loop
      vertex 15.3485 11.272 0
      vertex 31 0 0
      vertex 13.4772 10.915 0
    endloop
  endfacet
  facet normal 0 0 -1
    outer loop
      vertex 17.0723 12.0831 0
      vertex 31 0 0
      vertex 15.3485 11.272 0
    endloop
  endfacet
  facet normal 0 0 -1
    outer loop
      vertex 20.3612 16.61 0
      vertex 31 0 0
      vertex 19.6599 14.8387 0
    endloop
  endfacet
  facet normal 0 0 -1
    outer loop
      vertex 17.0723 12.0831 0
      vertex 18.5402 13.2974 0
      vertex 31 0 0
    endloop
  endfacet
  facet normal 0 0 -1
    outer loop
      vertex 9.76408 25.3767 0
      vertex 9.37032 26.3899 0
      vertex 9.5 27 0
    endloop
  endfacet
  facet normal 0 0 -1
    outer loop
      vertex 18.5402 13.2974 0
      vertex 19.6599 14.8387 0
      vertex 31 0 0
    endloop
  endfacet
  facet normal 0 0 -1
    outer loop
      vertex 15.3485 25.728 0
      vertex 0 42 0
      vertex 17.0723 24.9169 0
    endloop
  endfacet
  facet normal 0 0 -1
    outer loop
      vertex 21.5328 18.8119 0
      vertex 20.3612 16.61 0
      vertex 31 42 0
    endloop
  endfacet
  facet normal 0 0 -1
    outer loop
      vertex 11.5759 25.9654 0
      vertex 0 42 0
      vertex 13.4772 26.085 0
    endloop
  endfacet
  facet normal 0 0 -1
    outer loop
      vertex 20.3612 16.61 0
      vertex 20.6 18.5 0
      vertex 31 42 0
    endloop
  endfacet
  facet normal 0 0 -1
    outer loop
      vertex 20.6 18.5 0
      vertex 20.3612 20.39 0
      vertex 31 42 0
    endloop
  endfacet
  facet normal 0 0 -1
    outer loop
      vertex 13.4772 26.085 0
      vertex 0 42 0
      vertex 15.3485 25.728 0
    endloop
  endfacet
  facet normal 0 0 -1
    outer loop
      vertex 20.3612 20.39 0
      vertex 19.6599 22.1613 0
      vertex 31 42 0
    endloop
  endfacet
  facet normal 0 0 -1
    outer loop
      vertex 17.0723 24.9169 0
      vertex 0 42 0
      vertex 18.5402 23.7026 0
    endloop
  endfacet
  facet normal 0 0 -1
    outer loop
      vertex 19.6599 22.1613 0
      vertex 18.5402 23.7026 0
      vertex 31 42 0
    endloop
  endfacet
  facet normal 0 0 -1
    outer loop
      vertex 9.37032 27.6101 0
      vertex 0 42 0
      vertex 11.5759 25.9654 0
    endloop
  endfacet
  facet normal 0 0 -1
    outer loop
      vertex 6.78647 26.1183 0
      vertex 6.85147 22.9672 0
      vertex 6.53278 26.6881 0
    endloop
  endfacet
  facet normal 0 0 -1
    outer loop
      vertex 5.9337 21.2977 0
      vertex 0 42 0
      vertex 6.85147 22.9672 0
    endloop
  endfacet
  facet normal 0 0 -1
    outer loop
      vertex 5.45993 19.4525 0
      vertex 0 42 0
      vertex 5.9337 21.2977 0
    endloop
  endfacet
  facet normal 0 0 -1
    outer loop
      vertex 0 0 0
      vertex 6.85147 14.0328 0
      vertex 6.53278 10.3119 0
    endloop
  endfacet
  facet normal 0 0 -1
    outer loop
      vertex 9.37032 26.3899 0
      vertex 9.76408 25.3767 0
      vertex 9.0037 25.8853 0
    endloop
  endfacet
  facet normal 0 0 -1
    outer loop
      vertex 7.84321 8.50822 0
      vertex 0 0 0
      vertex 7.25 8.70096 0
    endloop
  endfacet
  facet normal 0 0 -1
    outer loop
      vertex 0 0 0
      vertex 6.53278 9.68813 0
      vertex 6.78647 9.11832 0
    endloop
  endfacet
  facet normal 0 0 -1
    outer loop
      vertex 0 0 0
      vertex 6.78647 9.11832 0
      vertex 7.25 8.70096 0
    endloop
  endfacet
  facet normal 0 0 -1
    outer loop
      vertex 9.37032 10.6101 0
      vertex 9.76408 11.6233 0
      vertex 9.5 10 0
    endloop
  endfacet
  facet normal 0 0 -1
    outer loop
      vertex 0 0 0
      vertex 7.84321 8.50822 0
      vertex 31 0 0
    endloop
  endfacet
  facet normal 0 0 -1
    outer loop
      vertex 7.84321 8.50822 0
      vertex 8.46352 8.57341 0
      vertex 31 0 0
    endloop
  endfacet
  facet normal 0 0 -1
    outer loop
      vertex 9.0037 11.1147 0
      vertex 9.76408 11.6233 0
      vertex 9.37032 10.6101 0
    endloop
  endfacet
  facet normal 0 0 -1
    outer loop
      vertex 8.46352 8.57341 0
      vertex 9.0037 8.88528 0
      vertex 31 0 0
    endloop
  endfacet
  facet normal 0 0 -1
    outer loop
      vertex 9.0037 8.88528 0
      vertex 9.37032 9.38989 0
      vertex 31 0 0
    endloop
  endfacet
  facet normal 0 0 -1
    outer loop
      vertex 9.37032 9.38989 0
      vertex 9.5 10 0
      vertex 31 0 0
    endloop
  endfacet
  facet normal 0 0 -1
    outer loop
      vertex 8.46352 11.4266 0
      vertex 9.76408 11.6233 0
      vertex 9.0037 11.1147 0
    endloop
  endfacet
  facet normal 0 0 -1
    outer loop
      vertex 7.84321 11.4918 0
      vertex 8.15558 12.6441 0
      vertex 8.46352 11.4266 0
    endloop
  endfacet
  facet normal 0 0 -1
    outer loop
      vertex 7.25 11.299 0
      vertex 8.15558 12.6441 0
      vertex 7.84321 11.4918 0
    endloop
  endfacet
  facet normal 0 0 -1
    outer loop
      vertex 7.25 28.299 0
      vertex 0 42 0
      vertex 7.84321 28.4918 0
    endloop
  endfacet
  facet normal 0 0 -1
    outer loop
      vertex 6.53278 10.3119 0
      vertex 6.85147 14.0328 0
      vertex 6.78647 10.8817 0
    endloop
  endfacet
  facet normal 0 0 -1
    outer loop
      vertex 6.53278 27.3119 0
      vertex 0 42 0
      vertex 6.78647 27.8817 0
    endloop
  endfacet
  facet normal 0 0 -1
    outer loop
      vertex 6.53278 26.6881 0
      vertex 0 42 0
      vertex 6.53278 27.3119 0
    endloop
  endfacet
  facet normal 0 0 -1
    outer loop
      vertex 6.85147 22.9672 0
      vertex 0 42 0
      vertex 6.53278 26.6881 0
    endloop
  endfacet
  facet normal 0 0 -1
    outer loop
      vertex 7.84321 25.5082 0
      vertex 8.15558 24.3559 0
      vertex 7.25 25.701 0
    endloop
  endfacet
  facet normal 0 0 -1
    outer loop
      vertex 6.85147 22.9672 0
      vertex 6.78647 26.1183 0
      vertex 8.15558 24.3559 0
    endloop
  endfacet
  facet normal 0 0 -1
    outer loop
      vertex 6.78647 26.1183 0
      vertex 7.25 25.701 0
      vertex 8.15558 24.3559 0
    endloop
  endfacet
  facet normal 0 0 -1
    outer loop
      vertex 6.53278 9.68813 0
      vertex 0 0 0
      vertex 6.53278 10.3119 0
    endloop
  endfacet
  facet normal 0 0 -1
    outer loop
      vertex 22.25 17.201 0
      vertex 31 0 0
      vertex 21.7865 17.6183 0
    endloop
  endfacet
  facet normal 0 0 -1
    outer loop
      vertex 6.78647 10.8817 0
      vertex 8.15558 12.6441 0
      vertex 7.25 11.299 0
    endloop
  endfacet
  facet normal 0 0 -1
    outer loop
      vertex 6.78647 27.8817 0
      vertex 0 42 0
      vertex 7.25 28.299 0
    endloop
  endfacet
  facet normal 0 0 -1
    outer loop
      vertex 8.46352 28.4266 0
      vertex 0 42 0
      vertex 9.0037 28.1147 0
    endloop
  endfacet
  facet normal 0 0 -1
    outer loop
      vertex 8.15558 24.3559 0
      vertex 7.84321 25.5082 0
      vertex 8.46352 25.5734 0
    endloop
  endfacet
  facet normal 0 0 -1
    outer loop
      vertex 7.84321 28.4918 0
      vertex 0 42 0
      vertex 8.46352 28.4266 0
    endloop
  endfacet
  facet normal 0 0 -1
    outer loop
      vertex 8.15558 24.3559 0
      vertex 8.46352 25.5734 0
      vertex 9.0037 25.8853 0
    endloop
  endfacet
  facet normal 0 0 -1
    outer loop
      vertex 9.0037 28.1147 0
      vertex 0 42 0
      vertex 9.37032 27.6101 0
    endloop
  endfacet
  facet normal 0 0 -1
    outer loop
      vertex 8.15558 24.3559 0
      vertex 9.0037 25.8853 0
      vertex 9.76408 25.3767 0
    endloop
  endfacet
  facet normal 0 0 -1
    outer loop
      vertex 21.5328 18.1881 0
      vertex 20.3612 16.61 0
      vertex 21.5328 18.8119 0
    endloop
  endfacet
  facet normal 0 0 -1
    outer loop
      vertex 21.7865 19.3817 0
      vertex 21.5328 18.8119 0
      vertex 31 42 0
    endloop
  endfacet
  facet normal 0 0 -1
    outer loop
      vertex 21.7865 17.6183 0
      vertex 20.3612 16.61 0
      vertex 21.5328 18.1881 0
    endloop
  endfacet
  facet normal 0 0 -1
    outer loop
      vertex 31 0 0
      vertex 20.3612 16.61 0
      vertex 21.7865 17.6183 0
    endloop
  endfacet
  facet normal 0 0 -1
    outer loop
      vertex 22.8432 17.0082 0
      vertex 31 0 0
      vertex 22.25 17.201 0
    endloop
  endfacet
  facet normal 0 0 -1
    outer loop
      vertex 24.3703 19.1101 0
      vertex 31 42 0
      vertex 24.5 18.5 0
    endloop
  endfacet
  facet normal 0 0 -1
    outer loop
      vertex 31 0 0
      vertex 22.8432 17.0082 0
      vertex 23.4635 17.0734 0
    endloop
  endfacet
  facet normal 0 0 -1
    outer loop
      vertex 31 0 0
      vertex 23.4635 17.0734 0
      vertex 24.0037 17.3853 0
    endloop
  endfacet
  facet normal 0 0 -1
    outer loop
      vertex 31 0 0
      vertex 24.0037 17.3853 0
      vertex 24.3703 17.8899 0
    endloop
  endfacet
  facet normal 0 0 -1
    outer loop
      vertex 31 0 0
      vertex 24.3703 17.8899 0
      vertex 31 42 0
    endloop
  endfacet
  facet normal 0 0 -1
    outer loop
      vertex 24.3703 17.8899 0
      vertex 24.5 18.5 0
      vertex 31 42 0
    endloop
  endfacet
  facet normal 0 0 -1
    outer loop
      vertex 24.0037 19.6147 0
      vertex 31 42 0
      vertex 24.3703 19.1101 0
    endloop
  endfacet
  facet normal 0 0 -1
    outer loop
      vertex 23.4635 19.9266 0
      vertex 31 42 0
      vertex 24.0037 19.6147 0
    endloop
  endfacet
  facet normal 0 0 -1
    outer loop
      vertex 23.4635 19.9266 0
      vertex 22.8432 19.9918 0
      vertex 31 42 0
    endloop
  endfacet
  facet normal 0 0 -1
    outer loop
      vertex 22.8432 19.9918 0
      vertex 22.25 19.799 0
      vertex 31 42 0
    endloop
  endfacet
  facet normal 0 0 -1
    outer loop
      vertex 22.25 19.799 0
      vertex 21.7865 19.3817 0
      vertex 31 42 0
    endloop
  endfacet
  facet normal 0 0 -1
    outer loop
      vertex 11.5759 11.0346 0
      vertex 31 0 0
      vertex 9.76408 11.6233 0
    endloop
  endfacet
  facet normal 0 0 -1
    outer loop
      vertex 9.5 27 0
      vertex 9.37032 27.6101 0
      vertex 11.5759 25.9654 0
    endloop
  endfacet
  facet normal 0 0 -1
    outer loop
      vertex 9.76408 25.3767 0
      vertex 9.5 27 0
      vertex 11.5759 25.9654 0
    endloop
  endfacet
  facet normal 0 1 0
    outer loop
      vertex 0 42 0
      vertex 0 42 7
      vertex 31 42 0
    endloop
  endfacet
  facet normal 0 1 0
    outer loop
      vertex 31 42 0
      vertex 0 42 7
      vertex 31 42 7
    endloop
  endfacet
  facet normal 0 0 1
    outer loop
      vertex 3 3 7
      vertex 0 0 7
      vertex 31 0 7
    endloop
  endfacet
  facet normal 0 0 1
    outer loop
      vertex 28 3 7
      vertex 3 3 7
      vertex 31 0 7
    endloop
  endfacet
  facet normal 0 0 1
    outer loop
      vertex 0 42 7
      vertex 0 0 7
      vertex 3 3 7
    endloop
  endfacet
  facet normal 0 0 1
    outer loop
      vertex 31 42 7
      vertex 0 42 7
      vertex 3 39 7
    endloop
  endfacet
  facet normal 0 0 1
    outer loop
      vertex 31 42 7
      vertex 28 39 7
      vertex 31 0 7
    endloop
  endfacet
  facet normal 0 0 1
    outer loop
      vertex 31 42 7
      vertex 3 39 7
      vertex 28 39 7
    endloop
  endfacet
  facet normal 0 0 1
    outer loop
      vertex 28 39 7
      vertex 28 3 7
      vertex 31 0 7
    endloop
  endfacet
  facet normal 0 0 1
    outer loop
      vertex 3 3 7
      vertex 3 39 7
      vertex 0 42 7
    endloop
  endfacet
  facet normal 1 0 0
    outer loop
      vertex 31 0 7
      vertex 31 0 0
      vertex 31 42 0
    endloop
  endfacet
  facet normal 1 0 0
    outer loop
      vertex 31 42 7
      vertex 31 0 7
      vertex 31 42 0
    endloop
  endfacet
  facet normal 1 0 0
    outer loop
      vertex 5.45993 19.4525 0
      vertex 5.45993 19.4525 5
      vertex 5.45993 17.5475 5
    endloop
  endfacet
  facet normal 1 0 0
    outer loop
      vertex 5.45993 17.5475 0
      vertex 5.45993 19.4525 0
      vertex 5.45993 17.5475 5
    endloop
  endfacet
  facet normal 0.968583 -0.24869 0
    outer loop
      vertex 5.9337 21.2977 0
      vertex 5.9337 21.2977 5
      vertex 5.45993 19.4525 5
    endloop
  endfacet
  facet normal 0.968583 -0.24869 0
    outer loop
      vertex 5.45993 19.4525 0
      vertex 5.9337 21.2977 0
      vertex 5.45993 19.4525 5
    endloop
  endfacet
  facet normal 0.876307 -0.481754 0
    outer loop
      vertex 6.85147 22.9672 0
      vertex 6.85147 22.9672 5
      vertex 5.9337 21.2977 5
    endloop
  endfacet
  facet normal 0.876307 -0.481754 0
    outer loop
      vertex 5.9337 21.2977 0
      vertex 6.85147 22.9672 0
      vertex 5.9337 21.2977 5
    endloop
  endfacet
  facet normal 0.728969 -0.684547 0
    outer loop
      vertex 8.15558 24.3559 0
      vertex 8.15558 24.3559 5
      vertex 6.85147 22.9672 5
    endloop
  endfacet
  facet normal 0.728969 -0.684547 0
    outer loop
      vertex 6.85147 22.9672 0
      vertex 8.15558 24.3559 0
      vertex 6.85147 22.9672 5
    endloop
  endfacet
  facet normal 0.535827 -0.844328 0
    outer loop
      vertex 9.76408 25.3767 0
      vertex 9.76408 25.3767 5
      vertex 8.15558 24.3559 5
    endloop
  endfacet
  facet normal 0.535827 -0.844328 0
    outer loop
      vertex 8.15558 24.3559 0
      vertex 9.76408 25.3767 0
      vertex 8.15558 24.3559 5
    endloop
  endfacet
  facet normal 0.309017 -0.951057 0
    outer loop
      vertex 11.5759 25.9654 0
      vertex 11.5759 25.9654 5
      vertex 9.76408 25.3767 5
    endloop
  endfacet
  facet normal 0.309017 -0.951057 0
    outer loop
      vertex 9.76408 25.3767 0
      vertex 11.5759 25.9654 0
      vertex 9.76408 25.3767 5
    endloop
  endfacet
  facet normal 0.0627905 -0.998027 0
    outer loop
      vertex 13.4772 26.085 0
      vertex 13.4772 26.085 5
      vertex 11.5759 25.9654 5
    endloop
  endfacet
  facet normal 0.0627905 -0.998027 0
    outer loop
      vertex 11.5759 25.9654 0
      vertex 13.4772 26.085 0
      vertex 11.5759 25.9654 5
    endloop
  endfacet
  facet normal -0.187381 -0.982287 0
    outer loop
      vertex 15.3485 25.728 0
      vertex 15.3485 25.728 5
      vertex 13.4772 26.085 5
    endloop
  endfacet
  facet normal -0.187381 -0.982287 0
    outer loop
      vertex 13.4772 26.085 0
      vertex 15.3485 25.728 0
      vertex 13.4772 26.085 5
    endloop
  endfacet
  facet normal -0.425779 -0.904827 0
    outer loop
      vertex 17.0723 24.9169 0
      vertex 17.0723 24.9169 5
      vertex 15.3485 25.728 5
    endloop
  endfacet
  facet normal -0.425779 -0.904827 0
    outer loop
      vertex 15.3485 25.728 0
      vertex 17.0723 24.9169 0
      vertex 15.3485 25.728 5
    endloop
  endfacet
  facet normal -0.637424 -0.770513 0
    outer loop
      vertex 18.5402 23.7026 0
      vertex 18.5402 23.7026 5
      vertex 17.0723 24.9169 5
    endloop
  endfacet
  facet normal -0.637424 -0.770513 0
    outer loop
      vertex 17.0723 24.9169 0
      vertex 18.5402 23.7026 0
      vertex 17.0723 24.9169 5
    endloop
  endfacet
  facet normal -0.809017 -0.587785 0
    outer loop
      vertex 19.6599 22.1613 5
      vertex 18.5402 23.7026 5
      vertex 19.6599 22.1613 0
    endloop
  endfacet
  facet normal -0.809017 -0.587785 0
    outer loop
      vertex 19.6599 22.1613 0
      vertex 18.5402 23.7026 5
      vertex 18.5402 23.7026 0
    endloop
  endfacet
  facet normal -0.929777 -0.368124 0
    outer loop
      vertex 20.3612 20.39 5
      vertex 19.6599 22.1613 5
      vertex 20.3612 20.39 0
    endloop
  endfacet
  facet normal -0.929777 -0.368124 0
    outer loop
      vertex 20.3612 20.39 0
      vertex 19.6599 22.1613 5
      vertex 19.6599 22.1613 0
    endloop
  endfacet
  facet normal -0.992115 -0.125333 0
    outer loop
      vertex 20.6 18.5 5
      vertex 20.3612 20.39 5
      vertex 20.6 18.5 0
    endloop
  endfacet
  facet normal -0.992115 -0.125333 0
    outer loop
      vertex 20.6 18.5 0
      vertex 20.3612 20.39 5
      vertex 20.3612 20.39 0
    endloop
  endfacet
  facet normal -0.992115 0.125333 0
    outer loop
      vertex 20.6 18.5 5
      vertex 20.6 18.5 0
      vertex 20.3612 16.61 5
    endloop
  endfacet
  facet normal -0.992115 0.125333 0
    outer loop
      vertex 20.3612 16.61 5
      vertex 20.6 18.5 0
      vertex 20.3612 16.61 0
    endloop
  endfacet
  facet normal -0.929777 0.368124 0
    outer loop
      vertex 20.3612 16.61 5
      vertex 20.3612 16.61 0
      vertex 19.6599 14.8387 5
    endloop
  endfacet
  facet normal -0.929777 0.368124 0
    outer loop
      vertex 19.6599 14.8387 5
      vertex 20.3612 16.61 0
      vertex 19.6599 14.8387 0
    endloop
  endfacet
  facet normal -0.809017 0.587785 0
    outer loop
      vertex 19.6599 14.8387 5
      vertex 19.6599 14.8387 0
      vertex 18.5402 13.2974 5
    endloop
  endfacet
  facet normal -0.809017 0.587785 0
    outer loop
      vertex 18.5402 13.2974 5
      vertex 19.6599 14.8387 0
      vertex 18.5402 13.2974 0
    endloop
  endfacet
  facet normal -0.637424 0.770513 0
    outer loop
      vertex 18.5402 13.2974 5
      vertex 18.5402 13.2974 0
      vertex 17.0723 12.0831 5
    endloop
  endfacet
  facet normal -0.637424 0.770513 0
    outer loop
      vertex 17.0723 12.0831 5
      vertex 18.5402 13.2974 0
      vertex 17.0723 12.0831 0
    endloop
  endfacet
  facet normal -0.425779 0.904827 0
    outer loop
      vertex 17.0723 12.0831 5
      vertex 17.0723 12.0831 0
      vertex 15.3485 11.272 5
    endloop
  endfacet
  facet normal -0.425779 0.904827 0
    outer loop
      vertex 15.3485 11.272 5
      vertex 17.0723 12.0831 0
      vertex 15.3485 11.272 0
    endloop
  endfacet
  facet normal -0.187381 0.982287 0
    outer loop
      vertex 15.3485 11.272 5
      vertex 15.3485 11.272 0
      vertex 13.4772 10.915 5
    endloop
  endfacet
  facet normal -0.187381 0.982287 0
    outer loop
      vertex 13.4772 10.915 5
      vertex 15.3485 11.272 0
      vertex 13.4772 10.915 0
    endloop
  endfacet
  facet normal 0.0627905 0.998027 0
    outer loop
      vertex 13.4772 10.915 5
      vertex 13.4772 10.915 0
      vertex 11.5759 11.0346 5
    endloop
  endfacet
  facet normal 0.0627905 0.998027 0
    outer loop
      vertex 11.5759 11.0346 5
      vertex 13.4772 10.915 0
      vertex 11.5759 11.0346 0
    endloop
  endfacet
  facet normal 0.309017 0.951057 0
    outer loop
      vertex 11.5759 11.0346 5
      vertex 11.5759 11.0346 0
      vertex 9.76408 11.6233 5
    endloop
  endfacet
  facet normal 0.309017 0.951057 0
    outer loop
      vertex 9.76408 11.6233 5
      vertex 11.5759 11.0346 0
      vertex 9.76408 11.6233 0
    endloop
  endfacet
  facet normal 0.535827 0.844328 0
    outer loop
      vertex 9.76408 11.6233 5
      vertex 9.76408 11.6233 0
      vertex 8.15558 12.6441 5
    endloop
  endfacet
  facet normal 0.535827 0.844328 0
    outer loop
      vertex 8.15558 12.6441 5
      vertex 9.76408 11.6233 0
      vertex 8.15558 12.6441 0
    endloop
  endfacet
  facet normal 0.728969 0.684547 0
    outer loop
      vertex 6.85147 14.0328 5
      vertex 8.15558 12.6441 5
      vertex 8.15558 12.6441 0
    endloop
  endfacet
  facet normal 0.728969 0.684547 0
    outer loop
      vertex 6.85147 14.0328 0
      vertex 6.85147 14.0328 5
      vertex 8.15558 12.6441 0
    endloop
  endfacet
  facet normal 0.876307 0.481754 0
    outer loop
      vertex 5.9337 15.7023 5
      vertex 6.85147 14.0328 5
      vertex 6.85147 14.0328 0
    endloop
  endfacet
  facet normal 0.876307 0.481754 0
    outer loop
      vertex 5.9337 15.7023 0
      vertex 5.9337 15.7023 5
      vertex 6.85147 14.0328 0
    endloop
  endfacet
  facet normal 0.968583 0.24869 0
    outer loop
      vertex 5.45993 17.5475 5
      vertex 5.9337 15.7023 5
      vertex 5.9337 15.7023 0
    endloop
  endfacet
  facet normal 0.968583 0.24869 0
    outer loop
      vertex 5.45993 17.5475 0
      vertex 5.45993 17.5475 5
      vertex 5.9337 15.7023 0
    endloop
  endfacet
  facet normal 0.913545 -0.406737 0
    outer loop
      vertex 6.78647 10.8817 0
      vertex 6.78647 10.8817 5
      vertex 6.53278 10.3119 5
    endloop
  endfacet
  facet normal 0.913545 -0.406737 0
    outer loop
      vertex 6.53278 10.3119 0
      vertex 6.78647 10.8817 0
      vertex 6.53278 10.3119 5
    endloop
  endfacet
  facet normal 1 0 0
    outer loop
      vertex 6.53278 10.3119 0
      vertex 6.53278 10.3119 5
      vertex 6.53278 9.68813 5
    endloop
  endfacet
  facet normal 1 0 0
    outer loop
      vertex 6.53278 9.68813 0
      vertex 6.53278 10.3119 0
      vertex 6.53278 9.68813 5
    endloop
  endfacet
  facet normal 0.669131 -0.743145 0
    outer loop
      vertex 7.25 11.299 0
      vertex 7.25 11.299 5
      vertex 6.78647 10.8817 5
    endloop
  endfacet
  facet normal 0.669131 -0.743145 0
    outer loop
      vertex 6.78647 10.8817 0
      vertex 7.25 11.299 0
      vertex 6.78647 10.8817 5
    endloop
  endfacet
  facet normal 0.309018 -0.951056 0
    outer loop
      vertex 7.84321 11.4918 0
      vertex 7.84321 11.4918 5
      vertex 7.25 11.299 5
    endloop
  endfacet
  facet normal 0.309018 -0.951056 0
    outer loop
      vertex 7.25 11.299 0
      vertex 7.84321 11.4918 0
      vertex 7.25 11.299 5
    endloop
  endfacet
  facet normal -0.104528 -0.994522 0
    outer loop
      vertex 8.46352 11.4266 0
      vertex 8.46352 11.4266 5
      vertex 7.84321 11.4918 5
    endloop
  endfacet
  facet normal -0.104528 -0.994522 0
    outer loop
      vertex 7.84321 11.4918 0
      vertex 8.46352 11.4266 0
      vertex 7.84321 11.4918 5
    endloop
  endfacet
  facet normal -0.5 -0.866025 0
    outer loop
      vertex 9.0037 11.1147 0
      vertex 9.0037 11.1147 5
      vertex 8.46352 11.4266 5
    endloop
  endfacet
  facet normal -0.5 -0.866025 0
    outer loop
      vertex 8.46352 11.4266 0
      vertex 9.0037 11.1147 0
      vertex 8.46352 11.4266 5
    endloop
  endfacet
  facet normal -0.809017 -0.587785 0
    outer loop
      vertex 9.37032 10.6101 5
      vertex 9.0037 11.1147 5
      vertex 9.37032 10.6101 0
    endloop
  endfacet
  facet normal -0.809017 -0.587785 0
    outer loop
      vertex 9.37032 10.6101 0
      vertex 9.0037 11.1147 5
      vertex 9.0037 11.1147 0
    endloop
  endfacet
  facet normal -0.978148 -0.207912 0
    outer loop
      vertex 9.5 10 5
      vertex 9.37032 10.6101 5
      vertex 9.5 10 0
    endloop
  endfacet
  facet normal -0.978148 -0.207912 0
    outer loop
      vertex 9.5 10 0
      vertex 9.37032 10.6101 5
      vertex 9.37032 10.6101 0
    endloop
  endfacet
  facet normal -0.978148 0.207912 0
    outer loop
      vertex 9.5 10 5
      vertex 9.5 10 0
      vertex 9.37032 9.38989 5
    endloop
  endfacet
  facet normal -0.978148 0.207912 0
    outer loop
      vertex 9.37032 9.38989 5
      vertex 9.5 10 0
      vertex 9.37032 9.38989 0
    endloop
  endfacet
  facet normal -0.809017 0.587785 0
    outer loop
      vertex 9.37032 9.38989 5
      vertex 9.37032 9.38989 0
      vertex 9.0037 8.88528 5
    endloop
  endfacet
  facet normal -0.809017 0.587785 0
    outer loop
      vertex 9.0037 8.88528 5
      vertex 9.37032 9.38989 0
      vertex 9.0037 8.88528 0
    endloop
  endfacet
  facet normal -0.5 0.866025 0
    outer loop
      vertex 9.0037 8.88528 5
      vertex 9.0037 8.88528 0
      vertex 8.46352 8.57341 5
    endloop
  endfacet
  facet normal -0.5 0.866025 0
    outer loop
      vertex 8.46352 8.57341 5
      vertex 9.0037 8.88528 0
      vertex 8.46352 8.57341 0
    endloop
  endfacet
  facet normal -0.104528 0.994522 0
    outer loop
      vertex 8.46352 8.57341 5
      vertex 8.46352 8.57341 0
      vertex 7.84321 8.50822 5
    endloop
  endfacet
  facet normal -0.104528 0.994522 0
    outer loop
      vertex 7.84321 8.50822 5
      vertex 8.46352 8.57341 0
      vertex 7.84321 8.50822 0
    endloop
  endfacet
  facet normal 0.309018 0.951056 0
    outer loop
      vertex 7.84321 8.50822 5
      vertex 7.84321 8.50822 0
      vertex 7.25 8.70096 5
    endloop
  endfacet
  facet normal 0.309018 0.951056 0
    outer loop
      vertex 7.25 8.70096 5
      vertex 7.84321 8.50822 0
      vertex 7.25 8.70096 0
    endloop
  endfacet
  facet normal 0.669131 0.743145 0
    outer loop
      vertex 7.25 8.70096 5
      vertex 7.25 8.70096 0
      vertex 6.78647 9.11832 5
    endloop
  endfacet
  facet normal 0.669131 0.743145 0
    outer loop
      vertex 6.78647 9.11832 5
      vertex 7.25 8.70096 0
      vertex 6.78647 9.11832 0
    endloop
  endfacet
  facet normal 0.913545 0.406737 0
    outer loop
      vertex 6.53278 9.68813 5
      vertex 6.78647 9.11832 5
      vertex 6.78647 9.11832 0
    endloop
  endfacet
  facet normal 0.913545 0.406737 0
    outer loop
      vertex 6.53278 9.68813 0
      vertex 6.53278 9.68813 5
      vertex 6.78647 9.11832 0
    endloop
  endfacet
  facet normal 1 0 0
    outer loop
      vertex 6.53278 27.3119 0
      vertex 6.53278 27.3119 5
      vertex 6.53278 26.6881 5
    endloop
  endfacet
  facet normal 1 0 0
    outer loop
      vertex 6.53278 26.6881 0
      vertex 6.53278 27.3119 0
      vertex 6.53278 26.6881 5
    endloop
  endfacet
  facet normal 0.913545 -0.406737 0
    outer loop
      vertex 6.78647 27.8817 0
      vertex 6.78647 27.8817 5
      vertex 6.53278 27.3119 5
    endloop
  endfacet
  facet normal 0.913545 -0.406737 0
    outer loop
      vertex 6.53278 27.3119 0
      vertex 6.78647 27.8817 0
      vertex 6.53278 27.3119 5
    endloop
  endfacet
  facet normal 0.669131 -0.743145 0
    outer loop
      vertex 7.25 28.299 0
      vertex 7.25 28.299 5
      vertex 6.78647 27.8817 5
    endloop
  endfacet
  facet normal 0.669131 -0.743145 0
    outer loop
      vertex 6.78647 27.8817 0
      vertex 7.25 28.299 0
      vertex 6.78647 27.8817 5
    endloop
  endfacet
  facet normal 0.309018 -0.951056 0
    outer loop
      vertex 7.84321 28.4918 0
      vertex 7.84321 28.4918 5
      vertex 7.25 28.299 5
    endloop
  endfacet
  facet normal 0.309018 -0.951056 0
    outer loop
      vertex 7.25 28.299 0
      vertex 7.84321 28.4918 0
      vertex 7.25 28.299 5
    endloop
  endfacet
  facet normal -0.104528 -0.994522 0
    outer loop
      vertex 8.46352 28.4266 0
      vertex 8.46352 28.4266 5
      vertex 7.84321 28.4918 5
    endloop
  endfacet
  facet normal -0.104528 -0.994522 0
    outer loop
      vertex 7.84321 28.4918 0
      vertex 8.46352 28.4266 0
      vertex 7.84321 28.4918 5
    endloop
  endfacet
  facet normal -0.5 -0.866025 0
    outer loop
      vertex 9.0037 28.1147 0
      vertex 9.0037 28.1147 5
      vertex 8.46352 28.4266 5
    endloop
  endfacet
  facet normal -0.5 -0.866025 0
    outer loop
      vertex 8.46352 28.4266 0
      vertex 9.0037 28.1147 0
      vertex 8.46352 28.4266 5
    endloop
  endfacet
  facet normal -0.809017 -0.587785 0
    outer loop
      vertex 9.37032 27.6101 5
      vertex 9.0037 28.1147 5
      vertex 9.37032 27.6101 0
    endloop
  endfacet
  facet normal -0.809017 -0.587785 0
    outer loop
      vertex 9.37032 27.6101 0
      vertex 9.0037 28.1147 5
      vertex 9.0037 28.1147 0
    endloop
  endfacet
  facet normal -0.978148 -0.207912 0
    outer loop
      vertex 9.5 27 5
      vertex 9.37032 27.6101 5
      vertex 9.5 27 0
    endloop
  endfacet
  facet normal -0.978148 -0.207912 0
    outer loop
      vertex 9.5 27 0
      vertex 9.37032 27.6101 5
      vertex 9.37032 27.6101 0
    endloop
  endfacet
  facet normal -0.978148 0.207912 0
    outer loop
      vertex 9.5 27 5
      vertex 9.5 27 0
      vertex 9.37032 26.3899 5
    endloop
  endfacet
  facet normal -0.978148 0.207912 0
    outer loop
      vertex 9.37032 26.3899 5
      vertex 9.5 27 0
      vertex 9.37032 26.3899 0
    endloop
  endfacet
  facet normal -0.809017 0.587785 0
    outer loop
      vertex 9.37032 26.3899 5
      vertex 9.37032 26.3899 0
      vertex 9.0037 25.8853 5
    endloop
  endfacet
  facet normal -0.809017 0.587785 0
    outer loop
      vertex 9.0037 25.8853 5
      vertex 9.37032 26.3899 0
      vertex 9.0037 25.8853 0
    endloop
  endfacet
  facet normal -0.5 0.866025 0
    outer loop
      vertex 9.0037 25.8853 5
      vertex 9.0037 25.8853 0
      vertex 8.46352 25.5734 5
    endloop
  endfacet
  facet normal -0.5 0.866025 0
    outer loop
      vertex 8.46352 25.5734 5
      vertex 9.0037 25.8853 0
      vertex 8.46352 25.5734 0
    endloop
  endfacet
  facet normal -0.104528 0.994522 0
    outer loop
      vertex 8.46352 25.5734 5
      vertex 8.46352 25.5734 0
      vertex 7.84321 25.5082 5
    endloop
  endfacet
  facet normal -0.104528 0.994522 0
    outer loop
      vertex 7.84321 25.5082 5
      vertex 8.46352 25.5734 0
      vertex 7.84321 25.5082 0
    endloop
  endfacet
  facet normal 0.309018 0.951056 0
    outer loop
      vertex 7.84321 25.5082 5
      vertex 7.84321 25.5082 0
      vertex 7.25 25.701 5
    endloop
  endfacet
  facet normal 0.309018 0.951056 0
    outer loop
      vertex 7.25 25.701 5
      vertex 7.84321 25.5082 0
      vertex 7.25 25.701 0
    endloop
  endfacet
  facet normal 0.669131 0.743145 0
    outer loop
      vertex 7.25 25.701 5
      vertex 7.25 25.701 0
      vertex 6.78647 26.1183 5
    endloop
  endfacet
  facet normal 0.669131 0.743145 0
    outer loop
      vertex 6.78647 26.1183 5
      vertex 7.25 25.701 0
      vertex 6.78647 26.1183 0
    endloop
  endfacet
  facet normal 0.913545 0.406737 0
    outer loop
      vertex 6.53278 26.6881 5
      vertex 6.78647 26.1183 5
      vertex 6.78647 26.1183 0
    endloop
  endfacet
  facet normal 0.913545 0.406737 0
    outer loop
      vertex 6.53278 26.6881 0
      vertex 6.53278 26.6881 5
      vertex 6.78647 26.1183 0
    endloop
  endfacet
  facet normal 1 0 0
    outer loop
      vertex 21.5328 18.8119 0
      vertex 21.5328 18.8119 5
      vertex 21.5328 18.1881 5
    endloop
  endfacet
  facet normal 1 0 0
    outer loop
      vertex 21.5328 18.1881 0
      vertex 21.5328 18.8119 0
      vertex 21.5328 18.1881 5
    endloop
  endfacet
  facet normal 0.913545 -0.406737 0
    outer loop
      vertex 21.7865 19.3817 0
      vertex 21.7865 19.3817 5
      vertex 21.5328 18.8119 5
    endloop
  endfacet
  facet normal 0.913545 -0.406737 0
    outer loop
      vertex 21.5328 18.8119 0
      vertex 21.7865 19.3817 0
      vertex 21.5328 18.8119 5
    endloop
  endfacet
  facet normal 0.669131 -0.743145 0
    outer loop
      vertex 22.25 19.799 0
      vertex 22.25 19.799 5
      vertex 21.7865 19.3817 5
    endloop
  endfacet
  facet normal 0.669131 -0.743145 0
    outer loop
      vertex 21.7865 19.3817 0
      vertex 22.25 19.799 0
      vertex 21.7865 19.3817 5
    endloop
  endfacet
  facet normal 0.309018 -0.951056 0
    outer loop
      vertex 22.8432 19.9918 0
      vertex 22.8432 19.9918 5
      vertex 22.25 19.799 5
    endloop
  endfacet
  facet normal 0.309018 -0.951056 0
    outer loop
      vertex 22.25 19.799 0
      vertex 22.8432 19.9918 0
      vertex 22.25 19.799 5
    endloop
  endfacet
  facet normal -0.104528 -0.994522 0
    outer loop
      vertex 23.4635 19.9266 0
      vertex 23.4635 19.9266 5
      vertex 22.8432 19.9918 5
    endloop
  endfacet
  facet normal -0.104528 -0.994522 0
    outer loop
      vertex 22.8432 19.9918 0
      vertex 23.4635 19.9266 0
      vertex 22.8432 19.9918 5
    endloop
  endfacet
  facet normal -0.5 -0.866025 0
    outer loop
      vertex 24.0037 19.6147 0
      vertex 24.0037 19.6147 5
      vertex 23.4635 19.9266 5
    endloop
  endfacet
  facet normal -0.5 -0.866025 0
    outer loop
      vertex 23.4635 19.9266 0
      vertex 24.0037 19.6147 0
      vertex 23.4635 19.9266 5
    endloop
  endfacet
  facet normal -0.809017 -0.587785 0
    outer loop
      vertex 24.3703 19.1101 5
      vertex 24.0037 19.6147 5
      vertex 24.3703 19.1101 0
    endloop
  endfacet
  facet normal -0.809017 -0.587785 0
    outer loop
      vertex 24.3703 19.1101 0
      vertex 24.0037 19.6147 5
      vertex 24.0037 19.6147 0
    endloop
  endfacet
  facet normal -0.978148 -0.207912 0
    outer loop
      vertex 24.5 18.5 5
      vertex 24.3703 19.1101 5
      vertex 24.5 18.5 0
    endloop
  endfacet
  facet normal -0.978148 -0.207912 0
    outer loop
      vertex 24.5 18.5 0
      vertex 24.3703 19.1101 5
      vertex 24.3703 19.1101 0
    endloop
  endfacet
  facet normal -0.978148 0.207912 0
    outer loop
      vertex 24.5 18.5 5
      vertex 24.5 18.5 0
      vertex 24.3703 17.8899 5
    endloop
  endfacet
  facet normal -0.978148 0.207912 0
    outer loop
      vertex 24.3703 17.8899 5
      vertex 24.5 18.5 0
      vertex 24.3703 17.8899 0
    endloop
  endfacet
  facet normal -0.809017 0.587785 0
    outer loop
      vertex 24.3703 17.8899 5
      vertex 24.3703 17.8899 0
      vertex 24.0037 17.3853 5
    endloop
  endfacet
  facet normal -0.809017 0.587785 0
    outer loop
      vertex 24.0037 17.3853 5
      vertex 24.3703 17.8899 0
      vertex 24.0037 17.3853 0
    endloop
  endfacet
  facet normal -0.5 0.866025 0
    outer loop
      vertex 24.0037 17.3853 5
      vertex 24.0037 17.3853 0
      vertex 23.4635 17.0734 5
    endloop
  endfacet
  facet normal -0.5 0.866025 0
    outer loop
      vertex 23.4635 17.0734 5
      vertex 24.0037 17.3853 0
      vertex 23.4635 17.0734 0
    endloop
  endfacet
  facet normal -0.104528 0.994522 0
    outer loop
      vertex 23.4635 17.0734 5
      vertex 23.4635 17.0734 0
      vertex 22.8432 17.0082 5
    endloop
  endfacet
  facet normal -0.104528 0.994522 0
    outer loop
      vertex 22.8432 17.0082 5
      vertex 23.4635 17.0734 0
      vertex 22.8432 17.0082 0
    endloop
  endfacet
  facet normal 0.309018 0.951056 0
    outer loop
      vertex 22.8432 17.0082 5
      vertex 22.8432 17.0082 0
      vertex 22.25 17.201 5
    endloop
  endfacet
  facet normal 0.309018 0.951056 0
    outer loop
      vertex 22.25 17.201 5
      vertex 22.8432 17.0082 0
      vertex 22.25 17.201 0
    endloop
  endfacet
  facet normal 0.669131 0.743145 0
    outer loop
      vertex 22.25 17.201 5
      vertex 22.25 17.201 0
      vertex 21.7865 17.6183 5
    endloop
  endfacet
  facet normal 0.669131 0.743145 0
    outer loop
      vertex 21.7865 17.6183 5
      vertex 22.25 17.201 0
      vertex 21.7865 17.6183 0
    endloop
  endfacet
  facet normal 0.913545 0.406737 0
    outer loop
      vertex 21.5328 18.1881 5
      vertex 21.7865 17.6183 5
      vertex 21.7865 17.6183 0
    endloop
  endfacet
  facet normal 0.913545 0.406737 0
    outer loop
      vertex 21.5328 18.1881 0
      vertex 21.5328 18.1881 5
      vertex 21.7865 17.6183 0
    endloop
  endfacet
  facet normal 1 0 0
    outer loop
      vertex 3 39 5
      vertex 3 39 7
      vertex 3 3 7
    endloop
  endfacet
  facet normal 1 0 0
    outer loop
      vertex 3 3 5
      vertex 3 39 5
      vertex 3 3 7
    endloop
  endfacet
  facet normal 0 1 0
    outer loop
      vertex 28 3 7
      vertex 28 3 5
      vertex 3 3 7
    endloop
  endfacet
  facet normal 0 1 0
    outer loop
      vertex 3 3 7
      vertex 28 3 5
      vertex 3 3 5
    endloop
  endfacet
  facet normal -1 0 0
    outer loop
      vertex 28 39 7
      vertex 28 39 5
      vertex 28 3 7
    endloop
  endfacet
  facet normal -1 0 0
    outer loop
      vertex 28 3 7
      vertex 28 39 5
      vertex 28 3 5
    endloop
  endfacet
  facet normal 0 -1 0
    outer loop
      vertex 28 39 5
      vertex 28 39 7
      vertex 3 39 7
    endloop
  endfacet
  facet normal 0 -1 0
    outer loop
      vertex 3 39 5
      vertex 28 39 5
      vertex 3 39 7
    endloop
  endfacet
  facet normal 0 0 1
    outer loop
      vertex 13.4772 26.085 5
      vertex 28 39 5
      vertex 3 39 5
    endloop
  endfacet
  facet normal 0 0 1
    outer loop
      vertex 20.3612 20.39 5
      vertex 20.6 18.5 5
      vertex 28 3 5
    endloop
  endfacet
  facet normal 0 0 1
    outer loop
      vertex 3 3 5
      vertex 5.45993 19.4525 5
      vertex 3 39 5
    endloop
  endfacet
  facet normal 0 0 1
    outer loop
      vertex 5.45993 19.4525 5
      vertex 5.9337 21.2977 5
      vertex 3 39 5
    endloop
  endfacet
  facet normal 0 0 1
    outer loop
      vertex 6.53278 9.68813 5
      vertex 6.53278 10.3119 5
      vertex 3 3 5
    endloop
  endfacet
  facet normal 0 0 1
    outer loop
      vertex 5.9337 21.2977 5
      vertex 6.85147 22.9672 5
      vertex 3 39 5
    endloop
  endfacet
  facet normal 0 0 1
    outer loop
      vertex 9.0037 28.1147 5
      vertex 9.37032 27.6101 5
      vertex 11.5759 25.9654 5
    endloop
  endfacet
  facet normal 0 0 1
    outer loop
      vertex 9.0037 28.1147 5
      vertex 11.5759 25.9654 5
      vertex 3 39 5
    endloop
  endfacet
  facet normal 0 0 1
    outer loop
      vertex 15.3485 25.728 5
      vertex 28 39 5
      vertex 13.4772 26.085 5
    endloop
  endfacet
  facet normal 0 0 1
    outer loop
      vertex 17.0723 24.9169 5
      vertex 28 39 5
      vertex 15.3485 25.728 5
    endloop
  endfacet
  facet normal 0 0 1
    outer loop
      vertex 20.3612 16.61 5
      vertex 19.6599 14.8387 5
      vertex 28 3 5
    endloop
  endfacet
  facet normal 0 0 1
    outer loop
      vertex 18.5402 23.7026 5
      vertex 28 39 5
      vertex 17.0723 24.9169 5
    endloop
  endfacet
  facet normal 0 0 1
    outer loop
      vertex 19.6599 22.1613 5
      vertex 28 39 5
      vertex 18.5402 23.7026 5
    endloop
  endfacet
  facet normal 0 0 1
    outer loop
      vertex 21.5328 18.8119 5
      vertex 28 39 5
      vertex 19.6599 22.1613 5
    endloop
  endfacet
  facet normal 0 0 1
    outer loop
      vertex 28 3 5
      vertex 19.6599 22.1613 5
      vertex 20.3612 20.39 5
    endloop
  endfacet
  facet normal 0 0 1
    outer loop
      vertex 19.6599 14.8387 5
      vertex 18.5402 13.2974 5
      vertex 28 3 5
    endloop
  endfacet
  facet normal 0 0 1
    outer loop
      vertex 20.6 18.5 5
      vertex 20.3612 16.61 5
      vertex 28 3 5
    endloop
  endfacet
  facet normal 0 0 1
    outer loop
      vertex 18.5402 13.2974 5
      vertex 17.0723 12.0831 5
      vertex 28 3 5
    endloop
  endfacet
  facet normal 0 0 1
    outer loop
      vertex 17.0723 12.0831 5
      vertex 15.3485 11.272 5
      vertex 28 3 5
    endloop
  endfacet
  facet normal 0 0 1
    outer loop
      vertex 7.25 11.299 5
      vertex 7.84321 11.4918 5
      vertex 8.15558 12.6441 5
    endloop
  endfacet
  facet normal 0 0 1
    outer loop
      vertex 3 3 5
      vertex 28 3 5
      vertex 15.3485 11.272 5
    endloop
  endfacet
  facet normal 0 0 1
    outer loop
      vertex 3 3 5
      vertex 15.3485 11.272 5
      vertex 13.4772 10.915 5
    endloop
  endfacet
  facet normal 0 0 1
    outer loop
      vertex 3 3 5
      vertex 13.4772 10.915 5
      vertex 11.5759 11.0346 5
    endloop
  endfacet
  facet normal 0 0 1
    outer loop
      vertex 9.37032 10.6101 5
      vertex 11.5759 11.0346 5
      vertex 9.76408 11.6233 5
    endloop
  endfacet
  facet normal 0 0 1
    outer loop
      vertex 7.84321 11.4918 5
      vertex 9.76408 11.6233 5
      vertex 8.15558 12.6441 5
    endloop
  endfacet
  facet normal 0 0 1
    outer loop
      vertex 6.78647 10.8817 5
      vertex 8.15558 12.6441 5
      vertex 6.85147 14.0328 5
    endloop
  endfacet
  facet normal 0 0 1
    outer loop
      vertex 3 3 5
      vertex 6.85147 14.0328 5
      vertex 5.9337 15.7023 5
    endloop
  endfacet
  facet normal 0 0 1
    outer loop
      vertex 3 3 5
      vertex 5.45993 17.5475 5
      vertex 5.45993 19.4525 5
    endloop
  endfacet
  facet normal 0 0 1
    outer loop
      vertex 3 3 5
      vertex 5.9337 15.7023 5
      vertex 5.45993 17.5475 5
    endloop
  endfacet
  facet normal 0 0 1
    outer loop
      vertex 3 3 5
      vertex 6.53278 10.3119 5
      vertex 6.85147 14.0328 5
    endloop
  endfacet
  facet normal 0 0 1
    outer loop
      vertex 6.53278 10.3119 5
      vertex 6.78647 10.8817 5
      vertex 6.85147 14.0328 5
    endloop
  endfacet
  facet normal 0 0 1
    outer loop
      vertex 9.0037 11.1147 5
      vertex 9.37032 10.6101 5
      vertex 9.76408 11.6233 5
    endloop
  endfacet
  facet normal 0 0 1
    outer loop
      vertex 8.46352 11.4266 5
      vertex 9.76408 11.6233 5
      vertex 7.84321 11.4918 5
    endloop
  endfacet
  facet normal 0 0 1
    outer loop
      vertex 9.0037 11.1147 5
      vertex 9.76408 11.6233 5
      vertex 8.46352 11.4266 5
    endloop
  endfacet
  facet normal 0 0 1
    outer loop
      vertex 6.78647 9.11832 5
      vertex 6.53278 9.68813 5
      vertex 3 3 5
    endloop
  endfacet
  facet normal 0 0 1
    outer loop
      vertex 7.25 8.70096 5
      vertex 6.78647 9.11832 5
      vertex 3 3 5
    endloop
  endfacet
  facet normal 0 0 1
    outer loop
      vertex 9.5 10 5
      vertex 11.5759 11.0346 5
      vertex 9.37032 10.6101 5
    endloop
  endfacet
  facet normal 0 0 1
    outer loop
      vertex 9.37032 9.38989 5
      vertex 11.5759 11.0346 5
      vertex 9.5 10 5
    endloop
  endfacet
  facet normal 0 0 1
    outer loop
      vertex 9.0037 8.88528 5
      vertex 11.5759 11.0346 5
      vertex 9.37032 9.38989 5
    endloop
  endfacet
  facet normal 0 0 1
    outer loop
      vertex 8.46352 8.57341 5
      vertex 7.84321 8.50822 5
      vertex 3 3 5
    endloop
  endfacet
  facet normal 0 0 1
    outer loop
      vertex 3 3 5
      vertex 11.5759 11.0346 5
      vertex 9.0037 8.88528 5
    endloop
  endfacet
  facet normal 0 0 1
    outer loop
      vertex 7.84321 8.50822 5
      vertex 7.25 8.70096 5
      vertex 3 3 5
    endloop
  endfacet
  facet normal 0 0 1
    outer loop
      vertex 6.78647 27.8817 5
      vertex 7.25 28.299 5
      vertex 3 39 5
    endloop
  endfacet
  facet normal 0 0 1
    outer loop
      vertex 9.0037 8.88528 5
      vertex 8.46352 8.57341 5
      vertex 3 3 5
    endloop
  endfacet
  facet normal 0 0 1
    outer loop
      vertex 6.78647 10.8817 5
      vertex 7.25 11.299 5
      vertex 8.15558 12.6441 5
    endloop
  endfacet
  facet normal 0 0 1
    outer loop
      vertex 6.53278 26.6881 5
      vertex 6.53278 27.3119 5
      vertex 3 39 5
    endloop
  endfacet
  facet normal 0 0 1
    outer loop
      vertex 6.53278 27.3119 5
      vertex 6.78647 27.8817 5
      vertex 3 39 5
    endloop
  endfacet
  facet normal 0 0 1
    outer loop
      vertex 6.78647 26.1183 5
      vertex 6.53278 26.6881 5
      vertex 6.85147 22.9672 5
    endloop
  endfacet
  facet normal 0 0 1
    outer loop
      vertex 7.84321 25.5082 5
      vertex 7.25 25.701 5
      vertex 8.15558 24.3559 5
    endloop
  endfacet
  facet normal 0 0 1
    outer loop
      vertex 7.25 28.299 5
      vertex 7.84321 28.4918 5
      vertex 3 39 5
    endloop
  endfacet
  facet normal 0 0 1
    outer loop
      vertex 8.46352 25.5734 5
      vertex 7.84321 25.5082 5
      vertex 8.15558 24.3559 5
    endloop
  endfacet
  facet normal 0 0 1
    outer loop
      vertex 8.46352 28.4266 5
      vertex 9.0037 28.1147 5
      vertex 3 39 5
    endloop
  endfacet
  facet normal 0 0 1
    outer loop
      vertex 9.5 27 5
      vertex 9.37032 26.3899 5
      vertex 9.76408 25.3767 5
    endloop
  endfacet
  facet normal 0 0 1
    outer loop
      vertex 9.5 27 5
      vertex 11.5759 25.9654 5
      vertex 9.37032 27.6101 5
    endloop
  endfacet
  facet normal 0 0 1
    outer loop
      vertex 9.76408 25.3767 5
      vertex 11.5759 25.9654 5
      vertex 9.5 27 5
    endloop
  endfacet
  facet normal 0 0 1
    outer loop
      vertex 8.15558 24.3559 5
      vertex 9.76408 25.3767 5
      vertex 9.0037 25.8853 5
    endloop
  endfacet
  facet normal 0 0 1
    outer loop
      vertex 8.15558 24.3559 5
      vertex 9.0037 25.8853 5
      vertex 8.46352 25.5734 5
    endloop
  endfacet
  facet normal 0 0 1
    outer loop
      vertex 7.84321 28.4918 5
      vertex 8.46352 28.4266 5
      vertex 3 39 5
    endloop
  endfacet
  facet normal 0 0 1
    outer loop
      vertex 6.85147 22.9672 5
      vertex 8.15558 24.3559 5
      vertex 7.25 25.701 5
    endloop
  endfacet
  facet normal 0 0 1
    outer loop
      vertex 24.5 18.5 5
      vertex 24.3703 17.8899 5
      vertex 28 3 5
    endloop
  endfacet
  facet normal 0 0 1
    outer loop
      vertex 6.85147 22.9672 5
      vertex 7.25 25.701 5
      vertex 6.78647 26.1183 5
    endloop
  endfacet
  facet normal 0 0 1
    outer loop
      vertex 6.85147 22.9672 5
      vertex 6.53278 26.6881 5
      vertex 3 39 5
    endloop
  endfacet
  facet normal 0 0 1
    outer loop
      vertex 21.5328 18.1881 5
      vertex 21.5328 18.8119 5
      vertex 19.6599 22.1613 5
    endloop
  endfacet
  facet normal 0 0 1
    outer loop
      vertex 21.7865 19.3817 5
      vertex 28 39 5
      vertex 21.5328 18.8119 5
    endloop
  endfacet
  facet normal 0 0 1
    outer loop
      vertex 22.25 19.799 5
      vertex 28 39 5
      vertex 21.7865 19.3817 5
    endloop
  endfacet
  facet normal 0 0 1
    outer loop
      vertex 22.8432 19.9918 5
      vertex 28 39 5
      vertex 22.25 19.799 5
    endloop
  endfacet
  facet normal 0 0 1
    outer loop
      vertex 23.4635 19.9266 5
      vertex 28 39 5
      vertex 22.8432 19.9918 5
    endloop
  endfacet
  facet normal 0 0 1
    outer loop
      vertex 24.0037 19.6147 5
      vertex 28 39 5
      vertex 23.4635 19.9266 5
    endloop
  endfacet
  facet normal 0 0 1
    outer loop
      vertex 24.3703 19.1101 5
      vertex 28 39 5
      vertex 24.0037 19.6147 5
    endloop
  endfacet
  facet normal 0 0 1
    outer loop
      vertex 28 3 5
      vertex 28 39 5
      vertex 24.3703 19.1101 5
    endloop
  endfacet
  facet normal 0 0 1
    outer loop
      vertex 24.3703 17.8899 5
      vertex 24.0037 17.3853 5
      vertex 28 3 5
    endloop
  endfacet
  facet normal 0 0 1
    outer loop
      vertex 28 3 5
      vertex 24.3703 19.1101 5
      vertex 24.5 18.5 5
    endloop
  endfacet
  facet normal 0 0 1
    outer loop
      vertex 24.0037 17.3853 5
      vertex 23.4635 17.0734 5
      vertex 28 3 5
    endloop
  endfacet
  facet normal 0 0 1
    outer loop
      vertex 23.4635 17.0734 5
      vertex 22.8432 17.0082 5
      vertex 28 3 5
    endloop
  endfacet
  facet normal 0 0 1
    outer loop
      vertex 22.8432 17.0082 5
      vertex 22.25 17.201 5
      vertex 28 3 5
    endloop
  endfacet
  facet normal 0 0 1
    outer loop
      vertex 22.25 17.201 5
      vertex 21.7865 17.6183 5
      vertex 28 3 5
    endloop
  endfacet
  facet normal 0 0 1
    outer loop
      vertex 28 3 5
      vertex 21.7865 17.6183 5
      vertex 19.6599 22.1613 5
    endloop
  endfacet
  facet normal 0 0 1
    outer loop
      vertex 21.7865 17.6183 5
      vertex 21.5328 18.1881 5
      vertex 19.6599 22.1613 5
    endloop
  endfacet
  facet normal 0 0 1
    outer loop
      vertex 11.5759 25.9654 5
      vertex 13.4772 26.085 5
      vertex 3 39 5
    endloop
  endfacet
  facet normal 0 0 1
    outer loop
      vertex 9.37032 26.3899 5
      vertex 9.0037 25.8853 5
      vertex 9.76408 25.3767 5
    endloop
  endfacet
endsolid OpenSCAD_Model
