solid OpenSCAD_Model
  facet normal 0 0 -1
    outer loop
      vertex -12.9477 -1.16531 0
      vertex -12.9477 1.16531 0
      vertex -12.5315 -3.45848 0
    endloop
  endfacet
  facet normal 0 0 -1
    outer loop
      vertex -12.5315 -3.45848 0
      vertex -12.9477 1.16531 0
      vertex -12.5315 3.45848 0
    endloop
  endfacet
  facet normal 0 0 -1
    outer loop
      vertex -12.5315 -3.45848 0
      vertex -12.5315 3.45848 0
      vertex -11.7126 5.64049 0
    endloop
  endfacet
  facet normal 0 0 -1
    outer loop
      vertex -12.5315 -3.45848 0
      vertex -11.7126 5.64049 0
      vertex -10.5172 7.64121 0
    endloop
  endfacet
  facet normal 0 0 -1
    outer loop
      vertex -12.5315 -3.45848 0
      vertex -10.5172 7.64121 0
      vertex -8.98381 9.39633 0
    endloop
  endfacet
  facet normal 0 0 -1
    outer loop
      vertex -12.5315 -3.45848 0
      vertex -8.98381 9.39633 0
      vertex -7.16166 10.8495 0
    endloop
  endfacet
  facet normal 0 0 -1
    outer loop
      vertex -12.5315 -3.45848 0
      vertex -7.16166 10.8495 0
      vertex -5.10933 11.9539 0
    endloop
  endfacet
  facet normal 0 0 -1
    outer loop
      vertex -5.75 9.79904 0
      vertex -5.10933 11.9539 0
      vertex -2.89277 12.6741 0
    endloop
  endfacet
  facet normal 0 0 -1
    outer loop
      vertex -3.9963 9.61472 0
      vertex -2.89277 12.6741 0
      vertex -0.583243 12.9869 0
    endloop
  endfacet
  facet normal 0 0 -1
    outer loop
      vertex -3.5 8.5 0
      vertex -0.583243 12.9869 0
      vertex 1.74503 12.8823 0
    endloop
  endfacet
  facet normal 0 0 -1
    outer loop
      vertex -12.5315 -3.45848 0
      vertex 1.74503 12.8823 0
      vertex 4.01722 12.3637 0
    endloop
  endfacet
  facet normal 0 0 -1
    outer loop
      vertex -12.5315 -3.45848 0
      vertex 4.01722 12.3637 0
      vertex 6.16029 11.4477 0
    endloop
  endfacet
  facet normal 0 0 -1
    outer loop
      vertex -12.5315 -3.45848 0
      vertex 6.16029 11.4477 0
      vertex 8.10537 10.1638 0
    endloop
  endfacet
  facet normal 0 0 -1
    outer loop
      vertex -12.5315 -3.45848 0
      vertex 8.10537 10.1638 0
      vertex 9.78993 8.5532 0
    endloop
  endfacet
  facet normal 0 0 -1
    outer loop
      vertex -12.5315 -3.45848 0
      vertex 9.78993 8.5532 0
      vertex 11.1598 6.66769 0
    endloop
  endfacet
  facet normal 0 0 -1
    outer loop
      vertex -12.5315 -3.45848 0
      vertex 11.1598 6.66769 0
      vertex 12.1711 4.56787 0
    endloop
  endfacet
  facet normal 0 0 -1
    outer loop
      vertex -12.5315 -3.45848 0
      vertex 12.1711 4.56787 0
      vertex 12.7911 2.32124 0
    endloop
  endfacet
  facet normal 0 0 -1
    outer loop
      vertex 11.3703 0.610105 0
      vertex 12.7911 2.32124 0
      vertex 13 0 0
    endloop
  endfacet
  facet normal 0 0 -1
    outer loop
      vertex 10.4635 -1.42658 0
      vertex 13 0 0
      vertex 12.7911 -2.32124 0
    endloop
  endfacet
  facet normal 0 0 -1
    outer loop
      vertex -12.5315 -3.45848 0
      vertex 12.7911 -2.32124 0
      vertex 12.1711 -4.56787 0
    endloop
  endfacet
  facet normal 0 0 -1
    outer loop
      vertex -12.5315 -3.45848 0
      vertex 12.1711 -4.56787 0
      vertex 11.1598 -6.66769 0
    endloop
  endfacet
  facet normal 0 0 -1
    outer loop
      vertex -12.5315 -3.45848 0
      vertex 11.1598 -6.66769 0
      vertex 9.78993 -8.5532 0
    endloop
  endfacet
  facet normal 0 0 -1
    outer loop
      vertex -12.5315 -3.45848 0
      vertex 9.78993 -8.5532 0
      vertex 8.10537 -10.1638 0
    endloop
  endfacet
  facet normal 0 0 -1
    outer loop
      vertex -12.5315 -3.45848 0
      vertex 8.10537 -10.1638 0
      vertex 6.16029 -11.4477 0
    endloop
  endfacet
  facet normal 0 0 -1
    outer loop
      vertex -3.62968 -7.88989 0
      vertex 6.16029 -11.4477 0
      vertex 4.01722 -12.3637 0
    endloop
  endfacet
  facet normal 0 0 -1
    outer loop
      vertex -3.62968 -9.1101 0
      vertex 4.01722 -12.3637 0
      vertex 1.74503 -12.8823 0
    endloop
  endfacet
  facet normal 0 0 -1
    outer loop
      vertex -3.9963 -9.61472 0
      vertex 1.74503 -12.8823 0
      vertex -0.583243 -12.9869 0
    endloop
  endfacet
  facet normal 0 0 -1
    outer loop
      vertex -5.15679 -9.99178 0
      vertex -0.583243 -12.9869 0
      vertex -2.89277 -12.6741 0
    endloop
  endfacet
  facet normal 0 0 -1
    outer loop
      vertex -12.5315 -3.45848 0
      vertex -2.89277 -12.6741 0
      vertex -5.10933 -11.9539 0
    endloop
  endfacet
  facet normal 0 0 -1
    outer loop
      vertex -12.5315 -3.45848 0
      vertex -5.10933 -11.9539 0
      vertex -7.16166 -10.8495 0
    endloop
  endfacet
  facet normal 0 0 -1
    outer loop
      vertex -12.5315 -3.45848 0
      vertex -7.16166 -10.8495 0
      vertex -8.98381 -9.39633 0
    endloop
  endfacet
  facet normal 0 0 -1
    outer loop
      vertex -12.5315 -3.45848 0
      vertex -8.98381 -9.39633 0
      vertex -10.5172 -7.64121 0
    endloop
  endfacet
  facet normal 0 0 -1
    outer loop
      vertex -12.5315 -3.45848 0
      vertex -10.5172 -7.64121 0
      vertex -11.7126 -5.64049 0
    endloop
  endfacet
  facet normal 0 0 -1
    outer loop
      vertex -6.46722 -8.81187 0
      vertex -12.5315 -3.45848 0
      vertex -6.46722 -8.18813 0
    endloop
  endfacet
  facet normal 0 0 -1
    outer loop
      vertex -3.9963 -9.61472 0
      vertex -0.583243 -12.9869 0
      vertex -4.53647 -9.92658 0
    endloop
  endfacet
  facet normal 0 0 -1
    outer loop
      vertex -12.5315 -3.45848 0
      vertex -6.46722 -8.81187 0
      vertex -6.21352 -9.38168 0
    endloop
  endfacet
  facet normal 0 0 -1
    outer loop
      vertex -12.5315 -3.45848 0
      vertex -6.21352 -9.38168 0
      vertex -2.89277 -12.6741 0
    endloop
  endfacet
  facet normal 0 0 -1
    outer loop
      vertex -6.21352 -9.38168 0
      vertex -5.75 -9.79904 0
      vertex -2.89277 -12.6741 0
    endloop
  endfacet
  facet normal 0 0 -1
    outer loop
      vertex -4.53647 -9.92658 0
      vertex -0.583243 -12.9869 0
      vertex -5.15679 -9.99178 0
    endloop
  endfacet
  facet normal 0 0 -1
    outer loop
      vertex -5.15679 -9.99178 0
      vertex -2.89277 -12.6741 0
      vertex -5.75 -9.79904 0
    endloop
  endfacet
  facet normal 0 0 -1
    outer loop
      vertex -3.62968 -9.1101 0
      vertex 1.74503 -12.8823 0
      vertex -3.9963 -9.61472 0
    endloop
  endfacet
  facet normal 0 0 -1
    outer loop
      vertex -3.5 -8.5 0
      vertex 4.01722 -12.3637 0
      vertex -3.62968 -9.1101 0
    endloop
  endfacet
  facet normal 0 0 -1
    outer loop
      vertex -3.62968 -7.88989 0
      vertex 4.01722 -12.3637 0
      vertex -3.5 -8.5 0
    endloop
  endfacet
  facet normal 0 0 -1
    outer loop
      vertex -5.15679 9.99178 0
      vertex -2.89277 12.6741 0
      vertex -4.53647 9.92658 0
    endloop
  endfacet
  facet normal 0 0 -1
    outer loop
      vertex -3.9963 -7.38528 0
      vertex 6.16029 -11.4477 0
      vertex -3.62968 -7.88989 0
    endloop
  endfacet
  facet normal 0 0 -1
    outer loop
      vertex -5.15679 -7.00822 0
      vertex -12.5315 -3.45848 0
      vertex -4.53647 -7.07341 0
    endloop
  endfacet
  facet normal 0 0 -1
    outer loop
      vertex -4.53647 -7.07341 0
      vertex 6.16029 -11.4477 0
      vertex -3.9963 -7.38528 0
    endloop
  endfacet
  facet normal 0 0 -1
    outer loop
      vertex -12.5315 -3.45848 0
      vertex 6.16029 -11.4477 0
      vertex -4.53647 -7.07341 0
    endloop
  endfacet
  facet normal 0 0 -1
    outer loop
      vertex -5.75 -7.20096 0
      vertex -12.5315 -3.45848 0
      vertex -5.15679 -7.00822 0
    endloop
  endfacet
  facet normal 0 0 -1
    outer loop
      vertex -5.75 7.20096 0
      vertex -12.5315 -3.45848 0
      vertex -6.21352 7.61832 0
    endloop
  endfacet
  facet normal 0 0 -1
    outer loop
      vertex -12.5315 -3.45848 0
      vertex -5.10933 11.9539 0
      vertex -6.46722 8.81187 0
    endloop
  endfacet
  facet normal 0 0 -1
    outer loop
      vertex -12.5315 -3.45848 0
      vertex -6.46722 8.81187 0
      vertex -6.46722 8.18813 0
    endloop
  endfacet
  facet normal 0 0 -1
    outer loop
      vertex -12.5315 -3.45848 0
      vertex -6.46722 8.18813 0
      vertex -6.21352 7.61832 0
    endloop
  endfacet
  facet normal 0 0 -1
    outer loop
      vertex -4.53647 7.07341 0
      vertex -12.5315 -3.45848 0
      vertex -5.15679 7.00822 0
    endloop
  endfacet
  facet normal 0 0 -1
    outer loop
      vertex -12.5315 -3.45848 0
      vertex -5.75 7.20096 0
      vertex -5.15679 7.00822 0
    endloop
  endfacet
  facet normal 0 0 -1
    outer loop
      vertex -3.5 8.5 0
      vertex 1.74503 12.8823 0
      vertex -3.62968 7.88989 0
    endloop
  endfacet
  facet normal 0 0 -1
    outer loop
      vertex -12.5315 -3.45848 0
      vertex -4.53647 7.07341 0
      vertex -3.9963 7.38528 0
    endloop
  endfacet
  facet normal 0 0 -1
    outer loop
      vertex -12.5315 -3.45848 0
      vertex -3.9963 7.38528 0
      vertex 1.74503 12.8823 0
    endloop
  endfacet
  facet normal 0 0 -1
    outer loop
      vertex -3.9963 7.38528 0
      vertex -3.62968 7.88989 0
      vertex 1.74503 12.8823 0
    endloop
  endfacet
  facet normal 0 0 -1
    outer loop
      vertex -3.62968 9.1101 0
      vertex -0.583243 12.9869 0
      vertex -3.5 8.5 0
    endloop
  endfacet
  facet normal 0 0 -1
    outer loop
      vertex -3.9963 9.61472 0
      vertex -0.583243 12.9869 0
      vertex -3.62968 9.1101 0
    endloop
  endfacet
  facet normal 0 0 -1
    outer loop
      vertex -4.53647 9.92658 0
      vertex -2.89277 12.6741 0
      vertex -3.9963 9.61472 0
    endloop
  endfacet
  facet normal 0 0 -1
    outer loop
      vertex -5.75 9.79904 0
      vertex -2.89277 12.6741 0
      vertex -5.15679 9.99178 0
    endloop
  endfacet
  facet normal 0 0 -1
    outer loop
      vertex -6.21352 9.38168 0
      vertex -5.10933 11.9539 0
      vertex -5.75 9.79904 0
    endloop
  endfacet
  facet normal 0 0 -1
    outer loop
      vertex 8.78647 -0.881678 0
      vertex -12.5315 -3.45848 0
      vertex 8.53278 -0.311868 0
    endloop
  endfacet
  facet normal 0 0 -1
    outer loop
      vertex -6.46722 8.81187 0
      vertex -5.10933 11.9539 0
      vertex -6.21352 9.38168 0
    endloop
  endfacet
  facet normal 0 0 -1
    outer loop
      vertex 8.78647 0.881678 0
      vertex -12.5315 -3.45848 0
      vertex 9.25 1.29904 0
    endloop
  endfacet
  facet normal 0 0 -1
    outer loop
      vertex -12.5315 -3.45848 0
      vertex 8.53278 0.311868 0
      vertex 8.53278 -0.311868 0
    endloop
  endfacet
  facet normal 0 0 -1
    outer loop
      vertex 10.4635 -1.42658 0
      vertex 12.7911 -2.32124 0
      vertex 9.84321 -1.49178 0
    endloop
  endfacet
  facet normal 0 0 -1
    outer loop
      vertex -12.5315 -3.45848 0
      vertex 8.78647 -0.881678 0
      vertex 9.25 -1.29904 0
    endloop
  endfacet
  facet normal 0 0 -1
    outer loop
      vertex -12.5315 -3.45848 0
      vertex 9.25 -1.29904 0
      vertex 9.84321 -1.49178 0
    endloop
  endfacet
  facet normal 0 0 -1
    outer loop
      vertex -12.5315 -3.45848 0
      vertex 9.84321 -1.49178 0
      vertex 12.7911 -2.32124 0
    endloop
  endfacet
  facet normal 0 0 -1
    outer loop
      vertex 11.0037 -1.11472 0
      vertex 13 0 0
      vertex 10.4635 -1.42658 0
    endloop
  endfacet
  facet normal 0 0 -1
    outer loop
      vertex 11.5 0 0
      vertex 13 0 0
      vertex 11.3703 -0.610105 0
    endloop
  endfacet
  facet normal 0 0 -1
    outer loop
      vertex 11.3703 -0.610105 0
      vertex 13 0 0
      vertex 11.0037 -1.11472 0
    endloop
  endfacet
  facet normal 0 0 -1
    outer loop
      vertex 11.3703 0.610105 0
      vertex 13 0 0
      vertex 11.5 0 0
    endloop
  endfacet
  facet normal 0 0 -1
    outer loop
      vertex 11.0037 1.11472 0
      vertex 12.7911 2.32124 0
      vertex 11.3703 0.610105 0
    endloop
  endfacet
  facet normal 0 0 -1
    outer loop
      vertex 10.4635 1.42658 0
      vertex 12.7911 2.32124 0
      vertex 11.0037 1.11472 0
    endloop
  endfacet
  facet normal 0 0 -1
    outer loop
      vertex 9.84321 1.49178 0
      vertex 12.7911 2.32124 0
      vertex 10.4635 1.42658 0
    endloop
  endfacet
  facet normal 0 0 -1
    outer loop
      vertex -12.5315 -3.45848 0
      vertex 12.7911 2.32124 0
      vertex 9.84321 1.49178 0
    endloop
  endfacet
  facet normal 0 0 -1
    outer loop
      vertex -12.5315 -3.45848 0
      vertex 9.84321 1.49178 0
      vertex 9.25 1.29904 0
    endloop
  endfacet
  facet normal 0 0 -1
    outer loop
      vertex -12.5315 -3.45848 0
      vertex 8.78647 0.881678 0
      vertex 8.53278 0.311868 0
    endloop
  endfacet
  facet normal 0 0 -1
    outer loop
      vertex -6.46722 -8.18813 0
      vertex -12.5315 -3.45848 0
      vertex -6.21352 -7.61832 0
    endloop
  endfacet
  facet normal 0 0 -1
    outer loop
      vertex -6.21352 -7.61832 0
      vertex -12.5315 -3.45848 0
      vertex -5.75 -7.20096 0
    endloop
  endfacet
  facet normal -1 0 0
    outer loop
      vertex -12.9477 -1.16531 0
      vertex -12.9477 -1.16531 5
      vertex -12.9477 1.16531 0
    endloop
  endfacet
  facet normal -1 0 0
    outer loop
      vertex -12.9477 1.16531 0
      vertex -12.9477 -1.16531 5
      vertex -12.9477 1.16531 5
    endloop
  endfacet
  facet normal -0.98393 -0.178557 0
    outer loop
      vertex -12.9477 -1.16531 0
      vertex -12.5315 -3.45848 0
      vertex -12.9477 -1.16531 5
    endloop
  endfacet
  facet normal -0.98393 -0.178557 0
    outer loop
      vertex -12.9477 -1.16531 5
      vertex -12.5315 -3.45848 0
      vertex -12.5315 -3.45848 5
    endloop
  endfacet
  facet normal -0.936235 -0.351375 0
    outer loop
      vertex -12.5315 -3.45848 0
      vertex -11.7126 -5.64049 0
      vertex -12.5315 -3.45848 5
    endloop
  endfacet
  facet normal -0.936235 -0.351375 0
    outer loop
      vertex -12.5315 -3.45848 5
      vertex -11.7126 -5.64049 0
      vertex -11.7126 -5.64049 5
    endloop
  endfacet
  facet normal -0.858449 -0.512899 0
    outer loop
      vertex -11.7126 -5.64049 0
      vertex -10.5172 -7.64121 0
      vertex -11.7126 -5.64049 5
    endloop
  endfacet
  facet normal -0.858449 -0.512899 0
    outer loop
      vertex -11.7126 -5.64049 5
      vertex -10.5172 -7.64121 0
      vertex -10.5172 -7.64121 5
    endloop
  endfacet
  facet normal -0.753071 -0.657939 0
    outer loop
      vertex -10.5172 -7.64121 0
      vertex -8.98381 -9.39633 0
      vertex -10.5172 -7.64121 5
    endloop
  endfacet
  facet normal -0.753071 -0.657939 0
    outer loop
      vertex -10.5172 -7.64121 5
      vertex -8.98381 -9.39633 0
      vertex -8.98381 -9.39633 5
    endloop
  endfacet
  facet normal -0.62349 -0.781831 0
    outer loop
      vertex -8.98381 -9.39633 5
      vertex -8.98381 -9.39633 0
      vertex -7.16166 -10.8495 0
    endloop
  endfacet
  facet normal -0.62349 -0.781831 0
    outer loop
      vertex -7.16166 -10.8495 5
      vertex -8.98381 -9.39633 5
      vertex -7.16166 -10.8495 0
    endloop
  endfacet
  facet normal -0.473869 -0.880596 0
    outer loop
      vertex -7.16166 -10.8495 5
      vertex -7.16166 -10.8495 0
      vertex -5.10933 -11.9539 0
    endloop
  endfacet
  facet normal -0.473869 -0.880596 0
    outer loop
      vertex -5.10933 -11.9539 5
      vertex -7.16166 -10.8495 5
      vertex -5.10933 -11.9539 0
    endloop
  endfacet
  facet normal -0.309017 -0.951056 0
    outer loop
      vertex -5.10933 -11.9539 5
      vertex -5.10933 -11.9539 0
      vertex -2.89277 -12.6741 0
    endloop
  endfacet
  facet normal -0.309017 -0.951056 0
    outer loop
      vertex -2.89277 -12.6741 5
      vertex -5.10933 -11.9539 5
      vertex -2.89277 -12.6741 0
    endloop
  endfacet
  facet normal -0.134233 -0.99095 0
    outer loop
      vertex -2.89277 -12.6741 5
      vertex -2.89277 -12.6741 0
      vertex -0.583243 -12.9869 0
    endloop
  endfacet
  facet normal -0.134233 -0.99095 0
    outer loop
      vertex -0.583243 -12.9869 5
      vertex -2.89277 -12.6741 5
      vertex -0.583243 -12.9869 0
    endloop
  endfacet
  facet normal 0.0448649 -0.998993 0
    outer loop
      vertex -0.583243 -12.9869 5
      vertex -0.583243 -12.9869 0
      vertex 1.74503 -12.8823 0
    endloop
  endfacet
  facet normal 0.0448649 -0.998993 0
    outer loop
      vertex 1.74503 -12.8823 5
      vertex -0.583243 -12.9869 5
      vertex 1.74503 -12.8823 0
    endloop
  endfacet
  facet normal 0.222521 -0.974928 0
    outer loop
      vertex 1.74503 -12.8823 5
      vertex 1.74503 -12.8823 0
      vertex 4.01722 -12.3637 0
    endloop
  endfacet
  facet normal 0.222521 -0.974928 0
    outer loop
      vertex 4.01722 -12.3637 5
      vertex 1.74503 -12.8823 5
      vertex 4.01722 -12.3637 0
    endloop
  endfacet
  facet normal 0.393025 -0.919528 0
    outer loop
      vertex 4.01722 -12.3637 5
      vertex 4.01722 -12.3637 0
      vertex 6.16029 -11.4477 0
    endloop
  endfacet
  facet normal 0.393025 -0.919528 0
    outer loop
      vertex 6.16029 -11.4477 5
      vertex 4.01722 -12.3637 5
      vertex 6.16029 -11.4477 0
    endloop
  endfacet
  facet normal 0.550897 -0.834573 0
    outer loop
      vertex 6.16029 -11.4477 5
      vertex 6.16029 -11.4477 0
      vertex 8.10537 -10.1638 0
    endloop
  endfacet
  facet normal 0.550897 -0.834573 0
    outer loop
      vertex 8.10537 -10.1638 5
      vertex 6.16029 -11.4477 5
      vertex 8.10537 -10.1638 0
    endloop
  endfacet
  facet normal 0.691063 -0.722795 0
    outer loop
      vertex 8.10537 -10.1638 5
      vertex 8.10537 -10.1638 0
      vertex 9.78993 -8.5532 0
    endloop
  endfacet
  facet normal 0.691063 -0.722795 0
    outer loop
      vertex 9.78993 -8.5532 5
      vertex 8.10537 -10.1638 5
      vertex 9.78993 -8.5532 0
    endloop
  endfacet
  facet normal 0.809017 -0.587785 0
    outer loop
      vertex 9.78993 -8.5532 5
      vertex 9.78993 -8.5532 0
      vertex 11.1598 -6.66769 0
    endloop
  endfacet
  facet normal 0.809017 -0.587785 0
    outer loop
      vertex 11.1598 -6.66769 5
      vertex 9.78993 -8.5532 5
      vertex 11.1598 -6.66769 0
    endloop
  endfacet
  facet normal 0.900969 -0.433884 0
    outer loop
      vertex 11.1598 -6.66769 5
      vertex 11.1598 -6.66769 0
      vertex 12.1711 -4.56787 0
    endloop
  endfacet
  facet normal 0.900969 -0.433884 0
    outer loop
      vertex 12.1711 -4.56787 5
      vertex 11.1598 -6.66769 5
      vertex 12.1711 -4.56787 0
    endloop
  endfacet
  facet normal 0.963963 -0.266037 0
    outer loop
      vertex 12.1711 -4.56787 5
      vertex 12.1711 -4.56787 0
      vertex 12.7911 -2.32124 0
    endloop
  endfacet
  facet normal 0.963963 -0.266037 0
    outer loop
      vertex 12.7911 -2.32124 5
      vertex 12.1711 -4.56787 5
      vertex 12.7911 -2.32124 0
    endloop
  endfacet
  facet normal 0.995974 -0.0896391 0
    outer loop
      vertex 12.7911 -2.32124 5
      vertex 12.7911 -2.32124 0
      vertex 13 0 0
    endloop
  endfacet
  facet normal 0.995974 -0.0896391 0
    outer loop
      vertex 13 0 5
      vertex 12.7911 -2.32124 5
      vertex 13 0 0
    endloop
  endfacet
  facet normal 0.995974 0.0896391 0
    outer loop
      vertex 13 0 0
      vertex 12.7911 2.32124 0
      vertex 12.7911 2.32124 5
    endloop
  endfacet
  facet normal 0.995974 0.0896391 0
    outer loop
      vertex 13 0 5
      vertex 13 0 0
      vertex 12.7911 2.32124 5
    endloop
  endfacet
  facet normal 0.963963 0.266037 0
    outer loop
      vertex 12.7911 2.32124 0
      vertex 12.1711 4.56787 0
      vertex 12.1711 4.56787 5
    endloop
  endfacet
  facet normal 0.963963 0.266037 0
    outer loop
      vertex 12.7911 2.32124 5
      vertex 12.7911 2.32124 0
      vertex 12.1711 4.56787 5
    endloop
  endfacet
  facet normal 0.900969 0.433884 0
    outer loop
      vertex 12.1711 4.56787 0
      vertex 11.1598 6.66769 0
      vertex 11.1598 6.66769 5
    endloop
  endfacet
  facet normal 0.900969 0.433884 0
    outer loop
      vertex 12.1711 4.56787 5
      vertex 12.1711 4.56787 0
      vertex 11.1598 6.66769 5
    endloop
  endfacet
  facet normal 0.809017 0.587785 0
    outer loop
      vertex 11.1598 6.66769 0
      vertex 9.78993 8.5532 0
      vertex 9.78993 8.5532 5
    endloop
  endfacet
  facet normal 0.809017 0.587785 0
    outer loop
      vertex 11.1598 6.66769 5
      vertex 11.1598 6.66769 0
      vertex 9.78993 8.5532 5
    endloop
  endfacet
  facet normal 0.691063 0.722795 0
    outer loop
      vertex 8.10537 10.1638 0
      vertex 8.10537 10.1638 5
      vertex 9.78993 8.5532 0
    endloop
  endfacet
  facet normal 0.691063 0.722795 0
    outer loop
      vertex 9.78993 8.5532 0
      vertex 8.10537 10.1638 5
      vertex 9.78993 8.5532 5
    endloop
  endfacet
  facet normal 0.550897 0.834573 0
    outer loop
      vertex 6.16029 11.4477 0
      vertex 6.16029 11.4477 5
      vertex 8.10537 10.1638 0
    endloop
  endfacet
  facet normal 0.550897 0.834573 0
    outer loop
      vertex 8.10537 10.1638 0
      vertex 6.16029 11.4477 5
      vertex 8.10537 10.1638 5
    endloop
  endfacet
  facet normal 0.393025 0.919528 0
    outer loop
      vertex 4.01722 12.3637 0
      vertex 4.01722 12.3637 5
      vertex 6.16029 11.4477 0
    endloop
  endfacet
  facet normal 0.393025 0.919528 0
    outer loop
      vertex 6.16029 11.4477 0
      vertex 4.01722 12.3637 5
      vertex 6.16029 11.4477 5
    endloop
  endfacet
  facet normal 0.222521 0.974928 0
    outer loop
      vertex 1.74503 12.8823 0
      vertex 1.74503 12.8823 5
      vertex 4.01722 12.3637 0
    endloop
  endfacet
  facet normal 0.222521 0.974928 0
    outer loop
      vertex 4.01722 12.3637 0
      vertex 1.74503 12.8823 5
      vertex 4.01722 12.3637 5
    endloop
  endfacet
  facet normal 0.0448649 0.998993 0
    outer loop
      vertex -0.583243 12.9869 0
      vertex -0.583243 12.9869 5
      vertex 1.74503 12.8823 0
    endloop
  endfacet
  facet normal 0.0448649 0.998993 0
    outer loop
      vertex 1.74503 12.8823 0
      vertex -0.583243 12.9869 5
      vertex 1.74503 12.8823 5
    endloop
  endfacet
  facet normal -0.134233 0.99095 0
    outer loop
      vertex -2.89277 12.6741 0
      vertex -2.89277 12.6741 5
      vertex -0.583243 12.9869 0
    endloop
  endfacet
  facet normal -0.134233 0.99095 0
    outer loop
      vertex -0.583243 12.9869 0
      vertex -2.89277 12.6741 5
      vertex -0.583243 12.9869 5
    endloop
  endfacet
  facet normal -0.309017 0.951056 0
    outer loop
      vertex -5.10933 11.9539 0
      vertex -5.10933 11.9539 5
      vertex -2.89277 12.6741 0
    endloop
  endfacet
  facet normal -0.309017 0.951056 0
    outer loop
      vertex -2.89277 12.6741 0
      vertex -5.10933 11.9539 5
      vertex -2.89277 12.6741 5
    endloop
  endfacet
  facet normal -0.473869 0.880596 0
    outer loop
      vertex -7.16166 10.8495 0
      vertex -7.16166 10.8495 5
      vertex -5.10933 11.9539 0
    endloop
  endfacet
  facet normal -0.473869 0.880596 0
    outer loop
      vertex -5.10933 11.9539 0
      vertex -7.16166 10.8495 5
      vertex -5.10933 11.9539 5
    endloop
  endfacet
  facet normal -0.62349 0.781831 0
    outer loop
      vertex -8.98381 9.39633 0
      vertex -8.98381 9.39633 5
      vertex -7.16166 10.8495 0
    endloop
  endfacet
  facet normal -0.62349 0.781831 0
    outer loop
      vertex -7.16166 10.8495 0
      vertex -8.98381 9.39633 5
      vertex -7.16166 10.8495 5
    endloop
  endfacet
  facet normal -0.753071 0.657939 0
    outer loop
      vertex -10.5172 7.64121 0
      vertex -10.5172 7.64121 5
      vertex -8.98381 9.39633 0
    endloop
  endfacet
  facet normal -0.753071 0.657939 0
    outer loop
      vertex -8.98381 9.39633 0
      vertex -10.5172 7.64121 5
      vertex -8.98381 9.39633 5
    endloop
  endfacet
  facet normal -0.858449 0.512899 0
    outer loop
      vertex -11.7126 5.64049 0
      vertex -11.7126 5.64049 5
      vertex -10.5172 7.64121 0
    endloop
  endfacet
  facet normal -0.858449 0.512899 0
    outer loop
      vertex -10.5172 7.64121 0
      vertex -11.7126 5.64049 5
      vertex -10.5172 7.64121 5
    endloop
  endfacet
  facet normal -0.936235 0.351375 0
    outer loop
      vertex -12.5315 3.45848 0
      vertex -12.5315 3.45848 5
      vertex -11.7126 5.64049 0
    endloop
  endfacet
  facet normal -0.936235 0.351375 0
    outer loop
      vertex -11.7126 5.64049 0
      vertex -12.5315 3.45848 5
      vertex -11.7126 5.64049 5
    endloop
  endfacet
  facet normal -0.98393 0.178557 0
    outer loop
      vertex -12.9477 1.16531 0
      vertex -12.9477 1.16531 5
      vertex -12.5315 3.45848 0
    endloop
  endfacet
  facet normal -0.98393 0.178557 0
    outer loop
      vertex -12.5315 3.45848 0
      vertex -12.9477 1.16531 5
      vertex -12.5315 3.45848 5
    endloop
  endfacet
  facet normal 0.913545 -0.406737 0
    outer loop
      vertex -6.21352 -7.61832 0
      vertex -6.21352 -7.61832 5
      vertex -6.46722 -8.18813 5
    endloop
  endfacet
  facet normal 0.913545 -0.406737 0
    outer loop
      vertex -6.46722 -8.18813 0
      vertex -6.21352 -7.61832 0
      vertex -6.46722 -8.18813 5
    endloop
  endfacet
  facet normal 1 0 0
    outer loop
      vertex -6.46722 -8.18813 0
      vertex -6.46722 -8.18813 5
      vertex -6.46722 -8.81187 5
    endloop
  endfacet
  facet normal 1 0 0
    outer loop
      vertex -6.46722 -8.81187 0
      vertex -6.46722 -8.18813 0
      vertex -6.46722 -8.81187 5
    endloop
  endfacet
  facet normal 0.669131 -0.743145 0
    outer loop
      vertex -5.75 -7.20096 0
      vertex -5.75 -7.20096 5
      vertex -6.21352 -7.61832 5
    endloop
  endfacet
  facet normal 0.669131 -0.743145 0
    outer loop
      vertex -6.21352 -7.61832 0
      vertex -5.75 -7.20096 0
      vertex -6.21352 -7.61832 5
    endloop
  endfacet
  facet normal 0.309018 -0.951056 0
    outer loop
      vertex -5.15679 -7.00822 0
      vertex -5.15679 -7.00822 5
      vertex -5.75 -7.20096 5
    endloop
  endfacet
  facet normal 0.309018 -0.951056 0
    outer loop
      vertex -5.75 -7.20096 0
      vertex -5.15679 -7.00822 0
      vertex -5.75 -7.20096 5
    endloop
  endfacet
  facet normal -0.104528 -0.994522 0
    outer loop
      vertex -4.53647 -7.07341 0
      vertex -4.53647 -7.07341 5
      vertex -5.15679 -7.00822 5
    endloop
  endfacet
  facet normal -0.104528 -0.994522 0
    outer loop
      vertex -5.15679 -7.00822 0
      vertex -4.53647 -7.07341 0
      vertex -5.15679 -7.00822 5
    endloop
  endfacet
  facet normal -0.5 -0.866025 0
    outer loop
      vertex -3.9963 -7.38528 0
      vertex -3.9963 -7.38528 5
      vertex -4.53647 -7.07341 5
    endloop
  endfacet
  facet normal -0.5 -0.866025 0
    outer loop
      vertex -4.53647 -7.07341 0
      vertex -3.9963 -7.38528 0
      vertex -4.53647 -7.07341 5
    endloop
  endfacet
  facet normal -0.809017 -0.587785 0
    outer loop
      vertex -3.62968 -7.88989 5
      vertex -3.9963 -7.38528 5
      vertex -3.62968 -7.88989 0
    endloop
  endfacet
  facet normal -0.809017 -0.587785 0
    outer loop
      vertex -3.62968 -7.88989 0
      vertex -3.9963 -7.38528 5
      vertex -3.9963 -7.38528 0
    endloop
  endfacet
  facet normal -0.978148 -0.207912 0
    outer loop
      vertex -3.5 -8.5 5
      vertex -3.62968 -7.88989 5
      vertex -3.5 -8.5 0
    endloop
  endfacet
  facet normal -0.978148 -0.207912 0
    outer loop
      vertex -3.5 -8.5 0
      vertex -3.62968 -7.88989 5
      vertex -3.62968 -7.88989 0
    endloop
  endfacet
  facet normal -0.978148 0.207912 0
    outer loop
      vertex -3.5 -8.5 5
      vertex -3.5 -8.5 0
      vertex -3.62968 -9.1101 5
    endloop
  endfacet
  facet normal -0.978148 0.207912 0
    outer loop
      vertex -3.62968 -9.1101 5
      vertex -3.5 -8.5 0
      vertex -3.62968 -9.1101 0
    endloop
  endfacet
  facet normal -0.809017 0.587785 0
    outer loop
      vertex -3.62968 -9.1101 5
      vertex -3.62968 -9.1101 0
      vertex -3.9963 -9.61472 5
    endloop
  endfacet
  facet normal -0.809017 0.587785 0
    outer loop
      vertex -3.9963 -9.61472 5
      vertex -3.62968 -9.1101 0
      vertex -3.9963 -9.61472 0
    endloop
  endfacet
  facet normal -0.5 0.866025 0
    outer loop
      vertex -3.9963 -9.61472 5
      vertex -3.9963 -9.61472 0
      vertex -4.53647 -9.92658 5
    endloop
  endfacet
  facet normal -0.5 0.866025 0
    outer loop
      vertex -4.53647 -9.92658 5
      vertex -3.9963 -9.61472 0
      vertex -4.53647 -9.92658 0
    endloop
  endfacet
  facet normal -0.104528 0.994522 0
    outer loop
      vertex -4.53647 -9.92658 5
      vertex -4.53647 -9.92658 0
      vertex -5.15679 -9.99178 5
    endloop
  endfacet
  facet normal -0.104528 0.994522 0
    outer loop
      vertex -5.15679 -9.99178 5
      vertex -4.53647 -9.92658 0
      vertex -5.15679 -9.99178 0
    endloop
  endfacet
  facet normal 0.309018 0.951056 0
    outer loop
      vertex -5.15679 -9.99178 5
      vertex -5.15679 -9.99178 0
      vertex -5.75 -9.79904 5
    endloop
  endfacet
  facet normal 0.309018 0.951056 0
    outer loop
      vertex -5.75 -9.79904 5
      vertex -5.15679 -9.99178 0
      vertex -5.75 -9.79904 0
    endloop
  endfacet
  facet normal 0.669131 0.743145 0
    outer loop
      vertex -5.75 -9.79904 5
      vertex -5.75 -9.79904 0
      vertex -6.21352 -9.38168 5
    endloop
  endfacet
  facet normal 0.669131 0.743145 0
    outer loop
      vertex -6.21352 -9.38168 5
      vertex -5.75 -9.79904 0
      vertex -6.21352 -9.38168 0
    endloop
  endfacet
  facet normal 0.913545 0.406737 0
    outer loop
      vertex -6.46722 -8.81187 5
      vertex -6.21352 -9.38168 5
      vertex -6.21352 -9.38168 0
    endloop
  endfacet
  facet normal 0.913545 0.406737 0
    outer loop
      vertex -6.46722 -8.81187 0
      vertex -6.46722 -8.81187 5
      vertex -6.21352 -9.38168 0
    endloop
  endfacet
  facet normal 0.913545 -0.406737 0
    outer loop
      vertex -6.21352 9.38168 0
      vertex -6.21352 9.38168 5
      vertex -6.46722 8.81187 5
    endloop
  endfacet
  facet normal 0.913545 -0.406737 0
    outer loop
      vertex -6.46722 8.81187 0
      vertex -6.21352 9.38168 0
      vertex -6.46722 8.81187 5
    endloop
  endfacet
  facet normal 1 0 0
    outer loop
      vertex -6.46722 8.81187 0
      vertex -6.46722 8.81187 5
      vertex -6.46722 8.18813 5
    endloop
  endfacet
  facet normal 1 0 0
    outer loop
      vertex -6.46722 8.18813 0
      vertex -6.46722 8.81187 0
      vertex -6.46722 8.18813 5
    endloop
  endfacet
  facet normal 0.669131 -0.743145 0
    outer loop
      vertex -5.75 9.79904 0
      vertex -5.75 9.79904 5
      vertex -6.21352 9.38168 5
    endloop
  endfacet
  facet normal 0.669131 -0.743145 0
    outer loop
      vertex -6.21352 9.38168 0
      vertex -5.75 9.79904 0
      vertex -6.21352 9.38168 5
    endloop
  endfacet
  facet normal 0.309018 -0.951056 0
    outer loop
      vertex -5.15679 9.99178 0
      vertex -5.15679 9.99178 5
      vertex -5.75 9.79904 5
    endloop
  endfacet
  facet normal 0.309018 -0.951056 0
    outer loop
      vertex -5.75 9.79904 0
      vertex -5.15679 9.99178 0
      vertex -5.75 9.79904 5
    endloop
  endfacet
  facet normal -0.104528 -0.994522 0
    outer loop
      vertex -4.53647 9.92658 0
      vertex -4.53647 9.92658 5
      vertex -5.15679 9.99178 5
    endloop
  endfacet
  facet normal -0.104528 -0.994522 0
    outer loop
      vertex -5.15679 9.99178 0
      vertex -4.53647 9.92658 0
      vertex -5.15679 9.99178 5
    endloop
  endfacet
  facet normal -0.5 -0.866025 0
    outer loop
      vertex -3.9963 9.61472 0
      vertex -3.9963 9.61472 5
      vertex -4.53647 9.92658 5
    endloop
  endfacet
  facet normal -0.5 -0.866025 0
    outer loop
      vertex -4.53647 9.92658 0
      vertex -3.9963 9.61472 0
      vertex -4.53647 9.92658 5
    endloop
  endfacet
  facet normal -0.809017 -0.587785 0
    outer loop
      vertex -3.62968 9.1101 5
      vertex -3.9963 9.61472 5
      vertex -3.62968 9.1101 0
    endloop
  endfacet
  facet normal -0.809017 -0.587785 0
    outer loop
      vertex -3.62968 9.1101 0
      vertex -3.9963 9.61472 5
      vertex -3.9963 9.61472 0
    endloop
  endfacet
  facet normal -0.978148 -0.207912 0
    outer loop
      vertex -3.5 8.5 5
      vertex -3.62968 9.1101 5
      vertex -3.5 8.5 0
    endloop
  endfacet
  facet normal -0.978148 -0.207912 0
    outer loop
      vertex -3.5 8.5 0
      vertex -3.62968 9.1101 5
      vertex -3.62968 9.1101 0
    endloop
  endfacet
  facet normal -0.978148 0.207912 0
    outer loop
      vertex -3.5 8.5 5
      vertex -3.5 8.5 0
      vertex -3.62968 7.88989 5
    endloop
  endfacet
  facet normal -0.978148 0.207912 0
    outer loop
      vertex -3.62968 7.88989 5
      vertex -3.5 8.5 0
      vertex -3.62968 7.88989 0
    endloop
  endfacet
  facet normal -0.809017 0.587785 0
    outer loop
      vertex -3.62968 7.88989 5
      vertex -3.62968 7.88989 0
      vertex -3.9963 7.38528 5
    endloop
  endfacet
  facet normal -0.809017 0.587785 0
    outer loop
      vertex -3.9963 7.38528 5
      vertex -3.62968 7.88989 0
      vertex -3.9963 7.38528 0
    endloop
  endfacet
  facet normal -0.5 0.866025 0
    outer loop
      vertex -3.9963 7.38528 5
      vertex -3.9963 7.38528 0
      vertex -4.53647 7.07341 5
    endloop
  endfacet
  facet normal -0.5 0.866025 0
    outer loop
      vertex -4.53647 7.07341 5
      vertex -3.9963 7.38528 0
      vertex -4.53647 7.07341 0
    endloop
  endfacet
  facet normal -0.104528 0.994522 0
    outer loop
      vertex -4.53647 7.07341 5
      vertex -4.53647 7.07341 0
      vertex -5.15679 7.00822 5
    endloop
  endfacet
  facet normal -0.104528 0.994522 0
    outer loop
      vertex -5.15679 7.00822 5
      vertex -4.53647 7.07341 0
      vertex -5.15679 7.00822 0
    endloop
  endfacet
  facet normal 0.309018 0.951056 0
    outer loop
      vertex -5.15679 7.00822 5
      vertex -5.15679 7.00822 0
      vertex -5.75 7.20096 5
    endloop
  endfacet
  facet normal 0.309018 0.951056 0
    outer loop
      vertex -5.75 7.20096 5
      vertex -5.15679 7.00822 0
      vertex -5.75 7.20096 0
    endloop
  endfacet
  facet normal 0.669131 0.743145 0
    outer loop
      vertex -5.75 7.20096 5
      vertex -5.75 7.20096 0
      vertex -6.21352 7.61832 5
    endloop
  endfacet
  facet normal 0.669131 0.743145 0
    outer loop
      vertex -6.21352 7.61832 5
      vertex -5.75 7.20096 0
      vertex -6.21352 7.61832 0
    endloop
  endfacet
  facet normal 0.913545 0.406737 0
    outer loop
      vertex -6.46722 8.18813 5
      vertex -6.21352 7.61832 5
      vertex -6.21352 7.61832 0
    endloop
  endfacet
  facet normal 0.913545 0.406737 0
    outer loop
      vertex -6.46722 8.18813 0
      vertex -6.46722 8.18813 5
      vertex -6.21352 7.61832 0
    endloop
  endfacet
  facet normal 0.913545 -0.406737 0
    outer loop
      vertex 8.78647 0.881678 0
      vertex 8.78647 0.881678 5
      vertex 8.53278 0.311868 5
    endloop
  endfacet
  facet normal 0.913545 -0.406737 0
    outer loop
      vertex 8.53278 0.311868 0
      vertex 8.78647 0.881678 0
      vertex 8.53278 0.311868 5
    endloop
  endfacet
  facet normal 1 0 0
    outer loop
      vertex 8.53278 0.311868 0
      vertex 8.53278 0.311868 5
      vertex 8.53278 -0.311868 5
    endloop
  endfacet
  facet normal 1 0 0
    outer loop
      vertex 8.53278 -0.311868 0
      vertex 8.53278 0.311868 0
      vertex 8.53278 -0.311868 5
    endloop
  endfacet
  facet normal 0.669131 -0.743145 0
    outer loop
      vertex 9.25 1.29904 0
      vertex 9.25 1.29904 5
      vertex 8.78647 0.881678 5
    endloop
  endfacet
  facet normal 0.669131 -0.743145 0
    outer loop
      vertex 8.78647 0.881678 0
      vertex 9.25 1.29904 0
      vertex 8.78647 0.881678 5
    endloop
  endfacet
  facet normal 0.309018 -0.951056 0
    outer loop
      vertex 9.84321 1.49178 0
      vertex 9.84321 1.49178 5
      vertex 9.25 1.29904 5
    endloop
  endfacet
  facet normal 0.309018 -0.951056 0
    outer loop
      vertex 9.25 1.29904 0
      vertex 9.84321 1.49178 0
      vertex 9.25 1.29904 5
    endloop
  endfacet
  facet normal -0.104528 -0.994522 0
    outer loop
      vertex 10.4635 1.42658 0
      vertex 10.4635 1.42658 5
      vertex 9.84321 1.49178 5
    endloop
  endfacet
  facet normal -0.104528 -0.994522 0
    outer loop
      vertex 9.84321 1.49178 0
      vertex 10.4635 1.42658 0
      vertex 9.84321 1.49178 5
    endloop
  endfacet
  facet normal -0.5 -0.866025 0
    outer loop
      vertex 11.0037 1.11472 0
      vertex 11.0037 1.11472 5
      vertex 10.4635 1.42658 5
    endloop
  endfacet
  facet normal -0.5 -0.866025 0
    outer loop
      vertex 10.4635 1.42658 0
      vertex 11.0037 1.11472 0
      vertex 10.4635 1.42658 5
    endloop
  endfacet
  facet normal -0.809017 -0.587785 0
    outer loop
      vertex 11.3703 0.610105 5
      vertex 11.0037 1.11472 5
      vertex 11.3703 0.610105 0
    endloop
  endfacet
  facet normal -0.809017 -0.587785 0
    outer loop
      vertex 11.3703 0.610105 0
      vertex 11.0037 1.11472 5
      vertex 11.0037 1.11472 0
    endloop
  endfacet
  facet normal -0.978148 -0.207912 0
    outer loop
      vertex 11.5 0 5
      vertex 11.3703 0.610105 5
      vertex 11.5 0 0
    endloop
  endfacet
  facet normal -0.978148 -0.207912 0
    outer loop
      vertex 11.5 0 0
      vertex 11.3703 0.610105 5
      vertex 11.3703 0.610105 0
    endloop
  endfacet
  facet normal -0.978148 0.207912 0
    outer loop
      vertex 11.5 0 5
      vertex 11.5 0 0
      vertex 11.3703 -0.610105 5
    endloop
  endfacet
  facet normal -0.978148 0.207912 0
    outer loop
      vertex 11.3703 -0.610105 5
      vertex 11.5 0 0
      vertex 11.3703 -0.610105 0
    endloop
  endfacet
  facet normal -0.809017 0.587785 0
    outer loop
      vertex 11.3703 -0.610105 5
      vertex 11.3703 -0.610105 0
      vertex 11.0037 -1.11472 5
    endloop
  endfacet
  facet normal -0.809017 0.587785 0
    outer loop
      vertex 11.0037 -1.11472 5
      vertex 11.3703 -0.610105 0
      vertex 11.0037 -1.11472 0
    endloop
  endfacet
  facet normal -0.5 0.866025 0
    outer loop
      vertex 11.0037 -1.11472 5
      vertex 11.0037 -1.11472 0
      vertex 10.4635 -1.42658 5
    endloop
  endfacet
  facet normal -0.5 0.866025 0
    outer loop
      vertex 10.4635 -1.42658 5
      vertex 11.0037 -1.11472 0
      vertex 10.4635 -1.42658 0
    endloop
  endfacet
  facet normal -0.104528 0.994522 0
    outer loop
      vertex 10.4635 -1.42658 5
      vertex 10.4635 -1.42658 0
      vertex 9.84321 -1.49178 5
    endloop
  endfacet
  facet normal -0.104528 0.994522 0
    outer loop
      vertex 9.84321 -1.49178 5
      vertex 10.4635 -1.42658 0
      vertex 9.84321 -1.49178 0
    endloop
  endfacet
  facet normal 0.309018 0.951056 0
    outer loop
      vertex 9.84321 -1.49178 5
      vertex 9.84321 -1.49178 0
      vertex 9.25 -1.29904 5
    endloop
  endfacet
  facet normal 0.309018 0.951056 0
    outer loop
      vertex 9.25 -1.29904 5
      vertex 9.84321 -1.49178 0
      vertex 9.25 -1.29904 0
    endloop
  endfacet
  facet normal 0.669131 0.743145 0
    outer loop
      vertex 9.25 -1.29904 5
      vertex 9.25 -1.29904 0
      vertex 8.78647 -0.881678 5
    endloop
  endfacet
  facet normal 0.669131 0.743145 0
    outer loop
      vertex 8.78647 -0.881678 5
      vertex 9.25 -1.29904 0
      vertex 8.78647 -0.881678 0
    endloop
  endfacet
  facet normal 0.913545 0.406737 0
    outer loop
      vertex 8.53278 -0.311868 5
      vertex 8.78647 -0.881678 5
      vertex 8.78647 -0.881678 0
    endloop
  endfacet
  facet normal 0.913545 0.406737 0
    outer loop
      vertex 8.53278 -0.311868 0
      vertex 8.53278 -0.311868 5
      vertex 8.78647 -0.881678 0
    endloop
  endfacet
  facet normal 0 0 1
    outer loop
      vertex -12.9477 1.16531 5
      vertex -12.9477 -1.16531 5
      vertex -12.5315 -3.45848 5
    endloop
  endfacet
  facet normal 0 0 1
    outer loop
      vertex -10.5172 -7.64121 5
      vertex -12.9477 1.16531 5
      vertex -11.7126 -5.64049 5
    endloop
  endfacet
  facet normal 0 0 1
    outer loop
      vertex -11.7126 -5.64049 5
      vertex -12.9477 1.16531 5
      vertex -12.5315 -3.45848 5
    endloop
  endfacet
  facet normal 0 0 1
    outer loop
      vertex -8.98381 -9.39633 5
      vertex -12.9477 1.16531 5
      vertex -10.5172 -7.64121 5
    endloop
  endfacet
  facet normal 0 0 1
    outer loop
      vertex -7.16166 -10.8495 5
      vertex -12.9477 1.16531 5
      vertex -8.98381 -9.39633 5
    endloop
  endfacet
  facet normal 0 0 1
    outer loop
      vertex -5.10933 -11.9539 5
      vertex -12.9477 1.16531 5
      vertex -7.16166 -10.8495 5
    endloop
  endfacet
  facet normal 0 0 1
    outer loop
      vertex -6.46722 -8.81187 5
      vertex -12.9477 1.16531 5
      vertex -5.10933 -11.9539 5
    endloop
  endfacet
  facet normal 0 0 1
    outer loop
      vertex -3.9963 -9.61472 5
      vertex -4.53647 -9.92658 5
      vertex -0.583243 -12.9869 5
    endloop
  endfacet
  facet normal 0 0 1
    outer loop
      vertex 6.16029 -11.4477 5
      vertex -12.9477 1.16531 5
      vertex 4.01722 -12.3637 5
    endloop
  endfacet
  facet normal 0 0 1
    outer loop
      vertex 8.10537 -10.1638 5
      vertex -12.9477 1.16531 5
      vertex 6.16029 -11.4477 5
    endloop
  endfacet
  facet normal 0 0 1
    outer loop
      vertex -1.48328 -4.56507 5
      vertex -12.9477 1.16531 5
      vertex 8.10537 -10.1638 5
    endloop
  endfacet
  facet normal 0 0 1
    outer loop
      vertex -4.56507 -1.48328 5
      vertex -4.8 0 5
      vertex -12.9477 1.16531 5
    endloop
  endfacet
  facet normal 0 0 1
    outer loop
      vertex 11.5 0 5
      vertex 11.3703 -0.610105 5
      vertex 13 0 5
    endloop
  endfacet
  facet normal 0 0 1
    outer loop
      vertex -3.88328 2.82137 5
      vertex -2.82137 3.88328 5
      vertex -12.9477 1.16531 5
    endloop
  endfacet
  facet normal 0 0 1
    outer loop
      vertex 2.82137 3.88328 5
      vertex 3.88328 2.82137 5
      vertex 12.1711 4.56787 5
    endloop
  endfacet
  facet normal 0 0 1
    outer loop
      vertex -1.48328 4.56507 5
      vertex 0 4.8 5
      vertex 9.78993 8.5532 5
    endloop
  endfacet
  facet normal 0 0 1
    outer loop
      vertex 8.10537 10.1638 5
      vertex -12.9477 1.16531 5
      vertex 9.78993 8.5532 5
    endloop
  endfacet
  facet normal 0 0 1
    outer loop
      vertex 6.16029 11.4477 5
      vertex -12.9477 1.16531 5
      vertex 8.10537 10.1638 5
    endloop
  endfacet
  facet normal 0 0 1
    outer loop
      vertex 4.01722 12.3637 5
      vertex -12.9477 1.16531 5
      vertex 6.16029 11.4477 5
    endloop
  endfacet
  facet normal 0 0 1
    outer loop
      vertex -3.9963 7.38528 5
      vertex -12.9477 1.16531 5
      vertex 4.01722 12.3637 5
    endloop
  endfacet
  facet normal 0 0 1
    outer loop
      vertex -4.53647 7.07341 5
      vertex -5.15679 7.00822 5
      vertex -12.9477 1.16531 5
    endloop
  endfacet
  facet normal 0 0 1
    outer loop
      vertex -7.16166 10.8495 5
      vertex -12.9477 1.16531 5
      vertex -5.10933 11.9539 5
    endloop
  endfacet
  facet normal 0 0 1
    outer loop
      vertex -8.98381 9.39633 5
      vertex -12.9477 1.16531 5
      vertex -7.16166 10.8495 5
    endloop
  endfacet
  facet normal 0 0 1
    outer loop
      vertex -10.5172 7.64121 5
      vertex -12.9477 1.16531 5
      vertex -8.98381 9.39633 5
    endloop
  endfacet
  facet normal 0 0 1
    outer loop
      vertex -11.7126 5.64049 5
      vertex -12.9477 1.16531 5
      vertex -10.5172 7.64121 5
    endloop
  endfacet
  facet normal 0 0 1
    outer loop
      vertex -12.5315 3.45848 5
      vertex -12.9477 1.16531 5
      vertex -11.7126 5.64049 5
    endloop
  endfacet
  facet normal 0 0 1
    outer loop
      vertex -6.21352 -9.38168 5
      vertex -6.46722 -8.81187 5
      vertex -5.10933 -11.9539 5
    endloop
  endfacet
  facet normal 0 0 1
    outer loop
      vertex -6.46722 -8.18813 5
      vertex -12.9477 1.16531 5
      vertex -6.46722 -8.81187 5
    endloop
  endfacet
  facet normal 0 0 1
    outer loop
      vertex -6.46722 8.18813 5
      vertex -6.46722 8.81187 5
      vertex -12.9477 1.16531 5
    endloop
  endfacet
  facet normal 0 0 1
    outer loop
      vertex -5.75 -7.20096 5
      vertex -12.9477 1.16531 5
      vertex -6.21352 -7.61832 5
    endloop
  endfacet
  facet normal 0 0 1
    outer loop
      vertex -4.53647 -7.07341 5
      vertex -3.9963 -7.38528 5
      vertex -12.9477 1.16531 5
    endloop
  endfacet
  facet normal 0 0 1
    outer loop
      vertex -3.62968 -9.1101 5
      vertex -3.9963 -9.61472 5
      vertex -0.583243 -12.9869 5
    endloop
  endfacet
  facet normal 0 0 1
    outer loop
      vertex -4.53647 -7.07341 5
      vertex -12.9477 1.16531 5
      vertex -5.15679 -7.00822 5
    endloop
  endfacet
  facet normal 0 0 1
    outer loop
      vertex -3.5 -8.5 5
      vertex -3.62968 -9.1101 5
      vertex -0.583243 -12.9869 5
    endloop
  endfacet
  facet normal 0 0 1
    outer loop
      vertex -3.62968 -7.88989 5
      vertex -3.5 -8.5 5
      vertex 1.74503 -12.8823 5
    endloop
  endfacet
  facet normal 0 0 1
    outer loop
      vertex 4.01722 -12.3637 5
      vertex -3.9963 -7.38528 5
      vertex 1.74503 -12.8823 5
    endloop
  endfacet
  facet normal 0 0 1
    outer loop
      vertex 4.01722 -12.3637 5
      vertex -12.9477 1.16531 5
      vertex -3.9963 -7.38528 5
    endloop
  endfacet
  facet normal 0 0 1
    outer loop
      vertex -4.53647 -9.92658 5
      vertex -5.15679 -9.99178 5
      vertex -2.89277 -12.6741 5
    endloop
  endfacet
  facet normal 0 0 1
    outer loop
      vertex 1.74503 -12.8823 5
      vertex -3.5 -8.5 5
      vertex -0.583243 -12.9869 5
    endloop
  endfacet
  facet normal 0 0 1
    outer loop
      vertex -3.9963 -7.38528 5
      vertex -3.62968 -7.88989 5
      vertex 1.74503 -12.8823 5
    endloop
  endfacet
  facet normal 0 0 1
    outer loop
      vertex -0.583243 -12.9869 5
      vertex -4.53647 -9.92658 5
      vertex -2.89277 -12.6741 5
    endloop
  endfacet
  facet normal 0 0 1
    outer loop
      vertex -2.89277 -12.6741 5
      vertex -5.75 -9.79904 5
      vertex -5.10933 -11.9539 5
    endloop
  endfacet
  facet normal 0 0 1
    outer loop
      vertex -5.75 -9.79904 5
      vertex -6.21352 -9.38168 5
      vertex -5.10933 -11.9539 5
    endloop
  endfacet
  facet normal 0 0 1
    outer loop
      vertex -3.88328 -2.82137 5
      vertex -4.56507 -1.48328 5
      vertex -12.9477 1.16531 5
    endloop
  endfacet
  facet normal 0 0 1
    outer loop
      vertex -5.15679 9.99178 5
      vertex -4.53647 9.92658 5
      vertex -2.89277 12.6741 5
    endloop
  endfacet
  facet normal 0 0 1
    outer loop
      vertex -5.10933 11.9539 5
      vertex -12.9477 1.16531 5
      vertex -6.46722 8.81187 5
    endloop
  endfacet
  facet normal 0 0 1
    outer loop
      vertex -5.10933 11.9539 5
      vertex -6.21352 9.38168 5
      vertex -2.89277 12.6741 5
    endloop
  endfacet
  facet normal 0 0 1
    outer loop
      vertex -5.10933 11.9539 5
      vertex -6.46722 8.81187 5
      vertex -6.21352 9.38168 5
    endloop
  endfacet
  facet normal 0 0 1
    outer loop
      vertex -6.21352 9.38168 5
      vertex -5.75 9.79904 5
      vertex -2.89277 12.6741 5
    endloop
  endfacet
  facet normal 0 0 1
    outer loop
      vertex -5.75 9.79904 5
      vertex -5.15679 9.99178 5
      vertex -2.89277 12.6741 5
    endloop
  endfacet
  facet normal 0 0 1
    outer loop
      vertex -2.89277 12.6741 5
      vertex -4.53647 9.92658 5
      vertex -0.583243 12.9869 5
    endloop
  endfacet
  facet normal 0 0 1
    outer loop
      vertex -0.583243 12.9869 5
      vertex -3.9963 9.61472 5
      vertex 1.74503 12.8823 5
    endloop
  endfacet
  facet normal 0 0 1
    outer loop
      vertex -3.9963 9.61472 5
      vertex -3.62968 9.1101 5
      vertex 1.74503 12.8823 5
    endloop
  endfacet
  facet normal 0 0 1
    outer loop
      vertex -2.82137 -3.88328 5
      vertex -3.88328 -2.82137 5
      vertex -12.9477 1.16531 5
    endloop
  endfacet
  facet normal 0 0 1
    outer loop
      vertex 1.74503 12.8823 5
      vertex -3.5 8.5 5
      vertex 4.01722 12.3637 5
    endloop
  endfacet
  facet normal 0 0 1
    outer loop
      vertex -3.5 8.5 5
      vertex -3.62968 7.88989 5
      vertex 4.01722 12.3637 5
    endloop
  endfacet
  facet normal 0 0 1
    outer loop
      vertex -3.62968 7.88989 5
      vertex -3.9963 7.38528 5
      vertex 4.01722 12.3637 5
    endloop
  endfacet
  facet normal 0 0 1
    outer loop
      vertex -4.53647 7.07341 5
      vertex -12.9477 1.16531 5
      vertex -3.9963 7.38528 5
    endloop
  endfacet
  facet normal 0 0 1
    outer loop
      vertex -5.15679 7.00822 5
      vertex -5.75 7.20096 5
      vertex -12.9477 1.16531 5
    endloop
  endfacet
  facet normal 0 0 1
    outer loop
      vertex -5.75 7.20096 5
      vertex -6.21352 7.61832 5
      vertex -12.9477 1.16531 5
    endloop
  endfacet
  facet normal 0 0 1
    outer loop
      vertex -3.62968 9.1101 5
      vertex -3.5 8.5 5
      vertex 1.74503 12.8823 5
    endloop
  endfacet
  facet normal 0 0 1
    outer loop
      vertex -6.46722 8.18813 5
      vertex -12.9477 1.16531 5
      vertex -6.21352 7.61832 5
    endloop
  endfacet
  facet normal 0 0 1
    outer loop
      vertex 1.48328 -4.56507 5
      vertex 0 -4.8 5
      vertex 9.78993 -8.5532 5
    endloop
  endfacet
  facet normal 0 0 1
    outer loop
      vertex 3.88328 -2.82137 5
      vertex 2.82137 -3.88328 5
      vertex 12.1711 -4.56787 5
    endloop
  endfacet
  facet normal 0 0 1
    outer loop
      vertex 4.8 0 5
      vertex 4.56507 -1.48328 5
      vertex 9.84321 -1.49178 5
    endloop
  endfacet
  facet normal 0 0 1
    outer loop
      vertex 4.56507 1.48328 5
      vertex 4.8 0 5
      vertex 8.53278 0.311868 5
    endloop
  endfacet
  facet normal 0 0 1
    outer loop
      vertex 3.88328 2.82137 5
      vertex 4.56507 1.48328 5
      vertex 12.7911 2.32124 5
    endloop
  endfacet
  facet normal 0 0 1
    outer loop
      vertex 1.48328 4.56507 5
      vertex 2.82137 3.88328 5
      vertex 11.1598 6.66769 5
    endloop
  endfacet
  facet normal 0 0 1
    outer loop
      vertex -1.48328 4.56507 5
      vertex -12.9477 1.16531 5
      vertex -2.82137 3.88328 5
    endloop
  endfacet
  facet normal 0 0 1
    outer loop
      vertex 0 4.8 5
      vertex 1.48328 4.56507 5
      vertex 11.1598 6.66769 5
    endloop
  endfacet
  facet normal 0 0 1
    outer loop
      vertex 9.78993 8.5532 5
      vertex -12.9477 1.16531 5
      vertex -1.48328 4.56507 5
    endloop
  endfacet
  facet normal 0 0 1
    outer loop
      vertex 9.78993 8.5532 5
      vertex 0 4.8 5
      vertex 11.1598 6.66769 5
    endloop
  endfacet
  facet normal 0 0 1
    outer loop
      vertex 11.1598 6.66769 5
      vertex 2.82137 3.88328 5
      vertex 12.1711 4.56787 5
    endloop
  endfacet
  facet normal 0 0 1
    outer loop
      vertex 12.1711 4.56787 5
      vertex 3.88328 2.82137 5
      vertex 12.7911 2.32124 5
    endloop
  endfacet
  facet normal 0 0 1
    outer loop
      vertex -4.56507 1.48328 5
      vertex -3.88328 2.82137 5
      vertex -12.9477 1.16531 5
    endloop
  endfacet
  facet normal 0 0 1
    outer loop
      vertex 12.7911 -2.32124 5
      vertex 4.56507 -1.48328 5
      vertex 12.1711 -4.56787 5
    endloop
  endfacet
  facet normal 0 0 1
    outer loop
      vertex 2.82137 -3.88328 5
      vertex 1.48328 -4.56507 5
      vertex 11.1598 -6.66769 5
    endloop
  endfacet
  facet normal 0 0 1
    outer loop
      vertex 12.1711 -4.56787 5
      vertex 2.82137 -3.88328 5
      vertex 11.1598 -6.66769 5
    endloop
  endfacet
  facet normal 0 0 1
    outer loop
      vertex 11.1598 -6.66769 5
      vertex 1.48328 -4.56507 5
      vertex 9.78993 -8.5532 5
    endloop
  endfacet
  facet normal 0 0 1
    outer loop
      vertex 9.78993 -8.5532 5
      vertex 0 -4.8 5
      vertex 8.10537 -10.1638 5
    endloop
  endfacet
  facet normal 0 0 1
    outer loop
      vertex 0 -4.8 5
      vertex -1.48328 -4.56507 5
      vertex 8.10537 -10.1638 5
    endloop
  endfacet
  facet normal 0 0 1
    outer loop
      vertex -2.82137 -3.88328 5
      vertex -12.9477 1.16531 5
      vertex -1.48328 -4.56507 5
    endloop
  endfacet
  facet normal 0 0 1
    outer loop
      vertex 8.53278 -0.311868 5
      vertex 8.53278 0.311868 5
      vertex 4.8 0 5
    endloop
  endfacet
  facet normal 0 0 1
    outer loop
      vertex 11.0037 -1.11472 5
      vertex 10.4635 -1.42658 5
      vertex 12.7911 -2.32124 5
    endloop
  endfacet
  facet normal 0 0 1
    outer loop
      vertex 9.84321 -1.49178 5
      vertex 4.56507 -1.48328 5
      vertex 12.7911 -2.32124 5
    endloop
  endfacet
  facet normal 0 0 1
    outer loop
      vertex 10.4635 -1.42658 5
      vertex 9.84321 -1.49178 5
      vertex 12.7911 -2.32124 5
    endloop
  endfacet
  facet normal 0 0 1
    outer loop
      vertex 9.25 1.29904 5
      vertex 4.56507 1.48328 5
      vertex 8.78647 0.881678 5
    endloop
  endfacet
  facet normal 0 0 1
    outer loop
      vertex 9.84321 1.49178 5
      vertex 4.56507 1.48328 5
      vertex 9.25 1.29904 5
    endloop
  endfacet
  facet normal 0 0 1
    outer loop
      vertex 11.3703 0.610105 5
      vertex 11.5 0 5
      vertex 13 0 5
    endloop
  endfacet
  facet normal 0 0 1
    outer loop
      vertex 12.7911 2.32124 5
      vertex 4.56507 1.48328 5
      vertex 9.84321 1.49178 5
    endloop
  endfacet
  facet normal 0 0 1
    outer loop
      vertex 12.7911 2.32124 5
      vertex 10.4635 1.42658 5
      vertex 13 0 5
    endloop
  endfacet
  facet normal 0 0 1
    outer loop
      vertex 10.4635 1.42658 5
      vertex 11.0037 1.11472 5
      vertex 13 0 5
    endloop
  endfacet
  facet normal 0 0 1
    outer loop
      vertex 11.0037 1.11472 5
      vertex 11.3703 0.610105 5
      vertex 13 0 5
    endloop
  endfacet
  facet normal 0 0 1
    outer loop
      vertex 8.53278 0.311868 5
      vertex 8.78647 0.881678 5
      vertex 4.56507 1.48328 5
    endloop
  endfacet
  facet normal 0 0 1
    outer loop
      vertex 13 0 5
      vertex 11.3703 -0.610105 5
      vertex 12.7911 -2.32124 5
    endloop
  endfacet
  facet normal 0 0 1
    outer loop
      vertex 11.3703 -0.610105 5
      vertex 11.0037 -1.11472 5
      vertex 12.7911 -2.32124 5
    endloop
  endfacet
  facet normal 0 0 1
    outer loop
      vertex 9.25 -1.29904 5
      vertex 8.78647 -0.881678 5
      vertex 4.8 0 5
    endloop
  endfacet
  facet normal 0 0 1
    outer loop
      vertex 4.8 0 5
      vertex 9.84321 -1.49178 5
      vertex 9.25 -1.29904 5
    endloop
  endfacet
  facet normal 0 0 1
    outer loop
      vertex 8.53278 -0.311868 5
      vertex 4.8 0 5
      vertex 8.78647 -0.881678 5
    endloop
  endfacet
  facet normal 0 0 1
    outer loop
      vertex -5.15679 -9.99178 5
      vertex -5.75 -9.79904 5
      vertex -2.89277 -12.6741 5
    endloop
  endfacet
  facet normal 0 0 1
    outer loop
      vertex -6.46722 -8.18813 5
      vertex -6.21352 -7.61832 5
      vertex -12.9477 1.16531 5
    endloop
  endfacet
  facet normal 0 0 1
    outer loop
      vertex -5.75 -7.20096 5
      vertex -5.15679 -7.00822 5
      vertex -12.9477 1.16531 5
    endloop
  endfacet
  facet normal 0 0 1
    outer loop
      vertex -4.53647 9.92658 5
      vertex -3.9963 9.61472 5
      vertex -0.583243 12.9869 5
    endloop
  endfacet
  facet normal 0 0 1
    outer loop
      vertex 9.84321 1.49178 5
      vertex 10.4635 1.42658 5
      vertex 12.7911 2.32124 5
    endloop
  endfacet
  facet normal 0 0 1
    outer loop
      vertex 4.56507 -1.48328 5
      vertex 3.88328 -2.82137 5
      vertex 12.1711 -4.56787 5
    endloop
  endfacet
  facet normal 0 0 1
    outer loop
      vertex -4.8 0 5
      vertex -4.56507 1.48328 5
      vertex -12.9477 1.16531 5
    endloop
  endfacet
  facet normal -0.987688 -0.156435 0
    outer loop
      vertex -4.8 0 5
      vertex -4.56507 -1.48328 5
      vertex -4.8 0 10
    endloop
  endfacet
  facet normal -0.987688 -0.156435 0
    outer loop
      vertex -4.8 0 10
      vertex -4.56507 -1.48328 5
      vertex -4.56507 -1.48328 10
    endloop
  endfacet
  facet normal -0.891007 -0.45399 0
    outer loop
      vertex -4.56507 -1.48328 5
      vertex -3.88328 -2.82137 5
      vertex -4.56507 -1.48328 10
    endloop
  endfacet
  facet normal -0.891007 -0.45399 0
    outer loop
      vertex -4.56507 -1.48328 10
      vertex -3.88328 -2.82137 5
      vertex -3.88328 -2.82137 10
    endloop
  endfacet
  facet normal -0.707107 -0.707107 0
    outer loop
      vertex -3.88328 -2.82137 10
      vertex -3.88328 -2.82137 5
      vertex -2.82137 -3.88328 5
    endloop
  endfacet
  facet normal -0.707107 -0.707107 0
    outer loop
      vertex -2.82137 -3.88328 10
      vertex -3.88328 -2.82137 10
      vertex -2.82137 -3.88328 5
    endloop
  endfacet
  facet normal -0.45399 -0.891007 0
    outer loop
      vertex -2.82137 -3.88328 10
      vertex -2.82137 -3.88328 5
      vertex -1.48328 -4.56507 5
    endloop
  endfacet
  facet normal -0.45399 -0.891007 0
    outer loop
      vertex -1.48328 -4.56507 10
      vertex -2.82137 -3.88328 10
      vertex -1.48328 -4.56507 5
    endloop
  endfacet
  facet normal -0.156435 -0.987688 0
    outer loop
      vertex -1.48328 -4.56507 10
      vertex -1.48328 -4.56507 5
      vertex 0 -4.8 5
    endloop
  endfacet
  facet normal -0.156435 -0.987688 0
    outer loop
      vertex 0 -4.8 10
      vertex -1.48328 -4.56507 10
      vertex 0 -4.8 5
    endloop
  endfacet
  facet normal 0.156435 -0.987688 0
    outer loop
      vertex 0 -4.8 10
      vertex 0 -4.8 5
      vertex 1.48328 -4.56507 5
    endloop
  endfacet
  facet normal 0.156435 -0.987688 0
    outer loop
      vertex 1.48328 -4.56507 10
      vertex 0 -4.8 10
      vertex 1.48328 -4.56507 5
    endloop
  endfacet
  facet normal 0.45399 -0.891007 0
    outer loop
      vertex 1.48328 -4.56507 10
      vertex 1.48328 -4.56507 5
      vertex 2.82137 -3.88328 5
    endloop
  endfacet
  facet normal 0.45399 -0.891007 0
    outer loop
      vertex 2.82137 -3.88328 10
      vertex 1.48328 -4.56507 10
      vertex 2.82137 -3.88328 5
    endloop
  endfacet
  facet normal 0.707107 -0.707107 0
    outer loop
      vertex 2.82137 -3.88328 10
      vertex 2.82137 -3.88328 5
      vertex 3.88328 -2.82137 5
    endloop
  endfacet
  facet normal 0.707107 -0.707107 0
    outer loop
      vertex 3.88328 -2.82137 10
      vertex 2.82137 -3.88328 10
      vertex 3.88328 -2.82137 5
    endloop
  endfacet
  facet normal 0.891007 -0.45399 0
    outer loop
      vertex 3.88328 -2.82137 10
      vertex 3.88328 -2.82137 5
      vertex 4.56507 -1.48328 5
    endloop
  endfacet
  facet normal 0.891007 -0.45399 0
    outer loop
      vertex 4.56507 -1.48328 10
      vertex 3.88328 -2.82137 10
      vertex 4.56507 -1.48328 5
    endloop
  endfacet
  facet normal 0.987688 -0.156435 0
    outer loop
      vertex 4.56507 -1.48328 10
      vertex 4.56507 -1.48328 5
      vertex 4.8 0 5
    endloop
  endfacet
  facet normal 0.987688 -0.156435 0
    outer loop
      vertex 4.8 0 10
      vertex 4.56507 -1.48328 10
      vertex 4.8 0 5
    endloop
  endfacet
  facet normal 0.987688 0.156435 0
    outer loop
      vertex 4.8 0 5
      vertex 4.56507 1.48328 5
      vertex 4.56507 1.48328 10
    endloop
  endfacet
  facet normal 0.987688 0.156435 0
    outer loop
      vertex 4.8 0 10
      vertex 4.8 0 5
      vertex 4.56507 1.48328 10
    endloop
  endfacet
  facet normal 0.891007 0.45399 0
    outer loop
      vertex 4.56507 1.48328 5
      vertex 3.88328 2.82137 5
      vertex 3.88328 2.82137 10
    endloop
  endfacet
  facet normal 0.891007 0.45399 0
    outer loop
      vertex 4.56507 1.48328 10
      vertex 4.56507 1.48328 5
      vertex 3.88328 2.82137 10
    endloop
  endfacet
  facet normal 0.707107 0.707107 0
    outer loop
      vertex 2.82137 3.88328 5
      vertex 2.82137 3.88328 10
      vertex 3.88328 2.82137 5
    endloop
  endfacet
  facet normal 0.707107 0.707107 0
    outer loop
      vertex 3.88328 2.82137 5
      vertex 2.82137 3.88328 10
      vertex 3.88328 2.82137 10
    endloop
  endfacet
  facet normal 0.45399 0.891007 0
    outer loop
      vertex 1.48328 4.56507 5
      vertex 1.48328 4.56507 10
      vertex 2.82137 3.88328 5
    endloop
  endfacet
  facet normal 0.45399 0.891007 0
    outer loop
      vertex 2.82137 3.88328 5
      vertex 1.48328 4.56507 10
      vertex 2.82137 3.88328 10
    endloop
  endfacet
  facet normal 0.156435 0.987688 0
    outer loop
      vertex 0 4.8 5
      vertex 0 4.8 10
      vertex 1.48328 4.56507 5
    endloop
  endfacet
  facet normal 0.156435 0.987688 0
    outer loop
      vertex 1.48328 4.56507 5
      vertex 0 4.8 10
      vertex 1.48328 4.56507 10
    endloop
  endfacet
  facet normal -0.156435 0.987688 0
    outer loop
      vertex -1.48328 4.56507 5
      vertex -1.48328 4.56507 10
      vertex 0 4.8 5
    endloop
  endfacet
  facet normal -0.156435 0.987688 0
    outer loop
      vertex 0 4.8 5
      vertex -1.48328 4.56507 10
      vertex 0 4.8 10
    endloop
  endfacet
  facet normal -0.45399 0.891007 0
    outer loop
      vertex -2.82137 3.88328 5
      vertex -2.82137 3.88328 10
      vertex -1.48328 4.56507 5
    endloop
  endfacet
  facet normal -0.45399 0.891007 0
    outer loop
      vertex -1.48328 4.56507 5
      vertex -2.82137 3.88328 10
      vertex -1.48328 4.56507 10
    endloop
  endfacet
  facet normal -0.707107 0.707107 0
    outer loop
      vertex -3.88328 2.82137 5
      vertex -3.88328 2.82137 10
      vertex -2.82137 3.88328 5
    endloop
  endfacet
  facet normal -0.707107 0.707107 0
    outer loop
      vertex -2.82137 3.88328 5
      vertex -3.88328 2.82137 10
      vertex -2.82137 3.88328 10
    endloop
  endfacet
  facet normal -0.891007 0.45399 0
    outer loop
      vertex -4.56507 1.48328 5
      vertex -4.56507 1.48328 10
      vertex -3.88328 2.82137 5
    endloop
  endfacet
  facet normal -0.891007 0.45399 0
    outer loop
      vertex -3.88328 2.82137 5
      vertex -4.56507 1.48328 10
      vertex -3.88328 2.82137 10
    endloop
  endfacet
  facet normal -0.987688 0.156435 0
    outer loop
      vertex -4.8 0 5
      vertex -4.8 0 10
      vertex -4.56507 1.48328 5
    endloop
  endfacet
  facet normal -0.987688 0.156435 0
    outer loop
      vertex -4.56507 1.48328 5
      vertex -4.8 0 10
      vertex -4.56507 1.48328 10
    endloop
  endfacet
  facet normal 0 0 1
    outer loop
      vertex -4.56507 1.48328 10
      vertex -4.8 0 10
      vertex -4.56507 -1.48328 10
    endloop
  endfacet
  facet normal 0 0 1
    outer loop
      vertex -2.82137 -3.88328 10
      vertex -4.56507 1.48328 10
      vertex -3.88328 -2.82137 10
    endloop
  endfacet
  facet normal 0 0 1
    outer loop
      vertex -3.88328 -2.82137 10
      vertex -4.56507 1.48328 10
      vertex -4.56507 -1.48328 10
    endloop
  endfacet
  facet normal 0 0 1
    outer loop
      vertex -1.48328 -4.56507 10
      vertex -4.56507 1.48328 10
      vertex -2.82137 -3.88328 10
    endloop
  endfacet
  facet normal 0 0 1
    outer loop
      vertex 0 -4.8 10
      vertex -4.56507 1.48328 10
      vertex -1.48328 -4.56507 10
    endloop
  endfacet
  facet normal 0 0 1
    outer loop
      vertex 1.48328 -4.56507 10
      vertex -4.56507 1.48328 10
      vertex 0 -4.8 10
    endloop
  endfacet
  facet normal 0 0 1
    outer loop
      vertex 2.82137 -3.88328 10
      vertex -4.56507 1.48328 10
      vertex 1.48328 -4.56507 10
    endloop
  endfacet
  facet normal 0 0 1
    outer loop
      vertex 3.88328 -2.82137 10
      vertex -4.56507 1.48328 10
      vertex 2.82137 -3.88328 10
    endloop
  endfacet
  facet normal 0 0 1
    outer loop
      vertex 4.56507 -1.48328 10
      vertex -4.56507 1.48328 10
      vertex 3.88328 -2.82137 10
    endloop
  endfacet
  facet normal 0 0 1
    outer loop
      vertex 4.8 0 10
      vertex -4.56507 1.48328 10
      vertex 4.56507 -1.48328 10
    endloop
  endfacet
  facet normal 0 0 1
    outer loop
      vertex 4.56507 1.48328 10
      vertex -4.56507 1.48328 10
      vertex 4.8 0 10
    endloop
  endfacet
  facet normal 0 0 1
    outer loop
      vertex 3.88328 2.82137 10
      vertex -4.56507 1.48328 10
      vertex 4.56507 1.48328 10
    endloop
  endfacet
  facet normal 0 0 1
    outer loop
      vertex 2.82137 3.88328 10
      vertex -4.56507 1.48328 10
      vertex 3.88328 2.82137 10
    endloop
  endfacet
  facet normal 0 0 1
    outer loop
      vertex 1.48328 4.56507 10
      vertex -4.56507 1.48328 10
      vertex 2.82137 3.88328 10
    endloop
  endfacet
  facet normal 0 0 1
    outer loop
      vertex 0 4.8 10
      vertex -4.56507 1.48328 10
      vertex 1.48328 4.56507 10
    endloop
  endfacet
  facet normal 0 0 1
    outer loop
      vertex -1.48328 4.56507 10
      vertex -4.56507 1.48328 10
      vertex 0 4.8 10
    endloop
  endfacet
  facet normal 0 0 1
    outer loop
      vertex -2.82137 3.88328 10
      vertex -4.56507 1.48328 10
      vertex -1.48328 4.56507 10
    endloop
  endfacet
  facet normal 0 0 1
    outer loop
      vertex -3.88328 2.82137 10
      vertex -4.56507 1.48328 10
      vertex -2.82137 3.88328 10
    endloop
  endfacet
endsolid OpenSCAD_Model
