<?xml version="1.0" encoding="UTF-8" standalone="no"?>
<!-- Created with Inkscape (http://www.inkscape.org/) -->

<svg
   xmlns:dc="http://purl.org/dc/elements/1.1/"
   xmlns:cc="http://creativecommons.org/ns#"
   xmlns:rdf="http://www.w3.org/1999/02/22-rdf-syntax-ns#"
   xmlns:svg="http://www.w3.org/2000/svg"
   xmlns="http://www.w3.org/2000/svg"
   xmlns:sodipodi="http://sodipodi.sourceforge.net/DTD/sodipodi-0.dtd"
   xmlns:inkscape="http://www.inkscape.org/namespaces/inkscape"
   width="744.09448819"
   height="1052.3622047"
   id="svg2"
   version="1.1"
   inkscape:version="0.48.4 r9939"
   sodipodi:docname="SibRap.svg">
  <defs
     id="defs4" />
  <sodipodi:namedview
     id="base"
     pagecolor="#ffffff"
     bordercolor="#666666"
     borderopacity="1.0"
     inkscape:pageopacity="0.0"
     inkscape:pageshadow="2"
     inkscape:zoom="0.98994949"
     inkscape:cx="308.73687"
     inkscape:cy="919.24763"
     inkscape:document-units="px"
     inkscape:current-layer="layer1"
     showgrid="false"
     inkscape:window-width="1603"
     inkscape:window-height="822"
     inkscape:window-x="69"
     inkscape:window-y="49"
     inkscape:window-maximized="0" />
  <metadata
     id="metadata7">
    <rdf:RDF>
      <cc:Work
         rdf:about="">
        <dc:format>image/svg+xml</dc:format>
        <dc:type
           rdf:resource="http://purl.org/dc/dcmitype/StillImage" />
        <dc:title></dc:title>
      </cc:Work>
    </rdf:RDF>
  </metadata>
  <g
     inkscape:label="Layer 1"
     inkscape:groupmode="layer"
     id="layer1">
    <path
       inkscape:connector-curvature="0"
       id="path3087"
       style="font-size:72px;font-style:normal;font-variant:normal;font-weight:bold;font-stretch:normal;line-height:125%;letter-spacing:0px;word-spacing:0px;fill:#0000ff;fill-opacity:1;stroke:none;font-family:Lohit Gujarati;-inkscape-font-specification:Lohit Gujarati Bold"
       d="m 56.436919,14.598755 0,11.109375 c -2.882853,-1.289022 -5.69535,-2.261677 -8.4375,-2.917969 -2.742219,-0.656207 -5.33206,-0.984331 -7.769531,-0.984375 -3.234399,4.4e-5 -5.625021,0.445356 -7.171875,1.335938 -1.546893,0.890666 -2.32033,2.273477 -2.320313,4.148437 -1.7e-5,1.406287 0.515608,2.507848 1.546875,3.304688 1.054668,0.773471 2.953104,1.441439 5.695313,2.003906 l 5.765625,1.160156 c 5.835901,1.171906 9.984335,2.953154 12.445312,5.34375 2.460893,2.390649 3.69136,5.789083 3.691407,10.195313 -4.7e-5,5.789072 -1.722701,10.101568 -5.167969,12.9375 -3.421913,2.8125 -8.660189,4.218749 -15.714844,4.21875 -3.328147,-10e-7 -6.667988,-0.316407 -10.019531,-0.949219 -3.351575,-0.632812 -6.703134,-1.570311 -10.054688,-2.8125 l 0,-11.425781 c 3.351554,1.781262 6.585926,3.128917 9.703125,4.042968 3.140607,0.890635 6.164041,1.335947 9.070313,1.335938 2.953098,9e-6 5.214814,-0.492178 6.785156,-1.476563 1.57028,-0.984363 2.355435,-2.390612 2.355469,-4.21875 -3.4e-5,-1.640608 -0.539096,-2.906232 -1.617188,-3.796875 -1.054718,-0.890605 -3.17581,-1.68748 -6.363281,-2.390625 l -5.238281,-1.160156 c -5.250015,-1.124977 -9.093761,-2.917944 -11.53125,-5.378906 -2.414069,-2.460908 -3.621099,-5.777311 -3.621094,-9.949219 -5e-6,-5.22652 1.687493,-9.246047 5.0625,-12.058594 3.374987,-2.812448 8.226544,-4.218696 14.554688,-4.21875 2.882785,5.4e-5 5.847625,0.22271 8.894531,0.667969 3.046838,0.421927 6.199179,1.066458 9.457031,1.933594" />
    <path
       inkscape:connector-curvature="0"
       id="path3089"
       style="font-size:72px;font-style:normal;font-variant:normal;font-weight:bold;font-stretch:normal;line-height:125%;letter-spacing:0px;word-spacing:0px;fill:#0000ff;fill-opacity:1;stroke:none;font-family:Lohit Gujarati;-inkscape-font-specification:Lohit Gujarati Bold"
       d="m 71.2377,26.059692 12.585938,0 0,39.375 -12.585938,0 0,-39.375 m 0,-15.328125 12.585938,0 0,10.265625 -12.585938,0 0,-10.265625" />
    <path
       inkscape:connector-curvature="0"
       id="path3091"
       style="font-size:72px;font-style:normal;font-variant:normal;font-weight:bold;font-stretch:normal;line-height:125%;letter-spacing:0px;word-spacing:0px;fill:#0000ff;fill-opacity:1;stroke:none;font-family:Lohit Gujarati;-inkscape-font-specification:Lohit Gujarati Bold"
       d="m 116.94083,57.313599 c 2.69528,8e-6 4.74606,-0.984366 6.15234,-2.953125 1.42965,-1.968737 2.1445,-4.828109 2.14453,-8.578125 -3e-5,-3.749977 -0.71488,-6.609349 -2.14453,-8.578125 -1.40628,-1.96872 -3.45706,-2.953094 -6.15234,-2.953125 -2.69534,3.1e-5 -4.76956,0.996124 -6.22266,2.988281 -1.42971,1.968776 -2.14455,4.81643 -2.14453,8.542969 -2e-5,3.726578 0.71482,6.58595 2.14453,8.578125 1.4531,1.968759 3.52732,2.953133 6.22266,2.953125 m -8.36719,-25.488282 c 1.73435,-2.296839 3.65623,-3.984337 5.76562,-5.0625 2.10935,-1.101522 4.53513,-1.652303 7.27735,-1.652343 4.85152,4e-5 8.83589,1.933632 11.95312,5.800781 3.11714,3.843781 4.67573,8.800807 4.67578,14.871094 -5e-5,6.070326 -1.55864,11.039071 -4.67578,14.90625 -3.11723,3.843751 -7.1016,5.765624 -11.95312,5.765625 -2.74222,-10e-7 -5.168,-0.539063 -7.27735,-1.617188 -2.10939,-1.101561 -4.03127,-2.800778 -5.76562,-5.097656 l 0,5.695312 -12.58594,0 0,-54.703125 12.58594,0 0,21.09375" />
    <path
       inkscape:connector-curvature="0"
       id="path3093"
       style="font-size:72px;font-style:normal;font-variant:normal;font-weight:bold;font-stretch:normal;line-height:125%;letter-spacing:0px;word-spacing:0px;fill:#0000ff;fill-opacity:1;stroke:none;font-family:Lohit Gujarati;-inkscape-font-specification:Lohit Gujarati Bold"
       d="m 167.39004,36.219849 c 2.83591,2.9e-5 4.86325,-0.527314 6.08204,-1.582032 1.24215,-1.054655 1.86324,-2.789029 1.86328,-5.203125 -4e-5,-2.390586 -0.62113,-4.101522 -1.86328,-5.132812 -1.21879,-1.031208 -3.24613,-1.546832 -6.08204,-1.546875 l -5.69531,0 0,13.464844 5.69531,0 m -5.69531,9.351562 0,19.863281 -13.53515,0 0,-52.488281 20.67187,0 c 6.91403,5.3e-5 11.97652,1.160208 15.1875,3.480469 3.23433,2.320359 4.85152,5.988324 4.85156,11.003906 -4e-5,3.468785 -0.84379,6.316438 -2.53125,8.542969 -1.6641,2.22659 -4.18363,3.867213 -7.55859,4.921875 1.85152,0.421899 3.50386,1.382836 4.95703,2.882812 1.47652,1.476583 2.9648,3.726581 4.46484,6.75 l 7.34766,14.90625 -14.41406,0 -6.39844,-13.042968 c -1.28909,-2.624985 -2.60159,-4.417952 -3.9375,-5.378907 -1.31253,-0.960918 -3.07034,-1.441386 -5.27344,-1.441406 l -3.83203,0" />
    <path
       inkscape:connector-curvature="0"
       id="path3095"
       style="font-size:72px;font-style:normal;font-variant:normal;font-weight:bold;font-stretch:normal;line-height:125%;letter-spacing:0px;word-spacing:0px;fill:#0000ff;fill-opacity:1;stroke:none;font-family:Lohit Gujarati;-inkscape-font-specification:Lohit Gujarati Bold"
       d="m 220.65176,47.715942 c -2.62502,1.8e-5 -4.60548,0.44533 -5.9414,1.335938 -1.31252,0.89064 -1.96877,2.203139 -1.96875,3.9375 -2e-5,1.593761 0.52732,2.847666 1.58203,3.761719 1.0781,0.890632 2.56638,1.335944 4.46484,1.335937 2.36717,7e-6 4.35935,-0.843742 5.97656,-2.53125 1.61716,-1.710926 2.42576,-3.843736 2.42579,-6.398437 l 0,-1.441407 -6.53907,0 m 19.23047,-4.746093 0,22.464843 -12.6914,0 0,-5.835937 c -1.68753,2.390628 -3.58597,4.13672 -5.69532,5.238281 -2.10939,1.078125 -4.6758,1.617187 -7.69922,1.617188 -4.07813,-10e-7 -7.39454,-1.183594 -9.94921,-3.550782 -2.53126,-2.39062 -3.79688,-5.484367 -3.79688,-9.28125 0,-4.617171 1.58203,-8.003886 4.74609,-10.160156 3.18749,-2.156226 8.17968,-3.23435 14.97657,-3.234375 l 7.41797,0 0,-0.984375 c -3e-5,-1.992159 -0.78519,-3.445283 -2.35547,-4.359375 -1.57034,-0.937468 -4.01956,-1.406218 -7.34766,-1.40625 -2.69533,3.2e-5 -5.20314,0.269563 -7.52344,0.808594 -2.32032,0.539093 -4.47657,1.347686 -6.46875,2.425781 l 0,-9.597656 c 2.69531,-0.656211 5.40233,-1.148398 8.1211,-1.476563 2.71873,-0.351522 5.43748,-0.527303 8.15625,-0.527343 7.10153,4e-5 12.22262,1.406289 15.36328,4.21875 3.16402,2.789095 4.74605,7.335966 4.74609,13.640625" />
    <path
       inkscape:connector-curvature="0"
       id="path3097"
       style="font-size:72px;font-style:normal;font-variant:normal;font-weight:bold;font-stretch:normal;line-height:125%;letter-spacing:0px;word-spacing:0px;fill:#0000ff;fill-opacity:1;stroke:none;font-family:Lohit Gujarati;-inkscape-font-specification:Lohit Gujarati Bold"
       d="m 264.24551,59.73938 0,20.671875 -12.58593,0 0,-54.351563 12.58593,0 0,5.765625 c 1.73436,-2.296839 3.65623,-3.984337 5.76563,-5.0625 2.10935,-1.101522 4.53513,-1.652303 7.27734,-1.652343 4.85153,4e-5 8.8359,1.933632 11.95313,5.800781 3.11714,3.843781 4.67573,8.800807 4.67578,14.871094 -5e-5,6.070326 -1.55864,11.039071 -4.67578,14.90625 -3.11723,3.843751 -7.1016,5.765624 -11.95313,5.765625 -2.74221,-10e-7 -5.16799,-0.539063 -7.27734,-1.617188 -2.1094,-1.101561 -4.03127,-2.800778 -5.76563,-5.097656 m 8.36719,-25.488281 c -2.69534,3.1e-5 -4.76955,0.996124 -6.22266,2.988281 -1.4297,1.968776 -2.14455,4.81643 -2.14453,8.542969 -2e-5,3.726578 0.71483,6.58595 2.14453,8.578125 1.45311,1.968759 3.52732,2.953133 6.22266,2.953125 2.69528,8e-6 4.74606,-0.984366 6.15234,-2.953125 1.42966,-1.968737 2.1445,-4.828109 2.14454,-8.578125 -4e-5,-3.749977 -0.71488,-6.609349 -2.14454,-8.578125 -1.40628,-1.96872 -3.45706,-2.953094 -6.15234,-2.953125" />
    <path
       inkscape:connector-curvature="0"
       id="path3099"
       style="font-size:28px;font-style:normal;font-weight:normal;line-height:125%;letter-spacing:-3.1400001px;word-spacing:0px;fill:#0000ff;fill-opacity:1;stroke:none;font-family:Liberation Mono;-inkscape-font-specification:Liberation Mono Bold"
       d="m 312.29043,65.434692 0,-2.857421 5.31836,0 0,-12.181641 c -0.17318,0.364598 -0.44662,0.710952 -0.82031,1.039062 -0.36459,0.319024 -0.79297,0.597019 -1.28515,0.833985 -0.48308,0.236992 -1.01628,0.428398 -1.59961,0.574219 -0.57423,0.136731 -1.16212,0.20509 -1.76368,0.205078 l 0,-2.925782 c 0.67448,1.6e-5 1.30339,-0.07746 1.88672,-0.232421 0.58333,-0.154933 1.11653,-0.369125 1.59961,-0.642579 0.48307,-0.282535 0.9069,-0.615217 1.27149,-0.998046 0.37369,-0.382795 0.67903,-0.802066 0.91601,-1.257813 l 3.63672,0 0,15.585938 4.41602,0 0,2.857421 -13.57618,0" />
    <path
       inkscape:connector-curvature="0"
       id="path3101"
       style="font-size:28px;font-style:normal;font-weight:normal;line-height:125%;letter-spacing:-3.1400001px;word-spacing:0px;fill:#0000ff;fill-opacity:1;stroke:none;font-family:Liberation Mono;-inkscape-font-specification:Liberation Mono Bold"
       d="m 330.32815,65.434692 0,-4.169921 3.95118,0 0,4.169921 -3.95118,0" />
    <path
       inkscape:connector-curvature="0"
       id="path3103"
       style="font-size:28px;font-style:normal;font-weight:normal;line-height:125%;letter-spacing:-3.1400001px;word-spacing:0px;fill:#0000ff;fill-opacity:1;stroke:none;font-family:Liberation Mono;-inkscape-font-specification:Liberation Mono Bold"
       d="m 350.94989,61.510864 0,3.923828 -3.66406,0 0,-3.923828 -8.76368,0 0,-2.884765 8.13477,-11.634766 4.29297,0 0,11.662109 2.57031,0 0,2.857422 -2.57031,0 m -3.66406,-8.476562 c -10e-6,-0.154936 -10e-6,-0.355456 0,-0.601563 0.009,-0.255195 0.0182,-0.51496 0.0273,-0.779297 0.0182,-0.264308 0.0319,-0.514959 0.041,-0.751953 0.0182,-0.246079 0.0364,-0.437485 0.0547,-0.574218 -0.0456,0.100275 -0.1185,0.246108 -0.21875,0.4375 -0.10027,0.182306 -0.2142,0.382826 -0.34179,0.601562 -0.1185,0.209649 -0.24611,0.419284 -0.38282,0.628906 -0.12761,0.209649 -0.24154,0.39194 -0.34179,0.546875 l -4.375,6.111328 5.53711,0 0,-5.61914" />
    <text
       xml:space="preserve"
       style="font-size:40px;font-style:normal;font-weight:normal;line-height:125%;letter-spacing:0px;word-spacing:0px;fill:#000000;fill-opacity:1;stroke:none;font-family:Sans"
       x="327.28943"
       y="114.94062"
       id="text3008"
       sodipodi:linespacing="125%"><tspan
         sodipodi:role="line"
         id="tspan3010"
         x="327.28943"
         y="114.94062"
         style="fill:#0000ff" /></text>
  </g>
</svg>
