solid OpenSCAD_Model
  facet normal -1 0 0
    outer loop
      vertex 0 0 0
      vertex 0 0 4
      vertex 0 64 0
    endloop
  endfacet
  facet normal -1 0 0
    outer loop
      vertex 0 45 3
      vertex 0 0 4
      vertex 0 45 4
    endloop
  endfacet
  facet normal -1 0 0
    outer loop
      vertex 0 64 0
      vertex 0 0 4
      vertex 0 45 3
    endloop
  endfacet
  facet normal -1 0 0
    outer loop
      vertex 0 64 0
      vertex 0 55 3
      vertex 0 55 4
    endloop
  endfacet
  facet normal -1 0 0
    outer loop
      vertex 0 64 0
      vertex 0 55 4
      vertex 0 60 4
    endloop
  endfacet
  facet normal -1 0 0
    outer loop
      vertex 0 64 0
      vertex 0 60 4
      vertex 0 60 8
    endloop
  endfacet
  facet normal -1 0 0
    outer loop
      vertex 0 64 0
      vertex 0 60 8
      vertex 0 64 8
    endloop
  endfacet
  facet normal -1 0 0
    outer loop
      vertex 0 55 3
      vertex 0 64 0
      vertex 0 45 3
    endloop
  endfacet
  facet normal 0 -1 0
    outer loop
      vertex 0 0 4
      vertex 0 0 0
      vertex 94 0 0
    endloop
  endfacet
  facet normal 0 -1 0
    outer loop
      vertex 90 0 4
      vertex 0 0 4
      vertex 94 0 0
    endloop
  endfacet
  facet normal 0 -1 0
    outer loop
      vertex 94 0 8
      vertex 90 0 4
      vertex 94 0 0
    endloop
  endfacet
  facet normal 0 -1 0
    outer loop
      vertex 90 0 8
      vertex 90 0 4
      vertex 94 0 8
    endloop
  endfacet
  facet normal 0 0 -1
    outer loop
      vertex 80 51.5 0
      vertex 0 64 0
      vertex 94 64 0
    endloop
  endfacet
  facet normal 0 0 -1
    outer loop
      vertex 0 0 0
      vertex 0 64 0
      vertex 6.5 50 0
    endloop
  endfacet
  facet normal 0 0 -1
    outer loop
      vertex 0 0 0
      vertex 6.5 50 0
      vertex 6.57341 49.5365 0
    endloop
  endfacet
  facet normal 0 0 -1
    outer loop
      vertex 0 0 0
      vertex 6.57341 49.5365 0
      vertex 6.78647 49.1183 0
    endloop
  endfacet
  facet normal 0 0 -1
    outer loop
      vertex 0 0 0
      vertex 6.78647 49.1183 0
      vertex 7.11832 48.7865 0
    endloop
  endfacet
  facet normal 0 0 -1
    outer loop
      vertex 80 35 0
      vertex 94 0 0
      vertex 80 5 0
    endloop
  endfacet
  facet normal 0 0 -1
    outer loop
      vertex 10 35 0
      vertex 7.11832 48.7865 0
      vertex 7.53647 48.5734 0
    endloop
  endfacet
  facet normal 0 0 -1
    outer loop
      vertex 8.88168 51.2135 0
      vertex 0 64 0
      vertex 9.21352 50.8817 0
    endloop
  endfacet
  facet normal 0 0 -1
    outer loop
      vertex 7.11832 51.2135 0
      vertex 0 64 0
      vertex 7.53647 51.4266 0
    endloop
  endfacet
  facet normal 0 0 -1
    outer loop
      vertex 7.53647 51.4266 0
      vertex 0 64 0
      vertex 8 51.5 0
    endloop
  endfacet
  facet normal 0 0 -1
    outer loop
      vertex 8 51.5 0
      vertex 0 64 0
      vertex 8.46352 51.4266 0
    endloop
  endfacet
  facet normal 0 0 -1
    outer loop
      vertex 8.46352 51.4266 0
      vertex 0 64 0
      vertex 8.88168 51.2135 0
    endloop
  endfacet
  facet normal 0 0 -1
    outer loop
      vertex 10 35 0
      vertex 7.53647 48.5734 0
      vertex 8 48.5 0
    endloop
  endfacet
  facet normal 0 0 -1
    outer loop
      vertex 6.78647 50.8817 0
      vertex 0 64 0
      vertex 7.11832 51.2135 0
    endloop
  endfacet
  facet normal 0 0 -1
    outer loop
      vertex 6.57341 50.4635 0
      vertex 0 64 0
      vertex 6.78647 50.8817 0
    endloop
  endfacet
  facet normal 0 0 -1
    outer loop
      vertex 6.5 50 0
      vertex 0 64 0
      vertex 6.57341 50.4635 0
    endloop
  endfacet
  facet normal 0 0 -1
    outer loop
      vertex 0 0 0
      vertex 7.11832 48.7865 0
      vertex 10 35 0
    endloop
  endfacet
  facet normal 0 0 -1
    outer loop
      vertex 0 0 0
      vertex 10 35 0
      vertex 10 5 0
    endloop
  endfacet
  facet normal 0 0 -1
    outer loop
      vertex 0 0 0
      vertex 10 5 0
      vertex 94 0 0
    endloop
  endfacet
  facet normal 0 0 -1
    outer loop
      vertex 10 5 0
      vertex 80 5 0
      vertex 94 0 0
    endloop
  endfacet
  facet normal 0 0 -1
    outer loop
      vertex 45.618 46.9021 0
      vertex 0 64 0
      vertex 80 35 0
    endloop
  endfacet
  facet normal 0 0 -1
    outer loop
      vertex 94 0 0
      vertex 80 35 0
      vertex 94 64 0
    endloop
  endfacet
  facet normal 0 0 -1
    outer loop
      vertex 43.0979 44.382 0
      vertex 0 64 0
      vertex 43 45 0
    endloop
  endfacet
  facet normal 0 0 -1
    outer loop
      vertex 43.382 43.8244 0
      vertex 0 64 0
      vertex 43.0979 44.382 0
    endloop
  endfacet
  facet normal 0 0 -1
    outer loop
      vertex 43.8244 43.382 0
      vertex 0 64 0
      vertex 43.382 43.8244 0
    endloop
  endfacet
  facet normal 0 0 -1
    outer loop
      vertex 52.5734 41.5365 0
      vertex 46.1756 43.382 0
      vertex 52.5 42 0
    endloop
  endfacet
  facet normal 0 0 -1
    outer loop
      vertex 52.5 42 0
      vertex 46.618 43.8244 0
      vertex 52.5734 42.4635 0
    endloop
  endfacet
  facet normal 0 0 -1
    outer loop
      vertex 43.0979 45.618 0
      vertex 0 64 0
      vertex 43.382 46.1756 0
    endloop
  endfacet
  facet normal 0 0 -1
    outer loop
      vertex 43.382 46.1756 0
      vertex 0 64 0
      vertex 43.8244 46.618 0
    endloop
  endfacet
  facet normal 0 0 -1
    outer loop
      vertex 43.8244 46.618 0
      vertex 0 64 0
      vertex 44.382 46.9021 0
    endloop
  endfacet
  facet normal 0 0 -1
    outer loop
      vertex 54.4635 43.4266 0
      vertex 46.618 46.1756 0
      vertex 80 35 0
    endloop
  endfacet
  facet normal 0 0 -1
    outer loop
      vertex 44.382 46.9021 0
      vertex 0 64 0
      vertex 45 47 0
    endloop
  endfacet
  facet normal 0 0 -1
    outer loop
      vertex 46.618 46.1756 0
      vertex 46.1756 46.618 0
      vertex 80 35 0
    endloop
  endfacet
  facet normal 0 0 -1
    outer loop
      vertex 46.1756 46.618 0
      vertex 45.618 46.9021 0
      vertex 80 35 0
    endloop
  endfacet
  facet normal 0 0 -1
    outer loop
      vertex 55.5 42 0
      vertex 80 35 0
      vertex 55.4266 41.5365 0
    endloop
  endfacet
  facet normal 0 0 -1
    outer loop
      vertex 43 45 0
      vertex 0 64 0
      vertex 43.0979 45.618 0
    endloop
  endfacet
  facet normal 0 0 -1
    outer loop
      vertex 46.1756 43.382 0
      vertex 46.618 43.8244 0
      vertex 52.5 42 0
    endloop
  endfacet
  facet normal 0 0 -1
    outer loop
      vertex 45.618 43.0979 0
      vertex 46.1756 43.382 0
      vertex 52.5734 41.5365 0
    endloop
  endfacet
  facet normal 0 0 -1
    outer loop
      vertex 53.1183 40.7865 0
      vertex 45.618 43.0979 0
      vertex 52.7865 41.1183 0
    endloop
  endfacet
  facet normal 0 0 -1
    outer loop
      vertex 53.5365 40.5734 0
      vertex 54 40.5 0
      vertex 80 35 0
    endloop
  endfacet
  facet normal 0 0 -1
    outer loop
      vertex 54 40.5 0
      vertex 54.4635 40.5734 0
      vertex 80 35 0
    endloop
  endfacet
  facet normal 0 0 -1
    outer loop
      vertex 54.8817 40.7865 0
      vertex 80 35 0
      vertex 54.4635 40.5734 0
    endloop
  endfacet
  facet normal 0 0 -1
    outer loop
      vertex 55.2135 41.1183 0
      vertex 80 35 0
      vertex 54.8817 40.7865 0
    endloop
  endfacet
  facet normal 0 0 -1
    outer loop
      vertex 52.7865 41.1183 0
      vertex 45.618 43.0979 0
      vertex 52.5734 41.5365 0
    endloop
  endfacet
  facet normal 0 0 -1
    outer loop
      vertex 55.4266 41.5365 0
      vertex 80 35 0
      vertex 55.2135 41.1183 0
    endloop
  endfacet
  facet normal 0 0 -1
    outer loop
      vertex 81.4266 49.5365 0
      vertex 94 64 0
      vertex 81.2135 49.1183 0
    endloop
  endfacet
  facet normal 0 0 -1
    outer loop
      vertex 52.5734 42.4635 0
      vertex 46.9021 44.382 0
      vertex 52.7865 42.8817 0
    endloop
  endfacet
  facet normal 0 0 -1
    outer loop
      vertex 55.4266 42.4635 0
      vertex 80 35 0
      vertex 55.5 42 0
    endloop
  endfacet
  facet normal 0 0 -1
    outer loop
      vertex 52.7865 42.8817 0
      vertex 47 45 0
      vertex 53.1183 43.2135 0
    endloop
  endfacet
  facet normal 0 0 -1
    outer loop
      vertex 54.8817 43.2135 0
      vertex 80 35 0
      vertex 55.2135 42.8817 0
    endloop
  endfacet
  facet normal 0 0 -1
    outer loop
      vertex 53.1183 43.2135 0
      vertex 46.9021 45.618 0
      vertex 53.5365 43.4266 0
    endloop
  endfacet
  facet normal 0 0 -1
    outer loop
      vertex 55.4266 42.4635 0
      vertex 55.2135 42.8817 0
      vertex 80 35 0
    endloop
  endfacet
  facet normal 0 0 -1
    outer loop
      vertex 53.5365 43.4266 0
      vertex 46.9021 45.618 0
      vertex 54 43.5 0
    endloop
  endfacet
  facet normal 0 0 -1
    outer loop
      vertex 54 43.5 0
      vertex 46.618 46.1756 0
      vertex 54.4635 43.4266 0
    endloop
  endfacet
  facet normal 0 0 -1
    outer loop
      vertex 54.8817 43.2135 0
      vertex 54.4635 43.4266 0
      vertex 80 35 0
    endloop
  endfacet
  facet normal 0 0 -1
    outer loop
      vertex 46.9021 45.618 0
      vertex 46.618 46.1756 0
      vertex 54 43.5 0
    endloop
  endfacet
  facet normal 0 0 -1
    outer loop
      vertex 47 45 0
      vertex 46.9021 45.618 0
      vertex 53.1183 43.2135 0
    endloop
  endfacet
  facet normal 0 0 -1
    outer loop
      vertex 46.9021 44.382 0
      vertex 47 45 0
      vertex 52.7865 42.8817 0
    endloop
  endfacet
  facet normal 0 0 -1
    outer loop
      vertex 45 47 0
      vertex 0 64 0
      vertex 45.618 46.9021 0
    endloop
  endfacet
  facet normal 0 0 -1
    outer loop
      vertex 80 35 0
      vertex 0 64 0
      vertex 78.5 50 0
    endloop
  endfacet
  facet normal 0 0 -1
    outer loop
      vertex 80 35 0
      vertex 78.5 50 0
      vertex 78.5734 49.5365 0
    endloop
  endfacet
  facet normal 0 0 -1
    outer loop
      vertex 80 35 0
      vertex 78.5734 49.5365 0
      vertex 78.7865 49.1183 0
    endloop
  endfacet
  facet normal 0 0 -1
    outer loop
      vertex 80 35 0
      vertex 78.7865 49.1183 0
      vertex 79.1183 48.7865 0
    endloop
  endfacet
  facet normal 0 0 -1
    outer loop
      vertex 80 35 0
      vertex 79.1183 48.7865 0
      vertex 79.5365 48.5734 0
    endloop
  endfacet
  facet normal 0 0 -1
    outer loop
      vertex 80 35 0
      vertex 79.5365 48.5734 0
      vertex 80 48.5 0
    endloop
  endfacet
  facet normal 0 0 -1
    outer loop
      vertex 80 35 0
      vertex 80 48.5 0
      vertex 80.4635 48.5734 0
    endloop
  endfacet
  facet normal 0 0 -1
    outer loop
      vertex 80 35 0
      vertex 80.4635 48.5734 0
      vertex 80.8817 48.7865 0
    endloop
  endfacet
  facet normal 0 0 -1
    outer loop
      vertex 80 35 0
      vertex 80.8817 48.7865 0
      vertex 81.2135 49.1183 0
    endloop
  endfacet
  facet normal 0 0 -1
    outer loop
      vertex 80 35 0
      vertex 81.2135 49.1183 0
      vertex 94 64 0
    endloop
  endfacet
  facet normal 0 0 -1
    outer loop
      vertex 81.5 50 0
      vertex 94 64 0
      vertex 81.4266 49.5365 0
    endloop
  endfacet
  facet normal 0 0 -1
    outer loop
      vertex 81.4266 50.4635 0
      vertex 94 64 0
      vertex 81.5 50 0
    endloop
  endfacet
  facet normal 0 0 -1
    outer loop
      vertex 81.2135 50.8817 0
      vertex 94 64 0
      vertex 81.4266 50.4635 0
    endloop
  endfacet
  facet normal 0 0 -1
    outer loop
      vertex 80.8817 51.2135 0
      vertex 94 64 0
      vertex 81.2135 50.8817 0
    endloop
  endfacet
  facet normal 0 0 -1
    outer loop
      vertex 80.4635 51.4266 0
      vertex 94 64 0
      vertex 80.8817 51.2135 0
    endloop
  endfacet
  facet normal 0 0 -1
    outer loop
      vertex 80 51.5 0
      vertex 94 64 0
      vertex 80.4635 51.4266 0
    endloop
  endfacet
  facet normal 0 0 -1
    outer loop
      vertex 79.5365 51.4266 0
      vertex 0 64 0
      vertex 80 51.5 0
    endloop
  endfacet
  facet normal 0 0 -1
    outer loop
      vertex 79.1183 51.2135 0
      vertex 0 64 0
      vertex 79.5365 51.4266 0
    endloop
  endfacet
  facet normal 0 0 -1
    outer loop
      vertex 78.7865 50.8817 0
      vertex 0 64 0
      vertex 79.1183 51.2135 0
    endloop
  endfacet
  facet normal 0 0 -1
    outer loop
      vertex 78.5734 50.4635 0
      vertex 0 64 0
      vertex 78.7865 50.8817 0
    endloop
  endfacet
  facet normal 0 0 -1
    outer loop
      vertex 78.5 50 0
      vertex 0 64 0
      vertex 78.5734 50.4635 0
    endloop
  endfacet
  facet normal 0 0 -1
    outer loop
      vertex 46.9021 44.382 0
      vertex 52.5734 42.4635 0
      vertex 46.618 43.8244 0
    endloop
  endfacet
  facet normal 0 0 -1
    outer loop
      vertex 10 35 0
      vertex 8 48.5 0
      vertex 8.46352 48.5734 0
    endloop
  endfacet
  facet normal 0 0 -1
    outer loop
      vertex 10 35 0
      vertex 8.46352 48.5734 0
      vertex 8.88168 48.7865 0
    endloop
  endfacet
  facet normal 0 0 -1
    outer loop
      vertex 10 35 0
      vertex 8.88168 48.7865 0
      vertex 9.21352 49.1183 0
    endloop
  endfacet
  facet normal 0 0 -1
    outer loop
      vertex 10 35 0
      vertex 9.21352 49.1183 0
      vertex 9.42658 49.5365 0
    endloop
  endfacet
  facet normal 0 0 -1
    outer loop
      vertex 10 35 0
      vertex 9.42658 49.5365 0
      vertex 9.5 50 0
    endloop
  endfacet
  facet normal 0 0 -1
    outer loop
      vertex 9.21352 50.8817 0
      vertex 0 64 0
      vertex 43.8244 43.382 0
    endloop
  endfacet
  facet normal 0 0 -1
    outer loop
      vertex 9.42658 50.4635 0
      vertex 9.21352 50.8817 0
      vertex 43.8244 43.382 0
    endloop
  endfacet
  facet normal 0 0 -1
    outer loop
      vertex 9.5 50 0
      vertex 9.42658 50.4635 0
      vertex 43.8244 43.382 0
    endloop
  endfacet
  facet normal 0 0 -1
    outer loop
      vertex 10 35 0
      vertex 9.5 50 0
      vertex 43.8244 43.382 0
    endloop
  endfacet
  facet normal 0 0 -1
    outer loop
      vertex 10 35 0
      vertex 43.8244 43.382 0
      vertex 44.382 43.0979 0
    endloop
  endfacet
  facet normal 0 0 -1
    outer loop
      vertex 10 35 0
      vertex 44.382 43.0979 0
      vertex 45 43 0
    endloop
  endfacet
  facet normal 0 0 -1
    outer loop
      vertex 10 35 0
      vertex 45 43 0
      vertex 45.618 43.0979 0
    endloop
  endfacet
  facet normal 0 0 -1
    outer loop
      vertex 10 35 0
      vertex 45.618 43.0979 0
      vertex 53.1183 40.7865 0
    endloop
  endfacet
  facet normal 0 0 -1
    outer loop
      vertex 10 35 0
      vertex 53.1183 40.7865 0
      vertex 53.5365 40.5734 0
    endloop
  endfacet
  facet normal 0 0 -1
    outer loop
      vertex 10 35 0
      vertex 53.5365 40.5734 0
      vertex 80 35 0
    endloop
  endfacet
  facet normal 0 1 0
    outer loop
      vertex 0 64 0
      vertex 0 64 8
      vertex 94 64 0
    endloop
  endfacet
  facet normal 0 1 0
    outer loop
      vertex 94 64 0
      vertex 0 64 8
      vertex 94 64 8
    endloop
  endfacet
  facet normal 0 0 1
    outer loop
      vertex 0 64 8
      vertex 0 60 8
      vertex 90 60 8
    endloop
  endfacet
  facet normal 0 0 1
    outer loop
      vertex 94 64 8
      vertex 0 64 8
      vertex 90 60 8
    endloop
  endfacet
  facet normal 0 0 1
    outer loop
      vertex 90 0 8
      vertex 94 0 8
      vertex 90 60 8
    endloop
  endfacet
  facet normal 0 0 1
    outer loop
      vertex 94 0 8
      vertex 94 64 8
      vertex 90 60 8
    endloop
  endfacet
  facet normal 0 -1 0
    outer loop
      vertex 90 60 4
      vertex 90 60 8
      vertex 0 60 8
    endloop
  endfacet
  facet normal 0 -1 0
    outer loop
      vertex 0 60 4
      vertex 90 60 4
      vertex 0 60 8
    endloop
  endfacet
  facet normal 0 0 1
    outer loop
      vertex 10 5 4
      vertex 0 0 4
      vertex 90 0 4
    endloop
  endfacet
  facet normal 0 0 1
    outer loop
      vertex 80 5 4
      vertex 10 5 4
      vertex 90 0 4
    endloop
  endfacet
  facet normal 0 0 1
    outer loop
      vertex 49 37 4
      vertex 46.9021 44.382 4
      vertex 46.618 43.8244 4
    endloop
  endfacet
  facet normal 0 0 1
    outer loop
      vertex 0 60 4
      vertex 0 55 4
      vertex 90 60 4
    endloop
  endfacet
  facet normal 0 0 1
    outer loop
      vertex 0 55 4
      vertex 12 55 4
      vertex 90 60 4
    endloop
  endfacet
  facet normal 0 0 1
    outer loop
      vertex 80 35 4
      vertex 80 5 4
      vertex 90 0 4
    endloop
  endfacet
  facet normal 0 0 1
    outer loop
      vertex 0 45 4
      vertex 0 0 4
      vertex 10 5 4
    endloop
  endfacet
  facet normal 0 0 1
    outer loop
      vertex 0 45 4
      vertex 10 5 4
      vertex 10 35 4
    endloop
  endfacet
  facet normal 0 0 1
    outer loop
      vertex 85 37 4
      vertex 80 35 4
      vertex 90 0 4
    endloop
  endfacet
  facet normal 0 0 1
    outer loop
      vertex 49 37 4
      vertex 46.618 43.8244 4
      vertex 46.1756 43.382 4
    endloop
  endfacet
  facet normal 0 0 1
    outer loop
      vertex 44.382 43.0979 4
      vertex 43.8244 43.382 4
      vertex 12 45 4
    endloop
  endfacet
  facet normal 0 0 1
    outer loop
      vertex 43 45 4
      vertex 12 45 4
      vertex 43.0979 44.382 4
    endloop
  endfacet
  facet normal 0 0 1
    outer loop
      vertex 45.618 46.9021 4
      vertex 49 55 4
      vertex 45 47 4
    endloop
  endfacet
  facet normal 0 0 1
    outer loop
      vertex 43.0979 45.618 4
      vertex 12 45 4
      vertex 43 45 4
    endloop
  endfacet
  facet normal 0 0 1
    outer loop
      vertex 43.382 46.1756 4
      vertex 12 45 4
      vertex 43.0979 45.618 4
    endloop
  endfacet
  facet normal 0 0 1
    outer loop
      vertex 43.8244 46.618 4
      vertex 12 45 4
      vertex 43.382 46.1756 4
    endloop
  endfacet
  facet normal 0 0 1
    outer loop
      vertex 44.382 46.9021 4
      vertex 12 45 4
      vertex 43.8244 46.618 4
    endloop
  endfacet
  facet normal 0 0 1
    outer loop
      vertex 49 37 4
      vertex 46.1756 43.382 4
      vertex 45.618 43.0979 4
    endloop
  endfacet
  facet normal 0 0 1
    outer loop
      vertex 49 37 4
      vertex 49 55 4
      vertex 46.9021 45.618 4
    endloop
  endfacet
  facet normal 0 0 1
    outer loop
      vertex 46.9021 45.618 4
      vertex 49 55 4
      vertex 46.618 46.1756 4
    endloop
  endfacet
  facet normal 0 0 1
    outer loop
      vertex 46.618 46.1756 4
      vertex 49 55 4
      vertex 46.1756 46.618 4
    endloop
  endfacet
  facet normal 0 0 1
    outer loop
      vertex 46.1756 46.618 4
      vertex 49 55 4
      vertex 45.618 46.9021 4
    endloop
  endfacet
  facet normal 0 0 1
    outer loop
      vertex 49 37 4
      vertex 45 43 4
      vertex 12 45 4
    endloop
  endfacet
  facet normal 0 0 1
    outer loop
      vertex 45 47 4
      vertex 49 55 4
      vertex 12 45 4
    endloop
  endfacet
  facet normal 0 0 1
    outer loop
      vertex 45 47 4
      vertex 12 45 4
      vertex 44.382 46.9021 4
    endloop
  endfacet
  facet normal 0 0 1
    outer loop
      vertex 44.382 43.0979 4
      vertex 12 45 4
      vertex 45 43 4
    endloop
  endfacet
  facet normal 0 0 1
    outer loop
      vertex 43.8244 43.382 4
      vertex 43.382 43.8244 4
      vertex 12 45 4
    endloop
  endfacet
  facet normal 0 0 1
    outer loop
      vertex 49 37 4
      vertex 45.618 43.0979 4
      vertex 45 43 4
    endloop
  endfacet
  facet normal 0 0 1
    outer loop
      vertex 43.0979 44.382 4
      vertex 12 45 4
      vertex 43.382 43.8244 4
    endloop
  endfacet
  facet normal 0 0 1
    outer loop
      vertex 49 55 4
      vertex 85 55 4
      vertex 90 60 4
    endloop
  endfacet
  facet normal 0 0 1
    outer loop
      vertex 12 55 4
      vertex 49 55 4
      vertex 90 60 4
    endloop
  endfacet
  facet normal 0 0 1
    outer loop
      vertex 10 35 4
      vertex 12 45 4
      vertex 0 45 4
    endloop
  endfacet
  facet normal 0 0 1
    outer loop
      vertex 90 60 4
      vertex 85 37 4
      vertex 90 0 4
    endloop
  endfacet
  facet normal 0 0 1
    outer loop
      vertex 12 55 4
      vertex 12 45 4
      vertex 49 55 4
    endloop
  endfacet
  facet normal 0 0 1
    outer loop
      vertex 10 35 4
      vertex 49 37 4
      vertex 12 45 4
    endloop
  endfacet
  facet normal 0 0 1
    outer loop
      vertex 10 35 4
      vertex 80 35 4
      vertex 49 37 4
    endloop
  endfacet
  facet normal 0 0 1
    outer loop
      vertex 49 37 4
      vertex 47 45 4
      vertex 46.9021 44.382 4
    endloop
  endfacet
  facet normal 0 0 1
    outer loop
      vertex 49 37 4
      vertex 46.9021 45.618 4
      vertex 47 45 4
    endloop
  endfacet
  facet normal 0 0 1
    outer loop
      vertex 85 55 4
      vertex 85 37 4
      vertex 90 60 4
    endloop
  endfacet
  facet normal 0 0 1
    outer loop
      vertex 85 37 4
      vertex 49 37 4
      vertex 80 35 4
    endloop
  endfacet
  facet normal 0 -1 0
    outer loop
      vertex 12 55 3
      vertex 12 55 4
      vertex 0 55 4
    endloop
  endfacet
  facet normal 0 -1 0
    outer loop
      vertex 0 55 3
      vertex 12 55 3
      vertex 0 55 4
    endloop
  endfacet
  facet normal 0 0 1
    outer loop
      vertex 7.11832 51.2135 3
      vertex 12 55 3
      vertex 0 55 3
    endloop
  endfacet
  facet normal 0 0 1
    outer loop
      vertex 6.5 50 3
      vertex 6.57341 50.4635 3
      vertex 0 55 3
    endloop
  endfacet
  facet normal 0 0 1
    outer loop
      vertex 6.57341 50.4635 3
      vertex 6.78647 50.8817 3
      vertex 0 55 3
    endloop
  endfacet
  facet normal 0 0 1
    outer loop
      vertex 6.78647 50.8817 3
      vertex 7.11832 51.2135 3
      vertex 0 55 3
    endloop
  endfacet
  facet normal 0 0 1
    outer loop
      vertex 7.53647 51.4266 3
      vertex 8 51.5 3
      vertex 12 55 3
    endloop
  endfacet
  facet normal 0 0 1
    outer loop
      vertex 8 51.5 3
      vertex 8.46352 51.4266 3
      vertex 12 55 3
    endloop
  endfacet
  facet normal 0 0 1
    outer loop
      vertex 9.42658 50.4635 3
      vertex 9.5 50 3
      vertex 12 45 3
    endloop
  endfacet
  facet normal 0 0 1
    outer loop
      vertex 8.88168 51.2135 3
      vertex 12 55 3
      vertex 8.46352 51.4266 3
    endloop
  endfacet
  facet normal 0 0 1
    outer loop
      vertex 8.46352 48.5734 3
      vertex 8 48.5 3
      vertex 12 45 3
    endloop
  endfacet
  facet normal 0 0 1
    outer loop
      vertex 9.21352 50.8817 3
      vertex 12 55 3
      vertex 8.88168 51.2135 3
    endloop
  endfacet
  facet normal 0 0 1
    outer loop
      vertex 9.42658 50.4635 3
      vertex 12 55 3
      vertex 9.21352 50.8817 3
    endloop
  endfacet
  facet normal 0 0 1
    outer loop
      vertex 12 45 3
      vertex 12 55 3
      vertex 9.42658 50.4635 3
    endloop
  endfacet
  facet normal 0 0 1
    outer loop
      vertex 8 48.5 3
      vertex 7.53647 48.5734 3
      vertex 12 45 3
    endloop
  endfacet
  facet normal 0 0 1
    outer loop
      vertex 12 45 3
      vertex 9.42658 49.5365 3
      vertex 9.21352 49.1183 3
    endloop
  endfacet
  facet normal 0 0 1
    outer loop
      vertex 12 45 3
      vertex 9.21352 49.1183 3
      vertex 8.88168 48.7865 3
    endloop
  endfacet
  facet normal 0 0 1
    outer loop
      vertex 12 45 3
      vertex 8.88168 48.7865 3
      vertex 8.46352 48.5734 3
    endloop
  endfacet
  facet normal 0 0 1
    outer loop
      vertex 7.11832 51.2135 3
      vertex 7.53647 51.4266 3
      vertex 12 55 3
    endloop
  endfacet
  facet normal 0 0 1
    outer loop
      vertex 0 45 3
      vertex 12 45 3
      vertex 7.53647 48.5734 3
    endloop
  endfacet
  facet normal 0 0 1
    outer loop
      vertex 0 45 3
      vertex 7.11832 48.7865 3
      vertex 0 55 3
    endloop
  endfacet
  facet normal 0 0 1
    outer loop
      vertex 0 45 3
      vertex 7.53647 48.5734 3
      vertex 7.11832 48.7865 3
    endloop
  endfacet
  facet normal 0 0 1
    outer loop
      vertex 7.11832 48.7865 3
      vertex 6.78647 49.1183 3
      vertex 0 55 3
    endloop
  endfacet
  facet normal 0 0 1
    outer loop
      vertex 6.78647 49.1183 3
      vertex 6.57341 49.5365 3
      vertex 0 55 3
    endloop
  endfacet
  facet normal 0 0 1
    outer loop
      vertex 6.57341 49.5365 3
      vertex 6.5 50 3
      vertex 0 55 3
    endloop
  endfacet
  facet normal 0 0 1
    outer loop
      vertex 9.5 50 3
      vertex 9.42658 49.5365 3
      vertex 12 45 3
    endloop
  endfacet
  facet normal 0 1 0
    outer loop
      vertex 12 45 4
      vertex 12 45 3
      vertex 0 45 4
    endloop
  endfacet
  facet normal 0 1 0
    outer loop
      vertex 0 45 4
      vertex 12 45 3
      vertex 0 45 3
    endloop
  endfacet
  facet normal -1 0 0
    outer loop
      vertex 90 60 8
      vertex 90 60 4
      vertex 90 0 8
    endloop
  endfacet
  facet normal -1 0 0
    outer loop
      vertex 90 0 8
      vertex 90 60 4
      vertex 90 0 4
    endloop
  endfacet
  facet normal 1 0 0
    outer loop
      vertex 94 0 8
      vertex 94 0 0
      vertex 94 64 0
    endloop
  endfacet
  facet normal 1 0 0
    outer loop
      vertex 94 64 8
      vertex 94 0 8
      vertex 94 64 0
    endloop
  endfacet
  facet normal 0.987688 0.156434 0
    outer loop
      vertex 6.5 50 3
      vertex 6.57341 49.5365 3
      vertex 6.57341 49.5365 0
    endloop
  endfacet
  facet normal 0.987688 0.156434 0
    outer loop
      vertex 6.5 50 0
      vertex 6.5 50 3
      vertex 6.57341 49.5365 0
    endloop
  endfacet
  facet normal 0.987688 -0.156434 0
    outer loop
      vertex 6.57341 50.4635 0
      vertex 6.57341 50.4635 3
      vertex 6.5 50 3
    endloop
  endfacet
  facet normal 0.987688 -0.156434 0
    outer loop
      vertex 6.5 50 0
      vertex 6.57341 50.4635 0
      vertex 6.5 50 3
    endloop
  endfacet
  facet normal 0.891006 -0.453991 0
    outer loop
      vertex 6.78647 50.8817 0
      vertex 6.78647 50.8817 3
      vertex 6.57341 50.4635 3
    endloop
  endfacet
  facet normal 0.891006 -0.453991 0
    outer loop
      vertex 6.57341 50.4635 0
      vertex 6.78647 50.8817 0
      vertex 6.57341 50.4635 3
    endloop
  endfacet
  facet normal 0.707107 -0.707107 0
    outer loop
      vertex 7.11832 51.2135 0
      vertex 7.11832 51.2135 3
      vertex 6.78647 50.8817 3
    endloop
  endfacet
  facet normal 0.707107 -0.707107 0
    outer loop
      vertex 6.78647 50.8817 0
      vertex 7.11832 51.2135 0
      vertex 6.78647 50.8817 3
    endloop
  endfacet
  facet normal 0.453991 -0.891006 0
    outer loop
      vertex 7.53647 51.4266 0
      vertex 7.53647 51.4266 3
      vertex 7.11832 51.2135 3
    endloop
  endfacet
  facet normal 0.453991 -0.891006 0
    outer loop
      vertex 7.11832 51.2135 0
      vertex 7.53647 51.4266 0
      vertex 7.11832 51.2135 3
    endloop
  endfacet
  facet normal 0.156434 -0.987688 0
    outer loop
      vertex 8 51.5 0
      vertex 8 51.5 3
      vertex 7.53647 51.4266 3
    endloop
  endfacet
  facet normal 0.156434 -0.987688 0
    outer loop
      vertex 7.53647 51.4266 0
      vertex 8 51.5 0
      vertex 7.53647 51.4266 3
    endloop
  endfacet
  facet normal -0.156434 -0.987688 0
    outer loop
      vertex 8.46352 51.4266 0
      vertex 8.46352 51.4266 3
      vertex 8 51.5 3
    endloop
  endfacet
  facet normal -0.156434 -0.987688 0
    outer loop
      vertex 8 51.5 0
      vertex 8.46352 51.4266 0
      vertex 8 51.5 3
    endloop
  endfacet
  facet normal -0.453991 -0.891006 0
    outer loop
      vertex 8.88168 51.2135 0
      vertex 8.88168 51.2135 3
      vertex 8.46352 51.4266 3
    endloop
  endfacet
  facet normal -0.453991 -0.891006 0
    outer loop
      vertex 8.46352 51.4266 0
      vertex 8.88168 51.2135 0
      vertex 8.46352 51.4266 3
    endloop
  endfacet
  facet normal -0.707107 -0.707107 0
    outer loop
      vertex 9.21352 50.8817 0
      vertex 9.21352 50.8817 3
      vertex 8.88168 51.2135 3
    endloop
  endfacet
  facet normal -0.707107 -0.707107 0
    outer loop
      vertex 8.88168 51.2135 0
      vertex 9.21352 50.8817 0
      vertex 8.88168 51.2135 3
    endloop
  endfacet
  facet normal -0.891006 -0.453991 0
    outer loop
      vertex 9.42658 50.4635 3
      vertex 9.21352 50.8817 3
      vertex 9.42658 50.4635 0
    endloop
  endfacet
  facet normal -0.891006 -0.453991 0
    outer loop
      vertex 9.42658 50.4635 0
      vertex 9.21352 50.8817 3
      vertex 9.21352 50.8817 0
    endloop
  endfacet
  facet normal -0.987688 -0.156434 0
    outer loop
      vertex 9.5 50 3
      vertex 9.42658 50.4635 3
      vertex 9.5 50 0
    endloop
  endfacet
  facet normal -0.987688 -0.156434 0
    outer loop
      vertex 9.5 50 0
      vertex 9.42658 50.4635 3
      vertex 9.42658 50.4635 0
    endloop
  endfacet
  facet normal -0.987688 0.156434 0
    outer loop
      vertex 9.5 50 3
      vertex 9.5 50 0
      vertex 9.42658 49.5365 3
    endloop
  endfacet
  facet normal -0.987688 0.156434 0
    outer loop
      vertex 9.42658 49.5365 3
      vertex 9.5 50 0
      vertex 9.42658 49.5365 0
    endloop
  endfacet
  facet normal -0.891006 0.453991 0
    outer loop
      vertex 9.42658 49.5365 3
      vertex 9.42658 49.5365 0
      vertex 9.21352 49.1183 3
    endloop
  endfacet
  facet normal -0.891006 0.453991 0
    outer loop
      vertex 9.21352 49.1183 3
      vertex 9.42658 49.5365 0
      vertex 9.21352 49.1183 0
    endloop
  endfacet
  facet normal -0.707107 0.707107 0
    outer loop
      vertex 9.21352 49.1183 3
      vertex 9.21352 49.1183 0
      vertex 8.88168 48.7865 3
    endloop
  endfacet
  facet normal -0.707107 0.707107 0
    outer loop
      vertex 8.88168 48.7865 3
      vertex 9.21352 49.1183 0
      vertex 8.88168 48.7865 0
    endloop
  endfacet
  facet normal -0.453991 0.891006 0
    outer loop
      vertex 8.88168 48.7865 3
      vertex 8.88168 48.7865 0
      vertex 8.46352 48.5734 3
    endloop
  endfacet
  facet normal -0.453991 0.891006 0
    outer loop
      vertex 8.46352 48.5734 3
      vertex 8.88168 48.7865 0
      vertex 8.46352 48.5734 0
    endloop
  endfacet
  facet normal -0.156434 0.987688 0
    outer loop
      vertex 8.46352 48.5734 3
      vertex 8.46352 48.5734 0
      vertex 8 48.5 3
    endloop
  endfacet
  facet normal -0.156434 0.987688 0
    outer loop
      vertex 8 48.5 3
      vertex 8.46352 48.5734 0
      vertex 8 48.5 0
    endloop
  endfacet
  facet normal 0.156434 0.987688 0
    outer loop
      vertex 8 48.5 3
      vertex 8 48.5 0
      vertex 7.53647 48.5734 3
    endloop
  endfacet
  facet normal 0.156434 0.987688 0
    outer loop
      vertex 7.53647 48.5734 3
      vertex 8 48.5 0
      vertex 7.53647 48.5734 0
    endloop
  endfacet
  facet normal 0.453991 0.891006 0
    outer loop
      vertex 7.53647 48.5734 3
      vertex 7.53647 48.5734 0
      vertex 7.11832 48.7865 3
    endloop
  endfacet
  facet normal 0.453991 0.891006 0
    outer loop
      vertex 7.11832 48.7865 3
      vertex 7.53647 48.5734 0
      vertex 7.11832 48.7865 0
    endloop
  endfacet
  facet normal 0.707107 0.707107 0
    outer loop
      vertex 7.11832 48.7865 3
      vertex 7.11832 48.7865 0
      vertex 6.78647 49.1183 3
    endloop
  endfacet
  facet normal 0.707107 0.707107 0
    outer loop
      vertex 6.78647 49.1183 3
      vertex 7.11832 48.7865 0
      vertex 6.78647 49.1183 0
    endloop
  endfacet
  facet normal 0.891006 0.453991 0
    outer loop
      vertex 6.57341 49.5365 3
      vertex 6.78647 49.1183 3
      vertex 6.78647 49.1183 0
    endloop
  endfacet
  facet normal 0.891006 0.453991 0
    outer loop
      vertex 6.57341 49.5365 0
      vertex 6.57341 49.5365 3
      vertex 6.78647 49.1183 0
    endloop
  endfacet
  facet normal 1 0 0
    outer loop
      vertex 10 35 0
      vertex 10 35 4
      vertex 10 5 4
    endloop
  endfacet
  facet normal 1 0 0
    outer loop
      vertex 10 5 0
      vertex 10 35 0
      vertex 10 5 4
    endloop
  endfacet
  facet normal 0 -1 0
    outer loop
      vertex 80 35 0
      vertex 80 35 4
      vertex 10 35 4
    endloop
  endfacet
  facet normal 0 -1 0
    outer loop
      vertex 10 35 0
      vertex 80 35 0
      vertex 10 35 4
    endloop
  endfacet
  facet normal -1 0 0
    outer loop
      vertex 80 35 4
      vertex 80 35 0
      vertex 80 5 4
    endloop
  endfacet
  facet normal -1 0 0
    outer loop
      vertex 80 5 4
      vertex 80 35 0
      vertex 80 5 0
    endloop
  endfacet
  facet normal 0 1 0
    outer loop
      vertex 80 5 4
      vertex 80 5 0
      vertex 10 5 4
    endloop
  endfacet
  facet normal 0 1 0
    outer loop
      vertex 10 5 4
      vertex 80 5 0
      vertex 10 5 0
    endloop
  endfacet
  facet normal 0.987688 0.156435 0
    outer loop
      vertex 43 45 4
      vertex 43.0979 44.382 4
      vertex 43.0979 44.382 0
    endloop
  endfacet
  facet normal 0.987688 0.156435 0
    outer loop
      vertex 43 45 0
      vertex 43 45 4
      vertex 43.0979 44.382 0
    endloop
  endfacet
  facet normal 0.987688 -0.156435 0
    outer loop
      vertex 43.0979 45.618 0
      vertex 43.0979 45.618 4
      vertex 43 45 4
    endloop
  endfacet
  facet normal 0.987688 -0.156435 0
    outer loop
      vertex 43 45 0
      vertex 43.0979 45.618 0
      vertex 43 45 4
    endloop
  endfacet
  facet normal 0.891007 -0.45399 0
    outer loop
      vertex 43.382 46.1756 0
      vertex 43.382 46.1756 4
      vertex 43.0979 45.618 4
    endloop
  endfacet
  facet normal 0.891007 -0.45399 0
    outer loop
      vertex 43.0979 45.618 0
      vertex 43.382 46.1756 0
      vertex 43.0979 45.618 4
    endloop
  endfacet
  facet normal 0.707107 -0.707107 0
    outer loop
      vertex 43.8244 46.618 0
      vertex 43.8244 46.618 4
      vertex 43.382 46.1756 4
    endloop
  endfacet
  facet normal 0.707107 -0.707107 0
    outer loop
      vertex 43.382 46.1756 0
      vertex 43.8244 46.618 0
      vertex 43.382 46.1756 4
    endloop
  endfacet
  facet normal 0.45399 -0.891007 0
    outer loop
      vertex 44.382 46.9021 0
      vertex 44.382 46.9021 4
      vertex 43.8244 46.618 4
    endloop
  endfacet
  facet normal 0.45399 -0.891007 0
    outer loop
      vertex 43.8244 46.618 0
      vertex 44.382 46.9021 0
      vertex 43.8244 46.618 4
    endloop
  endfacet
  facet normal 0.156435 -0.987688 0
    outer loop
      vertex 45 47 0
      vertex 45 47 4
      vertex 44.382 46.9021 4
    endloop
  endfacet
  facet normal 0.156435 -0.987688 0
    outer loop
      vertex 44.382 46.9021 0
      vertex 45 47 0
      vertex 44.382 46.9021 4
    endloop
  endfacet
  facet normal -0.156435 -0.987688 0
    outer loop
      vertex 45.618 46.9021 0
      vertex 45.618 46.9021 4
      vertex 45 47 4
    endloop
  endfacet
  facet normal -0.156435 -0.987688 0
    outer loop
      vertex 45 47 0
      vertex 45.618 46.9021 0
      vertex 45 47 4
    endloop
  endfacet
  facet normal -0.45399 -0.891007 0
    outer loop
      vertex 46.1756 46.618 0
      vertex 46.1756 46.618 4
      vertex 45.618 46.9021 4
    endloop
  endfacet
  facet normal -0.45399 -0.891007 0
    outer loop
      vertex 45.618 46.9021 0
      vertex 46.1756 46.618 0
      vertex 45.618 46.9021 4
    endloop
  endfacet
  facet normal -0.707107 -0.707107 0
    outer loop
      vertex 46.618 46.1756 0
      vertex 46.618 46.1756 4
      vertex 46.1756 46.618 4
    endloop
  endfacet
  facet normal -0.707107 -0.707107 0
    outer loop
      vertex 46.1756 46.618 0
      vertex 46.618 46.1756 0
      vertex 46.1756 46.618 4
    endloop
  endfacet
  facet normal -0.891007 -0.45399 0
    outer loop
      vertex 46.9021 45.618 4
      vertex 46.618 46.1756 4
      vertex 46.9021 45.618 0
    endloop
  endfacet
  facet normal -0.891007 -0.45399 0
    outer loop
      vertex 46.9021 45.618 0
      vertex 46.618 46.1756 4
      vertex 46.618 46.1756 0
    endloop
  endfacet
  facet normal -0.987688 -0.156435 0
    outer loop
      vertex 47 45 4
      vertex 46.9021 45.618 4
      vertex 47 45 0
    endloop
  endfacet
  facet normal -0.987688 -0.156435 0
    outer loop
      vertex 47 45 0
      vertex 46.9021 45.618 4
      vertex 46.9021 45.618 0
    endloop
  endfacet
  facet normal -0.987688 0.156435 0
    outer loop
      vertex 47 45 4
      vertex 47 45 0
      vertex 46.9021 44.382 4
    endloop
  endfacet
  facet normal -0.987688 0.156435 0
    outer loop
      vertex 46.9021 44.382 4
      vertex 47 45 0
      vertex 46.9021 44.382 0
    endloop
  endfacet
  facet normal -0.891007 0.45399 0
    outer loop
      vertex 46.9021 44.382 4
      vertex 46.9021 44.382 0
      vertex 46.618 43.8244 4
    endloop
  endfacet
  facet normal -0.891007 0.45399 0
    outer loop
      vertex 46.618 43.8244 4
      vertex 46.9021 44.382 0
      vertex 46.618 43.8244 0
    endloop
  endfacet
  facet normal -0.707107 0.707107 0
    outer loop
      vertex 46.618 43.8244 4
      vertex 46.618 43.8244 0
      vertex 46.1756 43.382 4
    endloop
  endfacet
  facet normal -0.707107 0.707107 0
    outer loop
      vertex 46.1756 43.382 4
      vertex 46.618 43.8244 0
      vertex 46.1756 43.382 0
    endloop
  endfacet
  facet normal -0.45399 0.891007 0
    outer loop
      vertex 46.1756 43.382 4
      vertex 46.1756 43.382 0
      vertex 45.618 43.0979 4
    endloop
  endfacet
  facet normal -0.45399 0.891007 0
    outer loop
      vertex 45.618 43.0979 4
      vertex 46.1756 43.382 0
      vertex 45.618 43.0979 0
    endloop
  endfacet
  facet normal -0.156435 0.987688 0
    outer loop
      vertex 45.618 43.0979 4
      vertex 45.618 43.0979 0
      vertex 45 43 4
    endloop
  endfacet
  facet normal -0.156435 0.987688 0
    outer loop
      vertex 45 43 4
      vertex 45.618 43.0979 0
      vertex 45 43 0
    endloop
  endfacet
  facet normal 0.156435 0.987688 0
    outer loop
      vertex 45 43 4
      vertex 45 43 0
      vertex 44.382 43.0979 4
    endloop
  endfacet
  facet normal 0.156435 0.987688 0
    outer loop
      vertex 44.382 43.0979 4
      vertex 45 43 0
      vertex 44.382 43.0979 0
    endloop
  endfacet
  facet normal 0.45399 0.891007 0
    outer loop
      vertex 44.382 43.0979 4
      vertex 44.382 43.0979 0
      vertex 43.8244 43.382 4
    endloop
  endfacet
  facet normal 0.45399 0.891007 0
    outer loop
      vertex 43.8244 43.382 4
      vertex 44.382 43.0979 0
      vertex 43.8244 43.382 0
    endloop
  endfacet
  facet normal 0.707107 0.707107 0
    outer loop
      vertex 43.8244 43.382 4
      vertex 43.8244 43.382 0
      vertex 43.382 43.8244 4
    endloop
  endfacet
  facet normal 0.707107 0.707107 0
    outer loop
      vertex 43.382 43.8244 4
      vertex 43.8244 43.382 0
      vertex 43.382 43.8244 0
    endloop
  endfacet
  facet normal 0.891007 0.45399 0
    outer loop
      vertex 43.0979 44.382 4
      vertex 43.382 43.8244 4
      vertex 43.382 43.8244 0
    endloop
  endfacet
  facet normal 0.891007 0.45399 0
    outer loop
      vertex 43.0979 44.382 0
      vertex 43.0979 44.382 4
      vertex 43.382 43.8244 0
    endloop
  endfacet
  facet normal 0.987688 0.156434 0
    outer loop
      vertex 52.5 42 3
      vertex 52.5734 41.5365 3
      vertex 52.5734 41.5365 0
    endloop
  endfacet
  facet normal 0.987688 0.156434 0
    outer loop
      vertex 52.5 42 0
      vertex 52.5 42 3
      vertex 52.5734 41.5365 0
    endloop
  endfacet
  facet normal 0.987688 -0.156434 0
    outer loop
      vertex 52.5734 42.4635 0
      vertex 52.5734 42.4635 3
      vertex 52.5 42 3
    endloop
  endfacet
  facet normal 0.987688 -0.156434 0
    outer loop
      vertex 52.5 42 0
      vertex 52.5734 42.4635 0
      vertex 52.5 42 3
    endloop
  endfacet
  facet normal 0.891006 -0.453991 0
    outer loop
      vertex 52.7865 42.8817 0
      vertex 52.7865 42.8817 3
      vertex 52.5734 42.4635 3
    endloop
  endfacet
  facet normal 0.891006 -0.453991 0
    outer loop
      vertex 52.5734 42.4635 0
      vertex 52.7865 42.8817 0
      vertex 52.5734 42.4635 3
    endloop
  endfacet
  facet normal 0.707107 -0.707107 0
    outer loop
      vertex 53.1183 43.2135 0
      vertex 53.1183 43.2135 3
      vertex 52.7865 42.8817 3
    endloop
  endfacet
  facet normal 0.707107 -0.707107 0
    outer loop
      vertex 52.7865 42.8817 0
      vertex 53.1183 43.2135 0
      vertex 52.7865 42.8817 3
    endloop
  endfacet
  facet normal 0.453991 -0.891006 0
    outer loop
      vertex 53.5365 43.4266 0
      vertex 53.5365 43.4266 3
      vertex 53.1183 43.2135 3
    endloop
  endfacet
  facet normal 0.453991 -0.891006 0
    outer loop
      vertex 53.1183 43.2135 0
      vertex 53.5365 43.4266 0
      vertex 53.1183 43.2135 3
    endloop
  endfacet
  facet normal 0.156434 -0.987688 0
    outer loop
      vertex 54 43.5 0
      vertex 54 43.5 3
      vertex 53.5365 43.4266 3
    endloop
  endfacet
  facet normal 0.156434 -0.987688 0
    outer loop
      vertex 53.5365 43.4266 0
      vertex 54 43.5 0
      vertex 53.5365 43.4266 3
    endloop
  endfacet
  facet normal -0.156434 -0.987688 0
    outer loop
      vertex 54.4635 43.4266 0
      vertex 54.4635 43.4266 3
      vertex 54 43.5 3
    endloop
  endfacet
  facet normal -0.156434 -0.987688 0
    outer loop
      vertex 54 43.5 0
      vertex 54.4635 43.4266 0
      vertex 54 43.5 3
    endloop
  endfacet
  facet normal -0.453991 -0.891006 0
    outer loop
      vertex 54.8817 43.2135 0
      vertex 54.8817 43.2135 3
      vertex 54.4635 43.4266 3
    endloop
  endfacet
  facet normal -0.453991 -0.891006 0
    outer loop
      vertex 54.4635 43.4266 0
      vertex 54.8817 43.2135 0
      vertex 54.4635 43.4266 3
    endloop
  endfacet
  facet normal -0.707107 -0.707107 0
    outer loop
      vertex 55.2135 42.8817 0
      vertex 55.2135 42.8817 3
      vertex 54.8817 43.2135 3
    endloop
  endfacet
  facet normal -0.707107 -0.707107 0
    outer loop
      vertex 54.8817 43.2135 0
      vertex 55.2135 42.8817 0
      vertex 54.8817 43.2135 3
    endloop
  endfacet
  facet normal -0.891006 -0.453991 0
    outer loop
      vertex 55.4266 42.4635 3
      vertex 55.2135 42.8817 3
      vertex 55.4266 42.4635 0
    endloop
  endfacet
  facet normal -0.891006 -0.453991 0
    outer loop
      vertex 55.4266 42.4635 0
      vertex 55.2135 42.8817 3
      vertex 55.2135 42.8817 0
    endloop
  endfacet
  facet normal -0.987688 -0.156434 0
    outer loop
      vertex 55.5 42 3
      vertex 55.4266 42.4635 3
      vertex 55.5 42 0
    endloop
  endfacet
  facet normal -0.987688 -0.156434 0
    outer loop
      vertex 55.5 42 0
      vertex 55.4266 42.4635 3
      vertex 55.4266 42.4635 0
    endloop
  endfacet
  facet normal -0.987688 0.156434 0
    outer loop
      vertex 55.5 42 3
      vertex 55.5 42 0
      vertex 55.4266 41.5365 3
    endloop
  endfacet
  facet normal -0.987688 0.156434 0
    outer loop
      vertex 55.4266 41.5365 3
      vertex 55.5 42 0
      vertex 55.4266 41.5365 0
    endloop
  endfacet
  facet normal -0.891006 0.453991 0
    outer loop
      vertex 55.4266 41.5365 3
      vertex 55.4266 41.5365 0
      vertex 55.2135 41.1183 3
    endloop
  endfacet
  facet normal -0.891006 0.453991 0
    outer loop
      vertex 55.2135 41.1183 3
      vertex 55.4266 41.5365 0
      vertex 55.2135 41.1183 0
    endloop
  endfacet
  facet normal -0.707107 0.707107 0
    outer loop
      vertex 55.2135 41.1183 3
      vertex 55.2135 41.1183 0
      vertex 54.8817 40.7865 3
    endloop
  endfacet
  facet normal -0.707107 0.707107 0
    outer loop
      vertex 54.8817 40.7865 3
      vertex 55.2135 41.1183 0
      vertex 54.8817 40.7865 0
    endloop
  endfacet
  facet normal -0.453991 0.891006 0
    outer loop
      vertex 54.8817 40.7865 3
      vertex 54.8817 40.7865 0
      vertex 54.4635 40.5734 3
    endloop
  endfacet
  facet normal -0.453991 0.891006 0
    outer loop
      vertex 54.4635 40.5734 3
      vertex 54.8817 40.7865 0
      vertex 54.4635 40.5734 0
    endloop
  endfacet
  facet normal -0.156434 0.987688 0
    outer loop
      vertex 54.4635 40.5734 3
      vertex 54.4635 40.5734 0
      vertex 54 40.5 3
    endloop
  endfacet
  facet normal -0.156434 0.987688 0
    outer loop
      vertex 54 40.5 3
      vertex 54.4635 40.5734 0
      vertex 54 40.5 0
    endloop
  endfacet
  facet normal 0.156434 0.987688 0
    outer loop
      vertex 54 40.5 3
      vertex 54 40.5 0
      vertex 53.5365 40.5734 3
    endloop
  endfacet
  facet normal 0.156434 0.987688 0
    outer loop
      vertex 53.5365 40.5734 3
      vertex 54 40.5 0
      vertex 53.5365 40.5734 0
    endloop
  endfacet
  facet normal 0.453991 0.891006 0
    outer loop
      vertex 53.5365 40.5734 3
      vertex 53.5365 40.5734 0
      vertex 53.1183 40.7865 3
    endloop
  endfacet
  facet normal 0.453991 0.891006 0
    outer loop
      vertex 53.1183 40.7865 3
      vertex 53.5365 40.5734 0
      vertex 53.1183 40.7865 0
    endloop
  endfacet
  facet normal 0.707107 0.707107 0
    outer loop
      vertex 53.1183 40.7865 3
      vertex 53.1183 40.7865 0
      vertex 52.7865 41.1183 3
    endloop
  endfacet
  facet normal 0.707107 0.707107 0
    outer loop
      vertex 52.7865 41.1183 3
      vertex 53.1183 40.7865 0
      vertex 52.7865 41.1183 0
    endloop
  endfacet
  facet normal 0.891006 0.453991 0
    outer loop
      vertex 52.5734 41.5365 3
      vertex 52.7865 41.1183 3
      vertex 52.7865 41.1183 0
    endloop
  endfacet
  facet normal 0.891006 0.453991 0
    outer loop
      vertex 52.5734 41.5365 0
      vertex 52.5734 41.5365 3
      vertex 52.7865 41.1183 0
    endloop
  endfacet
  facet normal 0.987688 0.156434 0
    outer loop
      vertex 78.5 50 3
      vertex 78.5734 49.5365 3
      vertex 78.5734 49.5365 0
    endloop
  endfacet
  facet normal 0.987688 0.156434 0
    outer loop
      vertex 78.5 50 0
      vertex 78.5 50 3
      vertex 78.5734 49.5365 0
    endloop
  endfacet
  facet normal 0.987688 -0.156434 0
    outer loop
      vertex 78.5734 50.4635 0
      vertex 78.5734 50.4635 3
      vertex 78.5 50 3
    endloop
  endfacet
  facet normal 0.987688 -0.156434 0
    outer loop
      vertex 78.5 50 0
      vertex 78.5734 50.4635 0
      vertex 78.5 50 3
    endloop
  endfacet
  facet normal 0.891006 -0.453991 0
    outer loop
      vertex 78.7865 50.8817 0
      vertex 78.7865 50.8817 3
      vertex 78.5734 50.4635 3
    endloop
  endfacet
  facet normal 0.891006 -0.453991 0
    outer loop
      vertex 78.5734 50.4635 0
      vertex 78.7865 50.8817 0
      vertex 78.5734 50.4635 3
    endloop
  endfacet
  facet normal 0.707107 -0.707107 0
    outer loop
      vertex 79.1183 51.2135 0
      vertex 79.1183 51.2135 3
      vertex 78.7865 50.8817 3
    endloop
  endfacet
  facet normal 0.707107 -0.707107 0
    outer loop
      vertex 78.7865 50.8817 0
      vertex 79.1183 51.2135 0
      vertex 78.7865 50.8817 3
    endloop
  endfacet
  facet normal 0.453991 -0.891006 0
    outer loop
      vertex 79.5365 51.4266 0
      vertex 79.5365 51.4266 3
      vertex 79.1183 51.2135 3
    endloop
  endfacet
  facet normal 0.453991 -0.891006 0
    outer loop
      vertex 79.1183 51.2135 0
      vertex 79.5365 51.4266 0
      vertex 79.1183 51.2135 3
    endloop
  endfacet
  facet normal 0.156434 -0.987688 0
    outer loop
      vertex 80 51.5 0
      vertex 80 51.5 3
      vertex 79.5365 51.4266 3
    endloop
  endfacet
  facet normal 0.156434 -0.987688 0
    outer loop
      vertex 79.5365 51.4266 0
      vertex 80 51.5 0
      vertex 79.5365 51.4266 3
    endloop
  endfacet
  facet normal -0.156434 -0.987688 0
    outer loop
      vertex 80.4635 51.4266 0
      vertex 80.4635 51.4266 3
      vertex 80 51.5 3
    endloop
  endfacet
  facet normal -0.156434 -0.987688 0
    outer loop
      vertex 80 51.5 0
      vertex 80.4635 51.4266 0
      vertex 80 51.5 3
    endloop
  endfacet
  facet normal -0.453991 -0.891006 0
    outer loop
      vertex 80.8817 51.2135 0
      vertex 80.8817 51.2135 3
      vertex 80.4635 51.4266 3
    endloop
  endfacet
  facet normal -0.453991 -0.891006 0
    outer loop
      vertex 80.4635 51.4266 0
      vertex 80.8817 51.2135 0
      vertex 80.4635 51.4266 3
    endloop
  endfacet
  facet normal -0.707107 -0.707107 0
    outer loop
      vertex 81.2135 50.8817 0
      vertex 81.2135 50.8817 3
      vertex 80.8817 51.2135 3
    endloop
  endfacet
  facet normal -0.707107 -0.707107 0
    outer loop
      vertex 80.8817 51.2135 0
      vertex 81.2135 50.8817 0
      vertex 80.8817 51.2135 3
    endloop
  endfacet
  facet normal -0.891006 -0.453991 0
    outer loop
      vertex 81.4266 50.4635 3
      vertex 81.2135 50.8817 3
      vertex 81.4266 50.4635 0
    endloop
  endfacet
  facet normal -0.891006 -0.453991 0
    outer loop
      vertex 81.4266 50.4635 0
      vertex 81.2135 50.8817 3
      vertex 81.2135 50.8817 0
    endloop
  endfacet
  facet normal -0.987688 -0.156434 0
    outer loop
      vertex 81.5 50 3
      vertex 81.4266 50.4635 3
      vertex 81.5 50 0
    endloop
  endfacet
  facet normal -0.987688 -0.156434 0
    outer loop
      vertex 81.5 50 0
      vertex 81.4266 50.4635 3
      vertex 81.4266 50.4635 0
    endloop
  endfacet
  facet normal -0.987688 0.156434 0
    outer loop
      vertex 81.5 50 3
      vertex 81.5 50 0
      vertex 81.4266 49.5365 3
    endloop
  endfacet
  facet normal -0.987688 0.156434 0
    outer loop
      vertex 81.4266 49.5365 3
      vertex 81.5 50 0
      vertex 81.4266 49.5365 0
    endloop
  endfacet
  facet normal -0.891006 0.453991 0
    outer loop
      vertex 81.4266 49.5365 3
      vertex 81.4266 49.5365 0
      vertex 81.2135 49.1183 3
    endloop
  endfacet
  facet normal -0.891006 0.453991 0
    outer loop
      vertex 81.2135 49.1183 3
      vertex 81.4266 49.5365 0
      vertex 81.2135 49.1183 0
    endloop
  endfacet
  facet normal -0.707107 0.707107 0
    outer loop
      vertex 81.2135 49.1183 3
      vertex 81.2135 49.1183 0
      vertex 80.8817 48.7865 3
    endloop
  endfacet
  facet normal -0.707107 0.707107 0
    outer loop
      vertex 80.8817 48.7865 3
      vertex 81.2135 49.1183 0
      vertex 80.8817 48.7865 0
    endloop
  endfacet
  facet normal -0.453991 0.891006 0
    outer loop
      vertex 80.8817 48.7865 3
      vertex 80.8817 48.7865 0
      vertex 80.4635 48.5734 3
    endloop
  endfacet
  facet normal -0.453991 0.891006 0
    outer loop
      vertex 80.4635 48.5734 3
      vertex 80.8817 48.7865 0
      vertex 80.4635 48.5734 0
    endloop
  endfacet
  facet normal -0.156434 0.987688 0
    outer loop
      vertex 80.4635 48.5734 3
      vertex 80.4635 48.5734 0
      vertex 80 48.5 3
    endloop
  endfacet
  facet normal -0.156434 0.987688 0
    outer loop
      vertex 80 48.5 3
      vertex 80.4635 48.5734 0
      vertex 80 48.5 0
    endloop
  endfacet
  facet normal 0.156434 0.987688 0
    outer loop
      vertex 80 48.5 3
      vertex 80 48.5 0
      vertex 79.5365 48.5734 3
    endloop
  endfacet
  facet normal 0.156434 0.987688 0
    outer loop
      vertex 79.5365 48.5734 3
      vertex 80 48.5 0
      vertex 79.5365 48.5734 0
    endloop
  endfacet
  facet normal 0.453991 0.891006 0
    outer loop
      vertex 79.5365 48.5734 3
      vertex 79.5365 48.5734 0
      vertex 79.1183 48.7865 3
    endloop
  endfacet
  facet normal 0.453991 0.891006 0
    outer loop
      vertex 79.1183 48.7865 3
      vertex 79.5365 48.5734 0
      vertex 79.1183 48.7865 0
    endloop
  endfacet
  facet normal 0.707107 0.707107 0
    outer loop
      vertex 79.1183 48.7865 3
      vertex 79.1183 48.7865 0
      vertex 78.7865 49.1183 3
    endloop
  endfacet
  facet normal 0.707107 0.707107 0
    outer loop
      vertex 78.7865 49.1183 3
      vertex 79.1183 48.7865 0
      vertex 78.7865 49.1183 0
    endloop
  endfacet
  facet normal 0.891006 0.453991 0
    outer loop
      vertex 78.5734 49.5365 3
      vertex 78.7865 49.1183 3
      vertex 78.7865 49.1183 0
    endloop
  endfacet
  facet normal 0.891006 0.453991 0
    outer loop
      vertex 78.5734 49.5365 0
      vertex 78.5734 49.5365 3
      vertex 78.7865 49.1183 0
    endloop
  endfacet
  facet normal -1 0 0
    outer loop
      vertex 12 55 4
      vertex 12 55 3
      vertex 12 45 4
    endloop
  endfacet
  facet normal -1 0 0
    outer loop
      vertex 12 45 4
      vertex 12 55 3
      vertex 12 45 3
    endloop
  endfacet
  facet normal 1 0 0
    outer loop
      vertex 49 55 3
      vertex 49 55 4
      vertex 49 37 4
    endloop
  endfacet
  facet normal 1 0 0
    outer loop
      vertex 49 37 3
      vertex 49 55 3
      vertex 49 37 4
    endloop
  endfacet
  facet normal 0 1 0
    outer loop
      vertex 85 37 4
      vertex 85 37 3
      vertex 49 37 4
    endloop
  endfacet
  facet normal 0 1 0
    outer loop
      vertex 49 37 4
      vertex 85 37 3
      vertex 49 37 3
    endloop
  endfacet
  facet normal -1 0 0
    outer loop
      vertex 85 55 4
      vertex 85 55 3
      vertex 85 37 4
    endloop
  endfacet
  facet normal -1 0 0
    outer loop
      vertex 85 37 4
      vertex 85 55 3
      vertex 85 37 3
    endloop
  endfacet
  facet normal 0 -1 0
    outer loop
      vertex 85 55 3
      vertex 85 55 4
      vertex 49 55 4
    endloop
  endfacet
  facet normal 0 -1 0
    outer loop
      vertex 49 55 3
      vertex 85 55 3
      vertex 49 55 4
    endloop
  endfacet
  facet normal 0 0 1
    outer loop
      vertex 79.1183 51.2135 3
      vertex 85 55 3
      vertex 49 55 3
    endloop
  endfacet
  facet normal 0 0 1
    outer loop
      vertex 54.4635 43.4266 3
      vertex 85 37 3
      vertex 49 55 3
    endloop
  endfacet
  facet normal 0 0 1
    outer loop
      vertex 49 37 3
      vertex 52.5 42 3
      vertex 49 55 3
    endloop
  endfacet
  facet normal 0 0 1
    outer loop
      vertex 52.5 42 3
      vertex 52.5734 42.4635 3
      vertex 49 55 3
    endloop
  endfacet
  facet normal 0 0 1
    outer loop
      vertex 54.4635 40.5734 3
      vertex 54 40.5 3
      vertex 49 37 3
    endloop
  endfacet
  facet normal 0 0 1
    outer loop
      vertex 52.5734 42.4635 3
      vertex 52.7865 42.8817 3
      vertex 49 55 3
    endloop
  endfacet
  facet normal 0 0 1
    outer loop
      vertex 52.7865 42.8817 3
      vertex 53.1183 43.2135 3
      vertex 49 55 3
    endloop
  endfacet
  facet normal 0 0 1
    outer loop
      vertex 53.1183 43.2135 3
      vertex 53.5365 43.4266 3
      vertex 49 55 3
    endloop
  endfacet
  facet normal 0 0 1
    outer loop
      vertex 53.5365 43.4266 3
      vertex 54 43.5 3
      vertex 49 55 3
    endloop
  endfacet
  facet normal 0 0 1
    outer loop
      vertex 54 43.5 3
      vertex 54.4635 43.4266 3
      vertex 49 55 3
    endloop
  endfacet
  facet normal 0 0 1
    outer loop
      vertex 54.8817 43.2135 3
      vertex 55.2135 42.8817 3
      vertex 85 37 3
    endloop
  endfacet
  facet normal 0 0 1
    outer loop
      vertex 55.2135 42.8817 3
      vertex 55.4266 42.4635 3
      vertex 85 37 3
    endloop
  endfacet
  facet normal 0 0 1
    outer loop
      vertex 55.4266 42.4635 3
      vertex 55.5 42 3
      vertex 85 37 3
    endloop
  endfacet
  facet normal 0 0 1
    outer loop
      vertex 80 51.5 3
      vertex 80.4635 51.4266 3
      vertex 85 55 3
    endloop
  endfacet
  facet normal 0 0 1
    outer loop
      vertex 55.2135 41.1183 3
      vertex 85 37 3
      vertex 55.4266 41.5365 3
    endloop
  endfacet
  facet normal 0 0 1
    outer loop
      vertex 54.8817 40.7865 3
      vertex 85 37 3
      vertex 55.2135 41.1183 3
    endloop
  endfacet
  facet normal 0 0 1
    outer loop
      vertex 49 37 3
      vertex 85 37 3
      vertex 54.8817 40.7865 3
    endloop
  endfacet
  facet normal 0 0 1
    outer loop
      vertex 54 40.5 3
      vertex 53.5365 40.5734 3
      vertex 49 37 3
    endloop
  endfacet
  facet normal 0 0 1
    outer loop
      vertex 49 37 3
      vertex 54.8817 40.7865 3
      vertex 54.4635 40.5734 3
    endloop
  endfacet
  facet normal 0 0 1
    outer loop
      vertex 79.5365 51.4266 3
      vertex 80 51.5 3
      vertex 85 55 3
    endloop
  endfacet
  facet normal 0 0 1
    outer loop
      vertex 49 37 3
      vertex 53.5365 40.5734 3
      vertex 53.1183 40.7865 3
    endloop
  endfacet
  facet normal 0 0 1
    outer loop
      vertex 49 37 3
      vertex 53.1183 40.7865 3
      vertex 52.7865 41.1183 3
    endloop
  endfacet
  facet normal 0 0 1
    outer loop
      vertex 49 37 3
      vertex 52.5734 41.5365 3
      vertex 52.5 42 3
    endloop
  endfacet
  facet normal 0 0 1
    outer loop
      vertex 49 37 3
      vertex 52.7865 41.1183 3
      vertex 52.5734 41.5365 3
    endloop
  endfacet
  facet normal 0 0 1
    outer loop
      vertex 78.5734 49.5365 3
      vertex 78.5 50 3
      vertex 49 55 3
    endloop
  endfacet
  facet normal 0 0 1
    outer loop
      vertex 78.5 50 3
      vertex 78.5734 50.4635 3
      vertex 49 55 3
    endloop
  endfacet
  facet normal 0 0 1
    outer loop
      vertex 81.5 50 3
      vertex 81.4266 49.5365 3
      vertex 85 37 3
    endloop
  endfacet
  facet normal 0 0 1
    outer loop
      vertex 78.5734 50.4635 3
      vertex 78.7865 50.8817 3
      vertex 49 55 3
    endloop
  endfacet
  facet normal 0 0 1
    outer loop
      vertex 78.7865 50.8817 3
      vertex 79.1183 51.2135 3
      vertex 49 55 3
    endloop
  endfacet
  facet normal 0 0 1
    outer loop
      vertex 79.5365 51.4266 3
      vertex 85 55 3
      vertex 79.1183 51.2135 3
    endloop
  endfacet
  facet normal 0 0 1
    outer loop
      vertex 80.8817 51.2135 3
      vertex 85 55 3
      vertex 80.4635 51.4266 3
    endloop
  endfacet
  facet normal 0 0 1
    outer loop
      vertex 81.2135 50.8817 3
      vertex 85 55 3
      vertex 80.8817 51.2135 3
    endloop
  endfacet
  facet normal 0 0 1
    outer loop
      vertex 81.4266 50.4635 3
      vertex 85 55 3
      vertex 81.2135 50.8817 3
    endloop
  endfacet
  facet normal 0 0 1
    outer loop
      vertex 85 37 3
      vertex 85 55 3
      vertex 81.4266 50.4635 3
    endloop
  endfacet
  facet normal 0 0 1
    outer loop
      vertex 81.4266 49.5365 3
      vertex 81.2135 49.1183 3
      vertex 85 37 3
    endloop
  endfacet
  facet normal 0 0 1
    outer loop
      vertex 85 37 3
      vertex 81.4266 50.4635 3
      vertex 81.5 50 3
    endloop
  endfacet
  facet normal 0 0 1
    outer loop
      vertex 81.2135 49.1183 3
      vertex 80.8817 48.7865 3
      vertex 85 37 3
    endloop
  endfacet
  facet normal 0 0 1
    outer loop
      vertex 79.1183 48.7865 3
      vertex 78.7865 49.1183 3
      vertex 85 37 3
    endloop
  endfacet
  facet normal 0 0 1
    outer loop
      vertex 85 37 3
      vertex 80.8817 48.7865 3
      vertex 80.4635 48.5734 3
    endloop
  endfacet
  facet normal 0 0 1
    outer loop
      vertex 85 37 3
      vertex 80.4635 48.5734 3
      vertex 80 48.5 3
    endloop
  endfacet
  facet normal 0 0 1
    outer loop
      vertex 85 37 3
      vertex 80 48.5 3
      vertex 79.5365 48.5734 3
    endloop
  endfacet
  facet normal 0 0 1
    outer loop
      vertex 85 37 3
      vertex 79.5365 48.5734 3
      vertex 79.1183 48.7865 3
    endloop
  endfacet
  facet normal 0 0 1
    outer loop
      vertex 85 37 3
      vertex 78.7865 49.1183 3
      vertex 49 55 3
    endloop
  endfacet
  facet normal 0 0 1
    outer loop
      vertex 78.7865 49.1183 3
      vertex 78.5734 49.5365 3
      vertex 49 55 3
    endloop
  endfacet
  facet normal 0 0 1
    outer loop
      vertex 54.4635 43.4266 3
      vertex 54.8817 43.2135 3
      vertex 85 37 3
    endloop
  endfacet
  facet normal 0 0 1
    outer loop
      vertex 55.5 42 3
      vertex 55.4266 41.5365 3
      vertex 85 37 3
    endloop
  endfacet
endsolid OpenSCAD_Model
