solid OpenSCAD_Model
  facet normal -1 0 0
    outer loop
      vertex 0 0 0
      vertex 0 0 6
      vertex 0 20 0
    endloop
  endfacet
  facet normal -1 0 0
    outer loop
      vertex 0 20 0
      vertex 0 0 6
      vertex 0 14 6
    endloop
  endfacet
  facet normal -1 0 0
    outer loop
      vertex 0 20 0
      vertex 0 14 6
      vertex 0 14 10
    endloop
  endfacet
  facet normal -1 0 0
    outer loop
      vertex 0 20 0
      vertex 0 14 10
      vertex 0 20 10
    endloop
  endfacet
  facet normal 0 -1 0
    outer loop
      vertex 0 0 6
      vertex 0 0 0
      vertex 35.4765 0 0
    endloop
  endfacet
  facet normal 0 -1 0
    outer loop
      vertex 37.0611 0 2.04509
      vertex 0 0 6
      vertex 35.9549 0 0.938926
    endloop
  endfacet
  facet normal 0 -1 0
    outer loop
      vertex 35.9549 0 0.938926
      vertex 0 0 6
      vertex 35.4765 0 0
    endloop
  endfacet
  facet normal 0 -1 0
    outer loop
      vertex 38.4549 0 2.75528
      vertex 0 0 6
      vertex 37.0611 0 2.04509
    endloop
  endfacet
  facet normal 0 -1 0
    outer loop
      vertex 40 0 3
      vertex 0 0 6
      vertex 38.4549 0 2.75528
    endloop
  endfacet
  facet normal 0 -1 0
    outer loop
      vertex 80 0 6
      vertex 0 0 6
      vertex 40 0 3
    endloop
  endfacet
  facet normal 0 -1 0
    outer loop
      vertex 80 0 0
      vertex 40 0 3
      vertex 41.5451 0 2.75528
    endloop
  endfacet
  facet normal 0 -1 0
    outer loop
      vertex 80 0 0
      vertex 41.5451 0 2.75528
      vertex 42.9389 0 2.04509
    endloop
  endfacet
  facet normal 0 -1 0
    outer loop
      vertex 80 0 0
      vertex 42.9389 0 2.04509
      vertex 44.0451 0 0.938926
    endloop
  endfacet
  facet normal 0 -1 0
    outer loop
      vertex 80 0 0
      vertex 44.0451 0 0.938926
      vertex 44.5235 0 0
    endloop
  endfacet
  facet normal 0 -1 0
    outer loop
      vertex 80 0 6
      vertex 40 0 3
      vertex 80 0 0
    endloop
  endfacet
  facet normal 0 0 -1
    outer loop
      vertex 0 0 0
      vertex 0 20 0
      vertex 35.4765 0 0
    endloop
  endfacet
  facet normal 0 0 -1
    outer loop
      vertex 35.4765 0 0
      vertex 0 20 0
      vertex 35.4765 20 0
    endloop
  endfacet
  facet normal 0 1 0
    outer loop
      vertex 0 20 0
      vertex 0 20 10
      vertex 35.4765 20 0
    endloop
  endfacet
  facet normal 0 1 0
    outer loop
      vertex 41.5451 20 2.75528
      vertex 0 20 10
      vertex 80 20 10
    endloop
  endfacet
  facet normal 0 1 0
    outer loop
      vertex 44.5235 20 0
      vertex 80 20 10
      vertex 80 20 0
    endloop
  endfacet
  facet normal 0 1 0
    outer loop
      vertex 44.0451 20 0.938926
      vertex 80 20 10
      vertex 44.5235 20 0
    endloop
  endfacet
  facet normal 0 1 0
    outer loop
      vertex 38.4549 20 2.75528
      vertex 0 20 10
      vertex 40 20 3
    endloop
  endfacet
  facet normal 0 1 0
    outer loop
      vertex 40 20 3
      vertex 0 20 10
      vertex 41.5451 20 2.75528
    endloop
  endfacet
  facet normal 0 1 0
    outer loop
      vertex 42.9389 20 2.04509
      vertex 41.5451 20 2.75528
      vertex 80 20 10
    endloop
  endfacet
  facet normal 0 1 0
    outer loop
      vertex 37.0611 20 2.04509
      vertex 0 20 10
      vertex 38.4549 20 2.75528
    endloop
  endfacet
  facet normal 0 1 0
    outer loop
      vertex 35.9549 20 0.938926
      vertex 0 20 10
      vertex 37.0611 20 2.04509
    endloop
  endfacet
  facet normal 0 1 0
    outer loop
      vertex 35.4765 20 0
      vertex 0 20 10
      vertex 35.9549 20 0.938926
    endloop
  endfacet
  facet normal 0 1 0
    outer loop
      vertex 42.9389 20 2.04509
      vertex 80 20 10
      vertex 44.0451 20 0.938926
    endloop
  endfacet
  facet normal 0 0 1
    outer loop
      vertex 0 20 10
      vertex 0 14 10
      vertex 80 14 10
    endloop
  endfacet
  facet normal 0 0 1
    outer loop
      vertex 80 20 10
      vertex 0 20 10
      vertex 80 14 10
    endloop
  endfacet
  facet normal 0 -1 0
    outer loop
      vertex 0 14 10
      vertex 0 14 6
      vertex 80 14 6
    endloop
  endfacet
  facet normal 0 -1 0
    outer loop
      vertex 80 14 10
      vertex 0 14 10
      vertex 80 14 6
    endloop
  endfacet
  facet normal 0 0 1
    outer loop
      vertex 80 0 6
      vertex 80 14 6
      vertex 0 14 6
    endloop
  endfacet
  facet normal 0 0 1
    outer loop
      vertex 0 0 6
      vertex 80 0 6
      vertex 0 14 6
    endloop
  endfacet
  facet normal 1 0 0
    outer loop
      vertex 80 0 6
      vertex 80 0 0
      vertex 80 20 0
    endloop
  endfacet
  facet normal 1 0 0
    outer loop
      vertex 80 14 6
      vertex 80 0 6
      vertex 80 20 0
    endloop
  endfacet
  facet normal 1 0 0
    outer loop
      vertex 80 20 10
      vertex 80 14 6
      vertex 80 20 0
    endloop
  endfacet
  facet normal 1 0 0
    outer loop
      vertex 80 14 10
      vertex 80 14 6
      vertex 80 20 10
    endloop
  endfacet
  facet normal 0 0 -1
    outer loop
      vertex 44.5235 20 0
      vertex 80 20 0
      vertex 44.5235 0 0
    endloop
  endfacet
  facet normal 0 0 -1
    outer loop
      vertex 44.5235 0 0
      vertex 80 20 0
      vertex 80 0 0
    endloop
  endfacet
  facet normal -0.891006 -1.00806e-016 -0.453991
    outer loop
      vertex 44.5235 20 0
      vertex 44.5235 0 0
      vertex 44.0451 20 0.938926
    endloop
  endfacet
  facet normal -0.891006 -1.00806e-016 -0.453991
    outer loop
      vertex 44.0451 20 0.938926
      vertex 44.5235 0 0
      vertex 44.0451 0 0.938926
    endloop
  endfacet
  facet normal -0.707107 -1.57009e-016 -0.707107
    outer loop
      vertex 44.0451 20 0.938926
      vertex 44.0451 0 0.938926
      vertex 42.9389 20 2.04509
    endloop
  endfacet
  facet normal -0.707107 -1.57009e-016 -0.707107
    outer loop
      vertex 42.9389 20 2.04509
      vertex 44.0451 0 0.938926
      vertex 42.9389 0 2.04509
    endloop
  endfacet
  facet normal -0.453991 -1.97843e-016 -0.891006
    outer loop
      vertex 42.9389 20 2.04509
      vertex 42.9389 0 2.04509
      vertex 41.5451 20 2.75528
    endloop
  endfacet
  facet normal -0.453991 -1.97843e-016 -0.891006
    outer loop
      vertex 41.5451 20 2.75528
      vertex 42.9389 0 2.04509
      vertex 41.5451 0 2.75528
    endloop
  endfacet
  facet normal -0.156434 -2.19311e-016 -0.987688
    outer loop
      vertex 41.5451 20 2.75528
      vertex 41.5451 0 2.75528
      vertex 40 20 3
    endloop
  endfacet
  facet normal -0.156434 -2.19311e-016 -0.987688
    outer loop
      vertex 40 20 3
      vertex 41.5451 0 2.75528
      vertex 40 0 3
    endloop
  endfacet
  facet normal 0.156434 -2.19311e-016 -0.987688
    outer loop
      vertex 40 20 3
      vertex 40 0 3
      vertex 38.4549 20 2.75528
    endloop
  endfacet
  facet normal 0.156434 -2.19311e-016 -0.987688
    outer loop
      vertex 38.4549 20 2.75528
      vertex 40 0 3
      vertex 38.4549 0 2.75528
    endloop
  endfacet
  facet normal 0.453991 -1.97843e-016 -0.891006
    outer loop
      vertex 38.4549 20 2.75528
      vertex 38.4549 0 2.75528
      vertex 37.0611 20 2.04509
    endloop
  endfacet
  facet normal 0.453991 -1.97843e-016 -0.891006
    outer loop
      vertex 37.0611 20 2.04509
      vertex 38.4549 0 2.75528
      vertex 37.0611 0 2.04509
    endloop
  endfacet
  facet normal 0.707107 -1.57009e-016 -0.707107
    outer loop
      vertex 35.9549 20 0.938926
      vertex 37.0611 20 2.04509
      vertex 37.0611 0 2.04509
    endloop
  endfacet
  facet normal 0.707107 -1.57009e-016 -0.707107
    outer loop
      vertex 35.9549 0 0.938926
      vertex 35.9549 20 0.938926
      vertex 37.0611 0 2.04509
    endloop
  endfacet
  facet normal 0.891006 -1.00806e-016 -0.453991
    outer loop
      vertex 35.4765 20 0
      vertex 35.9549 20 0.938926
      vertex 35.9549 0 0.938926
    endloop
  endfacet
  facet normal 0.891006 -1.00806e-016 -0.453991
    outer loop
      vertex 35.4765 0 0
      vertex 35.4765 20 0
      vertex 35.9549 0 0.938926
    endloop
  endfacet
endsolid OpenSCAD_Model
