solid OpenSCAD_Model
  facet normal -1 0 0
    outer loop
      vertex 0 0 0
      vertex 0 0 6
      vertex 0 5.58502 0
    endloop
  endfacet
  facet normal -1 0 0
    outer loop
      vertex 0 7.76393 1.80423
      vertex 0 0 6
      vertex 0 14 6
    endloop
  endfacet
  facet normal -1 0 0
    outer loop
      vertex 0 14 6
      vertex 0 14 10
      vertex 0 18 10
    endloop
  endfacet
  facet normal -1 0 0
    outer loop
      vertex 0 14 6
      vertex 0 18 10
      vertex 0 18 0
    endloop
  endfacet
  facet normal -1 0 0
    outer loop
      vertex 0 14 6
      vertex 0 18 0
      vertex 0 12.415 0
    endloop
  endfacet
  facet normal -1 0 0
    outer loop
      vertex 0 14 6
      vertex 0 12.415 0
      vertex 0 12.2361 0.351141
    endloop
  endfacet
  facet normal -1 0 0
    outer loop
      vertex 0 14 6
      vertex 0 12.2361 0.351141
      vertex 0 11.3511 1.23607
    endloop
  endfacet
  facet normal -1 0 0
    outer loop
      vertex 0 14 6
      vertex 0 11.3511 1.23607
      vertex 0 10.2361 1.80423
    endloop
  endfacet
  facet normal -1 0 0
    outer loop
      vertex 0 14 6
      vertex 0 10.2361 1.80423
      vertex 0 9 2
    endloop
  endfacet
  facet normal -1 0 0
    outer loop
      vertex 0 6.64886 1.23607
      vertex 0 0 6
      vertex 0 7.76393 1.80423
    endloop
  endfacet
  facet normal -1 0 0
    outer loop
      vertex 0 5.76393 0.351141
      vertex 0 0 6
      vertex 0 6.64886 1.23607
    endloop
  endfacet
  facet normal -1 0 0
    outer loop
      vertex 0 5.58502 0
      vertex 0 0 6
      vertex 0 5.76393 0.351141
    endloop
  endfacet
  facet normal -1 0 0
    outer loop
      vertex 0 7.76393 1.80423
      vertex 0 14 6
      vertex 0 9 2
    endloop
  endfacet
  facet normal 0 -1 0
    outer loop
      vertex 0 0 6
      vertex 0 0 0
      vertex 80 0 0
    endloop
  endfacet
  facet normal 0 -1 0
    outer loop
      vertex 80 0 6
      vertex 0 0 6
      vertex 80 0 0
    endloop
  endfacet
  facet normal 0 0 -1
    outer loop
      vertex 0 0 0
      vertex 0 5.58502 0
      vertex 80 0 0
    endloop
  endfacet
  facet normal 0 0 -1
    outer loop
      vertex 80 0 0
      vertex 0 5.58502 0
      vertex 80 5.58502 0
    endloop
  endfacet
  facet normal 1.00806e-016 0.891007 -0.45399
    outer loop
      vertex 80 5.76393 0.351141
      vertex 80 5.58502 0
      vertex 0 5.76393 0.351141
    endloop
  endfacet
  facet normal 1.00806e-016 0.891007 -0.45399
    outer loop
      vertex 0 5.76393 0.351141
      vertex 80 5.58502 0
      vertex 0 5.58502 0
    endloop
  endfacet
  facet normal 1.57009e-016 0.707107 -0.707107
    outer loop
      vertex 80 6.64886 1.23607
      vertex 80 5.76393 0.351141
      vertex 0 6.64886 1.23607
    endloop
  endfacet
  facet normal 1.57009e-016 0.707107 -0.707107
    outer loop
      vertex 0 6.64886 1.23607
      vertex 80 5.76393 0.351141
      vertex 0 5.76393 0.351141
    endloop
  endfacet
  facet normal 1.97843e-016 0.45399 -0.891007
    outer loop
      vertex 80 7.76393 1.80423
      vertex 80 6.64886 1.23607
      vertex 0 7.76393 1.80423
    endloop
  endfacet
  facet normal 1.97843e-016 0.45399 -0.891007
    outer loop
      vertex 0 7.76393 1.80423
      vertex 80 6.64886 1.23607
      vertex 0 6.64886 1.23607
    endloop
  endfacet
  facet normal 2.19311e-016 0.156435 -0.987688
    outer loop
      vertex 80 9 2
      vertex 80 7.76393 1.80423
      vertex 0 9 2
    endloop
  endfacet
  facet normal 2.19311e-016 0.156435 -0.987688
    outer loop
      vertex 0 9 2
      vertex 80 7.76393 1.80423
      vertex 0 7.76393 1.80423
    endloop
  endfacet
  facet normal 2.19311e-016 -0.156435 -0.987688
    outer loop
      vertex 80 10.2361 1.80423
      vertex 80 9 2
      vertex 0 10.2361 1.80423
    endloop
  endfacet
  facet normal 2.19311e-016 -0.156435 -0.987688
    outer loop
      vertex 0 10.2361 1.80423
      vertex 80 9 2
      vertex 0 9 2
    endloop
  endfacet
  facet normal 1.97843e-016 -0.45399 -0.891007
    outer loop
      vertex 80 11.3511 1.23607
      vertex 80 10.2361 1.80423
      vertex 0 11.3511 1.23607
    endloop
  endfacet
  facet normal 1.97843e-016 -0.45399 -0.891007
    outer loop
      vertex 0 11.3511 1.23607
      vertex 80 10.2361 1.80423
      vertex 0 10.2361 1.80423
    endloop
  endfacet
  facet normal 1.57009e-016 -0.707107 -0.707107
    outer loop
      vertex 0 12.2361 0.351141
      vertex 80 12.2361 0.351141
      vertex 80 11.3511 1.23607
    endloop
  endfacet
  facet normal 1.57009e-016 -0.707107 -0.707107
    outer loop
      vertex 0 11.3511 1.23607
      vertex 0 12.2361 0.351141
      vertex 80 11.3511 1.23607
    endloop
  endfacet
  facet normal 1.00806e-016 -0.891007 -0.45399
    outer loop
      vertex 0 12.415 0
      vertex 80 12.415 0
      vertex 80 12.2361 0.351141
    endloop
  endfacet
  facet normal 1.00806e-016 -0.891007 -0.45399
    outer loop
      vertex 0 12.2361 0.351141
      vertex 0 12.415 0
      vertex 80 12.2361 0.351141
    endloop
  endfacet
  facet normal 0 0 -1
    outer loop
      vertex 0 12.415 0
      vertex 0 18 0
      vertex 80 12.415 0
    endloop
  endfacet
  facet normal 0 0 -1
    outer loop
      vertex 80 12.415 0
      vertex 0 18 0
      vertex 80 18 0
    endloop
  endfacet
  facet normal 0 1 0
    outer loop
      vertex 0 18 0
      vertex 0 18 10
      vertex 80 18 0
    endloop
  endfacet
  facet normal 0 1 0
    outer loop
      vertex 80 18 0
      vertex 0 18 10
      vertex 80 18 10
    endloop
  endfacet
  facet normal 0 0 1
    outer loop
      vertex 0 18 10
      vertex 0 14 10
      vertex 80 14 10
    endloop
  endfacet
  facet normal 0 0 1
    outer loop
      vertex 80 18 10
      vertex 0 18 10
      vertex 80 14 10
    endloop
  endfacet
  facet normal 0 -1 0
    outer loop
      vertex 0 14 10
      vertex 0 14 6
      vertex 80 14 6
    endloop
  endfacet
  facet normal 0 -1 0
    outer loop
      vertex 80 14 10
      vertex 0 14 10
      vertex 80 14 6
    endloop
  endfacet
  facet normal 0 0 1
    outer loop
      vertex 80 0 6
      vertex 80 14 6
      vertex 0 14 6
    endloop
  endfacet
  facet normal 0 0 1
    outer loop
      vertex 0 0 6
      vertex 80 0 6
      vertex 0 14 6
    endloop
  endfacet
  facet normal 1 0 0
    outer loop
      vertex 80 0 6
      vertex 80 0 0
      vertex 80 5.58502 0
    endloop
  endfacet
  facet normal 1 0 0
    outer loop
      vertex 80 6.64886 1.23607
      vertex 80 0 6
      vertex 80 5.76393 0.351141
    endloop
  endfacet
  facet normal 1 0 0
    outer loop
      vertex 80 5.76393 0.351141
      vertex 80 0 6
      vertex 80 5.58502 0
    endloop
  endfacet
  facet normal 1 0 0
    outer loop
      vertex 80 7.76393 1.80423
      vertex 80 0 6
      vertex 80 6.64886 1.23607
    endloop
  endfacet
  facet normal 1 0 0
    outer loop
      vertex 80 9 2
      vertex 80 0 6
      vertex 80 7.76393 1.80423
    endloop
  endfacet
  facet normal 1 0 0
    outer loop
      vertex 80 10.2361 1.80423
      vertex 80 0 6
      vertex 80 9 2
    endloop
  endfacet
  facet normal 1 0 0
    outer loop
      vertex 80 18 0
      vertex 80 0 6
      vertex 80 10.2361 1.80423
    endloop
  endfacet
  facet normal 1 0 0
    outer loop
      vertex 80 18 0
      vertex 80 10.2361 1.80423
      vertex 80 11.3511 1.23607
    endloop
  endfacet
  facet normal 1 0 0
    outer loop
      vertex 80 18 0
      vertex 80 11.3511 1.23607
      vertex 80 12.2361 0.351141
    endloop
  endfacet
  facet normal 1 0 0
    outer loop
      vertex 80 18 0
      vertex 80 12.2361 0.351141
      vertex 80 12.415 0
    endloop
  endfacet
  facet normal 1 0 0
    outer loop
      vertex 80 14 6
      vertex 80 0 6
      vertex 80 18 0
    endloop
  endfacet
  facet normal 1 0 0
    outer loop
      vertex 80 18 10
      vertex 80 14 6
      vertex 80 18 0
    endloop
  endfacet
  facet normal 1 0 0
    outer loop
      vertex 80 14 10
      vertex 80 14 6
      vertex 80 18 10
    endloop
  endfacet
endsolid OpenSCAD_Model
