  0
SECTION
  2
HEADER
  9
$ACADVER
  1
AC1009
  9
$INSBASE
 10
0.0
 20
0.0
 30
0.0
  9
$EXTMIN
 10
0.0
 20
0.0
 30
0.0
  9
$EXTMAX
 10
0.0
 20
0.0
 30
0.0
  0
ENDSEC
  0
SECTION
  2
TABLES
  0
TABLE
  2
VPORT
 70
0
  0
ENDTAB
  0
TABLE
  2
LTYPE
 70
1
  0
LTYPE
  2
CONTINUOUS
 70
0
  3
Solid line
 72
65
 73
0
 40
0.0
  0
ENDTAB
  0
TABLE
  2
LAYER
 70
1
  0
LAYER
  2
0
 70
64
 62
7
  6
continuous
  0
ENDTAB
  0
TABLE
  2
STYLE
 70
1
  0
STYLE
  2
STANDARD
 70
0
 40
0
 41
1.0
 50
0.0
 71
0
 42
1
 3
ARIAL.TTF
 4

  0
ENDTAB
  0
TABLE
  2
VIEW
 70
0
  0
ENDTAB
  0
ENDSEC
  0
SECTION
  2
BLOCKS
  0
BLOCK
  8
0
  2
POCKET006024_PROJ
 70
0
 10
0.0
 20
0.0
 30
0.0
  3
POCKET006024_PROJ
  0
LINE
  8
0
 62
0
 10
224.0
 20
144.658075373
 30
0.0
 11
272.000000034
 21
144.658075373
 31
0.0
  0
LINE
  8
0
 62
0
 10
224.0
 20
144.658075373
 30
0.0
 11
224.0
 21
22.0
 31
0.0
  0
LINE
  8
0
 62
0
 10
272.000000034
 20
144.658075373
 30
0.0
 11
272.000000034
 21
174.658075373
 31
0.0
  0
LINE
  8
0
 62
0
 10
272.000000034
 20
174.658075373
 30
0.0
 11
199.000000034
 21
199.658075373
 31
0.0
  0
LINE
  8
0
 62
0
 10
199.000000034
 20
199.658075373
 30
0.0
 11
134.000000034
 21
199.658075373
 31
0.0
  0
LINE
  8
0
 62
0
 10
134.000000034
 20
199.658075373
 30
0.0
 11
-146.0
 21
38.0
 31
0.0
  0
LINE
  8
0
 62
0
 10
-146.0
 20
38.0
 30
0.0
 11
-146.0
 21
26.0
 31
0.0
  0
LINE
  8
0
 62
0
 10
-146.0
 20
26.0
 30
0.0
 11
-126.0
 21
26.0
 31
0.0
  0
LINE
  8
0
 62
0
 10
-126.0
 20
26.0
 30
0.0
 11
-126.0
 21
8.0
 31
0.0
  0
LINE
  8
0
 62
0
 10
-126.0
 20
8.0
 30
0.0
 11
-146.0
 21
8.0
 31
0.0
  0
LINE
  8
0
 62
0
 10
-146.0
 20
8.0
 30
0.0
 11
-146.0
 21
-38.0
 31
0.0
  0
LINE
  8
0
 62
0
 10
-146.0
 20
-38.0
 30
0.0
 11
134.0
 21
-199.658075373
 31
0.0
  0
LINE
  8
0
 62
0
 10
134.0
 20
-199.658075373
 30
0.0
 11
199.000000034
 21
-199.658075373
 31
0.0
  0
LINE
  8
0
 62
0
 10
199.000000034
 20
-199.658075373
 30
0.0
 11
272.000000034
 21
-174.658075373
 31
0.0
  0
LINE
  8
0
 62
0
 10
272.000000034
 20
-174.658075373
 30
0.0
 11
272.000000034
 21
-144.658075373
 31
0.0
  0
LINE
  8
0
 62
0
 10
272.000000034
 20
-144.658075373
 30
0.0
 11
224.0
 21
-144.658075373
 31
0.0
  0
LINE
  8
0
 62
0
 10
224.0
 20
-22.0
 30
0.0
 11
224.0
 21
-144.658075373
 31
0.0
  0
LINE
  8
0
 62
0
 10
206.0
 20
-22.0
 30
0.0
 11
224.0
 21
-22.0
 31
0.0
  0
LINE
  8
0
 62
0
 10
206.0
 20
22.0
 30
0.0
 11
206.0
 21
-22.0
 31
0.0
  0
LINE
  8
0
 62
0
 10
224.0
 20
22.0
 30
0.0
 11
206.0
 21
22.0
 31
0.0
  0
LINE
  8
0
 62
0
 10
-106.0
 20
-26.0
 30
0.0
 11
134.0
 21
-164.564064605
 31
0.0
  0
LINE
  8
0
 62
0
 10
134.0
 20
-164.564064605
 30
0.0
 11
174.0
 21
-145.0
 31
0.0
  0
LINE
  8
0
 62
0
 10
174.0
 20
-145.0
 30
0.0
 11
174.0
 21
145.0
 31
0.0
  0
LINE
  8
0
 62
0
 10
174.0
 20
145.0
 30
0.0
 11
134.0
 21
164.564064605
 31
0.0
  0
LINE
  8
0
 62
0
 10
134.0
 20
164.564064605
 30
0.0
 11
-106.0
 21
26.0
 31
0.0
  0
LINE
  8
0
 62
0
 10
-106.0
 20
26.0
 30
0.0
 11
-106.0
 21
-26.0
 31
0.0
  0
CIRCLE
  8
0
 62
0
 10
185.000000034
 20
-181.0
 30
0.0
 40
4.0
  0
CIRCLE
  8
0
 62
0
 10
210.000000034
 20
-165.0
 30
0.0
 40
4.0
  0
CIRCLE
  8
0
 62
0
 10
210.000000034
 20
165.0
 30
0.0
 40
4.0
  0
CIRCLE
  8
0
 62
0
 10
185.000000034
 20
181.0
 30
0.0
 40
4.0
  0
POLYLINE
  8
0
 62
0
 70
0
 66
1
 10
0.0
 20
0.0
 30
0.0
  0
VERTEX
  8
0
 10
-126.0
 20
20.3775230736
  0
VERTEX
  8
0
 10
-126.0
 20
16.2948496195
  0
SEQEND
  8
0
  0
POLYLINE
  8
0
 62
0
 70
0
 66
1
 10
0.0
 20
0.0
 30
0.0
  0
VERTEX
  8
0
 10
174.0
 20
3.37752307364
  0
VERTEX
  8
0
 10
174.0
 20
2.6792123994
  0
VERTEX
  8
0
 10
174.0
 20
-0.705150380536
  0
SEQEND
  8
0
  0
ENDBLK
  0
ENDSEC
  0
SECTION
  2
ENTITIES
  0
INSERT
  2
POCKET006024_PROJ
  8
0
 10
0.0
 20
0.0
 30
0.0
  0
ENDSEC
  0
EOF
