<?xml version="1.0" encoding="UTF-8" standalone="no"?>
<!-- Created with Inkscape (http://www.inkscape.org/) -->

<svg
   xmlns:dc="http://purl.org/dc/elements/1.1/"
   xmlns:cc="http://creativecommons.org/ns#"
   xmlns:rdf="http://www.w3.org/1999/02/22-rdf-syntax-ns#"
   xmlns:svg="http://www.w3.org/2000/svg"
   xmlns="http://www.w3.org/2000/svg"
   xmlns:sodipodi="http://sodipodi.sourceforge.net/DTD/sodipodi-0.dtd"
   xmlns:inkscape="http://www.inkscape.org/namespaces/inkscape"
   width="744.09448819"
   height="1052.3622047"
   id="svg4084"
   version="1.1"
   inkscape:version="0.48.3.1 r9886"
   sodipodi:docname="10gear.svg">
  <defs
     id="defs4086" />
  <sodipodi:namedview
     id="base"
     pagecolor="#ffffff"
     bordercolor="#666666"
     borderopacity="1.0"
     inkscape:pageopacity="0.0"
     inkscape:pageshadow="2"
     inkscape:zoom="6.7407356"
     inkscape:cx="36.006745"
     inkscape:cy="25.637584"
     inkscape:document-units="px"
     inkscape:current-layer="layer1"
     showgrid="false"
     inkscape:window-width="1244"
     inkscape:window-height="829"
     inkscape:window-x="386"
     inkscape:window-y="233"
     inkscape:window-maximized="0" />
  <metadata
     id="metadata4089">
    <rdf:RDF>
      <cc:Work
         rdf:about="">
        <dc:format>image/svg+xml</dc:format>
        <dc:type
           rdf:resource="http://purl.org/dc/dcmitype/StillImage" />
        <dc:title />
      </cc:Work>
    </rdf:RDF>
  </metadata>
  <g
     inkscape:label="Layer 1"
     inkscape:groupmode="layer"
     id="layer1">
    <path
       id="path3051"
       style="fill:#00ccff;fill-opacity:1;fill-rule:evenodd;stroke:#000000;stroke-width:1;stroke-linejoin:miter;stroke-miterlimit:4;stroke-opacity:1"
       d="m 31.03125,1013.8125 c -2.244081,0 -4.27312,0.8821 -5.8125,2.2813 l 0,12.8124 c 1.53938,1.3992 3.568419,2.25 5.8125,2.25 2.248231,0 4.303398,-0.8462 5.84375,-2.25 l 0,-12.8124 c -1.540352,-1.4038 -3.595519,-2.2813 -5.84375,-2.2813 z m 20.02475,4.8957 2.66,-0.504 2.475,0.308 5.389,2.946 0,2.076 -5.389,2.946 -2.475,0.308 -2.66,-0.504 -1.596,4.912 2.448,1.157 1.821,1.704 2.629,5.55 -1.221,1.68 -6.091,-0.785 -2.183,-1.205 -1.856,-1.971 -4.179,3.036 1.301,2.374 0.472,2.449 -1.136,6.036 -1.975,0.641 -4.466,-4.215 -1.058,-2.258 -0.344,-2.686 -5.164,0 -0.344,2.686 -1.058,2.258 -4.466,4.215 -1.975,-0.641 -1.136,-6.036 0.472,-2.449 1.301,-2.374 -4.179,-3.036 -1.856,1.971 -2.183,1.205 -6.091,0.785 -1.221,-1.68 2.629,-5.55 1.821,-1.704 2.448,-1.157 -1.596,-4.912 -2.66,0.504 -2.475,-0.308 -5.389,-2.946 0,-2.076 5.389,-2.946 2.475,-0.308 2.66,0.504 1.596,-4.912 -2.448,-1.157 -1.821,-1.704 -2.629,-5.55 1.221,-1.68 6.091,0.785 2.183,1.205 1.856,1.971 4.179,-3.036 -1.301,-2.374 -0.472,-2.44901 1.136,-6.036 1.975,-0.641 4.466,4.215 1.058,2.258 0.344,2.68601 5.164,0 0.344,-2.68601 1.058,-2.258 4.466,-4.215 1.975,0.641 1.136,6.036 -0.472,2.44901 -1.301,2.374 4.179,3.036 1.856,-1.971 2.183,-1.205 6.091,-0.785 1.221,1.68 -2.629,5.55 -1.821,1.704 -2.448,1.157 z"
       inkscape:connector-curvature="0" />
  </g>
</svg>
