999
dxfrw 0.5.10
0
SECTION
2
HEADER
9
$ACADVER
1
AC1021
9
$HANDSEED
5
20000
9
$DWGCODEPAGE
3
ANSI_1252
9
$INSBASE
10
0
20
0
30
0
9
$EXTMIN
10
-15.2874545335
20
-35
30
0
9
$EXTMAX
10
80
20
43.125
30
0
9
$LIMMIN
10
0
20
0
9
$LIMMAX
10
420
20
297
9
$ORTHOMODE
70
0
9
$LTSCALE
40
1
9
$TEXTSTYLE
7
STANDARD
9
$DIMASZ
40
2.5
9
$DIMSCALE
40
1
9
$DIMEXO
40
0.625
9
$DIMEXE
40
1.25
9
$DIMTXT
40
2.5
9
$DIMTSZ
40
0
9
$DIMAUNIT
70
0
9
$DIMADEC
70
0
9
$DIMLUNIT
70
2
9
$DIMSTYLE
2
Standard
9
$DIMGAP
40
0.625
9
$DIMTIH
70
0
9
$LUNITS
70
2
9
$LUPREC
70
4
9
$AUNITS
70
0
9
$AUPREC
70
2
9
$SPLINESEGS
70
8
9
$GRIDMODE
70
1
9
$SNAPSTYLE
70
0
9
$PINSBASE
10
0
20
0
30
0
9
$PLIMMIN
10
0
20
0
9
$PLIMMAX
10
210
20
297
9
$INSUNITS
70
0
9
$PSVPSCALE
40
1
0
ENDSEC
0
SECTION
2
CLASSES
0
ENDSEC
0
SECTION
2
TABLES
0
TABLE
2
VPORT
5
8
330
0
100
AcDbSymbolTable
70
1
0
VPORT
5
31
330
2
100
AcDbSymbolTableRecord
100
AcDbViewportTableRecord
2
*ACTIVE
70
0
10
0
20
0
11
1
21
1
12
109.256603995
22
40.9955706613
13
0
23
0
14
10
24
10
15
10
25
10
16
0
26
0
36
1
17
0
27
0
37
0
40
182.873353211
41
1.66879659212
42
50
43
0
44
0
50
0
51
0
71
0
72
100
73
1
74
3
75
0
76
1
77
0
78
0
281
0
65
1
110
0
120
0
130
0
111
1
121
0
131
0
112
0
122
1
132
0
79
0
146
0
348
10020
60
7
61
5
292
1
282
1
141
0
142
0
63
250
421
3358443
0
ENDTAB
0
TABLE
2
LTYPE
5
5
330
0
100
AcDbSymbolTable
70
4
0
LTYPE
5
14
330
5
100
AcDbSymbolTableRecord
100
AcDbLinetypeTableRecord
2
ByBlock
70
0
3

72
65
73
0
40
0
0
LTYPE
5
15
330
5
100
AcDbSymbolTableRecord
100
AcDbLinetypeTableRecord
2
ByLayer
70
0
3

72
65
73
0
40
0
0
LTYPE
5
16
330
5
100
AcDbSymbolTableRecord
100
AcDbLinetypeTableRecord
2
Continuous
70
0
3
Solid line
72
65
73
0
40
0
0
LTYPE
5
32
330
5
100
AcDbSymbolTableRecord
100
AcDbLinetypeTableRecord
2
DOT
70
0
3
Dot . . . . . . . . . . . . . . . . . . . . . .
72
65
73
2
40
6.35
49
0
74
0
49
-6.35
74
0
0
LTYPE
5
33
330
5
100
AcDbSymbolTableRecord
100
AcDbLinetypeTableRecord
2
DOT2
70
0
3
Dot (.5x) .....................................
72
65
73
2
40
3.175
49
0
74
0
49
-3.175
74
0
0
LTYPE
5
34
330
5
100
AcDbSymbolTableRecord
100
AcDbLinetypeTableRecord
2
DOTX2
70
0
3
Dot (2x) .  .  .  .  .  .  .  .  .  .  .  .  .
72
65
73
2
40
12.7
49
0
74
0
49
-12.7
74
0
0
LTYPE
5
35
330
5
100
AcDbSymbolTableRecord
100
AcDbLinetypeTableRecord
2
DASHED
70
0
3
Dot . . . . . . . . . . . . . . . . . . . . . .
72
65
73
2
40
19.05
49
12.7
74
0
49
-6.35
74
0
0
LTYPE
5
36
330
5
100
AcDbSymbolTableRecord
100
AcDbLinetypeTableRecord
2
DASHED2
70
0
3
Dashed (.5x) _ _ _ _ _ _ _ _ _ _ _ _ _ _ _ _ _
72
65
73
2
40
9.525
49
6.35
74
0
49
-3.175
74
0
0
LTYPE
5
37
330
5
100
AcDbSymbolTableRecord
100
AcDbLinetypeTableRecord
2
DASHEDX2
70
0
3
Dashed (2x) ____  ____  ____  ____  ____  ___
72
65
73
2
40
38.1
49
25.4
74
0
49
-12.7
74
0
0
LTYPE
5
38
330
5
100
AcDbSymbolTableRecord
100
AcDbLinetypeTableRecord
2
DASHDOT
70
0
3
Dash dot __ . __ . __ . __ . __ . __ . __ . __
72
65
73
4
40
25.4
49
12.7
74
0
49
-6.35
74
0
49
0
74
0
49
-6.35
74
0
0
LTYPE
5
39
330
5
100
AcDbSymbolTableRecord
100
AcDbLinetypeTableRecord
2
DASHDOT2
70
0
3
Dash dot (.5x) _._._._._._._._._._._._._._._.
72
65
73
4
40
12.7
49
6.35
74
0
49
-3.175
74
0
49
0
74
0
49
-3.175
74
0
0
LTYPE
5
3A
330
5
100
AcDbSymbolTableRecord
100
AcDbLinetypeTableRecord
2
DASHDOTX2
70
0
3
Dash dot (2x) ____  .  ____  .  ____  .  ___
72
65
73
4
40
50.8
49
25.4
74
0
49
-12.7
74
0
49
0
74
0
49
-12.7
74
0
0
LTYPE
5
3B
330
5
100
AcDbSymbolTableRecord
100
AcDbLinetypeTableRecord
2
DIVIDE
70
0
3
Divide ____ . . ____ . . ____ . . ____ . . ____
72
65
73
6
40
31.75
49
12.7
74
0
49
-6.35
74
0
49
0
74
0
49
-6.35
74
0
49
0
74
0
49
-6.35
74
0
0
LTYPE
5
3C
330
5
100
AcDbSymbolTableRecord
100
AcDbLinetypeTableRecord
2
DIVIDE2
70
0
3
Divide (.5x) __..__..__..__..__..__..__..__.._
72
65
73
6
40
15.875
49
6.35
74
0
49
-3.175
74
0
49
0
74
0
49
-3.175
74
0
49
0
74
0
49
-3.175
74
0
0
LTYPE
5
3D
330
5
100
AcDbSymbolTableRecord
100
AcDbLinetypeTableRecord
2
DIVIDEX2
70
0
3
Divide (2x) ________  .  .  ________  .  .  _
72
65
73
6
40
63.5
49
25.4
74
0
49
-12.7
74
0
49
0
74
0
49
-12.7
74
0
49
0
74
0
49
-12.7
74
0
0
LTYPE
5
3E
330
5
100
AcDbSymbolTableRecord
100
AcDbLinetypeTableRecord
2
BORDER
70
0
3
Border __ __ . __ __ . __ __ . __ __ . __ __ .
72
65
73
6
40
44.45
49
12.7
74
0
49
-6.35
74
0
49
12.7
74
0
49
-6.35
74
0
49
0
74
0
49
-6.35
74
0
0
LTYPE
5
3F
330
5
100
AcDbSymbolTableRecord
100
AcDbLinetypeTableRecord
2
BORDER2
70
0
3
Border (.5x) __.__.__.__.__.__.__.__.__.__.__.
72
65
73
6
40
22.225
49
6.35
74
0
49
-3.175
74
0
49
6.35
74
0
49
-3.175
74
0
49
0
74
0
49
-3.175
74
0
0
LTYPE
5
40
330
5
100
AcDbSymbolTableRecord
100
AcDbLinetypeTableRecord
2
BORDERX2
70
0
3
Border (2x) ____  ____  .  ____  ____  .  ___
72
65
73
6
40
88.9
49
25.4
74
0
49
-12.7
74
0
49
25.4
74
0
49
-12.7
74
0
49
0
74
0
49
-12.7
74
0
0
LTYPE
5
41
330
5
100
AcDbSymbolTableRecord
100
AcDbLinetypeTableRecord
2
CENTER
70
0
3
Center ____ _ ____ _ ____ _ ____ _ ____ _ ____
72
65
73
4
40
50.8
49
31.75
74
0
49
-6.35
74
0
49
6.35
74
0
49
-6.35
74
0
0
LTYPE
5
42
330
5
100
AcDbSymbolTableRecord
100
AcDbLinetypeTableRecord
2
CENTER2
70
0
3
Center (.5x) ___ _ ___ _ ___ _ ___ _ ___ _ ___
72
65
73
4
40
28.575
49
19.05
74
0
49
-3.175
74
0
49
3.175
74
0
49
-3.175
74
0
0
LTYPE
5
43
330
5
100
AcDbSymbolTableRecord
100
AcDbLinetypeTableRecord
2
CENTERX2
70
0
3
Center (2x) ________  __  ________  __  _____
72
65
73
4
40
101.6
49
63.5
74
0
49
-12.7
74
0
49
12.7
74
0
49
-12.7
74
0
0
ENDTAB
0
TABLE
2
LAYER
5
2
330
0
100
AcDbSymbolTable
70
1
0
LAYER
5
10
330
2
100
AcDbSymbolTableRecord
100
AcDbLayerTableRecord
2
0
70
0
62
7
6
CONTINUOUS
370
50
390
F
0
LAYER
5
44
330
2
100
AcDbSymbolTableRecord
100
AcDbLayerTableRecord
2
dim
70
0
62
7
6
CONTINUOUS
370
-3
390
F
0
LAYER
5
45
330
2
100
AcDbSymbolTableRecord
100
AcDbLayerTableRecord
2
base
70
0
62
7
6
CENTER
370
0
390
F
0
ENDTAB
0
TABLE
2
STYLE
5
3
330
0
100
AcDbSymbolTable
70
3
0
STYLE
5
46
330
2
100
AcDbSymbolTableRecord
100
AcDbTextStyleTableRecord
2
Standard
70
0
40
0
41
1
50
0
71
0
42
1
3
txt
4

0
ENDTAB
0
TABLE
2
VIEW
5
6
330
0
100
AcDbSymbolTable
70
0
0
ENDTAB
0
TABLE
2
UCS
5
7
330
0
100
AcDbSymbolTable
70
0
0
ENDTAB
0
TABLE
2
APPID
5
9
330
0
100
AcDbSymbolTable
70
1
0
APPID
5
12
330
9
100
AcDbSymbolTableRecord
100
AcDbRegAppTableRecord
2
ACAD
70
0
0
ENDTAB
0
TABLE
2
DIMSTYLE
5
A
330
0
100
AcDbSymbolTable
70
1
100
AcDbDimStyleTable
71
1
0
DIMSTYLE
105
47
330
A
100
AcDbSymbolTableRecord
100
AcDbDimStyleTableRecord
2
Standard
70
0
40
1
41
2.5
42
0.625
43
0.38
44
1.25
45
0
46
0
47
0
48
0
140
2.5
141
0.09
142
0
143
25.4
144
1
145
0
146
1
147
0.625
148
0
71
0
72
0
73
0
74
1
75
0
76
0
77
0
78
0
79
0
170
0
171
2
172
0
173
0
174
0
175
0
176
0
177
0
178
0
179
0
271
4
272
4
273
2
274
2
275
0
276
0
277
2
278
46
279
0
280
0
281
0
282
0
283
1
284
0
285
0
286
0
288
0
289
3
340
Standard
341

371
-2
372
-2
0
ENDTAB
0
TABLE
2
BLOCK_RECORD
5
1
330
0
100
AcDbSymbolTable
70
2
0
BLOCK_RECORD
5
1F
330
1
100
AcDbSymbolTableRecord
100
AcDbBlockTableRecord
2
*Model_Space
70
0
280
1
281
0
0
BLOCK_RECORD
5
1E
330
1
100
AcDbSymbolTableRecord
100
AcDbBlockTableRecord
2
*Paper_Space
70
0
280
1
281
0
0
BLOCK_RECORD
5
48
330
1
100
AcDbSymbolTableRecord
100
AcDbBlockTableRecord
2
CUT001008009004_PROJ
70
0
280
1
281
0
0
BLOCK_RECORD
5
4B
330
1
100
AcDbSymbolTableRecord
100
AcDbBlockTableRecord
2
CUT001008009004_PROJ001
70
0
280
1
281
0
0
ENDTAB
0
ENDSEC
0
SECTION
2
BLOCKS
0
BLOCK
5
20
330
1F
100
AcDbEntity
8
0
100
AcDbBlockBegin
2
*Model_Space
70
0
10
0
20
0
30
0
3
*Model_Space
1

0
ENDBLK
5
21
330
1F
100
AcDbEntity
8
0
100
AcDbBlockEnd
0
BLOCK
5
1C
330
1B
100
AcDbEntity
8
0
100
AcDbBlockBegin
2
*Paper_Space
70
0
10
0
20
0
30
0
3
*Paper_Space
1

0
ENDBLK
5
1D
330
1F
100
AcDbEntity
8
0
100
AcDbBlockEnd
0
BLOCK
5
49
330
48
100
AcDbEntity
8
0
100
AcDbBlockBegin
2
CUT001008009004_PROJ
70
0
10
0
20
0
3
CUT001008009004_PROJ
1

0
LWPOLYLINE
5
4E
100
AcDbEntity
8
0
6
ByLayer
62
0
370
-1
100
AcDbPolyline
90
2
70
0
43
0
10
-1.63632303335
20
29.3921744444
10
-1.12860525555
20
30.8543677778
0
LWPOLYLINE
5
4F
100
AcDbEntity
8
0
6
ByLayer
62
0
370
-1
100
AcDbPolyline
90
2
70
0
43
0
10
-2.66474081115
20
29.3168182889
10
-1.63632303335
20
29.3921744444
0
LWPOLYLINE
5
50
100
AcDbEntity
8
0
6
ByLayer
62
0
370
-1
100
AcDbPolyline
90
2
70
0
43
0
10
-1.12860525555
20
30.8543677778
10
-0.41260747775
20
32.3095027333
0
LWPOLYLINE
5
51
100
AcDbEntity
8
0
6
ByLayer
62
0
370
-1
100
AcDbPolyline
90
2
70
0
43
0
10
-4.30021858885
20
32.0250227333
10
-3.37989192225
20
30.6895471778
0
LWPOLYLINE
5
52
100
AcDbEntity
8
0
6
ByLayer
62
0
370
-1
100
AcDbPolyline
90
2
70
0
43
0
10
0.41261029995
20
32.3095027333
10
1.12860807775
20
30.8543677778
0
LWPOLYLINE
5
53
100
AcDbEntity
8
0
6
ByLayer
62
0
370
-1
100
AcDbPolyline
90
2
70
0
43
0
10
-7.81642525555
20
29.8699738444
10
-6.90908081115
20
28.6160605111
0
LWPOLYLINE
5
54
100
AcDbEntity
8
0
6
ByLayer
62
0
370
-1
100
AcDbPolyline
90
2
70
0
43
0
10
-8.92132525555
20
31.0572827333
10
-7.81642525555
20
29.8699738444
0
LWPOLYLINE
5
55
100
AcDbEntity
8
0
6
ByLayer
62
0
370
-1
100
AcDbPolyline
90
2
70
0
43
0
10
5.11640807775
20
31.9047960667
10
5.61311918885
20
30.3607582889
0
LWPOLYLINE
5
56
100
AcDbEntity
8
0
6
ByLayer
62
0
370
-1
100
AcDbPolyline
90
2
70
0
43
0
10
5.61311918885
20
30.3607582889
10
5.90239696665
20
28.8401449555
0
LWPOLYLINE
5
57
100
AcDbEntity
8
0
6
ByLayer
62
0
370
-1
100
AcDbPolyline
90
2
70
0
43
0
10
-12.0861652556
20
28.4134249555
10
-11.0061008111
20
27.3048560667
0
LWPOLYLINE
5
58
100
AcDbEntity
8
0
6
ByLayer
62
0
370
-1
100
AcDbPolyline
90
2
70
0
43
0
10
-13.3524963667
20
29.4271671778
10
-12.0861652556
20
28.4134249555
0
LWPOLYLINE
5
59
100
AcDbEntity
8
0
6
ByLayer
62
0
370
-1
100
AcDbPolyline
90
2
70
0
43
0
10
9.71155029995
20
30.8196516222
10
9.97796807775
20
29.2197338444
0
LWPOLYLINE
5
5A
100
AcDbEntity
8
0
6
ByLayer
62
0
370
-1
100
AcDbPolyline
90
2
70
0
43
0
10
9.97796807775
20
29.2197338444
10
10.0428791888
20
27.6731560667
0
LWPOLYLINE
5
5B
100
AcDbEntity
8
0
6
ByLayer
62
0
370
-1
100
AcDbPolyline
90
2
70
0
43
0
10
10.0428791888
20
27.6731560667
10
11.0061036333
20
27.3048560667
0
LWPOLYLINE
5
5C
100
AcDbEntity
8
0
6
ByLayer
62
0
370
-1
100
AcDbPolyline
90
2
70
0
43
0
10
13.3524991889
20
29.4271671778
10
14.0995414111
20
29.0769294
0
LWPOLYLINE
5
5D
100
AcDbEntity
8
0
6
ByLayer
62
0
370
-1
100
AcDbPolyline
90
2
70
0
43
0
10
-17.4989052555
20
27.1691071778
10
-16.0985185888
20
26.3503805111
0
LWPOLYLINE
5
5E
100
AcDbEntity
8
0
6
ByLayer
62
0
370
-1
100
AcDbPolyline
90
2
70
0
43
0
10
14.0995414111
20
29.0769294
10
14.1300214112
20
27.4552805111
0
LWPOLYLINE
5
5F
100
AcDbEntity
8
0
6
ByLayer
62
0
370
-1
100
AcDbPolyline
90
2
70
0
43
0
10
14.1300214112
20
27.4552805111
10
13.9691547444
20
25.9157582889
0
LWPOLYLINE
5
60
100
AcDbEntity
8
0
6
ByLayer
62
0
370
-1
100
AcDbPolyline
90
2
70
0
43
0
10
13.9691547444
20
25.9157582889
10
14.8683147445
20
25.4111449555
0
LWPOLYLINE
5
61
100
AcDbEntity
8
0
6
ByLayer
62
0
370
-1
100
AcDbPolyline
90
2
70
0
43
0
10
-17.5976830334
20
23.6054871778
10
-17.9812230333
20
25.1049338444
0
LWPOLYLINE
5
62
100
AcDbEntity
8
0
6
ByLayer
62
0
370
-1
100
AcDbPolyline
90
2
70
0
43
0
10
17.4989080777
20
27.1691071778
10
18.1869658555
20
26.7138827333
0
LWPOLYLINE
5
63
100
AcDbEntity
8
0
6
ByLayer
62
0
370
-1
100
AcDbPolyline
90
2
70
0
43
0
10
-21.2722163666
20
24.3313627333
10
-19.7676897
20
23.7254316222
0
LWPOLYLINE
5
64
100
AcDbEntity
8
0
6
ByLayer
62
0
370
-1
100
AcDbPolyline
90
2
70
0
43
0
10
18.1869658555
20
26.7138827333
10
17.9812258556
20
25.1049338444
0
LWPOLYLINE
5
65
100
AcDbEntity
8
0
6
ByLayer
62
0
370
-1
100
AcDbPolyline
90
2
70
0
43
0
10
17.9812258556
20
25.1049338444
10
17.5976858556
20
23.6054871778
0
LWPOLYLINE
5
66
100
AcDbEntity
8
0
6
ByLayer
62
0
370
-1
100
AcDbPolyline
90
2
70
0
43
0
10
17.5976858556
20
23.6054871778
10
18.4138725222
20
22.9750027333
0
LWPOLYLINE
5
67
100
AcDbEntity
8
0
6
ByLayer
62
0
370
-1
100
AcDbPolyline
90
2
70
0
43
0
10
21.2722191888
20
24.3313627333
10
21.8866169666
20
23.7807471778
0
LWPOLYLINE
5
68
100
AcDbEntity
8
0
6
ByLayer
62
0
370
-1
100
AcDbPolyline
90
2
70
0
43
0
10
21.8866169666
20
23.7807471778
10
21.4488902999
20
22.2189294
0
LWPOLYLINE
5
69
100
AcDbEntity
8
0
6
ByLayer
62
0
370
-1
100
AcDbPolyline
90
2
70
0
43
0
10
21.4488902999
20
22.2189294
10
20.8511436333
20
20.7911671778
0
LWPOLYLINE
5
6A
100
AcDbEntity
8
0
6
ByLayer
62
0
370
-1
100
AcDbPolyline
90
2
70
0
43
0
10
-24.4596341445
20
18.8590738444
10
-25.1200341445
20
20.3404582889
0
LWPOLYLINE
5
6B
100
AcDbEntity
8
0
6
ByLayer
62
0
370
-1
100
AcDbPolyline
90
2
70
0
43
0
10
20.8511436333
20
20.7911671778
10
21.5671414112
20
20.0489227333
0
LWPOLYLINE
5
6C
100
AcDbEntity
8
0
6
ByLayer
62
0
370
-1
100
AcDbPolyline
90
2
70
0
43
0
10
24.5922814112
20
20.9746116222
10
25.1200369666
20
20.3404582889
0
LWPOLYLINE
5
6D
100
AcDbEntity
8
0
6
ByLayer
62
0
370
-1
100
AcDbPolyline
90
2
70
0
43
0
10
25.1200369666
20
20.3404582889
10
24.4596369666
20
18.8590738444
0
LWPOLYLINE
5
6E
100
AcDbEntity
8
0
6
ByLayer
62
0
370
-1
100
AcDbPolyline
90
2
70
0
43
0
10
-27.8180785888
20
16.4658294
10
-27.3882541445
20
17.1699738444
0
LWPOLYLINE
5
6F
100
AcDbEntity
8
0
6
ByLayer
62
0
370
-1
100
AcDbPolyline
90
2
70
0
43
0
10
24.4596369666
20
18.8590738444
10
23.6603836333
20
17.5334760667
0
LWPOLYLINE
5
70
100
AcDbEntity
8
0
6
ByLayer
62
0
370
-1
100
AcDbPolyline
90
2
70
0
43
0
10
23.6603836333
20
17.5334760667
10
24.2603880778
20
16.6947116222
0
LWPOLYLINE
5
71
100
AcDbEntity
8
0
6
ByLayer
62
0
370
-1
100
AcDbPolyline
90
2
70
0
43
0
10
-26.4366008112
20
12.9843360667
10
-25.9652897001
20
13.9012760667
0
LWPOLYLINE
5
72
100
AcDbEntity
8
0
6
ByLayer
62
0
370
-1
100
AcDbPolyline
90
2
70
0
43
0
10
27.3882569666
20
17.1699738444
10
27.8180814111
20
16.4658294
0
LWPOLYLINE
5
73
100
AcDbEntity
8
0
6
ByLayer
62
0
370
-1
100
AcDbPolyline
90
2
70
0
43
0
10
27.8180814111
20
16.4658294
10
26.9488369666
20
15.0964871778
0
LWPOLYLINE
5
74
100
AcDbEntity
8
0
6
ByLayer
62
0
370
-1
100
AcDbPolyline
90
2
70
0
43
0
10
26.9488369666
20
15.0964871778
10
25.9652925222
20
13.9012760667
0
LWPOLYLINE
5
75
100
AcDbEntity
8
0
6
ByLayer
62
0
370
-1
100
AcDbPolyline
90
2
70
0
43
0
10
25.9652925222
20
13.9012760667
10
26.4366036333
20
12.9843360667
0
LWPOLYLINE
5
76
100
AcDbEntity
8
0
6
ByLayer
62
0
370
-1
100
AcDbPolyline
90
2
70
0
43
0
10
-27.7167608111
20
9.97246051111
10
-28.8637119223
20
11.0113205111
0
LWPOLYLINE
5
77
100
AcDbEntity
8
0
6
ByLayer
62
0
370
-1
100
AcDbPolyline
90
2
70
0
43
0
10
29.6005969666
20
12.9990116222
10
29.9231769666
20
12.2395516222
0
LWPOLYLINE
5
78
100
AcDbEntity
8
0
6
ByLayer
62
0
370
-1
100
AcDbPolyline
90
2
70
0
43
0
10
29.9231769666
20
12.2395516222
10
28.8637147445
20
11.0113205111
0
LWPOLYLINE
5
79
100
AcDbEntity
8
0
6
ByLayer
62
0
370
-1
100
AcDbPolyline
90
2
70
0
43
0
10
28.8637147445
20
11.0113205111
10
27.7167636333
20
9.97246051111
0
LWPOLYLINE
5
7A
100
AcDbEntity
8
0
6
ByLayer
62
0
370
-1
100
AcDbPolyline
90
2
70
0
43
0
10
-30.1636274777
20
6.69106273331
10
-31.3904474778
20
7.75221828891
0
LWPOLYLINE
5
7B
100
AcDbEntity
8
0
6
ByLayer
62
0
370
-1
100
AcDbPolyline
90
2
70
0
43
0
10
-28.8772585888
20
5.83028777781
10
-30.1636274777
20
6.69106273331
0
LWPOLYLINE
5
7C
100
AcDbEntity
8
0
6
ByLayer
62
0
370
-1
100
AcDbPolyline
90
2
70
0
43
0
10
29.5926947445
20
8.87489828891
10
31.1818880778
20
8.55034273331
0
LWPOLYLINE
5
7D
100
AcDbEntity
8
0
6
ByLayer
62
0
370
-1
100
AcDbPolyline
90
2
70
0
43
0
10
31.1818880778
20
8.55034273331
10
31.3904503
20
7.75221828891
0
LWPOLYLINE
5
7E
100
AcDbEntity
8
0
6
ByLayer
62
0
370
-1
100
AcDbPolyline
90
2
70
0
43
0
10
31.3904503
20
7.75221828891
10
30.1636303
20
6.69106273331
0
LWPOLYLINE
5
7F
100
AcDbEntity
8
0
6
ByLayer
62
0
370
-1
100
AcDbPolyline
90
2
70
0
43
0
10
30.1636303
20
6.69106273331
10
28.8772614112
20
5.83028777781
0
LWPOLYLINE
5
80
100
AcDbEntity
8
0
6
ByLayer
62
0
370
-1
100
AcDbPolyline
90
2
70
0
43
0
10
28.8772614112
20
5.83028777781
10
29.0646569666
20
4.81597828889
0
LWPOLYLINE
5
81
100
AcDbEntity
8
0
6
ByLayer
62
0
370
-1
100
AcDbPolyline
90
2
70
0
43
0
10
-29.4225119222
20
1.56308777778
10
-30.8203585888
20
2.22772111111
0
LWPOLYLINE
5
82
100
AcDbEntity
8
0
6
ByLayer
62
0
370
-1
100
AcDbPolyline
90
2
70
0
43
0
10
32.0985458556
20
3.91879666667
10
32.1888569667
20
3.09865888889
0
LWPOLYLINE
5
83
100
AcDbEntity
8
0
6
ByLayer
62
0
370
-1
100
AcDbPolyline
90
2
70
0
43
0
10
32.1888569667
20
3.09865888889
10
30.8203614111
20
2.22772111111
0
LWPOLYLINE
5
84
100
AcDbEntity
8
0
6
ByLayer
62
0
370
-1
100
AcDbPolyline
90
2
70
0
43
0
10
30.8203614111
20
2.22772111111
10
29.4225147444
20
1.56308777778
0
LWPOLYLINE
5
85
100
AcDbEntity
8
0
6
ByLayer
62
0
370
-1
100
AcDbPolyline
90
2
70
0
43
0
10
-30.8203585888
20
-2.28388333333
10
-32.3008963666
20
-1.62122555556
0
LWPOLYLINE
5
86
100
AcDbEntity
8
0
6
ByLayer
62
0
370
-1
100
AcDbPolyline
90
2
70
0
43
0
10
29.4225147444
20
1.56308777778
10
29.4603325222
20
0.532694444443
0
LWPOLYLINE
5
87
100
AcDbEntity
8
0
6
ByLayer
62
0
370
-1
100
AcDbPolyline
90
2
70
0
43
0
10
-29.3406674778
20
-2.73769666667
10
-30.8203585888
20
-2.28388333333
0
LWPOLYLINE
5
88
100
AcDbEntity
8
0
6
ByLayer
62
0
370
-1
100
AcDbPolyline
90
2
70
0
43
0
10
29.4603325222
20
0.532694444443
10
30.9030525223
20
-0.028081111107
0
LWPOLYLINE
5
89
100
AcDbEntity
8
0
6
ByLayer
62
0
370
-1
100
AcDbPolyline
90
2
70
0
43
0
10
30.9030525223
20
-0.028081111107
10
32.3310969667
20
-0.796854444447
0
LWPOLYLINE
5
8A
100
AcDbEntity
8
0
6
ByLayer
62
0
370
-1
100
AcDbPolyline
90
2
70
0
43
0
10
32.3310969667
20
-0.796854444447
10
32.3008991889
20
-1.62122555556
0
LWPOLYLINE
5
8B
100
AcDbEntity
8
0
6
ByLayer
62
0
370
-1
100
AcDbPolyline
90
2
70
0
43
0
10
32.3008991889
20
-1.62122555556
10
30.8203614111
20
-2.28388333333
0
LWPOLYLINE
5
8C
100
AcDbEntity
8
0
6
ByLayer
62
0
370
-1
100
AcDbPolyline
90
2
70
0
43
0
10
-31.7248808112
20
-6.30752555556
10
-31.8747408112
20
-5.49613666666
0
LWPOLYLINE
5
8D
100
AcDbEntity
8
0
6
ByLayer
62
0
370
-1
100
AcDbPolyline
90
2
70
0
43
0
10
30.8203614111
20
-2.28388333333
10
29.3406702999
20
-2.73769666667
0
LWPOLYLINE
5
8E
100
AcDbEntity
8
0
6
ByLayer
62
0
370
-1
100
AcDbPolyline
90
2
70
0
43
0
10
-30.1636274777
20
-6.74722777778
10
-31.7248808112
20
-6.30752555556
0
LWPOLYLINE
5
8F
100
AcDbEntity
8
0
6
ByLayer
62
0
370
-1
100
AcDbPolyline
90
2
70
0
43
0
10
-28.6334185889
20
-6.98090777778
10
-30.1636274777
20
-6.74722777778
0
LWPOLYLINE
5
90
100
AcDbEntity
8
0
6
ByLayer
62
0
370
-1
100
AcDbPolyline
90
2
70
0
43
0
10
29.2280636333
20
-3.76272777778
10
30.5736991889
20
-4.52755
0
LWPOLYLINE
5
91
100
AcDbEntity
8
0
6
ByLayer
62
0
370
-1
100
AcDbPolyline
90
2
70
0
43
0
10
-28.3726452555
20
-7.97856418
10
-28.6334185889
20
-6.98090777778
0
LWPOLYLINE
5
92
100
AcDbEntity
8
0
6
ByLayer
62
0
370
-1
100
AcDbPolyline
90
2
70
0
43
0
10
30.5736991889
20
-4.52755
10
31.8747436333
20
-5.49613666666
0
LWPOLYLINE
5
93
100
AcDbEntity
8
0
6
ByLayer
62
0
370
-1
100
AcDbPolyline
90
2
70
0
43
0
10
31.8747436333
20
-5.49613666666
10
31.7248836333
20
-6.30752555556
0
LWPOLYLINE
5
94
100
AcDbEntity
8
0
6
ByLayer
62
0
370
-1
100
AcDbPolyline
90
2
70
0
43
0
10
31.7248836333
20
-6.30752555556
10
30.1636303
20
-6.74722777778
0
LWPOLYLINE
5
95
100
AcDbEntity
8
0
6
ByLayer
62
0
370
-1
100
AcDbPolyline
90
2
70
0
43
0
10
30.1636303
20
-6.74722777778
10
28.6334214111
20
-6.98090777778
0
LWPOLYLINE
5
96
100
AcDbEntity
8
0
6
ByLayer
62
0
370
-1
100
AcDbPolyline
90
2
70
0
43
0
10
-28.8637119223
20
-11.0674864022
10
-30.4723785889
20
-10.8597708467
0
LWPOLYLINE
5
97
100
AcDbEntity
8
0
6
ByLayer
62
0
370
-1
100
AcDbPolyline
90
2
70
0
43
0
10
28.6334214111
20
-6.98090777778
10
28.3726480778
20
-7.97856418
0
LWPOLYLINE
5
98
100
AcDbEntity
8
0
6
ByLayer
62
0
370
-1
100
AcDbPolyline
90
2
70
0
43
0
10
-27.3160052555
20
-11.0759530689
10
-28.8637119223
20
-11.0674864022
0
LWPOLYLINE
5
99
100
AcDbEntity
8
0
6
ByLayer
62
0
370
-1
100
AcDbPolyline
90
2
70
0
43
0
10
28.3726480778
20
-7.97856418
10
29.5926947445
20
-8.93106418
0
LWPOLYLINE
5
9A
100
AcDbEntity
8
0
6
ByLayer
62
0
370
-1
100
AcDbPolyline
90
2
70
0
43
0
10
29.5926947445
20
-8.93106418
10
30.7387991888
20
-10.0788619578
0
LWPOLYLINE
5
9B
100
AcDbEntity
8
0
6
ByLayer
62
0
370
-1
100
AcDbPolyline
90
2
70
0
43
0
10
30.7387991888
20
-10.0788619578
10
30.4723814111
20
-10.8597708467
0
LWPOLYLINE
5
9C
100
AcDbEntity
8
0
6
ByLayer
62
0
370
-1
100
AcDbPolyline
90
2
70
0
43
0
10
30.4723814111
20
-10.8597708467
10
28.8637147445
20
-11.0674864022
0
LWPOLYLINE
5
9D
100
AcDbEntity
8
0
6
ByLayer
62
0
370
-1
100
AcDbPolyline
90
2
70
0
43
0
10
-26.9488341445
20
-15.1526530689
10
-28.5707652556
20
-15.1811575133
0
LWPOLYLINE
5
9E
100
AcDbEntity
8
0
6
ByLayer
62
0
370
-1
100
AcDbPolyline
90
2
70
0
43
0
10
27.3160080777
20
-11.0759530689
10
26.9127125222
20
-12.0250664022
0
LWPOLYLINE
5
9F
100
AcDbEntity
8
0
6
ByLayer
62
0
370
-1
100
AcDbPolyline
90
2
70
0
43
0
10
-25.4163674778
20
-14.9353419578
10
-26.9488341445
20
-15.1526530689
0
LWPOLYLINE
5
A0
100
AcDbEntity
8
0
6
ByLayer
62
0
370
-1
100
AcDbPolyline
90
2
70
0
43
0
10
27.9809236333
20
-13.14492418
10
28.9478169666
20
-14.4473797356
0
LWPOLYLINE
5
A1
100
AcDbEntity
8
0
6
ByLayer
62
0
370
-1
100
AcDbPolyline
90
2
70
0
43
0
10
28.9478169666
20
-14.4473797356
10
28.5707680777
20
-15.1811575133
0
LWPOLYLINE
5
A2
100
AcDbEntity
8
0
6
ByLayer
62
0
370
-1
100
AcDbPolyline
90
2
70
0
43
0
10
28.5707680777
20
-15.1811575133
10
26.9488369666
20
-15.1526530689
0
LWPOLYLINE
5
A3
100
AcDbEntity
8
0
6
ByLayer
62
0
370
-1
100
AcDbPolyline
90
2
70
0
43
0
10
-24.4596341445
20
-18.9152397356
10
-26.0598341444
20
-19.1793997356
0
LWPOLYLINE
5
A4
100
AcDbEntity
8
0
6
ByLayer
62
0
370
-1
100
AcDbPolyline
90
2
70
0
43
0
10
25.4163702999
20
-14.9353419578
10
24.8793014111
20
-15.8155930689
0
LWPOLYLINE
5
A5
100
AcDbEntity
8
0
6
ByLayer
62
0
370
-1
100
AcDbPolyline
90
2
70
0
43
0
10
-22.9748630333
20
-18.4772308467
10
-24.4596341445
20
-18.9152397356
0
LWPOLYLINE
5
A6
100
AcDbEntity
8
0
6
ByLayer
62
0
370
-1
100
AcDbPolyline
90
2
70
0
43
0
10
24.8793014111
20
-15.8155930689
10
25.7730991888
20
-17.07938418
0
LWPOLYLINE
5
A7
100
AcDbEntity
8
0
6
ByLayer
62
0
370
-1
100
AcDbPolyline
90
2
70
0
43
0
10
25.7730991888
20
-17.07938418
10
26.5398969666
20
-18.5085575133
0
LWPOLYLINE
5
A8
100
AcDbEntity
8
0
6
ByLayer
62
0
370
-1
100
AcDbPolyline
90
2
70
0
43
0
10
26.5398969666
20
-18.5085575133
10
26.0598369666
20
-19.1793997356
0
LWPOLYLINE
5
A9
100
AcDbEntity
8
0
6
ByLayer
62
0
370
-1
100
AcDbPolyline
90
2
70
0
43
0
10
26.0598369666
20
-19.1793997356
10
24.4596369666
20
-18.9152397356
0
LWPOLYLINE
5
AA
100
AcDbEntity
8
0
6
ByLayer
62
0
370
-1
100
AcDbPolyline
90
2
70
0
43
0
10
24.4596369666
20
-18.9152397356
10
22.9748658556
20
-18.4772308467
0
LWPOLYLINE
5
AB
100
AcDbEntity
8
0
6
ByLayer
62
0
370
-1
100
AcDbPolyline
90
2
70
0
43
0
10
-21.4488874777
20
-22.2750952911
10
-22.9937719222
20
-22.7698308467
0
LWPOLYLINE
5
AC
100
AcDbEntity
8
0
6
ByLayer
62
0
370
-1
100
AcDbPolyline
90
2
70
0
43
0
10
22.9748658556
20
-18.4772308467
10
22.3153125223
20
-19.2699930689
0
LWPOLYLINE
5
AD
100
AcDbEntity
8
0
6
ByLayer
62
0
370
-1
100
AcDbPolyline
90
2
70
0
43
0
10
-20.0439852555
20
-21.6257019578
10
-21.4488874777
20
-22.2750952911
0
LWPOLYLINE
5
AE
100
AcDbEntity
8
0
6
ByLayer
62
0
370
-1
100
AcDbPolyline
90
2
70
0
43
0
10
22.3153125223
20
-19.2699930689
10
23.0157880777
20
-20.6500597356
0
LWPOLYLINE
5
AF
100
AcDbEntity
8
0
6
ByLayer
62
0
370
-1
100
AcDbPolyline
90
2
70
0
43
0
10
23.0157880777
20
-20.6500597356
10
23.5664036333
20
-22.1757530689
0
LWPOLYLINE
5
B0
100
AcDbEntity
8
0
6
ByLayer
62
0
370
-1
100
AcDbPolyline
90
2
70
0
43
0
10
23.5664036333
20
-22.1757530689
10
22.9937747445
20
-22.7698308467
0
LWPOLYLINE
5
B1
100
AcDbEntity
8
0
6
ByLayer
62
0
370
-1
100
AcDbPolyline
90
2
70
0
43
0
10
22.9937747445
20
-22.7698308467
10
21.4488902999
20
-22.2750952911
0
LWPOLYLINE
5
B2
100
AcDbEntity
8
0
6
ByLayer
62
0
370
-1
100
AcDbPolyline
90
2
70
0
43
0
10
-19.4374897001
20
-25.87540418
10
-20.0905519223
20
-25.3710730689
0
LWPOLYLINE
5
B3
100
AcDbEntity
8
0
6
ByLayer
62
0
370
-1
100
AcDbPolyline
90
2
70
0
43
0
10
21.4488902999
20
-22.2750952911
10
20.0439880778
20
-21.6257019578
0
LWPOLYLINE
5
B4
100
AcDbEntity
8
0
6
ByLayer
62
0
370
-1
100
AcDbPolyline
90
2
70
0
43
0
10
-17.9812230333
20
-25.1610997356
10
-19.4374897001
20
-25.87540418
0
LWPOLYLINE
5
B5
100
AcDbEntity
8
0
6
ByLayer
62
0
370
-1
100
AcDbPolyline
90
2
70
0
43
0
10
20.0439880778
20
-21.6257019578
10
19.2757791888
20
-22.3140419578
0
LWPOLYLINE
5
B6
100
AcDbEntity
8
0
6
ByLayer
62
0
370
-1
100
AcDbPolyline
90
2
70
0
43
0
10
-16.6858230333
20
-24.3141508467
10
-17.9812230333
20
-25.1610997356
0
LWPOLYLINE
5
B7
100
AcDbEntity
8
0
6
ByLayer
62
0
370
-1
100
AcDbPolyline
90
2
70
0
43
0
10
-15.8256097001
20
-24.8831108467
10
-16.6858230333
20
-24.3141508467
0
LWPOLYLINE
5
B8
100
AcDbEntity
8
0
6
ByLayer
62
0
370
-1
100
AcDbPolyline
90
2
70
0
43
0
10
20.0905547444
20
-25.3710730689
10
19.4374925223
20
-25.87540418
0
LWPOLYLINE
5
B9
100
AcDbEntity
8
0
6
ByLayer
62
0
370
-1
100
AcDbPolyline
90
2
70
0
43
0
10
-15.4669052556
20
-28.4300797356
10
-16.1862897001
20
-28.0262197356
0
LWPOLYLINE
5
BA
100
AcDbEntity
8
0
6
ByLayer
62
0
370
-1
100
AcDbPolyline
90
2
70
0
43
0
10
17.9812258556
20
-25.1610997356
10
16.6858258556
20
-24.3141508467
0
LWPOLYLINE
5
BB
100
AcDbEntity
8
0
6
ByLayer
62
0
370
-1
100
AcDbPolyline
90
2
70
0
43
0
10
-14.1300185888
20
-27.5114464022
10
-15.4669052556
20
-28.4300797356
0
LWPOLYLINE
5
BC
100
AcDbEntity
8
0
6
ByLayer
62
0
370
-1
100
AcDbPolyline
90
2
70
0
43
0
10
16.6858258556
20
-24.3141508467
10
15.8256125223
20
-24.8831108467
0
LWPOLYLINE
5
BD
100
AcDbEntity
8
0
6
ByLayer
62
0
370
-1
100
AcDbPolyline
90
2
70
0
43
0
10
-12.9717785889
20
-26.4847219578
10
-14.1300185888
20
-27.5114464022
0
LWPOLYLINE
5
BE
100
AcDbEntity
8
0
6
ByLayer
62
0
370
-1
100
AcDbPolyline
90
2
70
0
43
0
10
15.8256125223
20
-24.8831108467
10
16.0985214111
20
-26.4065464022
0
LWPOLYLINE
5
BF
100
AcDbEntity
8
0
6
ByLayer
62
0
370
-1
100
AcDbPolyline
90
2
70
0
43
0
10
16.0985214111
20
-26.4065464022
10
16.1862925222
20
-28.0262197356
0
LWPOLYLINE
5
C0
100
AcDbEntity
8
0
6
ByLayer
62
0
370
-1
100
AcDbPolyline
90
2
70
0
43
0
10
16.1862925222
20
-28.0262197356
10
15.4669080777
20
-28.4300797356
0
LWPOLYLINE
5
C1
100
AcDbEntity
8
0
6
ByLayer
62
0
370
-1
100
AcDbPolyline
90
2
70
0
43
0
10
-11.1666852556
20
-30.3793886245
10
-11.9371519223
20
-30.0847486245
0
LWPOLYLINE
5
C2
100
AcDbEntity
8
0
6
ByLayer
62
0
370
-1
100
AcDbPolyline
90
2
70
0
43
0
10
-9.97796525555
20
-29.2758997356
10
-11.1666852556
20
-30.3793886245
0
LWPOLYLINE
5
C3
100
AcDbEntity
8
0
6
ByLayer
62
0
370
-1
100
AcDbPolyline
90
2
70
0
43
0
10
12.9717814111
20
-26.4847219578
10
12.0381902999
20
-26.9224486245
0
LWPOLYLINE
5
C4
100
AcDbEntity
8
0
6
ByLayer
62
0
370
-1
100
AcDbPolyline
90
2
70
0
43
0
10
-8.98143858885
20
-28.0914130689
10
-9.97796525555
20
-29.2758997356
0
LWPOLYLINE
5
C5
100
AcDbEntity
8
0
6
ByLayer
62
0
370
-1
100
AcDbPolyline
90
2
70
0
43
0
10
12.0381902999
20
-26.9224486245
10
12.0861680777
20
-28.4695908467
0
LWPOLYLINE
5
C6
100
AcDbEntity
8
0
6
ByLayer
62
0
370
-1
100
AcDbPolyline
90
2
70
0
43
0
10
-7.99394303335
20
-28.3885930689
10
-8.98143858885
20
-28.0914130689
0
LWPOLYLINE
5
C7
100
AcDbEntity
8
0
6
ByLayer
62
0
370
-1
100
AcDbPolyline
90
2
70
0
43
0
10
12.0861680777
20
-28.4695908467
10
11.9371547444
20
-30.0847486245
0
LWPOLYLINE
5
C8
100
AcDbEntity
8
0
6
ByLayer
62
0
370
-1
100
AcDbPolyline
90
2
70
0
43
0
10
11.9371547444
20
-30.0847486245
10
11.1666880777
20
-30.3793886245
0
LWPOLYLINE
5
C9
100
AcDbEntity
8
0
6
ByLayer
62
0
370
-1
100
AcDbPolyline
90
2
70
0
43
0
10
-6.62855192225
20
-31.68184418
10
-7.43373192225
20
-31.5023508467
0
LWPOLYLINE
5
CA
100
AcDbEntity
8
0
6
ByLayer
62
0
370
-1
100
AcDbPolyline
90
2
70
0
43
0
10
-5.61311636665
20
-30.41692418
10
-6.62855192225
20
-31.68184418
0
LWPOLYLINE
5
CB
100
AcDbEntity
8
0
6
ByLayer
62
0
370
-1
100
AcDbPolyline
90
2
70
0
43
0
10
8.98144141115
20
-28.0914130689
10
7.99394585555
20
-28.3885930689
0
LWPOLYLINE
5
CC
100
AcDbEntity
8
0
6
ByLayer
62
0
370
-1
100
AcDbPolyline
90
2
70
0
43
0
10
-4.79975192225
20
-29.1000752911
10
-5.61311636665
20
-30.41692418
0
LWPOLYLINE
5
CD
100
AcDbEntity
8
0
6
ByLayer
62
0
370
-1
100
AcDbPolyline
90
2
70
0
43
0
10
7.99394585555
20
-28.3885930689
10
7.81642807775
20
-29.9261397356
0
LWPOLYLINE
5
CE
100
AcDbEntity
8
0
6
ByLayer
62
0
370
-1
100
AcDbPolyline
90
2
70
0
43
0
10
-3.77951858885
20
-29.2502175133
10
-4.79975192225
20
-29.1000752911
0
LWPOLYLINE
5
CF
100
AcDbEntity
8
0
6
ByLayer
62
0
370
-1
100
AcDbPolyline
90
2
70
0
43
0
10
7.81642807775
20
-29.9261397356
10
7.43373474445
20
-31.5023508467
0
LWPOLYLINE
5
D0
100
AcDbEntity
8
0
6
ByLayer
62
0
370
-1
100
AcDbPolyline
90
2
70
0
43
0
10
-3.37989192225
20
-30.7457130689
10
-3.77951858885
20
-29.2502175133
0
LWPOLYLINE
5
D1
100
AcDbEntity
8
0
6
ByLayer
62
0
370
-1
100
AcDbPolyline
90
2
70
0
43
0
10
7.43373474445
20
-31.5023508467
10
6.62855474445
20
-31.68184418
0
LWPOLYLINE
5
D2
100
AcDbEntity
8
0
6
ByLayer
62
0
370
-1
100
AcDbPolyline
90
2
70
0
43
0
10
-2.77198525555
20
-32.2493930689
10
-3.37989192225
20
-30.7457130689
0
LWPOLYLINE
5
D3
100
AcDbEntity
8
0
6
ByLayer
62
0
370
-1
100
AcDbPolyline
90
2
70
0
43
0
10
-1.94902525555
20
-32.3095064022
10
-2.77198525555
20
-32.2493930689
0
LWPOLYLINE
5
D4
100
AcDbEntity
8
0
6
ByLayer
62
0
370
-1
100
AcDbPolyline
90
2
70
0
43
0
10
-1.12860525555
20
-30.9105308467
10
-1.94902525555
20
-32.3095064022
0
LWPOLYLINE
5
D5
100
AcDbEntity
8
0
6
ByLayer
62
0
370
-1
100
AcDbPolyline
90
2
70
0
43
0
10
4.79975474445
20
-29.1000752911
10
3.77952141115
20
-29.2502175133
0
LWPOLYLINE
5
D6
100
AcDbEntity
8
0
6
ByLayer
62
0
370
-1
100
AcDbPolyline
90
2
70
0
43
0
10
-0.51561858885
20
-29.4892597356
10
-1.12860525555
20
-30.9105308467
0
LWPOLYLINE
5
D7
100
AcDbEntity
8
0
6
ByLayer
62
0
370
-1
100
AcDbPolyline
90
2
70
0
43
0
10
3.77952141115
20
-29.2502175133
10
3.37989474445
20
-30.7457130689
0
LWPOLYLINE
5
D8
100
AcDbEntity
8
0
6
ByLayer
62
0
370
-1
100
AcDbPolyline
90
2
70
0
43
0
10
0.51562141115
20
-29.4892597356
10
-0.51561858885
20
-29.4892597356
0
LWPOLYLINE
5
D9
100
AcDbEntity
8
0
6
ByLayer
62
0
370
-1
100
AcDbPolyline
90
2
70
0
43
0
10
2.77198807775
20
-32.2493930689
10
1.94902807775
20
-32.3095064022
0
LWPOLYLINE
5
DA
100
AcDbEntity
8
0
6
ByLayer
62
0
370
-1
100
AcDbPolyline
90
2
70
0
43
0
10
-7.00439572225
20
4.04399044444
10
1.41115000218e-06
20
8.08797806671
0
LWPOLYLINE
5
DB
100
AcDbEntity
8
0
6
ByLayer
62
0
370
-1
100
AcDbPolyline
90
2
70
0
43
0
10
-7.00439572225
20
-4.04399044444
10
-7.00439572225
20
4.04399044444
0
LWPOLYLINE
5
DC
100
AcDbEntity
8
0
6
ByLayer
62
0
370
-1
100
AcDbPolyline
90
2
70
0
43
0
10
-3.37989192225
20
30.6895471778
10
-2.66474081115
20
29.3168182889
0
LWPOLYLINE
5
DD
100
AcDbEntity
8
0
6
ByLayer
62
0
370
-1
100
AcDbPolyline
90
2
70
0
43
0
10
-0.41260747775
20
32.3095027333
10
0.41261029995
20
32.3095027333
0
LWPOLYLINE
5
DE
100
AcDbEntity
8
0
6
ByLayer
62
0
370
-1
100
AcDbPolyline
90
2
70
0
43
0
10
-4.30021858885
20
32.0250227333
10
-3.37989192225
20
30.6895471778
0
LWPOLYLINE
5
DF
100
AcDbEntity
8
0
6
ByLayer
62
0
370
-1
100
AcDbPolyline
90
2
70
0
43
0
10
0.41261029995
20
32.3095027333
10
1.12860807775
20
30.8543677778
0
LWPOLYLINE
5
E0
100
AcDbEntity
8
0
6
ByLayer
62
0
370
-1
100
AcDbPolyline
90
2
70
0
43
0
10
-5.11640525555
20
31.9047960667
10
-4.30021858885
20
32.0250227333
0
LWPOLYLINE
5
E1
100
AcDbEntity
8
0
6
ByLayer
62
0
370
-1
100
AcDbPolyline
90
2
70
0
43
0
10
1.12860807775
20
30.8543677778
10
1.63632585555
20
29.3921744444
0
LWPOLYLINE
5
E2
100
AcDbEntity
8
0
6
ByLayer
62
0
370
-1
100
AcDbPolyline
90
2
70
0
43
0
10
-5.61311636665
20
30.3607582889
10
-5.11640525555
20
31.9047960667
0
LWPOLYLINE
5
E3
100
AcDbEntity
8
0
6
ByLayer
62
0
370
-1
100
AcDbPolyline
90
2
70
0
43
0
10
1.63632585555
20
29.3921744444
10
2.66474363335
20
29.3168182889
0
LWPOLYLINE
5
E4
100
AcDbEntity
8
0
6
ByLayer
62
0
370
-1
100
AcDbPolyline
90
2
70
0
43
0
10
-5.90239414445
20
28.8401449555
10
-5.61311636665
20
30.3607582889
0
LWPOLYLINE
5
E5
100
AcDbEntity
8
0
6
ByLayer
62
0
370
-1
100
AcDbPolyline
90
2
70
0
43
0
10
2.66474363335
20
29.3168182889
10
3.37989474445
20
30.6895471778
0
LWPOLYLINE
5
E6
100
AcDbEntity
8
0
6
ByLayer
62
0
370
-1
100
AcDbPolyline
90
2
70
0
43
0
10
-6.90908081115
20
28.6160605111
10
-5.90239414445
20
28.8401449555
0
LWPOLYLINE
5
E7
100
AcDbEntity
8
0
6
ByLayer
62
0
370
-1
100
AcDbPolyline
90
2
70
0
43
0
10
3.37989474445
20
30.6895471778
10
4.30022141115
20
32.0250227333
0
LWPOLYLINE
5
E8
100
AcDbEntity
8
0
6
ByLayer
62
0
370
-1
100
AcDbPolyline
90
2
70
0
43
0
10
-7.81642525555
20
29.8699738444
10
-6.90908081115
20
28.6160605111
0
LWPOLYLINE
5
E9
100
AcDbEntity
8
0
6
ByLayer
62
0
370
-1
100
AcDbPolyline
90
2
70
0
43
0
10
4.30022141115
20
32.0250227333
10
5.11640807775
20
31.9047960667
0
LWPOLYLINE
5
EA
100
AcDbEntity
8
0
6
ByLayer
62
0
370
-1
100
AcDbPolyline
90
2
70
0
43
0
10
-8.92132525555
20
31.0572827333
10
-7.81642525555
20
29.8699738444
0
LWPOLYLINE
5
EB
100
AcDbEntity
8
0
6
ByLayer
62
0
370
-1
100
AcDbPolyline
90
2
70
0
43
0
10
5.11640807775
20
31.9047960667
10
5.61311918885
20
30.3607582889
0
LWPOLYLINE
5
EC
100
AcDbEntity
8
0
6
ByLayer
62
0
370
-1
100
AcDbPolyline
90
2
70
0
43
0
10
-9.71154747775
20
30.8196516222
10
-8.92132525555
20
31.0572827333
0
LWPOLYLINE
5
ED
100
AcDbEntity
8
0
6
ByLayer
62
0
370
-1
100
AcDbPolyline
90
2
70
0
43
0
10
5.61311918885
20
30.3607582889
10
5.90239696665
20
28.8401449555
0
LWPOLYLINE
5
EE
100
AcDbEntity
8
0
6
ByLayer
62
0
370
-1
100
AcDbPolyline
90
2
70
0
43
0
10
-9.97796525555
20
29.2197338444
10
-9.71154747775
20
30.8196516222
0
LWPOLYLINE
5
EF
100
AcDbEntity
8
0
6
ByLayer
62
0
370
-1
100
AcDbPolyline
90
2
70
0
43
0
10
5.90239696665
20
28.8401449555
10
6.90908363335
20
28.6160605111
0
LWPOLYLINE
5
F0
100
AcDbEntity
8
0
6
ByLayer
62
0
370
-1
100
AcDbPolyline
90
2
70
0
43
0
10
-10.0428763666
20
27.6731560667
10
-9.97796525555
20
29.2197338444
0
LWPOLYLINE
5
F1
100
AcDbEntity
8
0
6
ByLayer
62
0
370
-1
100
AcDbPolyline
90
2
70
0
43
0
10
6.90908363335
20
28.6160605111
10
7.81642807775
20
29.8699738444
0
LWPOLYLINE
5
F2
100
AcDbEntity
8
0
6
ByLayer
62
0
370
-1
100
AcDbPolyline
90
2
70
0
43
0
10
-11.0061008111
20
27.3048560667
10
-10.0428763666
20
27.6731560667
0
LWPOLYLINE
5
F3
100
AcDbEntity
8
0
6
ByLayer
62
0
370
-1
100
AcDbPolyline
90
2
70
0
43
0
10
7.81642807775
20
29.8699738444
10
8.92132807775
20
31.0572827333
0
LWPOLYLINE
5
F4
100
AcDbEntity
8
0
6
ByLayer
62
0
370
-1
100
AcDbPolyline
90
2
70
0
43
0
10
-12.0861652556
20
28.4134249555
10
-11.0061008111
20
27.3048560667
0
LWPOLYLINE
5
F5
100
AcDbEntity
8
0
6
ByLayer
62
0
370
-1
100
AcDbPolyline
90
2
70
0
43
0
10
8.92132807775
20
31.0572827333
10
9.71155029995
20
30.8196516222
0
LWPOLYLINE
5
F6
100
AcDbEntity
8
0
6
ByLayer
62
0
370
-1
100
AcDbPolyline
90
2
70
0
43
0
10
-13.3524963667
20
29.4271671778
10
-12.0861652556
20
28.4134249555
0
LWPOLYLINE
5
F7
100
AcDbEntity
8
0
6
ByLayer
62
0
370
-1
100
AcDbPolyline
90
2
70
0
43
0
10
9.71155029995
20
30.8196516222
10
9.97796807775
20
29.2197338444
0
LWPOLYLINE
5
F8
100
AcDbEntity
8
0
6
ByLayer
62
0
370
-1
100
AcDbPolyline
90
2
70
0
43
0
10
-14.0995385889
20
29.0769294
10
-13.3524963667
20
29.4271671778
0
LWPOLYLINE
5
F9
100
AcDbEntity
8
0
6
ByLayer
62
0
370
-1
100
AcDbPolyline
90
2
70
0
43
0
10
9.97796807775
20
29.2197338444
10
10.0428791888
20
27.6731560667
0
LWPOLYLINE
5
FA
100
AcDbEntity
8
0
6
ByLayer
62
0
370
-1
100
AcDbPolyline
90
2
70
0
43
0
10
-14.1300185888
20
27.4552805111
10
-14.0995385889
20
29.0769294
0
LWPOLYLINE
5
FB
100
AcDbEntity
8
0
6
ByLayer
62
0
370
-1
100
AcDbPolyline
90
2
70
0
43
0
10
10.0428791888
20
27.6731560667
10
11.0061036333
20
27.3048560667
0
LWPOLYLINE
5
FC
100
AcDbEntity
8
0
6
ByLayer
62
0
370
-1
100
AcDbPolyline
90
2
70
0
43
0
10
-13.9691519222
20
25.9157582889
10
-14.1300185888
20
27.4552805111
0
LWPOLYLINE
5
FD
100
AcDbEntity
8
0
6
ByLayer
62
0
370
-1
100
AcDbPolyline
90
2
70
0
43
0
10
11.0061036333
20
27.3048560667
10
12.0861680777
20
28.4134249555
0
LWPOLYLINE
5
FE
100
AcDbEntity
8
0
6
ByLayer
62
0
370
-1
100
AcDbPolyline
90
2
70
0
43
0
10
-14.8683119223
20
25.4111449555
10
-13.9691519222
20
25.9157582889
0
LWPOLYLINE
5
FF
100
AcDbEntity
8
0
6
ByLayer
62
0
370
-1
100
AcDbPolyline
90
2
70
0
43
0
10
12.0861680777
20
28.4134249555
10
13.3524991889
20
29.4271671778
0
LWPOLYLINE
5
100
100
AcDbEntity
8
0
6
ByLayer
62
0
370
-1
100
AcDbPolyline
90
2
70
0
43
0
10
-16.0985185888
20
26.3503805111
10
-14.8683119223
20
25.4111449555
0
LWPOLYLINE
5
101
100
AcDbEntity
8
0
6
ByLayer
62
0
370
-1
100
AcDbPolyline
90
2
70
0
43
0
10
13.3524991889
20
29.4271671778
10
14.0995414111
20
29.0769294
0
LWPOLYLINE
5
102
100
AcDbEntity
8
0
6
ByLayer
62
0
370
-1
100
AcDbPolyline
90
2
70
0
43
0
10
-17.4989052555
20
27.1691071778
10
-16.0985185888
20
26.3503805111
0
LWPOLYLINE
5
103
100
AcDbEntity
8
0
6
ByLayer
62
0
370
-1
100
AcDbPolyline
90
2
70
0
43
0
10
14.0995414111
20
29.0769294
10
14.1300214112
20
27.4552805111
0
LWPOLYLINE
5
104
100
AcDbEntity
8
0
6
ByLayer
62
0
370
-1
100
AcDbPolyline
90
2
70
0
43
0
10
-18.1869630334
20
26.7138827333
10
-17.4989052555
20
27.1691071778
0
LWPOLYLINE
5
105
100
AcDbEntity
8
0
6
ByLayer
62
0
370
-1
100
AcDbPolyline
90
2
70
0
43
0
10
14.1300214112
20
27.4552805111
10
13.9691547444
20
25.9157582889
0
LWPOLYLINE
5
106
100
AcDbEntity
8
0
6
ByLayer
62
0
370
-1
100
AcDbPolyline
90
2
70
0
43
0
10
-17.9812230333
20
25.1049338444
10
-18.1869630334
20
26.7138827333
0
LWPOLYLINE
5
107
100
AcDbEntity
8
0
6
ByLayer
62
0
370
-1
100
AcDbPolyline
90
2
70
0
43
0
10
13.9691547444
20
25.9157582889
10
14.8683147445
20
25.4111449555
0
LWPOLYLINE
5
108
100
AcDbEntity
8
0
6
ByLayer
62
0
370
-1
100
AcDbPolyline
90
2
70
0
43
0
10
-17.5976830334
20
23.6054871778
10
-17.9812230333
20
25.1049338444
0
LWPOLYLINE
5
109
100
AcDbEntity
8
0
6
ByLayer
62
0
370
-1
100
AcDbPolyline
90
2
70
0
43
0
10
14.8683147445
20
25.4111449555
10
16.0985214111
20
26.3503805111
0
LWPOLYLINE
5
10A
100
AcDbEntity
8
0
6
ByLayer
62
0
370
-1
100
AcDbPolyline
90
2
70
0
43
0
10
-18.4138697001
20
22.9750027333
10
-17.5976830334
20
23.6054871778
0
LWPOLYLINE
5
10B
100
AcDbEntity
8
0
6
ByLayer
62
0
370
-1
100
AcDbPolyline
90
2
70
0
43
0
10
16.0985214111
20
26.3503805111
10
17.4989080777
20
27.1691071778
0
LWPOLYLINE
5
10C
100
AcDbEntity
8
0
6
ByLayer
62
0
370
-1
100
AcDbPolyline
90
2
70
0
43
0
10
-19.7676897
20
23.7254316222
10
-18.4138697001
20
22.9750027333
0
LWPOLYLINE
5
10D
100
AcDbEntity
8
0
6
ByLayer
62
0
370
-1
100
AcDbPolyline
90
2
70
0
43
0
10
17.4989080777
20
27.1691071778
10
18.1869658555
20
26.7138827333
0
LWPOLYLINE
5
10E
100
AcDbEntity
8
0
6
ByLayer
62
0
370
-1
100
AcDbPolyline
90
2
70
0
43
0
10
-21.2722163666
20
24.3313627333
10
-19.7676897
20
23.7254316222
0
LWPOLYLINE
5
10F
100
AcDbEntity
8
0
6
ByLayer
62
0
370
-1
100
AcDbPolyline
90
2
70
0
43
0
10
18.1869658555
20
26.7138827333
10
17.9812258556
20
25.1049338444
0
LWPOLYLINE
5
110
100
AcDbEntity
8
0
6
ByLayer
62
0
370
-1
100
AcDbPolyline
90
2
70
0
43
0
10
-21.8866141445
20
23.7807471778
10
-21.2722163666
20
24.3313627333
0
LWPOLYLINE
5
111
100
AcDbEntity
8
0
6
ByLayer
62
0
370
-1
100
AcDbPolyline
90
2
70
0
43
0
10
17.9812258556
20
25.1049338444
10
17.5976858556
20
23.6054871778
0
LWPOLYLINE
5
112
100
AcDbEntity
8
0
6
ByLayer
62
0
370
-1
100
AcDbPolyline
90
2
70
0
43
0
10
-21.4488874777
20
22.2189294
10
-21.8866141445
20
23.7807471778
0
LWPOLYLINE
5
113
100
AcDbEntity
8
0
6
ByLayer
62
0
370
-1
100
AcDbPolyline
90
2
70
0
43
0
10
17.5976858556
20
23.6054871778
10
18.4138725222
20
22.9750027333
0
LWPOLYLINE
5
114
100
AcDbEntity
8
0
6
ByLayer
62
0
370
-1
100
AcDbPolyline
90
2
70
0
43
0
10
-20.8511408112
20
20.7911671778
10
-21.4488874777
20
22.2189294
0
LWPOLYLINE
5
115
100
AcDbEntity
8
0
6
ByLayer
62
0
370
-1
100
AcDbPolyline
90
2
70
0
43
0
10
18.4138725222
20
22.9750027333
10
19.7676925222
20
23.7254316222
0
LWPOLYLINE
5
116
100
AcDbEntity
8
0
6
ByLayer
62
0
370
-1
100
AcDbPolyline
90
2
70
0
43
0
10
-21.5671385888
20
20.0489227333
10
-20.8511408112
20
20.7911671778
0
LWPOLYLINE
5
117
100
AcDbEntity
8
0
6
ByLayer
62
0
370
-1
100
AcDbPolyline
90
2
70
0
43
0
10
19.7676925222
20
23.7254316222
10
21.2722191888
20
24.3313627333
0
LWPOLYLINE
5
118
100
AcDbEntity
8
0
6
ByLayer
62
0
370
-1
100
AcDbPolyline
90
2
70
0
43
0
10
-23.0157852555
20
20.5938938444
10
-21.5671385888
20
20.0489227333
0
LWPOLYLINE
5
119
100
AcDbEntity
8
0
6
ByLayer
62
0
370
-1
100
AcDbPolyline
90
2
70
0
43
0
10
21.2722191888
20
24.3313627333
10
21.8866169666
20
23.7807471778
0
LWPOLYLINE
5
11A
100
AcDbEntity
8
0
6
ByLayer
62
0
370
-1
100
AcDbPolyline
90
2
70
0
43
0
10
-24.5922785889
20
20.9746116222
10
-23.0157852555
20
20.5938938444
0
LWPOLYLINE
5
11B
100
AcDbEntity
8
0
6
ByLayer
62
0
370
-1
100
AcDbPolyline
90
2
70
0
43
0
10
21.8866169666
20
23.7807471778
10
21.4488902999
20
22.2189294
0
LWPOLYLINE
5
11C
100
AcDbEntity
8
0
6
ByLayer
62
0
370
-1
100
AcDbPolyline
90
2
70
0
43
0
10
-25.1200341445
20
20.3404582889
10
-24.5922785889
20
20.9746116222
0
LWPOLYLINE
5
11D
100
AcDbEntity
8
0
6
ByLayer
62
0
370
-1
100
AcDbPolyline
90
2
70
0
43
0
10
21.4488902999
20
22.2189294
10
20.8511436333
20
20.7911671778
0
LWPOLYLINE
5
11E
100
AcDbEntity
8
0
6
ByLayer
62
0
370
-1
100
AcDbPolyline
90
2
70
0
43
0
10
-24.4596341445
20
18.8590738444
10
-25.1200341445
20
20.3404582889
0
LWPOLYLINE
5
11F
100
AcDbEntity
8
0
6
ByLayer
62
0
370
-1
100
AcDbPolyline
90
2
70
0
43
0
10
20.8511436333
20
20.7911671778
10
21.5671414112
20
20.0489227333
0
LWPOLYLINE
5
120
100
AcDbEntity
8
0
6
ByLayer
62
0
370
-1
100
AcDbPolyline
90
2
70
0
43
0
10
-23.6603808112
20
17.5334760667
10
-24.4596341445
20
18.8590738444
0
LWPOLYLINE
5
121
100
AcDbEntity
8
0
6
ByLayer
62
0
370
-1
100
AcDbPolyline
90
2
70
0
43
0
10
21.5671414112
20
20.0489227333
10
23.0157880777
20
20.5938938444
0
LWPOLYLINE
5
122
100
AcDbEntity
8
0
6
ByLayer
62
0
370
-1
100
AcDbPolyline
90
2
70
0
43
0
10
-24.2603852556
20
16.6947116222
10
-23.6603808112
20
17.5334760667
0
LWPOLYLINE
5
123
100
AcDbEntity
8
0
6
ByLayer
62
0
370
-1
100
AcDbPolyline
90
2
70
0
43
0
10
23.0157880777
20
20.5938938444
10
24.5922814112
20
20.9746116222
0
LWPOLYLINE
5
124
100
AcDbEntity
8
0
6
ByLayer
62
0
370
-1
100
AcDbPolyline
90
2
70
0
43
0
10
-25.7730963666
20
17.0232182889
10
-24.2603852556
20
16.6947116222
0
LWPOLYLINE
5
125
100
AcDbEntity
8
0
6
ByLayer
62
0
370
-1
100
AcDbPolyline
90
2
70
0
43
0
10
24.5922814112
20
20.9746116222
10
25.1200369666
20
20.3404582889
0
LWPOLYLINE
5
126
100
AcDbEntity
8
0
6
ByLayer
62
0
370
-1
100
AcDbPolyline
90
2
70
0
43
0
10
-27.3882541445
20
17.1699738444
10
-25.7730963666
20
17.0232182889
0
LWPOLYLINE
5
127
100
AcDbEntity
8
0
6
ByLayer
62
0
370
-1
100
AcDbPolyline
90
2
70
0
43
0
10
25.1200369666
20
20.3404582889
10
24.4596369666
20
18.8590738444
0
LWPOLYLINE
5
128
100
AcDbEntity
8
0
6
ByLayer
62
0
370
-1
100
AcDbPolyline
90
2
70
0
43
0
10
-27.8180785888
20
16.4658294
10
-27.3882541445
20
17.1699738444
0
LWPOLYLINE
5
129
100
AcDbEntity
8
0
6
ByLayer
62
0
370
-1
100
AcDbPolyline
90
2
70
0
43
0
10
24.4596369666
20
18.8590738444
10
23.6603836333
20
17.5334760667
0
LWPOLYLINE
5
12A
100
AcDbEntity
8
0
6
ByLayer
62
0
370
-1
100
AcDbPolyline
90
2
70
0
43
0
10
-26.9488341445
20
15.0964871778
10
-27.8180785888
20
16.4658294
0
LWPOLYLINE
5
12B
100
AcDbEntity
8
0
6
ByLayer
62
0
370
-1
100
AcDbPolyline
90
2
70
0
43
0
10
23.6603836333
20
17.5334760667
10
24.2603880778
20
16.6947116222
0
LWPOLYLINE
5
12C
100
AcDbEntity
8
0
6
ByLayer
62
0
370
-1
100
AcDbPolyline
90
2
70
0
43
0
10
-25.9652897001
20
13.9012760667
10
-26.9488341445
20
15.0964871778
0
LWPOLYLINE
5
12D
100
AcDbEntity
8
0
6
ByLayer
62
0
370
-1
100
AcDbPolyline
90
2
70
0
43
0
10
24.2603880778
20
16.6947116222
10
25.7730991888
20
17.0232182889
0
LWPOLYLINE
5
12E
100
AcDbEntity
8
0
6
ByLayer
62
0
370
-1
100
AcDbPolyline
90
2
70
0
43
0
10
-26.4366008112
20
12.9843360667
10
-25.9652897001
20
13.9012760667
0
LWPOLYLINE
5
12F
100
AcDbEntity
8
0
6
ByLayer
62
0
370
-1
100
AcDbPolyline
90
2
70
0
43
0
10
25.7730991888
20
17.0232182889
10
27.3882569666
20
17.1699738444
0
LWPOLYLINE
5
130
100
AcDbEntity
8
0
6
ByLayer
62
0
370
-1
100
AcDbPolyline
90
2
70
0
43
0
10
-27.9809208111
20
13.0887582889
10
-26.4366008112
20
12.9843360667
0
LWPOLYLINE
5
131
100
AcDbEntity
8
0
6
ByLayer
62
0
370
-1
100
AcDbPolyline
90
2
70
0
43
0
10
27.3882569666
20
17.1699738444
10
27.8180814111
20
16.4658294
0
LWPOLYLINE
5
132
100
AcDbEntity
8
0
6
ByLayer
62
0
370
-1
100
AcDbPolyline
90
2
70
0
43
0
10
-29.6005941444
20
12.9990116222
10
-27.9809208111
20
13.0887582889
0
LWPOLYLINE
5
133
100
AcDbEntity
8
0
6
ByLayer
62
0
370
-1
100
AcDbPolyline
90
2
70
0
43
0
10
27.8180814111
20
16.4658294
10
26.9488369666
20
15.0964871778
0
LWPOLYLINE
5
134
100
AcDbEntity
8
0
6
ByLayer
62
0
370
-1
100
AcDbPolyline
90
2
70
0
43
0
10
-29.9231741445
20
12.2395516222
10
-29.6005941444
20
12.9990116222
0
LWPOLYLINE
5
135
100
AcDbEntity
8
0
6
ByLayer
62
0
370
-1
100
AcDbPolyline
90
2
70
0
43
0
10
26.9488369666
20
15.0964871778
10
25.9652925222
20
13.9012760667
0
LWPOLYLINE
5
136
100
AcDbEntity
8
0
6
ByLayer
62
0
370
-1
100
AcDbPolyline
90
2
70
0
43
0
10
-28.8637119223
20
11.0113205111
10
-29.9231741445
20
12.2395516222
0
LWPOLYLINE
5
137
100
AcDbEntity
8
0
6
ByLayer
62
0
370
-1
100
AcDbPolyline
90
2
70
0
43
0
10
25.9652925222
20
13.9012760667
10
26.4366036333
20
12.9843360667
0
LWPOLYLINE
5
138
100
AcDbEntity
8
0
6
ByLayer
62
0
370
-1
100
AcDbPolyline
90
2
70
0
43
0
10
-27.7167608111
20
9.97246051111
10
-28.8637119223
20
11.0113205111
0
LWPOLYLINE
5
139
100
AcDbEntity
8
0
6
ByLayer
62
0
370
-1
100
AcDbPolyline
90
2
70
0
43
0
10
26.4366036333
20
12.9843360667
10
27.9809236333
20
13.0887582889
0
LWPOLYLINE
5
13A
100
AcDbEntity
8
0
6
ByLayer
62
0
370
-1
100
AcDbPolyline
90
2
70
0
43
0
10
-28.0495008111
20
8.99625384441
10
-27.7167608111
20
9.97246051111
0
LWPOLYLINE
5
13B
100
AcDbEntity
8
0
6
ByLayer
62
0
370
-1
100
AcDbPolyline
90
2
70
0
43
0
10
27.9809236333
20
13.0887582889
10
29.6005969666
20
12.9990116222
0
LWPOLYLINE
5
13C
100
AcDbEntity
8
0
6
ByLayer
62
0
370
-1
100
AcDbPolyline
90
2
70
0
43
0
10
-29.5926919222
20
8.87489828891
10
-28.0495008111
20
8.99625384441
0
LWPOLYLINE
5
13D
100
AcDbEntity
8
0
6
ByLayer
62
0
370
-1
100
AcDbPolyline
90
2
70
0
43
0
10
29.6005969666
20
12.9990116222
10
29.9231769666
20
12.2395516222
0
LWPOLYLINE
5
13E
100
AcDbEntity
8
0
6
ByLayer
62
0
370
-1
100
AcDbPolyline
90
2
70
0
43
0
10
-31.1818852556
20
8.55034273331
10
-29.5926919222
20
8.87489828891
0
LWPOLYLINE
5
13F
100
AcDbEntity
8
0
6
ByLayer
62
0
370
-1
100
AcDbPolyline
90
2
70
0
43
0
10
29.9231769666
20
12.2395516222
10
28.8637147445
20
11.0113205111
0
LWPOLYLINE
5
140
100
AcDbEntity
8
0
6
ByLayer
62
0
370
-1
100
AcDbPolyline
90
2
70
0
43
0
10
-31.3904474778
20
7.75221828891
10
-31.1818852556
20
8.55034273331
0
LWPOLYLINE
5
141
100
AcDbEntity
8
0
6
ByLayer
62
0
370
-1
100
AcDbPolyline
90
2
70
0
43
0
10
28.8637147445
20
11.0113205111
10
27.7167636333
20
9.97246051111
0
LWPOLYLINE
5
142
100
AcDbEntity
8
0
6
ByLayer
62
0
370
-1
100
AcDbPolyline
90
2
70
0
43
0
10
-30.1636274777
20
6.69106273331
10
-31.3904474778
20
7.75221828891
0
LWPOLYLINE
5
143
100
AcDbEntity
8
0
6
ByLayer
62
0
370
-1
100
AcDbPolyline
90
2
70
0
43
0
10
27.7167636333
20
9.97246051111
10
28.0495036333
20
8.99625384441
0
LWPOLYLINE
5
144
100
AcDbEntity
8
0
6
ByLayer
62
0
370
-1
100
AcDbPolyline
90
2
70
0
43
0
10
-28.8772585888
20
5.83028777781
10
-30.1636274777
20
6.69106273331
0
LWPOLYLINE
5
145
100
AcDbEntity
8
0
6
ByLayer
62
0
370
-1
100
AcDbPolyline
90
2
70
0
43
0
10
28.0495036333
20
8.99625384441
10
29.5926947445
20
8.87489828891
0
LWPOLYLINE
5
146
100
AcDbEntity
8
0
6
ByLayer
62
0
370
-1
100
AcDbPolyline
90
2
70
0
43
0
10
-29.0646541445
20
4.81597828889
10
-28.8772585888
20
5.83028777781
0
LWPOLYLINE
5
147
100
AcDbEntity
8
0
6
ByLayer
62
0
370
-1
100
AcDbPolyline
90
2
70
0
43
0
10
29.5926947445
20
8.87489828891
10
31.1818880778
20
8.55034273331
0
LWPOLYLINE
5
148
100
AcDbEntity
8
0
6
ByLayer
62
0
370
-1
100
AcDbPolyline
90
2
70
0
43
0
10
-30.5736963666
20
4.47138495555
10
-29.0646541445
20
4.81597828889
0
LWPOLYLINE
5
149
100
AcDbEntity
8
0
6
ByLayer
62
0
370
-1
100
AcDbPolyline
90
2
70
0
43
0
10
31.1818880778
20
8.55034273331
10
31.3904503
20
7.75221828891
0
LWPOLYLINE
5
14A
100
AcDbEntity
8
0
6
ByLayer
62
0
370
-1
100
AcDbPolyline
90
2
70
0
43
0
10
-32.0985430333
20
3.91879666667
10
-30.5736963666
20
4.47138495555
0
LWPOLYLINE
5
14B
100
AcDbEntity
8
0
6
ByLayer
62
0
370
-1
100
AcDbPolyline
90
2
70
0
43
0
10
31.3904503
20
7.75221828891
10
30.1636303
20
6.69106273331
0
LWPOLYLINE
5
14C
100
AcDbEntity
8
0
6
ByLayer
62
0
370
-1
100
AcDbPolyline
90
2
70
0
43
0
10
-32.1888541445
20
3.09865888889
10
-32.0985430333
20
3.91879666667
0
LWPOLYLINE
5
14D
100
AcDbEntity
8
0
6
ByLayer
62
0
370
-1
100
AcDbPolyline
90
2
70
0
43
0
10
30.1636303
20
6.69106273331
10
28.8772614112
20
5.83028777781
0
LWPOLYLINE
5
14E
100
AcDbEntity
8
0
6
ByLayer
62
0
370
-1
100
AcDbPolyline
90
2
70
0
43
0
10
-30.8203585888
20
2.22772111111
10
-32.1888541445
20
3.09865888889
0
LWPOLYLINE
5
14F
100
AcDbEntity
8
0
6
ByLayer
62
0
370
-1
100
AcDbPolyline
90
2
70
0
43
0
10
28.8772614112
20
5.83028777781
10
29.0646569666
20
4.81597828889
0
LWPOLYLINE
5
150
100
AcDbEntity
8
0
6
ByLayer
62
0
370
-1
100
AcDbPolyline
90
2
70
0
43
0
10
-29.4225119222
20
1.56308777778
10
-30.8203585888
20
2.22772111111
0
LWPOLYLINE
5
151
100
AcDbEntity
8
0
6
ByLayer
62
0
370
-1
100
AcDbPolyline
90
2
70
0
43
0
10
29.0646569666
20
4.81597828889
10
30.5736991889
20
4.47138495555
0
LWPOLYLINE
5
152
100
AcDbEntity
8
0
6
ByLayer
62
0
370
-1
100
AcDbPolyline
90
2
70
0
43
0
10
-29.4603297
20
0.532694444443
10
-29.4225119222
20
1.56308777778
0
LWPOLYLINE
5
153
100
AcDbEntity
8
0
6
ByLayer
62
0
370
-1
100
AcDbPolyline
90
2
70
0
43
0
10
30.5736991889
20
4.47138495555
10
32.0985458556
20
3.91879666667
0
LWPOLYLINE
5
154
100
AcDbEntity
8
0
6
ByLayer
62
0
370
-1
100
AcDbPolyline
90
2
70
0
43
0
10
-30.9030497001
20
-0.028081111107
10
-29.4603297
20
0.532694444443
0
LWPOLYLINE
5
155
100
AcDbEntity
8
0
6
ByLayer
62
0
370
-1
100
AcDbPolyline
90
2
70
0
43
0
10
32.0985458556
20
3.91879666667
10
32.1888569667
20
3.09865888889
0
LWPOLYLINE
5
156
100
AcDbEntity
8
0
6
ByLayer
62
0
370
-1
100
AcDbPolyline
90
2
70
0
43
0
10
-32.3310941445
20
-0.796854444447
10
-30.9030497001
20
-0.028081111107
0
LWPOLYLINE
5
157
100
AcDbEntity
8
0
6
ByLayer
62
0
370
-1
100
AcDbPolyline
90
2
70
0
43
0
10
32.1888569667
20
3.09865888889
10
30.8203614111
20
2.22772111111
0
LWPOLYLINE
5
158
100
AcDbEntity
8
0
6
ByLayer
62
0
370
-1
100
AcDbPolyline
90
2
70
0
43
0
10
-32.3008963666
20
-1.62122555556
10
-32.3310941445
20
-0.796854444447
0
LWPOLYLINE
5
159
100
AcDbEntity
8
0
6
ByLayer
62
0
370
-1
100
AcDbPolyline
90
2
70
0
43
0
10
30.8203614111
20
2.22772111111
10
29.4225147444
20
1.56308777778
0
LWPOLYLINE
5
15A
100
AcDbEntity
8
0
6
ByLayer
62
0
370
-1
100
AcDbPolyline
90
2
70
0
43
0
10
-30.8203585888
20
-2.28388333333
10
-32.3008963666
20
-1.62122555556
0
LWPOLYLINE
5
15B
100
AcDbEntity
8
0
6
ByLayer
62
0
370
-1
100
AcDbPolyline
90
2
70
0
43
0
10
29.4225147444
20
1.56308777778
10
29.4603325222
20
0.532694444443
0
LWPOLYLINE
5
15C
100
AcDbEntity
8
0
6
ByLayer
62
0
370
-1
100
AcDbPolyline
90
2
70
0
43
0
10
-29.3406674778
20
-2.73769666667
10
-30.8203585888
20
-2.28388333333
0
LWPOLYLINE
5
15D
100
AcDbEntity
8
0
6
ByLayer
62
0
370
-1
100
AcDbPolyline
90
2
70
0
43
0
10
29.4603325222
20
0.532694444443
10
30.9030525223
20
-0.028081111107
0
LWPOLYLINE
5
15E
100
AcDbEntity
8
0
6
ByLayer
62
0
370
-1
100
AcDbPolyline
90
2
70
0
43
0
10
-29.2280608112
20
-3.76272777778
10
-29.3406674778
20
-2.73769666667
0
LWPOLYLINE
5
15F
100
AcDbEntity
8
0
6
ByLayer
62
0
370
-1
100
AcDbPolyline
90
2
70
0
43
0
10
30.9030525223
20
-0.028081111107
10
32.3310969667
20
-0.796854444447
0
LWPOLYLINE
5
160
100
AcDbEntity
8
0
6
ByLayer
62
0
370
-1
100
AcDbPolyline
90
2
70
0
43
0
10
-30.5736963666
20
-4.52755
10
-29.2280608112
20
-3.76272777778
0
LWPOLYLINE
5
161
100
AcDbEntity
8
0
6
ByLayer
62
0
370
-1
100
AcDbPolyline
90
2
70
0
43
0
10
32.3310969667
20
-0.796854444447
10
32.3008991889
20
-1.62122555556
0
LWPOLYLINE
5
162
100
AcDbEntity
8
0
6
ByLayer
62
0
370
-1
100
AcDbPolyline
90
2
70
0
43
0
10
-31.8747408112
20
-5.49613666666
10
-30.5736963666
20
-4.52755
0
LWPOLYLINE
5
163
100
AcDbEntity
8
0
6
ByLayer
62
0
370
-1
100
AcDbPolyline
90
2
70
0
43
0
10
32.3008991889
20
-1.62122555556
10
30.8203614111
20
-2.28388333333
0
LWPOLYLINE
5
164
100
AcDbEntity
8
0
6
ByLayer
62
0
370
-1
100
AcDbPolyline
90
2
70
0
43
0
10
-31.7248808112
20
-6.30752555556
10
-31.8747408112
20
-5.49613666666
0
LWPOLYLINE
5
165
100
AcDbEntity
8
0
6
ByLayer
62
0
370
-1
100
AcDbPolyline
90
2
70
0
43
0
10
30.8203614111
20
-2.28388333333
10
29.3406702999
20
-2.73769666667
0
LWPOLYLINE
5
166
100
AcDbEntity
8
0
6
ByLayer
62
0
370
-1
100
AcDbPolyline
90
2
70
0
43
0
10
-30.1636274777
20
-6.74722777778
10
-31.7248808112
20
-6.30752555556
0
LWPOLYLINE
5
167
100
AcDbEntity
8
0
6
ByLayer
62
0
370
-1
100
AcDbPolyline
90
2
70
0
43
0
10
29.3406702999
20
-2.73769666667
10
29.2280636333
20
-3.76272777778
0
LWPOLYLINE
5
168
100
AcDbEntity
8
0
6
ByLayer
62
0
370
-1
100
AcDbPolyline
90
2
70
0
43
0
10
-28.6334185889
20
-6.98090777778
10
-30.1636274777
20
-6.74722777778
0
LWPOLYLINE
5
169
100
AcDbEntity
8
0
6
ByLayer
62
0
370
-1
100
AcDbPolyline
90
2
70
0
43
0
10
29.2280636333
20
-3.76272777778
10
30.5736991889
20
-4.52755
0
LWPOLYLINE
5
16A
100
AcDbEntity
8
0
6
ByLayer
62
0
370
-1
100
AcDbPolyline
90
2
70
0
43
0
10
-28.3726452555
20
-7.97856418
10
-28.6334185889
20
-6.98090777778
0
LWPOLYLINE
5
16B
100
AcDbEntity
8
0
6
ByLayer
62
0
370
-1
100
AcDbPolyline
90
2
70
0
43
0
10
30.5736991889
20
-4.52755
10
31.8747436333
20
-5.49613666666
0
LWPOLYLINE
5
16C
100
AcDbEntity
8
0
6
ByLayer
62
0
370
-1
100
AcDbPolyline
90
2
70
0
43
0
10
-29.5926919222
20
-8.93106418
10
-28.3726452555
20
-7.97856418
0
LWPOLYLINE
5
16D
100
AcDbEntity
8
0
6
ByLayer
62
0
370
-1
100
AcDbPolyline
90
2
70
0
43
0
10
31.8747436333
20
-5.49613666666
10
31.7248836333
20
-6.30752555556
0
LWPOLYLINE
5
16E
100
AcDbEntity
8
0
6
ByLayer
62
0
370
-1
100
AcDbPolyline
90
2
70
0
43
0
10
-30.7387963667
20
-10.0788619578
10
-29.5926919222
20
-8.93106418
0
LWPOLYLINE
5
16F
100
AcDbEntity
8
0
6
ByLayer
62
0
370
-1
100
AcDbPolyline
90
2
70
0
43
0
10
31.7248836333
20
-6.30752555556
10
30.1636303
20
-6.74722777778
0
LWPOLYLINE
5
170
100
AcDbEntity
8
0
6
ByLayer
62
0
370
-1
100
AcDbPolyline
90
2
70
0
43
0
10
-30.4723785889
20
-10.8597708467
10
-30.7387963667
20
-10.0788619578
0
LWPOLYLINE
5
171
100
AcDbEntity
8
0
6
ByLayer
62
0
370
-1
100
AcDbPolyline
90
2
70
0
43
0
10
30.1636303
20
-6.74722777778
10
28.6334214111
20
-6.98090777778
0
LWPOLYLINE
5
172
100
AcDbEntity
8
0
6
ByLayer
62
0
370
-1
100
AcDbPolyline
90
2
70
0
43
0
10
-28.8637119223
20
-11.0674864022
10
-30.4723785889
20
-10.8597708467
0
LWPOLYLINE
5
173
100
AcDbEntity
8
0
6
ByLayer
62
0
370
-1
100
AcDbPolyline
90
2
70
0
43
0
10
28.6334214111
20
-6.98090777778
10
28.3726480778
20
-7.97856418
0
LWPOLYLINE
5
174
100
AcDbEntity
8
0
6
ByLayer
62
0
370
-1
100
AcDbPolyline
90
2
70
0
43
0
10
-27.3160052555
20
-11.0759530689
10
-28.8637119223
20
-11.0674864022
0
LWPOLYLINE
5
175
100
AcDbEntity
8
0
6
ByLayer
62
0
370
-1
100
AcDbPolyline
90
2
70
0
43
0
10
28.3726480778
20
-7.97856418
10
29.5926947445
20
-8.93106418
0
LWPOLYLINE
5
176
100
AcDbEntity
8
0
6
ByLayer
62
0
370
-1
100
AcDbPolyline
90
2
70
0
43
0
10
-26.9127097001
20
-12.0250664022
10
-27.3160052555
20
-11.0759530689
0
LWPOLYLINE
5
177
100
AcDbEntity
8
0
6
ByLayer
62
0
370
-1
100
AcDbPolyline
90
2
70
0
43
0
10
29.5926947445
20
-8.93106418
10
30.7387991888
20
-10.0788619578
0
LWPOLYLINE
5
178
100
AcDbEntity
8
0
6
ByLayer
62
0
370
-1
100
AcDbPolyline
90
2
70
0
43
0
10
-27.9809208111
20
-13.14492418
10
-26.9127097001
20
-12.0250664022
0
LWPOLYLINE
5
179
100
AcDbEntity
8
0
6
ByLayer
62
0
370
-1
100
AcDbPolyline
90
2
70
0
43
0
10
30.7387991888
20
-10.0788619578
10
30.4723814111
20
-10.8597708467
0
LWPOLYLINE
5
17A
100
AcDbEntity
8
0
6
ByLayer
62
0
370
-1
100
AcDbPolyline
90
2
70
0
43
0
10
-28.9478141445
20
-14.4473797356
10
-27.9809208111
20
-13.14492418
0
LWPOLYLINE
5
17B
100
AcDbEntity
8
0
6
ByLayer
62
0
370
-1
100
AcDbPolyline
90
2
70
0
43
0
10
30.4723814111
20
-10.8597708467
10
28.8637147445
20
-11.0674864022
0
LWPOLYLINE
5
17C
100
AcDbEntity
8
0
6
ByLayer
62
0
370
-1
100
AcDbPolyline
90
2
70
0
43
0
10
-28.5707652556
20
-15.1811575133
10
-28.9478141445
20
-14.4473797356
0
LWPOLYLINE
5
17D
100
AcDbEntity
8
0
6
ByLayer
62
0
370
-1
100
AcDbPolyline
90
2
70
0
43
0
10
28.8637147445
20
-11.0674864022
10
27.3160080777
20
-11.0759530689
0
LWPOLYLINE
5
17E
100
AcDbEntity
8
0
6
ByLayer
62
0
370
-1
100
AcDbPolyline
90
2
70
0
43
0
10
-26.9488341445
20
-15.1526530689
10
-28.5707652556
20
-15.1811575133
0
LWPOLYLINE
5
17F
100
AcDbEntity
8
0
6
ByLayer
62
0
370
-1
100
AcDbPolyline
90
2
70
0
43
0
10
27.3160080777
20
-11.0759530689
10
26.9127125222
20
-12.0250664022
0
LWPOLYLINE
5
180
100
AcDbEntity
8
0
6
ByLayer
62
0
370
-1
100
AcDbPolyline
90
2
70
0
43
0
10
-25.4163674778
20
-14.9353419578
10
-26.9488341445
20
-15.1526530689
0
LWPOLYLINE
5
181
100
AcDbEntity
8
0
6
ByLayer
62
0
370
-1
100
AcDbPolyline
90
2
70
0
43
0
10
26.9127125222
20
-12.0250664022
10
27.9809236333
20
-13.14492418
0
LWPOLYLINE
5
182
100
AcDbEntity
8
0
6
ByLayer
62
0
370
-1
100
AcDbPolyline
90
2
70
0
43
0
10
-24.8792985889
20
-15.8155930689
10
-25.4163674778
20
-14.9353419578
0
LWPOLYLINE
5
183
100
AcDbEntity
8
0
6
ByLayer
62
0
370
-1
100
AcDbPolyline
90
2
70
0
43
0
10
27.9809236333
20
-13.14492418
10
28.9478169666
20
-14.4473797356
0
LWPOLYLINE
5
184
100
AcDbEntity
8
0
6
ByLayer
62
0
370
-1
100
AcDbPolyline
90
2
70
0
43
0
10
-25.7730963666
20
-17.07938418
10
-24.8792985889
20
-15.8155930689
0
LWPOLYLINE
5
185
100
AcDbEntity
8
0
6
ByLayer
62
0
370
-1
100
AcDbPolyline
90
2
70
0
43
0
10
28.9478169666
20
-14.4473797356
10
28.5707680777
20
-15.1811575133
0
LWPOLYLINE
5
186
100
AcDbEntity
8
0
6
ByLayer
62
0
370
-1
100
AcDbPolyline
90
2
70
0
43
0
10
-26.5398941445
20
-18.5085575133
10
-25.7730963666
20
-17.07938418
0
LWPOLYLINE
5
187
100
AcDbEntity
8
0
6
ByLayer
62
0
370
-1
100
AcDbPolyline
90
2
70
0
43
0
10
28.5707680777
20
-15.1811575133
10
26.9488369666
20
-15.1526530689
0
LWPOLYLINE
5
188
100
AcDbEntity
8
0
6
ByLayer
62
0
370
-1
100
AcDbPolyline
90
2
70
0
43
0
10
-26.0598341444
20
-19.1793997356
10
-26.5398941445
20
-18.5085575133
0
LWPOLYLINE
5
189
100
AcDbEntity
8
0
6
ByLayer
62
0
370
-1
100
AcDbPolyline
90
2
70
0
43
0
10
26.9488369666
20
-15.1526530689
10
25.4163702999
20
-14.9353419578
0
LWPOLYLINE
5
18A
100
AcDbEntity
8
0
6
ByLayer
62
0
370
-1
100
AcDbPolyline
90
2
70
0
43
0
10
-24.4596341445
20
-18.9152397356
10
-26.0598341444
20
-19.1793997356
0
LWPOLYLINE
5
18B
100
AcDbEntity
8
0
6
ByLayer
62
0
370
-1
100
AcDbPolyline
90
2
70
0
43
0
10
25.4163702999
20
-14.9353419578
10
24.8793014111
20
-15.8155930689
0
LWPOLYLINE
5
18C
100
AcDbEntity
8
0
6
ByLayer
62
0
370
-1
100
AcDbPolyline
90
2
70
0
43
0
10
-22.9748630333
20
-18.4772308467
10
-24.4596341445
20
-18.9152397356
0
LWPOLYLINE
5
18D
100
AcDbEntity
8
0
6
ByLayer
62
0
370
-1
100
AcDbPolyline
90
2
70
0
43
0
10
24.8793014111
20
-15.8155930689
10
25.7730991888
20
-17.07938418
0
LWPOLYLINE
5
18E
100
AcDbEntity
8
0
6
ByLayer
62
0
370
-1
100
AcDbPolyline
90
2
70
0
43
0
10
-22.3153097001
20
-19.2699930689
10
-22.9748630333
20
-18.4772308467
0
LWPOLYLINE
5
18F
100
AcDbEntity
8
0
6
ByLayer
62
0
370
-1
100
AcDbPolyline
90
2
70
0
43
0
10
25.7730991888
20
-17.07938418
10
26.5398969666
20
-18.5085575133
0
LWPOLYLINE
5
190
100
AcDbEntity
8
0
6
ByLayer
62
0
370
-1
100
AcDbPolyline
90
2
70
0
43
0
10
-23.0157852555
20
-20.6500597356
10
-22.3153097001
20
-19.2699930689
0
LWPOLYLINE
5
191
100
AcDbEntity
8
0
6
ByLayer
62
0
370
-1
100
AcDbPolyline
90
2
70
0
43
0
10
26.5398969666
20
-18.5085575133
10
26.0598369666
20
-19.1793997356
0
LWPOLYLINE
5
192
100
AcDbEntity
8
0
6
ByLayer
62
0
370
-1
100
AcDbPolyline
90
2
70
0
43
0
10
-23.5664008112
20
-22.1757530689
10
-23.0157852555
20
-20.6500597356
0
LWPOLYLINE
5
193
100
AcDbEntity
8
0
6
ByLayer
62
0
370
-1
100
AcDbPolyline
90
2
70
0
43
0
10
26.0598369666
20
-19.1793997356
10
24.4596369666
20
-18.9152397356
0
LWPOLYLINE
5
194
100
AcDbEntity
8
0
6
ByLayer
62
0
370
-1
100
AcDbPolyline
90
2
70
0
43
0
10
-22.9937719222
20
-22.7698308467
10
-23.5664008112
20
-22.1757530689
0
LWPOLYLINE
5
195
100
AcDbEntity
8
0
6
ByLayer
62
0
370
-1
100
AcDbPolyline
90
2
70
0
43
0
10
24.4596369666
20
-18.9152397356
10
22.9748658556
20
-18.4772308467
0
LWPOLYLINE
5
196
100
AcDbEntity
8
0
6
ByLayer
62
0
370
-1
100
AcDbPolyline
90
2
70
0
43
0
10
-21.4488874777
20
-22.2750952911
10
-22.9937719222
20
-22.7698308467
0
LWPOLYLINE
5
197
100
AcDbEntity
8
0
6
ByLayer
62
0
370
-1
100
AcDbPolyline
90
2
70
0
43
0
10
22.9748658556
20
-18.4772308467
10
22.3153125223
20
-19.2699930689
0
LWPOLYLINE
5
198
100
AcDbEntity
8
0
6
ByLayer
62
0
370
-1
100
AcDbPolyline
90
2
70
0
43
0
10
-20.0439852555
20
-21.6257019578
10
-21.4488874777
20
-22.2750952911
0
LWPOLYLINE
5
199
100
AcDbEntity
8
0
6
ByLayer
62
0
370
-1
100
AcDbPolyline
90
2
70
0
43
0
10
22.3153125223
20
-19.2699930689
10
23.0157880777
20
-20.6500597356
0
LWPOLYLINE
5
19A
100
AcDbEntity
8
0
6
ByLayer
62
0
370
-1
100
AcDbPolyline
90
2
70
0
43
0
10
-19.2757763666
20
-22.3140419578
10
-20.0439852555
20
-21.6257019578
0
LWPOLYLINE
5
19B
100
AcDbEntity
8
0
6
ByLayer
62
0
370
-1
100
AcDbPolyline
90
2
70
0
43
0
10
23.0157880777
20
-20.6500597356
10
23.5664036333
20
-22.1757530689
0
LWPOLYLINE
5
19C
100
AcDbEntity
8
0
6
ByLayer
62
0
370
-1
100
AcDbPolyline
90
2
70
0
43
0
10
-19.7676897
20
-23.7815975133
10
-19.2757763666
20
-22.3140419578
0
LWPOLYLINE
5
19D
100
AcDbEntity
8
0
6
ByLayer
62
0
370
-1
100
AcDbPolyline
90
2
70
0
43
0
10
23.5664036333
20
-22.1757530689
10
22.9937747445
20
-22.7698308467
0
LWPOLYLINE
5
19E
100
AcDbEntity
8
0
6
ByLayer
62
0
370
-1
100
AcDbPolyline
90
2
70
0
43
0
10
-20.0905519223
20
-25.3710730689
10
-19.7676897
20
-23.7815975133
0
LWPOLYLINE
5
19F
100
AcDbEntity
8
0
6
ByLayer
62
0
370
-1
100
AcDbPolyline
90
2
70
0
43
0
10
22.9937747445
20
-22.7698308467
10
21.4488902999
20
-22.2750952911
0
LWPOLYLINE
5
1A0
100
AcDbEntity
8
0
6
ByLayer
62
0
370
-1
100
AcDbPolyline
90
2
70
0
43
0
10
-19.4374897001
20
-25.87540418
10
-20.0905519223
20
-25.3710730689
0
LWPOLYLINE
5
1A1
100
AcDbEntity
8
0
6
ByLayer
62
0
370
-1
100
AcDbPolyline
90
2
70
0
43
0
10
21.4488902999
20
-22.2750952911
10
20.0439880778
20
-21.6257019578
0
LWPOLYLINE
5
1A2
100
AcDbEntity
8
0
6
ByLayer
62
0
370
-1
100
AcDbPolyline
90
2
70
0
43
0
10
-17.9812230333
20
-25.1610997356
10
-19.4374897001
20
-25.87540418
0
LWPOLYLINE
5
1A3
100
AcDbEntity
8
0
6
ByLayer
62
0
370
-1
100
AcDbPolyline
90
2
70
0
43
0
10
20.0439880778
20
-21.6257019578
10
19.2757791888
20
-22.3140419578
0
LWPOLYLINE
5
1A4
100
AcDbEntity
8
0
6
ByLayer
62
0
370
-1
100
AcDbPolyline
90
2
70
0
43
0
10
-16.6858230333
20
-24.3141508467
10
-17.9812230333
20
-25.1610997356
0
LWPOLYLINE
5
1A5
100
AcDbEntity
8
0
6
ByLayer
62
0
370
-1
100
AcDbPolyline
90
2
70
0
43
0
10
19.2757791888
20
-22.3140419578
10
19.7676925222
20
-23.7815975133
0
LWPOLYLINE
5
1A6
100
AcDbEntity
8
0
6
ByLayer
62
0
370
-1
100
AcDbPolyline
90
2
70
0
43
0
10
-15.8256097001
20
-24.8831108467
10
-16.6858230333
20
-24.3141508467
0
LWPOLYLINE
5
1A7
100
AcDbEntity
8
0
6
ByLayer
62
0
370
-1
100
AcDbPolyline
90
2
70
0
43
0
10
19.7676925222
20
-23.7815975133
10
20.0905547444
20
-25.3710730689
0
LWPOLYLINE
5
1A8
100
AcDbEntity
8
0
6
ByLayer
62
0
370
-1
100
AcDbPolyline
90
2
70
0
43
0
10
-16.0985185888
20
-26.4065464022
10
-15.8256097001
20
-24.8831108467
0
LWPOLYLINE
5
1A9
100
AcDbEntity
8
0
6
ByLayer
62
0
370
-1
100
AcDbPolyline
90
2
70
0
43
0
10
20.0905547444
20
-25.3710730689
10
19.4374925223
20
-25.87540418
0
LWPOLYLINE
5
1AA
100
AcDbEntity
8
0
6
ByLayer
62
0
370
-1
100
AcDbPolyline
90
2
70
0
43
0
10
-16.1862897001
20
-28.0262197356
10
-16.0985185888
20
-26.4065464022
0
LWPOLYLINE
5
1AB
100
AcDbEntity
8
0
6
ByLayer
62
0
370
-1
100
AcDbPolyline
90
2
70
0
43
0
10
19.4374925223
20
-25.87540418
10
17.9812258556
20
-25.1610997356
0
LWPOLYLINE
5
1AC
100
AcDbEntity
8
0
6
ByLayer
62
0
370
-1
100
AcDbPolyline
90
2
70
0
43
0
10
-15.4669052556
20
-28.4300797356
10
-16.1862897001
20
-28.0262197356
0
LWPOLYLINE
5
1AD
100
AcDbEntity
8
0
6
ByLayer
62
0
370
-1
100
AcDbPolyline
90
2
70
0
43
0
10
17.9812258556
20
-25.1610997356
10
16.6858258556
20
-24.3141508467
0
LWPOLYLINE
5
1AE
100
AcDbEntity
8
0
6
ByLayer
62
0
370
-1
100
AcDbPolyline
90
2
70
0
43
0
10
-14.1300185888
20
-27.5114464022
10
-15.4669052556
20
-28.4300797356
0
LWPOLYLINE
5
1AF
100
AcDbEntity
8
0
6
ByLayer
62
0
370
-1
100
AcDbPolyline
90
2
70
0
43
0
10
16.6858258556
20
-24.3141508467
10
15.8256125223
20
-24.8831108467
0
LWPOLYLINE
5
1B0
100
AcDbEntity
8
0
6
ByLayer
62
0
370
-1
100
AcDbPolyline
90
2
70
0
43
0
10
-12.9717785889
20
-26.4847219578
10
-14.1300185888
20
-27.5114464022
0
LWPOLYLINE
5
1B1
100
AcDbEntity
8
0
6
ByLayer
62
0
370
-1
100
AcDbPolyline
90
2
70
0
43
0
10
15.8256125223
20
-24.8831108467
10
16.0985214111
20
-26.4065464022
0
LWPOLYLINE
5
1B2
100
AcDbEntity
8
0
6
ByLayer
62
0
370
-1
100
AcDbPolyline
90
2
70
0
43
0
10
-12.0381874778
20
-26.9224486245
10
-12.9717785889
20
-26.4847219578
0
LWPOLYLINE
5
1B3
100
AcDbEntity
8
0
6
ByLayer
62
0
370
-1
100
AcDbPolyline
90
2
70
0
43
0
10
16.0985214111
20
-26.4065464022
10
16.1862925222
20
-28.0262197356
0
LWPOLYLINE
5
1B4
100
AcDbEntity
8
0
6
ByLayer
62
0
370
-1
100
AcDbPolyline
90
2
70
0
43
0
10
-12.0861652556
20
-28.4695908467
10
-12.0381874778
20
-26.9224486245
0
LWPOLYLINE
5
1B5
100
AcDbEntity
8
0
6
ByLayer
62
0
370
-1
100
AcDbPolyline
90
2
70
0
43
0
10
16.1862925222
20
-28.0262197356
10
15.4669080777
20
-28.4300797356
0
LWPOLYLINE
5
1B6
100
AcDbEntity
8
0
6
ByLayer
62
0
370
-1
100
AcDbPolyline
90
2
70
0
43
0
10
-11.9371519223
20
-30.0847486245
10
-12.0861652556
20
-28.4695908467
0
LWPOLYLINE
5
1B7
100
AcDbEntity
8
0
6
ByLayer
62
0
370
-1
100
AcDbPolyline
90
2
70
0
43
0
10
15.4669080777
20
-28.4300797356
10
14.1300214112
20
-27.5114464022
0
LWPOLYLINE
5
1B8
100
AcDbEntity
8
0
6
ByLayer
62
0
370
-1
100
AcDbPolyline
90
2
70
0
43
0
10
-11.1666852556
20
-30.3793886245
10
-11.9371519223
20
-30.0847486245
0
LWPOLYLINE
5
1B9
100
AcDbEntity
8
0
6
ByLayer
62
0
370
-1
100
AcDbPolyline
90
2
70
0
43
0
10
14.1300214112
20
-27.5114464022
10
12.9717814111
20
-26.4847219578
0
LWPOLYLINE
5
1BA
100
AcDbEntity
8
0
6
ByLayer
62
0
370
-1
100
AcDbPolyline
90
2
70
0
43
0
10
-9.97796525555
20
-29.2758997356
10
-11.1666852556
20
-30.3793886245
0
LWPOLYLINE
5
1BB
100
AcDbEntity
8
0
6
ByLayer
62
0
370
-1
100
AcDbPolyline
90
2
70
0
43
0
10
12.9717814111
20
-26.4847219578
10
12.0381902999
20
-26.9224486245
0
LWPOLYLINE
5
1BC
100
AcDbEntity
8
0
6
ByLayer
62
0
370
-1
100
AcDbPolyline
90
2
70
0
43
0
10
-8.98143858885
20
-28.0914130689
10
-9.97796525555
20
-29.2758997356
0
LWPOLYLINE
5
1BD
100
AcDbEntity
8
0
6
ByLayer
62
0
370
-1
100
AcDbPolyline
90
2
70
0
43
0
10
12.0381902999
20
-26.9224486245
10
12.0861680777
20
-28.4695908467
0
LWPOLYLINE
5
1BE
100
AcDbEntity
8
0
6
ByLayer
62
0
370
-1
100
AcDbPolyline
90
2
70
0
43
0
10
-7.99394303335
20
-28.3885930689
10
-8.98143858885
20
-28.0914130689
0
LWPOLYLINE
5
1BF
100
AcDbEntity
8
0
6
ByLayer
62
0
370
-1
100
AcDbPolyline
90
2
70
0
43
0
10
12.0861680777
20
-28.4695908467
10
11.9371547444
20
-30.0847486245
0
LWPOLYLINE
5
1C0
100
AcDbEntity
8
0
6
ByLayer
62
0
370
-1
100
AcDbPolyline
90
2
70
0
43
0
10
-7.81642525555
20
-29.9261397356
10
-7.99394303335
20
-28.3885930689
0
LWPOLYLINE
5
1C1
100
AcDbEntity
8
0
6
ByLayer
62
0
370
-1
100
AcDbPolyline
90
2
70
0
43
0
10
11.9371547444
20
-30.0847486245
10
11.1666880777
20
-30.3793886245
0
LWPOLYLINE
5
1C2
100
AcDbEntity
8
0
6
ByLayer
62
0
370
-1
100
AcDbPolyline
90
2
70
0
43
0
10
-7.43373192225
20
-31.5023508467
10
-7.81642525555
20
-29.9261397356
0
LWPOLYLINE
5
1C3
100
AcDbEntity
8
0
6
ByLayer
62
0
370
-1
100
AcDbPolyline
90
2
70
0
43
0
10
11.1666880777
20
-30.3793886245
10
9.97796807775
20
-29.2758997356
0
LWPOLYLINE
5
1C4
100
AcDbEntity
8
0
6
ByLayer
62
0
370
-1
100
AcDbPolyline
90
2
70
0
43
0
10
-6.62855192225
20
-31.68184418
10
-7.43373192225
20
-31.5023508467
0
LWPOLYLINE
5
1C5
100
AcDbEntity
8
0
6
ByLayer
62
0
370
-1
100
AcDbPolyline
90
2
70
0
43
0
10
9.97796807775
20
-29.2758997356
10
8.98144141115
20
-28.0914130689
0
LWPOLYLINE
5
1C6
100
AcDbEntity
8
0
6
ByLayer
62
0
370
-1
100
AcDbPolyline
90
2
70
0
43
0
10
-5.61311636665
20
-30.41692418
10
-6.62855192225
20
-31.68184418
0
LWPOLYLINE
5
1C7
100
AcDbEntity
8
0
6
ByLayer
62
0
370
-1
100
AcDbPolyline
90
2
70
0
43
0
10
8.98144141115
20
-28.0914130689
10
7.99394585555
20
-28.3885930689
0
LWPOLYLINE
5
1C8
100
AcDbEntity
8
0
6
ByLayer
62
0
370
-1
100
AcDbPolyline
90
2
70
0
43
0
10
-4.79975192225
20
-29.1000752911
10
-5.61311636665
20
-30.41692418
0
LWPOLYLINE
5
1C9
100
AcDbEntity
8
0
6
ByLayer
62
0
370
-1
100
AcDbPolyline
90
2
70
0
43
0
10
7.99394585555
20
-28.3885930689
10
7.81642807775
20
-29.9261397356
0
LWPOLYLINE
5
1CA
100
AcDbEntity
8
0
6
ByLayer
62
0
370
-1
100
AcDbPolyline
90
2
70
0
43
0
10
-3.77951858885
20
-29.2502175133
10
-4.79975192225
20
-29.1000752911
0
LWPOLYLINE
5
1CB
100
AcDbEntity
8
0
6
ByLayer
62
0
370
-1
100
AcDbPolyline
90
2
70
0
43
0
10
7.81642807775
20
-29.9261397356
10
7.43373474445
20
-31.5023508467
0
LWPOLYLINE
5
1CC
100
AcDbEntity
8
0
6
ByLayer
62
0
370
-1
100
AcDbPolyline
90
2
70
0
43
0
10
-3.37989192225
20
-30.7457130689
10
-3.77951858885
20
-29.2502175133
0
LWPOLYLINE
5
1CD
100
AcDbEntity
8
0
6
ByLayer
62
0
370
-1
100
AcDbPolyline
90
2
70
0
43
0
10
7.43373474445
20
-31.5023508467
10
6.62855474445
20
-31.68184418
0
LWPOLYLINE
5
1CE
100
AcDbEntity
8
0
6
ByLayer
62
0
370
-1
100
AcDbPolyline
90
2
70
0
43
0
10
-2.77198525555
20
-32.2493930689
10
-3.37989192225
20
-30.7457130689
0
LWPOLYLINE
5
1CF
100
AcDbEntity
8
0
6
ByLayer
62
0
370
-1
100
AcDbPolyline
90
2
70
0
43
0
10
6.62855474445
20
-31.68184418
10
5.61311918885
20
-30.41692418
0
LWPOLYLINE
5
1D0
100
AcDbEntity
8
0
6
ByLayer
62
0
370
-1
100
AcDbPolyline
90
2
70
0
43
0
10
-1.94902525555
20
-32.3095064022
10
-2.77198525555
20
-32.2493930689
0
LWPOLYLINE
5
1D1
100
AcDbEntity
8
0
6
ByLayer
62
0
370
-1
100
AcDbPolyline
90
2
70
0
43
0
10
5.61311918885
20
-30.41692418
10
4.79975474445
20
-29.1000752911
0
LWPOLYLINE
5
1D2
100
AcDbEntity
8
0
6
ByLayer
62
0
370
-1
100
AcDbPolyline
90
2
70
0
43
0
10
-1.12860525555
20
-30.9105308467
10
-1.94902525555
20
-32.3095064022
0
LWPOLYLINE
5
1D3
100
AcDbEntity
8
0
6
ByLayer
62
0
370
-1
100
AcDbPolyline
90
2
70
0
43
0
10
4.79975474445
20
-29.1000752911
10
3.77952141115
20
-29.2502175133
0
LWPOLYLINE
5
1D4
100
AcDbEntity
8
0
6
ByLayer
62
0
370
-1
100
AcDbPolyline
90
2
70
0
43
0
10
-0.51561858885
20
-29.4892597356
10
-1.12860525555
20
-30.9105308467
0
LWPOLYLINE
5
1D5
100
AcDbEntity
8
0
6
ByLayer
62
0
370
-1
100
AcDbPolyline
90
2
70
0
43
0
10
3.77952141115
20
-29.2502175133
10
3.37989474445
20
-30.7457130689
0
LWPOLYLINE
5
1D6
100
AcDbEntity
8
0
6
ByLayer
62
0
370
-1
100
AcDbPolyline
90
2
70
0
43
0
10
0.51562141115
20
-29.4892597356
10
-0.51561858885
20
-29.4892597356
0
LWPOLYLINE
5
1D7
100
AcDbEntity
8
0
6
ByLayer
62
0
370
-1
100
AcDbPolyline
90
2
70
0
43
0
10
3.37989474445
20
-30.7457130689
10
2.77198807775
20
-32.2493930689
0
LWPOLYLINE
5
1D8
100
AcDbEntity
8
0
6
ByLayer
62
0
370
-1
100
AcDbPolyline
90
2
70
0
43
0
10
1.12860807775
20
-30.9105308467
10
0.51562141115
20
-29.4892597356
0
LWPOLYLINE
5
1D9
100
AcDbEntity
8
0
6
ByLayer
62
0
370
-1
100
AcDbPolyline
90
2
70
0
43
0
10
2.77198807775
20
-32.2493930689
10
1.94902807775
20
-32.3095064022
0
LWPOLYLINE
5
1DA
100
AcDbEntity
8
0
6
ByLayer
62
0
370
-1
100
AcDbPolyline
90
2
70
0
43
0
10
1.94902807775
20
-32.3095064022
10
1.12860807775
20
-30.9105308467
0
LWPOLYLINE
5
1DB
100
AcDbEntity
8
0
6
ByLayer
62
0
370
-1
100
AcDbPolyline
90
2
70
0
43
0
10
1.41115000218e-06
20
8.08797806671
10
7.00439572225
20
4.04398762222
0
LWPOLYLINE
5
1DC
100
AcDbEntity
8
0
6
ByLayer
62
0
370
-1
100
AcDbPolyline
90
2
70
0
43
0
10
-7.00439572225
20
4.04399044444
10
1.41115000218e-06
20
8.08797806671
0
LWPOLYLINE
5
1DD
100
AcDbEntity
8
0
6
ByLayer
62
0
370
-1
100
AcDbPolyline
90
2
70
0
43
0
10
-7.00439572225
20
-4.04399044444
10
-7.00439572225
20
4.04399044444
0
LWPOLYLINE
5
1DE
100
AcDbEntity
8
0
6
ByLayer
62
0
370
-1
100
AcDbPolyline
90
2
70
0
43
0
10
-1.41115000218e-06
20
-8.08798173556
10
-7.00439572225
20
-4.04399044444
0
LWPOLYLINE
5
1DF
100
AcDbEntity
8
0
6
ByLayer
62
0
370
-1
100
AcDbPolyline
90
2
70
0
43
0
10
7.00439572225
20
-4.04399044444
10
-1.41115000218e-06
20
-8.08798173556
0
LWPOLYLINE
5
1E0
100
AcDbEntity
8
0
6
ByLayer
62
0
370
-1
100
AcDbPolyline
90
2
70
0
43
0
10
7.00439572225
20
4.04398762222
10
7.00439572225
20
-4.04399044444
0
ENDBLK
5
4A
330
48
100
AcDbEntity
8
0
100
AcDbBlockEnd
0
BLOCK
5
4C
330
4B
100
AcDbEntity
8
0
100
AcDbBlockBegin
2
CUT001008009004_PROJ001
70
0
10
0
20
0
3
CUT001008009004_PROJ001
1

0
LINE
5
1E1
100
AcDbEntity
8
0
6
ByLayer
62
0
370
-1
100
AcDbLine
10
-4
20
-1.63632444446
11
4
21
-1.63632444446
0
LINE
5
1E2
100
AcDbEntity
8
0
6
ByLayer
62
0
370
-1
100
AcDbLine
10
-4
20
-1.12860666665
11
4
21
-1.12860666666
0
LWPOLYLINE
5
1E3
100
AcDbEntity
8
0
6
ByLayer
62
0
370
-1
100
AcDbPolyline
90
2
70
0
43
0
10
-4
20
-1.63632444446
10
-4
20
-1.12860666665
0
LWPOLYLINE
5
1E4
100
AcDbEntity
8
0
6
ByLayer
62
0
370
-1
100
AcDbPolyline
90
2
70
0
43
0
10
4
20
-1.63632444446
10
4
20
-1.12860666666
0
LINE
5
1E5
100
AcDbEntity
8
0
6
ByLayer
62
0
370
-1
100
AcDbLine
10
-4
20
-2.66474222226
11
4
21
-2.66474222226
0
LWPOLYLINE
5
1E6
100
AcDbEntity
8
0
6
ByLayer
62
0
370
-1
100
AcDbPolyline
90
2
70
0
43
0
10
-4
20
-2.66474222226
10
-4
20
-1.63632444446
0
LWPOLYLINE
5
1E7
100
AcDbEntity
8
0
6
ByLayer
62
0
370
-1
100
AcDbPolyline
90
2
70
0
43
0
10
4
20
-2.66474222226
10
4
20
-1.63632444446
0
LINE
5
1E8
100
AcDbEntity
8
0
6
ByLayer
62
0
370
-1
100
AcDbLine
10
-4
20
-0.412608888855
11
4
21
-0.412608888855
0
LWPOLYLINE
5
1E9
100
AcDbEntity
8
0
6
ByLayer
62
0
370
-1
100
AcDbPolyline
90
2
70
0
43
0
10
-4
20
-1.12860666665
10
-4
20
-0.412608888855
0
LWPOLYLINE
5
1EA
100
AcDbEntity
8
0
6
ByLayer
62
0
370
-1
100
AcDbPolyline
90
2
70
0
43
0
10
4
20
-1.12860666666
10
4
20
-0.412608888855
0
LWPOLYLINE
5
1EB
100
AcDbEntity
8
0
6
ByLayer
62
0
370
-1
100
AcDbPolyline
90
2
70
0
43
0
10
-4
20
-3.37989333336
10
-4
20
-2.66474222226
0
LWPOLYLINE
5
1EC
100
AcDbEntity
8
0
6
ByLayer
62
0
370
-1
100
AcDbPolyline
90
2
70
0
43
0
10
-4
20
-0.412608888855
10
-4
20
0.412608888845
0
LWPOLYLINE
5
1ED
100
AcDbEntity
8
0
6
ByLayer
62
0
370
-1
100
AcDbPolyline
90
2
70
0
43
0
10
-4
20
-4.30021999996
10
-4
20
-3.37989333336
0
LWPOLYLINE
5
1EE
100
AcDbEntity
8
0
6
ByLayer
62
0
370
-1
100
AcDbPolyline
90
2
70
0
43
0
10
-4
20
0.412608888845
10
-4
20
1.12860666665
0
LWPOLYLINE
5
1EF
100
AcDbEntity
8
0
6
ByLayer
62
0
370
-1
100
AcDbPolyline
90
2
70
0
43
0
10
-4
20
-5.11640666665
10
-4
20
-4.30021999996
0
LWPOLYLINE
5
1F0
100
AcDbEntity
8
0
6
ByLayer
62
0
370
-1
100
AcDbPolyline
90
2
70
0
43
0
10
-4
20
1.12860666665
10
-4
20
1.63632444444
0
LWPOLYLINE
5
1F1
100
AcDbEntity
8
0
6
ByLayer
62
0
370
-1
100
AcDbPolyline
90
2
70
0
43
0
10
-4
20
-5.61311777775
10
-4
20
-5.11640666665
0
LWPOLYLINE
5
1F2
100
AcDbEntity
8
0
6
ByLayer
62
0
370
-1
100
AcDbPolyline
90
2
70
0
43
0
10
-4
20
1.63632444444
10
-4
20
2.66474222224
0
LWPOLYLINE
5
1F3
100
AcDbEntity
8
0
6
ByLayer
62
0
370
-1
100
AcDbPolyline
90
2
70
0
43
0
10
-4
20
-5.90239555555
10
-4
20
-5.61311777775
0
LWPOLYLINE
5
1F4
100
AcDbEntity
8
0
6
ByLayer
62
0
370
-1
100
AcDbPolyline
90
2
70
0
43
0
10
-4
20
2.66474222224
10
-4
20
3.37989333334
0
LWPOLYLINE
5
1F5
100
AcDbEntity
8
0
6
ByLayer
62
0
370
-1
100
AcDbPolyline
90
2
70
0
43
0
10
-4
20
-6.90908222225
10
-4
20
-5.90239555555
0
LWPOLYLINE
5
1F6
100
AcDbEntity
8
0
6
ByLayer
62
0
370
-1
100
AcDbPolyline
90
2
70
0
43
0
10
-4
20
3.37989333334
10
-4
20
4.30022000004
0
LWPOLYLINE
5
1F7
100
AcDbEntity
8
0
6
ByLayer
62
0
370
-1
100
AcDbPolyline
90
2
70
0
43
0
10
-4
20
-7.81642666666
10
-4
20
-6.90908222225
0
LWPOLYLINE
5
1F8
100
AcDbEntity
8
0
6
ByLayer
62
0
370
-1
100
AcDbPolyline
90
2
70
0
43
0
10
-4
20
4.30022000004
10
-4
20
5.11640666665
0
LWPOLYLINE
5
1F9
100
AcDbEntity
8
0
6
ByLayer
62
0
370
-1
100
AcDbPolyline
90
2
70
0
43
0
10
-4
20
-8.92132666666
10
-4
20
-7.81642666666
0
LWPOLYLINE
5
1FA
100
AcDbEntity
8
0
6
ByLayer
62
0
370
-1
100
AcDbPolyline
90
2
70
0
43
0
10
-4
20
5.11640666665
10
-4
20
5.61311777774
0
LWPOLYLINE
5
1FB
100
AcDbEntity
8
0
6
ByLayer
62
0
370
-1
100
AcDbPolyline
90
2
70
0
43
0
10
-4
20
-9.71154888886
10
-4
20
-8.92132666666
0
LWPOLYLINE
5
1FC
100
AcDbEntity
8
0
6
ByLayer
62
0
370
-1
100
AcDbPolyline
90
2
70
0
43
0
10
-4
20
5.61311777774
10
-4
20
5.90239555555
0
LWPOLYLINE
5
1FD
100
AcDbEntity
8
0
6
ByLayer
62
0
370
-1
100
AcDbPolyline
90
2
70
0
43
0
10
-4
20
-9.97796666666
10
-4
20
-9.71154888886
0
LWPOLYLINE
5
1FE
100
AcDbEntity
8
0
6
ByLayer
62
0
370
-1
100
AcDbPolyline
90
2
70
0
43
0
10
-4
20
5.90239555555
10
-4
20
6.90908222225
0
LWPOLYLINE
5
1FF
100
AcDbEntity
8
0
6
ByLayer
62
0
370
-1
100
AcDbPolyline
90
2
70
0
43
0
10
-4
20
-10.0428777778
10
-4
20
-9.97796666666
0
LWPOLYLINE
5
200
100
AcDbEntity
8
0
6
ByLayer
62
0
370
-1
100
AcDbPolyline
90
2
70
0
43
0
10
-4
20
6.90908222225
10
-4
20
7.81642666664
0
LWPOLYLINE
5
201
100
AcDbEntity
8
0
6
ByLayer
62
0
370
-1
100
AcDbPolyline
90
2
70
0
43
0
10
-4
20
-11.0061022223
10
-4
20
-10.0428777778
0
LWPOLYLINE
5
202
100
AcDbEntity
8
0
6
ByLayer
62
0
370
-1
100
AcDbPolyline
90
2
70
0
43
0
10
-4
20
7.81642666664
10
-4
20
8.92132666664
0
LWPOLYLINE
5
203
100
AcDbEntity
8
0
6
ByLayer
62
0
370
-1
100
AcDbPolyline
90
2
70
0
43
0
10
-4
20
-12.0861666667
10
-4
20
-11.0061022223
0
LWPOLYLINE
5
204
100
AcDbEntity
8
0
6
ByLayer
62
0
370
-1
100
AcDbPolyline
90
2
70
0
43
0
10
-4
20
8.92132666664
10
-4
20
9.71154888884
0
LWPOLYLINE
5
205
100
AcDbEntity
8
0
6
ByLayer
62
0
370
-1
100
AcDbPolyline
90
2
70
0
43
0
10
-4
20
-13.3524977778
10
-4
20
-12.0861666667
0
LWPOLYLINE
5
206
100
AcDbEntity
8
0
6
ByLayer
62
0
370
-1
100
AcDbPolyline
90
2
70
0
43
0
10
-4
20
9.71154888884
10
-4
20
9.97796666664
0
LWPOLYLINE
5
207
100
AcDbEntity
8
0
6
ByLayer
62
0
370
-1
100
AcDbPolyline
90
2
70
0
43
0
10
-4
20
-14.09954
10
-4
20
-13.3524977778
0
LWPOLYLINE
5
208
100
AcDbEntity
8
0
6
ByLayer
62
0
370
-1
100
AcDbPolyline
90
2
70
0
43
0
10
-4
20
9.97796666664
10
-4
20
10.0428777777
0
LWPOLYLINE
5
209
100
AcDbEntity
8
0
6
ByLayer
62
0
370
-1
100
AcDbPolyline
90
2
70
0
43
0
10
-4
20
-14.13002
10
-4
20
-14.09954
0
LWPOLYLINE
5
20A
100
AcDbEntity
8
0
6
ByLayer
62
0
370
-1
100
AcDbPolyline
90
2
70
0
43
0
10
-4
20
10.0428777777
10
-4
20
11.0061022222
0
LWPOLYLINE
5
20B
100
AcDbEntity
8
0
6
ByLayer
62
0
370
-1
100
AcDbPolyline
90
2
70
0
43
0
10
-4
20
11.0061022222
10
-4
20
12.0861666666
0
LWPOLYLINE
5
20C
100
AcDbEntity
8
0
6
ByLayer
62
0
370
-1
100
AcDbPolyline
90
2
70
0
43
0
10
-4
20
-14.8683133334
10
-4
20
-14.13002
0
LWPOLYLINE
5
20D
100
AcDbEntity
8
0
6
ByLayer
62
0
370
-1
100
AcDbPolyline
90
2
70
0
43
0
10
-4
20
12.0861666666
10
-4
20
13.3524977777
0
LWPOLYLINE
5
20E
100
AcDbEntity
8
0
6
ByLayer
62
0
370
-1
100
AcDbPolyline
90
2
70
0
43
0
10
-4
20
-16.09852
10
-4
20
-14.8683133334
0
LWPOLYLINE
5
20F
100
AcDbEntity
8
0
6
ByLayer
62
0
370
-1
100
AcDbPolyline
90
2
70
0
43
0
10
-4
20
13.3524977777
10
-4
20
14.09954
0
LWPOLYLINE
5
210
100
AcDbEntity
8
0
6
ByLayer
62
0
370
-1
100
AcDbPolyline
90
2
70
0
43
0
10
-4
20
-17.4989066667
10
-4
20
-16.09852
0
LWPOLYLINE
5
211
100
AcDbEntity
8
0
6
ByLayer
62
0
370
-1
100
AcDbPolyline
90
2
70
0
43
0
10
-4
20
14.09954
10
-4
20
14.13002
0
LWPOLYLINE
5
212
100
AcDbEntity
8
0
6
ByLayer
62
0
370
-1
100
AcDbPolyline
90
2
70
0
43
0
10
-4
20
-18.1869644445
10
-4
20
-17.4989066667
0
LWPOLYLINE
5
213
100
AcDbEntity
8
0
6
ByLayer
62
0
370
-1
100
AcDbPolyline
90
2
70
0
43
0
10
-4
20
-17.9812244445
10
-4
20
-18.1869644445
0
LWPOLYLINE
5
214
100
AcDbEntity
8
0
6
ByLayer
62
0
370
-1
100
AcDbPolyline
90
2
70
0
43
0
10
-4
20
14.13002
10
-4
20
14.8683133333
0
LWPOLYLINE
5
215
100
AcDbEntity
8
0
6
ByLayer
62
0
370
-1
100
AcDbPolyline
90
2
70
0
43
0
10
-4
20
-17.5976844445
10
-4
20
-17.9812244445
0
LWPOLYLINE
5
216
100
AcDbEntity
8
0
6
ByLayer
62
0
370
-1
100
AcDbPolyline
90
2
70
0
43
0
10
-4
20
14.8683133333
10
-4
20
16.09852
0
LWPOLYLINE
5
217
100
AcDbEntity
8
0
6
ByLayer
62
0
370
-1
100
AcDbPolyline
90
2
70
0
43
0
10
-4
20
-18.4138711112
10
-4
20
-18.1869644445
0
LWPOLYLINE
5
218
100
AcDbEntity
8
0
6
ByLayer
62
0
370
-1
100
AcDbPolyline
90
2
70
0
43
0
10
-4
20
16.09852
10
-4
20
17.4989066666
0
LWPOLYLINE
5
219
100
AcDbEntity
8
0
6
ByLayer
62
0
370
-1
100
AcDbPolyline
90
2
70
0
43
0
10
-4
20
-19.7676911112
10
-4
20
-18.4138711112
0
LWPOLYLINE
5
21A
100
AcDbEntity
8
0
6
ByLayer
62
0
370
-1
100
AcDbPolyline
90
2
70
0
43
0
10
-4
20
17.4989066666
10
-4
20
18.1869644444
0
LWPOLYLINE
5
21B
100
AcDbEntity
8
0
6
ByLayer
62
0
370
-1
100
AcDbPolyline
90
2
70
0
43
0
10
-4
20
-21.2722177778
10
-4
20
-19.7676911112
0
LWPOLYLINE
5
21C
100
AcDbEntity
8
0
6
ByLayer
62
0
370
-1
100
AcDbPolyline
90
2
70
0
43
0
10
-4
20
18.1869644444
10
-4
20
17.9812244444
0
LWPOLYLINE
5
21D
100
AcDbEntity
8
0
6
ByLayer
62
0
370
-1
100
AcDbPolyline
90
2
70
0
43
0
10
-4
20
-21.8866155556
10
-4
20
-21.2722177778
0
LWPOLYLINE
5
21E
100
AcDbEntity
8
0
6
ByLayer
62
0
370
-1
100
AcDbPolyline
90
2
70
0
43
0
10
-4
20
17.9812244444
10
-4
20
17.5976844444
0
LWPOLYLINE
5
21F
100
AcDbEntity
8
0
6
ByLayer
62
0
370
-1
100
AcDbPolyline
90
2
70
0
43
0
10
-4
20
-21.4488888889
10
-4
20
-21.8866155556
0
LWPOLYLINE
5
220
100
AcDbEntity
8
0
6
ByLayer
62
0
370
-1
100
AcDbPolyline
90
2
70
0
43
0
10
-4
20
18.1869644444
10
-4
20
18.4138711111
0
LWPOLYLINE
5
221
100
AcDbEntity
8
0
6
ByLayer
62
0
370
-1
100
AcDbPolyline
90
2
70
0
43
0
10
-4
20
18.4138711111
10
-4
20
19.7676911111
0
LWPOLYLINE
5
222
100
AcDbEntity
8
0
6
ByLayer
62
0
370
-1
100
AcDbPolyline
90
2
70
0
43
0
10
-4
20
19.7676911111
10
-4
20
21.2722177777
0
LWPOLYLINE
5
223
100
AcDbEntity
8
0
6
ByLayer
62
0
370
-1
100
AcDbPolyline
90
2
70
0
43
0
10
-4
20
-23.0157866667
10
-4
20
-21.8866155556
0
LWPOLYLINE
5
224
100
AcDbEntity
8
0
6
ByLayer
62
0
370
-1
100
AcDbPolyline
90
2
70
0
43
0
10
-4
20
21.2722177777
10
-4
20
21.8866155555
0
LWPOLYLINE
5
225
100
AcDbEntity
8
0
6
ByLayer
62
0
370
-1
100
AcDbPolyline
90
2
70
0
43
0
10
-4
20
-24.59228
10
-4
20
-23.0157866667
0
LWPOLYLINE
5
226
100
AcDbEntity
8
0
6
ByLayer
62
0
370
-1
100
AcDbPolyline
90
2
70
0
43
0
10
-4
20
21.8866155555
10
-4
20
21.4488888888
0
LWPOLYLINE
5
227
100
AcDbEntity
8
0
6
ByLayer
62
0
370
-1
100
AcDbPolyline
90
2
70
0
43
0
10
-4
20
-25.1200355556
10
-4
20
-24.59228
0
LWPOLYLINE
5
228
100
AcDbEntity
8
0
6
ByLayer
62
0
370
-1
100
AcDbPolyline
90
2
70
0
43
0
10
-4
20
-23.6603822223
10
-4
20
-24.4596355556
0
LWPOLYLINE
5
229
100
AcDbEntity
8
0
6
ByLayer
62
0
370
-1
100
AcDbPolyline
90
2
70
0
43
0
10
-4
20
21.8866155555
10
-4
20
23.0157866666
0
LWPOLYLINE
5
22A
100
AcDbEntity
8
0
6
ByLayer
62
0
370
-1
100
AcDbPolyline
90
2
70
0
43
0
10
-4
20
-24.2603866667
10
-4
20
-23.6603822223
0
LWPOLYLINE
5
22B
100
AcDbEntity
8
0
6
ByLayer
62
0
370
-1
100
AcDbPolyline
90
2
70
0
43
0
10
-4
20
23.0157866666
10
-4
20
24.59228
0
LWPOLYLINE
5
22C
100
AcDbEntity
8
0
6
ByLayer
62
0
370
-1
100
AcDbPolyline
90
2
70
0
43
0
10
-4
20
-25.7730977778
10
-4
20
-25.1200355556
0
LWPOLYLINE
5
22D
100
AcDbEntity
8
0
6
ByLayer
62
0
370
-1
100
AcDbPolyline
90
2
70
0
43
0
10
-4
20
24.59228
10
-4
20
25.1200355555
0
LWPOLYLINE
5
22E
100
AcDbEntity
8
0
6
ByLayer
62
0
370
-1
100
AcDbPolyline
90
2
70
0
43
0
10
-4
20
-27.3882555556
10
-4
20
-25.7730977778
0
LWPOLYLINE
5
22F
100
AcDbEntity
8
0
6
ByLayer
62
0
370
-1
100
AcDbPolyline
90
2
70
0
43
0
10
-4
20
-27.81808
10
-4
20
-27.3882555556
0
LWPOLYLINE
5
230
100
AcDbEntity
8
0
6
ByLayer
62
0
370
-1
100
AcDbPolyline
90
2
70
0
43
0
10
-4
20
24.4596355555
10
-4
20
23.6603822222
0
LWPOLYLINE
5
231
100
AcDbEntity
8
0
6
ByLayer
62
0
370
-1
100
AcDbPolyline
90
2
70
0
43
0
10
-4
20
23.6603822222
10
-4
20
24.2603866666
0
LWPOLYLINE
5
232
100
AcDbEntity
8
0
6
ByLayer
62
0
370
-1
100
AcDbPolyline
90
2
70
0
43
0
10
-4
20
25.1200355555
10
-4
20
25.7730977777
0
LWPOLYLINE
5
233
100
AcDbEntity
8
0
6
ByLayer
62
0
370
-1
100
AcDbPolyline
90
2
70
0
43
0
10
-4
20
25.7730977777
10
-4
20
27.3882555555
0
LWPOLYLINE
5
234
100
AcDbEntity
8
0
6
ByLayer
62
0
370
-1
100
AcDbPolyline
90
2
70
0
43
0
10
-4
20
-27.9809222223
10
-4
20
-27.81808
0
LWPOLYLINE
5
235
100
AcDbEntity
8
0
6
ByLayer
62
0
370
-1
100
AcDbPolyline
90
2
70
0
43
0
10
-4
20
27.3882555555
10
-4
20
27.81808
0
LWPOLYLINE
5
236
100
AcDbEntity
8
0
6
ByLayer
62
0
370
-1
100
AcDbPolyline
90
2
70
0
43
0
10
-4
20
-29.6005955556
10
-4
20
-27.9809222223
0
LWPOLYLINE
5
237
100
AcDbEntity
8
0
6
ByLayer
62
0
370
-1
100
AcDbPolyline
90
2
70
0
43
0
10
-4
20
-29.9231755556
10
-4
20
-29.6005955556
0
LWPOLYLINE
5
238
100
AcDbEntity
8
0
6
ByLayer
62
0
370
-1
100
AcDbPolyline
90
2
70
0
43
0
10
-4
20
26.9488355555
10
-4
20
25.9652911111
0
LWPOLYLINE
5
239
100
AcDbEntity
8
0
6
ByLayer
62
0
370
-1
100
AcDbPolyline
90
2
70
0
43
0
10
-4
20
25.9652911111
10
-4
20
26.4366022222
0
LWPOLYLINE
5
23A
100
AcDbEntity
8
0
6
ByLayer
62
0
370
-1
100
AcDbPolyline
90
2
70
0
43
0
10
-4
20
27.81808
10
-4
20
27.9809222222
0
LWPOLYLINE
5
23B
100
AcDbEntity
8
0
6
ByLayer
62
0
370
-1
100
AcDbPolyline
90
2
70
0
43
0
10
-4
20
27.9809222222
10
-4
20
29.6005955555
0
LWPOLYLINE
5
23C
100
AcDbEntity
8
0
6
ByLayer
62
0
370
-1
100
AcDbPolyline
90
2
70
0
43
0
10
-4
20
-29.5926933334
10
-4
20
-28.0495022223
0
LWPOLYLINE
5
23D
100
AcDbEntity
8
0
6
ByLayer
62
0
370
-1
100
AcDbPolyline
90
2
70
0
43
0
10
-4
20
29.6005955555
10
-4
20
29.9231755555
0
LWPOLYLINE
5
23E
100
AcDbEntity
8
0
6
ByLayer
62
0
370
-1
100
AcDbPolyline
90
2
70
0
43
0
10
-4
20
-31.1818866667
10
-4
20
-29.9231755556
0
LWPOLYLINE
5
23F
100
AcDbEntity
8
0
6
ByLayer
62
0
370
-1
100
AcDbPolyline
90
2
70
0
43
0
10
-4
20
-31.3904488889
10
-4
20
-31.1818866667
0
LWPOLYLINE
5
240
100
AcDbEntity
8
0
6
ByLayer
62
0
370
-1
100
AcDbPolyline
90
2
70
0
43
0
10
-4
20
28.0495022222
10
-4
20
29.5926933333
0
LWPOLYLINE
5
241
100
AcDbEntity
8
0
6
ByLayer
62
0
370
-1
100
AcDbPolyline
90
2
70
0
43
0
10
-4
20
-29.0646555556
10
-4
20
-28.87726
0
LWPOLYLINE
5
242
100
AcDbEntity
8
0
6
ByLayer
62
0
370
-1
100
AcDbPolyline
90
2
70
0
43
0
10
-4
20
29.9231755555
10
-4
20
31.1818866667
0
LWPOLYLINE
5
243
100
AcDbEntity
8
0
6
ByLayer
62
0
370
-1
100
AcDbPolyline
90
2
70
0
43
0
10
-4
20
31.1818866667
10
-4
20
31.3904488889
0
LWPOLYLINE
5
244
100
AcDbEntity
8
0
6
ByLayer
62
0
370
-1
100
AcDbPolyline
90
2
70
0
43
0
10
-4
20
-32.0985444445
10
-4
20
-31.3904488889
0
LWPOLYLINE
5
245
100
AcDbEntity
8
0
6
ByLayer
62
0
370
-1
100
AcDbPolyline
90
2
70
0
43
0
10
-4
20
-32.1888555556
10
-4
20
-32.0985444445
0
LWPOLYLINE
5
246
100
AcDbEntity
8
0
6
ByLayer
62
0
370
-1
100
AcDbPolyline
90
2
70
0
43
0
10
-4
20
-29.4603311112
10
-4
20
-29.4225133334
0
LWPOLYLINE
5
247
100
AcDbEntity
8
0
6
ByLayer
62
0
370
-1
100
AcDbPolyline
90
2
70
0
43
0
10
-4
20
31.3904488889
10
-4
20
32.0985444444
0
LWPOLYLINE
5
248
100
AcDbEntity
8
0
6
ByLayer
62
0
370
-1
100
AcDbPolyline
90
2
70
0
43
0
10
-4
20
32.0985444444
10
-4
20
32.1888555556
0
LWPOLYLINE
5
249
100
AcDbEntity
8
0
6
ByLayer
62
0
370
-1
100
AcDbPolyline
90
2
70
0
43
0
10
-4
20
-32.3310955556
10
-4
20
-32.1888555556
0
LWPOLYLINE
5
24A
100
AcDbEntity
8
0
6
ByLayer
62
0
370
-1
100
AcDbPolyline
90
2
70
0
43
0
10
-4
20
-32.3008977778
10
-4
20
-32.3310955556
0
LWPOLYLINE
5
24B
100
AcDbEntity
8
0
6
ByLayer
62
0
370
-1
100
AcDbPolyline
90
2
70
0
43
0
10
-4
20
-29.2280622223
10
-4
20
-29.3406688889
0
LWPOLYLINE
5
24C
100
AcDbEntity
8
0
6
ByLayer
62
0
370
-1
100
AcDbPolyline
90
2
70
0
43
0
10
-4
20
32.1888555556
10
-4
20
32.3310955556
0
LWPOLYLINE
5
24D
100
AcDbEntity
8
0
6
ByLayer
62
0
370
-1
100
AcDbPolyline
90
2
70
0
43
0
10
-4
20
32.3310955556
10
-4
20
32.3008977778
0
LWPOLYLINE
5
24E
100
AcDbEntity
8
0
6
ByLayer
62
0
370
-1
100
AcDbPolyline
90
2
70
0
43
0
10
-4
20
-31.7248822223
10
-4
20
-31.8747422223
0
LWPOLYLINE
5
24F
100
AcDbEntity
8
0
6
ByLayer
62
0
370
-1
100
AcDbPolyline
90
2
70
0
43
0
10
-4
20
-28.3726466667
10
-4
20
-28.63342
0
LWPOLYLINE
5
250
100
AcDbEntity
8
0
6
ByLayer
62
0
370
-1
100
AcDbPolyline
90
2
70
0
43
0
10
-4
20
31.8747422222
10
-4
20
31.7248822222
0
LWPOLYLINE
5
251
100
AcDbEntity
8
0
6
ByLayer
62
0
370
-1
100
AcDbPolyline
90
2
70
0
43
0
10
-4
20
-28.5707666667
10
-4
20
-28.87726
0
LWPOLYLINE
5
252
100
AcDbEntity
8
0
6
ByLayer
62
0
370
-1
100
AcDbPolyline
90
2
70
0
43
0
10
-4
20
-25.1200355556
10
-4
20
-25.4163688889
0
LWPOLYLINE
5
253
100
AcDbEntity
8
0
6
ByLayer
62
0
370
-1
100
AcDbPolyline
90
2
70
0
43
0
10
-4
20
25.4163688888
10
-4
20
25.1200355555
0
LWPOLYLINE
5
254
100
AcDbEntity
8
0
6
ByLayer
62
0
370
-1
100
AcDbPolyline
90
2
70
0
43
0
10
-4
20
-22.3153111112
10
-4
20
-22.9748644445
0
LWPOLYLINE
5
255
100
AcDbEntity
8
0
6
ByLayer
62
0
370
-1
100
AcDbPolyline
90
2
70
0
43
0
10
-4
20
22.9748644444
10
-4
20
22.3153111111
0
LWPOLYLINE
5
256
100
AcDbEntity
8
0
6
ByLayer
62
0
370
-1
100
AcDbPolyline
90
2
70
0
43
0
10
-4
20
-11.1666866667
10
-4
20
-11.9371533334
0
LWPOLYLINE
5
257
100
AcDbEntity
8
0
6
ByLayer
62
0
370
-1
100
AcDbPolyline
90
2
70
0
43
0
10
-4
20
11.9371533333
10
-4
20
11.1666866666
0
LWPOLYLINE
5
258
100
AcDbEntity
8
0
6
ByLayer
62
0
370
-1
100
AcDbPolyline
90
2
70
0
43
0
10
4
20
-3.37989333336
10
4
20
-2.66474222226
0
LWPOLYLINE
5
259
100
AcDbEntity
8
0
6
ByLayer
62
0
370
-1
100
AcDbPolyline
90
2
70
0
43
0
10
4
20
-0.412608888855
10
4
20
0.412608888845
0
LWPOLYLINE
5
25A
100
AcDbEntity
8
0
6
ByLayer
62
0
370
-1
100
AcDbPolyline
90
2
70
0
43
0
10
4
20
-4.30021999996
10
4
20
-3.37989333336
0
LWPOLYLINE
5
25B
100
AcDbEntity
8
0
6
ByLayer
62
0
370
-1
100
AcDbPolyline
90
2
70
0
43
0
10
4
20
0.412608888845
10
4
20
1.12860666665
0
LWPOLYLINE
5
25C
100
AcDbEntity
8
0
6
ByLayer
62
0
370
-1
100
AcDbPolyline
90
2
70
0
43
0
10
4
20
-5.11640666666
10
4
20
-4.30021999996
0
LWPOLYLINE
5
25D
100
AcDbEntity
8
0
6
ByLayer
62
0
370
-1
100
AcDbPolyline
90
2
70
0
43
0
10
4
20
1.12860666665
10
4
20
1.63632444444
0
LWPOLYLINE
5
25E
100
AcDbEntity
8
0
6
ByLayer
62
0
370
-1
100
AcDbPolyline
90
2
70
0
43
0
10
4
20
-5.61311777775
10
4
20
-5.11640666666
0
LWPOLYLINE
5
25F
100
AcDbEntity
8
0
6
ByLayer
62
0
370
-1
100
AcDbPolyline
90
2
70
0
43
0
10
4
20
1.63632444444
10
4
20
2.66474222224
0
LWPOLYLINE
5
260
100
AcDbEntity
8
0
6
ByLayer
62
0
370
-1
100
AcDbPolyline
90
2
70
0
43
0
10
4
20
-5.90239555556
10
4
20
-5.61311777775
0
LWPOLYLINE
5
261
100
AcDbEntity
8
0
6
ByLayer
62
0
370
-1
100
AcDbPolyline
90
2
70
0
43
0
10
4
20
2.66474222224
10
4
20
3.37989333334
0
LWPOLYLINE
5
262
100
AcDbEntity
8
0
6
ByLayer
62
0
370
-1
100
AcDbPolyline
90
2
70
0
43
0
10
4
20
-6.90908222225
10
4
20
-5.90239555556
0
LWPOLYLINE
5
263
100
AcDbEntity
8
0
6
ByLayer
62
0
370
-1
100
AcDbPolyline
90
2
70
0
43
0
10
4
20
3.37989333334
10
4
20
4.30022000004
0
LWPOLYLINE
5
264
100
AcDbEntity
8
0
6
ByLayer
62
0
370
-1
100
AcDbPolyline
90
2
70
0
43
0
10
4
20
-7.81642666666
10
4
20
-6.90908222225
0
LWPOLYLINE
5
265
100
AcDbEntity
8
0
6
ByLayer
62
0
370
-1
100
AcDbPolyline
90
2
70
0
43
0
10
4
20
4.30022000004
10
4
20
5.11640666665
0
LWPOLYLINE
5
266
100
AcDbEntity
8
0
6
ByLayer
62
0
370
-1
100
AcDbPolyline
90
2
70
0
43
0
10
4
20
-8.92132666666
10
4
20
-7.81642666666
0
LWPOLYLINE
5
267
100
AcDbEntity
8
0
6
ByLayer
62
0
370
-1
100
AcDbPolyline
90
2
70
0
43
0
10
4
20
5.11640666665
10
4
20
5.61311777774
0
LWPOLYLINE
5
268
100
AcDbEntity
8
0
6
ByLayer
62
0
370
-1
100
AcDbPolyline
90
2
70
0
43
0
10
4
20
-9.71154888886
10
4
20
-8.92132666666
0
LWPOLYLINE
5
269
100
AcDbEntity
8
0
6
ByLayer
62
0
370
-1
100
AcDbPolyline
90
2
70
0
43
0
10
4
20
5.61311777774
10
4
20
5.90239555555
0
LWPOLYLINE
5
26A
100
AcDbEntity
8
0
6
ByLayer
62
0
370
-1
100
AcDbPolyline
90
2
70
0
43
0
10
4
20
-9.97796666666
10
4
20
-9.71154888886
0
LWPOLYLINE
5
26B
100
AcDbEntity
8
0
6
ByLayer
62
0
370
-1
100
AcDbPolyline
90
2
70
0
43
0
10
4
20
5.90239555555
10
4
20
6.90908222224
0
LWPOLYLINE
5
26C
100
AcDbEntity
8
0
6
ByLayer
62
0
370
-1
100
AcDbPolyline
90
2
70
0
43
0
10
4
20
-10.0428777778
10
4
20
-9.97796666666
0
LWPOLYLINE
5
26D
100
AcDbEntity
8
0
6
ByLayer
62
0
370
-1
100
AcDbPolyline
90
2
70
0
43
0
10
4
20
6.90908222224
10
4
20
7.81642666664
0
LWPOLYLINE
5
26E
100
AcDbEntity
8
0
6
ByLayer
62
0
370
-1
100
AcDbPolyline
90
2
70
0
43
0
10
4
20
-11.0061022223
10
4
20
-10.0428777778
0
LWPOLYLINE
5
26F
100
AcDbEntity
8
0
6
ByLayer
62
0
370
-1
100
AcDbPolyline
90
2
70
0
43
0
10
4
20
7.81642666664
10
4
20
8.92132666664
0
LWPOLYLINE
5
270
100
AcDbEntity
8
0
6
ByLayer
62
0
370
-1
100
AcDbPolyline
90
2
70
0
43
0
10
4
20
-12.0861666667
10
4
20
-11.0061022223
0
LWPOLYLINE
5
271
100
AcDbEntity
8
0
6
ByLayer
62
0
370
-1
100
AcDbPolyline
90
2
70
0
43
0
10
4
20
8.92132666664
10
4
20
9.71154888884
0
LWPOLYLINE
5
272
100
AcDbEntity
8
0
6
ByLayer
62
0
370
-1
100
AcDbPolyline
90
2
70
0
43
0
10
4
20
-13.3524977778
10
4
20
-12.0861666667
0
LWPOLYLINE
5
273
100
AcDbEntity
8
0
6
ByLayer
62
0
370
-1
100
AcDbPolyline
90
2
70
0
43
0
10
4
20
9.71154888884
10
4
20
9.97796666664
0
LWPOLYLINE
5
274
100
AcDbEntity
8
0
6
ByLayer
62
0
370
-1
100
AcDbPolyline
90
2
70
0
43
0
10
4
20
-14.09954
10
4
20
-13.3524977778
0
LWPOLYLINE
5
275
100
AcDbEntity
8
0
6
ByLayer
62
0
370
-1
100
AcDbPolyline
90
2
70
0
43
0
10
4
20
9.97796666664
10
4
20
10.0428777777
0
LWPOLYLINE
5
276
100
AcDbEntity
8
0
6
ByLayer
62
0
370
-1
100
AcDbPolyline
90
2
70
0
43
0
10
4
20
-14.13002
10
4
20
-14.09954
0
LWPOLYLINE
5
277
100
AcDbEntity
8
0
6
ByLayer
62
0
370
-1
100
AcDbPolyline
90
2
70
0
43
0
10
4
20
10.0428777777
10
4
20
11.0061022222
0
LWPOLYLINE
5
278
100
AcDbEntity
8
0
6
ByLayer
62
0
370
-1
100
AcDbPolyline
90
2
70
0
43
0
10
4
20
11.0061022222
10
4
20
12.0861666666
0
LWPOLYLINE
5
279
100
AcDbEntity
8
0
6
ByLayer
62
0
370
-1
100
AcDbPolyline
90
2
70
0
43
0
10
4
20
-14.8683133334
10
4
20
-14.13002
0
LWPOLYLINE
5
27A
100
AcDbEntity
8
0
6
ByLayer
62
0
370
-1
100
AcDbPolyline
90
2
70
0
43
0
10
4
20
12.0861666666
10
4
20
13.3524977777
0
LWPOLYLINE
5
27B
100
AcDbEntity
8
0
6
ByLayer
62
0
370
-1
100
AcDbPolyline
90
2
70
0
43
0
10
4
20
-16.09852
10
4
20
-14.8683133334
0
LWPOLYLINE
5
27C
100
AcDbEntity
8
0
6
ByLayer
62
0
370
-1
100
AcDbPolyline
90
2
70
0
43
0
10
4
20
13.3524977777
10
4
20
14.09954
0
LWPOLYLINE
5
27D
100
AcDbEntity
8
0
6
ByLayer
62
0
370
-1
100
AcDbPolyline
90
2
70
0
43
0
10
4
20
-17.4989066667
10
4
20
-16.09852
0
LWPOLYLINE
5
27E
100
AcDbEntity
8
0
6
ByLayer
62
0
370
-1
100
AcDbPolyline
90
2
70
0
43
0
10
4
20
14.09954
10
4
20
14.13002
0
LWPOLYLINE
5
27F
100
AcDbEntity
8
0
6
ByLayer
62
0
370
-1
100
AcDbPolyline
90
2
70
0
43
0
10
4
20
-18.1869644445
10
4
20
-17.4989066667
0
LWPOLYLINE
5
280
100
AcDbEntity
8
0
6
ByLayer
62
0
370
-1
100
AcDbPolyline
90
2
70
0
43
0
10
4
20
14.13002
10
4
20
14.8683133333
0
LWPOLYLINE
5
281
100
AcDbEntity
8
0
6
ByLayer
62
0
370
-1
100
AcDbPolyline
90
2
70
0
43
0
10
4
20
-17.5976844445
10
4
20
-17.9812244445
0
LWPOLYLINE
5
282
100
AcDbEntity
8
0
6
ByLayer
62
0
370
-1
100
AcDbPolyline
90
2
70
0
43
0
10
4
20
14.8683133333
10
4
20
16.09852
0
LWPOLYLINE
5
283
100
AcDbEntity
8
0
6
ByLayer
62
0
370
-1
100
AcDbPolyline
90
2
70
0
43
0
10
4
20
-18.4138711112
10
4
20
-18.1869644445
0
LWPOLYLINE
5
284
100
AcDbEntity
8
0
6
ByLayer
62
0
370
-1
100
AcDbPolyline
90
2
70
0
43
0
10
4
20
16.09852
10
4
20
17.4989066666
0
LWPOLYLINE
5
285
100
AcDbEntity
8
0
6
ByLayer
62
0
370
-1
100
AcDbPolyline
90
2
70
0
43
0
10
4
20
-19.7676911112
10
4
20
-18.4138711112
0
LWPOLYLINE
5
286
100
AcDbEntity
8
0
6
ByLayer
62
0
370
-1
100
AcDbPolyline
90
2
70
0
43
0
10
4
20
17.4989066666
10
4
20
18.1869644444
0
LWPOLYLINE
5
287
100
AcDbEntity
8
0
6
ByLayer
62
0
370
-1
100
AcDbPolyline
90
2
70
0
43
0
10
4
20
-21.2722177778
10
4
20
-19.7676911112
0
LWPOLYLINE
5
288
100
AcDbEntity
8
0
6
ByLayer
62
0
370
-1
100
AcDbPolyline
90
2
70
0
43
0
10
4
20
18.1869644444
10
4
20
17.9812244444
0
LWPOLYLINE
5
289
100
AcDbEntity
8
0
6
ByLayer
62
0
370
-1
100
AcDbPolyline
90
2
70
0
43
0
10
4
20
-21.8866155556
10
4
20
-21.2722177778
0
LWPOLYLINE
5
28A
100
AcDbEntity
8
0
6
ByLayer
62
0
370
-1
100
AcDbPolyline
90
2
70
0
43
0
10
4
20
17.9812244444
10
4
20
17.5976844444
0
LWPOLYLINE
5
28B
100
AcDbEntity
8
0
6
ByLayer
62
0
370
-1
100
AcDbPolyline
90
2
70
0
43
0
10
4
20
18.1869644444
10
4
20
18.4138711111
0
LWPOLYLINE
5
28C
100
AcDbEntity
8
0
6
ByLayer
62
0
370
-1
100
AcDbPolyline
90
2
70
0
43
0
10
4
20
18.4138711111
10
4
20
19.7676911111
0
LWPOLYLINE
5
28D
100
AcDbEntity
8
0
6
ByLayer
62
0
370
-1
100
AcDbPolyline
90
2
70
0
43
0
10
4
20
19.7676911111
10
4
20
21.2722177777
0
LWPOLYLINE
5
28E
100
AcDbEntity
8
0
6
ByLayer
62
0
370
-1
100
AcDbPolyline
90
2
70
0
43
0
10
4
20
-23.0157866667
10
4
20
-21.8866155556
0
LWPOLYLINE
5
28F
100
AcDbEntity
8
0
6
ByLayer
62
0
370
-1
100
AcDbPolyline
90
2
70
0
43
0
10
4
20
21.2722177777
10
4
20
21.8866155555
0
LWPOLYLINE
5
290
100
AcDbEntity
8
0
6
ByLayer
62
0
370
-1
100
AcDbPolyline
90
2
70
0
43
0
10
4
20
-24.59228
10
4
20
-23.0157866667
0
LWPOLYLINE
5
291
100
AcDbEntity
8
0
6
ByLayer
62
0
370
-1
100
AcDbPolyline
90
2
70
0
43
0
10
4
20
-25.1200355556
10
4
20
-24.59228
0
LWPOLYLINE
5
292
100
AcDbEntity
8
0
6
ByLayer
62
0
370
-1
100
AcDbPolyline
90
2
70
0
43
0
10
4
20
21.8866155555
10
4
20
23.0157866666
0
LWPOLYLINE
5
293
100
AcDbEntity
8
0
6
ByLayer
62
0
370
-1
100
AcDbPolyline
90
2
70
0
43
0
10
4
20
23.0157866666
10
4
20
24.59228
0
LWPOLYLINE
5
294
100
AcDbEntity
8
0
6
ByLayer
62
0
370
-1
100
AcDbPolyline
90
2
70
0
43
0
10
4
20
-25.7730977778
10
4
20
-25.1200355556
0
LWPOLYLINE
5
295
100
AcDbEntity
8
0
6
ByLayer
62
0
370
-1
100
AcDbPolyline
90
2
70
0
43
0
10
4
20
24.59228
10
4
20
25.1200355555
0
LWPOLYLINE
5
296
100
AcDbEntity
8
0
6
ByLayer
62
0
370
-1
100
AcDbPolyline
90
2
70
0
43
0
10
4
20
-27.3882555556
10
4
20
-25.7730977778
0
LWPOLYLINE
5
297
100
AcDbEntity
8
0
6
ByLayer
62
0
370
-1
100
AcDbPolyline
90
2
70
0
43
0
10
4
20
-27.81808
10
4
20
-27.3882555556
0
LWPOLYLINE
5
298
100
AcDbEntity
8
0
6
ByLayer
62
0
370
-1
100
AcDbPolyline
90
2
70
0
43
0
10
4
20
23.6603822222
10
4
20
24.2603866666
0
LWPOLYLINE
5
299
100
AcDbEntity
8
0
6
ByLayer
62
0
370
-1
100
AcDbPolyline
90
2
70
0
43
0
10
4
20
25.1200355555
10
4
20
25.7730977777
0
LWPOLYLINE
5
29A
100
AcDbEntity
8
0
6
ByLayer
62
0
370
-1
100
AcDbPolyline
90
2
70
0
43
0
10
4
20
25.7730977777
10
4
20
27.3882555555
0
LWPOLYLINE
5
29B
100
AcDbEntity
8
0
6
ByLayer
62
0
370
-1
100
AcDbPolyline
90
2
70
0
43
0
10
4
20
-27.9809222223
10
4
20
-27.81808
0
LWPOLYLINE
5
29C
100
AcDbEntity
8
0
6
ByLayer
62
0
370
-1
100
AcDbPolyline
90
2
70
0
43
0
10
4
20
27.3882555555
10
4
20
27.81808
0
LWPOLYLINE
5
29D
100
AcDbEntity
8
0
6
ByLayer
62
0
370
-1
100
AcDbPolyline
90
2
70
0
43
0
10
4
20
-29.6005955556
10
4
20
-27.9809222223
0
LWPOLYLINE
5
29E
100
AcDbEntity
8
0
6
ByLayer
62
0
370
-1
100
AcDbPolyline
90
2
70
0
43
0
10
4
20
-29.9231755556
10
4
20
-29.6005955556
0
LWPOLYLINE
5
29F
100
AcDbEntity
8
0
6
ByLayer
62
0
370
-1
100
AcDbPolyline
90
2
70
0
43
0
10
4
20
27.81808
10
4
20
27.9809222222
0
LWPOLYLINE
5
2A0
100
AcDbEntity
8
0
6
ByLayer
62
0
370
-1
100
AcDbPolyline
90
2
70
0
43
0
10
4
20
27.9809222222
10
4
20
29.6005955555
0
LWPOLYLINE
5
2A1
100
AcDbEntity
8
0
6
ByLayer
62
0
370
-1
100
AcDbPolyline
90
2
70
0
43
0
10
4
20
29.6005955555
10
4
20
29.9231755555
0
LWPOLYLINE
5
2A2
100
AcDbEntity
8
0
6
ByLayer
62
0
370
-1
100
AcDbPolyline
90
2
70
0
43
0
10
4
20
-31.1818866667
10
4
20
-29.9231755556
0
LWPOLYLINE
5
2A3
100
AcDbEntity
8
0
6
ByLayer
62
0
370
-1
100
AcDbPolyline
90
2
70
0
43
0
10
4
20
-31.3904488889
10
4
20
-31.1818866667
0
LWPOLYLINE
5
2A4
100
AcDbEntity
8
0
6
ByLayer
62
0
370
-1
100
AcDbPolyline
90
2
70
0
43
0
10
4
20
29.9231755555
10
4
20
31.1818866667
0
LWPOLYLINE
5
2A5
100
AcDbEntity
8
0
6
ByLayer
62
0
370
-1
100
AcDbPolyline
90
2
70
0
43
0
10
4
20
31.1818866667
10
4
20
31.3904488889
0
LWPOLYLINE
5
2A6
100
AcDbEntity
8
0
6
ByLayer
62
0
370
-1
100
AcDbPolyline
90
2
70
0
43
0
10
4
20
-32.0985444445
10
4
20
-31.3904488889
0
LWPOLYLINE
5
2A7
100
AcDbEntity
8
0
6
ByLayer
62
0
370
-1
100
AcDbPolyline
90
2
70
0
43
0
10
4
20
-32.1888555556
10
4
20
-32.0985444445
0
LWPOLYLINE
5
2A8
100
AcDbEntity
8
0
6
ByLayer
62
0
370
-1
100
AcDbPolyline
90
2
70
0
43
0
10
4
20
31.3904488889
10
4
20
32.0985444444
0
LWPOLYLINE
5
2A9
100
AcDbEntity
8
0
6
ByLayer
62
0
370
-1
100
AcDbPolyline
90
2
70
0
43
0
10
4
20
32.0985444444
10
4
20
32.1888555556
0
LWPOLYLINE
5
2AA
100
AcDbEntity
8
0
6
ByLayer
62
0
370
-1
100
AcDbPolyline
90
2
70
0
43
0
10
4
20
-32.3310955556
10
4
20
-32.1888555556
0
LWPOLYLINE
5
2AB
100
AcDbEntity
8
0
6
ByLayer
62
0
370
-1
100
AcDbPolyline
90
2
70
0
43
0
10
4
20
32.1888555556
10
4
20
32.3310955556
0
LWPOLYLINE
5
2AC
100
AcDbEntity
8
0
6
ByLayer
62
0
370
-1
100
AcDbPolyline
90
2
70
0
43
0
10
4
20
-11.1666866667
10
4
20
-11.9371533334
0
LWPOLYLINE
5
2AD
100
AcDbEntity
8
0
6
ByLayer
62
0
370
-1
100
AcDbPolyline
90
2
70
0
43
0
10
4
20
11.9371533333
10
4
20
11.1666866666
0
LINE
5
2AE
100
AcDbEntity
8
0
6
ByLayer
62
0
370
-1
100
AcDbLine
10
-4
20
-3.37989333336
11
4
21
-3.37989333336
0
LINE
5
2AF
100
AcDbEntity
8
0
6
ByLayer
62
0
370
-1
100
AcDbLine
10
-4
20
0.412608888845
11
4
21
0.412608888845
0
LINE
5
2B0
100
AcDbEntity
8
0
6
ByLayer
62
0
370
-1
100
AcDbLine
10
-4
20
-4.30021999996
11
4
21
-4.30021999996
0
LINE
5
2B1
100
AcDbEntity
8
0
6
ByLayer
62
0
370
-1
100
AcDbLine
10
-4
20
1.12860666665
11
4
21
1.12860666665
0
LINE
5
2B2
100
AcDbEntity
8
0
6
ByLayer
62
0
370
-1
100
AcDbLine
10
-4
20
-5.11640666665
11
4
21
-5.11640666666
0
LINE
5
2B3
100
AcDbEntity
8
0
6
ByLayer
62
0
370
-1
100
AcDbLine
10
-4
20
1.63632444444
11
4
21
1.63632444444
0
LINE
5
2B4
100
AcDbEntity
8
0
6
ByLayer
62
0
370
-1
100
AcDbLine
10
-4
20
-5.61311777775
11
4
21
-5.61311777775
0
LINE
5
2B5
100
AcDbEntity
8
0
6
ByLayer
62
0
370
-1
100
AcDbLine
10
-4
20
2.66474222224
11
4
21
2.66474222224
0
LINE
5
2B6
100
AcDbEntity
8
0
6
ByLayer
62
0
370
-1
100
AcDbLine
10
-4
20
-5.90239555555
11
4
21
-5.90239555556
0
LINE
5
2B7
100
AcDbEntity
8
0
6
ByLayer
62
0
370
-1
100
AcDbLine
10
-4
20
3.37989333334
11
4
21
3.37989333334
0
LINE
5
2B8
100
AcDbEntity
8
0
6
ByLayer
62
0
370
-1
100
AcDbLine
10
-4
20
-6.90908222225
11
4
21
-6.90908222225
0
LINE
5
2B9
100
AcDbEntity
8
0
6
ByLayer
62
0
370
-1
100
AcDbLine
10
-4
20
4.30022000004
11
4
21
4.30022000004
0
LINE
5
2BA
100
AcDbEntity
8
0
6
ByLayer
62
0
370
-1
100
AcDbLine
10
-4
20
-7.81642666666
11
4
21
-7.81642666666
0
LINE
5
2BB
100
AcDbEntity
8
0
6
ByLayer
62
0
370
-1
100
AcDbLine
10
-4
20
5.11640666665
11
4
21
5.11640666665
0
LINE
5
2BC
100
AcDbEntity
8
0
6
ByLayer
62
0
370
-1
100
AcDbLine
10
-4
20
-8.92132666666
11
4
21
-8.92132666666
0
LINE
5
2BD
100
AcDbEntity
8
0
6
ByLayer
62
0
370
-1
100
AcDbLine
10
-4
20
5.61311777774
11
4
21
5.61311777774
0
LINE
5
2BE
100
AcDbEntity
8
0
6
ByLayer
62
0
370
-1
100
AcDbLine
10
-4
20
-9.71154888886
11
4
21
-9.71154888886
0
LINE
5
2BF
100
AcDbEntity
8
0
6
ByLayer
62
0
370
-1
100
AcDbLine
10
-4
20
5.90239555555
11
4
21
5.90239555555
0
LINE
5
2C0
100
AcDbEntity
8
0
6
ByLayer
62
0
370
-1
100
AcDbLine
10
-4
20
-9.97796666666
11
4
21
-9.97796666666
0
LINE
5
2C1
100
AcDbEntity
8
0
6
ByLayer
62
0
370
-1
100
AcDbLine
10
-4
20
6.90908222225
11
4
21
6.90908222224
0
LINE
5
2C2
100
AcDbEntity
8
0
6
ByLayer
62
0
370
-1
100
AcDbLine
10
-4
20
-10.0428777778
11
4
21
-10.0428777778
0
LINE
5
2C3
100
AcDbEntity
8
0
6
ByLayer
62
0
370
-1
100
AcDbLine
10
-4
20
7.81642666664
11
4
21
7.81642666664
0
LINE
5
2C4
100
AcDbEntity
8
0
6
ByLayer
62
0
370
-1
100
AcDbLine
10
-4
20
-11.0061022223
11
4
21
-11.0061022223
0
LINE
5
2C5
100
AcDbEntity
8
0
6
ByLayer
62
0
370
-1
100
AcDbLine
10
-4
20
8.92132666664
11
4
21
8.92132666664
0
LINE
5
2C6
100
AcDbEntity
8
0
6
ByLayer
62
0
370
-1
100
AcDbLine
10
-4
20
-12.0861666667
11
4
21
-12.0861666667
0
LINE
5
2C7
100
AcDbEntity
8
0
6
ByLayer
62
0
370
-1
100
AcDbLine
10
-4
20
9.71154888884
11
4
21
9.71154888884
0
LINE
5
2C8
100
AcDbEntity
8
0
6
ByLayer
62
0
370
-1
100
AcDbLine
10
-4
20
-13.3524977778
11
4
21
-13.3524977778
0
LINE
5
2C9
100
AcDbEntity
8
0
6
ByLayer
62
0
370
-1
100
AcDbLine
10
-4
20
9.97796666664
11
4
21
9.97796666664
0
LINE
5
2CA
100
AcDbEntity
8
0
6
ByLayer
62
0
370
-1
100
AcDbLine
10
-4
20
-14.09954
11
4
21
-14.09954
0
LINE
5
2CB
100
AcDbEntity
8
0
6
ByLayer
62
0
370
-1
100
AcDbLine
10
-4
20
10.0428777777
11
4
21
10.0428777777
0
LINE
5
2CC
100
AcDbEntity
8
0
6
ByLayer
62
0
370
-1
100
AcDbLine
10
-4
20
-14.13002
11
4
21
-14.13002
0
LINE
5
2CD
100
AcDbEntity
8
0
6
ByLayer
62
0
370
-1
100
AcDbLine
10
-4
20
11.0061022222
11
4
21
11.0061022222
0
LINE
5
2CE
100
AcDbEntity
8
0
6
ByLayer
62
0
370
-1
100
AcDbLine
10
-4
20
12.0861666666
11
4
21
12.0861666666
0
LINE
5
2CF
100
AcDbEntity
8
0
6
ByLayer
62
0
370
-1
100
AcDbLine
10
-4
20
-14.8683133334
11
4
21
-14.8683133334
0
LINE
5
2D0
100
AcDbEntity
8
0
6
ByLayer
62
0
370
-1
100
AcDbLine
10
-4
20
13.3524977777
11
4
21
13.3524977777
0
LINE
5
2D1
100
AcDbEntity
8
0
6
ByLayer
62
0
370
-1
100
AcDbLine
10
-4
20
-16.09852
11
4
21
-16.09852
0
LINE
5
2D2
100
AcDbEntity
8
0
6
ByLayer
62
0
370
-1
100
AcDbLine
10
-4
20
14.09954
11
4
21
14.09954
0
LINE
5
2D3
100
AcDbEntity
8
0
6
ByLayer
62
0
370
-1
100
AcDbLine
10
-4
20
-17.4989066667
11
4
21
-17.4989066667
0
LINE
5
2D4
100
AcDbEntity
8
0
6
ByLayer
62
0
370
-1
100
AcDbLine
10
-4
20
14.13002
11
4
21
14.13002
0
LINE
5
2D5
100
AcDbEntity
8
0
6
ByLayer
62
0
370
-1
100
AcDbLine
10
-4
20
-18.1869644445
11
4
21
-18.1869644445
0
LINE
5
2D6
100
AcDbEntity
8
0
6
ByLayer
62
0
370
-1
100
AcDbLine
10
-4
20
14.8683133333
11
4
21
14.8683133333
0
LINE
5
2D7
100
AcDbEntity
8
0
6
ByLayer
62
0
370
-1
100
AcDbLine
10
-4
20
16.09852
11
4
21
16.09852
0
LINE
5
2D8
100
AcDbEntity
8
0
6
ByLayer
62
0
370
-1
100
AcDbLine
10
-4
20
-18.4138711112
11
4
21
-18.4138711112
0
LINE
5
2D9
100
AcDbEntity
8
0
6
ByLayer
62
0
370
-1
100
AcDbLine
10
-4
20
17.4989066666
11
4
21
17.4989066666
0
LINE
5
2DA
100
AcDbEntity
8
0
6
ByLayer
62
0
370
-1
100
AcDbLine
10
-4
20
-19.7676911112
11
4
21
-19.7676911112
0
LINE
5
2DB
100
AcDbEntity
8
0
6
ByLayer
62
0
370
-1
100
AcDbLine
10
-4
20
18.1869644444
11
4
21
18.1869644444
0
LINE
5
2DC
100
AcDbEntity
8
0
6
ByLayer
62
0
370
-1
100
AcDbLine
10
-4
20
-21.2722177778
11
4
21
-21.2722177778
0
LINE
5
2DD
100
AcDbEntity
8
0
6
ByLayer
62
0
370
-1
100
AcDbLine
10
-4
20
-21.8866155556
11
4
21
-21.8866155556
0
LINE
5
2DE
100
AcDbEntity
8
0
6
ByLayer
62
0
370
-1
100
AcDbLine
10
-4
20
18.4138711111
11
4
21
18.4138711111
0
LINE
5
2DF
100
AcDbEntity
8
0
6
ByLayer
62
0
370
-1
100
AcDbLine
10
-4
20
19.7676911111
11
4
21
19.7676911111
0
LINE
5
2E0
100
AcDbEntity
8
0
6
ByLayer
62
0
370
-1
100
AcDbLine
10
-4
20
21.2722177777
11
4
21
21.2722177777
0
LINE
5
2E1
100
AcDbEntity
8
0
6
ByLayer
62
0
370
-1
100
AcDbLine
10
-4
20
-23.0157866667
11
4
21
-23.0157866667
0
LINE
5
2E2
100
AcDbEntity
8
0
6
ByLayer
62
0
370
-1
100
AcDbLine
10
-4
20
21.8866155555
11
4
21
21.8866155555
0
LINE
5
2E3
100
AcDbEntity
8
0
6
ByLayer
62
0
370
-1
100
AcDbLine
10
-4
20
-24.59228
11
4
21
-24.59228
0
LINE
5
2E4
100
AcDbEntity
8
0
6
ByLayer
62
0
370
-1
100
AcDbLine
10
-4
20
-25.1200355556
11
4
21
-25.1200355556
0
LINE
5
2E5
100
AcDbEntity
8
0
6
ByLayer
62
0
370
-1
100
AcDbLine
10
-4
20
23.0157866666
11
4
21
23.0157866666
0
LINE
5
2E6
100
AcDbEntity
8
0
6
ByLayer
62
0
370
-1
100
AcDbLine
10
-4
20
24.59228
11
4
21
24.59228
0
LINE
5
2E7
100
AcDbEntity
8
0
6
ByLayer
62
0
370
-1
100
AcDbLine
10
-4
20
-25.7730977778
11
4
21
-25.7730977778
0
LINE
5
2E8
100
AcDbEntity
8
0
6
ByLayer
62
0
370
-1
100
AcDbLine
10
-4
20
25.1200355555
11
4
21
25.1200355555
0
LINE
5
2E9
100
AcDbEntity
8
0
6
ByLayer
62
0
370
-1
100
AcDbLine
10
-4
20
-27.3882555556
11
4
21
-27.3882555556
0
LINE
5
2EA
100
AcDbEntity
8
0
6
ByLayer
62
0
370
-1
100
AcDbLine
10
-4
20
-27.81808
11
4
21
-27.81808
0
LINE
5
2EB
100
AcDbEntity
8
0
6
ByLayer
62
0
370
-1
100
AcDbLine
10
-4
20
25.7730977777
11
4
21
25.7730977777
0
LINE
5
2EC
100
AcDbEntity
8
0
6
ByLayer
62
0
370
-1
100
AcDbLine
10
-4
20
27.3882555555
11
4
21
27.3882555555
0
LINE
5
2ED
100
AcDbEntity
8
0
6
ByLayer
62
0
370
-1
100
AcDbLine
10
-4
20
-27.9809222223
11
4
21
-27.9809222223
0
LINE
5
2EE
100
AcDbEntity
8
0
6
ByLayer
62
0
370
-1
100
AcDbLine
10
-4
20
27.81808
11
4
21
27.81808
0
LINE
5
2EF
100
AcDbEntity
8
0
6
ByLayer
62
0
370
-1
100
AcDbLine
10
-4
20
-29.6005955556
11
4
21
-29.6005955556
0
LINE
5
2F0
100
AcDbEntity
8
0
6
ByLayer
62
0
370
-1
100
AcDbLine
10
-4
20
-29.9231755556
11
4
21
-29.9231755556
0
LINE
5
2F1
100
AcDbEntity
8
0
6
ByLayer
62
0
370
-1
100
AcDbLine
10
-4
20
27.9809222222
11
4
21
27.9809222222
0
LINE
5
2F2
100
AcDbEntity
8
0
6
ByLayer
62
0
370
-1
100
AcDbLine
10
-4
20
29.6005955555
11
4
21
29.6005955555
0
LINE
5
2F3
100
AcDbEntity
8
0
6
ByLayer
62
0
370
-1
100
AcDbLine
10
-4
20
29.9231755555
11
4
21
29.9231755555
0
LINE
5
2F4
100
AcDbEntity
8
0
6
ByLayer
62
0
370
-1
100
AcDbLine
10
-4
20
-31.1818866667
11
4
21
-31.1818866667
0
LINE
5
2F5
100
AcDbEntity
8
0
6
ByLayer
62
0
370
-1
100
AcDbLine
10
-4
20
-31.3904488889
11
4
21
-31.3904488889
0
LINE
5
2F6
100
AcDbEntity
8
0
6
ByLayer
62
0
370
-1
100
AcDbLine
10
-4
20
31.1818866667
11
4
21
31.1818866667
0
LINE
5
2F7
100
AcDbEntity
8
0
6
ByLayer
62
0
370
-1
100
AcDbLine
10
-4
20
31.3904488889
11
4
21
31.3904488889
0
LINE
5
2F8
100
AcDbEntity
8
0
6
ByLayer
62
0
370
-1
100
AcDbLine
10
-4
20
-32.0985444445
11
4
21
-32.0985444445
0
LINE
5
2F9
100
AcDbEntity
8
0
6
ByLayer
62
0
370
-1
100
AcDbLine
10
-4
20
-32.1888555556
11
4
21
-32.1888555556
0
LINE
5
2FA
100
AcDbEntity
8
0
6
ByLayer
62
0
370
-1
100
AcDbLine
10
-4
20
32.0985444444
11
4
21
32.0985444444
0
LINE
5
2FB
100
AcDbEntity
8
0
6
ByLayer
62
0
370
-1
100
AcDbLine
10
-4
20
32.1888555556
11
4
21
32.1888555556
0
LINE
5
2FC
100
AcDbEntity
8
0
6
ByLayer
62
0
370
-1
100
AcDbLine
10
-4
20
-32.3310955556
11
4
21
-32.3310955556
0
LINE
5
2FD
100
AcDbEntity
8
0
6
ByLayer
62
0
370
-1
100
AcDbLine
10
-4
20
32.3310955556
11
4
21
32.3310955556
0
ENDBLK
5
4D
330
4B
100
AcDbEntity
8
0
100
AcDbBlockEnd
0
ENDSEC
0
SECTION
2
ENTITIES
0
INSERT
5
2FE
100
AcDbEntity
8
0
6
ByLayer
62
256
370
-1
100
AcDbBlockReference
2
CUT001008009004_PROJ
10
0
20
0
30
0
41
1
42
1
43
0
50
0
70
1
71
1
44
0
45
0
0
INSERT
5
2FF
100
AcDbEntity
8
0
6
ByLayer
62
256
370
-1
100
AcDbBlockReference
2
CUT001008009004_PROJ001
10
75
20
0
30
0
41
1
42
1
43
0
50
0
70
1
71
1
44
0
45
0
0
LINE
5
300
100
AcDbEntity
8
base
6
ByLayer
62
256
370
-1
100
AcDbLine
10
0
20
34
11
0
21
-35
0
LINE
5
301
100
AcDbEntity
8
base
6
ByLayer
62
256
370
-1
100
AcDbLine
10
-8
20
0
11
8
21
0
0
LINE
5
302
100
AcDbEntity
8
base
6
ByLayer
62
256
370
-1
100
AcDbLine
10
70
20
0
11
80
21
0
0
DIMENSION
5
303
100
AcDbEntity
8
dim
6
ByLayer
62
256
370
-1
100
AcDbDimension
10
7.00439572225
20
40
30
0
11
-3.29282364179e-16
21
41.875
31
0
70
32
71
5
72
0
3
Standard
53
0
210
0
220
0
230
1
100
AcDbAlignedDimension
13
-7.00439572225
23
4.04399044444
33
0
14
7.00439572225
24
4.04398762222
34
0
100
AcDbRotatedDimension
0
DIMENSION
5
304
100
AcDbEntity
8
dim
6
ByLayer
62
256
370
-1
100
AcDbDimension
10
-7.65805995004
20
-21.352120504
30
0
11
-10.222756697
21
-17.7063274623
31
0
70
33
71
5
72
0
3
Standard
53
0
210
0
220
0
230
1
100
AcDbAlignedDimension
13
-7.00439572225
23
-4.04399044444
33
0
14
-1.41115000218e-06
24
-8.08798173556
34
0
0
DIMENSION
5
305
100
AcDbEntity
8
dim
6
ByLayer
62
256
370
-1
100
AcDbDimension
10
20
20
-8.08798092083
30
0
11
18.125
21
-1.83442163303e-06
31
0
70
32
71
5
72
0
3
Standard
53
0
210
0
220
0
230
1
100
AcDbAlignedDimension
13
0
23
8.08797725199
33
0
14
0
24
-8.08798092083
34
0
50
90
100
AcDbRotatedDimension
0
DIMENSION
5
306
100
AcDbEntity
8
dim
6
ByLayer
62
256
370
-1
100
AcDbDimension
10
79
20
40
30
0
11
75
21
41.875
31
0
70
32
71
5
3
Standard
53
0
210
0
220
0
230
1
100
AcDbAlignedDimension
13
71
23
32.3310955556
33
0
14
79
24
32.3310955556
34
0
100
AcDbRotatedDimension
0
ENDSEC
0
SECTION
2
OBJECTS
0
DICTIONARY
5
C
330
0
100
AcDbDictionary
281
1
3
ACAD_GROUP
350
D
0
DICTIONARY
5
D
330
C
100
AcDbDictionary
281
1
0
ENDSEC
0
EOF
