<?xml version="1.0" encoding="UTF-8" standalone="no"?>
<!-- Created with Inkscape (http://www.inkscape.org/) -->

<svg
   xmlns:dc="http://purl.org/dc/elements/1.1/"
   xmlns:cc="http://creativecommons.org/ns#"
   xmlns:rdf="http://www.w3.org/1999/02/22-rdf-syntax-ns#"
   xmlns:svg="http://www.w3.org/2000/svg"
   xmlns="http://www.w3.org/2000/svg"
   xmlns:sodipodi="http://sodipodi.sourceforge.net/DTD/sodipodi-0.dtd"
   xmlns:inkscape="http://www.inkscape.org/namespaces/inkscape"
   width="744.09448819"
   height="1052.3622047"
   id="svg4129"
   version="1.1"
   inkscape:version="0.48.3.1 r9886"
   sodipodi:docname="43gear.svg">
  <defs
     id="defs4131" />
  <sodipodi:namedview
     id="base"
     pagecolor="#ffffff"
     bordercolor="#666666"
     borderopacity="1.0"
     inkscape:pageopacity="0.0"
     inkscape:pageshadow="2"
     inkscape:zoom="0.35"
     inkscape:cx="375"
     inkscape:cy="716.80591"
     inkscape:document-units="px"
     inkscape:current-layer="layer1"
     showgrid="false"
     inkscape:window-width="1052"
     inkscape:window-height="711"
     inkscape:window-x="325"
     inkscape:window-y="181"
     inkscape:window-maximized="0" />
  <metadata
     id="metadata4134">
    <rdf:RDF>
      <cc:Work
         rdf:about="">
        <dc:format>image/svg+xml</dc:format>
        <dc:type
           rdf:resource="http://purl.org/dc/dcmitype/StillImage" />
        <dc:title />
      </cc:Work>
    </rdf:RDF>
  </metadata>
  <g
     inkscape:label="Layer 1"
     inkscape:groupmode="layer"
     id="layer1">
    <path
       id="path4516"
       style="fill:#99ffff;fill-opacity:1;fill-rule:evenodd;stroke:#000000;stroke-width:1;stroke-linejoin:miter;stroke-miterlimit:4;stroke-opacity:1"
       d="m 129.31159,962.1219 -28.65819,0 -14.3291,-24.81873 14.3291,-24.81872 28.6582,0 14.32909,24.81873 z m 89.81641,-30.61672 5.181,1.799 5.15599,2.537 0,2.924 -5.15599,2.537 -5.181,1.799 -0.26701,3.644 4.864,2.534 4.732,3.261 -0.426,2.892 -5.471,1.76 -5.388,1.025 -0.794,3.567 4.443,3.215 4.207,3.915 -0.842,2.8 -5.669,0.944 -5.48,0.23 -1.305,3.413 3.928,3.827 3.592,4.487 -1.241,2.647 -5.746,0.108 -5.455,-0.57 -1.788,3.186 3.328,4.359 2.901,4.962 -1.613,2.43802 -5.701,-0.729 -5.313,-1.35902 -2.234,2.89202 2.659,4.797 2.147,5.331 -1.951,2.177 -5.534,-1.551 -5.059,-2.118 -2.63,2.537 1.931,5.133 1.349,5.586 -2.247,1.87 -5.249,-2.34 -4.697,-2.832 -2.972,2.126 1.164,5.36 0.52,5.723 -2.495,1.523 -4.852,-3.08 -4.235,-3.485 -3.249,1.67 0.37,5.472 -0.318,5.739 -2.691,1.143 -4.352,-3.754 -3.681,-4.064 -3.459,1.179 -0.43,5.468 -1.15,5.631 -2.828,0.739 -3.76,-4.347 -3.04999,-4.558 -3.59401,0.664 -1.221,5.347 -1.95799,5.403 -2.906,0.32 -3.086,-4.849 -2.355,-4.953 -3.651,0.134 -1.987,5.112 -2.724,5.06 -2.921,-0.107 -2.348,-5.246 -1.608,-5.243 -3.632,-0.399 -2.709997,4.768 -3.432,4.61 -2.875,-0.531 -1.558,-5.532 -0.828,-5.422 -3.535003,-0.924 -3.375,4.323 -4.067,4.061 -2.767,-0.944 -0.736,-5.7 -0.03,-5.484 -3.363,-1.429 -3.968,3.785 -4.615,3.426 -2.6,-1.336 0.101,-5.747 0.77,-5.43 -3.119,-1.903 -4.478,3.167 -5.064,2.717 -2.377,-1.701 0.936,-5.67 1.552,-5.261 -2.809,-2.337 -4.89,2.482 -5.406,1.951 -2.105,-2.029 1.753,-5.474 2.301,-4.978 -2.439,-2.722 -5.2,1.743 -5.632,1.144 -1.787,-2.314 2.531,-5.16 3.001,-4.59002 -2.016,-3.048 -5.398,0.967 -5.739,0.311 -1.431,-2.549 3.255,-4.737 3.638,-4.104 -1.551,-3.308 -5.482,0.17 -5.723,-0.528 -1.044,-2.73 3.91,-4.212 4.197,-3.531 -1.053,-3.499 -5.448,-0.629 -5.585,-1.356 -0.636,-2.853 4.482,-3.598 4.666,-2.882 -0.532,-3.615 -5.299,-1.416 -5.328,-2.154 -0.213,-2.916 4.957,-2.907 5.036,-2.172 0,-3.654 -5.036,-2.172 -4.957,-2.907 0.213,-2.916 5.328,-2.154 5.299,-1.416 0.532,-3.615 -4.666,-2.882 -4.482,-3.598 0.636,-2.853 5.585,-1.356 5.448,-0.629 1.053,-3.499 -4.197,-3.531 -3.91,-4.212 1.044,-2.73 5.723,-0.528 5.482,0.17 1.551,-3.308 -3.638,-4.104 -3.255,-4.737 1.431,-2.549 5.739,0.311 5.398,0.967 2.016,-3.048 -3.001,-4.59 -2.531,-5.16 1.787,-2.314 5.632,1.144 5.2,1.743 2.439,-2.722 -2.301,-4.978 -1.753,-5.474 2.105,-2.029 5.406,1.951 4.89,2.482 2.809,-2.337 -1.552,-5.261 -0.936,-5.67 2.377,-1.701 5.064,2.717 4.478,3.167 3.119,-1.903 -0.77,-5.43 -0.101,-5.747 2.6,-1.336 4.615,3.426 3.968,3.785 3.363,-1.429 0.03,-5.484 0.736,-5.7 2.767,-0.944 4.067,4.061 3.375,4.323 3.535003,-0.924 0.828,-5.422 1.558,-5.532 2.875,-0.531 3.432,4.61 2.709997,4.768 3.632,-0.399 1.608,-5.243 2.348,-5.246 2.921,-0.107 2.724,5.06 1.987,5.112 3.651,0.134 2.355,-4.953 3.086,-4.849 2.906,0.32 1.95799,5.403 1.221,5.347 3.59401,0.664 3.04999,-4.558 3.76,-4.347 2.828,0.739 1.15,5.631 0.43,5.468 3.459,1.179 3.681,-4.064 4.352,-3.754 2.691,1.143 0.318,5.739 -0.37,5.472 3.249,1.67 4.235,-3.485 4.852,-3.08 2.495,1.523 -0.52,5.723 -1.164,5.36 2.972,2.126 4.697,-2.832 5.249,-2.34 2.247,1.87 -1.349,5.586 -1.931,5.133 2.63,2.537 5.059,-2.118 5.534,-1.551 1.951,2.177 -2.147,5.331 -2.659,4.797 2.234,2.892 5.313,-1.359 5.701,-0.729 1.613,2.438 -2.901,4.962 -3.328,4.359 1.788,3.186 5.455,-0.57 5.746,0.108 1.241,2.647 -3.592,4.487 -3.928,3.827 1.305,3.413 5.48,0.23 5.669,0.944 0.842,2.8 -4.207,3.915 -4.443,3.215 0.794,3.567 5.388,1.025 5.471,1.76 0.426,2.892 -4.732,3.261 -4.864,2.534 z"
       inkscape:connector-curvature="0" />
  </g>
</svg>
