<?xml version="1.0" encoding="UTF-8" standalone="no"?>
<!-- Created with sK1/UniConvertor (http://sk1project.org/) -->

<svg
   xmlns:dc="http://purl.org/dc/elements/1.1/"
   xmlns:cc="http://creativecommons.org/ns#"
   xmlns:rdf="http://www.w3.org/1999/02/22-rdf-syntax-ns#"
   xmlns:svg="http://www.w3.org/2000/svg"
   xmlns="http://www.w3.org/2000/svg"
   xmlns:sodipodi="http://sodipodi.sourceforge.net/DTD/sodipodi-0.dtd"
   xmlns:inkscape="http://www.inkscape.org/namespaces/inkscape"
   width="595.276pt"
   height="841.89pt"
   viewBox="0 0 595.276 841.89"
   fill-rule="evenodd"
   id="svg4999"
   version="1.1"
   inkscape:version="0.48.3.1 r9886"
   sodipodi:docname="part20.svg">
  <metadata
     id="metadata5107">
    <rdf:RDF>
      <cc:Work
         rdf:about="">
        <dc:format>image/svg+xml</dc:format>
        <dc:type
           rdf:resource="http://purl.org/dc/dcmitype/StillImage" />
        <dc:title />
      </cc:Work>
    </rdf:RDF>
  </metadata>
  <sodipodi:namedview
     pagecolor="#ffffff"
     bordercolor="#666666"
     borderopacity="1"
     objecttolerance="10"
     gridtolerance="10"
     guidetolerance="10"
     inkscape:pageopacity="0"
     inkscape:pageshadow="2"
     inkscape:window-width="860"
     inkscape:window-height="651"
     id="namedview5105"
     showgrid="false"
     inkscape:zoom="0.22425732"
     inkscape:cx="372.0475"
     inkscape:cy="526.18128"
     inkscape:window-x="65"
     inkscape:window-y="24"
     inkscape:window-maximized="0"
     inkscape:current-layer="svg4999" />
  <defs
     id="defs5001">
    <marker
       id="ArrowEnd"
       viewBox="0 0 10 10"
       refX="0"
       refY="5"
       markerUnits="strokeWidth"
       markerWidth="4"
       markerHeight="3"
       orient="auto">
      <path
         d="M 0 0 L 10 5 L 0 10 z"
         id="path5004" />
    </marker>
    <marker
       id="ArrowStart"
       viewBox="0 0 10 10"
       refX="10"
       refY="5"
       markerUnits="strokeWidth"
       markerWidth="4"
       markerHeight="3"
       orient="auto">
      <path
         d="M 10 0 L 0 5 L 10 10 z"
         id="path5007" />
    </marker>
  </defs>
  <path
     style="fill:#99ffff;stroke:#000000;stroke-width:1"
     d="m 146.89,680.41883 -0.786,-0.6121 0.059,-9.4471 -1.01,-0.6682 -8.672,3.7496 -0.867,-0.491 -1.316,-9.355 -1.097,-0.514 -8.034,4.9721 -0.929,-0.3595 -2.664,-9.0635 -1.161,-0.349 -7.223,6.0887 -0.972,-0.2202 -3.956,-8.5791 -1.198,-0.1763 -6.261,7.0756 -0.992999,-0.0765 -5.163,-7.9114 -1.211,0 -5.167,7.9122 -0.996,0.0689 -6.261001,-7.0756 -1.198,0.1764 -3.956,8.5803 -0.973,0.2127 -7.224,-6.0888 -1.16,0.349 -2.664,9.065 -0.932,0.3521 -8.034,-4.9721 -1.096,0.5143 -1.316,9.3561 -0.871,0.4842 -8.672,-3.7496 -1.01,0.6685 0.06,9.4482 -0.791,0.6056 -9.125,-2.4469 -0.902,0.8085 1.435,9.3386 -0.694,0.7144 -9.385,-1.0921 -0.774,0.931 2.779,9.0303 -0.583,0.8077 -9.443,0.2861 -0.631,1.0339 4.065,8.5291 -0.459,0.8842 -9.301,1.6579 -0.474,1.1148 5.263,7.8464 -0.325,0.9415 -8.961,2.9946 -0.306,1.1717 6.35,6.997 -0.185,0.978 -8.429,4.268 -0.132,1.203 7.3,5.99801 -0.04,0.996 -7.718,5.448 0.044,1.211 8.096,4.87 0.105,0.991 -6.842,6.515 0.22,1.191 8.719,3.64 0.248,0.964 -5.821,7.442 0.391,1.146 9.156,2.332 0.386,0.918 -4.675,8.21 0.554,1.077 9.397,0.974 0.516,0.852 -3.43,8.803 0.705,0.985 9.439,-0.404 0.634,0.767 -2.111,9.209 0.84,0.872 9.28,-1.775 0.739,0.668 -0.748,9.417 0.959,0.74 8.922,-3.106 0.829,0.552 0.63,9.427 1.056,0.592 8.375,-4.372 0.901,0.426 1.996,9.234 1.131,0.432 7.649,-5.545 0.953,0.29 3.32,8.845 1.182,0.264 6.76,-6.6 0.985001,0.148 4.572,8.267 1.208,0.089 5.727,-7.514 0.996,0.003 5.726999,7.514 1.208,-0.088 4.572,-8.268 0.986,-0.142 6.76,6.6 1.182,-0.263 3.32,-8.846 0.955,-0.283 7.649,5.545 1.131,-0.433 1.996,-9.234 0.904,-0.42 8.374,4.373 1.056,-0.593 0.631,-9.427 0.833,-0.546 8.922,3.106 0.958,-0.74 -0.748,-9.418 0.744,-0.662 9.279,1.774 0.841,-0.872 -2.112,-9.209 0.64,-0.763 9.439,0.404 0.704,-0.985 -3.43,-8.803 0.522,-0.848 9.397,-0.975 0.554,-1.077 -4.675,-8.209 0.393,-0.916 9.154,-2.332 0.391,-1.146 -5.821,-7.442 0.256,-0.963 8.717,-3.64 0.22,-1.191 -6.842,-6.514 0.113,-0.99 8.095,-4.871 0.043,-1.211 -7.717,-5.448 -0.033,-0.996 7.299,-5.99801 -0.132,-1.204 -8.429,-4.266 -0.177,-0.981 6.348,-6.9963 -0.307,-1.1717 -8.96,-2.9943 -0.318,-0.9441 5.262,-7.8461 -0.474,-1.1148 -9.301,-1.6576 -0.452,-0.8876 4.064,-8.5288 -0.632,-1.034 -9.443,-0.2854 -0.577,-0.8126 2.779,-9.0295 -0.775,-0.9309 -9.384,1.0923 -0.689,-0.7198 1.434,-9.3379 -0.902,-0.8083 -9.125,2.4472 z m -64.198999,47.9027 11.325,-3e-4 11.323999,6e-4 5.662,9.8072 5.662,9.80701 -5.662,9.807 -5.662,9.808 -11.323999,0 -11.325,-10e-4 -5.662001,-9.807 -5.662,-9.807 5.662,-9.80701 5.662001,-9.8075 z"
     id="path5101"
     inkscape:connector-curvature="0" />
</svg>
