<?xml version="1.0" encoding="UTF-8" standalone="no"?>
<!-- Created with sK1/UniConvertor (http://sk1project.org/) -->

<svg
   xmlns:dc="http://purl.org/dc/elements/1.1/"
   xmlns:cc="http://creativecommons.org/ns#"
   xmlns:rdf="http://www.w3.org/1999/02/22-rdf-syntax-ns#"
   xmlns:svg="http://www.w3.org/2000/svg"
   xmlns="http://www.w3.org/2000/svg"
   xmlns:sodipodi="http://sodipodi.sourceforge.net/DTD/sodipodi-0.dtd"
   xmlns:inkscape="http://www.inkscape.org/namespaces/inkscape"
   width="595.276pt"
   height="841.89pt"
   viewBox="0 0 595.276 841.89"
   fill-rule="evenodd"
   id="svg3233"
   version="1.1"
   inkscape:version="0.48.3.1 r9886"
   sodipodi:docname="part08.svg">
  <metadata
     id="metadata3273">
    <rdf:RDF>
      <cc:Work
         rdf:about="">
        <dc:format>image/svg+xml</dc:format>
        <dc:type
           rdf:resource="http://purl.org/dc/dcmitype/StillImage" />
        <dc:title />
      </cc:Work>
    </rdf:RDF>
  </metadata>
  <sodipodi:namedview
     pagecolor="#ffffff"
     bordercolor="#666666"
     borderopacity="1"
     objecttolerance="10"
     gridtolerance="10"
     guidetolerance="10"
     inkscape:pageopacity="0"
     inkscape:pageshadow="2"
     inkscape:window-width="1386"
     inkscape:window-height="945"
     id="namedview3271"
     showgrid="false"
     inkscape:zoom="7.1762338"
     inkscape:cx="-18.065844"
     inkscape:cy="18.113555"
     inkscape:window-x="65"
     inkscape:window-y="24"
     inkscape:window-maximized="0"
     inkscape:current-layer="svg3233" />
  <defs
     id="defs3235">
    <marker
       id="ArrowEnd"
       viewBox="0 0 10 10"
       refX="0"
       refY="5"
       markerUnits="strokeWidth"
       markerWidth="4"
       markerHeight="3"
       orient="auto">
      <path
         d="M 0 0 L 10 5 L 0 10 z"
         id="path3238" />
    </marker>
    <marker
       id="ArrowStart"
       viewBox="0 0 10 10"
       refX="10"
       refY="5"
       markerUnits="strokeWidth"
       markerWidth="4"
       markerHeight="3"
       orient="auto">
      <path
         d="M 10 0 L 0 5 L 10 10 z"
         id="path3241" />
    </marker>
  </defs>
  <path
     id="path3051"
     style="fill:#00ccff;fill-opacity:1;fill-rule:evenodd;stroke:#000000;stroke-width:0.80000001;stroke-linejoin:miter;stroke-miterlimit:4;stroke-opacity:1"
     d="m 17.679,817.26106 c -1.795265,0 -3.418496,0.70568 -4.65,1.82504 l 0,10.24992 c 1.231504,1.11936 2.854735,1.8 4.65,1.8 1.798585,0 3.442719,-0.67696 4.675,-1.8 l 0,-10.24992 c -1.232281,-1.12304 -2.876415,-1.82504 -4.675,-1.82504 z m 3.129,-6.66852 0,-3.6855 -6.237,0 -10e-4,3.6849 -4.297,1.7813 -2.605,-2.6054 -4.41,4.4101 2.603,2.606 -1.779,4.2975 -3.68199999,6e-4 0,6.2367 3.68099999,10e-4 1.782,4.297 -2.603,2.6048 4.411,4.4102 2.602,-2.6034 4.298,1.779 0.004,3.6827 6.236,0 -0.001,-3.6822 4.296,-1.7812 2.608,2.6025 4.41,-4.4101 -2.606,-2.6031 1.779,-4.2979 3.686,-0.003 0,-6.2367 -3.685,10e-4 -1.781,-4.2967 2.605,-2.6076 -4.41,-4.4101 -2.606,2.6059 -4.298,-1.7787 z"
     inkscape:connector-curvature="0" />
</svg>
