999
dxfrw 0.5.10
0
SECTION
2
HEADER
9
$ACADVER
1
AC1021
9
$HANDSEED
5
20000
9
$DWGCODEPAGE
3
ANSI_1252
9
$INSBASE
10
0
20
0
30
0
9
$EXTMIN
10
10000000000
20
10000000000
30
0
9
$EXTMAX
10
-10000000000
20
-10000000000
30
0
9
$LIMMIN
10
0
20
0
9
$LIMMAX
10
420
20
297
9
$ORTHOMODE
70
0
9
$LTSCALE
40
1
9
$TEXTSTYLE
7
STANDARD
9
$DIMASZ
40
2.5
9
$DIMSCALE
40
1
9
$DIMEXO
40
0.625
9
$DIMEXE
40
1.25
9
$DIMTXT
40
2.5
9
$DIMTSZ
40
0
9
$DIMAUNIT
70
0
9
$DIMADEC
70
0
9
$DIMLUNIT
70
2
9
$DIMSTYLE
2
Standard
9
$DIMGAP
40
0.625
9
$DIMTIH
70
0
9
$LUNITS
70
2
9
$LUPREC
70
4
9
$AUNITS
70
0
9
$AUPREC
70
2
9
$SPLINESEGS
70
8
9
$SNAPSTYLE
70
0
9
$PINSBASE
10
0
20
0
30
0
9
$PLIMMIN
10
0
20
0
9
$PLIMMAX
10
210
20
297
9
$INSUNITS
70
0
9
$PSVPSCALE
40
1
0
ENDSEC
0
SECTION
2
CLASSES
0
ENDSEC
0
SECTION
2
TABLES
0
TABLE
2
VPORT
5
8
330
0
100
AcDbSymbolTable
70
1
0
VPORT
5
31
330
2
100
AcDbSymbolTableRecord
100
AcDbViewportTableRecord
2
*ACTIVE
70
0
10
0
20
0
11
1
21
1
12
86.72
22
37.92
13
0
23
0
14
10
24
10
15
10
25
10
16
0
26
0
36
1
17
0
27
0
37
0
40
150.24
41
1.66879659212
42
50
43
0
44
0
50
0
51
0
71
0
72
100
73
1
74
3
75
0
76
1
77
0
78
0
281
0
65
1
110
0
120
0
130
0
111
1
121
0
131
0
112
0
122
1
132
0
79
0
146
0
348
10020
60
7
61
5
292
1
282
1
141
0
142
0
63
250
421
3358443
0
ENDTAB
0
TABLE
2
LTYPE
5
5
330
0
100
AcDbSymbolTable
70
4
0
LTYPE
5
14
330
5
100
AcDbSymbolTableRecord
100
AcDbLinetypeTableRecord
2
ByBlock
70
0
3

72
65
73
0
40
0
0
LTYPE
5
15
330
5
100
AcDbSymbolTableRecord
100
AcDbLinetypeTableRecord
2
ByLayer
70
0
3

72
65
73
0
40
0
0
LTYPE
5
16
330
5
100
AcDbSymbolTableRecord
100
AcDbLinetypeTableRecord
2
Continuous
70
0
3
Solid line
72
65
73
0
40
0
0
LTYPE
5
32
330
5
100
AcDbSymbolTableRecord
100
AcDbLinetypeTableRecord
2
DOT
70
0
3
Dot . . . . . . . . . . . . . . . . . . . . . .
72
65
73
2
40
6.35
49
0
74
0
49
-6.35
74
0
0
LTYPE
5
33
330
5
100
AcDbSymbolTableRecord
100
AcDbLinetypeTableRecord
2
DOT2
70
0
3
Dot (.5x) .....................................
72
65
73
2
40
3.175
49
0
74
0
49
-3.175
74
0
0
LTYPE
5
34
330
5
100
AcDbSymbolTableRecord
100
AcDbLinetypeTableRecord
2
DOTX2
70
0
3
Dot (2x) .  .  .  .  .  .  .  .  .  .  .  .  .
72
65
73
2
40
12.7
49
0
74
0
49
-12.7
74
0
0
LTYPE
5
35
330
5
100
AcDbSymbolTableRecord
100
AcDbLinetypeTableRecord
2
DASHED
70
0
3
Dot . . . . . . . . . . . . . . . . . . . . . .
72
65
73
2
40
19.05
49
12.7
74
0
49
-6.35
74
0
0
LTYPE
5
36
330
5
100
AcDbSymbolTableRecord
100
AcDbLinetypeTableRecord
2
DASHED2
70
0
3
Dashed (.5x) _ _ _ _ _ _ _ _ _ _ _ _ _ _ _ _ _
72
65
73
2
40
9.525
49
6.35
74
0
49
-3.175
74
0
0
LTYPE
5
37
330
5
100
AcDbSymbolTableRecord
100
AcDbLinetypeTableRecord
2
DASHEDX2
70
0
3
Dashed (2x) ____  ____  ____  ____  ____  ___
72
65
73
2
40
38.1
49
25.4
74
0
49
-12.7
74
0
0
LTYPE
5
38
330
5
100
AcDbSymbolTableRecord
100
AcDbLinetypeTableRecord
2
DASHDOT
70
0
3
Dash dot __ . __ . __ . __ . __ . __ . __ . __
72
65
73
4
40
25.4
49
12.7
74
0
49
-6.35
74
0
49
0
74
0
49
-6.35
74
0
0
LTYPE
5
39
330
5
100
AcDbSymbolTableRecord
100
AcDbLinetypeTableRecord
2
DASHDOT2
70
0
3
Dash dot (.5x) _._._._._._._._._._._._._._._.
72
65
73
4
40
12.7
49
6.35
74
0
49
-3.175
74
0
49
0
74
0
49
-3.175
74
0
0
LTYPE
5
3A
330
5
100
AcDbSymbolTableRecord
100
AcDbLinetypeTableRecord
2
DASHDOTX2
70
0
3
Dash dot (2x) ____  .  ____  .  ____  .  ___
72
65
73
4
40
50.8
49
25.4
74
0
49
-12.7
74
0
49
0
74
0
49
-12.7
74
0
0
LTYPE
5
3B
330
5
100
AcDbSymbolTableRecord
100
AcDbLinetypeTableRecord
2
DIVIDE
70
0
3
Divide ____ . . ____ . . ____ . . ____ . . ____
72
65
73
6
40
31.75
49
12.7
74
0
49
-6.35
74
0
49
0
74
0
49
-6.35
74
0
49
0
74
0
49
-6.35
74
0
0
LTYPE
5
3C
330
5
100
AcDbSymbolTableRecord
100
AcDbLinetypeTableRecord
2
DIVIDE2
70
0
3
Divide (.5x) __..__..__..__..__..__..__..__.._
72
65
73
6
40
15.875
49
6.35
74
0
49
-3.175
74
0
49
0
74
0
49
-3.175
74
0
49
0
74
0
49
-3.175
74
0
0
LTYPE
5
3D
330
5
100
AcDbSymbolTableRecord
100
AcDbLinetypeTableRecord
2
DIVIDEX2
70
0
3
Divide (2x) ________  .  .  ________  .  .  _
72
65
73
6
40
63.5
49
25.4
74
0
49
-12.7
74
0
49
0
74
0
49
-12.7
74
0
49
0
74
0
49
-12.7
74
0
0
LTYPE
5
3E
330
5
100
AcDbSymbolTableRecord
100
AcDbLinetypeTableRecord
2
BORDER
70
0
3
Border __ __ . __ __ . __ __ . __ __ . __ __ .
72
65
73
6
40
44.45
49
12.7
74
0
49
-6.35
74
0
49
12.7
74
0
49
-6.35
74
0
49
0
74
0
49
-6.35
74
0
0
LTYPE
5
3F
330
5
100
AcDbSymbolTableRecord
100
AcDbLinetypeTableRecord
2
BORDER2
70
0
3
Border (.5x) __.__.__.__.__.__.__.__.__.__.__.
72
65
73
6
40
22.225
49
6.35
74
0
49
-3.175
74
0
49
6.35
74
0
49
-3.175
74
0
49
0
74
0
49
-3.175
74
0
0
LTYPE
5
40
330
5
100
AcDbSymbolTableRecord
100
AcDbLinetypeTableRecord
2
BORDERX2
70
0
3
Border (2x) ____  ____  .  ____  ____  .  ___
72
65
73
6
40
88.9
49
25.4
74
0
49
-12.7
74
0
49
25.4
74
0
49
-12.7
74
0
49
0
74
0
49
-12.7
74
0
0
LTYPE
5
41
330
5
100
AcDbSymbolTableRecord
100
AcDbLinetypeTableRecord
2
CENTER
70
0
3
Center ____ _ ____ _ ____ _ ____ _ ____ _ ____
72
65
73
4
40
50.8
49
31.75
74
0
49
-6.35
74
0
49
6.35
74
0
49
-6.35
74
0
0
LTYPE
5
42
330
5
100
AcDbSymbolTableRecord
100
AcDbLinetypeTableRecord
2
CENTER2
70
0
3
Center (.5x) ___ _ ___ _ ___ _ ___ _ ___ _ ___
72
65
73
4
40
28.575
49
19.05
74
0
49
-3.175
74
0
49
3.175
74
0
49
-3.175
74
0
0
LTYPE
5
43
330
5
100
AcDbSymbolTableRecord
100
AcDbLinetypeTableRecord
2
CENTERX2
70
0
3
Center (2x) ________  __  ________  __  _____
72
65
73
4
40
101.6
49
63.5
74
0
49
-12.7
74
0
49
12.7
74
0
49
-12.7
74
0
0
ENDTAB
0
TABLE
2
LAYER
5
2
330
0
100
AcDbSymbolTable
70
1
0
LAYER
5
10
330
2
100
AcDbSymbolTableRecord
100
AcDbLayerTableRecord
2
0
70
0
62
7
6
CONTINUOUS
370
50
390
F
0
LAYER
5
44
330
2
100
AcDbSymbolTableRecord
100
AcDbLayerTableRecord
2
dim
70
0
62
7
6
CONTINUOUS
370
-3
390
F
0
LAYER
5
45
330
2
100
AcDbSymbolTableRecord
100
AcDbLayerTableRecord
2
base
70
0
62
7
6
CENTER
370
0
390
F
0
ENDTAB
0
TABLE
2
STYLE
5
3
330
0
100
AcDbSymbolTable
70
3
0
STYLE
5
46
330
2
100
AcDbSymbolTableRecord
100
AcDbTextStyleTableRecord
2
Standard
70
0
40
0
41
1
50
0
71
0
42
1
3
txt
4

0
ENDTAB
0
TABLE
2
VIEW
5
6
330
0
100
AcDbSymbolTable
70
0
0
ENDTAB
0
TABLE
2
UCS
5
7
330
0
100
AcDbSymbolTable
70
0
0
ENDTAB
0
TABLE
2
APPID
5
9
330
0
100
AcDbSymbolTable
70
1
0
APPID
5
12
330
9
100
AcDbSymbolTableRecord
100
AcDbRegAppTableRecord
2
ACAD
70
0
0
ENDTAB
0
TABLE
2
DIMSTYLE
5
A
330
0
100
AcDbSymbolTable
70
1
100
AcDbDimStyleTable
71
1
0
DIMSTYLE
105
47
330
A
100
AcDbSymbolTableRecord
100
AcDbDimStyleTableRecord
2
Standard
70
0
40
1
41
2.5
42
0.625
43
0.38
44
1.25
45
0
46
0
47
0
48
0
140
2.5
141
0.09
142
0
143
25.4
144
1
145
0
146
1
147
0.625
148
0
71
0
72
0
73
0
74
1
75
0
76
0
77
0
78
0
79
0
170
0
171
2
172
0
173
0
174
0
175
0
176
0
177
0
178
0
179
0
271
4
272
4
273
2
274
2
275
0
276
0
277
2
278
46
279
0
280
0
281
0
282
0
283
1
284
0
285
0
286
0
288
0
289
3
340
Standard
341

371
-2
372
-2
0
ENDTAB
0
TABLE
2
BLOCK_RECORD
5
1
330
0
100
AcDbSymbolTable
70
2
0
BLOCK_RECORD
5
1F
330
1
100
AcDbSymbolTableRecord
100
AcDbBlockTableRecord
2
*Model_Space
70
0
280
1
281
0
0
BLOCK_RECORD
5
1E
330
1
100
AcDbSymbolTableRecord
100
AcDbBlockTableRecord
2
*Paper_Space
70
0
280
1
281
0
0
BLOCK_RECORD
5
48
330
1
100
AcDbSymbolTableRecord
100
AcDbBlockTableRecord
2
CUT001008009024_PROJ
70
0
280
1
281
0
0
BLOCK_RECORD
5
4B
330
1
100
AcDbSymbolTableRecord
100
AcDbBlockTableRecord
2
CUT001008009024_PROJ001
70
0
280
1
281
0
0
ENDTAB
0
ENDSEC
0
SECTION
2
BLOCKS
0
BLOCK
5
20
330
1F
100
AcDbEntity
8
0
100
AcDbBlockBegin
2
*Model_Space
70
0
10
0
20
0
30
0
3
*Model_Space
1

0
ENDBLK
5
21
330
1F
100
AcDbEntity
8
0
100
AcDbBlockEnd
0
BLOCK
5
1C
330
1B
100
AcDbEntity
8
0
100
AcDbBlockBegin
2
*Paper_Space
70
0
10
0
20
0
30
0
3
*Paper_Space
1

0
ENDBLK
5
1D
330
1F
100
AcDbEntity
8
0
100
AcDbBlockEnd
0
BLOCK
5
49
330
48
100
AcDbEntity
8
0
100
AcDbBlockBegin
2
CUT001008009024_PROJ
70
0
10
0
20
0
3
CUT001008009024_PROJ
1

0
LWPOLYLINE
5
4E
100
AcDbEntity
8
0
6
ByLayer
62
0
370
-1
100
AcDbPolyline
90
2
70
0
43
0
10
18.6529486105
20
23.818656325
10
18.3756652775
20
24.034591603
0
LWPOLYLINE
5
4F
100
AcDbEntity
8
0
6
ByLayer
62
0
370
-1
100
AcDbPolyline
90
2
70
0
43
0
10
18.6529486105
20
23.818656325
10
18.3756652775
20
24.034591603
0
LWPOLYLINE
5
50
100
AcDbEntity
8
0
6
ByLayer
62
0
370
-1
100
AcDbPolyline
90
2
70
0
43
0
10
21.8720458335
20
24.681974103
10
18.6529486105
20
23.818656325
0
LWPOLYLINE
5
51
100
AcDbEntity
8
0
6
ByLayer
62
0
370
-1
100
AcDbPolyline
90
2
70
0
43
0
10
18.3756652775
20
24.034591603
10
18.3964791665
20
27.367318547
0
LWPOLYLINE
5
52
100
AcDbEntity
8
0
6
ByLayer
62
0
370
-1
100
AcDbPolyline
90
2
70
0
43
0
10
18.3756652775
20
24.034591603
10
18.3964791665
20
27.367318547
0
LWPOLYLINE
5
53
100
AcDbEntity
8
0
6
ByLayer
62
0
370
-1
100
AcDbPolyline
90
2
70
0
43
0
10
22.1902513885
20
24.396823825
10
21.8720458335
20
24.681974103
0
LWPOLYLINE
5
54
100
AcDbEntity
8
0
6
ByLayer
62
0
370
-1
100
AcDbPolyline
90
2
70
0
43
0
10
18.3964791665
20
27.367318547
10
18.0401736105
20
27.603044658
0
LWPOLYLINE
5
55
100
AcDbEntity
8
0
6
ByLayer
62
0
370
-1
100
AcDbPolyline
90
2
70
0
43
0
10
21.6843680555
20
21.102620214
10
22.1902513885
20
24.396823825
0
LWPOLYLINE
5
56
100
AcDbEntity
8
0
6
ByLayer
62
0
370
-1
100
AcDbPolyline
90
2
70
0
43
0
10
21.9274319445
20
20.848690769
10
21.6843680555
20
21.102620214
0
LWPOLYLINE
5
57
100
AcDbEntity
8
0
6
ByLayer
62
0
370
-1
100
AcDbPolyline
90
2
70
0
43
0
10
14.9808847225
20
26.280269103
10
14.6750263885
20
26.453482992
0
LWPOLYLINE
5
58
100
AcDbEntity
8
0
6
ByLayer
62
0
370
-1
100
AcDbPolyline
90
2
70
0
43
0
10
14.6750263885
20
26.453482992
10
14.2107708335
20
29.7537191028
0
LWPOLYLINE
5
59
100
AcDbEntity
8
0
6
ByLayer
62
0
370
-1
100
AcDbPolyline
90
2
70
0
43
0
10
25.5113013885
20
20.905629103
10
25.2378986105
20
21.234029936
0
LWPOLYLINE
5
5A
100
AcDbEntity
8
0
6
ByLayer
62
0
370
-1
100
AcDbPolyline
90
2
70
0
43
0
10
14.2107708335
20
29.7537191028
10
13.8237736105
20
29.9350468806
0
LWPOLYLINE
5
5B
100
AcDbEntity
8
0
6
ByLayer
62
0
370
-1
100
AcDbPolyline
90
2
70
0
43
0
10
24.5309319445
20
17.720222158
10
25.5113013885
20
20.905629103
0
LWPOLYLINE
5
5C
100
AcDbEntity
8
0
6
ByLayer
62
0
370
-1
100
AcDbPolyline
90
2
70
0
43
0
10
10.9895569445
20
28.1810004917
10
10.6618263885
20
28.3078241028
0
LWPOLYLINE
5
5D
100
AcDbEntity
8
0
6
ByLayer
62
0
370
-1
100
AcDbPolyline
90
2
70
0
43
0
10
10.6618263885
20
28.3078241028
10
9.7220263885
20
31.5052254917
0
LWPOLYLINE
5
5E
100
AcDbEntity
8
0
6
ByLayer
62
0
370
-1
100
AcDbPolyline
90
2
70
0
43
0
10
28.2887208335
20
16.968099936
10
28.0657652775
20
17.332872158
0
LWPOLYLINE
5
5F
100
AcDbEntity
8
0
6
ByLayer
62
0
370
-1
100
AcDbPolyline
90
2
70
0
43
0
10
9.7220263885
20
31.5052254917
10
9.3124513885
20
31.6283449361
0
LWPOLYLINE
5
60
100
AcDbEntity
8
0
6
ByLayer
62
0
370
-1
100
AcDbPolyline
90
2
70
0
43
0
10
26.8550319445
20
13.959328825
10
28.2887208335
20
16.968099936
0
LWPOLYLINE
5
61
100
AcDbEntity
8
0
6
ByLayer
62
0
370
-1
100
AcDbPolyline
90
2
70
0
43
0
10
27.0144874995
20
13.646203269
10
26.8550319445
20
13.959328825
0
LWPOLYLINE
5
62
100
AcDbEntity
8
0
6
ByLayer
62
0
370
-1
100
AcDbPolyline
90
2
70
0
43
0
10
6.7643374995
20
29.4803868806
10
6.4214374995
20
29.5580685472
0
LWPOLYLINE
5
63
100
AcDbEntity
8
0
6
ByLayer
62
0
370
-1
100
AcDbPolyline
90
2
70
0
43
0
10
6.4214374995
20
29.5580685472
10
5.0258486105
20
32.5845843806
0
LWPOLYLINE
5
64
100
AcDbEntity
8
0
6
ByLayer
62
0
370
-1
100
AcDbPolyline
90
2
70
0
43
0
10
30.4628902775
20
12.668162158
10
30.2956736105
20
13.061438825
0
LWPOLYLINE
5
65
100
AcDbEntity
8
0
6
ByLayer
62
0
370
-1
100
AcDbPolyline
90
2
70
0
43
0
10
28.6065736105
20
9.900232436
10
30.4628902775
20
12.668162158
0
LWPOLYLINE
5
66
100
AcDbEntity
8
0
6
ByLayer
62
0
370
-1
100
AcDbPolyline
90
2
70
0
43
0
10
28.7187569445
20
9.567174936
10
28.6065736105
20
9.900232436
0
LWPOLYLINE
5
67
100
AcDbEntity
8
0
6
ByLayer
62
0
370
-1
100
AcDbPolyline
90
2
70
0
43
0
10
31.8796458335
20
8.510852436
10
28.7187569445
20
9.567174936
0
LWPOLYLINE
5
68
100
AcDbEntity
8
0
6
ByLayer
62
0
370
-1
100
AcDbPolyline
90
2
70
0
43
0
10
2.0441708335
20
30.1776521583
10
0.2227791665
20
32.9686182694
0
LWPOLYLINE
5
69
100
AcDbEntity
8
0
6
ByLayer
62
0
370
-1
100
AcDbPolyline
90
2
70
0
43
0
10
31.9879486105
20
8.097502714
10
31.8796458335
20
8.510852436
0
LWPOLYLINE
5
6A
100
AcDbEntity
8
0
6
ByLayer
62
0
370
-1
100
AcDbPolyline
90
2
70
0
43
0
10
29.7485152775
20
5.629363547
10
31.9879486105
20
8.097502714
0
LWPOLYLINE
5
6B
100
AcDbEntity
8
0
6
ByLayer
62
0
370
-1
100
AcDbPolyline
90
2
70
0
43
0
10
29.8109569445
20
5.283288547
10
29.7485152775
20
5.629363547
0
LWPOLYLINE
5
6C
100
AcDbEntity
8
0
6
ByLayer
62
0
370
-1
100
AcDbPolyline
90
2
70
0
43
0
10
-2.3786041665
20
30.1530635472
10
-4.5873461865
20
32.6491779917
0
LWPOLYLINE
5
6D
100
AcDbEntity
8
0
6
ByLayer
62
0
370
-1
100
AcDbPolyline
90
2
70
0
43
0
10
32.8310874995
20
3.353594103
10
32.7845208335
20
3.778338547
0
LWPOLYLINE
5
6E
100
AcDbEntity
8
0
6
ByLayer
62
0
370
-1
100
AcDbPolyline
90
2
70
0
43
0
10
30.2561624995
20
1.237632286
10
32.8310874995
20
3.353594103
0
LWPOLYLINE
5
6F
100
AcDbEntity
8
0
6
ByLayer
62
0
370
-1
100
AcDbPolyline
90
2
70
0
43
0
10
30.2678041665
20
0.886265619
10
30.2561624995
20
1.237632286
0
LWPOLYLINE
5
70
100
AcDbEntity
8
0
6
ByLayer
62
0
370
-1
100
AcDbPolyline
90
2
70
0
43
0
10
32.9901902775
20
-1.035667714
10
30.2678041665
20
0.886265619
0
LWPOLYLINE
5
71
100
AcDbEntity
8
0
6
ByLayer
62
0
370
-1
100
AcDbPolyline
90
2
70
0
43
0
10
-6.7488156305
20
29.4849729917
10
-9.2972822975
20
31.632966325
0
LWPOLYLINE
5
72
100
AcDbEntity
8
0
6
ByLayer
62
0
370
-1
100
AcDbPolyline
90
2
70
0
43
0
10
32.9750208335
20
-1.462881603
10
32.9901902775
20
-1.035667714
0
LWPOLYLINE
5
73
100
AcDbEntity
8
0
6
ByLayer
62
0
370
-1
100
AcDbPolyline
90
2
70
0
43
0
10
30.1192847225
20
-3.181262158
10
32.9750208335
20
-1.462881603
0
LWPOLYLINE
5
74
100
AcDbEntity
8
0
6
ByLayer
62
0
370
-1
100
AcDbPolyline
90
2
70
0
43
0
10
30.0794208335
20
-3.530512158
10
30.1192847225
20
-3.181262158
0
LWPOLYLINE
5
75
100
AcDbEntity
8
0
6
ByLayer
62
0
370
-1
100
AcDbPolyline
90
2
70
0
43
0
10
32.4931263885
20
-5.828506603
10
30.0794208335
20
-3.530512158
0
LWPOLYLINE
5
76
100
AcDbEntity
8
0
6
ByLayer
62
0
370
-1
100
AcDbPolyline
90
2
70
0
43
0
10
32.4155152775
20
-6.248664936
10
32.4931263885
20
-5.828506603
0
LWPOLYLINE
5
77
100
AcDbEntity
8
0
6
ByLayer
62
0
370
-1
100
AcDbPolyline
90
2
70
0
43
0
10
29.3403513885
20
-7.532776047
10
32.4155152775
20
-6.248664936
0
LWPOLYLINE
5
78
100
AcDbEntity
8
0
6
ByLayer
62
0
370
-1
100
AcDbPolyline
90
2
70
0
43
0
10
29.2500402775
20
-7.872501047
10
29.3403513885
20
-7.532776047
0
LWPOLYLINE
5
79
100
AcDbEntity
8
0
6
ByLayer
62
0
370
-1
100
AcDbPolyline
90
2
70
0
43
0
10
31.3035597225
20
-10.497873269
10
29.2500402775
20
-7.872501047
0
LWPOLYLINE
5
7A
100
AcDbEntity
8
0
6
ByLayer
62
0
370
-1
100
AcDbPolyline
90
2
70
0
43
0
10
-14.9674795195
20
26.288876881
10
-18.0267684085
20
27.611652436
0
LWPOLYLINE
5
7B
100
AcDbEntity
8
0
6
ByLayer
62
0
370
-1
100
AcDbPolyline
90
2
70
0
43
0
10
31.1656236105
20
-10.902156603
10
31.3035597225
20
-10.497873269
0
LWPOLYLINE
5
7C
100
AcDbEntity
8
0
6
ByLayer
62
0
370
-1
100
AcDbPolyline
90
2
70
0
43
0
10
27.9362958335
20
-11.724834381
10
31.1656236105
20
-10.902156603
0
LWPOLYLINE
5
7D
100
AcDbEntity
8
0
6
ByLayer
62
0
370
-1
100
AcDbPolyline
90
2
70
0
43
0
10
-18.3830739645
20
27.375820492
10
-18.3619072975
20
24.042705492
0
LWPOLYLINE
5
7E
100
AcDbEntity
8
0
6
ByLayer
62
0
370
-1
100
AcDbPolyline
90
2
70
0
43
0
10
27.7976541665
20
-12.047978825
10
27.9362958335
20
-11.724834381
0
LWPOLYLINE
5
7F
100
AcDbEntity
8
0
6
ByLayer
62
0
370
-1
100
AcDbPolyline
90
2
70
0
43
0
10
-18.6409545195
20
23.829063269
10
-21.8600517415
20
24.692275214
0
LWPOLYLINE
5
80
100
AcDbEntity
8
0
6
ByLayer
62
0
370
-1
100
AcDbPolyline
90
2
70
0
43
0
10
29.2514513885
20
-15.323873269
10
29.4468902775
20
-14.943931603
0
LWPOLYLINE
5
81
100
AcDbEntity
8
0
6
ByLayer
62
0
370
-1
100
AcDbPolyline
90
2
70
0
43
0
10
25.9363986105
20
-15.667831603
10
29.2514513885
20
-15.323873269
0
LWPOLYLINE
5
82
100
AcDbEntity
8
0
6
ByLayer
62
0
370
-1
100
AcDbPolyline
90
2
70
0
43
0
10
25.7522486105
20
-15.966987158
10
25.9363986105
20
-15.667831603
0
LWPOLYLINE
5
83
100
AcDbEntity
8
0
6
ByLayer
62
0
370
-1
100
AcDbPolyline
90
2
70
0
43
0
10
-21.6720211865
20
21.112603825
10
-21.9168489645
20
20.860579381
0
LWPOLYLINE
5
84
100
AcDbEntity
8
0
6
ByLayer
62
0
370
-1
100
AcDbPolyline
90
2
70
0
43
0
10
26.9622763885
20
-19.072489936
10
25.7522486105
20
-15.966987158
0
LWPOLYLINE
5
85
100
AcDbEntity
8
0
6
ByLayer
62
0
370
-1
100
AcDbPolyline
90
2
70
0
43
0
10
26.7139208335
20
-19.419976047
10
26.9622763885
20
-19.072489936
0
LWPOLYLINE
5
86
100
AcDbEntity
8
0
6
ByLayer
62
0
370
-1
100
AcDbPolyline
90
2
70
0
43
0
10
23.3840513885
20
-19.277453825
10
26.7139208335
20
-19.419976047
0
LWPOLYLINE
5
87
100
AcDbEntity
8
0
6
ByLayer
62
0
370
-1
100
AcDbPolyline
90
2
70
0
43
0
10
23.1582736105
20
-19.546623269
10
23.3840513885
20
-19.277453825
0
LWPOLYLINE
5
88
100
AcDbEntity
8
0
6
ByLayer
62
0
370
-1
100
AcDbPolyline
90
2
70
0
43
0
10
23.9033402775
20
-22.795353825
10
23.1582736105
20
-19.546623269
0
LWPOLYLINE
5
89
100
AcDbEntity
8
0
6
ByLayer
62
0
370
-1
100
AcDbPolyline
90
2
70
0
43
0
10
23.6066541665
20
-23.102976047
10
23.9033402775
20
-22.795353825
0
LWPOLYLINE
5
8A
100
AcDbEntity
8
0
6
ByLayer
62
0
370
-1
100
AcDbPolyline
90
2
70
0
43
0
10
20.3332291665
20
-22.477148269
10
23.6066541665
20
-23.102976047
0
LWPOLYLINE
5
8B
100
AcDbEntity
8
0
6
ByLayer
62
0
370
-1
100
AcDbPolyline
90
2
70
0
43
0
10
20.0707624995
20
-22.710687158
10
20.3332291665
20
-22.477148269
0
LWPOLYLINE
5
8C
100
AcDbEntity
8
0
6
ByLayer
62
0
370
-1
100
AcDbPolyline
90
2
70
0
43
0
10
20.3346402775
20
-26.033148269
10
20.0707624995
20
-22.710687158
0
LWPOLYLINE
5
8D
100
AcDbEntity
8
0
6
ByLayer
62
0
370
-1
100
AcDbPolyline
90
2
70
0
43
0
10
19.9966791665
20
-26.294203825
10
20.3346402775
20
-26.033148269
0
LWPOLYLINE
5
8E
100
AcDbEntity
8
0
6
ByLayer
62
0
370
-1
100
AcDbPolyline
90
2
70
0
43
0
10
16.8491958335
20
-25.198476047
10
19.9966791665
20
-26.294203825
0
LWPOLYLINE
5
8F
100
AcDbEntity
8
0
6
ByLayer
62
0
370
-1
100
AcDbPolyline
90
2
70
0
43
0
10
16.5553319445
20
-25.391092714
10
16.8491958335
20
-25.198476047
0
LWPOLYLINE
5
90
100
AcDbEntity
8
0
6
ByLayer
62
0
370
-1
100
AcDbPolyline
90
2
70
0
43
0
10
16.3327291665
20
-28.716728825
10
16.5553319445
20
-25.391092714
0
LWPOLYLINE
5
91
100
AcDbEntity
8
0
6
ByLayer
62
0
370
-1
100
AcDbPolyline
90
2
70
0
43
0
10
15.9601958335
20
-28.925926047
10
16.3327291665
20
-28.716728825
0
LWPOLYLINE
5
92
100
AcDbEntity
8
0
6
ByLayer
62
0
370
-1
100
AcDbPolyline
90
2
70
0
43
0
10
12.6871236105
20
-27.531395492
10
13.0060347225
20
-27.383228825
0
LWPOLYLINE
5
93
100
AcDbEntity
8
0
6
ByLayer
62
0
370
-1
100
AcDbPolyline
90
2
70
0
43
0
10
11.9829791665
20
-30.788945492
10
12.6871236105
20
-27.531395492
0
LWPOLYLINE
5
94
100
AcDbEntity
8
0
6
ByLayer
62
0
370
-1
100
AcDbPolyline
90
2
70
0
43
0
10
11.5839874995
20
-30.941698269
10
11.9829791665
20
-30.788945492
0
LWPOLYLINE
5
95
100
AcDbEntity
8
0
6
ByLayer
62
0
370
-1
100
AcDbPolyline
90
2
70
0
43
0
10
8.5486874995
20
-29.085381603
10
8.8855902775
20
-28.985545492
0
LWPOLYLINE
5
96
100
AcDbEntity
8
0
6
ByLayer
62
0
370
-1
100
AcDbPolyline
90
2
70
0
43
0
10
7.3774652775
20
-32.206053825
10
8.5486874995
20
-29.085381603
0
LWPOLYLINE
5
97
100
AcDbEntity
8
0
6
ByLayer
62
0
370
-1
100
AcDbPolyline
90
2
70
0
43
0
10
6.9604819445
20
-32.298834381
10
7.3774652775
20
-32.206053825
0
LWPOLYLINE
5
98
100
AcDbEntity
8
0
6
ByLayer
62
0
370
-1
100
AcDbPolyline
90
2
70
0
43
0
10
-32.9746684085
20
-1.447712158
10
-30.1185795195
20
-3.165739936
0
LWPOLYLINE
5
99
100
AcDbEntity
8
0
6
ByLayer
62
0
370
-1
100
AcDbPolyline
90
2
70
0
43
0
10
4.2278652775
20
-30.020595492
10
4.5757041665
20
-29.970501047
0
LWPOLYLINE
5
9A
100
AcDbEntity
8
0
6
ByLayer
62
0
370
-1
100
AcDbPolyline
90
2
70
0
43
0
10
2.6149652775
20
-32.937362158
10
4.2278652775
20
-30.020595492
0
LWPOLYLINE
5
9B
100
AcDbEntity
8
0
6
ByLayer
62
0
370
-1
100
AcDbPolyline
90
2
70
0
43
0
10
-30.0815378525
20
-3.515342714
10
-32.4952434085
20
-5.813689936
0
LWPOLYLINE
5
9C
100
AcDbEntity
8
0
6
ByLayer
62
0
370
-1
100
AcDbPolyline
90
2
70
0
43
0
10
2.1888097225
20
-32.968406603
10
2.6149652775
20
-32.937362158
0
LWPOLYLINE
5
9D
100
AcDbEntity
8
0
6
ByLayer
62
0
370
-1
100
AcDbPolyline
90
2
70
0
43
0
10
-2.2032736115
20
-32.967348269
10
-0.1829152775
20
-30.316576047
0
LWPOLYLINE
5
9E
100
AcDbEntity
8
0
6
ByLayer
62
0
370
-1
100
AcDbPolyline
90
2
70
0
43
0
10
-4.5898156305
20
-29.967326047
10
-4.2423291665
20
-30.019537158
0
LWPOLYLINE
5
9F
100
AcDbEntity
8
0
6
ByLayer
62
0
370
-1
100
AcDbPolyline
90
2
70
0
43
0
10
-6.9745934085
20
-32.295659381
10
-4.5898156305
20
-29.967326047
0
LWPOLYLINE
5
A0
100
AcDbEntity
8
0
6
ByLayer
62
0
370
-1
100
AcDbPolyline
90
2
70
0
43
0
10
-7.3915767415
20
-32.202526047
10
-6.9745934085
20
-32.295659381
0
LWPOLYLINE
5
A1
100
AcDbEntity
8
0
6
ByLayer
62
0
370
-1
100
AcDbPolyline
90
2
70
0
43
0
10
-8.8989961865
20
-28.979901047
10
-8.5627989645
20
-29.082206603
0
LWPOLYLINE
5
A2
100
AcDbEntity
8
0
6
ByLayer
62
0
370
-1
100
AcDbPolyline
90
2
70
0
43
0
10
-13.0183822975
20
-27.375820492
10
-12.7005295195
20
-27.526103825
0
LWPOLYLINE
5
A3
100
AcDbEntity
8
0
6
ByLayer
62
0
370
-1
100
AcDbPolyline
90
2
70
0
43
0
10
-15.9728961865
20
-28.918164936
10
-13.0183822975
20
-27.375820492
0
LWPOLYLINE
5
A4
100
AcDbEntity
8
0
6
ByLayer
62
0
370
-1
100
AcDbPolyline
90
2
70
0
43
0
10
3.9950319445
20
-6.919648269
10
0.000176388500023
20
-6.919648269
0
LWPOLYLINE
5
A5
100
AcDbEntity
8
0
6
ByLayer
62
0
370
-1
100
AcDbPolyline
90
2
70
0
43
0
10
5.9924597225
20
3.459780214
10
7.9898874995
20
8.78419999992e-05
0
LWPOLYLINE
5
A6
100
AcDbEntity
8
0
6
ByLayer
62
0
370
-1
100
AcDbPolyline
90
2
70
0
43
0
10
3.9950319445
20
6.919542436
10
5.9924597225
20
3.459780214
0
LWPOLYLINE
5
A7
100
AcDbEntity
8
0
6
ByLayer
62
0
370
-1
100
AcDbPolyline
90
2
70
0
43
0
10
-3.9950319445
20
6.919648269
10
0.000176388500023
20
6.919754103
0
LWPOLYLINE
5
A8
100
AcDbEntity
8
0
6
ByLayer
62
0
370
-1
100
AcDbPolyline
90
2
70
0
43
0
10
22.1902513885
20
24.396823825
10
21.8720458335
20
24.681974103
0
LWPOLYLINE
5
A9
100
AcDbEntity
8
0
6
ByLayer
62
0
370
-1
100
AcDbPolyline
90
2
70
0
43
0
10
18.3964791665
20
27.367318547
10
18.0401736105
20
27.603044658
0
LWPOLYLINE
5
AA
100
AcDbEntity
8
0
6
ByLayer
62
0
370
-1
100
AcDbPolyline
90
2
70
0
43
0
10
21.6843680555
20
21.102620214
10
22.1902513885
20
24.396823825
0
LWPOLYLINE
5
AB
100
AcDbEntity
8
0
6
ByLayer
62
0
370
-1
100
AcDbPolyline
90
2
70
0
43
0
10
18.0401736105
20
27.603044658
10
14.9808847225
20
26.280269103
0
LWPOLYLINE
5
AC
100
AcDbEntity
8
0
6
ByLayer
62
0
370
-1
100
AcDbPolyline
90
2
70
0
43
0
10
21.9274319445
20
20.848690769
10
21.6843680555
20
21.102620214
0
LWPOLYLINE
5
AD
100
AcDbEntity
8
0
6
ByLayer
62
0
370
-1
100
AcDbPolyline
90
2
70
0
43
0
10
14.9808847225
20
26.280269103
10
14.6750263885
20
26.453482992
0
LWPOLYLINE
5
AE
100
AcDbEntity
8
0
6
ByLayer
62
0
370
-1
100
AcDbPolyline
90
2
70
0
43
0
10
25.2378986105
20
21.234029936
10
21.9274319445
20
20.848690769
0
LWPOLYLINE
5
AF
100
AcDbEntity
8
0
6
ByLayer
62
0
370
-1
100
AcDbPolyline
90
2
70
0
43
0
10
14.6750263885
20
26.453482992
10
14.2107708335
20
29.7537191028
0
LWPOLYLINE
5
B0
100
AcDbEntity
8
0
6
ByLayer
62
0
370
-1
100
AcDbPolyline
90
2
70
0
43
0
10
25.5113013885
20
20.905629103
10
25.2378986105
20
21.234029936
0
LWPOLYLINE
5
B1
100
AcDbEntity
8
0
6
ByLayer
62
0
370
-1
100
AcDbPolyline
90
2
70
0
43
0
10
14.2107708335
20
29.7537191028
10
13.8237736105
20
29.9350468806
0
LWPOLYLINE
5
B2
100
AcDbEntity
8
0
6
ByLayer
62
0
370
-1
100
AcDbPolyline
90
2
70
0
43
0
10
24.5309319445
20
17.720222158
10
25.5113013885
20
20.905629103
0
LWPOLYLINE
5
B3
100
AcDbEntity
8
0
6
ByLayer
62
0
370
-1
100
AcDbPolyline
90
2
70
0
43
0
10
13.8237736105
20
29.9350468806
10
10.9895569445
20
28.1810004917
0
LWPOLYLINE
5
B4
100
AcDbEntity
8
0
6
ByLayer
62
0
370
-1
100
AcDbPolyline
90
2
70
0
43
0
10
24.7344847225
20
17.433554936
10
24.5309319445
20
17.720222158
0
LWPOLYLINE
5
B5
100
AcDbEntity
8
0
6
ByLayer
62
0
370
-1
100
AcDbPolyline
90
2
70
0
43
0
10
10.9895569445
20
28.1810004917
10
10.6618263885
20
28.3078241028
0
LWPOLYLINE
5
B6
100
AcDbEntity
8
0
6
ByLayer
62
0
370
-1
100
AcDbPolyline
90
2
70
0
43
0
10
28.0657652775
20
17.332872158
10
24.7344847225
20
17.433554936
0
LWPOLYLINE
5
B7
100
AcDbEntity
8
0
6
ByLayer
62
0
370
-1
100
AcDbPolyline
90
2
70
0
43
0
10
10.6618263885
20
28.3078241028
10
9.7220263885
20
31.5052254917
0
LWPOLYLINE
5
B8
100
AcDbEntity
8
0
6
ByLayer
62
0
370
-1
100
AcDbPolyline
90
2
70
0
43
0
10
28.2887208335
20
16.968099936
10
28.0657652775
20
17.332872158
0
LWPOLYLINE
5
B9
100
AcDbEntity
8
0
6
ByLayer
62
0
370
-1
100
AcDbPolyline
90
2
70
0
43
0
10
9.7220263885
20
31.5052254917
10
9.3124513885
20
31.6283449361
0
LWPOLYLINE
5
BA
100
AcDbEntity
8
0
6
ByLayer
62
0
370
-1
100
AcDbPolyline
90
2
70
0
43
0
10
26.8550319445
20
13.959328825
10
28.2887208335
20
16.968099936
0
LWPOLYLINE
5
BB
100
AcDbEntity
8
0
6
ByLayer
62
0
370
-1
100
AcDbPolyline
90
2
70
0
43
0
10
9.3124513885
20
31.6283449361
10
6.7643374995
20
29.4803868806
0
LWPOLYLINE
5
BC
100
AcDbEntity
8
0
6
ByLayer
62
0
370
-1
100
AcDbPolyline
90
2
70
0
43
0
10
27.0144874995
20
13.646203269
10
26.8550319445
20
13.959328825
0
LWPOLYLINE
5
BD
100
AcDbEntity
8
0
6
ByLayer
62
0
370
-1
100
AcDbPolyline
90
2
70
0
43
0
10
6.7643374995
20
29.4803868806
10
6.4214374995
20
29.5580685472
0
LWPOLYLINE
5
BE
100
AcDbEntity
8
0
6
ByLayer
62
0
370
-1
100
AcDbPolyline
90
2
70
0
43
0
10
30.2956736105
20
13.061438825
10
27.0144874995
20
13.646203269
0
LWPOLYLINE
5
BF
100
AcDbEntity
8
0
6
ByLayer
62
0
370
-1
100
AcDbPolyline
90
2
70
0
43
0
10
6.4214374995
20
29.5580685472
10
5.0258486105
20
32.5845843806
0
LWPOLYLINE
5
C0
100
AcDbEntity
8
0
6
ByLayer
62
0
370
-1
100
AcDbPolyline
90
2
70
0
43
0
10
30.4628902775
20
12.668162158
10
30.2956736105
20
13.061438825
0
LWPOLYLINE
5
C1
100
AcDbEntity
8
0
6
ByLayer
62
0
370
-1
100
AcDbPolyline
90
2
70
0
43
0
10
5.0258486105
20
32.5845843806
10
4.6032208335
20
32.6467791028
0
LWPOLYLINE
5
C2
100
AcDbEntity
8
0
6
ByLayer
62
0
370
-1
100
AcDbPolyline
90
2
70
0
43
0
10
28.6065736105
20
9.900232436
10
30.4628902775
20
12.668162158
0
LWPOLYLINE
5
C3
100
AcDbEntity
8
0
6
ByLayer
62
0
370
-1
100
AcDbPolyline
90
2
70
0
43
0
10
4.6032208335
20
32.6467791028
10
2.3944791665
20
30.1506646583
0
LWPOLYLINE
5
C4
100
AcDbEntity
8
0
6
ByLayer
62
0
370
-1
100
AcDbPolyline
90
2
70
0
43
0
10
28.7187569445
20
9.567174936
10
28.6065736105
20
9.900232436
0
LWPOLYLINE
5
C5
100
AcDbEntity
8
0
6
ByLayer
62
0
370
-1
100
AcDbPolyline
90
2
70
0
43
0
10
2.3944791665
20
30.1506646583
10
2.0441708335
20
30.1776521583
0
LWPOLYLINE
5
C6
100
AcDbEntity
8
0
6
ByLayer
62
0
370
-1
100
AcDbPolyline
90
2
70
0
43
0
10
31.8796458335
20
8.510852436
10
28.7187569445
20
9.567174936
0
LWPOLYLINE
5
C7
100
AcDbEntity
8
0
6
ByLayer
62
0
370
-1
100
AcDbPolyline
90
2
70
0
43
0
10
2.0441708335
20
30.1776521583
10
0.2227791665
20
32.9686182694
0
LWPOLYLINE
5
C8
100
AcDbEntity
8
0
6
ByLayer
62
0
370
-1
100
AcDbPolyline
90
2
70
0
43
0
10
31.9879486105
20
8.097502714
10
31.8796458335
20
8.510852436
0
LWPOLYLINE
5
C9
100
AcDbEntity
8
0
6
ByLayer
62
0
370
-1
100
AcDbPolyline
90
2
70
0
43
0
10
0.2227791665
20
32.9686182694
10
-0.2044347225
20
32.9686182694
0
LWPOLYLINE
5
CA
100
AcDbEntity
8
0
6
ByLayer
62
0
370
-1
100
AcDbPolyline
90
2
70
0
43
0
10
29.7485152775
20
5.629363547
10
31.9879486105
20
8.097502714
0
LWPOLYLINE
5
CB
100
AcDbEntity
8
0
6
ByLayer
62
0
370
-1
100
AcDbPolyline
90
2
70
0
43
0
10
-0.2044347225
20
32.9686182694
10
-2.0272375005
20
30.1773699361
0
LWPOLYLINE
5
CC
100
AcDbEntity
8
0
6
ByLayer
62
0
370
-1
100
AcDbPolyline
90
2
70
0
43
0
10
29.8109569445
20
5.283288547
10
29.7485152775
20
5.629363547
0
LWPOLYLINE
5
CD
100
AcDbEntity
8
0
6
ByLayer
62
0
370
-1
100
AcDbPolyline
90
2
70
0
43
0
10
-2.0272375005
20
30.1773699361
10
-2.3786041665
20
30.1530635472
0
LWPOLYLINE
5
CE
100
AcDbEntity
8
0
6
ByLayer
62
0
370
-1
100
AcDbPolyline
90
2
70
0
43
0
10
32.7845208335
20
3.778338547
10
29.8109569445
20
5.283288547
0
LWPOLYLINE
5
CF
100
AcDbEntity
8
0
6
ByLayer
62
0
370
-1
100
AcDbPolyline
90
2
70
0
43
0
10
-2.3786041665
20
30.1530635472
10
-4.5873461865
20
32.6491779917
0
LWPOLYLINE
5
D0
100
AcDbEntity
8
0
6
ByLayer
62
0
370
-1
100
AcDbPolyline
90
2
70
0
43
0
10
32.8310874995
20
3.353594103
10
32.7845208335
20
3.778338547
0
LWPOLYLINE
5
D1
100
AcDbEntity
8
0
6
ByLayer
62
0
370
-1
100
AcDbPolyline
90
2
70
0
43
0
10
-4.5873461865
20
32.6491779917
10
-5.0099739645
20
32.5869479917
0
LWPOLYLINE
5
D2
100
AcDbEntity
8
0
6
ByLayer
62
0
370
-1
100
AcDbPolyline
90
2
70
0
43
0
10
30.2561624995
20
1.237632286
10
32.8310874995
20
3.353594103
0
LWPOLYLINE
5
D3
100
AcDbEntity
8
0
6
ByLayer
62
0
370
-1
100
AcDbPolyline
90
2
70
0
43
0
10
-5.0099739645
20
32.5869479917
10
-6.4055628525
20
29.560008825
0
LWPOLYLINE
5
D4
100
AcDbEntity
8
0
6
ByLayer
62
0
370
-1
100
AcDbPolyline
90
2
70
0
43
0
10
30.2678041665
20
0.886265619
10
30.2561624995
20
1.237632286
0
LWPOLYLINE
5
D5
100
AcDbEntity
8
0
6
ByLayer
62
0
370
-1
100
AcDbPolyline
90
2
70
0
43
0
10
-6.4055628525
20
29.560008825
10
-6.7488156305
20
29.4849729917
0
LWPOLYLINE
5
D6
100
AcDbEntity
8
0
6
ByLayer
62
0
370
-1
100
AcDbPolyline
90
2
70
0
43
0
10
32.9901902775
20
-1.035667714
10
30.2678041665
20
0.886265619
0
LWPOLYLINE
5
D7
100
AcDbEntity
8
0
6
ByLayer
62
0
370
-1
100
AcDbPolyline
90
2
70
0
43
0
10
-6.7488156305
20
29.4849729917
10
-9.2972822975
20
31.632966325
0
LWPOLYLINE
5
D8
100
AcDbEntity
8
0
6
ByLayer
62
0
370
-1
100
AcDbPolyline
90
2
70
0
43
0
10
32.9750208335
20
-1.462881603
10
32.9901902775
20
-1.035667714
0
LWPOLYLINE
5
D9
100
AcDbEntity
8
0
6
ByLayer
62
0
370
-1
100
AcDbPolyline
90
2
70
0
43
0
10
-9.2972822975
20
31.632966325
10
-9.7065045195
20
31.5098468806
0
LWPOLYLINE
5
DA
100
AcDbEntity
8
0
6
ByLayer
62
0
370
-1
100
AcDbPolyline
90
2
70
0
43
0
10
30.1192847225
20
-3.181262158
10
32.9750208335
20
-1.462881603
0
LWPOLYLINE
5
DB
100
AcDbEntity
8
0
6
ByLayer
62
0
370
-1
100
AcDbPolyline
90
2
70
0
43
0
10
-9.7065045195
20
31.5098468806
10
-10.6463045195
20
28.311916325
0
LWPOLYLINE
5
DC
100
AcDbEntity
8
0
6
ByLayer
62
0
370
-1
100
AcDbPolyline
90
2
70
0
43
0
10
30.0794208335
20
-3.530512158
10
30.1192847225
20
-3.181262158
0
LWPOLYLINE
5
DD
100
AcDbEntity
8
0
6
ByLayer
62
0
370
-1
100
AcDbPolyline
90
2
70
0
43
0
10
-10.6463045195
20
28.311916325
10
-10.9750934085
20
28.1877032694
0
LWPOLYLINE
5
DE
100
AcDbEntity
8
0
6
ByLayer
62
0
370
-1
100
AcDbPolyline
90
2
70
0
43
0
10
32.4931263885
20
-5.828506603
10
30.0794208335
20
-3.530512158
0
LWPOLYLINE
5
DF
100
AcDbEntity
8
0
6
ByLayer
62
0
370
-1
100
AcDbPolyline
90
2
70
0
43
0
10
-10.9750934085
20
28.1877032694
10
-13.8093100755
20
29.9417496583
0
LWPOLYLINE
5
E0
100
AcDbEntity
8
0
6
ByLayer
62
0
370
-1
100
AcDbPolyline
90
2
70
0
43
0
10
32.4155152775
20
-6.248664936
10
32.4931263885
20
-5.828506603
0
LWPOLYLINE
5
E1
100
AcDbEntity
8
0
6
ByLayer
62
0
370
-1
100
AcDbPolyline
90
2
70
0
43
0
10
-13.8093100755
20
29.9417496583
10
-14.1959545195
20
29.7603160472
0
LWPOLYLINE
5
E2
100
AcDbEntity
8
0
6
ByLayer
62
0
370
-1
100
AcDbPolyline
90
2
70
0
43
0
10
29.3403513885
20
-7.532776047
10
32.4155152775
20
-6.248664936
0
LWPOLYLINE
5
E3
100
AcDbEntity
8
0
6
ByLayer
62
0
370
-1
100
AcDbPolyline
90
2
70
0
43
0
10
-14.1959545195
20
29.7603160472
10
-14.6602100755
20
26.459691881
0
LWPOLYLINE
5
E4
100
AcDbEntity
8
0
6
ByLayer
62
0
370
-1
100
AcDbPolyline
90
2
70
0
43
0
10
29.2500402775
20
-7.872501047
10
29.3403513885
20
-7.532776047
0
LWPOLYLINE
5
E5
100
AcDbEntity
8
0
6
ByLayer
62
0
370
-1
100
AcDbPolyline
90
2
70
0
43
0
10
-14.6602100755
20
26.459691881
10
-14.9674795195
20
26.288876881
0
LWPOLYLINE
5
E6
100
AcDbEntity
8
0
6
ByLayer
62
0
370
-1
100
AcDbPolyline
90
2
70
0
43
0
10
31.3035597225
20
-10.497873269
10
29.2500402775
20
-7.872501047
0
LWPOLYLINE
5
E7
100
AcDbEntity
8
0
6
ByLayer
62
0
370
-1
100
AcDbPolyline
90
2
70
0
43
0
10
-14.9674795195
20
26.288876881
10
-18.0267684085
20
27.611652436
0
LWPOLYLINE
5
E8
100
AcDbEntity
8
0
6
ByLayer
62
0
370
-1
100
AcDbPolyline
90
2
70
0
43
0
10
31.1656236105
20
-10.902156603
10
31.3035597225
20
-10.497873269
0
LWPOLYLINE
5
E9
100
AcDbEntity
8
0
6
ByLayer
62
0
370
-1
100
AcDbPolyline
90
2
70
0
43
0
10
-18.0267684085
20
27.611652436
10
-18.3830739645
20
27.375820492
0
LWPOLYLINE
5
EA
100
AcDbEntity
8
0
6
ByLayer
62
0
370
-1
100
AcDbPolyline
90
2
70
0
43
0
10
27.9362958335
20
-11.724834381
10
31.1656236105
20
-10.902156603
0
LWPOLYLINE
5
EB
100
AcDbEntity
8
0
6
ByLayer
62
0
370
-1
100
AcDbPolyline
90
2
70
0
43
0
10
-18.3830739645
20
27.375820492
10
-18.3619072975
20
24.042705492
0
LWPOLYLINE
5
EC
100
AcDbEntity
8
0
6
ByLayer
62
0
370
-1
100
AcDbPolyline
90
2
70
0
43
0
10
27.7976541665
20
-12.047978825
10
27.9362958335
20
-11.724834381
0
LWPOLYLINE
5
ED
100
AcDbEntity
8
0
6
ByLayer
62
0
370
-1
100
AcDbPolyline
90
2
70
0
43
0
10
-18.3619072975
20
24.042705492
10
-18.6409545195
20
23.829063269
0
LWPOLYLINE
5
EE
100
AcDbEntity
8
0
6
ByLayer
62
0
370
-1
100
AcDbPolyline
90
2
70
0
43
0
10
29.4468902775
20
-14.943931603
10
27.7976541665
20
-12.047978825
0
LWPOLYLINE
5
EF
100
AcDbEntity
8
0
6
ByLayer
62
0
370
-1
100
AcDbPolyline
90
2
70
0
43
0
10
-18.6409545195
20
23.829063269
10
-21.8600517415
20
24.692275214
0
LWPOLYLINE
5
F0
100
AcDbEntity
8
0
6
ByLayer
62
0
370
-1
100
AcDbPolyline
90
2
70
0
43
0
10
29.2514513885
20
-15.323873269
10
29.4468902775
20
-14.943931603
0
LWPOLYLINE
5
F1
100
AcDbEntity
8
0
6
ByLayer
62
0
370
-1
100
AcDbPolyline
90
2
70
0
43
0
10
-21.8600517415
20
24.692275214
10
-22.1782572975
20
24.407054381
0
LWPOLYLINE
5
F2
100
AcDbEntity
8
0
6
ByLayer
62
0
370
-1
100
AcDbPolyline
90
2
70
0
43
0
10
25.9363986105
20
-15.667831603
10
29.2514513885
20
-15.323873269
0
LWPOLYLINE
5
F3
100
AcDbEntity
8
0
6
ByLayer
62
0
370
-1
100
AcDbPolyline
90
2
70
0
43
0
10
-22.1782572975
20
24.407054381
10
-21.6720211865
20
21.112603825
0
LWPOLYLINE
5
F4
100
AcDbEntity
8
0
6
ByLayer
62
0
370
-1
100
AcDbPolyline
90
2
70
0
43
0
10
25.7522486105
20
-15.966987158
10
25.9363986105
20
-15.667831603
0
LWPOLYLINE
5
F5
100
AcDbEntity
8
0
6
ByLayer
62
0
370
-1
100
AcDbPolyline
90
2
70
0
43
0
10
-21.6720211865
20
21.112603825
10
-21.9168489645
20
20.860579381
0
LWPOLYLINE
5
F6
100
AcDbEntity
8
0
6
ByLayer
62
0
370
-1
100
AcDbPolyline
90
2
70
0
43
0
10
26.9622763885
20
-19.072489936
10
25.7522486105
20
-15.966987158
0
LWPOLYLINE
5
F7
100
AcDbEntity
8
0
6
ByLayer
62
0
370
-1
100
AcDbPolyline
90
2
70
0
43
0
10
-21.9168489645
20
20.860579381
10
-25.2276684085
20
21.245847992
0
LWPOLYLINE
5
F8
100
AcDbEntity
8
0
6
ByLayer
62
0
370
-1
100
AcDbPolyline
90
2
70
0
43
0
10
26.7139208335
20
-19.419976047
10
26.9622763885
20
-19.072489936
0
LWPOLYLINE
5
F9
100
AcDbEntity
8
0
6
ByLayer
62
0
370
-1
100
AcDbPolyline
90
2
70
0
43
0
10
-25.2276684085
20
21.245847992
10
-25.5007184085
20
20.917411881
0
LWPOLYLINE
5
FA
100
AcDbEntity
8
0
6
ByLayer
62
0
370
-1
100
AcDbPolyline
90
2
70
0
43
0
10
23.3840513885
20
-19.277453825
10
26.7139208335
20
-19.419976047
0
LWPOLYLINE
5
FB
100
AcDbEntity
8
0
6
ByLayer
62
0
370
-1
100
AcDbPolyline
90
2
70
0
43
0
10
-25.5007184085
20
20.917411881
10
-24.5203489645
20
17.731722714
0
LWPOLYLINE
5
FC
100
AcDbEntity
8
0
6
ByLayer
62
0
370
-1
100
AcDbPolyline
90
2
70
0
43
0
10
23.1582736105
20
-19.546623269
10
23.3840513885
20
-19.277453825
0
LWPOLYLINE
5
FD
100
AcDbEntity
8
0
6
ByLayer
62
0
370
-1
100
AcDbPolyline
90
2
70
0
43
0
10
-24.5203489645
20
17.731722714
10
-24.7260184085
20
17.446784103
0
LWPOLYLINE
5
FE
100
AcDbEntity
8
0
6
ByLayer
62
0
370
-1
100
AcDbPolyline
90
2
70
0
43
0
10
23.9033402775
20
-22.795353825
10
23.1582736105
20
-19.546623269
0
LWPOLYLINE
5
FF
100
AcDbEntity
8
0
6
ByLayer
62
0
370
-1
100
AcDbPolyline
90
2
70
0
43
0
10
-24.7260184085
20
17.446784103
10
-28.0572989645
20
17.345854381
0
LWPOLYLINE
5
100
100
AcDbEntity
8
0
6
ByLayer
62
0
370
-1
100
AcDbPolyline
90
2
70
0
43
0
10
23.6066541665
20
-23.102976047
10
23.9033402775
20
-22.795353825
0
LWPOLYLINE
5
101
100
AcDbEntity
8
0
6
ByLayer
62
0
370
-1
100
AcDbPolyline
90
2
70
0
43
0
10
-28.0572989645
20
17.345854381
10
-28.2799017415
20
16.981117436
0
LWPOLYLINE
5
102
100
AcDbEntity
8
0
6
ByLayer
62
0
370
-1
100
AcDbPolyline
90
2
70
0
43
0
10
20.3332291665
20
-22.477148269
10
23.6066541665
20
-23.102976047
0
LWPOLYLINE
5
103
100
AcDbEntity
8
0
6
ByLayer
62
0
370
-1
100
AcDbPolyline
90
2
70
0
43
0
10
-28.2799017415
20
16.981117436
10
-26.8458600755
20
13.972240492
0
LWPOLYLINE
5
104
100
AcDbEntity
8
0
6
ByLayer
62
0
370
-1
100
AcDbPolyline
90
2
70
0
43
0
10
20.0707624995
20
-22.710687158
10
20.3332291665
20
-22.477148269
0
LWPOLYLINE
5
105
100
AcDbEntity
8
0
6
ByLayer
62
0
370
-1
100
AcDbPolyline
90
2
70
0
43
0
10
-26.8458600755
20
13.972240492
10
-27.0077850755
20
13.660314381
0
LWPOLYLINE
5
106
100
AcDbEntity
8
0
6
ByLayer
62
0
370
-1
100
AcDbPolyline
90
2
70
0
43
0
10
20.3346402775
20
-26.033148269
10
20.0707624995
20
-22.710687158
0
LWPOLYLINE
5
107
100
AcDbEntity
8
0
6
ByLayer
62
0
370
-1
100
AcDbPolyline
90
2
70
0
43
0
10
-27.0077850755
20
13.660314381
10
-30.2889711865
20
13.075444103
0
LWPOLYLINE
5
108
100
AcDbEntity
8
0
6
ByLayer
62
0
370
-1
100
AcDbPolyline
90
2
70
0
43
0
10
19.9966791665
20
-26.294203825
10
20.3346402775
20
-26.033148269
0
LWPOLYLINE
5
109
100
AcDbEntity
8
0
6
ByLayer
62
0
370
-1
100
AcDbPolyline
90
2
70
0
43
0
10
-30.2889711865
20
13.075444103
10
-30.4561878525
20
12.682167436
0
LWPOLYLINE
5
10A
100
AcDbEntity
8
0
6
ByLayer
62
0
370
-1
100
AcDbPolyline
90
2
70
0
43
0
10
16.8491958335
20
-25.198476047
10
19.9966791665
20
-26.294203825
0
LWPOLYLINE
5
10B
100
AcDbEntity
8
0
6
ByLayer
62
0
370
-1
100
AcDbPolyline
90
2
70
0
43
0
10
-30.4561878525
20
12.682167436
10
-28.5995184085
20
9.914131881
0
LWPOLYLINE
5
10C
100
AcDbEntity
8
0
6
ByLayer
62
0
370
-1
100
AcDbPolyline
90
2
70
0
43
0
10
16.5553319445
20
-25.391092714
10
16.8491958335
20
-25.198476047
0
LWPOLYLINE
5
10D
100
AcDbEntity
8
0
6
ByLayer
62
0
370
-1
100
AcDbPolyline
90
2
70
0
43
0
10
-28.5995184085
20
9.914131881
10
-28.7141711865
20
9.581991603
0
LWPOLYLINE
5
10E
100
AcDbEntity
8
0
6
ByLayer
62
0
370
-1
100
AcDbPolyline
90
2
70
0
43
0
10
16.3327291665
20
-28.716728825
10
16.5553319445
20
-25.391092714
0
LWPOLYLINE
5
10F
100
AcDbEntity
8
0
6
ByLayer
62
0
370
-1
100
AcDbPolyline
90
2
70
0
43
0
10
-28.7141711865
20
9.581991603
10
-31.8754128525
20
8.525563269
0
LWPOLYLINE
5
110
100
AcDbEntity
8
0
6
ByLayer
62
0
370
-1
100
AcDbPolyline
90
2
70
0
43
0
10
15.9601958335
20
-28.925926047
10
16.3327291665
20
-28.716728825
0
LWPOLYLINE
5
111
100
AcDbEntity
8
0
6
ByLayer
62
0
370
-1
100
AcDbPolyline
90
2
70
0
43
0
10
-31.8754128525
20
8.525563269
10
-31.9833628525
20
8.112213547
0
LWPOLYLINE
5
112
100
AcDbEntity
8
0
6
ByLayer
62
0
370
-1
100
AcDbPolyline
90
2
70
0
43
0
10
13.0060347225
20
-27.383228825
10
15.9601958335
20
-28.925926047
0
LWPOLYLINE
5
113
100
AcDbEntity
8
0
6
ByLayer
62
0
370
-1
100
AcDbPolyline
90
2
70
0
43
0
10
-31.9833628525
20
8.112213547
10
-29.7432239645
20
5.643827436
0
LWPOLYLINE
5
114
100
AcDbEntity
8
0
6
ByLayer
62
0
370
-1
100
AcDbPolyline
90
2
70
0
43
0
10
12.6871236105
20
-27.531395492
10
13.0060347225
20
-27.383228825
0
LWPOLYLINE
5
115
100
AcDbEntity
8
0
6
ByLayer
62
0
370
-1
100
AcDbPolyline
90
2
70
0
43
0
10
-29.7432239645
20
5.643827436
10
-29.8084878525
20
5.298810769
0
LWPOLYLINE
5
116
100
AcDbEntity
8
0
6
ByLayer
62
0
370
-1
100
AcDbPolyline
90
2
70
0
43
0
10
11.9829791665
20
-30.788945492
10
12.6871236105
20
-27.531395492
0
LWPOLYLINE
5
117
100
AcDbEntity
8
0
6
ByLayer
62
0
370
-1
100
AcDbPolyline
90
2
70
0
43
0
10
-29.8084878525
20
5.298810769
10
-32.7820517415
20
3.793155214
0
LWPOLYLINE
5
118
100
AcDbEntity
8
0
6
ByLayer
62
0
370
-1
100
AcDbPolyline
90
2
70
0
43
0
10
11.5839874995
20
-30.941698269
10
11.9829791665
20
-30.788945492
0
LWPOLYLINE
5
119
100
AcDbEntity
8
0
6
ByLayer
62
0
370
-1
100
AcDbPolyline
90
2
70
0
43
0
10
-32.7820517415
20
3.793155214
10
-32.8286184085
20
3.368763547
0
LWPOLYLINE
5
11A
100
AcDbEntity
8
0
6
ByLayer
62
0
370
-1
100
AcDbPolyline
90
2
70
0
43
0
10
8.8855902775
20
-28.985545492
10
11.5839874995
20
-30.941698269
0
LWPOLYLINE
5
11B
100
AcDbEntity
8
0
6
ByLayer
62
0
370
-1
100
AcDbPolyline
90
2
70
0
43
0
10
-32.8286184085
20
3.368763547
10
-30.2533406305
20
1.252801731
0
LWPOLYLINE
5
11C
100
AcDbEntity
8
0
6
ByLayer
62
0
370
-1
100
AcDbPolyline
90
2
70
0
43
0
10
8.5486874995
20
-29.085381603
10
8.8855902775
20
-28.985545492
0
LWPOLYLINE
5
11D
100
AcDbEntity
8
0
6
ByLayer
62
0
370
-1
100
AcDbPolyline
90
2
70
0
43
0
10
-30.2533406305
20
1.252801731
10
-30.2674517415
20
0.901435064
0
LWPOLYLINE
5
11E
100
AcDbEntity
8
0
6
ByLayer
62
0
370
-1
100
AcDbPolyline
90
2
70
0
43
0
10
7.3774652775
20
-32.206053825
10
8.5486874995
20
-29.085381603
0
LWPOLYLINE
5
11F
100
AcDbEntity
8
0
6
ByLayer
62
0
370
-1
100
AcDbPolyline
90
2
70
0
43
0
10
-30.2674517415
20
0.901435064
10
-32.9901906305
20
-1.020498269
0
LWPOLYLINE
5
120
100
AcDbEntity
8
0
6
ByLayer
62
0
370
-1
100
AcDbPolyline
90
2
70
0
43
0
10
6.9604819445
20
-32.298834381
10
7.3774652775
20
-32.206053825
0
LWPOLYLINE
5
121
100
AcDbEntity
8
0
6
ByLayer
62
0
370
-1
100
AcDbPolyline
90
2
70
0
43
0
10
-32.9901906305
20
-1.020498269
10
-32.9746684085
20
-1.447712158
0
LWPOLYLINE
5
122
100
AcDbEntity
8
0
6
ByLayer
62
0
370
-1
100
AcDbPolyline
90
2
70
0
43
0
10
4.5757041665
20
-29.970501047
10
6.9604819445
20
-32.298834381
0
LWPOLYLINE
5
123
100
AcDbEntity
8
0
6
ByLayer
62
0
370
-1
100
AcDbPolyline
90
2
70
0
43
0
10
-32.9746684085
20
-1.447712158
10
-30.1185795195
20
-3.165739936
0
LWPOLYLINE
5
124
100
AcDbEntity
8
0
6
ByLayer
62
0
370
-1
100
AcDbPolyline
90
2
70
0
43
0
10
4.2278652775
20
-30.020595492
10
4.5757041665
20
-29.970501047
0
LWPOLYLINE
5
125
100
AcDbEntity
8
0
6
ByLayer
62
0
370
-1
100
AcDbPolyline
90
2
70
0
43
0
10
-30.1185795195
20
-3.165739936
10
-30.0815378525
20
-3.515342714
0
LWPOLYLINE
5
126
100
AcDbEntity
8
0
6
ByLayer
62
0
370
-1
100
AcDbPolyline
90
2
70
0
43
0
10
2.6149652775
20
-32.937362158
10
4.2278652775
20
-30.020595492
0
LWPOLYLINE
5
127
100
AcDbEntity
8
0
6
ByLayer
62
0
370
-1
100
AcDbPolyline
90
2
70
0
43
0
10
-30.0815378525
20
-3.515342714
10
-32.4952434085
20
-5.813689936
0
LWPOLYLINE
5
128
100
AcDbEntity
8
0
6
ByLayer
62
0
370
-1
100
AcDbPolyline
90
2
70
0
43
0
10
2.1888097225
20
-32.968406603
10
2.6149652775
20
-32.937362158
0
LWPOLYLINE
5
129
100
AcDbEntity
8
0
6
ByLayer
62
0
370
-1
100
AcDbPolyline
90
2
70
0
43
0
10
-32.4952434085
20
-5.813689936
10
-32.4176322975
20
-6.233848269
0
LWPOLYLINE
5
12A
100
AcDbEntity
8
0
6
ByLayer
62
0
370
-1
100
AcDbPolyline
90
2
70
0
43
0
10
0.1684513885
20
-30.317634381
10
2.1888097225
20
-32.968406603
0
LWPOLYLINE
5
12B
100
AcDbEntity
8
0
6
ByLayer
62
0
370
-1
100
AcDbPolyline
90
2
70
0
43
0
10
-32.4176322975
20
-6.233848269
10
-29.3417628525
20
-7.517959381
0
LWPOLYLINE
5
12C
100
AcDbEntity
8
0
6
ByLayer
62
0
370
-1
100
AcDbPolyline
90
2
70
0
43
0
10
-0.1829152775
20
-30.316576047
10
0.1684513885
20
-30.317634381
0
LWPOLYLINE
5
12D
100
AcDbEntity
8
0
6
ByLayer
62
0
370
-1
100
AcDbPolyline
90
2
70
0
43
0
10
-29.3417628525
20
-7.517959381
10
-29.2542739645
20
-7.858037158
0
LWPOLYLINE
5
12E
100
AcDbEntity
8
0
6
ByLayer
62
0
370
-1
100
AcDbPolyline
90
2
70
0
43
0
10
-2.2032736115
20
-32.967348269
10
-0.1829152775
20
-30.316576047
0
LWPOLYLINE
5
12F
100
AcDbEntity
8
0
6
ByLayer
62
0
370
-1
100
AcDbPolyline
90
2
70
0
43
0
10
-29.2542739645
20
-7.858037158
10
-31.3077934085
20
-10.483409381
0
LWPOLYLINE
5
130
100
AcDbEntity
8
0
6
ByLayer
62
0
370
-1
100
AcDbPolyline
90
2
70
0
43
0
10
-2.6294291665
20
-32.935951047
10
-2.2032736115
20
-32.967348269
0
LWPOLYLINE
5
131
100
AcDbEntity
8
0
6
ByLayer
62
0
370
-1
100
AcDbPolyline
90
2
70
0
43
0
10
-31.3077934085
20
-10.483409381
10
-31.1698572975
20
-10.887692714
0
LWPOLYLINE
5
132
100
AcDbEntity
8
0
6
ByLayer
62
0
370
-1
100
AcDbPolyline
90
2
70
0
43
0
10
-4.2423291665
20
-30.019537158
10
-2.6294291665
20
-32.935951047
0
LWPOLYLINE
5
133
100
AcDbEntity
8
0
6
ByLayer
62
0
370
-1
100
AcDbPolyline
90
2
70
0
43
0
10
-31.1698572975
20
-10.887692714
10
-27.9398239645
20
-11.710370492
0
LWPOLYLINE
5
134
100
AcDbEntity
8
0
6
ByLayer
62
0
370
-1
100
AcDbPolyline
90
2
70
0
43
0
10
-4.5898156305
20
-29.967326047
10
-4.2423291665
20
-30.019537158
0
LWPOLYLINE
5
135
100
AcDbEntity
8
0
6
ByLayer
62
0
370
-1
100
AcDbPolyline
90
2
70
0
43
0
10
-27.9398239645
20
-11.710370492
10
-27.8036517415
20
-12.034220492
0
LWPOLYLINE
5
136
100
AcDbEntity
8
0
6
ByLayer
62
0
370
-1
100
AcDbPolyline
90
2
70
0
43
0
10
-6.9745934085
20
-32.295659381
10
-4.5898156305
20
-29.967326047
0
LWPOLYLINE
5
137
100
AcDbEntity
8
0
6
ByLayer
62
0
370
-1
100
AcDbPolyline
90
2
70
0
43
0
10
-27.8036517415
20
-12.034220492
10
-29.4528878525
20
-14.930526047
0
LWPOLYLINE
5
138
100
AcDbEntity
8
0
6
ByLayer
62
0
370
-1
100
AcDbPolyline
90
2
70
0
43
0
10
-7.3915767415
20
-32.202526047
10
-6.9745934085
20
-32.295659381
0
LWPOLYLINE
5
139
100
AcDbEntity
8
0
6
ByLayer
62
0
370
-1
100
AcDbPolyline
90
2
70
0
43
0
10
-29.4528878525
20
-14.930526047
10
-29.2574489645
20
-15.310467714
0
LWPOLYLINE
5
13A
100
AcDbEntity
8
0
6
ByLayer
62
0
370
-1
100
AcDbPolyline
90
2
70
0
43
0
10
-8.5627989645
20
-29.082206603
10
-7.3915767415
20
-32.202526047
0
LWPOLYLINE
5
13B
100
AcDbEntity
8
0
6
ByLayer
62
0
370
-1
100
AcDbPolyline
90
2
70
0
43
0
10
-29.2574489645
20
-15.310467714
10
-25.9423961865
20
-15.654073269
0
LWPOLYLINE
5
13C
100
AcDbEntity
8
0
6
ByLayer
62
0
370
-1
100
AcDbPolyline
90
2
70
0
43
0
10
-8.8989961865
20
-28.979901047
10
-8.5627989645
20
-29.082206603
0
LWPOLYLINE
5
13D
100
AcDbEntity
8
0
6
ByLayer
62
0
370
-1
100
AcDbPolyline
90
2
70
0
43
0
10
-25.9423961865
20
-15.654073269
10
-25.7603628525
20
-15.954639936
0
LWPOLYLINE
5
13E
100
AcDbEntity
8
0
6
ByLayer
62
0
370
-1
100
AcDbPolyline
90
2
70
0
43
0
10
-11.5973934085
20
-30.936053825
10
-8.8989961865
20
-28.979901047
0
LWPOLYLINE
5
13F
100
AcDbEntity
8
0
6
ByLayer
62
0
370
-1
100
AcDbPolyline
90
2
70
0
43
0
10
-25.7603628525
20
-15.954639936
10
-26.9703906305
20
-19.060142714
0
LWPOLYLINE
5
140
100
AcDbEntity
8
0
6
ByLayer
62
0
370
-1
100
AcDbPolyline
90
2
70
0
43
0
10
-11.9963850755
20
-30.783653825
10
-11.5973934085
20
-30.936053825
0
LWPOLYLINE
5
141
100
AcDbEntity
8
0
6
ByLayer
62
0
370
-1
100
AcDbPolyline
90
2
70
0
43
0
10
-26.9703906305
20
-19.060142714
10
-26.7216822975
20
-19.407628825
0
LWPOLYLINE
5
142
100
AcDbEntity
8
0
6
ByLayer
62
0
370
-1
100
AcDbPolyline
90
2
70
0
43
0
10
-12.7005295195
20
-27.526103825
10
-11.9963850755
20
-30.783653825
0
LWPOLYLINE
5
143
100
AcDbEntity
8
0
6
ByLayer
62
0
370
-1
100
AcDbPolyline
90
2
70
0
43
0
10
-26.7216822975
20
-19.407628825
10
-23.3918128525
20
-19.265106603
0
LWPOLYLINE
5
144
100
AcDbEntity
8
0
6
ByLayer
62
0
370
-1
100
AcDbPolyline
90
2
70
0
43
0
10
-13.0183822975
20
-27.375820492
10
-12.7005295195
20
-27.526103825
0
LWPOLYLINE
5
145
100
AcDbEntity
8
0
6
ByLayer
62
0
370
-1
100
AcDbPolyline
90
2
70
0
43
0
10
-23.3918128525
20
-19.265106603
10
-23.1681517415
20
-19.535687158
0
LWPOLYLINE
5
146
100
AcDbEntity
8
0
6
ByLayer
62
0
370
-1
100
AcDbPolyline
90
2
70
0
43
0
10
-15.9728961865
20
-28.918164936
10
-13.0183822975
20
-27.375820492
0
LWPOLYLINE
5
147
100
AcDbEntity
8
0
6
ByLayer
62
0
370
-1
100
AcDbPolyline
90
2
70
0
43
0
10
-23.1681517415
20
-19.535687158
10
-23.9128656305
20
-22.784417714
0
LWPOLYLINE
5
148
100
AcDbEntity
8
0
6
ByLayer
62
0
370
-1
100
AcDbPolyline
90
2
70
0
43
0
10
-16.3454295195
20
-28.709320492
10
-15.9728961865
20
-28.918164936
0
LWPOLYLINE
5
149
100
AcDbEntity
8
0
6
ByLayer
62
0
370
-1
100
AcDbPolyline
90
2
70
0
43
0
10
-23.9128656305
20
-22.784417714
10
-23.6165322975
20
-23.092039936
0
LWPOLYLINE
5
14A
100
AcDbEntity
8
0
6
ByLayer
62
0
370
-1
100
AcDbPolyline
90
2
70
0
43
0
10
-16.5676795195
20
-25.383684381
10
-16.3454295195
20
-28.709320492
0
LWPOLYLINE
5
14B
100
AcDbEntity
8
0
6
ByLayer
62
0
370
-1
100
AcDbPolyline
90
2
70
0
43
0
10
-23.6165322975
20
-23.092039936
10
-20.3427545195
20
-22.465859381
0
LWPOLYLINE
5
14C
100
AcDbEntity
8
0
6
ByLayer
62
0
370
-1
100
AcDbPolyline
90
2
70
0
43
0
10
-16.8601322975
20
-25.188951047
10
-16.5676795195
20
-25.383684381
0
LWPOLYLINE
5
14D
100
AcDbEntity
8
0
6
ByLayer
62
0
370
-1
100
AcDbPolyline
90
2
70
0
43
0
10
-20.3427545195
20
-22.465859381
10
-20.0820517415
20
-22.701514936
0
LWPOLYLINE
5
14E
100
AcDbEntity
8
0
6
ByLayer
62
0
370
-1
100
AcDbPolyline
90
2
70
0
43
0
10
-20.0076156305
20
-26.284678825
10
-16.8601322975
20
-25.188951047
0
LWPOLYLINE
5
14F
100
AcDbEntity
8
0
6
ByLayer
62
0
370
-1
100
AcDbPolyline
90
2
70
0
43
0
10
-20.0820517415
20
-22.701514936
10
-20.3459295195
20
-26.023623269
0
LWPOLYLINE
5
150
100
AcDbEntity
8
0
6
ByLayer
62
0
370
-1
100
AcDbPolyline
90
2
70
0
43
0
10
-20.3459295195
20
-26.023623269
10
-20.0076156305
20
-26.284678825
0
LWPOLYLINE
5
151
100
AcDbEntity
8
0
6
ByLayer
62
0
370
-1
100
AcDbPolyline
90
2
70
0
43
0
10
-5.9924600755
20
3.459780214
10
-3.9950319445
20
6.919648269
0
LWPOLYLINE
5
152
100
AcDbEntity
8
0
6
ByLayer
62
0
370
-1
100
AcDbPolyline
90
2
70
0
43
0
10
-7.9898878525
20
8.78419999992e-05
10
-5.9924600755
20
3.459780214
0
LWPOLYLINE
5
153
100
AcDbEntity
8
0
6
ByLayer
62
0
370
-1
100
AcDbPolyline
90
2
70
0
43
0
10
-5.9924600755
20
-3.459603825
10
-7.9898878525
20
8.78419999992e-05
0
LWPOLYLINE
5
154
100
AcDbEntity
8
0
6
ByLayer
62
0
370
-1
100
AcDbPolyline
90
2
70
0
43
0
10
-3.9950319445
20
-6.919295492
10
-5.9924600755
20
-3.459603825
0
LWPOLYLINE
5
155
100
AcDbEntity
8
0
6
ByLayer
62
0
370
-1
100
AcDbPolyline
90
2
70
0
43
0
10
0.000176388500023
20
-6.919648269
10
-3.9950319445
20
-6.919295492
0
LWPOLYLINE
5
156
100
AcDbEntity
8
0
6
ByLayer
62
0
370
-1
100
AcDbPolyline
90
2
70
0
43
0
10
3.9950319445
20
-6.919648269
10
0.000176388500023
20
-6.919648269
0
LWPOLYLINE
5
157
100
AcDbEntity
8
0
6
ByLayer
62
0
370
-1
100
AcDbPolyline
90
2
70
0
43
0
10
5.9924597225
20
-3.459603825
10
3.9950319445
20
-6.919648269
0
LWPOLYLINE
5
158
100
AcDbEntity
8
0
6
ByLayer
62
0
370
-1
100
AcDbPolyline
90
2
70
0
43
0
10
7.9898874995
20
8.78419999992e-05
10
5.9924597225
20
-3.459603825
0
LWPOLYLINE
5
159
100
AcDbEntity
8
0
6
ByLayer
62
0
370
-1
100
AcDbPolyline
90
2
70
0
43
0
10
5.9924597225
20
3.459780214
10
7.9898874995
20
8.78419999992e-05
0
LWPOLYLINE
5
15A
100
AcDbEntity
8
0
6
ByLayer
62
0
370
-1
100
AcDbPolyline
90
2
70
0
43
0
10
3.9950319445
20
6.919542436
10
5.9924597225
20
3.459780214
0
LWPOLYLINE
5
15B
100
AcDbEntity
8
0
6
ByLayer
62
0
370
-1
100
AcDbPolyline
90
2
70
0
43
0
10
0.000176388500023
20
6.919754103
10
3.9950319445
20
6.919542436
0
LWPOLYLINE
5
15C
100
AcDbEntity
8
0
6
ByLayer
62
0
370
-1
100
AcDbPolyline
90
2
70
0
43
0
10
-3.9950319445
20
6.919648269
10
0.000176388500023
20
6.919754103
0
ENDBLK
5
4A
330
48
100
AcDbEntity
8
0
100
AcDbBlockEnd
0
BLOCK
5
4C
330
4B
100
AcDbEntity
8
0
100
AcDbBlockBegin
2
CUT001008009024_PROJ001
70
0
10
0
20
0
3
CUT001008009024_PROJ001
1

0
LINE
5
15D
100
AcDbEntity
8
0
6
ByLayer
62
0
370
-1
100
AcDbLine
10
-4
20
-24.6663460473
11
4
21
-24.6663460473
0
LINE
5
15E
100
AcDbEntity
8
0
6
ByLayer
62
0
370
-1
100
AcDbLine
10
-4
20
-27.3516904913
11
4
21
-27.3516904913
0
LWPOLYLINE
5
15F
100
AcDbEntity
8
0
6
ByLayer
62
0
370
-1
100
AcDbPolyline
90
2
70
0
43
0
10
-4
20
-24.6663460473
10
-4
20
-27.3516904913
0
LWPOLYLINE
5
160
100
AcDbEntity
8
0
6
ByLayer
62
0
370
-1
100
AcDbPolyline
90
2
70
0
43
0
10
4
20
-24.6663460473
10
4
20
-27.3516904913
0
LWPOLYLINE
5
161
100
AcDbEntity
8
0
6
ByLayer
62
0
370
-1
100
AcDbPolyline
90
2
70
0
43
0
10
-4
20
-24.3811957693
10
-4
20
-24.6663460473
0
LWPOLYLINE
5
162
100
AcDbEntity
8
0
6
ByLayer
62
0
370
-1
100
AcDbPolyline
90
2
70
0
43
0
10
-4
20
-27.3516904913
10
-4
20
-27.5874166023
0
LWPOLYLINE
5
163
100
AcDbEntity
8
0
6
ByLayer
62
0
370
-1
100
AcDbPolyline
90
2
70
0
43
0
10
-4
20
-21.2184018803
10
-4
20
-24.3811957693
0
LWPOLYLINE
5
164
100
AcDbEntity
8
0
6
ByLayer
62
0
370
-1
100
AcDbPolyline
90
2
70
0
43
0
10
-4
20
-27.5874166023
10
-4
20
-29.7380910471
0
LWPOLYLINE
5
165
100
AcDbEntity
8
0
6
ByLayer
62
0
370
-1
100
AcDbPolyline
90
2
70
0
43
0
10
-4
20
-20.8900010473
10
-4
20
-21.2184018803
0
LWPOLYLINE
5
166
100
AcDbEntity
8
0
6
ByLayer
62
0
370
-1
100
AcDbPolyline
90
2
70
0
43
0
10
-4
20
-29.7380910471
10
-4
20
-29.9194188249
0
LWPOLYLINE
5
167
100
AcDbEntity
8
0
6
ByLayer
62
0
370
-1
100
AcDbPolyline
90
2
70
0
43
0
10
-4
20
-17.7045941023
10
-4
20
-20.8900010473
0
LWPOLYLINE
5
168
100
AcDbEntity
8
0
6
ByLayer
62
0
370
-1
100
AcDbPolyline
90
2
70
0
43
0
10
-4
20
-17.4179268803
10
-4
20
-17.7045941023
0
LWPOLYLINE
5
169
100
AcDbEntity
8
0
6
ByLayer
62
0
370
-1
100
AcDbPolyline
90
2
70
0
43
0
10
-4
20
-17.3172441023
10
-4
20
-17.4179268803
0
LWPOLYLINE
5
16A
100
AcDbEntity
8
0
6
ByLayer
62
0
370
-1
100
AcDbPolyline
90
2
70
0
43
0
10
-4
20
-29.9194188249
10
-4
20
-31.489597436
0
LWPOLYLINE
5
16B
100
AcDbEntity
8
0
6
ByLayer
62
0
370
-1
100
AcDbPolyline
90
2
70
0
43
0
10
-4
20
-16.9524718803
10
-4
20
-17.3172441023
0
LWPOLYLINE
5
16C
100
AcDbEntity
8
0
6
ByLayer
62
0
370
-1
100
AcDbPolyline
90
2
70
0
43
0
10
-4
20
-31.489597436
10
-4
20
-31.6127168804
0
LWPOLYLINE
5
16D
100
AcDbEntity
8
0
6
ByLayer
62
0
370
-1
100
AcDbPolyline
90
2
70
0
43
0
10
-4
20
-13.9437007693
10
-4
20
-16.9524718803
0
LWPOLYLINE
5
16E
100
AcDbEntity
8
0
6
ByLayer
62
0
370
-1
100
AcDbPolyline
90
2
70
0
43
0
10
-4
20
-13.6305752133
10
-4
20
-13.9437007693
0
LWPOLYLINE
5
16F
100
AcDbEntity
8
0
6
ByLayer
62
0
370
-1
100
AcDbPolyline
90
2
70
0
43
0
10
-4
20
-13.0458107693
10
-4
20
-13.6305752133
0
LWPOLYLINE
5
170
100
AcDbEntity
8
0
6
ByLayer
62
0
370
-1
100
AcDbPolyline
90
2
70
0
43
0
10
-4
20
-31.6127168804
10
-4
20
-32.5689563249
0
LWPOLYLINE
5
171
100
AcDbEntity
8
0
6
ByLayer
62
0
370
-1
100
AcDbPolyline
90
2
70
0
43
0
10
-4
20
-12.6525341023
10
-4
20
-13.0458107693
0
LWPOLYLINE
5
172
100
AcDbEntity
8
0
6
ByLayer
62
0
370
-1
100
AcDbPolyline
90
2
70
0
43
0
10
-4
20
-32.5689563249
10
-4
20
-32.6311510471
0
LWPOLYLINE
5
173
100
AcDbEntity
8
0
6
ByLayer
62
0
370
-1
100
AcDbPolyline
90
2
70
0
43
0
10
-4
20
-9.8846043803
10
-4
20
-12.6525341023
0
LWPOLYLINE
5
174
100
AcDbEntity
8
0
6
ByLayer
62
0
370
-1
100
AcDbPolyline
90
2
70
0
43
0
10
-4
20
-9.5515468803
10
-4
20
-9.8846043803
0
LWPOLYLINE
5
175
100
AcDbEntity
8
0
6
ByLayer
62
0
370
-1
100
AcDbPolyline
90
2
70
0
43
0
10
-4
20
-8.4952243803
10
-4
20
-9.5515468803
0
LWPOLYLINE
5
176
100
AcDbEntity
8
0
6
ByLayer
62
0
370
-1
100
AcDbPolyline
90
2
70
0
43
0
10
-4
20
-32.6311510471
10
-4
20
-32.9529902137
0
LWPOLYLINE
5
177
100
AcDbEntity
8
0
6
ByLayer
62
0
370
-1
100
AcDbPolyline
90
2
70
0
43
0
10
-4
20
-8.0818746583
10
-4
20
-8.4952243803
0
LWPOLYLINE
5
178
100
AcDbEntity
8
0
6
ByLayer
62
0
370
-1
100
AcDbPolyline
90
2
70
0
43
0
10
-4
20
-5.6137354913
10
-4
20
-8.0818746583
0
LWPOLYLINE
5
179
100
AcDbEntity
8
0
6
ByLayer
62
0
370
-1
100
AcDbPolyline
90
2
70
0
43
0
10
-4
20
-5.2676604913
10
-4
20
-5.6137354913
0
LWPOLYLINE
5
17A
100
AcDbEntity
8
0
6
ByLayer
62
0
370
-1
100
AcDbPolyline
90
2
70
0
43
0
10
-4
20
-3.7627104913
10
-4
20
-5.2676604913
0
LWPOLYLINE
5
17B
100
AcDbEntity
8
0
6
ByLayer
62
0
370
-1
100
AcDbPolyline
90
2
70
0
43
0
10
-4
20
-3.3379660473
10
-4
20
-3.7627104913
0
LWPOLYLINE
5
17C
100
AcDbEntity
8
0
6
ByLayer
62
0
370
-1
100
AcDbPolyline
90
2
70
0
43
0
10
-4
20
-1.2220042303
10
-4
20
-3.3379660473
0
LWPOLYLINE
5
17D
100
AcDbEntity
8
0
6
ByLayer
62
0
370
-1
100
AcDbPolyline
90
2
70
0
43
0
10
-4
20
-0.8706375633
10
-4
20
-1.2220042303
0
LWPOLYLINE
5
17E
100
AcDbEntity
8
0
6
ByLayer
62
0
370
-1
100
AcDbPolyline
90
2
70
0
43
0
10
-4
20
1.0512957697
10
-4
20
-0.8706375633
0
LWPOLYLINE
5
17F
100
AcDbEntity
8
0
6
ByLayer
62
0
370
-1
100
AcDbPolyline
90
2
70
0
43
0
10
-4
20
1.4785096587
10
-4
20
1.0512957697
0
LWPOLYLINE
5
180
100
AcDbEntity
8
0
6
ByLayer
62
0
370
-1
100
AcDbPolyline
90
2
70
0
43
0
10
-4
20
3.1968902137
10
-4
20
1.4785096587
0
LWPOLYLINE
5
181
100
AcDbEntity
8
0
6
ByLayer
62
0
370
-1
100
AcDbPolyline
90
2
70
0
43
0
10
-4
20
3.5461402137
10
-4
20
3.1968902137
0
LWPOLYLINE
5
182
100
AcDbEntity
8
0
6
ByLayer
62
0
370
-1
100
AcDbPolyline
90
2
70
0
43
0
10
-4
20
5.8441346587
10
-4
20
3.5461402137
0
LWPOLYLINE
5
183
100
AcDbEntity
8
0
6
ByLayer
62
0
370
-1
100
AcDbPolyline
90
2
70
0
43
0
10
-4
20
6.2642929917
10
-4
20
5.8441346587
0
LWPOLYLINE
5
184
100
AcDbEntity
8
0
6
ByLayer
62
0
370
-1
100
AcDbPolyline
90
2
70
0
43
0
10
-4
20
7.5484041027
10
-4
20
6.2642929917
0
LWPOLYLINE
5
185
100
AcDbEntity
8
0
6
ByLayer
62
0
370
-1
100
AcDbPolyline
90
2
70
0
43
0
10
-4
20
7.8881291027
10
-4
20
7.5484041027
0
LWPOLYLINE
5
186
100
AcDbEntity
8
0
6
ByLayer
62
0
370
-1
100
AcDbPolyline
90
2
70
0
43
0
10
-4
20
10.5135013247
10
-4
20
7.8881291027
0
LWPOLYLINE
5
187
100
AcDbEntity
8
0
6
ByLayer
62
0
370
-1
100
AcDbPolyline
90
2
70
0
43
0
10
-4
20
10.9177846587
10
-4
20
10.5135013247
0
LWPOLYLINE
5
188
100
AcDbEntity
8
0
6
ByLayer
62
0
370
-1
100
AcDbPolyline
90
2
70
0
43
0
10
-4
20
11.7404624367
10
-4
20
10.9177846587
0
LWPOLYLINE
5
189
100
AcDbEntity
8
0
6
ByLayer
62
0
370
-1
100
AcDbPolyline
90
2
70
0
43
0
10
-4
20
12.0636068807
10
-4
20
11.7404624367
0
LWPOLYLINE
5
18A
100
AcDbEntity
8
0
6
ByLayer
62
0
370
-1
100
AcDbPolyline
90
2
70
0
43
0
10
-4
20
14.9595596587
10
-4
20
12.0636068807
0
LWPOLYLINE
5
18B
100
AcDbEntity
8
0
6
ByLayer
62
0
370
-1
100
AcDbPolyline
90
2
70
0
43
0
10
-4
20
15.3395013247
10
-4
20
14.9595596587
0
LWPOLYLINE
5
18C
100
AcDbEntity
8
0
6
ByLayer
62
0
370
-1
100
AcDbPolyline
90
2
70
0
43
0
10
-4
20
15.6834596587
10
-4
20
15.3395013247
0
LWPOLYLINE
5
18D
100
AcDbEntity
8
0
6
ByLayer
62
0
370
-1
100
AcDbPolyline
90
2
70
0
43
0
10
-4
20
15.9826152137
10
-4
20
15.6834596587
0
LWPOLYLINE
5
18E
100
AcDbEntity
8
0
6
ByLayer
62
0
370
-1
100
AcDbPolyline
90
2
70
0
43
0
10
-4
20
19.0881179917
10
-4
20
15.9826152137
0
LWPOLYLINE
5
18F
100
AcDbEntity
8
0
6
ByLayer
62
0
370
-1
100
AcDbPolyline
90
2
70
0
43
0
10
-4
20
19.4356041027
10
-4
20
19.0881179917
0
LWPOLYLINE
5
190
100
AcDbEntity
8
0
6
ByLayer
62
0
370
-1
100
AcDbPolyline
90
2
70
0
43
0
10
-4
20
19.5622513247
10
-4
20
19.4356041027
0
LWPOLYLINE
5
191
100
AcDbEntity
8
0
6
ByLayer
62
0
370
-1
100
AcDbPolyline
90
2
70
0
43
0
10
-4
20
22.8109818807
10
-4
20
19.5622513247
0
LWPOLYLINE
5
192
100
AcDbEntity
8
0
6
ByLayer
62
0
370
-1
100
AcDbPolyline
90
2
70
0
43
0
10
-4
20
23.1186041027
10
-4
20
22.8109818807
0
LWPOLYLINE
5
193
100
AcDbEntity
8
0
6
ByLayer
62
0
370
-1
100
AcDbPolyline
90
2
70
0
43
0
10
-4
20
26.0487763247
10
-4
20
23.1186041027
0
LWPOLYLINE
5
194
100
AcDbEntity
8
0
6
ByLayer
62
0
370
-1
100
AcDbPolyline
90
2
70
0
43
0
10
-4
20
26.3098318807
10
-4
20
26.0487763247
0
LWPOLYLINE
5
195
100
AcDbEntity
8
0
6
ByLayer
62
0
370
-1
100
AcDbPolyline
90
2
70
0
43
0
10
-4
20
28.7323568807
10
-4
20
26.3098318807
0
LWPOLYLINE
5
196
100
AcDbEntity
8
0
6
ByLayer
62
0
370
-1
100
AcDbPolyline
90
2
70
0
43
0
10
-4
20
28.9415541027
10
-4
20
28.7323568807
0
LWPOLYLINE
5
197
100
AcDbEntity
8
0
6
ByLayer
62
0
370
-1
100
AcDbPolyline
90
2
70
0
43
0
10
-4
20
30.8045735477
10
-4
20
28.9415541027
0
LWPOLYLINE
5
198
100
AcDbEntity
8
0
6
ByLayer
62
0
370
-1
100
AcDbPolyline
90
2
70
0
43
0
10
-4
20
30.9573263247
10
-4
20
30.8045735477
0
LWPOLYLINE
5
199
100
AcDbEntity
8
0
6
ByLayer
62
0
370
-1
100
AcDbPolyline
90
2
70
0
43
0
10
-4
20
32.2216818807
10
-4
20
30.9573263247
0
LWPOLYLINE
5
19A
100
AcDbEntity
8
0
6
ByLayer
62
0
370
-1
100
AcDbPolyline
90
2
70
0
43
0
10
-4
20
32.3144624367
10
-4
20
32.2216818807
0
LWPOLYLINE
5
19B
100
AcDbEntity
8
0
6
ByLayer
62
0
370
-1
100
AcDbPolyline
90
2
70
0
43
0
10
-4
20
32.9529902137
10
-4
20
32.3144624367
0
LWPOLYLINE
5
19C
100
AcDbEntity
8
0
6
ByLayer
62
0
370
-1
100
AcDbPolyline
90
2
70
0
43
0
10
-4
20
32.9840346587
10
-4
20
32.9529902137
0
LWPOLYLINE
5
19D
100
AcDbEntity
8
0
6
ByLayer
62
0
370
-1
100
AcDbPolyline
90
2
70
0
43
0
10
4
20
-24.3811957693
10
4
20
-24.6663460473
0
LWPOLYLINE
5
19E
100
AcDbEntity
8
0
6
ByLayer
62
0
370
-1
100
AcDbPolyline
90
2
70
0
43
0
10
4
20
-27.3516904913
10
4
20
-27.5874166023
0
LWPOLYLINE
5
19F
100
AcDbEntity
8
0
6
ByLayer
62
0
370
-1
100
AcDbPolyline
90
2
70
0
43
0
10
4
20
-21.2184018803
10
4
20
-24.3811957693
0
LWPOLYLINE
5
1A0
100
AcDbEntity
8
0
6
ByLayer
62
0
370
-1
100
AcDbPolyline
90
2
70
0
43
0
10
4
20
-27.5874166023
10
4
20
-29.7380910471
0
LWPOLYLINE
5
1A1
100
AcDbEntity
8
0
6
ByLayer
62
0
370
-1
100
AcDbPolyline
90
2
70
0
43
0
10
4
20
-20.8900010473
10
4
20
-21.2184018803
0
LWPOLYLINE
5
1A2
100
AcDbEntity
8
0
6
ByLayer
62
0
370
-1
100
AcDbPolyline
90
2
70
0
43
0
10
4
20
-29.7380910471
10
4
20
-29.9194188249
0
LWPOLYLINE
5
1A3
100
AcDbEntity
8
0
6
ByLayer
62
0
370
-1
100
AcDbPolyline
90
2
70
0
43
0
10
4
20
-17.7045941023
10
4
20
-20.8900010473
0
LWPOLYLINE
5
1A4
100
AcDbEntity
8
0
6
ByLayer
62
0
370
-1
100
AcDbPolyline
90
2
70
0
43
0
10
4
20
-17.4179268803
10
4
20
-17.7045941023
0
LWPOLYLINE
5
1A5
100
AcDbEntity
8
0
6
ByLayer
62
0
370
-1
100
AcDbPolyline
90
2
70
0
43
0
10
4
20
-17.3172441023
10
4
20
-17.4179268803
0
LWPOLYLINE
5
1A6
100
AcDbEntity
8
0
6
ByLayer
62
0
370
-1
100
AcDbPolyline
90
2
70
0
43
0
10
4
20
-29.9194188249
10
4
20
-31.489597436
0
LWPOLYLINE
5
1A7
100
AcDbEntity
8
0
6
ByLayer
62
0
370
-1
100
AcDbPolyline
90
2
70
0
43
0
10
4
20
-16.9524718803
10
4
20
-17.3172441023
0
LWPOLYLINE
5
1A8
100
AcDbEntity
8
0
6
ByLayer
62
0
370
-1
100
AcDbPolyline
90
2
70
0
43
0
10
4
20
-31.489597436
10
4
20
-31.6127168804
0
LWPOLYLINE
5
1A9
100
AcDbEntity
8
0
6
ByLayer
62
0
370
-1
100
AcDbPolyline
90
2
70
0
43
0
10
4
20
-13.9437007693
10
4
20
-16.9524718803
0
LWPOLYLINE
5
1AA
100
AcDbEntity
8
0
6
ByLayer
62
0
370
-1
100
AcDbPolyline
90
2
70
0
43
0
10
4
20
-13.6305752133
10
4
20
-13.9437007693
0
LWPOLYLINE
5
1AB
100
AcDbEntity
8
0
6
ByLayer
62
0
370
-1
100
AcDbPolyline
90
2
70
0
43
0
10
4
20
-13.0458107693
10
4
20
-13.6305752133
0
LWPOLYLINE
5
1AC
100
AcDbEntity
8
0
6
ByLayer
62
0
370
-1
100
AcDbPolyline
90
2
70
0
43
0
10
4
20
-31.6127168804
10
4
20
-32.5689563249
0
LWPOLYLINE
5
1AD
100
AcDbEntity
8
0
6
ByLayer
62
0
370
-1
100
AcDbPolyline
90
2
70
0
43
0
10
4
20
-12.6525341023
10
4
20
-13.0458107693
0
LWPOLYLINE
5
1AE
100
AcDbEntity
8
0
6
ByLayer
62
0
370
-1
100
AcDbPolyline
90
2
70
0
43
0
10
4
20
-32.5689563249
10
4
20
-32.6311510471
0
LWPOLYLINE
5
1AF
100
AcDbEntity
8
0
6
ByLayer
62
0
370
-1
100
AcDbPolyline
90
2
70
0
43
0
10
4
20
-9.8846043803
10
4
20
-12.6525341023
0
LWPOLYLINE
5
1B0
100
AcDbEntity
8
0
6
ByLayer
62
0
370
-1
100
AcDbPolyline
90
2
70
0
43
0
10
4
20
-9.5515468803
10
4
20
-9.8846043803
0
LWPOLYLINE
5
1B1
100
AcDbEntity
8
0
6
ByLayer
62
0
370
-1
100
AcDbPolyline
90
2
70
0
43
0
10
4
20
-8.4952243803
10
4
20
-9.5515468803
0
LWPOLYLINE
5
1B2
100
AcDbEntity
8
0
6
ByLayer
62
0
370
-1
100
AcDbPolyline
90
2
70
0
43
0
10
4
20
-32.6311510471
10
4
20
-32.9529902137
0
LWPOLYLINE
5
1B3
100
AcDbEntity
8
0
6
ByLayer
62
0
370
-1
100
AcDbPolyline
90
2
70
0
43
0
10
4
20
-8.0818746583
10
4
20
-8.4952243803
0
LWPOLYLINE
5
1B4
100
AcDbEntity
8
0
6
ByLayer
62
0
370
-1
100
AcDbPolyline
90
2
70
0
43
0
10
4
20
-5.6137354913
10
4
20
-8.0818746583
0
LWPOLYLINE
5
1B5
100
AcDbEntity
8
0
6
ByLayer
62
0
370
-1
100
AcDbPolyline
90
2
70
0
43
0
10
4
20
-5.2676604913
10
4
20
-5.6137354913
0
LWPOLYLINE
5
1B6
100
AcDbEntity
8
0
6
ByLayer
62
0
370
-1
100
AcDbPolyline
90
2
70
0
43
0
10
4
20
-3.7627104913
10
4
20
-5.2676604913
0
LWPOLYLINE
5
1B7
100
AcDbEntity
8
0
6
ByLayer
62
0
370
-1
100
AcDbPolyline
90
2
70
0
43
0
10
4
20
-3.3379660473
10
4
20
-3.7627104913
0
LWPOLYLINE
5
1B8
100
AcDbEntity
8
0
6
ByLayer
62
0
370
-1
100
AcDbPolyline
90
2
70
0
43
0
10
4
20
-1.2220042303
10
4
20
-3.3379660473
0
LWPOLYLINE
5
1B9
100
AcDbEntity
8
0
6
ByLayer
62
0
370
-1
100
AcDbPolyline
90
2
70
0
43
0
10
4
20
-0.8706375633
10
4
20
-1.2220042303
0
LWPOLYLINE
5
1BA
100
AcDbEntity
8
0
6
ByLayer
62
0
370
-1
100
AcDbPolyline
90
2
70
0
43
0
10
4
20
1.0512957697
10
4
20
-0.8706375633
0
LWPOLYLINE
5
1BB
100
AcDbEntity
8
0
6
ByLayer
62
0
370
-1
100
AcDbPolyline
90
2
70
0
43
0
10
4
20
1.4785096587
10
4
20
1.0512957697
0
LWPOLYLINE
5
1BC
100
AcDbEntity
8
0
6
ByLayer
62
0
370
-1
100
AcDbPolyline
90
2
70
0
43
0
10
4
20
3.1968902137
10
4
20
1.4785096587
0
LWPOLYLINE
5
1BD
100
AcDbEntity
8
0
6
ByLayer
62
0
370
-1
100
AcDbPolyline
90
2
70
0
43
0
10
4
20
3.5461402137
10
4
20
3.1968902137
0
LWPOLYLINE
5
1BE
100
AcDbEntity
8
0
6
ByLayer
62
0
370
-1
100
AcDbPolyline
90
2
70
0
43
0
10
4
20
5.8441346587
10
4
20
3.5461402137
0
LWPOLYLINE
5
1BF
100
AcDbEntity
8
0
6
ByLayer
62
0
370
-1
100
AcDbPolyline
90
2
70
0
43
0
10
4
20
6.2642929917
10
4
20
5.8441346587
0
LWPOLYLINE
5
1C0
100
AcDbEntity
8
0
6
ByLayer
62
0
370
-1
100
AcDbPolyline
90
2
70
0
43
0
10
4
20
7.5484041027
10
4
20
6.2642929917
0
LWPOLYLINE
5
1C1
100
AcDbEntity
8
0
6
ByLayer
62
0
370
-1
100
AcDbPolyline
90
2
70
0
43
0
10
4
20
7.8881291027
10
4
20
7.5484041027
0
LWPOLYLINE
5
1C2
100
AcDbEntity
8
0
6
ByLayer
62
0
370
-1
100
AcDbPolyline
90
2
70
0
43
0
10
4
20
10.5135013247
10
4
20
7.8881291027
0
LWPOLYLINE
5
1C3
100
AcDbEntity
8
0
6
ByLayer
62
0
370
-1
100
AcDbPolyline
90
2
70
0
43
0
10
4
20
10.9177846587
10
4
20
10.5135013247
0
LWPOLYLINE
5
1C4
100
AcDbEntity
8
0
6
ByLayer
62
0
370
-1
100
AcDbPolyline
90
2
70
0
43
0
10
4
20
11.7404624367
10
4
20
10.9177846587
0
LWPOLYLINE
5
1C5
100
AcDbEntity
8
0
6
ByLayer
62
0
370
-1
100
AcDbPolyline
90
2
70
0
43
0
10
4
20
12.0636068807
10
4
20
11.7404624367
0
LWPOLYLINE
5
1C6
100
AcDbEntity
8
0
6
ByLayer
62
0
370
-1
100
AcDbPolyline
90
2
70
0
43
0
10
4
20
14.9595596587
10
4
20
12.0636068807
0
LWPOLYLINE
5
1C7
100
AcDbEntity
8
0
6
ByLayer
62
0
370
-1
100
AcDbPolyline
90
2
70
0
43
0
10
4
20
15.3395013247
10
4
20
14.9595596587
0
LWPOLYLINE
5
1C8
100
AcDbEntity
8
0
6
ByLayer
62
0
370
-1
100
AcDbPolyline
90
2
70
0
43
0
10
4
20
15.6834596587
10
4
20
15.3395013247
0
LWPOLYLINE
5
1C9
100
AcDbEntity
8
0
6
ByLayer
62
0
370
-1
100
AcDbPolyline
90
2
70
0
43
0
10
4
20
15.9826152137
10
4
20
15.6834596587
0
LWPOLYLINE
5
1CA
100
AcDbEntity
8
0
6
ByLayer
62
0
370
-1
100
AcDbPolyline
90
2
70
0
43
0
10
4
20
19.0881179917
10
4
20
15.9826152137
0
LWPOLYLINE
5
1CB
100
AcDbEntity
8
0
6
ByLayer
62
0
370
-1
100
AcDbPolyline
90
2
70
0
43
0
10
4
20
19.4356041027
10
4
20
19.0881179917
0
LWPOLYLINE
5
1CC
100
AcDbEntity
8
0
6
ByLayer
62
0
370
-1
100
AcDbPolyline
90
2
70
0
43
0
10
4
20
19.5622513247
10
4
20
19.4356041027
0
LWPOLYLINE
5
1CD
100
AcDbEntity
8
0
6
ByLayer
62
0
370
-1
100
AcDbPolyline
90
2
70
0
43
0
10
4
20
22.8109818807
10
4
20
19.5622513247
0
LWPOLYLINE
5
1CE
100
AcDbEntity
8
0
6
ByLayer
62
0
370
-1
100
AcDbPolyline
90
2
70
0
43
0
10
4
20
23.1186041027
10
4
20
22.8109818807
0
LWPOLYLINE
5
1CF
100
AcDbEntity
8
0
6
ByLayer
62
0
370
-1
100
AcDbPolyline
90
2
70
0
43
0
10
4
20
26.0487763247
10
4
20
23.1186041027
0
LWPOLYLINE
5
1D0
100
AcDbEntity
8
0
6
ByLayer
62
0
370
-1
100
AcDbPolyline
90
2
70
0
43
0
10
4
20
26.3098318807
10
4
20
26.0487763247
0
LWPOLYLINE
5
1D1
100
AcDbEntity
8
0
6
ByLayer
62
0
370
-1
100
AcDbPolyline
90
2
70
0
43
0
10
4
20
28.7323568807
10
4
20
26.3098318807
0
LWPOLYLINE
5
1D2
100
AcDbEntity
8
0
6
ByLayer
62
0
370
-1
100
AcDbPolyline
90
2
70
0
43
0
10
4
20
28.9415541027
10
4
20
28.7323568807
0
LWPOLYLINE
5
1D3
100
AcDbEntity
8
0
6
ByLayer
62
0
370
-1
100
AcDbPolyline
90
2
70
0
43
0
10
4
20
30.8045735477
10
4
20
28.9415541027
0
LWPOLYLINE
5
1D4
100
AcDbEntity
8
0
6
ByLayer
62
0
370
-1
100
AcDbPolyline
90
2
70
0
43
0
10
4
20
30.9573263247
10
4
20
30.8045735477
0
LWPOLYLINE
5
1D5
100
AcDbEntity
8
0
6
ByLayer
62
0
370
-1
100
AcDbPolyline
90
2
70
0
43
0
10
4
20
32.2216818807
10
4
20
30.9573263247
0
LWPOLYLINE
5
1D6
100
AcDbEntity
8
0
6
ByLayer
62
0
370
-1
100
AcDbPolyline
90
2
70
0
43
0
10
4
20
32.3144624367
10
4
20
32.2216818807
0
LWPOLYLINE
5
1D7
100
AcDbEntity
8
0
6
ByLayer
62
0
370
-1
100
AcDbPolyline
90
2
70
0
43
0
10
4
20
32.9529902137
10
4
20
32.3144624367
0
LWPOLYLINE
5
1D8
100
AcDbEntity
8
0
6
ByLayer
62
0
370
-1
100
AcDbPolyline
90
2
70
0
43
0
10
4
20
32.9840346587
10
4
20
32.9529902137
0
LINE
5
1D9
100
AcDbEntity
8
0
6
ByLayer
62
0
370
-1
100
AcDbLine
10
-4
20
-24.3811957693
11
4
21
-24.3811957693
0
LINE
5
1DA
100
AcDbEntity
8
0
6
ByLayer
62
0
370
-1
100
AcDbLine
10
-4
20
-27.5874166023
11
4
21
-27.5874166023
0
LINE
5
1DB
100
AcDbEntity
8
0
6
ByLayer
62
0
370
-1
100
AcDbLine
10
-4
20
-21.2184018803
11
4
21
-21.2184018803
0
LINE
5
1DC
100
AcDbEntity
8
0
6
ByLayer
62
0
370
-1
100
AcDbLine
10
-4
20
-29.7380910471
11
4
21
-29.7380910471
0
LINE
5
1DD
100
AcDbEntity
8
0
6
ByLayer
62
0
370
-1
100
AcDbLine
10
-4
20
-20.8900010473
11
4
21
-20.8900010473
0
LINE
5
1DE
100
AcDbEntity
8
0
6
ByLayer
62
0
370
-1
100
AcDbLine
10
-4
20
-29.9194188249
11
4
21
-29.9194188249
0
LINE
5
1DF
100
AcDbEntity
8
0
6
ByLayer
62
0
370
-1
100
AcDbLine
10
-4
20
-17.7045941023
11
4
21
-17.7045941023
0
LINE
5
1E0
100
AcDbEntity
8
0
6
ByLayer
62
0
370
-1
100
AcDbLine
10
-4
20
-17.4179268803
11
4
21
-17.4179268803
0
LINE
5
1E1
100
AcDbEntity
8
0
6
ByLayer
62
0
370
-1
100
AcDbLine
10
-4
20
-17.3172441023
11
4
21
-17.3172441023
0
LINE
5
1E2
100
AcDbEntity
8
0
6
ByLayer
62
0
370
-1
100
AcDbLine
10
-4
20
-31.489597436
11
4
21
-31.489597436
0
LINE
5
1E3
100
AcDbEntity
8
0
6
ByLayer
62
0
370
-1
100
AcDbLine
10
-4
20
-16.9524718803
11
4
21
-16.9524718803
0
LINE
5
1E4
100
AcDbEntity
8
0
6
ByLayer
62
0
370
-1
100
AcDbLine
10
-4
20
-31.6127168804
11
4
21
-31.6127168804
0
LINE
5
1E5
100
AcDbEntity
8
0
6
ByLayer
62
0
370
-1
100
AcDbLine
10
-4
20
-13.9437007693
11
4
21
-13.9437007693
0
LINE
5
1E6
100
AcDbEntity
8
0
6
ByLayer
62
0
370
-1
100
AcDbLine
10
-4
20
-13.6305752133
11
4
21
-13.6305752133
0
LINE
5
1E7
100
AcDbEntity
8
0
6
ByLayer
62
0
370
-1
100
AcDbLine
10
-4
20
-13.0458107693
11
4
21
-13.0458107693
0
LINE
5
1E8
100
AcDbEntity
8
0
6
ByLayer
62
0
370
-1
100
AcDbLine
10
-4
20
-32.5689563249
11
4
21
-32.5689563249
0
LINE
5
1E9
100
AcDbEntity
8
0
6
ByLayer
62
0
370
-1
100
AcDbLine
10
-4
20
-12.6525341023
11
4
21
-12.6525341023
0
LINE
5
1EA
100
AcDbEntity
8
0
6
ByLayer
62
0
370
-1
100
AcDbLine
10
-4
20
-32.6311510471
11
4
21
-32.6311510471
0
LINE
5
1EB
100
AcDbEntity
8
0
6
ByLayer
62
0
370
-1
100
AcDbLine
10
-4
20
-9.8846043803
11
4
21
-9.8846043803
0
LINE
5
1EC
100
AcDbEntity
8
0
6
ByLayer
62
0
370
-1
100
AcDbLine
10
-4
20
-9.5515468803
11
4
21
-9.5515468803
0
LINE
5
1ED
100
AcDbEntity
8
0
6
ByLayer
62
0
370
-1
100
AcDbLine
10
-4
20
-8.4952243803
11
4
21
-8.4952243803
0
LINE
5
1EE
100
AcDbEntity
8
0
6
ByLayer
62
0
370
-1
100
AcDbLine
10
-4
20
-32.9529902137
11
4
21
-32.9529902137
0
LINE
5
1EF
100
AcDbEntity
8
0
6
ByLayer
62
0
370
-1
100
AcDbLine
10
-4
20
-8.0818746583
11
4
21
-8.0818746583
0
LINE
5
1F0
100
AcDbEntity
8
0
6
ByLayer
62
0
370
-1
100
AcDbLine
10
-4
20
-32.9529902137
11
4
21
-32.9529902137
0
LINE
5
1F1
100
AcDbEntity
8
0
6
ByLayer
62
0
370
-1
100
AcDbLine
10
-4
20
-5.6137354913
11
4
21
-5.6137354913
0
LINE
5
1F2
100
AcDbEntity
8
0
6
ByLayer
62
0
370
-1
100
AcDbLine
10
-4
20
-5.2676604913
11
4
21
-5.2676604913
0
LINE
5
1F3
100
AcDbEntity
8
0
6
ByLayer
62
0
370
-1
100
AcDbLine
10
-4
20
-3.7627104913
11
4
21
-3.7627104913
0
LINE
5
1F4
100
AcDbEntity
8
0
6
ByLayer
62
0
370
-1
100
AcDbLine
10
-4
20
-3.3379660473
11
4
21
-3.3379660473
0
LINE
5
1F5
100
AcDbEntity
8
0
6
ByLayer
62
0
370
-1
100
AcDbLine
10
-4
20
-1.2220042303
11
4
21
-1.2220042303
0
LINE
5
1F6
100
AcDbEntity
8
0
6
ByLayer
62
0
370
-1
100
AcDbLine
10
-4
20
-0.8706375633
11
4
21
-0.8706375633
0
LINE
5
1F7
100
AcDbEntity
8
0
6
ByLayer
62
0
370
-1
100
AcDbLine
10
-4
20
1.0512957697
11
4
21
1.0512957697
0
LINE
5
1F8
100
AcDbEntity
8
0
6
ByLayer
62
0
370
-1
100
AcDbLine
10
-4
20
1.4785096587
11
4
21
1.4785096587
0
LINE
5
1F9
100
AcDbEntity
8
0
6
ByLayer
62
0
370
-1
100
AcDbLine
10
-4
20
3.1968902137
11
4
21
3.1968902137
0
LINE
5
1FA
100
AcDbEntity
8
0
6
ByLayer
62
0
370
-1
100
AcDbLine
10
-4
20
3.5461402137
11
4
21
3.5461402137
0
LINE
5
1FB
100
AcDbEntity
8
0
6
ByLayer
62
0
370
-1
100
AcDbLine
10
-4
20
5.8441346587
11
4
21
5.8441346587
0
LINE
5
1FC
100
AcDbEntity
8
0
6
ByLayer
62
0
370
-1
100
AcDbLine
10
-4
20
6.2642929917
11
4
21
6.2642929917
0
LINE
5
1FD
100
AcDbEntity
8
0
6
ByLayer
62
0
370
-1
100
AcDbLine
10
-4
20
7.5484041027
11
4
21
7.5484041027
0
LINE
5
1FE
100
AcDbEntity
8
0
6
ByLayer
62
0
370
-1
100
AcDbLine
10
-4
20
7.8881291027
11
4
21
7.8881291027
0
LINE
5
1FF
100
AcDbEntity
8
0
6
ByLayer
62
0
370
-1
100
AcDbLine
10
-4
20
10.5135013247
11
4
21
10.5135013247
0
LINE
5
200
100
AcDbEntity
8
0
6
ByLayer
62
0
370
-1
100
AcDbLine
10
-4
20
10.9177846587
11
4
21
10.9177846587
0
LINE
5
201
100
AcDbEntity
8
0
6
ByLayer
62
0
370
-1
100
AcDbLine
10
-4
20
11.7404624367
11
4
21
11.7404624367
0
LINE
5
202
100
AcDbEntity
8
0
6
ByLayer
62
0
370
-1
100
AcDbLine
10
-4
20
12.0636068807
11
4
21
12.0636068807
0
LINE
5
203
100
AcDbEntity
8
0
6
ByLayer
62
0
370
-1
100
AcDbLine
10
-4
20
14.9595596587
11
4
21
14.9595596587
0
LINE
5
204
100
AcDbEntity
8
0
6
ByLayer
62
0
370
-1
100
AcDbLine
10
-4
20
15.3395013247
11
4
21
15.3395013247
0
LINE
5
205
100
AcDbEntity
8
0
6
ByLayer
62
0
370
-1
100
AcDbLine
10
-4
20
15.6834596587
11
4
21
15.6834596587
0
LINE
5
206
100
AcDbEntity
8
0
6
ByLayer
62
0
370
-1
100
AcDbLine
10
-4
20
15.9826152137
11
4
21
15.9826152137
0
LINE
5
207
100
AcDbEntity
8
0
6
ByLayer
62
0
370
-1
100
AcDbLine
10
-4
20
19.0881179917
11
4
21
19.0881179917
0
LINE
5
208
100
AcDbEntity
8
0
6
ByLayer
62
0
370
-1
100
AcDbLine
10
-4
20
19.4356041027
11
4
21
19.4356041027
0
LINE
5
209
100
AcDbEntity
8
0
6
ByLayer
62
0
370
-1
100
AcDbLine
10
-4
20
19.5622513247
11
4
21
19.5622513247
0
LINE
5
20A
100
AcDbEntity
8
0
6
ByLayer
62
0
370
-1
100
AcDbLine
10
-4
20
22.8109818807
11
4
21
22.8109818807
0
LINE
5
20B
100
AcDbEntity
8
0
6
ByLayer
62
0
370
-1
100
AcDbLine
10
-4
20
23.1186041027
11
4
21
23.1186041027
0
LINE
5
20C
100
AcDbEntity
8
0
6
ByLayer
62
0
370
-1
100
AcDbLine
10
-4
20
26.0487763247
11
4
21
26.0487763247
0
LINE
5
20D
100
AcDbEntity
8
0
6
ByLayer
62
0
370
-1
100
AcDbLine
10
-4
20
26.3098318807
11
4
21
26.3098318807
0
LINE
5
20E
100
AcDbEntity
8
0
6
ByLayer
62
0
370
-1
100
AcDbLine
10
-4
20
28.7323568807
11
4
21
28.7323568807
0
LINE
5
20F
100
AcDbEntity
8
0
6
ByLayer
62
0
370
-1
100
AcDbLine
10
-4
20
28.9415541027
11
4
21
28.9415541027
0
LINE
5
210
100
AcDbEntity
8
0
6
ByLayer
62
0
370
-1
100
AcDbLine
10
-4
20
30.8045735477
11
4
21
30.8045735477
0
LINE
5
211
100
AcDbEntity
8
0
6
ByLayer
62
0
370
-1
100
AcDbLine
10
-4
20
30.9573263247
11
4
21
30.9573263247
0
LINE
5
212
100
AcDbEntity
8
0
6
ByLayer
62
0
370
-1
100
AcDbLine
10
-4
20
32.2216818807
11
4
21
32.2216818807
0
LINE
5
213
100
AcDbEntity
8
0
6
ByLayer
62
0
370
-1
100
AcDbLine
10
-4
20
32.3144624367
11
4
21
32.3144624367
0
LINE
5
214
100
AcDbEntity
8
0
6
ByLayer
62
0
370
-1
100
AcDbLine
10
-4
20
32.9529902137
11
4
21
32.9529902137
0
LINE
5
215
100
AcDbEntity
8
0
6
ByLayer
62
0
370
-1
100
AcDbLine
10
-4
20
32.9840346587
11
4
21
32.9840346587
0
ENDBLK
5
4D
330
4B
100
AcDbEntity
8
0
100
AcDbBlockEnd
0
ENDSEC
0
SECTION
2
ENTITIES
0
INSERT
5
216
100
AcDbEntity
8
0
6
ByLayer
62
256
370
-1
100
AcDbBlockReference
2
CUT001008009024_PROJ
10
0
20
0
30
0
41
1
42
1
43
0
50
0
70
1
71
1
44
0
45
0
0
INSERT
5
217
100
AcDbEntity
8
0
6
ByLayer
62
256
370
-1
100
AcDbBlockReference
2
CUT001008009024_PROJ001
10
100
20
0
30
0
41
1
42
1
43
0
50
0
70
1
71
1
44
0
45
0
0
LINE
5
218
100
AcDbEntity
8
base
6
ByLayer
62
256
370
-1
100
AcDbLine
10
0
20
35
11
0
21
-34
0
LINE
5
219
100
AcDbEntity
8
base
6
ByLayer
62
256
370
-1
100
AcDbLine
10
-10
20
0
11
10
21
0
0
LINE
5
21A
100
AcDbEntity
8
base
6
ByLayer
62
256
370
-1
100
AcDbLine
10
94
20
0
11
106
21
0
0
DIMENSION
5
21B
100
AcDbEntity
8
dim
6
ByLayer
62
256
370
-1
100
AcDbDimension
10
104
20
40
30
0
11
100
21
41.875
31
0
70
32
71
5
3
Standard
53
0
210
0
220
0
230
1
100
AcDbAlignedDimension
13
96
23
32.9840346587
33
0
14
104
24
32.9529902137
34
0
100
AcDbRotatedDimension
0
DIMENSION
5
21C
100
AcDbEntity
8
dim
6
ByLayer
62
256
370
-1
100
AcDbDimension
10
7.98983678456
20
20
30
0
11
-2.55339693117e-05
21
21.875
31
0
70
32
71
5
3
Standard
53
0
210
0
220
0
230
1
100
AcDbAlignedDimension
13
-7.9898878525
23
8.78420000007e-05
33
0
14
7.98983678456
24
0
34
0
100
AcDbRotatedDimension
0
DIMENSION
5
21D
100
AcDbEntity
8
dim
6
ByLayer
62
256
370
-1
100
AcDbDimension
10
-17.332811507
20
-14.6197660272
30
0
11
-17.7064111952
21
-10.2226274198
31
0
70
33
71
5
3
Standard
53
0
210
0
220
0
230
1
100
AcDbAlignedDimension
13
-7.98983713756
23
0
33
0
14
-3.9950319445
24
-6.919295492
34
0
0
DIMENSION
5
21E
100
AcDbEntity
8
dim
6
ByLayer
62
256
370
-1
100
AcDbDimension
10
20
20
-6.91964825342
30
0
11
18.125
21
5.29224512647e-05
31
0
70
32
71
5
3
Standard
53
0
210
0
220
0
230
1
100
AcDbAlignedDimension
13
0
23
6.91975409833
33
0
14
0
24
-6.91964825342
34
0
50
90
100
AcDbRotatedDimension
0
ENDSEC
0
SECTION
2
OBJECTS
0
DICTIONARY
5
C
330
0
100
AcDbDictionary
281
1
3
ACAD_GROUP
350
D
0
DICTIONARY
5
D
330
C
100
AcDbDictionary
281
1
0
ENDSEC
0
EOF
