<?xml version="1.0" encoding="UTF-8" standalone="no"?>
<!-- Created with sK1/UniConvertor (http://sk1project.org/) -->

<svg
   xmlns:dc="http://purl.org/dc/elements/1.1/"
   xmlns:cc="http://creativecommons.org/ns#"
   xmlns:rdf="http://www.w3.org/1999/02/22-rdf-syntax-ns#"
   xmlns:svg="http://www.w3.org/2000/svg"
   xmlns="http://www.w3.org/2000/svg"
   xmlns:sodipodi="http://sodipodi.sourceforge.net/DTD/sodipodi-0.dtd"
   xmlns:inkscape="http://www.inkscape.org/namespaces/inkscape"
   width="595.276pt"
   height="841.89pt"
   viewBox="0 0 595.276 841.89"
   fill-rule="evenodd"
   id="svg3441"
   version="1.1"
   inkscape:version="0.48.3.1 r9886"
   sodipodi:docname="part09.svg">
  <metadata
     id="metadata3485">
    <rdf:RDF>
      <cc:Work
         rdf:about="">
        <dc:format>image/svg+xml</dc:format>
        <dc:type
           rdf:resource="http://purl.org/dc/dcmitype/StillImage" />
        <dc:title />
      </cc:Work>
    </rdf:RDF>
  </metadata>
  <sodipodi:namedview
     pagecolor="#ffffff"
     bordercolor="#666666"
     borderopacity="1"
     objecttolerance="10"
     gridtolerance="10"
     guidetolerance="10"
     inkscape:pageopacity="0"
     inkscape:pageshadow="2"
     inkscape:window-width="1268"
     inkscape:window-height="845"
     id="namedview3483"
     showgrid="false"
     inkscape:zoom="3.588117"
     inkscape:cx="15.303934"
     inkscape:cy="16.73266"
     inkscape:window-x="65"
     inkscape:window-y="24"
     inkscape:window-maximized="0"
     inkscape:current-layer="svg3441" />
  <defs
     id="defs3443">
    <marker
       id="ArrowEnd"
       viewBox="0 0 10 10"
       refX="0"
       refY="5"
       markerUnits="strokeWidth"
       markerWidth="4"
       markerHeight="3"
       orient="auto">
      <path
         d="M 0 0 L 10 5 L 0 10 z"
         id="path3446" />
    </marker>
    <marker
       id="ArrowStart"
       viewBox="0 0 10 10"
       refX="10"
       refY="5"
       markerUnits="strokeWidth"
       markerWidth="4"
       markerHeight="3"
       orient="auto">
      <path
         d="M 10 0 L 0 5 L 10 10 z"
         id="path3449" />
    </marker>
  </defs>
  <path
     id="path3051"
     style="fill:#00ccff;fill-opacity:1;fill-rule:evenodd;stroke:#000000;stroke-width:0.80000001;stroke-linejoin:miter;stroke-miterlimit:4;stroke-opacity:1"
     d="m 23.561,810.36891 c -1.795265,0 -3.418496,0.70568 -4.65,1.82504 l 0,10.24992 c 1.231504,1.11936 2.854735,1.8 4.65,1.8 1.798585,0 3.442718,-0.67696 4.675,-1.8 l 0,-10.24992 c -1.232282,-1.12304 -2.876415,-1.82504 -4.675,-1.82504 z m 13.75,16.91753 9,-2.0219 0.336,-1.0339 -6.093,-6.9254 6.092,-6.9254 -0.336,-1.0336 -9,-2.0216 0.858,-9.1834 -0.879,-0.639 -8.469,3.6543 -4.704,-7.9338 -1.087,0 -4.704,7.9346 -8.469,-3.6537 -0.879,0.6387 0.858,9.184 -8.999,2.0219 -0.336,1.034 6.093,6.925 -6.092,6.9256 0.336,1.0336 8.999,2.0217 -0.857,9.1834 0.879,0.639 8.469,-3.6543 4.704,7.9338 1.087,0 4.704,-7.9347 8.468,3.6538 0.88,-0.6387 -0.859,-9.184 z" />
</svg>
