<?xml version="1.0" encoding="UTF-8" standalone="no"?>
<!-- Created with sK1/UniConvertor (http://sk1project.org/) -->

<svg
   xmlns:dc="http://purl.org/dc/elements/1.1/"
   xmlns:cc="http://creativecommons.org/ns#"
   xmlns:rdf="http://www.w3.org/1999/02/22-rdf-syntax-ns#"
   xmlns:svg="http://www.w3.org/2000/svg"
   xmlns="http://www.w3.org/2000/svg"
   xmlns:sodipodi="http://sodipodi.sourceforge.net/DTD/sodipodi-0.dtd"
   xmlns:inkscape="http://www.inkscape.org/namespaces/inkscape"
   width="595.276pt"
   height="841.89pt"
   viewBox="0 0 595.276 841.89"
   fill-rule="evenodd"
   id="svg3629"
   version="1.1"
   inkscape:version="0.48.3.1 r9886"
   sodipodi:docname="part10.svg">
  <metadata
     id="metadata3691">
    <rdf:RDF>
      <cc:Work
         rdf:about="">
        <dc:format>image/svg+xml</dc:format>
        <dc:type
           rdf:resource="http://purl.org/dc/dcmitype/StillImage" />
        <dc:title />
      </cc:Work>
    </rdf:RDF>
  </metadata>
  <sodipodi:namedview
     pagecolor="#ffffff"
     bordercolor="#666666"
     borderopacity="1"
     objecttolerance="10"
     gridtolerance="10"
     guidetolerance="10"
     inkscape:pageopacity="0"
     inkscape:pageshadow="2"
     inkscape:window-width="653"
     inkscape:window-height="480"
     id="namedview3689"
     showgrid="false"
     inkscape:zoom="0.63429547"
     inkscape:cx="162.92717"
     inkscape:cy="943.73752"
     inkscape:window-x="65"
     inkscape:window-y="24"
     inkscape:window-maximized="0"
     inkscape:current-layer="svg3629" />
  <defs
     id="defs3631">
    <marker
       id="ArrowEnd"
       viewBox="0 0 10 10"
       refX="0"
       refY="5"
       markerUnits="strokeWidth"
       markerWidth="4"
       markerHeight="3"
       orient="auto">
      <path
         d="M 0 0 L 10 5 L 0 10 z"
         id="path3634" />
    </marker>
    <marker
       id="ArrowStart"
       viewBox="0 0 10 10"
       refX="10"
       refY="5"
       markerUnits="strokeWidth"
       markerWidth="4"
       markerHeight="3"
       orient="auto">
      <path
         d="M 10 0 L 0 5 L 10 10 z"
         id="path3637" />
    </marker>
  </defs>
  <path
     style="fill:#99ffff;stroke:#000000;stroke-width:1"
     d="m 74.119,770.31374 -2.543,-2.5427 1.249,-3.6481 -5.504,-3.9996 -3.084,2.3153 -3.204,-1.6323 0.061,-3.8556 -6.471,-2.1028 -2.218,3.1548 -3.551,-0.5624 -1.134,-3.6856 -6.804,0 -1.134,3.6856 -3.552,0.5624 -2.217,-3.1539 -6.471,2.1016 0.06,3.8559 -3.204,1.6323 -3.083,-2.3144 -5.505,3.9985 1.249,3.6483 -2.542,2.5427 -3.648,-1.2485 -4,5.5039 2.315,3.0839 -1.632,3.2038 -3.855,-0.0601 -2.104,6.4706 3.155,2.2175 -0.562,3.5514 -3.685,1.1341 -0.001,6.8039 3.686,1.1341 0.562,3.5514 -3.154,2.2172 2.102,6.4712 3.856,-0.0604 1.632,3.2038 -2.314,3.0834 3.998,5.505 3.649,-1.2491 2.542,2.5427 -1.248,3.6478 5.504,3.9997 3.083,-2.3151 3.204,1.6321 -0.06,3.855 6.471,2.104 2.217,-3.155 3.552,0.562 1.134,3.685 6.804,10e-4 1.134,-3.686 3.551,-0.562 2.217,3.154 6.472,-2.102 -0.061,-3.856 3.204,-1.6321 3.083,2.3151 5.505,-3.9992 -1.249,-3.6483 2.543,-2.5427 3.648,1.2488 4,-5.5042 -2.316,-3.0839 1.633,-3.2038 3.855,0.0604 2.103003,-6.4709 -3.155003,-2.2175 0.563,-3.5514 3.685003,-1.1341 0.001,-6.8039 -3.686003,-1.1341 -0.563,-3.5514 3.155003,-2.2172 -2.102003,-6.4712 -3.856,0.0604 -1.633,-3.2038 2.315,-3.0837 -3.999,-5.5047 -3.648,1.2491 z m -29.801,6.694 8.905,5.141 8.905,5.1413 0,10.2826 0,10.2825 -8.905,5.1412 -8.905,5.141 -8.905,-5.141 -8.905,-5.1412 0,-10.2825 0,-10.2826 8.905,-5.1413 8.905,-5.141 z"
     id="path3685"
     inkscape:connector-curvature="0" />
  <g
     id="g3687"
     style="stroke:#000000" />
</svg>
