G75*
G70*
%OFA0B0*%
%FSLAX24Y24*%
%IPPOS*%
%LPD*%
%AMOC8*
5,1,8,0,0,1.08239X$1,22.5*
%
%ADD10C,0.0000*%
D10*
X001260Y000847D02*
X041317Y000847D01*
X041317Y024655D01*
X001260Y024655D01*
X001260Y000847D01*
X006130Y004659D02*
X006132Y004709D01*
X006138Y004759D01*
X006148Y004808D01*
X006162Y004856D01*
X006179Y004903D01*
X006200Y004948D01*
X006225Y004992D01*
X006253Y005033D01*
X006285Y005072D01*
X006319Y005109D01*
X006356Y005143D01*
X006396Y005173D01*
X006438Y005200D01*
X006482Y005224D01*
X006528Y005245D01*
X006575Y005261D01*
X006623Y005274D01*
X006673Y005283D01*
X006722Y005288D01*
X006773Y005289D01*
X006823Y005286D01*
X006872Y005279D01*
X006921Y005268D01*
X006969Y005253D01*
X007015Y005235D01*
X007060Y005213D01*
X007103Y005187D01*
X007144Y005158D01*
X007183Y005126D01*
X007219Y005091D01*
X007251Y005053D01*
X007281Y005013D01*
X007308Y004970D01*
X007331Y004926D01*
X007350Y004880D01*
X007366Y004832D01*
X007378Y004783D01*
X007386Y004734D01*
X007390Y004684D01*
X007390Y004634D01*
X007386Y004584D01*
X007378Y004535D01*
X007366Y004486D01*
X007350Y004438D01*
X007331Y004392D01*
X007308Y004348D01*
X007281Y004305D01*
X007251Y004265D01*
X007219Y004227D01*
X007183Y004192D01*
X007144Y004160D01*
X007103Y004131D01*
X007060Y004105D01*
X007015Y004083D01*
X006969Y004065D01*
X006921Y004050D01*
X006872Y004039D01*
X006823Y004032D01*
X006773Y004029D01*
X006722Y004030D01*
X006673Y004035D01*
X006623Y004044D01*
X006575Y004057D01*
X006528Y004073D01*
X006482Y004094D01*
X006438Y004118D01*
X006396Y004145D01*
X006356Y004175D01*
X006319Y004209D01*
X006285Y004246D01*
X006253Y004285D01*
X006225Y004326D01*
X006200Y004370D01*
X006179Y004415D01*
X006162Y004462D01*
X006148Y004510D01*
X006138Y004559D01*
X006132Y004609D01*
X006130Y004659D01*
X006630Y023659D02*
X006632Y023709D01*
X006638Y023759D01*
X006648Y023808D01*
X006662Y023856D01*
X006679Y023903D01*
X006700Y023948D01*
X006725Y023992D01*
X006753Y024033D01*
X006785Y024072D01*
X006819Y024109D01*
X006856Y024143D01*
X006896Y024173D01*
X006938Y024200D01*
X006982Y024224D01*
X007028Y024245D01*
X007075Y024261D01*
X007123Y024274D01*
X007173Y024283D01*
X007222Y024288D01*
X007273Y024289D01*
X007323Y024286D01*
X007372Y024279D01*
X007421Y024268D01*
X007469Y024253D01*
X007515Y024235D01*
X007560Y024213D01*
X007603Y024187D01*
X007644Y024158D01*
X007683Y024126D01*
X007719Y024091D01*
X007751Y024053D01*
X007781Y024013D01*
X007808Y023970D01*
X007831Y023926D01*
X007850Y023880D01*
X007866Y023832D01*
X007878Y023783D01*
X007886Y023734D01*
X007890Y023684D01*
X007890Y023634D01*
X007886Y023584D01*
X007878Y023535D01*
X007866Y023486D01*
X007850Y023438D01*
X007831Y023392D01*
X007808Y023348D01*
X007781Y023305D01*
X007751Y023265D01*
X007719Y023227D01*
X007683Y023192D01*
X007644Y023160D01*
X007603Y023131D01*
X007560Y023105D01*
X007515Y023083D01*
X007469Y023065D01*
X007421Y023050D01*
X007372Y023039D01*
X007323Y023032D01*
X007273Y023029D01*
X007222Y023030D01*
X007173Y023035D01*
X007123Y023044D01*
X007075Y023057D01*
X007028Y023073D01*
X006982Y023094D01*
X006938Y023118D01*
X006896Y023145D01*
X006856Y023175D01*
X006819Y023209D01*
X006785Y023246D01*
X006753Y023285D01*
X006725Y023326D01*
X006700Y023370D01*
X006679Y023415D01*
X006662Y023462D01*
X006648Y023510D01*
X006638Y023559D01*
X006632Y023609D01*
X006630Y023659D01*
X038630Y004659D02*
X038632Y004709D01*
X038638Y004759D01*
X038648Y004808D01*
X038662Y004856D01*
X038679Y004903D01*
X038700Y004948D01*
X038725Y004992D01*
X038753Y005033D01*
X038785Y005072D01*
X038819Y005109D01*
X038856Y005143D01*
X038896Y005173D01*
X038938Y005200D01*
X038982Y005224D01*
X039028Y005245D01*
X039075Y005261D01*
X039123Y005274D01*
X039173Y005283D01*
X039222Y005288D01*
X039273Y005289D01*
X039323Y005286D01*
X039372Y005279D01*
X039421Y005268D01*
X039469Y005253D01*
X039515Y005235D01*
X039560Y005213D01*
X039603Y005187D01*
X039644Y005158D01*
X039683Y005126D01*
X039719Y005091D01*
X039751Y005053D01*
X039781Y005013D01*
X039808Y004970D01*
X039831Y004926D01*
X039850Y004880D01*
X039866Y004832D01*
X039878Y004783D01*
X039886Y004734D01*
X039890Y004684D01*
X039890Y004634D01*
X039886Y004584D01*
X039878Y004535D01*
X039866Y004486D01*
X039850Y004438D01*
X039831Y004392D01*
X039808Y004348D01*
X039781Y004305D01*
X039751Y004265D01*
X039719Y004227D01*
X039683Y004192D01*
X039644Y004160D01*
X039603Y004131D01*
X039560Y004105D01*
X039515Y004083D01*
X039469Y004065D01*
X039421Y004050D01*
X039372Y004039D01*
X039323Y004032D01*
X039273Y004029D01*
X039222Y004030D01*
X039173Y004035D01*
X039123Y004044D01*
X039075Y004057D01*
X039028Y004073D01*
X038982Y004094D01*
X038938Y004118D01*
X038896Y004145D01*
X038856Y004175D01*
X038819Y004209D01*
X038785Y004246D01*
X038753Y004285D01*
X038725Y004326D01*
X038700Y004370D01*
X038679Y004415D01*
X038662Y004462D01*
X038648Y004510D01*
X038638Y004559D01*
X038632Y004609D01*
X038630Y004659D01*
M02*
