G75*
G70*
%OFA0B0*%
%FSLAX24Y24*%
%IPPOS*%
%LPD*%
%AMOC8*
5,1,8,0,0,1.08239X$1,22.5*
%
%ADD10C,0.0680*%
%ADD11C,0.0680*%
%ADD12C,0.0740*%
%ADD13C,0.0671*%
%ADD14C,0.1340*%
%ADD15C,0.0789*%
%ADD16OC8,0.0680*%
%ADD17OC8,0.0840*%
%ADD18C,0.0986*%
%ADD19C,0.0905*%
%ADD20C,0.0640*%
%ADD21OC8,0.0640*%
%ADD22C,0.0631*%
%ADD23R,0.0820X0.0820*%
%ADD24C,0.0820*%
%ADD25C,0.0965*%
D10*
X017947Y001409D03*
X018947Y001409D03*
X019947Y001409D03*
X020947Y001409D03*
X020947Y002409D03*
X019947Y002409D03*
X018947Y002409D03*
X017947Y002409D03*
X017947Y003409D03*
X018947Y003409D03*
X019947Y003409D03*
X020947Y003409D03*
X024010Y002722D03*
X025010Y002722D03*
X026010Y002722D03*
X027010Y002722D03*
X027010Y001722D03*
X026010Y001722D03*
X025010Y001722D03*
X024010Y001722D03*
X031760Y011659D03*
X032760Y011659D03*
X033760Y011659D03*
X034760Y011659D03*
X034760Y012659D03*
X033760Y012659D03*
X032760Y012659D03*
X031760Y012659D03*
X027760Y012659D03*
X026760Y012659D03*
X025760Y012659D03*
X024760Y012659D03*
X020760Y012659D03*
X019760Y012659D03*
X018760Y012659D03*
X017760Y012659D03*
X030510Y019847D03*
X031510Y019847D03*
X032510Y019847D03*
X033510Y019847D03*
X034510Y019847D03*
X035510Y019847D03*
X036510Y019847D03*
X036510Y020847D03*
X036510Y021847D03*
X035510Y021847D03*
X034510Y021847D03*
X033510Y021847D03*
X032510Y021847D03*
X031510Y021847D03*
X030510Y021847D03*
X030510Y020847D03*
X031510Y020847D03*
X032510Y020847D03*
X033510Y020847D03*
X034510Y020847D03*
X035510Y020847D03*
X036510Y022847D03*
X027510Y021659D03*
X026510Y021659D03*
X025510Y021659D03*
X024510Y021659D03*
X019510Y021659D03*
X018510Y021659D03*
X017510Y021659D03*
X016510Y021659D03*
D11*
X011510Y021459D02*
X011510Y020859D01*
X010510Y020859D02*
X010510Y021459D01*
X009510Y021459D02*
X009510Y020859D01*
X009510Y018709D02*
X009510Y018109D01*
X010510Y018109D02*
X010510Y018709D01*
X011510Y018709D02*
X011510Y018109D01*
X009810Y015284D02*
X009210Y015284D01*
X009210Y014284D02*
X009810Y014284D01*
X009810Y013284D02*
X009210Y013284D01*
D12*
X011260Y008159D03*
X011260Y004159D03*
X019170Y006710D03*
X023170Y006710D03*
D13*
X023260Y004659D03*
X024260Y004659D03*
X025260Y004659D03*
X026260Y004659D03*
X027260Y004659D03*
X028260Y004659D03*
X030260Y004659D03*
X031260Y004659D03*
X032260Y004659D03*
X033260Y004659D03*
X034260Y004659D03*
X035260Y004659D03*
X036260Y004659D03*
X037260Y004659D03*
X038260Y006659D03*
X039260Y006659D03*
X039260Y007659D03*
X038260Y007659D03*
X038260Y008659D03*
X039260Y008659D03*
X039260Y009659D03*
X038260Y009659D03*
X038260Y010659D03*
X039260Y010659D03*
X039260Y011659D03*
X038260Y011659D03*
X038260Y012659D03*
X039260Y012659D03*
X039260Y013659D03*
X038260Y013659D03*
X038260Y014659D03*
X039260Y014659D03*
X039260Y015659D03*
X038260Y015659D03*
X038260Y016659D03*
X039260Y016659D03*
X039260Y017659D03*
X038260Y017659D03*
X038260Y018659D03*
X039260Y018659D03*
X039260Y019659D03*
X038260Y019659D03*
X038260Y020659D03*
X039260Y020659D03*
X039260Y021659D03*
X038260Y021659D03*
X038260Y022659D03*
X039260Y022659D03*
X039260Y023659D03*
X038260Y023659D03*
X035260Y023659D03*
X034260Y023659D03*
X033260Y023659D03*
X032260Y023659D03*
X031260Y023659D03*
X030260Y023659D03*
X029260Y023659D03*
X028260Y023659D03*
X026260Y023659D03*
X025260Y023659D03*
X024260Y023659D03*
X023260Y023659D03*
X022260Y023659D03*
X021260Y023659D03*
X020260Y023659D03*
X019260Y023659D03*
X017660Y023659D03*
X016660Y023659D03*
X015660Y023659D03*
X014660Y023659D03*
X013660Y023659D03*
X012660Y023659D03*
X011660Y023659D03*
X010660Y023659D03*
X014260Y004659D03*
X015260Y004659D03*
X016260Y004659D03*
X017260Y004659D03*
X018260Y004659D03*
X019260Y004659D03*
X021260Y004659D03*
X022260Y004659D03*
D14*
X006760Y004659D03*
X007260Y023659D03*
X039260Y004659D03*
D15*
X006864Y011159D02*
X006156Y011159D01*
X006156Y013159D02*
X006864Y013159D01*
X006864Y015159D02*
X006156Y015159D01*
X006156Y017159D02*
X006864Y017159D01*
X006864Y019159D02*
X006156Y019159D01*
X006156Y021159D02*
X006864Y021159D01*
D16*
X017760Y018159D03*
X018760Y018159D03*
X019760Y018159D03*
X019760Y017159D03*
X018760Y017159D03*
X017760Y017159D03*
X025760Y017159D03*
X026760Y017159D03*
X027760Y017159D03*
X027760Y018159D03*
X026760Y018159D03*
X025760Y018159D03*
X025760Y009159D03*
X026760Y009159D03*
X027760Y009159D03*
X027760Y008159D03*
X026760Y008159D03*
X025760Y008159D03*
X019760Y008159D03*
X018760Y008159D03*
X017760Y008159D03*
X017760Y009159D03*
X018760Y009159D03*
X019760Y009159D03*
X016150Y002044D03*
X014370Y002044D03*
X033760Y008159D03*
X034760Y008159D03*
X035760Y008159D03*
X035760Y009159D03*
X034760Y009159D03*
X033760Y009159D03*
D17*
X012760Y003534D03*
X012760Y002524D03*
X012760Y001524D03*
D18*
X010072Y003706D02*
X010072Y004612D01*
X008697Y004799D02*
X008697Y003894D01*
X008697Y007894D02*
X008697Y008799D01*
X010072Y008612D02*
X010072Y007706D01*
D19*
X004547Y002847D02*
X003722Y002847D01*
X003722Y004847D02*
X004547Y004847D01*
X004547Y006847D02*
X003722Y006847D01*
X003722Y008847D02*
X004547Y008847D01*
D20*
X031760Y014659D03*
X032760Y014659D03*
X033760Y014659D03*
X034760Y014659D03*
X035760Y014659D03*
X036760Y014659D03*
D21*
X037322Y002722D03*
X038322Y002722D03*
X039322Y002722D03*
X040322Y002722D03*
X040322Y001722D03*
X039322Y001722D03*
X038322Y001722D03*
X037322Y001722D03*
X034260Y001722D03*
X033260Y001722D03*
X032260Y001722D03*
X031260Y001722D03*
X030260Y001722D03*
X030260Y002722D03*
X031260Y002722D03*
X032260Y002722D03*
X033260Y002722D03*
X034260Y002722D03*
D22*
X034760Y005659D03*
X033760Y005659D03*
X032760Y005659D03*
X031760Y005659D03*
X030760Y005659D03*
X029760Y005659D03*
X028760Y005659D03*
X027760Y005659D03*
X026760Y005659D03*
X025760Y005659D03*
X024760Y005659D03*
X023760Y005659D03*
X022760Y005659D03*
X021760Y005659D03*
X020760Y005659D03*
X019760Y005659D03*
X018760Y005659D03*
X017760Y005659D03*
X016760Y005659D03*
X015760Y005659D03*
X014760Y005659D03*
X013760Y005659D03*
X013760Y010659D03*
X014760Y010659D03*
X015760Y010659D03*
X016760Y010659D03*
X017760Y010659D03*
X018760Y010659D03*
X019760Y010659D03*
X020760Y010659D03*
X021760Y010659D03*
X022760Y010659D03*
X023760Y010659D03*
X024760Y010659D03*
X025760Y010659D03*
X026760Y010659D03*
X027760Y010659D03*
X028760Y010659D03*
X029760Y010659D03*
X030760Y010659D03*
X031760Y010659D03*
X032760Y010659D03*
X033760Y010659D03*
X034760Y010659D03*
X035760Y010659D03*
X036760Y010659D03*
X036760Y005659D03*
X035760Y005659D03*
X028760Y014659D03*
X027760Y014659D03*
X026760Y014659D03*
X025760Y014659D03*
X024760Y014659D03*
X023760Y014659D03*
X022760Y014659D03*
X021760Y014659D03*
X020510Y014659D03*
X019510Y014659D03*
X018510Y014659D03*
X017510Y014659D03*
X016510Y014659D03*
X015510Y014659D03*
X014510Y014659D03*
X013510Y014659D03*
X013510Y019659D03*
X014510Y019659D03*
X015510Y019659D03*
X016510Y019659D03*
X017510Y019659D03*
X018510Y019659D03*
X019510Y019659D03*
X020510Y019659D03*
X021760Y019659D03*
X022760Y019659D03*
X023760Y019659D03*
X024760Y019659D03*
X025760Y019659D03*
X026760Y019659D03*
X027760Y019659D03*
X028760Y019659D03*
D23*
X040260Y006659D03*
D24*
X040260Y007659D03*
X040260Y008659D03*
X040260Y009659D03*
X040260Y010659D03*
X040260Y011659D03*
X040260Y012659D03*
X040260Y013659D03*
X040260Y014659D03*
X040260Y015659D03*
X040260Y016659D03*
X040260Y017659D03*
X040260Y018659D03*
X040260Y019659D03*
X040260Y020659D03*
X040260Y021659D03*
X040260Y022659D03*
X040260Y023659D03*
X012510Y007909D03*
X012510Y006909D03*
D25*
X013880Y003024D03*
X016640Y003024D03*
M02*
