%
M48
M72
T01C0.0236
T02C0.0354
T03C0.0394
T04C0.0400
T05C0.0440
T06C0.0472
T07C0.0550
T08C0.0590
T09C0.1260
%
T01
X31760Y7909
X28100Y7409
X23760Y7909
X22010Y7909
X15010Y13409
X14010Y13409
X13010Y13409
X11010Y12409
X13260Y16409
X13510Y18909
X12760Y18909
X13260Y21159
X8510Y22409
X20135Y22659
X24135Y18409
X24760Y16909
X22135Y15659
X29260Y18659
X30135Y13534
T02
X28760Y14659
X27760Y14659
X26760Y14659
X25760Y14659
X24760Y14659
X23760Y14659
X22760Y14659
X21760Y14659
X20510Y14659
X19510Y14659
X18510Y14659
X17510Y14659
X16510Y14659
X15510Y14659
X14510Y14659
X13510Y14659
X13760Y10659
X14760Y10659
X15760Y10659
X16760Y10659
X17760Y10659
X18760Y10659
X19760Y10659
X20760Y10659
X21760Y10659
X22760Y10659
X23760Y10659
X24760Y10659
X25760Y10659
X26760Y10659
X27760Y10659
X28760Y10659
X29760Y10659
X30760Y10659
X31760Y10659
X32760Y10659
X33760Y10659
X34760Y10659
X35760Y10659
X36760Y10659
X36760Y14659
X35760Y14659
X34760Y14659
X33760Y14659
X32760Y14659
X31760Y14659
X28760Y19659
X27760Y19659
X26760Y19659
X25760Y19659
X24760Y19659
X23760Y19659
X22760Y19659
X21760Y19659
X20510Y19659
X19510Y19659
X18510Y19659
X17510Y19659
X16510Y19659
X15510Y19659
X14510Y19659
X13510Y19659
X13760Y5659
X14760Y5659
X15760Y5659
X16760Y5659
X17760Y5659
X18760Y5659
X19760Y5659
X20760Y5659
X21760Y5659
X22760Y5659
X23760Y5659
X24760Y5659
X25760Y5659
X26760Y5659
X27760Y5659
X28760Y5659
X29760Y5659
X30760Y5659
X31760Y5659
X32760Y5659
X33760Y5659
X34760Y5659
X35760Y5659
X36760Y5659
X38322Y2722
X39322Y2722
X40322Y2722
X40322Y1722
X39322Y1722
X38322Y1722
X37322Y1722
X37322Y2722
X34260Y2722
X33260Y2722
X32260Y2722
X31260Y2722
X30260Y2722
X30260Y1722
X31260Y1722
X32260Y1722
X33260Y1722
X34260Y1722
T03
X34260Y4659
X33260Y4659
X32260Y4659
X31260Y4659
X30260Y4659
X28260Y4659
X27260Y4659
X26260Y4659
X25260Y4659
X24260Y4659
X23260Y4659
X22260Y4659
X21260Y4659
X19260Y4659
X18260Y4659
X17260Y4659
X16260Y4659
X15260Y4659
X14260Y4659
X35260Y4659
X36260Y4659
X37260Y4659
X38260Y6659
X39260Y6659
X39260Y7659
X38260Y7659
X38260Y8659
X39260Y8659
X39260Y9659
X38260Y9659
X38260Y10659
X39260Y10659
X39260Y11659
X38260Y11659
X38260Y12659
X39260Y12659
X39260Y13659
X38260Y13659
X38260Y14659
X39260Y14659
X39260Y15659
X38260Y15659
X38260Y16659
X39260Y16659
X39260Y17659
X38260Y17659
X38260Y18659
X39260Y18659
X39260Y19659
X38260Y19659
X38260Y20659
X39260Y20659
X39260Y21659
X38260Y21659
X38260Y22659
X39260Y22659
X39260Y23659
X38260Y23659
X35260Y23659
X34260Y23659
X33260Y23659
X32260Y23659
X31260Y23659
X30260Y23659
X29260Y23659
X28260Y23659
X26260Y23659
X25260Y23659
X24260Y23659
X23260Y23659
X22260Y23659
X21260Y23659
X20260Y23659
X19260Y23659
X17660Y23659
X16660Y23659
X15660Y23659
X14660Y23659
X13660Y23659
X12660Y23659
X11660Y23659
X10660Y23659
T04
X10510Y21159
X11510Y21159
X9510Y21159
X9510Y18409
X10510Y18409
X11510Y18409
X9510Y15284
X9510Y14284
X9510Y13284
X17760Y12659
X18760Y12659
X19760Y12659
X20760Y12659
X24760Y12659
X25760Y12659
X26760Y12659
X27760Y12659
X31760Y12659
X32760Y12659
X33760Y12659
X34760Y12659
X34760Y11659
X33760Y11659
X32760Y11659
X31760Y11659
X33760Y9159
X34760Y9159
X35760Y9159
X35760Y8159
X34760Y8159
X33760Y8159
X40260Y6659
X40260Y7659
X40260Y8659
X40260Y9659
X40260Y10659
X40260Y11659
X40260Y12659
X40260Y13659
X40260Y14659
X40260Y15659
X40260Y16659
X40260Y17659
X40260Y18659
X40260Y19659
X40260Y20659
X40260Y21659
X40260Y22659
X40260Y23659
X36510Y22847
X36510Y21847
X35510Y21847
X34510Y21847
X33510Y21847
X32510Y21847
X31510Y21847
X30510Y21847
X30510Y20847
X31510Y20847
X32510Y20847
X33510Y20847
X34510Y20847
X35510Y20847
X36510Y20847
X36510Y19847
X35510Y19847
X34510Y19847
X33510Y19847
X32510Y19847
X31510Y19847
X30510Y19847
X27760Y18159
X26760Y18159
X26760Y17159
X27760Y17159
X25760Y17159
X25760Y18159
X19760Y18159
X19760Y17159
X18760Y17159
X17760Y17159
X17760Y18159
X18760Y18159
X18510Y21659
X19510Y21659
X17510Y21659
X16510Y21659
X24510Y21659
X25510Y21659
X26510Y21659
X27510Y21659
X27760Y9159
X26760Y9159
X25760Y9159
X25760Y8159
X26760Y8159
X27760Y8159
X19760Y8159
X18760Y8159
X17760Y8159
X17760Y9159
X18760Y9159
X19760Y9159
X12510Y7909
X12510Y6909
X12760Y3534
X12760Y2524
X12760Y1524
X14370Y2044
X16150Y2044
X17947Y2409
X17947Y3409
X18947Y3409
X19947Y3409
X20947Y3409
X20947Y2409
X19947Y2409
X18947Y2409
X18947Y1409
X19947Y1409
X20947Y1409
X17947Y1409
X24010Y1722
X25010Y1722
X26010Y1722
X27010Y1722
X27010Y2722
X26010Y2722
X25010Y2722
X24010Y2722
T05
X23170Y6710
X19170Y6710
X11260Y8159
X11260Y4159
T06
X10072Y4159
X8697Y4347
X10072Y8159
X8697Y8347
X6510Y11159
X6510Y13159
X6510Y15159
X6510Y17159
X6510Y19159
X6510Y21159
T07
X4135Y2847
X4135Y4847
X4135Y6847
X4135Y8847
T08
X16640Y3024
X13880Y3024
T09
X6760Y4659
X7260Y23659
X39260Y4659
M30
