solid OpenSCAD_Model
  facet normal 0 0 -1
    outer loop
      vertex -3.8 -6.58179 0
      vertex -4 -6.9282 0
      vertex -7.6 0 0
    endloop
  endfacet
  facet normal 0 0 -1
    outer loop
      vertex 3.8 6.58179 0
      vertex -4 6.9282 0
      vertex 4 6.9282 0
    endloop
  endfacet
  facet normal 0 0 -1
    outer loop
      vertex 7.6 0 0
      vertex 4 6.9282 0
      vertex 8 0 0
    endloop
  endfacet
  facet normal 0 0 -1
    outer loop
      vertex 3.8 -6.58179 0
      vertex 8 0 0
      vertex 4 -6.9282 0
    endloop
  endfacet
  facet normal 0 0 -1
    outer loop
      vertex -8 0 0
      vertex -4 6.9282 0
      vertex -7.6 0 0
    endloop
  endfacet
  facet normal 0 0 -1
    outer loop
      vertex -8 0 0
      vertex -7.6 0 0
      vertex -4 -6.9282 0
    endloop
  endfacet
  facet normal 0 0 -1
    outer loop
      vertex 3.8 -6.58179 0
      vertex -4 -6.9282 0
      vertex -3.8 -6.58179 0
    endloop
  endfacet
  facet normal 0 0 -1
    outer loop
      vertex 7.6 0 0
      vertex 8 0 0
      vertex 3.8 -6.58179 0
    endloop
  endfacet
  facet normal 0 0 -1
    outer loop
      vertex -4 -6.9282 0
      vertex 3.8 -6.58179 0
      vertex 4 -6.9282 0
    endloop
  endfacet
  facet normal 0 0 -1
    outer loop
      vertex 3.8 6.58179 0
      vertex 4 6.9282 0
      vertex 7.6 0 0
    endloop
  endfacet
  facet normal 0 0 -1
    outer loop
      vertex -3.8 6.58179 0
      vertex -4 6.9282 0
      vertex 3.8 6.58179 0
    endloop
  endfacet
  facet normal 0 0 -1
    outer loop
      vertex -7.6 0 0
      vertex -4 6.9282 0
      vertex -3.8 6.58179 0
    endloop
  endfacet
  facet normal -0.866025 0.5 0
    outer loop
      vertex -8 0 0
      vertex -8 0 7.5
      vertex -4 6.9282 0
    endloop
  endfacet
  facet normal -0.866025 0.5 0
    outer loop
      vertex -4 6.9282 0
      vertex -8 0 7.5
      vertex -4 6.9282 7.5
    endloop
  endfacet
  facet normal -0.866025 -0.5 0
    outer loop
      vertex -8 0 0
      vertex -4 -6.9282 0
      vertex -8 0 7.5
    endloop
  endfacet
  facet normal -0.866025 -0.5 0
    outer loop
      vertex -8 0 7.5
      vertex -4 -6.9282 0
      vertex -4 -6.9282 7.5
    endloop
  endfacet
  facet normal 0 -1 0
    outer loop
      vertex -4 -6.9282 7.5
      vertex -4 -6.9282 0
      vertex 4 -6.9282 0
    endloop
  endfacet
  facet normal 0 -1 0
    outer loop
      vertex 4 -6.9282 7.5
      vertex -4 -6.9282 7.5
      vertex 4 -6.9282 0
    endloop
  endfacet
  facet normal 0.866025 -0.5 0
    outer loop
      vertex 4 -6.9282 7.5
      vertex 4 -6.9282 0
      vertex 8 0 0
    endloop
  endfacet
  facet normal 0.866025 -0.5 0
    outer loop
      vertex 8 0 7.5
      vertex 4 -6.9282 7.5
      vertex 8 0 0
    endloop
  endfacet
  facet normal 0.866025 0.5 0
    outer loop
      vertex 8 0 0
      vertex 4 6.9282 0
      vertex 4 6.9282 7.5
    endloop
  endfacet
  facet normal 0.866025 0.5 0
    outer loop
      vertex 8 0 7.5
      vertex 8 0 0
      vertex 4 6.9282 7.5
    endloop
  endfacet
  facet normal 0 1 0
    outer loop
      vertex -4 6.9282 0
      vertex -4 6.9282 7.5
      vertex 4 6.9282 0
    endloop
  endfacet
  facet normal 0 1 0
    outer loop
      vertex 4 6.9282 0
      vertex -4 6.9282 7.5
      vertex 4 6.9282 7.5
    endloop
  endfacet
  facet normal 0.866025 0.5 0
    outer loop
      vertex -7.6 0 7.5
      vertex -3.8 -6.58179 7.5
      vertex -3.8 -6.58179 0
    endloop
  endfacet
  facet normal 0.866025 0.5 0
    outer loop
      vertex -7.6 0 0
      vertex -7.6 0 7.5
      vertex -3.8 -6.58179 0
    endloop
  endfacet
  facet normal 0.866025 -0.5 0
    outer loop
      vertex -3.8 6.58179 0
      vertex -3.8 6.58179 7.5
      vertex -7.6 0 7.5
    endloop
  endfacet
  facet normal 0.866025 -0.5 0
    outer loop
      vertex -7.6 0 0
      vertex -3.8 6.58179 0
      vertex -7.6 0 7.5
    endloop
  endfacet
  facet normal 0 -1 0
    outer loop
      vertex 3.8 6.58179 0
      vertex 3.8 6.58179 7.5
      vertex -3.8 6.58179 7.5
    endloop
  endfacet
  facet normal 0 -1 0
    outer loop
      vertex -3.8 6.58179 0
      vertex 3.8 6.58179 0
      vertex -3.8 6.58179 7.5
    endloop
  endfacet
  facet normal -0.866025 -0.5 0
    outer loop
      vertex 7.6 0 7.5
      vertex 3.8 6.58179 7.5
      vertex 7.6 0 0
    endloop
  endfacet
  facet normal -0.866025 -0.5 0
    outer loop
      vertex 7.6 0 0
      vertex 3.8 6.58179 7.5
      vertex 3.8 6.58179 0
    endloop
  endfacet
  facet normal -0.866025 0.5 0
    outer loop
      vertex 7.6 0 7.5
      vertex 7.6 0 0
      vertex 3.8 -6.58179 7.5
    endloop
  endfacet
  facet normal -0.866025 0.5 0
    outer loop
      vertex 3.8 -6.58179 7.5
      vertex 7.6 0 0
      vertex 3.8 -6.58179 0
    endloop
  endfacet
  facet normal 0 1 0
    outer loop
      vertex 3.8 -6.58179 7.5
      vertex 3.8 -6.58179 0
      vertex -3.8 -6.58179 7.5
    endloop
  endfacet
  facet normal 0 1 0
    outer loop
      vertex -3.8 -6.58179 7.5
      vertex 3.8 -6.58179 0
      vertex -3.8 -6.58179 0
    endloop
  endfacet
  facet normal 0 0 1
    outer loop
      vertex -7.6 0 7.5
      vertex -8 0 7.5
      vertex -4 -6.9282 7.5
    endloop
  endfacet
  facet normal 0 0 1
    outer loop
      vertex 7.6 0 7.5
      vertex 3.8 -6.58179 7.5
      vertex 4 -6.9282 7.5
    endloop
  endfacet
  facet normal 0 0 1
    outer loop
      vertex 4 -6.9282 7.5
      vertex -3.8 -6.58179 7.5
      vertex -4 -6.9282 7.5
    endloop
  endfacet
  facet normal 0 0 1
    outer loop
      vertex -4 6.9282 7.5
      vertex -8 0 7.5
      vertex -7.6 0 7.5
    endloop
  endfacet
  facet normal 0 0 1
    outer loop
      vertex 3.8 6.58179 7.5
      vertex 7.6 0 7.5
      vertex 8 0 7.5
    endloop
  endfacet
  facet normal 0 0 1
    outer loop
      vertex 4 6.9282 7.5
      vertex 3.8 6.58179 7.5
      vertex 8 0 7.5
    endloop
  endfacet
  facet normal 0 0 1
    outer loop
      vertex 4 6.9282 7.5
      vertex -4 6.9282 7.5
      vertex 3.8 6.58179 7.5
    endloop
  endfacet
  facet normal 0 0 1
    outer loop
      vertex 8 0 7.5
      vertex 7.6 0 7.5
      vertex 4 -6.9282 7.5
    endloop
  endfacet
  facet normal 0 0 1
    outer loop
      vertex 4 -6.9282 7.5
      vertex 3.8 -6.58179 7.5
      vertex -3.8 -6.58179 7.5
    endloop
  endfacet
  facet normal 0 0 1
    outer loop
      vertex -3.8 6.58179 7.5
      vertex 3.8 6.58179 7.5
      vertex -4 6.9282 7.5
    endloop
  endfacet
  facet normal 0 0 1
    outer loop
      vertex -3.8 -6.58179 7.5
      vertex -7.6 0 7.5
      vertex -4 -6.9282 7.5
    endloop
  endfacet
  facet normal 0 0 1
    outer loop
      vertex -7.6 0 7.5
      vertex -3.8 6.58179 7.5
      vertex -4 6.9282 7.5
    endloop
  endfacet
endsolid OpenSCAD_Model
