999
dxfrw 0.5.10
0
SECTION
2
HEADER
9
$ACADVER
1
AC1021
9
$HANDSEED
5
20000
9
$DWGCODEPAGE
3
ANSI_1252
9
$INSBASE
10
0
20
0
30
0
9
$EXTMIN
10
-249
20
-321.25
30
0
9
$EXTMAX
10
210.833333333
20
193.125
30
0
9
$LIMMIN
10
0
20
0
9
$LIMMAX
10
420
20
297
9
$ORTHOMODE
70
0
9
$LTSCALE
40
1
9
$TEXTSTYLE
7
STANDARD
9
$CLAYER
8
0
9
$DIMASZ
40
6
9
$DIMLFAC
40
1
9
$DIMSCALE
40
1
9
$DIMEXO
40
0.625
9
$DIMEXE
40
1.25
9
$DIMTXT
40
7
9
$DIMTSZ
40
0
9
$DIMAUNIT
70
0
9
$DIMADEC
70
2
9
$DIMLUNIT
70
2
9
$DIMSTYLE
2
Standard
9
$DIMGAP
40
2
9
$DIMTIH
70
0
9
$LUNITS
70
2
9
$LUPREC
70
4
9
$AUNITS
70
0
9
$AUPREC
70
2
9
$SPLINESEGS
70
8
9
$GRIDMODE
70
1
9
$SNAPSTYLE
70
0
9
$GRIDUNIT
10
0
20
0
9
$PINSBASE
10
0
20
0
30
0
9
$PLIMMIN
10
0
20
0
9
$PLIMMAX
10
12
20
9
9
$INSUNITS
70
0
9
$PSVPSCALE
40
1
0
ENDSEC
0
SECTION
2
CLASSES
0
ENDSEC
0
SECTION
2
TABLES
0
TABLE
2
VPORT
5
8
330
0
100
AcDbSymbolTable
70
1
0
VPORT
5
31
330
2
100
AcDbSymbolTableRecord
100
AcDbViewportTableRecord
2
*ACTIVE
70
0
10
0
20
0
11
1
21
1
12
256.34765625
22
120.544433594
13
0
23
0
14
10
24
10
15
10
25
10
16
0
26
0
36
1
17
0
27
0
37
0
40
613.403320313
41
1.76119402985
42
50
43
0
44
0
50
0
51
0
71
0
72
100
73
1
74
3
75
0
76
1
77
0
78
0
281
0
65
1
110
0
120
0
130
0
111
1
121
0
131
0
112
0
122
1
132
0
79
0
146
0
348
10020
60
7
61
5
292
1
282
1
141
0
142
0
63
250
421
3358443
0
ENDTAB
0
TABLE
2
LTYPE
5
5
330
0
100
AcDbSymbolTable
70
4
0
LTYPE
5
14
330
5
100
AcDbSymbolTableRecord
100
AcDbLinetypeTableRecord
2
ByBlock
70
0
3

72
65
73
0
40
0
0
LTYPE
5
15
330
5
100
AcDbSymbolTableRecord
100
AcDbLinetypeTableRecord
2
ByLayer
70
0
3

72
65
73
0
40
0
0
LTYPE
5
16
330
5
100
AcDbSymbolTableRecord
100
AcDbLinetypeTableRecord
2
Continuous
70
0
3
Solid line
72
65
73
0
40
0
0
LTYPE
5
32
330
5
100
AcDbSymbolTableRecord
100
AcDbLinetypeTableRecord
2
DOT
70
0
3
Dot . . . . . . . . . . . . . . . . . . . . . .
72
65
73
2
40
6.35
49
0
74
0
49
-6.35
74
0
0
LTYPE
5
33
330
5
100
AcDbSymbolTableRecord
100
AcDbLinetypeTableRecord
2
DOT2
70
0
3
Dot (.5x) .....................................
72
65
73
2
40
3.175
49
0
74
0
49
-3.175
74
0
0
LTYPE
5
34
330
5
100
AcDbSymbolTableRecord
100
AcDbLinetypeTableRecord
2
DOTX2
70
0
3
Dot (2x) .  .  .  .  .  .  .  .  .  .  .  .  .
72
65
73
2
40
12.7
49
0
74
0
49
-12.7
74
0
0
LTYPE
5
35
330
5
100
AcDbSymbolTableRecord
100
AcDbLinetypeTableRecord
2
DASHED
70
0
3
Dot . . . . . . . . . . . . . . . . . . . . . .
72
65
73
2
40
19.05
49
12.7
74
0
49
-6.35
74
0
0
LTYPE
5
36
330
5
100
AcDbSymbolTableRecord
100
AcDbLinetypeTableRecord
2
DASHED2
70
0
3
Dashed (.5x) _ _ _ _ _ _ _ _ _ _ _ _ _ _ _ _ _
72
65
73
2
40
9.525
49
6.35
74
0
49
-3.175
74
0
0
LTYPE
5
37
330
5
100
AcDbSymbolTableRecord
100
AcDbLinetypeTableRecord
2
DASHEDX2
70
0
3
Dashed (2x) ____  ____  ____  ____  ____  ___
72
65
73
2
40
38.1
49
25.4
74
0
49
-12.7
74
0
0
LTYPE
5
38
330
5
100
AcDbSymbolTableRecord
100
AcDbLinetypeTableRecord
2
DASHDOT
70
0
3
Dash dot __ . __ . __ . __ . __ . __ . __ . __
72
65
73
4
40
25.4
49
12.7
74
0
49
-6.35
74
0
49
0
74
0
49
-6.35
74
0
0
LTYPE
5
39
330
5
100
AcDbSymbolTableRecord
100
AcDbLinetypeTableRecord
2
DASHDOT2
70
0
3
Dash dot (.5x) _._._._._._._._._._._._._._._.
72
65
73
4
40
12.7
49
6.35
74
0
49
-3.175
74
0
49
0
74
0
49
-3.175
74
0
0
LTYPE
5
3A
330
5
100
AcDbSymbolTableRecord
100
AcDbLinetypeTableRecord
2
DASHDOTX2
70
0
3
Dash dot (2x) ____  .  ____  .  ____  .  ___
72
65
73
4
40
50.8
49
25.4
74
0
49
-12.7
74
0
49
0
74
0
49
-12.7
74
0
0
LTYPE
5
3B
330
5
100
AcDbSymbolTableRecord
100
AcDbLinetypeTableRecord
2
DIVIDE
70
0
3
Divide ____ . . ____ . . ____ . . ____ . . ____
72
65
73
6
40
31.75
49
12.7
74
0
49
-6.35
74
0
49
0
74
0
49
-6.35
74
0
49
0
74
0
49
-6.35
74
0
0
LTYPE
5
3C
330
5
100
AcDbSymbolTableRecord
100
AcDbLinetypeTableRecord
2
DIVIDE2
70
0
3
Divide (.5x) __..__..__..__..__..__..__..__.._
72
65
73
6
40
15.875
49
6.35
74
0
49
-3.175
74
0
49
0
74
0
49
-3.175
74
0
49
0
74
0
49
-3.175
74
0
0
LTYPE
5
3D
330
5
100
AcDbSymbolTableRecord
100
AcDbLinetypeTableRecord
2
DIVIDEX2
70
0
3
Divide (2x) ________  .  .  ________  .  .  _
72
65
73
6
40
63.5
49
25.4
74
0
49
-12.7
74
0
49
0
74
0
49
-12.7
74
0
49
0
74
0
49
-12.7
74
0
0
LTYPE
5
3E
330
5
100
AcDbSymbolTableRecord
100
AcDbLinetypeTableRecord
2
BORDER
70
0
3
Border __ __ . __ __ . __ __ . __ __ . __ __ .
72
65
73
6
40
44.45
49
12.7
74
0
49
-6.35
74
0
49
12.7
74
0
49
-6.35
74
0
49
0
74
0
49
-6.35
74
0
0
LTYPE
5
3F
330
5
100
AcDbSymbolTableRecord
100
AcDbLinetypeTableRecord
2
BORDER2
70
0
3
Border (.5x) __.__.__.__.__.__.__.__.__.__.__.
72
65
73
6
40
22.225
49
6.35
74
0
49
-3.175
74
0
49
6.35
74
0
49
-3.175
74
0
49
0
74
0
49
-3.175
74
0
0
LTYPE
5
40
330
5
100
AcDbSymbolTableRecord
100
AcDbLinetypeTableRecord
2
BORDERX2
70
0
3
Border (2x) ____  ____  .  ____  ____  .  ___
72
65
73
6
40
88.9
49
25.4
74
0
49
-12.7
74
0
49
25.4
74
0
49
-12.7
74
0
49
0
74
0
49
-12.7
74
0
0
LTYPE
5
41
330
5
100
AcDbSymbolTableRecord
100
AcDbLinetypeTableRecord
2
CENTER
70
0
3
Center ____ _ ____ _ ____ _ ____ _ ____ _ ____
72
65
73
4
40
50.8
49
31.75
74
0
49
-6.35
74
0
49
6.35
74
0
49
-6.35
74
0
0
LTYPE
5
42
330
5
100
AcDbSymbolTableRecord
100
AcDbLinetypeTableRecord
2
CENTER2
70
0
3
Center (.5x) ___ _ ___ _ ___ _ ___ _ ___ _ ___
72
65
73
4
40
28.575
49
19.05
74
0
49
-3.175
74
0
49
3.175
74
0
49
-3.175
74
0
0
LTYPE
5
43
330
5
100
AcDbSymbolTableRecord
100
AcDbLinetypeTableRecord
2
CENTERX2
70
0
3
Center (2x) ________  __  ________  __  _____
72
65
73
4
40
101.6
49
63.5
74
0
49
-12.7
74
0
49
12.7
74
0
49
-12.7
74
0
0
ENDTAB
0
TABLE
2
LAYER
5
2
330
0
100
AcDbSymbolTable
70
1
0
LAYER
5
10
330
2
100
AcDbSymbolTableRecord
100
AcDbLayerTableRecord
2
0
70
0
62
7
6
CONTINUOUS
370
70
390
F
0
LAYER
5
44
330
2
100
AcDbSymbolTableRecord
100
AcDbLayerTableRecord
2
dim
70
0
62
7
6
CONTINUOUS
370
0
390
F
0
LAYER
5
45
330
2
100
AcDbSymbolTableRecord
100
AcDbLayerTableRecord
2
base
70
0
62
7
6
DASHDOT
370
0
390
F
0
ENDTAB
0
TABLE
2
STYLE
5
3
330
0
100
AcDbSymbolTable
70
3
0
STYLE
5
46
330
2
100
AcDbSymbolTableRecord
100
AcDbTextStyleTableRecord
2
cyrillic_ii
70
0
40
0
41
1
50
0
71
0
42
1
3
cyrillic_ii
4

0
STYLE
5
47
330
2
100
AcDbSymbolTableRecord
100
AcDbTextStyleTableRecord
2
Standard
70
0
40
0
41
1
50
0
71
0
42
1
3
txt
4

0
ENDTAB
0
TABLE
2
VIEW
5
6
330
0
100
AcDbSymbolTable
70
0
0
ENDTAB
0
TABLE
2
UCS
5
7
330
0
100
AcDbSymbolTable
70
0
0
ENDTAB
0
TABLE
2
APPID
5
9
330
0
100
AcDbSymbolTable
70
1
0
APPID
5
12
330
9
100
AcDbSymbolTableRecord
100
AcDbRegAppTableRecord
2
ACAD
70
0
0
ENDTAB
0
TABLE
2
DIMSTYLE
5
A
330
0
100
AcDbSymbolTable
70
1
100
AcDbDimStyleTable
71
1
0
DIMSTYLE
105
48
330
A
100
AcDbSymbolTableRecord
100
AcDbDimStyleTableRecord
2
Standard
70
0
40
1
41
6
42
0.625
43
0.38
44
1.25
45
0
46
0
47
0
48
0
140
7
141
0.09
142
0
143
25.4
144
1
145
0
146
1
147
2
148
0
71
0
72
0
73
0
74
1
75
0
76
0
77
0
78
0
79
0
170
0
171
2
172
0
173
0
174
0
175
0
176
0
177
0
178
0
179
0
271
4
272
4
273
2
274
2
275
0
276
0
277
2
278
46
279
0
280
0
281
0
282
0
283
1
284
0
285
0
286
0
288
0
289
3
340
Standard
341

371
-2
372
-2
0
ENDTAB
0
TABLE
2
BLOCK_RECORD
5
1
330
0
100
AcDbSymbolTable
70
2
0
BLOCK_RECORD
5
1F
330
1
100
AcDbSymbolTableRecord
100
AcDbBlockTableRecord
2
*Model_Space
70
0
280
1
281
0
0
BLOCK_RECORD
5
1E
330
1
100
AcDbSymbolTableRecord
100
AcDbBlockTableRecord
2
*Paper_Space
70
0
280
1
281
0
0
BLOCK_RECORD
5
49
330
1
100
AcDbSymbolTableRecord
100
AcDbBlockTableRecord
2
*D1
70
0
280
1
281
0
0
BLOCK_RECORD
5
4C
330
1
100
AcDbSymbolTableRecord
100
AcDbBlockTableRecord
2
*D10
70
0
280
1
281
0
0
BLOCK_RECORD
5
4F
330
1
100
AcDbSymbolTableRecord
100
AcDbBlockTableRecord
2
*D18
70
0
280
1
281
0
0
BLOCK_RECORD
5
52
330
1
100
AcDbSymbolTableRecord
100
AcDbBlockTableRecord
2
*D20
70
0
280
1
281
0
0
BLOCK_RECORD
5
55
330
1
100
AcDbSymbolTableRecord
100
AcDbBlockTableRecord
2
*D12
70
0
280
1
281
0
0
BLOCK_RECORD
5
58
330
1
100
AcDbSymbolTableRecord
100
AcDbBlockTableRecord
2
*D8
70
0
280
1
281
0
0
BLOCK_RECORD
5
5B
330
1
100
AcDbSymbolTableRecord
100
AcDbBlockTableRecord
2
*D4
70
0
280
1
281
0
0
BLOCK_RECORD
5
5E
330
1
100
AcDbSymbolTableRecord
100
AcDbBlockTableRecord
2
*D9
70
0
280
1
281
0
0
BLOCK_RECORD
5
61
330
1
100
AcDbSymbolTableRecord
100
AcDbBlockTableRecord
2
*D7
70
0
280
1
281
0
0
BLOCK_RECORD
5
64
330
1
100
AcDbSymbolTableRecord
100
AcDbBlockTableRecord
2
*D16
70
0
280
1
281
0
0
BLOCK_RECORD
5
67
330
1
100
AcDbSymbolTableRecord
100
AcDbBlockTableRecord
2
*D15
70
0
280
1
281
0
0
BLOCK_RECORD
5
6A
330
1
100
AcDbSymbolTableRecord
100
AcDbBlockTableRecord
2
*D22
70
0
280
1
281
0
0
BLOCK_RECORD
5
6D
330
1
100
AcDbSymbolTableRecord
100
AcDbBlockTableRecord
2
*D5
70
0
280
1
281
0
0
BLOCK_RECORD
5
70
330
1
100
AcDbSymbolTableRecord
100
AcDbBlockTableRecord
2
*D2
70
0
280
1
281
0
0
BLOCK_RECORD
5
73
330
1
100
AcDbSymbolTableRecord
100
AcDbBlockTableRecord
2
*D23
70
0
280
1
281
0
0
BLOCK_RECORD
5
76
330
1
100
AcDbSymbolTableRecord
100
AcDbBlockTableRecord
2
*D11
70
0
280
1
281
0
0
BLOCK_RECORD
5
79
330
1
100
AcDbSymbolTableRecord
100
AcDbBlockTableRecord
2
*D17
70
0
280
1
281
0
0
BLOCK_RECORD
5
7C
330
1
100
AcDbSymbolTableRecord
100
AcDbBlockTableRecord
2
*D24
70
0
280
1
281
0
0
BLOCK_RECORD
5
7F
330
1
100
AcDbSymbolTableRecord
100
AcDbBlockTableRecord
2
*D3
70
0
280
1
281
0
0
BLOCK_RECORD
5
82
330
1
100
AcDbSymbolTableRecord
100
AcDbBlockTableRecord
2
*D13
70
0
280
1
281
0
0
BLOCK_RECORD
5
85
330
1
100
AcDbSymbolTableRecord
100
AcDbBlockTableRecord
2
*D19
70
0
280
1
281
0
0
BLOCK_RECORD
5
88
330
1
100
AcDbSymbolTableRecord
100
AcDbBlockTableRecord
2
*D21
70
0
280
1
281
0
0
BLOCK_RECORD
5
8B
330
1
100
AcDbSymbolTableRecord
100
AcDbBlockTableRecord
2
*D6
70
0
280
1
281
0
0
BLOCK_RECORD
5
8E
330
1
100
AcDbSymbolTableRecord
100
AcDbBlockTableRecord
2
*D14
70
0
280
1
281
0
0
BLOCK_RECORD
5
91
330
1
100
AcDbSymbolTableRecord
100
AcDbBlockTableRecord
2
PAD002054028_PROJ
70
0
280
1
281
0
0
ENDTAB
0
ENDSEC
0
SECTION
2
BLOCKS
0
BLOCK
5
20
330
1F
100
AcDbEntity
8
0
100
AcDbBlockBegin
2
*Model_Space
70
0
10
0
20
0
30
0
3
*Model_Space
1

0
ENDBLK
5
21
330
1F
100
AcDbEntity
8
0
100
AcDbBlockEnd
0
BLOCK
5
1C
330
1B
100
AcDbEntity
8
0
100
AcDbBlockBegin
2
*Paper_Space
70
0
10
0
20
0
30
0
3
*Paper_Space
1

0
ENDBLK
5
1D
330
1F
100
AcDbEntity
8
0
100
AcDbBlockEnd
0
BLOCK
5
4A
330
49
100
AcDbEntity
8
0
100
AcDbBlockBegin
2
*D1
70
1
10
0
20
0
3
*D1
1

0
LINE
5
94
100
AcDbEntity
8
dim
6
CONTINUOUS
62
7
370
0
100
AcDbLine
10
-38
20
190
11
38
21
190
0
SOLID
5
95
100
AcDbEntity
8
dim
6
CONTINUOUS
62
7
370
0
100
AcDbTrace
10
-38
20
190
30
0
11
-32
21
190.999083179
31
0
12
-32
22
189.000916821
32
0
13
-32
23
189.000916821
33
0
0
SOLID
5
96
100
AcDbEntity
8
dim
6
CONTINUOUS
62
7
370
0
100
AcDbTrace
10
38
20
190
30
0
11
32
21
189.000916821
31
0
12
32
22
190.999083179
32
0
13
32
23
190.999083179
33
0
0
MTEXT
5
97
100
AcDbEntity
8
dim
6
CONTINUOUS
62
7
370
0
100
AcDbMText
10
7.44220522737e-15
20
195.5
30
0
40
7
41
8.55555555556
71
5
72
1
1
76
7
standard
210
0
220
0
230
1
50
0
73
2
44
1
0
LINE
5
98
100
AcDbEntity
8
dim
6
CONTINUOUS
62
7
370
0
100
AcDbLine
10
-38
20
146.625
11
-38
21
191.25
0
LINE
5
99
100
AcDbEntity
8
dim
6
CONTINUOUS
62
7
370
0
100
AcDbLine
10
38
20
146.625
11
38
21
191.25
0
ENDBLK
5
4B
330
49
100
AcDbEntity
8
0
100
AcDbBlockEnd
0
BLOCK
5
4D
330
4C
100
AcDbEntity
8
0
100
AcDbBlockBegin
2
*D10
70
1
10
0
20
0
3
*D10
1

0
LINE
5
9A
100
AcDbEntity
8
dim
6
CONTINUOUS
62
7
370
0
100
AcDbLine
10
-50
20
160
11
-18
21
160
0
SOLID
5
9B
100
AcDbEntity
8
dim
6
CONTINUOUS
62
7
370
0
100
AcDbTrace
10
-38
20
160
30
0
11
-44
21
159.000916821
31
0
12
-44
22
160.999083179
32
0
13
-44
23
160.999083179
33
0
0
SOLID
5
9C
100
AcDbEntity
8
dim
6
CONTINUOUS
62
7
370
0
100
AcDbTrace
10
-30
20
160
30
0
11
-24
21
160.999083179
31
0
12
-24
22
159.000916821
32
0
13
-24
23
159.000916821
33
0
0
MTEXT
5
9D
100
AcDbEntity
8
dim
6
CONTINUOUS
62
7
370
0
100
AcDbMText
10
-34
20
165.5
30
0
40
7
41
3.11111111111
71
5
72
1
1
8
7
standard
210
0
220
0
230
1
50
0
73
2
44
1
0
LINE
5
9E
100
AcDbEntity
8
dim
6
CONTINUOUS
62
7
370
0
100
AcDbLine
10
-38
20
146.625
11
-38
21
161.25
0
LINE
5
9F
100
AcDbEntity
8
dim
6
CONTINUOUS
62
7
370
0
100
AcDbLine
10
-30
20
130.625
11
-30
21
161.25
0
ENDBLK
5
4E
330
4C
100
AcDbEntity
8
0
100
AcDbBlockEnd
0
BLOCK
5
50
330
4F
100
AcDbEntity
8
0
100
AcDbBlockBegin
2
*D18
70
1
10
0
20
0
3
*D18
1

0
LINE
5
A0
100
AcDbEntity
8
dim
6
CONTINUOUS
62
7
370
0
100
AcDbLine
10
145
20
-190
11
-145
21
-190
0
SOLID
5
A1
100
AcDbEntity
8
dim
6
CONTINUOUS
62
7
370
0
100
AcDbTrace
10
145
20
-190
30
0
11
139
21
-190.999083179
31
0
12
139
22
-189.000916821
32
0
13
139
23
-189.000916821
33
0
0
SOLID
5
A2
100
AcDbEntity
8
dim
6
CONTINUOUS
62
7
370
0
100
AcDbTrace
10
-145
20
-190
30
0
11
-139
21
-189.000916821
31
0
12
-139
22
-190.999083179
32
0
13
-139
23
-190.999083179
33
0
0
MTEXT
5
A3
100
AcDbEntity
8
dim
6
CONTINUOUS
62
7
370
0
100
AcDbMText
10
3.36777869766e-16
20
-184.5
30
0
40
7
41
14
71
5
72
1
1
290
7
standard
210
0
220
0
230
1
50
360
73
2
44
1
0
LINE
5
A4
100
AcDbEntity
8
dim
6
CONTINUOUS
62
7
370
0
100
AcDbLine
10
145
20
-174.625
11
145
21
-191.25
0
LINE
5
A5
100
AcDbEntity
8
dim
6
CONTINUOUS
62
7
370
0
100
AcDbLine
10
-145
20
-174.625
11
-145
21
-191.25
0
ENDBLK
5
51
330
4F
100
AcDbEntity
8
0
100
AcDbBlockEnd
0
BLOCK
5
53
330
52
100
AcDbEntity
8
0
100
AcDbBlockBegin
2
*D20
70
1
10
0
20
0
3
*D20
1

0
LINE
5
A6
100
AcDbEntity
8
dim
6
CONTINUOUS
62
7
370
0
100
AcDbLine
10
-199.658075373
20
-60
11
-164.564064605
21
-60
0
SOLID
5
A7
100
AcDbEntity
8
dim
6
CONTINUOUS
62
7
370
0
100
AcDbTrace
10
-199.658075373
20
-60
30
0
11
-193.658075373
21
-59.0009168213
31
0
12
-193.658075373
22
-60.9990831787
32
0
13
-193.658075373
23
-60.9990831787
33
0
0
SOLID
5
A8
100
AcDbEntity
8
dim
6
CONTINUOUS
62
7
370
0
100
AcDbTrace
10
-164.564064605
20
-60
30
0
11
-170.564064605
21
-60.9990831787
31
0
12
-170.564064605
22
-59.0009168213
32
0
13
-170.564064605
23
-59.0009168213
33
0
0
MTEXT
5
A9
100
AcDbEntity
8
dim
6
CONTINUOUS
62
7
370
0
100
AcDbMText
10
-182.111069989
20
-54.5
30
0
40
7
41
28
71
5
72
1
1
35.094
7
standard
210
0
220
0
230
1
50
0
73
2
44
1
0
LINE
5
AA
100
AcDbEntity
8
dim
6
CONTINUOUS
62
7
370
0
100
AcDbLine
10
-199.658075373
20
-133.375
11
-199.658075373
21
-58.75
0
LINE
5
AB
100
AcDbEntity
8
dim
6
CONTINUOUS
62
7
370
0
100
AcDbLine
10
-164.564064605
20
-133.375
11
-164.564064605
21
-58.75
0
ENDBLK
5
54
330
52
100
AcDbEntity
8
0
100
AcDbBlockEnd
0
BLOCK
5
56
330
55
100
AcDbEntity
8
0
100
AcDbBlockBegin
2
*D12
70
1
10
0
20
0
3
*D12
1

0
LINE
5
AC
100
AcDbEntity
8
dim
6
CONTINUOUS
62
7
370
0
100
AcDbLine
10
-165
20
-170
11
-181
21
-170
0
SOLID
5
AD
100
AcDbEntity
8
dim
6
CONTINUOUS
62
7
370
0
100
AcDbTrace
10
-165
20
-170
30
0
11
-171
21
-170.999083179
31
0
12
-171
22
-169.000916821
32
0
13
-171
23
-169.000916821
33
0
0
SOLID
5
AE
100
AcDbEntity
8
dim
6
CONTINUOUS
62
7
370
0
100
AcDbTrace
10
-181
20
-170
30
0
11
-175
21
-169.000916821
31
0
12
-175
22
-170.999083179
32
0
13
-175
23
-170.999083179
33
0
0
MTEXT
5
AF
100
AcDbEntity
8
dim
6
CONTINUOUS
62
7
370
0
100
AcDbMText
10
-173
20
-164.5
30
0
40
7
41
7
71
5
72
1
1
16
7
standard
210
0
220
0
230
1
50
360
73
2
44
1
0
LINE
5
B0
100
AcDbEntity
8
dim
6
CONTINUOUS
62
7
370
0
100
AcDbLine
10
-165
20
-209.375
11
-165
21
-168.75
0
LINE
5
B1
100
AcDbEntity
8
dim
6
CONTINUOUS
62
7
370
0
100
AcDbLine
10
-181
20
-184.375
11
-181
21
-168.75
0
ENDBLK
5
57
330
55
100
AcDbEntity
8
0
100
AcDbBlockEnd
0
BLOCK
5
59
330
58
100
AcDbEntity
8
0
100
AcDbBlockBegin
2
*D8
70
1
10
0
20
0
3
*D8
1

0
LINE
5
B2
100
AcDbEntity
8
dim
6
CONTINUOUS
62
7
370
0
100
AcDbLine
10
-70
20
146
11
-70
21
130
0
SOLID
5
B3
100
AcDbEntity
8
dim
6
CONTINUOUS
62
7
370
0
100
AcDbTrace
10
-70
20
146
30
0
11
-69.0009168213
21
140
31
0
12
-70.9990831787
22
140
32
0
13
-70.9990831787
23
140
33
0
0
SOLID
5
B4
100
AcDbEntity
8
dim
6
CONTINUOUS
62
7
370
0
100
AcDbTrace
10
-70
20
130
30
0
11
-70.9990831787
21
136
31
0
12
-69.0009168213
22
136
32
0
13
-69.0009168213
23
136
33
0
0
MTEXT
5
B5
100
AcDbEntity
8
dim
6
CONTINUOUS
62
7
370
0
100
AcDbMText
10
-75.5
20
138
30
0
40
7
41
7
71
5
72
1
1
16
7
standard
210
0
220
0
230
1
50
90
73
2
44
1
0
LINE
5
B6
100
AcDbEntity
8
dim
6
CONTINUOUS
62
7
370
0
100
AcDbLine
10
-38.625
20
146
11
-71.25
21
146
0
LINE
5
B7
100
AcDbEntity
8
dim
6
CONTINUOUS
62
7
370
0
100
AcDbLine
10
-30.625
20
130
11
-71.25
21
130
0
ENDBLK
5
5A
330
58
100
AcDbEntity
8
0
100
AcDbBlockEnd
0
BLOCK
5
5C
330
5B
100
AcDbEntity
8
0
100
AcDbBlockBegin
2
*D4
70
1
10
0
20
0
3
*D4
1

0
LINE
5
B8
100
AcDbEntity
8
dim
6
CONTINUOUS
62
7
370
0
100
AcDbLine
10
-240
20
-200
11
-240
21
-272
0
SOLID
5
B9
100
AcDbEntity
8
dim
6
CONTINUOUS
62
7
370
0
100
AcDbTrace
10
-240
20
-200
30
0
11
-239.000916821
21
-206
31
0
12
-240.999083179
22
-206
32
0
13
-240.999083179
23
-206
33
0
0
SOLID
5
BA
100
AcDbEntity
8
dim
6
CONTINUOUS
62
7
370
0
100
AcDbTrace
10
-240
20
-272
30
0
11
-240.999083179
21
-266
31
0
12
-239.000916821
22
-266
32
0
13
-239.000916821
23
-266
33
0
0
MTEXT
5
BB
100
AcDbEntity
8
dim
6
CONTINUOUS
62
7
370
0
100
AcDbMText
10
-245.5
20
-236
30
0
40
7
41
8.55555555556
71
5
72
1
1
72
7
standard
210
0
220
0
230
1
50
90
73
2
44
1
0
LINE
5
BC
100
AcDbEntity
8
dim
6
CONTINUOUS
62
7
370
0
100
AcDbLine
10
-200.625
20
-200
11
-241.25
21
-200
0
LINE
5
BD
100
AcDbEntity
8
dim
6
CONTINUOUS
62
7
370
0
100
AcDbLine
10
-175.625
20
-272
11
-241.25
21
-272
0
ENDBLK
5
5D
330
5B
100
AcDbEntity
8
0
100
AcDbBlockEnd
0
BLOCK
5
5F
330
5E
100
AcDbEntity
8
0
100
AcDbBlockBegin
2
*D9
70
1
10
0
20
0
3
*D9
1

0
LINE
5
BE
100
AcDbEntity
8
dim
6
CONTINUOUS
62
7
370
0
100
AcDbLine
10
-110
20
-134
11
-110
21
-174
0
SOLID
5
BF
100
AcDbEntity
8
dim
6
CONTINUOUS
62
7
370
0
100
AcDbTrace
10
-110
20
-134
30
0
11
-109.000916821
21
-140
31
0
12
-110.999083179
22
-140
32
0
13
-110.999083179
23
-140
33
0
0
SOLID
5
C0
100
AcDbEntity
8
dim
6
CONTINUOUS
62
7
370
0
100
AcDbTrace
10
-110
20
-174
30
0
11
-110.999083179
21
-168
31
0
12
-109.000916821
22
-168
32
0
13
-109.000916821
23
-168
33
0
0
MTEXT
5
C1
100
AcDbEntity
8
dim
6
CONTINUOUS
62
7
370
0
100
AcDbMText
10
-115.5
20
-154
30
0
40
7
41
9.33333333333
71
5
72
1
1
40
7
standard
210
0
220
0
230
1
50
90
73
2
44
1
0
LINE
5
C2
100
AcDbEntity
8
dim
6
CONTINUOUS
62
7
370
0
100
AcDbLine
10
-163.939064605
20
-134
11
-108.75
21
-134
0
LINE
5
C3
100
AcDbEntity
8
dim
6
CONTINUOUS
62
7
370
0
100
AcDbLine
10
-144.375
20
-174
11
-108.75
21
-174
0
ENDBLK
5
60
330
5E
100
AcDbEntity
8
0
100
AcDbBlockEnd
0
BLOCK
5
62
330
61
100
AcDbEntity
8
0
100
AcDbBlockBegin
2
*D7
70
1
10
0
20
0
3
*D7
1

0
LINE
5
C4
100
AcDbEntity
8
dim
6
CONTINUOUS
62
7
370
0
100
AcDbLine
10
-150
20
-210
11
-150
21
-185
0
SOLID
5
C5
100
AcDbEntity
8
dim
6
CONTINUOUS
62
7
370
0
100
AcDbTrace
10
-150
20
-210
30
0
11
-150.999083179
21
-204
31
0
12
-149.000916821
22
-204
32
0
13
-149.000916821
23
-204
33
0
0
SOLID
5
C6
100
AcDbEntity
8
dim
6
CONTINUOUS
62
7
370
0
100
AcDbTrace
10
-150
20
-185
30
0
11
-149.000916821
21
-191
31
0
12
-150.999083179
22
-191
32
0
13
-150.999083179
23
-191
33
0
0
MTEXT
5
C7
100
AcDbEntity
8
dim
6
CONTINUOUS
62
7
370
0
100
AcDbMText
10
-155.5
20
-197.5
30
0
40
7
41
8.55555555556
71
5
72
1
1
25
7
standard
210
0
220
0
230
1
50
90
73
2
44
1
0
LINE
5
C8
100
AcDbEntity
8
dim
6
CONTINUOUS
62
7
370
0
100
AcDbLine
10
-164.375
20
-210
11
-148.75
21
-210
0
LINE
5
C9
100
AcDbEntity
8
dim
6
CONTINUOUS
62
7
370
0
100
AcDbLine
10
-180.375
20
-185
11
-148.75
21
-185
0
ENDBLK
5
63
330
61
100
AcDbEntity
8
0
100
AcDbBlockEnd
0
BLOCK
5
65
330
64
100
AcDbEntity
8
0
100
AcDbBlockBegin
2
*D16
70
1
10
0
20
0
3
*D16
1

0
LINE
5
CA
100
AcDbEntity
8
dim
6
CONTINUOUS
62
7
370
0
100
AcDbLine
10
-20
20
106
11
-20
21
-174
0
SOLID
5
CB
100
AcDbEntity
8
dim
6
CONTINUOUS
62
7
370
0
100
AcDbTrace
10
-20
20
106
30
0
11
-19.0009168213
21
100
31
0
12
-20.9990831787
22
100
32
0
13
-20.9990831787
23
100
33
0
0
SOLID
5
CC
100
AcDbEntity
8
dim
6
CONTINUOUS
62
7
370
0
100
AcDbTrace
10
-20
20
-174
30
0
11
-20.9990831787
21
-168
31
0
12
-19.0009168213
22
-168
32
0
13
-19.0009168213
23
-168
33
0
0
MTEXT
5
CD
100
AcDbEntity
8
dim
6
CONTINUOUS
62
7
370
0
100
AcDbMText
10
-25.5
20
-34
30
0
40
7
41
14
71
5
72
1
1
280
7
standard
210
0
220
0
230
1
50
90
73
2
44
1
0
LINE
5
CE
100
AcDbEntity
8
dim
6
CONTINUOUS
62
7
370
0
100
AcDbLine
10
-25.375
20
106
11
-18.75
21
106
0
LINE
5
CF
100
AcDbEntity
8
dim
6
CONTINUOUS
62
7
370
0
100
AcDbLine
10
-144.375
20
-174
11
-18.75
21
-174
0
ENDBLK
5
66
330
64
100
AcDbEntity
8
0
100
AcDbBlockEnd
0
BLOCK
5
68
330
67
100
AcDbEntity
8
0
100
AcDbBlockBegin
2
*D15
70
1
10
0
20
0
3
*D15
1

0
LINE
5
D0
100
AcDbEntity
8
dim
6
CONTINUOUS
62
7
370
0
100
AcDbLine
10
-200
20
-320
11
200
21
-320
0
SOLID
5
D1
100
AcDbEntity
8
dim
6
CONTINUOUS
62
7
370
0
100
AcDbTrace
10
-200
20
-320
30
0
11
-194
21
-319.000916821
31
0
12
-194
22
-320.999083179
32
0
13
-194
23
-320.999083179
33
0
0
SOLID
5
D2
100
AcDbEntity
8
dim
6
CONTINUOUS
62
7
370
0
100
AcDbTrace
10
200
20
-320
30
0
11
194
21
-320.999083179
31
0
12
194
22
-319.000916821
32
0
13
194
23
-319.000916821
33
0
0
MTEXT
5
D3
100
AcDbEntity
8
dim
6
CONTINUOUS
62
7
370
0
100
AcDbMText
10
3.36777869766e-16
20
-314.5
30
0
40
7
41
14.7777777778
71
5
72
1
1
400
7
standard
210
0
220
0
230
1
50
0
73
2
44
1
0
LINE
5
D4
100
AcDbEntity
8
dim
6
CONTINUOUS
62
7
370
0
100
AcDbLine
10
-200
20
-200.625
11
-200
21
-321.25
0
LINE
5
D5
100
AcDbEntity
8
dim
6
CONTINUOUS
62
7
370
0
100
AcDbLine
10
200
20
-200.625
11
200
21
-321.25
0
ENDBLK
5
69
330
67
100
AcDbEntity
8
0
100
AcDbBlockEnd
0
BLOCK
5
6B
330
6A
100
AcDbEntity
8
0
100
AcDbBlockBegin
2
*D22
70
1
10
0
20
0
3
*D22
1

0
LINE
5
D6
100
AcDbEntity
8
dim
6
CONTINUOUS
62
7
370
0
100
AcDbLine
10
-100
20
146
11
-100
21
106
0
SOLID
5
D7
100
AcDbEntity
8
dim
6
CONTINUOUS
62
7
370
0
100
AcDbTrace
10
-100
20
146
30
0
11
-99.0009168213
21
140
31
0
12
-100.999083179
22
140
32
0
13
-100.999083179
23
140
33
0
0
SOLID
5
D8
100
AcDbEntity
8
dim
6
CONTINUOUS
62
7
370
0
100
AcDbTrace
10
-100
20
106
30
0
11
-100.999083179
21
112
31
0
12
-99.0009168213
22
112
32
0
13
-99.0009168213
23
112
33
0
0
MTEXT
5
D9
100
AcDbEntity
8
dim
6
CONTINUOUS
62
7
370
0
100
AcDbMText
10
-105.5
20
126
30
0
40
7
41
9.33333333333
71
5
72
1
1
40
7
standard
210
0
220
0
230
1
50
90
73
2
44
1
0
LINE
5
DA
100
AcDbEntity
8
dim
6
CONTINUOUS
62
7
370
0
100
AcDbLine
10
-38.625
20
146
11
-101.25
21
146
0
LINE
5
DB
100
AcDbEntity
8
dim
6
CONTINUOUS
62
7
370
0
100
AcDbLine
10
-26.625
20
106
11
-101.25
21
106
0
ENDBLK
5
6C
330
6A
100
AcDbEntity
8
0
100
AcDbBlockEnd
0
BLOCK
5
6E
330
6D
100
AcDbEntity
8
0
100
AcDbBlockBegin
2
*D5
70
1
10
0
20
0
3
*D5
1

0
LINE
5
DC
100
AcDbEntity
8
dim
6
CONTINUOUS
62
7
370
0
100
AcDbLine
10
-120
20
-272
11
-120
21
-224
0
SOLID
5
DD
100
AcDbEntity
8
dim
6
CONTINUOUS
62
7
370
0
100
AcDbTrace
10
-120
20
-272
30
0
11
-120.999083179
21
-266
31
0
12
-119.000916821
22
-266
32
0
13
-119.000916821
23
-266
33
0
0
SOLID
5
DE
100
AcDbEntity
8
dim
6
CONTINUOUS
62
7
370
0
100
AcDbTrace
10
-120
20
-224
30
0
11
-119.000916821
21
-230
31
0
12
-120.999083179
22
-230
32
0
13
-120.999083179
23
-230
33
0
0
MTEXT
5
DF
100
AcDbEntity
8
dim
6
CONTINUOUS
62
7
370
0
100
AcDbMText
10
-125.5
20
-248
30
0
40
7
41
9.33333333333
71
5
72
1
1
48
7
standard
210
0
220
0
230
1
50
90
73
2
44
1
0
LINE
5
E0
100
AcDbEntity
8
dim
6
CONTINUOUS
62
7
370
0
100
AcDbLine
10
-144.375
20
-272
11
-118.75
21
-272
0
LINE
5
E1
100
AcDbEntity
8
dim
6
CONTINUOUS
62
7
370
0
100
AcDbLine
10
-144.375
20
-224
11
-118.75
21
-224
0
ENDBLK
5
6F
330
6D
100
AcDbEntity
8
0
100
AcDbBlockEnd
0
BLOCK
5
71
330
70
100
AcDbEntity
8
0
100
AcDbBlockBegin
2
*D2
70
1
10
0
20
0
3
*D2
1

0
LINE
5
E2
100
AcDbEntity
8
dim
6
CONTINUOUS
62
7
370
0
100
AcDbLine
10
-240
20
146
11
-240
21
-134
0
SOLID
5
E3
100
AcDbEntity
8
dim
6
CONTINUOUS
62
7
370
0
100
AcDbTrace
10
-240
20
146
30
0
11
-239.000916821
21
140
31
0
12
-240.999083179
22
140
32
0
13
-240.999083179
23
140
33
0
0
SOLID
5
E4
100
AcDbEntity
8
dim
6
CONTINUOUS
62
7
370
0
100
AcDbTrace
10
-240
20
-134
30
0
11
-240.999083179
21
-128
31
0
12
-239.000916821
22
-128
32
0
13
-239.000916821
23
-128
33
0
0
MTEXT
5
E5
100
AcDbEntity
8
dim
6
CONTINUOUS
62
7
370
0
100
AcDbMText
10
-245.5
20
6
30
0
40
7
41
14
71
5
72
1
1
280
7
standard
210
0
220
0
230
1
50
90
73
2
44
1
0
LINE
5
E6
100
AcDbEntity
8
dim
6
CONTINUOUS
62
7
370
0
100
AcDbLine
10
-38.625
20
146
11
-241.25
21
146
0
LINE
5
E7
100
AcDbEntity
8
dim
6
CONTINUOUS
62
7
370
0
100
AcDbLine
10
-200.283075373
20
-134
11
-241.25
21
-134
0
ENDBLK
5
72
330
70
100
AcDbEntity
8
0
100
AcDbBlockEnd
0
BLOCK
5
74
330
73
100
AcDbEntity
8
0
100
AcDbBlockBegin
2
*D23
70
1
10
0
20
0
3
*D23
1

0
LINE
5
E8
100
AcDbEntity
8
dim
6
CONTINUOUS
62
7
370
0
100
AcDbLine
10
110
20
-174
11
110
21
-224
0
SOLID
5
E9
100
AcDbEntity
8
dim
6
CONTINUOUS
62
7
370
0
100
AcDbTrace
10
110
20
-174
30
0
11
110.999083179
21
-180
31
0
12
109.000916821
22
-180
32
0
13
109.000916821
23
-180
33
0
0
SOLID
5
EA
100
AcDbEntity
8
dim
6
CONTINUOUS
62
7
370
0
100
AcDbTrace
10
110
20
-224
30
0
11
109.000916821
21
-218
31
0
12
110.999083179
22
-218
32
0
13
110.999083179
23
-218
33
0
0
MTEXT
5
EB
100
AcDbEntity
8
dim
6
CONTINUOUS
62
7
370
0
100
AcDbMText
10
104.5
20
-199
30
0
40
7
41
8.55555555556
71
5
72
1
1
50
7
standard
210
0
220
0
230
1
50
90
73
2
44
1
0
LINE
5
EC
100
AcDbEntity
8
dim
6
CONTINUOUS
62
7
370
0
100
AcDbLine
10
144.375
20
-174
11
108.75
21
-174
0
LINE
5
ED
100
AcDbEntity
8
dim
6
CONTINUOUS
62
7
370
0
100
AcDbLine
10
144.375
20
-224
11
108.75
21
-224
0
ENDBLK
5
75
330
73
100
AcDbEntity
8
0
100
AcDbBlockEnd
0
BLOCK
5
77
330
76
100
AcDbEntity
8
0
100
AcDbBlockBegin
2
*D11
70
1
10
0
20
0
3
*D11
1

0
LINE
5
EE
100
AcDbEntity
8
dim
6
CONTINUOUS
62
7
370
0
100
AcDbLine
10
-181
20
-170
11
-200
21
-170
0
SOLID
5
EF
100
AcDbEntity
8
dim
6
CONTINUOUS
62
7
370
0
100
AcDbTrace
10
-181
20
-170
30
0
11
-187
21
-170.999083179
31
0
12
-187
22
-169.000916821
32
0
13
-187
23
-169.000916821
33
0
0
SOLID
5
F0
100
AcDbEntity
8
dim
6
CONTINUOUS
62
7
370
0
100
AcDbTrace
10
-200
20
-170
30
0
11
-194
21
-169.000916821
31
0
12
-194
22
-170.999083179
32
0
13
-194
23
-170.999083179
33
0
0
MTEXT
5
F1
100
AcDbEntity
8
dim
6
CONTINUOUS
62
7
370
0
100
AcDbMText
10
-190.5
20
-164.5
30
0
40
7
41
7
71
5
72
1
1
19
7
standard
210
0
220
0
230
1
50
360
73
2
44
1
0
LINE
5
F2
100
AcDbEntity
8
dim
6
CONTINUOUS
62
7
370
0
100
AcDbLine
10
-181
20
-184.375
11
-181
21
-168.75
0
LINE
5
F3
100
AcDbEntity
8
dim
6
CONTINUOUS
62
7
370
0
100
AcDbLine
10
-200
20
-199.375
11
-200
21
-168.75
0
ENDBLK
5
78
330
76
100
AcDbEntity
8
0
100
AcDbBlockEnd
0
BLOCK
5
7A
330
79
100
AcDbEntity
8
0
100
AcDbBlockBegin
2
*D17
70
1
10
0
20
0
3
*D17
1

0
LINE
5
F4
100
AcDbEntity
8
dim
6
CONTINUOUS
62
7
370
0
100
AcDbLine
10
164.564064605
20
-80
11
145
21
-80
0
SOLID
5
F5
100
AcDbEntity
8
dim
6
CONTINUOUS
62
7
370
0
100
AcDbTrace
10
164.564064605
20
-80
30
0
11
158.564064605
21
-80.9990831787
31
0
12
158.564064605
22
-79.0009168213
32
0
13
158.564064605
23
-79.0009168213
33
0
0
SOLID
5
F6
100
AcDbEntity
8
dim
6
CONTINUOUS
62
7
370
0
100
AcDbTrace
10
145
20
-80
30
0
11
151
21
-79.0009168213
31
0
12
151
22
-80.9990831787
32
0
13
151
23
-80.9990831787
33
0
0
MTEXT
5
F7
100
AcDbEntity
8
dim
6
CONTINUOUS
62
7
370
0
100
AcDbMText
10
181.730731272
20
-74.5
30
0
40
7
41
30.3333333333
71
5
72
1
1
19.5641
7
standard
210
0
220
0
230
1
50
360
73
2
44
1
0
LINE
5
F8
100
AcDbEntity
8
dim
6
CONTINUOUS
62
7
370
0
100
AcDbLine
10
164.564064605
20
-133.375
11
164.564064605
21
-78.75
0
LINE
5
F9
100
AcDbEntity
8
dim
6
CONTINUOUS
62
7
370
0
100
AcDbLine
10
145
20
-173.375
11
145
21
-78.75
0
ENDBLK
5
7B
330
79
100
AcDbEntity
8
0
100
AcDbBlockEnd
0
BLOCK
5
7D
330
7C
100
AcDbEntity
8
0
100
AcDbBlockBegin
2
*D24
70
1
10
0
20
0
3
*D24
1

0
LINE
5
FA
100
AcDbEntity
8
dim
6
CONTINUOUS
62
7
370
0
100
AcDbLine
10
-80
20
-210
11
-80
21
-272
0
SOLID
5
FB
100
AcDbEntity
8
dim
6
CONTINUOUS
62
7
370
0
100
AcDbTrace
10
-80
20
-210
30
0
11
-79.0009168213
21
-216
31
0
12
-80.9990831787
22
-216
32
0
13
-80.9990831787
23
-216
33
0
0
SOLID
5
FC
100
AcDbEntity
8
dim
6
CONTINUOUS
62
7
370
0
100
AcDbTrace
10
-80
20
-272
30
0
11
-80.9990831787
21
-266
31
0
12
-79.0009168213
22
-266
32
0
13
-79.0009168213
23
-266
33
0
0
MTEXT
5
FD
100
AcDbEntity
8
dim
6
CONTINUOUS
62
7
370
0
100
AcDbMText
10
-85.5
20
-241
30
0
40
7
41
8.55555555556
71
5
72
1
1
62
7
standard
210
0
220
0
230
1
50
90
73
2
44
1
0
LINE
5
FE
100
AcDbEntity
8
dim
6
CONTINUOUS
62
7
370
0
100
AcDbLine
10
-30.625
20
-210
11
-81.25
21
-210
0
LINE
5
FF
100
AcDbEntity
8
dim
6
CONTINUOUS
62
7
370
0
100
AcDbLine
10
-145.625
20
-272
11
-81.25
21
-272
0
ENDBLK
5
7E
330
7C
100
AcDbEntity
8
0
100
AcDbBlockEnd
0
BLOCK
5
80
330
7F
100
AcDbEntity
8
0
100
AcDbBlockBegin
2
*D3
70
1
10
0
20
0
3
*D3
1

0
LINE
5
100
100
AcDbEntity
8
dim
6
CONTINUOUS
62
7
370
0
100
AcDbLine
10
-240
20
-134
11
-240
21
-200
0
SOLID
5
101
100
AcDbEntity
8
dim
6
CONTINUOUS
62
7
370
0
100
AcDbTrace
10
-240
20
-134
30
0
11
-239.000916821
21
-140
31
0
12
-240.999083179
22
-140
32
0
13
-240.999083179
23
-140
33
0
0
SOLID
5
102
100
AcDbEntity
8
dim
6
CONTINUOUS
62
7
370
0
100
AcDbTrace
10
-240
20
-200
30
0
11
-240.999083179
21
-194
31
0
12
-239.000916821
22
-194
32
0
13
-239.000916821
23
-194
33
0
0
MTEXT
5
103
100
AcDbEntity
8
dim
6
CONTINUOUS
62
7
370
0
100
AcDbMText
10
-245.5
20
-167
30
0
40
7
41
8.55555555556
71
5
72
1
1
66
7
standard
210
0
220
0
230
1
50
90
73
2
44
1
0
LINE
5
104
100
AcDbEntity
8
dim
6
CONTINUOUS
62
7
370
0
100
AcDbLine
10
-200.283075373
20
-134
11
-241.25
21
-134
0
LINE
5
105
100
AcDbEntity
8
dim
6
CONTINUOUS
62
7
370
0
100
AcDbLine
10
-200.625
20
-200
11
-241.25
21
-200
0
ENDBLK
5
81
330
7F
100
AcDbEntity
8
0
100
AcDbBlockEnd
0
BLOCK
5
83
330
82
100
AcDbEntity
8
0
100
AcDbBlockBegin
2
*D13
70
1
10
0
20
0
3
*D13
1

0
LINE
5
106
100
AcDbEntity
8
dim
6
CONTINUOUS
62
7
370
0
100
AcDbLine
10
-175
20
-300
11
-200
21
-300
0
SOLID
5
107
100
AcDbEntity
8
dim
6
CONTINUOUS
62
7
370
0
100
AcDbTrace
10
-175
20
-300
30
0
11
-181
21
-300.999083179
31
0
12
-181
22
-299.000916821
32
0
13
-181
23
-299.000916821
33
0
0
SOLID
5
108
100
AcDbEntity
8
dim
6
CONTINUOUS
62
7
370
0
100
AcDbTrace
10
-200
20
-300
30
0
11
-194
21
-299.000916821
31
0
12
-194
22
-300.999083179
32
0
13
-194
23
-300.999083179
33
0
0
MTEXT
5
109
100
AcDbEntity
8
dim
6
CONTINUOUS
62
7
370
0
100
AcDbMText
10
-187.5
20
-294.5
30
0
40
7
41
8.55555555556
71
5
72
1
1
25
7
standard
210
0
220
0
230
1
50
360
73
2
44
1
0
LINE
5
10A
100
AcDbEntity
8
dim
6
CONTINUOUS
62
7
370
0
100
AcDbLine
10
-175
20
-272.625
11
-175
21
-301.25
0
LINE
5
10B
100
AcDbEntity
8
dim
6
CONTINUOUS
62
7
370
0
100
AcDbLine
10
-200
20
-200.625
11
-200
21
-301.25
0
ENDBLK
5
84
330
82
100
AcDbEntity
8
0
100
AcDbBlockEnd
0
BLOCK
5
86
330
85
100
AcDbEntity
8
0
100
AcDbBlockBegin
2
*D19
70
1
10
0
20
0
3
*D19
1

0
LINE
5
10C
100
AcDbEntity
8
dim
6
CONTINUOUS
62
7
370
0
100
AcDbLine
10
-30
20
-300
11
-145
21
-300
0
SOLID
5
10D
100
AcDbEntity
8
dim
6
CONTINUOUS
62
7
370
0
100
AcDbTrace
10
-30
20
-300
30
0
11
-36
21
-300.999083179
31
0
12
-36
22
-299.000916821
32
0
13
-36
23
-299.000916821
33
0
0
SOLID
5
10E
100
AcDbEntity
8
dim
6
CONTINUOUS
62
7
370
0
100
AcDbTrace
10
-145
20
-300
30
0
11
-139
21
-299.000916821
31
0
12
-139
22
-300.999083179
32
0
13
-139
23
-300.999083179
33
0
0
MTEXT
5
10F
100
AcDbEntity
8
dim
6
CONTINUOUS
62
7
370
0
100
AcDbMText
10
-87.5
20
-294.5
30
0
40
7
41
10.8888888889
71
5
72
1
1
115
7
standard
210
0
220
0
230
1
50
360
73
2
44
1
0
LINE
5
110
100
AcDbEntity
8
dim
6
CONTINUOUS
62
7
370
0
100
AcDbLine
10
-30
20
-210.625
11
-30
21
-301.25
0
LINE
5
111
100
AcDbEntity
8
dim
6
CONTINUOUS
62
7
370
0
100
AcDbLine
10
-145
20
-272.625
11
-145
21
-301.25
0
ENDBLK
5
87
330
85
100
AcDbEntity
8
0
100
AcDbBlockEnd
0
BLOCK
5
89
330
88
100
AcDbEntity
8
0
100
AcDbBlockBegin
2
*D21
70
1
10
0
20
0
3
*D21
1

0
LINE
5
112
100
AcDbEntity
8
dim
6
CONTINUOUS
62
7
370
0
100
AcDbLine
10
-14
20
70
11
-50
21
70
0
SOLID
5
113
100
AcDbEntity
8
dim
6
CONTINUOUS
62
7
370
0
100
AcDbTrace
10
-26
20
70
30
0
11
-20
21
70.9990831787
31
0
12
-20
22
69.0009168213
32
0
13
-20
23
69.0009168213
33
0
0
SOLID
5
114
100
AcDbEntity
8
dim
6
CONTINUOUS
62
7
370
0
100
AcDbTrace
10
-38
20
70
30
0
11
-44
21
69.0009168213
31
0
12
-44
22
70.9990831787
32
0
13
-44
23
70.9990831787
33
0
0
MTEXT
5
115
100
AcDbEntity
8
dim
6
CONTINUOUS
62
7
370
0
100
AcDbMText
10
-32
20
75.5
30
0
40
7
41
7
71
5
72
1
1
12
7
standard
210
0
220
0
230
1
50
360
73
2
44
1
0
LINE
5
116
100
AcDbEntity
8
dim
6
CONTINUOUS
62
7
370
0
100
AcDbLine
10
-26
20
105.375
11
-26
21
68.75
0
LINE
5
117
100
AcDbEntity
8
dim
6
CONTINUOUS
62
7
370
0
100
AcDbLine
10
-38
20
145.375
11
-38
21
68.75
0
ENDBLK
5
8A
330
88
100
AcDbEntity
8
0
100
AcDbBlockEnd
0
BLOCK
5
8C
330
8B
100
AcDbEntity
8
0
100
AcDbBlockBegin
2
*D6
70
1
10
0
20
0
3
*D6
1

0
LINE
5
118
100
AcDbEntity
8
dim
6
CONTINUOUS
62
7
370
0
100
AcDbLine
10
-220
20
-210
11
-220
21
-272
0
SOLID
5
119
100
AcDbEntity
8
dim
6
CONTINUOUS
62
7
370
0
100
AcDbTrace
10
-220
20
-210
30
0
11
-219.000916821
21
-216
31
0
12
-220.999083179
22
-216
32
0
13
-220.999083179
23
-216
33
0
0
SOLID
5
11A
100
AcDbEntity
8
dim
6
CONTINUOUS
62
7
370
0
100
AcDbTrace
10
-220
20
-272
30
0
11
-220.999083179
21
-266
31
0
12
-219.000916821
22
-266
32
0
13
-219.000916821
23
-266
33
0
0
MTEXT
5
11B
100
AcDbEntity
8
dim
6
CONTINUOUS
62
7
370
0
100
AcDbMText
10
-225.5
20
-241
30
0
40
7
41
8.55555555556
71
5
72
1
1
62
7
standard
210
0
220
0
230
1
50
90
73
2
44
1
0
LINE
5
11C
100
AcDbEntity
8
dim
6
CONTINUOUS
62
7
370
0
100
AcDbLine
10
-165.625
20
-210
11
-221.25
21
-210
0
LINE
5
11D
100
AcDbEntity
8
dim
6
CONTINUOUS
62
7
370
0
100
AcDbLine
10
-175.625
20
-272
11
-221.25
21
-272
0
ENDBLK
5
8D
330
8B
100
AcDbEntity
8
0
100
AcDbBlockEnd
0
BLOCK
5
8F
330
8E
100
AcDbEntity
8
0
100
AcDbBlockBegin
2
*D14
70
1
10
0
20
0
3
*D14
1

0
LINE
5
11E
100
AcDbEntity
8
dim
6
CONTINUOUS
62
7
370
0
100
AcDbLine
10
-145
20
-300
11
-175
21
-300
0
SOLID
5
11F
100
AcDbEntity
8
dim
6
CONTINUOUS
62
7
370
0
100
AcDbTrace
10
-145
20
-300
30
0
11
-151
21
-300.999083179
31
0
12
-151
22
-299.000916821
32
0
13
-151
23
-299.000916821
33
0
0
SOLID
5
120
100
AcDbEntity
8
dim
6
CONTINUOUS
62
7
370
0
100
AcDbTrace
10
-175
20
-300
30
0
11
-169
21
-299.000916821
31
0
12
-169
22
-300.999083179
32
0
13
-169
23
-300.999083179
33
0
0
MTEXT
5
121
100
AcDbEntity
8
dim
6
CONTINUOUS
62
7
370
0
100
AcDbMText
10
-160
20
-294.5
30
0
40
7
41
8.55555555556
71
5
72
1
1
30
7
standard
210
0
220
0
230
1
50
360
73
2
44
1
0
LINE
5
122
100
AcDbEntity
8
dim
6
CONTINUOUS
62
7
370
0
100
AcDbLine
10
-145
20
-272.625
11
-145
21
-301.25
0
LINE
5
123
100
AcDbEntity
8
dim
6
CONTINUOUS
62
7
370
0
100
AcDbLine
10
-175
20
-272.625
11
-175
21
-301.25
0
ENDBLK
5
90
330
8E
100
AcDbEntity
8
0
100
AcDbBlockEnd
0
BLOCK
5
92
330
91
100
AcDbEntity
8
0
100
AcDbBlockBegin
2
PAD002054028_PROJ
70
0
10
0
20
0
3
PAD002054028_PROJ
1

0
LINE
5
124
100
AcDbEntity
8
0
6
ByLayer
62
0
370
-1
100
AcDbLine
10
146
20
38
11
146
21
-38
0
LINE
5
125
100
AcDbEntity
8
0
6
ByLayer
62
0
370
-1
100
AcDbLine
10
146
20
-38
11
-134
21
-199.658075373
0
LINE
5
126
100
AcDbEntity
8
0
6
ByLayer
62
0
370
-1
100
AcDbLine
10
-134
20
-199.658075373
11
-199
21
-199.658075373
0
LINE
5
127
100
AcDbEntity
8
0
6
ByLayer
62
0
370
-1
100
AcDbLine
10
-199
20
-199.658075373
11
-272
21
-175
0
LINE
5
128
100
AcDbEntity
8
0
6
ByLayer
62
0
370
-1
100
AcDbLine
10
-272
20
-175
11
-272
21
-145
0
LINE
5
129
100
AcDbEntity
8
0
6
ByLayer
62
0
370
-1
100
AcDbLine
10
-272
20
-145
11
-224
21
-145
0
LINE
5
12A
100
AcDbEntity
8
0
6
ByLayer
62
0
370
-1
100
AcDbLine
10
-224
20
-145
11
-224
21
145
0
LINE
5
12B
100
AcDbEntity
8
0
6
ByLayer
62
0
370
-1
100
AcDbLine
10
-224
20
145
11
-272
21
145
0
LINE
5
12C
100
AcDbEntity
8
0
6
ByLayer
62
0
370
-1
100
AcDbLine
10
-272
20
145
11
-272
21
175
0
LINE
5
12D
100
AcDbEntity
8
0
6
ByLayer
62
0
370
-1
100
AcDbLine
10
-272
20
175
11
-199
21
199.658075373
0
LINE
5
12E
100
AcDbEntity
8
0
6
ByLayer
62
0
370
-1
100
AcDbLine
10
-199
20
199.658075373
11
-134
21
199.658075373
0
LINE
5
12F
100
AcDbEntity
8
0
6
ByLayer
62
0
370
-1
100
AcDbLine
10
-134
20
199.658075373
11
146
21
38
0
LINE
5
130
100
AcDbEntity
8
0
6
ByLayer
62
0
370
-1
100
AcDbLine
10
106
20
-26
11
-134
21
-164.564064605
0
LINE
5
131
100
AcDbEntity
8
0
6
ByLayer
62
0
370
-1
100
AcDbLine
10
-134
20
-164.564064605
11
-174
21
-145
0
LINE
5
132
100
AcDbEntity
8
0
6
ByLayer
62
0
370
-1
100
AcDbLine
10
-174
20
-145
11
-174
21
145
0
LINE
5
133
100
AcDbEntity
8
0
6
ByLayer
62
0
370
-1
100
AcDbLine
10
-174
20
145
11
-134
21
164.564064605
0
LINE
5
134
100
AcDbEntity
8
0
6
ByLayer
62
0
370
-1
100
AcDbLine
10
-134
20
164.564064605
11
106
21
26
0
LINE
5
135
100
AcDbEntity
8
0
6
ByLayer
62
0
370
-1
100
AcDbLine
10
106
20
26
11
106
21
-26
0
CIRCLE
5
136
100
AcDbEntity
8
0
6
ByLayer
62
0
370
-1
100
AcDbCircle
10
-185
20
-181
40
4
0
CIRCLE
5
137
100
AcDbEntity
8
0
6
ByLayer
62
0
370
-1
100
AcDbCircle
10
-210
20
-165
40
4
0
CIRCLE
5
138
100
AcDbEntity
8
0
6
ByLayer
62
0
370
-1
100
AcDbCircle
10
-210
20
165
40
4
0
CIRCLE
5
139
100
AcDbEntity
8
0
6
ByLayer
62
0
370
-1
100
AcDbCircle
10
-185
20
181
40
4
0
CIRCLE
5
13A
100
AcDbEntity
8
0
6
ByLayer
62
0
370
-1
100
AcDbCircle
10
-210
20
-30
40
4
0
CIRCLE
5
13B
100
AcDbEntity
8
0
6
ByLayer
62
0
370
-1
100
AcDbCircle
10
-210
20
30
40
4
0
CIRCLE
5
13C
100
AcDbEntity
8
0
6
ByLayer
62
0
370
-1
100
AcDbCircle
10
130
20
-30
40
4
0
CIRCLE
5
13D
100
AcDbEntity
8
0
6
ByLayer
62
0
370
-1
100
AcDbCircle
10
130
20
30
40
4
0
ENDBLK
5
93
330
91
100
AcDbEntity
8
0
100
AcDbBlockEnd
0
ENDSEC
0
SECTION
2
ENTITIES
0
INSERT
5
13E
100
AcDbEntity
8
0
6
ByLayer
62
256
370
-1
100
AcDbBlockReference
2
PAD002054028_PROJ
10
0
20
0
30
0
41
1
42
1
43
0
50
90
70
1
71
1
44
0
45
0
0
DIMENSION
5
13F
100
AcDbEntity
8
dim
6
ByLayer
62
256
370
-1
100
AcDbDimension
2
*D1
10
38
20
190
30
0
11
7.44220522737e-15
21
195.5
31
0
70
32
71
5
3
Standard
53
0
210
0
220
0
230
1
100
AcDbAlignedDimension
13
-38
23
146
33
0
14
38
24
146
34
0
100
AcDbRotatedDimension
0
DIMENSION
5
140
100
AcDbEntity
8
dim
6
ByLayer
62
256
370
-1
100
AcDbDimension
2
*D2
10
-240
20
-134
30
0
11
-245.5
21
6
31
0
70
32
71
5
3
Standard
53
0
210
0
220
0
230
1
100
AcDbAlignedDimension
13
-38
23
146
33
0
14
-199.658075373
24
-134
34
0
50
90
100
AcDbRotatedDimension
0
DIMENSION
5
141
100
AcDbEntity
8
dim
6
ByLayer
62
256
370
-1
100
AcDbDimension
2
*D3
10
-240
20
-200
30
0
11
-245.5
21
-167
31
0
70
32
71
5
3
Standard
53
0
210
0
220
0
230
1
100
AcDbAlignedDimension
13
-199.658075373
23
-134
33
0
14
-200
24
-200
34
0
50
90
100
AcDbRotatedDimension
0
DIMENSION
5
142
100
AcDbEntity
8
dim
6
ByLayer
62
256
370
-1
100
AcDbDimension
2
*D4
10
-240
20
-272
30
0
11
-245.5
21
-236
31
0
70
32
71
5
3
Standard
53
0
210
0
220
0
230
1
100
AcDbAlignedDimension
13
-200
23
-200
33
0
14
-175
24
-272
34
0
50
90
100
AcDbRotatedDimension
0
DIMENSION
5
143
100
AcDbEntity
8
dim
6
ByLayer
62
256
370
-1
100
AcDbDimension
2
*D5
10
-120
20
-224
30
0
11
-125.5
21
-248
31
0
70
32
71
5
3
Standard
53
0
210
0
220
0
230
1
100
AcDbAlignedDimension
13
-145
23
-272
33
0
14
-145
24
-224
34
0
50
90
100
AcDbRotatedDimension
0
DIMENSION
5
144
100
AcDbEntity
8
dim
6
ByLayer
62
256
370
-1
100
AcDbDimension
2
*D6
10
-220
20
-272
30
0
11
-225.5
21
-241
31
0
70
32
71
5
3
Standard
53
0
210
0
220
0
230
1
100
AcDbAlignedDimension
13
-165
23
-210
33
0
14
-175
24
-272
34
0
50
90
100
AcDbRotatedDimension
0
DIMENSION
5
145
100
AcDbEntity
8
dim
6
ByLayer
62
256
370
-1
100
AcDbDimension
2
*D7
10
-150
20
-185
30
0
11
-155.5
21
-197.5
31
0
70
32
71
5
3
Standard
53
0
210
0
220
0
230
1
100
AcDbAlignedDimension
13
-165
23
-210
33
0
14
-181
24
-185
34
0
50
90
100
AcDbRotatedDimension
0
DIMENSION
5
146
100
AcDbEntity
8
dim
6
ByLayer
62
256
370
-1
100
AcDbDimension
2
*D8
10
-70
20
130
30
0
11
-75.5
21
138
31
0
70
32
71
5
3
Standard
53
0
210
0
220
0
230
1
100
AcDbAlignedDimension
13
-38
23
146
33
0
14
-30
24
130
34
0
50
90
100
AcDbRotatedDimension
0
DIMENSION
5
147
100
AcDbEntity
8
dim
6
ByLayer
62
256
370
-1
100
AcDbDimension
2
*D9
10
-110
20
-174
30
0
11
-115.5
21
-154
31
0
70
32
71
5
3
Standard
53
0
210
0
220
0
230
1
100
AcDbAlignedDimension
13
-164.564064605
23
-134
33
0
14
-145
24
-174
34
0
50
90
100
AcDbRotatedDimension
0
DIMENSION
5
148
100
AcDbEntity
8
dim
6
ByLayer
62
256
370
-1
100
AcDbDimension
2
*D10
10
-30
20
160
30
0
11
-34
21
165.5
31
0
70
32
71
5
3
Standard
53
0
210
0
220
0
230
1
100
AcDbAlignedDimension
13
-38
23
146
33
0
14
-30
24
130
34
0
100
AcDbRotatedDimension
0
DIMENSION
5
149
100
AcDbEntity
8
dim
6
ByLayer
62
256
370
-1
100
AcDbDimension
2
*D11
10
-200
20
-170
30
0
11
-190.5
21
-164.5
31
0
70
32
71
5
3
Standard
53
0
210
0
220
0
230
1
100
AcDbAlignedDimension
13
-181
23
-185
33
0
14
-200
24
-200
34
0
100
AcDbRotatedDimension
0
DIMENSION
5
14A
100
AcDbEntity
8
dim
6
ByLayer
62
256
370
-1
100
AcDbDimension
2
*D12
10
-181
20
-170
30
0
11
-173
21
-164.5
31
0
70
32
71
5
3
Standard
53
0
210
0
220
0
230
1
100
AcDbAlignedDimension
13
-165
23
-210
33
0
14
-181
24
-185
34
0
100
AcDbRotatedDimension
0
DIMENSION
5
14B
100
AcDbEntity
8
dim
6
ByLayer
62
256
370
-1
100
AcDbDimension
2
*D13
10
-200
20
-300
30
0
11
-187.5
21
-294.5
31
0
70
32
71
5
3
Standard
53
0
210
0
220
0
230
1
100
AcDbAlignedDimension
13
-175
23
-272
33
0
14
-200
24
-200
34
0
100
AcDbRotatedDimension
0
DIMENSION
5
14C
100
AcDbEntity
8
dim
6
ByLayer
62
256
370
-1
100
AcDbDimension
2
*D14
10
-175
20
-300
30
0
11
-160
21
-294.5
31
0
70
32
71
5
3
Standard
53
0
210
0
220
0
230
1
100
AcDbAlignedDimension
13
-145
23
-272
33
0
14
-175
24
-272
34
0
100
AcDbRotatedDimension
0
DIMENSION
5
14D
100
AcDbEntity
8
dim
6
ByLayer
62
256
370
-1
100
AcDbDimension
2
*D15
10
200
20
-320
30
0
11
3.36777869766e-16
21
-314.5
31
0
70
32
71
5
3
Standard
53
0
210
0
220
0
230
1
100
AcDbAlignedDimension
13
-200
23
-200
33
0
14
200
24
-200
34
0
100
AcDbRotatedDimension
0
LINE
5
14E
100
AcDbEntity
8
base
6
ByLayer
62
256
370
-1
100
AcDbLine
10
0
20
150
11
0
21
-240
0
DIMENSION
5
14F
100
AcDbEntity
8
dim
6
ByLayer
62
256
370
-1
100
AcDbDimension
2
*D16
10
-20
20
-174
30
0
11
-25.5
21
-34
31
0
70
32
71
5
3
Standard
53
0
210
0
220
0
230
1
100
AcDbAlignedDimension
13
-26
23
106
33
0
14
-145
24
-174
34
0
50
90
100
AcDbRotatedDimension
0
DIMENSION
5
150
100
AcDbEntity
8
dim
6
ByLayer
62
256
370
-1
100
AcDbDimension
2
*D17
10
145
20
-80
30
0
11
154.782032302
21
-74.5
31
0
70
32
71
5
3
Standard
53
0
210
0
220
0
230
1
100
AcDbAlignedDimension
13
164.564064605
23
-134
33
0
14
145
24
-174
34
0
100
AcDbRotatedDimension
0
DIMENSION
5
151
100
AcDbEntity
8
dim
6
ByLayer
62
256
370
-1
100
AcDbDimension
2
*D18
10
-145
20
-190
30
0
11
3.36777869766e-16
21
-184.5
31
0
70
32
71
5
3
Standard
53
0
210
0
220
0
230
1
100
AcDbAlignedDimension
13
145
23
-174
33
0
14
-145
24
-174
34
0
100
AcDbRotatedDimension
0
DIMENSION
5
152
100
AcDbEntity
8
dim
6
ByLayer
62
256
370
-1
100
AcDbDimension
2
*D19
10
-145
20
-300
30
0
11
-87.5
21
-294.5
31
0
70
32
71
5
3
Standard
53
0
210
0
220
0
230
1
100
AcDbAlignedDimension
13
-30
23
-210
33
0
14
-145
24
-272
34
0
100
AcDbRotatedDimension
0
DIMENSION
5
153
100
AcDbEntity
8
dim
6
ByLayer
62
256
370
-1
100
AcDbDimension
2
*D20
10
-164.564064605
20
-60
30
0
11
-182.111069989
21
-54.5
31
0
70
32
71
5
3
Standard
53
0
210
0
220
0
230
1
100
AcDbAlignedDimension
13
-199.658075373
23
-134
33
0
14
-164.564064605
24
-134
34
0
100
AcDbRotatedDimension
0
DIMENSION
5
154
100
AcDbEntity
8
dim
6
ByLayer
62
256
370
-1
100
AcDbDimension
2
*D21
10
-38
20
70
30
0
11
-32
21
75.5
31
0
70
32
71
5
3
Standard
53
0
210
0
220
0
230
1
100
AcDbAlignedDimension
13
-26
23
106
33
0
14
-38
24
146
34
0
100
AcDbRotatedDimension
0
DIMENSION
5
155
100
AcDbEntity
8
dim
6
ByLayer
62
256
370
-1
100
AcDbDimension
2
*D22
10
-100
20
106
30
0
11
-105.5
21
126
31
0
70
32
71
5
3
Standard
53
0
210
0
220
0
230
1
100
AcDbAlignedDimension
13
-38
23
146
33
0
14
-26
24
106
34
0
50
90
100
AcDbRotatedDimension
0
DIMENSION
5
156
100
AcDbEntity
8
dim
6
ByLayer
62
256
370
-1
100
AcDbDimension
2
*D23
10
110
20
-224
30
0
11
104.5
21
-199
31
0
70
32
71
5
3
Standard
53
0
210
0
220
0
230
1
100
AcDbAlignedDimension
13
145
23
-174
33
0
14
145
24
-224
34
0
50
90
100
AcDbRotatedDimension
0
DIMENSION
5
157
100
AcDbEntity
8
dim
6
ByLayer
62
256
370
-1
100
AcDbDimension
2
*D24
10
-80
20
-272
30
0
11
-85.5
21
-241
31
0
70
32
71
5
3
Standard
53
0
210
0
220
0
230
1
100
AcDbAlignedDimension
13
-30
23
-210
33
0
14
-145
24
-272
34
0
50
90
100
AcDbRotatedDimension
0
MTEXT
5
158
100
AcDbEntity
8
dim
6
ByLayer
62
256
370
-1
100
AcDbMText
10
20
20
-120
30
0
40
10
41
113.333333333
71
1
72
1
1
Все отверстия\Pдиаметром 8 мм
7
cyrillic_ii
210
0
220
0
230
1
50
0
73
2
44
1
0
ENDSEC
0
SECTION
2
OBJECTS
0
DICTIONARY
5
C
330
0
100
AcDbDictionary
281
1
3
ACAD_GROUP
350
D
0
DICTIONARY
5
D
330
C
100
AcDbDictionary
281
1
0
ENDSEC
0
EOF
