999
dxfrw 0.5.10
0
SECTION
2
HEADER
9
$ACADVER
1
AC1021
9
$HANDSEED
5
20000
9
$DWGCODEPAGE
3
ANSI_1252
9
$INSBASE
10
0
20
0
30
0
9
$EXTMIN
10
-100
20
-210
30
0
9
$EXTMAX
10
498
20
165
30
0
9
$LIMMIN
10
0
20
0
9
$LIMMAX
10
420
20
297
9
$ORTHOMODE
70
0
9
$LTSCALE
40
1
9
$TEXTSTYLE
7
STANDARD
9
$CLAYER
8
0
9
$DIMASZ
40
2.5
9
$DIMLFAC
40
1
9
$DIMSCALE
40
1
9
$DIMEXO
40
0.625
9
$DIMEXE
40
1.25
9
$DIMTXT
40
2.5
9
$DIMTSZ
40
0
9
$DIMAUNIT
70
0
9
$DIMADEC
70
0
9
$DIMLUNIT
70
2
9
$DIMSTYLE
2
STANDARD
9
$DIMGAP
40
0.625
9
$DIMTIH
70
0
9
$LUNITS
70
2
9
$LUPREC
70
4
9
$AUNITS
70
0
9
$AUPREC
70
2
9
$SPLINESEGS
70
8
9
$GRIDMODE
70
1
9
$SNAPSTYLE
70
0
9
$PINSBASE
10
0
20
0
30
0
9
$PLIMMIN
10
0
20
0
9
$PLIMMAX
10
210
20
297
9
$INSUNITS
70
0
9
$PSVPSCALE
40
1
0
ENDSEC
0
SECTION
2
CLASSES
0
ENDSEC
0
SECTION
2
TABLES
0
TABLE
2
VPORT
5
8
330
0
100
AcDbSymbolTable
70
1
0
VPORT
5
31
330
2
100
AcDbSymbolTableRecord
100
AcDbViewportTableRecord
2
*ACTIVE
70
0
10
0
20
0
11
1
21
1
12
410.224258705
22
165.928488847
13
0
23
0
14
10
24
10
15
10
25
10
16
0
26
0
36
1
17
0
27
0
37
0
40
822.199741567
41
1.66879659212
42
50
43
0
44
0
50
0
51
0
71
0
72
100
73
1
74
3
75
0
76
1
77
0
78
0
281
0
65
1
110
0
120
0
130
0
111
1
121
0
131
0
112
0
122
1
132
0
79
0
146
0
348
10020
60
7
61
5
292
1
282
1
141
0
142
0
63
250
421
3358443
0
ENDTAB
0
TABLE
2
LTYPE
5
5
330
0
100
AcDbSymbolTable
70
4
0
LTYPE
5
14
330
5
100
AcDbSymbolTableRecord
100
AcDbLinetypeTableRecord
2
ByBlock
70
0
3

72
65
73
0
40
0
0
LTYPE
5
15
330
5
100
AcDbSymbolTableRecord
100
AcDbLinetypeTableRecord
2
ByLayer
70
0
3

72
65
73
0
40
0
0
LTYPE
5
16
330
5
100
AcDbSymbolTableRecord
100
AcDbLinetypeTableRecord
2
Continuous
70
0
3
Solid line
72
65
73
0
40
0
0
LTYPE
5
32
330
5
100
AcDbSymbolTableRecord
100
AcDbLinetypeTableRecord
2
DOT
70
0
3
Dot . . . . . . . . . . . . . . . . . . . . . .
72
65
73
2
40
6.35
49
0
74
0
49
-6.35
74
0
0
LTYPE
5
33
330
5
100
AcDbSymbolTableRecord
100
AcDbLinetypeTableRecord
2
DOT2
70
0
3
Dot (.5x) .....................................
72
65
73
2
40
3.175
49
0
74
0
49
-3.175
74
0
0
LTYPE
5
34
330
5
100
AcDbSymbolTableRecord
100
AcDbLinetypeTableRecord
2
DOTX2
70
0
3
Dot (2x) .  .  .  .  .  .  .  .  .  .  .  .  .
72
65
73
2
40
12.7
49
0
74
0
49
-12.7
74
0
0
LTYPE
5
35
330
5
100
AcDbSymbolTableRecord
100
AcDbLinetypeTableRecord
2
DASHED
70
0
3
Dot . . . . . . . . . . . . . . . . . . . . . .
72
65
73
2
40
19.05
49
12.7
74
0
49
-6.35
74
0
0
LTYPE
5
36
330
5
100
AcDbSymbolTableRecord
100
AcDbLinetypeTableRecord
2
DASHED2
70
0
3
Dashed (.5x) _ _ _ _ _ _ _ _ _ _ _ _ _ _ _ _ _
72
65
73
2
40
9.525
49
6.35
74
0
49
-3.175
74
0
0
LTYPE
5
37
330
5
100
AcDbSymbolTableRecord
100
AcDbLinetypeTableRecord
2
DASHEDX2
70
0
3
Dashed (2x) ____  ____  ____  ____  ____  ___
72
65
73
2
40
38.1
49
25.4
74
0
49
-12.7
74
0
0
LTYPE
5
38
330
5
100
AcDbSymbolTableRecord
100
AcDbLinetypeTableRecord
2
DASHDOT
70
0
3
Dash dot __ . __ . __ . __ . __ . __ . __ . __
72
65
73
4
40
25.4
49
12.7
74
0
49
-6.35
74
0
49
0
74
0
49
-6.35
74
0
0
LTYPE
5
39
330
5
100
AcDbSymbolTableRecord
100
AcDbLinetypeTableRecord
2
DASHDOT2
70
0
3
Dash dot (.5x) _._._._._._._._._._._._._._._.
72
65
73
4
40
12.7
49
6.35
74
0
49
-3.175
74
0
49
0
74
0
49
-3.175
74
0
0
LTYPE
5
3A
330
5
100
AcDbSymbolTableRecord
100
AcDbLinetypeTableRecord
2
DASHDOTX2
70
0
3
Dash dot (2x) ____  .  ____  .  ____  .  ___
72
65
73
4
40
50.8
49
25.4
74
0
49
-12.7
74
0
49
0
74
0
49
-12.7
74
0
0
LTYPE
5
3B
330
5
100
AcDbSymbolTableRecord
100
AcDbLinetypeTableRecord
2
DIVIDE
70
0
3
Divide ____ . . ____ . . ____ . . ____ . . ____
72
65
73
6
40
31.75
49
12.7
74
0
49
-6.35
74
0
49
0
74
0
49
-6.35
74
0
49
0
74
0
49
-6.35
74
0
0
LTYPE
5
3C
330
5
100
AcDbSymbolTableRecord
100
AcDbLinetypeTableRecord
2
DIVIDE2
70
0
3
Divide (.5x) __..__..__..__..__..__..__..__.._
72
65
73
6
40
15.875
49
6.35
74
0
49
-3.175
74
0
49
0
74
0
49
-3.175
74
0
49
0
74
0
49
-3.175
74
0
0
LTYPE
5
3D
330
5
100
AcDbSymbolTableRecord
100
AcDbLinetypeTableRecord
2
DIVIDEX2
70
0
3
Divide (2x) ________  .  .  ________  .  .  _
72
65
73
6
40
63.5
49
25.4
74
0
49
-12.7
74
0
49
0
74
0
49
-12.7
74
0
49
0
74
0
49
-12.7
74
0
0
LTYPE
5
3E
330
5
100
AcDbSymbolTableRecord
100
AcDbLinetypeTableRecord
2
BORDER
70
0
3
Border __ __ . __ __ . __ __ . __ __ . __ __ .
72
65
73
6
40
44.45
49
12.7
74
0
49
-6.35
74
0
49
12.7
74
0
49
-6.35
74
0
49
0
74
0
49
-6.35
74
0
0
LTYPE
5
3F
330
5
100
AcDbSymbolTableRecord
100
AcDbLinetypeTableRecord
2
BORDER2
70
0
3
Border (.5x) __.__.__.__.__.__.__.__.__.__.__.
72
65
73
6
40
22.225
49
6.35
74
0
49
-3.175
74
0
49
6.35
74
0
49
-3.175
74
0
49
0
74
0
49
-3.175
74
0
0
LTYPE
5
40
330
5
100
AcDbSymbolTableRecord
100
AcDbLinetypeTableRecord
2
BORDERX2
70
0
3
Border (2x) ____  ____  .  ____  ____  .  ___
72
65
73
6
40
88.9
49
25.4
74
0
49
-12.7
74
0
49
25.4
74
0
49
-12.7
74
0
49
0
74
0
49
-12.7
74
0
0
LTYPE
5
41
330
5
100
AcDbSymbolTableRecord
100
AcDbLinetypeTableRecord
2
CENTER
70
0
3
Center ____ _ ____ _ ____ _ ____ _ ____ _ ____
72
65
73
4
40
50.8
49
31.75
74
0
49
-6.35
74
0
49
6.35
74
0
49
-6.35
74
0
0
LTYPE
5
42
330
5
100
AcDbSymbolTableRecord
100
AcDbLinetypeTableRecord
2
CENTER2
70
0
3
Center (.5x) ___ _ ___ _ ___ _ ___ _ ___ _ ___
72
65
73
4
40
28.575
49
19.05
74
0
49
-3.175
74
0
49
3.175
74
0
49
-3.175
74
0
0
LTYPE
5
43
330
5
100
AcDbSymbolTableRecord
100
AcDbLinetypeTableRecord
2
CENTERX2
70
0
3
Center (2x) ________  __  ________  __  _____
72
65
73
4
40
101.6
49
63.5
74
0
49
-12.7
74
0
49
12.7
74
0
49
-12.7
74
0
0
ENDTAB
0
TABLE
2
LAYER
5
2
330
0
100
AcDbSymbolTable
70
1
0
LAYER
5
10
330
2
100
AcDbSymbolTableRecord
100
AcDbLayerTableRecord
2
0
70
0
62
7
6
CONTINUOUS
370
0
390
F
0
ENDTAB
0
TABLE
2
STYLE
5
3
330
0
100
AcDbSymbolTable
70
3
0
STYLE
5
44
330
2
100
AcDbSymbolTableRecord
100
AcDbTextStyleTableRecord
2
Standard
70
0
40
0
41
1
50
0
71
0
42
1
3
txt
4

0
ENDTAB
0
TABLE
2
VIEW
5
6
330
0
100
AcDbSymbolTable
70
0
0
ENDTAB
0
TABLE
2
UCS
5
7
330
0
100
AcDbSymbolTable
70
0
0
ENDTAB
0
TABLE
2
APPID
5
9
330
0
100
AcDbSymbolTable
70
1
0
APPID
5
12
330
9
100
AcDbSymbolTableRecord
100
AcDbRegAppTableRecord
2
ACAD
70
0
0
ENDTAB
0
TABLE
2
DIMSTYLE
5
A
330
0
100
AcDbSymbolTable
70
1
100
AcDbDimStyleTable
71
1
0
DIMSTYLE
105
45
330
A
100
AcDbSymbolTableRecord
100
AcDbDimStyleTableRecord
2
Standard
70
0
40
1
41
2.5
42
0.625
43
0.38
44
1.25
45
0
46
0
47
0
48
0
140
2.5
141
0.09
142
0
143
25.4
144
1
145
0
146
1
147
0.625
148
0
71
0
72
0
73
0
74
1
75
0
76
0
77
0
78
0
79
0
170
0
171
2
172
0
173
0
174
0
175
0
176
0
177
0
178
0
179
0
271
4
272
4
273
2
274
2
275
0
276
0
277
2
278
46
279
0
280
0
281
0
282
0
283
1
284
0
285
0
286
0
288
0
289
3
340
Standard
341

371
-2
372
-2
0
ENDTAB
0
TABLE
2
BLOCK_RECORD
5
1
330
0
100
AcDbSymbolTable
70
2
0
BLOCK_RECORD
5
1F
330
1
100
AcDbSymbolTableRecord
100
AcDbBlockTableRecord
2
*Model_Space
70
0
280
1
281
0
0
BLOCK_RECORD
5
1E
330
1
100
AcDbSymbolTableRecord
100
AcDbBlockTableRecord
2
*Paper_Space
70
0
280
1
281
0
0
BLOCK_RECORD
5
46
330
1
100
AcDbSymbolTableRecord
100
AcDbBlockTableRecord
2
43gear-0
70
0
280
1
281
0
0
BLOCK_RECORD
5
49
330
1
100
AcDbSymbolTableRecord
100
AcDbBlockTableRecord
2
part10-0
70
0
280
1
281
0
0
BLOCK_RECORD
5
4C
330
1
100
AcDbSymbolTableRecord
100
AcDbBlockTableRecord
2
part13-0
70
0
280
1
281
0
0
BLOCK_RECORD
5
4F
330
1
100
AcDbSymbolTableRecord
100
AcDbBlockTableRecord
2
part14-0
70
0
280
1
281
0
0
BLOCK_RECORD
5
52
330
1
100
AcDbSymbolTableRecord
100
AcDbBlockTableRecord
2
part15-0
70
0
280
1
281
0
0
BLOCK_RECORD
5
55
330
1
100
AcDbSymbolTableRecord
100
AcDbBlockTableRecord
2
part20-0
70
0
280
1
281
0
0
BLOCK_RECORD
5
58
330
1
100
AcDbSymbolTableRecord
100
AcDbBlockTableRecord
2
part21-0
70
0
280
1
281
0
0
BLOCK_RECORD
5
5B
330
1
100
AcDbSymbolTableRecord
100
AcDbBlockTableRecord
2
part14_14-0
70
0
280
1
281
0
0
BLOCK_RECORD
5
5E
330
1
100
AcDbSymbolTableRecord
100
AcDbBlockTableRecord
2
part15_14-0
70
0
280
1
281
0
0
BLOCK_RECORD
5
61
330
1
100
AcDbSymbolTableRecord
100
AcDbBlockTableRecord
2
Крепление двигателя Y_Новое-0
70
0
280
1
281
0
0
ENDTAB
0
ENDSEC
0
SECTION
2
BLOCKS
0
BLOCK
5
20
330
1F
100
AcDbEntity
8
0
100
AcDbBlockBegin
2
*Model_Space
70
0
10
0
20
0
30
0
3
*Model_Space
1

0
ENDBLK
5
21
330
1F
100
AcDbEntity
8
0
100
AcDbBlockEnd
0
BLOCK
5
1C
330
1B
100
AcDbEntity
8
0
100
AcDbBlockBegin
2
*Paper_Space
70
0
10
0
20
0
30
0
3
*Paper_Space
1

0
ENDBLK
5
1D
330
1F
100
AcDbEntity
8
0
100
AcDbBlockEnd
0
BLOCK
5
47
330
46
100
AcDbEntity
8
0
100
AcDbBlockBegin
2
43gear-0
70
0
10
0
20
0
3
43gear-0
1

0
LWPOLYLINE
5
64
100
AcDbEntity
8
0
6
ByLayer
62
0
370
-1
100
AcDbPolyline
90
2
70
0
43
0
10
-1.63632303335
20
29.3921744444
10
-1.12860525555
20
30.8543677778
0
LWPOLYLINE
5
65
100
AcDbEntity
8
0
6
ByLayer
62
0
370
-1
100
AcDbPolyline
90
2
70
0
43
0
10
-2.66474081115
20
29.3168182889
10
-1.63632303335
20
29.3921744444
0
LWPOLYLINE
5
66
100
AcDbEntity
8
0
6
ByLayer
62
0
370
-1
100
AcDbPolyline
90
2
70
0
43
0
10
-1.12860525555
20
30.8543677778
10
-0.41260747775
20
32.3095027333
0
LWPOLYLINE
5
67
100
AcDbEntity
8
0
6
ByLayer
62
0
370
-1
100
AcDbPolyline
90
2
70
0
43
0
10
-4.30021858885
20
32.0250227333
10
-3.37989192225
20
30.6895471778
0
LWPOLYLINE
5
68
100
AcDbEntity
8
0
6
ByLayer
62
0
370
-1
100
AcDbPolyline
90
2
70
0
43
0
10
0.41261029995
20
32.3095027333
10
1.12860807775
20
30.8543677778
0
LWPOLYLINE
5
69
100
AcDbEntity
8
0
6
ByLayer
62
0
370
-1
100
AcDbPolyline
90
2
70
0
43
0
10
-7.81642525555
20
29.8699738444
10
-6.90908081115
20
28.6160605111
0
LWPOLYLINE
5
6A
100
AcDbEntity
8
0
6
ByLayer
62
0
370
-1
100
AcDbPolyline
90
2
70
0
43
0
10
-8.92132525555
20
31.0572827333
10
-7.81642525555
20
29.8699738444
0
LWPOLYLINE
5
6B
100
AcDbEntity
8
0
6
ByLayer
62
0
370
-1
100
AcDbPolyline
90
2
70
0
43
0
10
5.11640807775
20
31.9047960667
10
5.61311918885
20
30.3607582889
0
LWPOLYLINE
5
6C
100
AcDbEntity
8
0
6
ByLayer
62
0
370
-1
100
AcDbPolyline
90
2
70
0
43
0
10
5.61311918885
20
30.3607582889
10
5.90239696665
20
28.8401449555
0
LWPOLYLINE
5
6D
100
AcDbEntity
8
0
6
ByLayer
62
0
370
-1
100
AcDbPolyline
90
2
70
0
43
0
10
-12.0861652556
20
28.4134249555
10
-11.0061008111
20
27.3048560667
0
LWPOLYLINE
5
6E
100
AcDbEntity
8
0
6
ByLayer
62
0
370
-1
100
AcDbPolyline
90
2
70
0
43
0
10
-13.3524963667
20
29.4271671778
10
-12.0861652556
20
28.4134249555
0
LWPOLYLINE
5
6F
100
AcDbEntity
8
0
6
ByLayer
62
0
370
-1
100
AcDbPolyline
90
2
70
0
43
0
10
9.71155029995
20
30.8196516222
10
9.97796807775
20
29.2197338444
0
LWPOLYLINE
5
70
100
AcDbEntity
8
0
6
ByLayer
62
0
370
-1
100
AcDbPolyline
90
2
70
0
43
0
10
9.97796807775
20
29.2197338444
10
10.0428791888
20
27.6731560667
0
LWPOLYLINE
5
71
100
AcDbEntity
8
0
6
ByLayer
62
0
370
-1
100
AcDbPolyline
90
2
70
0
43
0
10
10.0428791888
20
27.6731560667
10
11.0061036333
20
27.3048560667
0
LWPOLYLINE
5
72
100
AcDbEntity
8
0
6
ByLayer
62
0
370
-1
100
AcDbPolyline
90
2
70
0
43
0
10
13.3524991889
20
29.4271671778
10
14.0995414111
20
29.0769294
0
LWPOLYLINE
5
73
100
AcDbEntity
8
0
6
ByLayer
62
0
370
-1
100
AcDbPolyline
90
2
70
0
43
0
10
-17.4989052555
20
27.1691071778
10
-16.0985185888
20
26.3503805111
0
LWPOLYLINE
5
74
100
AcDbEntity
8
0
6
ByLayer
62
0
370
-1
100
AcDbPolyline
90
2
70
0
43
0
10
14.0995414111
20
29.0769294
10
14.1300214112
20
27.4552805111
0
LWPOLYLINE
5
75
100
AcDbEntity
8
0
6
ByLayer
62
0
370
-1
100
AcDbPolyline
90
2
70
0
43
0
10
14.1300214112
20
27.4552805111
10
13.9691547444
20
25.9157582889
0
LWPOLYLINE
5
76
100
AcDbEntity
8
0
6
ByLayer
62
0
370
-1
100
AcDbPolyline
90
2
70
0
43
0
10
13.9691547444
20
25.9157582889
10
14.8683147445
20
25.4111449555
0
LWPOLYLINE
5
77
100
AcDbEntity
8
0
6
ByLayer
62
0
370
-1
100
AcDbPolyline
90
2
70
0
43
0
10
-17.5976830334
20
23.6054871778
10
-17.9812230333
20
25.1049338444
0
LWPOLYLINE
5
78
100
AcDbEntity
8
0
6
ByLayer
62
0
370
-1
100
AcDbPolyline
90
2
70
0
43
0
10
17.4989080777
20
27.1691071778
10
18.1869658555
20
26.7138827333
0
LWPOLYLINE
5
79
100
AcDbEntity
8
0
6
ByLayer
62
0
370
-1
100
AcDbPolyline
90
2
70
0
43
0
10
-21.2722163666
20
24.3313627333
10
-19.7676897
20
23.7254316222
0
LWPOLYLINE
5
7A
100
AcDbEntity
8
0
6
ByLayer
62
0
370
-1
100
AcDbPolyline
90
2
70
0
43
0
10
18.1869658555
20
26.7138827333
10
17.9812258556
20
25.1049338444
0
LWPOLYLINE
5
7B
100
AcDbEntity
8
0
6
ByLayer
62
0
370
-1
100
AcDbPolyline
90
2
70
0
43
0
10
17.9812258556
20
25.1049338444
10
17.5976858556
20
23.6054871778
0
LWPOLYLINE
5
7C
100
AcDbEntity
8
0
6
ByLayer
62
0
370
-1
100
AcDbPolyline
90
2
70
0
43
0
10
17.5976858556
20
23.6054871778
10
18.4138725222
20
22.9750027333
0
LWPOLYLINE
5
7D
100
AcDbEntity
8
0
6
ByLayer
62
0
370
-1
100
AcDbPolyline
90
2
70
0
43
0
10
21.2722191888
20
24.3313627333
10
21.8866169666
20
23.7807471778
0
LWPOLYLINE
5
7E
100
AcDbEntity
8
0
6
ByLayer
62
0
370
-1
100
AcDbPolyline
90
2
70
0
43
0
10
21.8866169666
20
23.7807471778
10
21.4488902999
20
22.2189294
0
LWPOLYLINE
5
7F
100
AcDbEntity
8
0
6
ByLayer
62
0
370
-1
100
AcDbPolyline
90
2
70
0
43
0
10
21.4488902999
20
22.2189294
10
20.8511436333
20
20.7911671778
0
LWPOLYLINE
5
80
100
AcDbEntity
8
0
6
ByLayer
62
0
370
-1
100
AcDbPolyline
90
2
70
0
43
0
10
-24.4596341445
20
18.8590738444
10
-25.1200341445
20
20.3404582889
0
LWPOLYLINE
5
81
100
AcDbEntity
8
0
6
ByLayer
62
0
370
-1
100
AcDbPolyline
90
2
70
0
43
0
10
20.8511436333
20
20.7911671778
10
21.5671414112
20
20.0489227333
0
LWPOLYLINE
5
82
100
AcDbEntity
8
0
6
ByLayer
62
0
370
-1
100
AcDbPolyline
90
2
70
0
43
0
10
24.5922814112
20
20.9746116222
10
25.1200369666
20
20.3404582889
0
LWPOLYLINE
5
83
100
AcDbEntity
8
0
6
ByLayer
62
0
370
-1
100
AcDbPolyline
90
2
70
0
43
0
10
25.1200369666
20
20.3404582889
10
24.4596369666
20
18.8590738444
0
LWPOLYLINE
5
84
100
AcDbEntity
8
0
6
ByLayer
62
0
370
-1
100
AcDbPolyline
90
2
70
0
43
0
10
-27.8180785888
20
16.4658294
10
-27.3882541445
20
17.1699738444
0
LWPOLYLINE
5
85
100
AcDbEntity
8
0
6
ByLayer
62
0
370
-1
100
AcDbPolyline
90
2
70
0
43
0
10
24.4596369666
20
18.8590738444
10
23.6603836333
20
17.5334760667
0
LWPOLYLINE
5
86
100
AcDbEntity
8
0
6
ByLayer
62
0
370
-1
100
AcDbPolyline
90
2
70
0
43
0
10
23.6603836333
20
17.5334760667
10
24.2603880778
20
16.6947116222
0
LWPOLYLINE
5
87
100
AcDbEntity
8
0
6
ByLayer
62
0
370
-1
100
AcDbPolyline
90
2
70
0
43
0
10
-26.4366008112
20
12.9843360667
10
-25.9652897001
20
13.9012760667
0
LWPOLYLINE
5
88
100
AcDbEntity
8
0
6
ByLayer
62
0
370
-1
100
AcDbPolyline
90
2
70
0
43
0
10
27.3882569666
20
17.1699738444
10
27.8180814111
20
16.4658294
0
LWPOLYLINE
5
89
100
AcDbEntity
8
0
6
ByLayer
62
0
370
-1
100
AcDbPolyline
90
2
70
0
43
0
10
27.8180814111
20
16.4658294
10
26.9488369666
20
15.0964871778
0
LWPOLYLINE
5
8A
100
AcDbEntity
8
0
6
ByLayer
62
0
370
-1
100
AcDbPolyline
90
2
70
0
43
0
10
26.9488369666
20
15.0964871778
10
25.9652925222
20
13.9012760667
0
LWPOLYLINE
5
8B
100
AcDbEntity
8
0
6
ByLayer
62
0
370
-1
100
AcDbPolyline
90
2
70
0
43
0
10
25.9652925222
20
13.9012760667
10
26.4366036333
20
12.9843360667
0
LWPOLYLINE
5
8C
100
AcDbEntity
8
0
6
ByLayer
62
0
370
-1
100
AcDbPolyline
90
2
70
0
43
0
10
-27.7167608111
20
9.97246051111
10
-28.8637119223
20
11.0113205111
0
LWPOLYLINE
5
8D
100
AcDbEntity
8
0
6
ByLayer
62
0
370
-1
100
AcDbPolyline
90
2
70
0
43
0
10
29.6005969666
20
12.9990116222
10
29.9231769666
20
12.2395516222
0
LWPOLYLINE
5
8E
100
AcDbEntity
8
0
6
ByLayer
62
0
370
-1
100
AcDbPolyline
90
2
70
0
43
0
10
29.9231769666
20
12.2395516222
10
28.8637147445
20
11.0113205111
0
LWPOLYLINE
5
8F
100
AcDbEntity
8
0
6
ByLayer
62
0
370
-1
100
AcDbPolyline
90
2
70
0
43
0
10
28.8637147445
20
11.0113205111
10
27.7167636333
20
9.97246051111
0
LWPOLYLINE
5
90
100
AcDbEntity
8
0
6
ByLayer
62
0
370
-1
100
AcDbPolyline
90
2
70
0
43
0
10
-30.1636274777
20
6.69106273331
10
-31.3904474778
20
7.75221828891
0
LWPOLYLINE
5
91
100
AcDbEntity
8
0
6
ByLayer
62
0
370
-1
100
AcDbPolyline
90
2
70
0
43
0
10
-28.8772585888
20
5.83028777781
10
-30.1636274777
20
6.69106273331
0
LWPOLYLINE
5
92
100
AcDbEntity
8
0
6
ByLayer
62
0
370
-1
100
AcDbPolyline
90
2
70
0
43
0
10
29.5926947445
20
8.87489828891
10
31.1818880778
20
8.55034273331
0
LWPOLYLINE
5
93
100
AcDbEntity
8
0
6
ByLayer
62
0
370
-1
100
AcDbPolyline
90
2
70
0
43
0
10
31.1818880778
20
8.55034273331
10
31.3904503
20
7.75221828891
0
LWPOLYLINE
5
94
100
AcDbEntity
8
0
6
ByLayer
62
0
370
-1
100
AcDbPolyline
90
2
70
0
43
0
10
31.3904503
20
7.75221828891
10
30.1636303
20
6.69106273331
0
LWPOLYLINE
5
95
100
AcDbEntity
8
0
6
ByLayer
62
0
370
-1
100
AcDbPolyline
90
2
70
0
43
0
10
30.1636303
20
6.69106273331
10
28.8772614112
20
5.83028777781
0
LWPOLYLINE
5
96
100
AcDbEntity
8
0
6
ByLayer
62
0
370
-1
100
AcDbPolyline
90
2
70
0
43
0
10
28.8772614112
20
5.83028777781
10
29.0646569666
20
4.81597828889
0
LWPOLYLINE
5
97
100
AcDbEntity
8
0
6
ByLayer
62
0
370
-1
100
AcDbPolyline
90
2
70
0
43
0
10
-29.4225119222
20
1.56308777778
10
-30.8203585888
20
2.22772111111
0
LWPOLYLINE
5
98
100
AcDbEntity
8
0
6
ByLayer
62
0
370
-1
100
AcDbPolyline
90
2
70
0
43
0
10
32.0985458556
20
3.91879666667
10
32.1888569667
20
3.09865888889
0
LWPOLYLINE
5
99
100
AcDbEntity
8
0
6
ByLayer
62
0
370
-1
100
AcDbPolyline
90
2
70
0
43
0
10
32.1888569667
20
3.09865888889
10
30.8203614111
20
2.22772111111
0
LWPOLYLINE
5
9A
100
AcDbEntity
8
0
6
ByLayer
62
0
370
-1
100
AcDbPolyline
90
2
70
0
43
0
10
30.8203614111
20
2.22772111111
10
29.4225147444
20
1.56308777778
0
LWPOLYLINE
5
9B
100
AcDbEntity
8
0
6
ByLayer
62
0
370
-1
100
AcDbPolyline
90
2
70
0
43
0
10
-30.8203585888
20
-2.28388333333
10
-32.3008963666
20
-1.62122555556
0
LWPOLYLINE
5
9C
100
AcDbEntity
8
0
6
ByLayer
62
0
370
-1
100
AcDbPolyline
90
2
70
0
43
0
10
29.4225147444
20
1.56308777778
10
29.4603325222
20
0.532694444443
0
LWPOLYLINE
5
9D
100
AcDbEntity
8
0
6
ByLayer
62
0
370
-1
100
AcDbPolyline
90
2
70
0
43
0
10
-29.3406674778
20
-2.73769666667
10
-30.8203585888
20
-2.28388333333
0
LWPOLYLINE
5
9E
100
AcDbEntity
8
0
6
ByLayer
62
0
370
-1
100
AcDbPolyline
90
2
70
0
43
0
10
29.4603325222
20
0.532694444443
10
30.9030525223
20
-0.028081111107
0
LWPOLYLINE
5
9F
100
AcDbEntity
8
0
6
ByLayer
62
0
370
-1
100
AcDbPolyline
90
2
70
0
43
0
10
30.9030525223
20
-0.028081111107
10
32.3310969667
20
-0.796854444447
0
LWPOLYLINE
5
A0
100
AcDbEntity
8
0
6
ByLayer
62
0
370
-1
100
AcDbPolyline
90
2
70
0
43
0
10
32.3310969667
20
-0.796854444447
10
32.3008991889
20
-1.62122555556
0
LWPOLYLINE
5
A1
100
AcDbEntity
8
0
6
ByLayer
62
0
370
-1
100
AcDbPolyline
90
2
70
0
43
0
10
32.3008991889
20
-1.62122555556
10
30.8203614111
20
-2.28388333333
0
LWPOLYLINE
5
A2
100
AcDbEntity
8
0
6
ByLayer
62
0
370
-1
100
AcDbPolyline
90
2
70
0
43
0
10
-31.7248808112
20
-6.30752555556
10
-31.8747408112
20
-5.49613666666
0
LWPOLYLINE
5
A3
100
AcDbEntity
8
0
6
ByLayer
62
0
370
-1
100
AcDbPolyline
90
2
70
0
43
0
10
30.8203614111
20
-2.28388333333
10
29.3406702999
20
-2.73769666667
0
LWPOLYLINE
5
A4
100
AcDbEntity
8
0
6
ByLayer
62
0
370
-1
100
AcDbPolyline
90
2
70
0
43
0
10
-30.1636274777
20
-6.74722777778
10
-31.7248808112
20
-6.30752555556
0
LWPOLYLINE
5
A5
100
AcDbEntity
8
0
6
ByLayer
62
0
370
-1
100
AcDbPolyline
90
2
70
0
43
0
10
-28.6334185889
20
-6.98090777778
10
-30.1636274777
20
-6.74722777778
0
LWPOLYLINE
5
A6
100
AcDbEntity
8
0
6
ByLayer
62
0
370
-1
100
AcDbPolyline
90
2
70
0
43
0
10
29.2280636333
20
-3.76272777778
10
30.5736991889
20
-4.52755
0
LWPOLYLINE
5
A7
100
AcDbEntity
8
0
6
ByLayer
62
0
370
-1
100
AcDbPolyline
90
2
70
0
43
0
10
-28.3726452555
20
-7.97856418
10
-28.6334185889
20
-6.98090777778
0
LWPOLYLINE
5
A8
100
AcDbEntity
8
0
6
ByLayer
62
0
370
-1
100
AcDbPolyline
90
2
70
0
43
0
10
30.5736991889
20
-4.52755
10
31.8747436333
20
-5.49613666666
0
LWPOLYLINE
5
A9
100
AcDbEntity
8
0
6
ByLayer
62
0
370
-1
100
AcDbPolyline
90
2
70
0
43
0
10
31.8747436333
20
-5.49613666666
10
31.7248836333
20
-6.30752555556
0
LWPOLYLINE
5
AA
100
AcDbEntity
8
0
6
ByLayer
62
0
370
-1
100
AcDbPolyline
90
2
70
0
43
0
10
31.7248836333
20
-6.30752555556
10
30.1636303
20
-6.74722777778
0
LWPOLYLINE
5
AB
100
AcDbEntity
8
0
6
ByLayer
62
0
370
-1
100
AcDbPolyline
90
2
70
0
43
0
10
30.1636303
20
-6.74722777778
10
28.6334214111
20
-6.98090777778
0
LWPOLYLINE
5
AC
100
AcDbEntity
8
0
6
ByLayer
62
0
370
-1
100
AcDbPolyline
90
2
70
0
43
0
10
-28.8637119223
20
-11.0674864022
10
-30.4723785889
20
-10.8597708467
0
LWPOLYLINE
5
AD
100
AcDbEntity
8
0
6
ByLayer
62
0
370
-1
100
AcDbPolyline
90
2
70
0
43
0
10
28.6334214111
20
-6.98090777778
10
28.3726480778
20
-7.97856418
0
LWPOLYLINE
5
AE
100
AcDbEntity
8
0
6
ByLayer
62
0
370
-1
100
AcDbPolyline
90
2
70
0
43
0
10
-27.3160052555
20
-11.0759530689
10
-28.8637119223
20
-11.0674864022
0
LWPOLYLINE
5
AF
100
AcDbEntity
8
0
6
ByLayer
62
0
370
-1
100
AcDbPolyline
90
2
70
0
43
0
10
28.3726480778
20
-7.97856418
10
29.5926947445
20
-8.93106418
0
LWPOLYLINE
5
B0
100
AcDbEntity
8
0
6
ByLayer
62
0
370
-1
100
AcDbPolyline
90
2
70
0
43
0
10
29.5926947445
20
-8.93106418
10
30.7387991888
20
-10.0788619578
0
LWPOLYLINE
5
B1
100
AcDbEntity
8
0
6
ByLayer
62
0
370
-1
100
AcDbPolyline
90
2
70
0
43
0
10
30.7387991888
20
-10.0788619578
10
30.4723814111
20
-10.8597708467
0
LWPOLYLINE
5
B2
100
AcDbEntity
8
0
6
ByLayer
62
0
370
-1
100
AcDbPolyline
90
2
70
0
43
0
10
30.4723814111
20
-10.8597708467
10
28.8637147445
20
-11.0674864022
0
LWPOLYLINE
5
B3
100
AcDbEntity
8
0
6
ByLayer
62
0
370
-1
100
AcDbPolyline
90
2
70
0
43
0
10
-26.9488341445
20
-15.1526530689
10
-28.5707652556
20
-15.1811575133
0
LWPOLYLINE
5
B4
100
AcDbEntity
8
0
6
ByLayer
62
0
370
-1
100
AcDbPolyline
90
2
70
0
43
0
10
27.3160080777
20
-11.0759530689
10
26.9127125222
20
-12.0250664022
0
LWPOLYLINE
5
B5
100
AcDbEntity
8
0
6
ByLayer
62
0
370
-1
100
AcDbPolyline
90
2
70
0
43
0
10
-25.4163674778
20
-14.9353419578
10
-26.9488341445
20
-15.1526530689
0
LWPOLYLINE
5
B6
100
AcDbEntity
8
0
6
ByLayer
62
0
370
-1
100
AcDbPolyline
90
2
70
0
43
0
10
27.9809236333
20
-13.14492418
10
28.9478169666
20
-14.4473797356
0
LWPOLYLINE
5
B7
100
AcDbEntity
8
0
6
ByLayer
62
0
370
-1
100
AcDbPolyline
90
2
70
0
43
0
10
28.9478169666
20
-14.4473797356
10
28.5707680777
20
-15.1811575133
0
LWPOLYLINE
5
B8
100
AcDbEntity
8
0
6
ByLayer
62
0
370
-1
100
AcDbPolyline
90
2
70
0
43
0
10
28.5707680777
20
-15.1811575133
10
26.9488369666
20
-15.1526530689
0
LWPOLYLINE
5
B9
100
AcDbEntity
8
0
6
ByLayer
62
0
370
-1
100
AcDbPolyline
90
2
70
0
43
0
10
-24.4596341445
20
-18.9152397356
10
-26.0598341444
20
-19.1793997356
0
LWPOLYLINE
5
BA
100
AcDbEntity
8
0
6
ByLayer
62
0
370
-1
100
AcDbPolyline
90
2
70
0
43
0
10
25.4163702999
20
-14.9353419578
10
24.8793014111
20
-15.8155930689
0
LWPOLYLINE
5
BB
100
AcDbEntity
8
0
6
ByLayer
62
0
370
-1
100
AcDbPolyline
90
2
70
0
43
0
10
-22.9748630333
20
-18.4772308467
10
-24.4596341445
20
-18.9152397356
0
LWPOLYLINE
5
BC
100
AcDbEntity
8
0
6
ByLayer
62
0
370
-1
100
AcDbPolyline
90
2
70
0
43
0
10
24.8793014111
20
-15.8155930689
10
25.7730991888
20
-17.07938418
0
LWPOLYLINE
5
BD
100
AcDbEntity
8
0
6
ByLayer
62
0
370
-1
100
AcDbPolyline
90
2
70
0
43
0
10
25.7730991888
20
-17.07938418
10
26.5398969666
20
-18.5085575133
0
LWPOLYLINE
5
BE
100
AcDbEntity
8
0
6
ByLayer
62
0
370
-1
100
AcDbPolyline
90
2
70
0
43
0
10
26.5398969666
20
-18.5085575133
10
26.0598369666
20
-19.1793997356
0
LWPOLYLINE
5
BF
100
AcDbEntity
8
0
6
ByLayer
62
0
370
-1
100
AcDbPolyline
90
2
70
0
43
0
10
26.0598369666
20
-19.1793997356
10
24.4596369666
20
-18.9152397356
0
LWPOLYLINE
5
C0
100
AcDbEntity
8
0
6
ByLayer
62
0
370
-1
100
AcDbPolyline
90
2
70
0
43
0
10
24.4596369666
20
-18.9152397356
10
22.9748658556
20
-18.4772308467
0
LWPOLYLINE
5
C1
100
AcDbEntity
8
0
6
ByLayer
62
0
370
-1
100
AcDbPolyline
90
2
70
0
43
0
10
-21.4488874777
20
-22.2750952911
10
-22.9937719222
20
-22.7698308467
0
LWPOLYLINE
5
C2
100
AcDbEntity
8
0
6
ByLayer
62
0
370
-1
100
AcDbPolyline
90
2
70
0
43
0
10
22.9748658556
20
-18.4772308467
10
22.3153125223
20
-19.2699930689
0
LWPOLYLINE
5
C3
100
AcDbEntity
8
0
6
ByLayer
62
0
370
-1
100
AcDbPolyline
90
2
70
0
43
0
10
-20.0439852555
20
-21.6257019578
10
-21.4488874777
20
-22.2750952911
0
LWPOLYLINE
5
C4
100
AcDbEntity
8
0
6
ByLayer
62
0
370
-1
100
AcDbPolyline
90
2
70
0
43
0
10
22.3153125223
20
-19.2699930689
10
23.0157880777
20
-20.6500597356
0
LWPOLYLINE
5
C5
100
AcDbEntity
8
0
6
ByLayer
62
0
370
-1
100
AcDbPolyline
90
2
70
0
43
0
10
23.0157880777
20
-20.6500597356
10
23.5664036333
20
-22.1757530689
0
LWPOLYLINE
5
C6
100
AcDbEntity
8
0
6
ByLayer
62
0
370
-1
100
AcDbPolyline
90
2
70
0
43
0
10
23.5664036333
20
-22.1757530689
10
22.9937747445
20
-22.7698308467
0
LWPOLYLINE
5
C7
100
AcDbEntity
8
0
6
ByLayer
62
0
370
-1
100
AcDbPolyline
90
2
70
0
43
0
10
22.9937747445
20
-22.7698308467
10
21.4488902999
20
-22.2750952911
0
LWPOLYLINE
5
C8
100
AcDbEntity
8
0
6
ByLayer
62
0
370
-1
100
AcDbPolyline
90
2
70
0
43
0
10
-19.4374897001
20
-25.87540418
10
-20.0905519223
20
-25.3710730689
0
LWPOLYLINE
5
C9
100
AcDbEntity
8
0
6
ByLayer
62
0
370
-1
100
AcDbPolyline
90
2
70
0
43
0
10
21.4488902999
20
-22.2750952911
10
20.0439880778
20
-21.6257019578
0
LWPOLYLINE
5
CA
100
AcDbEntity
8
0
6
ByLayer
62
0
370
-1
100
AcDbPolyline
90
2
70
0
43
0
10
-17.9812230333
20
-25.1610997356
10
-19.4374897001
20
-25.87540418
0
LWPOLYLINE
5
CB
100
AcDbEntity
8
0
6
ByLayer
62
0
370
-1
100
AcDbPolyline
90
2
70
0
43
0
10
20.0439880778
20
-21.6257019578
10
19.2757791888
20
-22.3140419578
0
LWPOLYLINE
5
CC
100
AcDbEntity
8
0
6
ByLayer
62
0
370
-1
100
AcDbPolyline
90
2
70
0
43
0
10
-16.6858230333
20
-24.3141508467
10
-17.9812230333
20
-25.1610997356
0
LWPOLYLINE
5
CD
100
AcDbEntity
8
0
6
ByLayer
62
0
370
-1
100
AcDbPolyline
90
2
70
0
43
0
10
-15.8256097001
20
-24.8831108467
10
-16.6858230333
20
-24.3141508467
0
LWPOLYLINE
5
CE
100
AcDbEntity
8
0
6
ByLayer
62
0
370
-1
100
AcDbPolyline
90
2
70
0
43
0
10
20.0905547444
20
-25.3710730689
10
19.4374925223
20
-25.87540418
0
LWPOLYLINE
5
CF
100
AcDbEntity
8
0
6
ByLayer
62
0
370
-1
100
AcDbPolyline
90
2
70
0
43
0
10
-15.4669052556
20
-28.4300797356
10
-16.1862897001
20
-28.0262197356
0
LWPOLYLINE
5
D0
100
AcDbEntity
8
0
6
ByLayer
62
0
370
-1
100
AcDbPolyline
90
2
70
0
43
0
10
17.9812258556
20
-25.1610997356
10
16.6858258556
20
-24.3141508467
0
LWPOLYLINE
5
D1
100
AcDbEntity
8
0
6
ByLayer
62
0
370
-1
100
AcDbPolyline
90
2
70
0
43
0
10
-14.1300185888
20
-27.5114464022
10
-15.4669052556
20
-28.4300797356
0
LWPOLYLINE
5
D2
100
AcDbEntity
8
0
6
ByLayer
62
0
370
-1
100
AcDbPolyline
90
2
70
0
43
0
10
16.6858258556
20
-24.3141508467
10
15.8256125223
20
-24.8831108467
0
LWPOLYLINE
5
D3
100
AcDbEntity
8
0
6
ByLayer
62
0
370
-1
100
AcDbPolyline
90
2
70
0
43
0
10
-12.9717785889
20
-26.4847219578
10
-14.1300185888
20
-27.5114464022
0
LWPOLYLINE
5
D4
100
AcDbEntity
8
0
6
ByLayer
62
0
370
-1
100
AcDbPolyline
90
2
70
0
43
0
10
15.8256125223
20
-24.8831108467
10
16.0985214111
20
-26.4065464022
0
LWPOLYLINE
5
D5
100
AcDbEntity
8
0
6
ByLayer
62
0
370
-1
100
AcDbPolyline
90
2
70
0
43
0
10
16.0985214111
20
-26.4065464022
10
16.1862925222
20
-28.0262197356
0
LWPOLYLINE
5
D6
100
AcDbEntity
8
0
6
ByLayer
62
0
370
-1
100
AcDbPolyline
90
2
70
0
43
0
10
16.1862925222
20
-28.0262197356
10
15.4669080777
20
-28.4300797356
0
LWPOLYLINE
5
D7
100
AcDbEntity
8
0
6
ByLayer
62
0
370
-1
100
AcDbPolyline
90
2
70
0
43
0
10
-11.1666852556
20
-30.3793886245
10
-11.9371519223
20
-30.0847486245
0
LWPOLYLINE
5
D8
100
AcDbEntity
8
0
6
ByLayer
62
0
370
-1
100
AcDbPolyline
90
2
70
0
43
0
10
-9.97796525555
20
-29.2758997356
10
-11.1666852556
20
-30.3793886245
0
LWPOLYLINE
5
D9
100
AcDbEntity
8
0
6
ByLayer
62
0
370
-1
100
AcDbPolyline
90
2
70
0
43
0
10
12.9717814111
20
-26.4847219578
10
12.0381902999
20
-26.9224486245
0
LWPOLYLINE
5
DA
100
AcDbEntity
8
0
6
ByLayer
62
0
370
-1
100
AcDbPolyline
90
2
70
0
43
0
10
-8.98143858885
20
-28.0914130689
10
-9.97796525555
20
-29.2758997356
0
LWPOLYLINE
5
DB
100
AcDbEntity
8
0
6
ByLayer
62
0
370
-1
100
AcDbPolyline
90
2
70
0
43
0
10
12.0381902999
20
-26.9224486245
10
12.0861680777
20
-28.4695908467
0
LWPOLYLINE
5
DC
100
AcDbEntity
8
0
6
ByLayer
62
0
370
-1
100
AcDbPolyline
90
2
70
0
43
0
10
-7.99394303335
20
-28.3885930689
10
-8.98143858885
20
-28.0914130689
0
LWPOLYLINE
5
DD
100
AcDbEntity
8
0
6
ByLayer
62
0
370
-1
100
AcDbPolyline
90
2
70
0
43
0
10
12.0861680777
20
-28.4695908467
10
11.9371547444
20
-30.0847486245
0
LWPOLYLINE
5
DE
100
AcDbEntity
8
0
6
ByLayer
62
0
370
-1
100
AcDbPolyline
90
2
70
0
43
0
10
11.9371547444
20
-30.0847486245
10
11.1666880777
20
-30.3793886245
0
LWPOLYLINE
5
DF
100
AcDbEntity
8
0
6
ByLayer
62
0
370
-1
100
AcDbPolyline
90
2
70
0
43
0
10
-6.62855192225
20
-31.68184418
10
-7.43373192225
20
-31.5023508467
0
LWPOLYLINE
5
E0
100
AcDbEntity
8
0
6
ByLayer
62
0
370
-1
100
AcDbPolyline
90
2
70
0
43
0
10
-5.61311636665
20
-30.41692418
10
-6.62855192225
20
-31.68184418
0
LWPOLYLINE
5
E1
100
AcDbEntity
8
0
6
ByLayer
62
0
370
-1
100
AcDbPolyline
90
2
70
0
43
0
10
8.98144141115
20
-28.0914130689
10
7.99394585555
20
-28.3885930689
0
LWPOLYLINE
5
E2
100
AcDbEntity
8
0
6
ByLayer
62
0
370
-1
100
AcDbPolyline
90
2
70
0
43
0
10
-4.79975192225
20
-29.1000752911
10
-5.61311636665
20
-30.41692418
0
LWPOLYLINE
5
E3
100
AcDbEntity
8
0
6
ByLayer
62
0
370
-1
100
AcDbPolyline
90
2
70
0
43
0
10
7.99394585555
20
-28.3885930689
10
7.81642807775
20
-29.9261397356
0
LWPOLYLINE
5
E4
100
AcDbEntity
8
0
6
ByLayer
62
0
370
-1
100
AcDbPolyline
90
2
70
0
43
0
10
-3.77951858885
20
-29.2502175133
10
-4.79975192225
20
-29.1000752911
0
LWPOLYLINE
5
E5
100
AcDbEntity
8
0
6
ByLayer
62
0
370
-1
100
AcDbPolyline
90
2
70
0
43
0
10
7.81642807775
20
-29.9261397356
10
7.43373474445
20
-31.5023508467
0
LWPOLYLINE
5
E6
100
AcDbEntity
8
0
6
ByLayer
62
0
370
-1
100
AcDbPolyline
90
2
70
0
43
0
10
-3.37989192225
20
-30.7457130689
10
-3.77951858885
20
-29.2502175133
0
LWPOLYLINE
5
E7
100
AcDbEntity
8
0
6
ByLayer
62
0
370
-1
100
AcDbPolyline
90
2
70
0
43
0
10
7.43373474445
20
-31.5023508467
10
6.62855474445
20
-31.68184418
0
LWPOLYLINE
5
E8
100
AcDbEntity
8
0
6
ByLayer
62
0
370
-1
100
AcDbPolyline
90
2
70
0
43
0
10
-2.77198525555
20
-32.2493930689
10
-3.37989192225
20
-30.7457130689
0
LWPOLYLINE
5
E9
100
AcDbEntity
8
0
6
ByLayer
62
0
370
-1
100
AcDbPolyline
90
2
70
0
43
0
10
-1.94902525555
20
-32.3095064022
10
-2.77198525555
20
-32.2493930689
0
LWPOLYLINE
5
EA
100
AcDbEntity
8
0
6
ByLayer
62
0
370
-1
100
AcDbPolyline
90
2
70
0
43
0
10
-1.12860525555
20
-30.9105308467
10
-1.94902525555
20
-32.3095064022
0
LWPOLYLINE
5
EB
100
AcDbEntity
8
0
6
ByLayer
62
0
370
-1
100
AcDbPolyline
90
2
70
0
43
0
10
4.79975474445
20
-29.1000752911
10
3.77952141115
20
-29.2502175133
0
LWPOLYLINE
5
EC
100
AcDbEntity
8
0
6
ByLayer
62
0
370
-1
100
AcDbPolyline
90
2
70
0
43
0
10
-0.51561858885
20
-29.4892597356
10
-1.12860525555
20
-30.9105308467
0
LWPOLYLINE
5
ED
100
AcDbEntity
8
0
6
ByLayer
62
0
370
-1
100
AcDbPolyline
90
2
70
0
43
0
10
3.77952141115
20
-29.2502175133
10
3.37989474445
20
-30.7457130689
0
LWPOLYLINE
5
EE
100
AcDbEntity
8
0
6
ByLayer
62
0
370
-1
100
AcDbPolyline
90
2
70
0
43
0
10
0.51562141115
20
-29.4892597356
10
-0.51561858885
20
-29.4892597356
0
LWPOLYLINE
5
EF
100
AcDbEntity
8
0
6
ByLayer
62
0
370
-1
100
AcDbPolyline
90
2
70
0
43
0
10
2.77198807775
20
-32.2493930689
10
1.94902807775
20
-32.3095064022
0
LWPOLYLINE
5
F0
100
AcDbEntity
8
0
6
ByLayer
62
0
370
-1
100
AcDbPolyline
90
2
70
0
43
0
10
-7.00439572225
20
4.04399044444
10
1.41114999508e-06
20
8.08797806671
0
LWPOLYLINE
5
F1
100
AcDbEntity
8
0
6
ByLayer
62
0
370
-1
100
AcDbPolyline
90
2
70
0
43
0
10
-7.00439572225
20
-4.04399044444
10
-7.00439572225
20
4.04399044444
0
LWPOLYLINE
5
F2
100
AcDbEntity
8
0
6
ByLayer
62
0
370
-1
100
AcDbPolyline
90
2
70
0
43
0
10
-3.37989192225
20
30.6895471778
10
-2.66474081115
20
29.3168182889
0
LWPOLYLINE
5
F3
100
AcDbEntity
8
0
6
ByLayer
62
0
370
-1
100
AcDbPolyline
90
2
70
0
43
0
10
-0.41260747775
20
32.3095027333
10
0.41261029995
20
32.3095027333
0
LWPOLYLINE
5
F4
100
AcDbEntity
8
0
6
ByLayer
62
0
370
-1
100
AcDbPolyline
90
2
70
0
43
0
10
-4.30021858885
20
32.0250227333
10
-3.37989192225
20
30.6895471778
0
LWPOLYLINE
5
F5
100
AcDbEntity
8
0
6
ByLayer
62
0
370
-1
100
AcDbPolyline
90
2
70
0
43
0
10
0.41261029995
20
32.3095027333
10
1.12860807775
20
30.8543677778
0
LWPOLYLINE
5
F6
100
AcDbEntity
8
0
6
ByLayer
62
0
370
-1
100
AcDbPolyline
90
2
70
0
43
0
10
-5.11640525555
20
31.9047960667
10
-4.30021858885
20
32.0250227333
0
LWPOLYLINE
5
F7
100
AcDbEntity
8
0
6
ByLayer
62
0
370
-1
100
AcDbPolyline
90
2
70
0
43
0
10
1.12860807775
20
30.8543677778
10
1.63632585555
20
29.3921744444
0
LWPOLYLINE
5
F8
100
AcDbEntity
8
0
6
ByLayer
62
0
370
-1
100
AcDbPolyline
90
2
70
0
43
0
10
-5.61311636665
20
30.3607582889
10
-5.11640525555
20
31.9047960667
0
LWPOLYLINE
5
F9
100
AcDbEntity
8
0
6
ByLayer
62
0
370
-1
100
AcDbPolyline
90
2
70
0
43
0
10
1.63632585555
20
29.3921744444
10
2.66474363335
20
29.3168182889
0
LWPOLYLINE
5
FA
100
AcDbEntity
8
0
6
ByLayer
62
0
370
-1
100
AcDbPolyline
90
2
70
0
43
0
10
-5.90239414445
20
28.8401449555
10
-5.61311636665
20
30.3607582889
0
LWPOLYLINE
5
FB
100
AcDbEntity
8
0
6
ByLayer
62
0
370
-1
100
AcDbPolyline
90
2
70
0
43
0
10
2.66474363335
20
29.3168182889
10
3.37989474445
20
30.6895471778
0
LWPOLYLINE
5
FC
100
AcDbEntity
8
0
6
ByLayer
62
0
370
-1
100
AcDbPolyline
90
2
70
0
43
0
10
-6.90908081115
20
28.6160605111
10
-5.90239414445
20
28.8401449555
0
LWPOLYLINE
5
FD
100
AcDbEntity
8
0
6
ByLayer
62
0
370
-1
100
AcDbPolyline
90
2
70
0
43
0
10
3.37989474445
20
30.6895471778
10
4.30022141115
20
32.0250227333
0
LWPOLYLINE
5
FE
100
AcDbEntity
8
0
6
ByLayer
62
0
370
-1
100
AcDbPolyline
90
2
70
0
43
0
10
-7.81642525555
20
29.8699738444
10
-6.90908081115
20
28.6160605111
0
LWPOLYLINE
5
FF
100
AcDbEntity
8
0
6
ByLayer
62
0
370
-1
100
AcDbPolyline
90
2
70
0
43
0
10
4.30022141115
20
32.0250227333
10
5.11640807775
20
31.9047960667
0
LWPOLYLINE
5
100
100
AcDbEntity
8
0
6
ByLayer
62
0
370
-1
100
AcDbPolyline
90
2
70
0
43
0
10
-8.92132525555
20
31.0572827333
10
-7.81642525555
20
29.8699738444
0
LWPOLYLINE
5
101
100
AcDbEntity
8
0
6
ByLayer
62
0
370
-1
100
AcDbPolyline
90
2
70
0
43
0
10
5.11640807775
20
31.9047960667
10
5.61311918885
20
30.3607582889
0
LWPOLYLINE
5
102
100
AcDbEntity
8
0
6
ByLayer
62
0
370
-1
100
AcDbPolyline
90
2
70
0
43
0
10
-9.71154747775
20
30.8196516222
10
-8.92132525555
20
31.0572827333
0
LWPOLYLINE
5
103
100
AcDbEntity
8
0
6
ByLayer
62
0
370
-1
100
AcDbPolyline
90
2
70
0
43
0
10
5.61311918885
20
30.3607582889
10
5.90239696665
20
28.8401449555
0
LWPOLYLINE
5
104
100
AcDbEntity
8
0
6
ByLayer
62
0
370
-1
100
AcDbPolyline
90
2
70
0
43
0
10
-9.97796525555
20
29.2197338444
10
-9.71154747775
20
30.8196516222
0
LWPOLYLINE
5
105
100
AcDbEntity
8
0
6
ByLayer
62
0
370
-1
100
AcDbPolyline
90
2
70
0
43
0
10
5.90239696665
20
28.8401449555
10
6.90908363335
20
28.6160605111
0
LWPOLYLINE
5
106
100
AcDbEntity
8
0
6
ByLayer
62
0
370
-1
100
AcDbPolyline
90
2
70
0
43
0
10
-10.0428763666
20
27.6731560667
10
-9.97796525555
20
29.2197338444
0
LWPOLYLINE
5
107
100
AcDbEntity
8
0
6
ByLayer
62
0
370
-1
100
AcDbPolyline
90
2
70
0
43
0
10
6.90908363335
20
28.6160605111
10
7.81642807775
20
29.8699738444
0
LWPOLYLINE
5
108
100
AcDbEntity
8
0
6
ByLayer
62
0
370
-1
100
AcDbPolyline
90
2
70
0
43
0
10
-11.0061008111
20
27.3048560667
10
-10.0428763666
20
27.6731560667
0
LWPOLYLINE
5
109
100
AcDbEntity
8
0
6
ByLayer
62
0
370
-1
100
AcDbPolyline
90
2
70
0
43
0
10
7.81642807775
20
29.8699738444
10
8.92132807775
20
31.0572827333
0
LWPOLYLINE
5
10A
100
AcDbEntity
8
0
6
ByLayer
62
0
370
-1
100
AcDbPolyline
90
2
70
0
43
0
10
-12.0861652556
20
28.4134249555
10
-11.0061008111
20
27.3048560667
0
LWPOLYLINE
5
10B
100
AcDbEntity
8
0
6
ByLayer
62
0
370
-1
100
AcDbPolyline
90
2
70
0
43
0
10
8.92132807775
20
31.0572827333
10
9.71155029995
20
30.8196516222
0
LWPOLYLINE
5
10C
100
AcDbEntity
8
0
6
ByLayer
62
0
370
-1
100
AcDbPolyline
90
2
70
0
43
0
10
-13.3524963667
20
29.4271671778
10
-12.0861652556
20
28.4134249555
0
LWPOLYLINE
5
10D
100
AcDbEntity
8
0
6
ByLayer
62
0
370
-1
100
AcDbPolyline
90
2
70
0
43
0
10
9.71155029995
20
30.8196516222
10
9.97796807775
20
29.2197338444
0
LWPOLYLINE
5
10E
100
AcDbEntity
8
0
6
ByLayer
62
0
370
-1
100
AcDbPolyline
90
2
70
0
43
0
10
-14.0995385889
20
29.0769294
10
-13.3524963667
20
29.4271671778
0
LWPOLYLINE
5
10F
100
AcDbEntity
8
0
6
ByLayer
62
0
370
-1
100
AcDbPolyline
90
2
70
0
43
0
10
9.97796807775
20
29.2197338444
10
10.0428791888
20
27.6731560667
0
LWPOLYLINE
5
110
100
AcDbEntity
8
0
6
ByLayer
62
0
370
-1
100
AcDbPolyline
90
2
70
0
43
0
10
-14.1300185888
20
27.4552805111
10
-14.0995385889
20
29.0769294
0
LWPOLYLINE
5
111
100
AcDbEntity
8
0
6
ByLayer
62
0
370
-1
100
AcDbPolyline
90
2
70
0
43
0
10
10.0428791888
20
27.6731560667
10
11.0061036333
20
27.3048560667
0
LWPOLYLINE
5
112
100
AcDbEntity
8
0
6
ByLayer
62
0
370
-1
100
AcDbPolyline
90
2
70
0
43
0
10
-13.9691519222
20
25.9157582889
10
-14.1300185888
20
27.4552805111
0
LWPOLYLINE
5
113
100
AcDbEntity
8
0
6
ByLayer
62
0
370
-1
100
AcDbPolyline
90
2
70
0
43
0
10
11.0061036333
20
27.3048560667
10
12.0861680777
20
28.4134249555
0
LWPOLYLINE
5
114
100
AcDbEntity
8
0
6
ByLayer
62
0
370
-1
100
AcDbPolyline
90
2
70
0
43
0
10
-14.8683119223
20
25.4111449555
10
-13.9691519222
20
25.9157582889
0
LWPOLYLINE
5
115
100
AcDbEntity
8
0
6
ByLayer
62
0
370
-1
100
AcDbPolyline
90
2
70
0
43
0
10
12.0861680777
20
28.4134249555
10
13.3524991889
20
29.4271671778
0
LWPOLYLINE
5
116
100
AcDbEntity
8
0
6
ByLayer
62
0
370
-1
100
AcDbPolyline
90
2
70
0
43
0
10
-16.0985185888
20
26.3503805111
10
-14.8683119223
20
25.4111449555
0
LWPOLYLINE
5
117
100
AcDbEntity
8
0
6
ByLayer
62
0
370
-1
100
AcDbPolyline
90
2
70
0
43
0
10
13.3524991889
20
29.4271671778
10
14.0995414111
20
29.0769294
0
LWPOLYLINE
5
118
100
AcDbEntity
8
0
6
ByLayer
62
0
370
-1
100
AcDbPolyline
90
2
70
0
43
0
10
-17.4989052555
20
27.1691071778
10
-16.0985185888
20
26.3503805111
0
LWPOLYLINE
5
119
100
AcDbEntity
8
0
6
ByLayer
62
0
370
-1
100
AcDbPolyline
90
2
70
0
43
0
10
14.0995414111
20
29.0769294
10
14.1300214112
20
27.4552805111
0
LWPOLYLINE
5
11A
100
AcDbEntity
8
0
6
ByLayer
62
0
370
-1
100
AcDbPolyline
90
2
70
0
43
0
10
-18.1869630334
20
26.7138827333
10
-17.4989052555
20
27.1691071778
0
LWPOLYLINE
5
11B
100
AcDbEntity
8
0
6
ByLayer
62
0
370
-1
100
AcDbPolyline
90
2
70
0
43
0
10
14.1300214112
20
27.4552805111
10
13.9691547444
20
25.9157582889
0
LWPOLYLINE
5
11C
100
AcDbEntity
8
0
6
ByLayer
62
0
370
-1
100
AcDbPolyline
90
2
70
0
43
0
10
-17.9812230333
20
25.1049338444
10
-18.1869630334
20
26.7138827333
0
LWPOLYLINE
5
11D
100
AcDbEntity
8
0
6
ByLayer
62
0
370
-1
100
AcDbPolyline
90
2
70
0
43
0
10
13.9691547444
20
25.9157582889
10
14.8683147445
20
25.4111449555
0
LWPOLYLINE
5
11E
100
AcDbEntity
8
0
6
ByLayer
62
0
370
-1
100
AcDbPolyline
90
2
70
0
43
0
10
-17.5976830334
20
23.6054871778
10
-17.9812230333
20
25.1049338444
0
LWPOLYLINE
5
11F
100
AcDbEntity
8
0
6
ByLayer
62
0
370
-1
100
AcDbPolyline
90
2
70
0
43
0
10
14.8683147445
20
25.4111449555
10
16.0985214111
20
26.3503805111
0
LWPOLYLINE
5
120
100
AcDbEntity
8
0
6
ByLayer
62
0
370
-1
100
AcDbPolyline
90
2
70
0
43
0
10
-18.4138697001
20
22.9750027333
10
-17.5976830334
20
23.6054871778
0
LWPOLYLINE
5
121
100
AcDbEntity
8
0
6
ByLayer
62
0
370
-1
100
AcDbPolyline
90
2
70
0
43
0
10
16.0985214111
20
26.3503805111
10
17.4989080777
20
27.1691071778
0
LWPOLYLINE
5
122
100
AcDbEntity
8
0
6
ByLayer
62
0
370
-1
100
AcDbPolyline
90
2
70
0
43
0
10
-19.7676897
20
23.7254316222
10
-18.4138697001
20
22.9750027333
0
LWPOLYLINE
5
123
100
AcDbEntity
8
0
6
ByLayer
62
0
370
-1
100
AcDbPolyline
90
2
70
0
43
0
10
17.4989080777
20
27.1691071778
10
18.1869658555
20
26.7138827333
0
LWPOLYLINE
5
124
100
AcDbEntity
8
0
6
ByLayer
62
0
370
-1
100
AcDbPolyline
90
2
70
0
43
0
10
-21.2722163666
20
24.3313627333
10
-19.7676897
20
23.7254316222
0
LWPOLYLINE
5
125
100
AcDbEntity
8
0
6
ByLayer
62
0
370
-1
100
AcDbPolyline
90
2
70
0
43
0
10
18.1869658555
20
26.7138827333
10
17.9812258556
20
25.1049338444
0
LWPOLYLINE
5
126
100
AcDbEntity
8
0
6
ByLayer
62
0
370
-1
100
AcDbPolyline
90
2
70
0
43
0
10
-21.8866141445
20
23.7807471778
10
-21.2722163666
20
24.3313627333
0
LWPOLYLINE
5
127
100
AcDbEntity
8
0
6
ByLayer
62
0
370
-1
100
AcDbPolyline
90
2
70
0
43
0
10
17.9812258556
20
25.1049338444
10
17.5976858556
20
23.6054871778
0
LWPOLYLINE
5
128
100
AcDbEntity
8
0
6
ByLayer
62
0
370
-1
100
AcDbPolyline
90
2
70
0
43
0
10
-21.4488874777
20
22.2189294
10
-21.8866141445
20
23.7807471778
0
LWPOLYLINE
5
129
100
AcDbEntity
8
0
6
ByLayer
62
0
370
-1
100
AcDbPolyline
90
2
70
0
43
0
10
17.5976858556
20
23.6054871778
10
18.4138725222
20
22.9750027333
0
LWPOLYLINE
5
12A
100
AcDbEntity
8
0
6
ByLayer
62
0
370
-1
100
AcDbPolyline
90
2
70
0
43
0
10
-20.8511408112
20
20.7911671778
10
-21.4488874777
20
22.2189294
0
LWPOLYLINE
5
12B
100
AcDbEntity
8
0
6
ByLayer
62
0
370
-1
100
AcDbPolyline
90
2
70
0
43
0
10
18.4138725222
20
22.9750027333
10
19.7676925222
20
23.7254316222
0
LWPOLYLINE
5
12C
100
AcDbEntity
8
0
6
ByLayer
62
0
370
-1
100
AcDbPolyline
90
2
70
0
43
0
10
-21.5671385888
20
20.0489227333
10
-20.8511408112
20
20.7911671778
0
LWPOLYLINE
5
12D
100
AcDbEntity
8
0
6
ByLayer
62
0
370
-1
100
AcDbPolyline
90
2
70
0
43
0
10
19.7676925222
20
23.7254316222
10
21.2722191888
20
24.3313627333
0
LWPOLYLINE
5
12E
100
AcDbEntity
8
0
6
ByLayer
62
0
370
-1
100
AcDbPolyline
90
2
70
0
43
0
10
-23.0157852555
20
20.5938938444
10
-21.5671385888
20
20.0489227333
0
LWPOLYLINE
5
12F
100
AcDbEntity
8
0
6
ByLayer
62
0
370
-1
100
AcDbPolyline
90
2
70
0
43
0
10
21.2722191888
20
24.3313627333
10
21.8866169666
20
23.7807471778
0
LWPOLYLINE
5
130
100
AcDbEntity
8
0
6
ByLayer
62
0
370
-1
100
AcDbPolyline
90
2
70
0
43
0
10
-24.5922785889
20
20.9746116222
10
-23.0157852555
20
20.5938938444
0
LWPOLYLINE
5
131
100
AcDbEntity
8
0
6
ByLayer
62
0
370
-1
100
AcDbPolyline
90
2
70
0
43
0
10
21.8866169666
20
23.7807471778
10
21.4488902999
20
22.2189294
0
LWPOLYLINE
5
132
100
AcDbEntity
8
0
6
ByLayer
62
0
370
-1
100
AcDbPolyline
90
2
70
0
43
0
10
-25.1200341445
20
20.3404582889
10
-24.5922785889
20
20.9746116222
0
LWPOLYLINE
5
133
100
AcDbEntity
8
0
6
ByLayer
62
0
370
-1
100
AcDbPolyline
90
2
70
0
43
0
10
21.4488902999
20
22.2189294
10
20.8511436333
20
20.7911671778
0
LWPOLYLINE
5
134
100
AcDbEntity
8
0
6
ByLayer
62
0
370
-1
100
AcDbPolyline
90
2
70
0
43
0
10
-24.4596341445
20
18.8590738444
10
-25.1200341445
20
20.3404582889
0
LWPOLYLINE
5
135
100
AcDbEntity
8
0
6
ByLayer
62
0
370
-1
100
AcDbPolyline
90
2
70
0
43
0
10
20.8511436333
20
20.7911671778
10
21.5671414112
20
20.0489227333
0
LWPOLYLINE
5
136
100
AcDbEntity
8
0
6
ByLayer
62
0
370
-1
100
AcDbPolyline
90
2
70
0
43
0
10
-23.6603808112
20
17.5334760667
10
-24.4596341445
20
18.8590738444
0
LWPOLYLINE
5
137
100
AcDbEntity
8
0
6
ByLayer
62
0
370
-1
100
AcDbPolyline
90
2
70
0
43
0
10
21.5671414112
20
20.0489227333
10
23.0157880777
20
20.5938938444
0
LWPOLYLINE
5
138
100
AcDbEntity
8
0
6
ByLayer
62
0
370
-1
100
AcDbPolyline
90
2
70
0
43
0
10
-24.2603852556
20
16.6947116222
10
-23.6603808112
20
17.5334760667
0
LWPOLYLINE
5
139
100
AcDbEntity
8
0
6
ByLayer
62
0
370
-1
100
AcDbPolyline
90
2
70
0
43
0
10
23.0157880777
20
20.5938938444
10
24.5922814112
20
20.9746116222
0
LWPOLYLINE
5
13A
100
AcDbEntity
8
0
6
ByLayer
62
0
370
-1
100
AcDbPolyline
90
2
70
0
43
0
10
-25.7730963666
20
17.0232182889
10
-24.2603852556
20
16.6947116222
0
LWPOLYLINE
5
13B
100
AcDbEntity
8
0
6
ByLayer
62
0
370
-1
100
AcDbPolyline
90
2
70
0
43
0
10
24.5922814112
20
20.9746116222
10
25.1200369666
20
20.3404582889
0
LWPOLYLINE
5
13C
100
AcDbEntity
8
0
6
ByLayer
62
0
370
-1
100
AcDbPolyline
90
2
70
0
43
0
10
-27.3882541445
20
17.1699738444
10
-25.7730963666
20
17.0232182889
0
LWPOLYLINE
5
13D
100
AcDbEntity
8
0
6
ByLayer
62
0
370
-1
100
AcDbPolyline
90
2
70
0
43
0
10
25.1200369666
20
20.3404582889
10
24.4596369666
20
18.8590738444
0
LWPOLYLINE
5
13E
100
AcDbEntity
8
0
6
ByLayer
62
0
370
-1
100
AcDbPolyline
90
2
70
0
43
0
10
-27.8180785888
20
16.4658294
10
-27.3882541445
20
17.1699738444
0
LWPOLYLINE
5
13F
100
AcDbEntity
8
0
6
ByLayer
62
0
370
-1
100
AcDbPolyline
90
2
70
0
43
0
10
24.4596369666
20
18.8590738444
10
23.6603836333
20
17.5334760667
0
LWPOLYLINE
5
140
100
AcDbEntity
8
0
6
ByLayer
62
0
370
-1
100
AcDbPolyline
90
2
70
0
43
0
10
-26.9488341445
20
15.0964871778
10
-27.8180785888
20
16.4658294
0
LWPOLYLINE
5
141
100
AcDbEntity
8
0
6
ByLayer
62
0
370
-1
100
AcDbPolyline
90
2
70
0
43
0
10
23.6603836333
20
17.5334760667
10
24.2603880778
20
16.6947116222
0
LWPOLYLINE
5
142
100
AcDbEntity
8
0
6
ByLayer
62
0
370
-1
100
AcDbPolyline
90
2
70
0
43
0
10
-25.9652897001
20
13.9012760667
10
-26.9488341445
20
15.0964871778
0
LWPOLYLINE
5
143
100
AcDbEntity
8
0
6
ByLayer
62
0
370
-1
100
AcDbPolyline
90
2
70
0
43
0
10
24.2603880778
20
16.6947116222
10
25.7730991888
20
17.0232182889
0
LWPOLYLINE
5
144
100
AcDbEntity
8
0
6
ByLayer
62
0
370
-1
100
AcDbPolyline
90
2
70
0
43
0
10
-26.4366008112
20
12.9843360667
10
-25.9652897001
20
13.9012760667
0
LWPOLYLINE
5
145
100
AcDbEntity
8
0
6
ByLayer
62
0
370
-1
100
AcDbPolyline
90
2
70
0
43
0
10
25.7730991888
20
17.0232182889
10
27.3882569666
20
17.1699738444
0
LWPOLYLINE
5
146
100
AcDbEntity
8
0
6
ByLayer
62
0
370
-1
100
AcDbPolyline
90
2
70
0
43
0
10
-27.9809208111
20
13.0887582889
10
-26.4366008112
20
12.9843360667
0
LWPOLYLINE
5
147
100
AcDbEntity
8
0
6
ByLayer
62
0
370
-1
100
AcDbPolyline
90
2
70
0
43
0
10
27.3882569666
20
17.1699738444
10
27.8180814111
20
16.4658294
0
LWPOLYLINE
5
148
100
AcDbEntity
8
0
6
ByLayer
62
0
370
-1
100
AcDbPolyline
90
2
70
0
43
0
10
-29.6005941444
20
12.9990116222
10
-27.9809208111
20
13.0887582889
0
LWPOLYLINE
5
149
100
AcDbEntity
8
0
6
ByLayer
62
0
370
-1
100
AcDbPolyline
90
2
70
0
43
0
10
27.8180814111
20
16.4658294
10
26.9488369666
20
15.0964871778
0
LWPOLYLINE
5
14A
100
AcDbEntity
8
0
6
ByLayer
62
0
370
-1
100
AcDbPolyline
90
2
70
0
43
0
10
-29.9231741445
20
12.2395516222
10
-29.6005941444
20
12.9990116222
0
LWPOLYLINE
5
14B
100
AcDbEntity
8
0
6
ByLayer
62
0
370
-1
100
AcDbPolyline
90
2
70
0
43
0
10
26.9488369666
20
15.0964871778
10
25.9652925222
20
13.9012760667
0
LWPOLYLINE
5
14C
100
AcDbEntity
8
0
6
ByLayer
62
0
370
-1
100
AcDbPolyline
90
2
70
0
43
0
10
-28.8637119223
20
11.0113205111
10
-29.9231741445
20
12.2395516222
0
LWPOLYLINE
5
14D
100
AcDbEntity
8
0
6
ByLayer
62
0
370
-1
100
AcDbPolyline
90
2
70
0
43
0
10
25.9652925222
20
13.9012760667
10
26.4366036333
20
12.9843360667
0
LWPOLYLINE
5
14E
100
AcDbEntity
8
0
6
ByLayer
62
0
370
-1
100
AcDbPolyline
90
2
70
0
43
0
10
-27.7167608111
20
9.97246051111
10
-28.8637119223
20
11.0113205111
0
LWPOLYLINE
5
14F
100
AcDbEntity
8
0
6
ByLayer
62
0
370
-1
100
AcDbPolyline
90
2
70
0
43
0
10
26.4366036333
20
12.9843360667
10
27.9809236333
20
13.0887582889
0
LWPOLYLINE
5
150
100
AcDbEntity
8
0
6
ByLayer
62
0
370
-1
100
AcDbPolyline
90
2
70
0
43
0
10
-28.0495008111
20
8.99625384441
10
-27.7167608111
20
9.97246051111
0
LWPOLYLINE
5
151
100
AcDbEntity
8
0
6
ByLayer
62
0
370
-1
100
AcDbPolyline
90
2
70
0
43
0
10
27.9809236333
20
13.0887582889
10
29.6005969666
20
12.9990116222
0
LWPOLYLINE
5
152
100
AcDbEntity
8
0
6
ByLayer
62
0
370
-1
100
AcDbPolyline
90
2
70
0
43
0
10
-29.5926919222
20
8.87489828891
10
-28.0495008111
20
8.99625384441
0
LWPOLYLINE
5
153
100
AcDbEntity
8
0
6
ByLayer
62
0
370
-1
100
AcDbPolyline
90
2
70
0
43
0
10
29.6005969666
20
12.9990116222
10
29.9231769666
20
12.2395516222
0
LWPOLYLINE
5
154
100
AcDbEntity
8
0
6
ByLayer
62
0
370
-1
100
AcDbPolyline
90
2
70
0
43
0
10
-31.1818852556
20
8.55034273331
10
-29.5926919222
20
8.87489828891
0
LWPOLYLINE
5
155
100
AcDbEntity
8
0
6
ByLayer
62
0
370
-1
100
AcDbPolyline
90
2
70
0
43
0
10
29.9231769666
20
12.2395516222
10
28.8637147445
20
11.0113205111
0
LWPOLYLINE
5
156
100
AcDbEntity
8
0
6
ByLayer
62
0
370
-1
100
AcDbPolyline
90
2
70
0
43
0
10
-31.3904474778
20
7.75221828891
10
-31.1818852556
20
8.55034273331
0
LWPOLYLINE
5
157
100
AcDbEntity
8
0
6
ByLayer
62
0
370
-1
100
AcDbPolyline
90
2
70
0
43
0
10
28.8637147445
20
11.0113205111
10
27.7167636333
20
9.97246051111
0
LWPOLYLINE
5
158
100
AcDbEntity
8
0
6
ByLayer
62
0
370
-1
100
AcDbPolyline
90
2
70
0
43
0
10
-30.1636274777
20
6.69106273331
10
-31.3904474778
20
7.75221828891
0
LWPOLYLINE
5
159
100
AcDbEntity
8
0
6
ByLayer
62
0
370
-1
100
AcDbPolyline
90
2
70
0
43
0
10
27.7167636333
20
9.97246051111
10
28.0495036333
20
8.99625384441
0
LWPOLYLINE
5
15A
100
AcDbEntity
8
0
6
ByLayer
62
0
370
-1
100
AcDbPolyline
90
2
70
0
43
0
10
-28.8772585888
20
5.83028777781
10
-30.1636274777
20
6.69106273331
0
LWPOLYLINE
5
15B
100
AcDbEntity
8
0
6
ByLayer
62
0
370
-1
100
AcDbPolyline
90
2
70
0
43
0
10
28.0495036333
20
8.99625384441
10
29.5926947445
20
8.87489828891
0
LWPOLYLINE
5
15C
100
AcDbEntity
8
0
6
ByLayer
62
0
370
-1
100
AcDbPolyline
90
2
70
0
43
0
10
-29.0646541445
20
4.81597828889
10
-28.8772585888
20
5.83028777781
0
LWPOLYLINE
5
15D
100
AcDbEntity
8
0
6
ByLayer
62
0
370
-1
100
AcDbPolyline
90
2
70
0
43
0
10
29.5926947445
20
8.87489828891
10
31.1818880778
20
8.55034273331
0
LWPOLYLINE
5
15E
100
AcDbEntity
8
0
6
ByLayer
62
0
370
-1
100
AcDbPolyline
90
2
70
0
43
0
10
-30.5736963666
20
4.47138495555
10
-29.0646541445
20
4.81597828889
0
LWPOLYLINE
5
15F
100
AcDbEntity
8
0
6
ByLayer
62
0
370
-1
100
AcDbPolyline
90
2
70
0
43
0
10
31.1818880778
20
8.55034273331
10
31.3904503
20
7.75221828891
0
LWPOLYLINE
5
160
100
AcDbEntity
8
0
6
ByLayer
62
0
370
-1
100
AcDbPolyline
90
2
70
0
43
0
10
-32.0985430333
20
3.91879666667
10
-30.5736963666
20
4.47138495555
0
LWPOLYLINE
5
161
100
AcDbEntity
8
0
6
ByLayer
62
0
370
-1
100
AcDbPolyline
90
2
70
0
43
0
10
31.3904503
20
7.75221828891
10
30.1636303
20
6.69106273331
0
LWPOLYLINE
5
162
100
AcDbEntity
8
0
6
ByLayer
62
0
370
-1
100
AcDbPolyline
90
2
70
0
43
0
10
-32.1888541445
20
3.09865888889
10
-32.0985430333
20
3.91879666667
0
LWPOLYLINE
5
163
100
AcDbEntity
8
0
6
ByLayer
62
0
370
-1
100
AcDbPolyline
90
2
70
0
43
0
10
30.1636303
20
6.69106273331
10
28.8772614112
20
5.83028777781
0
LWPOLYLINE
5
164
100
AcDbEntity
8
0
6
ByLayer
62
0
370
-1
100
AcDbPolyline
90
2
70
0
43
0
10
-30.8203585888
20
2.22772111111
10
-32.1888541445
20
3.09865888889
0
LWPOLYLINE
5
165
100
AcDbEntity
8
0
6
ByLayer
62
0
370
-1
100
AcDbPolyline
90
2
70
0
43
0
10
28.8772614112
20
5.83028777781
10
29.0646569666
20
4.81597828889
0
LWPOLYLINE
5
166
100
AcDbEntity
8
0
6
ByLayer
62
0
370
-1
100
AcDbPolyline
90
2
70
0
43
0
10
-29.4225119222
20
1.56308777778
10
-30.8203585888
20
2.22772111111
0
LWPOLYLINE
5
167
100
AcDbEntity
8
0
6
ByLayer
62
0
370
-1
100
AcDbPolyline
90
2
70
0
43
0
10
29.0646569666
20
4.81597828889
10
30.5736991889
20
4.47138495555
0
LWPOLYLINE
5
168
100
AcDbEntity
8
0
6
ByLayer
62
0
370
-1
100
AcDbPolyline
90
2
70
0
43
0
10
-29.4603297
20
0.532694444443
10
-29.4225119222
20
1.56308777778
0
LWPOLYLINE
5
169
100
AcDbEntity
8
0
6
ByLayer
62
0
370
-1
100
AcDbPolyline
90
2
70
0
43
0
10
30.5736991889
20
4.47138495555
10
32.0985458556
20
3.91879666667
0
LWPOLYLINE
5
16A
100
AcDbEntity
8
0
6
ByLayer
62
0
370
-1
100
AcDbPolyline
90
2
70
0
43
0
10
-30.9030497001
20
-0.028081111107
10
-29.4603297
20
0.532694444443
0
LWPOLYLINE
5
16B
100
AcDbEntity
8
0
6
ByLayer
62
0
370
-1
100
AcDbPolyline
90
2
70
0
43
0
10
32.0985458556
20
3.91879666667
10
32.1888569667
20
3.09865888889
0
LWPOLYLINE
5
16C
100
AcDbEntity
8
0
6
ByLayer
62
0
370
-1
100
AcDbPolyline
90
2
70
0
43
0
10
-32.3310941445
20
-0.796854444447
10
-30.9030497001
20
-0.028081111107
0
LWPOLYLINE
5
16D
100
AcDbEntity
8
0
6
ByLayer
62
0
370
-1
100
AcDbPolyline
90
2
70
0
43
0
10
32.1888569667
20
3.09865888889
10
30.8203614111
20
2.22772111111
0
LWPOLYLINE
5
16E
100
AcDbEntity
8
0
6
ByLayer
62
0
370
-1
100
AcDbPolyline
90
2
70
0
43
0
10
-32.3008963666
20
-1.62122555556
10
-32.3310941445
20
-0.796854444447
0
LWPOLYLINE
5
16F
100
AcDbEntity
8
0
6
ByLayer
62
0
370
-1
100
AcDbPolyline
90
2
70
0
43
0
10
30.8203614111
20
2.22772111111
10
29.4225147444
20
1.56308777778
0
LWPOLYLINE
5
170
100
AcDbEntity
8
0
6
ByLayer
62
0
370
-1
100
AcDbPolyline
90
2
70
0
43
0
10
-30.8203585888
20
-2.28388333333
10
-32.3008963666
20
-1.62122555556
0
LWPOLYLINE
5
171
100
AcDbEntity
8
0
6
ByLayer
62
0
370
-1
100
AcDbPolyline
90
2
70
0
43
0
10
29.4225147444
20
1.56308777778
10
29.4603325222
20
0.532694444443
0
LWPOLYLINE
5
172
100
AcDbEntity
8
0
6
ByLayer
62
0
370
-1
100
AcDbPolyline
90
2
70
0
43
0
10
-29.3406674778
20
-2.73769666667
10
-30.8203585888
20
-2.28388333333
0
LWPOLYLINE
5
173
100
AcDbEntity
8
0
6
ByLayer
62
0
370
-1
100
AcDbPolyline
90
2
70
0
43
0
10
29.4603325222
20
0.532694444443
10
30.9030525223
20
-0.028081111107
0
LWPOLYLINE
5
174
100
AcDbEntity
8
0
6
ByLayer
62
0
370
-1
100
AcDbPolyline
90
2
70
0
43
0
10
-29.2280608112
20
-3.76272777778
10
-29.3406674778
20
-2.73769666667
0
LWPOLYLINE
5
175
100
AcDbEntity
8
0
6
ByLayer
62
0
370
-1
100
AcDbPolyline
90
2
70
0
43
0
10
30.9030525223
20
-0.028081111107
10
32.3310969667
20
-0.796854444447
0
LWPOLYLINE
5
176
100
AcDbEntity
8
0
6
ByLayer
62
0
370
-1
100
AcDbPolyline
90
2
70
0
43
0
10
-30.5736963666
20
-4.52755
10
-29.2280608112
20
-3.76272777778
0
LWPOLYLINE
5
177
100
AcDbEntity
8
0
6
ByLayer
62
0
370
-1
100
AcDbPolyline
90
2
70
0
43
0
10
32.3310969667
20
-0.796854444447
10
32.3008991889
20
-1.62122555556
0
LWPOLYLINE
5
178
100
AcDbEntity
8
0
6
ByLayer
62
0
370
-1
100
AcDbPolyline
90
2
70
0
43
0
10
-31.8747408112
20
-5.49613666666
10
-30.5736963666
20
-4.52755
0
LWPOLYLINE
5
179
100
AcDbEntity
8
0
6
ByLayer
62
0
370
-1
100
AcDbPolyline
90
2
70
0
43
0
10
32.3008991889
20
-1.62122555556
10
30.8203614111
20
-2.28388333333
0
LWPOLYLINE
5
17A
100
AcDbEntity
8
0
6
ByLayer
62
0
370
-1
100
AcDbPolyline
90
2
70
0
43
0
10
-31.7248808112
20
-6.30752555556
10
-31.8747408112
20
-5.49613666666
0
LWPOLYLINE
5
17B
100
AcDbEntity
8
0
6
ByLayer
62
0
370
-1
100
AcDbPolyline
90
2
70
0
43
0
10
30.8203614111
20
-2.28388333333
10
29.3406702999
20
-2.73769666667
0
LWPOLYLINE
5
17C
100
AcDbEntity
8
0
6
ByLayer
62
0
370
-1
100
AcDbPolyline
90
2
70
0
43
0
10
-30.1636274777
20
-6.74722777778
10
-31.7248808112
20
-6.30752555556
0
LWPOLYLINE
5
17D
100
AcDbEntity
8
0
6
ByLayer
62
0
370
-1
100
AcDbPolyline
90
2
70
0
43
0
10
29.3406702999
20
-2.73769666667
10
29.2280636333
20
-3.76272777778
0
LWPOLYLINE
5
17E
100
AcDbEntity
8
0
6
ByLayer
62
0
370
-1
100
AcDbPolyline
90
2
70
0
43
0
10
-28.6334185889
20
-6.98090777778
10
-30.1636274777
20
-6.74722777778
0
LWPOLYLINE
5
17F
100
AcDbEntity
8
0
6
ByLayer
62
0
370
-1
100
AcDbPolyline
90
2
70
0
43
0
10
29.2280636333
20
-3.76272777778
10
30.5736991889
20
-4.52755
0
LWPOLYLINE
5
180
100
AcDbEntity
8
0
6
ByLayer
62
0
370
-1
100
AcDbPolyline
90
2
70
0
43
0
10
-28.3726452555
20
-7.97856418
10
-28.6334185889
20
-6.98090777778
0
LWPOLYLINE
5
181
100
AcDbEntity
8
0
6
ByLayer
62
0
370
-1
100
AcDbPolyline
90
2
70
0
43
0
10
30.5736991889
20
-4.52755
10
31.8747436333
20
-5.49613666666
0
LWPOLYLINE
5
182
100
AcDbEntity
8
0
6
ByLayer
62
0
370
-1
100
AcDbPolyline
90
2
70
0
43
0
10
-29.5926919222
20
-8.93106418
10
-28.3726452555
20
-7.97856418
0
LWPOLYLINE
5
183
100
AcDbEntity
8
0
6
ByLayer
62
0
370
-1
100
AcDbPolyline
90
2
70
0
43
0
10
31.8747436333
20
-5.49613666666
10
31.7248836333
20
-6.30752555556
0
LWPOLYLINE
5
184
100
AcDbEntity
8
0
6
ByLayer
62
0
370
-1
100
AcDbPolyline
90
2
70
0
43
0
10
-30.7387963667
20
-10.0788619578
10
-29.5926919222
20
-8.93106418
0
LWPOLYLINE
5
185
100
AcDbEntity
8
0
6
ByLayer
62
0
370
-1
100
AcDbPolyline
90
2
70
0
43
0
10
31.7248836333
20
-6.30752555556
10
30.1636303
20
-6.74722777778
0
LWPOLYLINE
5
186
100
AcDbEntity
8
0
6
ByLayer
62
0
370
-1
100
AcDbPolyline
90
2
70
0
43
0
10
-30.4723785889
20
-10.8597708467
10
-30.7387963667
20
-10.0788619578
0
LWPOLYLINE
5
187
100
AcDbEntity
8
0
6
ByLayer
62
0
370
-1
100
AcDbPolyline
90
2
70
0
43
0
10
30.1636303
20
-6.74722777778
10
28.6334214111
20
-6.98090777778
0
LWPOLYLINE
5
188
100
AcDbEntity
8
0
6
ByLayer
62
0
370
-1
100
AcDbPolyline
90
2
70
0
43
0
10
-28.8637119223
20
-11.0674864022
10
-30.4723785889
20
-10.8597708467
0
LWPOLYLINE
5
189
100
AcDbEntity
8
0
6
ByLayer
62
0
370
-1
100
AcDbPolyline
90
2
70
0
43
0
10
28.6334214111
20
-6.98090777778
10
28.3726480778
20
-7.97856418
0
LWPOLYLINE
5
18A
100
AcDbEntity
8
0
6
ByLayer
62
0
370
-1
100
AcDbPolyline
90
2
70
0
43
0
10
-27.3160052555
20
-11.0759530689
10
-28.8637119223
20
-11.0674864022
0
LWPOLYLINE
5
18B
100
AcDbEntity
8
0
6
ByLayer
62
0
370
-1
100
AcDbPolyline
90
2
70
0
43
0
10
28.3726480778
20
-7.97856418
10
29.5926947445
20
-8.93106418
0
LWPOLYLINE
5
18C
100
AcDbEntity
8
0
6
ByLayer
62
0
370
-1
100
AcDbPolyline
90
2
70
0
43
0
10
-26.9127097001
20
-12.0250664022
10
-27.3160052555
20
-11.0759530689
0
LWPOLYLINE
5
18D
100
AcDbEntity
8
0
6
ByLayer
62
0
370
-1
100
AcDbPolyline
90
2
70
0
43
0
10
29.5926947445
20
-8.93106418
10
30.7387991888
20
-10.0788619578
0
LWPOLYLINE
5
18E
100
AcDbEntity
8
0
6
ByLayer
62
0
370
-1
100
AcDbPolyline
90
2
70
0
43
0
10
-27.9809208111
20
-13.14492418
10
-26.9127097001
20
-12.0250664022
0
LWPOLYLINE
5
18F
100
AcDbEntity
8
0
6
ByLayer
62
0
370
-1
100
AcDbPolyline
90
2
70
0
43
0
10
30.7387991888
20
-10.0788619578
10
30.4723814111
20
-10.8597708467
0
LWPOLYLINE
5
190
100
AcDbEntity
8
0
6
ByLayer
62
0
370
-1
100
AcDbPolyline
90
2
70
0
43
0
10
-28.9478141445
20
-14.4473797356
10
-27.9809208111
20
-13.14492418
0
LWPOLYLINE
5
191
100
AcDbEntity
8
0
6
ByLayer
62
0
370
-1
100
AcDbPolyline
90
2
70
0
43
0
10
30.4723814111
20
-10.8597708467
10
28.8637147445
20
-11.0674864022
0
LWPOLYLINE
5
192
100
AcDbEntity
8
0
6
ByLayer
62
0
370
-1
100
AcDbPolyline
90
2
70
0
43
0
10
-28.5707652556
20
-15.1811575133
10
-28.9478141445
20
-14.4473797356
0
LWPOLYLINE
5
193
100
AcDbEntity
8
0
6
ByLayer
62
0
370
-1
100
AcDbPolyline
90
2
70
0
43
0
10
28.8637147445
20
-11.0674864022
10
27.3160080777
20
-11.0759530689
0
LWPOLYLINE
5
194
100
AcDbEntity
8
0
6
ByLayer
62
0
370
-1
100
AcDbPolyline
90
2
70
0
43
0
10
-26.9488341445
20
-15.1526530689
10
-28.5707652556
20
-15.1811575133
0
LWPOLYLINE
5
195
100
AcDbEntity
8
0
6
ByLayer
62
0
370
-1
100
AcDbPolyline
90
2
70
0
43
0
10
27.3160080777
20
-11.0759530689
10
26.9127125222
20
-12.0250664022
0
LWPOLYLINE
5
196
100
AcDbEntity
8
0
6
ByLayer
62
0
370
-1
100
AcDbPolyline
90
2
70
0
43
0
10
-25.4163674778
20
-14.9353419578
10
-26.9488341445
20
-15.1526530689
0
LWPOLYLINE
5
197
100
AcDbEntity
8
0
6
ByLayer
62
0
370
-1
100
AcDbPolyline
90
2
70
0
43
0
10
26.9127125222
20
-12.0250664022
10
27.9809236333
20
-13.14492418
0
LWPOLYLINE
5
198
100
AcDbEntity
8
0
6
ByLayer
62
0
370
-1
100
AcDbPolyline
90
2
70
0
43
0
10
-24.8792985889
20
-15.8155930689
10
-25.4163674778
20
-14.9353419578
0
LWPOLYLINE
5
199
100
AcDbEntity
8
0
6
ByLayer
62
0
370
-1
100
AcDbPolyline
90
2
70
0
43
0
10
27.9809236333
20
-13.14492418
10
28.9478169666
20
-14.4473797356
0
LWPOLYLINE
5
19A
100
AcDbEntity
8
0
6
ByLayer
62
0
370
-1
100
AcDbPolyline
90
2
70
0
43
0
10
-25.7730963666
20
-17.07938418
10
-24.8792985889
20
-15.8155930689
0
LWPOLYLINE
5
19B
100
AcDbEntity
8
0
6
ByLayer
62
0
370
-1
100
AcDbPolyline
90
2
70
0
43
0
10
28.9478169666
20
-14.4473797356
10
28.5707680777
20
-15.1811575133
0
LWPOLYLINE
5
19C
100
AcDbEntity
8
0
6
ByLayer
62
0
370
-1
100
AcDbPolyline
90
2
70
0
43
0
10
-26.5398941445
20
-18.5085575133
10
-25.7730963666
20
-17.07938418
0
LWPOLYLINE
5
19D
100
AcDbEntity
8
0
6
ByLayer
62
0
370
-1
100
AcDbPolyline
90
2
70
0
43
0
10
28.5707680777
20
-15.1811575133
10
26.9488369666
20
-15.1526530689
0
LWPOLYLINE
5
19E
100
AcDbEntity
8
0
6
ByLayer
62
0
370
-1
100
AcDbPolyline
90
2
70
0
43
0
10
-26.0598341444
20
-19.1793997356
10
-26.5398941445
20
-18.5085575133
0
LWPOLYLINE
5
19F
100
AcDbEntity
8
0
6
ByLayer
62
0
370
-1
100
AcDbPolyline
90
2
70
0
43
0
10
26.9488369666
20
-15.1526530689
10
25.4163702999
20
-14.9353419578
0
LWPOLYLINE
5
1A0
100
AcDbEntity
8
0
6
ByLayer
62
0
370
-1
100
AcDbPolyline
90
2
70
0
43
0
10
-24.4596341445
20
-18.9152397356
10
-26.0598341444
20
-19.1793997356
0
LWPOLYLINE
5
1A1
100
AcDbEntity
8
0
6
ByLayer
62
0
370
-1
100
AcDbPolyline
90
2
70
0
43
0
10
25.4163702999
20
-14.9353419578
10
24.8793014111
20
-15.8155930689
0
LWPOLYLINE
5
1A2
100
AcDbEntity
8
0
6
ByLayer
62
0
370
-1
100
AcDbPolyline
90
2
70
0
43
0
10
-22.9748630333
20
-18.4772308467
10
-24.4596341445
20
-18.9152397356
0
LWPOLYLINE
5
1A3
100
AcDbEntity
8
0
6
ByLayer
62
0
370
-1
100
AcDbPolyline
90
2
70
0
43
0
10
24.8793014111
20
-15.8155930689
10
25.7730991888
20
-17.07938418
0
LWPOLYLINE
5
1A4
100
AcDbEntity
8
0
6
ByLayer
62
0
370
-1
100
AcDbPolyline
90
2
70
0
43
0
10
-22.3153097001
20
-19.2699930689
10
-22.9748630333
20
-18.4772308467
0
LWPOLYLINE
5
1A5
100
AcDbEntity
8
0
6
ByLayer
62
0
370
-1
100
AcDbPolyline
90
2
70
0
43
0
10
25.7730991888
20
-17.07938418
10
26.5398969666
20
-18.5085575133
0
LWPOLYLINE
5
1A6
100
AcDbEntity
8
0
6
ByLayer
62
0
370
-1
100
AcDbPolyline
90
2
70
0
43
0
10
-23.0157852555
20
-20.6500597356
10
-22.3153097001
20
-19.2699930689
0
LWPOLYLINE
5
1A7
100
AcDbEntity
8
0
6
ByLayer
62
0
370
-1
100
AcDbPolyline
90
2
70
0
43
0
10
26.5398969666
20
-18.5085575133
10
26.0598369666
20
-19.1793997356
0
LWPOLYLINE
5
1A8
100
AcDbEntity
8
0
6
ByLayer
62
0
370
-1
100
AcDbPolyline
90
2
70
0
43
0
10
-23.5664008112
20
-22.1757530689
10
-23.0157852555
20
-20.6500597356
0
LWPOLYLINE
5
1A9
100
AcDbEntity
8
0
6
ByLayer
62
0
370
-1
100
AcDbPolyline
90
2
70
0
43
0
10
26.0598369666
20
-19.1793997356
10
24.4596369666
20
-18.9152397356
0
LWPOLYLINE
5
1AA
100
AcDbEntity
8
0
6
ByLayer
62
0
370
-1
100
AcDbPolyline
90
2
70
0
43
0
10
-22.9937719222
20
-22.7698308467
10
-23.5664008112
20
-22.1757530689
0
LWPOLYLINE
5
1AB
100
AcDbEntity
8
0
6
ByLayer
62
0
370
-1
100
AcDbPolyline
90
2
70
0
43
0
10
24.4596369666
20
-18.9152397356
10
22.9748658556
20
-18.4772308467
0
LWPOLYLINE
5
1AC
100
AcDbEntity
8
0
6
ByLayer
62
0
370
-1
100
AcDbPolyline
90
2
70
0
43
0
10
-21.4488874777
20
-22.2750952911
10
-22.9937719222
20
-22.7698308467
0
LWPOLYLINE
5
1AD
100
AcDbEntity
8
0
6
ByLayer
62
0
370
-1
100
AcDbPolyline
90
2
70
0
43
0
10
22.9748658556
20
-18.4772308467
10
22.3153125223
20
-19.2699930689
0
LWPOLYLINE
5
1AE
100
AcDbEntity
8
0
6
ByLayer
62
0
370
-1
100
AcDbPolyline
90
2
70
0
43
0
10
-20.0439852555
20
-21.6257019578
10
-21.4488874777
20
-22.2750952911
0
LWPOLYLINE
5
1AF
100
AcDbEntity
8
0
6
ByLayer
62
0
370
-1
100
AcDbPolyline
90
2
70
0
43
0
10
22.3153125223
20
-19.2699930689
10
23.0157880777
20
-20.6500597356
0
LWPOLYLINE
5
1B0
100
AcDbEntity
8
0
6
ByLayer
62
0
370
-1
100
AcDbPolyline
90
2
70
0
43
0
10
-19.2757763666
20
-22.3140419578
10
-20.0439852555
20
-21.6257019578
0
LWPOLYLINE
5
1B1
100
AcDbEntity
8
0
6
ByLayer
62
0
370
-1
100
AcDbPolyline
90
2
70
0
43
0
10
23.0157880777
20
-20.6500597356
10
23.5664036333
20
-22.1757530689
0
LWPOLYLINE
5
1B2
100
AcDbEntity
8
0
6
ByLayer
62
0
370
-1
100
AcDbPolyline
90
2
70
0
43
0
10
-19.7676897
20
-23.7815975133
10
-19.2757763666
20
-22.3140419578
0
LWPOLYLINE
5
1B3
100
AcDbEntity
8
0
6
ByLayer
62
0
370
-1
100
AcDbPolyline
90
2
70
0
43
0
10
23.5664036333
20
-22.1757530689
10
22.9937747445
20
-22.7698308467
0
LWPOLYLINE
5
1B4
100
AcDbEntity
8
0
6
ByLayer
62
0
370
-1
100
AcDbPolyline
90
2
70
0
43
0
10
-20.0905519223
20
-25.3710730689
10
-19.7676897
20
-23.7815975133
0
LWPOLYLINE
5
1B5
100
AcDbEntity
8
0
6
ByLayer
62
0
370
-1
100
AcDbPolyline
90
2
70
0
43
0
10
22.9937747445
20
-22.7698308467
10
21.4488902999
20
-22.2750952911
0
LWPOLYLINE
5
1B6
100
AcDbEntity
8
0
6
ByLayer
62
0
370
-1
100
AcDbPolyline
90
2
70
0
43
0
10
-19.4374897001
20
-25.87540418
10
-20.0905519223
20
-25.3710730689
0
LWPOLYLINE
5
1B7
100
AcDbEntity
8
0
6
ByLayer
62
0
370
-1
100
AcDbPolyline
90
2
70
0
43
0
10
21.4488902999
20
-22.2750952911
10
20.0439880778
20
-21.6257019578
0
LWPOLYLINE
5
1B8
100
AcDbEntity
8
0
6
ByLayer
62
0
370
-1
100
AcDbPolyline
90
2
70
0
43
0
10
-17.9812230333
20
-25.1610997356
10
-19.4374897001
20
-25.87540418
0
LWPOLYLINE
5
1B9
100
AcDbEntity
8
0
6
ByLayer
62
0
370
-1
100
AcDbPolyline
90
2
70
0
43
0
10
20.0439880778
20
-21.6257019578
10
19.2757791888
20
-22.3140419578
0
LWPOLYLINE
5
1BA
100
AcDbEntity
8
0
6
ByLayer
62
0
370
-1
100
AcDbPolyline
90
2
70
0
43
0
10
-16.6858230333
20
-24.3141508467
10
-17.9812230333
20
-25.1610997356
0
LWPOLYLINE
5
1BB
100
AcDbEntity
8
0
6
ByLayer
62
0
370
-1
100
AcDbPolyline
90
2
70
0
43
0
10
19.2757791888
20
-22.3140419578
10
19.7676925222
20
-23.7815975133
0
LWPOLYLINE
5
1BC
100
AcDbEntity
8
0
6
ByLayer
62
0
370
-1
100
AcDbPolyline
90
2
70
0
43
0
10
-15.8256097001
20
-24.8831108467
10
-16.6858230333
20
-24.3141508467
0
LWPOLYLINE
5
1BD
100
AcDbEntity
8
0
6
ByLayer
62
0
370
-1
100
AcDbPolyline
90
2
70
0
43
0
10
19.7676925222
20
-23.7815975133
10
20.0905547444
20
-25.3710730689
0
LWPOLYLINE
5
1BE
100
AcDbEntity
8
0
6
ByLayer
62
0
370
-1
100
AcDbPolyline
90
2
70
0
43
0
10
-16.0985185888
20
-26.4065464022
10
-15.8256097001
20
-24.8831108467
0
LWPOLYLINE
5
1BF
100
AcDbEntity
8
0
6
ByLayer
62
0
370
-1
100
AcDbPolyline
90
2
70
0
43
0
10
20.0905547444
20
-25.3710730689
10
19.4374925223
20
-25.87540418
0
LWPOLYLINE
5
1C0
100
AcDbEntity
8
0
6
ByLayer
62
0
370
-1
100
AcDbPolyline
90
2
70
0
43
0
10
-16.1862897001
20
-28.0262197356
10
-16.0985185888
20
-26.4065464022
0
LWPOLYLINE
5
1C1
100
AcDbEntity
8
0
6
ByLayer
62
0
370
-1
100
AcDbPolyline
90
2
70
0
43
0
10
19.4374925223
20
-25.87540418
10
17.9812258556
20
-25.1610997356
0
LWPOLYLINE
5
1C2
100
AcDbEntity
8
0
6
ByLayer
62
0
370
-1
100
AcDbPolyline
90
2
70
0
43
0
10
-15.4669052556
20
-28.4300797356
10
-16.1862897001
20
-28.0262197356
0
LWPOLYLINE
5
1C3
100
AcDbEntity
8
0
6
ByLayer
62
0
370
-1
100
AcDbPolyline
90
2
70
0
43
0
10
17.9812258556
20
-25.1610997356
10
16.6858258556
20
-24.3141508467
0
LWPOLYLINE
5
1C4
100
AcDbEntity
8
0
6
ByLayer
62
0
370
-1
100
AcDbPolyline
90
2
70
0
43
0
10
-14.1300185888
20
-27.5114464022
10
-15.4669052556
20
-28.4300797356
0
LWPOLYLINE
5
1C5
100
AcDbEntity
8
0
6
ByLayer
62
0
370
-1
100
AcDbPolyline
90
2
70
0
43
0
10
16.6858258556
20
-24.3141508467
10
15.8256125223
20
-24.8831108467
0
LWPOLYLINE
5
1C6
100
AcDbEntity
8
0
6
ByLayer
62
0
370
-1
100
AcDbPolyline
90
2
70
0
43
0
10
-12.9717785889
20
-26.4847219578
10
-14.1300185888
20
-27.5114464022
0
LWPOLYLINE
5
1C7
100
AcDbEntity
8
0
6
ByLayer
62
0
370
-1
100
AcDbPolyline
90
2
70
0
43
0
10
15.8256125223
20
-24.8831108467
10
16.0985214111
20
-26.4065464022
0
LWPOLYLINE
5
1C8
100
AcDbEntity
8
0
6
ByLayer
62
0
370
-1
100
AcDbPolyline
90
2
70
0
43
0
10
-12.0381874778
20
-26.9224486245
10
-12.9717785889
20
-26.4847219578
0
LWPOLYLINE
5
1C9
100
AcDbEntity
8
0
6
ByLayer
62
0
370
-1
100
AcDbPolyline
90
2
70
0
43
0
10
16.0985214111
20
-26.4065464022
10
16.1862925222
20
-28.0262197356
0
LWPOLYLINE
5
1CA
100
AcDbEntity
8
0
6
ByLayer
62
0
370
-1
100
AcDbPolyline
90
2
70
0
43
0
10
-12.0861652556
20
-28.4695908467
10
-12.0381874778
20
-26.9224486245
0
LWPOLYLINE
5
1CB
100
AcDbEntity
8
0
6
ByLayer
62
0
370
-1
100
AcDbPolyline
90
2
70
0
43
0
10
16.1862925222
20
-28.0262197356
10
15.4669080777
20
-28.4300797356
0
LWPOLYLINE
5
1CC
100
AcDbEntity
8
0
6
ByLayer
62
0
370
-1
100
AcDbPolyline
90
2
70
0
43
0
10
-11.9371519223
20
-30.0847486245
10
-12.0861652556
20
-28.4695908467
0
LWPOLYLINE
5
1CD
100
AcDbEntity
8
0
6
ByLayer
62
0
370
-1
100
AcDbPolyline
90
2
70
0
43
0
10
15.4669080777
20
-28.4300797356
10
14.1300214112
20
-27.5114464022
0
LWPOLYLINE
5
1CE
100
AcDbEntity
8
0
6
ByLayer
62
0
370
-1
100
AcDbPolyline
90
2
70
0
43
0
10
-11.1666852556
20
-30.3793886245
10
-11.9371519223
20
-30.0847486245
0
LWPOLYLINE
5
1CF
100
AcDbEntity
8
0
6
ByLayer
62
0
370
-1
100
AcDbPolyline
90
2
70
0
43
0
10
14.1300214112
20
-27.5114464022
10
12.9717814111
20
-26.4847219578
0
LWPOLYLINE
5
1D0
100
AcDbEntity
8
0
6
ByLayer
62
0
370
-1
100
AcDbPolyline
90
2
70
0
43
0
10
-9.97796525555
20
-29.2758997356
10
-11.1666852556
20
-30.3793886245
0
LWPOLYLINE
5
1D1
100
AcDbEntity
8
0
6
ByLayer
62
0
370
-1
100
AcDbPolyline
90
2
70
0
43
0
10
12.9717814111
20
-26.4847219578
10
12.0381902999
20
-26.9224486245
0
LWPOLYLINE
5
1D2
100
AcDbEntity
8
0
6
ByLayer
62
0
370
-1
100
AcDbPolyline
90
2
70
0
43
0
10
-8.98143858885
20
-28.0914130689
10
-9.97796525555
20
-29.2758997356
0
LWPOLYLINE
5
1D3
100
AcDbEntity
8
0
6
ByLayer
62
0
370
-1
100
AcDbPolyline
90
2
70
0
43
0
10
12.0381902999
20
-26.9224486245
10
12.0861680777
20
-28.4695908467
0
LWPOLYLINE
5
1D4
100
AcDbEntity
8
0
6
ByLayer
62
0
370
-1
100
AcDbPolyline
90
2
70
0
43
0
10
-7.99394303335
20
-28.3885930689
10
-8.98143858885
20
-28.0914130689
0
LWPOLYLINE
5
1D5
100
AcDbEntity
8
0
6
ByLayer
62
0
370
-1
100
AcDbPolyline
90
2
70
0
43
0
10
12.0861680777
20
-28.4695908467
10
11.9371547444
20
-30.0847486245
0
LWPOLYLINE
5
1D6
100
AcDbEntity
8
0
6
ByLayer
62
0
370
-1
100
AcDbPolyline
90
2
70
0
43
0
10
-7.81642525555
20
-29.9261397356
10
-7.99394303335
20
-28.3885930689
0
LWPOLYLINE
5
1D7
100
AcDbEntity
8
0
6
ByLayer
62
0
370
-1
100
AcDbPolyline
90
2
70
0
43
0
10
11.9371547444
20
-30.0847486245
10
11.1666880777
20
-30.3793886245
0
LWPOLYLINE
5
1D8
100
AcDbEntity
8
0
6
ByLayer
62
0
370
-1
100
AcDbPolyline
90
2
70
0
43
0
10
-7.43373192225
20
-31.5023508467
10
-7.81642525555
20
-29.9261397356
0
LWPOLYLINE
5
1D9
100
AcDbEntity
8
0
6
ByLayer
62
0
370
-1
100
AcDbPolyline
90
2
70
0
43
0
10
11.1666880777
20
-30.3793886245
10
9.97796807775
20
-29.2758997356
0
LWPOLYLINE
5
1DA
100
AcDbEntity
8
0
6
ByLayer
62
0
370
-1
100
AcDbPolyline
90
2
70
0
43
0
10
-6.62855192225
20
-31.68184418
10
-7.43373192225
20
-31.5023508467
0
LWPOLYLINE
5
1DB
100
AcDbEntity
8
0
6
ByLayer
62
0
370
-1
100
AcDbPolyline
90
2
70
0
43
0
10
9.97796807775
20
-29.2758997356
10
8.98144141115
20
-28.0914130689
0
LWPOLYLINE
5
1DC
100
AcDbEntity
8
0
6
ByLayer
62
0
370
-1
100
AcDbPolyline
90
2
70
0
43
0
10
-5.61311636665
20
-30.41692418
10
-6.62855192225
20
-31.68184418
0
LWPOLYLINE
5
1DD
100
AcDbEntity
8
0
6
ByLayer
62
0
370
-1
100
AcDbPolyline
90
2
70
0
43
0
10
8.98144141115
20
-28.0914130689
10
7.99394585555
20
-28.3885930689
0
LWPOLYLINE
5
1DE
100
AcDbEntity
8
0
6
ByLayer
62
0
370
-1
100
AcDbPolyline
90
2
70
0
43
0
10
-4.79975192225
20
-29.1000752911
10
-5.61311636665
20
-30.41692418
0
LWPOLYLINE
5
1DF
100
AcDbEntity
8
0
6
ByLayer
62
0
370
-1
100
AcDbPolyline
90
2
70
0
43
0
10
7.99394585555
20
-28.3885930689
10
7.81642807775
20
-29.9261397356
0
LWPOLYLINE
5
1E0
100
AcDbEntity
8
0
6
ByLayer
62
0
370
-1
100
AcDbPolyline
90
2
70
0
43
0
10
-3.77951858885
20
-29.2502175133
10
-4.79975192225
20
-29.1000752911
0
LWPOLYLINE
5
1E1
100
AcDbEntity
8
0
6
ByLayer
62
0
370
-1
100
AcDbPolyline
90
2
70
0
43
0
10
7.81642807775
20
-29.9261397356
10
7.43373474445
20
-31.5023508467
0
LWPOLYLINE
5
1E2
100
AcDbEntity
8
0
6
ByLayer
62
0
370
-1
100
AcDbPolyline
90
2
70
0
43
0
10
-3.37989192225
20
-30.7457130689
10
-3.77951858885
20
-29.2502175133
0
LWPOLYLINE
5
1E3
100
AcDbEntity
8
0
6
ByLayer
62
0
370
-1
100
AcDbPolyline
90
2
70
0
43
0
10
7.43373474445
20
-31.5023508467
10
6.62855474445
20
-31.68184418
0
LWPOLYLINE
5
1E4
100
AcDbEntity
8
0
6
ByLayer
62
0
370
-1
100
AcDbPolyline
90
2
70
0
43
0
10
-2.77198525555
20
-32.2493930689
10
-3.37989192225
20
-30.7457130689
0
LWPOLYLINE
5
1E5
100
AcDbEntity
8
0
6
ByLayer
62
0
370
-1
100
AcDbPolyline
90
2
70
0
43
0
10
6.62855474445
20
-31.68184418
10
5.61311918885
20
-30.41692418
0
LWPOLYLINE
5
1E6
100
AcDbEntity
8
0
6
ByLayer
62
0
370
-1
100
AcDbPolyline
90
2
70
0
43
0
10
-1.94902525555
20
-32.3095064022
10
-2.77198525555
20
-32.2493930689
0
LWPOLYLINE
5
1E7
100
AcDbEntity
8
0
6
ByLayer
62
0
370
-1
100
AcDbPolyline
90
2
70
0
43
0
10
5.61311918885
20
-30.41692418
10
4.79975474445
20
-29.1000752911
0
LWPOLYLINE
5
1E8
100
AcDbEntity
8
0
6
ByLayer
62
0
370
-1
100
AcDbPolyline
90
2
70
0
43
0
10
-1.12860525555
20
-30.9105308467
10
-1.94902525555
20
-32.3095064022
0
LWPOLYLINE
5
1E9
100
AcDbEntity
8
0
6
ByLayer
62
0
370
-1
100
AcDbPolyline
90
2
70
0
43
0
10
4.79975474445
20
-29.1000752911
10
3.77952141115
20
-29.2502175133
0
LWPOLYLINE
5
1EA
100
AcDbEntity
8
0
6
ByLayer
62
0
370
-1
100
AcDbPolyline
90
2
70
0
43
0
10
-0.51561858885
20
-29.4892597356
10
-1.12860525555
20
-30.9105308467
0
LWPOLYLINE
5
1EB
100
AcDbEntity
8
0
6
ByLayer
62
0
370
-1
100
AcDbPolyline
90
2
70
0
43
0
10
3.77952141115
20
-29.2502175133
10
3.37989474445
20
-30.7457130689
0
LWPOLYLINE
5
1EC
100
AcDbEntity
8
0
6
ByLayer
62
0
370
-1
100
AcDbPolyline
90
2
70
0
43
0
10
0.51562141115
20
-29.4892597356
10
-0.51561858885
20
-29.4892597356
0
LWPOLYLINE
5
1ED
100
AcDbEntity
8
0
6
ByLayer
62
0
370
-1
100
AcDbPolyline
90
2
70
0
43
0
10
3.37989474445
20
-30.7457130689
10
2.77198807775
20
-32.2493930689
0
LWPOLYLINE
5
1EE
100
AcDbEntity
8
0
6
ByLayer
62
0
370
-1
100
AcDbPolyline
90
2
70
0
43
0
10
1.12860807775
20
-30.9105308467
10
0.51562141115
20
-29.4892597356
0
LWPOLYLINE
5
1EF
100
AcDbEntity
8
0
6
ByLayer
62
0
370
-1
100
AcDbPolyline
90
2
70
0
43
0
10
2.77198807775
20
-32.2493930689
10
1.94902807775
20
-32.3095064022
0
LWPOLYLINE
5
1F0
100
AcDbEntity
8
0
6
ByLayer
62
0
370
-1
100
AcDbPolyline
90
2
70
0
43
0
10
1.94902807775
20
-32.3095064022
10
1.12860807775
20
-30.9105308467
0
LWPOLYLINE
5
1F1
100
AcDbEntity
8
0
6
ByLayer
62
0
370
-1
100
AcDbPolyline
90
2
70
0
43
0
10
1.41114999508e-06
20
8.08797806671
10
7.00439572225
20
4.04398762222
0
LWPOLYLINE
5
1F2
100
AcDbEntity
8
0
6
ByLayer
62
0
370
-1
100
AcDbPolyline
90
2
70
0
43
0
10
-7.00439572225
20
4.04399044444
10
1.41114999508e-06
20
8.08797806671
0
LWPOLYLINE
5
1F3
100
AcDbEntity
8
0
6
ByLayer
62
0
370
-1
100
AcDbPolyline
90
2
70
0
43
0
10
-7.00439572225
20
-4.04399044444
10
-7.00439572225
20
4.04399044444
0
LWPOLYLINE
5
1F4
100
AcDbEntity
8
0
6
ByLayer
62
0
370
-1
100
AcDbPolyline
90
2
70
0
43
0
10
-1.41114999508e-06
20
-8.08798173556
10
-7.00439572225
20
-4.04399044444
0
LWPOLYLINE
5
1F5
100
AcDbEntity
8
0
6
ByLayer
62
0
370
-1
100
AcDbPolyline
90
2
70
0
43
0
10
7.00439572225
20
-4.04399044444
10
-1.41114999508e-06
20
-8.08798173556
0
LWPOLYLINE
5
1F6
100
AcDbEntity
8
0
6
ByLayer
62
0
370
-1
100
AcDbPolyline
90
2
70
0
43
0
10
7.00439572225
20
4.04398762222
10
7.00439572225
20
-4.04399044444
0
ENDBLK
5
48
330
46
100
AcDbEntity
8
0
100
AcDbBlockEnd
0
BLOCK
5
4A
330
49
100
AcDbEntity
8
0
100
AcDbBlockBegin
2
part10-0
70
0
10
0
20
0
3
part10-0
1

0
LWPOLYLINE
5
1F7
100
AcDbEntity
8
0
6
ByLayer
62
0
370
-1
100
AcDbPolyline
90
2
70
0
43
0
10
10.5131305556
20
9.6163165278
10
9.6160166667
20
10.5133245833
0
LWPOLYLINE
5
1F8
100
AcDbEntity
8
0
6
ByLayer
62
0
370
-1
100
AcDbPolyline
90
2
70
0
43
0
10
10.5131305556
20
9.6163165278
10
9.6160166667
20
10.5133245833
0
LWPOLYLINE
5
1F9
100
AcDbEntity
8
0
6
ByLayer
62
0
370
-1
100
AcDbPolyline
90
2
70
0
43
0
10
11.8000638889
20
10.05697125
10
10.5131305556
20
9.6163165278
0
LWPOLYLINE
5
1FA
100
AcDbEntity
8
0
6
ByLayer
62
0
370
-1
100
AcDbPolyline
90
2
70
0
43
0
10
9.6160166667
20
10.5133245833
10
10.0566361111
20
11.8002931945
0
LWPOLYLINE
5
1FB
100
AcDbEntity
8
0
6
ByLayer
62
0
370
-1
100
AcDbPolyline
90
2
70
0
43
0
10
9.6160166667
20
10.5133245833
10
10.0566361111
20
11.8002931945
0
LWPOLYLINE
5
1FC
100
AcDbEntity
8
0
6
ByLayer
62
0
370
-1
100
AcDbPolyline
90
2
70
0
43
0
10
13.2108222222
20
8.1150354167
10
11.8000638889
20
10.05697125
0
LWPOLYLINE
5
1FD
100
AcDbEntity
8
0
6
ByLayer
62
0
370
-1
100
AcDbPolyline
90
2
70
0
43
0
10
10.0566361111
20
11.8002931945
10
8.1149472222
20
13.2112631945
0
LWPOLYLINE
5
1FE
100
AcDbEntity
8
0
6
ByLayer
62
0
370
-1
100
AcDbPolyline
90
2
70
0
43
0
10
12.3941416667
20
7.0271745833
10
13.2108222222
20
8.1150354167
0
LWPOLYLINE
5
1FF
100
AcDbEntity
8
0
6
ByLayer
62
0
370
-1
100
AcDbPolyline
90
2
70
0
43
0
10
12.9702277778
20
5.8969451389
10
12.3941416667
20
7.0271745833
0
LWPOLYLINE
5
200
100
AcDbEntity
8
0
6
ByLayer
62
0
370
-1
100
AcDbPolyline
90
2
70
0
43
0
10
5.8966805556
20
12.9703159722
10
5.9182
20
14.3304859722
0
LWPOLYLINE
5
201
100
AcDbEntity
8
0
6
ByLayer
62
0
370
-1
100
AcDbPolyline
90
2
70
0
43
0
10
15.0720788361
20
3.6353573611
10
14.3305388889
20
5.9182529167
0
LWPOLYLINE
5
202
100
AcDbEntity
8
0
6
ByLayer
62
0
370
-1
100
AcDbPolyline
90
2
70
0
43
0
10
13.9590638889
20
2.8531784722
10
15.0720788361
20
3.6353573611
0
LWPOLYLINE
5
203
100
AcDbEntity
8
0
6
ByLayer
62
0
370
-1
100
AcDbPolyline
90
2
70
0
43
0
10
14.1576777778
20
1.6003234722
10
13.9590638889
20
2.8531784722
0
LWPOLYLINE
5
204
100
AcDbEntity
8
0
6
ByLayer
62
0
370
-1
100
AcDbPolyline
90
2
70
0
43
0
10
15.4576649472
20
-1.2000265278
10
15.458017725
20
1.2002381945
0
LWPOLYLINE
5
205
100
AcDbEntity
8
0
6
ByLayer
62
0
370
-1
100
AcDbPolyline
90
2
70
0
43
0
10
14.1576777778
20
-1.6001118055
10
15.4576649472
20
-1.2000265278
0
LWPOLYLINE
5
206
100
AcDbEntity
8
0
6
ByLayer
62
0
370
-1
100
AcDbPolyline
90
2
70
0
43
0
10
13.9590638889
20
-2.8529668055
10
14.1576777778
20
-1.6001118055
0
LWPOLYLINE
5
207
100
AcDbEntity
8
0
6
ByLayer
62
0
370
-1
100
AcDbPolyline
90
2
70
0
43
0
10
14.3301861111
20
-5.91804125
10
15.0720788361
20
-3.6352515278
0
LWPOLYLINE
5
208
100
AcDbEntity
8
0
6
ByLayer
62
0
370
-1
100
AcDbPolyline
90
2
70
0
43
0
10
12.9702277778
20
-5.8967334722
10
14.3301861111
20
-5.91804125
0
LWPOLYLINE
5
209
100
AcDbEntity
8
0
6
ByLayer
62
0
370
-1
100
AcDbPolyline
90
2
70
0
43
0
10
-5.9182
20
14.3305918056
10
-5.8970333333
20
12.9703159722
0
LWPOLYLINE
5
20A
100
AcDbEntity
8
0
6
ByLayer
62
0
370
-1
100
AcDbPolyline
90
2
70
0
43
0
10
12.3941416667
20
-7.0269629167
10
12.9702277778
20
-5.8967334722
0
LWPOLYLINE
5
20B
100
AcDbEntity
8
0
6
ByLayer
62
0
370
-1
100
AcDbPolyline
90
2
70
0
43
0
10
13.211175
20
-8.1148943055
10
12.3941416667
20
-7.0269629167
0
LWPOLYLINE
5
20C
100
AcDbEntity
8
0
6
ByLayer
62
0
370
-1
100
AcDbPolyline
90
2
70
0
43
0
10
11.8000638889
20
-10.05665375
10
13.211175
20
-8.1148943055
0
LWPOLYLINE
5
20D
100
AcDbEntity
8
0
6
ByLayer
62
0
370
-1
100
AcDbPolyline
90
2
70
0
43
0
10
-8.1149472222
20
13.2109456945
10
-10.0569888889
20
11.80036375
0
LWPOLYLINE
5
20E
100
AcDbEntity
8
0
6
ByLayer
62
0
370
-1
100
AcDbPolyline
90
2
70
0
43
0
10
10.5131305556
20
-9.6161048611
10
11.8000638889
20
-10.05665375
0
LWPOLYLINE
5
20F
100
AcDbEntity
8
0
6
ByLayer
62
0
370
-1
100
AcDbPolyline
90
2
70
0
43
0
10
-10.0569888889
20
11.80036375
10
-9.6163694444
20
10.5133245833
0
LWPOLYLINE
5
210
100
AcDbEntity
8
0
6
ByLayer
62
0
370
-1
100
AcDbPolyline
90
2
70
0
43
0
10
9.6160166667
20
-10.5131129167
10
10.5131305556
20
-9.6161048611
0
LWPOLYLINE
5
211
100
AcDbEntity
8
0
6
ByLayer
62
0
370
-1
100
AcDbPolyline
90
2
70
0
43
0
10
10.0566361111
20
-11.8001520833
10
9.6160166667
20
-10.5131129167
0
LWPOLYLINE
5
212
100
AcDbEntity
8
0
6
ByLayer
62
0
370
-1
100
AcDbPolyline
90
2
70
0
43
0
10
8.1145944444
20
-13.2109809722
10
10.0566361111
20
-11.8001520833
0
LWPOLYLINE
5
213
100
AcDbEntity
8
0
6
ByLayer
62
0
370
-1
100
AcDbPolyline
90
2
70
0
43
0
10
-11.8000638889
20
10.0567595833
10
-13.211175
20
8.1151059722
0
LWPOLYLINE
5
214
100
AcDbEntity
8
0
6
ByLayer
62
0
370
-1
100
AcDbPolyline
90
2
70
0
43
0
10
7.0269805556
20
-12.3942651389
10
8.1145944444
20
-13.2109809722
0
LWPOLYLINE
5
215
100
AcDbEntity
8
0
6
ByLayer
62
0
370
-1
100
AcDbPolyline
90
2
70
0
43
0
10
-13.211175
20
8.1151059722
10
-12.3944944444
20
7.0271745833
0
LWPOLYLINE
5
216
100
AcDbEntity
8
0
6
ByLayer
62
0
370
-1
100
AcDbPolyline
90
2
70
0
43
0
10
5.8966805556
20
-12.97003375
10
7.0269805556
20
-12.3942651389
0
LWPOLYLINE
5
217
100
AcDbEntity
8
0
6
ByLayer
62
0
370
-1
100
AcDbPolyline
90
2
70
0
43
0
10
5.9182
20
-14.3303448611
10
5.8966805556
20
-12.97003375
0
LWPOLYLINE
5
218
100
AcDbEntity
8
0
6
ByLayer
62
0
370
-1
100
AcDbPolyline
90
2
70
0
43
0
10
3.6350222222
20
-15.07188375
10
5.9182
20
-14.3303448611
0
LWPOLYLINE
5
219
100
AcDbEntity
8
0
6
ByLayer
62
0
370
-1
100
AcDbPolyline
90
2
70
0
43
0
10
2.8529138889
20
-13.9592226389
10
3.6350222222
20
-15.07188375
0
LWPOLYLINE
5
21A
100
AcDbEntity
8
0
6
ByLayer
62
0
370
-1
100
AcDbPolyline
90
2
70
0
43
0
10
-15.0724305556
20
3.6354631945
10
-13.9594166667
20
2.8531784722
0
LWPOLYLINE
5
21B
100
AcDbEntity
8
0
6
ByLayer
62
0
370
-1
100
AcDbPolyline
90
2
70
0
43
0
10
1.6002
20
-14.15748375
10
2.8529138889
20
-13.9592226389
0
LWPOLYLINE
5
21C
100
AcDbEntity
8
0
6
ByLayer
62
0
370
-1
100
AcDbPolyline
90
2
70
0
43
0
10
-13.9594166667
20
2.8531784722
10
-14.1576777778
20
1.6003234722
0
LWPOLYLINE
5
21D
100
AcDbEntity
8
0
6
ByLayer
62
0
370
-1
100
AcDbPolyline
90
2
70
0
43
0
10
1.20015
20
-15.4578226389
10
1.6002
20
-14.15748375
0
LWPOLYLINE
5
21E
100
AcDbEntity
8
0
6
ByLayer
62
0
370
-1
100
AcDbPolyline
90
2
70
0
43
0
10
-1.20015
20
-15.4574698611
10
1.20015
20
-15.4578226389
0
LWPOLYLINE
5
21F
100
AcDbEntity
8
0
6
ByLayer
62
0
370
-1
100
AcDbPolyline
90
2
70
0
43
0
10
-15.4576638889
20
1.2002381945
10
-15.4580166667
20
-1.2000265278
0
LWPOLYLINE
5
220
100
AcDbEntity
8
0
6
ByLayer
62
0
370
-1
100
AcDbPolyline
90
2
70
0
43
0
10
-1.6002
20
-14.15748375
10
-1.20015
20
-15.4574698611
0
LWPOLYLINE
5
221
100
AcDbEntity
8
0
6
ByLayer
62
0
370
-1
100
AcDbPolyline
90
2
70
0
43
0
10
-15.4580166667
20
-1.2000265278
10
-14.1576777778
20
-1.6001118055
0
LWPOLYLINE
5
222
100
AcDbEntity
8
0
6
ByLayer
62
0
370
-1
100
AcDbPolyline
90
2
70
0
43
0
10
-2.8532666667
20
-13.9592226389
10
-1.6002
20
-14.15748375
0
LWPOLYLINE
5
223
100
AcDbEntity
8
0
6
ByLayer
62
0
370
-1
100
AcDbPolyline
90
2
70
0
43
0
10
-14.1576777778
20
-1.6001118055
10
-13.9594166667
20
-2.8529668055
0
LWPOLYLINE
5
224
100
AcDbEntity
8
0
6
ByLayer
62
0
370
-1
100
AcDbPolyline
90
2
70
0
43
0
10
-3.635375
20
-15.0722365278
10
-2.8532666667
20
-13.9592226389
0
LWPOLYLINE
5
225
100
AcDbEntity
8
0
6
ByLayer
62
0
370
-1
100
AcDbPolyline
90
2
70
0
43
0
10
-13.9594166667
20
-2.8529668055
10
-15.0720777778
20
-3.6351456944
0
LWPOLYLINE
5
226
100
AcDbEntity
8
0
6
ByLayer
62
0
370
-1
100
AcDbPolyline
90
2
70
0
43
0
10
-5.9182
20
-14.3299920833
10
-3.635375
20
-15.0722365278
0
LWPOLYLINE
5
227
100
AcDbEntity
8
0
6
ByLayer
62
0
370
-1
100
AcDbPolyline
90
2
70
0
43
0
10
-15.0720777778
20
-3.6351456944
10
-14.3305388889
20
-5.91804125
0
LWPOLYLINE
5
228
100
AcDbEntity
8
0
6
ByLayer
62
0
370
-1
100
AcDbPolyline
90
2
70
0
43
0
10
-5.8970333333
20
-12.97003375
10
-5.9182
20
-14.3299920833
0
LWPOLYLINE
5
229
100
AcDbEntity
8
0
6
ByLayer
62
0
370
-1
100
AcDbPolyline
90
2
70
0
43
0
10
-14.3305388889
20
-5.91804125
10
-12.9702277778
20
-5.8967334722
0
LWPOLYLINE
5
22A
100
AcDbEntity
8
0
6
ByLayer
62
0
370
-1
100
AcDbPolyline
90
2
70
0
43
0
10
-7.0273333333
20
-12.3942651389
10
-5.8970333333
20
-12.97003375
0
LWPOLYLINE
5
22B
100
AcDbEntity
8
0
6
ByLayer
62
0
370
-1
100
AcDbPolyline
90
2
70
0
43
0
10
-12.9702277778
20
-5.8967334722
10
-12.3944944444
20
-7.0269629167
0
LWPOLYLINE
5
22C
100
AcDbEntity
8
0
6
ByLayer
62
0
370
-1
100
AcDbPolyline
90
2
70
0
43
0
10
-8.1149472222
20
-13.2109809722
10
-7.0273333333
20
-12.3942651389
0
LWPOLYLINE
5
22D
100
AcDbEntity
8
0
6
ByLayer
62
0
370
-1
100
AcDbPolyline
90
2
70
0
43
0
10
-10.0566361111
20
-11.7999756944
10
-8.1149472222
20
-13.2109809722
0
LWPOLYLINE
5
22E
100
AcDbEntity
8
0
6
ByLayer
62
0
370
-1
100
AcDbPolyline
90
2
70
0
43
0
10
-13.2108222222
20
-8.1147179167
10
-11.8004166667
20
-10.0567595833
0
LWPOLYLINE
5
22F
100
AcDbEntity
8
0
6
ByLayer
62
0
370
-1
100
AcDbPolyline
90
2
70
0
43
0
10
-9.6163694444
20
-10.5131129167
10
-10.0566361111
20
-11.7999756944
0
LWPOLYLINE
5
230
100
AcDbEntity
8
0
6
ByLayer
62
0
370
-1
100
AcDbPolyline
90
2
70
0
43
0
10
-11.8004166667
20
-10.0567595833
10
-10.5131305556
20
-9.6161048611
0
LWPOLYLINE
5
231
100
AcDbEntity
8
0
6
ByLayer
62
0
370
-1
100
AcDbPolyline
90
2
70
0
43
0
10
-10.5131305556
20
-9.6161048611
10
-9.6163694444
20
-10.5131129167
0
LWPOLYLINE
5
232
100
AcDbEntity
8
0
6
ByLayer
62
0
370
-1
100
AcDbPolyline
90
2
70
0
43
0
10
-6.2829722222
20
3.6274551389
10
-3.1414861111
20
5.4411915278
0
LWPOLYLINE
5
233
100
AcDbEntity
8
0
6
ByLayer
62
0
370
-1
100
AcDbPolyline
90
2
70
0
43
0
10
6.2829722222
20
-1.76388999904e-05
10
6.2829722222
20
-3.6274551389
0
LWPOLYLINE
5
234
100
AcDbEntity
8
0
6
ByLayer
62
0
370
-1
100
AcDbPolyline
90
2
70
0
43
0
10
6.2829722222
20
3.6274551389
10
6.2829722222
20
-1.76388999904e-05
0
LWPOLYLINE
5
235
100
AcDbEntity
8
0
6
ByLayer
62
0
370
-1
100
AcDbPolyline
90
2
70
0
43
0
10
13.2108222222
20
8.1150354167
10
11.8000638889
20
10.05697125
0
LWPOLYLINE
5
236
100
AcDbEntity
8
0
6
ByLayer
62
0
370
-1
100
AcDbPolyline
90
2
70
0
43
0
10
10.0566361111
20
11.8002931945
10
8.1149472222
20
13.2112631945
0
LWPOLYLINE
5
237
100
AcDbEntity
8
0
6
ByLayer
62
0
370
-1
100
AcDbPolyline
90
2
70
0
43
0
10
12.3941416667
20
7.0271745833
10
13.2108222222
20
8.1150354167
0
LWPOLYLINE
5
238
100
AcDbEntity
8
0
6
ByLayer
62
0
370
-1
100
AcDbPolyline
90
2
70
0
43
0
10
8.1149472222
20
13.2112631945
10
7.0269805556
20
12.3944768056
0
LWPOLYLINE
5
239
100
AcDbEntity
8
0
6
ByLayer
62
0
370
-1
100
AcDbPolyline
90
2
70
0
43
0
10
12.9702277778
20
5.8969451389
10
12.3941416667
20
7.0271745833
0
LWPOLYLINE
5
23A
100
AcDbEntity
8
0
6
ByLayer
62
0
370
-1
100
AcDbPolyline
90
2
70
0
43
0
10
7.0269805556
20
12.3944768056
10
5.8966805556
20
12.9703159722
0
LWPOLYLINE
5
23B
100
AcDbEntity
8
0
6
ByLayer
62
0
370
-1
100
AcDbPolyline
90
2
70
0
43
0
10
14.3305388889
20
5.9182529167
10
12.9702277778
20
5.8969451389
0
LWPOLYLINE
5
23C
100
AcDbEntity
8
0
6
ByLayer
62
0
370
-1
100
AcDbPolyline
90
2
70
0
43
0
10
5.8966805556
20
12.9703159722
10
5.9182
20
14.3304859722
0
LWPOLYLINE
5
23D
100
AcDbEntity
8
0
6
ByLayer
62
0
370
-1
100
AcDbPolyline
90
2
70
0
43
0
10
15.0720788361
20
3.6353573611
10
14.3305388889
20
5.9182529167
0
LWPOLYLINE
5
23E
100
AcDbEntity
8
0
6
ByLayer
62
0
370
-1
100
AcDbPolyline
90
2
70
0
43
0
10
5.9182
20
14.3304859722
10
3.635375
20
15.0723070833
0
LWPOLYLINE
5
23F
100
AcDbEntity
8
0
6
ByLayer
62
0
370
-1
100
AcDbPolyline
90
2
70
0
43
0
10
13.9590638889
20
2.8531784722
10
15.0720788361
20
3.6353573611
0
LWPOLYLINE
5
240
100
AcDbEntity
8
0
6
ByLayer
62
0
370
-1
100
AcDbPolyline
90
2
70
0
43
0
10
3.635375
20
15.0723070833
10
2.8529138889
20
13.95936375
0
LWPOLYLINE
5
241
100
AcDbEntity
8
0
6
ByLayer
62
0
370
-1
100
AcDbPolyline
90
2
70
0
43
0
10
14.1576777778
20
1.6003234722
10
13.9590638889
20
2.8531784722
0
LWPOLYLINE
5
242
100
AcDbEntity
8
0
6
ByLayer
62
0
370
-1
100
AcDbPolyline
90
2
70
0
43
0
10
2.8529138889
20
13.95936375
10
1.6002
20
14.1577659722
0
LWPOLYLINE
5
243
100
AcDbEntity
8
0
6
ByLayer
62
0
370
-1
100
AcDbPolyline
90
2
70
0
43
0
10
15.458017725
20
1.2002381945
10
14.1576777778
20
1.6003234722
0
LWPOLYLINE
5
244
100
AcDbEntity
8
0
6
ByLayer
62
0
370
-1
100
AcDbPolyline
90
2
70
0
43
0
10
1.6002
20
14.1577659722
10
1.20015
20
15.45796375
0
LWPOLYLINE
5
245
100
AcDbEntity
8
0
6
ByLayer
62
0
370
-1
100
AcDbPolyline
90
2
70
0
43
0
10
15.4576649472
20
-1.2000265278
10
15.458017725
20
1.2002381945
0
LWPOLYLINE
5
246
100
AcDbEntity
8
0
6
ByLayer
62
0
370
-1
100
AcDbPolyline
90
2
70
0
43
0
10
1.20015
20
15.45796375
10
-1.20015
20
15.45796375
0
LWPOLYLINE
5
247
100
AcDbEntity
8
0
6
ByLayer
62
0
370
-1
100
AcDbPolyline
90
2
70
0
43
0
10
14.1576777778
20
-1.6001118055
10
15.4576649472
20
-1.2000265278
0
LWPOLYLINE
5
248
100
AcDbEntity
8
0
6
ByLayer
62
0
370
-1
100
AcDbPolyline
90
2
70
0
43
0
10
-1.20015
20
15.45796375
10
-1.6002
20
14.1577659722
0
LWPOLYLINE
5
249
100
AcDbEntity
8
0
6
ByLayer
62
0
370
-1
100
AcDbPolyline
90
2
70
0
43
0
10
13.9590638889
20
-2.8529668055
10
14.1576777778
20
-1.6001118055
0
LWPOLYLINE
5
24A
100
AcDbEntity
8
0
6
ByLayer
62
0
370
-1
100
AcDbPolyline
90
2
70
0
43
0
10
-1.6002
20
14.1577659722
10
-2.8532666667
20
13.95936375
0
LWPOLYLINE
5
24B
100
AcDbEntity
8
0
6
ByLayer
62
0
370
-1
100
AcDbPolyline
90
2
70
0
43
0
10
15.0720788361
20
-3.6352515278
10
13.9590638889
20
-2.8529668055
0
LWPOLYLINE
5
24C
100
AcDbEntity
8
0
6
ByLayer
62
0
370
-1
100
AcDbPolyline
90
2
70
0
43
0
10
-2.8532666667
20
13.95936375
10
-3.635375
20
15.0719895833
0
LWPOLYLINE
5
24D
100
AcDbEntity
8
0
6
ByLayer
62
0
370
-1
100
AcDbPolyline
90
2
70
0
43
0
10
14.3301861111
20
-5.91804125
10
15.0720788361
20
-3.6352515278
0
LWPOLYLINE
5
24E
100
AcDbEntity
8
0
6
ByLayer
62
0
370
-1
100
AcDbPolyline
90
2
70
0
43
0
10
-3.635375
20
15.0719895833
10
-5.9182
20
14.3305918056
0
LWPOLYLINE
5
24F
100
AcDbEntity
8
0
6
ByLayer
62
0
370
-1
100
AcDbPolyline
90
2
70
0
43
0
10
12.9702277778
20
-5.8967334722
10
14.3301861111
20
-5.91804125
0
LWPOLYLINE
5
250
100
AcDbEntity
8
0
6
ByLayer
62
0
370
-1
100
AcDbPolyline
90
2
70
0
43
0
10
-5.9182
20
14.3305918056
10
-5.8970333333
20
12.9703159722
0
LWPOLYLINE
5
251
100
AcDbEntity
8
0
6
ByLayer
62
0
370
-1
100
AcDbPolyline
90
2
70
0
43
0
10
12.3941416667
20
-7.0269629167
10
12.9702277778
20
-5.8967334722
0
LWPOLYLINE
5
252
100
AcDbEntity
8
0
6
ByLayer
62
0
370
-1
100
AcDbPolyline
90
2
70
0
43
0
10
-5.8970333333
20
12.9703159722
10
-7.0273333333
20
12.3944768056
0
LWPOLYLINE
5
253
100
AcDbEntity
8
0
6
ByLayer
62
0
370
-1
100
AcDbPolyline
90
2
70
0
43
0
10
13.211175
20
-8.1148943055
10
12.3941416667
20
-7.0269629167
0
LWPOLYLINE
5
254
100
AcDbEntity
8
0
6
ByLayer
62
0
370
-1
100
AcDbPolyline
90
2
70
0
43
0
10
-7.0273333333
20
12.3944768056
10
-8.1149472222
20
13.2109456945
0
LWPOLYLINE
5
255
100
AcDbEntity
8
0
6
ByLayer
62
0
370
-1
100
AcDbPolyline
90
2
70
0
43
0
10
11.8000638889
20
-10.05665375
10
13.211175
20
-8.1148943055
0
LWPOLYLINE
5
256
100
AcDbEntity
8
0
6
ByLayer
62
0
370
-1
100
AcDbPolyline
90
2
70
0
43
0
10
-8.1149472222
20
13.2109456945
10
-10.0569888889
20
11.80036375
0
LWPOLYLINE
5
257
100
AcDbEntity
8
0
6
ByLayer
62
0
370
-1
100
AcDbPolyline
90
2
70
0
43
0
10
10.5131305556
20
-9.6161048611
10
11.8000638889
20
-10.05665375
0
LWPOLYLINE
5
258
100
AcDbEntity
8
0
6
ByLayer
62
0
370
-1
100
AcDbPolyline
90
2
70
0
43
0
10
-10.0569888889
20
11.80036375
10
-9.6163694444
20
10.5133245833
0
LWPOLYLINE
5
259
100
AcDbEntity
8
0
6
ByLayer
62
0
370
-1
100
AcDbPolyline
90
2
70
0
43
0
10
9.6160166667
20
-10.5131129167
10
10.5131305556
20
-9.6161048611
0
LWPOLYLINE
5
25A
100
AcDbEntity
8
0
6
ByLayer
62
0
370
-1
100
AcDbPolyline
90
2
70
0
43
0
10
-9.6163694444
20
10.5133245833
10
-10.5131305556
20
9.6163165278
0
LWPOLYLINE
5
25B
100
AcDbEntity
8
0
6
ByLayer
62
0
370
-1
100
AcDbPolyline
90
2
70
0
43
0
10
10.0566361111
20
-11.8001520833
10
9.6160166667
20
-10.5131129167
0
LWPOLYLINE
5
25C
100
AcDbEntity
8
0
6
ByLayer
62
0
370
-1
100
AcDbPolyline
90
2
70
0
43
0
10
-10.5131305556
20
9.6163165278
10
-11.8000638889
20
10.0567595833
0
LWPOLYLINE
5
25D
100
AcDbEntity
8
0
6
ByLayer
62
0
370
-1
100
AcDbPolyline
90
2
70
0
43
0
10
8.1145944444
20
-13.2109809722
10
10.0566361111
20
-11.8001520833
0
LWPOLYLINE
5
25E
100
AcDbEntity
8
0
6
ByLayer
62
0
370
-1
100
AcDbPolyline
90
2
70
0
43
0
10
-11.8000638889
20
10.0567595833
10
-13.211175
20
8.1151059722
0
LWPOLYLINE
5
25F
100
AcDbEntity
8
0
6
ByLayer
62
0
370
-1
100
AcDbPolyline
90
2
70
0
43
0
10
7.0269805556
20
-12.3942651389
10
8.1145944444
20
-13.2109809722
0
LWPOLYLINE
5
260
100
AcDbEntity
8
0
6
ByLayer
62
0
370
-1
100
AcDbPolyline
90
2
70
0
43
0
10
-13.211175
20
8.1151059722
10
-12.3944944444
20
7.0271745833
0
LWPOLYLINE
5
261
100
AcDbEntity
8
0
6
ByLayer
62
0
370
-1
100
AcDbPolyline
90
2
70
0
43
0
10
5.8966805556
20
-12.97003375
10
7.0269805556
20
-12.3942651389
0
LWPOLYLINE
5
262
100
AcDbEntity
8
0
6
ByLayer
62
0
370
-1
100
AcDbPolyline
90
2
70
0
43
0
10
-12.3944944444
20
7.0271745833
10
-12.9702277778
20
5.8969451389
0
LWPOLYLINE
5
263
100
AcDbEntity
8
0
6
ByLayer
62
0
370
-1
100
AcDbPolyline
90
2
70
0
43
0
10
5.9182
20
-14.3303448611
10
5.8966805556
20
-12.97003375
0
LWPOLYLINE
5
264
100
AcDbEntity
8
0
6
ByLayer
62
0
370
-1
100
AcDbPolyline
90
2
70
0
43
0
10
-12.9702277778
20
5.8969451389
10
-14.3301861111
20
5.9181470833
0
LWPOLYLINE
5
265
100
AcDbEntity
8
0
6
ByLayer
62
0
370
-1
100
AcDbPolyline
90
2
70
0
43
0
10
3.6350222222
20
-15.07188375
10
5.9182
20
-14.3303448611
0
LWPOLYLINE
5
266
100
AcDbEntity
8
0
6
ByLayer
62
0
370
-1
100
AcDbPolyline
90
2
70
0
43
0
10
-14.3301861111
20
5.9181470833
10
-15.0724305556
20
3.6354631945
0
LWPOLYLINE
5
267
100
AcDbEntity
8
0
6
ByLayer
62
0
370
-1
100
AcDbPolyline
90
2
70
0
43
0
10
2.8529138889
20
-13.9592226389
10
3.6350222222
20
-15.07188375
0
LWPOLYLINE
5
268
100
AcDbEntity
8
0
6
ByLayer
62
0
370
-1
100
AcDbPolyline
90
2
70
0
43
0
10
-15.0724305556
20
3.6354631945
10
-13.9594166667
20
2.8531784722
0
LWPOLYLINE
5
269
100
AcDbEntity
8
0
6
ByLayer
62
0
370
-1
100
AcDbPolyline
90
2
70
0
43
0
10
1.6002
20
-14.15748375
10
2.8529138889
20
-13.9592226389
0
LWPOLYLINE
5
26A
100
AcDbEntity
8
0
6
ByLayer
62
0
370
-1
100
AcDbPolyline
90
2
70
0
43
0
10
-13.9594166667
20
2.8531784722
10
-14.1576777778
20
1.6003234722
0
LWPOLYLINE
5
26B
100
AcDbEntity
8
0
6
ByLayer
62
0
370
-1
100
AcDbPolyline
90
2
70
0
43
0
10
1.20015
20
-15.4578226389
10
1.6002
20
-14.15748375
0
LWPOLYLINE
5
26C
100
AcDbEntity
8
0
6
ByLayer
62
0
370
-1
100
AcDbPolyline
90
2
70
0
43
0
10
-14.1576777778
20
1.6003234722
10
-15.4576638889
20
1.2002381945
0
LWPOLYLINE
5
26D
100
AcDbEntity
8
0
6
ByLayer
62
0
370
-1
100
AcDbPolyline
90
2
70
0
43
0
10
-1.20015
20
-15.4574698611
10
1.20015
20
-15.4578226389
0
LWPOLYLINE
5
26E
100
AcDbEntity
8
0
6
ByLayer
62
0
370
-1
100
AcDbPolyline
90
2
70
0
43
0
10
-15.4576638889
20
1.2002381945
10
-15.4580166667
20
-1.2000265278
0
LWPOLYLINE
5
26F
100
AcDbEntity
8
0
6
ByLayer
62
0
370
-1
100
AcDbPolyline
90
2
70
0
43
0
10
-1.6002
20
-14.15748375
10
-1.20015
20
-15.4574698611
0
LWPOLYLINE
5
270
100
AcDbEntity
8
0
6
ByLayer
62
0
370
-1
100
AcDbPolyline
90
2
70
0
43
0
10
-15.4580166667
20
-1.2000265278
10
-14.1576777778
20
-1.6001118055
0
LWPOLYLINE
5
271
100
AcDbEntity
8
0
6
ByLayer
62
0
370
-1
100
AcDbPolyline
90
2
70
0
43
0
10
-2.8532666667
20
-13.9592226389
10
-1.6002
20
-14.15748375
0
LWPOLYLINE
5
272
100
AcDbEntity
8
0
6
ByLayer
62
0
370
-1
100
AcDbPolyline
90
2
70
0
43
0
10
-14.1576777778
20
-1.6001118055
10
-13.9594166667
20
-2.8529668055
0
LWPOLYLINE
5
273
100
AcDbEntity
8
0
6
ByLayer
62
0
370
-1
100
AcDbPolyline
90
2
70
0
43
0
10
-3.635375
20
-15.0722365278
10
-2.8532666667
20
-13.9592226389
0
LWPOLYLINE
5
274
100
AcDbEntity
8
0
6
ByLayer
62
0
370
-1
100
AcDbPolyline
90
2
70
0
43
0
10
-13.9594166667
20
-2.8529668055
10
-15.0720777778
20
-3.6351456944
0
LWPOLYLINE
5
275
100
AcDbEntity
8
0
6
ByLayer
62
0
370
-1
100
AcDbPolyline
90
2
70
0
43
0
10
-5.9182
20
-14.3299920833
10
-3.635375
20
-15.0722365278
0
LWPOLYLINE
5
276
100
AcDbEntity
8
0
6
ByLayer
62
0
370
-1
100
AcDbPolyline
90
2
70
0
43
0
10
-15.0720777778
20
-3.6351456944
10
-14.3305388889
20
-5.91804125
0
LWPOLYLINE
5
277
100
AcDbEntity
8
0
6
ByLayer
62
0
370
-1
100
AcDbPolyline
90
2
70
0
43
0
10
-5.8970333333
20
-12.97003375
10
-5.9182
20
-14.3299920833
0
LWPOLYLINE
5
278
100
AcDbEntity
8
0
6
ByLayer
62
0
370
-1
100
AcDbPolyline
90
2
70
0
43
0
10
-14.3305388889
20
-5.91804125
10
-12.9702277778
20
-5.8967334722
0
LWPOLYLINE
5
279
100
AcDbEntity
8
0
6
ByLayer
62
0
370
-1
100
AcDbPolyline
90
2
70
0
43
0
10
-7.0273333333
20
-12.3942651389
10
-5.8970333333
20
-12.97003375
0
LWPOLYLINE
5
27A
100
AcDbEntity
8
0
6
ByLayer
62
0
370
-1
100
AcDbPolyline
90
2
70
0
43
0
10
-12.9702277778
20
-5.8967334722
10
-12.3944944444
20
-7.0269629167
0
LWPOLYLINE
5
27B
100
AcDbEntity
8
0
6
ByLayer
62
0
370
-1
100
AcDbPolyline
90
2
70
0
43
0
10
-8.1149472222
20
-13.2109809722
10
-7.0273333333
20
-12.3942651389
0
LWPOLYLINE
5
27C
100
AcDbEntity
8
0
6
ByLayer
62
0
370
-1
100
AcDbPolyline
90
2
70
0
43
0
10
-12.3944944444
20
-7.0269629167
10
-13.2108222222
20
-8.1147179167
0
LWPOLYLINE
5
27D
100
AcDbEntity
8
0
6
ByLayer
62
0
370
-1
100
AcDbPolyline
90
2
70
0
43
0
10
-10.0566361111
20
-11.7999756944
10
-8.1149472222
20
-13.2109809722
0
LWPOLYLINE
5
27E
100
AcDbEntity
8
0
6
ByLayer
62
0
370
-1
100
AcDbPolyline
90
2
70
0
43
0
10
-13.2108222222
20
-8.1147179167
10
-11.8004166667
20
-10.0567595833
0
LWPOLYLINE
5
27F
100
AcDbEntity
8
0
6
ByLayer
62
0
370
-1
100
AcDbPolyline
90
2
70
0
43
0
10
-9.6163694444
20
-10.5131129167
10
-10.0566361111
20
-11.7999756944
0
LWPOLYLINE
5
280
100
AcDbEntity
8
0
6
ByLayer
62
0
370
-1
100
AcDbPolyline
90
2
70
0
43
0
10
-11.8004166667
20
-10.0567595833
10
-10.5131305556
20
-9.6161048611
0
LWPOLYLINE
5
281
100
AcDbEntity
8
0
6
ByLayer
62
0
370
-1
100
AcDbPolyline
90
2
70
0
43
0
10
-10.5131305556
20
-9.6161048611
10
-9.6163694444
20
-10.5131129167
0
LWPOLYLINE
5
282
100
AcDbEntity
8
0
6
ByLayer
62
0
370
-1
100
AcDbPolyline
90
2
70
0
43
0
10
-3.1414861111
20
5.4411915278
10
0
20
7.2548220833
0
LWPOLYLINE
5
283
100
AcDbEntity
8
0
6
ByLayer
62
0
370
-1
100
AcDbPolyline
90
2
70
0
43
0
10
-6.2829722222
20
3.6274551389
10
-3.1414861111
20
5.4411915278
0
LWPOLYLINE
5
284
100
AcDbEntity
8
0
6
ByLayer
62
0
370
-1
100
AcDbPolyline
90
2
70
0
43
0
10
-6.2829722222
20
-1.76388999904e-05
10
-6.2829722222
20
3.6274551389
0
LWPOLYLINE
5
285
100
AcDbEntity
8
0
6
ByLayer
62
0
370
-1
100
AcDbPolyline
90
2
70
0
43
0
10
-6.2829722222
20
-3.6274551389
10
-6.2829722222
20
-1.76388999904e-05
0
LWPOLYLINE
5
286
100
AcDbEntity
8
0
6
ByLayer
62
0
370
-1
100
AcDbPolyline
90
2
70
0
43
0
10
-3.1414861111
20
-5.44115625
10
-6.2829722222
20
-3.6274551389
0
LWPOLYLINE
5
287
100
AcDbEntity
8
0
6
ByLayer
62
0
370
-1
100
AcDbPolyline
90
2
70
0
43
0
10
0
20
-7.2547868055
10
-3.1414861111
20
-5.44115625
0
LWPOLYLINE
5
288
100
AcDbEntity
8
0
6
ByLayer
62
0
370
-1
100
AcDbPolyline
90
2
70
0
43
0
10
3.1414861111
20
-5.44115625
10
0
20
-7.2547868055
0
LWPOLYLINE
5
289
100
AcDbEntity
8
0
6
ByLayer
62
0
370
-1
100
AcDbPolyline
90
2
70
0
43
0
10
6.2829722222
20
-3.6274551389
10
3.1414861111
20
-5.44115625
0
LWPOLYLINE
5
28A
100
AcDbEntity
8
0
6
ByLayer
62
0
370
-1
100
AcDbPolyline
90
2
70
0
43
0
10
6.2829722222
20
-1.76388999904e-05
10
6.2829722222
20
-3.6274551389
0
LWPOLYLINE
5
28B
100
AcDbEntity
8
0
6
ByLayer
62
0
370
-1
100
AcDbPolyline
90
2
70
0
43
0
10
6.2829722222
20
3.6274551389
10
6.2829722222
20
-1.76388999904e-05
0
LWPOLYLINE
5
28C
100
AcDbEntity
8
0
6
ByLayer
62
0
370
-1
100
AcDbPolyline
90
2
70
0
43
0
10
3.1414861111
20
5.4411915278
10
6.2829722222
20
3.6274551389
0
LWPOLYLINE
5
28D
100
AcDbEntity
8
0
6
ByLayer
62
0
370
-1
100
AcDbPolyline
90
2
70
0
43
0
10
0
20
7.2548220833
10
3.1414861111
20
5.4411915278
0
ENDBLK
5
4B
330
49
100
AcDbEntity
8
0
100
AcDbBlockEnd
0
BLOCK
5
4D
330
4C
100
AcDbEntity
8
0
100
AcDbBlockBegin
2
part13-0
70
0
10
0
20
0
3
part13-0
1

0
LINE
5
28E
100
AcDbEntity
8
0
6
ByLayer
62
0
370
-1
100
AcDbLine
10
4.4408920985e-16
20
0
11
61
21
-3.5527136788e-15
0
LINE
5
28F
100
AcDbEntity
8
0
6
ByLayer
62
0
370
-1
100
AcDbLine
10
61
20
-3.5527136788e-15
11
83
21
38.1051572612
0
LINE
5
290
100
AcDbEntity
8
0
6
ByLayer
62
0
370
-1
100
AcDbLine
10
83
20
38.1051572612
11
45.0769806468
21
60
0
LINE
5
291
100
AcDbEntity
8
0
6
ByLayer
62
0
370
-1
100
AcDbLine
10
45.0769806468
20
60
11
19.9999803923
21
60
0
LINE
5
292
100
AcDbEntity
8
0
6
ByLayer
62
0
370
-1
100
AcDbLine
10
19.9999803923
20
60
11
3.84204387055e-14
21
40
0
LINE
5
293
100
AcDbEntity
8
0
6
ByLayer
62
0
370
-1
100
AcDbLine
10
7.33419401599e-15
20
40
11
4.4408920985e-16
21
0
0
CIRCLE
5
294
100
AcDbEntity
8
0
6
ByLayer
62
0
370
-1
100
AcDbCircle
10
54
20
30
40
11
0
CIRCLE
5
295
100
AcDbEntity
8
0
6
ByLayer
62
256
370
-1
100
AcDbCircle
10
26
20
40
40
3
0
CIRCLE
5
296
100
AcDbEntity
8
0
6
ByLayer
62
256
370
-1
100
AcDbCircle
10
10
20
15
40
3
0
CIRCLE
5
297
100
AcDbEntity
8
0
6
ByLayer
62
256
370
-1
100
AcDbCircle
10
32.8266087876
20
24.3265967387
40
0.5
0
CIRCLE
5
298
100
AcDbEntity
8
0
6
ByLayer
62
256
370
-1
100
AcDbCircle
10
48.3265967387
20
51.1733912124
40
0.5
0
CIRCLE
5
299
100
AcDbEntity
8
0
6
ByLayer
62
256
370
-1
100
AcDbCircle
10
75.1733912124
20
35.6734032613
40
0.5
0
CIRCLE
5
29A
100
AcDbEntity
8
0
6
ByLayer
62
256
370
-1
100
AcDbCircle
10
59.6734032613
20
8.82660878758
40
0.5
0
ENDBLK
5
4E
330
4C
100
AcDbEntity
8
0
100
AcDbBlockEnd
0
BLOCK
5
50
330
4F
100
AcDbEntity
8
0
100
AcDbBlockBegin
2
part14-0
70
0
10
0
20
0
3
part14-0
1

0
LINE
5
29B
100
AcDbEntity
8
0
6
ByLayer
62
0
370
-1
100
AcDbLine
10
-18.5
20
-20
11
-18.5
21
-25
0
LINE
5
29C
100
AcDbEntity
8
0
6
ByLayer
62
0
370
-1
100
AcDbLine
10
-18.5
20
-25
11
18.5
21
-25
0
LINE
5
29D
100
AcDbEntity
8
0
6
ByLayer
62
0
370
-1
100
AcDbLine
10
18.5
20
-25
11
18.5
21
-20
0
LINE
5
29E
100
AcDbEntity
8
0
6
ByLayer
62
0
370
-1
100
AcDbLine
10
18.5
20
-20
11
36.5
21
-20
0
LINE
5
29F
100
AcDbEntity
8
0
6
ByLayer
62
0
370
-1
100
AcDbLine
10
36.5
20
-20
11
36.5
21
-13
0
LINE
5
2A0
100
AcDbEntity
8
0
6
ByLayer
62
0
370
-1
100
AcDbLine
10
36.5
20
-13
11
30
21
-13
0
LINE
5
2A1
100
AcDbEntity
8
0
6
ByLayer
62
0
370
-1
100
AcDbLine
10
30
20
-13
11
30
21
-7
0
LINE
5
2A2
100
AcDbEntity
8
0
6
ByLayer
62
0
370
-1
100
AcDbLine
10
30
20
-7
11
36.5
21
-7
0
LINE
5
2A3
100
AcDbEntity
8
0
6
ByLayer
62
0
370
-1
100
AcDbLine
10
36.5
20
-7
11
36.5
21
7
0
LINE
5
2A4
100
AcDbEntity
8
0
6
ByLayer
62
0
370
-1
100
AcDbLine
10
36.5
20
7
11
30
21
7
0
LINE
5
2A5
100
AcDbEntity
8
0
6
ByLayer
62
0
370
-1
100
AcDbLine
10
30
20
7
11
30
21
13
0
LINE
5
2A6
100
AcDbEntity
8
0
6
ByLayer
62
0
370
-1
100
AcDbLine
10
30
20
13
11
36.5
21
13
0
LINE
5
2A7
100
AcDbEntity
8
0
6
ByLayer
62
0
370
-1
100
AcDbLine
10
36.5
20
13
11
36.5
21
20
0
LINE
5
2A8
100
AcDbEntity
8
0
6
ByLayer
62
0
370
-1
100
AcDbLine
10
36.5
20
20
11
18.5
21
20
0
LINE
5
2A9
100
AcDbEntity
8
0
6
ByLayer
62
0
370
-1
100
AcDbLine
10
18.5
20
20
11
18.5
21
25
0
LINE
5
2AA
100
AcDbEntity
8
0
6
ByLayer
62
0
370
-1
100
AcDbLine
10
18.5
20
25
11
-18.5
21
25
0
LINE
5
2AB
100
AcDbEntity
8
0
6
ByLayer
62
0
370
-1
100
AcDbLine
10
-18.5
20
25
11
-18.5
21
20
0
LINE
5
2AC
100
AcDbEntity
8
0
6
ByLayer
62
0
370
-1
100
AcDbLine
10
-18.5
20
20
11
-36.5
21
20
0
LINE
5
2AD
100
AcDbEntity
8
0
6
ByLayer
62
0
370
-1
100
AcDbLine
10
-36.5
20
20
11
-36.5
21
13
0
LINE
5
2AE
100
AcDbEntity
8
0
6
ByLayer
62
0
370
-1
100
AcDbLine
10
-36.5
20
13
11
-30
21
13
0
LINE
5
2AF
100
AcDbEntity
8
0
6
ByLayer
62
0
370
-1
100
AcDbLine
10
-30
20
13
11
-30
21
7
0
LINE
5
2B0
100
AcDbEntity
8
0
6
ByLayer
62
0
370
-1
100
AcDbLine
10
-30
20
7
11
-36.5
21
7
0
LINE
5
2B1
100
AcDbEntity
8
0
6
ByLayer
62
0
370
-1
100
AcDbLine
10
-36.5
20
7
11
-36.5
21
-7
0
LINE
5
2B2
100
AcDbEntity
8
0
6
ByLayer
62
0
370
-1
100
AcDbLine
10
-36.5
20
-7
11
-30
21
-7
0
LINE
5
2B3
100
AcDbEntity
8
0
6
ByLayer
62
0
370
-1
100
AcDbLine
10
-30
20
-7
11
-30
21
-13
0
LINE
5
2B4
100
AcDbEntity
8
0
6
ByLayer
62
0
370
-1
100
AcDbLine
10
-30
20
-13
11
-36.5
21
-13
0
LINE
5
2B5
100
AcDbEntity
8
0
6
ByLayer
62
0
370
-1
100
AcDbLine
10
-36.5
20
-13
11
-36.5
21
-20
0
LINE
5
2B6
100
AcDbEntity
8
0
6
ByLayer
62
0
370
-1
100
AcDbLine
10
-36.5
20
-20
11
-18.5
21
-20
0
CIRCLE
5
2B7
100
AcDbEntity
8
0
6
ByLayer
62
256
370
-1
100
AcDbCircle
10
0
20
0
40
3
0
ENDBLK
5
51
330
4F
100
AcDbEntity
8
0
100
AcDbBlockEnd
0
BLOCK
5
53
330
52
100
AcDbEntity
8
0
100
AcDbBlockBegin
2
part15-0
70
0
10
0
20
0
3
part15-0
1

0
LINE
5
2B8
100
AcDbEntity
8
0
6
ByLayer
62
0
370
-1
100
AcDbLine
10
-18.5
20
-20
11
-18.5
21
-25
0
LINE
5
2B9
100
AcDbEntity
8
0
6
ByLayer
62
0
370
-1
100
AcDbLine
10
-18.5
20
-25
11
-22
21
-25
0
LINE
5
2BA
100
AcDbEntity
8
0
6
ByLayer
62
0
370
-1
100
AcDbLine
10
-22
20
-25
11
-22
21
-69
0
LINE
5
2BB
100
AcDbEntity
8
0
6
ByLayer
62
0
370
-1
100
AcDbLine
10
-22
20
-69
11
22
21
-69
0
LINE
5
2BC
100
AcDbEntity
8
0
6
ByLayer
62
0
370
-1
100
AcDbLine
10
22
20
-69
11
22
21
-25
0
LINE
5
2BD
100
AcDbEntity
8
0
6
ByLayer
62
0
370
-1
100
AcDbLine
10
22
20
-25
11
18.5
21
-25
0
LINE
5
2BE
100
AcDbEntity
8
0
6
ByLayer
62
0
370
-1
100
AcDbLine
10
18.5
20
-25
11
18.5
21
-20
0
LINE
5
2BF
100
AcDbEntity
8
0
6
ByLayer
62
0
370
-1
100
AcDbLine
10
18.5
20
-20
11
36.5
21
-20
0
LINE
5
2C0
100
AcDbEntity
8
0
6
ByLayer
62
0
370
-1
100
AcDbLine
10
36.5
20
-20
11
36.5
21
-13
0
LINE
5
2C1
100
AcDbEntity
8
0
6
ByLayer
62
0
370
-1
100
AcDbLine
10
36.5
20
-13
11
30
21
-13
0
LINE
5
2C2
100
AcDbEntity
8
0
6
ByLayer
62
0
370
-1
100
AcDbLine
10
30
20
-13
11
30
21
-7
0
LINE
5
2C3
100
AcDbEntity
8
0
6
ByLayer
62
0
370
-1
100
AcDbLine
10
30
20
-7
11
36.5
21
-7
0
LINE
5
2C4
100
AcDbEntity
8
0
6
ByLayer
62
0
370
-1
100
AcDbLine
10
36.5
20
-7
11
36.5
21
7
0
LINE
5
2C5
100
AcDbEntity
8
0
6
ByLayer
62
0
370
-1
100
AcDbLine
10
36.5
20
7
11
30
21
7
0
LINE
5
2C6
100
AcDbEntity
8
0
6
ByLayer
62
0
370
-1
100
AcDbLine
10
30
20
7
11
30
21
13
0
LINE
5
2C7
100
AcDbEntity
8
0
6
ByLayer
62
0
370
-1
100
AcDbLine
10
30
20
13
11
36.5
21
13
0
LINE
5
2C8
100
AcDbEntity
8
0
6
ByLayer
62
0
370
-1
100
AcDbLine
10
36.5
20
13
11
36.5
21
20
0
LINE
5
2C9
100
AcDbEntity
8
0
6
ByLayer
62
0
370
-1
100
AcDbLine
10
36.5
20
20
11
18.5
21
20
0
LINE
5
2CA
100
AcDbEntity
8
0
6
ByLayer
62
0
370
-1
100
AcDbLine
10
18.5
20
20
11
18.5
21
25
0
LINE
5
2CB
100
AcDbEntity
8
0
6
ByLayer
62
0
370
-1
100
AcDbLine
10
18.5
20
25
11
-18.5
21
25
0
LINE
5
2CC
100
AcDbEntity
8
0
6
ByLayer
62
0
370
-1
100
AcDbLine
10
-18.5
20
25
11
-18.5
21
20
0
LINE
5
2CD
100
AcDbEntity
8
0
6
ByLayer
62
0
370
-1
100
AcDbLine
10
-18.5
20
20
11
-36.5
21
20
0
LINE
5
2CE
100
AcDbEntity
8
0
6
ByLayer
62
0
370
-1
100
AcDbLine
10
-36.5
20
20
11
-36.5
21
13
0
LINE
5
2CF
100
AcDbEntity
8
0
6
ByLayer
62
0
370
-1
100
AcDbLine
10
-36.5
20
13
11
-30
21
13
0
LINE
5
2D0
100
AcDbEntity
8
0
6
ByLayer
62
0
370
-1
100
AcDbLine
10
-30
20
13
11
-30
21
7
0
LINE
5
2D1
100
AcDbEntity
8
0
6
ByLayer
62
0
370
-1
100
AcDbLine
10
-30
20
7
11
-36.5
21
7
0
LINE
5
2D2
100
AcDbEntity
8
0
6
ByLayer
62
0
370
-1
100
AcDbLine
10
-36.5
20
7
11
-36.5
21
-7
0
LINE
5
2D3
100
AcDbEntity
8
0
6
ByLayer
62
0
370
-1
100
AcDbLine
10
-36.5
20
-7
11
-30
21
-7
0
LINE
5
2D4
100
AcDbEntity
8
0
6
ByLayer
62
0
370
-1
100
AcDbLine
10
-30
20
-7
11
-30
21
-13
0
LINE
5
2D5
100
AcDbEntity
8
0
6
ByLayer
62
0
370
-1
100
AcDbLine
10
-30
20
-13
11
-36.5
21
-13
0
LINE
5
2D6
100
AcDbEntity
8
0
6
ByLayer
62
0
370
-1
100
AcDbLine
10
-36.5
20
-13
11
-36.5
21
-20
0
LINE
5
2D7
100
AcDbEntity
8
0
6
ByLayer
62
0
370
-1
100
AcDbLine
10
-36.5
20
-20
11
-18.5
21
-20
0
CIRCLE
5
2D8
100
AcDbEntity
8
0
6
ByLayer
62
0
370
-1
100
AcDbCircle
10
0
20
-47
40
11
0
CIRCLE
5
2D9
100
AcDbEntity
8
0
6
ByLayer
62
256
370
-1
100
AcDbCircle
10
0
20
0
40
3
0
CIRCLE
5
2DA
100
AcDbEntity
8
0
6
ByLayer
62
256
370
-1
100
AcDbCircle
10
-15.5
20
-31.5
40
0.5
0
CIRCLE
5
2DB
100
AcDbEntity
8
0
6
ByLayer
62
256
370
-1
100
AcDbCircle
10
-15.5
20
-62.5
40
0.5
0
CIRCLE
5
2DC
100
AcDbEntity
8
0
6
ByLayer
62
256
370
-1
100
AcDbCircle
10
15.5
20
-62.5
40
0.5
0
CIRCLE
5
2DD
100
AcDbEntity
8
0
6
ByLayer
62
256
370
-1
100
AcDbCircle
10
15.5
20
-31.5
40
0.5
0
ENDBLK
5
54
330
52
100
AcDbEntity
8
0
100
AcDbBlockEnd
0
BLOCK
5
56
330
55
100
AcDbEntity
8
0
100
AcDbBlockBegin
2
part20-0
70
0
10
0
20
0
3
part20-0
1

0
LWPOLYLINE
5
2DE
100
AcDbEntity
8
0
6
ByLayer
62
0
370
-1
100
AcDbPolyline
90
2
70
0
43
0
10
18.6529486105
20
23.818656325
10
18.3756652775
20
24.034591603
0
LWPOLYLINE
5
2DF
100
AcDbEntity
8
0
6
ByLayer
62
0
370
-1
100
AcDbPolyline
90
2
70
0
43
0
10
18.6529486105
20
23.818656325
10
18.3756652775
20
24.034591603
0
LWPOLYLINE
5
2E0
100
AcDbEntity
8
0
6
ByLayer
62
0
370
-1
100
AcDbPolyline
90
2
70
0
43
0
10
21.8720458335
20
24.681974103
10
18.6529486105
20
23.818656325
0
LWPOLYLINE
5
2E1
100
AcDbEntity
8
0
6
ByLayer
62
0
370
-1
100
AcDbPolyline
90
2
70
0
43
0
10
18.3756652775
20
24.034591603
10
18.3964791665
20
27.367318547
0
LWPOLYLINE
5
2E2
100
AcDbEntity
8
0
6
ByLayer
62
0
370
-1
100
AcDbPolyline
90
2
70
0
43
0
10
18.3756652775
20
24.034591603
10
18.3964791665
20
27.367318547
0
LWPOLYLINE
5
2E3
100
AcDbEntity
8
0
6
ByLayer
62
0
370
-1
100
AcDbPolyline
90
2
70
0
43
0
10
22.1902513885
20
24.396823825
10
21.8720458335
20
24.681974103
0
LWPOLYLINE
5
2E4
100
AcDbEntity
8
0
6
ByLayer
62
0
370
-1
100
AcDbPolyline
90
2
70
0
43
0
10
18.3964791665
20
27.367318547
10
18.0401736105
20
27.603044658
0
LWPOLYLINE
5
2E5
100
AcDbEntity
8
0
6
ByLayer
62
0
370
-1
100
AcDbPolyline
90
2
70
0
43
0
10
21.6843680555
20
21.102620214
10
22.1902513885
20
24.396823825
0
LWPOLYLINE
5
2E6
100
AcDbEntity
8
0
6
ByLayer
62
0
370
-1
100
AcDbPolyline
90
2
70
0
43
0
10
21.9274319445
20
20.848690769
10
21.6843680555
20
21.102620214
0
LWPOLYLINE
5
2E7
100
AcDbEntity
8
0
6
ByLayer
62
0
370
-1
100
AcDbPolyline
90
2
70
0
43
0
10
14.9808847225
20
26.280269103
10
14.6750263885
20
26.453482992
0
LWPOLYLINE
5
2E8
100
AcDbEntity
8
0
6
ByLayer
62
0
370
-1
100
AcDbPolyline
90
2
70
0
43
0
10
14.6750263885
20
26.453482992
10
14.2107708335
20
29.7537191028
0
LWPOLYLINE
5
2E9
100
AcDbEntity
8
0
6
ByLayer
62
0
370
-1
100
AcDbPolyline
90
2
70
0
43
0
10
25.5113013885
20
20.905629103
10
25.2378986105
20
21.234029936
0
LWPOLYLINE
5
2EA
100
AcDbEntity
8
0
6
ByLayer
62
0
370
-1
100
AcDbPolyline
90
2
70
0
43
0
10
14.2107708335
20
29.7537191028
10
13.8237736105
20
29.9350468806
0
LWPOLYLINE
5
2EB
100
AcDbEntity
8
0
6
ByLayer
62
0
370
-1
100
AcDbPolyline
90
2
70
0
43
0
10
24.5309319445
20
17.720222158
10
25.5113013885
20
20.905629103
0
LWPOLYLINE
5
2EC
100
AcDbEntity
8
0
6
ByLayer
62
0
370
-1
100
AcDbPolyline
90
2
70
0
43
0
10
10.9895569445
20
28.1810004917
10
10.6618263885
20
28.3078241028
0
LWPOLYLINE
5
2ED
100
AcDbEntity
8
0
6
ByLayer
62
0
370
-1
100
AcDbPolyline
90
2
70
0
43
0
10
10.6618263885
20
28.3078241028
10
9.7220263885
20
31.5052254917
0
LWPOLYLINE
5
2EE
100
AcDbEntity
8
0
6
ByLayer
62
0
370
-1
100
AcDbPolyline
90
2
70
0
43
0
10
28.2887208335
20
16.968099936
10
28.0657652775
20
17.332872158
0
LWPOLYLINE
5
2EF
100
AcDbEntity
8
0
6
ByLayer
62
0
370
-1
100
AcDbPolyline
90
2
70
0
43
0
10
9.7220263885
20
31.5052254917
10
9.3124513885
20
31.6283449361
0
LWPOLYLINE
5
2F0
100
AcDbEntity
8
0
6
ByLayer
62
0
370
-1
100
AcDbPolyline
90
2
70
0
43
0
10
26.8550319445
20
13.959328825
10
28.2887208335
20
16.968099936
0
LWPOLYLINE
5
2F1
100
AcDbEntity
8
0
6
ByLayer
62
0
370
-1
100
AcDbPolyline
90
2
70
0
43
0
10
27.0144874995
20
13.646203269
10
26.8550319445
20
13.959328825
0
LWPOLYLINE
5
2F2
100
AcDbEntity
8
0
6
ByLayer
62
0
370
-1
100
AcDbPolyline
90
2
70
0
43
0
10
6.7643374995
20
29.4803868806
10
6.4214374995
20
29.5580685472
0
LWPOLYLINE
5
2F3
100
AcDbEntity
8
0
6
ByLayer
62
0
370
-1
100
AcDbPolyline
90
2
70
0
43
0
10
6.4214374995
20
29.5580685472
10
5.0258486105
20
32.5845843806
0
LWPOLYLINE
5
2F4
100
AcDbEntity
8
0
6
ByLayer
62
0
370
-1
100
AcDbPolyline
90
2
70
0
43
0
10
30.4628902775
20
12.668162158
10
30.2956736105
20
13.061438825
0
LWPOLYLINE
5
2F5
100
AcDbEntity
8
0
6
ByLayer
62
0
370
-1
100
AcDbPolyline
90
2
70
0
43
0
10
28.6065736105
20
9.900232436
10
30.4628902775
20
12.668162158
0
LWPOLYLINE
5
2F6
100
AcDbEntity
8
0
6
ByLayer
62
0
370
-1
100
AcDbPolyline
90
2
70
0
43
0
10
28.7187569445
20
9.567174936
10
28.6065736105
20
9.900232436
0
LWPOLYLINE
5
2F7
100
AcDbEntity
8
0
6
ByLayer
62
0
370
-1
100
AcDbPolyline
90
2
70
0
43
0
10
31.8796458335
20
8.510852436
10
28.7187569445
20
9.567174936
0
LWPOLYLINE
5
2F8
100
AcDbEntity
8
0
6
ByLayer
62
0
370
-1
100
AcDbPolyline
90
2
70
0
43
0
10
2.0441708335
20
30.1776521583
10
0.2227791665
20
32.9686182694
0
LWPOLYLINE
5
2F9
100
AcDbEntity
8
0
6
ByLayer
62
0
370
-1
100
AcDbPolyline
90
2
70
0
43
0
10
31.9879486105
20
8.097502714
10
31.8796458335
20
8.510852436
0
LWPOLYLINE
5
2FA
100
AcDbEntity
8
0
6
ByLayer
62
0
370
-1
100
AcDbPolyline
90
2
70
0
43
0
10
29.7485152775
20
5.629363547
10
31.9879486105
20
8.097502714
0
LWPOLYLINE
5
2FB
100
AcDbEntity
8
0
6
ByLayer
62
0
370
-1
100
AcDbPolyline
90
2
70
0
43
0
10
29.8109569445
20
5.283288547
10
29.7485152775
20
5.629363547
0
LWPOLYLINE
5
2FC
100
AcDbEntity
8
0
6
ByLayer
62
0
370
-1
100
AcDbPolyline
90
2
70
0
43
0
10
-2.3786041665
20
30.1530635472
10
-4.5873461865
20
32.6491779917
0
LWPOLYLINE
5
2FD
100
AcDbEntity
8
0
6
ByLayer
62
0
370
-1
100
AcDbPolyline
90
2
70
0
43
0
10
32.8310874995
20
3.353594103
10
32.7845208335
20
3.778338547
0
LWPOLYLINE
5
2FE
100
AcDbEntity
8
0
6
ByLayer
62
0
370
-1
100
AcDbPolyline
90
2
70
0
43
0
10
30.2561624995
20
1.237632286
10
32.8310874995
20
3.353594103
0
LWPOLYLINE
5
2FF
100
AcDbEntity
8
0
6
ByLayer
62
0
370
-1
100
AcDbPolyline
90
2
70
0
43
0
10
30.2678041665
20
0.886265619
10
30.2561624995
20
1.237632286
0
LWPOLYLINE
5
300
100
AcDbEntity
8
0
6
ByLayer
62
0
370
-1
100
AcDbPolyline
90
2
70
0
43
0
10
32.9901902775
20
-1.035667714
10
30.2678041665
20
0.886265619
0
LWPOLYLINE
5
301
100
AcDbEntity
8
0
6
ByLayer
62
0
370
-1
100
AcDbPolyline
90
2
70
0
43
0
10
-6.7488156305
20
29.4849729917
10
-9.2972822975
20
31.632966325
0
LWPOLYLINE
5
302
100
AcDbEntity
8
0
6
ByLayer
62
0
370
-1
100
AcDbPolyline
90
2
70
0
43
0
10
32.9750208335
20
-1.462881603
10
32.9901902775
20
-1.035667714
0
LWPOLYLINE
5
303
100
AcDbEntity
8
0
6
ByLayer
62
0
370
-1
100
AcDbPolyline
90
2
70
0
43
0
10
30.1192847225
20
-3.181262158
10
32.9750208335
20
-1.462881603
0
LWPOLYLINE
5
304
100
AcDbEntity
8
0
6
ByLayer
62
0
370
-1
100
AcDbPolyline
90
2
70
0
43
0
10
30.0794208335
20
-3.530512158
10
30.1192847225
20
-3.181262158
0
LWPOLYLINE
5
305
100
AcDbEntity
8
0
6
ByLayer
62
0
370
-1
100
AcDbPolyline
90
2
70
0
43
0
10
32.4931263885
20
-5.828506603
10
30.0794208335
20
-3.530512158
0
LWPOLYLINE
5
306
100
AcDbEntity
8
0
6
ByLayer
62
0
370
-1
100
AcDbPolyline
90
2
70
0
43
0
10
32.4155152775
20
-6.248664936
10
32.4931263885
20
-5.828506603
0
LWPOLYLINE
5
307
100
AcDbEntity
8
0
6
ByLayer
62
0
370
-1
100
AcDbPolyline
90
2
70
0
43
0
10
29.3403513885
20
-7.532776047
10
32.4155152775
20
-6.248664936
0
LWPOLYLINE
5
308
100
AcDbEntity
8
0
6
ByLayer
62
0
370
-1
100
AcDbPolyline
90
2
70
0
43
0
10
29.2500402775
20
-7.872501047
10
29.3403513885
20
-7.532776047
0
LWPOLYLINE
5
309
100
AcDbEntity
8
0
6
ByLayer
62
0
370
-1
100
AcDbPolyline
90
2
70
0
43
0
10
31.3035597225
20
-10.497873269
10
29.2500402775
20
-7.872501047
0
LWPOLYLINE
5
30A
100
AcDbEntity
8
0
6
ByLayer
62
0
370
-1
100
AcDbPolyline
90
2
70
0
43
0
10
-14.9674795195
20
26.288876881
10
-18.0267684085
20
27.611652436
0
LWPOLYLINE
5
30B
100
AcDbEntity
8
0
6
ByLayer
62
0
370
-1
100
AcDbPolyline
90
2
70
0
43
0
10
31.1656236105
20
-10.902156603
10
31.3035597225
20
-10.497873269
0
LWPOLYLINE
5
30C
100
AcDbEntity
8
0
6
ByLayer
62
0
370
-1
100
AcDbPolyline
90
2
70
0
43
0
10
27.9362958335
20
-11.724834381
10
31.1656236105
20
-10.902156603
0
LWPOLYLINE
5
30D
100
AcDbEntity
8
0
6
ByLayer
62
0
370
-1
100
AcDbPolyline
90
2
70
0
43
0
10
-18.3830739645
20
27.375820492
10
-18.3619072975
20
24.042705492
0
LWPOLYLINE
5
30E
100
AcDbEntity
8
0
6
ByLayer
62
0
370
-1
100
AcDbPolyline
90
2
70
0
43
0
10
27.7976541665
20
-12.047978825
10
27.9362958335
20
-11.724834381
0
LWPOLYLINE
5
30F
100
AcDbEntity
8
0
6
ByLayer
62
0
370
-1
100
AcDbPolyline
90
2
70
0
43
0
10
-18.6409545195
20
23.829063269
10
-21.8600517415
20
24.692275214
0
LWPOLYLINE
5
310
100
AcDbEntity
8
0
6
ByLayer
62
0
370
-1
100
AcDbPolyline
90
2
70
0
43
0
10
29.2514513885
20
-15.323873269
10
29.4468902775
20
-14.943931603
0
LWPOLYLINE
5
311
100
AcDbEntity
8
0
6
ByLayer
62
0
370
-1
100
AcDbPolyline
90
2
70
0
43
0
10
25.9363986105
20
-15.667831603
10
29.2514513885
20
-15.323873269
0
LWPOLYLINE
5
312
100
AcDbEntity
8
0
6
ByLayer
62
0
370
-1
100
AcDbPolyline
90
2
70
0
43
0
10
25.7522486105
20
-15.966987158
10
25.9363986105
20
-15.667831603
0
LWPOLYLINE
5
313
100
AcDbEntity
8
0
6
ByLayer
62
0
370
-1
100
AcDbPolyline
90
2
70
0
43
0
10
-21.6720211865
20
21.112603825
10
-21.9168489645
20
20.860579381
0
LWPOLYLINE
5
314
100
AcDbEntity
8
0
6
ByLayer
62
0
370
-1
100
AcDbPolyline
90
2
70
0
43
0
10
26.9622763885
20
-19.072489936
10
25.7522486105
20
-15.966987158
0
LWPOLYLINE
5
315
100
AcDbEntity
8
0
6
ByLayer
62
0
370
-1
100
AcDbPolyline
90
2
70
0
43
0
10
26.7139208335
20
-19.419976047
10
26.9622763885
20
-19.072489936
0
LWPOLYLINE
5
316
100
AcDbEntity
8
0
6
ByLayer
62
0
370
-1
100
AcDbPolyline
90
2
70
0
43
0
10
23.3840513885
20
-19.277453825
10
26.7139208335
20
-19.419976047
0
LWPOLYLINE
5
317
100
AcDbEntity
8
0
6
ByLayer
62
0
370
-1
100
AcDbPolyline
90
2
70
0
43
0
10
23.1582736105
20
-19.546623269
10
23.3840513885
20
-19.277453825
0
LWPOLYLINE
5
318
100
AcDbEntity
8
0
6
ByLayer
62
0
370
-1
100
AcDbPolyline
90
2
70
0
43
0
10
23.9033402775
20
-22.795353825
10
23.1582736105
20
-19.546623269
0
LWPOLYLINE
5
319
100
AcDbEntity
8
0
6
ByLayer
62
0
370
-1
100
AcDbPolyline
90
2
70
0
43
0
10
23.6066541665
20
-23.102976047
10
23.9033402775
20
-22.795353825
0
LWPOLYLINE
5
31A
100
AcDbEntity
8
0
6
ByLayer
62
0
370
-1
100
AcDbPolyline
90
2
70
0
43
0
10
20.3332291665
20
-22.477148269
10
23.6066541665
20
-23.102976047
0
LWPOLYLINE
5
31B
100
AcDbEntity
8
0
6
ByLayer
62
0
370
-1
100
AcDbPolyline
90
2
70
0
43
0
10
20.0707624995
20
-22.710687158
10
20.3332291665
20
-22.477148269
0
LWPOLYLINE
5
31C
100
AcDbEntity
8
0
6
ByLayer
62
0
370
-1
100
AcDbPolyline
90
2
70
0
43
0
10
20.3346402775
20
-26.033148269
10
20.0707624995
20
-22.710687158
0
LWPOLYLINE
5
31D
100
AcDbEntity
8
0
6
ByLayer
62
0
370
-1
100
AcDbPolyline
90
2
70
0
43
0
10
19.9966791665
20
-26.294203825
10
20.3346402775
20
-26.033148269
0
LWPOLYLINE
5
31E
100
AcDbEntity
8
0
6
ByLayer
62
0
370
-1
100
AcDbPolyline
90
2
70
0
43
0
10
16.8491958335
20
-25.198476047
10
19.9966791665
20
-26.294203825
0
LWPOLYLINE
5
31F
100
AcDbEntity
8
0
6
ByLayer
62
0
370
-1
100
AcDbPolyline
90
2
70
0
43
0
10
16.5553319445
20
-25.391092714
10
16.8491958335
20
-25.198476047
0
LWPOLYLINE
5
320
100
AcDbEntity
8
0
6
ByLayer
62
0
370
-1
100
AcDbPolyline
90
2
70
0
43
0
10
16.3327291665
20
-28.716728825
10
16.5553319445
20
-25.391092714
0
LWPOLYLINE
5
321
100
AcDbEntity
8
0
6
ByLayer
62
0
370
-1
100
AcDbPolyline
90
2
70
0
43
0
10
15.9601958335
20
-28.925926047
10
16.3327291665
20
-28.716728825
0
LWPOLYLINE
5
322
100
AcDbEntity
8
0
6
ByLayer
62
0
370
-1
100
AcDbPolyline
90
2
70
0
43
0
10
12.6871236105
20
-27.531395492
10
13.0060347225
20
-27.383228825
0
LWPOLYLINE
5
323
100
AcDbEntity
8
0
6
ByLayer
62
0
370
-1
100
AcDbPolyline
90
2
70
0
43
0
10
11.9829791665
20
-30.788945492
10
12.6871236105
20
-27.531395492
0
LWPOLYLINE
5
324
100
AcDbEntity
8
0
6
ByLayer
62
0
370
-1
100
AcDbPolyline
90
2
70
0
43
0
10
11.5839874995
20
-30.941698269
10
11.9829791665
20
-30.788945492
0
LWPOLYLINE
5
325
100
AcDbEntity
8
0
6
ByLayer
62
0
370
-1
100
AcDbPolyline
90
2
70
0
43
0
10
8.5486874995
20
-29.085381603
10
8.8855902775
20
-28.985545492
0
LWPOLYLINE
5
326
100
AcDbEntity
8
0
6
ByLayer
62
0
370
-1
100
AcDbPolyline
90
2
70
0
43
0
10
7.3774652775
20
-32.206053825
10
8.5486874995
20
-29.085381603
0
LWPOLYLINE
5
327
100
AcDbEntity
8
0
6
ByLayer
62
0
370
-1
100
AcDbPolyline
90
2
70
0
43
0
10
6.9604819445
20
-32.298834381
10
7.3774652775
20
-32.206053825
0
LWPOLYLINE
5
328
100
AcDbEntity
8
0
6
ByLayer
62
0
370
-1
100
AcDbPolyline
90
2
70
0
43
0
10
-32.9746684085
20
-1.447712158
10
-30.1185795195
20
-3.165739936
0
LWPOLYLINE
5
329
100
AcDbEntity
8
0
6
ByLayer
62
0
370
-1
100
AcDbPolyline
90
2
70
0
43
0
10
4.2278652775
20
-30.020595492
10
4.5757041665
20
-29.970501047
0
LWPOLYLINE
5
32A
100
AcDbEntity
8
0
6
ByLayer
62
0
370
-1
100
AcDbPolyline
90
2
70
0
43
0
10
2.6149652775
20
-32.937362158
10
4.2278652775
20
-30.020595492
0
LWPOLYLINE
5
32B
100
AcDbEntity
8
0
6
ByLayer
62
0
370
-1
100
AcDbPolyline
90
2
70
0
43
0
10
-30.0815378525
20
-3.515342714
10
-32.4952434085
20
-5.813689936
0
LWPOLYLINE
5
32C
100
AcDbEntity
8
0
6
ByLayer
62
0
370
-1
100
AcDbPolyline
90
2
70
0
43
0
10
2.1888097225
20
-32.968406603
10
2.6149652775
20
-32.937362158
0
LWPOLYLINE
5
32D
100
AcDbEntity
8
0
6
ByLayer
62
0
370
-1
100
AcDbPolyline
90
2
70
0
43
0
10
-2.2032736115
20
-32.967348269
10
-0.1829152775
20
-30.316576047
0
LWPOLYLINE
5
32E
100
AcDbEntity
8
0
6
ByLayer
62
0
370
-1
100
AcDbPolyline
90
2
70
0
43
0
10
-4.5898156305
20
-29.967326047
10
-4.2423291665
20
-30.019537158
0
LWPOLYLINE
5
32F
100
AcDbEntity
8
0
6
ByLayer
62
0
370
-1
100
AcDbPolyline
90
2
70
0
43
0
10
-6.9745934085
20
-32.295659381
10
-4.5898156305
20
-29.967326047
0
LWPOLYLINE
5
330
100
AcDbEntity
8
0
6
ByLayer
62
0
370
-1
100
AcDbPolyline
90
2
70
0
43
0
10
-7.3915767415
20
-32.202526047
10
-6.9745934085
20
-32.295659381
0
LWPOLYLINE
5
331
100
AcDbEntity
8
0
6
ByLayer
62
0
370
-1
100
AcDbPolyline
90
2
70
0
43
0
10
-8.8989961865
20
-28.979901047
10
-8.5627989645
20
-29.082206603
0
LWPOLYLINE
5
332
100
AcDbEntity
8
0
6
ByLayer
62
0
370
-1
100
AcDbPolyline
90
2
70
0
43
0
10
-13.0183822975
20
-27.375820492
10
-12.7005295195
20
-27.526103825
0
LWPOLYLINE
5
333
100
AcDbEntity
8
0
6
ByLayer
62
0
370
-1
100
AcDbPolyline
90
2
70
0
43
0
10
-15.9728961865
20
-28.918164936
10
-13.0183822975
20
-27.375820492
0
LWPOLYLINE
5
334
100
AcDbEntity
8
0
6
ByLayer
62
0
370
-1
100
AcDbPolyline
90
2
70
0
43
0
10
3.9950319445
20
-6.919648269
10
0.000176388500023
20
-6.919648269
0
LWPOLYLINE
5
335
100
AcDbEntity
8
0
6
ByLayer
62
0
370
-1
100
AcDbPolyline
90
2
70
0
43
0
10
5.9924597225
20
3.459780214
10
7.9898874995
20
8.78419999992e-05
0
LWPOLYLINE
5
336
100
AcDbEntity
8
0
6
ByLayer
62
0
370
-1
100
AcDbPolyline
90
2
70
0
43
0
10
3.9950319445
20
6.919542436
10
5.9924597225
20
3.459780214
0
LWPOLYLINE
5
337
100
AcDbEntity
8
0
6
ByLayer
62
0
370
-1
100
AcDbPolyline
90
2
70
0
43
0
10
-3.9950319445
20
6.919648269
10
0.000176388500023
20
6.919754103
0
LWPOLYLINE
5
338
100
AcDbEntity
8
0
6
ByLayer
62
0
370
-1
100
AcDbPolyline
90
2
70
0
43
0
10
22.1902513885
20
24.396823825
10
21.8720458335
20
24.681974103
0
LWPOLYLINE
5
339
100
AcDbEntity
8
0
6
ByLayer
62
0
370
-1
100
AcDbPolyline
90
2
70
0
43
0
10
18.3964791665
20
27.367318547
10
18.0401736105
20
27.603044658
0
LWPOLYLINE
5
33A
100
AcDbEntity
8
0
6
ByLayer
62
0
370
-1
100
AcDbPolyline
90
2
70
0
43
0
10
21.6843680555
20
21.102620214
10
22.1902513885
20
24.396823825
0
LWPOLYLINE
5
33B
100
AcDbEntity
8
0
6
ByLayer
62
0
370
-1
100
AcDbPolyline
90
2
70
0
43
0
10
18.0401736105
20
27.603044658
10
14.9808847225
20
26.280269103
0
LWPOLYLINE
5
33C
100
AcDbEntity
8
0
6
ByLayer
62
0
370
-1
100
AcDbPolyline
90
2
70
0
43
0
10
21.9274319445
20
20.848690769
10
21.6843680555
20
21.102620214
0
LWPOLYLINE
5
33D
100
AcDbEntity
8
0
6
ByLayer
62
0
370
-1
100
AcDbPolyline
90
2
70
0
43
0
10
14.9808847225
20
26.280269103
10
14.6750263885
20
26.453482992
0
LWPOLYLINE
5
33E
100
AcDbEntity
8
0
6
ByLayer
62
0
370
-1
100
AcDbPolyline
90
2
70
0
43
0
10
25.2378986105
20
21.234029936
10
21.9274319445
20
20.848690769
0
LWPOLYLINE
5
33F
100
AcDbEntity
8
0
6
ByLayer
62
0
370
-1
100
AcDbPolyline
90
2
70
0
43
0
10
14.6750263885
20
26.453482992
10
14.2107708335
20
29.7537191028
0
LWPOLYLINE
5
340
100
AcDbEntity
8
0
6
ByLayer
62
0
370
-1
100
AcDbPolyline
90
2
70
0
43
0
10
25.5113013885
20
20.905629103
10
25.2378986105
20
21.234029936
0
LWPOLYLINE
5
341
100
AcDbEntity
8
0
6
ByLayer
62
0
370
-1
100
AcDbPolyline
90
2
70
0
43
0
10
14.2107708335
20
29.7537191028
10
13.8237736105
20
29.9350468806
0
LWPOLYLINE
5
342
100
AcDbEntity
8
0
6
ByLayer
62
0
370
-1
100
AcDbPolyline
90
2
70
0
43
0
10
24.5309319445
20
17.720222158
10
25.5113013885
20
20.905629103
0
LWPOLYLINE
5
343
100
AcDbEntity
8
0
6
ByLayer
62
0
370
-1
100
AcDbPolyline
90
2
70
0
43
0
10
13.8237736105
20
29.9350468806
10
10.9895569445
20
28.1810004917
0
LWPOLYLINE
5
344
100
AcDbEntity
8
0
6
ByLayer
62
0
370
-1
100
AcDbPolyline
90
2
70
0
43
0
10
24.7344847225
20
17.433554936
10
24.5309319445
20
17.720222158
0
LWPOLYLINE
5
345
100
AcDbEntity
8
0
6
ByLayer
62
0
370
-1
100
AcDbPolyline
90
2
70
0
43
0
10
10.9895569445
20
28.1810004917
10
10.6618263885
20
28.3078241028
0
LWPOLYLINE
5
346
100
AcDbEntity
8
0
6
ByLayer
62
0
370
-1
100
AcDbPolyline
90
2
70
0
43
0
10
28.0657652775
20
17.332872158
10
24.7344847225
20
17.433554936
0
LWPOLYLINE
5
347
100
AcDbEntity
8
0
6
ByLayer
62
0
370
-1
100
AcDbPolyline
90
2
70
0
43
0
10
10.6618263885
20
28.3078241028
10
9.7220263885
20
31.5052254917
0
LWPOLYLINE
5
348
100
AcDbEntity
8
0
6
ByLayer
62
0
370
-1
100
AcDbPolyline
90
2
70
0
43
0
10
28.2887208335
20
16.968099936
10
28.0657652775
20
17.332872158
0
LWPOLYLINE
5
349
100
AcDbEntity
8
0
6
ByLayer
62
0
370
-1
100
AcDbPolyline
90
2
70
0
43
0
10
9.7220263885
20
31.5052254917
10
9.3124513885
20
31.6283449361
0
LWPOLYLINE
5
34A
100
AcDbEntity
8
0
6
ByLayer
62
0
370
-1
100
AcDbPolyline
90
2
70
0
43
0
10
26.8550319445
20
13.959328825
10
28.2887208335
20
16.968099936
0
LWPOLYLINE
5
34B
100
AcDbEntity
8
0
6
ByLayer
62
0
370
-1
100
AcDbPolyline
90
2
70
0
43
0
10
9.3124513885
20
31.6283449361
10
6.7643374995
20
29.4803868806
0
LWPOLYLINE
5
34C
100
AcDbEntity
8
0
6
ByLayer
62
0
370
-1
100
AcDbPolyline
90
2
70
0
43
0
10
27.0144874995
20
13.646203269
10
26.8550319445
20
13.959328825
0
LWPOLYLINE
5
34D
100
AcDbEntity
8
0
6
ByLayer
62
0
370
-1
100
AcDbPolyline
90
2
70
0
43
0
10
6.7643374995
20
29.4803868806
10
6.4214374995
20
29.5580685472
0
LWPOLYLINE
5
34E
100
AcDbEntity
8
0
6
ByLayer
62
0
370
-1
100
AcDbPolyline
90
2
70
0
43
0
10
30.2956736105
20
13.061438825
10
27.0144874995
20
13.646203269
0
LWPOLYLINE
5
34F
100
AcDbEntity
8
0
6
ByLayer
62
0
370
-1
100
AcDbPolyline
90
2
70
0
43
0
10
6.4214374995
20
29.5580685472
10
5.0258486105
20
32.5845843806
0
LWPOLYLINE
5
350
100
AcDbEntity
8
0
6
ByLayer
62
0
370
-1
100
AcDbPolyline
90
2
70
0
43
0
10
30.4628902775
20
12.668162158
10
30.2956736105
20
13.061438825
0
LWPOLYLINE
5
351
100
AcDbEntity
8
0
6
ByLayer
62
0
370
-1
100
AcDbPolyline
90
2
70
0
43
0
10
5.0258486105
20
32.5845843806
10
4.6032208335
20
32.6467791028
0
LWPOLYLINE
5
352
100
AcDbEntity
8
0
6
ByLayer
62
0
370
-1
100
AcDbPolyline
90
2
70
0
43
0
10
28.6065736105
20
9.900232436
10
30.4628902775
20
12.668162158
0
LWPOLYLINE
5
353
100
AcDbEntity
8
0
6
ByLayer
62
0
370
-1
100
AcDbPolyline
90
2
70
0
43
0
10
4.6032208335
20
32.6467791028
10
2.3944791665
20
30.1506646583
0
LWPOLYLINE
5
354
100
AcDbEntity
8
0
6
ByLayer
62
0
370
-1
100
AcDbPolyline
90
2
70
0
43
0
10
28.7187569445
20
9.567174936
10
28.6065736105
20
9.900232436
0
LWPOLYLINE
5
355
100
AcDbEntity
8
0
6
ByLayer
62
0
370
-1
100
AcDbPolyline
90
2
70
0
43
0
10
2.3944791665
20
30.1506646583
10
2.0441708335
20
30.1776521583
0
LWPOLYLINE
5
356
100
AcDbEntity
8
0
6
ByLayer
62
0
370
-1
100
AcDbPolyline
90
2
70
0
43
0
10
31.8796458335
20
8.510852436
10
28.7187569445
20
9.567174936
0
LWPOLYLINE
5
357
100
AcDbEntity
8
0
6
ByLayer
62
0
370
-1
100
AcDbPolyline
90
2
70
0
43
0
10
2.0441708335
20
30.1776521583
10
0.2227791665
20
32.9686182694
0
LWPOLYLINE
5
358
100
AcDbEntity
8
0
6
ByLayer
62
0
370
-1
100
AcDbPolyline
90
2
70
0
43
0
10
31.9879486105
20
8.097502714
10
31.8796458335
20
8.510852436
0
LWPOLYLINE
5
359
100
AcDbEntity
8
0
6
ByLayer
62
0
370
-1
100
AcDbPolyline
90
2
70
0
43
0
10
0.2227791665
20
32.9686182694
10
-0.2044347225
20
32.9686182694
0
LWPOLYLINE
5
35A
100
AcDbEntity
8
0
6
ByLayer
62
0
370
-1
100
AcDbPolyline
90
2
70
0
43
0
10
29.7485152775
20
5.629363547
10
31.9879486105
20
8.097502714
0
LWPOLYLINE
5
35B
100
AcDbEntity
8
0
6
ByLayer
62
0
370
-1
100
AcDbPolyline
90
2
70
0
43
0
10
-0.2044347225
20
32.9686182694
10
-2.0272375005
20
30.1773699361
0
LWPOLYLINE
5
35C
100
AcDbEntity
8
0
6
ByLayer
62
0
370
-1
100
AcDbPolyline
90
2
70
0
43
0
10
29.8109569445
20
5.283288547
10
29.7485152775
20
5.629363547
0
LWPOLYLINE
5
35D
100
AcDbEntity
8
0
6
ByLayer
62
0
370
-1
100
AcDbPolyline
90
2
70
0
43
0
10
-2.0272375005
20
30.1773699361
10
-2.3786041665
20
30.1530635472
0
LWPOLYLINE
5
35E
100
AcDbEntity
8
0
6
ByLayer
62
0
370
-1
100
AcDbPolyline
90
2
70
0
43
0
10
32.7845208335
20
3.778338547
10
29.8109569445
20
5.283288547
0
LWPOLYLINE
5
35F
100
AcDbEntity
8
0
6
ByLayer
62
0
370
-1
100
AcDbPolyline
90
2
70
0
43
0
10
-2.3786041665
20
30.1530635472
10
-4.5873461865
20
32.6491779917
0
LWPOLYLINE
5
360
100
AcDbEntity
8
0
6
ByLayer
62
0
370
-1
100
AcDbPolyline
90
2
70
0
43
0
10
32.8310874995
20
3.353594103
10
32.7845208335
20
3.778338547
0
LWPOLYLINE
5
361
100
AcDbEntity
8
0
6
ByLayer
62
0
370
-1
100
AcDbPolyline
90
2
70
0
43
0
10
-4.5873461865
20
32.6491779917
10
-5.0099739645
20
32.5869479917
0
LWPOLYLINE
5
362
100
AcDbEntity
8
0
6
ByLayer
62
0
370
-1
100
AcDbPolyline
90
2
70
0
43
0
10
30.2561624995
20
1.237632286
10
32.8310874995
20
3.353594103
0
LWPOLYLINE
5
363
100
AcDbEntity
8
0
6
ByLayer
62
0
370
-1
100
AcDbPolyline
90
2
70
0
43
0
10
-5.0099739645
20
32.5869479917
10
-6.4055628525
20
29.560008825
0
LWPOLYLINE
5
364
100
AcDbEntity
8
0
6
ByLayer
62
0
370
-1
100
AcDbPolyline
90
2
70
0
43
0
10
30.2678041665
20
0.886265619
10
30.2561624995
20
1.237632286
0
LWPOLYLINE
5
365
100
AcDbEntity
8
0
6
ByLayer
62
0
370
-1
100
AcDbPolyline
90
2
70
0
43
0
10
-6.4055628525
20
29.560008825
10
-6.7488156305
20
29.4849729917
0
LWPOLYLINE
5
366
100
AcDbEntity
8
0
6
ByLayer
62
0
370
-1
100
AcDbPolyline
90
2
70
0
43
0
10
32.9901902775
20
-1.035667714
10
30.2678041665
20
0.886265619
0
LWPOLYLINE
5
367
100
AcDbEntity
8
0
6
ByLayer
62
0
370
-1
100
AcDbPolyline
90
2
70
0
43
0
10
-6.7488156305
20
29.4849729917
10
-9.2972822975
20
31.632966325
0
LWPOLYLINE
5
368
100
AcDbEntity
8
0
6
ByLayer
62
0
370
-1
100
AcDbPolyline
90
2
70
0
43
0
10
32.9750208335
20
-1.462881603
10
32.9901902775
20
-1.035667714
0
LWPOLYLINE
5
369
100
AcDbEntity
8
0
6
ByLayer
62
0
370
-1
100
AcDbPolyline
90
2
70
0
43
0
10
-9.2972822975
20
31.632966325
10
-9.7065045195
20
31.5098468806
0
LWPOLYLINE
5
36A
100
AcDbEntity
8
0
6
ByLayer
62
0
370
-1
100
AcDbPolyline
90
2
70
0
43
0
10
30.1192847225
20
-3.181262158
10
32.9750208335
20
-1.462881603
0
LWPOLYLINE
5
36B
100
AcDbEntity
8
0
6
ByLayer
62
0
370
-1
100
AcDbPolyline
90
2
70
0
43
0
10
-9.7065045195
20
31.5098468806
10
-10.6463045195
20
28.311916325
0
LWPOLYLINE
5
36C
100
AcDbEntity
8
0
6
ByLayer
62
0
370
-1
100
AcDbPolyline
90
2
70
0
43
0
10
30.0794208335
20
-3.530512158
10
30.1192847225
20
-3.181262158
0
LWPOLYLINE
5
36D
100
AcDbEntity
8
0
6
ByLayer
62
0
370
-1
100
AcDbPolyline
90
2
70
0
43
0
10
-10.6463045195
20
28.311916325
10
-10.9750934085
20
28.1877032694
0
LWPOLYLINE
5
36E
100
AcDbEntity
8
0
6
ByLayer
62
0
370
-1
100
AcDbPolyline
90
2
70
0
43
0
10
32.4931263885
20
-5.828506603
10
30.0794208335
20
-3.530512158
0
LWPOLYLINE
5
36F
100
AcDbEntity
8
0
6
ByLayer
62
0
370
-1
100
AcDbPolyline
90
2
70
0
43
0
10
-10.9750934085
20
28.1877032694
10
-13.8093100755
20
29.9417496583
0
LWPOLYLINE
5
370
100
AcDbEntity
8
0
6
ByLayer
62
0
370
-1
100
AcDbPolyline
90
2
70
0
43
0
10
32.4155152775
20
-6.248664936
10
32.4931263885
20
-5.828506603
0
LWPOLYLINE
5
371
100
AcDbEntity
8
0
6
ByLayer
62
0
370
-1
100
AcDbPolyline
90
2
70
0
43
0
10
-13.8093100755
20
29.9417496583
10
-14.1959545195
20
29.7603160472
0
LWPOLYLINE
5
372
100
AcDbEntity
8
0
6
ByLayer
62
0
370
-1
100
AcDbPolyline
90
2
70
0
43
0
10
29.3403513885
20
-7.532776047
10
32.4155152775
20
-6.248664936
0
LWPOLYLINE
5
373
100
AcDbEntity
8
0
6
ByLayer
62
0
370
-1
100
AcDbPolyline
90
2
70
0
43
0
10
-14.1959545195
20
29.7603160472
10
-14.6602100755
20
26.459691881
0
LWPOLYLINE
5
374
100
AcDbEntity
8
0
6
ByLayer
62
0
370
-1
100
AcDbPolyline
90
2
70
0
43
0
10
29.2500402775
20
-7.872501047
10
29.3403513885
20
-7.532776047
0
LWPOLYLINE
5
375
100
AcDbEntity
8
0
6
ByLayer
62
0
370
-1
100
AcDbPolyline
90
2
70
0
43
0
10
-14.6602100755
20
26.459691881
10
-14.9674795195
20
26.288876881
0
LWPOLYLINE
5
376
100
AcDbEntity
8
0
6
ByLayer
62
0
370
-1
100
AcDbPolyline
90
2
70
0
43
0
10
31.3035597225
20
-10.497873269
10
29.2500402775
20
-7.872501047
0
LWPOLYLINE
5
377
100
AcDbEntity
8
0
6
ByLayer
62
0
370
-1
100
AcDbPolyline
90
2
70
0
43
0
10
-14.9674795195
20
26.288876881
10
-18.0267684085
20
27.611652436
0
LWPOLYLINE
5
378
100
AcDbEntity
8
0
6
ByLayer
62
0
370
-1
100
AcDbPolyline
90
2
70
0
43
0
10
31.1656236105
20
-10.902156603
10
31.3035597225
20
-10.497873269
0
LWPOLYLINE
5
379
100
AcDbEntity
8
0
6
ByLayer
62
0
370
-1
100
AcDbPolyline
90
2
70
0
43
0
10
-18.0267684085
20
27.611652436
10
-18.3830739645
20
27.375820492
0
LWPOLYLINE
5
37A
100
AcDbEntity
8
0
6
ByLayer
62
0
370
-1
100
AcDbPolyline
90
2
70
0
43
0
10
27.9362958335
20
-11.724834381
10
31.1656236105
20
-10.902156603
0
LWPOLYLINE
5
37B
100
AcDbEntity
8
0
6
ByLayer
62
0
370
-1
100
AcDbPolyline
90
2
70
0
43
0
10
-18.3830739645
20
27.375820492
10
-18.3619072975
20
24.042705492
0
LWPOLYLINE
5
37C
100
AcDbEntity
8
0
6
ByLayer
62
0
370
-1
100
AcDbPolyline
90
2
70
0
43
0
10
27.7976541665
20
-12.047978825
10
27.9362958335
20
-11.724834381
0
LWPOLYLINE
5
37D
100
AcDbEntity
8
0
6
ByLayer
62
0
370
-1
100
AcDbPolyline
90
2
70
0
43
0
10
-18.3619072975
20
24.042705492
10
-18.6409545195
20
23.829063269
0
LWPOLYLINE
5
37E
100
AcDbEntity
8
0
6
ByLayer
62
0
370
-1
100
AcDbPolyline
90
2
70
0
43
0
10
29.4468902775
20
-14.943931603
10
27.7976541665
20
-12.047978825
0
LWPOLYLINE
5
37F
100
AcDbEntity
8
0
6
ByLayer
62
0
370
-1
100
AcDbPolyline
90
2
70
0
43
0
10
-18.6409545195
20
23.829063269
10
-21.8600517415
20
24.692275214
0
LWPOLYLINE
5
380
100
AcDbEntity
8
0
6
ByLayer
62
0
370
-1
100
AcDbPolyline
90
2
70
0
43
0
10
29.2514513885
20
-15.323873269
10
29.4468902775
20
-14.943931603
0
LWPOLYLINE
5
381
100
AcDbEntity
8
0
6
ByLayer
62
0
370
-1
100
AcDbPolyline
90
2
70
0
43
0
10
-21.8600517415
20
24.692275214
10
-22.1782572975
20
24.407054381
0
LWPOLYLINE
5
382
100
AcDbEntity
8
0
6
ByLayer
62
0
370
-1
100
AcDbPolyline
90
2
70
0
43
0
10
25.9363986105
20
-15.667831603
10
29.2514513885
20
-15.323873269
0
LWPOLYLINE
5
383
100
AcDbEntity
8
0
6
ByLayer
62
0
370
-1
100
AcDbPolyline
90
2
70
0
43
0
10
-22.1782572975
20
24.407054381
10
-21.6720211865
20
21.112603825
0
LWPOLYLINE
5
384
100
AcDbEntity
8
0
6
ByLayer
62
0
370
-1
100
AcDbPolyline
90
2
70
0
43
0
10
25.7522486105
20
-15.966987158
10
25.9363986105
20
-15.667831603
0
LWPOLYLINE
5
385
100
AcDbEntity
8
0
6
ByLayer
62
0
370
-1
100
AcDbPolyline
90
2
70
0
43
0
10
-21.6720211865
20
21.112603825
10
-21.9168489645
20
20.860579381
0
LWPOLYLINE
5
386
100
AcDbEntity
8
0
6
ByLayer
62
0
370
-1
100
AcDbPolyline
90
2
70
0
43
0
10
26.9622763885
20
-19.072489936
10
25.7522486105
20
-15.966987158
0
LWPOLYLINE
5
387
100
AcDbEntity
8
0
6
ByLayer
62
0
370
-1
100
AcDbPolyline
90
2
70
0
43
0
10
-21.9168489645
20
20.860579381
10
-25.2276684085
20
21.245847992
0
LWPOLYLINE
5
388
100
AcDbEntity
8
0
6
ByLayer
62
0
370
-1
100
AcDbPolyline
90
2
70
0
43
0
10
26.7139208335
20
-19.419976047
10
26.9622763885
20
-19.072489936
0
LWPOLYLINE
5
389
100
AcDbEntity
8
0
6
ByLayer
62
0
370
-1
100
AcDbPolyline
90
2
70
0
43
0
10
-25.2276684085
20
21.245847992
10
-25.5007184085
20
20.917411881
0
LWPOLYLINE
5
38A
100
AcDbEntity
8
0
6
ByLayer
62
0
370
-1
100
AcDbPolyline
90
2
70
0
43
0
10
23.3840513885
20
-19.277453825
10
26.7139208335
20
-19.419976047
0
LWPOLYLINE
5
38B
100
AcDbEntity
8
0
6
ByLayer
62
0
370
-1
100
AcDbPolyline
90
2
70
0
43
0
10
-25.5007184085
20
20.917411881
10
-24.5203489645
20
17.731722714
0
LWPOLYLINE
5
38C
100
AcDbEntity
8
0
6
ByLayer
62
0
370
-1
100
AcDbPolyline
90
2
70
0
43
0
10
23.1582736105
20
-19.546623269
10
23.3840513885
20
-19.277453825
0
LWPOLYLINE
5
38D
100
AcDbEntity
8
0
6
ByLayer
62
0
370
-1
100
AcDbPolyline
90
2
70
0
43
0
10
-24.5203489645
20
17.731722714
10
-24.7260184085
20
17.446784103
0
LWPOLYLINE
5
38E
100
AcDbEntity
8
0
6
ByLayer
62
0
370
-1
100
AcDbPolyline
90
2
70
0
43
0
10
23.9033402775
20
-22.795353825
10
23.1582736105
20
-19.546623269
0
LWPOLYLINE
5
38F
100
AcDbEntity
8
0
6
ByLayer
62
0
370
-1
100
AcDbPolyline
90
2
70
0
43
0
10
-24.7260184085
20
17.446784103
10
-28.0572989645
20
17.345854381
0
LWPOLYLINE
5
390
100
AcDbEntity
8
0
6
ByLayer
62
0
370
-1
100
AcDbPolyline
90
2
70
0
43
0
10
23.6066541665
20
-23.102976047
10
23.9033402775
20
-22.795353825
0
LWPOLYLINE
5
391
100
AcDbEntity
8
0
6
ByLayer
62
0
370
-1
100
AcDbPolyline
90
2
70
0
43
0
10
-28.0572989645
20
17.345854381
10
-28.2799017415
20
16.981117436
0
LWPOLYLINE
5
392
100
AcDbEntity
8
0
6
ByLayer
62
0
370
-1
100
AcDbPolyline
90
2
70
0
43
0
10
20.3332291665
20
-22.477148269
10
23.6066541665
20
-23.102976047
0
LWPOLYLINE
5
393
100
AcDbEntity
8
0
6
ByLayer
62
0
370
-1
100
AcDbPolyline
90
2
70
0
43
0
10
-28.2799017415
20
16.981117436
10
-26.8458600755
20
13.972240492
0
LWPOLYLINE
5
394
100
AcDbEntity
8
0
6
ByLayer
62
0
370
-1
100
AcDbPolyline
90
2
70
0
43
0
10
20.0707624995
20
-22.710687158
10
20.3332291665
20
-22.477148269
0
LWPOLYLINE
5
395
100
AcDbEntity
8
0
6
ByLayer
62
0
370
-1
100
AcDbPolyline
90
2
70
0
43
0
10
-26.8458600755
20
13.972240492
10
-27.0077850755
20
13.660314381
0
LWPOLYLINE
5
396
100
AcDbEntity
8
0
6
ByLayer
62
0
370
-1
100
AcDbPolyline
90
2
70
0
43
0
10
20.3346402775
20
-26.033148269
10
20.0707624995
20
-22.710687158
0
LWPOLYLINE
5
397
100
AcDbEntity
8
0
6
ByLayer
62
0
370
-1
100
AcDbPolyline
90
2
70
0
43
0
10
-27.0077850755
20
13.660314381
10
-30.2889711865
20
13.075444103
0
LWPOLYLINE
5
398
100
AcDbEntity
8
0
6
ByLayer
62
0
370
-1
100
AcDbPolyline
90
2
70
0
43
0
10
19.9966791665
20
-26.294203825
10
20.3346402775
20
-26.033148269
0
LWPOLYLINE
5
399
100
AcDbEntity
8
0
6
ByLayer
62
0
370
-1
100
AcDbPolyline
90
2
70
0
43
0
10
-30.2889711865
20
13.075444103
10
-30.4561878525
20
12.682167436
0
LWPOLYLINE
5
39A
100
AcDbEntity
8
0
6
ByLayer
62
0
370
-1
100
AcDbPolyline
90
2
70
0
43
0
10
16.8491958335
20
-25.198476047
10
19.9966791665
20
-26.294203825
0
LWPOLYLINE
5
39B
100
AcDbEntity
8
0
6
ByLayer
62
0
370
-1
100
AcDbPolyline
90
2
70
0
43
0
10
-30.4561878525
20
12.682167436
10
-28.5995184085
20
9.914131881
0
LWPOLYLINE
5
39C
100
AcDbEntity
8
0
6
ByLayer
62
0
370
-1
100
AcDbPolyline
90
2
70
0
43
0
10
16.5553319445
20
-25.391092714
10
16.8491958335
20
-25.198476047
0
LWPOLYLINE
5
39D
100
AcDbEntity
8
0
6
ByLayer
62
0
370
-1
100
AcDbPolyline
90
2
70
0
43
0
10
-28.5995184085
20
9.914131881
10
-28.7141711865
20
9.581991603
0
LWPOLYLINE
5
39E
100
AcDbEntity
8
0
6
ByLayer
62
0
370
-1
100
AcDbPolyline
90
2
70
0
43
0
10
16.3327291665
20
-28.716728825
10
16.5553319445
20
-25.391092714
0
LWPOLYLINE
5
39F
100
AcDbEntity
8
0
6
ByLayer
62
0
370
-1
100
AcDbPolyline
90
2
70
0
43
0
10
-28.7141711865
20
9.581991603
10
-31.8754128525
20
8.525563269
0
LWPOLYLINE
5
3A0
100
AcDbEntity
8
0
6
ByLayer
62
0
370
-1
100
AcDbPolyline
90
2
70
0
43
0
10
15.9601958335
20
-28.925926047
10
16.3327291665
20
-28.716728825
0
LWPOLYLINE
5
3A1
100
AcDbEntity
8
0
6
ByLayer
62
0
370
-1
100
AcDbPolyline
90
2
70
0
43
0
10
-31.8754128525
20
8.525563269
10
-31.9833628525
20
8.112213547
0
LWPOLYLINE
5
3A2
100
AcDbEntity
8
0
6
ByLayer
62
0
370
-1
100
AcDbPolyline
90
2
70
0
43
0
10
13.0060347225
20
-27.383228825
10
15.9601958335
20
-28.925926047
0
LWPOLYLINE
5
3A3
100
AcDbEntity
8
0
6
ByLayer
62
0
370
-1
100
AcDbPolyline
90
2
70
0
43
0
10
-31.9833628525
20
8.112213547
10
-29.7432239645
20
5.643827436
0
LWPOLYLINE
5
3A4
100
AcDbEntity
8
0
6
ByLayer
62
0
370
-1
100
AcDbPolyline
90
2
70
0
43
0
10
12.6871236105
20
-27.531395492
10
13.0060347225
20
-27.383228825
0
LWPOLYLINE
5
3A5
100
AcDbEntity
8
0
6
ByLayer
62
0
370
-1
100
AcDbPolyline
90
2
70
0
43
0
10
-29.7432239645
20
5.643827436
10
-29.8084878525
20
5.298810769
0
LWPOLYLINE
5
3A6
100
AcDbEntity
8
0
6
ByLayer
62
0
370
-1
100
AcDbPolyline
90
2
70
0
43
0
10
11.9829791665
20
-30.788945492
10
12.6871236105
20
-27.531395492
0
LWPOLYLINE
5
3A7
100
AcDbEntity
8
0
6
ByLayer
62
0
370
-1
100
AcDbPolyline
90
2
70
0
43
0
10
-29.8084878525
20
5.298810769
10
-32.7820517415
20
3.793155214
0
LWPOLYLINE
5
3A8
100
AcDbEntity
8
0
6
ByLayer
62
0
370
-1
100
AcDbPolyline
90
2
70
0
43
0
10
11.5839874995
20
-30.941698269
10
11.9829791665
20
-30.788945492
0
LWPOLYLINE
5
3A9
100
AcDbEntity
8
0
6
ByLayer
62
0
370
-1
100
AcDbPolyline
90
2
70
0
43
0
10
-32.7820517415
20
3.793155214
10
-32.8286184085
20
3.368763547
0
LWPOLYLINE
5
3AA
100
AcDbEntity
8
0
6
ByLayer
62
0
370
-1
100
AcDbPolyline
90
2
70
0
43
0
10
8.8855902775
20
-28.985545492
10
11.5839874995
20
-30.941698269
0
LWPOLYLINE
5
3AB
100
AcDbEntity
8
0
6
ByLayer
62
0
370
-1
100
AcDbPolyline
90
2
70
0
43
0
10
-32.8286184085
20
3.368763547
10
-30.2533406305
20
1.252801731
0
LWPOLYLINE
5
3AC
100
AcDbEntity
8
0
6
ByLayer
62
0
370
-1
100
AcDbPolyline
90
2
70
0
43
0
10
8.5486874995
20
-29.085381603
10
8.8855902775
20
-28.985545492
0
LWPOLYLINE
5
3AD
100
AcDbEntity
8
0
6
ByLayer
62
0
370
-1
100
AcDbPolyline
90
2
70
0
43
0
10
-30.2533406305
20
1.252801731
10
-30.2674517415
20
0.901435064
0
LWPOLYLINE
5
3AE
100
AcDbEntity
8
0
6
ByLayer
62
0
370
-1
100
AcDbPolyline
90
2
70
0
43
0
10
7.3774652775
20
-32.206053825
10
8.5486874995
20
-29.085381603
0
LWPOLYLINE
5
3AF
100
AcDbEntity
8
0
6
ByLayer
62
0
370
-1
100
AcDbPolyline
90
2
70
0
43
0
10
-30.2674517415
20
0.901435064
10
-32.9901906305
20
-1.020498269
0
LWPOLYLINE
5
3B0
100
AcDbEntity
8
0
6
ByLayer
62
0
370
-1
100
AcDbPolyline
90
2
70
0
43
0
10
6.9604819445
20
-32.298834381
10
7.3774652775
20
-32.206053825
0
LWPOLYLINE
5
3B1
100
AcDbEntity
8
0
6
ByLayer
62
0
370
-1
100
AcDbPolyline
90
2
70
0
43
0
10
-32.9901906305
20
-1.020498269
10
-32.9746684085
20
-1.447712158
0
LWPOLYLINE
5
3B2
100
AcDbEntity
8
0
6
ByLayer
62
0
370
-1
100
AcDbPolyline
90
2
70
0
43
0
10
4.5757041665
20
-29.970501047
10
6.9604819445
20
-32.298834381
0
LWPOLYLINE
5
3B3
100
AcDbEntity
8
0
6
ByLayer
62
0
370
-1
100
AcDbPolyline
90
2
70
0
43
0
10
-32.9746684085
20
-1.447712158
10
-30.1185795195
20
-3.165739936
0
LWPOLYLINE
5
3B4
100
AcDbEntity
8
0
6
ByLayer
62
0
370
-1
100
AcDbPolyline
90
2
70
0
43
0
10
4.2278652775
20
-30.020595492
10
4.5757041665
20
-29.970501047
0
LWPOLYLINE
5
3B5
100
AcDbEntity
8
0
6
ByLayer
62
0
370
-1
100
AcDbPolyline
90
2
70
0
43
0
10
-30.1185795195
20
-3.165739936
10
-30.0815378525
20
-3.515342714
0
LWPOLYLINE
5
3B6
100
AcDbEntity
8
0
6
ByLayer
62
0
370
-1
100
AcDbPolyline
90
2
70
0
43
0
10
2.6149652775
20
-32.937362158
10
4.2278652775
20
-30.020595492
0
LWPOLYLINE
5
3B7
100
AcDbEntity
8
0
6
ByLayer
62
0
370
-1
100
AcDbPolyline
90
2
70
0
43
0
10
-30.0815378525
20
-3.515342714
10
-32.4952434085
20
-5.813689936
0
LWPOLYLINE
5
3B8
100
AcDbEntity
8
0
6
ByLayer
62
0
370
-1
100
AcDbPolyline
90
2
70
0
43
0
10
2.1888097225
20
-32.968406603
10
2.6149652775
20
-32.937362158
0
LWPOLYLINE
5
3B9
100
AcDbEntity
8
0
6
ByLayer
62
0
370
-1
100
AcDbPolyline
90
2
70
0
43
0
10
-32.4952434085
20
-5.813689936
10
-32.4176322975
20
-6.233848269
0
LWPOLYLINE
5
3BA
100
AcDbEntity
8
0
6
ByLayer
62
0
370
-1
100
AcDbPolyline
90
2
70
0
43
0
10
0.1684513885
20
-30.317634381
10
2.1888097225
20
-32.968406603
0
LWPOLYLINE
5
3BB
100
AcDbEntity
8
0
6
ByLayer
62
0
370
-1
100
AcDbPolyline
90
2
70
0
43
0
10
-32.4176322975
20
-6.233848269
10
-29.3417628525
20
-7.517959381
0
LWPOLYLINE
5
3BC
100
AcDbEntity
8
0
6
ByLayer
62
0
370
-1
100
AcDbPolyline
90
2
70
0
43
0
10
-0.1829152775
20
-30.316576047
10
0.1684513885
20
-30.317634381
0
LWPOLYLINE
5
3BD
100
AcDbEntity
8
0
6
ByLayer
62
0
370
-1
100
AcDbPolyline
90
2
70
0
43
0
10
-29.3417628525
20
-7.517959381
10
-29.2542739645
20
-7.858037158
0
LWPOLYLINE
5
3BE
100
AcDbEntity
8
0
6
ByLayer
62
0
370
-1
100
AcDbPolyline
90
2
70
0
43
0
10
-2.2032736115
20
-32.967348269
10
-0.1829152775
20
-30.316576047
0
LWPOLYLINE
5
3BF
100
AcDbEntity
8
0
6
ByLayer
62
0
370
-1
100
AcDbPolyline
90
2
70
0
43
0
10
-29.2542739645
20
-7.858037158
10
-31.3077934085
20
-10.483409381
0
LWPOLYLINE
5
3C0
100
AcDbEntity
8
0
6
ByLayer
62
0
370
-1
100
AcDbPolyline
90
2
70
0
43
0
10
-2.6294291665
20
-32.935951047
10
-2.2032736115
20
-32.967348269
0
LWPOLYLINE
5
3C1
100
AcDbEntity
8
0
6
ByLayer
62
0
370
-1
100
AcDbPolyline
90
2
70
0
43
0
10
-31.3077934085
20
-10.483409381
10
-31.1698572975
20
-10.887692714
0
LWPOLYLINE
5
3C2
100
AcDbEntity
8
0
6
ByLayer
62
0
370
-1
100
AcDbPolyline
90
2
70
0
43
0
10
-4.2423291665
20
-30.019537158
10
-2.6294291665
20
-32.935951047
0
LWPOLYLINE
5
3C3
100
AcDbEntity
8
0
6
ByLayer
62
0
370
-1
100
AcDbPolyline
90
2
70
0
43
0
10
-31.1698572975
20
-10.887692714
10
-27.9398239645
20
-11.710370492
0
LWPOLYLINE
5
3C4
100
AcDbEntity
8
0
6
ByLayer
62
0
370
-1
100
AcDbPolyline
90
2
70
0
43
0
10
-4.5898156305
20
-29.967326047
10
-4.2423291665
20
-30.019537158
0
LWPOLYLINE
5
3C5
100
AcDbEntity
8
0
6
ByLayer
62
0
370
-1
100
AcDbPolyline
90
2
70
0
43
0
10
-27.9398239645
20
-11.710370492
10
-27.8036517415
20
-12.034220492
0
LWPOLYLINE
5
3C6
100
AcDbEntity
8
0
6
ByLayer
62
0
370
-1
100
AcDbPolyline
90
2
70
0
43
0
10
-6.9745934085
20
-32.295659381
10
-4.5898156305
20
-29.967326047
0
LWPOLYLINE
5
3C7
100
AcDbEntity
8
0
6
ByLayer
62
0
370
-1
100
AcDbPolyline
90
2
70
0
43
0
10
-27.8036517415
20
-12.034220492
10
-29.4528878525
20
-14.930526047
0
LWPOLYLINE
5
3C8
100
AcDbEntity
8
0
6
ByLayer
62
0
370
-1
100
AcDbPolyline
90
2
70
0
43
0
10
-7.3915767415
20
-32.202526047
10
-6.9745934085
20
-32.295659381
0
LWPOLYLINE
5
3C9
100
AcDbEntity
8
0
6
ByLayer
62
0
370
-1
100
AcDbPolyline
90
2
70
0
43
0
10
-29.4528878525
20
-14.930526047
10
-29.2574489645
20
-15.310467714
0
LWPOLYLINE
5
3CA
100
AcDbEntity
8
0
6
ByLayer
62
0
370
-1
100
AcDbPolyline
90
2
70
0
43
0
10
-8.5627989645
20
-29.082206603
10
-7.3915767415
20
-32.202526047
0
LWPOLYLINE
5
3CB
100
AcDbEntity
8
0
6
ByLayer
62
0
370
-1
100
AcDbPolyline
90
2
70
0
43
0
10
-29.2574489645
20
-15.310467714
10
-25.9423961865
20
-15.654073269
0
LWPOLYLINE
5
3CC
100
AcDbEntity
8
0
6
ByLayer
62
0
370
-1
100
AcDbPolyline
90
2
70
0
43
0
10
-8.8989961865
20
-28.979901047
10
-8.5627989645
20
-29.082206603
0
LWPOLYLINE
5
3CD
100
AcDbEntity
8
0
6
ByLayer
62
0
370
-1
100
AcDbPolyline
90
2
70
0
43
0
10
-25.9423961865
20
-15.654073269
10
-25.7603628525
20
-15.954639936
0
LWPOLYLINE
5
3CE
100
AcDbEntity
8
0
6
ByLayer
62
0
370
-1
100
AcDbPolyline
90
2
70
0
43
0
10
-11.5973934085
20
-30.936053825
10
-8.8989961865
20
-28.979901047
0
LWPOLYLINE
5
3CF
100
AcDbEntity
8
0
6
ByLayer
62
0
370
-1
100
AcDbPolyline
90
2
70
0
43
0
10
-25.7603628525
20
-15.954639936
10
-26.9703906305
20
-19.060142714
0
LWPOLYLINE
5
3D0
100
AcDbEntity
8
0
6
ByLayer
62
0
370
-1
100
AcDbPolyline
90
2
70
0
43
0
10
-11.9963850755
20
-30.783653825
10
-11.5973934085
20
-30.936053825
0
LWPOLYLINE
5
3D1
100
AcDbEntity
8
0
6
ByLayer
62
0
370
-1
100
AcDbPolyline
90
2
70
0
43
0
10
-26.9703906305
20
-19.060142714
10
-26.7216822975
20
-19.407628825
0
LWPOLYLINE
5
3D2
100
AcDbEntity
8
0
6
ByLayer
62
0
370
-1
100
AcDbPolyline
90
2
70
0
43
0
10
-12.7005295195
20
-27.526103825
10
-11.9963850755
20
-30.783653825
0
LWPOLYLINE
5
3D3
100
AcDbEntity
8
0
6
ByLayer
62
0
370
-1
100
AcDbPolyline
90
2
70
0
43
0
10
-26.7216822975
20
-19.407628825
10
-23.3918128525
20
-19.265106603
0
LWPOLYLINE
5
3D4
100
AcDbEntity
8
0
6
ByLayer
62
0
370
-1
100
AcDbPolyline
90
2
70
0
43
0
10
-13.0183822975
20
-27.375820492
10
-12.7005295195
20
-27.526103825
0
LWPOLYLINE
5
3D5
100
AcDbEntity
8
0
6
ByLayer
62
0
370
-1
100
AcDbPolyline
90
2
70
0
43
0
10
-23.3918128525
20
-19.265106603
10
-23.1681517415
20
-19.535687158
0
LWPOLYLINE
5
3D6
100
AcDbEntity
8
0
6
ByLayer
62
0
370
-1
100
AcDbPolyline
90
2
70
0
43
0
10
-15.9728961865
20
-28.918164936
10
-13.0183822975
20
-27.375820492
0
LWPOLYLINE
5
3D7
100
AcDbEntity
8
0
6
ByLayer
62
0
370
-1
100
AcDbPolyline
90
2
70
0
43
0
10
-23.1681517415
20
-19.535687158
10
-23.9128656305
20
-22.784417714
0
LWPOLYLINE
5
3D8
100
AcDbEntity
8
0
6
ByLayer
62
0
370
-1
100
AcDbPolyline
90
2
70
0
43
0
10
-16.3454295195
20
-28.709320492
10
-15.9728961865
20
-28.918164936
0
LWPOLYLINE
5
3D9
100
AcDbEntity
8
0
6
ByLayer
62
0
370
-1
100
AcDbPolyline
90
2
70
0
43
0
10
-23.9128656305
20
-22.784417714
10
-23.6165322975
20
-23.092039936
0
LWPOLYLINE
5
3DA
100
AcDbEntity
8
0
6
ByLayer
62
0
370
-1
100
AcDbPolyline
90
2
70
0
43
0
10
-16.5676795195
20
-25.383684381
10
-16.3454295195
20
-28.709320492
0
LWPOLYLINE
5
3DB
100
AcDbEntity
8
0
6
ByLayer
62
0
370
-1
100
AcDbPolyline
90
2
70
0
43
0
10
-23.6165322975
20
-23.092039936
10
-20.3427545195
20
-22.465859381
0
LWPOLYLINE
5
3DC
100
AcDbEntity
8
0
6
ByLayer
62
0
370
-1
100
AcDbPolyline
90
2
70
0
43
0
10
-16.8601322975
20
-25.188951047
10
-16.5676795195
20
-25.383684381
0
LWPOLYLINE
5
3DD
100
AcDbEntity
8
0
6
ByLayer
62
0
370
-1
100
AcDbPolyline
90
2
70
0
43
0
10
-20.3427545195
20
-22.465859381
10
-20.0820517415
20
-22.701514936
0
LWPOLYLINE
5
3DE
100
AcDbEntity
8
0
6
ByLayer
62
0
370
-1
100
AcDbPolyline
90
2
70
0
43
0
10
-20.0076156305
20
-26.284678825
10
-16.8601322975
20
-25.188951047
0
LWPOLYLINE
5
3DF
100
AcDbEntity
8
0
6
ByLayer
62
0
370
-1
100
AcDbPolyline
90
2
70
0
43
0
10
-20.0820517415
20
-22.701514936
10
-20.3459295195
20
-26.023623269
0
LWPOLYLINE
5
3E0
100
AcDbEntity
8
0
6
ByLayer
62
0
370
-1
100
AcDbPolyline
90
2
70
0
43
0
10
-20.3459295195
20
-26.023623269
10
-20.0076156305
20
-26.284678825
0
LWPOLYLINE
5
3E1
100
AcDbEntity
8
0
6
ByLayer
62
0
370
-1
100
AcDbPolyline
90
2
70
0
43
0
10
-5.9924600755
20
3.459780214
10
-3.9950319445
20
6.919648269
0
LWPOLYLINE
5
3E2
100
AcDbEntity
8
0
6
ByLayer
62
0
370
-1
100
AcDbPolyline
90
2
70
0
43
0
10
-7.9898878525
20
8.78419999992e-05
10
-5.9924600755
20
3.459780214
0
LWPOLYLINE
5
3E3
100
AcDbEntity
8
0
6
ByLayer
62
0
370
-1
100
AcDbPolyline
90
2
70
0
43
0
10
-5.9924600755
20
-3.459603825
10
-7.9898878525
20
8.78419999992e-05
0
LWPOLYLINE
5
3E4
100
AcDbEntity
8
0
6
ByLayer
62
0
370
-1
100
AcDbPolyline
90
2
70
0
43
0
10
-3.9950319445
20
-6.919295492
10
-5.9924600755
20
-3.459603825
0
LWPOLYLINE
5
3E5
100
AcDbEntity
8
0
6
ByLayer
62
0
370
-1
100
AcDbPolyline
90
2
70
0
43
0
10
0.000176388500023
20
-6.919648269
10
-3.9950319445
20
-6.919295492
0
LWPOLYLINE
5
3E6
100
AcDbEntity
8
0
6
ByLayer
62
0
370
-1
100
AcDbPolyline
90
2
70
0
43
0
10
3.9950319445
20
-6.919648269
10
0.000176388500023
20
-6.919648269
0
LWPOLYLINE
5
3E7
100
AcDbEntity
8
0
6
ByLayer
62
0
370
-1
100
AcDbPolyline
90
2
70
0
43
0
10
5.9924597225
20
-3.459603825
10
3.9950319445
20
-6.919648269
0
LWPOLYLINE
5
3E8
100
AcDbEntity
8
0
6
ByLayer
62
0
370
-1
100
AcDbPolyline
90
2
70
0
43
0
10
7.9898874995
20
8.78419999992e-05
10
5.9924597225
20
-3.459603825
0
LWPOLYLINE
5
3E9
100
AcDbEntity
8
0
6
ByLayer
62
0
370
-1
100
AcDbPolyline
90
2
70
0
43
0
10
5.9924597225
20
3.459780214
10
7.9898874995
20
8.78419999992e-05
0
LWPOLYLINE
5
3EA
100
AcDbEntity
8
0
6
ByLayer
62
0
370
-1
100
AcDbPolyline
90
2
70
0
43
0
10
3.9950319445
20
6.919542436
10
5.9924597225
20
3.459780214
0
LWPOLYLINE
5
3EB
100
AcDbEntity
8
0
6
ByLayer
62
0
370
-1
100
AcDbPolyline
90
2
70
0
43
0
10
0.000176388500023
20
6.919754103
10
3.9950319445
20
6.919542436
0
LWPOLYLINE
5
3EC
100
AcDbEntity
8
0
6
ByLayer
62
0
370
-1
100
AcDbPolyline
90
2
70
0
43
0
10
-3.9950319445
20
6.919648269
10
0.000176388500023
20
6.919754103
0
ENDBLK
5
57
330
55
100
AcDbEntity
8
0
100
AcDbBlockEnd
0
BLOCK
5
59
330
58
100
AcDbEntity
8
0
100
AcDbBlockBegin
2
part21-0
70
0
10
0
20
0
3
part21-0
1

0
CIRCLE
5
3ED
100
AcDbEntity
8
0
6
ByLayer
62
0
370
-1
100
AcDbCircle
10
0
20
0
40
20
0
ARC
5
3EE
100
AcDbEntity
8
0
6
ByLayer
62
256
370
-1
100
AcDbCircle
10
-14
20
7.1054273576e-15
40
2.5
100
AcDbArc
50
79.7134399019
51
280.286556154
0
ARC
5
3EF
100
AcDbEntity
8
0
6
ByLayer
62
256
370
-1
100
AcDbCircle
10
0
20
0
40
0
100
AcDbArc
50
0
51
0
0
ARC
5
3F0
100
AcDbEntity
8
0
6
ByLayer
62
256
370
-1
100
AcDbCircle
10
0
20
0
40
11.0199818512
100
AcDbArc
50
100.286560611
51
169.713439389
0
LINE
5
3F1
100
AcDbEntity
8
0
6
ByLayer
62
256
370
-1
100
AcDbLine
10
-13.5535714286
20
2.45981737749
11
-10.8428571429
21
1.96785390199
0
LINE
5
3F2
100
AcDbEntity
8
0
6
ByLayer
62
256
370
-1
100
AcDbLine
10
-13.5535714286
20
-2.45981737749
11
-10.8428571429
21
-1.96785390199
0
ARC
5
3F3
100
AcDbEntity
8
0
6
ByLayer
62
256
370
-1
100
AcDbCircle
10
0
20
0
40
11.0199818512
100
AcDbArc
50
190.286560611
51
259.713439389
0
LINE
5
3F4
100
AcDbEntity
8
0
6
ByLayer
62
256
370
-1
100
AcDbLine
10
-2.45981737749
20
-13.5535714286
11
-1.96785390199
21
-10.8428571429
0
LINE
5
3F5
100
AcDbEntity
8
0
6
ByLayer
62
256
370
-1
100
AcDbLine
10
2.45981737749
20
-13.5535714286
11
1.96785390199
21
-10.8428571429
0
ARC
5
3F6
100
AcDbEntity
8
0
6
ByLayer
62
256
370
-1
100
AcDbCircle
10
0
20
0
40
11.0199818512
100
AcDbArc
50
280.286560611
51
349.713439389
0
LINE
5
3F7
100
AcDbEntity
8
0
6
ByLayer
62
256
370
-1
100
AcDbLine
10
13.5535714286
20
-2.45981737749
11
10.8428571429
21
-1.96785390199
0
ARC
5
3F8
100
AcDbEntity
8
0
6
ByLayer
62
256
370
-1
100
AcDbCircle
10
0
20
0
40
11.0199818512
100
AcDbArc
50
10.2865606115
51
79.7134393885
0
LINE
5
3F9
100
AcDbEntity
8
0
6
ByLayer
62
256
370
-1
100
AcDbLine
10
2.45981737749
20
13.5535714286
11
1.96785390199
21
10.8428571429
0
LINE
5
3FA
100
AcDbEntity
8
0
6
ByLayer
62
256
370
-1
100
AcDbLine
10
-2.45981737749
20
13.5535714286
11
-1.96785390199
21
10.8428571429
0
LINE
5
3FB
100
AcDbEntity
8
0
6
ByLayer
62
256
370
-1
100
AcDbLine
10
13.5535714286
20
2.45981737749
11
10.8428571429
21
1.96785390199
0
ARC
5
3FC
100
AcDbEntity
8
0
6
ByLayer
62
256
370
-1
100
AcDbCircle
10
0
20
-14
40
2.5
100
AcDbArc
50
169.713439389
51
10.2865606115
0
ARC
5
3FD
100
AcDbEntity
8
0
6
ByLayer
62
256
370
-1
100
AcDbCircle
10
14
20
-3.5527136788e-15
40
2.5
100
AcDbArc
50
259.713439389
51
100.286560611
0
ARC
5
3FE
100
AcDbEntity
8
0
6
ByLayer
62
256
370
-1
100
AcDbCircle
10
0
20
14
40
2.5
100
AcDbArc
50
349.713442701
51
190.286560611
0
ENDBLK
5
5A
330
58
100
AcDbEntity
8
0
100
AcDbBlockEnd
0
BLOCK
5
5C
330
5B
100
AcDbEntity
8
0
100
AcDbBlockBegin
2
part14_14-0
70
0
10
0
20
0
3
part14_14-0
1

0
LINE
5
3FF
100
AcDbEntity
8
0
6
ByLayer
62
0
370
-1
100
AcDbLine
10
20.5
20
-20
11
20.5
21
-25
0
LINE
5
400
100
AcDbEntity
8
0
6
ByLayer
62
0
370
-1
100
AcDbLine
10
20.5
20
-25
11
-20.5
21
-25
0
LINE
5
401
100
AcDbEntity
8
0
6
ByLayer
62
0
370
-1
100
AcDbLine
10
-20.5
20
-25
11
-20.5
21
-20
0
LINE
5
402
100
AcDbEntity
8
0
6
ByLayer
62
0
370
-1
100
AcDbLine
10
-20.5
20
-20
11
-34.5
21
-20
0
LINE
5
403
100
AcDbEntity
8
0
6
ByLayer
62
0
370
-1
100
AcDbLine
10
-34.5
20
-20
11
-34.5
21
-13
0
LINE
5
404
100
AcDbEntity
8
0
6
ByLayer
62
0
370
-1
100
AcDbLine
10
-34.5
20
-13
11
-29
21
-13
0
LINE
5
405
100
AcDbEntity
8
0
6
ByLayer
62
0
370
-1
100
AcDbLine
10
-29
20
-13
11
-29
21
-7
0
LINE
5
406
100
AcDbEntity
8
0
6
ByLayer
62
0
370
-1
100
AcDbLine
10
-29
20
-7
11
-34.5
21
-7
0
LINE
5
407
100
AcDbEntity
8
0
6
ByLayer
62
0
370
-1
100
AcDbLine
10
-34.5
20
-7
11
-34.5
21
7
0
LINE
5
408
100
AcDbEntity
8
0
6
ByLayer
62
0
370
-1
100
AcDbLine
10
-34.5
20
7
11
-29
21
7
0
LINE
5
409
100
AcDbEntity
8
0
6
ByLayer
62
0
370
-1
100
AcDbLine
10
-29
20
7
11
-29
21
13
0
LINE
5
40A
100
AcDbEntity
8
0
6
ByLayer
62
0
370
-1
100
AcDbLine
10
-29
20
13
11
-34.5
21
13
0
LINE
5
40B
100
AcDbEntity
8
0
6
ByLayer
62
0
370
-1
100
AcDbLine
10
-34.5
20
13
11
-34.5
21
20
0
LINE
5
40C
100
AcDbEntity
8
0
6
ByLayer
62
0
370
-1
100
AcDbLine
10
-34.5
20
20
11
-20.5
21
20
0
LINE
5
40D
100
AcDbEntity
8
0
6
ByLayer
62
0
370
-1
100
AcDbLine
10
-20.5
20
20
11
-20.5
21
25
0
LINE
5
40E
100
AcDbEntity
8
0
6
ByLayer
62
0
370
-1
100
AcDbLine
10
-20.5
20
25
11
20.5
21
25
0
LINE
5
40F
100
AcDbEntity
8
0
6
ByLayer
62
0
370
-1
100
AcDbLine
10
20.5
20
25
11
20.5
21
20
0
LINE
5
410
100
AcDbEntity
8
0
6
ByLayer
62
0
370
-1
100
AcDbLine
10
20.5
20
20
11
34.5
21
20
0
LINE
5
411
100
AcDbEntity
8
0
6
ByLayer
62
0
370
-1
100
AcDbLine
10
34.5
20
20
11
34.5
21
13
0
LINE
5
412
100
AcDbEntity
8
0
6
ByLayer
62
0
370
-1
100
AcDbLine
10
34.5
20
13
11
29
21
13
0
LINE
5
413
100
AcDbEntity
8
0
6
ByLayer
62
0
370
-1
100
AcDbLine
10
29
20
13
11
29
21
7
0
LINE
5
414
100
AcDbEntity
8
0
6
ByLayer
62
0
370
-1
100
AcDbLine
10
29
20
7
11
34.5
21
7
0
LINE
5
415
100
AcDbEntity
8
0
6
ByLayer
62
0
370
-1
100
AcDbLine
10
34.5
20
7
11
34.5
21
-7
0
LINE
5
416
100
AcDbEntity
8
0
6
ByLayer
62
0
370
-1
100
AcDbLine
10
34.5
20
-7
11
29
21
-7
0
LINE
5
417
100
AcDbEntity
8
0
6
ByLayer
62
0
370
-1
100
AcDbLine
10
29
20
-7
11
29
21
-13
0
LINE
5
418
100
AcDbEntity
8
0
6
ByLayer
62
0
370
-1
100
AcDbLine
10
29
20
-13
11
34.5
21
-13
0
LINE
5
419
100
AcDbEntity
8
0
6
ByLayer
62
0
370
-1
100
AcDbLine
10
34.5
20
-13
11
34.5
21
-20
0
LINE
5
41A
100
AcDbEntity
8
0
6
ByLayer
62
0
370
-1
100
AcDbLine
10
34.5
20
-20
11
20.5
21
-20
0
CIRCLE
5
41B
100
AcDbEntity
8
0
6
ByLayer
62
0
370
-1
100
AcDbCircle
10
-1.7763568394e-15
20
0
40
4
0
ENDBLK
5
5D
330
5B
100
AcDbEntity
8
0
100
AcDbBlockEnd
0
BLOCK
5
5F
330
5E
100
AcDbEntity
8
0
100
AcDbBlockBegin
2
part15_14-0
70
0
10
0
20
0
3
part15_14-0
1

0
LINE
5
41C
100
AcDbEntity
8
0
6
ByLayer
62
0
370
-1
100
AcDbLine
10
20.5
20
-20
11
20.5
21
-25
0
LINE
5
41D
100
AcDbEntity
8
0
6
ByLayer
62
0
370
-1
100
AcDbLine
10
34.5
20
-20
11
20.5
21
-20
0
LINE
5
41E
100
AcDbEntity
8
0
6
ByLayer
62
0
370
-1
100
AcDbLine
10
34.5
20
-13
11
34.5
21
-20
0
LINE
5
41F
100
AcDbEntity
8
0
6
ByLayer
62
0
370
-1
100
AcDbLine
10
29
20
-13
11
34.5
21
-13
0
LINE
5
420
100
AcDbEntity
8
0
6
ByLayer
62
0
370
-1
100
AcDbLine
10
29
20
-7
11
29
21
-13
0
LINE
5
421
100
AcDbEntity
8
0
6
ByLayer
62
0
370
-1
100
AcDbLine
10
34.5
20
-7
11
29
21
-7
0
LINE
5
422
100
AcDbEntity
8
0
6
ByLayer
62
0
370
-1
100
AcDbLine
10
34.5
20
7
11
34.5
21
-7
0
LINE
5
423
100
AcDbEntity
8
0
6
ByLayer
62
0
370
-1
100
AcDbLine
10
29
20
7
11
34.5
21
7
0
LINE
5
424
100
AcDbEntity
8
0
6
ByLayer
62
0
370
-1
100
AcDbLine
10
29
20
13
11
29
21
7
0
LINE
5
425
100
AcDbEntity
8
0
6
ByLayer
62
0
370
-1
100
AcDbLine
10
34.5
20
13
11
29
21
13
0
LINE
5
426
100
AcDbEntity
8
0
6
ByLayer
62
0
370
-1
100
AcDbLine
10
34.5
20
20
11
34.5
21
13
0
LINE
5
427
100
AcDbEntity
8
0
6
ByLayer
62
0
370
-1
100
AcDbLine
10
20.5
20
20
11
34.5
21
20
0
LINE
5
428
100
AcDbEntity
8
0
6
ByLayer
62
0
370
-1
100
AcDbLine
10
20.5
20
25
11
20.5
21
20
0
LINE
5
429
100
AcDbEntity
8
0
6
ByLayer
62
0
370
-1
100
AcDbLine
10
-20.5
20
25
11
20.5
21
25
0
LINE
5
42A
100
AcDbEntity
8
0
6
ByLayer
62
0
370
-1
100
AcDbLine
10
-20.5
20
20
11
-20.5
21
25
0
LINE
5
42B
100
AcDbEntity
8
0
6
ByLayer
62
0
370
-1
100
AcDbLine
10
-34.5
20
20
11
-20.5
21
20
0
LINE
5
42C
100
AcDbEntity
8
0
6
ByLayer
62
0
370
-1
100
AcDbLine
10
-34.5
20
13
11
-34.5
21
20
0
LINE
5
42D
100
AcDbEntity
8
0
6
ByLayer
62
0
370
-1
100
AcDbLine
10
-29
20
13
11
-34.5
21
13
0
LINE
5
42E
100
AcDbEntity
8
0
6
ByLayer
62
0
370
-1
100
AcDbLine
10
-29
20
7
11
-29
21
13
0
LINE
5
42F
100
AcDbEntity
8
0
6
ByLayer
62
0
370
-1
100
AcDbLine
10
-34.5
20
7
11
-29
21
7
0
LINE
5
430
100
AcDbEntity
8
0
6
ByLayer
62
0
370
-1
100
AcDbLine
10
-34.5
20
-7
11
-34.5
21
7
0
LINE
5
431
100
AcDbEntity
8
0
6
ByLayer
62
0
370
-1
100
AcDbLine
10
-29
20
-7
11
-34.5
21
-7
0
LINE
5
432
100
AcDbEntity
8
0
6
ByLayer
62
0
370
-1
100
AcDbLine
10
-29
20
-13
11
-29
21
-7
0
LINE
5
433
100
AcDbEntity
8
0
6
ByLayer
62
0
370
-1
100
AcDbLine
10
-34.5
20
-13
11
-29
21
-13
0
LINE
5
434
100
AcDbEntity
8
0
6
ByLayer
62
0
370
-1
100
AcDbLine
10
-34.5
20
-20
11
-34.5
21
-13
0
LINE
5
435
100
AcDbEntity
8
0
6
ByLayer
62
0
370
-1
100
AcDbLine
10
-20.5
20
-20
11
-34.5
21
-20
0
LINE
5
436
100
AcDbEntity
8
0
6
ByLayer
62
0
370
-1
100
AcDbLine
10
-20.5
20
-25
11
-20.5
21
-20
0
LINE
5
437
100
AcDbEntity
8
0
6
ByLayer
62
0
370
-1
100
AcDbLine
10
20.5
20
-25
11
22
21
-25
0
LINE
5
438
100
AcDbEntity
8
0
6
ByLayer
62
0
370
-1
100
AcDbLine
10
22
20
-25
11
22
21
-69
0
LINE
5
439
100
AcDbEntity
8
0
6
ByLayer
62
0
370
-1
100
AcDbLine
10
22
20
-69
11
-22
21
-69
0
LINE
5
43A
100
AcDbEntity
8
0
6
ByLayer
62
0
370
-1
100
AcDbLine
10
-22
20
-69
11
-22
21
-25
0
LINE
5
43B
100
AcDbEntity
8
0
6
ByLayer
62
0
370
-1
100
AcDbLine
10
-22
20
-25
11
-20.5
21
-25
0
CIRCLE
5
43C
100
AcDbEntity
8
0
6
ByLayer
62
0
370
-1
100
AcDbCircle
10
-1.7763568394e-15
20
-47
40
11
0
CIRCLE
5
43D
100
AcDbEntity
8
0
6
ByLayer
62
0
370
-1
100
AcDbCircle
10
-1.7763568394e-15
20
0
40
4
0
CIRCLE
5
43E
100
AcDbEntity
8
0
6
ByLayer
62
0
370
-1
100
AcDbCircle
10
15.5
20
-62.5
40
1.5
0
CIRCLE
5
43F
100
AcDbEntity
8
0
6
ByLayer
62
0
370
-1
100
AcDbCircle
10
-15.5
20
-62.5
40
1.5
0
CIRCLE
5
440
100
AcDbEntity
8
0
6
ByLayer
62
0
370
-1
100
AcDbCircle
10
-15.5
20
-31.5
40
1.5
0
CIRCLE
5
441
100
AcDbEntity
8
0
6
ByLayer
62
0
370
-1
100
AcDbCircle
10
15.5
20
-31.5
40
1.5
0
ENDBLK
5
60
330
5E
100
AcDbEntity
8
0
100
AcDbBlockEnd
0
BLOCK
5
62
330
61
100
AcDbEntity
8
0
100
AcDbBlockBegin
2
Крепление двигателя Y_Новое-0
70
0
10
0
20
0
3
Крепление двигателя Y_Новое-0
1

0
CIRCLE
5
442
100
AcDbEntity
8
0
6
ByBlock
62
0
370
-2
100
AcDbCircle
10
69
20
27.3573948778
40
11
0
LINE
5
443
100
AcDbEntity
8
0
6
ByBlock
62
0
370
-2
100
AcDbLine
10
77.5257051813
20
0
11
98
21
35.462552139
0
LINE
5
444
100
AcDbEntity
8
0
6
ByBlock
62
0
370
-2
100
AcDbLine
10
98
20
35.462552139
11
67.0051910579
21
53.3573948778
0
LINE
5
445
100
AcDbEntity
8
0
6
ByBlock
62
0
370
-2
100
AcDbLine
10
67.0051910579
20
53.3573948778
11
57.6849409371
21
53.3573948778
0
LINE
5
446
100
AcDbEntity
8
0
6
ByBlock
62
0
370
-2
100
AcDbLine
10
57.6849409371
20
53.3573948778
11
18.973805581
21
39.9358208145
0
LINE
5
447
100
AcDbEntity
8
0
6
ByBlock
62
0
370
-2
100
AcDbLine
10
18.973805581
20
39.9358208145
11
0
21
13.3573948778
0
LINE
5
448
100
AcDbEntity
8
0
6
ByBlock
62
0
370
-2
100
AcDbLine
10
0
20
13.3573948778
11
0
21
0
0
LINE
5
449
100
AcDbEntity
8
0
6
ByBlock
62
0
370
-2
100
AcDbLine
10
0
20
0
11
77.5257051813
21
0
0
CIRCLE
5
44A
100
AcDbEntity
8
0
6
ByLayer
62
256
370
-1
100
AcDbCircle
10
26
20
33.3573948778
40
3
0
CIRCLE
5
44B
100
AcDbEntity
8
0
6
ByLayer
62
256
370
-1
100
AcDbCircle
10
10
20
8.35739487779
40
3
0
CIRCLE
5
44C
100
AcDbEntity
8
0
6
ByLayer
62
256
370
-1
100
AcDbCircle
10
47.8266087876
20
21.6839916165
40
0.5
0
CIRCLE
5
44D
100
AcDbEntity
8
0
6
ByLayer
62
256
370
-1
100
AcDbCircle
10
63.3265967387
20
48.5307860902
40
0.5
0
CIRCLE
5
44E
100
AcDbEntity
8
0
6
ByLayer
62
256
370
-1
100
AcDbCircle
10
90.1733912124
20
33.0307981391
40
0.5
0
CIRCLE
5
44F
100
AcDbEntity
8
0
6
ByLayer
62
256
370
-1
100
AcDbCircle
10
74.6734032613
20
6.18400366537
40
0.5
0
ENDBLK
5
63
330
61
100
AcDbEntity
8
0
100
AcDbBlockEnd
0
ENDSEC
0
SECTION
2
ENTITIES
0
INSERT
5
450
100
AcDbEntity
8
0
6
ByLayer
62
256
370
-1
100
AcDbBlockReference
2
part15-0
10
40
20
-10
30
0
41
1
42
1
43
0
50
0
70
1
71
1
44
1
45
1
0
INSERT
5
451
100
AcDbEntity
8
0
6
ByLayer
62
256
370
-1
100
AcDbBlockReference
2
part14-0
10
40
20
-110
30
0
41
1
42
1
43
0
50
0
70
1
71
1
44
1
45
1
0
INSERT
5
452
100
AcDbEntity
8
0
6
ByLayer
62
256
370
-1
100
AcDbBlockReference
2
part21-0
10
20
20
40
30
0
41
1
42
1
43
0
50
0
70
1
71
1
44
1
45
1
0
INSERT
5
453
100
AcDbEntity
8
0
6
ByLayer
62
256
370
-1
100
AcDbBlockReference
2
part21-0
10
70
20
40
30
0
41
1
42
1
43
0
50
0
70
1
71
1
44
1
45
1
0
INSERT
5
454
100
AcDbEntity
8
0
6
ByLayer
62
256
370
-1
100
AcDbBlockReference
2
Крепление двигателя Y_Новое-0
10
0
20
-200
30
0
41
1
42
1
43
0
50
0
70
1
71
1
44
0
45
0
0
ENDSEC
0
SECTION
2
OBJECTS
0
DICTIONARY
5
C
330
0
100
AcDbDictionary
281
1
3
ACAD_GROUP
350
D
0
DICTIONARY
5
D
330
C
100
AcDbDictionary
281
1
0
ENDSEC
0
EOF
