999
dxfrw 0.5.10
0
SECTION
2
HEADER
9
$ACADVER
1
AC1021
9
$HANDSEED
5
20000
9
$DWGCODEPAGE
3
ANSI_1252
9
$INSBASE
10
0
20
0
30
0
9
$EXTMIN
10
-135
20
-20
30
0
9
$EXTMAX
10
188
20
225.516677103
30
0
9
$LIMMIN
10
0
20
0
9
$LIMMAX
10
420
20
297
9
$ORTHOMODE
70
0
9
$LTSCALE
40
1
9
$TEXTSTYLE
7
STANDARD
9
$DIMASZ
40
2.5
9
$DIMSCALE
40
1
9
$DIMEXO
40
0.625
9
$DIMEXE
40
1.25
9
$DIMTXT
40
2.5
9
$DIMTSZ
40
0
9
$DIMAUNIT
70
0
9
$DIMADEC
70
0
9
$DIMLUNIT
70
2
9
$DIMSTYLE
2
STANDARD
9
$DIMGAP
40
0.625
9
$DIMTIH
70
0
9
$LUNITS
70
2
9
$LUPREC
70
4
9
$AUNITS
70
0
9
$AUPREC
70
2
9
$SPLINESEGS
70
8
9
$GRIDMODE
70
1
9
$SNAPSTYLE
70
0
9
$PINSBASE
10
0
20
0
30
0
9
$PLIMMIN
10
0
20
0
9
$PLIMMAX
10
210
20
297
9
$INSUNITS
70
0
9
$PSVPSCALE
40
1
0
ENDSEC
0
SECTION
2
CLASSES
0
ENDSEC
0
SECTION
2
TABLES
0
TABLE
2
VPORT
5
8
330
0
100
AcDbSymbolTable
70
1
0
VPORT
5
31
330
2
100
AcDbSymbolTableRecord
100
AcDbViewportTableRecord
2
*ACTIVE
70
0
10
0
20
0
11
1
21
1
12
173.315014333
22
156.609952711
13
0
23
0
14
10
24
10
15
10
25
10
16
0
26
0
36
1
17
0
27
0
37
0
40
395.551994847
41
2.00754147813
42
50
43
0
44
0
50
0
51
0
71
0
72
100
73
1
74
3
75
0
76
1
77
0
78
0
281
0
65
1
110
0
120
0
130
0
111
1
121
0
131
0
112
0
122
1
132
0
79
0
146
0
348
10020
60
7
61
5
292
1
282
1
141
0
142
0
63
250
421
3358443
0
ENDTAB
0
TABLE
2
LTYPE
5
5
330
0
100
AcDbSymbolTable
70
4
0
LTYPE
5
14
330
5
100
AcDbSymbolTableRecord
100
AcDbLinetypeTableRecord
2
ByBlock
70
0
3

72
65
73
0
40
0
0
LTYPE
5
15
330
5
100
AcDbSymbolTableRecord
100
AcDbLinetypeTableRecord
2
ByLayer
70
0
3

72
65
73
0
40
0
0
LTYPE
5
16
330
5
100
AcDbSymbolTableRecord
100
AcDbLinetypeTableRecord
2
Continuous
70
0
3
Solid line
72
65
73
0
40
0
0
LTYPE
5
32
330
5
100
AcDbSymbolTableRecord
100
AcDbLinetypeTableRecord
2
DOT
70
0
3
Dot . . . . . . . . . . . . . . . . . . . . . .
72
65
73
2
40
6.35
49
0
74
0
49
-6.35
74
0
0
LTYPE
5
33
330
5
100
AcDbSymbolTableRecord
100
AcDbLinetypeTableRecord
2
DOT2
70
0
3
Dot (.5x) .....................................
72
65
73
2
40
3.175
49
0
74
0
49
-3.175
74
0
0
LTYPE
5
34
330
5
100
AcDbSymbolTableRecord
100
AcDbLinetypeTableRecord
2
DOTX2
70
0
3
Dot (2x) .  .  .  .  .  .  .  .  .  .  .  .  .
72
65
73
2
40
12.7
49
0
74
0
49
-12.7
74
0
0
LTYPE
5
35
330
5
100
AcDbSymbolTableRecord
100
AcDbLinetypeTableRecord
2
DASHED
70
0
3
Dot . . . . . . . . . . . . . . . . . . . . . .
72
65
73
2
40
19.05
49
12.7
74
0
49
-6.35
74
0
0
LTYPE
5
36
330
5
100
AcDbSymbolTableRecord
100
AcDbLinetypeTableRecord
2
DASHED2
70
0
3
Dashed (.5x) _ _ _ _ _ _ _ _ _ _ _ _ _ _ _ _ _
72
65
73
2
40
9.525
49
6.35
74
0
49
-3.175
74
0
0
LTYPE
5
37
330
5
100
AcDbSymbolTableRecord
100
AcDbLinetypeTableRecord
2
DASHEDX2
70
0
3
Dashed (2x) ____  ____  ____  ____  ____  ___
72
65
73
2
40
38.1
49
25.4
74
0
49
-12.7
74
0
0
LTYPE
5
38
330
5
100
AcDbSymbolTableRecord
100
AcDbLinetypeTableRecord
2
DASHDOT
70
0
3
Dash dot __ . __ . __ . __ . __ . __ . __ . __
72
65
73
4
40
25.4
49
12.7
74
0
49
-6.35
74
0
49
0
74
0
49
-6.35
74
0
0
LTYPE
5
39
330
5
100
AcDbSymbolTableRecord
100
AcDbLinetypeTableRecord
2
DASHDOT2
70
0
3
Dash dot (.5x) _._._._._._._._._._._._._._._.
72
65
73
4
40
12.7
49
6.35
74
0
49
-3.175
74
0
49
0
74
0
49
-3.175
74
0
0
LTYPE
5
3A
330
5
100
AcDbSymbolTableRecord
100
AcDbLinetypeTableRecord
2
DASHDOTX2
70
0
3
Dash dot (2x) ____  .  ____  .  ____  .  ___
72
65
73
4
40
50.8
49
25.4
74
0
49
-12.7
74
0
49
0
74
0
49
-12.7
74
0
0
LTYPE
5
3B
330
5
100
AcDbSymbolTableRecord
100
AcDbLinetypeTableRecord
2
DIVIDE
70
0
3
Divide ____ . . ____ . . ____ . . ____ . . ____
72
65
73
6
40
31.75
49
12.7
74
0
49
-6.35
74
0
49
0
74
0
49
-6.35
74
0
49
0
74
0
49
-6.35
74
0
0
LTYPE
5
3C
330
5
100
AcDbSymbolTableRecord
100
AcDbLinetypeTableRecord
2
DIVIDE2
70
0
3
Divide (.5x) __..__..__..__..__..__..__..__.._
72
65
73
6
40
15.875
49
6.35
74
0
49
-3.175
74
0
49
0
74
0
49
-3.175
74
0
49
0
74
0
49
-3.175
74
0
0
LTYPE
5
3D
330
5
100
AcDbSymbolTableRecord
100
AcDbLinetypeTableRecord
2
DIVIDEX2
70
0
3
Divide (2x) ________  .  .  ________  .  .  _
72
65
73
6
40
63.5
49
25.4
74
0
49
-12.7
74
0
49
0
74
0
49
-12.7
74
0
49
0
74
0
49
-12.7
74
0
0
LTYPE
5
3E
330
5
100
AcDbSymbolTableRecord
100
AcDbLinetypeTableRecord
2
BORDER
70
0
3
Border __ __ . __ __ . __ __ . __ __ . __ __ .
72
65
73
6
40
44.45
49
12.7
74
0
49
-6.35
74
0
49
12.7
74
0
49
-6.35
74
0
49
0
74
0
49
-6.35
74
0
0
LTYPE
5
3F
330
5
100
AcDbSymbolTableRecord
100
AcDbLinetypeTableRecord
2
BORDER2
70
0
3
Border (.5x) __.__.__.__.__.__.__.__.__.__.__.
72
65
73
6
40
22.225
49
6.35
74
0
49
-3.175
74
0
49
6.35
74
0
49
-3.175
74
0
49
0
74
0
49
-3.175
74
0
0
LTYPE
5
40
330
5
100
AcDbSymbolTableRecord
100
AcDbLinetypeTableRecord
2
BORDERX2
70
0
3
Border (2x) ____  ____  .  ____  ____  .  ___
72
65
73
6
40
88.9
49
25.4
74
0
49
-12.7
74
0
49
25.4
74
0
49
-12.7
74
0
49
0
74
0
49
-12.7
74
0
0
LTYPE
5
41
330
5
100
AcDbSymbolTableRecord
100
AcDbLinetypeTableRecord
2
CENTER
70
0
3
Center ____ _ ____ _ ____ _ ____ _ ____ _ ____
72
65
73
4
40
50.8
49
31.75
74
0
49
-6.35
74
0
49
6.35
74
0
49
-6.35
74
0
0
LTYPE
5
42
330
5
100
AcDbSymbolTableRecord
100
AcDbLinetypeTableRecord
2
CENTER2
70
0
3
Center (.5x) ___ _ ___ _ ___ _ ___ _ ___ _ ___
72
65
73
4
40
28.575
49
19.05
74
0
49
-3.175
74
0
49
3.175
74
0
49
-3.175
74
0
0
LTYPE
5
43
330
5
100
AcDbSymbolTableRecord
100
AcDbLinetypeTableRecord
2
CENTERX2
70
0
3
Center (2x) ________  __  ________  __  _____
72
65
73
4
40
101.6
49
63.5
74
0
49
-12.7
74
0
49
12.7
74
0
49
-12.7
74
0
0
ENDTAB
0
TABLE
2
LAYER
5
2
330
0
100
AcDbSymbolTable
70
1
0
LAYER
5
10
330
2
100
AcDbSymbolTableRecord
100
AcDbLayerTableRecord
2
0
70
0
62
7
6
CONTINUOUS
370
0
390
F
0
ENDTAB
0
TABLE
2
STYLE
5
3
330
0
100
AcDbSymbolTable
70
3
0
STYLE
5
44
330
2
100
AcDbSymbolTableRecord
100
AcDbTextStyleTableRecord
2
Standard
70
0
40
0
41
1
50
0
71
0
42
1
3
txt
4

0
ENDTAB
0
TABLE
2
VIEW
5
6
330
0
100
AcDbSymbolTable
70
0
0
ENDTAB
0
TABLE
2
UCS
5
7
330
0
100
AcDbSymbolTable
70
0
0
ENDTAB
0
TABLE
2
APPID
5
9
330
0
100
AcDbSymbolTable
70
1
0
APPID
5
12
330
9
100
AcDbSymbolTableRecord
100
AcDbRegAppTableRecord
2
ACAD
70
0
0
ENDTAB
0
TABLE
2
DIMSTYLE
5
A
330
0
100
AcDbSymbolTable
70
1
100
AcDbDimStyleTable
71
1
0
DIMSTYLE
105
45
330
A
100
AcDbSymbolTableRecord
100
AcDbDimStyleTableRecord
2
Standard
70
0
40
1
41
2.5
42
0.625
43
0.38
44
1.25
45
0
46
0
47
0
48
0
140
2.5
141
0.09
142
0
143
25.4
144
1
145
0
146
1
147
0.625
148
0
71
0
72
0
73
0
74
1
75
0
76
0
77
0
78
0
79
0
170
0
171
2
172
0
173
0
174
0
175
0
176
0
177
0
178
0
179
0
271
4
272
4
273
2
274
2
275
0
276
0
277
2
278
46
279
0
280
0
281
0
282
0
283
1
284
0
285
0
286
0
288
0
289
3
340
Standard
341

371
-2
372
-2
0
ENDTAB
0
TABLE
2
BLOCK_RECORD
5
1
330
0
100
AcDbSymbolTable
70
2
0
BLOCK_RECORD
5
1F
330
1
100
AcDbSymbolTableRecord
100
AcDbBlockTableRecord
2
*Model_Space
70
0
280
1
281
0
0
BLOCK_RECORD
5
1E
330
1
100
AcDbSymbolTableRecord
100
AcDbBlockTableRecord
2
*Paper_Space
70
0
280
1
281
0
0
BLOCK_RECORD
5
46
330
1
100
AcDbSymbolTableRecord
100
AcDbBlockTableRecord
2
10gear-0
70
0
280
1
281
0
0
BLOCK_RECORD
5
49
330
1
100
AcDbSymbolTableRecord
100
AcDbBlockTableRecord
2
part01-0
70
0
280
1
281
0
0
BLOCK_RECORD
5
4C
330
1
100
AcDbSymbolTableRecord
100
AcDbBlockTableRecord
2
part02-0
70
0
280
1
281
0
0
BLOCK_RECORD
5
4F
330
1
100
AcDbSymbolTableRecord
100
AcDbBlockTableRecord
2
part03-0
70
0
280
1
281
0
0
BLOCK_RECORD
5
52
330
1
100
AcDbSymbolTableRecord
100
AcDbBlockTableRecord
2
part04-0
70
0
280
1
281
0
0
BLOCK_RECORD
5
55
330
1
100
AcDbSymbolTableRecord
100
AcDbBlockTableRecord
2
part05-0
70
0
280
1
281
0
0
BLOCK_RECORD
5
58
330
1
100
AcDbSymbolTableRecord
100
AcDbBlockTableRecord
2
part06-0
70
0
280
1
281
0
0
BLOCK_RECORD
5
5B
330
1
100
AcDbSymbolTableRecord
100
AcDbBlockTableRecord
2
part07-0
70
0
280
1
281
0
0
BLOCK_RECORD
5
5E
330
1
100
AcDbSymbolTableRecord
100
AcDbBlockTableRecord
2
part08-0
70
0
280
1
281
0
0
BLOCK_RECORD
5
61
330
1
100
AcDbSymbolTableRecord
100
AcDbBlockTableRecord
2
part09-0
70
0
280
1
281
0
0
BLOCK_RECORD
5
64
330
1
100
AcDbSymbolTableRecord
100
AcDbBlockTableRecord
2
part22-0
70
0
280
1
281
0
0
ENDTAB
0
ENDSEC
0
SECTION
2
BLOCKS
0
BLOCK
5
20
330
1F
100
AcDbEntity
8
0
100
AcDbBlockBegin
2
*Model_Space
70
0
10
0
20
0
30
0
3
*Model_Space
1

0
ENDBLK
5
21
330
1F
100
AcDbEntity
8
0
100
AcDbBlockEnd
0
BLOCK
5
1C
330
1B
100
AcDbEntity
8
0
100
AcDbBlockBegin
2
*Paper_Space
70
0
10
0
20
0
30
0
3
*Paper_Space
1

0
ENDBLK
5
1D
330
1F
100
AcDbEntity
8
0
100
AcDbBlockEnd
0
BLOCK
5
47
330
46
100
AcDbEntity
8
0
100
AcDbBlockBegin
2
10gear-0
70
0
10
0
20
0
3
10gear-0
1

0
LWPOLYLINE
5
67
100
AcDbEntity
8
0
6
ByLayer
62
0
370
-1
100
AcDbPolyline
90
2
70
0
43
0
10
5.64701972225
20
1.0701302222
10
6.39773083335
20
1.2123702222
0
LWPOLYLINE
5
68
100
AcDbEntity
8
0
6
ByLayer
62
0
370
-1
100
AcDbPolyline
90
2
70
0
43
0
10
5.64701972225
20
1.0701302222
10
6.39773083335
20
1.2123702222
0
LWPOLYLINE
5
69
100
AcDbEntity
8
0
6
ByLayer
62
0
370
-1
100
AcDbPolyline
90
2
70
0
43
0
10
5.19659305555
20
2.4564057778
10
5.64701972225
20
1.0701302222
0
LWPOLYLINE
5
6A
100
AcDbEntity
8
0
6
ByLayer
62
0
370
-1
100
AcDbPolyline
90
2
70
0
43
0
10
6.39773083335
20
1.2123702222
10
7.09623083335
20
1.1254457778
0
LWPOLYLINE
5
6B
100
AcDbEntity
8
0
6
ByLayer
62
0
370
-1
100
AcDbPolyline
90
2
70
0
43
0
10
6.39773083335
20
1.2123702222
10
7.09623083335
20
1.1254457778
0
LWPOLYLINE
5
6C
100
AcDbEntity
8
0
6
ByLayer
62
0
370
-1
100
AcDbPolyline
90
2
70
0
43
0
10
-1.64482638885
20
-1.807972
10
-0.00440972225
20
-2.442972
0
LWPOLYLINE
5
6D
100
AcDbEntity
8
0
6
ByLayer
62
0
370
-1
100
AcDbPolyline
90
2
70
0
43
0
10
-0.00440972225
20
-2.442972
10
1.64482638885
20
-1.807972
0
LWPOLYLINE
5
6E
100
AcDbEntity
8
0
6
ByLayer
62
0
370
-1
100
AcDbPolyline
90
2
70
0
43
0
10
1.64482638885
20
-1.807972
10
1.64482638885
20
1.807972
0
LWPOLYLINE
5
6F
100
AcDbEntity
8
0
6
ByLayer
62
0
370
-1
100
AcDbPolyline
90
2
70
0
43
0
10
1.64482638885
20
1.807972
10
-0.00440972225
20
2.4518055555
0
LWPOLYLINE
5
70
100
AcDbEntity
8
0
6
ByLayer
62
0
370
-1
100
AcDbPolyline
90
2
70
0
43
0
10
7.09623083335
20
1.1254457778
10
8.61712638885
20
0.2940191111
0
LWPOLYLINE
5
71
100
AcDbEntity
8
0
6
ByLayer
62
0
370
-1
100
AcDbPolyline
90
2
70
0
43
0
10
6.79876861115
20
5.3043102222
10
7.14336194445
20
4.8301768889
0
LWPOLYLINE
5
72
100
AcDbEntity
8
0
6
ByLayer
62
0
370
-1
100
AcDbPolyline
90
2
70
0
43
0
10
4.46366194445
20
4.742688
10
5.07975305555
20
5.0827657778
0
LWPOLYLINE
5
73
100
AcDbEntity
8
0
6
ByLayer
62
0
370
-1
100
AcDbPolyline
90
2
70
0
43
0
10
5.64701972225
20
-1.0679853334
10
5.19659305555
20
-2.4542608889
0
LWPOLYLINE
5
74
100
AcDbEntity
8
0
6
ByLayer
62
0
370
-1
100
AcDbPolyline
90
2
70
0
43
0
10
3.93985750005
20
4.186428
10
4.46366194445
20
4.742688
0
LWPOLYLINE
5
75
100
AcDbEntity
8
0
6
ByLayer
62
0
370
-1
100
AcDbPolyline
90
2
70
0
43
0
10
2.76045083335
20
5.0432546666
10
3.93985750005
20
4.186428
0
LWPOLYLINE
5
76
100
AcDbEntity
8
0
6
ByLayer
62
0
370
-1
100
AcDbPolyline
90
2
70
0
43
0
10
2.94022638885
20
8.1079086
10
3.26083083335
20
6.4044152666
0
LWPOLYLINE
5
77
100
AcDbEntity
8
0
6
ByLayer
62
0
370
-1
100
AcDbPolyline
90
2
70
0
43
0
10
6.79876861115
20
-5.3021653334
10
5.07975305555
20
-5.0806208889
0
LWPOLYLINE
5
78
100
AcDbEntity
8
0
6
ByLayer
62
0
370
-1
100
AcDbPolyline
90
2
70
0
43
0
10
2.38283750005
20
8.2888130444
10
2.94022638885
20
8.1079086
0
LWPOLYLINE
5
79
100
AcDbEntity
8
0
6
ByLayer
62
0
370
-1
100
AcDbPolyline
90
2
70
0
43
0
10
1.12243305555
20
7.0992463778
10
2.38283750005
20
8.2888130444
0
LWPOLYLINE
5
7A
100
AcDbEntity
8
0
6
ByLayer
62
0
370
-1
100
AcDbPolyline
90
2
70
0
43
0
10
0.82384194445
20
6.4619886
10
1.12243305555
20
7.0992463778
0
LWPOLYLINE
5
7B
100
AcDbEntity
8
0
6
ByLayer
62
0
370
-1
100
AcDbPolyline
90
2
70
0
43
0
10
3.93985750005
20
-4.1842831111
10
2.76045083335
20
-5.0411097778
0
LWPOLYLINE
5
7C
100
AcDbEntity
8
0
6
ByLayer
62
0
370
-1
100
AcDbPolyline
90
2
70
0
43
0
10
-0.73063805555
20
5.7039368889
10
0.72675750005
20
5.7039368889
0
LWPOLYLINE
5
7D
100
AcDbEntity
8
0
6
ByLayer
62
0
370
-1
100
AcDbPolyline
90
2
70
0
43
0
10
-0.82772249995
20
6.4619886
10
-0.73063805555
20
5.7039368889
0
LWPOLYLINE
5
7E
100
AcDbEntity
8
0
6
ByLayer
62
0
370
-1
100
AcDbPolyline
90
2
70
0
43
0
10
2.38283750005
20
-8.2866653334
10
1.12243305555
20
-7.0970986667
0
LWPOLYLINE
5
7F
100
AcDbEntity
8
0
6
ByLayer
62
0
370
-1
100
AcDbPolyline
90
2
70
0
43
0
10
-2.94410694445
20
8.1079086
10
-2.38671805555
20
8.2888130444
0
LWPOLYLINE
5
80
100
AcDbEntity
8
0
6
ByLayer
62
0
370
-1
100
AcDbPolyline
90
2
70
0
43
0
10
1.12243305555
20
-7.0970986667
10
0.82384194445
20
-6.4598408889
0
LWPOLYLINE
5
81
100
AcDbEntity
8
0
6
ByLayer
62
0
370
-1
100
AcDbPolyline
90
2
70
0
43
0
10
-3.26471138885
20
6.4044152666
10
-2.94410694445
20
8.1079086
0
LWPOLYLINE
5
82
100
AcDbEntity
8
0
6
ByLayer
62
0
370
-1
100
AcDbPolyline
90
2
70
0
43
0
10
0.82384194445
20
-6.4598408889
10
0.72675750005
20
-5.701792
0
LWPOLYLINE
5
83
100
AcDbEntity
8
0
6
ByLayer
62
0
370
-1
100
AcDbPolyline
90
2
70
0
43
0
10
-3.13150249995
20
5.7132502222
10
-3.26471138885
20
6.4044152666
0
LWPOLYLINE
5
84
100
AcDbEntity
8
0
6
ByLayer
62
0
370
-1
100
AcDbPolyline
90
2
70
0
43
0
10
0.72675750005
20
-5.701792
10
-0.73063805555
20
-5.701792
0
LWPOLYLINE
5
85
100
AcDbEntity
8
0
6
ByLayer
62
0
370
-1
100
AcDbPolyline
90
2
70
0
43
0
10
-0.73063805555
20
-5.701792
10
-0.82772249995
20
-6.4598408889
0
LWPOLYLINE
5
86
100
AcDbEntity
8
0
6
ByLayer
62
0
370
-1
100
AcDbPolyline
90
2
70
0
43
0
10
-3.94373805555
20
4.186428
10
-2.76433138885
20
5.0432546666
0
LWPOLYLINE
5
87
100
AcDbEntity
8
0
6
ByLayer
62
0
370
-1
100
AcDbPolyline
90
2
70
0
43
0
10
-0.82772249995
20
-6.4598408889
10
-1.12631361115
20
-7.0970986667
0
LWPOLYLINE
5
88
100
AcDbEntity
8
0
6
ByLayer
62
0
370
-1
100
AcDbPolyline
90
2
70
0
43
0
10
-4.46754249995
20
4.742688
10
-3.94373805555
20
4.186428
0
LWPOLYLINE
5
89
100
AcDbEntity
8
0
6
ByLayer
62
0
370
-1
100
AcDbPolyline
90
2
70
0
43
0
10
-1.12631361115
20
-7.0970986667
10
-2.38671805555
20
-8.2866653334
0
LWPOLYLINE
5
8A
100
AcDbEntity
8
0
6
ByLayer
62
0
370
-1
100
AcDbPolyline
90
2
70
0
43
0
10
-2.38671805555
20
-8.2866653334
10
-2.94410694445
20
-8.1057608889
0
LWPOLYLINE
5
8B
100
AcDbEntity
8
0
6
ByLayer
62
0
370
-1
100
AcDbPolyline
90
2
70
0
43
0
10
-6.80264916665
20
5.3043102222
10
-5.08363361115
20
5.0827657778
0
LWPOLYLINE
5
8C
100
AcDbEntity
8
0
6
ByLayer
62
0
370
-1
100
AcDbPolyline
90
2
70
0
43
0
10
-2.94410694445
20
-8.1057608889
10
-3.26471138885
20
-6.4022675556
0
LWPOLYLINE
5
8D
100
AcDbEntity
8
0
6
ByLayer
62
0
370
-1
100
AcDbPolyline
90
2
70
0
43
0
10
-7.14724249995
20
4.8301768889
10
-6.80264916665
20
5.3043102222
0
LWPOLYLINE
5
8E
100
AcDbEntity
8
0
6
ByLayer
62
0
370
-1
100
AcDbPolyline
90
2
70
0
43
0
10
-3.26471138885
20
-6.4022675556
10
-3.13150249995
20
-5.7111053334
0
LWPOLYLINE
5
8F
100
AcDbEntity
8
0
6
ByLayer
62
0
370
-1
100
AcDbPolyline
90
2
70
0
43
0
10
-2.76433138885
20
-5.0411097778
10
-3.94373805555
20
-4.1842831111
0
LWPOLYLINE
5
90
100
AcDbEntity
8
0
6
ByLayer
62
0
370
-1
100
AcDbPolyline
90
2
70
0
43
0
10
-5.20047361115
20
2.4564057778
10
-5.89135361115
20
2.7829368889
0
LWPOLYLINE
5
91
100
AcDbEntity
8
0
6
ByLayer
62
0
370
-1
100
AcDbPolyline
90
2
70
0
43
0
10
-3.94373805555
20
-4.1842831111
10
-4.46754249995
20
-4.7405431111
0
LWPOLYLINE
5
92
100
AcDbEntity
8
0
6
ByLayer
62
0
370
-1
100
AcDbPolyline
90
2
70
0
43
0
10
-6.40161138885
20
1.2123702222
10
-5.65090027775
20
1.0701302222
0
LWPOLYLINE
5
93
100
AcDbEntity
8
0
6
ByLayer
62
0
370
-1
100
AcDbPolyline
90
2
70
0
43
0
10
-7.10011138885
20
1.1254457778
10
-6.40161138885
20
1.2123702222
0
LWPOLYLINE
5
94
100
AcDbEntity
8
0
6
ByLayer
62
0
370
-1
100
AcDbPolyline
90
2
70
0
43
0
10
-6.80264916665
20
-5.3021653334
10
-7.14724249995
20
-4.828032
0
LWPOLYLINE
5
95
100
AcDbEntity
8
0
6
ByLayer
62
0
370
-1
100
AcDbPolyline
90
2
70
0
43
0
10
-8.62100694445
20
0.2940191111
10
-7.10011138885
20
1.1254457778
0
LWPOLYLINE
5
96
100
AcDbEntity
8
0
6
ByLayer
62
0
370
-1
100
AcDbPolyline
90
2
70
0
43
0
10
-5.89135361115
20
-2.780792
10
-5.20047361115
20
-2.4542608889
0
LWPOLYLINE
5
97
100
AcDbEntity
8
0
6
ByLayer
62
0
370
-1
100
AcDbPolyline
90
2
70
0
43
0
10
-6.40161138885
20
-1.2102253334
10
-7.10011138885
20
-1.1233008889
0
LWPOLYLINE
5
98
100
AcDbEntity
8
0
6
ByLayer
62
0
370
-1
100
AcDbPolyline
90
2
70
0
43
0
10
-5.20047361115
20
-2.4542608889
10
-5.65090027775
20
-1.0679853334
0
LWPOLYLINE
5
99
100
AcDbEntity
8
0
6
ByLayer
62
0
370
-1
100
AcDbPolyline
90
2
70
0
43
0
10
-0.00440972225
20
2.4518055555
10
-1.64482638885
20
1.807972
0
LWPOLYLINE
5
9A
100
AcDbEntity
8
0
6
ByLayer
62
0
370
-1
100
AcDbPolyline
90
2
70
0
43
0
10
-1.64482638885
20
1.807972
10
-1.64482638885
20
-1.807972
0
LWPOLYLINE
5
9B
100
AcDbEntity
8
0
6
ByLayer
62
0
370
-1
100
AcDbPolyline
90
2
70
0
43
0
10
-1.64482638885
20
-1.807972
10
-0.00440972225
20
-2.442972
0
LWPOLYLINE
5
9C
100
AcDbEntity
8
0
6
ByLayer
62
0
370
-1
100
AcDbPolyline
90
2
70
0
43
0
10
-0.00440972225
20
-2.442972
10
1.64482638885
20
-1.807972
0
LWPOLYLINE
5
9D
100
AcDbEntity
8
0
6
ByLayer
62
0
370
-1
100
AcDbPolyline
90
2
70
0
43
0
10
1.64482638885
20
-1.807972
10
1.64482638885
20
1.807972
0
LWPOLYLINE
5
9E
100
AcDbEntity
8
0
6
ByLayer
62
0
370
-1
100
AcDbPolyline
90
2
70
0
43
0
10
1.64482638885
20
1.807972
10
-0.00440972225
20
2.4518055555
0
LWPOLYLINE
5
9F
100
AcDbEntity
8
0
6
ByLayer
62
0
370
-1
100
AcDbPolyline
90
2
70
0
43
0
10
5.88747305555
20
2.7829368889
10
5.19659305555
20
2.4564057778
0
LWPOLYLINE
5
A0
100
AcDbEntity
8
0
6
ByLayer
62
0
370
-1
100
AcDbPolyline
90
2
70
0
43
0
10
7.09623083335
20
1.1254457778
10
8.61712638885
20
0.2940191111
0
LWPOLYLINE
5
A1
100
AcDbEntity
8
0
6
ByLayer
62
0
370
-1
100
AcDbPolyline
90
2
70
0
43
0
10
6.40139972225
20
3.2638435555
10
5.88747305555
20
2.7829368889
0
LWPOLYLINE
5
A2
100
AcDbEntity
8
0
6
ByLayer
62
0
370
-1
100
AcDbPolyline
90
2
70
0
43
0
10
8.61712638885
20
0.2940191111
10
8.61712638885
20
-0.2918742222
0
LWPOLYLINE
5
A3
100
AcDbEntity
8
0
6
ByLayer
62
0
370
-1
100
AcDbPolyline
90
2
70
0
43
0
10
7.14336194445
20
4.8301768889
10
6.40139972225
20
3.2638435555
0
LWPOLYLINE
5
A4
100
AcDbEntity
8
0
6
ByLayer
62
0
370
-1
100
AcDbPolyline
90
2
70
0
43
0
10
8.61712638885
20
-0.2918742222
10
7.09623083335
20
-1.1233008889
0
LWPOLYLINE
5
A5
100
AcDbEntity
8
0
6
ByLayer
62
0
370
-1
100
AcDbPolyline
90
2
70
0
43
0
10
6.79876861115
20
5.3043102222
10
7.14336194445
20
4.8301768889
0
LWPOLYLINE
5
A6
100
AcDbEntity
8
0
6
ByLayer
62
0
370
-1
100
AcDbPolyline
90
2
70
0
43
0
10
7.09623083335
20
-1.1233008889
10
6.39773083335
20
-1.2102253334
0
LWPOLYLINE
5
A7
100
AcDbEntity
8
0
6
ByLayer
62
0
370
-1
100
AcDbPolyline
90
2
70
0
43
0
10
5.07975305555
20
5.0827657778
10
6.79876861115
20
5.3043102222
0
LWPOLYLINE
5
A8
100
AcDbEntity
8
0
6
ByLayer
62
0
370
-1
100
AcDbPolyline
90
2
70
0
43
0
10
6.39773083335
20
-1.2102253334
10
5.64701972225
20
-1.0679853334
0
LWPOLYLINE
5
A9
100
AcDbEntity
8
0
6
ByLayer
62
0
370
-1
100
AcDbPolyline
90
2
70
0
43
0
10
4.46366194445
20
4.742688
10
5.07975305555
20
5.0827657778
0
LWPOLYLINE
5
AA
100
AcDbEntity
8
0
6
ByLayer
62
0
370
-1
100
AcDbPolyline
90
2
70
0
43
0
10
5.64701972225
20
-1.0679853334
10
5.19659305555
20
-2.4542608889
0
LWPOLYLINE
5
AB
100
AcDbEntity
8
0
6
ByLayer
62
0
370
-1
100
AcDbPolyline
90
2
70
0
43
0
10
3.93985750005
20
4.186428
10
4.46366194445
20
4.742688
0
LWPOLYLINE
5
AC
100
AcDbEntity
8
0
6
ByLayer
62
0
370
-1
100
AcDbPolyline
90
2
70
0
43
0
10
5.19659305555
20
-2.4542608889
10
5.88747305555
20
-2.780792
0
LWPOLYLINE
5
AD
100
AcDbEntity
8
0
6
ByLayer
62
0
370
-1
100
AcDbPolyline
90
2
70
0
43
0
10
2.76045083335
20
5.0432546666
10
3.93985750005
20
4.186428
0
LWPOLYLINE
5
AE
100
AcDbEntity
8
0
6
ByLayer
62
0
370
-1
100
AcDbPolyline
90
2
70
0
43
0
10
5.88747305555
20
-2.780792
10
6.40139972225
20
-3.2616986667
0
LWPOLYLINE
5
AF
100
AcDbEntity
8
0
6
ByLayer
62
0
370
-1
100
AcDbPolyline
90
2
70
0
43
0
10
3.12762194445
20
5.7132502222
10
2.76045083335
20
5.0432546666
0
LWPOLYLINE
5
B0
100
AcDbEntity
8
0
6
ByLayer
62
0
370
-1
100
AcDbPolyline
90
2
70
0
43
0
10
6.40139972225
20
-3.2616986667
10
7.14336194445
20
-4.828032
0
LWPOLYLINE
5
B1
100
AcDbEntity
8
0
6
ByLayer
62
0
370
-1
100
AcDbPolyline
90
2
70
0
43
0
10
3.26083083335
20
6.4044152666
10
3.12762194445
20
5.7132502222
0
LWPOLYLINE
5
B2
100
AcDbEntity
8
0
6
ByLayer
62
0
370
-1
100
AcDbPolyline
90
2
70
0
43
0
10
7.14336194445
20
-4.828032
10
6.79876861115
20
-5.3021653334
0
LWPOLYLINE
5
B3
100
AcDbEntity
8
0
6
ByLayer
62
0
370
-1
100
AcDbPolyline
90
2
70
0
43
0
10
2.94022638885
20
8.1079086
10
3.26083083335
20
6.4044152666
0
LWPOLYLINE
5
B4
100
AcDbEntity
8
0
6
ByLayer
62
0
370
-1
100
AcDbPolyline
90
2
70
0
43
0
10
6.79876861115
20
-5.3021653334
10
5.07975305555
20
-5.0806208889
0
LWPOLYLINE
5
B5
100
AcDbEntity
8
0
6
ByLayer
62
0
370
-1
100
AcDbPolyline
90
2
70
0
43
0
10
2.38283750005
20
8.2888130444
10
2.94022638885
20
8.1079086
0
LWPOLYLINE
5
B6
100
AcDbEntity
8
0
6
ByLayer
62
0
370
-1
100
AcDbPolyline
90
2
70
0
43
0
10
5.07975305555
20
-5.0806208889
10
4.46366194445
20
-4.7405431111
0
LWPOLYLINE
5
B7
100
AcDbEntity
8
0
6
ByLayer
62
0
370
-1
100
AcDbPolyline
90
2
70
0
43
0
10
1.12243305555
20
7.0992463778
10
2.38283750005
20
8.2888130444
0
LWPOLYLINE
5
B8
100
AcDbEntity
8
0
6
ByLayer
62
0
370
-1
100
AcDbPolyline
90
2
70
0
43
0
10
4.46366194445
20
-4.7405431111
10
3.93985750005
20
-4.1842831111
0
LWPOLYLINE
5
B9
100
AcDbEntity
8
0
6
ByLayer
62
0
370
-1
100
AcDbPolyline
90
2
70
0
43
0
10
0.82384194445
20
6.4619886
10
1.12243305555
20
7.0992463778
0
LWPOLYLINE
5
BA
100
AcDbEntity
8
0
6
ByLayer
62
0
370
-1
100
AcDbPolyline
90
2
70
0
43
0
10
3.93985750005
20
-4.1842831111
10
2.76045083335
20
-5.0411097778
0
LWPOLYLINE
5
BB
100
AcDbEntity
8
0
6
ByLayer
62
0
370
-1
100
AcDbPolyline
90
2
70
0
43
0
10
0.72675750005
20
5.7039368889
10
0.82384194445
20
6.4619886
0
LWPOLYLINE
5
BC
100
AcDbEntity
8
0
6
ByLayer
62
0
370
-1
100
AcDbPolyline
90
2
70
0
43
0
10
2.76045083335
20
-5.0411097778
10
3.12762194445
20
-5.7111053334
0
LWPOLYLINE
5
BD
100
AcDbEntity
8
0
6
ByLayer
62
0
370
-1
100
AcDbPolyline
90
2
70
0
43
0
10
-0.73063805555
20
5.7039368889
10
0.72675750005
20
5.7039368889
0
LWPOLYLINE
5
BE
100
AcDbEntity
8
0
6
ByLayer
62
0
370
-1
100
AcDbPolyline
90
2
70
0
43
0
10
3.12762194445
20
-5.7111053334
10
3.26083083335
20
-6.4022675556
0
LWPOLYLINE
5
BF
100
AcDbEntity
8
0
6
ByLayer
62
0
370
-1
100
AcDbPolyline
90
2
70
0
43
0
10
-0.82772249995
20
6.4619886
10
-0.73063805555
20
5.7039368889
0
LWPOLYLINE
5
C0
100
AcDbEntity
8
0
6
ByLayer
62
0
370
-1
100
AcDbPolyline
90
2
70
0
43
0
10
3.26083083335
20
-6.4022675556
10
2.94022638885
20
-8.1057608889
0
LWPOLYLINE
5
C1
100
AcDbEntity
8
0
6
ByLayer
62
0
370
-1
100
AcDbPolyline
90
2
70
0
43
0
10
-1.12631361115
20
7.0992463778
10
-0.82772249995
20
6.4619886
0
LWPOLYLINE
5
C2
100
AcDbEntity
8
0
6
ByLayer
62
0
370
-1
100
AcDbPolyline
90
2
70
0
43
0
10
2.94022638885
20
-8.1057608889
10
2.38283750005
20
-8.2866653334
0
LWPOLYLINE
5
C3
100
AcDbEntity
8
0
6
ByLayer
62
0
370
-1
100
AcDbPolyline
90
2
70
0
43
0
10
-2.38671805555
20
8.2888130444
10
-1.12631361115
20
7.0992463778
0
LWPOLYLINE
5
C4
100
AcDbEntity
8
0
6
ByLayer
62
0
370
-1
100
AcDbPolyline
90
2
70
0
43
0
10
2.38283750005
20
-8.2866653334
10
1.12243305555
20
-7.0970986667
0
LWPOLYLINE
5
C5
100
AcDbEntity
8
0
6
ByLayer
62
0
370
-1
100
AcDbPolyline
90
2
70
0
43
0
10
-2.94410694445
20
8.1079086
10
-2.38671805555
20
8.2888130444
0
LWPOLYLINE
5
C6
100
AcDbEntity
8
0
6
ByLayer
62
0
370
-1
100
AcDbPolyline
90
2
70
0
43
0
10
1.12243305555
20
-7.0970986667
10
0.82384194445
20
-6.4598408889
0
LWPOLYLINE
5
C7
100
AcDbEntity
8
0
6
ByLayer
62
0
370
-1
100
AcDbPolyline
90
2
70
0
43
0
10
-3.26471138885
20
6.4044152666
10
-2.94410694445
20
8.1079086
0
LWPOLYLINE
5
C8
100
AcDbEntity
8
0
6
ByLayer
62
0
370
-1
100
AcDbPolyline
90
2
70
0
43
0
10
0.82384194445
20
-6.4598408889
10
0.72675750005
20
-5.701792
0
LWPOLYLINE
5
C9
100
AcDbEntity
8
0
6
ByLayer
62
0
370
-1
100
AcDbPolyline
90
2
70
0
43
0
10
-3.13150249995
20
5.7132502222
10
-3.26471138885
20
6.4044152666
0
LWPOLYLINE
5
CA
100
AcDbEntity
8
0
6
ByLayer
62
0
370
-1
100
AcDbPolyline
90
2
70
0
43
0
10
0.72675750005
20
-5.701792
10
-0.73063805555
20
-5.701792
0
LWPOLYLINE
5
CB
100
AcDbEntity
8
0
6
ByLayer
62
0
370
-1
100
AcDbPolyline
90
2
70
0
43
0
10
-2.76433138885
20
5.0432546666
10
-3.13150249995
20
5.7132502222
0
LWPOLYLINE
5
CC
100
AcDbEntity
8
0
6
ByLayer
62
0
370
-1
100
AcDbPolyline
90
2
70
0
43
0
10
-0.73063805555
20
-5.701792
10
-0.82772249995
20
-6.4598408889
0
LWPOLYLINE
5
CD
100
AcDbEntity
8
0
6
ByLayer
62
0
370
-1
100
AcDbPolyline
90
2
70
0
43
0
10
-3.94373805555
20
4.186428
10
-2.76433138885
20
5.0432546666
0
LWPOLYLINE
5
CE
100
AcDbEntity
8
0
6
ByLayer
62
0
370
-1
100
AcDbPolyline
90
2
70
0
43
0
10
-0.82772249995
20
-6.4598408889
10
-1.12631361115
20
-7.0970986667
0
LWPOLYLINE
5
CF
100
AcDbEntity
8
0
6
ByLayer
62
0
370
-1
100
AcDbPolyline
90
2
70
0
43
0
10
-4.46754249995
20
4.742688
10
-3.94373805555
20
4.186428
0
LWPOLYLINE
5
D0
100
AcDbEntity
8
0
6
ByLayer
62
0
370
-1
100
AcDbPolyline
90
2
70
0
43
0
10
-1.12631361115
20
-7.0970986667
10
-2.38671805555
20
-8.2866653334
0
LWPOLYLINE
5
D1
100
AcDbEntity
8
0
6
ByLayer
62
0
370
-1
100
AcDbPolyline
90
2
70
0
43
0
10
-5.08363361115
20
5.0827657778
10
-4.46754249995
20
4.742688
0
LWPOLYLINE
5
D2
100
AcDbEntity
8
0
6
ByLayer
62
0
370
-1
100
AcDbPolyline
90
2
70
0
43
0
10
-2.38671805555
20
-8.2866653334
10
-2.94410694445
20
-8.1057608889
0
LWPOLYLINE
5
D3
100
AcDbEntity
8
0
6
ByLayer
62
0
370
-1
100
AcDbPolyline
90
2
70
0
43
0
10
-6.80264916665
20
5.3043102222
10
-5.08363361115
20
5.0827657778
0
LWPOLYLINE
5
D4
100
AcDbEntity
8
0
6
ByLayer
62
0
370
-1
100
AcDbPolyline
90
2
70
0
43
0
10
-2.94410694445
20
-8.1057608889
10
-3.26471138885
20
-6.4022675556
0
LWPOLYLINE
5
D5
100
AcDbEntity
8
0
6
ByLayer
62
0
370
-1
100
AcDbPolyline
90
2
70
0
43
0
10
-7.14724249995
20
4.8301768889
10
-6.80264916665
20
5.3043102222
0
LWPOLYLINE
5
D6
100
AcDbEntity
8
0
6
ByLayer
62
0
370
-1
100
AcDbPolyline
90
2
70
0
43
0
10
-3.26471138885
20
-6.4022675556
10
-3.13150249995
20
-5.7111053334
0
LWPOLYLINE
5
D7
100
AcDbEntity
8
0
6
ByLayer
62
0
370
-1
100
AcDbPolyline
90
2
70
0
43
0
10
-6.40528027775
20
3.2638435555
10
-7.14724249995
20
4.8301768889
0
LWPOLYLINE
5
D8
100
AcDbEntity
8
0
6
ByLayer
62
0
370
-1
100
AcDbPolyline
90
2
70
0
43
0
10
-3.13150249995
20
-5.7111053334
10
-2.76433138885
20
-5.0411097778
0
LWPOLYLINE
5
D9
100
AcDbEntity
8
0
6
ByLayer
62
0
370
-1
100
AcDbPolyline
90
2
70
0
43
0
10
-5.89135361115
20
2.7829368889
10
-6.40528027775
20
3.2638435555
0
LWPOLYLINE
5
DA
100
AcDbEntity
8
0
6
ByLayer
62
0
370
-1
100
AcDbPolyline
90
2
70
0
43
0
10
-2.76433138885
20
-5.0411097778
10
-3.94373805555
20
-4.1842831111
0
LWPOLYLINE
5
DB
100
AcDbEntity
8
0
6
ByLayer
62
0
370
-1
100
AcDbPolyline
90
2
70
0
43
0
10
-5.20047361115
20
2.4564057778
10
-5.89135361115
20
2.7829368889
0
LWPOLYLINE
5
DC
100
AcDbEntity
8
0
6
ByLayer
62
0
370
-1
100
AcDbPolyline
90
2
70
0
43
0
10
-3.94373805555
20
-4.1842831111
10
-4.46754249995
20
-4.7405431111
0
LWPOLYLINE
5
DD
100
AcDbEntity
8
0
6
ByLayer
62
0
370
-1
100
AcDbPolyline
90
2
70
0
43
0
10
-5.65090027775
20
1.0701302222
10
-5.20047361115
20
2.4564057778
0
LWPOLYLINE
5
DE
100
AcDbEntity
8
0
6
ByLayer
62
0
370
-1
100
AcDbPolyline
90
2
70
0
43
0
10
-4.46754249995
20
-4.7405431111
10
-5.08363361115
20
-5.0806208889
0
LWPOLYLINE
5
DF
100
AcDbEntity
8
0
6
ByLayer
62
0
370
-1
100
AcDbPolyline
90
2
70
0
43
0
10
-6.40161138885
20
1.2123702222
10
-5.65090027775
20
1.0701302222
0
LWPOLYLINE
5
E0
100
AcDbEntity
8
0
6
ByLayer
62
0
370
-1
100
AcDbPolyline
90
2
70
0
43
0
10
-5.08363361115
20
-5.0806208889
10
-6.80264916665
20
-5.3021653334
0
LWPOLYLINE
5
E1
100
AcDbEntity
8
0
6
ByLayer
62
0
370
-1
100
AcDbPolyline
90
2
70
0
43
0
10
-7.10011138885
20
1.1254457778
10
-6.40161138885
20
1.2123702222
0
LWPOLYLINE
5
E2
100
AcDbEntity
8
0
6
ByLayer
62
0
370
-1
100
AcDbPolyline
90
2
70
0
43
0
10
-6.80264916665
20
-5.3021653334
10
-7.14724249995
20
-4.828032
0
LWPOLYLINE
5
E3
100
AcDbEntity
8
0
6
ByLayer
62
0
370
-1
100
AcDbPolyline
90
2
70
0
43
0
10
-8.62100694445
20
0.2940191111
10
-7.10011138885
20
1.1254457778
0
LWPOLYLINE
5
E4
100
AcDbEntity
8
0
6
ByLayer
62
0
370
-1
100
AcDbPolyline
90
2
70
0
43
0
10
-7.14724249995
20
-4.828032
10
-6.40528027775
20
-3.2616986667
0
LWPOLYLINE
5
E5
100
AcDbEntity
8
0
6
ByLayer
62
0
370
-1
100
AcDbPolyline
90
2
70
0
43
0
10
-8.62100694445
20
-0.2918742222
10
-8.62100694445
20
0.2940191111
0
LWPOLYLINE
5
E6
100
AcDbEntity
8
0
6
ByLayer
62
0
370
-1
100
AcDbPolyline
90
2
70
0
43
0
10
-6.40528027775
20
-3.2616986667
10
-5.89135361115
20
-2.780792
0
LWPOLYLINE
5
E7
100
AcDbEntity
8
0
6
ByLayer
62
0
370
-1
100
AcDbPolyline
90
2
70
0
43
0
10
-7.10011138885
20
-1.1233008889
10
-8.62100694445
20
-0.2918742222
0
LWPOLYLINE
5
E8
100
AcDbEntity
8
0
6
ByLayer
62
0
370
-1
100
AcDbPolyline
90
2
70
0
43
0
10
-5.89135361115
20
-2.780792
10
-5.20047361115
20
-2.4542608889
0
LWPOLYLINE
5
E9
100
AcDbEntity
8
0
6
ByLayer
62
0
370
-1
100
AcDbPolyline
90
2
70
0
43
0
10
-6.40161138885
20
-1.2102253334
10
-7.10011138885
20
-1.1233008889
0
LWPOLYLINE
5
EA
100
AcDbEntity
8
0
6
ByLayer
62
0
370
-1
100
AcDbPolyline
90
2
70
0
43
0
10
-5.20047361115
20
-2.4542608889
10
-5.65090027775
20
-1.0679853334
0
LWPOLYLINE
5
EB
100
AcDbEntity
8
0
6
ByLayer
62
0
370
-1
100
AcDbPolyline
90
2
70
0
43
0
10
-5.65090027775
20
-1.0679853334
10
-6.40161138885
20
-1.2102253334
0
ENDBLK
5
48
330
46
100
AcDbEntity
8
0
100
AcDbBlockEnd
0
BLOCK
5
4A
330
49
100
AcDbEntity
8
0
100
AcDbBlockBegin
2
part01-0
70
0
10
0
20
0
3
part01-0
1

0
LINE
5
EC
100
AcDbEntity
8
0
6
ByLayer
62
0
370
-1
100
AcDbLine
10
15
20
0
11
8
21
0
0
LINE
5
ED
100
AcDbEntity
8
0
6
ByLayer
62
0
370
-1
100
AcDbLine
10
15
20
17
11
15
21
0
0
LINE
5
EE
100
AcDbEntity
8
0
6
ByLayer
62
0
370
-1
100
AcDbLine
10
8
20
0
11
8
21
12
0
LINE
5
EF
100
AcDbEntity
8
0
6
ByLayer
62
0
370
-1
100
AcDbLine
10
8
20
12
11
7
21
12
0
LINE
5
F0
100
AcDbEntity
8
0
6
ByLayer
62
0
370
-1
100
AcDbLine
10
7
20
12
11
7
21
0
0
LINE
5
F1
100
AcDbEntity
8
0
6
ByLayer
62
0
370
-1
100
AcDbLine
10
7
20
0
11
0
21
0
0
LINE
5
F2
100
AcDbEntity
8
0
6
ByLayer
62
0
370
-1
100
AcDbLine
10
0
20
0
11
0
21
17
0
CIRCLE
5
F3
100
AcDbEntity
8
0
6
ByLayer
62
0
370
-1
100
AcDbCircle
10
7.5
20
17
40
4
0
ARC
5
F4
100
AcDbEntity
8
0
6
ByLayer
62
0
370
-1
100
AcDbCircle
10
7.5
20
17
40
7.5
100
AcDbArc
50
360
51
179.999999999
0
ENDBLK
5
4B
330
49
100
AcDbEntity
8
0
100
AcDbBlockEnd
0
BLOCK
5
4D
330
4C
100
AcDbEntity
8
0
100
AcDbBlockBegin
2
part02-0
70
0
10
0
20
0
3
part02-0
1

0
LINE
5
F5
100
AcDbEntity
8
0
6
ByLayer
62
0
370
-1
100
AcDbLine
10
20
20
0
11
0
21
0
0
LINE
5
F6
100
AcDbEntity
8
0
6
ByLayer
62
0
370
-1
100
AcDbLine
10
20
20
75
11
20
21
0
0
LINE
5
F7
100
AcDbEntity
8
0
6
ByLayer
62
0
370
-1
100
AcDbLine
10
0
20
0
11
4.59227382683e-015
21
75
0
ARC
5
F8
100
AcDbEntity
8
0
6
ByLayer
62
0
370
-1
100
AcDbCircle
10
38.124322211
20
75.00004704
40
38.1243222113
100
AcDbArc
50
119.999974285
51
180.000070694
0
LINE
5
F9
100
AcDbEntity
8
0
6
ByLayer
62
0
370
-1
100
AcDbLine
10
19.062175924
20
108.016687132
11
49.373078045
21
125.516677103
0
LINE
5
FA
100
AcDbEntity
8
0
6
ByLayer
62
0
370
-1
100
AcDbLine
10
49.373078045
20
125.516677103
11
59.373064873
21
108.196161422
0
LINE
5
FB
100
AcDbEntity
8
0
6
ByLayer
62
0
370
-1
100
AcDbLine
10
59.373064873
20
108.196161422
11
29.06216815
21
90.696174568
0
LINE
5
FC
100
AcDbEntity
8
0
6
ByLayer
62
0
370
-1
100
AcDbLine
10
29.06216815
20
90.696174568
11
32.062179397
21
85.499997279
0
ARC
5
FD
100
AcDbEntity
8
0
6
ByLayer
62
0
370
-1
100
AcDbCircle
10
26
20
82
40
7
100
AcDbArc
50
270
51
29.9999742855
0
LINE
5
FE
100
AcDbEntity
8
0
6
ByLayer
62
0
370
-1
100
AcDbLine
10
20
20
75
11
26
21
75
0
CIRCLE
5
FF
100
AcDbEntity
8
0
6
ByLayer
62
0
370
-1
100
AcDbCircle
10
10
20
57
40
4
0
CIRCLE
5
100
100
AcDbEntity
8
0
6
ByLayer
62
0
370
-1
100
AcDbCircle
10
26
20
82
40
4
0
ENDBLK
5
4E
330
4C
100
AcDbEntity
8
0
100
AcDbBlockEnd
0
BLOCK
5
50
330
4F
100
AcDbEntity
8
0
100
AcDbBlockBegin
2
part03-0
70
0
10
0
20
0
3
part03-0
1

0
LINE
5
101
100
AcDbEntity
8
0
6
ByLayer
62
0
370
-1
100
AcDbLine
10
20.179497702
20
47.990378487
11
37.500006802
21
37.9903802605
0
LINE
5
102
100
AcDbEntity
8
0
6
ByLayer
62
0
370
-1
100
AcDbLine
10
2.679494168
20
17.6794989418
11
20.179497702
21
47.990378487
0
LINE
5
103
100
AcDbEntity
8
0
6
ByLayer
62
0
370
-1
100
AcDbLine
10
37.500006802
20
37.9903802605
11
20
21
7.67949505508
0
LINE
5
104
100
AcDbEntity
8
0
6
ByLayer
62
0
370
-1
100
AcDbLine
10
20
20
7.67949505508
11
20
21
-7.67949505508
0
LINE
5
105
100
AcDbEntity
8
0
6
ByLayer
62
0
370
-1
100
AcDbLine
10
20
20
-7.67949505508
11
37.500006802
21
-37.9903802605
0
LINE
5
106
100
AcDbEntity
8
0
6
ByLayer
62
0
370
-1
100
AcDbLine
10
37.500006802
20
-37.9903802605
11
20.179497702
21
-47.990378487
0
LINE
5
107
100
AcDbEntity
8
0
6
ByLayer
62
0
370
-1
100
AcDbLine
10
20.179497702
20
-47.990378487
11
2.679494168
21
-17.6794989418
0
ARC
5
108
100
AcDbEntity
8
0
6
ByLayer
62
0
370
-1
100
AcDbCircle
10
20
20
-7.67949505508
40
20
100
AcDbArc
50
180
51
-149.999987143
0
LINE
5
109
100
AcDbEntity
8
0
6
ByLayer
62
0
370
-1
100
AcDbLine
10
0
20
7.67949505508
11
0
21
-7.67949505508
0
ARC
5
10A
100
AcDbEntity
8
0
6
ByLayer
62
0
370
-1
100
AcDbCircle
10
20
20
7.67949505508
40
20
100
AcDbArc
50
149.999987143
51
180
0
CIRCLE
5
10B
100
AcDbEntity
8
0
6
ByLayer
62
0
370
-1
100
AcDbCircle
10
21.339749337
20
-30
40
4
0
CIRCLE
5
10C
100
AcDbEntity
8
0
6
ByLayer
62
0
370
-1
100
AcDbCircle
10
21.339749337
20
30
40
4
0
ENDBLK
5
51
330
4F
100
AcDbEntity
8
0
100
AcDbBlockEnd
0
BLOCK
5
53
330
52
100
AcDbEntity
8
0
100
AcDbBlockBegin
2
part04-0
70
0
10
0
20
0
3
part04-0
1

0
LINE
5
10D
100
AcDbEntity
8
0
6
ByLayer
62
0
370
-1
100
AcDbLine
10
-38
20
28.1117891098
11
-38
21
-27.8882108902
0
LINE
5
10E
100
AcDbEntity
8
0
6
ByLayer
62
0
370
-1
100
AcDbLine
10
-38
20
28.1117891098
11
-4
21
28.1117891098
0
LINE
5
10F
100
AcDbEntity
8
0
6
ByLayer
62
0
370
-1
100
AcDbLine
10
-38
20
-27.8882108902
11
38
21
-27.8882108902
0
LINE
5
110
100
AcDbEntity
8
0
6
ByLayer
62
0
370
-1
100
AcDbLine
10
38
20
-27.8882108902
11
38
21
28.1117891098
0
LINE
5
111
100
AcDbEntity
8
0
6
ByLayer
62
0
370
-1
100
AcDbLine
10
38
20
28.1117891098
11
4
21
28.1117891098
0
ARC
5
112
100
AcDbEntity
8
0
6
ByLayer
62
0
370
-1
100
AcDbCircle
10
2.84217094304e-014
20
28.1117891098
40
4
100
AcDbArc
50
180
51
360
0
CIRCLE
5
113
100
AcDbEntity
8
0
6
ByLayer
62
0
370
-1
100
AcDbCircle
10
0
20
0.111789109787
40
11
0
CIRCLE
5
114
100
AcDbEntity
8
0
6
ByLayer
62
0
370
-1
100
AcDbCircle
10
15.5
20
-15.3882108902
40
1.5
0
CIRCLE
5
115
100
AcDbEntity
8
0
6
ByLayer
62
0
370
-1
100
AcDbCircle
10
15.5
20
15.6117891098
40
1.5
0
CIRCLE
5
116
100
AcDbEntity
8
0
6
ByLayer
62
0
370
-1
100
AcDbCircle
10
-15.5
20
15.6117891098
40
1.5
0
CIRCLE
5
117
100
AcDbEntity
8
0
6
ByLayer
62
0
370
-1
100
AcDbCircle
10
-15.5
20
-15.3882108902
40
1.5
0
ENDBLK
5
54
330
52
100
AcDbEntity
8
0
100
AcDbBlockEnd
0
BLOCK
5
56
330
55
100
AcDbEntity
8
0
100
AcDbBlockBegin
2
part05-0
70
0
10
0
20
0
3
part05-0
1

0
LINE
5
118
100
AcDbEntity
8
0
6
ByLayer
62
0
370
-1
100
AcDbLine
10
-38
20
-28
11
-38
21
28
0
LINE
5
119
100
AcDbEntity
8
0
6
ByLayer
62
0
370
-1
100
AcDbLine
10
38
20
-28
11
-38
21
-28
0
LINE
5
11A
100
AcDbEntity
8
0
6
ByLayer
62
0
370
-1
100
AcDbLine
10
-38
20
28
11
-4
21
28
0
ARC
5
11B
100
AcDbEntity
8
0
6
ByLayer
62
0
370
-1
100
AcDbCircle
10
0
20
28
40
4
100
AcDbArc
50
180
51
0
0
LINE
5
11C
100
AcDbEntity
8
0
6
ByLayer
62
0
370
-1
100
AcDbLine
10
38
20
28
11
4
21
28
0
LINE
5
11D
100
AcDbEntity
8
0
6
ByLayer
62
0
370
-1
100
AcDbLine
10
38
20
28
11
38
21
-28
0
CIRCLE
5
11E
100
AcDbEntity
8
0
6
ByLayer
62
0
370
-1
100
AcDbCircle
10
0
20
0
40
9
0
CIRCLE
5
11F
100
AcDbEntity
8
0
6
ByLayer
62
256
370
-1
100
AcDbCircle
10
14
20
0
40
2
0
CIRCLE
5
120
100
AcDbEntity
8
0
6
ByLayer
62
256
370
-1
100
AcDbCircle
10
0
20
14
40
2
0
CIRCLE
5
121
100
AcDbEntity
8
0
6
ByLayer
62
256
370
-1
100
AcDbCircle
10
-14
20
0
40
2
0
CIRCLE
5
122
100
AcDbEntity
8
0
6
ByLayer
62
256
370
-1
100
AcDbCircle
10
0
20
-14
40
2
0
ENDBLK
5
57
330
55
100
AcDbEntity
8
0
100
AcDbBlockEnd
0
BLOCK
5
59
330
58
100
AcDbEntity
8
0
100
AcDbBlockBegin
2
part06-0
70
0
10
0
20
0
3
part06-0
1

0
LINE
5
123
100
AcDbEntity
8
0
6
ByLayer
62
0
370
-1
100
AcDbLine
10
15
20
0
11
15
21
-10
0
LINE
5
124
100
AcDbEntity
8
0
6
ByLayer
62
0
370
-1
100
AcDbLine
10
-15
20
0
11
15
21
0
0
LINE
5
125
100
AcDbEntity
8
0
6
ByLayer
62
0
370
-1
100
AcDbLine
10
15
20
-10
11
4
21
-10
0
ARC
5
126
100
AcDbEntity
8
0
6
ByLayer
62
0
370
-1
100
AcDbCircle
10
0
20
-10
40
4
100
AcDbArc
50
360
51
180
0
LINE
5
127
100
AcDbEntity
8
0
6
ByLayer
62
0
370
-1
100
AcDbLine
10
-15
20
-10
11
-4
21
-10
0
LINE
5
128
100
AcDbEntity
8
0
6
ByLayer
62
0
370
-1
100
AcDbLine
10
-15
20
-10
11
-15
21
0
0
ENDBLK
5
5A
330
58
100
AcDbEntity
8
0
100
AcDbBlockEnd
0
BLOCK
5
5C
330
5B
100
AcDbEntity
8
0
100
AcDbBlockBegin
2
part07-0
70
0
10
0
20
0
3
part07-0
1

0
LINE
5
129
100
AcDbEntity
8
0
6
ByLayer
62
0
370
-1
100
AcDbLine
10
25
20
-21
11
-25
21
-21
0
LINE
5
12A
100
AcDbEntity
8
0
6
ByLayer
62
0
370
-1
100
AcDbLine
10
25
20
12.5
11
25
21
-21
0
LWPOLYLINE
5
12B
100
AcDbEntity
8
0
6
ByLayer
62
0
370
-1
100
AcDbPolyline
90
2
70
0
43
0
10
25
20
13.5
10
25
20
12.5
0
LINE
5
12C
100
AcDbEntity
8
0
6
ByLayer
62
0
370
-1
100
AcDbLine
10
25
20
21
11
25
21
13.5
0
LWPOLYLINE
5
12D
100
AcDbEntity
8
0
6
ByLayer
62
0
370
-1
100
AcDbPolyline
90
2
70
0
43
0
10
-25
20
9
10
-25
20
12.5
0
LINE
5
12E
100
AcDbEntity
8
0
6
ByLayer
62
0
370
-1
100
AcDbLine
10
-25
20
-21
11
-25
21
12.5
0
LINE
5
12F
100
AcDbEntity
8
0
6
ByLayer
62
0
370
-1
100
AcDbLine
10
-25
20
13.5
11
-25
21
21
0
LWPOLYLINE
5
130
100
AcDbEntity
8
0
6
ByLayer
62
0
370
-1
100
AcDbPolyline
90
2
70
0
43
0
10
-25
20
13.5
10
-25
20
17
0
LWPOLYLINE
5
131
100
AcDbEntity
8
0
6
ByLayer
62
0
370
-1
100
AcDbPolyline
90
2
70
0
43
0
10
-25
20
13.5
10
-25
20
12.5
0
LINE
5
132
100
AcDbEntity
8
0
6
ByLayer
62
0
370
-1
100
AcDbLine
10
20
20
0
11
-20
21
0
0
LINE
5
133
100
AcDbEntity
8
0
6
ByLayer
62
0
370
-1
100
AcDbLine
10
20
20
8
11
20
21
0
0
LINE
5
134
100
AcDbEntity
8
0
6
ByLayer
62
0
370
-1
100
AcDbLine
10
-20
20
0
11
-20
21
8
0
LINE
5
135
100
AcDbEntity
8
0
6
ByLayer
62
0
370
-1
100
AcDbLine
10
-20
20
8
11
20
21
8
0
LINE
5
136
100
AcDbEntity
8
0
6
ByLayer
62
0
370
-1
100
AcDbLine
10
21.2999993527
20
-10
11
17.65
21
-16.3219858214
0
LINE
5
137
100
AcDbEntity
8
0
6
ByLayer
62
0
370
-1
100
AcDbLine
10
17.65
20
-3.67801417864
11
21.2999993527
21
-10
0
LINE
5
138
100
AcDbEntity
8
0
6
ByLayer
62
0
370
-1
100
AcDbLine
10
17.65
20
-16.3219858214
11
10.35
21
-16.3219858214
0
LINE
5
139
100
AcDbEntity
8
0
6
ByLayer
62
0
370
-1
100
AcDbLine
10
10.35
20
-3.67801417864
11
17.65
21
-3.67801417864
0
LINE
5
13A
100
AcDbEntity
8
0
6
ByLayer
62
0
370
-1
100
AcDbLine
10
10.35
20
-16.3219858214
11
6.70000064733
21
-10
0
LINE
5
13B
100
AcDbEntity
8
0
6
ByLayer
62
0
370
-1
100
AcDbLine
10
6.70000064733
20
-10
11
10.35
21
-3.67801417864
0
CIRCLE
5
13C
100
AcDbEntity
8
0
6
ByLayer
62
0
370
-1
100
AcDbCircle
10
-14
20
-10
40
5.75
0
LINE
5
13D
100
AcDbEntity
8
0
6
ByLayer
62
0
370
-1
100
AcDbLine
10
-25
20
21
11
25
21
21
0
LWPOLYLINE
5
13E
100
AcDbEntity
8
0
6
ByLayer
62
0
370
-1
100
AcDbPolyline
90
2
70
0
43
0
10
-11.5
20
8
10
-8.5
20
8
0
LWPOLYLINE
5
13F
100
AcDbEntity
8
0
6
ByLayer
62
0
370
-1
100
AcDbPolyline
90
2
70
0
43
0
10
8.5
20
8
10
11.5
20
8
0
ENDBLK
5
5D
330
5B
100
AcDbEntity
8
0
100
AcDbBlockEnd
0
BLOCK
5
5F
330
5E
100
AcDbEntity
8
0
100
AcDbBlockBegin
2
part08-0
70
0
10
0
20
0
3
part08-0
1

0
LWPOLYLINE
5
140
100
AcDbEntity
8
0
6
ByLayer
62
0
370
-1
100
AcDbPolyline
90
2
70
0
43
0
10
1.0990791665
20
4.80019430555
10
1.0990791665
20
6.10035680555
0
LWPOLYLINE
5
141
100
AcDbEntity
8
0
6
ByLayer
62
0
370
-1
100
AcDbPolyline
90
2
70
0
43
0
10
1.0990791665
20
4.80019430555
10
1.0990791665
20
6.10035680555
0
LWPOLYLINE
5
142
100
AcDbEntity
8
0
6
ByLayer
62
0
370
-1
100
AcDbPolyline
90
2
70
0
43
0
10
2.6153180555
20
4.17270847225
10
1.0990791665
20
4.80019430555
0
LWPOLYLINE
5
143
100
AcDbEntity
8
0
6
ByLayer
62
0
370
-1
100
AcDbPolyline
90
2
70
0
43
0
10
2.6153180555
20
4.17270847225
10
1.0990791665
20
4.80019430555
0
LWPOLYLINE
5
144
100
AcDbEntity
8
0
6
ByLayer
62
0
370
-1
100
AcDbPolyline
90
2
70
0
43
0
10
1.0990791665
20
6.10035680555
10
-1.1011958335
20
6.10035680555
0
LWPOLYLINE
5
145
100
AcDbEntity
8
0
6
ByLayer
62
0
370
-1
100
AcDbPolyline
90
2
70
0
43
0
10
1.5005402775
20
1.66950319445
10
1.4998347225
20
-1.66960902775
0
LWPOLYLINE
5
146
100
AcDbEntity
8
0
6
ByLayer
62
0
370
-1
100
AcDbPolyline
90
2
70
0
43
0
10
5.0904069445
20
3.53622680555
10
3.5346569445
20
5.09201208335
0
LWPOLYLINE
5
147
100
AcDbEntity
8
0
6
ByLayer
62
0
370
-1
100
AcDbPolyline
90
2
70
0
43
0
10
4.1714208335
20
2.61632347225
10
5.0904069445
20
3.53622680555
0
LWPOLYLINE
5
148
100
AcDbEntity
8
0
6
ByLayer
62
0
370
-1
100
AcDbPolyline
90
2
70
0
43
0
10
-2.6174347225
20
4.17200291665
10
-3.5364208335
20
5.09113013885
0
LWPOLYLINE
5
149
100
AcDbEntity
8
0
6
ByLayer
62
0
370
-1
100
AcDbPolyline
90
2
70
0
43
0
10
4.7997180555
20
1.10054319445
10
4.1714208335
20
2.61632347225
0
LWPOLYLINE
5
14A
100
AcDbEntity
8
0
6
ByLayer
62
0
370
-1
100
AcDbPolyline
90
2
70
0
43
0
10
6.0997041665
20
1.10103708335
10
4.7997180555
20
1.10054319445
0
LWPOLYLINE
5
14B
100
AcDbEntity
8
0
6
ByLayer
62
0
370
-1
100
AcDbPolyline
90
2
70
0
43
0
10
-4.1738902775
20
2.61600597225
10
-4.8014819445
20
1.09994347225
0
LWPOLYLINE
5
14C
100
AcDbEntity
8
0
6
ByLayer
62
0
370
-1
100
AcDbPolyline
90
2
70
0
43
0
10
-4.8014819445
20
1.09994347225
10
-6.1004097225
20
1.09973180555
0
LWPOLYLINE
5
14D
100
AcDbEntity
8
0
6
ByLayer
62
0
370
-1
100
AcDbPolyline
90
2
70
0
43
0
10
4.1717736115
20
-2.61642930555
10
4.7993652775
20
-1.10022569445
0
LWPOLYLINE
5
14E
100
AcDbEntity
8
0
6
ByLayer
62
0
370
-1
100
AcDbPolyline
90
2
70
0
43
0
10
5.0911125005
20
-3.53474513895
10
4.1717736115
20
-2.61642930555
0
LWPOLYLINE
5
14F
100
AcDbEntity
8
0
6
ByLayer
62
0
370
-1
100
AcDbPolyline
90
2
70
0
43
0
10
3.5353625005
20
-5.09053041665
10
5.0911125005
20
-3.53474513895
0
LWPOLYLINE
5
150
100
AcDbEntity
8
0
6
ByLayer
62
0
370
-1
100
AcDbPolyline
90
2
70
0
43
0
10
-4.1731847225
20
-2.61671152775
10
-5.0914652775
20
-3.53562708335
0
LWPOLYLINE
5
151
100
AcDbEntity
8
0
6
ByLayer
62
0
370
-1
100
AcDbPolyline
90
2
70
0
43
0
10
1.1001375005
20
-6.09979236115
10
1.0997847225
20
-4.80079402775
0
LWPOLYLINE
5
152
100
AcDbEntity
8
0
6
ByLayer
62
0
370
-1
100
AcDbPolyline
90
2
70
0
43
0
10
-1.5005402775
20
-1.66950319445
10
-1.5015986105
20
1.66900930555
0
LWPOLYLINE
5
153
100
AcDbEntity
8
0
6
ByLayer
62
0
370
-1
100
AcDbPolyline
90
2
70
0
43
0
10
1.5005402775
20
1.66950319445
10
1.4998347225
20
-1.66960902775
0
LWPOLYLINE
5
154
100
AcDbEntity
8
0
6
ByLayer
62
0
370
-1
100
AcDbPolyline
90
2
70
0
43
0
10
3.5346569445
20
5.09201208335
10
2.6153180555
20
4.17270847225
0
LWPOLYLINE
5
155
100
AcDbEntity
8
0
6
ByLayer
62
0
370
-1
100
AcDbPolyline
90
2
70
0
43
0
10
-1.1011958335
20
6.10035680555
10
-1.1015486105
20
4.80040597225
0
LWPOLYLINE
5
156
100
AcDbEntity
8
0
6
ByLayer
62
0
370
-1
100
AcDbPolyline
90
2
70
0
43
0
10
5.0904069445
20
3.53622680555
10
3.5346569445
20
5.09201208335
0
LWPOLYLINE
5
157
100
AcDbEntity
8
0
6
ByLayer
62
0
370
-1
100
AcDbPolyline
90
2
70
0
43
0
10
-1.1015486105
20
4.80040597225
10
-2.6174347225
20
4.17200291665
0
LWPOLYLINE
5
158
100
AcDbEntity
8
0
6
ByLayer
62
0
370
-1
100
AcDbPolyline
90
2
70
0
43
0
10
4.1714208335
20
2.61632347225
10
5.0904069445
20
3.53622680555
0
LWPOLYLINE
5
159
100
AcDbEntity
8
0
6
ByLayer
62
0
370
-1
100
AcDbPolyline
90
2
70
0
43
0
10
-2.6174347225
20
4.17200291665
10
-3.5364208335
20
5.09113013885
0
LWPOLYLINE
5
15A
100
AcDbEntity
8
0
6
ByLayer
62
0
370
-1
100
AcDbPolyline
90
2
70
0
43
0
10
4.7997180555
20
1.10054319445
10
4.1714208335
20
2.61632347225
0
LWPOLYLINE
5
15B
100
AcDbEntity
8
0
6
ByLayer
62
0
370
-1
100
AcDbPolyline
90
2
70
0
43
0
10
-3.5364208335
20
5.09113013885
10
-5.0921708335
20
3.53534486105
0
LWPOLYLINE
5
15C
100
AcDbEntity
8
0
6
ByLayer
62
0
370
-1
100
AcDbPolyline
90
2
70
0
43
0
10
6.0997041665
20
1.10103708335
10
4.7997180555
20
1.10054319445
0
LWPOLYLINE
5
15D
100
AcDbEntity
8
0
6
ByLayer
62
0
370
-1
100
AcDbPolyline
90
2
70
0
43
0
10
-5.0921708335
20
3.53534486105
10
-4.1738902775
20
2.61600597225
0
LWPOLYLINE
5
15E
100
AcDbEntity
8
0
6
ByLayer
62
0
370
-1
100
AcDbPolyline
90
2
70
0
43
0
10
6.0997041665
20
-1.09913208335
10
6.0997041665
20
1.10103708335
0
LWPOLYLINE
5
15F
100
AcDbEntity
8
0
6
ByLayer
62
0
370
-1
100
AcDbPolyline
90
2
70
0
43
0
10
-4.1738902775
20
2.61600597225
10
-4.8014819445
20
1.09994347225
0
LWPOLYLINE
5
160
100
AcDbEntity
8
0
6
ByLayer
62
0
370
-1
100
AcDbPolyline
90
2
70
0
43
0
10
4.7993652775
20
-1.10022569445
10
6.0997041665
20
-1.09913208335
0
LWPOLYLINE
5
161
100
AcDbEntity
8
0
6
ByLayer
62
0
370
-1
100
AcDbPolyline
90
2
70
0
43
0
10
-4.8014819445
20
1.09994347225
10
-6.1004097225
20
1.09973180555
0
LWPOLYLINE
5
162
100
AcDbEntity
8
0
6
ByLayer
62
0
370
-1
100
AcDbPolyline
90
2
70
0
43
0
10
4.1717736115
20
-2.61642930555
10
4.7993652775
20
-1.10022569445
0
LWPOLYLINE
5
163
100
AcDbEntity
8
0
6
ByLayer
62
0
370
-1
100
AcDbPolyline
90
2
70
0
43
0
10
-6.1004097225
20
1.09973180555
10
-6.1004097225
20
-1.10043736115
0
LWPOLYLINE
5
164
100
AcDbEntity
8
0
6
ByLayer
62
0
370
-1
100
AcDbPolyline
90
2
70
0
43
0
10
5.0911125005
20
-3.53474513895
10
4.1717736115
20
-2.61642930555
0
LWPOLYLINE
5
165
100
AcDbEntity
8
0
6
ByLayer
62
0
370
-1
100
AcDbPolyline
90
2
70
0
43
0
10
-6.1004097225
20
-1.10043736115
10
-4.8018347225
20
-1.10082541665
0
LWPOLYLINE
5
166
100
AcDbEntity
8
0
6
ByLayer
62
0
370
-1
100
AcDbPolyline
90
2
70
0
43
0
10
3.5353625005
20
-5.09053041665
10
5.0911125005
20
-3.53474513895
0
LWPOLYLINE
5
167
100
AcDbEntity
8
0
6
ByLayer
62
0
370
-1
100
AcDbPolyline
90
2
70
0
43
0
10
-4.8018347225
20
-1.10082541665
10
-4.1731847225
20
-2.61671152775
0
LWPOLYLINE
5
168
100
AcDbEntity
8
0
6
ByLayer
62
0
370
-1
100
AcDbPolyline
90
2
70
0
43
0
10
2.6153180555
20
-4.17242625005
10
3.5353625005
20
-5.09053041665
0
LWPOLYLINE
5
169
100
AcDbEntity
8
0
6
ByLayer
62
0
370
-1
100
AcDbPolyline
90
2
70
0
43
0
10
-4.1731847225
20
-2.61671152775
10
-5.0914652775
20
-3.53562708335
0
LWPOLYLINE
5
16A
100
AcDbEntity
8
0
6
ByLayer
62
0
370
-1
100
AcDbPolyline
90
2
70
0
43
0
10
1.0997847225
20
-4.80079402775
10
2.6153180555
20
-4.17242625005
0
LWPOLYLINE
5
16B
100
AcDbEntity
8
0
6
ByLayer
62
0
370
-1
100
AcDbPolyline
90
2
70
0
43
0
10
-5.0914652775
20
-3.53562708335
10
-3.5353624995
20
-5.09144763895
0
LWPOLYLINE
5
16C
100
AcDbEntity
8
0
6
ByLayer
62
0
370
-1
100
AcDbPolyline
90
2
70
0
43
0
10
1.1001375005
20
-6.09979236115
10
1.0997847225
20
-4.80079402775
0
LWPOLYLINE
5
16D
100
AcDbEntity
8
0
6
ByLayer
62
0
370
-1
100
AcDbPolyline
90
2
70
0
43
0
10
-3.5353624995
20
-5.09144763895
10
-2.6174347225
20
-4.17302597225
0
LWPOLYLINE
5
16E
100
AcDbEntity
8
0
6
ByLayer
62
0
370
-1
100
AcDbPolyline
90
2
70
0
43
0
10
-1.0997847225
20
-6.09979236115
10
1.1001375005
20
-6.09979236115
0
LWPOLYLINE
5
16F
100
AcDbEntity
8
0
6
ByLayer
62
0
370
-1
100
AcDbPolyline
90
2
70
0
43
0
10
-2.6174347225
20
-4.17302597225
10
-1.1011958335
20
-4.80061763895
0
LWPOLYLINE
5
170
100
AcDbEntity
8
0
6
ByLayer
62
0
370
-1
100
AcDbPolyline
90
2
70
0
43
0
10
-1.1011958335
20
-4.80061763895
10
-1.0997847225
20
-6.09979236115
0
LINE
5
171
100
AcDbEntity
8
0
6
ByLayer
62
256
370
-1
100
AcDbLine
10
-1.5015986105
20
1.66900930555
11
-0.000556394183192
21
2.23606790828
0
LINE
5
172
100
AcDbEntity
8
0
6
ByLayer
62
256
370
-1
100
AcDbLine
10
-0.000556394183192
20
2.23606790828
11
1.49474264613
21
1.66305274175
0
LINE
5
173
100
AcDbEntity
8
0
6
ByLayer
62
256
370
-1
100
AcDbLine
10
1.4998347225
20
-1.66960902775
11
-0.000297747830047
21
-2.24434810395
0
LINE
5
174
100
AcDbEntity
8
0
6
ByLayer
62
256
370
-1
100
AcDbLine
10
-0.000297747830047
20
-2.24434810395
11
-1.50027766912
21
-1.66921101599
0
ENDBLK
5
60
330
5E
100
AcDbEntity
8
0
100
AcDbBlockEnd
0
BLOCK
5
62
330
61
100
AcDbEntity
8
0
100
AcDbBlockBegin
2
part09-0
70
0
10
0
20
0
3
part09-0
1

0
LWPOLYLINE
5
175
100
AcDbEntity
8
0
6
ByLayer
62
0
370
-1
100
AcDbPolyline
90
2
70
0
43
0
10
4.8466375
20
-3.520157778
10
8.0216375
20
-2.806876389
0
LWPOLYLINE
5
176
100
AcDbEntity
8
0
6
ByLayer
62
0
370
-1
100
AcDbPolyline
90
2
70
0
43
0
10
5.149673611
20
-6.760068889
10
4.8466375
20
-3.520157778
0
LWPOLYLINE
5
177
100
AcDbEntity
8
0
6
ByLayer
62
0
370
-1
100
AcDbPolyline
90
2
70
0
43
0
10
8.0216375
20
-2.806876389
10
8.140170833
20
-2.442139444
0
LWPOLYLINE
5
178
100
AcDbEntity
8
0
6
ByLayer
62
0
370
-1
100
AcDbPolyline
90
2
70
0
43
0
10
1.501245833
20
1.669803056
10
1.500540278
20
-1.669309167
0
LWPOLYLINE
5
179
100
AcDbEntity
8
0
6
ByLayer
62
0
370
-1
100
AcDbPolyline
90
2
70
0
43
0
10
1.500540278
20
-1.669309167
10
0.00052916599995
20
-2.299723055
0
LWPOLYLINE
5
17A
100
AcDbEntity
8
0
6
ByLayer
62
0
370
-1
100
AcDbPolyline
90
2
70
0
43
0
10
5.990695833
20
0.000987777999995
10
8.139818055
20
2.4441150001
0
LWPOLYLINE
5
17B
100
AcDbEntity
8
0
6
ByLayer
62
0
370
-1
100
AcDbPolyline
90
2
70
0
43
0
10
8.139818055
20
2.4441150001
10
8.021284722
20
2.8087461112
0
LWPOLYLINE
5
17C
100
AcDbEntity
8
0
6
ByLayer
62
0
370
-1
100
AcDbPolyline
90
2
70
0
43
0
10
8.021284722
20
2.8087461112
10
4.846284722
20
3.5219216668
0
LWPOLYLINE
5
17D
100
AcDbEntity
8
0
6
ByLayer
62
0
370
-1
100
AcDbPolyline
90
2
70
0
43
0
10
-1.850495834
20
-5.696726111
10
-0.191029167
20
-8.495594444
0
LWPOLYLINE
5
17E
100
AcDbEntity
8
0
6
ByLayer
62
0
370
-1
100
AcDbPolyline
90
2
70
0
43
0
10
4.846284722
20
3.5219216668
10
5.148968055
20
6.7616211112
0
LWPOLYLINE
5
17F
100
AcDbEntity
8
0
6
ByLayer
62
0
370
-1
100
AcDbPolyline
90
2
70
0
43
0
10
5.148968055
20
6.7616211112
10
4.838876389
20
6.9870461112
0
LWPOLYLINE
5
180
100
AcDbEntity
8
0
6
ByLayer
62
0
370
-1
100
AcDbPolyline
90
2
70
0
43
0
10
4.838876389
20
6.9870461112
10
1.851201389
20
5.6978902779
0
LWPOLYLINE
5
181
100
AcDbEntity
8
0
6
ByLayer
62
0
370
-1
100
AcDbPolyline
90
2
70
0
43
0
10
-4.845931945
20
-3.5207575
10
-5.1482625
20
-6.760456944
0
LWPOLYLINE
5
182
100
AcDbEntity
8
0
6
ByLayer
62
0
370
-1
100
AcDbPolyline
90
2
70
0
43
0
10
-8.1391125
20
-2.442915555
10
-8.020579167
20
-2.807546667
0
LWPOLYLINE
5
183
100
AcDbEntity
8
0
6
ByLayer
62
0
370
-1
100
AcDbPolyline
90
2
70
0
43
0
10
-0.191734722
20
8.4967586112
10
-1.851201389
20
5.6976080557
0
LWPOLYLINE
5
184
100
AcDbEntity
8
0
6
ByLayer
62
0
370
-1
100
AcDbPolyline
90
2
70
0
43
0
10
-5.989990278
20
0.000282221999996
10
-8.1391125
20
-2.442915555
0
LWPOLYLINE
5
185
100
AcDbEntity
8
0
6
ByLayer
62
0
370
-1
100
AcDbPolyline
90
2
70
0
43
0
10
-1.851201389
20
5.6976080557
10
-4.838876389
20
6.9865522223
0
LWPOLYLINE
5
186
100
AcDbEntity
8
0
6
ByLayer
62
0
370
-1
100
AcDbPolyline
90
2
70
0
43
0
10
-4.838876389
20
6.9865522223
10
-5.148968056
20
6.7612330557
0
LWPOLYLINE
5
187
100
AcDbEntity
8
0
6
ByLayer
62
0
370
-1
100
AcDbPolyline
90
2
70
0
43
0
10
-8.020931945
20
2.8080405557
10
-8.139465278
20
2.4432683334
0
LWPOLYLINE
5
188
100
AcDbEntity
8
0
6
ByLayer
62
0
370
-1
100
AcDbPolyline
90
2
70
0
43
0
10
-5.148968056
20
6.7612330557
10
-4.846284722
20
3.5213219446
0
LWPOLYLINE
5
189
100
AcDbEntity
8
0
6
ByLayer
62
0
370
-1
100
AcDbPolyline
90
2
70
0
43
0
10
-4.846284722
20
3.5213219446
10
-8.020931945
20
2.8080405557
0
LWPOLYLINE
5
18A
100
AcDbEntity
8
0
6
ByLayer
62
0
370
-1
100
AcDbPolyline
90
2
70
0
43
0
10
-1.499834722
20
-1.669203333
10
-1.500540278
20
1.669309167
0
LWPOLYLINE
5
18B
100
AcDbEntity
8
0
6
ByLayer
62
0
370
-1
100
AcDbPolyline
90
2
70
0
43
0
10
-1.500540278
20
1.669309167
10
0.00052916599995
20
2.3008872223
0
LWPOLYLINE
5
18C
100
AcDbEntity
8
0
6
ByLayer
62
0
370
-1
100
AcDbPolyline
90
2
70
0
43
0
10
0.00052916599995
20
2.3008872223
10
1.501245833
20
1.669803056
0
LWPOLYLINE
5
18D
100
AcDbEntity
8
0
6
ByLayer
62
0
370
-1
100
AcDbPolyline
90
2
70
0
43
0
10
1.501245833
20
1.669803056
10
1.500540278
20
-1.669309167
0
LWPOLYLINE
5
18E
100
AcDbEntity
8
0
6
ByLayer
62
0
370
-1
100
AcDbPolyline
90
2
70
0
43
0
10
1.500540278
20
-1.669309167
10
0.00052916599995
20
-2.299723055
0
LWPOLYLINE
5
18F
100
AcDbEntity
8
0
6
ByLayer
62
0
370
-1
100
AcDbPolyline
90
2
70
0
43
0
10
0.00052916599995
20
-2.299723055
10
-1.499834722
20
-1.669203333
0
LWPOLYLINE
5
190
100
AcDbEntity
8
0
6
ByLayer
62
0
370
-1
100
AcDbPolyline
90
2
70
0
43
0
10
4.839229166
20
-6.985388055
10
5.149673611
20
-6.760068889
0
LWPOLYLINE
5
191
100
AcDbEntity
8
0
6
ByLayer
62
0
370
-1
100
AcDbPolyline
90
2
70
0
43
0
10
8.140170833
20
-2.442139444
10
5.990695833
20
0.000987777999995
0
LWPOLYLINE
5
192
100
AcDbEntity
8
0
6
ByLayer
62
0
370
-1
100
AcDbPolyline
90
2
70
0
43
0
10
1.851906944
20
-5.696408611
10
4.839229166
20
-6.985388055
0
LWPOLYLINE
5
193
100
AcDbEntity
8
0
6
ByLayer
62
0
370
-1
100
AcDbPolyline
90
2
70
0
43
0
10
5.990695833
20
0.000987777999995
10
8.139818055
20
2.4441150001
0
LWPOLYLINE
5
194
100
AcDbEntity
8
0
6
ByLayer
62
0
370
-1
100
AcDbPolyline
90
2
70
0
43
0
10
0.192440278
20
-8.495594444
10
1.851906944
20
-5.696408611
0
LWPOLYLINE
5
195
100
AcDbEntity
8
0
6
ByLayer
62
0
370
-1
100
AcDbPolyline
90
2
70
0
43
0
10
8.139818055
20
2.4441150001
10
8.021284722
20
2.8087461112
0
LWPOLYLINE
5
196
100
AcDbEntity
8
0
6
ByLayer
62
0
370
-1
100
AcDbPolyline
90
2
70
0
43
0
10
-0.191029167
20
-8.495594444
10
0.192440278
20
-8.495594444
0
LWPOLYLINE
5
197
100
AcDbEntity
8
0
6
ByLayer
62
0
370
-1
100
AcDbPolyline
90
2
70
0
43
0
10
8.021284722
20
2.8087461112
10
4.846284722
20
3.5219216668
0
LWPOLYLINE
5
198
100
AcDbEntity
8
0
6
ByLayer
62
0
370
-1
100
AcDbPolyline
90
2
70
0
43
0
10
-1.850495834
20
-5.696726111
10
-0.191029167
20
-8.495594444
0
LWPOLYLINE
5
199
100
AcDbEntity
8
0
6
ByLayer
62
0
370
-1
100
AcDbPolyline
90
2
70
0
43
0
10
4.846284722
20
3.5219216668
10
5.148968055
20
6.7616211112
0
LWPOLYLINE
5
19A
100
AcDbEntity
8
0
6
ByLayer
62
0
370
-1
100
AcDbPolyline
90
2
70
0
43
0
10
-4.838170834
20
-6.985881944
10
-1.850495834
20
-5.696726111
0
LWPOLYLINE
5
19B
100
AcDbEntity
8
0
6
ByLayer
62
0
370
-1
100
AcDbPolyline
90
2
70
0
43
0
10
5.148968055
20
6.7616211112
10
4.838876389
20
6.9870461112
0
LWPOLYLINE
5
19C
100
AcDbEntity
8
0
6
ByLayer
62
0
370
-1
100
AcDbPolyline
90
2
70
0
43
0
10
-5.1482625
20
-6.760456944
10
-4.838170834
20
-6.985881944
0
LWPOLYLINE
5
19D
100
AcDbEntity
8
0
6
ByLayer
62
0
370
-1
100
AcDbPolyline
90
2
70
0
43
0
10
4.838876389
20
6.9870461112
10
1.851201389
20
5.6978902779
0
LWPOLYLINE
5
19E
100
AcDbEntity
8
0
6
ByLayer
62
0
370
-1
100
AcDbPolyline
90
2
70
0
43
0
10
-4.845931945
20
-3.5207575
10
-5.1482625
20
-6.760456944
0
LWPOLYLINE
5
19F
100
AcDbEntity
8
0
6
ByLayer
62
0
370
-1
100
AcDbPolyline
90
2
70
0
43
0
10
1.851201389
20
5.6978902779
10
0.191734722
20
8.4967586112
0
LWPOLYLINE
5
1A0
100
AcDbEntity
8
0
6
ByLayer
62
0
370
-1
100
AcDbPolyline
90
2
70
0
43
0
10
-8.020579167
20
-2.807546667
10
-4.845931945
20
-3.5207575
0
LWPOLYLINE
5
1A1
100
AcDbEntity
8
0
6
ByLayer
62
0
370
-1
100
AcDbPolyline
90
2
70
0
43
0
10
0.191734722
20
8.4967586112
10
-0.191734722
20
8.4967586112
0
LWPOLYLINE
5
1A2
100
AcDbEntity
8
0
6
ByLayer
62
0
370
-1
100
AcDbPolyline
90
2
70
0
43
0
10
-8.1391125
20
-2.442915555
10
-8.020579167
20
-2.807546667
0
LWPOLYLINE
5
1A3
100
AcDbEntity
8
0
6
ByLayer
62
0
370
-1
100
AcDbPolyline
90
2
70
0
43
0
10
-0.191734722
20
8.4967586112
10
-1.851201389
20
5.6976080557
0
LWPOLYLINE
5
1A4
100
AcDbEntity
8
0
6
ByLayer
62
0
370
-1
100
AcDbPolyline
90
2
70
0
43
0
10
-5.989990278
20
0.000282221999996
10
-8.1391125
20
-2.442915555
0
LWPOLYLINE
5
1A5
100
AcDbEntity
8
0
6
ByLayer
62
0
370
-1
100
AcDbPolyline
90
2
70
0
43
0
10
-1.851201389
20
5.6976080557
10
-4.838876389
20
6.9865522223
0
LWPOLYLINE
5
1A6
100
AcDbEntity
8
0
6
ByLayer
62
0
370
-1
100
AcDbPolyline
90
2
70
0
43
0
10
-8.139465278
20
2.4432683334
10
-5.989990278
20
0.000282221999996
0
LWPOLYLINE
5
1A7
100
AcDbEntity
8
0
6
ByLayer
62
0
370
-1
100
AcDbPolyline
90
2
70
0
43
0
10
-4.838876389
20
6.9865522223
10
-5.148968056
20
6.7612330557
0
LWPOLYLINE
5
1A8
100
AcDbEntity
8
0
6
ByLayer
62
0
370
-1
100
AcDbPolyline
90
2
70
0
43
0
10
-8.020931945
20
2.8080405557
10
-8.139465278
20
2.4432683334
0
LWPOLYLINE
5
1A9
100
AcDbEntity
8
0
6
ByLayer
62
0
370
-1
100
AcDbPolyline
90
2
70
0
43
0
10
-5.148968056
20
6.7612330557
10
-4.846284722
20
3.5213219446
0
LWPOLYLINE
5
1AA
100
AcDbEntity
8
0
6
ByLayer
62
0
370
-1
100
AcDbPolyline
90
2
70
0
43
0
10
-4.846284722
20
3.5213219446
10
-8.020931945
20
2.8080405557
0
ENDBLK
5
63
330
61
100
AcDbEntity
8
0
100
AcDbBlockEnd
0
BLOCK
5
65
330
64
100
AcDbEntity
8
0
100
AcDbBlockBegin
2
part22-0
70
0
10
0
20
0
3
part22-0
1

0
LINE
5
1AB
100
AcDbEntity
8
0
6
ByLayer
62
0
370
-1
100
AcDbLine
10
-9
20
-3
11
-9
21
-20
0
LINE
5
1AC
100
AcDbEntity
8
0
6
ByLayer
62
0
370
-1
100
AcDbLine
10
-14.5
20
-3
11
-9
21
-3
0
LINE
5
1AD
100
AcDbEntity
8
0
6
ByLayer
62
0
370
-1
100
AcDbLine
10
-9
20
-20
11
9
21
-20
0
LINE
5
1AE
100
AcDbEntity
8
0
6
ByLayer
62
0
370
-1
100
AcDbLine
10
9
20
-20
11
9
21
-3
0
LINE
5
1AF
100
AcDbEntity
8
0
6
ByLayer
62
0
370
-1
100
AcDbLine
10
9
20
-3
11
14.5
21
-3
0
LINE
5
1B0
100
AcDbEntity
8
0
6
ByLayer
62
0
370
-1
100
AcDbLine
10
14.5
20
-3
11
14.5
21
-6
0
LINE
5
1B1
100
AcDbEntity
8
0
6
ByLayer
62
0
370
-1
100
AcDbLine
10
14.5
20
-6
11
18
21
-6
0
LINE
5
1B2
100
AcDbEntity
8
0
6
ByLayer
62
0
370
-1
100
AcDbLine
10
18
20
-6
11
18
21
-3.5527136788e-015
0
LINE
5
1B3
100
AcDbEntity
8
0
6
ByLayer
62
0
370
-1
100
AcDbLine
10
18
20
-3.5527136788e-015
11
-18
21
3.5527136788e-015
0
LINE
5
1B4
100
AcDbEntity
8
0
6
ByLayer
62
0
370
-1
100
AcDbLine
10
-18
20
3.5527136788e-015
11
-18
21
-6
0
LINE
5
1B5
100
AcDbEntity
8
0
6
ByLayer
62
0
370
-1
100
AcDbLine
10
-18
20
-6
11
-14.5
21
-6
0
LINE
5
1B6
100
AcDbEntity
8
0
6
ByLayer
62
0
370
-1
100
AcDbLine
10
-14.5
20
-6
11
-14.5
21
-3
0
CIRCLE
5
1B7
100
AcDbEntity
8
0
6
ByLayer
62
0
370
-1
100
AcDbCircle
10
0
20
-12
40
5.75
0
LWPOLYLINE
5
1B8
100
AcDbEntity
8
0
6
ByLayer
62
0
370
-1
100
AcDbPolyline
90
2
70
0
43
0
10
-13.2199792862
20
1.7763568394e-015
10
-11.7199792862
20
1.7763568394e-015
0
LWPOLYLINE
5
1B9
100
AcDbEntity
8
0
6
ByLayer
62
0
370
-1
100
AcDbPolyline
90
2
70
0
43
0
10
-11.7199792862
20
1.7763568394e-015
10
-10.2199792862
20
1.7763568394e-015
0
LWPOLYLINE
5
1BA
100
AcDbEntity
8
0
6
ByLayer
62
0
370
-1
100
AcDbPolyline
90
2
70
0
43
0
10
11.75
20
-1.7763568394e-015
10
13.25
20
-1.7763568394e-015
0
LWPOLYLINE
5
1BB
100
AcDbEntity
8
0
6
ByLayer
62
0
370
-1
100
AcDbPolyline
90
2
70
0
43
0
10
10.25
20
-1.7763568394e-015
10
11.75
20
-1.7763568394e-015
0
ENDBLK
5
66
330
64
100
AcDbEntity
8
0
100
AcDbBlockEnd
0
ENDSEC
0
SECTION
2
ENTITIES
0
INSERT
5
1BC
100
AcDbEntity
8
0
6
ByLayer
62
256
370
-1
100
AcDbBlockReference
2
10gear-0
10
-120
20
130
30
0
41
1
42
1
43
0
50
0
70
1
71
1
44
0
45
0
0
INSERT
5
1BD
100
AcDbEntity
8
0
6
ByLayer
62
256
370
-1
100
AcDbBlockReference
2
part01-0
10
-30
20
120
30
0
41
1
42
1
43
0
50
0
70
1
71
1
44
0
45
0
0
INSERT
5
1BE
100
AcDbEntity
8
0
6
ByLayer
62
256
370
-1
100
AcDbBlockReference
2
part02-0
10
0
20
100
30
0
41
1
42
1
43
0
50
0
70
1
71
1
44
0
45
0
0
INSERT
5
1BF
100
AcDbEntity
8
0
6
ByLayer
62
256
370
-1
100
AcDbBlockReference
2
part03-0
10
60
20
150
30
0
41
1
42
1
43
0
50
0
70
1
71
1
44
0
45
0
0
INSERT
5
1C0
100
AcDbEntity
8
0
6
ByLayer
62
256
370
-1
100
AcDbBlockReference
2
part04-0
10
150
20
150
30
0
41
1
42
1
43
0
50
0
70
1
71
1
44
0
45
0
0
INSERT
5
1C1
100
AcDbEntity
8
0
6
ByLayer
62
256
370
-1
100
AcDbBlockReference
2
part05-0
10
150
20
90
30
0
41
1
42
1
43
0
50
0
70
1
71
1
44
0
45
0
0
INSERT
5
1C2
100
AcDbEntity
8
0
6
ByLayer
62
256
370
-1
100
AcDbBlockReference
2
part06-0
10
150
20
200
30
0
41
1
42
1
43
0
50
0
70
1
71
1
44
0
45
0
0
INSERT
5
1C3
100
AcDbEntity
8
0
6
ByLayer
62
256
370
-1
100
AcDbBlockReference
2
part07-0
10
-110
20
60
30
0
41
1
42
1
43
0
50
0
70
1
71
1
44
0
45
0
0
INSERT
5
1C4
100
AcDbEntity
8
0
6
ByLayer
62
256
370
-1
100
AcDbBlockReference
2
part08-0
10
-70
20
70
30
0
41
1
42
1
43
0
50
0
70
1
71
1
44
0
45
0
0
INSERT
5
1C5
100
AcDbEntity
8
0
6
ByLayer
62
256
370
-1
100
AcDbBlockReference
2
part09-0
10
-50
20
70
30
0
41
1
42
1
43
0
50
0
70
1
71
1
44
0
45
0
0
INSERT
5
1C6
100
AcDbEntity
8
0
6
ByLayer
62
256
370
-1
100
AcDbBlockReference
2
part22-0
10
80
20
0
30
0
41
1
42
1
43
0
50
0
70
1
71
1
44
0
45
0
0
ENDSEC
0
SECTION
2
OBJECTS
0
DICTIONARY
5
C
330
0
100
AcDbDictionary
281
1
3
ACAD_GROUP
350
D
0
DICTIONARY
5
D
330
C
100
AcDbDictionary
281
1
0
ENDSEC
0
EOF
