999
dxfrw 0.5.10
0
SECTION
2
HEADER
9
$ACADVER
1
AC1021
9
$HANDSEED
5
20000
9
$DWGCODEPAGE
3
ANSI_1252
9
$INSBASE
10
0
20
0
30
0
9
$EXTMIN
10
-28.75748
20
-39
30
0
9
$EXTMAX
10
65.25
20
64.8842
30
0
9
$LIMMIN
10
0
20
0
9
$LIMMAX
10
420
20
297
9
$ORTHOMODE
70
0
9
$LTSCALE
40
1
9
$TEXTSTYLE
7
STANDARD
9
$CLAYER
8
dim
9
$DIMASZ
40
2.5
9
$DIMLFAC
40
1
9
$DIMSCALE
40
1
9
$DIMEXO
40
0.625
9
$DIMEXE
40
1.25
9
$DIMTXT
40
2
9
$DIMTSZ
40
0
9
$DIMAUNIT
70
0
9
$DIMADEC
70
1
9
$DIMLUNIT
70
2
9
$DIMSTYLE
2
Standard
9
$DIMGAP
40
0.625
9
$DIMTIH
70
0
9
$LUNITS
70
2
9
$LUPREC
70
1
9
$AUNITS
70
0
9
$AUPREC
70
1
9
$SPLINESEGS
70
8
9
$GRIDMODE
70
0
9
$SNAPSTYLE
70
0
9
$GRIDUNIT
10
0
20
0
9
$PINSBASE
10
0
20
0
30
0
9
$PLIMMIN
10
0
20
0
9
$PLIMMAX
10
210
20
297
9
$INSUNITS
70
0
9
$PSVPSCALE
40
1
0
ENDSEC
0
SECTION
2
CLASSES
0
ENDSEC
0
SECTION
2
TABLES
0
TABLE
2
VPORT
5
8
330
0
100
AcDbSymbolTable
70
1
0
VPORT
5
31
330
2
100
AcDbSymbolTableRecord
100
AcDbViewportTableRecord
2
*ACTIVE
70
0
10
0
20
0
11
1
21
1
12
51.6854355044
22
34.5358058748
13
0
23
0
14
10
24
10
15
10
25
10
16
0
26
0
36
1
17
0
27
0
37
0
40
111.058636015
41
1.66666666667
42
50
43
0
44
0
50
0
51
0
71
0
72
100
73
1
74
3
75
0
76
0
77
0
78
0
281
0
65
1
110
0
120
0
130
0
111
1
121
0
131
0
112
0
122
1
132
0
79
0
146
0
348
10020
60
7
61
5
292
1
282
1
141
0
142
0
63
250
421
3358443
0
ENDTAB
0
TABLE
2
LTYPE
5
5
330
0
100
AcDbSymbolTable
70
4
0
LTYPE
5
14
330
5
100
AcDbSymbolTableRecord
100
AcDbLinetypeTableRecord
2
ByBlock
70
0
3

72
65
73
0
40
0
0
LTYPE
5
15
330
5
100
AcDbSymbolTableRecord
100
AcDbLinetypeTableRecord
2
ByLayer
70
0
3

72
65
73
0
40
0
0
LTYPE
5
16
330
5
100
AcDbSymbolTableRecord
100
AcDbLinetypeTableRecord
2
Continuous
70
0
3
Solid line
72
65
73
0
40
0
0
LTYPE
5
32
330
5
100
AcDbSymbolTableRecord
100
AcDbLinetypeTableRecord
2
DOT
70
0
3
Dot . . . . . . . . . . . . . . . . . . . . . .
72
65
73
2
40
6.35
49
0
74
0
49
-6.35
74
0
0
LTYPE
5
33
330
5
100
AcDbSymbolTableRecord
100
AcDbLinetypeTableRecord
2
DOT2
70
0
3
Dot (.5x) .....................................
72
65
73
2
40
3.175
49
0
74
0
49
-3.175
74
0
0
LTYPE
5
34
330
5
100
AcDbSymbolTableRecord
100
AcDbLinetypeTableRecord
2
DOTX2
70
0
3
Dot (2x) .  .  .  .  .  .  .  .  .  .  .  .  .
72
65
73
2
40
12.7
49
0
74
0
49
-12.7
74
0
0
LTYPE
5
35
330
5
100
AcDbSymbolTableRecord
100
AcDbLinetypeTableRecord
2
DASHED
70
0
3
Dot . . . . . . . . . . . . . . . . . . . . . .
72
65
73
2
40
19.05
49
12.7
74
0
49
-6.35
74
0
0
LTYPE
5
36
330
5
100
AcDbSymbolTableRecord
100
AcDbLinetypeTableRecord
2
DASHED2
70
0
3
Dashed (.5x) _ _ _ _ _ _ _ _ _ _ _ _ _ _ _ _ _
72
65
73
2
40
9.525
49
6.35
74
0
49
-3.175
74
0
0
LTYPE
5
37
330
5
100
AcDbSymbolTableRecord
100
AcDbLinetypeTableRecord
2
DASHEDX2
70
0
3
Dashed (2x) ____  ____  ____  ____  ____  ___
72
65
73
2
40
38.1
49
25.4
74
0
49
-12.7
74
0
0
LTYPE
5
38
330
5
100
AcDbSymbolTableRecord
100
AcDbLinetypeTableRecord
2
DASHDOT
70
0
3
Dash dot __ . __ . __ . __ . __ . __ . __ . __
72
65
73
4
40
25.4
49
12.7
74
0
49
-6.35
74
0
49
0
74
0
49
-6.35
74
0
0
LTYPE
5
39
330
5
100
AcDbSymbolTableRecord
100
AcDbLinetypeTableRecord
2
DASHDOT2
70
0
3
Dash dot (.5x) _._._._._._._._._._._._._._._.
72
65
73
4
40
12.7
49
6.35
74
0
49
-3.175
74
0
49
0
74
0
49
-3.175
74
0
0
LTYPE
5
3A
330
5
100
AcDbSymbolTableRecord
100
AcDbLinetypeTableRecord
2
DASHDOTX2
70
0
3
Dash dot (2x) ____  .  ____  .  ____  .  ___
72
65
73
4
40
50.8
49
25.4
74
0
49
-12.7
74
0
49
0
74
0
49
-12.7
74
0
0
LTYPE
5
3B
330
5
100
AcDbSymbolTableRecord
100
AcDbLinetypeTableRecord
2
DIVIDE
70
0
3
Divide ____ . . ____ . . ____ . . ____ . . ____
72
65
73
6
40
31.75
49
12.7
74
0
49
-6.35
74
0
49
0
74
0
49
-6.35
74
0
49
0
74
0
49
-6.35
74
0
0
LTYPE
5
3C
330
5
100
AcDbSymbolTableRecord
100
AcDbLinetypeTableRecord
2
DIVIDE2
70
0
3
Divide (.5x) __..__..__..__..__..__..__..__.._
72
65
73
6
40
15.875
49
6.35
74
0
49
-3.175
74
0
49
0
74
0
49
-3.175
74
0
49
0
74
0
49
-3.175
74
0
0
LTYPE
5
3D
330
5
100
AcDbSymbolTableRecord
100
AcDbLinetypeTableRecord
2
DIVIDEX2
70
0
3
Divide (2x) ________  .  .  ________  .  .  _
72
65
73
6
40
63.5
49
25.4
74
0
49
-12.7
74
0
49
0
74
0
49
-12.7
74
0
49
0
74
0
49
-12.7
74
0
0
LTYPE
5
3E
330
5
100
AcDbSymbolTableRecord
100
AcDbLinetypeTableRecord
2
BORDER
70
0
3
Border __ __ . __ __ . __ __ . __ __ . __ __ .
72
65
73
6
40
44.45
49
12.7
74
0
49
-6.35
74
0
49
12.7
74
0
49
-6.35
74
0
49
0
74
0
49
-6.35
74
0
0
LTYPE
5
3F
330
5
100
AcDbSymbolTableRecord
100
AcDbLinetypeTableRecord
2
BORDER2
70
0
3
Border (.5x) __.__.__.__.__.__.__.__.__.__.__.
72
65
73
6
40
22.225
49
6.35
74
0
49
-3.175
74
0
49
6.35
74
0
49
-3.175
74
0
49
0
74
0
49
-3.175
74
0
0
LTYPE
5
40
330
5
100
AcDbSymbolTableRecord
100
AcDbLinetypeTableRecord
2
BORDERX2
70
0
3
Border (2x) ____  ____  .  ____  ____  .  ___
72
65
73
6
40
88.9
49
25.4
74
0
49
-12.7
74
0
49
25.4
74
0
49
-12.7
74
0
49
0
74
0
49
-12.7
74
0
0
LTYPE
5
41
330
5
100
AcDbSymbolTableRecord
100
AcDbLinetypeTableRecord
2
CENTER
70
0
3
Center ____ _ ____ _ ____ _ ____ _ ____ _ ____
72
65
73
4
40
50.8
49
31.75
74
0
49
-6.35
74
0
49
6.35
74
0
49
-6.35
74
0
0
LTYPE
5
42
330
5
100
AcDbSymbolTableRecord
100
AcDbLinetypeTableRecord
2
CENTER2
70
0
3
Center (.5x) ___ _ ___ _ ___ _ ___ _ ___ _ ___
72
65
73
4
40
28.575
49
19.05
74
0
49
-3.175
74
0
49
3.175
74
0
49
-3.175
74
0
0
LTYPE
5
43
330
5
100
AcDbSymbolTableRecord
100
AcDbLinetypeTableRecord
2
CENTERX2
70
0
3
Center (2x) ________  __  ________  __  _____
72
65
73
4
40
101.6
49
63.5
74
0
49
-12.7
74
0
49
12.7
74
0
49
-12.7
74
0
0
ENDTAB
0
TABLE
2
LAYER
5
2
330
0
100
AcDbSymbolTable
70
1
0
LAYER
5
10
330
2
100
AcDbSymbolTableRecord
100
AcDbLayerTableRecord
2
0
70
0
62
7
6
CONTINUOUS
370
25
390
F
0
LAYER
5
44
330
2
100
AcDbSymbolTableRecord
100
AcDbLayerTableRecord
2
base
70
0
62
7
6
CENTER
370
0
390
F
0
LAYER
5
45
330
2
100
AcDbSymbolTableRecord
100
AcDbLayerTableRecord
2
dim
70
0
62
7
6
CONTINUOUS
370
0
390
F
0
LAYER
5
46
330
2
100
AcDbSymbolTableRecord
100
AcDbLayerTableRecord
2
base2
70
0
62
7
6
DASHED
370
0
390
F
0
ENDTAB
0
TABLE
2
STYLE
5
3
330
0
100
AcDbSymbolTable
70
3
0
STYLE
5
47
330
2
100
AcDbSymbolTableRecord
100
AcDbTextStyleTableRecord
2
cyrillic_ii
70
0
40
0
41
1
50
0
71
0
42
1
3
cyrillic_ii
4

0
STYLE
5
48
330
2
100
AcDbSymbolTableRecord
100
AcDbTextStyleTableRecord
2
Standard
70
0
40
0
41
1
50
0
71
0
42
1
3
txt
4

0
ENDTAB
0
TABLE
2
VIEW
5
6
330
0
100
AcDbSymbolTable
70
0
0
ENDTAB
0
TABLE
2
UCS
5
7
330
0
100
AcDbSymbolTable
70
0
0
ENDTAB
0
TABLE
2
APPID
5
9
330
0
100
AcDbSymbolTable
70
1
0
APPID
5
12
330
9
100
AcDbSymbolTableRecord
100
AcDbRegAppTableRecord
2
ACAD
70
0
0
ENDTAB
0
TABLE
2
DIMSTYLE
5
A
330
0
100
AcDbSymbolTable
70
1
100
AcDbDimStyleTable
71
1
0
DIMSTYLE
105
49
330
A
100
AcDbSymbolTableRecord
100
AcDbDimStyleTableRecord
2
Standard
70
0
40
1
41
2.5
42
0.625
43
0.38
44
1.25
45
0
46
0
47
0
48
0
140
2
141
0.09
142
0
143
25.4
144
1
145
0
146
1
147
0.625
148
0
71
0
72
0
73
0
74
1
75
0
76
0
77
0
78
0
79
0
170
0
171
2
172
0
173
0
174
0
175
0
176
0
177
0
178
0
179
0
271
4
272
4
273
2
274
2
275
0
276
0
277
2
278
46
279
0
280
0
281
0
282
0
283
1
284
0
285
0
286
0
288
0
289
3
340
Standard
341

371
-2
372
-2
0
ENDTAB
0
TABLE
2
BLOCK_RECORD
5
1
330
0
100
AcDbSymbolTable
70
2
0
BLOCK_RECORD
5
1F
330
1
100
AcDbSymbolTableRecord
100
AcDbBlockTableRecord
2
*Model_Space
70
0
280
1
281
0
0
BLOCK_RECORD
5
1E
330
1
100
AcDbSymbolTableRecord
100
AcDbBlockTableRecord
2
*Paper_Space
70
0
280
1
281
0
0
BLOCK_RECORD
5
4A
330
1
100
AcDbSymbolTableRecord
100
AcDbBlockTableRecord
2
*D9
70
0
280
1
281
0
0
BLOCK_RECORD
5
4D
330
1
100
AcDbSymbolTableRecord
100
AcDbBlockTableRecord
2
*D6
70
0
280
1
281
0
0
BLOCK_RECORD
5
50
330
1
100
AcDbSymbolTableRecord
100
AcDbBlockTableRecord
2
*D7
70
0
280
1
281
0
0
BLOCK_RECORD
5
53
330
1
100
AcDbSymbolTableRecord
100
AcDbBlockTableRecord
2
*D15
70
0
280
1
281
0
0
BLOCK_RECORD
5
56
330
1
100
AcDbSymbolTableRecord
100
AcDbBlockTableRecord
2
*D20
70
0
280
1
281
0
0
BLOCK_RECORD
5
59
330
1
100
AcDbSymbolTableRecord
100
AcDbBlockTableRecord
2
*D4
70
0
280
1
281
0
0
BLOCK_RECORD
5
5C
330
1
100
AcDbSymbolTableRecord
100
AcDbBlockTableRecord
2
*D19
70
0
280
1
281
0
0
BLOCK_RECORD
5
5F
330
1
100
AcDbSymbolTableRecord
100
AcDbBlockTableRecord
2
*D2
70
0
280
1
281
0
0
BLOCK_RECORD
5
62
330
1
100
AcDbSymbolTableRecord
100
AcDbBlockTableRecord
2
*D10
70
0
280
1
281
0
0
BLOCK_RECORD
5
65
330
1
100
AcDbSymbolTableRecord
100
AcDbBlockTableRecord
2
*D5
70
0
280
1
281
0
0
BLOCK_RECORD
5
68
330
1
100
AcDbSymbolTableRecord
100
AcDbBlockTableRecord
2
*D8
70
0
280
1
281
0
0
BLOCK_RECORD
5
6B
330
1
100
AcDbSymbolTableRecord
100
AcDbBlockTableRecord
2
*D13
70
0
280
1
281
0
0
BLOCK_RECORD
5
6E
330
1
100
AcDbSymbolTableRecord
100
AcDbBlockTableRecord
2
*D14
70
0
280
1
281
0
0
BLOCK_RECORD
5
71
330
1
100
AcDbSymbolTableRecord
100
AcDbBlockTableRecord
2
*D1
70
0
280
1
281
0
0
BLOCK_RECORD
5
74
330
1
100
AcDbSymbolTableRecord
100
AcDbBlockTableRecord
2
*D12
70
0
280
1
281
0
0
BLOCK_RECORD
5
77
330
1
100
AcDbSymbolTableRecord
100
AcDbBlockTableRecord
2
*D23
70
0
280
1
281
0
0
BLOCK_RECORD
5
7A
330
1
100
AcDbSymbolTableRecord
100
AcDbBlockTableRecord
2
*D3
70
0
280
1
281
0
0
BLOCK_RECORD
5
7D
330
1
100
AcDbSymbolTableRecord
100
AcDbBlockTableRecord
2
*D16
70
0
280
1
281
0
0
BLOCK_RECORD
5
80
330
1
100
AcDbSymbolTableRecord
100
AcDbBlockTableRecord
2
*D21
70
0
280
1
281
0
0
BLOCK_RECORD
5
83
330
1
100
AcDbSymbolTableRecord
100
AcDbBlockTableRecord
2
*D22
70
0
280
1
281
0
0
BLOCK_RECORD
5
86
330
1
100
AcDbSymbolTableRecord
100
AcDbBlockTableRecord
2
*D11
70
0
280
1
281
0
0
BLOCK_RECORD
5
89
330
1
100
AcDbSymbolTableRecord
100
AcDbBlockTableRecord
2
*D18
70
0
280
1
281
0
0
BLOCK_RECORD
5
8C
330
1
100
AcDbSymbolTableRecord
100
AcDbBlockTableRecord
2
*D17
70
0
280
1
281
0
0
BLOCK_RECORD
5
8F
330
1
100
AcDbSymbolTableRecord
100
AcDbBlockTableRecord
2
CUT001008009005_PROJ
70
0
280
1
281
0
0
BLOCK_RECORD
5
92
330
1
100
AcDbSymbolTableRecord
100
AcDbBlockTableRecord
2
CUT001008009005_PROJ002
70
0
280
1
281
0
0
BLOCK_RECORD
5
95
330
1
100
AcDbSymbolTableRecord
100
AcDbBlockTableRecord
2
CUT001008009005_PROJ001
70
0
280
1
281
0
0
ENDTAB
0
ENDSEC
0
SECTION
2
BLOCKS
0
BLOCK
5
20
330
1F
100
AcDbEntity
8
0
100
AcDbBlockBegin
2
*Model_Space
70
0
10
0
20
0
30
0
3
*Model_Space
1

0
ENDBLK
5
21
330
1F
100
AcDbEntity
8
0
100
AcDbBlockEnd
0
BLOCK
5
1C
330
1B
100
AcDbEntity
8
0
100
AcDbBlockBegin
2
*Paper_Space
70
0
10
0
20
0
30
0
3
*Paper_Space
1

0
ENDBLK
5
1D
330
1F
100
AcDbEntity
8
0
100
AcDbBlockEnd
0
BLOCK
5
4B
330
4A
100
AcDbEntity
8
0
100
AcDbBlockBegin
2
*D9
70
1
10
0
20
0
3
*D9
1

0
LINE
5
98
100
AcDbEntity
8
dim
6
CONTINUOUS
62
7
370
0
100
AcDbLine
10
-15.5
20
-20.8896
11
-3.5527136788e-15
21
-20.8896
0
SOLID
5
99
100
AcDbEntity
8
dim
6
CONTINUOUS
62
7
370
0
100
AcDbTrace
10
-15.5
20
-20.8896
30
0
11
-13
21
-20.4733153422
31
0
12
-13
22
-21.3058846578
32
0
13
-13
23
-21.3058846578
33
0
0
SOLID
5
9A
100
AcDbEntity
8
dim
6
CONTINUOUS
62
7
370
0
100
AcDbTrace
10
-3.5527136788e-15
20
-20.8896
30
0
11
-2.5
21
-21.3058846578
31
0
12
-2.5
22
-20.4733153422
32
0
13
-2.5
23
-20.4733153422
33
0
0
MTEXT
5
9B
100
AcDbEntity
8
dim
6
CONTINUOUS
62
7
370
0
100
AcDbMText
10
-7.75
20
-19.2646
30
0
40
2
41
4.22222222222
71
5
72
1
1
15.5
7
standard
210
0
220
0
230
1
50
0
73
2
44
1
0
LINE
5
9C
100
AcDbEntity
8
dim
6
CONTINUOUS
62
7
370
0
100
AcDbLine
10
-15.5
20
-10.625
11
-15.5
21
-22.1396
0
LINE
5
9D
100
AcDbEntity
8
dim
6
CONTINUOUS
62
7
370
0
100
AcDbLine
10
-3.66752052447e-15
20
-0.625
11
-3.78232737014e-15
21
-22.1396
0
ENDBLK
5
4C
330
4A
100
AcDbEntity
8
0
100
AcDbBlockEnd
0
BLOCK
5
4E
330
4D
100
AcDbEntity
8
0
100
AcDbBlockBegin
2
*D6
70
1
10
0
20
0
3
*D6
1

0
LINE
5
9E
100
AcDbEntity
8
dim
6
CONTINUOUS
62
7
370
0
100
AcDbLine
10
-26.13248
20
-10
11
-26.13248
21
3.63318122254e-15
0
SOLID
5
9F
100
AcDbEntity
8
dim
6
CONTINUOUS
62
7
370
0
100
AcDbTrace
10
-26.13248
20
-10
30
0
11
-26.5487646578
21
-7.5
31
0
12
-25.7161953422
22
-7.5
32
0
13
-25.7161953422
23
-7.5
33
0
0
SOLID
5
A0
100
AcDbEntity
8
dim
6
CONTINUOUS
62
7
370
0
100
AcDbTrace
10
-26.13248
20
3.63318122254e-15
30
0
11
-25.7161953422
21
-2.5
31
0
12
-26.5487646578
22
-2.5
32
0
13
-26.5487646578
23
-2.5
33
0
0
MTEXT
5
A1
100
AcDbEntity
8
dim
6
CONTINUOUS
62
7
370
0
100
AcDbMText
10
-27.75748
20
-5
30
0
40
2
41
2
71
5
72
1
1
10
7
standard
210
0
220
0
230
1
50
90
73
2
44
1
0
LINE
5
A2
100
AcDbEntity
8
dim
6
CONTINUOUS
62
7
370
0
100
AcDbLine
10
-16.125
20
-10
11
-27.38248
21
-10
0
LINE
5
A3
100
AcDbEntity
8
dim
6
CONTINUOUS
62
7
370
0
100
AcDbLine
10
-0.625
20
1.85289473651e-15
11
-27.38248
21
3.78625701677e-15
0
ENDBLK
5
4F
330
4D
100
AcDbEntity
8
0
100
AcDbBlockEnd
0
BLOCK
5
51
330
50
100
AcDbEntity
8
0
100
AcDbBlockBegin
2
*D7
70
1
10
0
20
0
3
*D7
1

0
LINE
5
A4
100
AcDbEntity
8
dim
6
CONTINUOUS
62
7
370
0
100
AcDbLine
10
33.91488
20
-10
11
33.91488
21
15
0
SOLID
5
A5
100
AcDbEntity
8
dim
6
CONTINUOUS
62
7
370
0
100
AcDbTrace
10
33.91488
20
-10
30
0
11
33.4985953422
21
-7.5
31
0
12
34.3311646578
22
-7.5
32
0
13
34.3311646578
23
-7.5
33
0
0
SOLID
5
A6
100
AcDbEntity
8
dim
6
CONTINUOUS
62
7
370
0
100
AcDbTrace
10
33.91488
20
15
30
0
11
34.3311646578
21
12.5
31
0
12
33.4985953422
22
12.5
32
0
13
33.4985953422
23
12.5
33
0
0
MTEXT
5
A7
100
AcDbEntity
8
dim
6
CONTINUOUS
62
7
370
0
100
AcDbMText
10
32.28988
20
2.5
30
0
40
2
41
2.44444444444
71
5
72
1
1
25
7
standard
210
0
220
0
230
1
50
90
73
2
44
1
0
LINE
5
A8
100
AcDbEntity
8
dim
6
CONTINUOUS
62
7
370
0
100
AcDbLine
10
39.375
20
-10
11
32.66488
21
-10
0
LINE
5
A9
100
AcDbEntity
8
dim
6
CONTINUOUS
62
7
370
0
100
AcDbLine
10
39.375
20
15
11
32.66488
21
15
0
ENDBLK
5
52
330
50
100
AcDbEntity
8
0
100
AcDbBlockEnd
0
BLOCK
5
54
330
53
100
AcDbEntity
8
0
100
AcDbBlockBegin
2
*D15
70
1
10
0
20
0
3
*D15
1

0
LINE
5
AA
100
AcDbEntity
8
dim
6
CONTINUOUS
62
7
370
0
100
AcDbLine
10
-15.5
20
-15
11
-7.58
21
-15
0
SOLID
5
AB
100
AcDbEntity
8
dim
6
CONTINUOUS
62
7
370
0
100
AcDbTrace
10
-15.5
20
-15
30
0
11
-13
21
-14.5837153422
31
0
12
-13
22
-15.4162846578
32
0
13
-13
23
-15.4162846578
33
0
0
SOLID
5
AC
100
AcDbEntity
8
dim
6
CONTINUOUS
62
7
370
0
100
AcDbTrace
10
-7.58
20
-15
30
0
11
-10.08
21
-15.4162846578
31
0
12
-10.08
22
-14.5837153422
32
0
13
-10.08
23
-14.5837153422
33
0
0
MTEXT
5
AD
100
AcDbEntity
8
dim
6
CONTINUOUS
62
7
370
0
100
AcDbMText
10
-11.54
20
-13.375
30
0
40
2
41
3.11111111111
71
5
72
1
1
7.9
7
standard
210
0
220
0
230
1
50
0
73
2
44
1
0
LINE
5
AE
100
AcDbEntity
8
dim
6
CONTINUOUS
62
7
370
0
100
AcDbLine
10
-15.5
20
-10.625
11
-15.5
21
-16.25
0
LINE
5
AF
100
AcDbEntity
8
dim
6
CONTINUOUS
62
7
370
0
100
AcDbLine
10
-7.58
20
-5.005
11
-7.58
21
-16.25
0
ENDBLK
5
55
330
53
100
AcDbEntity
8
0
100
AcDbBlockEnd
0
BLOCK
5
57
330
56
100
AcDbEntity
8
0
100
AcDbBlockBegin
2
*D20
70
1
10
0
20
0
3
*D20
1

0
LINE
5
B0
100
AcDbEntity
8
dim
6
CONTINUOUS
62
7
370
0
100
AcDbLine
10
-1.55222218835
20
-6.81226122226
11
-13.6077778117
21
-1.94773877774
0
SOLID
5
B1
100
AcDbEntity
8
dim
6
CONTINUOUS
62
7
370
0
100
AcDbTrace
10
-6.18897435116
20
-4.94129105129
30
0
11
-3.71482703429
21
-5.49073437932
31
0
12
-4.02636950522
22
-6.26281789423
32
0
13
-4.02636950522
23
-6.26281789423
33
0
0
SOLID
5
B2
100
AcDbEntity
8
dim
6
CONTINUOUS
62
7
370
0
100
AcDbTrace
10
-8.97102564884
20
-3.81870894871
30
0
11
-11.4451729657
21
-3.26926562068
31
0
12
-11.1336304948
22
-2.49718210577
32
0
13
-11.1336304948
23
-2.49718210577
33
0
0
MTEXT
5
B3
100
AcDbEntity
8
dim
6
CONTINUOUS
62
7
370
0
100
AcDbMText
10
-6.97193469444
20
-2.87305554708
30
0
40
2
41
2.88888888889
71
5
72
1
1
  ø3
7
standard
210
0
220
0
230
1
50
338.025492008
73
2
44
1
0
ENDBLK
5
58
330
56
100
AcDbEntity
8
0
100
AcDbBlockEnd
0
BLOCK
5
5A
330
59
100
AcDbEntity
8
0
100
AcDbBlockBegin
2
*D4
70
1
10
0
20
0
3
*D4
1

0
LINE
5
B4
100
AcDbEntity
8
dim
6
CONTINUOUS
62
7
370
0
100
AcDbLine
10
29.98272
20
30
11
29.98272
21
50
0
SOLID
5
B5
100
AcDbEntity
8
dim
6
CONTINUOUS
62
7
370
0
100
AcDbTrace
10
29.98272
20
30
30
0
11
29.5664353422
21
32.5
31
0
12
30.3990046578
22
32.5
32
0
13
30.3990046578
23
32.5
33
0
0
SOLID
5
B6
100
AcDbEntity
8
dim
6
CONTINUOUS
62
7
370
0
100
AcDbTrace
10
29.98272
20
50
30
0
11
30.3990046578
21
47.5
31
0
12
29.5664353422
22
47.5
32
0
13
29.5664353422
23
47.5
33
0
0
MTEXT
5
B7
100
AcDbEntity
8
dim
6
CONTINUOUS
62
7
370
0
100
AcDbMText
10
28.35772
20
40
30
0
40
2
41
2.44444444444
71
5
72
1
1
20
7
standard
210
0
220
0
230
1
50
90
73
2
44
1
0
LINE
5
B8
100
AcDbEntity
8
dim
6
CONTINUOUS
62
7
370
0
100
AcDbLine
10
21.125
20
30
11
31.23272
21
30
0
LINE
5
B9
100
AcDbEntity
8
dim
6
CONTINUOUS
62
7
370
0
100
AcDbLine
10
21.125
20
50
11
31.23272
21
50
0
ENDBLK
5
5B
330
59
100
AcDbEntity
8
0
100
AcDbBlockEnd
0
BLOCK
5
5D
330
5C
100
AcDbEntity
8
0
100
AcDbBlockBegin
2
*D19
70
1
10
0
20
0
3
*D19
1

0
LINE
5
BA
100
AcDbEntity
8
dim
6
CONTINUOUS
62
7
370
0
100
AcDbLine
10
1.2833639692
20
-2.76681225656
11
13.8766360308
21
-5.99318774344
0
SOLID
5
BB
100
AcDbEntity
8
dim
6
CONTINUOUS
62
7
370
0
100
AcDbTrace
10
6.12693014674
20
-4.00772590536
30
0
11
3.60183239525
21
-3.79052953868
31
0
12
3.80846172069
22
-2.98400862324
32
0
13
3.80846172069
23
-2.98400862324
33
0
0
SOLID
5
BC
100
AcDbEntity
8
dim
6
CONTINUOUS
62
7
370
0
100
AcDbTrace
10
9.03306985326
20
-4.75227409464
30
0
11
11.5581676048
21
-4.96947046132
31
0
12
11.3515382793
22
-5.77599137676
32
0
13
11.3515382793
23
-5.77599137676
33
0
0
MTEXT
5
BD
100
AcDbEntity
8
dim
6
CONTINUOUS
62
7
370
0
100
AcDbMText
10
7.98329693586
20
-2.8058409923
30
0
40
2
41
2.88888888889
71
5
72
1
1
  ø3
7
standard
210
0
220
0
230
1
50
345.629998485
73
2
44
1
0
ENDBLK
5
5E
330
5C
100
AcDbEntity
8
0
100
AcDbBlockEnd
0
BLOCK
5
60
330
5F
100
AcDbEntity
8
0
100
AcDbBlockBegin
2
*D2
70
1
10
0
20
0
3
*D2
1

0
LINE
5
BE
100
AcDbEntity
8
dim
6
CONTINUOUS
62
7
370
0
100
AcDbLine
10
25.06752
20
41
11
25.06752
21
55
0
SOLID
5
BF
100
AcDbEntity
8
dim
6
CONTINUOUS
62
7
370
0
100
AcDbTrace
10
25.06752
20
46
30
0
11
25.4838046578
21
43.5
31
0
12
24.6512353422
22
43.5
32
0
13
24.6512353422
23
43.5
33
0
0
SOLID
5
C0
100
AcDbEntity
8
dim
6
CONTINUOUS
62
7
370
0
100
AcDbTrace
10
25.06752
20
50
30
0
11
24.6512353422
21
52.5
31
0
12
25.4838046578
22
52.5
32
0
13
25.4838046578
23
52.5
33
0
0
MTEXT
5
C1
100
AcDbEntity
8
dim
6
CONTINUOUS
62
7
370
0
100
AcDbMText
10
23.44252
20
48
30
0
40
2
41
1.11111111111
71
5
72
1
1
4
7
standard
210
0
220
0
230
1
50
90
73
2
44
1
0
LINE
5
C2
100
AcDbEntity
8
dim
6
CONTINUOUS
62
7
370
0
100
AcDbLine
10
5.125
20
46
11
26.31752
21
46
0
LINE
5
C3
100
AcDbEntity
8
dim
6
CONTINUOUS
62
7
370
0
100
AcDbLine
10
21.125
20
50
11
26.31752
21
50
0
ENDBLK
5
61
330
5F
100
AcDbEntity
8
0
100
AcDbBlockEnd
0
BLOCK
5
63
330
62
100
AcDbEntity
8
0
100
AcDbBlockBegin
2
*D10
70
1
10
0
20
0
3
*D10
1

0
LINE
5
C4
100
AcDbEntity
8
dim
6
CONTINUOUS
62
7
370
0
100
AcDbLine
10
-15.5
20
-26.3168
11
20.5
21
-26.3168
0
SOLID
5
C5
100
AcDbEntity
8
dim
6
CONTINUOUS
62
7
370
0
100
AcDbTrace
10
-15.5
20
-26.3168
30
0
11
-13
21
-25.9005153422
31
0
12
-13
22
-26.7330846578
32
0
13
-13
23
-26.7330846578
33
0
0
SOLID
5
C6
100
AcDbEntity
8
dim
6
CONTINUOUS
62
7
370
0
100
AcDbTrace
10
20.5
20
-26.3168
30
0
11
18
21
-26.7330846578
31
0
12
18
22
-25.9005153422
32
0
13
18
23
-25.9005153422
33
0
0
MTEXT
5
C7
100
AcDbEntity
8
dim
6
CONTINUOUS
62
7
370
0
100
AcDbMText
10
2.5
20
-24.6918
30
0
40
2
41
2.44444444444
71
5
72
1
1
36
7
standard
210
0
220
0
230
1
50
0
73
2
44
1
0
LINE
5
C8
100
AcDbEntity
8
dim
6
CONTINUOUS
62
7
370
0
100
AcDbLine
10
-15.5
20
-10.625
11
-15.5
21
-27.5668
0
LINE
5
C9
100
AcDbEntity
8
dim
6
CONTINUOUS
62
7
370
0
100
AcDbLine
10
20.5
20
-10.625
11
20.5
21
-27.5668
0
ENDBLK
5
64
330
62
100
AcDbEntity
8
0
100
AcDbBlockEnd
0
BLOCK
5
66
330
65
100
AcDbEntity
8
0
100
AcDbBlockBegin
2
*D5
70
1
10
0
20
0
3
*D5
1

0
LINE
5
CA
100
AcDbEntity
8
dim
6
CONTINUOUS
62
7
370
0
100
AcDbLine
10
11.5
20
57.91744
11
25.5
21
57.91744
0
SOLID
5
CB
100
AcDbEntity
8
dim
6
CONTINUOUS
62
7
370
0
100
AcDbTrace
10
16.5
20
57.91744
30
0
11
14
21
57.5011553422
31
0
12
14
22
58.3337246578
32
0
13
14
23
58.3337246578
33
0
0
SOLID
5
CC
100
AcDbEntity
8
dim
6
CONTINUOUS
62
7
370
0
100
AcDbTrace
10
20.5
20
57.91744
30
0
11
23
21
58.3337246578
31
0
12
23
22
57.5011553422
32
0
13
23
23
57.5011553422
33
0
0
MTEXT
5
CD
100
AcDbEntity
8
dim
6
CONTINUOUS
62
7
370
0
100
AcDbMText
10
18.5
20
59.54244
30
0
40
2
41
1.11111111111
71
5
72
1
1
4
7
standard
210
0
220
0
230
1
50
0
73
2
44
1
0
LINE
5
CE
100
AcDbEntity
8
dim
6
CONTINUOUS
62
7
370
0
100
AcDbLine
10
16.5
20
50.625
11
16.5
21
59.16744
0
LINE
5
CF
100
AcDbEntity
8
dim
6
CONTINUOUS
62
7
370
0
100
AcDbLine
10
20.5
20
50.625
11
20.5
21
59.16744
0
ENDBLK
5
67
330
65
100
AcDbEntity
8
0
100
AcDbBlockEnd
0
BLOCK
5
69
330
68
100
AcDbEntity
8
0
100
AcDbBlockBegin
2
*D8
70
1
10
0
20
0
3
*D8
1

0
LINE
5
D0
100
AcDbEntity
8
dim
6
CONTINUOUS
62
7
370
0
100
AcDbLine
10
35
20
21.2992
11
47
21
21.2992
0
SOLID
5
D1
100
AcDbEntity
8
dim
6
CONTINUOUS
62
7
370
0
100
AcDbTrace
10
40
20
21.2992
30
0
11
37.5
21
20.8829153422
31
0
12
37.5
22
21.7154846578
32
0
13
37.5
23
21.7154846578
33
0
0
SOLID
5
D2
100
AcDbEntity
8
dim
6
CONTINUOUS
62
7
370
0
100
AcDbTrace
10
42
20
21.2992
30
0
11
44.5
21
21.7154846578
31
0
12
44.5
22
20.8829153422
32
0
13
44.5
23
20.8829153422
33
0
0
MTEXT
5
D3
100
AcDbEntity
8
dim
6
CONTINUOUS
62
7
370
0
100
AcDbMText
10
41
20
22.9242
30
0
40
2
41
0.888888888889
71
5
72
1
1
2
7
standard
210
0
220
0
230
1
50
0
73
2
44
1
0
LINE
5
D4
100
AcDbEntity
8
dim
6
CONTINUOUS
62
7
370
0
100
AcDbLine
10
40
20
15.625
11
40
21
22.5492
0
LINE
5
D5
100
AcDbEntity
8
dim
6
CONTINUOUS
62
7
370
0
100
AcDbLine
10
42
20
13.625
11
42
21
22.5492
0
ENDBLK
5
6A
330
68
100
AcDbEntity
8
0
100
AcDbBlockEnd
0
BLOCK
5
6C
330
6B
100
AcDbEntity
8
0
100
AcDbBlockBegin
2
*D13
70
1
10
0
20
0
3
*D13
1

0
LINE
5
D6
100
AcDbEntity
8
dim
6
CONTINUOUS
62
7
370
0
100
AcDbLine
10
-20
20
0.62
11
-20
21
-15
0
SOLID
5
D7
100
AcDbEntity
8
dim
6
CONTINUOUS
62
7
370
0
100
AcDbTrace
10
-20
20
-4.38
30
0
11
-20.4162846578
21
-1.88
31
0
12
-19.5837153422
22
-1.88
32
0
13
-19.5837153422
23
-1.88
33
0
0
SOLID
5
D8
100
AcDbEntity
8
dim
6
CONTINUOUS
62
7
370
0
100
AcDbTrace
10
-20
20
-10
30
0
11
-19.5837153422
21
-12.5
31
0
12
-20.4162846578
22
-12.5
32
0
13
-20.4162846578
23
-12.5
33
0
0
MTEXT
5
D9
100
AcDbEntity
8
dim
6
CONTINUOUS
62
7
370
0
100
AcDbMText
10
-21.625
20
-7.19
30
0
40
2
41
3.11111111111
71
5
72
1
1
5.6
7
standard
210
0
220
0
230
1
50
90
73
2
44
1
0
LINE
5
DA
100
AcDbEntity
8
dim
6
CONTINUOUS
62
7
370
0
100
AcDbLine
10
-8.205
20
-4.38
11
-21.25
21
-4.38
0
LINE
5
DB
100
AcDbEntity
8
dim
6
CONTINUOUS
62
7
370
0
100
AcDbLine
10
-16.125
20
-10
11
-21.25
21
-10
0
ENDBLK
5
6D
330
6B
100
AcDbEntity
8
0
100
AcDbBlockEnd
0
BLOCK
5
6F
330
6E
100
AcDbEntity
8
0
100
AcDbBlockBegin
2
*D14
70
1
10
0
20
0
3
*D14
1

0
LINE
5
DC
100
AcDbEntity
8
dim
6
CONTINUOUS
62
7
370
0
100
AcDbLine
10
-20
20
3.75
11
-20
21
20
0
SOLID
5
DD
100
AcDbEntity
8
dim
6
CONTINUOUS
62
7
370
0
100
AcDbTrace
10
-20
20
8.75
30
0
11
-19.5837153422
21
6.25
31
0
12
-20.4162846578
22
6.25
32
0
13
-20.4162846578
23
6.25
33
0
0
SOLID
5
DE
100
AcDbEntity
8
dim
6
CONTINUOUS
62
7
370
0
100
AcDbTrace
10
-20
20
15
30
0
11
-20.4162846578
21
17.5
31
0
12
-19.5837153422
22
17.5
32
0
13
-19.5837153422
23
17.5
33
0
0
MTEXT
5
DF
100
AcDbEntity
8
dim
6
CONTINUOUS
62
7
370
0
100
AcDbMText
10
-21.625
20
11.875
30
0
40
2
41
3.11111111111
71
5
72
1
1
6.2
7
standard
210
0
220
0
230
1
50
90
73
2
44
1
0
LINE
5
E0
100
AcDbEntity
8
dim
6
CONTINUOUS
62
7
370
0
100
AcDbLine
10
-0.625
20
8.75
11
-21.25
21
8.75
0
LINE
5
E1
100
AcDbEntity
8
dim
6
CONTINUOUS
62
7
370
0
100
AcDbLine
10
-16.125
20
15
11
-21.25
21
15
0
ENDBLK
5
70
330
6E
100
AcDbEntity
8
0
100
AcDbBlockEnd
0
BLOCK
5
72
330
71
100
AcDbEntity
8
0
100
AcDbBlockBegin
2
*D1
70
1
10
0
20
0
3
*D1
1

0
LINE
5
E2
100
AcDbEntity
8
dim
6
CONTINUOUS
62
7
370
0
100
AcDbLine
10
4.5
20
62.2592
11
20.5
21
62.2592
0
SOLID
5
E3
100
AcDbEntity
8
dim
6
CONTINUOUS
62
7
370
0
100
AcDbTrace
10
4.5
20
62.2592
30
0
11
7
21
62.6754846578
31
0
12
7
22
61.8429153422
32
0
13
7
23
61.8429153422
33
0
0
SOLID
5
E4
100
AcDbEntity
8
dim
6
CONTINUOUS
62
7
370
0
100
AcDbTrace
10
20.5
20
62.2592
30
0
11
18
21
61.8429153422
31
0
12
18
22
62.6754846578
32
0
13
18
23
62.6754846578
33
0
0
MTEXT
5
E5
100
AcDbEntity
8
dim
6
CONTINUOUS
62
7
370
0
100
AcDbMText
10
12.5
20
63.8842
30
0
40
2
41
2
71
5
72
1
1
16
7
standard
210
0
220
0
230
1
50
0
73
2
44
1
0
LINE
5
E6
100
AcDbEntity
8
dim
6
CONTINUOUS
62
7
370
0
100
AcDbLine
10
4.5
20
58.125
11
4.5
21
63.5092
0
LINE
5
E7
100
AcDbEntity
8
dim
6
CONTINUOUS
62
7
370
0
100
AcDbLine
10
20.5
20
50.625
11
20.5
21
63.5092
0
ENDBLK
5
73
330
71
100
AcDbEntity
8
0
100
AcDbBlockEnd
0
BLOCK
5
75
330
74
100
AcDbEntity
8
0
100
AcDbBlockBegin
2
*D12
70
1
10
0
20
0
3
*D12
1

0
LINE
5
E8
100
AcDbEntity
8
dim
6
CONTINUOUS
62
7
370
0
100
AcDbLine
10
4.59227382683e-16
20
57.5
11
-1.58131645596e-32
21
50
0
SOLID
5
E9
100
AcDbEntity
8
dim
6
CONTINUOUS
62
7
370
0
100
AcDbTrace
10
4.59227382683e-16
20
57.5
30
0
11
0.416284657773
21
55
31
0
12
-0.416284657773
22
55
32
0
13
-0.416284657773
23
55
33
0
0
SOLID
5
EA
100
AcDbEntity
8
dim
6
CONTINUOUS
62
7
370
0
100
AcDbTrace
10
-1.58131645596e-32
20
50
30
0
11
-0.416284657773
21
52.5
31
0
12
0.416284657773
22
52.5
32
0
13
0.416284657773
23
52.5
33
0
0
MTEXT
5
EB
100
AcDbEntity
8
dim
6
CONTINUOUS
62
7
370
0
100
AcDbMText
10
-1.625
20
53.75
30
0
40
2
41
3.11111111111
71
5
72
1
1
7.5
7
standard
210
0
220
0
230
1
50
90
73
2
44
1
0
LINE
5
EC
100
AcDbEntity
8
dim
6
CONTINUOUS
62
7
370
0
100
AcDbLine
10
3.875
20
57.5
11
-1.25
21
57.5
0
LINE
5
ED
100
AcDbEntity
8
dim
6
CONTINUOUS
62
7
370
0
100
AcDbLine
10
-4.84279788709
20
50
11
-1.25
21
50
0
ENDBLK
5
76
330
74
100
AcDbEntity
8
0
100
AcDbBlockEnd
0
BLOCK
5
78
330
77
100
AcDbEntity
8
0
100
AcDbBlockBegin
2
*D23
70
1
10
0
20
0
3
*D23
1

0
LINE
5
EE
100
AcDbEntity
8
dim
6
CONTINUOUS
62
7
370
0
100
AcDbLine
10
-4.86829464833
20
3.50709384206
11
4.86829464833
21
-3.50709384206
0
SOLID
5
EF
100
AcDbEntity
8
dim
6
CONTINUOUS
62
7
370
0
100
AcDbTrace
10
-4.86829464833
20
3.50709384206
30
0
11
-2.59651365156
21
2.38357080314
31
0
12
-3.08316343816
22
1.70803867926
32
0
13
-3.08316343816
23
1.70803867926
33
0
0
SOLID
5
F0
100
AcDbEntity
8
dim
6
CONTINUOUS
62
7
370
0
100
AcDbTrace
10
4.86829464833
20
-3.50709384206
30
0
11
2.59651365156
21
-2.38357080314
31
0
12
3.08316343816
22
-1.70803867926
32
0
13
3.08316343816
23
-1.70803867926
33
0
0
MTEXT
5
F1
100
AcDbEntity
8
dim
6
CONTINUOUS
62
7
370
0
100
AcDbMText
10
0.949837915557
20
1.31849646726
30
0
40
2
41
5.77777777778
71
5
72
1
1
ø12.1
7
standard
210
0
220
0
230
1
50
324.23122041
73
2
44
1
0
ENDBLK
5
79
330
77
100
AcDbEntity
8
0
100
AcDbBlockEnd
0
BLOCK
5
7B
330
7A
100
AcDbEntity
8
0
100
AcDbBlockBegin
2
*D3
70
1
10
0
20
0
3
*D3
1

0
LINE
5
F2
100
AcDbEntity
8
dim
6
CONTINUOUS
62
7
370
0
100
AcDbLine
10
25.06752
20
30
11
25.06752
21
38
0
SOLID
5
F3
100
AcDbEntity
8
dim
6
CONTINUOUS
62
7
370
0
100
AcDbTrace
10
25.06752
20
30
30
0
11
24.6512353422
21
32.5
31
0
12
25.4838046578
22
32.5
32
0
13
25.4838046578
23
32.5
33
0
0
SOLID
5
F4
100
AcDbEntity
8
dim
6
CONTINUOUS
62
7
370
0
100
AcDbTrace
10
25.06752
20
38
30
0
11
25.4838046578
21
35.5
31
0
12
24.6512353422
22
35.5
32
0
13
24.6512353422
23
35.5
33
0
0
MTEXT
5
F5
100
AcDbEntity
8
dim
6
CONTINUOUS
62
7
370
0
100
AcDbMText
10
23.44252
20
34
30
0
40
2
41
0.888888888889
71
5
72
1
1
8
7
standard
210
0
220
0
230
1
50
90
73
2
44
1
0
LINE
5
F6
100
AcDbEntity
8
dim
6
CONTINUOUS
62
7
370
0
100
AcDbLine
10
21.125
20
30
11
26.31752
21
30
0
LINE
5
F7
100
AcDbEntity
8
dim
6
CONTINUOUS
62
7
370
0
100
AcDbLine
10
17.125
20
38
11
26.31752
21
38
0
ENDBLK
5
7C
330
7A
100
AcDbEntity
8
0
100
AcDbBlockEnd
0
BLOCK
5
7E
330
7D
100
AcDbEntity
8
0
100
AcDbBlockBegin
2
*D16
70
1
10
0
20
0
3
*D16
1

0
LINE
5
F8
100
AcDbEntity
8
dim
6
CONTINUOUS
62
7
370
0
100
AcDbLine
10
-7.58
20
-15
11
0
21
-15
0
SOLID
5
F9
100
AcDbEntity
8
dim
6
CONTINUOUS
62
7
370
0
100
AcDbTrace
10
-7.58
20
-15
30
0
11
-5.08
21
-14.5837153422
31
0
12
-5.08
22
-15.4162846578
32
0
13
-5.08
23
-15.4162846578
33
0
0
SOLID
5
FA
100
AcDbEntity
8
dim
6
CONTINUOUS
62
7
370
0
100
AcDbTrace
10
0
20
-15
30
0
11
-2.5
21
-15.4162846578
31
0
12
-2.5
22
-14.5837153422
32
0
13
-2.5
23
-14.5837153422
33
0
0
MTEXT
5
FB
100
AcDbEntity
8
dim
6
CONTINUOUS
62
7
370
0
100
AcDbMText
10
-3.79
20
-13.375
30
0
40
2
41
3.11111111111
71
5
72
1
1
7.6
7
standard
210
0
220
0
230
1
50
0
73
2
44
1
0
LINE
5
FC
100
AcDbEntity
8
dim
6
CONTINUOUS
62
7
370
0
100
AcDbLine
10
-7.58
20
-5.005
11
-7.58
21
-16.25
0
LINE
5
FD
100
AcDbEntity
8
dim
6
CONTINUOUS
62
7
370
0
100
AcDbLine
10
-1.14806845671e-16
20
8.125
11
-2.29613691342e-16
21
-16.25
0
ENDBLK
5
7F
330
7D
100
AcDbEntity
8
0
100
AcDbBlockEnd
0
BLOCK
5
81
330
80
100
AcDbEntity
8
0
100
AcDbBlockBegin
2
*D21
70
1
10
0
20
0
3
*D21
1

0
LINE
5
FE
100
AcDbEntity
8
dim
6
CONTINUOUS
62
7
370
0
100
AcDbLine
10
-16.8358838116
20
41.7119191733
11
-6.16411618835
21
34.2880808267
0
SOLID
5
FF
100
AcDbEntity
8
dim
6
CONTINUOUS
62
7
370
0
100
AcDbTrace
10
-12.7313578027
20
38.8565967323
30
0
11
-15.0213461922
21
39.9425277118
31
0
12
-14.5458954221
22
40.6259881938
32
0
13
-14.5458954221
23
40.6259881938
33
0
0
SOLID
5
100
100
AcDbEntity
8
dim
6
CONTINUOUS
62
7
370
0
100
AcDbTrace
10
-10.2686421973
20
37.1434032677
30
0
11
-7.97865380779
21
36.0574722882
31
0
12
-8.45410457786
22
35.3740118062
32
0
13
-8.45410457786
23
35.3740118062
33
0
0
MTEXT
5
101
100
AcDbEntity
8
dim
6
CONTINUOUS
62
7
370
0
100
AcDbMText
10
-10.5720202067
20
39.3339709529
30
0
40
2
41
2.88888888889
71
5
72
1
1
  ø3
7
standard
210
0
220
0
230
1
50
325.175510843
73
2
44
1
0
ENDBLK
5
82
330
80
100
AcDbEntity
8
0
100
AcDbBlockEnd
0
BLOCK
5
84
330
83
100
AcDbEntity
8
0
100
AcDbBlockBegin
2
*D22
70
1
10
0
20
0
3
*D22
1

0
LINE
5
102
100
AcDbEntity
8
dim
6
CONTINUOUS
62
7
370
0
100
AcDbLine
10
20.5988520629
20
43.0447410009
11
12.4011479371
21
32.9552589991
0
SOLID
5
103
100
AcDbEntity
8
dim
6
CONTINUOUS
62
7
370
0
100
AcDbTrace
10
17.4458889376
20
39.1641710002
30
0
11
18.6992861493
21
41.3669620357
31
0
12
19.3454548512
22
40.8419499654
32
0
13
19.3454548512
23
40.8419499654
33
0
0
SOLID
5
104
100
AcDbEntity
8
dim
6
CONTINUOUS
62
7
370
0
100
AcDbTrace
10
15.5541110624
20
36.8358289998
30
0
11
14.3007138507
21
34.6330379643
31
0
12
13.6545451488
22
35.1580500346
32
0
13
13.6545451488
23
35.1580500346
33
0
0
MTEXT
5
105
100
AcDbEntity
8
dim
6
CONTINUOUS
62
7
370
0
100
AcDbMText
10
15.2388147498
20
39.0247130158
30
0
40
2
41
2.88888888889
71
5
72
1
1
  ø3
7
standard
210
0
220
0
230
1
50
50.9061411156
73
2
44
1
0
ENDBLK
5
85
330
83
100
AcDbEntity
8
0
100
AcDbBlockEnd
0
BLOCK
5
87
330
86
100
AcDbEntity
8
0
100
AcDbBlockBegin
2
*D11
70
1
10
0
20
0
3
*D11
1

0
SOLID
5
106
100
AcDbEntity
8
dim
6
CONTINUOUS
62
7
370
0
100
AcDbTrace
10
11.3006821317
20
48.2263425477
30
0
11
9.4865789449
21
49.996179417
31
0
12
10.1579670004
22
50.4885306577
32
0
13
10.1579670004
23
50.4885306577
33
0
0
LINE
5
107
100
AcDbEntity
8
dim
6
CONTINUOUS
62
7
370
0
100
AcDbLine
10
4.5
20
57.5
11
11.3006821317
21
48.2263425477
0
MTEXT
5
108
100
AcDbEntity
8
dim
6
CONTINUOUS
62
7
370
0
100
AcDbMText
10
9.21074918411
20
53.8241372272
30
0
40
2
41
3.77777777778
71
5
72
1
1
11.5
7
standard
210
0
220
0
230
1
50
306.253837737
73
2
44
1
0
ENDBLK
5
88
330
86
100
AcDbEntity
8
0
100
AcDbBlockEnd
0
BLOCK
5
8A
330
89
100
AcDbEntity
8
0
100
AcDbBlockBegin
2
*D18
70
1
10
0
20
0
3
*D18
1

0
LINE
5
109
100
AcDbEntity
8
dim
6
CONTINUOUS
62
7
370
0
100
AcDbLine
10
-6.0861396542
20
11.0323023703
11
6.0861396542
21
6.46769762968
0
SOLID
5
10A
100
AcDbEntity
8
dim
6
CONTINUOUS
62
7
370
0
100
AcDbTrace
10
-1.40449376635
20
9.27668516238
30
0
11
-3.89148401199
21
9.7647142951
31
0
12
-3.59914940856
22
10.5442732376
32
0
13
-3.59914940856
23
10.5442732376
33
0
0
SOLID
5
10B
100
AcDbEntity
8
dim
6
CONTINUOUS
62
7
370
0
100
AcDbTrace
10
1.40449376635
20
8.22331483762
30
0
11
3.89148401199
21
7.7352857049
31
0
12
3.59914940856
22
6.9557267624
32
0
13
3.59914940856
23
6.9557267624
33
0
0
MTEXT
5
10C
100
AcDbEntity
8
dim
6
CONTINUOUS
62
7
370
0
100
AcDbMText
10
0.570575592581
20
10.2715349135
30
0
40
2
41
2.88888888889
71
5
72
1
1
  ø3
7
standard
210
0
220
0
230
1
50
339.44395478
73
2
44
1
0
ENDBLK
5
8B
330
89
100
AcDbEntity
8
0
100
AcDbBlockEnd
0
BLOCK
5
8D
330
8C
100
AcDbEntity
8
0
100
AcDbBlockBegin
2
*D17
70
1
10
0
20
0
3
*D17
1

0
LINE
5
10D
100
AcDbEntity
8
dim
6
CONTINUOUS
62
7
370
0
100
AcDbLine
10
0
20
-15
11
7.58
21
-15
0
SOLID
5
10E
100
AcDbEntity
8
dim
6
CONTINUOUS
62
7
370
0
100
AcDbTrace
10
0
20
-15
30
0
11
2.5
21
-14.5837153422
31
0
12
2.5
22
-15.4162846578
32
0
13
2.5
23
-15.4162846578
33
0
0
SOLID
5
10F
100
AcDbEntity
8
dim
6
CONTINUOUS
62
7
370
0
100
AcDbTrace
10
7.58
20
-15
30
0
11
5.08
21
-15.4162846578
31
0
12
5.08
22
-14.5837153422
32
0
13
5.08
23
-14.5837153422
33
0
0
MTEXT
5
110
100
AcDbEntity
8
dim
6
CONTINUOUS
62
7
370
0
100
AcDbMText
10
3.79
20
-13.375
30
0
40
2
41
3.11111111111
71
5
72
1
1
7.6
7
standard
210
0
220
0
230
1
50
0
73
2
44
1
0
LINE
5
111
100
AcDbEntity
8
dim
6
CONTINUOUS
62
7
370
0
100
AcDbLine
10
-1.14806845671e-16
20
8.125
11
-2.29613691342e-16
21
-16.25
0
LINE
5
112
100
AcDbEntity
8
dim
6
CONTINUOUS
62
7
370
0
100
AcDbLine
10
7.58
20
-5.005
11
7.58
21
-16.25
0
ENDBLK
5
8E
330
8C
100
AcDbEntity
8
0
100
AcDbBlockEnd
0
BLOCK
5
90
330
8F
100
AcDbEntity
8
0
100
AcDbBlockBegin
2
CUT001008009005_PROJ
70
0
10
0
20
0
3
CUT001008009005_PROJ
1

0
LINE
5
113
100
AcDbEntity
8
0
6
ByLayer
62
0
370
-1
100
AcDbLine
10
13
20
15.5
11
33
21
15.5
0
ARC
5
114
100
AcDbEntity
8
0
6
ByLayer
62
0
370
-1
100
AcDbCircle
10
21
20
-16.5
40
1.5
100
AcDbArc
50
-180
51
-0
0
ARC
5
115
100
AcDbEntity
8
0
6
ByLayer
62
0
370
-1
100
AcDbCircle
10
21
20
-16.5
40
1.5
100
AcDbArc
50
-0
51
-180
0
ARC
5
116
100
AcDbEntity
8
0
6
ByLayer
62
0
370
-1
100
AcDbCircle
10
21
20
11.5
40
1.5
100
AcDbArc
50
-180
51
-0
0
ARC
5
117
100
AcDbEntity
8
0
6
ByLayer
62
0
370
-1
100
AcDbCircle
10
21
20
11.5
40
1.5
100
AcDbArc
50
-0
51
-180
0
LINE
5
118
100
AcDbEntity
8
0
6
ByLayer
62
0
370
-1
100
AcDbLine
10
33
20
15.5
11
33
21
4.21779788708
0
ARC
5
119
100
AcDbEntity
8
0
6
ByLayer
62
0
370
-1
100
AcDbCircle
10
40.5
20
-4.5
40
11.5
100
AcDbArc
50
130.705706831
51
180
0
LINE
5
11A
100
AcDbEntity
8
0
6
ByLayer
62
0
370
-1
100
AcDbLine
10
13
20
15.5
11
13
21
-20.5
0
ARC
5
11B
100
AcDbEntity
8
0
6
ByLayer
62
0
370
-1
100
AcDbCircle
10
40.5
20
-4.5
40
11.5
100
AcDbArc
50
-180
51
-130.705706831
0
LINE
5
11C
100
AcDbEntity
8
0
6
ByLayer
62
0
370
-1
100
AcDbLine
10
13
20
-20.5
11
33
21
-20.5
0
LINE
5
11D
100
AcDbEntity
8
0
6
ByLayer
62
0
370
-1
100
AcDbLine
10
33
20
-13.2177978871
11
33
21
-20.5
0
ARC
5
11E
100
AcDbEntity
8
0
6
ByLayer
62
0
370
-1
100
AcDbCircle
10
21
20
-16.5
40
1.5
100
AcDbArc
50
-180
51
-0
0
ARC
5
11F
100
AcDbEntity
8
0
6
ByLayer
62
0
370
-1
100
AcDbCircle
10
21
20
11.5
40
1.5
100
AcDbArc
50
-0
51
-180
0
ENDBLK
5
91
330
8F
100
AcDbEntity
8
0
100
AcDbBlockEnd
0
BLOCK
5
93
330
92
100
AcDbEntity
8
0
100
AcDbBlockBegin
2
CUT001008009005_PROJ002
70
0
10
0
20
0
3
CUT001008009005_PROJ002
1

0
LINE
5
120
100
AcDbEntity
8
0
6
ByLayer
62
0
370
-1
100
AcDbLine
10
-15.5
20
-10
11
-15.5
21
15
0
LINE
5
121
100
AcDbEntity
8
0
6
ByLayer
62
0
370
-1
100
AcDbLine
10
-15.5
20
15
11
20.5
21
15
0
LWPOLYLINE
5
122
100
AcDbEntity
8
0
6
ByLayer
62
0
370
-1
100
AcDbPolyline
90
2
70
0
43
0
10
-11.5
20
-10
10
-10
20
-10
0
LINE
5
123
100
AcDbEntity
8
0
6
ByLayer
62
0
370
-1
100
AcDbLine
10
-15.5
20
-10
11
20.5
21
-10
0
ARC
5
124
100
AcDbEntity
8
0
6
ByLayer
62
0
370
-1
100
AcDbCircle
10
7.58
20
-4.38
40
1.5
100
AcDbArc
50
-90
51
-180
0
ARC
5
125
100
AcDbEntity
8
0
6
ByLayer
62
0
370
-1
100
AcDbCircle
10
7.58
20
-4.38
40
1.5
100
AcDbArc
50
-180
51
-90
0
ARC
5
126
100
AcDbEntity
8
0
6
ByLayer
62
0
370
-1
100
AcDbCircle
10
0
20
8.75
40
1.5
100
AcDbArc
50
-90
51
-180
0
ARC
5
127
100
AcDbEntity
8
0
6
ByLayer
62
0
370
-1
100
AcDbCircle
10
0
20
8.75
40
1.5
100
AcDbArc
50
-180
51
-90
0
ARC
5
128
100
AcDbEntity
8
0
6
ByLayer
62
0
370
-1
100
AcDbCircle
10
-7.58
20
-4.38
40
1.5
100
AcDbArc
50
-90
51
-180
0
ARC
5
129
100
AcDbEntity
8
0
6
ByLayer
62
0
370
-1
100
AcDbCircle
10
-7.58
20
-4.38
40
1.5
100
AcDbArc
50
-180
51
-90
0
CIRCLE
5
12A
100
AcDbEntity
8
0
6
ByLayer
62
0
370
-1
100
AcDbCircle
10
-3.5527136788e-15
20
1.7763568394e-15
40
6
0
LINE
5
12B
100
AcDbEntity
8
0
6
ByLayer
62
0
370
-1
100
AcDbLine
10
20.5
20
-10
11
20.5
21
15
0
ENDBLK
5
94
330
92
100
AcDbEntity
8
0
100
AcDbBlockEnd
0
BLOCK
5
96
330
95
100
AcDbEntity
8
0
100
AcDbBlockBegin
2
CUT001008009005_PROJ001
70
0
10
0
20
0
3
CUT001008009005_PROJ001
1

0
LINE
5
12C
100
AcDbEntity
8
0
6
ByLayer
62
0
370
-1
100
AcDbLine
10
13
20
-15
11
33
21
-15
0
LINE
5
12D
100
AcDbEntity
8
0
6
ByLayer
62
0
370
-1
100
AcDbLine
10
33
20
-13
11
33
21
-15
0
LINE
5
12E
100
AcDbEntity
8
0
6
ByLayer
62
0
370
-1
100
AcDbLine
10
15
20
-13
11
33
21
-13
0
LINE
5
12F
100
AcDbEntity
8
0
6
ByLayer
62
0
370
-1
100
AcDbLine
10
15
20
8
11
15
21
-13
0
LINE
5
130
100
AcDbEntity
8
0
6
ByLayer
62
0
370
-1
100
AcDbLine
10
15
20
8
11
33
21
8
0
LINE
5
131
100
AcDbEntity
8
0
6
ByLayer
62
0
370
-1
100
AcDbLine
10
33
20
10
11
33
21
8
0
LINE
5
132
100
AcDbEntity
8
0
6
ByLayer
62
0
370
-1
100
AcDbLine
10
13
20
10
11
33
21
10
0
LINE
5
133
100
AcDbEntity
8
0
6
ByLayer
62
0
370
-1
100
AcDbLine
10
13
20
10
11
13
21
-15
0
LINE
5
134
100
AcDbEntity
8
0
6
ByLayer
62
0
370
-1
100
AcDbLine
10
33
20
-13
11
33
21
-15
0
LWPOLYLINE
5
135
100
AcDbEntity
8
0
6
ByLayer
62
0
370
-1
100
AcDbPolyline
90
2
70
0
43
0
10
22.5
20
-13
10
19.5
20
-13
0
LWPOLYLINE
5
136
100
AcDbEntity
8
0
6
ByLayer
62
0
370
-1
100
AcDbPolyline
90
2
70
0
43
0
10
15
20
-8.75
10
15
20
-10.25
0
LWPOLYLINE
5
137
100
AcDbEntity
8
0
6
ByLayer
62
0
370
-1
100
AcDbPolyline
90
2
70
0
43
0
10
15
20
-7.25
10
15
20
-8.75
0
LWPOLYLINE
5
138
100
AcDbEntity
8
0
6
ByLayer
62
0
370
-1
100
AcDbPolyline
90
2
70
0
43
0
10
15
20
4.38
10
15
20
2.88
0
LWPOLYLINE
5
139
100
AcDbEntity
8
0
6
ByLayer
62
0
370
-1
100
AcDbPolyline
90
2
70
0
43
0
10
15
20
5.88
10
15
20
4.38
0
LWPOLYLINE
5
13A
100
AcDbEntity
8
0
6
ByLayer
62
0
370
-1
100
AcDbPolyline
90
2
70
0
43
0
10
15
20
6
10
15
20
5.88
0
LWPOLYLINE
5
13B
100
AcDbEntity
8
0
6
ByLayer
62
0
370
-1
100
AcDbPolyline
90
2
70
0
43
0
10
15
20
2.88
10
15
20
-1.95121696578e-14
0
LWPOLYLINE
5
13C
100
AcDbEntity
8
0
6
ByLayer
62
0
370
-1
100
AcDbPolyline
90
2
70
0
43
0
10
15
20
0
10
15
20
-6
0
LWPOLYLINE
5
13D
100
AcDbEntity
8
0
6
ByLayer
62
0
370
-1
100
AcDbPolyline
90
2
70
0
43
0
10
33
20
8
10
29
20
8
0
LINE
5
13E
100
AcDbEntity
8
0
6
ByLayer
62
0
370
-1
100
AcDbLine
10
33
20
10
11
33
21
8
0
ENDBLK
5
97
330
95
100
AcDbEntity
8
0
100
AcDbBlockEnd
0
ENDSEC
0
SECTION
2
ENTITIES
0
INSERT
5
13F
100
AcDbEntity
8
0
6
ByLayer
62
256
370
-1
100
AcDbBlockReference
2
CUT001008009005_PROJ002
10
0
20
0
30
0
41
1
42
1
43
0
50
0
70
1
71
1
44
0
45
0
0
INSERT
5
140
100
AcDbEntity
8
0
6
ByLayer
62
256
370
-1
100
AcDbBlockReference
2
CUT001008009005_PROJ001
10
27
20
5
30
0
41
1
42
1
43
0
50
0
70
1
71
1
44
0
45
0
0
INSERT
5
141
100
AcDbEntity
8
0
6
ByLayer
62
256
370
-1
100
AcDbBlockReference
2
CUT001008009005_PROJ
10
0
20
17
30
0
41
1
42
1
43
0
50
90
70
1
71
1
44
0
45
0
0
LINE
5
142
100
AcDbEntity
8
base
6
ByLayer
62
256
370
-1
100
AcDbLine
10
-7.58
20
-4.38
11
7.58
21
-4.38
0
LINE
5
143
100
AcDbEntity
8
base
6
ByLayer
62
256
370
-1
100
AcDbLine
10
-10
20
0
11
10
21
0
0
LINE
5
144
100
AcDbEntity
8
base
6
ByLayer
62
256
370
-1
100
AcDbLine
10
-7.58
20
-4.38
11
-7.58
21
20
0
LINE
5
145
100
AcDbEntity
8
base
6
ByLayer
62
256
370
-1
100
AcDbLine
10
7.58
20
-4.38
11
7.58
21
20
0
LINE
5
146
100
AcDbEntity
8
base
6
ByLayer
62
256
370
-1
100
AcDbLine
10
7.58
20
8.75
11
10
21
8.75
0
LINE
5
147
100
AcDbEntity
8
base
6
ByLayer
62
256
370
-1
100
AcDbLine
10
0
20
8.75
11
-10
21
8.75
0
LINE
5
148
100
AcDbEntity
8
base
6
ByLayer
62
256
370
-1
100
AcDbLine
10
16.5
20
38
11
-11.5
21
38
0
LINE
5
149
100
AcDbEntity
8
base
6
ByLayer
62
256
370
-1
100
AcDbLine
10
-11.5
20
38
11
-11.5
21
50
0
LINE
5
14A
100
AcDbEntity
8
base
6
ByLayer
62
256
370
-1
100
AcDbLine
10
-11.5
20
38
11
-11.5
21
30
0
LINE
5
14B
100
AcDbEntity
8
base
6
ByLayer
62
256
370
-1
100
AcDbLine
10
16.5
20
30
11
16.5
21
50
0
DIMENSION
5
14C
100
AcDbEntity
8
dim
6
ByLayer
62
256
370
-1
100
AcDbDimension
2
*D1
10
20.5
20
62.2592
30
0
11
12.5
21
63.8842
31
0
70
32
71
5
3
Standard
53
0
210
0
220
0
230
1
100
AcDbAlignedDimension
13
4.5
23
57.5
33
0
14
20.5
24
50
34
0
100
AcDbRotatedDimension
0
DIMENSION
5
14D
100
AcDbEntity
8
dim
6
ByLayer
62
256
370
-1
100
AcDbDimension
2
*D2
10
25.06752
20
50
30
0
11
23.44252
21
48
31
0
70
32
71
5
3
Standard
53
0
210
0
220
0
230
1
100
AcDbAlignedDimension
13
4.5
23
46
33
0
14
20.5
24
50
34
0
50
90
100
AcDbRotatedDimension
0
DIMENSION
5
14E
100
AcDbEntity
8
dim
6
ByLayer
62
256
370
-1
100
AcDbDimension
2
*D3
10
25.06752
20
38
30
0
11
23.44252
21
34
31
0
70
32
71
5
3
Standard
53
0
210
0
220
0
230
1
100
AcDbAlignedDimension
13
20.5
23
30
33
0
14
16.5
24
38
34
0
50
90
100
AcDbRotatedDimension
0
DIMENSION
5
14F
100
AcDbEntity
8
dim
6
ByLayer
62
256
370
-1
100
AcDbDimension
2
*D4
10
29.98272
20
50
30
0
11
28.35772
21
40
31
0
70
32
71
5
3
Standard
53
0
210
0
220
0
230
1
100
AcDbAlignedDimension
13
20.5
23
30
33
0
14
20.5
24
50
34
0
50
90
100
AcDbRotatedDimension
0
DIMENSION
5
150
100
AcDbEntity
8
dim
6
ByLayer
62
256
370
-1
100
AcDbDimension
2
*D5
10
20.5
20
57.91744
30
0
11
18.5
21
59.54244
31
0
70
32
71
5
3
Standard
53
0
210
0
220
0
230
1
100
AcDbAlignedDimension
13
16.5
23
50
33
0
14
20.5
24
50
34
0
100
AcDbRotatedDimension
0
DIMENSION
5
151
100
AcDbEntity
8
dim
6
ByLayer
62
256
370
-1
100
AcDbDimension
2
*D6
10
-26.13248
20
4.97655694431e-15
30
0
11
-27.75748
21
-5
31
0
70
32
71
5
3
Standard
53
0
210
0
220
0
230
1
100
AcDbAlignedDimension
13
-15.5
23
-10
33
0
14
-3.5527136788e-15
24
1.7763568394e-15
34
0
50
90
100
AcDbRotatedDimension
0
DIMENSION
5
152
100
AcDbEntity
8
dim
6
ByLayer
62
256
370
-1
100
AcDbDimension
2
*D7
10
33.91488
20
15
30
0
11
32.28988
21
2.5
31
0
70
32
71
5
3
Standard
53
0
210
0
220
0
230
1
100
AcDbAlignedDimension
13
40
23
-10
33
0
14
40
24
15
34
0
50
90
100
AcDbRotatedDimension
0
LINE
5
153
100
AcDbEntity
8
base2
6
ByLayer
62
256
370
-1
100
AcDbLine
10
-15.5
20
32
11
20.5
21
32
0
DIMENSION
5
154
100
AcDbEntity
8
dim
6
ByLayer
62
256
370
-1
100
AcDbDimension
2
*D8
10
42
20
21.2992
30
0
11
41
21
22.9242
31
0
70
32
71
5
72
0
3
Standard
53
0
210
0
220
0
230
1
100
AcDbAlignedDimension
13
40
23
15
33
0
14
42
24
13
34
0
100
AcDbRotatedDimension
0
DIMENSION
5
155
100
AcDbEntity
8
dim
6
ByLayer
62
256
370
-1
100
AcDbDimension
2
*D9
10
-4.83179052324e-15
20
-20.8896
30
0
11
-7.75
21
-19.2646
31
0
70
32
71
5
3
Standard
53
0
210
0
220
0
230
1
100
AcDbAlignedDimension
13
-15.5
23
-10
33
0
14
-3.5527136788e-15
24
1.7763568394e-15
34
0
100
AcDbRotatedDimension
0
DIMENSION
5
156
100
AcDbEntity
8
dim
6
ByLayer
62
256
370
-1
100
AcDbDimension
2
*D10
10
20.5
20
-26.3168
30
0
11
2.5
21
-24.6918
31
0
70
32
71
5
3
Standard
53
0
210
0
220
0
230
1
100
AcDbAlignedDimension
13
-15.5
23
-10
33
0
14
20.5
24
-10
34
0
100
AcDbRotatedDimension
0
LINE
5
157
100
AcDbEntity
8
0
6
ByLayer
62
256
370
-1
100
AcDbLine
10
-15.5
20
13
11
20.5
21
13
0
LINE
5
158
100
AcDbEntity
8
0
6
ByLayer
62
256
370
-1
100
AcDbLine
10
-15.5
20
-8
11
20.5
21
-8
0
DIMENSION
5
159
100
AcDbEntity
8
dim
6
ByLayer
62
256
370
-1
100
AcDbDimension
2
*D11
10
4.5
20
57.5
30
0
11
9.21074918411
21
53.8241372272
31
0
70
36
71
5
3
Standard
53
0
210
0
220
0
230
1
100
AcDbRadialDimension
15
11.3006821317
25
48.2263425477
35
0
40
0
0
LINE
5
15A
100
AcDbEntity
8
0
6
ByLayer
62
256
370
-1
100
AcDbLine
10
-4.21779788709
20
13
11
-4.21779788709
21
15
0
LINE
5
15B
100
AcDbEntity
8
0
6
ByLayer
62
256
370
-1
100
AcDbLine
10
13.2177978871
20
13
11
13.2177978871
21
15
0
LINE
5
15C
100
AcDbEntity
8
0
6
ByLayer
62
256
370
-1
100
AcDbLine
10
-4.21779788709
20
-10
11
-4.21779788709
21
-8
0
LINE
5
15D
100
AcDbEntity
8
0
6
ByLayer
62
256
370
-1
100
AcDbLine
10
13.2177978871
20
-10
11
13.2177978871
21
-8
0
DIMENSION
5
15E
100
AcDbEntity
8
dim
6
ByLayer
62
256
370
-1
100
AcDbDimension
2
*D12
10
0
20
50
30
0
11
-1.625
21
53.75
31
0
70
32
71
5
3
Standard
53
0
210
0
220
0
230
1
100
AcDbAlignedDimension
13
4.5
23
57.5
33
0
14
-4.21779788709
24
50
34
0
50
90
100
AcDbRotatedDimension
0
DIMENSION
5
15F
100
AcDbEntity
8
dim
6
ByLayer
62
256
370
-1
100
AcDbDimension
2
*D13
10
-20
20
-10
30
0
11
-21.625
21
-7.19
31
0
70
32
71
5
72
0
3
Standard
53
0
210
0
220
0
230
1
100
AcDbAlignedDimension
13
-7.58
23
-4.38
33
0
14
-15.5
24
-10
34
0
50
90
100
AcDbRotatedDimension
0
DIMENSION
5
160
100
AcDbEntity
8
dim
6
ByLayer
62
256
370
-1
100
AcDbDimension
2
*D14
10
-20
20
15
30
0
11
-21.625
21
11.875
31
0
70
32
71
5
72
0
3
Standard
53
0
210
0
220
0
230
1
100
AcDbAlignedDimension
13
0
23
8.75
33
0
14
-15.5
24
15
34
0
50
90
100
AcDbRotatedDimension
0
DIMENSION
5
161
100
AcDbEntity
8
dim
6
ByLayer
62
256
370
-1
100
AcDbDimension
2
*D15
10
-7.58
20
-15
30
0
11
-11.54
21
-13.375
31
0
70
32
71
5
72
0
3
Standard
53
0
210
0
220
0
230
1
100
AcDbAlignedDimension
13
-15.5
23
-10
33
0
14
-7.58
24
-4.38
34
0
100
AcDbRotatedDimension
0
DIMENSION
5
162
100
AcDbEntity
8
dim
6
ByLayer
62
256
370
-1
100
AcDbDimension
2
*D16
10
-1.45422004516e-15
20
-15
30
0
11
-3.79
21
-13.375
31
0
70
32
71
5
72
0
3
Standard
53
0
210
0
220
0
230
1
100
AcDbAlignedDimension
13
-7.58
23
-4.38
33
0
14
0
24
8.75
34
0
100
AcDbRotatedDimension
0
DIMENSION
5
163
100
AcDbEntity
8
dim
6
ByLayer
62
256
370
-1
100
AcDbDimension
2
*D17
10
7.58
20
-15
30
0
11
3.79
21
-13.375
31
0
70
32
71
5
72
0
3
Standard
53
0
210
0
220
0
230
1
100
AcDbAlignedDimension
13
0
23
8.75
33
0
14
7.58
24
-4.38
34
0
100
AcDbRotatedDimension
0
DIMENSION
5
164
100
AcDbEntity
8
dim
6
ByLayer
62
256
370
-1
100
AcDbDimension
2
*D18
10
-1.40449376635
20
9.27668516238
30
0
11
0.570575592581
21
10.2715349135
31
0
70
35
1
  ø3
71
5
72
0
3
Standard
53
0
210
0
220
0
230
1
100
AcDbDiametricDimension
15
1.40449376635
25
8.22331483762
35
0
40
0
0
DIMENSION
5
165
100
AcDbEntity
8
dim
6
ByLayer
62
256
370
-1
100
AcDbDimension
2
*D19
10
6.12693014674
20
-4.00772590536
30
0
11
7.98329693586
21
-2.8058409923
31
0
70
35
1
  ø3
71
5
72
0
3
Standard
53
0
210
0
220
0
230
1
100
AcDbDiametricDimension
15
9.03306985326
25
-4.75227409464
35
0
40
0
0
DIMENSION
5
166
100
AcDbEntity
8
dim
6
ByLayer
62
256
370
-1
100
AcDbDimension
2
*D20
10
-6.18897435116
20
-4.94129105129
30
0
11
-6.97193469444
21
-2.87305554708
31
0
70
35
1
  ø3
71
5
72
0
3
Standard
53
0
210
0
220
0
230
1
100
AcDbDiametricDimension
15
-8.97102564884
25
-3.81870894871
35
0
40
0
0
MTEXT
5
167
100
AcDbEntity
8
dim
6
ByLayer
62
256
370
-1
100
AcDbMText
10
-20
20
-30
30
0
40
3
41
85.25
71
1
72
1
1
Отверстия расположены\Pв углах равностороннего треугольника
7
cyrillic_ii
210
0
220
0
230
1
50
0
73
2
44
1
0
MTEXT
5
168
100
AcDbEntity
8
dim
6
ByLayer
62
256
370
-1
100
AcDbMText
10
-22
20
28
30
0
40
3
41
44.1666666667
71
1
72
1
1
Сверлить обе стенки
7
cyrillic_ii
210
0
220
0
230
1
50
0
73
2
44
1
0
DIMENSION
5
169
100
AcDbEntity
8
dim
6
ByLayer
62
256
370
-1
100
AcDbDimension
2
*D21
10
-12.7313578027
20
38.8565967323
30
0
11
-10.5720202067
21
39.3339709529
31
0
70
35
1
  ø3
71
5
72
0
3
Standard
53
0
210
0
220
0
230
1
100
AcDbDiametricDimension
15
-10.2686421973
25
37.1434032677
35
0
40
0
0
DIMENSION
5
16A
100
AcDbEntity
8
dim
6
ByLayer
62
256
370
-1
100
AcDbDimension
2
*D22
10
17.4458889376
20
39.1641710002
30
0
11
15.2388147498
21
39.0247130158
31
0
70
35
1
  ø3
71
5
72
0
3
Standard
53
0
210
0
220
0
230
1
100
AcDbDiametricDimension
15
15.5541110624
25
36.8358289998
35
0
40
0
0
DIMENSION
5
16B
100
AcDbEntity
8
dim
6
ByLayer
62
256
370
-1
100
AcDbDimension
2
*D23
10
-4.86829464833
20
3.50709384206
30
0
11
0.949837915557
21
1.31849646726
31
0
70
35
1
ø12.1
71
5
3
Standard
53
0
210
0
220
0
230
1
100
AcDbDiametricDimension
15
4.86829464833
25
-3.50709384206
35
0
40
0
0
ENDSEC
0
SECTION
2
OBJECTS
0
DICTIONARY
5
C
330
0
100
AcDbDictionary
281
1
3
ACAD_GROUP
350
D
0
DICTIONARY
5
D
330
C
100
AcDbDictionary
281
1
0
ENDSEC
0
EOF
