999
dxfrw 0.5.10
0
SECTION
2
HEADER
9
$ACADVER
1
AC1021
9
$HANDSEED
5
20000
9
$DWGCODEPAGE
3
ANSI_1252
9
$INSBASE
10
0
20
0
30
0
9
$EXTMIN
10
10000000000
20
10000000000
30
0
9
$EXTMAX
10
-10000000000
20
-10000000000
30
0
9
$LIMMIN
10
0
20
0
9
$LIMMAX
10
420
20
297
9
$ORTHOMODE
70
0
9
$LTSCALE
40
1
9
$TEXTSTYLE
7
STANDARD
9
$CLAYER
8
dim
9
$DIMASZ
40
2.5
9
$DIMLFAC
40
1
9
$DIMSCALE
40
1
9
$DIMEXO
40
0.625
9
$DIMEXE
40
1.25
9
$DIMTXT
40
2.5
9
$DIMTSZ
40
0
9
$DIMAUNIT
70
0
9
$DIMADEC
70
0
9
$DIMLUNIT
70
2
9
$DIMSTYLE
2
Standard
9
$DIMGAP
40
0.625
9
$DIMTIH
70
0
9
$LUNITS
70
2
9
$LUPREC
70
4
9
$AUNITS
70
0
9
$AUPREC
70
2
9
$SPLINESEGS
70
8
9
$GRIDMODE
70
1
9
$SNAPSTYLE
70
0
9
$PINSBASE
10
0
20
0
30
0
9
$PLIMMIN
10
0
20
0
9
$PLIMMAX
10
210
20
297
9
$INSUNITS
70
0
9
$PSVPSCALE
40
1
0
ENDSEC
0
SECTION
2
CLASSES
0
ENDSEC
0
SECTION
2
TABLES
0
TABLE
2
VPORT
5
8
330
0
100
AcDbSymbolTable
70
1
0
VPORT
5
31
330
2
100
AcDbSymbolTableRecord
100
AcDbViewportTableRecord
2
*ACTIVE
70
0
10
0
20
0
11
1
21
1
12
60.3291595655
22
11.7295306837
13
0
23
0
14
10
24
10
15
10
25
10
16
0
26
0
36
1
17
0
27
0
37
0
40
77.021184
41
1.66666666667
42
50
43
0
44
0
50
0
51
0
71
0
72
100
73
1
74
3
75
0
76
1
77
0
78
0
281
0
65
1
110
0
120
0
130
0
111
1
121
0
131
0
112
0
122
1
132
0
79
0
146
0
348
10020
60
7
61
5
292
1
282
1
141
0
142
0
63
250
421
3358443
0
ENDTAB
0
TABLE
2
LTYPE
5
5
330
0
100
AcDbSymbolTable
70
4
0
LTYPE
5
14
330
5
100
AcDbSymbolTableRecord
100
AcDbLinetypeTableRecord
2
ByBlock
70
0
3

72
65
73
0
40
0
0
LTYPE
5
15
330
5
100
AcDbSymbolTableRecord
100
AcDbLinetypeTableRecord
2
ByLayer
70
0
3

72
65
73
0
40
0
0
LTYPE
5
16
330
5
100
AcDbSymbolTableRecord
100
AcDbLinetypeTableRecord
2
Continuous
70
0
3
Solid line
72
65
73
0
40
0
0
LTYPE
5
32
330
5
100
AcDbSymbolTableRecord
100
AcDbLinetypeTableRecord
2
DOT
70
0
3
Dot . . . . . . . . . . . . . . . . . . . . . .
72
65
73
2
40
6.35
49
0
74
0
49
-6.35
74
0
0
LTYPE
5
33
330
5
100
AcDbSymbolTableRecord
100
AcDbLinetypeTableRecord
2
DOT2
70
0
3
Dot (.5x) .....................................
72
65
73
2
40
3.175
49
0
74
0
49
-3.175
74
0
0
LTYPE
5
34
330
5
100
AcDbSymbolTableRecord
100
AcDbLinetypeTableRecord
2
DOTX2
70
0
3
Dot (2x) .  .  .  .  .  .  .  .  .  .  .  .  .
72
65
73
2
40
12.7
49
0
74
0
49
-12.7
74
0
0
LTYPE
5
35
330
5
100
AcDbSymbolTableRecord
100
AcDbLinetypeTableRecord
2
DASHED
70
0
3
Dot . . . . . . . . . . . . . . . . . . . . . .
72
65
73
2
40
19.05
49
12.7
74
0
49
-6.35
74
0
0
LTYPE
5
36
330
5
100
AcDbSymbolTableRecord
100
AcDbLinetypeTableRecord
2
DASHED2
70
0
3
Dashed (.5x) _ _ _ _ _ _ _ _ _ _ _ _ _ _ _ _ _
72
65
73
2
40
9.525
49
6.35
74
0
49
-3.175
74
0
0
LTYPE
5
37
330
5
100
AcDbSymbolTableRecord
100
AcDbLinetypeTableRecord
2
DASHEDX2
70
0
3
Dashed (2x) ____  ____  ____  ____  ____  ___
72
65
73
2
40
38.1
49
25.4
74
0
49
-12.7
74
0
0
LTYPE
5
38
330
5
100
AcDbSymbolTableRecord
100
AcDbLinetypeTableRecord
2
DASHDOT
70
0
3
Dash dot __ . __ . __ . __ . __ . __ . __ . __
72
65
73
4
40
25.4
49
12.7
74
0
49
-6.35
74
0
49
0
74
0
49
-6.35
74
0
0
LTYPE
5
39
330
5
100
AcDbSymbolTableRecord
100
AcDbLinetypeTableRecord
2
DASHDOT2
70
0
3
Dash dot (.5x) _._._._._._._._._._._._._._._.
72
65
73
4
40
12.7
49
6.35
74
0
49
-3.175
74
0
49
0
74
0
49
-3.175
74
0
0
LTYPE
5
3A
330
5
100
AcDbSymbolTableRecord
100
AcDbLinetypeTableRecord
2
DASHDOTX2
70
0
3
Dash dot (2x) ____  .  ____  .  ____  .  ___
72
65
73
4
40
50.8
49
25.4
74
0
49
-12.7
74
0
49
0
74
0
49
-12.7
74
0
0
LTYPE
5
3B
330
5
100
AcDbSymbolTableRecord
100
AcDbLinetypeTableRecord
2
DIVIDE
70
0
3
Divide ____ . . ____ . . ____ . . ____ . . ____
72
65
73
6
40
31.75
49
12.7
74
0
49
-6.35
74
0
49
0
74
0
49
-6.35
74
0
49
0
74
0
49
-6.35
74
0
0
LTYPE
5
3C
330
5
100
AcDbSymbolTableRecord
100
AcDbLinetypeTableRecord
2
DIVIDE2
70
0
3
Divide (.5x) __..__..__..__..__..__..__..__.._
72
65
73
6
40
15.875
49
6.35
74
0
49
-3.175
74
0
49
0
74
0
49
-3.175
74
0
49
0
74
0
49
-3.175
74
0
0
LTYPE
5
3D
330
5
100
AcDbSymbolTableRecord
100
AcDbLinetypeTableRecord
2
DIVIDEX2
70
0
3
Divide (2x) ________  .  .  ________  .  .  _
72
65
73
6
40
63.5
49
25.4
74
0
49
-12.7
74
0
49
0
74
0
49
-12.7
74
0
49
0
74
0
49
-12.7
74
0
0
LTYPE
5
3E
330
5
100
AcDbSymbolTableRecord
100
AcDbLinetypeTableRecord
2
BORDER
70
0
3
Border __ __ . __ __ . __ __ . __ __ . __ __ .
72
65
73
6
40
44.45
49
12.7
74
0
49
-6.35
74
0
49
12.7
74
0
49
-6.35
74
0
49
0
74
0
49
-6.35
74
0
0
LTYPE
5
3F
330
5
100
AcDbSymbolTableRecord
100
AcDbLinetypeTableRecord
2
BORDER2
70
0
3
Border (.5x) __.__.__.__.__.__.__.__.__.__.__.
72
65
73
6
40
22.225
49
6.35
74
0
49
-3.175
74
0
49
6.35
74
0
49
-3.175
74
0
49
0
74
0
49
-3.175
74
0
0
LTYPE
5
40
330
5
100
AcDbSymbolTableRecord
100
AcDbLinetypeTableRecord
2
BORDERX2
70
0
3
Border (2x) ____  ____  .  ____  ____  .  ___
72
65
73
6
40
88.9
49
25.4
74
0
49
-12.7
74
0
49
25.4
74
0
49
-12.7
74
0
49
0
74
0
49
-12.7
74
0
0
LTYPE
5
41
330
5
100
AcDbSymbolTableRecord
100
AcDbLinetypeTableRecord
2
CENTER
70
0
3
Center ____ _ ____ _ ____ _ ____ _ ____ _ ____
72
65
73
4
40
50.8
49
31.75
74
0
49
-6.35
74
0
49
6.35
74
0
49
-6.35
74
0
0
LTYPE
5
42
330
5
100
AcDbSymbolTableRecord
100
AcDbLinetypeTableRecord
2
CENTER2
70
0
3
Center (.5x) ___ _ ___ _ ___ _ ___ _ ___ _ ___
72
65
73
4
40
28.575
49
19.05
74
0
49
-3.175
74
0
49
3.175
74
0
49
-3.175
74
0
0
LTYPE
5
43
330
5
100
AcDbSymbolTableRecord
100
AcDbLinetypeTableRecord
2
CENTERX2
70
0
3
Center (2x) ________  __  ________  __  _____
72
65
73
4
40
101.6
49
63.5
74
0
49
-12.7
74
0
49
12.7
74
0
49
-12.7
74
0
0
ENDTAB
0
TABLE
2
LAYER
5
2
330
0
100
AcDbSymbolTable
70
1
0
LAYER
5
10
330
2
100
AcDbSymbolTableRecord
100
AcDbLayerTableRecord
2
0
70
0
62
7
6
CONTINUOUS
370
25
390
F
0
LAYER
5
44
330
2
100
AcDbSymbolTableRecord
100
AcDbLayerTableRecord
2
dim
70
0
62
7
6
CONTINUOUS
370
-3
390
F
0
LAYER
5
45
330
2
100
AcDbSymbolTableRecord
100
AcDbLayerTableRecord
2
base
70
4
62
7
6
CENTER
370
0
390
F
0
LAYER
5
46
330
2
100
AcDbSymbolTableRecord
100
AcDbLayerTableRecord
2
base2
70
0
62
7
6
CONTINUOUS
370
0
390
F
0
ENDTAB
0
TABLE
2
STYLE
5
3
330
0
100
AcDbSymbolTable
70
3
0
STYLE
5
47
330
2
100
AcDbSymbolTableRecord
100
AcDbTextStyleTableRecord
2
cyrillic_ii
70
0
40
0
41
1
50
0
71
0
42
1
3
cyrillic_ii
4

0
STYLE
5
48
330
2
100
AcDbSymbolTableRecord
100
AcDbTextStyleTableRecord
2
Standard
70
0
40
0
41
1
50
0
71
0
42
1
3
txt
4

0
ENDTAB
0
TABLE
2
VIEW
5
6
330
0
100
AcDbSymbolTable
70
0
0
ENDTAB
0
TABLE
2
UCS
5
7
330
0
100
AcDbSymbolTable
70
0
0
ENDTAB
0
TABLE
2
APPID
5
9
330
0
100
AcDbSymbolTable
70
1
0
APPID
5
12
330
9
100
AcDbSymbolTableRecord
100
AcDbRegAppTableRecord
2
ACAD
70
0
0
ENDTAB
0
TABLE
2
DIMSTYLE
5
A
330
0
100
AcDbSymbolTable
70
1
100
AcDbDimStyleTable
71
1
0
DIMSTYLE
105
49
330
A
100
AcDbSymbolTableRecord
100
AcDbDimStyleTableRecord
2
Standard
70
0
40
1
41
2.5
42
0.625
43
0.38
44
1.25
45
0
46
0
47
0
48
0
140
2.5
141
0.09
142
0
143
25.4
144
1
145
0
146
1
147
0.625
148
0
71
0
72
0
73
0
74
1
75
0
76
0
77
0
78
0
79
0
170
0
171
2
172
0
173
0
174
0
175
0
176
0
177
0
178
0
179
0
271
4
272
4
273
2
274
2
275
0
276
0
277
2
278
46
279
0
280
0
281
0
282
0
283
1
284
0
285
0
286
0
288
0
289
3
340
Standard
341

371
-2
372
-2
0
ENDTAB
0
TABLE
2
BLOCK_RECORD
5
1
330
0
100
AcDbSymbolTable
70
2
0
BLOCK_RECORD
5
1F
330
1
100
AcDbSymbolTableRecord
100
AcDbBlockTableRecord
2
*Model_Space
70
0
280
1
281
0
0
BLOCK_RECORD
5
1E
330
1
100
AcDbSymbolTableRecord
100
AcDbBlockTableRecord
2
*Paper_Space
70
0
280
1
281
0
0
BLOCK_RECORD
5
4A
330
1
100
AcDbSymbolTableRecord
100
AcDbBlockTableRecord
2
*D16
70
0
280
1
281
0
0
BLOCK_RECORD
5
4D
330
1
100
AcDbSymbolTableRecord
100
AcDbBlockTableRecord
2
*D6
70
0
280
1
281
0
0
BLOCK_RECORD
5
50
330
1
100
AcDbSymbolTableRecord
100
AcDbBlockTableRecord
2
*D7
70
0
280
1
281
0
0
BLOCK_RECORD
5
53
330
1
100
AcDbSymbolTableRecord
100
AcDbBlockTableRecord
2
*D12
70
0
280
1
281
0
0
BLOCK_RECORD
5
56
330
1
100
AcDbSymbolTableRecord
100
AcDbBlockTableRecord
2
*D1
70
0
280
1
281
0
0
BLOCK_RECORD
5
59
330
1
100
AcDbSymbolTableRecord
100
AcDbBlockTableRecord
2
*D8
70
0
280
1
281
0
0
BLOCK_RECORD
5
5C
330
1
100
AcDbSymbolTableRecord
100
AcDbBlockTableRecord
2
*D15
70
0
280
1
281
0
0
BLOCK_RECORD
5
5F
330
1
100
AcDbSymbolTableRecord
100
AcDbBlockTableRecord
2
*D3
70
0
280
1
281
0
0
BLOCK_RECORD
5
62
330
1
100
AcDbSymbolTableRecord
100
AcDbBlockTableRecord
2
*D2
70
0
280
1
281
0
0
BLOCK_RECORD
5
65
330
1
100
AcDbSymbolTableRecord
100
AcDbBlockTableRecord
2
*D9
70
0
280
1
281
0
0
BLOCK_RECORD
5
68
330
1
100
AcDbSymbolTableRecord
100
AcDbBlockTableRecord
2
*D17
70
0
280
1
281
0
0
BLOCK_RECORD
5
6B
330
1
100
AcDbSymbolTableRecord
100
AcDbBlockTableRecord
2
*D4
70
0
280
1
281
0
0
BLOCK_RECORD
5
6E
330
1
100
AcDbSymbolTableRecord
100
AcDbBlockTableRecord
2
*D5
70
0
280
1
281
0
0
BLOCK_RECORD
5
71
330
1
100
AcDbSymbolTableRecord
100
AcDbBlockTableRecord
2
*D11
70
0
280
1
281
0
0
BLOCK_RECORD
5
74
330
1
100
AcDbSymbolTableRecord
100
AcDbBlockTableRecord
2
*D10
70
0
280
1
281
0
0
BLOCK_RECORD
5
77
330
1
100
AcDbSymbolTableRecord
100
AcDbBlockTableRecord
2
*D13
70
0
280
1
281
0
0
BLOCK_RECORD
5
7A
330
1
100
AcDbSymbolTableRecord
100
AcDbBlockTableRecord
2
*D14
70
0
280
1
281
0
0
BLOCK_RECORD
5
7D
330
1
100
AcDbSymbolTableRecord
100
AcDbBlockTableRecord
2
CUT001008_PROJ003
70
0
280
1
281
0
0
BLOCK_RECORD
5
80
330
1
100
AcDbSymbolTableRecord
100
AcDbBlockTableRecord
2
CUT001008_PROJ002
70
0
280
1
281
0
0
BLOCK_RECORD
5
83
330
1
100
AcDbSymbolTableRecord
100
AcDbBlockTableRecord
2
CUT001008_PROJ001
70
0
280
1
281
0
0
ENDTAB
0
ENDSEC
0
SECTION
2
BLOCKS
0
BLOCK
5
20
330
1F
100
AcDbEntity
8
0
100
AcDbBlockBegin
2
*Model_Space
70
0
10
0
20
0
30
0
3
*Model_Space
1

0
ENDBLK
5
21
330
1F
100
AcDbEntity
8
0
100
AcDbBlockEnd
0
BLOCK
5
1C
330
1B
100
AcDbEntity
8
0
100
AcDbBlockBegin
2
*Paper_Space
70
0
10
0
20
0
30
0
3
*Paper_Space
1

0
ENDBLK
5
1D
330
1F
100
AcDbEntity
8
0
100
AcDbBlockEnd
0
BLOCK
5
4B
330
4A
100
AcDbEntity
8
0
100
AcDbBlockBegin
2
*D16
70
1
10
0
20
0
3
*D16
1

0
LINE
5
86
100
AcDbEntity
8
dim
6
CONTINUOUS
62
7
370
0
100
AcDbLine
10
-2
20
9.5
11
10
21
0.5
0
SOLID
5
87
100
AcDbEntity
8
dim
6
CONTINUOUS
62
7
370
0
100
AcDbTrace
10
2
20
6.5
30
0
11
-0.249770794664
21
7.66697227378
31
0
12
0.249770794664
22
8.33302772622
32
0
13
0.249770794664
23
8.33302772622
33
0
0
SOLID
5
88
100
AcDbEntity
8
dim
6
CONTINUOUS
62
7
370
0
100
AcDbTrace
10
6
20
3.5
30
0
11
8.24977079466
21
2.33302772622
31
0
12
7.75022920534
22
1.66697227378
32
0
13
7.75022920534
23
1.66697227378
33
0
0
MTEXT
5
89
100
AcDbEntity
8
dim
6
CONTINUOUS
62
7
370
0
100
AcDbMText
10
5.125
20
6.5
30
0
40
2.5
41
3.61111111111
71
5
72
1
1
   ø5
7
standard
210
0
220
0
230
1
50
323.130102354
73
2
44
1
0
ENDBLK
5
4C
330
4A
100
AcDbEntity
8
0
100
AcDbBlockEnd
0
BLOCK
5
4E
330
4D
100
AcDbEntity
8
0
100
AcDbBlockBegin
2
*D6
70
1
10
0
20
0
3
*D6
1

0
LINE
5
8A
100
AcDbEntity
8
dim
6
CONTINUOUS
62
7
370
0
100
AcDbLine
10
30
20
5
11
30
21
10
0
SOLID
5
8B
100
AcDbEntity
8
dim
6
CONTINUOUS
62
7
370
0
100
AcDbTrace
10
30
20
5
30
0
11
29.5837153422
21
7.5
31
0
12
30.4162846578
22
7.5
32
0
13
30.4162846578
23
7.5
33
0
0
ENDBLK
5
4F
330
4D
100
AcDbEntity
8
0
100
AcDbBlockEnd
0
BLOCK
5
51
330
50
100
AcDbEntity
8
0
100
AcDbBlockBegin
2
*D7
70
1
10
0
20
0
3
*D7
1

0
LINE
5
8C
100
AcDbEntity
8
dim
6
CONTINUOUS
62
7
370
0
100
AcDbLine
10
-10
20
5
11
-10
21
10
0
SOLID
5
8D
100
AcDbEntity
8
dim
6
CONTINUOUS
62
7
370
0
100
AcDbTrace
10
-10
20
5
30
0
11
-10.4162846578
21
7.5
31
0
12
-9.58371534223
22
7.5
32
0
13
-9.58371534223
23
7.5
33
0
0
ENDBLK
5
52
330
50
100
AcDbEntity
8
0
100
AcDbBlockEnd
0
BLOCK
5
54
330
53
100
AcDbEntity
8
0
100
AcDbBlockBegin
2
*D12
70
1
10
0
20
0
3
*D12
1

0
LINE
5
8E
100
AcDbEntity
8
dim
6
CONTINUOUS
62
7
370
0
100
AcDbLine
10
65
20
-35
11
65
21
-46.5
0
SOLID
5
8F
100
AcDbEntity
8
dim
6
CONTINUOUS
62
7
370
0
100
AcDbTrace
10
65
20
-40
30
0
11
64.5837153422
21
-37.5
31
0
12
65.4162846578
22
-37.5
32
0
13
65.4162846578
23
-37.5
33
0
0
SOLID
5
90
100
AcDbEntity
8
dim
6
CONTINUOUS
62
7
370
0
100
AcDbTrace
10
65
20
-41.5
30
0
11
65.4162846578
21
-44
31
0
12
64.5837153422
22
-44
32
0
13
64.5837153422
23
-44
33
0
0
MTEXT
5
91
100
AcDbEntity
8
dim
6
CONTINUOUS
62
7
370
0
100
AcDbMText
10
63.125
20
-37.7083333333
30
0
40
2.5
41
3.33333333333
71
5
72
1
1
1.5
7
standard
210
0
220
0
230
1
50
90
73
2
44
1
0
LINE
5
92
100
AcDbEntity
8
dim
6
CONTINUOUS
62
7
370
0
100
AcDbLine
10
50.625
20
-40
11
66.25
21
-40
0
LINE
5
93
100
AcDbEntity
8
dim
6
CONTINUOUS
62
7
370
0
100
AcDbLine
10
50.625
20
-41.5
11
66.25
21
-41.5
0
ENDBLK
5
55
330
53
100
AcDbEntity
8
0
100
AcDbBlockEnd
0
BLOCK
5
57
330
56
100
AcDbEntity
8
0
100
AcDbBlockBegin
2
*D1
70
1
10
0
20
0
3
*D1
1

0
SOLID
5
94
100
AcDbEntity
8
dim
6
CONTINUOUS
62
7
370
0
100
AcDbTrace
10
7.316718427
20
-21.1583592135
30
0
11
4.89448229095
21
-20.4126615419
31
0
12
5.26681860805
22
-19.6679889076
32
0
13
5.26681860805
23
-19.6679889076
33
0
0
LINE
5
95
100
AcDbEntity
8
dim
6
CONTINUOUS
62
7
370
0
100
AcDbLine
10
10
20
-22.5
11
-0.385293495499
21
-17.3073532523
0
MTEXT
5
96
100
AcDbEntity
8
dim
6
CONTINUOUS
62
7
370
0
100
AcDbMText
10
4.30423795731
20
-17.5558052498
30
0
40
2.5
41
3.61111111111
71
5
72
1
1
M6
7
standard
210
0
220
0
230
1
50
333.434948823
73
2
44
1
0
ENDBLK
5
58
330
56
100
AcDbEntity
8
0
100
AcDbBlockEnd
0
BLOCK
5
5A
330
59
100
AcDbEntity
8
0
100
AcDbBlockBegin
2
*D8
70
1
10
0
20
0
3
*D8
1

0
ENDBLK
5
5B
330
59
100
AcDbEntity
8
0
100
AcDbBlockEnd
0
BLOCK
5
5D
330
5C
100
AcDbEntity
8
0
100
AcDbBlockBegin
2
*D15
70
1
10
0
20
0
3
*D15
1

0
LINE
5
97
100
AcDbEntity
8
dim
6
CONTINUOUS
62
7
370
0
100
AcDbLine
10
9.2917960675
20
8.35410196625
11
22.7082039325
21
1.64589803375
0
SOLID
5
98
100
AcDbEntity
8
dim
6
CONTINUOUS
62
7
370
0
100
AcDbTrace
10
13.7639320225
20
6.11803398875
30
0
11
11.3416958864
21
6.86373166039
31
0
12
11.7140322036
22
7.60840429461
32
0
13
11.7140322036
23
7.60840429461
33
0
0
SOLID
5
99
100
AcDbEntity
8
dim
6
CONTINUOUS
62
7
370
0
100
AcDbTrace
10
18.2360679775
20
3.88196601125
30
0
11
20.6583041136
21
3.13626833961
31
0
12
20.2859677964
22
2.39159570539
32
0
13
20.2859677964
23
2.39159570539
33
0
0
MTEXT
5
9A
100
AcDbEntity
8
dim
6
CONTINUOUS
62
7
370
0
100
AcDbMText
10
16.8385254916
20
6.67705098312
30
0
40
2.5
41
3.61111111111
71
5
72
1
1
   ø5
7
standard
210
0
220
0
230
1
50
333.434948823
73
2
44
1
0
ENDBLK
5
5E
330
5C
100
AcDbEntity
8
0
100
AcDbBlockEnd
0
BLOCK
5
60
330
5F
100
AcDbEntity
8
0
100
AcDbBlockBegin
2
*D3
70
1
10
0
20
0
3
*D3
1

0
LINE
5
9B
100
AcDbEntity
8
dim
6
CONTINUOUS
62
7
370
0
100
AcDbLine
10
40
20
-6
11
55
21
-6
0
SOLID
5
9C
100
AcDbEntity
8
dim
6
CONTINUOUS
62
7
370
0
100
AcDbTrace
10
40
20
-6
30
0
11
42.5
21
-5.58371534223
31
0
12
42.5
22
-6.41628465777
32
0
13
42.5
23
-6.41628465777
33
0
0
SOLID
5
9D
100
AcDbEntity
8
dim
6
CONTINUOUS
62
7
370
0
100
AcDbTrace
10
55
20
-6
30
0
11
52.5
21
-6.41628465777
31
0
12
52.5
22
-5.58371534223
32
0
13
52.5
23
-5.58371534223
33
0
0
MTEXT
5
9E
100
AcDbEntity
8
dim
6
CONTINUOUS
62
7
370
0
100
AcDbMText
10
47.5
20
-4.125
30
0
40
2.5
41
2.5
71
5
72
1
1
15
7
standard
210
0
220
0
230
1
50
0
73
2
44
1
0
LINE
5
9F
100
AcDbEntity
8
dim
6
CONTINUOUS
62
7
370
0
100
AcDbLine
10
40
20
-0.625
11
40
21
-7.25
0
LINE
5
A0
100
AcDbEntity
8
dim
6
CONTINUOUS
62
7
370
0
100
AcDbLine
10
55
20
-0.625
11
55
21
-7.25
0
ENDBLK
5
61
330
5F
100
AcDbEntity
8
0
100
AcDbBlockEnd
0
BLOCK
5
63
330
62
100
AcDbEntity
8
0
100
AcDbBlockBegin
2
*D2
70
1
10
0
20
0
3
*D2
1

0
LINE
5
A1
100
AcDbEntity
8
dim
6
CONTINUOUS
62
7
370
0
100
AcDbLine
10
0
20
-6
11
20
21
-6
0
SOLID
5
A2
100
AcDbEntity
8
dim
6
CONTINUOUS
62
7
370
0
100
AcDbTrace
10
0
20
-6
30
0
11
2.5
21
-5.58371534223
31
0
12
2.5
22
-6.41628465777
32
0
13
2.5
23
-6.41628465777
33
0
0
SOLID
5
A3
100
AcDbEntity
8
dim
6
CONTINUOUS
62
7
370
0
100
AcDbTrace
10
20
20
-6
30
0
11
17.5
21
-6.41628465777
31
0
12
17.5
22
-5.58371534223
32
0
13
17.5
23
-5.58371534223
33
0
0
MTEXT
5
A4
100
AcDbEntity
8
dim
6
CONTINUOUS
62
7
370
0
100
AcDbMText
10
10
20
-4.125
30
0
40
2.5
41
3.05555555556
71
5
72
1
1
20
7
standard
210
0
220
0
230
1
50
0
73
2
44
1
0
LINE
5
A5
100
AcDbEntity
8
dim
6
CONTINUOUS
62
7
370
0
100
AcDbLine
10
-1.14806845671e-16
20
-0.625
11
-2.29613691342e-16
21
-7.25
0
LINE
5
A6
100
AcDbEntity
8
dim
6
CONTINUOUS
62
7
370
0
100
AcDbLine
10
20
20
-0.625
11
20
21
-7.25
0
ENDBLK
5
64
330
62
100
AcDbEntity
8
0
100
AcDbBlockEnd
0
BLOCK
5
66
330
65
100
AcDbEntity
8
0
100
AcDbBlockBegin
2
*D9
70
1
10
0
20
0
3
*D9
1

0
ENDBLK
5
67
330
65
100
AcDbEntity
8
0
100
AcDbBlockEnd
0
BLOCK
5
69
330
68
100
AcDbEntity
8
0
100
AcDbBlockBegin
2
*D17
70
1
10
0
20
0
3
*D17
1

0
LINE
5
A7
100
AcDbEntity
8
dim
6
CONTINUOUS
62
7
370
0
100
AcDbLine
10
5.39067232242
20
8.84110639799
11
14.6093276776
21
1.15889360201
0
SOLID
5
A8
100
AcDbEntity
8
dim
6
CONTINUOUS
62
7
370
0
100
AcDbTrace
10
9.2317787204
20
5.64018439966
30
0
11
7.04472657768
21
6.92084666635
31
0
12
7.57772446514
22
7.5604441313
32
0
13
7.57772446514
23
7.5604441313
33
0
0
SOLID
5
A9
100
AcDbEntity
8
dim
6
CONTINUOUS
62
7
370
0
100
AcDbTrace
10
10.7682212796
20
4.35981560034
30
0
11
12.9552734223
21
3.07915333365
31
0
12
12.4222755349
22
2.4395558687
32
0
13
12.4222755349
23
2.4395558687
33
0
0
MTEXT
5
AA
100
AcDbEntity
8
dim
6
CONTINUOUS
62
7
370
0
100
AcDbMText
10
13.835771528
20
4.2442267504
30
0
40
2.5
41
3.61111111111
71
5
72
1
1
ø2
7
standard
210
0
220
0
230
1
50
320.194428908
73
2
44
1
0
ENDBLK
5
6A
330
68
100
AcDbEntity
8
0
100
AcDbBlockEnd
0
BLOCK
5
6C
330
6B
100
AcDbEntity
8
0
100
AcDbBlockBegin
2
*D4
70
1
10
0
20
0
3
*D4
1

0
LINE
5
AB
100
AcDbEntity
8
dim
6
CONTINUOUS
62
7
370
0
100
AcDbLine
10
60
20
10
11
60
21
-3.11063566398e-15
0
SOLID
5
AC
100
AcDbEntity
8
dim
6
CONTINUOUS
62
7
370
0
100
AcDbTrace
10
60
20
10
30
0
11
60.4162846578
21
7.5
31
0
12
59.5837153422
22
7.5
32
0
13
59.5837153422
23
7.5
33
0
0
SOLID
5
AD
100
AcDbEntity
8
dim
6
CONTINUOUS
62
7
370
0
100
AcDbTrace
10
60
20
-3.11063566398e-15
30
0
11
59.5837153422
21
2.5
31
0
12
60.4162846578
22
2.5
32
0
13
60.4162846578
23
2.5
33
0
0
MTEXT
5
AE
100
AcDbEntity
8
dim
6
CONTINUOUS
62
7
370
0
100
AcDbMText
10
58.125
20
5
30
0
40
2.5
41
2.5
71
5
72
1
1
10
7
standard
210
0
220
0
230
1
50
90
73
2
44
1
0
LINE
5
AF
100
AcDbEntity
8
dim
6
CONTINUOUS
62
7
370
0
100
AcDbLine
10
55.625
20
10
11
61.25
21
10
0
LINE
5
B0
100
AcDbEntity
8
dim
6
CONTINUOUS
62
7
370
0
100
AcDbLine
10
55.625
20
-2.7553642961e-15
11
61.25
21
-3.11063566398e-15
0
ENDBLK
5
6D
330
6B
100
AcDbEntity
8
0
100
AcDbBlockEnd
0
BLOCK
5
6F
330
6E
100
AcDbEntity
8
0
100
AcDbBlockBegin
2
*D5
70
1
10
0
20
0
3
*D5
1

0
LINE
5
B1
100
AcDbEntity
8
dim
6
CONTINUOUS
62
7
370
0
100
AcDbLine
10
-1
20
15
11
15
21
15
0
SOLID
5
B2
100
AcDbEntity
8
dim
6
CONTINUOUS
62
7
370
0
100
AcDbTrace
10
4
20
15
30
0
11
1.5
21
14.5837153422
31
0
12
1.5
22
15.4162846578
32
0
13
1.5
23
15.4162846578
33
0
0
SOLID
5
B3
100
AcDbEntity
8
dim
6
CONTINUOUS
62
7
370
0
100
AcDbTrace
10
10
20
15
30
0
11
12.5
21
15.4162846578
31
0
12
12.5
22
14.5837153422
32
0
13
12.5
23
14.5837153422
33
0
0
MTEXT
5
B4
100
AcDbEntity
8
dim
6
CONTINUOUS
62
7
370
0
100
AcDbMText
10
7
20
16.875
30
0
40
2.5
41
1.11111111111
71
5
72
1
1
6
7
standard
210
0
220
0
230
1
50
0
73
2
44
1
0
LINE
5
B5
100
AcDbEntity
8
dim
6
CONTINUOUS
62
7
370
0
100
AcDbLine
10
4
20
5.625
11
4
21
16.25
0
LINE
5
B6
100
AcDbEntity
8
dim
6
CONTINUOUS
62
7
370
0
100
AcDbLine
10
10
20
5.625
11
10
21
16.25
0
ENDBLK
5
70
330
6E
100
AcDbEntity
8
0
100
AcDbBlockEnd
0
BLOCK
5
72
330
71
100
AcDbEntity
8
0
100
AcDbBlockBegin
2
*D11
70
1
10
0
20
0
3
*D11
1

0
LINE
5
B7
100
AcDbEntity
8
dim
6
CONTINUOUS
62
7
370
0
100
AcDbLine
10
30
20
-22.5
11
30
21
-18
0
SOLID
5
B8
100
AcDbEntity
8
dim
6
CONTINUOUS
62
7
370
0
100
AcDbTrace
10
30
20
-22.5
30
0
11
29.5837153422
21
-20
31
0
12
30.4162846578
22
-20
32
0
13
30.4162846578
23
-20
33
0
0
ENDBLK
5
73
330
71
100
AcDbEntity
8
0
100
AcDbBlockEnd
0
BLOCK
5
75
330
74
100
AcDbEntity
8
0
100
AcDbBlockBegin
2
*D10
70
1
10
0
20
0
3
*D10
1

0
LINE
5
B9
100
AcDbEntity
8
dim
6
CONTINUOUS
62
7
370
0
100
AcDbLine
10
-10
20
-22.5
11
-10
21
-18
0
SOLID
5
BA
100
AcDbEntity
8
dim
6
CONTINUOUS
62
7
370
0
100
AcDbTrace
10
-10
20
-22.5
30
0
11
-10.4162846578
21
-20
31
0
12
-9.58371534223
22
-20
32
0
13
-9.58371534223
23
-20
33
0
0
ENDBLK
5
76
330
74
100
AcDbEntity
8
0
100
AcDbBlockEnd
0
BLOCK
5
78
330
77
100
AcDbEntity
8
0
100
AcDbBlockBegin
2
*D13
70
1
10
0
20
0
3
*D13
1

0
LINE
5
BB
100
AcDbEntity
8
dim
6
CONTINUOUS
62
7
370
0
100
AcDbLine
10
5.9750776405
20
-24.5124611797
11
14.0249223595
21
-20.4875388203
0
SOLID
5
BC
100
AcDbEntity
8
dim
6
CONTINUOUS
62
7
370
0
100
AcDbTrace
10
5.9750776405
20
-24.5124611797
30
0
11
8.02497745946
21
-23.0220908739
31
0
12
8.39731377656
22
-23.7667635081
32
0
13
8.39731377656
23
-23.7667635081
33
0
0
SOLID
5
BD
100
AcDbEntity
8
dim
6
CONTINUOUS
62
7
370
0
100
AcDbTrace
10
14.0249223595
20
-20.4875388203
30
0
11
11.9750225405
21
-21.9779091261
31
0
12
11.6026862234
22
-21.2332364919
32
0
13
11.6026862234
23
-21.2332364919
33
0
0
MTEXT
5
BE
100
AcDbEntity
8
dim
6
CONTINUOUS
62
7
370
0
100
AcDbMText
10
9.16147450844
20
-20.8229490169
30
0
40
2.5
41
1.11111111111
71
5
72
1
1
9
7
standard
210
0
220
0
230
1
50
26.5650511765
73
2
44
1
0
ENDBLK
5
79
330
77
100
AcDbEntity
8
0
100
AcDbBlockEnd
0
BLOCK
5
7B
330
7A
100
AcDbEntity
8
0
100
AcDbBlockBegin
2
*D14
70
1
10
0
20
0
3
*D14
1

0
LINE
5
BF
100
AcDbEntity
8
dim
6
CONTINUOUS
62
7
370
0
100
AcDbLine
10
42.8147871433
20
8.74817028533
11
52.1852128567
21
1.25182971467
0
SOLID
5
C0
100
AcDbEntity
8
dim
6
CONTINUOUS
62
7
370
0
100
AcDbTrace
10
46.7191311906
20
5.62469504755
30
0
11
44.5069082029
21
6.86136896134
31
0
12
45.027010131
22
7.51149637154
32
0
13
45.027010131
23
7.51149637154
33
0
0
SOLID
5
C1
100
AcDbEntity
8
dim
6
CONTINUOUS
62
7
370
0
100
AcDbTrace
10
48.2808688094
20
4.37530495245
30
0
11
50.4930917971
21
3.13863103866
31
0
12
49.972989869
22
2.48850362846
32
0
13
49.972989869
23
2.48850362846
33
0
0
MTEXT
5
C2
100
AcDbEntity
8
dim
6
CONTINUOUS
62
7
370
0
100
AcDbMText
10
51.3501170466
20
4.32107795179
30
0
40
2.5
41
3.61111111111
71
5
72
1
1
ø2
7
standard
210
0
220
0
230
1
50
321.340191746
73
2
44
1
0
ENDBLK
5
7C
330
7A
100
AcDbEntity
8
0
100
AcDbBlockEnd
0
BLOCK
5
7E
330
7D
100
AcDbEntity
8
0
100
AcDbBlockBegin
2
CUT001008_PROJ003
70
0
10
0
20
0
3
CUT001008_PROJ003
1

0
CIRCLE
5
C3
100
AcDbEntity
8
0
6
ByLayer
62
0
370
-1
100
AcDbCircle
10
4
20
5
40
2.5
0
LWPOLYLINE
5
C4
100
AcDbEntity
8
0
6
ByLayer
62
0
370
-1
100
AcDbPolyline
90
2
70
0
43
0
10
18.2912878476
20
3.9999999997
10
18.3134327534
20
4.0523559133
0
CIRCLE
5
C5
100
AcDbEntity
8
0
6
ByLayer
62
0
370
-1
100
AcDbCircle
10
16
20
5
40
2.5
0
LINE
5
C6
100
AcDbEntity
8
0
6
ByLayer
62
0
370
-1
100
AcDbLine
10
20
20
10
11
20
21
-3.67381906147e-15
0
LWPOLYLINE
5
C7
100
AcDbEntity
8
0
6
ByLayer
62
0
370
-1
100
AcDbPolyline
90
2
70
0
43
0
10
10
20
-1.83690953073e-15
10
7
20
-1.28583667151e-15
0
LWPOLYLINE
5
C8
100
AcDbEntity
8
0
6
ByLayer
62
0
370
-1
100
AcDbPolyline
90
2
70
0
43
0
10
13
20
-2.38798238995e-15
10
10
20
-1.83690953073e-15
0
LINE
5
C9
100
AcDbEntity
8
0
6
ByLayer
62
0
370
-1
100
AcDbLine
10
20
20
-3.67381906147e-15
11
0
21
0
0
LINE
5
CA
100
AcDbEntity
8
0
6
ByLayer
62
0
370
-1
100
AcDbLine
10
20
20
10
11
1.83690953073e-15
21
10
0
LINE
5
CB
100
AcDbEntity
8
0
6
ByLayer
62
0
370
-1
100
AcDbLine
10
1.83690953073e-15
20
10
11
0
21
0
0
ARC
5
CC
100
AcDbEntity
8
0
6
ByLayer
62
0
370
-1
100
AcDbCircle
10
10
20
5
40
1
100
AcDbArc
50
90
51
270
0
ARC
5
CD
100
AcDbEntity
8
0
6
ByLayer
62
0
370
-1
100
AcDbCircle
10
10
20
5
40
1
100
AcDbArc
50
270
51
90
0
LWPOLYLINE
5
CE
100
AcDbEntity
8
0
6
ByLayer
62
0
370
-1
100
AcDbPolyline
90
2
70
0
43
0
10
10.1322571123
20
5.9912154701
10
10
20
6
0
ENDBLK
5
7F
330
7D
100
AcDbEntity
8
0
100
AcDbBlockEnd
0
BLOCK
5
81
330
80
100
AcDbEntity
8
0
100
AcDbBlockBegin
2
CUT001008_PROJ002
70
0
10
0
20
0
3
CUT001008_PROJ002
1

0
LINE
5
CF
100
AcDbEntity
8
0
6
ByLayer
62
0
370
-1
100
AcDbLine
10
0
20
-0
11
20
21
-3.67381906147e-15
0
LWPOLYLINE
5
D0
100
AcDbEntity
8
0
6
ByLayer
62
0
370
-1
100
AcDbPolyline
90
2
70
0
43
0
10
16
20
15
10
18.5
20
15
0
LWPOLYLINE
5
D1
100
AcDbEntity
8
0
6
ByLayer
62
0
370
-1
100
AcDbPolyline
90
2
70
0
43
0
10
13.5
20
15
10
16
20
15
0
LWPOLYLINE
5
D2
100
AcDbEntity
8
0
6
ByLayer
62
0
370
-1
100
AcDbPolyline
90
2
70
0
43
0
10
4
20
15
10
6.5
20
15
0
LWPOLYLINE
5
D3
100
AcDbEntity
8
0
6
ByLayer
62
0
370
-1
100
AcDbPolyline
90
2
70
0
43
0
10
1.5
20
15
10
4
20
15
0
LINE
5
D4
100
AcDbEntity
8
0
6
ByLayer
62
0
370
-1
100
AcDbLine
10
0
20
-0
11
2.7553642961e-15
21
15
0
CIRCLE
5
D5
100
AcDbEntity
8
0
6
ByLayer
62
0
370
-1
100
AcDbCircle
10
10
20
7.5
40
4.5
0
LINE
5
D6
100
AcDbEntity
8
0
6
ByLayer
62
0
370
-1
100
AcDbLine
10
20
20
-3.67381906147e-15
11
20
21
15
0
LINE
5
D7
100
AcDbEntity
8
0
6
ByLayer
62
0
370
-1
100
AcDbLine
10
2.7553642961e-15
20
15
11
20
21
15
0
LWPOLYLINE
5
D8
100
AcDbEntity
8
0
6
ByLayer
62
0
370
-1
100
AcDbPolyline
90
2
70
0
43
0
10
10
20
15
10
11
20
15
0
LWPOLYLINE
5
D9
100
AcDbEntity
8
0
6
ByLayer
62
0
370
-1
100
AcDbPolyline
90
2
70
0
43
0
10
9
20
15
10
10
20
15
0
LWPOLYLINE
5
DA
100
AcDbEntity
8
0
6
ByLayer
62
0
370
-1
100
AcDbPolyline
90
2
70
0
43
0
10
10.9427456548
20
10.3480223253
10
10.8896963036
20
10.3650375347
0
LWPOLYLINE
5
DB
100
AcDbEntity
8
0
6
ByLayer
62
0
370
-1
100
AcDbPolyline
90
2
70
0
43
0
10
10.8677233481
20
10.3717688375
10
10.8414140885
20
10.3795873363
0
LWPOLYLINE
5
DC
100
AcDbEntity
8
0
6
ByLayer
62
0
370
-1
100
AcDbPolyline
90
2
70
0
43
0
10
10.7938421048
20
10.3930631329
10
10.7093764721
20
10.4149245352
0
LWPOLYLINE
5
DD
100
AcDbEntity
8
0
6
ByLayer
62
0
370
-1
100
AcDbPolyline
90
2
70
0
43
0
10
10.0239544619
20
10.4999043616
10
10
20
10.5
0
LWPOLYLINE
5
DE
100
AcDbEntity
8
0
6
ByLayer
62
0
370
-1
100
AcDbPolyline
90
2
70
0
43
0
10
9.2365664373
20
10.4012357049
10
10
20
10.5
0
ARC
5
DF
100
AcDbEntity
8
0
6
ByLayer
62
0
370
-1
100
AcDbCircle
10
10
20
7.5
40
3
100
AcDbArc
50
270
51
90
0
ARC
5
E0
100
AcDbEntity
8
0
6
ByLayer
62
0
370
-1
100
AcDbCircle
10
10
20
7.5
40
3
100
AcDbArc
50
90
51
270
0
LINE
5
E1
100
AcDbEntity
8
0
6
ByLayer
62
0
370
-1
100
AcDbLine
10
10
20
12
11
10
21
10.5
0
ENDBLK
5
82
330
80
100
AcDbEntity
8
0
100
AcDbBlockEnd
0
BLOCK
5
84
330
83
100
AcDbEntity
8
0
100
AcDbBlockBegin
2
CUT001008_PROJ001
70
0
10
0
20
0
3
CUT001008_PROJ001
1

0
LINE
5
E2
100
AcDbEntity
8
0
6
ByLayer
62
0
370
-1
100
AcDbLine
10
15
20
10
11
15
21
-2.7553642961e-15
0
LINE
5
E3
100
AcDbEntity
8
0
6
ByLayer
62
0
370
-1
100
AcDbLine
10
15
20
10
11
1.83690953073e-15
21
10
0
LINE
5
E4
100
AcDbEntity
8
0
6
ByLayer
62
0
370
-1
100
AcDbLine
10
1.83690953073e-15
20
10
11
0
21
0
0
LINE
5
E5
100
AcDbEntity
8
0
6
ByLayer
62
0
370
-1
100
AcDbLine
10
15
20
-2.7553642961e-15
11
0
21
0
0
CIRCLE
5
E6
100
AcDbEntity
8
0
6
ByLayer
62
0
370
-1
100
AcDbCircle
10
7.5
20
5
40
1
0
LWPOLYLINE
5
E7
100
AcDbEntity
8
0
6
ByLayer
62
0
370
-1
100
AcDbPolyline
90
2
70
0
43
0
10
10.5
20
-1.92875500727e-15
10
4.5
20
-8.2660928883e-16
0
ENDBLK
5
85
330
83
100
AcDbEntity
8
0
100
AcDbBlockEnd
0
ENDSEC
0
SECTION
2
ENTITIES
0
HATCH
5
E8
100
AcDbEntity
8
base2
6
ByLayer
62
256
370
-1
100
AcDbHatch
10
0
20
0
30
0
210
0
220
0
230
1
2
ansi31
70
0
71
0
91
1
92
0
93
9
72
1
10
58.2912878475
20
-44
11
60
21
-44
72
1
10
60
20
-44
11
60
21
-40
72
1
10
60
20
-40
11
54.5
21
-40
72
1
10
54.5
20
-40
11
53
21
-41.5
72
1
10
53
20
-41.5
11
53
21
-50
72
1
10
53
20
-50
11
60
21
-50
72
1
10
60
20
-50
11
60
21
-46
72
1
10
60
20
-46
11
58.2912878475
21
-46
72
2
10
56
20
-45
40
2.5
50
23.5781784782
51
336.421821522
73
0
97
0
75
0
76
1
52
0
41
1
77
0
78
0
98
0
0
HATCH
5
E9
100
AcDbEntity
8
base2
6
ByLayer
62
256
370
-1
100
AcDbHatch
10
0
20
0
30
0
210
0
220
0
230
1
2
ansi31
70
0
71
0
91
1
92
0
93
9
72
1
10
40
20
-40
11
45.5
21
-40
72
1
10
45.5
20
-40
11
47
21
-41.5
72
1
10
47
20
-41.5
11
47
21
-50
72
1
10
47
20
-50
11
40
21
-50
72
1
10
40
20
-50
11
40
21
-46
72
1
10
40
20
-46
11
41.7087121525
21
-46
72
2
10
44
20
-45
40
2.5
50
203.578178478
51
156.421821522
73
1
72
1
10
41.7087121525
20
-44
11
40
21
-44
72
1
10
40
20
-44
11
40
21
-40
97
0
75
0
76
1
52
0
41
1
77
0
78
0
98
0
0
HATCH
5
EA
100
AcDbEntity
8
base2
6
ByLayer
62
256
370
-1
100
AcDbHatch
10
0
20
0
30
0
210
0
220
0
230
1
2
ansi31
70
0
71
0
91
1
92
0
93
4
72
1
10
40
20
-15
11
41.5
21
-15
72
1
10
41.5
20
-15
11
41.5
21
-21.5
72
1
10
41.5
20
-21.5
11
40
21
-21.5
72
1
10
40
20
-21.5
11
40
21
-15
97
0
75
0
76
1
52
0
41
1
77
0
78
0
98
0
0
HATCH
5
EB
100
AcDbEntity
8
base2
6
ByLayer
62
256
370
-1
100
AcDbHatch
10
0
20
0
30
0
210
0
220
0
230
1
2
ansi31
70
0
71
0
91
1
92
0
93
4
72
1
10
40
20
-23.5
11
41.5
21
-23.5
72
1
10
41.5
20
-23.5
11
41.5
21
-30
72
1
10
41.5
20
-30
11
40
21
-30
72
1
10
40
20
-30
11
40
21
-23.5
97
0
75
0
76
1
52
0
41
1
77
0
78
0
98
0
0
HATCH
5
EC
100
AcDbEntity
8
base2
6
ByLayer
62
256
370
-1
100
AcDbHatch
10
0
20
0
30
0
210
0
220
0
230
1
2
ansi31
70
0
71
0
91
1
92
0
93
4
72
1
10
58.5
20
-15
11
58.5
21
-21.5
72
1
10
58.5
20
-21.5
11
60
21
-21.5
72
1
10
60
20
-21.5
11
60
21
-15
72
1
10
60
20
-15
11
58.5
21
-15
97
0
75
0
76
1
52
0
41
1
77
0
78
0
98
0
0
HATCH
5
ED
100
AcDbEntity
8
base2
6
ByLayer
62
256
370
-1
100
AcDbHatch
10
0
20
0
30
0
210
0
220
0
230
1
2
ansi31
70
0
71
0
91
1
92
0
93
4
72
1
10
58.5
20
-23.5
11
60
21
-23.5
72
1
10
60
20
-23.5
11
60
21
-30
72
1
10
60
20
-30
11
58.5
21
-30
72
1
10
58.5
20
-30
11
58.5
21
-23.5
97
0
75
0
76
1
52
0
41
1
77
0
78
0
98
0
0
HATCH
5
EE
100
AcDbEntity
8
base2
6
ByLayer
62
256
370
-1
100
AcDbHatch
10
0
20
0
30
0
210
0
220
0
230
1
2
ansi31
70
0
71
0
91
1
92
0
93
8
72
1
10
49
20
-30
11
46.5
21
-30
72
1
10
46.5
20
-30
11
46.5
21
-15
72
1
10
46.5
20
-15
11
53.5
21
-15
72
1
10
53.5
20
-15
11
53.5
21
-30
72
1
10
53.5
20
-30
11
51
21
-30
72
1
10
51
20
-30
11
51
21
-25.3755392
72
2
10
50
20
-22.5
40
3.0444581933
50
289.175674336
51
250.824325664
73
1
72
1
10
49
20
-25.3755392
11
49
21
-30
97
0
75
0
76
1
52
0
41
1
77
0
78
0
98
0
0
INSERT
5
EF
100
AcDbEntity
8
0
6
ByLayer
62
256
370
-1
100
AcDbBlockReference
2
CUT001008_PROJ003
10
0
20
0
30
0
41
1
42
1
43
0
50
0
70
1
71
1
44
0
45
0
0
INSERT
5
F0
100
AcDbEntity
8
0
6
ByLayer
62
256
370
-1
100
AcDbBlockReference
2
CUT001008_PROJ001
10
40
20
0
30
0
41
1
42
1
43
0
50
0
70
1
71
1
44
0
45
0
0
INSERT
5
F1
100
AcDbEntity
8
0
6
ByLayer
62
256
370
-1
100
AcDbBlockReference
2
CUT001008_PROJ002
10
0
20
-30
30
0
41
1
42
1
43
0
50
0
70
1
71
1
44
0
45
0
0
DIMENSION
5
F2
100
AcDbEntity
8
dim
6
ByLayer
62
256
370
-1
100
AcDbDimension
2
*D1
10
10
20
-22.5
30
0
11
4.30423795731
21
-17.5558052498
31
0
70
36
1
M6
71
5
72
0
3
Standard
53
0
210
0
220
0
230
1
100
AcDbRadialDimension
15
7.316718427
25
-21.1583592135
35
0
40
0
0
DIMENSION
5
F3
100
AcDbEntity
8
dim
6
ByLayer
62
256
370
-1
100
AcDbDimension
2
*D2
10
20
20
-6
30
0
11
10
21
-4.125
31
0
70
32
71
5
72
0
3
Standard
53
0
210
0
220
0
230
1
100
AcDbAlignedDimension
13
0
23
-0
33
0
14
20
24
0
34
0
100
AcDbRotatedDimension
0
DIMENSION
5
F4
100
AcDbEntity
8
dim
6
ByLayer
62
256
370
-1
100
AcDbDimension
2
*D3
10
55
20
-6
30
0
11
47.5
21
-4.125
31
0
70
32
71
5
72
0
3
Standard
53
0
210
0
220
0
230
1
100
AcDbAlignedDimension
13
40
23
-0
33
0
14
55
24
0
34
0
100
AcDbRotatedDimension
0
DIMENSION
5
F5
100
AcDbEntity
8
dim
6
ByLayer
62
256
370
-1
100
AcDbDimension
2
*D4
10
60
20
-3.36766747301e-15
30
0
11
58.125
21
5
31
0
70
32
71
5
72
0
3
Standard
53
0
210
0
220
0
230
1
100
AcDbAlignedDimension
13
55
23
10
33
0
14
55
24
-2.7553642961e-15
34
0
50
90
100
AcDbRotatedDimension
0
DIMENSION
5
F6
100
AcDbEntity
8
dim
6
ByLayer
62
256
370
-1
100
AcDbDimension
2
*D5
10
10
20
15
30
0
11
7
21
16.875
31
0
70
32
71
5
72
0
3
Standard
53
0
210
0
220
0
230
1
100
AcDbAlignedDimension
13
4
23
5
33
0
14
10
24
5
34
0
100
AcDbRotatedDimension
0
LINE
5
F7
100
AcDbEntity
8
base
6
ByLayer
62
256
370
-1
100
AcDbLine
10
1.37768214805e-15
20
-22.5
11
20
21
-22.5
0
LINE
5
F8
100
AcDbEntity
8
base
6
ByLayer
62
256
370
-1
100
AcDbLine
10
10
20
-15
11
10
21
-30
0
LINE
5
F9
100
AcDbEntity
8
base
6
ByLayer
62
256
370
-1
100
AcDbLine
10
10
20
10
11
10
21
-1.83690953073e-15
0
LINE
5
FA
100
AcDbEntity
8
base
6
ByLayer
62
256
370
-1
100
AcDbLine
10
47.5
20
10
11
47.5
21
-1.37768214805e-15
0
LINE
5
FB
100
AcDbEntity
8
base
6
ByLayer
62
256
370
-1
100
AcDbLine
10
1.83690953073e-15
20
5
11
20
21
5
0
LINE
5
FC
100
AcDbEntity
8
base
6
ByLayer
62
256
370
-1
100
AcDbLine
10
40
20
5
11
55
21
5
0
LINE
5
FD
100
AcDbEntity
8
0
6
ByLayer
62
256
370
-1
100
AcDbLine
10
-9
20
5
11
-12
21
5
0
LINE
5
FE
100
AcDbEntity
8
0
6
ByLayer
62
256
370
-1
100
AcDbLine
10
29
20
5
11
32
21
5
0
LEADER
5
FF
100
AcDbEntity
8
dim
6
ByLayer
62
256
370
-1
100
AcDbLeader
3
Standard
71
1
72
0
73
3
74
0
75
0
40
1
41
10
76
2
76
2
10
30
20
5
30
0
10
30
20
10
30
0
0
MTEXT
5
100
100
AcDbEntity
8
dim
6
ByLayer
62
256
370
-1
100
AcDbMText
10
-15
20
7
30
0
40
4
41
2.66666666667
71
1
72
1
1
A
7
cyrillic_ii
210
0
220
0
230
1
50
90
73
2
44
1
0
MTEXT
5
101
100
AcDbEntity
8
dim
6
ByLayer
62
256
370
-1
100
AcDbMText
10
25
20
7
30
0
40
4
41
2.66666666667
71
1
72
1
1
A
7
cyrillic_ii
210
0
220
0
230
1
50
90
73
2
44
1
0
LEADER
5
102
100
AcDbEntity
8
dim
6
ByLayer
62
256
370
-1
100
AcDbLeader
3
Standard
71
1
72
0
73
3
74
0
75
0
40
1
41
10
76
2
76
2
10
-10
20
5
30
0
10
-10
20
10
30
0
0
LINE
5
103
100
AcDbEntity
8
0
6
ByLayer
62
256
370
-1
100
AcDbLine
10
40
20
-15
11
60
21
-15
0
LINE
5
104
100
AcDbEntity
8
0
6
ByLayer
62
256
370
-1
100
AcDbLine
10
60
20
-15
11
60
21
-30
0
LINE
5
105
100
AcDbEntity
8
0
6
ByLayer
62
256
370
-1
100
AcDbLine
10
60
20
-30
11
40
21
-30
0
LINE
5
106
100
AcDbEntity
8
0
6
ByLayer
62
256
370
-1
100
AcDbLine
10
40
20
-30
11
40
21
-15
0
LINE
5
107
100
AcDbEntity
8
base
6
ByLayer
62
256
370
-1
100
AcDbLine
10
40
20
-22.5
11
60
21
-22.5
0
LINE
5
108
100
AcDbEntity
8
base
6
ByLayer
62
256
370
-1
100
AcDbLine
10
50
20
-15
11
50
21
-30
0
CIRCLE
5
109
100
AcDbEntity
8
0
6
ByLayer
62
256
370
-1
100
AcDbCircle
10
50
20
-22.5
40
3.04138126515
0
LINE
5
10A
100
AcDbEntity
8
0
6
ByLayer
62
256
370
-1
100
AcDbLine
10
49
20
-30
11
49
21
-25.427968
0
LINE
5
10B
100
AcDbEntity
8
0
6
ByLayer
62
256
370
-1
100
AcDbLine
10
51
20
-30
11
51
21
-25.3755392
0
LINE
5
10C
100
AcDbEntity
8
0
6
ByLayer
62
256
370
-1
100
AcDbLine
10
41.5
20
-30
11
41.5
21
-15
0
LINE
5
10D
100
AcDbEntity
8
0
6
ByLayer
62
256
370
-1
100
AcDbLine
10
58.5
20
-15
11
58.5
21
-30
0
LINE
5
10E
100
AcDbEntity
8
0
6
ByLayer
62
256
370
-1
100
AcDbLine
10
46.5
20
-30
11
46.5
21
-15
0
LINE
5
10F
100
AcDbEntity
8
0
6
ByLayer
62
256
370
-1
100
AcDbLine
10
53.5
20
-15
11
53.5
21
-30
0
LINE
5
110
100
AcDbEntity
8
0
6
ByLayer
62
256
370
-1
100
AcDbLine
10
40
20
-21.5
11
41.5
21
-21.5
0
LINE
5
111
100
AcDbEntity
8
0
6
ByLayer
62
256
370
-1
100
AcDbLine
10
40
20
-23.5
11
41.5
21
-23.5
0
LINE
5
112
100
AcDbEntity
8
0
6
ByLayer
62
256
370
-1
100
AcDbLine
10
58.5
20
-21.5
11
60
21
-21.5
0
LINE
5
113
100
AcDbEntity
8
0
6
ByLayer
62
256
370
-1
100
AcDbLine
10
58.5
20
-23.5
11
60
21
-23.5
0
LINE
5
114
100
AcDbEntity
8
base2
6
ByLayer
62
256
370
-1
100
AcDbLine
10
40
20
-15
11
41.5
21
-15
0
LINE
5
115
100
AcDbEntity
8
base2
6
ByLayer
62
256
370
-1
100
AcDbLine
10
41.5
20
-15
11
41.5
21
-21.5
0
LINE
5
116
100
AcDbEntity
8
base2
6
ByLayer
62
256
370
-1
100
AcDbLine
10
41.5
20
-21.5
11
40
21
-21.5
0
LINE
5
117
100
AcDbEntity
8
base2
6
ByLayer
62
256
370
-1
100
AcDbLine
10
40
20
-21.5
11
40
21
-15
0
LINE
5
118
100
AcDbEntity
8
base2
6
ByLayer
62
256
370
-1
100
AcDbLine
10
40
20
-23.5
11
41.5
21
-23.5
0
LINE
5
119
100
AcDbEntity
8
base2
6
ByLayer
62
256
370
-1
100
AcDbLine
10
41.5
20
-23.5
11
41.5
21
-30
0
LINE
5
11A
100
AcDbEntity
8
base2
6
ByLayer
62
256
370
-1
100
AcDbLine
10
41.5
20
-30
11
40
21
-30
0
LINE
5
11B
100
AcDbEntity
8
base2
6
ByLayer
62
256
370
-1
100
AcDbLine
10
40
20
-30
11
40
21
-23.5
0
LINE
5
11C
100
AcDbEntity
8
base2
6
ByLayer
62
256
370
-1
100
AcDbLine
10
58.5
20
-15
11
58.5
21
-21.5
0
LINE
5
11D
100
AcDbEntity
8
base2
6
ByLayer
62
256
370
-1
100
AcDbLine
10
58.5
20
-21.5
11
60
21
-21.5
0
LINE
5
11E
100
AcDbEntity
8
base2
6
ByLayer
62
256
370
-1
100
AcDbLine
10
60
20
-21.5
11
60
21
-15
0
LINE
5
11F
100
AcDbEntity
8
base2
6
ByLayer
62
256
370
-1
100
AcDbLine
10
60
20
-15
11
58.5
21
-15
0
LINE
5
120
100
AcDbEntity
8
base2
6
ByLayer
62
256
370
-1
100
AcDbLine
10
58.5
20
-23.5
11
60
21
-23.5
0
LINE
5
121
100
AcDbEntity
8
base2
6
ByLayer
62
256
370
-1
100
AcDbLine
10
60
20
-23.5
11
60
21
-30
0
LINE
5
122
100
AcDbEntity
8
base2
6
ByLayer
62
256
370
-1
100
AcDbLine
10
60
20
-30
11
58.5
21
-30
0
LINE
5
123
100
AcDbEntity
8
base2
6
ByLayer
62
256
370
-1
100
AcDbLine
10
58.5
20
-30
11
58.5
21
-23.5
0
LINE
5
124
100
AcDbEntity
8
base2
6
ByLayer
62
256
370
-1
100
AcDbLine
10
49
20
-30
11
46.5
21
-30
0
LINE
5
125
100
AcDbEntity
8
base2
6
ByLayer
62
256
370
-1
100
AcDbLine
10
46.5
20
-30
11
46.5
21
-15
0
LINE
5
126
100
AcDbEntity
8
base2
6
ByLayer
62
256
370
-1
100
AcDbLine
10
46.5
20
-15
11
53.5
21
-15
0
LINE
5
127
100
AcDbEntity
8
base2
6
ByLayer
62
256
370
-1
100
AcDbLine
10
53.5
20
-15
11
53.5
21
-30
0
LINE
5
128
100
AcDbEntity
8
base2
6
ByLayer
62
256
370
-1
100
AcDbLine
10
53.5
20
-30
11
51
21
-30
0
LINE
5
129
100
AcDbEntity
8
base2
6
ByLayer
62
256
370
-1
100
AcDbLine
10
51
20
-30
11
51
21
-25.3755392
0
LINE
5
12A
100
AcDbEntity
8
base2
6
ByLayer
62
256
370
-1
100
AcDbLine
10
49
20
-25.3755392
11
49
21
-30
0
ARC
5
12B
100
AcDbEntity
8
base2
6
ByLayer
62
256
370
-1
100
AcDbCircle
10
50
20
-22.5
40
3.0444581933
100
AcDbArc
50
289.175674336
51
250.824325664
0
LEADER
5
12C
100
AcDbEntity
8
dim
6
ByLayer
62
256
370
-1
100
AcDbLeader
3
Standard
71
1
72
0
73
3
74
0
75
0
40
1
41
10
76
0
76
0
0
LINE
5
12D
100
AcDbEntity
8
0
6
ByLayer
62
256
370
-1
100
AcDbLine
10
-12
20
-22.5
11
-9
21
-22.5
0
LINE
5
12E
100
AcDbEntity
8
0
6
ByLayer
62
256
370
-1
100
AcDbLine
10
32
20
-22.5
11
29
21
-22.5
0
LEADER
5
12F
100
AcDbEntity
8
0
6
ByLayer
62
256
370
-1
100
AcDbLeader
3
Standard
71
1
72
0
73
3
74
0
75
0
40
1
41
10
76
0
76
0
0
LEADER
5
130
100
AcDbEntity
8
dim
6
ByLayer
62
256
370
-1
100
AcDbLeader
3
Standard
71
1
72
0
73
3
74
0
75
0
40
1
41
10
76
2
76
2
10
-10
20
-22.5
30
0
10
-10
20
-18
30
0
0
LEADER
5
131
100
AcDbEntity
8
dim
6
ByLayer
62
256
370
-1
100
AcDbLeader
3
Standard
71
1
72
0
73
3
74
0
75
0
40
1
41
10
76
2
76
2
10
30
20
-22.5
30
0
10
30
20
-18
30
0
0
MTEXT
5
132
100
AcDbEntity
8
dim
6
ByLayer
62
256
370
-1
100
AcDbMText
10
-15
20
-20
30
0
40
4
41
2.22222222222
71
1
72
1
1
B
7
cyrillic_ii
210
0
220
0
230
1
50
90
73
2
44
1
0
MTEXT
5
133
100
AcDbEntity
8
dim
6
ByLayer
62
256
370
-1
100
AcDbMText
10
25
20
-20
30
0
40
4
41
2.22222222222
71
1
72
1
1
B
7
cyrillic_ii
210
0
220
0
230
1
50
90
73
2
44
1
0
MTEXT
5
134
100
AcDbEntity
8
dim
6
ByLayer
62
256
370
-1
100
AcDbMText
10
45
20
-9
30
0
40
4
41
9.77777777778
71
1
72
1
1
A-A
7
cyrillic_ii
210
0
220
0
230
1
50
0
73
2
44
1
0
LINE
5
135
100
AcDbEntity
8
0
6
ByLayer
62
256
370
-1
100
AcDbLine
10
40
20
-40
11
60
21
-40
0
LINE
5
136
100
AcDbEntity
8
0
6
ByLayer
62
256
370
-1
100
AcDbLine
10
60
20
-40
11
60
21
-50
0
LINE
5
137
100
AcDbEntity
8
0
6
ByLayer
62
256
370
-1
100
AcDbLine
10
60
20
-50
11
40
21
-50
0
LINE
5
138
100
AcDbEntity
8
0
6
ByLayer
62
256
370
-1
100
AcDbLine
10
40
20
-50
11
40
21
-40
0
CIRCLE
5
139
100
AcDbEntity
8
0
6
ByLayer
62
256
370
-1
100
AcDbCircle
10
44
20
-45
40
2.5
0
CIRCLE
5
13A
100
AcDbEntity
8
0
6
ByLayer
62
256
370
-1
100
AcDbCircle
10
56
20
-45
40
2.5
0
LINE
5
13B
100
AcDbEntity
8
0
6
ByLayer
62
256
370
-1
100
AcDbLine
10
47
20
-50
11
53
21
-50
0
LINE
5
13C
100
AcDbEntity
8
0
6
ByLayer
62
256
370
-1
100
AcDbLine
10
53
20
-41.5
11
47
21
-41.5
0
LINE
5
13D
100
AcDbEntity
8
0
6
ByLayer
62
256
370
-1
100
AcDbLine
10
47
20
-41.5
11
47
21
-50
0
LINE
5
13E
100
AcDbEntity
8
0
6
ByLayer
62
256
370
-1
100
AcDbLine
10
53
20
-50
11
53
21
-41.5
0
LINE
5
13F
100
AcDbEntity
8
0
6
ByLayer
62
256
370
-1
100
AcDbLine
10
45.5
20
-40
11
47
21
-41.5
0
LINE
5
140
100
AcDbEntity
8
0
6
ByLayer
62
256
370
-1
100
AcDbLine
10
54.5
20
-40
11
53
21
-41.5
0
LINE
5
141
100
AcDbEntity
8
0
6
ByLayer
62
256
370
-1
100
AcDbLine
10
58.2912878475
20
-44
11
60
21
-44
0
LINE
5
142
100
AcDbEntity
8
0
6
ByLayer
62
256
370
-1
100
AcDbLine
10
58.2912878475
20
-46
11
60
21
-46
0
LINE
5
143
100
AcDbEntity
8
0
6
ByLayer
62
256
370
-1
100
AcDbLine
10
40
20
-46
11
41.7087121525
21
-46
0
LINE
5
144
100
AcDbEntity
8
0
6
ByLayer
62
256
370
-1
100
AcDbLine
10
40
20
-44
11
41.7087121525
21
-44
0
MTEXT
5
145
100
AcDbEntity
8
dim
6
ByLayer
62
256
370
-1
100
AcDbMText
10
45
20
-34
30
0
40
4
41
8.88888888889
71
1
72
1
1
B-B
7
cyrillic_ii
210
0
220
0
230
1
50
0
73
2
44
1
0
LINE
5
146
100
AcDbEntity
8
base2
6
ByLayer
62
256
370
-1
100
AcDbLine
10
40
20
-40
11
45.5
21
-40
0
LINE
5
147
100
AcDbEntity
8
base2
6
ByLayer
62
256
370
-1
100
AcDbLine
10
45.5
20
-40
11
47
21
-41.5
0
LINE
5
148
100
AcDbEntity
8
base2
6
ByLayer
62
256
370
-1
100
AcDbLine
10
47
20
-41.5
11
47
21
-50
0
LINE
5
149
100
AcDbEntity
8
base2
6
ByLayer
62
256
370
-1
100
AcDbLine
10
47
20
-50
11
40
21
-50
0
LINE
5
14A
100
AcDbEntity
8
base2
6
ByLayer
62
256
370
-1
100
AcDbLine
10
40
20
-50
11
40
21
-46
0
LINE
5
14B
100
AcDbEntity
8
base2
6
ByLayer
62
256
370
-1
100
AcDbLine
10
40
20
-46
11
41.7087121525
21
-46
0
LINE
5
14C
100
AcDbEntity
8
base2
6
ByLayer
62
256
370
-1
100
AcDbLine
10
41.7087121525
20
-44
11
40
21
-44
0
LINE
5
14D
100
AcDbEntity
8
base2
6
ByLayer
62
256
370
-1
100
AcDbLine
10
58.2912878475
20
-44
11
60
21
-44
0
LINE
5
14E
100
AcDbEntity
8
base2
6
ByLayer
62
256
370
-1
100
AcDbLine
10
60
20
-44
11
60
21
-40
0
LINE
5
14F
100
AcDbEntity
8
base2
6
ByLayer
62
256
370
-1
100
AcDbLine
10
60
20
-40
11
54.5
21
-40
0
LINE
5
150
100
AcDbEntity
8
base2
6
ByLayer
62
256
370
-1
100
AcDbLine
10
54.5
20
-40
11
53
21
-41.5
0
LINE
5
151
100
AcDbEntity
8
base2
6
ByLayer
62
256
370
-1
100
AcDbLine
10
53
20
-41.5
11
53
21
-50
0
LINE
5
152
100
AcDbEntity
8
base2
6
ByLayer
62
256
370
-1
100
AcDbLine
10
53
20
-50
11
60
21
-50
0
LINE
5
153
100
AcDbEntity
8
base2
6
ByLayer
62
256
370
-1
100
AcDbLine
10
60
20
-50
11
60
21
-46
0
LINE
5
154
100
AcDbEntity
8
base2
6
ByLayer
62
256
370
-1
100
AcDbLine
10
60
20
-46
11
58.2912878475
21
-46
0
ARC
5
155
100
AcDbEntity
8
base2
6
ByLayer
62
256
370
-1
100
AcDbCircle
10
44
20
-45
40
2.5
100
AcDbArc
50
203.578178478
51
156.421821522
0
ARC
5
156
100
AcDbEntity
8
base2
6
ByLayer
62
256
370
-1
100
AcDbCircle
10
56
20
-45
40
2.5
100
AcDbArc
50
23.5781784782
51
336.421821522
0
LINE
5
157
100
AcDbEntity
8
base2
6
ByLayer
62
256
370
-1
100
AcDbLine
10
40
20
-40
11
40
21
-44
0
LINE
5
158
100
AcDbEntity
8
base
6
ByLayer
62
256
370
-1
100
AcDbLine
10
50
20
-39
11
50
21
-51
0
DIMENSION
5
159
100
AcDbEntity
8
dim
6
ByLayer
62
256
370
-1
100
AcDbDimension
2
*D12
10
65
20
-41.5
30
0
11
63.125
21
-40.75
31
0
70
32
71
5
72
0
3
Standard
53
0
210
0
220
0
230
1
100
AcDbAlignedDimension
13
50
23
-40
33
0
14
50
24
-41.5
34
0
50
90
100
AcDbRotatedDimension
0
DIMENSION
5
15A
100
AcDbEntity
8
dim
6
ByLayer
62
256
370
-1
100
AcDbDimension
2
*D13
10
5.9750776405
20
-24.5124611797
30
0
11
9.16147450844
21
-20.8229490169
31
0
70
35
71
5
72
0
3
Standard
53
0
210
0
220
0
230
1
100
AcDbDiametricDimension
15
14.0249223595
25
-20.4875388203
35
0
40
0
0
DIMENSION
5
15B
100
AcDbEntity
8
dim
6
ByLayer
62
256
370
-1
100
AcDbDimension
2
*D14
10
46.7191311906
20
5.62469504755
30
0
11
48.6713032142
21
6.46412901771
31
0
70
35
1
ø2
71
5
3
Standard
53
0
210
0
220
0
230
1
100
AcDbDiametricDimension
15
48.2808688094
25
4.37530495245
35
0
40
0
0
DIMENSION
5
15C
100
AcDbEntity
8
dim
6
ByLayer
62
256
370
-1
100
AcDbDimension
2
*D15
10
13.7639320225
20
6.11803398875
30
0
11
16.8385254916
21
6.67705098312
31
0
70
35
1
   ø5
71
5
3
Standard
53
0
210
0
220
0
230
1
100
AcDbDiametricDimension
15
18.2360679775
25
3.88196601125
35
0
40
0
0
DIMENSION
5
15D
100
AcDbEntity
8
dim
6
ByLayer
62
256
370
-1
100
AcDbDimension
2
*D16
10
2
20
6.5
30
0
11
5.125
21
6.5
31
0
70
35
1
   ø5
71
5
3
Standard
53
0
210
0
220
0
230
1
100
AcDbDiametricDimension
15
6
25
3.5
35
0
40
0
0
DIMENSION
5
15E
100
AcDbEntity
8
dim
6
ByLayer
62
256
370
-1
100
AcDbDimension
2
*D17
10
9.2317787204
20
5.64018439966
30
0
11
11.2003457494
21
6.44041489925
31
0
70
35
1
ø2
71
5
3
Standard
53
0
210
0
220
0
230
1
100
AcDbDiametricDimension
15
10.7682212796
25
4.35981560034
35
0
40
0
0
ENDSEC
0
SECTION
2
OBJECTS
0
DICTIONARY
5
C
330
0
100
AcDbDictionary
281
1
3
ACAD_GROUP
350
D
0
DICTIONARY
5
D
330
C
100
AcDbDictionary
281
1
0
ENDSEC
0
EOF
