solid OpenSCAD_Model
  facet normal -1 0 0
    outer loop
      vertex 0 30 0
      vertex 0 25.4863 8.73868
      vertex 0 30 18
    endloop
  endfacet
  facet normal -1 0 0
    outer loop
      vertex 0 30 0
      vertex 0 25.3776 8.22746
      vertex 0 25.4863 8.73868
    endloop
  endfacet
  facet normal -1 0 0
    outer loop
      vertex 0 30 0
      vertex 0 25.1651 7.75
      vertex 0 25.3776 8.22746
    endloop
  endfacet
  facet normal -1 0 0
    outer loop
      vertex 0 30 0
      vertex 0 24.8579 7.32717
      vertex 0 25.1651 7.75
    endloop
  endfacet
  facet normal -1 0 0
    outer loop
      vertex 0 30 0
      vertex 0 24.4695 6.97746
      vertex 0 24.8579 7.32717
    endloop
  endfacet
  facet normal -1 0 0
    outer loop
      vertex 0 30 0
      vertex 0 24.0168 6.71614
      vertex 0 24.4695 6.97746
    endloop
  endfacet
  facet normal -1 0 0
    outer loop
      vertex 0 30 0
      vertex 0 23.5198 6.55463
      vertex 0 24.0168 6.71614
    endloop
  endfacet
  facet normal -1 0 0
    outer loop
      vertex 0 30 0
      vertex 0 23 6.5
      vertex 0 23.5198 6.55463
    endloop
  endfacet
  facet normal -1 0 0
    outer loop
      vertex 0 30 0
      vertex 0 22.4802 6.55463
      vertex 0 23 6.5
    endloop
  endfacet
  facet normal -1 0 0
    outer loop
      vertex 0 30 0
      vertex 0 21.9832 6.71614
      vertex 0 22.4802 6.55463
    endloop
  endfacet
  facet normal -1 0 0
    outer loop
      vertex 0 8.01684 6.71614
      vertex 0 21.9832 6.71614
      vertex 0 30 0
    endloop
  endfacet
  facet normal -1 0 0
    outer loop
      vertex 0 20.5137 8.73868
      vertex 0 9.4863 8.73868
      vertex 0 20.5137 9.26132
    endloop
  endfacet
  facet normal -1 0 0
    outer loop
      vertex 0 20.6224 8.22746
      vertex 0 9.4863 8.73868
      vertex 0 20.5137 8.73868
    endloop
  endfacet
  facet normal -1 0 0
    outer loop
      vertex 0 9.37764 8.22746
      vertex 0 20.6224 8.22746
      vertex 0 20.8349 7.75
    endloop
  endfacet
  facet normal -1 0 0
    outer loop
      vertex 0 9.16506 7.75
      vertex 0 20.8349 7.75
      vertex 0 21.1421 7.32717
    endloop
  endfacet
  facet normal -1 0 0
    outer loop
      vertex 0 8.85786 7.32717
      vertex 0 21.1421 7.32717
      vertex 0 21.5305 6.97746
    endloop
  endfacet
  facet normal -1 0 0
    outer loop
      vertex 0 21.9832 6.71614
      vertex 0 8.01684 6.71614
      vertex 0 21.5305 6.97746
    endloop
  endfacet
  facet normal -1 0 0
    outer loop
      vertex 0 20.6224 8.22746
      vertex 0 9.37764 8.22746
      vertex 0 9.4863 8.73868
    endloop
  endfacet
  facet normal -1 0 0
    outer loop
      vertex 0 20.8349 7.75
      vertex 0 9.16506 7.75
      vertex 0 9.37764 8.22746
    endloop
  endfacet
  facet normal -1 0 0
    outer loop
      vertex 0 21.1421 7.32717
      vertex 0 8.85786 7.32717
      vertex 0 9.16506 7.75
    endloop
  endfacet
  facet normal -1 0 0
    outer loop
      vertex 0 21.5305 6.97746
      vertex 0 8.46946 6.97746
      vertex 0 8.85786 7.32717
    endloop
  endfacet
  facet normal -1 -0 0
    outer loop
      vertex 0 21.5305 6.97746
      vertex 0 8.01684 6.71614
      vertex 0 8.46946 6.97746
    endloop
  endfacet
  facet normal -1 0 0
    outer loop
      vertex 0 0 0
      vertex 0 8.01684 6.71614
      vertex 0 30 0
    endloop
  endfacet
  facet normal -1 0 0
    outer loop
      vertex 0 8.01684 6.71614
      vertex 0 0 0
      vertex 0 7.51978 6.55463
    endloop
  endfacet
  facet normal -1 0 0
    outer loop
      vertex 0 7.51978 6.55463
      vertex 0 0 0
      vertex 0 7 6.5
    endloop
  endfacet
  facet normal -1 -0 0
    outer loop
      vertex 0 4.51369 8.73868
      vertex 0 0 0
      vertex 0 4.51369 9.26132
    endloop
  endfacet
  facet normal -1 -0 0
    outer loop
      vertex 0 4.62236 8.22746
      vertex 0 0 0
      vertex 0 4.51369 8.73868
    endloop
  endfacet
  facet normal -1 -0 0
    outer loop
      vertex 0 4.83494 7.75
      vertex 0 0 0
      vertex 0 4.62236 8.22746
    endloop
  endfacet
  facet normal -1 -0 0
    outer loop
      vertex 0 5.14214 7.32717
      vertex 0 0 0
      vertex 0 4.83494 7.75
    endloop
  endfacet
  facet normal -1 -0 0
    outer loop
      vertex 0 5.53054 6.97746
      vertex 0 0 0
      vertex 0 5.14214 7.32717
    endloop
  endfacet
  facet normal -1 -0 0
    outer loop
      vertex 0 5.98316 6.71614
      vertex 0 0 0
      vertex 0 5.53054 6.97746
    endloop
  endfacet
  facet normal -1 -0 0
    outer loop
      vertex 0 6.48022 6.55463
      vertex 0 0 0
      vertex 0 5.98316 6.71614
    endloop
  endfacet
  facet normal -1 -0 0
    outer loop
      vertex 0 7 6.5
      vertex 0 0 0
      vertex 0 6.48022 6.55463
    endloop
  endfacet
  facet normal -1 0 0
    outer loop
      vertex 0 25.4863 9.26132
      vertex 0 30 18
      vertex 0 25.4863 8.73868
    endloop
  endfacet
  facet normal -1 0 0
    outer loop
      vertex 0 25.3776 9.77254
      vertex 0 30 18
      vertex 0 25.4863 9.26132
    endloop
  endfacet
  facet normal -1 0 0
    outer loop
      vertex 0 25.1651 10.25
      vertex 0 30 18
      vertex 0 25.3776 9.77254
    endloop
  endfacet
  facet normal -1 0 0
    outer loop
      vertex 0 24.8579 10.6728
      vertex 0 30 18
      vertex 0 25.1651 10.25
    endloop
  endfacet
  facet normal -1 0 0
    outer loop
      vertex 0 24.4695 11.0225
      vertex 0 30 18
      vertex 0 24.8579 10.6728
    endloop
  endfacet
  facet normal -1 0 0
    outer loop
      vertex 0 24.0168 11.2839
      vertex 0 30 18
      vertex 0 24.4695 11.0225
    endloop
  endfacet
  facet normal -1 0 0
    outer loop
      vertex 0 23.5198 11.4454
      vertex 0 30 18
      vertex 0 24.0168 11.2839
    endloop
  endfacet
  facet normal -1 0 0
    outer loop
      vertex 0 23 11.5
      vertex 0 30 18
      vertex 0 23.5198 11.4454
    endloop
  endfacet
  facet normal -1 0 0
    outer loop
      vertex 0 22.4802 11.4454
      vertex 0 30 18
      vertex 0 23 11.5
    endloop
  endfacet
  facet normal -1 0 0
    outer loop
      vertex 0 21.9832 11.2839
      vertex 0 30 18
      vertex 0 22.4802 11.4454
    endloop
  endfacet
  facet normal -1 0 0
    outer loop
      vertex 0 8.01684 11.2839
      vertex 0 21.9832 11.2839
      vertex 0 21.5305 11.0225
    endloop
  endfacet
  facet normal -1 0 0
    outer loop
      vertex 0 9.4863 9.26132
      vertex 0 20.5137 9.26132
      vertex 0 9.4863 8.73868
    endloop
  endfacet
  facet normal -1 0 0
    outer loop
      vertex 0 20.5137 9.26132
      vertex 0 9.4863 9.26132
      vertex 0 20.6224 9.77254
    endloop
  endfacet
  facet normal -1 0 0
    outer loop
      vertex 0 9.37764 9.77254
      vertex 0 20.6224 9.77254
      vertex 0 9.4863 9.26132
    endloop
  endfacet
  facet normal -1 0 0
    outer loop
      vertex 0 20.6224 9.77254
      vertex 0 9.37764 9.77254
      vertex 0 20.8349 10.25
    endloop
  endfacet
  facet normal -1 0 0
    outer loop
      vertex 0 9.16506 10.25
      vertex 0 20.8349 10.25
      vertex 0 9.37764 9.77254
    endloop
  endfacet
  facet normal -1 0 0
    outer loop
      vertex 0 20.8349 10.25
      vertex 0 9.16506 10.25
      vertex 0 21.1421 10.6728
    endloop
  endfacet
  facet normal -1 0 0
    outer loop
      vertex 0 8.85786 10.6728
      vertex 0 21.1421 10.6728
      vertex 0 9.16506 10.25
    endloop
  endfacet
  facet normal -1 0 0
    outer loop
      vertex 0 21.1421 10.6728
      vertex 0 8.85786 10.6728
      vertex 0 21.5305 11.0225
    endloop
  endfacet
  facet normal -1 0 0
    outer loop
      vertex 0 8.46946 11.0225
      vertex 0 21.5305 11.0225
      vertex 0 8.85786 10.6728
    endloop
  endfacet
  facet normal -1 0 0
    outer loop
      vertex 0 8.01684 11.2839
      vertex 0 21.5305 11.0225
      vertex 0 8.46946 11.0225
    endloop
  endfacet
  facet normal -1 0 0
    outer loop
      vertex 0 21.9832 11.2839
      vertex 0 8.01684 11.2839
      vertex 0 30 18
    endloop
  endfacet
  facet normal -1 0 0
    outer loop
      vertex 0 0 18
      vertex 0 8.01684 11.2839
      vertex 0 7.51978 11.4454
    endloop
  endfacet
  facet normal -1 0 0
    outer loop
      vertex 0 0 18
      vertex 0 7.51978 11.4454
      vertex 0 7 11.5
    endloop
  endfacet
  facet normal -1 0 0
    outer loop
      vertex 0 0 18
      vertex 0 7 11.5
      vertex 0 6.48022 11.4454
    endloop
  endfacet
  facet normal -1 0 0
    outer loop
      vertex 0 0 18
      vertex 0 4.51369 9.26132
      vertex 0 0 0
    endloop
  endfacet
  facet normal -1 0 0
    outer loop
      vertex 0 4.51369 9.26132
      vertex 0 0 18
      vertex 0 4.62236 9.77254
    endloop
  endfacet
  facet normal -1 0 0
    outer loop
      vertex 0 8.01684 11.2839
      vertex 0 0 18
      vertex 0 30 18
    endloop
  endfacet
  facet normal -1 0 0
    outer loop
      vertex 0 5.98316 11.2839
      vertex 0 0 18
      vertex 0 6.48022 11.4454
    endloop
  endfacet
  facet normal -1 0 0
    outer loop
      vertex 0 5.53054 11.0225
      vertex 0 0 18
      vertex 0 5.98316 11.2839
    endloop
  endfacet
  facet normal -1 0 0
    outer loop
      vertex 0 5.14214 10.6728
      vertex 0 0 18
      vertex 0 5.53054 11.0225
    endloop
  endfacet
  facet normal -1 0 0
    outer loop
      vertex 0 4.83494 10.25
      vertex 0 0 18
      vertex 0 5.14214 10.6728
    endloop
  endfacet
  facet normal -1 0 0
    outer loop
      vertex 0 4.62236 9.77254
      vertex 0 0 18
      vertex 0 4.83494 10.25
    endloop
  endfacet
  facet normal -0 0 1
    outer loop
      vertex 0 30 18
      vertex 8 20.1213 18
      vertex 8 30 18
    endloop
  endfacet
  facet normal 0 -0 1
    outer loop
      vertex 6 18.4641 18
      vertex 8 20.1213 18
      vertex 0 30 18
    endloop
  endfacet
  facet normal 0 0 1
    outer loop
      vertex 8 20.1213 18
      vertex 6 18.4641 18
      vertex 6.61788 18.7392 18
    endloop
  endfacet
  facet normal 0 0 1
    outer loop
      vertex 6 18.4641 18
      vertex 0 30 18
      vertex 5.32348 17.9726 18
    endloop
  endfacet
  facet normal 0 0 1
    outer loop
      vertex 5.32348 17.9726 18
      vertex 0 30 18
      vertex 4.76393 17.3511 18
    endloop
  endfacet
  facet normal 0 0 1
    outer loop
      vertex 4.76393 17.3511 18
      vertex 0 30 18
      vertex 4.34582 16.6269 18
    endloop
  endfacet
  facet normal 0 0 1
    outer loop
      vertex 4.08741 15.8316 18
      vertex 0 30 18
      vertex 4 15 18
    endloop
  endfacet
  facet normal 0 0 1
    outer loop
      vertex 4.34582 16.6269 18
      vertex 0 30 18
      vertex 4.08741 15.8316 18
    endloop
  endfacet
  facet normal 0 0 1
    outer loop
      vertex 6 11.5359 18
      vertex 8 9.87868 18
      vertex 6.61788 11.2608 18
    endloop
  endfacet
  facet normal 0 0 1
    outer loop
      vertex 8 9.87868 18
      vertex 6 11.5359 18
      vertex 0 0 18
    endloop
  endfacet
  facet normal 0 0 1
    outer loop
      vertex 0 0 18
      vertex 6 11.5359 18
      vertex 5.32348 12.0274 18
    endloop
  endfacet
  facet normal 0 0 1
    outer loop
      vertex 0 0 18
      vertex 5.32348 12.0274 18
      vertex 4.76393 12.6489 18
    endloop
  endfacet
  facet normal 0 0 1
    outer loop
      vertex 0 0 18
      vertex 4.76393 12.6489 18
      vertex 4.34582 13.3731 18
    endloop
  endfacet
  facet normal 0 0 1
    outer loop
      vertex 0 0 18
      vertex 4.34582 13.3731 18
      vertex 4.08741 14.1684 18
    endloop
  endfacet
  facet normal 0 0 1
    outer loop
      vertex 0 0 18
      vertex 4 15 18
      vertex 0 30 18
    endloop
  endfacet
  facet normal 0 0 1
    outer loop
      vertex 8 9.87868 18
      vertex 0 0 18
      vertex 8 0 18
    endloop
  endfacet
  facet normal 0 0 1
    outer loop
      vertex 4 15 18
      vertex 0 0 18
      vertex 4.08741 14.1684 18
    endloop
  endfacet
  facet normal 1 0 0
    outer loop
      vertex 8 9.87868 18
      vertex 8 9.4863 9.26132
      vertex 8 9.87868 0
    endloop
  endfacet
  facet normal 1 0 0
    outer loop
      vertex 8 9.87868 18
      vertex 8 9.37764 9.77254
      vertex 8 9.4863 9.26132
    endloop
  endfacet
  facet normal 1 0 0
    outer loop
      vertex 8 9.87868 18
      vertex 8 9.16506 10.25
      vertex 8 9.37764 9.77254
    endloop
  endfacet
  facet normal 1 0 0
    outer loop
      vertex 8 9.87868 18
      vertex 8 8.85786 10.6728
      vertex 8 9.16506 10.25
    endloop
  endfacet
  facet normal 1 0 0
    outer loop
      vertex 8 9.87868 18
      vertex 8 8.46946 11.0225
      vertex 8 8.85786 10.6728
    endloop
  endfacet
  facet normal 1 0 0
    outer loop
      vertex 8 9.87868 18
      vertex 8 8.01684 11.2839
      vertex 8 8.46946 11.0225
    endloop
  endfacet
  facet normal 1 0 0
    outer loop
      vertex 8 9.87868 18
      vertex 8 7.51978 11.4454
      vertex 8 8.01684 11.2839
    endloop
  endfacet
  facet normal 1 0 0
    outer loop
      vertex 8 9.87868 18
      vertex 8 7 11.5
      vertex 8 7.51978 11.4454
    endloop
  endfacet
  facet normal 1 0 0
    outer loop
      vertex 8 9.87868 18
      vertex 8 6.48022 11.4454
      vertex 8 7 11.5
    endloop
  endfacet
  facet normal 1 -0 0
    outer loop
      vertex 8 0 18
      vertex 8 6.48022 11.4454
      vertex 8 9.87868 18
    endloop
  endfacet
  facet normal 1 0 0
    outer loop
      vertex 8 6.48022 11.4454
      vertex 8 0 18
      vertex 8 5.98316 11.2839
    endloop
  endfacet
  facet normal 1 0 0
    outer loop
      vertex 8 5.98316 11.2839
      vertex 8 0 18
      vertex 8 5.53054 11.0225
    endloop
  endfacet
  facet normal 1 0 0
    outer loop
      vertex 8 5.53054 11.0225
      vertex 8 0 18
      vertex 8 5.14214 10.6728
    endloop
  endfacet
  facet normal 1 0 0
    outer loop
      vertex 8 4.51369 9.26132
      vertex 8 0 18
      vertex 8 4.51369 8.73868
    endloop
  endfacet
  facet normal 1 0 0
    outer loop
      vertex 8 4.62236 9.77254
      vertex 8 0 18
      vertex 8 4.51369 9.26132
    endloop
  endfacet
  facet normal 1 0 0
    outer loop
      vertex 8 4.83494 10.25
      vertex 8 0 18
      vertex 8 4.62236 9.77254
    endloop
  endfacet
  facet normal 1 0 0
    outer loop
      vertex 8 5.14214 10.6728
      vertex 8 0 18
      vertex 8 4.83494 10.25
    endloop
  endfacet
  facet normal 1 -0 0
    outer loop
      vertex 8 9.4863 8.73868
      vertex 8 9.87868 0
      vertex 8 9.4863 9.26132
    endloop
  endfacet
  facet normal 1 -0 0
    outer loop
      vertex 8 9.37764 8.22746
      vertex 8 9.87868 0
      vertex 8 9.4863 8.73868
    endloop
  endfacet
  facet normal 1 -0 0
    outer loop
      vertex 8 9.16506 7.75
      vertex 8 9.87868 0
      vertex 8 9.37764 8.22746
    endloop
  endfacet
  facet normal 1 -0 0
    outer loop
      vertex 8 8.85786 7.32717
      vertex 8 9.87868 0
      vertex 8 9.16506 7.75
    endloop
  endfacet
  facet normal 1 -0 0
    outer loop
      vertex 8 8.46946 6.97746
      vertex 8 9.87868 0
      vertex 8 8.85786 7.32717
    endloop
  endfacet
  facet normal 1 -0 0
    outer loop
      vertex 8 8.01684 6.71614
      vertex 8 9.87868 0
      vertex 8 8.46946 6.97746
    endloop
  endfacet
  facet normal 1 -0 0
    outer loop
      vertex 8 7.51978 6.55463
      vertex 8 9.87868 0
      vertex 8 8.01684 6.71614
    endloop
  endfacet
  facet normal 1 -0 0
    outer loop
      vertex 8 7 6.5
      vertex 8 9.87868 0
      vertex 8 7.51978 6.55463
    endloop
  endfacet
  facet normal 1 0 0
    outer loop
      vertex 8 6.48022 6.55463
      vertex 8 9.87868 0
      vertex 8 7 6.5
    endloop
  endfacet
  facet normal 1 0 0
    outer loop
      vertex 8 0 0
      vertex 8 6.48022 6.55463
      vertex 8 5.98316 6.71614
    endloop
  endfacet
  facet normal 1 0 0
    outer loop
      vertex 8 0 0
      vertex 8 5.98316 6.71614
      vertex 8 5.53054 6.97746
    endloop
  endfacet
  facet normal 1 0 0
    outer loop
      vertex 8 0 0
      vertex 8 5.53054 6.97746
      vertex 8 5.14214 7.32717
    endloop
  endfacet
  facet normal 1 0 0
    outer loop
      vertex 8 0 0
      vertex 8 5.14214 7.32717
      vertex 8 4.83494 7.75
    endloop
  endfacet
  facet normal 1 0 0
    outer loop
      vertex 8 0 0
      vertex 8 4.51369 8.73868
      vertex 8 0 18
    endloop
  endfacet
  facet normal 1 0 0
    outer loop
      vertex 8 4.51369 8.73868
      vertex 8 0 0
      vertex 8 4.62236 8.22746
    endloop
  endfacet
  facet normal 1 0 0
    outer loop
      vertex 8 6.48022 6.55463
      vertex 8 0 0
      vertex 8 9.87868 0
    endloop
  endfacet
  facet normal 1 0 0
    outer loop
      vertex 8 4.62236 8.22746
      vertex 8 0 0
      vertex 8 4.83494 7.75
    endloop
  endfacet
  facet normal 1 0 0
    outer loop
      vertex 8 30 18
      vertex 8 25.4863 9.26132
      vertex 8 30 0
    endloop
  endfacet
  facet normal 1 0 0
    outer loop
      vertex 8 30 18
      vertex 8 25.3776 9.77254
      vertex 8 25.4863 9.26132
    endloop
  endfacet
  facet normal 1 0 0
    outer loop
      vertex 8 30 18
      vertex 8 25.1651 10.25
      vertex 8 25.3776 9.77254
    endloop
  endfacet
  facet normal 1 0 0
    outer loop
      vertex 8 30 18
      vertex 8 24.8579 10.6728
      vertex 8 25.1651 10.25
    endloop
  endfacet
  facet normal 1 0 0
    outer loop
      vertex 8 30 18
      vertex 8 24.4695 11.0225
      vertex 8 24.8579 10.6728
    endloop
  endfacet
  facet normal 1 0 0
    outer loop
      vertex 8 30 18
      vertex 8 24.0168 11.2839
      vertex 8 24.4695 11.0225
    endloop
  endfacet
  facet normal 1 0 0
    outer loop
      vertex 8 30 18
      vertex 8 23.5198 11.4454
      vertex 8 24.0168 11.2839
    endloop
  endfacet
  facet normal 1 -0 0
    outer loop
      vertex 8 20.1213 18
      vertex 8 23.5198 11.4454
      vertex 8 30 18
    endloop
  endfacet
  facet normal 1 0 0
    outer loop
      vertex 8 23.5198 11.4454
      vertex 8 20.1213 18
      vertex 8 23 11.5
    endloop
  endfacet
  facet normal 1 0 0
    outer loop
      vertex 8 23 11.5
      vertex 8 20.1213 18
      vertex 8 22.4802 11.4454
    endloop
  endfacet
  facet normal 1 0 0
    outer loop
      vertex 8 22.4802 11.4454
      vertex 8 20.1213 18
      vertex 8 21.9832 11.2839
    endloop
  endfacet
  facet normal 1 0 0
    outer loop
      vertex 8 20.5137 9.26132
      vertex 8 20.1213 18
      vertex 8 20.5137 8.73868
    endloop
  endfacet
  facet normal 1 0 0
    outer loop
      vertex 8 20.6224 9.77254
      vertex 8 20.1213 18
      vertex 8 20.5137 9.26132
    endloop
  endfacet
  facet normal 1 0 0
    outer loop
      vertex 8 20.8349 10.25
      vertex 8 20.1213 18
      vertex 8 20.6224 9.77254
    endloop
  endfacet
  facet normal 1 0 0
    outer loop
      vertex 8 21.1421 10.6728
      vertex 8 20.1213 18
      vertex 8 20.8349 10.25
    endloop
  endfacet
  facet normal 1 0 0
    outer loop
      vertex 8 21.5305 11.0225
      vertex 8 20.1213 18
      vertex 8 21.1421 10.6728
    endloop
  endfacet
  facet normal 1 0 0
    outer loop
      vertex 8 21.9832 11.2839
      vertex 8 20.1213 18
      vertex 8 21.5305 11.0225
    endloop
  endfacet
  facet normal 1 -0 0
    outer loop
      vertex 8 25.4863 8.73868
      vertex 8 30 0
      vertex 8 25.4863 9.26132
    endloop
  endfacet
  facet normal 1 -0 0
    outer loop
      vertex 8 25.3776 8.22746
      vertex 8 30 0
      vertex 8 25.4863 8.73868
    endloop
  endfacet
  facet normal 1 -0 0
    outer loop
      vertex 8 25.1651 7.75
      vertex 8 30 0
      vertex 8 25.3776 8.22746
    endloop
  endfacet
  facet normal 1 -0 0
    outer loop
      vertex 8 24.8579 7.32717
      vertex 8 30 0
      vertex 8 25.1651 7.75
    endloop
  endfacet
  facet normal 1 -0 0
    outer loop
      vertex 8 24.4695 6.97746
      vertex 8 30 0
      vertex 8 24.8579 7.32717
    endloop
  endfacet
  facet normal 1 -0 0
    outer loop
      vertex 8 24.0168 6.71614
      vertex 8 30 0
      vertex 8 24.4695 6.97746
    endloop
  endfacet
  facet normal 1 -0 0
    outer loop
      vertex 8 23.5198 6.55463
      vertex 8 30 0
      vertex 8 24.0168 6.71614
    endloop
  endfacet
  facet normal 1 0 0
    outer loop
      vertex 8 20.1213 0
      vertex 8 23.5198 6.55463
      vertex 8 23 6.5
    endloop
  endfacet
  facet normal 1 0 0
    outer loop
      vertex 8 20.1213 0
      vertex 8 23 6.5
      vertex 8 22.4802 6.55463
    endloop
  endfacet
  facet normal 1 0 0
    outer loop
      vertex 8 20.1213 0
      vertex 8 22.4802 6.55463
      vertex 8 21.9832 6.71614
    endloop
  endfacet
  facet normal 1 0 0
    outer loop
      vertex 8 20.1213 0
      vertex 8 21.9832 6.71614
      vertex 8 21.5305 6.97746
    endloop
  endfacet
  facet normal 1 0 0
    outer loop
      vertex 8 23.5198 6.55463
      vertex 8 20.1213 0
      vertex 8 30 0
    endloop
  endfacet
  facet normal 1 0 0
    outer loop
      vertex 8 21.1421 7.32717
      vertex 8 20.1213 0
      vertex 8 21.5305 6.97746
    endloop
  endfacet
  facet normal 1 0 0
    outer loop
      vertex 8 20.8349 7.75
      vertex 8 20.1213 0
      vertex 8 21.1421 7.32717
    endloop
  endfacet
  facet normal 1 0 0
    outer loop
      vertex 8 20.6224 8.22746
      vertex 8 20.1213 0
      vertex 8 20.8349 7.75
    endloop
  endfacet
  facet normal 1 0 0
    outer loop
      vertex 8 20.5137 8.73868
      vertex 8 20.1213 0
      vertex 8 20.6224 8.22746
    endloop
  endfacet
  facet normal 1 0 0
    outer loop
      vertex 8 20.1213 0
      vertex 8 20.5137 8.73868
      vertex 8 20.1213 18
    endloop
  endfacet
  facet normal 0 1 -0
    outer loop
      vertex 8 30 0
      vertex 0 30 18
      vertex 8 30 18
    endloop
  endfacet
  facet normal 0 1 0
    outer loop
      vertex 0 30 18
      vertex 8 30 0
      vertex 0 30 0
    endloop
  endfacet
  facet normal 0 0 -1
    outer loop
      vertex 0 0 0
      vertex 8 9.87868 0
      vertex 8 0 0
    endloop
  endfacet
  facet normal 0 -0 -1
    outer loop
      vertex 6 11.5359 0
      vertex 8 9.87868 0
      vertex 0 0 0
    endloop
  endfacet
  facet normal 0 0 -1
    outer loop
      vertex 8 9.87868 0
      vertex 6 11.5359 0
      vertex 6.61788 11.2608 0
    endloop
  endfacet
  facet normal -0 0 -1
    outer loop
      vertex 6 11.5359 0
      vertex 0 0 0
      vertex 5.32348 12.0274 0
    endloop
  endfacet
  facet normal -0 0 -1
    outer loop
      vertex 5.32348 12.0274 0
      vertex 0 0 0
      vertex 4.76393 12.6489 0
    endloop
  endfacet
  facet normal -0 0 -1
    outer loop
      vertex 4.76393 12.6489 0
      vertex 0 0 0
      vertex 4.34582 13.3731 0
    endloop
  endfacet
  facet normal -0 0 -1
    outer loop
      vertex 4.08741 14.1684 0
      vertex 0 0 0
      vertex 4 15 0
    endloop
  endfacet
  facet normal -0 0 -1
    outer loop
      vertex 4.34582 13.3731 0
      vertex 0 0 0
      vertex 4.08741 14.1684 0
    endloop
  endfacet
  facet normal 0 0 -1
    outer loop
      vertex 6 18.4641 0
      vertex 8 20.1213 0
      vertex 6.61788 18.7392 0
    endloop
  endfacet
  facet normal -0 0 -1
    outer loop
      vertex 8 20.1213 0
      vertex 6 18.4641 0
      vertex 0 30 0
    endloop
  endfacet
  facet normal 0 0 -1
    outer loop
      vertex 0 30 0
      vertex 6 18.4641 0
      vertex 5.32348 17.9726 0
    endloop
  endfacet
  facet normal 0 0 -1
    outer loop
      vertex 0 30 0
      vertex 5.32348 17.9726 0
      vertex 4.76393 17.3511 0
    endloop
  endfacet
  facet normal 0 0 -1
    outer loop
      vertex 0 30 0
      vertex 4.76393 17.3511 0
      vertex 4.34582 16.6269 0
    endloop
  endfacet
  facet normal 0 0 -1
    outer loop
      vertex 0 30 0
      vertex 4.34582 16.6269 0
      vertex 4.08741 15.8316 0
    endloop
  endfacet
  facet normal 0 0 -1
    outer loop
      vertex 0 30 0
      vertex 4 15 0
      vertex 0 0 0
    endloop
  endfacet
  facet normal 0 0 -1
    outer loop
      vertex 8 20.1213 0
      vertex 0 30 0
      vertex 8 30 0
    endloop
  endfacet
  facet normal 0 0 -1
    outer loop
      vertex 4 15 0
      vertex 0 30 0
      vertex 4.08741 15.8316 0
    endloop
  endfacet
  facet normal 0 -1 0
    outer loop
      vertex 0 0 0
      vertex 8 0 18
      vertex 0 0 18
    endloop
  endfacet
  facet normal 0 -1 -0
    outer loop
      vertex 8 0 18
      vertex 0 0 0
      vertex 8 0 0
    endloop
  endfacet
  facet normal 0.406739 -0.913545 0
    outer loop
      vertex 6 18.4641 0
      vertex 6.61788 18.7392 18
      vertex 6 18.4641 18
    endloop
  endfacet
  facet normal 0.406739 -0.913545 0
    outer loop
      vertex 6.61788 18.7392 18
      vertex 6 18.4641 0
      vertex 6.61788 18.7392 0
    endloop
  endfacet
  facet normal 0.951056 -0.309017 0
    outer loop
      vertex 4.08741 15.8316 18
      vertex 4.34582 16.6269 0
      vertex 4.34582 16.6269 18
    endloop
  endfacet
  facet normal 0.951056 -0.309017 0
    outer loop
      vertex 4.34582 16.6269 0
      vertex 4.08741 15.8316 18
      vertex 4.08741 15.8316 0
    endloop
  endfacet
  facet normal 0.994522 0.104528 0
    outer loop
      vertex 4.08741 14.1684 18
      vertex 4 15 0
      vertex 4 15 18
    endloop
  endfacet
  facet normal 0.994522 0.104528 0
    outer loop
      vertex 4 15 0
      vertex 4.08741 14.1684 18
      vertex 4.08741 14.1684 0
    endloop
  endfacet
  facet normal 0.866026 -0.499999 0
    outer loop
      vertex 4.34582 16.6269 18
      vertex 4.76393 17.3511 0
      vertex 4.76393 17.3511 18
    endloop
  endfacet
  facet normal 0.866026 -0.499999 0
    outer loop
      vertex 4.76393 17.3511 0
      vertex 4.34582 16.6269 18
      vertex 4.34582 16.6269 0
    endloop
  endfacet
  facet normal 0.587783 -0.809019 0
    outer loop
      vertex 5.32348 17.9726 0
      vertex 6 18.4641 18
      vertex 5.32348 17.9726 18
    endloop
  endfacet
  facet normal 0.587783 -0.809019 0
    outer loop
      vertex 6 18.4641 18
      vertex 5.32348 17.9726 0
      vertex 6 18.4641 0
    endloop
  endfacet
  facet normal 0.743145 -0.66913 0
    outer loop
      vertex 4.76393 17.3511 18
      vertex 5.32348 17.9726 0
      vertex 5.32348 17.9726 18
    endloop
  endfacet
  facet normal 0.743145 -0.66913 0
    outer loop
      vertex 5.32348 17.9726 0
      vertex 4.76393 17.3511 18
      vertex 4.76393 17.3511 0
    endloop
  endfacet
  facet normal 0.587785 0.809017 -0
    outer loop
      vertex 6 11.5359 0
      vertex 5.32348 12.0274 18
      vertex 6 11.5359 18
    endloop
  endfacet
  facet normal 0.587785 0.809017 0
    outer loop
      vertex 5.32348 12.0274 18
      vertex 6 11.5359 0
      vertex 5.32348 12.0274 0
    endloop
  endfacet
  facet normal 0.743145 0.669131 0
    outer loop
      vertex 5.32348 12.0274 18
      vertex 4.76393 12.6489 0
      vertex 4.76393 12.6489 18
    endloop
  endfacet
  facet normal 0.743145 0.669131 0
    outer loop
      vertex 4.76393 12.6489 0
      vertex 5.32348 12.0274 18
      vertex 5.32348 12.0274 0
    endloop
  endfacet
  facet normal 0.951057 0.309017 0
    outer loop
      vertex 4.34582 13.3731 18
      vertex 4.08741 14.1684 0
      vertex 4.08741 14.1684 18
    endloop
  endfacet
  facet normal 0.951057 0.309017 0
    outer loop
      vertex 4.08741 14.1684 0
      vertex 4.34582 13.3731 18
      vertex 4.34582 13.3731 0
    endloop
  endfacet
  facet normal 0.994522 -0.104528 0
    outer loop
      vertex 4 15 18
      vertex 4.08741 15.8316 0
      vertex 4.08741 15.8316 18
    endloop
  endfacet
  facet normal 0.994522 -0.104528 0
    outer loop
      vertex 4.08741 15.8316 0
      vertex 4 15 18
      vertex 4 15 0
    endloop
  endfacet
  facet normal 0.406737 0.913545 -0
    outer loop
      vertex 6.61788 11.2608 0
      vertex 6 11.5359 18
      vertex 6.61788 11.2608 18
    endloop
  endfacet
  facet normal 0.406737 0.913545 0
    outer loop
      vertex 6 11.5359 18
      vertex 6.61788 11.2608 0
      vertex 6 11.5359 0
    endloop
  endfacet
  facet normal 0.866026 0.5 0
    outer loop
      vertex 4.76393 12.6489 18
      vertex 4.34582 13.3731 0
      vertex 4.34582 13.3731 18
    endloop
  endfacet
  facet normal 0.866026 0.5 0
    outer loop
      vertex 4.34582 13.3731 0
      vertex 4.76393 12.6489 18
      vertex 4.76393 12.6489 0
    endloop
  endfacet
  facet normal 0.707107 0.707107 0
    outer loop
      vertex 8 9.87868 18
      vertex 6.61788 11.2608 0
      vertex 6.61788 11.2608 18
    endloop
  endfacet
  facet normal 0.707107 0.707107 0
    outer loop
      vertex 6.61788 11.2608 0
      vertex 8 9.87868 18
      vertex 8 9.87868 0
    endloop
  endfacet
  facet normal 0.707106 -0.707107 0
    outer loop
      vertex 6.61788 18.7392 0
      vertex 8 20.1213 18
      vertex 6.61788 18.7392 18
    endloop
  endfacet
  facet normal 0.707106 -0.707107 0
    outer loop
      vertex 8 20.1213 18
      vertex 6.61788 18.7392 0
      vertex 8 20.1213 0
    endloop
  endfacet
  facet normal -0 0.5 0.866025
    outer loop
      vertex 0 5.98316 6.71614
      vertex 8 5.53054 6.97746
      vertex 8 5.98316 6.71614
    endloop
  endfacet
  facet normal 0 0.5 0.866025
    outer loop
      vertex 8 5.53054 6.97746
      vertex 0 5.98316 6.71614
      vertex 0 5.53054 6.97746
    endloop
  endfacet
  facet normal 0 1 -0
    outer loop
      vertex 8 4.51369 8.73868
      vertex 0 4.51369 9.26132
      vertex 8 4.51369 9.26132
    endloop
  endfacet
  facet normal 0 1 0
    outer loop
      vertex 0 4.51369 9.26132
      vertex 8 4.51369 8.73868
      vertex 0 4.51369 8.73868
    endloop
  endfacet
  facet normal 0 0.978148 -0.207912
    outer loop
      vertex 8 4.51369 9.26132
      vertex 0 4.62236 9.77254
      vertex 8 4.62236 9.77254
    endloop
  endfacet
  facet normal 0 0.978148 -0.207912
    outer loop
      vertex 0 4.62236 9.77254
      vertex 8 4.51369 9.26132
      vertex 0 4.51369 9.26132
    endloop
  endfacet
  facet normal -0 0.104527 0.994522
    outer loop
      vertex 0 7 6.5
      vertex 8 6.48022 6.55463
      vertex 8 7 6.5
    endloop
  endfacet
  facet normal 0 0.104527 0.994522
    outer loop
      vertex 8 6.48022 6.55463
      vertex 0 7 6.5
      vertex 0 6.48022 6.55463
    endloop
  endfacet
  facet normal 0 -0.978148 0.207912
    outer loop
      vertex 0 9.37764 8.22746
      vertex 8 9.4863 8.73868
      vertex 0 9.4863 8.73868
    endloop
  endfacet
  facet normal 0 -0.978148 0.207912
    outer loop
      vertex 8 9.4863 8.73868
      vertex 0 9.37764 8.22746
      vertex 8 9.37764 8.22746
    endloop
  endfacet
  facet normal 0 -0.913545 0.406737
    outer loop
      vertex 0 9.16506 7.75
      vertex 8 9.37764 8.22746
      vertex 0 9.37764 8.22746
    endloop
  endfacet
  facet normal 0 -0.913545 0.406737
    outer loop
      vertex 8 9.37764 8.22746
      vertex 0 9.16506 7.75
      vertex 8 9.16506 7.75
    endloop
  endfacet
  facet normal 0 -0.913546 -0.406736
    outer loop
      vertex 0 9.37764 9.77254
      vertex 8 9.16506 10.25
      vertex 0 9.16506 10.25
    endloop
  endfacet
  facet normal 0 -0.913546 -0.406736
    outer loop
      vertex 8 9.16506 10.25
      vertex 0 9.37764 9.77254
      vertex 8 9.37764 9.77254
    endloop
  endfacet
  facet normal 0 -0.5 -0.866025
    outer loop
      vertex 0 8.01684 11.2839
      vertex 8 8.46946 11.0225
      vertex 8 8.01684 11.2839
    endloop
  endfacet
  facet normal -0 -0.5 -0.866025
    outer loop
      vertex 8 8.46946 11.0225
      vertex 0 8.01684 11.2839
      vertex 0 8.46946 11.0225
    endloop
  endfacet
  facet normal 0 -0.809017 -0.587786
    outer loop
      vertex 0 9.16506 10.25
      vertex 8 8.85786 10.6728
      vertex 0 8.85786 10.6728
    endloop
  endfacet
  facet normal 0 -0.809017 -0.587786
    outer loop
      vertex 8 8.85786 10.6728
      vertex 0 9.16506 10.25
      vertex 8 9.16506 10.25
    endloop
  endfacet
  facet normal 0 0.978148 0.207912
    outer loop
      vertex 8 4.62236 8.22746
      vertex 0 4.51369 8.73868
      vertex 8 4.51369 8.73868
    endloop
  endfacet
  facet normal 0 0.978148 0.207912
    outer loop
      vertex 0 4.51369 8.73868
      vertex 8 4.62236 8.22746
      vertex 0 4.62236 8.22746
    endloop
  endfacet
  facet normal 0 -0.669131 0.743145
    outer loop
      vertex 0 8.85786 7.32717
      vertex 8 8.46946 6.97746
      vertex 8 8.85786 7.32717
    endloop
  endfacet
  facet normal 0 -0.669131 0.743145
    outer loop
      vertex 8 8.46946 6.97746
      vertex 0 8.85786 7.32717
      vertex 0 8.46946 6.97746
    endloop
  endfacet
  facet normal 0 -0.309018 0.951056
    outer loop
      vertex 0 8.01684 6.71614
      vertex 8 7.51978 6.55463
      vertex 8 8.01684 6.71614
    endloop
  endfacet
  facet normal 0 -0.309018 0.951056
    outer loop
      vertex 8 7.51978 6.55463
      vertex 0 8.01684 6.71614
      vertex 0 7.51978 6.55463
    endloop
  endfacet
  facet normal 0 -0.5 0.866025
    outer loop
      vertex 0 8.46946 6.97746
      vertex 8 8.01684 6.71614
      vertex 8 8.46946 6.97746
    endloop
  endfacet
  facet normal 0 -0.5 0.866025
    outer loop
      vertex 8 8.01684 6.71614
      vertex 0 8.46946 6.97746
      vertex 0 8.01684 6.71614
    endloop
  endfacet
  facet normal 0 -1 0
    outer loop
      vertex 0 9.4863 8.73868
      vertex 8 9.4863 9.26132
      vertex 0 9.4863 9.26132
    endloop
  endfacet
  facet normal 0 -1 -0
    outer loop
      vertex 8 9.4863 9.26132
      vertex 0 9.4863 8.73868
      vertex 8 9.4863 8.73868
    endloop
  endfacet
  facet normal 0 -0.809017 0.587785
    outer loop
      vertex 0 8.85786 7.32717
      vertex 8 9.16506 7.75
      vertex 0 9.16506 7.75
    endloop
  endfacet
  facet normal 0 -0.809017 0.587785
    outer loop
      vertex 8 9.16506 7.75
      vertex 0 8.85786 7.32717
      vertex 8 8.85786 7.32717
    endloop
  endfacet
  facet normal 0 -0.104529 -0.994522
    outer loop
      vertex 0 7 11.5
      vertex 8 7.51978 11.4454
      vertex 8 7 11.5
    endloop
  endfacet
  facet normal -0 -0.104529 -0.994522
    outer loop
      vertex 8 7.51978 11.4454
      vertex 0 7 11.5
      vertex 0 7.51978 11.4454
    endloop
  endfacet
  facet normal 0 -0.669131 -0.743145
    outer loop
      vertex 0 8.46946 11.0225
      vertex 8 8.85786 10.6728
      vertex 8 8.46946 11.0225
    endloop
  endfacet
  facet normal -0 -0.669131 -0.743145
    outer loop
      vertex 8 8.85786 10.6728
      vertex 0 8.46946 11.0225
      vertex 0 8.85786 10.6728
    endloop
  endfacet
  facet normal 0 -0.978148 -0.207912
    outer loop
      vertex 0 9.4863 9.26132
      vertex 8 9.37764 9.77254
      vertex 0 9.37764 9.77254
    endloop
  endfacet
  facet normal 0 -0.978148 -0.207912
    outer loop
      vertex 8 9.37764 9.77254
      vertex 0 9.4863 9.26132
      vertex 8 9.4863 9.26132
    endloop
  endfacet
  facet normal 0 -0.104527 0.994522
    outer loop
      vertex 0 7.51978 6.55463
      vertex 8 7 6.5
      vertex 8 7.51978 6.55463
    endloop
  endfacet
  facet normal 0 -0.104527 0.994522
    outer loop
      vertex 8 7 6.5
      vertex 0 7.51978 6.55463
      vertex 0 7 6.5
    endloop
  endfacet
  facet normal 0 0.809017 0.587785
    outer loop
      vertex 8 5.14214 7.32717
      vertex 0 4.83494 7.75
      vertex 8 4.83494 7.75
    endloop
  endfacet
  facet normal 0 0.809017 0.587785
    outer loop
      vertex 0 4.83494 7.75
      vertex 8 5.14214 7.32717
      vertex 0 5.14214 7.32717
    endloop
  endfacet
  facet normal -0 0.309018 0.951056
    outer loop
      vertex 0 6.48022 6.55463
      vertex 8 5.98316 6.71614
      vertex 8 6.48022 6.55463
    endloop
  endfacet
  facet normal 0 0.309018 0.951056
    outer loop
      vertex 8 5.98316 6.71614
      vertex 0 6.48022 6.55463
      vertex 0 5.98316 6.71614
    endloop
  endfacet
  facet normal 0 0.104529 -0.994522
    outer loop
      vertex 0 6.48022 11.4454
      vertex 8 7 11.5
      vertex 8 6.48022 11.4454
    endloop
  endfacet
  facet normal 0 0.104529 -0.994522
    outer loop
      vertex 8 7 11.5
      vertex 0 6.48022 11.4454
      vertex 0 7 11.5
    endloop
  endfacet
  facet normal -0 0.669131 0.743145
    outer loop
      vertex 0 5.53054 6.97746
      vertex 8 5.14214 7.32717
      vertex 8 5.53054 6.97746
    endloop
  endfacet
  facet normal 0 0.669131 0.743145
    outer loop
      vertex 8 5.14214 7.32717
      vertex 0 5.53054 6.97746
      vertex 0 5.14214 7.32717
    endloop
  endfacet
  facet normal 0 -0.309018 -0.951056
    outer loop
      vertex 0 7.51978 11.4454
      vertex 8 8.01684 11.2839
      vertex 8 7.51978 11.4454
    endloop
  endfacet
  facet normal -0 -0.309018 -0.951056
    outer loop
      vertex 8 8.01684 11.2839
      vertex 0 7.51978 11.4454
      vertex 0 8.01684 11.2839
    endloop
  endfacet
  facet normal 0 0.5 -0.866025
    outer loop
      vertex 0 5.53054 11.0225
      vertex 8 5.98316 11.2839
      vertex 8 5.53054 11.0225
    endloop
  endfacet
  facet normal 0 0.5 -0.866025
    outer loop
      vertex 8 5.98316 11.2839
      vertex 0 5.53054 11.0225
      vertex 0 5.98316 11.2839
    endloop
  endfacet
  facet normal 0 0.913545 0.406737
    outer loop
      vertex 8 4.83494 7.75
      vertex 0 4.62236 8.22746
      vertex 8 4.62236 8.22746
    endloop
  endfacet
  facet normal 0 0.913545 0.406737
    outer loop
      vertex 0 4.62236 8.22746
      vertex 8 4.83494 7.75
      vertex 0 4.83494 7.75
    endloop
  endfacet
  facet normal 0 0.913546 -0.406736
    outer loop
      vertex 8 4.62236 9.77254
      vertex 0 4.83494 10.25
      vertex 8 4.83494 10.25
    endloop
  endfacet
  facet normal 0 0.913546 -0.406736
    outer loop
      vertex 0 4.83494 10.25
      vertex 8 4.62236 9.77254
      vertex 0 4.62236 9.77254
    endloop
  endfacet
  facet normal 0 0.309018 -0.951056
    outer loop
      vertex 0 5.98316 11.2839
      vertex 8 6.48022 11.4454
      vertex 8 5.98316 11.2839
    endloop
  endfacet
  facet normal 0 0.309018 -0.951056
    outer loop
      vertex 8 6.48022 11.4454
      vertex 0 5.98316 11.2839
      vertex 0 6.48022 11.4454
    endloop
  endfacet
  facet normal 0 0.669131 -0.743145
    outer loop
      vertex 0 5.14214 10.6728
      vertex 8 5.53054 11.0225
      vertex 8 5.14214 10.6728
    endloop
  endfacet
  facet normal 0 0.669131 -0.743145
    outer loop
      vertex 8 5.53054 11.0225
      vertex 0 5.14214 10.6728
      vertex 0 5.53054 11.0225
    endloop
  endfacet
  facet normal 0 0.809017 -0.587786
    outer loop
      vertex 8 4.83494 10.25
      vertex 0 5.14214 10.6728
      vertex 8 5.14214 10.6728
    endloop
  endfacet
  facet normal 0 0.809017 -0.587786
    outer loop
      vertex 0 5.14214 10.6728
      vertex 8 4.83494 10.25
      vertex 0 4.83494 10.25
    endloop
  endfacet
  facet normal 0 -0.104527 0.994522
    outer loop
      vertex 0 23.5198 6.55463
      vertex 8 23 6.5
      vertex 8 23.5198 6.55463
    endloop
  endfacet
  facet normal 0 -0.104527 0.994522
    outer loop
      vertex 8 23 6.5
      vertex 0 23.5198 6.55463
      vertex 0 23 6.5
    endloop
  endfacet
  facet normal 0 -0.104529 -0.994522
    outer loop
      vertex 0 23 11.5
      vertex 8 23.5198 11.4454
      vertex 8 23 11.5
    endloop
  endfacet
  facet normal -0 -0.104529 -0.994522
    outer loop
      vertex 8 23.5198 11.4454
      vertex 0 23 11.5
      vertex 0 23.5198 11.4454
    endloop
  endfacet
  facet normal 0 -1 0
    outer loop
      vertex 0 25.4863 8.73868
      vertex 8 25.4863 9.26132
      vertex 0 25.4863 9.26132
    endloop
  endfacet
  facet normal 0 -1 -0
    outer loop
      vertex 8 25.4863 9.26132
      vertex 0 25.4863 8.73868
      vertex 8 25.4863 8.73868
    endloop
  endfacet
  facet normal -0 0.669131 0.743145
    outer loop
      vertex 0 21.5305 6.97746
      vertex 8 21.1421 7.32717
      vertex 8 21.5305 6.97746
    endloop
  endfacet
  facet normal 0 0.669131 0.743145
    outer loop
      vertex 8 21.1421 7.32717
      vertex 0 21.5305 6.97746
      vertex 0 21.1421 7.32717
    endloop
  endfacet
  facet normal 0 -0.809017 -0.587786
    outer loop
      vertex 0 25.1651 10.25
      vertex 8 24.8579 10.6728
      vertex 0 24.8579 10.6728
    endloop
  endfacet
  facet normal 0 -0.809017 -0.587786
    outer loop
      vertex 8 24.8579 10.6728
      vertex 0 25.1651 10.25
      vertex 8 25.1651 10.25
    endloop
  endfacet
  facet normal 0 -0.913546 -0.406736
    outer loop
      vertex 0 25.3776 9.77254
      vertex 8 25.1651 10.25
      vertex 0 25.1651 10.25
    endloop
  endfacet
  facet normal 0 -0.913546 -0.406736
    outer loop
      vertex 8 25.1651 10.25
      vertex 0 25.3776 9.77254
      vertex 8 25.3776 9.77254
    endloop
  endfacet
  facet normal 0 1 -0
    outer loop
      vertex 8 20.5137 8.73868
      vertex 0 20.5137 9.26132
      vertex 8 20.5137 9.26132
    endloop
  endfacet
  facet normal 0 1 0
    outer loop
      vertex 0 20.5137 9.26132
      vertex 8 20.5137 8.73868
      vertex 0 20.5137 8.73868
    endloop
  endfacet
  facet normal -0 0.5 0.866025
    outer loop
      vertex 0 21.9832 6.71614
      vertex 8 21.5305 6.97746
      vertex 8 21.9832 6.71614
    endloop
  endfacet
  facet normal 0 0.5 0.866025
    outer loop
      vertex 8 21.5305 6.97746
      vertex 0 21.9832 6.71614
      vertex 0 21.5305 6.97746
    endloop
  endfacet
  facet normal 0 -0.309017 0.951056
    outer loop
      vertex 0 24.0168 6.71614
      vertex 8 23.5198 6.55463
      vertex 8 24.0168 6.71614
    endloop
  endfacet
  facet normal 0 -0.309017 0.951056
    outer loop
      vertex 8 23.5198 6.55463
      vertex 0 24.0168 6.71614
      vertex 0 23.5198 6.55463
    endloop
  endfacet
  facet normal 0 -0.669132 0.743143
    outer loop
      vertex 0 24.8579 7.32717
      vertex 8 24.4695 6.97746
      vertex 8 24.8579 7.32717
    endloop
  endfacet
  facet normal 0 -0.669132 0.743143
    outer loop
      vertex 8 24.4695 6.97746
      vertex 0 24.8579 7.32717
      vertex 0 24.4695 6.97746
    endloop
  endfacet
  facet normal 0 -0.978147 0.207916
    outer loop
      vertex 0 25.3776 8.22746
      vertex 8 25.4863 8.73868
      vertex 0 25.4863 8.73868
    endloop
  endfacet
  facet normal 0 -0.978147 0.207916
    outer loop
      vertex 8 25.4863 8.73868
      vertex 0 25.3776 8.22746
      vertex 8 25.3776 8.22746
    endloop
  endfacet
  facet normal 0 -0.809017 0.587785
    outer loop
      vertex 0 24.8579 7.32717
      vertex 8 25.1651 7.75
      vertex 0 25.1651 7.75
    endloop
  endfacet
  facet normal 0 -0.809017 0.587785
    outer loop
      vertex 8 25.1651 7.75
      vertex 0 24.8579 7.32717
      vertex 8 24.8579 7.32717
    endloop
  endfacet
  facet normal 0 -0.5 -0.866025
    outer loop
      vertex 0 24.0168 11.2839
      vertex 8 24.4695 11.0225
      vertex 8 24.0168 11.2839
    endloop
  endfacet
  facet normal -0 -0.5 -0.866025
    outer loop
      vertex 8 24.4695 11.0225
      vertex 0 24.0168 11.2839
      vertex 0 24.4695 11.0225
    endloop
  endfacet
  facet normal 0 -0.669132 -0.743143
    outer loop
      vertex 0 24.4695 11.0225
      vertex 8 24.8579 10.6728
      vertex 8 24.4695 11.0225
    endloop
  endfacet
  facet normal -0 -0.669132 -0.743143
    outer loop
      vertex 8 24.8579 10.6728
      vertex 0 24.4695 11.0225
      vertex 0 24.8579 10.6728
    endloop
  endfacet
  facet normal 0 -0.309017 -0.951056
    outer loop
      vertex 0 23.5198 11.4454
      vertex 8 24.0168 11.2839
      vertex 8 23.5198 11.4454
    endloop
  endfacet
  facet normal -0 -0.309017 -0.951056
    outer loop
      vertex 8 24.0168 11.2839
      vertex 0 23.5198 11.4454
      vertex 0 24.0168 11.2839
    endloop
  endfacet
  facet normal 0 -0.978147 -0.207916
    outer loop
      vertex 0 25.4863 9.26132
      vertex 8 25.3776 9.77254
      vertex 0 25.3776 9.77254
    endloop
  endfacet
  facet normal 0 -0.978147 -0.207916
    outer loop
      vertex 8 25.3776 9.77254
      vertex 0 25.4863 9.26132
      vertex 8 25.4863 9.26132
    endloop
  endfacet
  facet normal 0 -0.5 0.866025
    outer loop
      vertex 0 24.4695 6.97746
      vertex 8 24.0168 6.71614
      vertex 8 24.4695 6.97746
    endloop
  endfacet
  facet normal 0 -0.5 0.866025
    outer loop
      vertex 8 24.0168 6.71614
      vertex 0 24.4695 6.97746
      vertex 0 24.0168 6.71614
    endloop
  endfacet
  facet normal 0 -0.913545 0.406737
    outer loop
      vertex 0 25.1651 7.75
      vertex 8 25.3776 8.22746
      vertex 0 25.3776 8.22746
    endloop
  endfacet
  facet normal 0 -0.913545 0.406737
    outer loop
      vertex 8 25.3776 8.22746
      vertex 0 25.1651 7.75
      vertex 8 25.1651 7.75
    endloop
  endfacet
  facet normal 0 0.809017 0.587785
    outer loop
      vertex 8 21.1421 7.32717
      vertex 0 20.8349 7.75
      vertex 8 20.8349 7.75
    endloop
  endfacet
  facet normal 0 0.809017 0.587785
    outer loop
      vertex 0 20.8349 7.75
      vertex 8 21.1421 7.32717
      vertex 0 21.1421 7.32717
    endloop
  endfacet
  facet normal -0 0.309017 0.951056
    outer loop
      vertex 0 22.4802 6.55463
      vertex 8 21.9832 6.71614
      vertex 8 22.4802 6.55463
    endloop
  endfacet
  facet normal 0 0.309017 0.951056
    outer loop
      vertex 8 21.9832 6.71614
      vertex 0 22.4802 6.55463
      vertex 0 21.9832 6.71614
    endloop
  endfacet
  facet normal -0 0.104527 0.994522
    outer loop
      vertex 0 23 6.5
      vertex 8 22.4802 6.55463
      vertex 8 23 6.5
    endloop
  endfacet
  facet normal 0 0.104527 0.994522
    outer loop
      vertex 8 22.4802 6.55463
      vertex 0 23 6.5
      vertex 0 22.4802 6.55463
    endloop
  endfacet
  facet normal 0 0.913545 0.406737
    outer loop
      vertex 8 20.8349 7.75
      vertex 0 20.6224 8.22746
      vertex 8 20.6224 8.22746
    endloop
  endfacet
  facet normal 0 0.913545 0.406737
    outer loop
      vertex 0 20.6224 8.22746
      vertex 8 20.8349 7.75
      vertex 0 20.8349 7.75
    endloop
  endfacet
  facet normal 0 0.978148 0.207912
    outer loop
      vertex 8 20.6224 8.22746
      vertex 0 20.5137 8.73868
      vertex 8 20.5137 8.73868
    endloop
  endfacet
  facet normal 0 0.978148 0.207912
    outer loop
      vertex 0 20.5137 8.73868
      vertex 8 20.6224 8.22746
      vertex 0 20.6224 8.22746
    endloop
  endfacet
  facet normal 0 0.809017 -0.587786
    outer loop
      vertex 8 20.8349 10.25
      vertex 0 21.1421 10.6728
      vertex 8 21.1421 10.6728
    endloop
  endfacet
  facet normal 0 0.809017 -0.587786
    outer loop
      vertex 0 21.1421 10.6728
      vertex 8 20.8349 10.25
      vertex 0 20.8349 10.25
    endloop
  endfacet
  facet normal 0 0.978148 -0.207912
    outer loop
      vertex 8 20.5137 9.26132
      vertex 0 20.6224 9.77254
      vertex 8 20.6224 9.77254
    endloop
  endfacet
  facet normal 0 0.978148 -0.207912
    outer loop
      vertex 0 20.6224 9.77254
      vertex 8 20.5137 9.26132
      vertex 0 20.5137 9.26132
    endloop
  endfacet
  facet normal 0 0.669131 -0.743145
    outer loop
      vertex 0 21.1421 10.6728
      vertex 8 21.5305 11.0225
      vertex 8 21.1421 10.6728
    endloop
  endfacet
  facet normal 0 0.669131 -0.743145
    outer loop
      vertex 8 21.5305 11.0225
      vertex 0 21.1421 10.6728
      vertex 0 21.5305 11.0225
    endloop
  endfacet
  facet normal 0 0.5 -0.866025
    outer loop
      vertex 0 21.5305 11.0225
      vertex 8 21.9832 11.2839
      vertex 8 21.5305 11.0225
    endloop
  endfacet
  facet normal 0 0.5 -0.866025
    outer loop
      vertex 8 21.9832 11.2839
      vertex 0 21.5305 11.0225
      vertex 0 21.9832 11.2839
    endloop
  endfacet
  facet normal 0 0.309017 -0.951056
    outer loop
      vertex 0 21.9832 11.2839
      vertex 8 22.4802 11.4454
      vertex 8 21.9832 11.2839
    endloop
  endfacet
  facet normal 0 0.309017 -0.951056
    outer loop
      vertex 8 22.4802 11.4454
      vertex 0 21.9832 11.2839
      vertex 0 22.4802 11.4454
    endloop
  endfacet
  facet normal 0 0.104529 -0.994522
    outer loop
      vertex 0 22.4802 11.4454
      vertex 8 23 11.5
      vertex 8 22.4802 11.4454
    endloop
  endfacet
  facet normal 0 0.104529 -0.994522
    outer loop
      vertex 8 23 11.5
      vertex 0 22.4802 11.4454
      vertex 0 23 11.5
    endloop
  endfacet
  facet normal 0 0.913546 -0.406736
    outer loop
      vertex 8 20.6224 9.77254
      vertex 0 20.8349 10.25
      vertex 8 20.8349 10.25
    endloop
  endfacet
  facet normal 0 0.913546 -0.406736
    outer loop
      vertex 0 20.8349 10.25
      vertex 8 20.6224 9.77254
      vertex 0 20.6224 9.77254
    endloop
  endfacet
endsolid OpenSCAD_Model
