solid OpenSCAD_Model
  facet normal -1 0 0
    outer loop
      vertex 0 30 0
      vertex 0 27.2764 8.55053
      vertex 0 30 18
    endloop
  endfacet
  facet normal -1 0 0
    outer loop
      vertex 0 30 0
      vertex 0 27.0895 7.67123
      vertex 0 27.2764 8.55053
    endloop
  endfacet
  facet normal -1 0 0
    outer loop
      vertex 0 30 0
      vertex 0 26.7239 6.85
      vertex 0 27.0895 7.67123
    endloop
  endfacet
  facet normal -1 0 0
    outer loop
      vertex 0 30 0
      vertex 0 26.1955 6.12274
      vertex 0 26.7239 6.85
    endloop
  endfacet
  facet normal -1 0 0
    outer loop
      vertex 0 30 0
      vertex 0 25.5275 5.52123
      vertex 0 26.1955 6.12274
    endloop
  endfacet
  facet normal -1 0 0
    outer loop
      vertex 0 30 0
      vertex 0 24.749 5.07175
      vertex 0 25.5275 5.52123
    endloop
  endfacet
  facet normal -1 0 0
    outer loop
      vertex 0 30 0
      vertex 0 23.894 4.79396
      vertex 0 24.749 5.07175
    endloop
  endfacet
  facet normal -1 0 0
    outer loop
      vertex 0 30 0
      vertex 0 23 4.7
      vertex 0 23.894 4.79396
    endloop
  endfacet
  facet normal -1 0 0
    outer loop
      vertex 0 30 0
      vertex 0 22.106 4.79396
      vertex 0 23 4.7
    endloop
  endfacet
  facet normal -1 0 0
    outer loop
      vertex 0 30 0
      vertex 0 21.251 5.07175
      vertex 0 22.106 4.79396
    endloop
  endfacet
  facet normal -1 0 0
    outer loop
      vertex 0 8.74897 5.07175
      vertex 0 21.251 5.07175
      vertex 0 30 0
    endloop
  endfacet
  facet normal -1 0 0
    outer loop
      vertex 0 18.7236 8.55053
      vertex 0 11.2764 8.55053
      vertex 0 18.7236 9.44947
    endloop
  endfacet
  facet normal -1 0 0
    outer loop
      vertex 0 18.9105 7.67123
      vertex 0 11.2764 8.55053
      vertex 0 18.7236 8.55053
    endloop
  endfacet
  facet normal -1 0 0
    outer loop
      vertex 0 11.0895 7.67123
      vertex 0 18.9105 7.67123
      vertex 0 19.2761 6.85
    endloop
  endfacet
  facet normal -1 0 0
    outer loop
      vertex 0 10.7239 6.85
      vertex 0 19.2761 6.85
      vertex 0 19.8045 6.12274
    endloop
  endfacet
  facet normal -1 0 0
    outer loop
      vertex 0 10.1955 6.12274
      vertex 0 19.8045 6.12274
      vertex 0 20.4725 5.52123
    endloop
  endfacet
  facet normal -1 0 0
    outer loop
      vertex 0 21.251 5.07175
      vertex 0 8.74897 5.07175
      vertex 0 20.4725 5.52123
    endloop
  endfacet
  facet normal -1 0 0
    outer loop
      vertex 0 18.9105 7.67123
      vertex 0 11.0895 7.67123
      vertex 0 11.2764 8.55053
    endloop
  endfacet
  facet normal -1 0 0
    outer loop
      vertex 0 19.2761 6.85
      vertex 0 10.7239 6.85
      vertex 0 11.0895 7.67123
    endloop
  endfacet
  facet normal -1 0 0
    outer loop
      vertex 0 19.8045 6.12274
      vertex 0 10.1955 6.12274
      vertex 0 10.7239 6.85
    endloop
  endfacet
  facet normal -1 0 0
    outer loop
      vertex 0 20.4725 5.52123
      vertex 0 9.52748 5.52123
      vertex 0 10.1955 6.12274
    endloop
  endfacet
  facet normal -1 -0 0
    outer loop
      vertex 0 20.4725 5.52123
      vertex 0 8.74897 5.07175
      vertex 0 9.52748 5.52123
    endloop
  endfacet
  facet normal -1 0 0
    outer loop
      vertex 0 30 0
      vertex 0 7.89402 4.79396
      vertex 0 8.74897 5.07175
    endloop
  endfacet
  facet normal -1 0 0
    outer loop
      vertex 0 0 0
      vertex 0 7.89402 4.79396
      vertex 0 30 0
    endloop
  endfacet
  facet normal -1 0 0
    outer loop
      vertex 0 7.89402 4.79396
      vertex 0 0 0
      vertex 0 7 4.7
    endloop
  endfacet
  facet normal -1 -0 0
    outer loop
      vertex 0 2.72356 8.55053
      vertex 0 0 0
      vertex 0 2.72356 9.44947
    endloop
  endfacet
  facet normal -1 -0 0
    outer loop
      vertex 0 2.91046 7.67123
      vertex 0 0 0
      vertex 0 2.72356 8.55053
    endloop
  endfacet
  facet normal -1 -0 0
    outer loop
      vertex 0 3.27609 6.85
      vertex 0 0 0
      vertex 0 2.91046 7.67123
    endloop
  endfacet
  facet normal -1 -0 0
    outer loop
      vertex 0 3.80448 6.12274
      vertex 0 0 0
      vertex 0 3.27609 6.85
    endloop
  endfacet
  facet normal -1 -0 0
    outer loop
      vertex 0 4.47252 5.52123
      vertex 0 0 0
      vertex 0 3.80448 6.12274
    endloop
  endfacet
  facet normal -1 -0 0
    outer loop
      vertex 0 5.25103 5.07175
      vertex 0 0 0
      vertex 0 4.47252 5.52123
    endloop
  endfacet
  facet normal -1 -0 0
    outer loop
      vertex 0 6.10598 4.79396
      vertex 0 0 0
      vertex 0 5.25103 5.07175
    endloop
  endfacet
  facet normal -1 -0 0
    outer loop
      vertex 0 7 4.7
      vertex 0 0 0
      vertex 0 6.10598 4.79396
    endloop
  endfacet
  facet normal -1 0 0
    outer loop
      vertex 0 27.2764 9.44947
      vertex 0 30 18
      vertex 0 27.2764 8.55053
    endloop
  endfacet
  facet normal -1 0 0
    outer loop
      vertex 0 27.0895 10.3288
      vertex 0 30 18
      vertex 0 27.2764 9.44947
    endloop
  endfacet
  facet normal -1 0 0
    outer loop
      vertex 0 26.7239 11.15
      vertex 0 30 18
      vertex 0 27.0895 10.3288
    endloop
  endfacet
  facet normal -1 0 0
    outer loop
      vertex 0 26.1955 11.8773
      vertex 0 30 18
      vertex 0 26.7239 11.15
    endloop
  endfacet
  facet normal -1 0 0
    outer loop
      vertex 0 25.5275 12.4788
      vertex 0 30 18
      vertex 0 26.1955 11.8773
    endloop
  endfacet
  facet normal -1 0 0
    outer loop
      vertex 0 24.749 12.9282
      vertex 0 30 18
      vertex 0 25.5275 12.4788
    endloop
  endfacet
  facet normal -1 0 0
    outer loop
      vertex 0 23.894 13.206
      vertex 0 30 18
      vertex 0 24.749 12.9282
    endloop
  endfacet
  facet normal -1 0 0
    outer loop
      vertex 0 23 13.3
      vertex 0 30 18
      vertex 0 23.894 13.206
    endloop
  endfacet
  facet normal -1 0 0
    outer loop
      vertex 0 22.106 13.206
      vertex 0 30 18
      vertex 0 23 13.3
    endloop
  endfacet
  facet normal -1 0 0
    outer loop
      vertex 0 21.251 12.9282
      vertex 0 30 18
      vertex 0 22.106 13.206
    endloop
  endfacet
  facet normal -1 0 0
    outer loop
      vertex 0 8.74897 12.9282
      vertex 0 21.251 12.9282
      vertex 0 20.4725 12.4788
    endloop
  endfacet
  facet normal -1 0 0
    outer loop
      vertex 0 11.2764 9.44947
      vertex 0 18.7236 9.44947
      vertex 0 11.2764 8.55053
    endloop
  endfacet
  facet normal -1 0 0
    outer loop
      vertex 0 18.7236 9.44947
      vertex 0 11.2764 9.44947
      vertex 0 18.9105 10.3288
    endloop
  endfacet
  facet normal -1 0 0
    outer loop
      vertex 0 11.0895 10.3288
      vertex 0 18.9105 10.3288
      vertex 0 11.2764 9.44947
    endloop
  endfacet
  facet normal -1 0 0
    outer loop
      vertex 0 18.9105 10.3288
      vertex 0 11.0895 10.3288
      vertex 0 19.2761 11.15
    endloop
  endfacet
  facet normal -1 0 0
    outer loop
      vertex 0 10.7239 11.15
      vertex 0 19.2761 11.15
      vertex 0 11.0895 10.3288
    endloop
  endfacet
  facet normal -1 0 0
    outer loop
      vertex 0 19.2761 11.15
      vertex 0 10.7239 11.15
      vertex 0 19.8045 11.8773
    endloop
  endfacet
  facet normal -1 0 0
    outer loop
      vertex 0 10.1955 11.8773
      vertex 0 19.8045 11.8773
      vertex 0 10.7239 11.15
    endloop
  endfacet
  facet normal -1 0 0
    outer loop
      vertex 0 19.8045 11.8773
      vertex 0 10.1955 11.8773
      vertex 0 20.4725 12.4788
    endloop
  endfacet
  facet normal -1 0 0
    outer loop
      vertex 0 9.52748 12.4788
      vertex 0 20.4725 12.4788
      vertex 0 10.1955 11.8773
    endloop
  endfacet
  facet normal -1 0 0
    outer loop
      vertex 0 8.74897 12.9282
      vertex 0 20.4725 12.4788
      vertex 0 9.52748 12.4788
    endloop
  endfacet
  facet normal -1 0 0
    outer loop
      vertex 0 21.251 12.9282
      vertex 0 8.74897 12.9282
      vertex 0 30 18
    endloop
  endfacet
  facet normal -1 0 0
    outer loop
      vertex 0 7.89402 13.206
      vertex 0 30 18
      vertex 0 8.74897 12.9282
    endloop
  endfacet
  facet normal -1 0 0
    outer loop
      vertex 0 0 18
      vertex 0 7.89402 13.206
      vertex 0 7 13.3
    endloop
  endfacet
  facet normal -1 0 0
    outer loop
      vertex 0 0 18
      vertex 0 7 13.3
      vertex 0 6.10598 13.206
    endloop
  endfacet
  facet normal -1 0 0
    outer loop
      vertex 0 0 18
      vertex 0 2.72356 9.44947
      vertex 0 0 0
    endloop
  endfacet
  facet normal -1 0 0
    outer loop
      vertex 0 7.89402 13.206
      vertex 0 0 18
      vertex 0 30 18
    endloop
  endfacet
  facet normal -1 0 0
    outer loop
      vertex 0 5.25103 12.9282
      vertex 0 0 18
      vertex 0 6.10598 13.206
    endloop
  endfacet
  facet normal -1 0 0
    outer loop
      vertex 0 4.47252 12.4788
      vertex 0 0 18
      vertex 0 5.25103 12.9282
    endloop
  endfacet
  facet normal -1 0 0
    outer loop
      vertex 0 3.80448 11.8773
      vertex 0 0 18
      vertex 0 4.47252 12.4788
    endloop
  endfacet
  facet normal -1 0 0
    outer loop
      vertex 0 3.27609 11.15
      vertex 0 0 18
      vertex 0 3.80448 11.8773
    endloop
  endfacet
  facet normal -1 0 0
    outer loop
      vertex 0 2.91046 10.3288
      vertex 0 0 18
      vertex 0 3.27609 11.15
    endloop
  endfacet
  facet normal -1 0 0
    outer loop
      vertex 0 2.72356 9.44947
      vertex 0 0 18
      vertex 0 2.91046 10.3288
    endloop
  endfacet
  facet normal -0 0 1
    outer loop
      vertex 0 30 18
      vertex 10 20.1213 18
      vertex 10 30 18
    endloop
  endfacet
  facet normal 0 0 1
    outer loop
      vertex 10 20.1213 18
      vertex 7.975 18.5074 18
      vertex 8.71599 18.8373 18
    endloop
  endfacet
  facet normal 0 0 1
    outer loop
      vertex 10 20.1213 18
      vertex 0 30 18
      vertex 7.975 18.5074 18
    endloop
  endfacet
  facet normal 0 0 1
    outer loop
      vertex 7.975 18.5074 18
      vertex 0 30 18
      vertex 7.29002 18.0097 18
    endloop
  endfacet
  facet normal 0 0 1
    outer loop
      vertex 7.29002 18.0097 18
      vertex 0 30 18
      vertex 6.72348 17.3805 18
    endloop
  endfacet
  facet normal 0 0 1
    outer loop
      vertex 6.72348 17.3805 18
      vertex 0 30 18
      vertex 6.30014 16.6473 18
    endloop
  endfacet
  facet normal 0 0 1
    outer loop
      vertex 6.0385 15.842 18
      vertex 0 30 18
      vertex 5.95 15 18
    endloop
  endfacet
  facet normal 0 0 1
    outer loop
      vertex 6.30014 16.6473 18
      vertex 0 30 18
      vertex 6.0385 15.842 18
    endloop
  endfacet
  facet normal 0 0 1
    outer loop
      vertex 7.975 11.4926 18
      vertex 10 9.87868 18
      vertex 8.71599 11.1627 18
    endloop
  endfacet
  facet normal 0 0 1
    outer loop
      vertex 0 0 18
      vertex 10 9.87868 18
      vertex 7.975 11.4926 18
    endloop
  endfacet
  facet normal 0 0 1
    outer loop
      vertex 0 0 18
      vertex 7.975 11.4926 18
      vertex 7.29002 11.9903 18
    endloop
  endfacet
  facet normal 0 0 1
    outer loop
      vertex 0 0 18
      vertex 7.29002 11.9903 18
      vertex 6.72348 12.6195 18
    endloop
  endfacet
  facet normal 0 0 1
    outer loop
      vertex 0 0 18
      vertex 6.72348 12.6195 18
      vertex 6.30014 13.3527 18
    endloop
  endfacet
  facet normal 0 0 1
    outer loop
      vertex 0 0 18
      vertex 6.30014 13.3527 18
      vertex 6.0385 14.158 18
    endloop
  endfacet
  facet normal 0 0 1
    outer loop
      vertex 0 0 18
      vertex 5.95 15 18
      vertex 0 30 18
    endloop
  endfacet
  facet normal 0 0 1
    outer loop
      vertex 5.95 15 18
      vertex 0 0 18
      vertex 6.0385 14.158 18
    endloop
  endfacet
  facet normal 0 0 1
    outer loop
      vertex 10 9.87868 18
      vertex 0 0 18
      vertex 10 0 18
    endloop
  endfacet
  facet normal 1 0 0
    outer loop
      vertex 10 9.87868 18
      vertex 10 9.53603 9.26655
      vertex 10 9.87868 0
    endloop
  endfacet
  facet normal 1 0 0
    outer loop
      vertex 10 9.87868 18
      vertex 10 9.42519 9.78799
      vertex 10 9.53603 9.26655
    endloop
  endfacet
  facet normal 1 0 0
    outer loop
      vertex 10 9.87868 18
      vertex 10 9.20836 10.275
      vertex 10 9.42519 9.78799
    endloop
  endfacet
  facet normal 1 0 0
    outer loop
      vertex 10 9.87868 18
      vertex 10 8.89502 10.7063
      vertex 10 9.20836 10.275
    endloop
  endfacet
  facet normal 1 0 0
    outer loop
      vertex 10 9.87868 18
      vertex 10 8.49885 11.063
      vertex 10 8.89502 10.7063
    endloop
  endfacet
  facet normal 1 0 0
    outer loop
      vertex 10 9.87868 18
      vertex 10 8.03718 11.3295
      vertex 10 8.49885 11.063
    endloop
  endfacet
  facet normal 1 0 0
    outer loop
      vertex 10 9.87868 18
      vertex 10 7.53017 11.4943
      vertex 10 8.03718 11.3295
    endloop
  endfacet
  facet normal 1 0 0
    outer loop
      vertex 10 9.87868 18
      vertex 10 7 11.55
      vertex 10 7.53017 11.4943
    endloop
  endfacet
  facet normal 1 0 0
    outer loop
      vertex 10 9.87868 18
      vertex 10 6.46982 11.4943
      vertex 10 7 11.55
    endloop
  endfacet
  facet normal 1 -0 0
    outer loop
      vertex 10 0 18
      vertex 10 6.46982 11.4943
      vertex 10 9.87868 18
    endloop
  endfacet
  facet normal 1 0 0
    outer loop
      vertex 10 6.46982 11.4943
      vertex 10 0 18
      vertex 10 5.96282 11.3295
    endloop
  endfacet
  facet normal 1 0 0
    outer loop
      vertex 10 5.96282 11.3295
      vertex 10 0 18
      vertex 10 5.50115 11.063
    endloop
  endfacet
  facet normal 1 0 0
    outer loop
      vertex 10 5.50115 11.063
      vertex 10 0 18
      vertex 10 5.10498 10.7063
    endloop
  endfacet
  facet normal 1 0 0
    outer loop
      vertex 10 4.46397 9.26655
      vertex 10 0 18
      vertex 10 4.46397 8.73345
    endloop
  endfacet
  facet normal 1 0 0
    outer loop
      vertex 10 4.57481 9.78799
      vertex 10 0 18
      vertex 10 4.46397 9.26655
    endloop
  endfacet
  facet normal 1 0 0
    outer loop
      vertex 10 4.79163 10.275
      vertex 10 0 18
      vertex 10 4.57481 9.78799
    endloop
  endfacet
  facet normal 1 0 0
    outer loop
      vertex 10 5.10498 10.7063
      vertex 10 0 18
      vertex 10 4.79163 10.275
    endloop
  endfacet
  facet normal 1 -0 0
    outer loop
      vertex 10 9.53603 8.73345
      vertex 10 9.87868 0
      vertex 10 9.53603 9.26655
    endloop
  endfacet
  facet normal 1 -0 0
    outer loop
      vertex 10 9.42519 8.21201
      vertex 10 9.87868 0
      vertex 10 9.53603 8.73345
    endloop
  endfacet
  facet normal 1 -0 0
    outer loop
      vertex 10 9.20836 7.725
      vertex 10 9.87868 0
      vertex 10 9.42519 8.21201
    endloop
  endfacet
  facet normal 1 -0 0
    outer loop
      vertex 10 8.89502 7.29372
      vertex 10 9.87868 0
      vertex 10 9.20836 7.725
    endloop
  endfacet
  facet normal 1 -0 0
    outer loop
      vertex 10 8.49885 6.93701
      vertex 10 9.87868 0
      vertex 10 8.89502 7.29372
    endloop
  endfacet
  facet normal 1 -0 0
    outer loop
      vertex 10 8.03718 6.67046
      vertex 10 9.87868 0
      vertex 10 8.49885 6.93701
    endloop
  endfacet
  facet normal 1 -0 0
    outer loop
      vertex 10 7.53017 6.50572
      vertex 10 9.87868 0
      vertex 10 8.03718 6.67046
    endloop
  endfacet
  facet normal 1 -0 0
    outer loop
      vertex 10 7 6.45
      vertex 10 9.87868 0
      vertex 10 7.53017 6.50572
    endloop
  endfacet
  facet normal 1 0 0
    outer loop
      vertex 10 6.46982 6.50572
      vertex 10 9.87868 0
      vertex 10 7 6.45
    endloop
  endfacet
  facet normal 1 0 0
    outer loop
      vertex 10 0 0
      vertex 10 6.46982 6.50572
      vertex 10 5.96282 6.67046
    endloop
  endfacet
  facet normal 1 0 0
    outer loop
      vertex 10 0 0
      vertex 10 5.96282 6.67046
      vertex 10 5.50115 6.93701
    endloop
  endfacet
  facet normal 1 0 0
    outer loop
      vertex 10 0 0
      vertex 10 5.50115 6.93701
      vertex 10 5.10498 7.29372
    endloop
  endfacet
  facet normal 1 0 0
    outer loop
      vertex 10 0 0
      vertex 10 5.10498 7.29372
      vertex 10 4.79163 7.725
    endloop
  endfacet
  facet normal 1 0 0
    outer loop
      vertex 10 0 0
      vertex 10 4.46397 8.73345
      vertex 10 0 18
    endloop
  endfacet
  facet normal 1 0 0
    outer loop
      vertex 10 4.46397 8.73345
      vertex 10 0 0
      vertex 10 4.57481 8.21201
    endloop
  endfacet
  facet normal 1 0 0
    outer loop
      vertex 10 6.46982 6.50572
      vertex 10 0 0
      vertex 10 9.87868 0
    endloop
  endfacet
  facet normal 1 0 0
    outer loop
      vertex 10 4.57481 8.21201
      vertex 10 0 0
      vertex 10 4.79163 7.725
    endloop
  endfacet
  facet normal 1 0 0
    outer loop
      vertex 10 30 18
      vertex 10 25.536 9.26655
      vertex 10 30 0
    endloop
  endfacet
  facet normal 1 0 0
    outer loop
      vertex 10 30 18
      vertex 10 25.4252 9.78799
      vertex 10 25.536 9.26655
    endloop
  endfacet
  facet normal 1 0 0
    outer loop
      vertex 10 30 18
      vertex 10 25.2084 10.275
      vertex 10 25.4252 9.78799
    endloop
  endfacet
  facet normal 1 0 0
    outer loop
      vertex 10 30 18
      vertex 10 24.895 10.7063
      vertex 10 25.2084 10.275
    endloop
  endfacet
  facet normal 1 0 0
    outer loop
      vertex 10 30 18
      vertex 10 24.4989 11.063
      vertex 10 24.895 10.7063
    endloop
  endfacet
  facet normal 1 0 0
    outer loop
      vertex 10 30 18
      vertex 10 24.0372 11.3295
      vertex 10 24.4989 11.063
    endloop
  endfacet
  facet normal 1 0 0
    outer loop
      vertex 10 30 18
      vertex 10 23.5302 11.4943
      vertex 10 24.0372 11.3295
    endloop
  endfacet
  facet normal 1 -0 0
    outer loop
      vertex 10 20.1213 18
      vertex 10 23.5302 11.4943
      vertex 10 30 18
    endloop
  endfacet
  facet normal 1 0 0
    outer loop
      vertex 10 23.5302 11.4943
      vertex 10 20.1213 18
      vertex 10 23 11.55
    endloop
  endfacet
  facet normal 1 0 0
    outer loop
      vertex 10 23 11.55
      vertex 10 20.1213 18
      vertex 10 22.4698 11.4943
    endloop
  endfacet
  facet normal 1 0 0
    outer loop
      vertex 10 22.4698 11.4943
      vertex 10 20.1213 18
      vertex 10 21.9628 11.3295
    endloop
  endfacet
  facet normal 1 0 0
    outer loop
      vertex 10 20.464 9.26655
      vertex 10 20.1213 18
      vertex 10 20.464 8.73345
    endloop
  endfacet
  facet normal 1 0 0
    outer loop
      vertex 10 20.5748 9.78799
      vertex 10 20.1213 18
      vertex 10 20.464 9.26655
    endloop
  endfacet
  facet normal 1 0 0
    outer loop
      vertex 10 20.7916 10.275
      vertex 10 20.1213 18
      vertex 10 20.5748 9.78799
    endloop
  endfacet
  facet normal 1 0 0
    outer loop
      vertex 10 21.105 10.7063
      vertex 10 20.1213 18
      vertex 10 20.7916 10.275
    endloop
  endfacet
  facet normal 1 0 0
    outer loop
      vertex 10 21.5011 11.063
      vertex 10 20.1213 18
      vertex 10 21.105 10.7063
    endloop
  endfacet
  facet normal 1 0 0
    outer loop
      vertex 10 21.9628 11.3295
      vertex 10 20.1213 18
      vertex 10 21.5011 11.063
    endloop
  endfacet
  facet normal 1 -0 0
    outer loop
      vertex 10 25.536 8.73345
      vertex 10 30 0
      vertex 10 25.536 9.26655
    endloop
  endfacet
  facet normal 1 -0 0
    outer loop
      vertex 10 25.4252 8.21201
      vertex 10 30 0
      vertex 10 25.536 8.73345
    endloop
  endfacet
  facet normal 1 -0 0
    outer loop
      vertex 10 25.2084 7.725
      vertex 10 30 0
      vertex 10 25.4252 8.21201
    endloop
  endfacet
  facet normal 1 -0 0
    outer loop
      vertex 10 24.895 7.29372
      vertex 10 30 0
      vertex 10 25.2084 7.725
    endloop
  endfacet
  facet normal 1 -0 0
    outer loop
      vertex 10 24.4989 6.93701
      vertex 10 30 0
      vertex 10 24.895 7.29372
    endloop
  endfacet
  facet normal 1 -0 0
    outer loop
      vertex 10 24.0372 6.67046
      vertex 10 30 0
      vertex 10 24.4989 6.93701
    endloop
  endfacet
  facet normal 1 -0 0
    outer loop
      vertex 10 23.5302 6.50572
      vertex 10 30 0
      vertex 10 24.0372 6.67046
    endloop
  endfacet
  facet normal 1 0 0
    outer loop
      vertex 10 20.1213 0
      vertex 10 23.5302 6.50572
      vertex 10 23 6.45
    endloop
  endfacet
  facet normal 1 0 0
    outer loop
      vertex 10 20.1213 0
      vertex 10 23 6.45
      vertex 10 22.4698 6.50572
    endloop
  endfacet
  facet normal 1 0 0
    outer loop
      vertex 10 20.1213 0
      vertex 10 22.4698 6.50572
      vertex 10 21.9628 6.67046
    endloop
  endfacet
  facet normal 1 0 0
    outer loop
      vertex 10 20.1213 0
      vertex 10 21.9628 6.67046
      vertex 10 21.5011 6.93701
    endloop
  endfacet
  facet normal 1 0 0
    outer loop
      vertex 10 23.5302 6.50572
      vertex 10 20.1213 0
      vertex 10 30 0
    endloop
  endfacet
  facet normal 1 0 0
    outer loop
      vertex 10 21.105 7.29372
      vertex 10 20.1213 0
      vertex 10 21.5011 6.93701
    endloop
  endfacet
  facet normal 1 0 0
    outer loop
      vertex 10 20.7916 7.725
      vertex 10 20.1213 0
      vertex 10 21.105 7.29372
    endloop
  endfacet
  facet normal 1 0 0
    outer loop
      vertex 10 20.5748 8.21201
      vertex 10 20.1213 0
      vertex 10 20.7916 7.725
    endloop
  endfacet
  facet normal 1 0 0
    outer loop
      vertex 10 20.464 8.73345
      vertex 10 20.1213 0
      vertex 10 20.5748 8.21201
    endloop
  endfacet
  facet normal 1 0 0
    outer loop
      vertex 10 20.1213 0
      vertex 10 20.464 8.73345
      vertex 10 20.1213 18
    endloop
  endfacet
  facet normal 0 1 -0
    outer loop
      vertex 10 30 0
      vertex 0 30 18
      vertex 10 30 18
    endloop
  endfacet
  facet normal 0 1 0
    outer loop
      vertex 0 30 18
      vertex 10 30 0
      vertex 0 30 0
    endloop
  endfacet
  facet normal 0 0 -1
    outer loop
      vertex 0 0 0
      vertex 10 9.87868 0
      vertex 10 0 0
    endloop
  endfacet
  facet normal 0 0 -1
    outer loop
      vertex 10 9.87868 0
      vertex 7.975 11.4926 0
      vertex 8.71599 11.1627 0
    endloop
  endfacet
  facet normal -0 0 -1
    outer loop
      vertex 10 9.87868 0
      vertex 0 0 0
      vertex 7.975 11.4926 0
    endloop
  endfacet
  facet normal -0 0 -1
    outer loop
      vertex 7.975 11.4926 0
      vertex 0 0 0
      vertex 7.29002 11.9903 0
    endloop
  endfacet
  facet normal -0 0 -1
    outer loop
      vertex 7.29002 11.9903 0
      vertex 0 0 0
      vertex 6.72348 12.6195 0
    endloop
  endfacet
  facet normal -0 0 -1
    outer loop
      vertex 6.72348 12.6195 0
      vertex 0 0 0
      vertex 6.30014 13.3527 0
    endloop
  endfacet
  facet normal -0 0 -1
    outer loop
      vertex 6.0385 14.158 0
      vertex 0 0 0
      vertex 5.95 15 0
    endloop
  endfacet
  facet normal -0 0 -1
    outer loop
      vertex 6.30014 13.3527 0
      vertex 0 0 0
      vertex 6.0385 14.158 0
    endloop
  endfacet
  facet normal 0 0 -1
    outer loop
      vertex 7.975 18.5074 0
      vertex 10 20.1213 0
      vertex 8.71599 18.8373 0
    endloop
  endfacet
  facet normal 0 0 -1
    outer loop
      vertex 0 30 0
      vertex 10 20.1213 0
      vertex 7.975 18.5074 0
    endloop
  endfacet
  facet normal 0 0 -1
    outer loop
      vertex 0 30 0
      vertex 7.975 18.5074 0
      vertex 7.29002 18.0097 0
    endloop
  endfacet
  facet normal 0 0 -1
    outer loop
      vertex 0 30 0
      vertex 7.29002 18.0097 0
      vertex 6.72348 17.3805 0
    endloop
  endfacet
  facet normal 0 0 -1
    outer loop
      vertex 0 30 0
      vertex 6.72348 17.3805 0
      vertex 6.30014 16.6473 0
    endloop
  endfacet
  facet normal 0 0 -1
    outer loop
      vertex 0 30 0
      vertex 6.30014 16.6473 0
      vertex 6.0385 15.842 0
    endloop
  endfacet
  facet normal 0 0 -1
    outer loop
      vertex 0 30 0
      vertex 5.95 15 0
      vertex 0 0 0
    endloop
  endfacet
  facet normal 0 0 -1
    outer loop
      vertex 5.95 15 0
      vertex 0 30 0
      vertex 6.0385 15.842 0
    endloop
  endfacet
  facet normal 0 0 -1
    outer loop
      vertex 10 20.1213 0
      vertex 0 30 0
      vertex 10 30 0
    endloop
  endfacet
  facet normal 0 -1 0
    outer loop
      vertex 0 0 0
      vertex 10 0 18
      vertex 0 0 18
    endloop
  endfacet
  facet normal 0 -1 -0
    outer loop
      vertex 10 0 18
      vertex 0 0 0
      vertex 10 0 0
    endloop
  endfacet
  facet normal 0.707107 0.707107 0
    outer loop
      vertex 10 9.87868 18
      vertex 8.71599 11.1627 0
      vertex 8.71599 11.1627 18
    endloop
  endfacet
  facet normal 0.707107 0.707107 0
    outer loop
      vertex 8.71599 11.1627 0
      vertex 10 9.87868 18
      vertex 10 9.87868 0
    endloop
  endfacet
  facet normal 0.707106 -0.707108 0
    outer loop
      vertex 8.71599 18.8373 0
      vertex 10 20.1213 18
      vertex 8.71599 18.8373 18
    endloop
  endfacet
  facet normal 0.707106 -0.707108 0
    outer loop
      vertex 10 20.1213 18
      vertex 8.71599 18.8373 0
      vertex 10 20.1213 0
    endloop
  endfacet
  facet normal 0.406737 -0.913545 0
    outer loop
      vertex 7.975 18.5074 0
      vertex 8.71599 18.8373 18
      vertex 7.975 18.5074 18
    endloop
  endfacet
  facet normal 0.406737 -0.913545 0
    outer loop
      vertex 8.71599 18.8373 18
      vertex 7.975 18.5074 0
      vertex 8.71599 18.8373 0
    endloop
  endfacet
  facet normal 0.951056 -0.309017 0
    outer loop
      vertex 6.0385 15.842 18
      vertex 6.30014 16.6473 0
      vertex 6.30014 16.6473 18
    endloop
  endfacet
  facet normal 0.951056 -0.309017 0
    outer loop
      vertex 6.30014 16.6473 0
      vertex 6.0385 15.842 18
      vertex 6.0385 15.842 0
    endloop
  endfacet
  facet normal 0.994522 0.104528 0
    outer loop
      vertex 6.0385 14.158 18
      vertex 5.95 15 0
      vertex 5.95 15 18
    endloop
  endfacet
  facet normal 0.994522 0.104528 0
    outer loop
      vertex 5.95 15 0
      vertex 6.0385 14.158 18
      vertex 6.0385 14.158 0
    endloop
  endfacet
  facet normal 0.866026 -0.499999 0
    outer loop
      vertex 6.30014 16.6473 18
      vertex 6.72348 17.3805 0
      vertex 6.72348 17.3805 18
    endloop
  endfacet
  facet normal 0.866026 -0.499999 0
    outer loop
      vertex 6.72348 17.3805 0
      vertex 6.30014 16.6473 18
      vertex 6.30014 16.6473 0
    endloop
  endfacet
  facet normal 0.587786 -0.809016 0
    outer loop
      vertex 7.29002 18.0097 0
      vertex 7.975 18.5074 18
      vertex 7.29002 18.0097 18
    endloop
  endfacet
  facet normal 0.587786 -0.809016 0
    outer loop
      vertex 7.975 18.5074 18
      vertex 7.29002 18.0097 0
      vertex 7.975 18.5074 0
    endloop
  endfacet
  facet normal 0.743144 -0.669131 0
    outer loop
      vertex 6.72348 17.3805 18
      vertex 7.29002 18.0097 0
      vertex 7.29002 18.0097 18
    endloop
  endfacet
  facet normal 0.743144 -0.669131 0
    outer loop
      vertex 7.29002 18.0097 0
      vertex 6.72348 17.3805 18
      vertex 6.72348 17.3805 0
    endloop
  endfacet
  facet normal 0.406736 0.913546 -0
    outer loop
      vertex 8.71599 11.1627 0
      vertex 7.975 11.4926 18
      vertex 8.71599 11.1627 18
    endloop
  endfacet
  facet normal 0.406736 0.913546 0
    outer loop
      vertex 7.975 11.4926 18
      vertex 8.71599 11.1627 0
      vertex 7.975 11.4926 0
    endloop
  endfacet
  facet normal 0.743145 0.669131 0
    outer loop
      vertex 7.29002 11.9903 18
      vertex 6.72348 12.6195 0
      vertex 6.72348 12.6195 18
    endloop
  endfacet
  facet normal 0.743145 0.669131 0
    outer loop
      vertex 6.72348 12.6195 0
      vertex 7.29002 11.9903 18
      vertex 7.29002 11.9903 0
    endloop
  endfacet
  facet normal 0.951056 0.309017 0
    outer loop
      vertex 6.30014 13.3527 18
      vertex 6.0385 14.158 0
      vertex 6.0385 14.158 18
    endloop
  endfacet
  facet normal 0.951056 0.309017 0
    outer loop
      vertex 6.0385 14.158 0
      vertex 6.30014 13.3527 18
      vertex 6.30014 13.3527 0
    endloop
  endfacet
  facet normal 0.587786 0.809017 -0
    outer loop
      vertex 7.975 11.4926 0
      vertex 7.29002 11.9903 18
      vertex 7.975 11.4926 18
    endloop
  endfacet
  facet normal 0.587786 0.809017 0
    outer loop
      vertex 7.29002 11.9903 18
      vertex 7.975 11.4926 0
      vertex 7.29002 11.9903 0
    endloop
  endfacet
  facet normal 0.994522 -0.104528 0
    outer loop
      vertex 5.95 15 18
      vertex 6.0385 15.842 0
      vertex 6.0385 15.842 18
    endloop
  endfacet
  facet normal 0.994522 -0.104528 0
    outer loop
      vertex 6.0385 15.842 0
      vertex 5.95 15 18
      vertex 5.95 15 0
    endloop
  endfacet
  facet normal 0.866026 0.5 0
    outer loop
      vertex 6.72348 12.6195 18
      vertex 6.30014 13.3527 0
      vertex 6.30014 13.3527 18
    endloop
  endfacet
  facet normal 0.866026 0.5 0
    outer loop
      vertex 6.30014 13.3527 0
      vertex 6.72348 12.6195 18
      vertex 6.72348 12.6195 0
    endloop
  endfacet
  facet normal 0 1 -0
    outer loop
      vertex 10 4.46397 8.73345
      vertex 5.55 4.46397 9.26655
      vertex 10 4.46397 9.26655
    endloop
  endfacet
  facet normal 0 1 0
    outer loop
      vertex 5.55 4.46397 9.26655
      vertex 10 4.46397 8.73345
      vertex 5.55 4.46397 8.73345
    endloop
  endfacet
  facet normal -0 0.669131 0.743145
    outer loop
      vertex 5.55 5.50115 6.93701
      vertex 10 5.10498 7.29372
      vertex 10 5.50115 6.93701
    endloop
  endfacet
  facet normal 0 0.669131 0.743145
    outer loop
      vertex 10 5.10498 7.29372
      vertex 5.55 5.50115 6.93701
      vertex 5.55 5.10498 7.29372
    endloop
  endfacet
  facet normal 0 -0.913546 0.406736
    outer loop
      vertex 5.55 9.20836 7.725
      vertex 10 9.42519 8.21201
      vertex 5.55 9.42519 8.21201
    endloop
  endfacet
  facet normal 0 -0.913546 0.406736
    outer loop
      vertex 10 9.42519 8.21201
      vertex 5.55 9.20836 7.725
      vertex 10 9.20836 7.725
    endloop
  endfacet
  facet normal 0 -0.5 0.866026
    outer loop
      vertex 5.55 8.49885 6.93701
      vertex 10 8.03718 6.67046
      vertex 10 8.49885 6.93701
    endloop
  endfacet
  facet normal 0 -0.5 0.866026
    outer loop
      vertex 10 8.03718 6.67046
      vertex 5.55 8.49885 6.93701
      vertex 5.55 8.03718 6.67046
    endloop
  endfacet
  facet normal -0 0.104528 0.994522
    outer loop
      vertex 5.55 7 6.45
      vertex 10 6.46982 6.50572
      vertex 10 7 6.45
    endloop
  endfacet
  facet normal 0 0.104528 0.994522
    outer loop
      vertex 10 6.46982 6.50572
      vertex 5.55 7 6.45
      vertex 5.55 6.46982 6.50572
    endloop
  endfacet
  facet normal -0 0.5 0.866026
    outer loop
      vertex 5.55 5.96282 6.67046
      vertex 10 5.50115 6.93701
      vertex 10 5.96282 6.67046
    endloop
  endfacet
  facet normal 0 0.5 0.866026
    outer loop
      vertex 10 5.50115 6.93701
      vertex 5.55 5.96282 6.67046
      vertex 5.55 5.50115 6.93701
    endloop
  endfacet
  facet normal 0 -1 0
    outer loop
      vertex 5.55 9.53603 8.73345
      vertex 10 9.53603 9.26655
      vertex 5.55 9.53603 9.26655
    endloop
  endfacet
  facet normal 0 -1 -0
    outer loop
      vertex 10 9.53603 9.26655
      vertex 5.55 9.53603 8.73345
      vertex 10 9.53603 8.73345
    endloop
  endfacet
  facet normal 0 -0.913546 -0.406736
    outer loop
      vertex 5.55 9.42519 9.78799
      vertex 10 9.20836 10.275
      vertex 5.55 9.20836 10.275
    endloop
  endfacet
  facet normal 0 -0.913546 -0.406736
    outer loop
      vertex 10 9.20836 10.275
      vertex 5.55 9.42519 9.78799
      vertex 10 9.42519 9.78799
    endloop
  endfacet
  facet normal 0 -0.309017 -0.951056
    outer loop
      vertex 5.55 7.53017 11.4943
      vertex 10 8.03718 11.3295
      vertex 10 7.53017 11.4943
    endloop
  endfacet
  facet normal -0 -0.309017 -0.951056
    outer loop
      vertex 10 8.03718 11.3295
      vertex 5.55 7.53017 11.4943
      vertex 5.55 8.03718 11.3295
    endloop
  endfacet
  facet normal 0 -0.309017 0.951056
    outer loop
      vertex 5.55 8.03718 6.67046
      vertex 10 7.53017 6.50572
      vertex 10 8.03718 6.67046
    endloop
  endfacet
  facet normal 0 -0.309017 0.951056
    outer loop
      vertex 10 7.53017 6.50572
      vertex 5.55 8.03718 6.67046
      vertex 5.55 7.53017 6.50572
    endloop
  endfacet
  facet normal 0 -0.669131 0.743145
    outer loop
      vertex 5.55 8.89502 7.29372
      vertex 10 8.49885 6.93701
      vertex 10 8.89502 7.29372
    endloop
  endfacet
  facet normal 0 -0.669131 0.743145
    outer loop
      vertex 10 8.49885 6.93701
      vertex 5.55 8.89502 7.29372
      vertex 5.55 8.49885 6.93701
    endloop
  endfacet
  facet normal 0 0.104528 -0.994522
    outer loop
      vertex 5.55 6.46982 11.4943
      vertex 10 7 11.55
      vertex 10 6.46982 11.4943
    endloop
  endfacet
  facet normal 0 0.104528 -0.994522
    outer loop
      vertex 10 7 11.55
      vertex 5.55 6.46982 11.4943
      vertex 5.55 7 11.55
    endloop
  endfacet
  facet normal 0 -0.5 -0.866026
    outer loop
      vertex 5.55 8.03718 11.3295
      vertex 10 8.49885 11.063
      vertex 10 8.03718 11.3295
    endloop
  endfacet
  facet normal -0 -0.5 -0.866026
    outer loop
      vertex 10 8.49885 11.063
      vertex 5.55 8.03718 11.3295
      vertex 5.55 8.49885 11.063
    endloop
  endfacet
  facet normal 0 -0.809017 -0.587786
    outer loop
      vertex 5.55 9.20836 10.275
      vertex 10 8.89502 10.7063
      vertex 5.55 8.89502 10.7063
    endloop
  endfacet
  facet normal 0 -0.809017 -0.587786
    outer loop
      vertex 10 8.89502 10.7063
      vertex 5.55 9.20836 10.275
      vertex 10 9.20836 10.275
    endloop
  endfacet
  facet normal 0 -0.978147 -0.207912
    outer loop
      vertex 5.55 9.53603 9.26655
      vertex 10 9.42519 9.78799
      vertex 5.55 9.42519 9.78799
    endloop
  endfacet
  facet normal 0 -0.978147 -0.207912
    outer loop
      vertex 10 9.42519 9.78799
      vertex 5.55 9.53603 9.26655
      vertex 10 9.53603 9.26655
    endloop
  endfacet
  facet normal 0 -0.669131 -0.743145
    outer loop
      vertex 5.55 8.49885 11.063
      vertex 10 8.89502 10.7063
      vertex 10 8.49885 11.063
    endloop
  endfacet
  facet normal -0 -0.669131 -0.743145
    outer loop
      vertex 10 8.89502 10.7063
      vertex 5.55 8.49885 11.063
      vertex 5.55 8.89502 10.7063
    endloop
  endfacet
  facet normal 0 -0.104528 0.994522
    outer loop
      vertex 5.55 7.53017 6.50572
      vertex 10 7 6.45
      vertex 10 7.53017 6.50572
    endloop
  endfacet
  facet normal 0 -0.104528 0.994522
    outer loop
      vertex 10 7 6.45
      vertex 5.55 7.53017 6.50572
      vertex 5.55 7 6.45
    endloop
  endfacet
  facet normal 0 0.978147 0.207912
    outer loop
      vertex 10 4.57481 8.21201
      vertex 5.55 4.46397 8.73345
      vertex 10 4.46397 8.73345
    endloop
  endfacet
  facet normal 0 0.978147 0.207912
    outer loop
      vertex 5.55 4.46397 8.73345
      vertex 10 4.57481 8.21201
      vertex 5.55 4.57481 8.21201
    endloop
  endfacet
  facet normal 0 -0.809017 0.587786
    outer loop
      vertex 5.55 8.89502 7.29372
      vertex 10 9.20836 7.725
      vertex 5.55 9.20836 7.725
    endloop
  endfacet
  facet normal 0 -0.809017 0.587786
    outer loop
      vertex 10 9.20836 7.725
      vertex 5.55 8.89502 7.29372
      vertex 10 8.89502 7.29372
    endloop
  endfacet
  facet normal 0 -0.978147 0.207912
    outer loop
      vertex 5.55 9.42519 8.21201
      vertex 10 9.53603 8.73345
      vertex 5.55 9.53603 8.73345
    endloop
  endfacet
  facet normal 0 -0.978147 0.207912
    outer loop
      vertex 10 9.53603 8.73345
      vertex 5.55 9.42519 8.21201
      vertex 10 9.42519 8.21201
    endloop
  endfacet
  facet normal 0 -0.104528 -0.994522
    outer loop
      vertex 5.55 7 11.55
      vertex 10 7.53017 11.4943
      vertex 10 7 11.55
    endloop
  endfacet
  facet normal -0 -0.104528 -0.994522
    outer loop
      vertex 10 7.53017 11.4943
      vertex 5.55 7 11.55
      vertex 5.55 7.53017 11.4943
    endloop
  endfacet
  facet normal 0 0.809017 0.587786
    outer loop
      vertex 10 5.10498 7.29372
      vertex 5.55 4.79163 7.725
      vertex 10 4.79163 7.725
    endloop
  endfacet
  facet normal 0 0.809017 0.587786
    outer loop
      vertex 5.55 4.79163 7.725
      vertex 10 5.10498 7.29372
      vertex 5.55 5.10498 7.29372
    endloop
  endfacet
  facet normal 0 0.978147 -0.207912
    outer loop
      vertex 10 4.46397 9.26655
      vertex 5.55 4.57481 9.78799
      vertex 10 4.57481 9.78799
    endloop
  endfacet
  facet normal 0 0.978147 -0.207912
    outer loop
      vertex 5.55 4.57481 9.78799
      vertex 10 4.46397 9.26655
      vertex 5.55 4.46397 9.26655
    endloop
  endfacet
  facet normal -0 0.309017 0.951056
    outer loop
      vertex 5.55 6.46982 6.50572
      vertex 10 5.96282 6.67046
      vertex 10 6.46982 6.50572
    endloop
  endfacet
  facet normal 0 0.309017 0.951056
    outer loop
      vertex 10 5.96282 6.67046
      vertex 5.55 6.46982 6.50572
      vertex 5.55 5.96282 6.67046
    endloop
  endfacet
  facet normal 0 0.5 -0.866026
    outer loop
      vertex 5.55 5.50115 11.063
      vertex 10 5.96282 11.3295
      vertex 10 5.50115 11.063
    endloop
  endfacet
  facet normal 0 0.5 -0.866026
    outer loop
      vertex 10 5.96282 11.3295
      vertex 5.55 5.50115 11.063
      vertex 5.55 5.96282 11.3295
    endloop
  endfacet
  facet normal 0 0.809017 -0.587786
    outer loop
      vertex 10 4.79163 10.275
      vertex 5.55 5.10498 10.7063
      vertex 10 5.10498 10.7063
    endloop
  endfacet
  facet normal 0 0.809017 -0.587786
    outer loop
      vertex 5.55 5.10498 10.7063
      vertex 10 4.79163 10.275
      vertex 5.55 4.79163 10.275
    endloop
  endfacet
  facet normal 0 0.669131 -0.743145
    outer loop
      vertex 5.55 5.10498 10.7063
      vertex 10 5.50115 11.063
      vertex 10 5.10498 10.7063
    endloop
  endfacet
  facet normal 0 0.669131 -0.743145
    outer loop
      vertex 10 5.50115 11.063
      vertex 5.55 5.10498 10.7063
      vertex 5.55 5.50115 11.063
    endloop
  endfacet
  facet normal 0 0.913546 -0.406736
    outer loop
      vertex 10 4.57481 9.78799
      vertex 5.55 4.79163 10.275
      vertex 10 4.79163 10.275
    endloop
  endfacet
  facet normal 0 0.913546 -0.406736
    outer loop
      vertex 5.55 4.79163 10.275
      vertex 10 4.57481 9.78799
      vertex 5.55 4.57481 9.78799
    endloop
  endfacet
  facet normal 0 0.913546 0.406736
    outer loop
      vertex 10 4.79163 7.725
      vertex 5.55 4.57481 8.21201
      vertex 10 4.57481 8.21201
    endloop
  endfacet
  facet normal 0 0.913546 0.406736
    outer loop
      vertex 5.55 4.57481 8.21201
      vertex 10 4.79163 7.725
      vertex 5.55 4.79163 7.725
    endloop
  endfacet
  facet normal 0 0.309017 -0.951056
    outer loop
      vertex 5.55 5.96282 11.3295
      vertex 10 6.46982 11.4943
      vertex 10 5.96282 11.3295
    endloop
  endfacet
  facet normal 0 0.309017 -0.951056
    outer loop
      vertex 10 6.46982 11.4943
      vertex 5.55 5.96282 11.3295
      vertex 5.55 6.46982 11.4943
    endloop
  endfacet
  facet normal 0 0.978148 0.207912
    outer loop
      vertex 5.55 2.91046 7.67123
      vertex 0 2.72356 8.55053
      vertex 5.55 2.72356 8.55053
    endloop
  endfacet
  facet normal 0 0.978148 0.207912
    outer loop
      vertex 0 2.72356 8.55053
      vertex 5.55 2.91046 7.67123
      vertex 0 2.91046 7.67123
    endloop
  endfacet
  facet normal 0 -0.104528 0.994522
    outer loop
      vertex 0 7.89402 4.79396
      vertex 5.55 7 4.7
      vertex 5.55 7.89402 4.79396
    endloop
  endfacet
  facet normal 0 -0.104528 0.994522
    outer loop
      vertex 5.55 7 4.7
      vertex 0 7.89402 4.79396
      vertex 0 7 4.7
    endloop
  endfacet
  facet normal 0 0.104528 -0.994522
    outer loop
      vertex 0 6.10598 13.206
      vertex 5.55 7 13.3
      vertex 5.55 6.10598 13.206
    endloop
  endfacet
  facet normal 0 0.104528 -0.994522
    outer loop
      vertex 5.55 7 13.3
      vertex 0 6.10598 13.206
      vertex 0 7 13.3
    endloop
  endfacet
  facet normal 0 -0.978148 -0.207912
    outer loop
      vertex 0 11.2764 9.44947
      vertex 5.55 11.0895 10.3288
      vertex 0 11.0895 10.3288
    endloop
  endfacet
  facet normal 0 -0.978148 -0.207912
    outer loop
      vertex 5.55 11.0895 10.3288
      vertex 0 11.2764 9.44947
      vertex 5.55 11.2764 9.44947
    endloop
  endfacet
  facet normal 0 -0.66913 -0.743145
    outer loop
      vertex 0 9.52748 12.4788
      vertex 5.55 10.1955 11.8773
      vertex 5.55 9.52748 12.4788
    endloop
  endfacet
  facet normal -0 -0.66913 -0.743145
    outer loop
      vertex 5.55 10.1955 11.8773
      vertex 0 9.52748 12.4788
      vertex 0 10.1955 11.8773
    endloop
  endfacet
  facet normal 0 -0.809017 -0.587785
    outer loop
      vertex 0 10.7239 11.15
      vertex 5.55 10.1955 11.8773
      vertex 0 10.1955 11.8773
    endloop
  endfacet
  facet normal 0 -0.809017 -0.587785
    outer loop
      vertex 5.55 10.1955 11.8773
      vertex 0 10.7239 11.15
      vertex 5.55 10.7239 11.15
    endloop
  endfacet
  facet normal -0 0.104528 0.994522
    outer loop
      vertex 0 7 4.7
      vertex 5.55 6.10598 4.79396
      vertex 5.55 7 4.7
    endloop
  endfacet
  facet normal 0 0.104528 0.994522
    outer loop
      vertex 5.55 6.10598 4.79396
      vertex 0 7 4.7
      vertex 0 6.10598 4.79396
    endloop
  endfacet
  facet normal -0 0.5 0.866025
    outer loop
      vertex 0 5.25103 5.07175
      vertex 5.55 4.47252 5.52123
      vertex 5.55 5.25103 5.07175
    endloop
  endfacet
  facet normal 0 0.5 0.866025
    outer loop
      vertex 5.55 4.47252 5.52123
      vertex 0 5.25103 5.07175
      vertex 0 4.47252 5.52123
    endloop
  endfacet
  facet normal 0 -0.309018 -0.951056
    outer loop
      vertex 0 7.89402 13.206
      vertex 5.55 8.74897 12.9282
      vertex 5.55 7.89402 13.206
    endloop
  endfacet
  facet normal -0 -0.309018 -0.951056
    outer loop
      vertex 5.55 8.74897 12.9282
      vertex 0 7.89402 13.206
      vertex 0 8.74897 12.9282
    endloop
  endfacet
  facet normal 0 -0.5 -0.866025
    outer loop
      vertex 0 8.74897 12.9282
      vertex 5.55 9.52748 12.4788
      vertex 5.55 8.74897 12.9282
    endloop
  endfacet
  facet normal -0 -0.5 -0.866025
    outer loop
      vertex 5.55 9.52748 12.4788
      vertex 0 8.74897 12.9282
      vertex 0 9.52748 12.4788
    endloop
  endfacet
  facet normal 0 -0.104528 -0.994522
    outer loop
      vertex 0 7 13.3
      vertex 5.55 7.89402 13.206
      vertex 5.55 7 13.3
    endloop
  endfacet
  facet normal -0 -0.104528 -0.994522
    outer loop
      vertex 5.55 7.89402 13.206
      vertex 0 7 13.3
      vertex 0 7.89402 13.206
    endloop
  endfacet
  facet normal 0 -0.913545 -0.406737
    outer loop
      vertex 0 11.0895 10.3288
      vertex 5.55 10.7239 11.15
      vertex 0 10.7239 11.15
    endloop
  endfacet
  facet normal 0 -0.913545 -0.406737
    outer loop
      vertex 5.55 10.7239 11.15
      vertex 0 11.0895 10.3288
      vertex 5.55 11.0895 10.3288
    endloop
  endfacet
  facet normal 0 0.66913 -0.743145
    outer loop
      vertex 0 3.80448 11.8773
      vertex 5.55 4.47252 12.4788
      vertex 5.55 3.80448 11.8773
    endloop
  endfacet
  facet normal 0 0.66913 -0.743145
    outer loop
      vertex 5.55 4.47252 12.4788
      vertex 0 3.80448 11.8773
      vertex 0 4.47252 12.4788
    endloop
  endfacet
  facet normal -0 0.66913 0.743145
    outer loop
      vertex 0 4.47252 5.52123
      vertex 5.55 3.80448 6.12274
      vertex 5.55 4.47252 5.52123
    endloop
  endfacet
  facet normal 0 0.66913 0.743145
    outer loop
      vertex 5.55 3.80448 6.12274
      vertex 0 4.47252 5.52123
      vertex 0 3.80448 6.12274
    endloop
  endfacet
  facet normal 0 -0.309018 0.951056
    outer loop
      vertex 0 8.74897 5.07175
      vertex 5.55 7.89402 4.79396
      vertex 5.55 8.74897 5.07175
    endloop
  endfacet
  facet normal 0 -0.309018 0.951056
    outer loop
      vertex 5.55 7.89402 4.79396
      vertex 0 8.74897 5.07175
      vertex 0 7.89402 4.79396
    endloop
  endfacet
  facet normal 0 -0.913545 0.406737
    outer loop
      vertex 0 10.7239 6.85
      vertex 5.55 11.0895 7.67123
      vertex 0 11.0895 7.67123
    endloop
  endfacet
  facet normal 0 -0.913545 0.406737
    outer loop
      vertex 5.55 11.0895 7.67123
      vertex 0 10.7239 6.85
      vertex 5.55 10.7239 6.85
    endloop
  endfacet
  facet normal 0 -0.978148 0.207912
    outer loop
      vertex 0 11.0895 7.67123
      vertex 5.55 11.2764 8.55053
      vertex 0 11.2764 8.55053
    endloop
  endfacet
  facet normal 0 -0.978148 0.207912
    outer loop
      vertex 5.55 11.2764 8.55053
      vertex 0 11.0895 7.67123
      vertex 5.55 11.0895 7.67123
    endloop
  endfacet
  facet normal 0 -1 0
    outer loop
      vertex 0 11.2764 8.55053
      vertex 5.55 11.2764 9.44947
      vertex 0 11.2764 9.44947
    endloop
  endfacet
  facet normal 0 -1 -0
    outer loop
      vertex 5.55 11.2764 9.44947
      vertex 0 11.2764 8.55053
      vertex 5.55 11.2764 8.55053
    endloop
  endfacet
  facet normal 0 0.913545 0.406737
    outer loop
      vertex 5.55 3.27609 6.85
      vertex 0 2.91046 7.67123
      vertex 5.55 2.91046 7.67123
    endloop
  endfacet
  facet normal 0 0.913545 0.406737
    outer loop
      vertex 0 2.91046 7.67123
      vertex 5.55 3.27609 6.85
      vertex 0 3.27609 6.85
    endloop
  endfacet
  facet normal -0 0.309018 0.951056
    outer loop
      vertex 0 6.10598 4.79396
      vertex 5.55 5.25103 5.07175
      vertex 5.55 6.10598 4.79396
    endloop
  endfacet
  facet normal 0 0.309018 0.951056
    outer loop
      vertex 5.55 5.25103 5.07175
      vertex 0 6.10598 4.79396
      vertex 0 5.25103 5.07175
    endloop
  endfacet
  facet normal 0 -0.66913 0.743145
    outer loop
      vertex 0 10.1955 6.12274
      vertex 5.55 9.52748 5.52123
      vertex 5.55 10.1955 6.12274
    endloop
  endfacet
  facet normal 0 -0.66913 0.743145
    outer loop
      vertex 5.55 9.52748 5.52123
      vertex 0 10.1955 6.12274
      vertex 0 9.52748 5.52123
    endloop
  endfacet
  facet normal 0 -0.809017 0.587785
    outer loop
      vertex 0 10.1955 6.12274
      vertex 5.55 10.7239 6.85
      vertex 0 10.7239 6.85
    endloop
  endfacet
  facet normal 0 -0.809017 0.587785
    outer loop
      vertex 5.55 10.7239 6.85
      vertex 0 10.1955 6.12274
      vertex 5.55 10.1955 6.12274
    endloop
  endfacet
  facet normal 0 1 -0
    outer loop
      vertex 5.55 2.72356 8.55053
      vertex 0 2.72356 9.44947
      vertex 5.55 2.72356 9.44947
    endloop
  endfacet
  facet normal 0 1 0
    outer loop
      vertex 0 2.72356 9.44947
      vertex 5.55 2.72356 8.55053
      vertex 0 2.72356 8.55053
    endloop
  endfacet
  facet normal 0 0.913545 -0.406737
    outer loop
      vertex 5.55 2.91046 10.3288
      vertex 0 3.27609 11.15
      vertex 5.55 3.27609 11.15
    endloop
  endfacet
  facet normal 0 0.913545 -0.406737
    outer loop
      vertex 0 3.27609 11.15
      vertex 5.55 2.91046 10.3288
      vertex 0 2.91046 10.3288
    endloop
  endfacet
  facet normal -1 0 0
    outer loop
      vertex 5.55 9.53603 8.73345
      vertex 5.55 11.2764 8.55053
      vertex 5.55 11.0895 7.67123
    endloop
  endfacet
  facet normal -1 0 0
    outer loop
      vertex 5.55 11.2764 8.55053
      vertex 5.55 9.53603 8.73345
      vertex 5.55 11.2764 9.44947
    endloop
  endfacet
  facet normal -1 0 0
    outer loop
      vertex 5.55 9.42519 8.21201
      vertex 5.55 11.0895 7.67123
      vertex 5.55 10.7239 6.85
    endloop
  endfacet
  facet normal -1 0 0
    outer loop
      vertex 5.55 9.53603 9.26655
      vertex 5.55 11.2764 9.44947
      vertex 5.55 9.53603 8.73345
    endloop
  endfacet
  facet normal -1 0 0
    outer loop
      vertex 5.55 9.20836 7.725
      vertex 5.55 10.7239 6.85
      vertex 5.55 10.1955 6.12274
    endloop
  endfacet
  facet normal -1 -0 0
    outer loop
      vertex 5.55 11.2764 9.44947
      vertex 5.55 9.53603 9.26655
      vertex 5.55 11.0895 10.3288
    endloop
  endfacet
  facet normal -1 0 0
    outer loop
      vertex 5.55 9.42519 9.78799
      vertex 5.55 11.0895 10.3288
      vertex 5.55 9.53603 9.26655
    endloop
  endfacet
  facet normal -1 0 0
    outer loop
      vertex 5.55 8.89502 7.29372
      vertex 5.55 10.1955 6.12274
      vertex 5.55 9.52748 5.52123
    endloop
  endfacet
  facet normal -1 0 0
    outer loop
      vertex 5.55 11.0895 7.67123
      vertex 5.55 9.42519 8.21201
      vertex 5.55 9.53603 8.73345
    endloop
  endfacet
  facet normal -1 0 0
    outer loop
      vertex 5.55 10.7239 6.85
      vertex 5.55 9.20836 7.725
      vertex 5.55 9.42519 8.21201
    endloop
  endfacet
  facet normal -1 0 0
    outer loop
      vertex 5.55 10.1955 6.12274
      vertex 5.55 8.89502 7.29372
      vertex 5.55 9.20836 7.725
    endloop
  endfacet
  facet normal -1 0 0
    outer loop
      vertex 5.55 8.49885 6.93701
      vertex 5.55 9.52748 5.52123
      vertex 5.55 8.74897 5.07175
    endloop
  endfacet
  facet normal -1 0 0
    outer loop
      vertex 5.55 9.52748 5.52123
      vertex 5.55 8.49885 6.93701
      vertex 5.55 8.89502 7.29372
    endloop
  endfacet
  facet normal -1 0 0
    outer loop
      vertex 5.55 8.74897 5.07175
      vertex 5.55 8.03718 6.67046
      vertex 5.55 8.49885 6.93701
    endloop
  endfacet
  facet normal -1 0 0
    outer loop
      vertex 5.55 7.89402 4.79396
      vertex 5.55 8.03718 6.67046
      vertex 5.55 8.74897 5.07175
    endloop
  endfacet
  facet normal -1 0 0
    outer loop
      vertex 5.55 7.89402 4.79396
      vertex 5.55 7.53017 6.50572
      vertex 5.55 8.03718 6.67046
    endloop
  endfacet
  facet normal -1 0 0
    outer loop
      vertex 5.55 7 4.7
      vertex 5.55 7.53017 6.50572
      vertex 5.55 7.89402 4.79396
    endloop
  endfacet
  facet normal -1 0 0
    outer loop
      vertex 5.55 7 4.7
      vertex 5.55 7 6.45
      vertex 5.55 7.53017 6.50572
    endloop
  endfacet
  facet normal -1 0 0
    outer loop
      vertex 5.55 7 4.7
      vertex 5.55 6.46982 6.50572
      vertex 5.55 7 6.45
    endloop
  endfacet
  facet normal -1 0 0
    outer loop
      vertex 5.55 6.10598 4.79396
      vertex 5.55 6.46982 6.50572
      vertex 5.55 7 4.7
    endloop
  endfacet
  facet normal -1 0 0
    outer loop
      vertex 5.55 6.10598 4.79396
      vertex 5.55 5.96282 6.67046
      vertex 5.55 6.46982 6.50572
    endloop
  endfacet
  facet normal -1 0 0
    outer loop
      vertex 5.55 5.25103 5.07175
      vertex 5.55 5.96282 6.67046
      vertex 5.55 6.10598 4.79396
    endloop
  endfacet
  facet normal -1 -0 0
    outer loop
      vertex 5.55 5.96282 6.67046
      vertex 5.55 5.25103 5.07175
      vertex 5.55 5.50115 6.93701
    endloop
  endfacet
  facet normal -1 0 0
    outer loop
      vertex 5.55 4.47252 5.52123
      vertex 5.55 5.50115 6.93701
      vertex 5.55 5.25103 5.07175
    endloop
  endfacet
  facet normal -1 -0 0
    outer loop
      vertex 5.55 5.50115 6.93701
      vertex 5.55 4.47252 5.52123
      vertex 5.55 5.10498 7.29372
    endloop
  endfacet
  facet normal -1 0 0
    outer loop
      vertex 5.55 3.80448 6.12274
      vertex 5.55 5.10498 7.29372
      vertex 5.55 4.47252 5.52123
    endloop
  endfacet
  facet normal -1 -0 0
    outer loop
      vertex 5.55 5.10498 7.29372
      vertex 5.55 3.80448 6.12274
      vertex 5.55 4.79163 7.725
    endloop
  endfacet
  facet normal -1 0 0
    outer loop
      vertex 5.55 3.27609 6.85
      vertex 5.55 4.79163 7.725
      vertex 5.55 3.80448 6.12274
    endloop
  endfacet
  facet normal -1 0 0
    outer loop
      vertex 5.55 2.91046 7.67123
      vertex 5.55 4.57481 8.21201
      vertex 5.55 3.27609 6.85
    endloop
  endfacet
  facet normal -1 -0 0
    outer loop
      vertex 5.55 4.79163 7.725
      vertex 5.55 3.27609 6.85
      vertex 5.55 4.57481 8.21201
    endloop
  endfacet
  facet normal -1 -0 0
    outer loop
      vertex 5.55 11.0895 10.3288
      vertex 5.55 9.42519 9.78799
      vertex 5.55 10.7239 11.15
    endloop
  endfacet
  facet normal -1 0 0
    outer loop
      vertex 5.55 9.20836 10.275
      vertex 5.55 10.7239 11.15
      vertex 5.55 9.42519 9.78799
    endloop
  endfacet
  facet normal -1 -0 0
    outer loop
      vertex 5.55 10.7239 11.15
      vertex 5.55 9.20836 10.275
      vertex 5.55 10.1955 11.8773
    endloop
  endfacet
  facet normal -1 0 0
    outer loop
      vertex 5.55 8.89502 10.7063
      vertex 5.55 10.1955 11.8773
      vertex 5.55 9.20836 10.275
    endloop
  endfacet
  facet normal -1 -0 0
    outer loop
      vertex 5.55 10.1955 11.8773
      vertex 5.55 8.89502 10.7063
      vertex 5.55 9.52748 12.4788
    endloop
  endfacet
  facet normal -1 0 0
    outer loop
      vertex 5.55 8.49885 11.063
      vertex 5.55 9.52748 12.4788
      vertex 5.55 8.89502 10.7063
    endloop
  endfacet
  facet normal -1 -0 0
    outer loop
      vertex 5.55 9.52748 12.4788
      vertex 5.55 8.49885 11.063
      vertex 5.55 8.74897 12.9282
    endloop
  endfacet
  facet normal -1 0 0
    outer loop
      vertex 5.55 8.03718 11.3295
      vertex 5.55 8.74897 12.9282
      vertex 5.55 8.49885 11.063
    endloop
  endfacet
  facet normal -1 0 0
    outer loop
      vertex 5.55 8.03718 11.3295
      vertex 5.55 7.89402 13.206
      vertex 5.55 8.74897 12.9282
    endloop
  endfacet
  facet normal -1 0 0
    outer loop
      vertex 5.55 7.53017 11.4943
      vertex 5.55 7.89402 13.206
      vertex 5.55 8.03718 11.3295
    endloop
  endfacet
  facet normal -1 0 0
    outer loop
      vertex 5.55 7 11.55
      vertex 5.55 7.89402 13.206
      vertex 5.55 7.53017 11.4943
    endloop
  endfacet
  facet normal -1 0 0
    outer loop
      vertex 5.55 7 11.55
      vertex 5.55 7 13.3
      vertex 5.55 7.89402 13.206
    endloop
  endfacet
  facet normal -1 0 0
    outer loop
      vertex 5.55 6.46982 11.4943
      vertex 5.55 7 13.3
      vertex 5.55 7 11.55
    endloop
  endfacet
  facet normal -1 0 0
    outer loop
      vertex 5.55 6.46982 11.4943
      vertex 5.55 6.10598 13.206
      vertex 5.55 7 13.3
    endloop
  endfacet
  facet normal -1 0 0
    outer loop
      vertex 5.55 5.96282 11.3295
      vertex 5.55 6.10598 13.206
      vertex 5.55 6.46982 11.4943
    endloop
  endfacet
  facet normal -1 0 0
    outer loop
      vertex 5.55 5.25103 12.9282
      vertex 5.55 5.96282 11.3295
      vertex 5.55 5.50115 11.063
    endloop
  endfacet
  facet normal -1 0 0
    outer loop
      vertex 5.55 5.96282 11.3295
      vertex 5.55 5.25103 12.9282
      vertex 5.55 6.10598 13.206
    endloop
  endfacet
  facet normal -1 0 0
    outer loop
      vertex 5.55 4.47252 12.4788
      vertex 5.55 5.50115 11.063
      vertex 5.55 5.10498 10.7063
    endloop
  endfacet
  facet normal -1 0 0
    outer loop
      vertex 5.55 3.80448 11.8773
      vertex 5.55 5.10498 10.7063
      vertex 5.55 4.79163 10.275
    endloop
  endfacet
  facet normal -1 0 0
    outer loop
      vertex 5.55 3.27609 11.15
      vertex 5.55 4.79163 10.275
      vertex 5.55 4.57481 9.78799
    endloop
  endfacet
  facet normal -1 0 0
    outer loop
      vertex 5.55 5.50115 11.063
      vertex 5.55 4.47252 12.4788
      vertex 5.55 5.25103 12.9282
    endloop
  endfacet
  facet normal -1 0 0
    outer loop
      vertex 5.55 2.91046 10.3288
      vertex 5.55 4.57481 9.78799
      vertex 5.55 4.46397 9.26655
    endloop
  endfacet
  facet normal -1 -0 0
    outer loop
      vertex 5.55 4.57481 8.21201
      vertex 5.55 2.91046 7.67123
      vertex 5.55 4.46397 8.73345
    endloop
  endfacet
  facet normal -1 0 0
    outer loop
      vertex 5.55 5.10498 10.7063
      vertex 5.55 3.80448 11.8773
      vertex 5.55 4.47252 12.4788
    endloop
  endfacet
  facet normal -1 0 0
    outer loop
      vertex 5.55 2.72356 8.55053
      vertex 5.55 4.46397 8.73345
      vertex 5.55 2.91046 7.67123
    endloop
  endfacet
  facet normal -1 0 0
    outer loop
      vertex 5.55 4.79163 10.275
      vertex 5.55 3.27609 11.15
      vertex 5.55 3.80448 11.8773
    endloop
  endfacet
  facet normal -1 -0 0
    outer loop
      vertex 5.55 4.46397 8.73345
      vertex 5.55 2.72356 8.55053
      vertex 5.55 4.46397 9.26655
    endloop
  endfacet
  facet normal -1 0 0
    outer loop
      vertex 5.55 4.57481 9.78799
      vertex 5.55 2.91046 10.3288
      vertex 5.55 3.27609 11.15
    endloop
  endfacet
  facet normal -1 0 0
    outer loop
      vertex 5.55 2.72356 9.44947
      vertex 5.55 4.46397 9.26655
      vertex 5.55 2.72356 8.55053
    endloop
  endfacet
  facet normal -1 0 0
    outer loop
      vertex 5.55 4.46397 9.26655
      vertex 5.55 2.72356 9.44947
      vertex 5.55 2.91046 10.3288
    endloop
  endfacet
  facet normal 0 0.809017 0.587785
    outer loop
      vertex 5.55 3.80448 6.12274
      vertex 0 3.27609 6.85
      vertex 5.55 3.27609 6.85
    endloop
  endfacet
  facet normal 0 0.809017 0.587785
    outer loop
      vertex 0 3.27609 6.85
      vertex 5.55 3.80448 6.12274
      vertex 0 3.80448 6.12274
    endloop
  endfacet
  facet normal 0 0.809017 -0.587785
    outer loop
      vertex 5.55 3.27609 11.15
      vertex 0 3.80448 11.8773
      vertex 5.55 3.80448 11.8773
    endloop
  endfacet
  facet normal 0 0.809017 -0.587785
    outer loop
      vertex 0 3.80448 11.8773
      vertex 5.55 3.27609 11.15
      vertex 0 3.27609 11.15
    endloop
  endfacet
  facet normal 0 0.5 -0.866025
    outer loop
      vertex 0 4.47252 12.4788
      vertex 5.55 5.25103 12.9282
      vertex 5.55 4.47252 12.4788
    endloop
  endfacet
  facet normal 0 0.5 -0.866025
    outer loop
      vertex 5.55 5.25103 12.9282
      vertex 0 4.47252 12.4788
      vertex 0 5.25103 12.9282
    endloop
  endfacet
  facet normal 0 0.309018 -0.951056
    outer loop
      vertex 0 5.25103 12.9282
      vertex 5.55 6.10598 13.206
      vertex 5.55 5.25103 12.9282
    endloop
  endfacet
  facet normal 0 0.309018 -0.951056
    outer loop
      vertex 5.55 6.10598 13.206
      vertex 0 5.25103 12.9282
      vertex 0 6.10598 13.206
    endloop
  endfacet
  facet normal 0 -0.5 0.866025
    outer loop
      vertex 0 9.52748 5.52123
      vertex 5.55 8.74897 5.07175
      vertex 5.55 9.52748 5.52123
    endloop
  endfacet
  facet normal 0 -0.5 0.866025
    outer loop
      vertex 5.55 8.74897 5.07175
      vertex 0 9.52748 5.52123
      vertex 0 8.74897 5.07175
    endloop
  endfacet
  facet normal 0 0.978148 -0.207912
    outer loop
      vertex 5.55 2.72356 9.44947
      vertex 0 2.91046 10.3288
      vertex 5.55 2.91046 10.3288
    endloop
  endfacet
  facet normal 0 0.978148 -0.207912
    outer loop
      vertex 0 2.91046 10.3288
      vertex 5.55 2.72356 9.44947
      vertex 0 2.72356 9.44947
    endloop
  endfacet
  facet normal 0 -0.104528 0.994522
    outer loop
      vertex 5.55 23.5302 6.50572
      vertex 10 23 6.45
      vertex 10 23.5302 6.50572
    endloop
  endfacet
  facet normal 0 -0.104528 0.994522
    outer loop
      vertex 10 23 6.45
      vertex 5.55 23.5302 6.50572
      vertex 5.55 23 6.45
    endloop
  endfacet
  facet normal 0 0.104528 -0.994522
    outer loop
      vertex 5.55 22.4698 11.4943
      vertex 10 23 11.55
      vertex 10 22.4698 11.4943
    endloop
  endfacet
  facet normal 0 0.104528 -0.994522
    outer loop
      vertex 10 23 11.55
      vertex 5.55 22.4698 11.4943
      vertex 5.55 23 11.55
    endloop
  endfacet
  facet normal -0 0.66913 0.743145
    outer loop
      vertex 5.55 21.5011 6.93701
      vertex 10 21.105 7.29372
      vertex 10 21.5011 6.93701
    endloop
  endfacet
  facet normal 0 0.66913 0.743145
    outer loop
      vertex 10 21.105 7.29372
      vertex 5.55 21.5011 6.93701
      vertex 5.55 21.105 7.29372
    endloop
  endfacet
  facet normal 0 -1 0
    outer loop
      vertex 5.55 25.536 8.73345
      vertex 10 25.536 9.26655
      vertex 5.55 25.536 9.26655
    endloop
  endfacet
  facet normal 0 -1 -0
    outer loop
      vertex 10 25.536 9.26655
      vertex 5.55 25.536 8.73345
      vertex 10 25.536 8.73345
    endloop
  endfacet
  facet normal 0 1 -0
    outer loop
      vertex 10 20.464 8.73345
      vertex 5.55 20.464 9.26655
      vertex 10 20.464 9.26655
    endloop
  endfacet
  facet normal 0 1 0
    outer loop
      vertex 5.55 20.464 9.26655
      vertex 10 20.464 8.73345
      vertex 5.55 20.464 8.73345
    endloop
  endfacet
  facet normal 0 -0.66913 -0.743145
    outer loop
      vertex 5.55 24.4989 11.063
      vertex 10 24.895 10.7063
      vertex 10 24.4989 11.063
    endloop
  endfacet
  facet normal -0 -0.66913 -0.743145
    outer loop
      vertex 10 24.895 10.7063
      vertex 5.55 24.4989 11.063
      vertex 5.55 24.895 10.7063
    endloop
  endfacet
  facet normal 0 -0.913546 -0.406736
    outer loop
      vertex 5.55 25.4252 9.78799
      vertex 10 25.2084 10.275
      vertex 5.55 25.2084 10.275
    endloop
  endfacet
  facet normal 0 -0.913546 -0.406736
    outer loop
      vertex 10 25.2084 10.275
      vertex 5.55 25.4252 9.78799
      vertex 10 25.4252 9.78799
    endloop
  endfacet
  facet normal 0 0.809016 -0.587787
    outer loop
      vertex 10 20.7916 10.275
      vertex 5.55 21.105 10.7063
      vertex 10 21.105 10.7063
    endloop
  endfacet
  facet normal 0 0.809016 -0.587787
    outer loop
      vertex 5.55 21.105 10.7063
      vertex 10 20.7916 10.275
      vertex 5.55 20.7916 10.275
    endloop
  endfacet
  facet normal 0 -0.66913 0.743145
    outer loop
      vertex 5.55 24.895 7.29372
      vertex 10 24.4989 6.93701
      vertex 10 24.895 7.29372
    endloop
  endfacet
  facet normal 0 -0.66913 0.743145
    outer loop
      vertex 10 24.4989 6.93701
      vertex 5.55 24.895 7.29372
      vertex 5.55 24.4989 6.93701
    endloop
  endfacet
  facet normal 0 -0.309017 0.951056
    outer loop
      vertex 5.55 24.0372 6.67046
      vertex 10 23.5302 6.50572
      vertex 10 24.0372 6.67046
    endloop
  endfacet
  facet normal 0 -0.309017 0.951056
    outer loop
      vertex 10 23.5302 6.50572
      vertex 5.55 24.0372 6.67046
      vertex 5.55 23.5302 6.50572
    endloop
  endfacet
  facet normal 0 -0.913546 0.406736
    outer loop
      vertex 5.55 25.2084 7.725
      vertex 10 25.4252 8.21201
      vertex 5.55 25.4252 8.21201
    endloop
  endfacet
  facet normal 0 -0.913546 0.406736
    outer loop
      vertex 10 25.4252 8.21201
      vertex 5.55 25.2084 7.725
      vertex 10 25.2084 7.725
    endloop
  endfacet
  facet normal 0 -0.309017 -0.951056
    outer loop
      vertex 5.55 23.5302 11.4943
      vertex 10 24.0372 11.3295
      vertex 10 23.5302 11.4943
    endloop
  endfacet
  facet normal -0 -0.309017 -0.951056
    outer loop
      vertex 10 24.0372 11.3295
      vertex 5.55 23.5302 11.4943
      vertex 5.55 24.0372 11.3295
    endloop
  endfacet
  facet normal 0 -0.5 -0.866026
    outer loop
      vertex 5.55 24.0372 11.3295
      vertex 10 24.4989 11.063
      vertex 10 24.0372 11.3295
    endloop
  endfacet
  facet normal -0 -0.5 -0.866026
    outer loop
      vertex 10 24.4989 11.063
      vertex 5.55 24.0372 11.3295
      vertex 5.55 24.4989 11.063
    endloop
  endfacet
  facet normal 0 -0.104528 -0.994522
    outer loop
      vertex 5.55 23 11.55
      vertex 10 23.5302 11.4943
      vertex 10 23 11.55
    endloop
  endfacet
  facet normal -0 -0.104528 -0.994522
    outer loop
      vertex 10 23.5302 11.4943
      vertex 5.55 23 11.55
      vertex 5.55 23.5302 11.4943
    endloop
  endfacet
  facet normal 0 -0.809017 -0.587785
    outer loop
      vertex 5.55 25.2084 10.275
      vertex 10 24.895 10.7063
      vertex 5.55 24.895 10.7063
    endloop
  endfacet
  facet normal 0 -0.809017 -0.587785
    outer loop
      vertex 10 24.895 10.7063
      vertex 5.55 25.2084 10.275
      vertex 10 25.2084 10.275
    endloop
  endfacet
  facet normal 0 -0.978148 -0.207911
    outer loop
      vertex 5.55 25.536 9.26655
      vertex 10 25.4252 9.78799
      vertex 5.55 25.4252 9.78799
    endloop
  endfacet
  facet normal 0 -0.978148 -0.207911
    outer loop
      vertex 10 25.4252 9.78799
      vertex 5.55 25.536 9.26655
      vertex 10 25.536 9.26655
    endloop
  endfacet
  facet normal 0 0.809016 0.587787
    outer loop
      vertex 10 21.105 7.29372
      vertex 5.55 20.7916 7.725
      vertex 10 20.7916 7.725
    endloop
  endfacet
  facet normal 0 0.809016 0.587787
    outer loop
      vertex 5.55 20.7916 7.725
      vertex 10 21.105 7.29372
      vertex 5.55 21.105 7.29372
    endloop
  endfacet
  facet normal -0 0.5 0.866026
    outer loop
      vertex 5.55 21.9628 6.67046
      vertex 10 21.5011 6.93701
      vertex 10 21.9628 6.67046
    endloop
  endfacet
  facet normal 0 0.5 0.866026
    outer loop
      vertex 10 21.5011 6.93701
      vertex 5.55 21.9628 6.67046
      vertex 5.55 21.5011 6.93701
    endloop
  endfacet
  facet normal -0 0.104528 0.994522
    outer loop
      vertex 5.55 23 6.45
      vertex 10 22.4698 6.50572
      vertex 10 23 6.45
    endloop
  endfacet
  facet normal 0 0.104528 0.994522
    outer loop
      vertex 10 22.4698 6.50572
      vertex 5.55 23 6.45
      vertex 5.55 22.4698 6.50572
    endloop
  endfacet
  facet normal 0 0.5 -0.866026
    outer loop
      vertex 5.55 21.5011 11.063
      vertex 10 21.9628 11.3295
      vertex 10 21.5011 11.063
    endloop
  endfacet
  facet normal 0 0.5 -0.866026
    outer loop
      vertex 10 21.9628 11.3295
      vertex 5.55 21.5011 11.063
      vertex 5.55 21.9628 11.3295
    endloop
  endfacet
  facet normal 0 0.309017 -0.951056
    outer loop
      vertex 5.55 21.9628 11.3295
      vertex 10 22.4698 11.4943
      vertex 10 21.9628 11.3295
    endloop
  endfacet
  facet normal 0 0.309017 -0.951056
    outer loop
      vertex 10 22.4698 11.4943
      vertex 5.55 21.9628 11.3295
      vertex 5.55 22.4698 11.4943
    endloop
  endfacet
  facet normal 0 -0.5 0.866026
    outer loop
      vertex 5.55 24.4989 6.93701
      vertex 10 24.0372 6.67046
      vertex 10 24.4989 6.93701
    endloop
  endfacet
  facet normal 0 -0.5 0.866026
    outer loop
      vertex 10 24.0372 6.67046
      vertex 5.55 24.4989 6.93701
      vertex 5.55 24.0372 6.67046
    endloop
  endfacet
  facet normal 0 -0.809017 0.587785
    outer loop
      vertex 5.55 24.895 7.29372
      vertex 10 25.2084 7.725
      vertex 5.55 25.2084 7.725
    endloop
  endfacet
  facet normal 0 -0.809017 0.587785
    outer loop
      vertex 10 25.2084 7.725
      vertex 5.55 24.895 7.29372
      vertex 10 24.895 7.29372
    endloop
  endfacet
  facet normal 0 -0.978148 0.207911
    outer loop
      vertex 5.55 25.4252 8.21201
      vertex 10 25.536 8.73345
      vertex 5.55 25.536 8.73345
    endloop
  endfacet
  facet normal 0 -0.978148 0.207911
    outer loop
      vertex 10 25.536 8.73345
      vertex 5.55 25.4252 8.21201
      vertex 10 25.4252 8.21201
    endloop
  endfacet
  facet normal 0 0.913547 0.406733
    outer loop
      vertex 10 20.7916 7.725
      vertex 5.55 20.5748 8.21201
      vertex 10 20.5748 8.21201
    endloop
  endfacet
  facet normal 0 0.913547 0.406733
    outer loop
      vertex 5.55 20.5748 8.21201
      vertex 10 20.7916 7.725
      vertex 5.55 20.7916 7.725
    endloop
  endfacet
  facet normal 0 0.978147 0.207914
    outer loop
      vertex 10 20.5748 8.21201
      vertex 5.55 20.464 8.73345
      vertex 10 20.464 8.73345
    endloop
  endfacet
  facet normal 0 0.978147 0.207914
    outer loop
      vertex 5.55 20.464 8.73345
      vertex 10 20.5748 8.21201
      vertex 5.55 20.5748 8.21201
    endloop
  endfacet
  facet normal 0 0.978147 -0.207914
    outer loop
      vertex 10 20.464 9.26655
      vertex 5.55 20.5748 9.78799
      vertex 10 20.5748 9.78799
    endloop
  endfacet
  facet normal 0 0.978147 -0.207914
    outer loop
      vertex 5.55 20.5748 9.78799
      vertex 10 20.464 9.26655
      vertex 5.55 20.464 9.26655
    endloop
  endfacet
  facet normal -0 0.309017 0.951056
    outer loop
      vertex 5.55 22.4698 6.50572
      vertex 10 21.9628 6.67046
      vertex 10 22.4698 6.50572
    endloop
  endfacet
  facet normal 0 0.309017 0.951056
    outer loop
      vertex 10 21.9628 6.67046
      vertex 5.55 22.4698 6.50572
      vertex 5.55 21.9628 6.67046
    endloop
  endfacet
  facet normal 0 0.66913 -0.743145
    outer loop
      vertex 5.55 21.105 10.7063
      vertex 10 21.5011 11.063
      vertex 10 21.105 10.7063
    endloop
  endfacet
  facet normal 0 0.66913 -0.743145
    outer loop
      vertex 10 21.5011 11.063
      vertex 5.55 21.105 10.7063
      vertex 5.55 21.5011 11.063
    endloop
  endfacet
  facet normal 0 0.913547 -0.406733
    outer loop
      vertex 10 20.5748 9.78799
      vertex 5.55 20.7916 10.275
      vertex 10 20.7916 10.275
    endloop
  endfacet
  facet normal 0 0.913547 -0.406733
    outer loop
      vertex 5.55 20.7916 10.275
      vertex 10 20.5748 9.78799
      vertex 5.55 20.5748 9.78799
    endloop
  endfacet
  facet normal 0 -0.669131 0.743145
    outer loop
      vertex 0 26.1955 6.12274
      vertex 5.55 25.5275 5.52123
      vertex 5.55 26.1955 6.12274
    endloop
  endfacet
  facet normal 0 -0.669131 0.743145
    outer loop
      vertex 5.55 25.5275 5.52123
      vertex 0 26.1955 6.12274
      vertex 0 25.5275 5.52123
    endloop
  endfacet
  facet normal 0 0.104528 -0.994522
    outer loop
      vertex 0 22.106 13.206
      vertex 5.55 23 13.3
      vertex 5.55 22.106 13.206
    endloop
  endfacet
  facet normal 0 0.104528 -0.994522
    outer loop
      vertex 5.55 23 13.3
      vertex 0 22.106 13.206
      vertex 0 23 13.3
    endloop
  endfacet
  facet normal 0 -0.978148 -0.207912
    outer loop
      vertex 0 27.2764 9.44947
      vertex 5.55 27.0895 10.3288
      vertex 0 27.0895 10.3288
    endloop
  endfacet
  facet normal 0 -0.978148 -0.207912
    outer loop
      vertex 5.55 27.0895 10.3288
      vertex 0 27.2764 9.44947
      vertex 5.55 27.2764 9.44947
    endloop
  endfacet
  facet normal -0 0.104528 0.994522
    outer loop
      vertex 0 23 4.7
      vertex 5.55 22.106 4.79396
      vertex 5.55 23 4.7
    endloop
  endfacet
  facet normal 0 0.104528 0.994522
    outer loop
      vertex 5.55 22.106 4.79396
      vertex 0 23 4.7
      vertex 0 22.106 4.79396
    endloop
  endfacet
  facet normal 0 -0.809018 0.587784
    outer loop
      vertex 0 26.1955 6.12274
      vertex 5.55 26.7239 6.85
      vertex 0 26.7239 6.85
    endloop
  endfacet
  facet normal 0 -0.809018 0.587784
    outer loop
      vertex 5.55 26.7239 6.85
      vertex 0 26.1955 6.12274
      vertex 5.55 26.1955 6.12274
    endloop
  endfacet
  facet normal 0 -0.809018 -0.587784
    outer loop
      vertex 0 26.7239 11.15
      vertex 5.55 26.1955 11.8773
      vertex 0 26.1955 11.8773
    endloop
  endfacet
  facet normal 0 -0.809018 -0.587784
    outer loop
      vertex 5.55 26.1955 11.8773
      vertex 0 26.7239 11.15
      vertex 5.55 26.7239 11.15
    endloop
  endfacet
  facet normal 0 -0.499999 -0.866026
    outer loop
      vertex 0 24.749 12.9282
      vertex 5.55 25.5275 12.4788
      vertex 5.55 24.749 12.9282
    endloop
  endfacet
  facet normal -0 -0.499999 -0.866026
    outer loop
      vertex 5.55 25.5275 12.4788
      vertex 0 24.749 12.9282
      vertex 0 25.5275 12.4788
    endloop
  endfacet
  facet normal 0 -0.669131 -0.743145
    outer loop
      vertex 0 25.5275 12.4788
      vertex 5.55 26.1955 11.8773
      vertex 5.55 25.5275 12.4788
    endloop
  endfacet
  facet normal -0 -0.669131 -0.743145
    outer loop
      vertex 5.55 26.1955 11.8773
      vertex 0 25.5275 12.4788
      vertex 0 26.1955 11.8773
    endloop
  endfacet
  facet normal 0 0.913546 0.406736
    outer loop
      vertex 5.55 19.2761 6.85
      vertex 0 18.9105 7.67123
      vertex 5.55 18.9105 7.67123
    endloop
  endfacet
  facet normal 0 0.913546 0.406736
    outer loop
      vertex 0 18.9105 7.67123
      vertex 5.55 19.2761 6.85
      vertex 0 19.2761 6.85
    endloop
  endfacet
  facet normal 0 -0.309018 0.951056
    outer loop
      vertex 0 24.749 5.07175
      vertex 5.55 23.894 4.79396
      vertex 5.55 24.749 5.07175
    endloop
  endfacet
  facet normal 0 -0.309018 0.951056
    outer loop
      vertex 5.55 23.894 4.79396
      vertex 0 24.749 5.07175
      vertex 0 23.894 4.79396
    endloop
  endfacet
  facet normal 0 -0.978148 0.207912
    outer loop
      vertex 0 27.0895 7.67123
      vertex 5.55 27.2764 8.55053
      vertex 0 27.2764 8.55053
    endloop
  endfacet
  facet normal 0 -0.978148 0.207912
    outer loop
      vertex 5.55 27.2764 8.55053
      vertex 0 27.0895 7.67123
      vertex 5.55 27.0895 7.67123
    endloop
  endfacet
  facet normal 0 -0.309018 -0.951056
    outer loop
      vertex 0 23.894 13.206
      vertex 5.55 24.749 12.9282
      vertex 5.55 23.894 13.206
    endloop
  endfacet
  facet normal -0 -0.309018 -0.951056
    outer loop
      vertex 5.55 24.749 12.9282
      vertex 0 23.894 13.206
      vertex 0 24.749 12.9282
    endloop
  endfacet
  facet normal 0 -0.913545 -0.406738
    outer loop
      vertex 0 27.0895 10.3288
      vertex 5.55 26.7239 11.15
      vertex 0 26.7239 11.15
    endloop
  endfacet
  facet normal 0 -0.913545 -0.406738
    outer loop
      vertex 5.55 26.7239 11.15
      vertex 0 27.0895 10.3288
      vertex 5.55 27.0895 10.3288
    endloop
  endfacet
  facet normal 0 -0.104528 0.994522
    outer loop
      vertex 0 23.894 4.79396
      vertex 5.55 23 4.7
      vertex 5.55 23.894 4.79396
    endloop
  endfacet
  facet normal 0 -0.104528 0.994522
    outer loop
      vertex 5.55 23 4.7
      vertex 0 23.894 4.79396
      vertex 0 23 4.7
    endloop
  endfacet
  facet normal 0 0.5 -0.866025
    outer loop
      vertex 0 20.4725 12.4788
      vertex 5.55 21.251 12.9282
      vertex 5.55 20.4725 12.4788
    endloop
  endfacet
  facet normal 0 0.5 -0.866025
    outer loop
      vertex 5.55 21.251 12.9282
      vertex 0 20.4725 12.4788
      vertex 0 21.251 12.9282
    endloop
  endfacet
  facet normal -0 0.309018 0.951056
    outer loop
      vertex 0 22.106 4.79396
      vertex 5.55 21.251 5.07175
      vertex 5.55 22.106 4.79396
    endloop
  endfacet
  facet normal 0 0.309018 0.951056
    outer loop
      vertex 5.55 21.251 5.07175
      vertex 0 22.106 4.79396
      vertex 0 21.251 5.07175
    endloop
  endfacet
  facet normal -0 0.669131 0.743145
    outer loop
      vertex 0 20.4725 5.52123
      vertex 5.55 19.8045 6.12274
      vertex 5.55 20.4725 5.52123
    endloop
  endfacet
  facet normal 0 0.669131 0.743145
    outer loop
      vertex 5.55 19.8045 6.12274
      vertex 0 20.4725 5.52123
      vertex 0 19.8045 6.12274
    endloop
  endfacet
  facet normal 0 -0.104528 -0.994522
    outer loop
      vertex 0 23 13.3
      vertex 5.55 23.894 13.206
      vertex 5.55 23 13.3
    endloop
  endfacet
  facet normal -0 -0.104528 -0.994522
    outer loop
      vertex 5.55 23.894 13.206
      vertex 0 23 13.3
      vertex 0 23.894 13.206
    endloop
  endfacet
  facet normal 0 0.309018 -0.951056
    outer loop
      vertex 0 21.251 12.9282
      vertex 5.55 22.106 13.206
      vertex 5.55 21.251 12.9282
    endloop
  endfacet
  facet normal 0 0.309018 -0.951056
    outer loop
      vertex 5.55 22.106 13.206
      vertex 0 21.251 12.9282
      vertex 0 22.106 13.206
    endloop
  endfacet
  facet normal 0 0.669131 -0.743145
    outer loop
      vertex 0 19.8045 11.8773
      vertex 5.55 20.4725 12.4788
      vertex 5.55 19.8045 11.8773
    endloop
  endfacet
  facet normal 0 0.669131 -0.743145
    outer loop
      vertex 5.55 20.4725 12.4788
      vertex 0 19.8045 11.8773
      vertex 0 20.4725 12.4788
    endloop
  endfacet
  facet normal -0 0.5 0.866025
    outer loop
      vertex 0 21.251 5.07175
      vertex 5.55 20.4725 5.52123
      vertex 5.55 21.251 5.07175
    endloop
  endfacet
  facet normal 0 0.5 0.866025
    outer loop
      vertex 5.55 20.4725 5.52123
      vertex 0 21.251 5.07175
      vertex 0 20.4725 5.52123
    endloop
  endfacet
  facet normal 0 0.809017 0.587786
    outer loop
      vertex 5.55 19.8045 6.12274
      vertex 0 19.2761 6.85
      vertex 5.55 19.2761 6.85
    endloop
  endfacet
  facet normal 0 0.809017 0.587786
    outer loop
      vertex 0 19.2761 6.85
      vertex 5.55 19.8045 6.12274
      vertex 0 19.8045 6.12274
    endloop
  endfacet
  facet normal 0 -0.913545 0.406738
    outer loop
      vertex 0 26.7239 6.85
      vertex 5.55 27.0895 7.67123
      vertex 0 27.0895 7.67123
    endloop
  endfacet
  facet normal 0 -0.913545 0.406738
    outer loop
      vertex 5.55 27.0895 7.67123
      vertex 0 26.7239 6.85
      vertex 5.55 26.7239 6.85
    endloop
  endfacet
  facet normal 0 -0.499999 0.866026
    outer loop
      vertex 0 25.5275 5.52123
      vertex 5.55 24.749 5.07175
      vertex 5.55 25.5275 5.52123
    endloop
  endfacet
  facet normal 0 -0.499999 0.866026
    outer loop
      vertex 5.55 24.749 5.07175
      vertex 0 25.5275 5.52123
      vertex 0 24.749 5.07175
    endloop
  endfacet
  facet normal 0 -1 0
    outer loop
      vertex 0 27.2764 8.55053
      vertex 5.55 27.2764 9.44947
      vertex 0 27.2764 9.44947
    endloop
  endfacet
  facet normal 0 -1 -0
    outer loop
      vertex 5.55 27.2764 9.44947
      vertex 0 27.2764 8.55053
      vertex 5.55 27.2764 8.55053
    endloop
  endfacet
  facet normal 0 0.978148 0.207912
    outer loop
      vertex 5.55 18.9105 7.67123
      vertex 0 18.7236 8.55053
      vertex 5.55 18.7236 8.55053
    endloop
  endfacet
  facet normal 0 0.978148 0.207912
    outer loop
      vertex 0 18.7236 8.55053
      vertex 5.55 18.9105 7.67123
      vertex 0 18.9105 7.67123
    endloop
  endfacet
  facet normal 0 1 -0
    outer loop
      vertex 5.55 18.7236 8.55053
      vertex 0 18.7236 9.44947
      vertex 5.55 18.7236 9.44947
    endloop
  endfacet
  facet normal 0 1 0
    outer loop
      vertex 0 18.7236 9.44947
      vertex 5.55 18.7236 8.55053
      vertex 0 18.7236 8.55053
    endloop
  endfacet
  facet normal 0 0.809017 -0.587786
    outer loop
      vertex 5.55 19.2761 11.15
      vertex 0 19.8045 11.8773
      vertex 5.55 19.8045 11.8773
    endloop
  endfacet
  facet normal 0 0.809017 -0.587786
    outer loop
      vertex 0 19.8045 11.8773
      vertex 5.55 19.2761 11.15
      vertex 0 19.2761 11.15
    endloop
  endfacet
  facet normal 0 0.913546 -0.406736
    outer loop
      vertex 5.55 18.9105 10.3288
      vertex 0 19.2761 11.15
      vertex 5.55 19.2761 11.15
    endloop
  endfacet
  facet normal 0 0.913546 -0.406736
    outer loop
      vertex 0 19.2761 11.15
      vertex 5.55 18.9105 10.3288
      vertex 0 18.9105 10.3288
    endloop
  endfacet
  facet normal -1 0 0
    outer loop
      vertex 5.55 25.536 8.73345
      vertex 5.55 27.2764 8.55053
      vertex 5.55 27.0895 7.67123
    endloop
  endfacet
  facet normal -1 0 0
    outer loop
      vertex 5.55 27.2764 8.55053
      vertex 5.55 25.536 8.73345
      vertex 5.55 27.2764 9.44947
    endloop
  endfacet
  facet normal -1 0 0
    outer loop
      vertex 5.55 25.4252 8.21201
      vertex 5.55 27.0895 7.67123
      vertex 5.55 26.7239 6.85
    endloop
  endfacet
  facet normal -1 0 0
    outer loop
      vertex 5.55 25.536 9.26655
      vertex 5.55 27.2764 9.44947
      vertex 5.55 25.536 8.73345
    endloop
  endfacet
  facet normal -1 0 0
    outer loop
      vertex 5.55 25.2084 7.725
      vertex 5.55 26.7239 6.85
      vertex 5.55 26.1955 6.12274
    endloop
  endfacet
  facet normal -1 -0 0
    outer loop
      vertex 5.55 27.2764 9.44947
      vertex 5.55 25.536 9.26655
      vertex 5.55 27.0895 10.3288
    endloop
  endfacet
  facet normal -1 0 0
    outer loop
      vertex 5.55 25.4252 9.78799
      vertex 5.55 27.0895 10.3288
      vertex 5.55 25.536 9.26655
    endloop
  endfacet
  facet normal -1 0 0
    outer loop
      vertex 5.55 24.895 7.29372
      vertex 5.55 26.1955 6.12274
      vertex 5.55 25.5275 5.52123
    endloop
  endfacet
  facet normal -1 0 0
    outer loop
      vertex 5.55 27.0895 7.67123
      vertex 5.55 25.4252 8.21201
      vertex 5.55 25.536 8.73345
    endloop
  endfacet
  facet normal -1 0 0
    outer loop
      vertex 5.55 26.7239 6.85
      vertex 5.55 25.2084 7.725
      vertex 5.55 25.4252 8.21201
    endloop
  endfacet
  facet normal -1 0 0
    outer loop
      vertex 5.55 26.1955 6.12274
      vertex 5.55 24.895 7.29372
      vertex 5.55 25.2084 7.725
    endloop
  endfacet
  facet normal -1 0 0
    outer loop
      vertex 5.55 24.4989 6.93701
      vertex 5.55 25.5275 5.52123
      vertex 5.55 24.749 5.07175
    endloop
  endfacet
  facet normal -1 0 0
    outer loop
      vertex 5.55 25.5275 5.52123
      vertex 5.55 24.4989 6.93701
      vertex 5.55 24.895 7.29372
    endloop
  endfacet
  facet normal -1 0 0
    outer loop
      vertex 5.55 24.749 5.07175
      vertex 5.55 24.0372 6.67046
      vertex 5.55 24.4989 6.93701
    endloop
  endfacet
  facet normal -1 0 0
    outer loop
      vertex 5.55 23.894 4.79396
      vertex 5.55 24.0372 6.67046
      vertex 5.55 24.749 5.07175
    endloop
  endfacet
  facet normal -1 0 0
    outer loop
      vertex 5.55 23.894 4.79396
      vertex 5.55 23.5302 6.50572
      vertex 5.55 24.0372 6.67046
    endloop
  endfacet
  facet normal -1 0 0
    outer loop
      vertex 5.55 23 4.7
      vertex 5.55 23.5302 6.50572
      vertex 5.55 23.894 4.79396
    endloop
  endfacet
  facet normal -1 0 0
    outer loop
      vertex 5.55 23 4.7
      vertex 5.55 23 6.45
      vertex 5.55 23.5302 6.50572
    endloop
  endfacet
  facet normal -1 0 0
    outer loop
      vertex 5.55 23 4.7
      vertex 5.55 22.4698 6.50572
      vertex 5.55 23 6.45
    endloop
  endfacet
  facet normal -1 0 0
    outer loop
      vertex 5.55 22.106 4.79396
      vertex 5.55 22.4698 6.50572
      vertex 5.55 23 4.7
    endloop
  endfacet
  facet normal -1 0 0
    outer loop
      vertex 5.55 22.106 4.79396
      vertex 5.55 21.9628 6.67046
      vertex 5.55 22.4698 6.50572
    endloop
  endfacet
  facet normal -1 0 0
    outer loop
      vertex 5.55 21.251 5.07175
      vertex 5.55 21.9628 6.67046
      vertex 5.55 22.106 4.79396
    endloop
  endfacet
  facet normal -1 -0 0
    outer loop
      vertex 5.55 21.9628 6.67046
      vertex 5.55 21.251 5.07175
      vertex 5.55 21.5011 6.93701
    endloop
  endfacet
  facet normal -1 0 0
    outer loop
      vertex 5.55 20.4725 5.52123
      vertex 5.55 21.5011 6.93701
      vertex 5.55 21.251 5.07175
    endloop
  endfacet
  facet normal -1 -0 0
    outer loop
      vertex 5.55 21.5011 6.93701
      vertex 5.55 20.4725 5.52123
      vertex 5.55 21.105 7.29372
    endloop
  endfacet
  facet normal -1 0 0
    outer loop
      vertex 5.55 19.8045 6.12274
      vertex 5.55 21.105 7.29372
      vertex 5.55 20.4725 5.52123
    endloop
  endfacet
  facet normal -1 -0 0
    outer loop
      vertex 5.55 21.105 7.29372
      vertex 5.55 19.8045 6.12274
      vertex 5.55 20.7916 7.725
    endloop
  endfacet
  facet normal -1 0 0
    outer loop
      vertex 5.55 19.2761 6.85
      vertex 5.55 20.7916 7.725
      vertex 5.55 19.8045 6.12274
    endloop
  endfacet
  facet normal -1 0 0
    outer loop
      vertex 5.55 18.9105 7.67123
      vertex 5.55 20.5748 8.21201
      vertex 5.55 19.2761 6.85
    endloop
  endfacet
  facet normal -1 -0 0
    outer loop
      vertex 5.55 20.7916 7.725
      vertex 5.55 19.2761 6.85
      vertex 5.55 20.5748 8.21201
    endloop
  endfacet
  facet normal -1 -0 0
    outer loop
      vertex 5.55 27.0895 10.3288
      vertex 5.55 25.4252 9.78799
      vertex 5.55 26.7239 11.15
    endloop
  endfacet
  facet normal -1 0 0
    outer loop
      vertex 5.55 25.2084 10.275
      vertex 5.55 26.7239 11.15
      vertex 5.55 25.4252 9.78799
    endloop
  endfacet
  facet normal -1 -0 0
    outer loop
      vertex 5.55 26.7239 11.15
      vertex 5.55 25.2084 10.275
      vertex 5.55 26.1955 11.8773
    endloop
  endfacet
  facet normal -1 0 0
    outer loop
      vertex 5.55 24.895 10.7063
      vertex 5.55 26.1955 11.8773
      vertex 5.55 25.2084 10.275
    endloop
  endfacet
  facet normal -1 -0 0
    outer loop
      vertex 5.55 26.1955 11.8773
      vertex 5.55 24.895 10.7063
      vertex 5.55 25.5275 12.4788
    endloop
  endfacet
  facet normal -1 0 0
    outer loop
      vertex 5.55 24.4989 11.063
      vertex 5.55 25.5275 12.4788
      vertex 5.55 24.895 10.7063
    endloop
  endfacet
  facet normal -1 -0 0
    outer loop
      vertex 5.55 25.5275 12.4788
      vertex 5.55 24.4989 11.063
      vertex 5.55 24.749 12.9282
    endloop
  endfacet
  facet normal -1 0 0
    outer loop
      vertex 5.55 24.0372 11.3295
      vertex 5.55 24.749 12.9282
      vertex 5.55 24.4989 11.063
    endloop
  endfacet
  facet normal -1 0 0
    outer loop
      vertex 5.55 24.0372 11.3295
      vertex 5.55 23.894 13.206
      vertex 5.55 24.749 12.9282
    endloop
  endfacet
  facet normal -1 0 0
    outer loop
      vertex 5.55 23.5302 11.4943
      vertex 5.55 23.894 13.206
      vertex 5.55 24.0372 11.3295
    endloop
  endfacet
  facet normal -1 0 0
    outer loop
      vertex 5.55 23 11.55
      vertex 5.55 23.894 13.206
      vertex 5.55 23.5302 11.4943
    endloop
  endfacet
  facet normal -1 0 0
    outer loop
      vertex 5.55 23 11.55
      vertex 5.55 23 13.3
      vertex 5.55 23.894 13.206
    endloop
  endfacet
  facet normal -1 0 0
    outer loop
      vertex 5.55 22.4698 11.4943
      vertex 5.55 23 13.3
      vertex 5.55 23 11.55
    endloop
  endfacet
  facet normal -1 0 0
    outer loop
      vertex 5.55 22.4698 11.4943
      vertex 5.55 22.106 13.206
      vertex 5.55 23 13.3
    endloop
  endfacet
  facet normal -1 0 0
    outer loop
      vertex 5.55 21.9628 11.3295
      vertex 5.55 22.106 13.206
      vertex 5.55 22.4698 11.4943
    endloop
  endfacet
  facet normal -1 0 0
    outer loop
      vertex 5.55 21.251 12.9282
      vertex 5.55 21.9628 11.3295
      vertex 5.55 21.5011 11.063
    endloop
  endfacet
  facet normal -1 0 0
    outer loop
      vertex 5.55 21.9628 11.3295
      vertex 5.55 21.251 12.9282
      vertex 5.55 22.106 13.206
    endloop
  endfacet
  facet normal -1 0 0
    outer loop
      vertex 5.55 20.4725 12.4788
      vertex 5.55 21.5011 11.063
      vertex 5.55 21.105 10.7063
    endloop
  endfacet
  facet normal -1 0 0
    outer loop
      vertex 5.55 19.8045 11.8773
      vertex 5.55 21.105 10.7063
      vertex 5.55 20.7916 10.275
    endloop
  endfacet
  facet normal -1 0 0
    outer loop
      vertex 5.55 19.2761 11.15
      vertex 5.55 20.7916 10.275
      vertex 5.55 20.5748 9.78799
    endloop
  endfacet
  facet normal -1 0 0
    outer loop
      vertex 5.55 21.5011 11.063
      vertex 5.55 20.4725 12.4788
      vertex 5.55 21.251 12.9282
    endloop
  endfacet
  facet normal -1 0 0
    outer loop
      vertex 5.55 18.9105 10.3288
      vertex 5.55 20.5748 9.78799
      vertex 5.55 20.464 9.26655
    endloop
  endfacet
  facet normal -1 -0 0
    outer loop
      vertex 5.55 20.5748 8.21201
      vertex 5.55 18.9105 7.67123
      vertex 5.55 20.464 8.73345
    endloop
  endfacet
  facet normal -1 0 0
    outer loop
      vertex 5.55 21.105 10.7063
      vertex 5.55 19.8045 11.8773
      vertex 5.55 20.4725 12.4788
    endloop
  endfacet
  facet normal -1 0 0
    outer loop
      vertex 5.55 18.7236 8.55053
      vertex 5.55 20.464 8.73345
      vertex 5.55 18.9105 7.67123
    endloop
  endfacet
  facet normal -1 0 0
    outer loop
      vertex 5.55 20.7916 10.275
      vertex 5.55 19.2761 11.15
      vertex 5.55 19.8045 11.8773
    endloop
  endfacet
  facet normal -1 -0 0
    outer loop
      vertex 5.55 20.464 8.73345
      vertex 5.55 18.7236 8.55053
      vertex 5.55 20.464 9.26655
    endloop
  endfacet
  facet normal -1 0 0
    outer loop
      vertex 5.55 20.5748 9.78799
      vertex 5.55 18.9105 10.3288
      vertex 5.55 19.2761 11.15
    endloop
  endfacet
  facet normal -1 0 0
    outer loop
      vertex 5.55 18.7236 9.44947
      vertex 5.55 20.464 9.26655
      vertex 5.55 18.7236 8.55053
    endloop
  endfacet
  facet normal -1 0 0
    outer loop
      vertex 5.55 20.464 9.26655
      vertex 5.55 18.7236 9.44947
      vertex 5.55 18.9105 10.3288
    endloop
  endfacet
  facet normal 0 0.978148 -0.207912
    outer loop
      vertex 5.55 18.7236 9.44947
      vertex 0 18.9105 10.3288
      vertex 5.55 18.9105 10.3288
    endloop
  endfacet
  facet normal 0 0.978148 -0.207912
    outer loop
      vertex 0 18.9105 10.3288
      vertex 5.55 18.7236 9.44947
      vertex 0 18.7236 9.44947
    endloop
  endfacet
endsolid OpenSCAD_Model
