solid OpenSCAD_Model
  facet normal -1 0 0
    outer loop
      vertex -19.5 -6.2 7.59281e-16
      vertex -19.5 6.2 10.5
      vertex -19.5 6.2 -7.59281e-16
    endloop
  endfacet
  facet normal -1 -0 0
    outer loop
      vertex -19.5 6.2 10.5
      vertex -19.5 -6.2 7.59281e-16
      vertex -19.5 -6.2 10.5
    endloop
  endfacet
  facet normal 1.33932e-31 -1.22465e-16 -1
    outer loop
      vertex 19.5 -6.2 7.59281e-16
      vertex 18.55 -1.28588e-15 0
      vertex 19.5 6.2 -7.59281e-16
    endloop
  endfacet
  facet normal -1.5931e-24 -1.22465e-16 -1
    outer loop
      vertex 19.5 -6.2 7.59281e-16
      vertex 18.4007 -0.942501 1.15423e-16
      vertex 18.55 -1.28588e-15 0
    endloop
  endfacet
  facet normal -6.63918e-24 -1.22465e-16 -1
    outer loop
      vertex 19.5 -6.2 7.59281e-16
      vertex 17.9675 -1.79274 2.19548e-16
      vertex 18.4007 -0.942501 1.15423e-16
    endloop
  endfacet
  facet normal -1.81582e-23 -1.22465e-16 -1
    outer loop
      vertex 19.5 -6.2 7.59281e-16
      vertex 17.2927 -2.4675 3.02182e-16
      vertex 17.9675 -1.79274 2.19548e-16
    endloop
  endfacet
  facet normal 1.1935e-23 -1.22465e-16 -1
    outer loop
      vertex 19.5 -6.2 7.59281e-16
      vertex 16.4425 -2.90072 3.55236e-16
      vertex 17.2927 -2.4675 3.02182e-16
    endloop
  endfacet
  facet normal -3.70311e-24 -1.22465e-16 -1
    outer loop
      vertex 19.5 -6.2 7.59281e-16
      vertex 15.5 -3.05 3.73517e-16
      vertex 16.4425 -2.90072 3.55236e-16
    endloop
  endfacet
  facet normal 5.56768e-24 -1.22465e-16 -1
    outer loop
      vertex 19.5 -6.2 7.59281e-16
      vertex 14.5575 -2.90072 3.55236e-16
      vertex 15.5 -3.05 3.73517e-16
    endloop
  endfacet
  facet normal -7.423e-23 -1.22465e-16 -1
    outer loop
      vertex 19.5 -6.2 7.59281e-16
      vertex 13.7073 -2.4675 3.02182e-16
      vertex 14.5575 -2.90072 3.55236e-16
    endloop
  endfacet
  facet normal 0 -1.22465e-16 -1
    outer loop
      vertex 12.5993 -0.942501 1.15423e-16
      vertex -12.45 -1.28588e-15 0
      vertex 12.45 -1.28588e-15 0
    endloop
  endfacet
  facet normal 0 -1.22465e-16 -1
    outer loop
      vertex -12.5993 -0.942501 1.15423e-16
      vertex 12.5993 -0.942501 1.15423e-16
      vertex 13.0325 -1.79274 2.19548e-16
    endloop
  endfacet
  facet normal 0 -1.22465e-16 -1
    outer loop
      vertex -13.0325 -1.79274 2.19548e-16
      vertex 13.0325 -1.79274 2.19548e-16
      vertex 13.7073 -2.4675 3.02182e-16
    endloop
  endfacet
  facet normal 0 -1.22465e-16 -1
    outer loop
      vertex -13.7073 -2.4675 3.02182e-16
      vertex 13.7073 -2.4675 3.02182e-16
      vertex 19.5 -6.2 7.59281e-16
    endloop
  endfacet
  facet normal -0 -1.22465e-16 -1
    outer loop
      vertex 12.5993 -0.942501 1.15423e-16
      vertex -12.5993 -0.942501 1.15423e-16
      vertex -12.45 -1.28588e-15 0
    endloop
  endfacet
  facet normal -0 -1.22465e-16 -1
    outer loop
      vertex 13.0325 -1.79274 2.19548e-16
      vertex -13.0325 -1.79274 2.19548e-16
      vertex -12.5993 -0.942501 1.15423e-16
    endloop
  endfacet
  facet normal -0 -1.22465e-16 -1
    outer loop
      vertex 13.7073 -2.4675 3.02182e-16
      vertex -13.7073 -2.4675 3.02182e-16
      vertex -13.0325 -1.79274 2.19548e-16
    endloop
  endfacet
  facet normal 2.80694e-24 -1.22465e-16 -1
    outer loop
      vertex 19.5 -6.2 7.59281e-16
      vertex -14.5575 -2.90072 3.55236e-16
      vertex -13.7073 -2.4675 3.02182e-16
    endloop
  endfacet
  facet normal 0 -1.22465e-16 -1
    outer loop
      vertex -19.5 -6.2 7.59281e-16
      vertex -14.5575 -2.90072 3.55236e-16
      vertex 19.5 -6.2 7.59281e-16
    endloop
  endfacet
  facet normal 1.5931e-24 -1.22465e-16 -1
    outer loop
      vertex -18.4007 -0.942501 1.15423e-16
      vertex -19.5 -6.2 7.59281e-16
      vertex -18.55 -1.28588e-15 0
    endloop
  endfacet
  facet normal 6.63918e-24 -1.22465e-16 -1
    outer loop
      vertex -17.9675 -1.79274 2.19548e-16
      vertex -19.5 -6.2 7.59281e-16
      vertex -18.4007 -0.942501 1.15423e-16
    endloop
  endfacet
  facet normal 1.81582e-23 -1.22465e-16 -1
    outer loop
      vertex -17.2927 -2.4675 3.02182e-16
      vertex -19.5 -6.2 7.59281e-16
      vertex -17.9675 -1.79274 2.19548e-16
    endloop
  endfacet
  facet normal -1.1935e-23 -1.22465e-16 -1
    outer loop
      vertex -16.4425 -2.90072 3.55236e-16
      vertex -19.5 -6.2 7.59281e-16
      vertex -17.2927 -2.4675 3.02182e-16
    endloop
  endfacet
  facet normal 3.70311e-24 -1.22465e-16 -1
    outer loop
      vertex -15.5 -3.05 3.73517e-16
      vertex -19.5 -6.2 7.59281e-16
      vertex -16.4425 -2.90072 3.55236e-16
    endloop
  endfacet
  facet normal -5.56768e-24 -1.22465e-16 -1
    outer loop
      vertex -14.5575 -2.90072 3.55236e-16
      vertex -19.5 -6.2 7.59281e-16
      vertex -15.5 -3.05 3.73517e-16
    endloop
  endfacet
  facet normal 1.5931e-24 -1.22465e-16 -1
    outer loop
      vertex 18.4007 0.942501 -1.15423e-16
      vertex 19.5 6.2 -7.59281e-16
      vertex 18.55 -1.28588e-15 0
    endloop
  endfacet
  facet normal 6.63918e-24 -1.22465e-16 -1
    outer loop
      vertex 17.9675 1.79274 -2.19548e-16
      vertex 19.5 6.2 -7.59281e-16
      vertex 18.4007 0.942501 -1.15423e-16
    endloop
  endfacet
  facet normal 1.81582e-23 -1.22465e-16 -1
    outer loop
      vertex 17.2927 2.4675 -3.02182e-16
      vertex 19.5 6.2 -7.59281e-16
      vertex 17.9675 1.79274 -2.19548e-16
    endloop
  endfacet
  facet normal -1.1935e-23 -1.22465e-16 -1
    outer loop
      vertex 16.4425 2.90072 -3.55236e-16
      vertex 19.5 6.2 -7.59281e-16
      vertex 17.2927 2.4675 -3.02182e-16
    endloop
  endfacet
  facet normal 3.70311e-24 -1.22465e-16 -1
    outer loop
      vertex 15.5 3.05 -3.73517e-16
      vertex 19.5 6.2 -7.59281e-16
      vertex 16.4425 2.90072 -3.55236e-16
    endloop
  endfacet
  facet normal -5.56768e-24 -1.22465e-16 -1
    outer loop
      vertex 14.5575 2.90072 -3.55236e-16
      vertex 19.5 6.2 -7.59281e-16
      vertex 15.5 3.05 -3.73517e-16
    endloop
  endfacet
  facet normal 7.423e-23 -1.22465e-16 -1
    outer loop
      vertex 13.7073 2.4675 -3.02182e-16
      vertex 19.5 6.2 -7.59281e-16
      vertex 14.5575 2.90072 -3.55236e-16
    endloop
  endfacet
  facet normal 0 -1.22465e-16 -1
    outer loop
      vertex -12.45 -1.28588e-15 0
      vertex 12.5993 0.942501 -1.15423e-16
      vertex 12.45 -1.28588e-15 0
    endloop
  endfacet
  facet normal 0 -1.22465e-16 -1
    outer loop
      vertex -12.5993 0.942501 -1.15423e-16
      vertex 12.5993 0.942501 -1.15423e-16
      vertex -12.45 -1.28588e-15 0
    endloop
  endfacet
  facet normal -0 -1.22465e-16 -1
    outer loop
      vertex 12.5993 0.942501 -1.15423e-16
      vertex -12.5993 0.942501 -1.15423e-16
      vertex 13.0325 1.79274 -2.19548e-16
    endloop
  endfacet
  facet normal 0 -1.22465e-16 -1
    outer loop
      vertex -13.0325 1.79274 -2.19548e-16
      vertex 13.0325 1.79274 -2.19548e-16
      vertex -12.5993 0.942501 -1.15423e-16
    endloop
  endfacet
  facet normal -0 -1.22465e-16 -1
    outer loop
      vertex 13.0325 1.79274 -2.19548e-16
      vertex -13.0325 1.79274 -2.19548e-16
      vertex 13.7073 2.4675 -3.02182e-16
    endloop
  endfacet
  facet normal 0 -1.22465e-16 -1
    outer loop
      vertex -13.7073 2.4675 -3.02182e-16
      vertex 13.7073 2.4675 -3.02182e-16
      vertex -13.0325 1.79274 -2.19548e-16
    endloop
  endfacet
  facet normal -0 -1.22465e-16 -1
    outer loop
      vertex 13.7073 2.4675 -3.02182e-16
      vertex -13.7073 2.4675 -3.02182e-16
      vertex 19.5 6.2 -7.59281e-16
    endloop
  endfacet
  facet normal -2.80694e-24 -1.22465e-16 -1
    outer loop
      vertex -14.5575 2.90072 -3.55236e-16
      vertex 19.5 6.2 -7.59281e-16
      vertex -13.7073 2.4675 -3.02182e-16
    endloop
  endfacet
  facet normal 5.56768e-24 -1.22465e-16 -1
    outer loop
      vertex -19.5 6.2 -7.59281e-16
      vertex -14.5575 2.90072 -3.55236e-16
      vertex -15.5 3.05 -3.73517e-16
    endloop
  endfacet
  facet normal 0 -1.22465e-16 -1
    outer loop
      vertex -14.5575 2.90072 -3.55236e-16
      vertex -19.5 6.2 -7.59281e-16
      vertex 19.5 6.2 -7.59281e-16
    endloop
  endfacet
  facet normal -3.70311e-24 -1.22465e-16 -1
    outer loop
      vertex -16.4425 2.90072 -3.55236e-16
      vertex -19.5 6.2 -7.59281e-16
      vertex -15.5 3.05 -3.73517e-16
    endloop
  endfacet
  facet normal 1.1935e-23 -1.22465e-16 -1
    outer loop
      vertex -17.2927 2.4675 -3.02182e-16
      vertex -19.5 6.2 -7.59281e-16
      vertex -16.4425 2.90072 -3.55236e-16
    endloop
  endfacet
  facet normal -1.81582e-23 -1.22465e-16 -1
    outer loop
      vertex -17.9675 1.79274 -2.19548e-16
      vertex -19.5 6.2 -7.59281e-16
      vertex -17.2927 2.4675 -3.02182e-16
    endloop
  endfacet
  facet normal -6.63918e-24 -1.22465e-16 -1
    outer loop
      vertex -18.4007 0.942501 -1.15423e-16
      vertex -19.5 6.2 -7.59281e-16
      vertex -17.9675 1.79274 -2.19548e-16
    endloop
  endfacet
  facet normal -1.5931e-24 -1.22465e-16 -1
    outer loop
      vertex -18.55 -1.28588e-15 0
      vertex -19.5 6.2 -7.59281e-16
      vertex -18.4007 0.942501 -1.15423e-16
    endloop
  endfacet
  facet normal -1.33932e-31 -1.22465e-16 -1
    outer loop
      vertex -19.5 6.2 -7.59281e-16
      vertex -18.55 -1.28588e-15 0
      vertex -19.5 -6.2 7.59281e-16
    endloop
  endfacet
  facet normal 1 -0 0
    outer loop
      vertex 19.5 -6.2 10.5
      vertex 19.5 6.2 -7.59281e-16
      vertex 19.5 6.2 10.5
    endloop
  endfacet
  facet normal 1 0 0
    outer loop
      vertex 19.5 6.2 -7.59281e-16
      vertex 19.5 -6.2 10.5
      vertex 19.5 -6.2 7.59281e-16
    endloop
  endfacet
  facet normal 0 -1 0
    outer loop
      vertex -19.5 -6.2 10.5
      vertex -10.7 -6.2 3
      vertex -10.7 -6.2 10.5
    endloop
  endfacet
  facet normal 0 -1 0
    outer loop
      vertex -10.7 -6.2 3
      vertex -5.35106 -6.2 2.69098
      vertex -5.4 -6.2 3
    endloop
  endfacet
  facet normal 0 -1 0
    outer loop
      vertex -10.7 -6.2 3
      vertex -5.20902 -6.2 2.41222
      vertex -5.35106 -6.2 2.69098
    endloop
  endfacet
  facet normal 0 -1 0
    outer loop
      vertex -10.7 -6.2 3
      vertex -4.98778 -6.2 2.19098
      vertex -5.20902 -6.2 2.41222
    endloop
  endfacet
  facet normal 0 -1 0
    outer loop
      vertex -10.7 -6.2 3
      vertex -4.70902 -6.2 2.04894
      vertex -4.98778 -6.2 2.19098
    endloop
  endfacet
  facet normal 0 -1 -0
    outer loop
      vertex -4.70902 -6.2 2.04894
      vertex -19.5 -6.2 7.59281e-16
      vertex -4.4 -6.2 2
    endloop
  endfacet
  facet normal 0 -1 -0
    outer loop
      vertex -10.7 -6.2 3
      vertex -19.5 -6.2 7.59281e-16
      vertex -4.70902 -6.2 2.04894
    endloop
  endfacet
  facet normal 0 -1 0
    outer loop
      vertex -19.5 -6.2 7.59281e-16
      vertex -10.7 -6.2 3
      vertex -19.5 -6.2 10.5
    endloop
  endfacet
  facet normal 0 -1 -0
    outer loop
      vertex -3.4 -6.2 3
      vertex -3.44894 -6.2 2.69098
      vertex 10.7 -6.2 3
    endloop
  endfacet
  facet normal 0 -1 0
    outer loop
      vertex 10.7 -6.2 3
      vertex 19.5 -6.2 10.5
      vertex 10.7 -6.2 10.5
    endloop
  endfacet
  facet normal 0 -1 0
    outer loop
      vertex -3.59098 -6.2 2.41222
      vertex 10.7 -6.2 3
      vertex -3.44894 -6.2 2.69098
    endloop
  endfacet
  facet normal 0 -1 0
    outer loop
      vertex -3.81221 -6.2 2.19098
      vertex 10.7 -6.2 3
      vertex -3.59098 -6.2 2.41222
    endloop
  endfacet
  facet normal 0 -1 0
    outer loop
      vertex -4.09098 -6.2 2.04894
      vertex 10.7 -6.2 3
      vertex -3.81221 -6.2 2.19098
    endloop
  endfacet
  facet normal 0 -1 0
    outer loop
      vertex 19.5 -6.2 7.59281e-16
      vertex -4.09098 -6.2 2.04894
      vertex -4.4 -6.2 2
    endloop
  endfacet
  facet normal 0 -1 0
    outer loop
      vertex 19.5 -6.2 7.59281e-16
      vertex -4.4 -6.2 2
      vertex -19.5 -6.2 7.59281e-16
    endloop
  endfacet
  facet normal 0 -1 0
    outer loop
      vertex 10.7 -6.2 3
      vertex 19.5 -6.2 7.59281e-16
      vertex 19.5 -6.2 10.5
    endloop
  endfacet
  facet normal 0 -1 0
    outer loop
      vertex -4.09098 -6.2 2.04894
      vertex 19.5 -6.2 7.59281e-16
      vertex 10.7 -6.2 3
    endloop
  endfacet
  facet normal -0 0 1
    outer loop
      vertex -14.2056 0.940456 10.5
      vertex -11.9 -1.1 10.5
      vertex -11.9 6.2 10.5
    endloop
  endfacet
  facet normal -0 0 1
    outer loop
      vertex -13.9783 -0.494427 10.5
      vertex -13 -1.1 10.5
      vertex -13.9 0 10.5
    endloop
  endfacet
  facet normal -0 -0 1
    outer loop
      vertex -13.9 0 10.5
      vertex -11.9 -1.1 10.5
      vertex -13.9783 0.494427 10.5
    endloop
  endfacet
  facet normal 0 0 1
    outer loop
      vertex -11.9 -1.1 10.5
      vertex -13.9 0 10.5
      vertex -13 -1.1 10.5
    endloop
  endfacet
  facet normal 0 0 1
    outer loop
      vertex -11.9 -1.1 10.5
      vertex -14.2056 0.940456 10.5
      vertex -13.9783 0.494427 10.5
    endloop
  endfacet
  facet normal 0 0 1
    outer loop
      vertex -11.9 6.2 10.5
      vertex -14.5595 1.29443 10.5
      vertex -14.2056 0.940456 10.5
    endloop
  endfacet
  facet normal 0 0 1
    outer loop
      vertex -11.9 6.2 10.5
      vertex -15.0056 1.52169 10.5
      vertex -14.5595 1.29443 10.5
    endloop
  endfacet
  facet normal 0 0 1
    outer loop
      vertex -11.9 6.2 10.5
      vertex -15.5 1.6 10.5
      vertex -15.0056 1.52169 10.5
    endloop
  endfacet
  facet normal -0 0 1
    outer loop
      vertex -19.5 6.2 10.5
      vertex -15.5 1.6 10.5
      vertex -11.9 6.2 10.5
    endloop
  endfacet
  facet normal 0 0 1
    outer loop
      vertex -15.5 1.6 10.5
      vertex -19.5 6.2 10.5
      vertex -15.9944 1.52169 10.5
    endloop
  endfacet
  facet normal 0 0 1
    outer loop
      vertex -15.9944 1.52169 10.5
      vertex -19.5 6.2 10.5
      vertex -16.4405 1.29443 10.5
    endloop
  endfacet
  facet normal 0 0 1
    outer loop
      vertex -17.0217 0.494427 10.5
      vertex -19.5 6.2 10.5
      vertex -17.1 0 10.5
    endloop
  endfacet
  facet normal 0 0 1
    outer loop
      vertex -16.7944 0.940456 10.5
      vertex -19.5 6.2 10.5
      vertex -17.0217 0.494427 10.5
    endloop
  endfacet
  facet normal 0 0 1
    outer loop
      vertex -16.4405 1.29443 10.5
      vertex -19.5 6.2 10.5
      vertex -16.7944 0.940456 10.5
    endloop
  endfacet
  facet normal -0 0 1
    outer loop
      vertex -13 -2.6 10.5
      vertex -10.7 -6.2 10.5
      vertex -10.7 -2.6 10.5
    endloop
  endfacet
  facet normal -0 0 1
    outer loop
      vertex -14.2056 -0.940456 10.5
      vertex -13 -1.1 10.5
      vertex -13.9783 -0.494427 10.5
    endloop
  endfacet
  facet normal 0 0 1
    outer loop
      vertex -14.5595 -1.29443 10.5
      vertex -13 -1.1 10.5
      vertex -14.2056 -0.940456 10.5
    endloop
  endfacet
  facet normal 0 0 1
    outer loop
      vertex -13 -1.1 10.5
      vertex -14.5595 -1.29443 10.5
      vertex -13 -2.6 10.5
    endloop
  endfacet
  facet normal -0 0 1
    outer loop
      vertex -15.0056 -1.52169 10.5
      vertex -13 -2.6 10.5
      vertex -14.5595 -1.29443 10.5
    endloop
  endfacet
  facet normal -0 0 1
    outer loop
      vertex -15.5 -1.6 10.5
      vertex -13 -2.6 10.5
      vertex -15.0056 -1.52169 10.5
    endloop
  endfacet
  facet normal 0 0 1
    outer loop
      vertex -19.5 -6.2 10.5
      vertex -13 -2.6 10.5
      vertex -15.5 -1.6 10.5
    endloop
  endfacet
  facet normal 0 0 1
    outer loop
      vertex -19.5 -6.2 10.5
      vertex -15.5 -1.6 10.5
      vertex -15.9944 -1.52169 10.5
    endloop
  endfacet
  facet normal 0 0 1
    outer loop
      vertex -19.5 -6.2 10.5
      vertex -15.9944 -1.52169 10.5
      vertex -16.4405 -1.29443 10.5
    endloop
  endfacet
  facet normal 0 0 1
    outer loop
      vertex -19.5 -6.2 10.5
      vertex -17.1 0 10.5
      vertex -19.5 6.2 10.5
    endloop
  endfacet
  facet normal 0 0 1
    outer loop
      vertex -13 -2.6 10.5
      vertex -19.5 -6.2 10.5
      vertex -10.7 -6.2 10.5
    endloop
  endfacet
  facet normal 0 0 1
    outer loop
      vertex -16.7944 -0.940456 10.5
      vertex -19.5 -6.2 10.5
      vertex -16.4405 -1.29443 10.5
    endloop
  endfacet
  facet normal 0 0 1
    outer loop
      vertex -17.0217 -0.494427 10.5
      vertex -19.5 -6.2 10.5
      vertex -16.7944 -0.940456 10.5
    endloop
  endfacet
  facet normal 0 0 1
    outer loop
      vertex -17.1 0 10.5
      vertex -19.5 -6.2 10.5
      vertex -17.0217 -0.494427 10.5
    endloop
  endfacet
  facet normal 0 0 1
    outer loop
      vertex 19.5 6.2 10.5
      vertex 17.1 0 10.5
      vertex 19.5 -6.2 10.5
    endloop
  endfacet
  facet normal 0 0 1
    outer loop
      vertex 19.5 6.2 10.5
      vertex 17.0217 0.494427 10.5
      vertex 17.1 0 10.5
    endloop
  endfacet
  facet normal 0 0 1
    outer loop
      vertex 19.5 6.2 10.5
      vertex 16.7944 0.940456 10.5
      vertex 17.0217 0.494427 10.5
    endloop
  endfacet
  facet normal 0 0 1
    outer loop
      vertex 19.5 6.2 10.5
      vertex 16.4405 1.29443 10.5
      vertex 16.7944 0.940456 10.5
    endloop
  endfacet
  facet normal 0 0 1
    outer loop
      vertex 19.5 6.2 10.5
      vertex 15.9944 1.52169 10.5
      vertex 16.4405 1.29443 10.5
    endloop
  endfacet
  facet normal 0 0 1
    outer loop
      vertex 19.5 6.2 10.5
      vertex 15.5 1.6 10.5
      vertex 15.9944 1.52169 10.5
    endloop
  endfacet
  facet normal -0 0 1
    outer loop
      vertex 11.9 6.2 10.5
      vertex 15.5 1.6 10.5
      vertex 19.5 6.2 10.5
    endloop
  endfacet
  facet normal 0 0 1
    outer loop
      vertex 15.5 1.6 10.5
      vertex 11.9 6.2 10.5
      vertex 15.0056 1.52169 10.5
    endloop
  endfacet
  facet normal 0 0 1
    outer loop
      vertex 11.9 -1.1 10.5
      vertex 13.9 0 10.5
      vertex 13.9783 0.494427 10.5
    endloop
  endfacet
  facet normal 0 0 1
    outer loop
      vertex 11.9 -1.1 10.5
      vertex 13.9783 0.494427 10.5
      vertex 14.2056 0.940456 10.5
    endloop
  endfacet
  facet normal 0 0 1
    outer loop
      vertex 15.0056 1.52169 10.5
      vertex 11.9 6.2 10.5
      vertex 14.5595 1.29443 10.5
    endloop
  endfacet
  facet normal 0 0 1
    outer loop
      vertex 11.9 6.2 10.5
      vertex 14.2056 0.940456 10.5
      vertex 14.5595 1.29443 10.5
    endloop
  endfacet
  facet normal 0 0 1
    outer loop
      vertex 11.9 -1.1 10.5
      vertex 14.2056 0.940456 10.5
      vertex 11.9 6.2 10.5
    endloop
  endfacet
  facet normal 0 0 1
    outer loop
      vertex 13.9 0 10.5
      vertex 11.9 -1.1 10.5
      vertex 13 -1.1 10.5
    endloop
  endfacet
  facet normal -0 0 1
    outer loop
      vertex 17.0217 -0.494427 10.5
      vertex 19.5 -6.2 10.5
      vertex 17.1 0 10.5
    endloop
  endfacet
  facet normal -0 0 1
    outer loop
      vertex 16.7944 -0.940456 10.5
      vertex 19.5 -6.2 10.5
      vertex 17.0217 -0.494427 10.5
    endloop
  endfacet
  facet normal -0 0 1
    outer loop
      vertex 16.4405 -1.29443 10.5
      vertex 19.5 -6.2 10.5
      vertex 16.7944 -0.940456 10.5
    endloop
  endfacet
  facet normal -0 0 1
    outer loop
      vertex 15.9944 -1.52169 10.5
      vertex 19.5 -6.2 10.5
      vertex 16.4405 -1.29443 10.5
    endloop
  endfacet
  facet normal -0 0 1
    outer loop
      vertex 15.5 -1.6 10.5
      vertex 19.5 -6.2 10.5
      vertex 15.9944 -1.52169 10.5
    endloop
  endfacet
  facet normal 0 0 1
    outer loop
      vertex 13 -2.6 10.5
      vertex 15.5 -1.6 10.5
      vertex 15.0056 -1.52169 10.5
    endloop
  endfacet
  facet normal 0 0 1
    outer loop
      vertex 13 -2.6 10.5
      vertex 15.0056 -1.52169 10.5
      vertex 14.5595 -1.29443 10.5
    endloop
  endfacet
  facet normal 0 0 1
    outer loop
      vertex 13 -1.1 10.5
      vertex 13.9783 -0.494427 10.5
      vertex 13.9 0 10.5
    endloop
  endfacet
  facet normal 0 0 1
    outer loop
      vertex 13 -1.1 10.5
      vertex 14.2056 -0.940456 10.5
      vertex 13.9783 -0.494427 10.5
    endloop
  endfacet
  facet normal -0 0 1
    outer loop
      vertex 13 -1.1 10.5
      vertex 14.5595 -1.29443 10.5
      vertex 14.2056 -0.940456 10.5
    endloop
  endfacet
  facet normal 0 0 1
    outer loop
      vertex 13 -2.6 10.5
      vertex 14.5595 -1.29443 10.5
      vertex 13 -1.1 10.5
    endloop
  endfacet
  facet normal 0 0 1
    outer loop
      vertex 15.5 -1.6 10.5
      vertex 13 -2.6 10.5
      vertex 19.5 -6.2 10.5
    endloop
  endfacet
  facet normal 0 0 1
    outer loop
      vertex 10.7 -6.2 10.5
      vertex 13 -2.6 10.5
      vertex 10.7 -2.6 10.5
    endloop
  endfacet
  facet normal 0 0 1
    outer loop
      vertex 13 -2.6 10.5
      vertex 10.7 -6.2 10.5
      vertex 19.5 -6.2 10.5
    endloop
  endfacet
  facet normal 0 1 0
    outer loop
      vertex 19.5 6.2 10.5
      vertex 11.9 6.2 2
      vertex 11.9 6.2 10.5
    endloop
  endfacet
  facet normal 0 1 0
    outer loop
      vertex 11.9 6.2 2
      vertex 19.5 6.2 -7.59281e-16
      vertex -11.9 6.2 2
    endloop
  endfacet
  facet normal 0 1 -0
    outer loop
      vertex 19.5 6.2 -7.59281e-16
      vertex 11.9 6.2 2
      vertex 19.5 6.2 10.5
    endloop
  endfacet
  facet normal 0 1 -0
    outer loop
      vertex -11.9 6.2 2
      vertex -19.5 6.2 10.5
      vertex -11.9 6.2 10.5
    endloop
  endfacet
  facet normal 0 1 0
    outer loop
      vertex -11.9 6.2 2
      vertex -19.5 6.2 -7.59281e-16
      vertex -19.5 6.2 10.5
    endloop
  endfacet
  facet normal 0 1 0
    outer loop
      vertex -19.5 6.2 -7.59281e-16
      vertex -11.9 6.2 2
      vertex 19.5 6.2 -7.59281e-16
    endloop
  endfacet
  facet normal 1 -0 0
    outer loop
      vertex -10.7 -6.2 10.5
      vertex -10.7 -2.6 3
      vertex -10.7 -2.6 10.5
    endloop
  endfacet
  facet normal 1 0 0
    outer loop
      vertex -10.7 -2.6 3
      vertex -10.7 -6.2 10.5
      vertex -10.7 -6.2 3
    endloop
  endfacet
  facet normal -0 0 1
    outer loop
      vertex -10.7 -2.6 3
      vertex -5.4 -6.2 3
      vertex -5.4 -2.6 3
    endloop
  endfacet
  facet normal 0 0 1
    outer loop
      vertex -5.4 -6.2 3
      vertex -10.7 -2.6 3
      vertex -10.7 -6.2 3
    endloop
  endfacet
  facet normal -0 0 1
    outer loop
      vertex -3.4 -2.6 3
      vertex 10.7 -6.2 3
      vertex 10.7 -2.6 3
    endloop
  endfacet
  facet normal 0 0 1
    outer loop
      vertex 10.7 -6.2 3
      vertex -3.4 -2.6 3
      vertex -3.4 -6.2 3
    endloop
  endfacet
  facet normal -1 0 0
    outer loop
      vertex 10.7 -6.2 3
      vertex 10.7 -2.6 10.5
      vertex 10.7 -2.6 3
    endloop
  endfacet
  facet normal -1 -0 0
    outer loop
      vertex 10.7 -2.6 10.5
      vertex 10.7 -6.2 3
      vertex 10.7 -6.2 10.5
    endloop
  endfacet
  facet normal 1 -0 0
    outer loop
      vertex -11.9 -1.1 10.5
      vertex -11.9 6.2 2
      vertex -11.9 6.2 10.5
    endloop
  endfacet
  facet normal 1 0 0
    outer loop
      vertex -11.9 6.2 2
      vertex -11.9 -1.1 10.5
      vertex -11.9 -1.1 2
    endloop
  endfacet
  facet normal 0 0 1
    outer loop
      vertex 11.9 6.2 2
      vertex -4.4 -2.6 2
      vertex 11.9 -1.1 2
    endloop
  endfacet
  facet normal -0 0 1
    outer loop
      vertex -11.9 6.2 2
      vertex -4.4 -2.6 2
      vertex 11.9 6.2 2
    endloop
  endfacet
  facet normal -0 0 1
    outer loop
      vertex -11.9 -1.1 2
      vertex -4.4 -2.6 2
      vertex -11.9 6.2 2
    endloop
  endfacet
  facet normal 0 0 1
    outer loop
      vertex -13 -1.72896 2
      vertex -11.9 -1.1 2
      vertex -12.6795 -1.1 2
    endloop
  endfacet
  facet normal 0 0 1
    outer loop
      vertex -11.9 -1.1 2
      vertex -13 -1.72896 2
      vertex -13 -2.6 2
    endloop
  endfacet
  facet normal 0 0 1
    outer loop
      vertex -11.9 -1.1 2
      vertex -13 -2.6 2
      vertex -4.4 -2.6 2
    endloop
  endfacet
  facet normal -0 0 1
    outer loop
      vertex 11.9 -1.1 2
      vertex 13 -1.72896 2
      vertex 12.6795 -1.1 2
    endloop
  endfacet
  facet normal 0 0 1
    outer loop
      vertex 13 -1.72896 2
      vertex 11.9 -1.1 2
      vertex 13 -2.6 2
    endloop
  endfacet
  facet normal 0 0 1
    outer loop
      vertex 13 -2.6 2
      vertex 11.9 -1.1 2
      vertex -4.4 -2.6 2
    endloop
  endfacet
  facet normal -1 0 0
    outer loop
      vertex 11.9 -1.1 2
      vertex 11.9 6.2 10.5
      vertex 11.9 6.2 2
    endloop
  endfacet
  facet normal -1 -0 0
    outer loop
      vertex 11.9 6.2 10.5
      vertex 11.9 -1.1 2
      vertex 11.9 -1.1 10.5
    endloop
  endfacet
  facet normal 0 1 0
    outer loop
      vertex 13 -2.6 10.5
      vertex 10.7 -2.6 3
      vertex 10.7 -2.6 10.5
    endloop
  endfacet
  facet normal 0 1 0
    outer loop
      vertex 10.7 -2.6 3
      vertex -3.44894 -2.6 2.69098
      vertex -3.4 -2.6 3
    endloop
  endfacet
  facet normal 0 1 0
    outer loop
      vertex 10.7 -2.6 3
      vertex -3.59098 -2.6 2.41222
      vertex -3.44894 -2.6 2.69098
    endloop
  endfacet
  facet normal 0 1 0
    outer loop
      vertex 10.7 -2.6 3
      vertex -3.81221 -2.6 2.19098
      vertex -3.59098 -2.6 2.41222
    endloop
  endfacet
  facet normal 0 1 0
    outer loop
      vertex 10.7 -2.6 3
      vertex -4.09098 -2.6 2.04894
      vertex -3.81221 -2.6 2.19098
    endloop
  endfacet
  facet normal 0 1 -0
    outer loop
      vertex 13 -2.6 2
      vertex 10.7 -2.6 3
      vertex 13 -2.6 10.5
    endloop
  endfacet
  facet normal 0 1 0
    outer loop
      vertex 13 -2.6 2
      vertex -4.09098 -2.6 2.04894
      vertex 10.7 -2.6 3
    endloop
  endfacet
  facet normal 0 1 0
    outer loop
      vertex -4.09098 -2.6 2.04894
      vertex 13 -2.6 2
      vertex -4.4 -2.6 2
    endloop
  endfacet
  facet normal 0 1 0
    outer loop
      vertex -5.4 -2.6 3
      vertex -5.35106 -2.6 2.69098
      vertex -10.7 -2.6 3
    endloop
  endfacet
  facet normal 0 1 -0
    outer loop
      vertex -10.7 -2.6 3
      vertex -13 -2.6 10.5
      vertex -10.7 -2.6 10.5
    endloop
  endfacet
  facet normal 0 1 0
    outer loop
      vertex -5.20902 -2.6 2.41222
      vertex -10.7 -2.6 3
      vertex -5.35106 -2.6 2.69098
    endloop
  endfacet
  facet normal 0 1 0
    outer loop
      vertex -4.98778 -2.6 2.19098
      vertex -10.7 -2.6 3
      vertex -5.20902 -2.6 2.41222
    endloop
  endfacet
  facet normal 0 1 0
    outer loop
      vertex -13 -2.6 2
      vertex -4.98778 -2.6 2.19098
      vertex -4.70902 -2.6 2.04894
    endloop
  endfacet
  facet normal 0 1 0
    outer loop
      vertex -10.7 -2.6 3
      vertex -13 -2.6 2
      vertex -13 -2.6 10.5
    endloop
  endfacet
  facet normal 0 1 0
    outer loop
      vertex -4.98778 -2.6 2.19098
      vertex -13 -2.6 2
      vertex -10.7 -2.6 3
    endloop
  endfacet
  facet normal 0 1 0
    outer loop
      vertex -13 -2.6 2
      vertex -4.70902 -2.6 2.04894
      vertex -4.4 -2.6 2
    endloop
  endfacet
  facet normal -0.987688 0 0.156435
    outer loop
      vertex -3.44894 -6.2 2.69098
      vertex -3.4 -2.6 3
      vertex -3.44894 -2.6 2.69098
    endloop
  endfacet
  facet normal -0.987688 0 0.156435
    outer loop
      vertex -3.4 -2.6 3
      vertex -3.44894 -6.2 2.69098
      vertex -3.4 -6.2 3
    endloop
  endfacet
  facet normal 0.156434 0 0.987688
    outer loop
      vertex -4.70902 -2.6 2.04894
      vertex -4.4 -6.2 2
      vertex -4.4 -2.6 2
    endloop
  endfacet
  facet normal 0.156434 0 0.987688
    outer loop
      vertex -4.4 -6.2 2
      vertex -4.70902 -2.6 2.04894
      vertex -4.70902 -6.2 2.04894
    endloop
  endfacet
  facet normal -0.156434 0 0.987688
    outer loop
      vertex -4.4 -2.6 2
      vertex -4.09098 -6.2 2.04894
      vertex -4.09098 -2.6 2.04894
    endloop
  endfacet
  facet normal -0.156434 0 0.987688
    outer loop
      vertex -4.09098 -6.2 2.04894
      vertex -4.4 -2.6 2
      vertex -4.4 -6.2 2
    endloop
  endfacet
  facet normal 0.987688 -0 0.156435
    outer loop
      vertex -5.4 -6.2 3
      vertex -5.35106 -2.6 2.69098
      vertex -5.4 -2.6 3
    endloop
  endfacet
  facet normal 0.987688 0 0.156435
    outer loop
      vertex -5.35106 -2.6 2.69098
      vertex -5.4 -6.2 3
      vertex -5.35106 -6.2 2.69098
    endloop
  endfacet
  facet normal 0.707105 0 0.707108
    outer loop
      vertex -5.20902 -2.6 2.41222
      vertex -4.98778 -6.2 2.19098
      vertex -4.98778 -2.6 2.19098
    endloop
  endfacet
  facet normal 0.707105 0 0.707108
    outer loop
      vertex -4.98778 -6.2 2.19098
      vertex -5.20902 -2.6 2.41222
      vertex -5.20902 -6.2 2.41222
    endloop
  endfacet
  facet normal -0.891007 0 0.45399
    outer loop
      vertex -3.59098 -6.2 2.41222
      vertex -3.44894 -2.6 2.69098
      vertex -3.59098 -2.6 2.41222
    endloop
  endfacet
  facet normal -0.891007 0 0.45399
    outer loop
      vertex -3.44894 -2.6 2.69098
      vertex -3.59098 -6.2 2.41222
      vertex -3.44894 -6.2 2.69098
    endloop
  endfacet
  facet normal 0.891007 -0 0.45399
    outer loop
      vertex -5.35106 -6.2 2.69098
      vertex -5.20902 -2.6 2.41222
      vertex -5.35106 -2.6 2.69098
    endloop
  endfacet
  facet normal 0.891007 0 0.45399
    outer loop
      vertex -5.20902 -2.6 2.41222
      vertex -5.35106 -6.2 2.69098
      vertex -5.20902 -6.2 2.41222
    endloop
  endfacet
  facet normal 0.453993 0 0.891005
    outer loop
      vertex -4.98778 -2.6 2.19098
      vertex -4.70902 -6.2 2.04894
      vertex -4.70902 -2.6 2.04894
    endloop
  endfacet
  facet normal 0.453993 0 0.891005
    outer loop
      vertex -4.70902 -6.2 2.04894
      vertex -4.98778 -2.6 2.19098
      vertex -4.98778 -6.2 2.19098
    endloop
  endfacet
  facet normal -0.707107 0 0.707107
    outer loop
      vertex -3.81221 -6.2 2.19098
      vertex -3.59098 -2.6 2.41222
      vertex -3.81221 -2.6 2.19098
    endloop
  endfacet
  facet normal -0.707107 0 0.707107
    outer loop
      vertex -3.59098 -2.6 2.41222
      vertex -3.81221 -6.2 2.19098
      vertex -3.59098 -6.2 2.41222
    endloop
  endfacet
  facet normal -0.453992 0 0.891006
    outer loop
      vertex -4.09098 -2.6 2.04894
      vertex -3.81221 -6.2 2.19098
      vertex -3.81221 -2.6 2.19098
    endloop
  endfacet
  facet normal -0.453992 0 0.891006
    outer loop
      vertex -3.81221 -6.2 2.19098
      vertex -4.09098 -2.6 2.04894
      vertex -4.09098 -6.2 2.04894
    endloop
  endfacet
  facet normal -0.987688 0.156434 -1.84819e-17
    outer loop
      vertex -13.9783 -0.494427 6
      vertex -13.9 0 10.5
      vertex -13.9 -5.51091e-16 6
    endloop
  endfacet
  facet normal -0.987688 0.156434 0
    outer loop
      vertex -13.9 0 10.5
      vertex -13.9783 -0.494427 6
      vertex -13.9783 -0.494427 10.5
    endloop
  endfacet
  facet normal 0.987689 0.156432 -1.84819e-17
    outer loop
      vertex -17.0217 -0.494427 10.5
      vertex -17.1 -5.51091e-16 6
      vertex -17.1 0 10.5
    endloop
  endfacet
  facet normal 0.987689 0.156432 0
    outer loop
      vertex -17.1 -5.51091e-16 6
      vertex -17.0217 -0.494427 10.5
      vertex -17.0217 -0.494427 6
    endloop
  endfacet
  facet normal 0.156434 0.987688 -0
    outer loop
      vertex -15.5 -1.6 6
      vertex -15.9944 -1.52169 10.5
      vertex -15.5 -1.6 10.5
    endloop
  endfacet
  facet normal 0.156434 0.987688 0
    outer loop
      vertex -15.9944 -1.52169 10.5
      vertex -15.5 -1.6 6
      vertex -15.9944 -1.52169 6
    endloop
  endfacet
  facet normal -0.156434 -0.987688 0
    outer loop
      vertex -15.5 1.6 6
      vertex -15.0056 1.52169 10.5
      vertex -15.5 1.6 10.5
    endloop
  endfacet
  facet normal -0.156434 -0.987688 -0
    outer loop
      vertex -15.0056 1.52169 10.5
      vertex -15.5 1.6 6
      vertex -15.0056 1.52169 6
    endloop
  endfacet
  facet normal -0.45399 -0.891007 0
    outer loop
      vertex -15.0056 1.52169 6
      vertex -14.5595 1.29443 10.5
      vertex -15.0056 1.52169 10.5
    endloop
  endfacet
  facet normal -0.45399 -0.891007 -0
    outer loop
      vertex -14.5595 1.29443 10.5
      vertex -15.0056 1.52169 6
      vertex -14.5595 1.29443 6
    endloop
  endfacet
  facet normal -0.707107 0.707107 0
    outer loop
      vertex -14.5595 -1.29443 6
      vertex -14.2056 -0.940456 10.5
      vertex -14.2056 -0.940456 6
    endloop
  endfacet
  facet normal -0.707107 0.707107 0
    outer loop
      vertex -14.2056 -0.940456 10.5
      vertex -14.5595 -1.29443 6
      vertex -14.5595 -1.29443 10.5
    endloop
  endfacet
  facet normal -0.891007 0.45399 0
    outer loop
      vertex -14.2056 -0.940456 6
      vertex -13.9783 -0.494427 10.5
      vertex -13.9783 -0.494427 6
    endloop
  endfacet
  facet normal -0.891007 0.45399 0
    outer loop
      vertex -13.9783 -0.494427 10.5
      vertex -14.2056 -0.940456 6
      vertex -14.2056 -0.940456 10.5
    endloop
  endfacet
  facet normal -0.45399 0.891007 0
    outer loop
      vertex -14.5595 -1.29443 6
      vertex -15.0056 -1.52169 10.5
      vertex -14.5595 -1.29443 10.5
    endloop
  endfacet
  facet normal -0.45399 0.891007 0
    outer loop
      vertex -15.0056 -1.52169 10.5
      vertex -14.5595 -1.29443 6
      vertex -15.0056 -1.52169 6
    endloop
  endfacet
  facet normal 0.707108 0.707106 0
    outer loop
      vertex -16.4405 -1.29443 10.5
      vertex -16.7944 -0.940456 6
      vertex -16.7944 -0.940456 10.5
    endloop
  endfacet
  facet normal 0.707108 0.707106 0
    outer loop
      vertex -16.7944 -0.940456 6
      vertex -16.4405 -1.29443 10.5
      vertex -16.4405 -1.29443 6
    endloop
  endfacet
  facet normal 0.891006 0.453992 0
    outer loop
      vertex -16.7944 -0.940456 10.5
      vertex -17.0217 -0.494427 6
      vertex -17.0217 -0.494427 10.5
    endloop
  endfacet
  facet normal 0.891006 0.453992 0
    outer loop
      vertex -17.0217 -0.494427 6
      vertex -16.7944 -0.940456 10.5
      vertex -16.7944 -0.940456 6
    endloop
  endfacet
  facet normal 0 0 1
    outer loop
      vertex -13.9783 0.494427 6
      vertex -13.9783 -0.494427 6
      vertex -13.9 -5.51091e-16 6
    endloop
  endfacet
  facet normal 0 0 1
    outer loop
      vertex -14.2056 0.940456 6
      vertex -13.9783 -0.494427 6
      vertex -13.9783 0.494427 6
    endloop
  endfacet
  facet normal 0 0 1
    outer loop
      vertex -14.2056 0.940456 6
      vertex -14.2056 -0.940456 6
      vertex -13.9783 -0.494427 6
    endloop
  endfacet
  facet normal 0 0 1
    outer loop
      vertex -14.5595 1.29443 6
      vertex -14.2056 -0.940456 6
      vertex -14.2056 0.940456 6
    endloop
  endfacet
  facet normal 0 0 1
    outer loop
      vertex -14.5595 1.29443 6
      vertex -14.5595 -1.29443 6
      vertex -14.2056 -0.940456 6
    endloop
  endfacet
  facet normal 0 0 1
    outer loop
      vertex -15.0056 1.52169 6
      vertex -14.5595 -1.29443 6
      vertex -14.5595 1.29443 6
    endloop
  endfacet
  facet normal 0 0 1
    outer loop
      vertex -15.0056 1.52169 6
      vertex -15.0056 -1.52169 6
      vertex -14.5595 -1.29443 6
    endloop
  endfacet
  facet normal 0 0 1
    outer loop
      vertex -15.5 1.6 6
      vertex -15.0056 -1.52169 6
      vertex -15.0056 1.52169 6
    endloop
  endfacet
  facet normal 0 0 1
    outer loop
      vertex -15.5 1.6 6
      vertex -15.5 -1.6 6
      vertex -15.0056 -1.52169 6
    endloop
  endfacet
  facet normal -0 0 1
    outer loop
      vertex -15.9944 1.52169 6
      vertex -15.5 -1.6 6
      vertex -15.5 1.6 6
    endloop
  endfacet
  facet normal 0 0 1
    outer loop
      vertex -15.9944 1.52169 6
      vertex -15.9944 -1.52169 6
      vertex -15.5 -1.6 6
    endloop
  endfacet
  facet normal -0 0 1
    outer loop
      vertex -16.4405 1.29443 6
      vertex -15.9944 -1.52169 6
      vertex -15.9944 1.52169 6
    endloop
  endfacet
  facet normal 0 0 1
    outer loop
      vertex -16.4405 1.29443 6
      vertex -16.4405 -1.29443 6
      vertex -15.9944 -1.52169 6
    endloop
  endfacet
  facet normal -0 0 1
    outer loop
      vertex -16.7944 0.940456 6
      vertex -16.4405 -1.29443 6
      vertex -16.4405 1.29443 6
    endloop
  endfacet
  facet normal 0 0 1
    outer loop
      vertex -16.7944 0.940456 6
      vertex -16.7944 -0.940456 6
      vertex -16.4405 -1.29443 6
    endloop
  endfacet
  facet normal -0 0 1
    outer loop
      vertex -17.0217 0.494427 6
      vertex -16.7944 -0.940456 6
      vertex -16.7944 0.940456 6
    endloop
  endfacet
  facet normal 0 0 1
    outer loop
      vertex -17.0217 0.494427 6
      vertex -17.0217 -0.494427 6
      vertex -16.7944 -0.940456 6
    endloop
  endfacet
  facet normal 0 -0 1
    outer loop
      vertex -17.0217 -0.494427 6
      vertex -17.0217 0.494427 6
      vertex -17.1 -5.51091e-16 6
    endloop
  endfacet
  facet normal 0.45399 0.891007 -0
    outer loop
      vertex -15.9944 -1.52169 6
      vertex -16.4405 -1.29443 10.5
      vertex -15.9944 -1.52169 10.5
    endloop
  endfacet
  facet normal 0.45399 0.891007 0
    outer loop
      vertex -16.4405 -1.29443 10.5
      vertex -15.9944 -1.52169 6
      vertex -16.4405 -1.29443 6
    endloop
  endfacet
  facet normal -0.156434 0.987688 0
    outer loop
      vertex -15.0056 -1.52169 6
      vertex -15.5 -1.6 10.5
      vertex -15.0056 -1.52169 10.5
    endloop
  endfacet
  facet normal -0.156434 0.987688 0
    outer loop
      vertex -15.5 -1.6 10.5
      vertex -15.0056 -1.52169 6
      vertex -15.5 -1.6 6
    endloop
  endfacet
  facet normal -0.987688 -0.156434 0
    outer loop
      vertex -13.9783 0.494427 6
      vertex -13.9 0 10.5
      vertex -13.9783 0.494427 10.5
    endloop
  endfacet
  facet normal -0.987688 -0.156434 1.91576e-17
    outer loop
      vertex -13.9 0 10.5
      vertex -13.9783 0.494427 6
      vertex -13.9 -5.51091e-16 6
    endloop
  endfacet
  facet normal -0.707107 -0.707107 0
    outer loop
      vertex -14.2056 0.940456 6
      vertex -14.5595 1.29443 10.5
      vertex -14.5595 1.29443 6
    endloop
  endfacet
  facet normal -0.707107 -0.707107 0
    outer loop
      vertex -14.5595 1.29443 10.5
      vertex -14.2056 0.940456 6
      vertex -14.2056 0.940456 10.5
    endloop
  endfacet
  facet normal -0.891007 -0.45399 0
    outer loop
      vertex -13.9783 0.494427 6
      vertex -14.2056 0.940456 10.5
      vertex -14.2056 0.940456 6
    endloop
  endfacet
  facet normal -0.891007 -0.45399 0
    outer loop
      vertex -14.2056 0.940456 10.5
      vertex -13.9783 0.494427 6
      vertex -13.9783 0.494427 10.5
    endloop
  endfacet
  facet normal 0.891006 -0.453992 0
    outer loop
      vertex -17.0217 0.494427 10.5
      vertex -16.7944 0.940456 6
      vertex -16.7944 0.940456 10.5
    endloop
  endfacet
  facet normal 0.891006 -0.453992 0
    outer loop
      vertex -16.7944 0.940456 6
      vertex -17.0217 0.494427 10.5
      vertex -17.0217 0.494427 6
    endloop
  endfacet
  facet normal 0.987689 -0.156432 0
    outer loop
      vertex -17.1 0 10.5
      vertex -17.0217 0.494427 6
      vertex -17.0217 0.494427 10.5
    endloop
  endfacet
  facet normal 0.987689 -0.156432 1.84819e-17
    outer loop
      vertex -17.0217 0.494427 6
      vertex -17.1 0 10.5
      vertex -17.1 -5.51091e-16 6
    endloop
  endfacet
  facet normal 0.156434 -0.987688 0
    outer loop
      vertex -15.9944 1.52169 6
      vertex -15.5 1.6 10.5
      vertex -15.9944 1.52169 10.5
    endloop
  endfacet
  facet normal 0.156434 -0.987688 0
    outer loop
      vertex -15.5 1.6 10.5
      vertex -15.9944 1.52169 6
      vertex -15.5 1.6 6
    endloop
  endfacet
  facet normal 0.707108 -0.707106 0
    outer loop
      vertex -16.7944 0.940456 10.5
      vertex -16.4405 1.29443 6
      vertex -16.4405 1.29443 10.5
    endloop
  endfacet
  facet normal 0.707108 -0.707106 0
    outer loop
      vertex -16.4405 1.29443 6
      vertex -16.7944 0.940456 10.5
      vertex -16.7944 0.940456 6
    endloop
  endfacet
  facet normal 0.45399 -0.891007 0
    outer loop
      vertex -16.4405 1.29443 6
      vertex -15.9944 1.52169 10.5
      vertex -16.4405 1.29443 10.5
    endloop
  endfacet
  facet normal 0.45399 -0.891007 0
    outer loop
      vertex -15.9944 1.52169 10.5
      vertex -16.4405 1.29443 6
      vertex -15.9944 1.52169 6
    endloop
  endfacet
  facet normal -0.987688 0.156435 -1.93909e-17
    outer loop
      vertex -12.5993 -0.942501 1.15423e-16
      vertex -12.45 -7.34788e-16 4.5
      vertex -12.45 -1.28588e-15 0
    endloop
  endfacet
  facet normal -0.987688 0.156435 0
    outer loop
      vertex -12.45 -7.34788e-16 4.5
      vertex -12.5993 -0.942501 1.15423e-16
      vertex -12.5993 -0.942501 4.5
    endloop
  endfacet
  facet normal 0.987688 0.156434 -1.93909e-17
    outer loop
      vertex -18.4007 -0.942501 4.5
      vertex -18.55 -1.28588e-15 0
      vertex -18.55 -7.34788e-16 4.5
    endloop
  endfacet
  facet normal 0.987688 0.156434 0
    outer loop
      vertex -18.55 -1.28588e-15 0
      vertex -18.4007 -0.942501 4.5
      vertex -18.4007 -0.942501 1.15423e-16
    endloop
  endfacet
  facet normal -0.156435 0.987688 0
    outer loop
      vertex -14.5575 -2.90072 4.5
      vertex -15.5 -3.05 3.73517e-16
      vertex -15.5 -3.05 4.5
    endloop
  endfacet
  facet normal -0.156435 0.987688 0
    outer loop
      vertex -15.5 -3.05 3.73517e-16
      vertex -14.5575 -2.90072 4.5
      vertex -14.5575 -2.90072 3.55236e-16
    endloop
  endfacet
  facet normal -0 0 -1
    outer loop
      vertex -13 -1.72896 4.5
      vertex -13.0325 -1.79274 4.5
      vertex -13 -1.1 4.5
    endloop
  endfacet
  facet normal 0 0 -1
    outer loop
      vertex -13 -1.1 4.5
      vertex -12.45 -7.34788e-16 4.5
      vertex -12.5993 -0.942501 4.5
    endloop
  endfacet
  facet normal 0 0 -1
    outer loop
      vertex -13 -1.1 4.5
      vertex -12.5993 -0.942501 4.5
      vertex -12.6795 -1.1 4.5
    endloop
  endfacet
  facet normal -0 0 -1
    outer loop
      vertex -12.45 -7.34788e-16 4.5
      vertex -13 -1.1 4.5
      vertex -12.5993 0.942501 4.5
    endloop
  endfacet
  facet normal 0 0 -1
    outer loop
      vertex -13 -1.1 4.5
      vertex -13.0325 1.79274 4.5
      vertex -12.5993 0.942501 4.5
    endloop
  endfacet
  facet normal 0 0 -1
    outer loop
      vertex -13.7073 -2.4675 4.5
      vertex -13 -1.1 4.5
      vertex -13.0325 -1.79274 4.5
    endloop
  endfacet
  facet normal 0 0 -1
    outer loop
      vertex -14.5575 -2.90072 4.5
      vertex -13 -1.1 4.5
      vertex -13.7073 -2.4675 4.5
    endloop
  endfacet
  facet normal 0 0 -1
    outer loop
      vertex -13 -1.1 4.5
      vertex -13.7073 2.4675 4.5
      vertex -13.0325 1.79274 4.5
    endloop
  endfacet
  facet normal 0 0 -1
    outer loop
      vertex -15.5 -3.05 4.5
      vertex -13 -1.1 4.5
      vertex -14.5575 -2.90072 4.5
    endloop
  endfacet
  facet normal 0 0 -1
    outer loop
      vertex -13 -1.1 4.5
      vertex -14.5575 2.90072 4.5
      vertex -13.7073 2.4675 4.5
    endloop
  endfacet
  facet normal 0 0 -1
    outer loop
      vertex -16.4425 -2.90072 4.5
      vertex -13 -1.1 4.5
      vertex -15.5 -3.05 4.5
    endloop
  endfacet
  facet normal 0 0 -1
    outer loop
      vertex -13 -1.1 4.5
      vertex -15.5 3.05 4.5
      vertex -14.5575 2.90072 4.5
    endloop
  endfacet
  facet normal 0 0 -1
    outer loop
      vertex -17.2927 -2.4675 4.5
      vertex -13 -1.1 4.5
      vertex -16.4425 -2.90072 4.5
    endloop
  endfacet
  facet normal 0 0 -1
    outer loop
      vertex -13 -1.1 4.5
      vertex -16.4425 2.90072 4.5
      vertex -15.5 3.05 4.5
    endloop
  endfacet
  facet normal 0 0 -1
    outer loop
      vertex -17.9675 -1.79274 4.5
      vertex -13 -1.1 4.5
      vertex -17.2927 -2.4675 4.5
    endloop
  endfacet
  facet normal 0 0 -1
    outer loop
      vertex -13 -1.1 4.5
      vertex -17.2927 2.4675 4.5
      vertex -16.4425 2.90072 4.5
    endloop
  endfacet
  facet normal 0 0 -1
    outer loop
      vertex -18.4007 -0.942501 4.5
      vertex -13 -1.1 4.5
      vertex -17.9675 -1.79274 4.5
    endloop
  endfacet
  facet normal 0 0 -1
    outer loop
      vertex -13 -1.1 4.5
      vertex -17.9675 1.79274 4.5
      vertex -17.2927 2.4675 4.5
    endloop
  endfacet
  facet normal 0 0 -1
    outer loop
      vertex -18.55 -7.34788e-16 4.5
      vertex -13 -1.1 4.5
      vertex -18.4007 -0.942501 4.5
    endloop
  endfacet
  facet normal 0 0 -1
    outer loop
      vertex -13 -1.1 4.5
      vertex -18.4007 0.942501 4.5
      vertex -17.9675 1.79274 4.5
    endloop
  endfacet
  facet normal 0 0 -1
    outer loop
      vertex -13 -1.1 4.5
      vertex -18.55 -7.34788e-16 4.5
      vertex -18.4007 0.942501 4.5
    endloop
  endfacet
  facet normal -0.707107 0.707107 0
    outer loop
      vertex -13.7073 -2.4675 3.02182e-16
      vertex -13.0325 -1.79274 4.5
      vertex -13.0325 -1.79274 2.19548e-16
    endloop
  endfacet
  facet normal -0.707107 0.707107 0
    outer loop
      vertex -13.0325 -1.79274 4.5
      vertex -13.7073 -2.4675 3.02182e-16
      vertex -13.7073 -2.4675 4.5
    endloop
  endfacet
  facet normal -0.891008 0.453988 0
    outer loop
      vertex -12.5993 -0.942501 1.15423e-16
      vertex -12.6795 -1.1 2
      vertex -12.5993 -0.942501 4.5
    endloop
  endfacet
  facet normal -0.891007 0.45399 1.94537e-07
    outer loop
      vertex -13.0325 -1.79274 2.19548e-16
      vertex -12.6795 -1.1 2
      vertex -12.5993 -0.942501 1.15423e-16
    endloop
  endfacet
  facet normal -0.891007 0.45399 -1.83393e-08
    outer loop
      vertex -12.6795 -1.1 2
      vertex -13.0325 -1.79274 2.19548e-16
      vertex -13 -1.72896 2
    endloop
  endfacet
  facet normal -0.891007 0.45399 0
    outer loop
      vertex -13.0325 -1.79274 4.5
      vertex -13 -1.72896 2
      vertex -13.0325 -1.79274 2.19548e-16
    endloop
  endfacet
  facet normal -0.891007 0.45399 0
    outer loop
      vertex -13 -1.72896 2
      vertex -13.0325 -1.79274 4.5
      vertex -13 -1.72896 4.5
    endloop
  endfacet
  facet normal -0.891008 0.453988 0
    outer loop
      vertex -12.5993 -0.942501 4.5
      vertex -12.6795 -1.1 2
      vertex -12.6795 -1.1 4.5
    endloop
  endfacet
  facet normal -0.45399 0.891007 0
    outer loop
      vertex -13.7073 -2.4675 4.5
      vertex -14.5575 -2.90072 3.55236e-16
      vertex -14.5575 -2.90072 4.5
    endloop
  endfacet
  facet normal -0.45399 0.891007 0
    outer loop
      vertex -14.5575 -2.90072 3.55236e-16
      vertex -13.7073 -2.4675 4.5
      vertex -13.7073 -2.4675 3.02182e-16
    endloop
  endfacet
  facet normal 0.45399 0.891007 -0
    outer loop
      vertex -16.4425 -2.90072 3.55236e-16
      vertex -17.2927 -2.4675 4.5
      vertex -16.4425 -2.90072 4.5
    endloop
  endfacet
  facet normal 0.45399 0.891007 0
    outer loop
      vertex -17.2927 -2.4675 4.5
      vertex -16.4425 -2.90072 3.55236e-16
      vertex -17.2927 -2.4675 3.02182e-16
    endloop
  endfacet
  facet normal 0.707106 0.707108 -0
    outer loop
      vertex -17.2927 -2.4675 3.02182e-16
      vertex -17.9675 -1.79274 4.5
      vertex -17.2927 -2.4675 4.5
    endloop
  endfacet
  facet normal 0.707106 0.707108 0
    outer loop
      vertex -17.9675 -1.79274 4.5
      vertex -17.2927 -2.4675 3.02182e-16
      vertex -17.9675 -1.79274 2.19548e-16
    endloop
  endfacet
  facet normal 0.156435 0.987688 -0
    outer loop
      vertex -15.5 -3.05 3.73517e-16
      vertex -16.4425 -2.90072 4.5
      vertex -15.5 -3.05 4.5
    endloop
  endfacet
  facet normal 0.156435 0.987688 0
    outer loop
      vertex -16.4425 -2.90072 4.5
      vertex -15.5 -3.05 3.73517e-16
      vertex -16.4425 -2.90072 3.55236e-16
    endloop
  endfacet
  facet normal -0.891007 -0.45399 0
    outer loop
      vertex -12.5993 0.942501 -1.15423e-16
      vertex -13.0325 1.79274 4.5
      vertex -13.0325 1.79274 -2.19548e-16
    endloop
  endfacet
  facet normal -0.891007 -0.45399 0
    outer loop
      vertex -13.0325 1.79274 4.5
      vertex -12.5993 0.942501 -1.15423e-16
      vertex -12.5993 0.942501 4.5
    endloop
  endfacet
  facet normal 0.707106 -0.707108 0
    outer loop
      vertex -17.9675 1.79274 -2.19548e-16
      vertex -17.2927 2.4675 4.5
      vertex -17.9675 1.79274 4.5
    endloop
  endfacet
  facet normal 0.707106 -0.707108 0
    outer loop
      vertex -17.2927 2.4675 4.5
      vertex -17.9675 1.79274 -2.19548e-16
      vertex -17.2927 2.4675 -3.02182e-16
    endloop
  endfacet
  facet normal 0.987688 -0.156434 0
    outer loop
      vertex -18.55 -7.34788e-16 4.5
      vertex -18.4007 0.942501 -1.15423e-16
      vertex -18.4007 0.942501 4.5
    endloop
  endfacet
  facet normal 0.987688 -0.156434 1.93909e-17
    outer loop
      vertex -18.4007 0.942501 -1.15423e-16
      vertex -18.55 -7.34788e-16 4.5
      vertex -18.55 -1.28588e-15 0
    endloop
  endfacet
  facet normal 0.891007 0.45399 0
    outer loop
      vertex -17.9675 -1.79274 4.5
      vertex -18.4007 -0.942501 1.15423e-16
      vertex -18.4007 -0.942501 4.5
    endloop
  endfacet
  facet normal 0.891007 0.45399 0
    outer loop
      vertex -18.4007 -0.942501 1.15423e-16
      vertex -17.9675 -1.79274 4.5
      vertex -17.9675 -1.79274 2.19548e-16
    endloop
  endfacet
  facet normal -0.156435 -0.987688 0
    outer loop
      vertex -15.5 3.05 4.5
      vertex -14.5575 2.90072 -3.55236e-16
      vertex -14.5575 2.90072 4.5
    endloop
  endfacet
  facet normal -0.156435 -0.987688 0
    outer loop
      vertex -14.5575 2.90072 -3.55236e-16
      vertex -15.5 3.05 4.5
      vertex -15.5 3.05 -3.73517e-16
    endloop
  endfacet
  facet normal -0.707107 -0.707107 0
    outer loop
      vertex -13.0325 1.79274 -2.19548e-16
      vertex -13.7073 2.4675 4.5
      vertex -13.7073 2.4675 -3.02182e-16
    endloop
  endfacet
  facet normal -0.707107 -0.707107 0
    outer loop
      vertex -13.7073 2.4675 4.5
      vertex -13.0325 1.79274 -2.19548e-16
      vertex -13.0325 1.79274 4.5
    endloop
  endfacet
  facet normal 0.45399 -0.891007 0
    outer loop
      vertex -17.2927 2.4675 -3.02182e-16
      vertex -16.4425 2.90072 4.5
      vertex -17.2927 2.4675 4.5
    endloop
  endfacet
  facet normal 0.45399 -0.891007 0
    outer loop
      vertex -16.4425 2.90072 4.5
      vertex -17.2927 2.4675 -3.02182e-16
      vertex -16.4425 2.90072 -3.55236e-16
    endloop
  endfacet
  facet normal 0.891007 -0.45399 0
    outer loop
      vertex -18.4007 0.942501 4.5
      vertex -17.9675 1.79274 -2.19548e-16
      vertex -17.9675 1.79274 4.5
    endloop
  endfacet
  facet normal 0.891007 -0.45399 0
    outer loop
      vertex -17.9675 1.79274 -2.19548e-16
      vertex -18.4007 0.942501 4.5
      vertex -18.4007 0.942501 -1.15423e-16
    endloop
  endfacet
  facet normal -0.987688 -0.156435 0
    outer loop
      vertex -12.5993 0.942501 -1.15423e-16
      vertex -12.45 -7.34788e-16 4.5
      vertex -12.5993 0.942501 4.5
    endloop
  endfacet
  facet normal -0.987688 -0.156435 1.91577e-17
    outer loop
      vertex -12.45 -7.34788e-16 4.5
      vertex -12.5993 0.942501 -1.15423e-16
      vertex -12.45 -1.28588e-15 0
    endloop
  endfacet
  facet normal -0.45399 -0.891007 0
    outer loop
      vertex -14.5575 2.90072 4.5
      vertex -13.7073 2.4675 -3.02182e-16
      vertex -13.7073 2.4675 4.5
    endloop
  endfacet
  facet normal -0.45399 -0.891007 0
    outer loop
      vertex -13.7073 2.4675 -3.02182e-16
      vertex -14.5575 2.90072 4.5
      vertex -14.5575 2.90072 -3.55236e-16
    endloop
  endfacet
  facet normal 0.156435 -0.987688 0
    outer loop
      vertex -16.4425 2.90072 -3.55236e-16
      vertex -15.5 3.05 4.5
      vertex -16.4425 2.90072 4.5
    endloop
  endfacet
  facet normal 0.156435 -0.987688 0
    outer loop
      vertex -15.5 3.05 4.5
      vertex -16.4425 2.90072 -3.55236e-16
      vertex -15.5 3.05 -3.73517e-16
    endloop
  endfacet
  facet normal -0.987689 0.156432 -1.84819e-17
    outer loop
      vertex 17.0217 -0.494427 6
      vertex 17.1 0 10.5
      vertex 17.1 -5.51091e-16 6
    endloop
  endfacet
  facet normal -0.987689 0.156432 0
    outer loop
      vertex 17.1 0 10.5
      vertex 17.0217 -0.494427 6
      vertex 17.0217 -0.494427 10.5
    endloop
  endfacet
  facet normal 0.987688 0.156434 -1.84819e-17
    outer loop
      vertex 13.9783 -0.494427 10.5
      vertex 13.9 -5.51091e-16 6
      vertex 13.9 0 10.5
    endloop
  endfacet
  facet normal 0.987688 0.156434 0
    outer loop
      vertex 13.9 -5.51091e-16 6
      vertex 13.9783 -0.494427 10.5
      vertex 13.9783 -0.494427 6
    endloop
  endfacet
  facet normal 0.156434 0.987688 -0
    outer loop
      vertex 15.5 -1.6 6
      vertex 15.0056 -1.52169 10.5
      vertex 15.5 -1.6 10.5
    endloop
  endfacet
  facet normal 0.156434 0.987688 0
    outer loop
      vertex 15.0056 -1.52169 10.5
      vertex 15.5 -1.6 6
      vertex 15.0056 -1.52169 6
    endloop
  endfacet
  facet normal -0.156434 -0.987688 0
    outer loop
      vertex 15.5 1.6 6
      vertex 15.9944 1.52169 10.5
      vertex 15.5 1.6 10.5
    endloop
  endfacet
  facet normal -0.156434 -0.987688 -0
    outer loop
      vertex 15.9944 1.52169 10.5
      vertex 15.5 1.6 6
      vertex 15.9944 1.52169 6
    endloop
  endfacet
  facet normal -0.45399 -0.891007 0
    outer loop
      vertex 15.9944 1.52169 6
      vertex 16.4405 1.29443 10.5
      vertex 15.9944 1.52169 10.5
    endloop
  endfacet
  facet normal -0.45399 -0.891007 -0
    outer loop
      vertex 16.4405 1.29443 10.5
      vertex 15.9944 1.52169 6
      vertex 16.4405 1.29443 6
    endloop
  endfacet
  facet normal -0.707108 0.707106 0
    outer loop
      vertex 16.4405 -1.29443 6
      vertex 16.7944 -0.940456 10.5
      vertex 16.7944 -0.940456 6
    endloop
  endfacet
  facet normal -0.707108 0.707106 0
    outer loop
      vertex 16.7944 -0.940456 10.5
      vertex 16.4405 -1.29443 6
      vertex 16.4405 -1.29443 10.5
    endloop
  endfacet
  facet normal -0.891006 0.453992 0
    outer loop
      vertex 16.7944 -0.940456 6
      vertex 17.0217 -0.494427 10.5
      vertex 17.0217 -0.494427 6
    endloop
  endfacet
  facet normal -0.891006 0.453992 0
    outer loop
      vertex 17.0217 -0.494427 10.5
      vertex 16.7944 -0.940456 6
      vertex 16.7944 -0.940456 10.5
    endloop
  endfacet
  facet normal -0.45399 0.891007 0
    outer loop
      vertex 16.4405 -1.29443 6
      vertex 15.9944 -1.52169 10.5
      vertex 16.4405 -1.29443 10.5
    endloop
  endfacet
  facet normal -0.45399 0.891007 0
    outer loop
      vertex 15.9944 -1.52169 10.5
      vertex 16.4405 -1.29443 6
      vertex 15.9944 -1.52169 6
    endloop
  endfacet
  facet normal 0.707107 0.707107 0
    outer loop
      vertex 14.5595 -1.29443 10.5
      vertex 14.2056 -0.940456 6
      vertex 14.2056 -0.940456 10.5
    endloop
  endfacet
  facet normal 0.707107 0.707107 0
    outer loop
      vertex 14.2056 -0.940456 6
      vertex 14.5595 -1.29443 10.5
      vertex 14.5595 -1.29443 6
    endloop
  endfacet
  facet normal 0.891007 0.45399 0
    outer loop
      vertex 14.2056 -0.940456 10.5
      vertex 13.9783 -0.494427 6
      vertex 13.9783 -0.494427 10.5
    endloop
  endfacet
  facet normal 0.891007 0.45399 0
    outer loop
      vertex 13.9783 -0.494427 6
      vertex 14.2056 -0.940456 10.5
      vertex 14.2056 -0.940456 6
    endloop
  endfacet
  facet normal 0 0 1
    outer loop
      vertex 17.0217 0.494427 6
      vertex 17.0217 -0.494427 6
      vertex 17.1 -5.51091e-16 6
    endloop
  endfacet
  facet normal 0 0 1
    outer loop
      vertex 16.7944 0.940456 6
      vertex 17.0217 -0.494427 6
      vertex 17.0217 0.494427 6
    endloop
  endfacet
  facet normal 0 0 1
    outer loop
      vertex 16.7944 0.940456 6
      vertex 16.7944 -0.940456 6
      vertex 17.0217 -0.494427 6
    endloop
  endfacet
  facet normal 0 0 1
    outer loop
      vertex 16.4405 1.29443 6
      vertex 16.7944 -0.940456 6
      vertex 16.7944 0.940456 6
    endloop
  endfacet
  facet normal 0 0 1
    outer loop
      vertex 16.4405 1.29443 6
      vertex 16.4405 -1.29443 6
      vertex 16.7944 -0.940456 6
    endloop
  endfacet
  facet normal 0 0 1
    outer loop
      vertex 15.9944 1.52169 6
      vertex 16.4405 -1.29443 6
      vertex 16.4405 1.29443 6
    endloop
  endfacet
  facet normal 0 0 1
    outer loop
      vertex 15.9944 1.52169 6
      vertex 15.9944 -1.52169 6
      vertex 16.4405 -1.29443 6
    endloop
  endfacet
  facet normal 0 0 1
    outer loop
      vertex 15.5 1.6 6
      vertex 15.9944 -1.52169 6
      vertex 15.9944 1.52169 6
    endloop
  endfacet
  facet normal 0 0 1
    outer loop
      vertex 15.5 1.6 6
      vertex 15.5 -1.6 6
      vertex 15.9944 -1.52169 6
    endloop
  endfacet
  facet normal -0 0 1
    outer loop
      vertex 15.0056 1.52169 6
      vertex 15.5 -1.6 6
      vertex 15.5 1.6 6
    endloop
  endfacet
  facet normal 0 0 1
    outer loop
      vertex 15.0056 1.52169 6
      vertex 15.0056 -1.52169 6
      vertex 15.5 -1.6 6
    endloop
  endfacet
  facet normal -0 0 1
    outer loop
      vertex 14.5595 1.29443 6
      vertex 15.0056 -1.52169 6
      vertex 15.0056 1.52169 6
    endloop
  endfacet
  facet normal 0 0 1
    outer loop
      vertex 14.5595 1.29443 6
      vertex 14.5595 -1.29443 6
      vertex 15.0056 -1.52169 6
    endloop
  endfacet
  facet normal -0 0 1
    outer loop
      vertex 14.2056 0.940456 6
      vertex 14.5595 -1.29443 6
      vertex 14.5595 1.29443 6
    endloop
  endfacet
  facet normal 0 0 1
    outer loop
      vertex 14.2056 0.940456 6
      vertex 14.2056 -0.940456 6
      vertex 14.5595 -1.29443 6
    endloop
  endfacet
  facet normal -0 0 1
    outer loop
      vertex 13.9783 0.494427 6
      vertex 14.2056 -0.940456 6
      vertex 14.2056 0.940456 6
    endloop
  endfacet
  facet normal 0 0 1
    outer loop
      vertex 13.9783 0.494427 6
      vertex 13.9783 -0.494427 6
      vertex 14.2056 -0.940456 6
    endloop
  endfacet
  facet normal 0 -0 1
    outer loop
      vertex 13.9783 -0.494427 6
      vertex 13.9783 0.494427 6
      vertex 13.9 -5.51091e-16 6
    endloop
  endfacet
  facet normal 0.45399 0.891007 -0
    outer loop
      vertex 15.0056 -1.52169 6
      vertex 14.5595 -1.29443 10.5
      vertex 15.0056 -1.52169 10.5
    endloop
  endfacet
  facet normal 0.45399 0.891007 0
    outer loop
      vertex 14.5595 -1.29443 10.5
      vertex 15.0056 -1.52169 6
      vertex 14.5595 -1.29443 6
    endloop
  endfacet
  facet normal -0.156434 0.987688 0
    outer loop
      vertex 15.9944 -1.52169 6
      vertex 15.5 -1.6 10.5
      vertex 15.9944 -1.52169 10.5
    endloop
  endfacet
  facet normal -0.156434 0.987688 0
    outer loop
      vertex 15.5 -1.6 10.5
      vertex 15.9944 -1.52169 6
      vertex 15.5 -1.6 6
    endloop
  endfacet
  facet normal -0.707108 -0.707106 0
    outer loop
      vertex 16.7944 0.940456 6
      vertex 16.4405 1.29443 10.5
      vertex 16.4405 1.29443 6
    endloop
  endfacet
  facet normal -0.707108 -0.707106 0
    outer loop
      vertex 16.4405 1.29443 10.5
      vertex 16.7944 0.940456 6
      vertex 16.7944 0.940456 10.5
    endloop
  endfacet
  facet normal -0.891006 -0.453992 0
    outer loop
      vertex 17.0217 0.494427 6
      vertex 16.7944 0.940456 10.5
      vertex 16.7944 0.940456 6
    endloop
  endfacet
  facet normal -0.891006 -0.453992 0
    outer loop
      vertex 16.7944 0.940456 10.5
      vertex 17.0217 0.494427 6
      vertex 17.0217 0.494427 10.5
    endloop
  endfacet
  facet normal 0.891007 -0.45399 0
    outer loop
      vertex 13.9783 0.494427 10.5
      vertex 14.2056 0.940456 6
      vertex 14.2056 0.940456 10.5
    endloop
  endfacet
  facet normal 0.891007 -0.45399 0
    outer loop
      vertex 14.2056 0.940456 6
      vertex 13.9783 0.494427 10.5
      vertex 13.9783 0.494427 6
    endloop
  endfacet
  facet normal 0.987688 -0.156434 0
    outer loop
      vertex 13.9 0 10.5
      vertex 13.9783 0.494427 6
      vertex 13.9783 0.494427 10.5
    endloop
  endfacet
  facet normal 0.987688 -0.156434 1.84819e-17
    outer loop
      vertex 13.9783 0.494427 6
      vertex 13.9 0 10.5
      vertex 13.9 -5.51091e-16 6
    endloop
  endfacet
  facet normal -0.987689 -0.156432 0
    outer loop
      vertex 17.0217 0.494427 6
      vertex 17.1 0 10.5
      vertex 17.0217 0.494427 10.5
    endloop
  endfacet
  facet normal -0.987689 -0.156432 1.91574e-17
    outer loop
      vertex 17.1 0 10.5
      vertex 17.0217 0.494427 6
      vertex 17.1 -5.51091e-16 6
    endloop
  endfacet
  facet normal 0.156434 -0.987688 0
    outer loop
      vertex 15.0056 1.52169 6
      vertex 15.5 1.6 10.5
      vertex 15.0056 1.52169 10.5
    endloop
  endfacet
  facet normal 0.156434 -0.987688 0
    outer loop
      vertex 15.5 1.6 10.5
      vertex 15.0056 1.52169 6
      vertex 15.5 1.6 6
    endloop
  endfacet
  facet normal 0.707107 -0.707107 0
    outer loop
      vertex 14.2056 0.940456 10.5
      vertex 14.5595 1.29443 6
      vertex 14.5595 1.29443 10.5
    endloop
  endfacet
  facet normal 0.707107 -0.707107 0
    outer loop
      vertex 14.5595 1.29443 6
      vertex 14.2056 0.940456 10.5
      vertex 14.2056 0.940456 6
    endloop
  endfacet
  facet normal 0.45399 -0.891007 0
    outer loop
      vertex 14.5595 1.29443 6
      vertex 15.0056 1.52169 10.5
      vertex 14.5595 1.29443 10.5
    endloop
  endfacet
  facet normal 0.45399 -0.891007 0
    outer loop
      vertex 15.0056 1.52169 10.5
      vertex 14.5595 1.29443 6
      vertex 15.0056 1.52169 6
    endloop
  endfacet
  facet normal -0.987688 0.156434 -1.74518e-17
    outer loop
      vertex 18.4007 -0.942501 1.15423e-16
      vertex 18.55 -6.73556e-16 5
      vertex 18.55 -1.28588e-15 0
    endloop
  endfacet
  facet normal -0.987688 0.156434 0
    outer loop
      vertex 18.55 -6.73556e-16 5
      vertex 18.4007 -0.942501 1.15423e-16
      vertex 18.4007 -0.942501 5
    endloop
  endfacet
  facet normal 0.987688 0.156435 -1.74518e-17
    outer loop
      vertex 12.5993 -0.942501 5
      vertex 12.45 -1.28588e-15 0
      vertex 12.45 -6.73556e-16 5
    endloop
  endfacet
  facet normal 0.987688 0.156435 0
    outer loop
      vertex 12.45 -1.28588e-15 0
      vertex 12.5993 -0.942501 5
      vertex 12.5993 -0.942501 1.15423e-16
    endloop
  endfacet
  facet normal -0.156435 0.987688 0
    outer loop
      vertex 16.4425 -2.90072 5
      vertex 15.5 -3.05 3.73517e-16
      vertex 15.5 -3.05 5
    endloop
  endfacet
  facet normal -0.156435 0.987688 0
    outer loop
      vertex 15.5 -3.05 3.73517e-16
      vertex 16.4425 -2.90072 5
      vertex 16.4425 -2.90072 3.55236e-16
    endloop
  endfacet
  facet normal 0 0 -1
    outer loop
      vertex 13 -1.1 5
      vertex 18.55 -6.73556e-16 5
      vertex 18.4007 -0.942501 5
    endloop
  endfacet
  facet normal 0 0 -1
    outer loop
      vertex 13 -1.1 5
      vertex 18.4007 -0.942501 5
      vertex 17.9675 -1.79274 5
    endloop
  endfacet
  facet normal -0 0 -1
    outer loop
      vertex 18.55 -6.73556e-16 5
      vertex 13 -1.1 5
      vertex 18.4007 0.942501 5
    endloop
  endfacet
  facet normal 0 0 -1
    outer loop
      vertex 13 -1.1 5
      vertex 17.9675 -1.79274 5
      vertex 17.2927 -2.4675 5
    endloop
  endfacet
  facet normal -0 0 -1
    outer loop
      vertex 18.4007 0.942501 5
      vertex 13 -1.1 5
      vertex 17.9675 1.79274 5
    endloop
  endfacet
  facet normal 0 0 -1
    outer loop
      vertex 13 -1.1 5
      vertex 17.2927 -2.4675 5
      vertex 16.4425 -2.90072 5
    endloop
  endfacet
  facet normal -0 0 -1
    outer loop
      vertex 17.9675 1.79274 5
      vertex 13 -1.1 5
      vertex 17.2927 2.4675 5
    endloop
  endfacet
  facet normal 0 0 -1
    outer loop
      vertex 13 -1.1 5
      vertex 16.4425 -2.90072 5
      vertex 15.5 -3.05 5
    endloop
  endfacet
  facet normal -0 0 -1
    outer loop
      vertex 17.2927 2.4675 5
      vertex 13 -1.1 5
      vertex 16.4425 2.90072 5
    endloop
  endfacet
  facet normal 0 0 -1
    outer loop
      vertex 13 -1.1 5
      vertex 15.5 -3.05 5
      vertex 14.5575 -2.90072 5
    endloop
  endfacet
  facet normal -0 0 -1
    outer loop
      vertex 16.4425 2.90072 5
      vertex 13 -1.1 5
      vertex 15.5 3.05 5
    endloop
  endfacet
  facet normal 0 0 -1
    outer loop
      vertex 13 -1.1 5
      vertex 14.5575 -2.90072 5
      vertex 13.7073 -2.4675 5
    endloop
  endfacet
  facet normal 0 0 -1
    outer loop
      vertex 15.5 3.05 5
      vertex 13 -1.1 5
      vertex 14.5575 2.90072 5
    endloop
  endfacet
  facet normal 0 0 -1
    outer loop
      vertex 13 -1.1 5
      vertex 13.7073 -2.4675 5
      vertex 13.0325 -1.79274 5
    endloop
  endfacet
  facet normal 0 0 -1
    outer loop
      vertex 14.5575 2.90072 5
      vertex 13 -1.1 5
      vertex 13.7073 2.4675 5
    endloop
  endfacet
  facet normal 0 0 -1
    outer loop
      vertex 13 -1.1 5
      vertex 13.0325 -1.79274 5
      vertex 13 -1.72896 5
    endloop
  endfacet
  facet normal 0 0 -1
    outer loop
      vertex 13.7073 2.4675 5
      vertex 13 -1.1 5
      vertex 13.0325 1.79274 5
    endloop
  endfacet
  facet normal 0 0 -1
    outer loop
      vertex 12.5993 -0.942501 5
      vertex 13 -1.1 5
      vertex 12.6795 -1.1 5
    endloop
  endfacet
  facet normal 0 0 -1
    outer loop
      vertex 13 -1.1 5
      vertex 12.5993 -0.942501 5
      vertex 12.45 -6.73556e-16 5
    endloop
  endfacet
  facet normal 0 0 -1
    outer loop
      vertex 13 -1.1 5
      vertex 12.5993 0.942501 5
      vertex 13.0325 1.79274 5
    endloop
  endfacet
  facet normal 0 0 -1
    outer loop
      vertex 13 -1.1 5
      vertex 12.45 -6.73556e-16 5
      vertex 12.5993 0.942501 5
    endloop
  endfacet
  facet normal -0.707106 0.707108 0
    outer loop
      vertex 17.9675 -1.79274 5
      vertex 17.2927 -2.4675 3.02182e-16
      vertex 17.2927 -2.4675 5
    endloop
  endfacet
  facet normal -0.707106 0.707108 0
    outer loop
      vertex 17.2927 -2.4675 3.02182e-16
      vertex 17.9675 -1.79274 5
      vertex 17.9675 -1.79274 2.19548e-16
    endloop
  endfacet
  facet normal -0.891007 0.45399 0
    outer loop
      vertex 17.9675 -1.79274 2.19548e-16
      vertex 18.4007 -0.942501 5
      vertex 18.4007 -0.942501 1.15423e-16
    endloop
  endfacet
  facet normal -0.891007 0.45399 0
    outer loop
      vertex 18.4007 -0.942501 5
      vertex 17.9675 -1.79274 2.19548e-16
      vertex 17.9675 -1.79274 5
    endloop
  endfacet
  facet normal -0.45399 0.891007 0
    outer loop
      vertex 17.2927 -2.4675 5
      vertex 16.4425 -2.90072 3.55236e-16
      vertex 16.4425 -2.90072 5
    endloop
  endfacet
  facet normal -0.45399 0.891007 0
    outer loop
      vertex 16.4425 -2.90072 3.55236e-16
      vertex 17.2927 -2.4675 5
      vertex 17.2927 -2.4675 3.02182e-16
    endloop
  endfacet
  facet normal 0.45399 0.891007 -0
    outer loop
      vertex 14.5575 -2.90072 3.55236e-16
      vertex 13.7073 -2.4675 5
      vertex 14.5575 -2.90072 5
    endloop
  endfacet
  facet normal 0.45399 0.891007 0
    outer loop
      vertex 13.7073 -2.4675 5
      vertex 14.5575 -2.90072 3.55236e-16
      vertex 13.7073 -2.4675 3.02182e-16
    endloop
  endfacet
  facet normal 0.707107 0.707107 0
    outer loop
      vertex 13.7073 -2.4675 5
      vertex 13.0325 -1.79274 2.19548e-16
      vertex 13.0325 -1.79274 5
    endloop
  endfacet
  facet normal 0.707107 0.707107 0
    outer loop
      vertex 13.0325 -1.79274 2.19548e-16
      vertex 13.7073 -2.4675 5
      vertex 13.7073 -2.4675 3.02182e-16
    endloop
  endfacet
  facet normal 0.156435 0.987688 -0
    outer loop
      vertex 15.5 -3.05 3.73517e-16
      vertex 14.5575 -2.90072 5
      vertex 15.5 -3.05 5
    endloop
  endfacet
  facet normal 0.156435 0.987688 0
    outer loop
      vertex 14.5575 -2.90072 5
      vertex 15.5 -3.05 3.73517e-16
      vertex 14.5575 -2.90072 3.55236e-16
    endloop
  endfacet
  facet normal -0.891007 -0.45399 0
    outer loop
      vertex 18.4007 0.942501 -1.15423e-16
      vertex 17.9675 1.79274 5
      vertex 17.9675 1.79274 -2.19548e-16
    endloop
  endfacet
  facet normal -0.891007 -0.45399 0
    outer loop
      vertex 17.9675 1.79274 5
      vertex 18.4007 0.942501 -1.15423e-16
      vertex 18.4007 0.942501 5
    endloop
  endfacet
  facet normal 0.707107 -0.707107 0
    outer loop
      vertex 13.0325 1.79274 5
      vertex 13.7073 2.4675 -3.02182e-16
      vertex 13.7073 2.4675 5
    endloop
  endfacet
  facet normal 0.707107 -0.707107 0
    outer loop
      vertex 13.7073 2.4675 -3.02182e-16
      vertex 13.0325 1.79274 5
      vertex 13.0325 1.79274 -2.19548e-16
    endloop
  endfacet
  facet normal 0.987688 -0.156435 0
    outer loop
      vertex 12.45 -6.73556e-16 5
      vertex 12.5993 0.942501 -1.15423e-16
      vertex 12.5993 0.942501 5
    endloop
  endfacet
  facet normal 0.987688 -0.156435 1.74518e-17
    outer loop
      vertex 12.5993 0.942501 -1.15423e-16
      vertex 12.45 -6.73556e-16 5
      vertex 12.45 -1.28588e-15 0
    endloop
  endfacet
  facet normal 0.891007 0.45399 0
    outer loop
      vertex 13 -1.72896 5
      vertex 13.0325 -1.79274 5
      vertex 13 -1.72896 2
    endloop
  endfacet
  facet normal 0.891008 0.453988 -0
    outer loop
      vertex 12.6795 -1.1 2
      vertex 12.5993 -0.942501 5
      vertex 12.6795 -1.1 5
    endloop
  endfacet
  facet normal 0.891008 0.453988 0
    outer loop
      vertex 12.5993 -0.942501 5
      vertex 12.6795 -1.1 2
      vertex 12.5993 -0.942501 1.15423e-16
    endloop
  endfacet
  facet normal 0.891007 0.45399 -1.83393e-08
    outer loop
      vertex 13.0325 -1.79274 2.19548e-16
      vertex 12.6795 -1.1 2
      vertex 13 -1.72896 2
    endloop
  endfacet
  facet normal 0.891007 0.45399 1.94537e-07
    outer loop
      vertex 12.6795 -1.1 2
      vertex 13.0325 -1.79274 2.19548e-16
      vertex 12.5993 -0.942501 1.15423e-16
    endloop
  endfacet
  facet normal 0.891007 0.45399 -0
    outer loop
      vertex 13.0325 -1.79274 2.19548e-16
      vertex 13 -1.72896 2
      vertex 13.0325 -1.79274 5
    endloop
  endfacet
  facet normal -0.156435 -0.987688 0
    outer loop
      vertex 15.5 3.05 5
      vertex 16.4425 2.90072 -3.55236e-16
      vertex 16.4425 2.90072 5
    endloop
  endfacet
  facet normal -0.156435 -0.987688 0
    outer loop
      vertex 16.4425 2.90072 -3.55236e-16
      vertex 15.5 3.05 5
      vertex 15.5 3.05 -3.73517e-16
    endloop
  endfacet
  facet normal -0.707106 -0.707108 0
    outer loop
      vertex 17.2927 2.4675 5
      vertex 17.9675 1.79274 -2.19548e-16
      vertex 17.9675 1.79274 5
    endloop
  endfacet
  facet normal -0.707106 -0.707108 0
    outer loop
      vertex 17.9675 1.79274 -2.19548e-16
      vertex 17.2927 2.4675 5
      vertex 17.2927 2.4675 -3.02182e-16
    endloop
  endfacet
  facet normal 0.45399 -0.891007 0
    outer loop
      vertex 13.7073 2.4675 -3.02182e-16
      vertex 14.5575 2.90072 5
      vertex 13.7073 2.4675 5
    endloop
  endfacet
  facet normal 0.45399 -0.891007 0
    outer loop
      vertex 14.5575 2.90072 5
      vertex 13.7073 2.4675 -3.02182e-16
      vertex 14.5575 2.90072 -3.55236e-16
    endloop
  endfacet
  facet normal 0.891007 -0.45399 0
    outer loop
      vertex 12.5993 0.942501 5
      vertex 13.0325 1.79274 -2.19548e-16
      vertex 13.0325 1.79274 5
    endloop
  endfacet
  facet normal 0.891007 -0.45399 0
    outer loop
      vertex 13.0325 1.79274 -2.19548e-16
      vertex 12.5993 0.942501 5
      vertex 12.5993 0.942501 -1.15423e-16
    endloop
  endfacet
  facet normal -0.987688 -0.156434 0
    outer loop
      vertex 18.4007 0.942501 -1.15423e-16
      vertex 18.55 -6.73556e-16 5
      vertex 18.4007 0.942501 5
    endloop
  endfacet
  facet normal -0.987688 -0.156434 1.91576e-17
    outer loop
      vertex 18.55 -6.73556e-16 5
      vertex 18.4007 0.942501 -1.15423e-16
      vertex 18.55 -1.28588e-15 0
    endloop
  endfacet
  facet normal -0.45399 -0.891007 0
    outer loop
      vertex 16.4425 2.90072 5
      vertex 17.2927 2.4675 -3.02182e-16
      vertex 17.2927 2.4675 5
    endloop
  endfacet
  facet normal -0.45399 -0.891007 0
    outer loop
      vertex 17.2927 2.4675 -3.02182e-16
      vertex 16.4425 2.90072 5
      vertex 16.4425 2.90072 -3.55236e-16
    endloop
  endfacet
  facet normal 0.156435 -0.987688 0
    outer loop
      vertex 14.5575 2.90072 -3.55236e-16
      vertex 15.5 3.05 5
      vertex 14.5575 2.90072 5
    endloop
  endfacet
  facet normal 0.156435 -0.987688 0
    outer loop
      vertex 15.5 3.05 5
      vertex 14.5575 2.90072 -3.55236e-16
      vertex 15.5 3.05 -3.73517e-16
    endloop
  endfacet
  facet normal -1 0 0
    outer loop
      vertex 13 -1.72896 2
      vertex 13 -2.6 2
      vertex 13 -1.72896 5
    endloop
  endfacet
  facet normal -1 0 0
    outer loop
      vertex 13 -1.72896 5
      vertex 13 -1.1 10.5
      vertex 13 -1.1 5
    endloop
  endfacet
  facet normal -1 0 0
    outer loop
      vertex 13 -2.6 10.5
      vertex 13 -1.72896 5
      vertex 13 -2.6 2
    endloop
  endfacet
  facet normal -1 0 0
    outer loop
      vertex 13 -1.72896 5
      vertex 13 -2.6 10.5
      vertex 13 -1.1 10.5
    endloop
  endfacet
  facet normal 0 -1 0
    outer loop
      vertex 11.9 -1.1 10.5
      vertex 12.6795 -1.1 5
      vertex 13 -1.1 10.5
    endloop
  endfacet
  facet normal 0 -1 0
    outer loop
      vertex 11.9 -1.1 2
      vertex 12.6795 -1.1 5
      vertex 11.9 -1.1 10.5
    endloop
  endfacet
  facet normal 0 -1 -0
    outer loop
      vertex 12.6795 -1.1 5
      vertex 11.9 -1.1 2
      vertex 12.6795 -1.1 2
    endloop
  endfacet
  facet normal 0 -1 -0
    outer loop
      vertex 13 -1.1 10.5
      vertex 12.6795 -1.1 5
      vertex 13 -1.1 5
    endloop
  endfacet
  facet normal 1 0 0
    outer loop
      vertex -13 -1.1 10.5
      vertex -13 -1.72896 4.5
      vertex -13 -1.1 4.5
    endloop
  endfacet
  facet normal 1 -0 0
    outer loop
      vertex -13 -2.6 10.5
      vertex -13 -1.72896 4.5
      vertex -13 -1.1 10.5
    endloop
  endfacet
  facet normal 1 0 0
    outer loop
      vertex -13 -2.6 2
      vertex -13 -1.72896 4.5
      vertex -13 -2.6 10.5
    endloop
  endfacet
  facet normal 1 0 0
    outer loop
      vertex -13 -1.72896 4.5
      vertex -13 -2.6 2
      vertex -13 -1.72896 2
    endloop
  endfacet
  facet normal 0 -1 0
    outer loop
      vertex -12.6795 -1.1 4.5
      vertex -13 -1.1 10.5
      vertex -13 -1.1 4.5
    endloop
  endfacet
  facet normal 0 -1 0
    outer loop
      vertex -13 -1.1 10.5
      vertex -12.6795 -1.1 4.5
      vertex -11.9 -1.1 10.5
    endloop
  endfacet
  facet normal 0 -1 0
    outer loop
      vertex -11.9 -1.1 2
      vertex -12.6795 -1.1 4.5
      vertex -12.6795 -1.1 2
    endloop
  endfacet
  facet normal 0 -1 0
    outer loop
      vertex -12.6795 -1.1 4.5
      vertex -11.9 -1.1 2
      vertex -11.9 -1.1 10.5
    endloop
  endfacet
endsolid OpenSCAD_Model
