solid OpenSCAD_Model
  facet normal -0.994522 -0.104529 0
    outer loop
      vertex 4 -35 7.77156e-15
      vertex 3.91259 -34.1684 16
      vertex 3.91259 -34.1684 7.5869e-15
    endloop
  endfacet
  facet normal -0.994522 -0.104529 0
    outer loop
      vertex 3.91259 -34.1684 16
      vertex 4 -35 7.77156e-15
      vertex 4 -35 16
    endloop
  endfacet
  facet normal 0.994522 -0.104529 0
    outer loop
      vertex -4 -35 16
      vertex -3.91259 -34.1684 7.5869e-15
      vertex -3.91259 -34.1684 16
    endloop
  endfacet
  facet normal 0.994522 -0.104529 0
    outer loop
      vertex -3.91259 -34.1684 7.5869e-15
      vertex -4 -35 16
      vertex -4 -35 7.77156e-15
    endloop
  endfacet
  facet normal 0 -1 0
    outer loop
      vertex -0.418114 -31.0219 6.88825e-15
      vertex 0.418114 -31.0219 16
      vertex -0.418114 -31.0219 16
    endloop
  endfacet
  facet normal 0 -1 -0
    outer loop
      vertex 0.418114 -31.0219 16
      vertex -0.418114 -31.0219 6.88825e-15
      vertex 0.418114 -31.0219 6.88825e-15
    endloop
  endfacet
  facet normal -0.743144 -0.669131 0
    outer loop
      vertex 3.23607 -32.6489 7.2495e-15
      vertex 2.67652 -32.0274 16
      vertex 2.67652 -32.0274 7.11152e-15
    endloop
  endfacet
  facet normal -0.743144 -0.669131 0
    outer loop
      vertex 2.67652 -32.0274 16
      vertex 3.23607 -32.6489 7.2495e-15
      vertex 3.23607 -32.6489 16
    endloop
  endfacet
  facet normal 0.743144 -0.669131 0
    outer loop
      vertex -3.23607 -32.6489 16
      vertex -2.67652 -32.0274 7.11152e-15
      vertex -2.67652 -32.0274 16
    endloop
  endfacet
  facet normal 0.743144 -0.669131 0
    outer loop
      vertex -2.67652 -32.0274 7.11152e-15
      vertex -3.23607 -32.6489 16
      vertex -3.23607 -32.6489 7.2495e-15
    endloop
  endfacet
  facet normal 0.866026 -0.499998 0
    outer loop
      vertex -3.65418 -33.3731 16
      vertex -3.23607 -32.6489 7.2495e-15
      vertex -3.23607 -32.6489 16
    endloop
  endfacet
  facet normal 0.866026 -0.499998 0
    outer loop
      vertex -3.23607 -32.6489 7.2495e-15
      vertex -3.65418 -33.3731 16
      vertex -3.65418 -33.3731 7.41031e-15
    endloop
  endfacet
  facet normal 0.406737 -0.913545 0
    outer loop
      vertex -2 -31.5359 7.00238e-15
      vertex -1.23607 -31.1958 16
      vertex -2 -31.5359 16
    endloop
  endfacet
  facet normal 0.406737 -0.913545 0
    outer loop
      vertex -1.23607 -31.1958 16
      vertex -2 -31.5359 7.00238e-15
      vertex -1.23607 -31.1958 6.92685e-15
    endloop
  endfacet
  facet normal -0.866026 -0.499998 0
    outer loop
      vertex 3.65418 -33.3731 7.41031e-15
      vertex 3.23607 -32.6489 16
      vertex 3.23607 -32.6489 7.2495e-15
    endloop
  endfacet
  facet normal -0.866026 -0.499998 0
    outer loop
      vertex 3.23607 -32.6489 16
      vertex 3.65418 -33.3731 7.41031e-15
      vertex 3.65418 -33.3731 16
    endloop
  endfacet
  facet normal -0.951056 -0.309017 0
    outer loop
      vertex 3.91259 -34.1684 7.5869e-15
      vertex 3.65418 -33.3731 16
      vertex 3.65418 -33.3731 7.41031e-15
    endloop
  endfacet
  facet normal -0.951056 -0.309017 0
    outer loop
      vertex 3.65418 -33.3731 16
      vertex 3.91259 -34.1684 7.5869e-15
      vertex 3.91259 -34.1684 16
    endloop
  endfacet
  facet normal -0.406736 -0.913546 0
    outer loop
      vertex 1.23607 -31.1958 16
      vertex 2 -31.5359 7.00238e-15
      vertex 2 -31.5359 16
    endloop
  endfacet
  facet normal -0.406736 -0.913546 0
    outer loop
      vertex 2 -31.5359 7.00238e-15
      vertex 1.23607 -31.1958 16
      vertex 1.23607 -31.1958 6.92685e-15
    endloop
  endfacet
  facet normal -0.207913 -0.978147 0
    outer loop
      vertex 0.418114 -31.0219 16
      vertex 1.23607 -31.1958 6.92685e-15
      vertex 1.23607 -31.1958 16
    endloop
  endfacet
  facet normal -0.207913 -0.978147 0
    outer loop
      vertex 1.23607 -31.1958 6.92685e-15
      vertex 0.418114 -31.0219 16
      vertex 0.418114 -31.0219 6.88825e-15
    endloop
  endfacet
  facet normal -0.587785 -0.809017 0
    outer loop
      vertex 2 -31.5359 16
      vertex 2.67652 -32.0274 7.11152e-15
      vertex 2.67652 -32.0274 16
    endloop
  endfacet
  facet normal -0.587785 -0.809017 0
    outer loop
      vertex 2.67652 -32.0274 7.11152e-15
      vertex 2 -31.5359 16
      vertex 2 -31.5359 7.00238e-15
    endloop
  endfacet
  facet normal 0.951056 -0.309017 0
    outer loop
      vertex -3.91259 -34.1684 16
      vertex -3.65418 -33.3731 7.41031e-15
      vertex -3.65418 -33.3731 16
    endloop
  endfacet
  facet normal 0.951056 -0.309017 0
    outer loop
      vertex -3.65418 -33.3731 7.41031e-15
      vertex -3.91259 -34.1684 16
      vertex -3.91259 -34.1684 7.5869e-15
    endloop
  endfacet
  facet normal 0.587784 -0.809018 0
    outer loop
      vertex -2.67652 -32.0274 7.11152e-15
      vertex -2 -31.5359 16
      vertex -2.67652 -32.0274 16
    endloop
  endfacet
  facet normal 0.587784 -0.809018 0
    outer loop
      vertex -2 -31.5359 16
      vertex -2.67652 -32.0274 7.11152e-15
      vertex -2 -31.5359 7.00238e-15
    endloop
  endfacet
  facet normal 0.207913 -0.978147 0
    outer loop
      vertex -1.23607 -31.1958 6.92685e-15
      vertex -0.418114 -31.0219 16
      vertex -1.23607 -31.1958 16
    endloop
  endfacet
  facet normal 0.207913 -0.978147 0
    outer loop
      vertex -0.418114 -31.0219 16
      vertex -1.23607 -31.1958 6.92685e-15
      vertex -0.418114 -31.0219 6.88825e-15
    endloop
  endfacet
  facet normal 1 -0 0
    outer loop
      vertex -4 -45 16
      vertex -4 -35 7.77156e-15
      vertex -4 -35 16
    endloop
  endfacet
  facet normal 1 0 0
    outer loop
      vertex -4 -35 7.77156e-15
      vertex -4 -45 16
      vertex -4 -45 9.99201e-15
    endloop
  endfacet
  facet normal -1 0 0
    outer loop
      vertex 4 -45 9.99201e-15
      vertex 4 -35 16
      vertex 4 -35 7.77156e-15
    endloop
  endfacet
  facet normal -1 -0 0
    outer loop
      vertex 4 -35 16
      vertex 4 -45 9.99201e-15
      vertex 4 -45 16
    endloop
  endfacet
  facet normal -0 -2.22045e-16 -1
    outer loop
      vertex -4 -45 9.99201e-15
      vertex -5 -45 9.99201e-15
      vertex -4 -35 7.77156e-15
    endloop
  endfacet
  facet normal 0 -2.22045e-16 -1
    outer loop
      vertex 4 -35 7.77156e-15
      vertex 5 -45 9.99201e-15
      vertex 4 -45 9.99201e-15
    endloop
  endfacet
  facet normal 0 -2.22045e-16 -1
    outer loop
      vertex 5 -45 9.99201e-15
      vertex 4 -35 7.77156e-15
      vertex 5 0 0
    endloop
  endfacet
  facet normal 0 -2.22045e-16 -1
    outer loop
      vertex 3.91259 -34.1684 7.5869e-15
      vertex 5 0 0
      vertex 4 -35 7.77156e-15
    endloop
  endfacet
  facet normal 0 -2.22045e-16 -1
    outer loop
      vertex 3.65418 -33.3731 7.41031e-15
      vertex 5 0 0
      vertex 3.91259 -34.1684 7.5869e-15
    endloop
  endfacet
  facet normal 0 -2.22045e-16 -1
    outer loop
      vertex 3.23607 -32.6489 7.2495e-15
      vertex 5 0 0
      vertex 3.65418 -33.3731 7.41031e-15
    endloop
  endfacet
  facet normal 0 -2.22045e-16 -1
    outer loop
      vertex 2.67652 -32.0274 7.11152e-15
      vertex 5 0 0
      vertex 3.23607 -32.6489 7.2495e-15
    endloop
  endfacet
  facet normal 0 -2.22045e-16 -1
    outer loop
      vertex 2 -31.5359 7.00238e-15
      vertex 5 0 0
      vertex 2.67652 -32.0274 7.11152e-15
    endloop
  endfacet
  facet normal 0 -2.22045e-16 -1
    outer loop
      vertex 1.23607 -31.1958 6.92685e-15
      vertex 5 0 0
      vertex 2 -31.5359 7.00238e-15
    endloop
  endfacet
  facet normal 0 -2.22045e-16 -1
    outer loop
      vertex 0.418114 -31.0219 6.88825e-15
      vertex 5 0 0
      vertex 1.23607 -31.1958 6.92685e-15
    endloop
  endfacet
  facet normal 0 -2.22045e-16 -1
    outer loop
      vertex -0.418114 -31.0219 6.88825e-15
      vertex 5 0 0
      vertex 0.418114 -31.0219 6.88825e-15
    endloop
  endfacet
  facet normal 0 -2.22045e-16 -1
    outer loop
      vertex -5 0 0
      vertex -0.418114 -31.0219 6.88825e-15
      vertex -1.23607 -31.1958 6.92685e-15
    endloop
  endfacet
  facet normal 0 -2.22045e-16 -1
    outer loop
      vertex -5 0 0
      vertex -1.23607 -31.1958 6.92685e-15
      vertex -2 -31.5359 7.00238e-15
    endloop
  endfacet
  facet normal 0 -2.22045e-16 -1
    outer loop
      vertex -5 0 0
      vertex -2 -31.5359 7.00238e-15
      vertex -2.67652 -32.0274 7.11152e-15
    endloop
  endfacet
  facet normal 0 -2.22045e-16 -1
    outer loop
      vertex -5 0 0
      vertex -2.67652 -32.0274 7.11152e-15
      vertex -3.23607 -32.6489 7.2495e-15
    endloop
  endfacet
  facet normal 0 -2.22045e-16 -1
    outer loop
      vertex -5 0 0
      vertex -3.23607 -32.6489 7.2495e-15
      vertex -3.65418 -33.3731 7.41031e-15
    endloop
  endfacet
  facet normal 0 -2.22045e-16 -1
    outer loop
      vertex -5 0 0
      vertex -3.65418 -33.3731 7.41031e-15
      vertex -3.91259 -34.1684 7.5869e-15
    endloop
  endfacet
  facet normal 0 -2.22045e-16 -1
    outer loop
      vertex -0.418114 -31.0219 6.88825e-15
      vertex -5 0 0
      vertex 5 0 0
    endloop
  endfacet
  facet normal 0 -2.22045e-16 -1
    outer loop
      vertex -4 -35 7.77156e-15
      vertex -5 0 0
      vertex -3.91259 -34.1684 7.5869e-15
    endloop
  endfacet
  facet normal 0 -2.22045e-16 -1
    outer loop
      vertex -5 0 0
      vertex -4 -35 7.77156e-15
      vertex -5 -45 9.99201e-15
    endloop
  endfacet
  facet normal 0.10452 0 -0.994523
    outer loop
      vertex 5 -45 9.99201e-15
      vertex 5.62373 1.45554e-17 0.0655518
      vertex 5.62373 -45 0.0655518
    endloop
  endfacet
  facet normal 0.10452 -2.20785e-16 -0.994523
    outer loop
      vertex 5.62373 1.45554e-17 0.0655518
      vertex 5 -45 9.99201e-15
      vertex 5 0 0
    endloop
  endfacet
  facet normal 0.309029 0 -0.951052
    outer loop
      vertex 5.62373 -45 0.0655518
      vertex 6.22021 5.75915e-17 0.259369
      vertex 6.22021 -45 0.259369
    endloop
  endfacet
  facet normal 0.309029 0 -0.951052
    outer loop
      vertex 6.22021 5.75915e-17 0.259369
      vertex 5.62373 -45 0.0655518
      vertex 5.62373 1.45554e-17 0.0655518
    endloop
  endfacet
  facet normal -0.10452 0 0.994523
    outer loop
      vertex -5.62373 3.53816e-15 15.9344
      vertex -5 -45 16
      vertex -5 3.55271e-15 16
    endloop
  endfacet
  facet normal -0.10452 0 0.994523
    outer loop
      vertex -5 -45 16
      vertex -5.62373 3.53816e-15 15.9344
      vertex -5.62373 -45 15.9344
    endloop
  endfacet
  facet normal -0.587801 0 -0.809005
    outer loop
      vertex -7.00739 -45 0.770569
      vertex -6.5 8.92434e-17 0.401917
      vertex -6.5 -45 0.401917
    endloop
  endfacet
  facet normal -0.587801 0 -0.809005
    outer loop
      vertex -6.5 8.92434e-17 0.401917
      vertex -7.00739 -45 0.770569
      vertex -7.00739 1.71101e-16 0.770569
    endloop
  endfacet
  facet normal 0.15644 0 0.987687
    outer loop
      vertex 5 3.55271e-15 16
      vertex 5.92705 -45 15.8532
      vertex 5.92705 3.52011e-15 15.8532
    endloop
  endfacet
  facet normal 0.15644 0 0.987687
    outer loop
      vertex 5.92705 -45 15.8532
      vertex 5 3.55271e-15 16
      vertex 5 -45 16
    endloop
  endfacet
  facet normal -0.809005 0 0.587801
    outer loop
      vertex -7.59808 -45 14.5
      vertex -7.22943 3.33231e-15 15.0074
      vertex -7.59808 3.21965e-15 14.5
    endloop
  endfacet
  facet normal -0.809005 0 0.587801
    outer loop
      vertex -7.22943 3.33231e-15 15.0074
      vertex -7.59808 -45 14.5
      vertex -7.22943 -45 15.0074
    endloop
  endfacet
  facet normal -0.987687 0 0.15644
    outer loop
      vertex -8 -45 13
      vertex -7.85316 3.09243e-15 13.927
      vertex -8 2.88658e-15 13
    endloop
  endfacet
  facet normal -0.987687 0 0.15644
    outer loop
      vertex -7.85316 3.09243e-15 13.927
      vertex -8 -45 13
      vertex -7.85316 -45 13.927
    endloop
  endfacet
  facet normal 0 -1 0
    outer loop
      vertex 8 -45 13
      vertex 5 -45 16
      vertex 4 -45 16
    endloop
  endfacet
  facet normal 0 -1 0
    outer loop
      vertex 5 -45 16
      vertex 8 -45 13
      vertex 5.92705 -45 15.8532
    endloop
  endfacet
  facet normal 0 -1 0
    outer loop
      vertex 5.92705 -45 15.8532
      vertex 8 -45 13
      vertex 6.5 -45 15.5981
    endloop
  endfacet
  facet normal 0 -1 0
    outer loop
      vertex 6.5 -45 15.5981
      vertex 8 -45 13
      vertex 7.00739 -45 15.2294
    endloop
  endfacet
  facet normal 0 -1 0
    outer loop
      vertex 7.00739 -45 15.2294
      vertex 8 -45 13
      vertex 7.42705 -45 14.7634
    endloop
  endfacet
  facet normal 0 -1 0
    outer loop
      vertex 7.42705 -45 14.7634
      vertex 8 -45 13
      vertex 7.74063 -45 14.2202
    endloop
  endfacet
  facet normal 0 -1 0
    outer loop
      vertex 7.74063 -45 14.2202
      vertex 8 -45 13
      vertex 7.93445 -45 13.6237
    endloop
  endfacet
  facet normal 0 -1 0
    outer loop
      vertex 4 -45 16
      vertex 8 -45 3
      vertex 8 -45 13
    endloop
  endfacet
  facet normal 0 -1 0
    outer loop
      vertex 4 -45 9.99201e-15
      vertex 8 -45 3
      vertex 4 -45 16
    endloop
  endfacet
  facet normal 0 -1 0
    outer loop
      vertex 5 -45 9.99201e-15
      vertex 8 -45 3
      vertex 4 -45 9.99201e-15
    endloop
  endfacet
  facet normal 0 -1 0
    outer loop
      vertex 8 -45 3
      vertex 5 -45 9.99201e-15
      vertex 7.85316 -45 2.07295
    endloop
  endfacet
  facet normal 0 -1 0
    outer loop
      vertex 7.85316 -45 2.07295
      vertex 5 -45 9.99201e-15
      vertex 7.59808 -45 1.5
    endloop
  endfacet
  facet normal 0 -1 0
    outer loop
      vertex 7.59808 -45 1.5
      vertex 5 -45 9.99201e-15
      vertex 7.22943 -45 0.992615
    endloop
  endfacet
  facet normal 0 -1 0
    outer loop
      vertex 7.22943 -45 0.992615
      vertex 5 -45 9.99201e-15
      vertex 6.76335 -45 0.572952
    endloop
  endfacet
  facet normal 0 -1 0
    outer loop
      vertex 6.76335 -45 0.572952
      vertex 5 -45 9.99201e-15
      vertex 6.22021 -45 0.259369
    endloop
  endfacet
  facet normal 0 -1 0
    outer loop
      vertex 6.22021 -45 0.259369
      vertex 5 -45 9.99201e-15
      vertex 5.62373 -45 0.0655518
    endloop
  endfacet
  facet normal 0 -1 0
    outer loop
      vertex -8 -45 13
      vertex -5 -45 16
      vertex -5.62373 -45 15.9344
    endloop
  endfacet
  facet normal 0 -1 0
    outer loop
      vertex -8 -45 13
      vertex -5.62373 -45 15.9344
      vertex -6.22021 -45 15.7406
    endloop
  endfacet
  facet normal 0 -1 0
    outer loop
      vertex -8 -45 13
      vertex -6.22021 -45 15.7406
      vertex -6.76335 -45 15.427
    endloop
  endfacet
  facet normal 0 -1 0
    outer loop
      vertex -8 -45 13
      vertex -6.76335 -45 15.427
      vertex -7.22943 -45 15.0074
    endloop
  endfacet
  facet normal 0 -1 0
    outer loop
      vertex -8 -45 13
      vertex -7.22943 -45 15.0074
      vertex -7.59808 -45 14.5
    endloop
  endfacet
  facet normal 0 -1 0
    outer loop
      vertex -8 -45 13
      vertex -7.59808 -45 14.5
      vertex -7.85316 -45 13.927
    endloop
  endfacet
  facet normal 0 -1 -0
    outer loop
      vertex -5 -45 16
      vertex -8 -45 13
      vertex -4 -45 16
    endloop
  endfacet
  facet normal 0 -1 0
    outer loop
      vertex -8 -45 3
      vertex -4 -45 16
      vertex -8 -45 13
    endloop
  endfacet
  facet normal 0 -1 0
    outer loop
      vertex -5 -45 9.99201e-15
      vertex -8 -45 3
      vertex -7.93445 -45 2.37627
    endloop
  endfacet
  facet normal 0 -1 0
    outer loop
      vertex -5 -45 9.99201e-15
      vertex -7.93445 -45 2.37627
      vertex -7.74063 -45 1.77979
    endloop
  endfacet
  facet normal 0 -1 0
    outer loop
      vertex -5 -45 9.99201e-15
      vertex -7.74063 -45 1.77979
      vertex -7.42705 -45 1.23665
    endloop
  endfacet
  facet normal 0 -1 0
    outer loop
      vertex -5 -45 9.99201e-15
      vertex -7.42705 -45 1.23665
      vertex -7.00739 -45 0.770569
    endloop
  endfacet
  facet normal 0 -1 0
    outer loop
      vertex -5 -45 9.99201e-15
      vertex -7.00739 -45 0.770569
      vertex -6.5 -45 0.401917
    endloop
  endfacet
  facet normal 0 -1 0
    outer loop
      vertex -5 -45 9.99201e-15
      vertex -6.5 -45 0.401917
      vertex -5.92705 -45 0.146835
    endloop
  endfacet
  facet normal 0 -1 0
    outer loop
      vertex -8 -45 3
      vertex -5 -45 9.99201e-15
      vertex -4 -45 9.99201e-15
    endloop
  endfacet
  facet normal 0 -1 0
    outer loop
      vertex -8 -45 3
      vertex -4 -45 9.99201e-15
      vertex -4 -45 16
    endloop
  endfacet
  facet normal 0 0 1
    outer loop
      vertex 5 3.55271e-15 16
      vertex 4 -35 16
      vertex 5 -45 16
    endloop
  endfacet
  facet normal 0 0 1
    outer loop
      vertex 5 3.55271e-15 16
      vertex 3.91259 -34.1684 16
      vertex 4 -35 16
    endloop
  endfacet
  facet normal 0 0 1
    outer loop
      vertex 5 3.55271e-15 16
      vertex 3.65418 -33.3731 16
      vertex 3.91259 -34.1684 16
    endloop
  endfacet
  facet normal 0 0 1
    outer loop
      vertex 5 3.55271e-15 16
      vertex 3.23607 -32.6489 16
      vertex 3.65418 -33.3731 16
    endloop
  endfacet
  facet normal 0 0 1
    outer loop
      vertex 5 3.55271e-15 16
      vertex 2.67652 -32.0274 16
      vertex 3.23607 -32.6489 16
    endloop
  endfacet
  facet normal 0 0 1
    outer loop
      vertex 5 3.55271e-15 16
      vertex 2 -31.5359 16
      vertex 2.67652 -32.0274 16
    endloop
  endfacet
  facet normal 0 0 1
    outer loop
      vertex 5 3.55271e-15 16
      vertex 1.23607 -31.1958 16
      vertex 2 -31.5359 16
    endloop
  endfacet
  facet normal 0 0 1
    outer loop
      vertex 5 3.55271e-15 16
      vertex 0.418114 -31.0219 16
      vertex 1.23607 -31.1958 16
    endloop
  endfacet
  facet normal 0 0 1
    outer loop
      vertex 5 3.55271e-15 16
      vertex -0.418114 -31.0219 16
      vertex 0.418114 -31.0219 16
    endloop
  endfacet
  facet normal -0 0 1
    outer loop
      vertex -5 3.55271e-15 16
      vertex -0.418114 -31.0219 16
      vertex 5 3.55271e-15 16
    endloop
  endfacet
  facet normal 0 0 1
    outer loop
      vertex -0.418114 -31.0219 16
      vertex -5 3.55271e-15 16
      vertex -1.23607 -31.1958 16
    endloop
  endfacet
  facet normal 0 0 1
    outer loop
      vertex -1.23607 -31.1958 16
      vertex -5 3.55271e-15 16
      vertex -2 -31.5359 16
    endloop
  endfacet
  facet normal 0 0 1
    outer loop
      vertex -2 -31.5359 16
      vertex -5 3.55271e-15 16
      vertex -2.67652 -32.0274 16
    endloop
  endfacet
  facet normal 0 0 1
    outer loop
      vertex -2.67652 -32.0274 16
      vertex -5 3.55271e-15 16
      vertex -3.23607 -32.6489 16
    endloop
  endfacet
  facet normal 0 0 1
    outer loop
      vertex -3.23607 -32.6489 16
      vertex -5 3.55271e-15 16
      vertex -3.65418 -33.3731 16
    endloop
  endfacet
  facet normal 0 0 1
    outer loop
      vertex -3.65418 -33.3731 16
      vertex -5 3.55271e-15 16
      vertex -3.91259 -34.1684 16
    endloop
  endfacet
  facet normal 0 0 1
    outer loop
      vertex -5 3.55271e-15 16
      vertex -4 -35 16
      vertex -3.91259 -34.1684 16
    endloop
  endfacet
  facet normal 0 0 1
    outer loop
      vertex -5 -45 16
      vertex -4 -35 16
      vertex -5 3.55271e-15 16
    endloop
  endfacet
  facet normal 0 0 1
    outer loop
      vertex -4 -35 16
      vertex -5 -45 16
      vertex -4 -45 16
    endloop
  endfacet
  facet normal 0 0 1
    outer loop
      vertex 5 -45 16
      vertex 4 -35 16
      vertex 4 -45 16
    endloop
  endfacet
  facet normal -0.994523 0 -0.10452
    outer loop
      vertex -7.93445 -45 2.37627
      vertex -8 6.66134e-16 3
      vertex -7.93445 5.27637e-16 2.37627
    endloop
  endfacet
  facet normal -0.994523 -0 -0.10452
    outer loop
      vertex -8 6.66134e-16 3
      vertex -7.93445 -45 2.37627
      vertex -8 -45 3
    endloop
  endfacet
  facet normal -0.406719 0 -0.913554
    outer loop
      vertex -6.5 -45 0.401917
      vertex -5.92705 3.2604e-17 0.146835
      vertex -5.92705 -45 0.146835
    endloop
  endfacet
  facet normal -0.406719 0 -0.913554
    outer loop
      vertex -5.92705 3.2604e-17 0.146835
      vertex -6.5 -45 0.401917
      vertex -6.5 8.92434e-17 0.401917
    endloop
  endfacet
  facet normal -0.743143 0 -0.669133
    outer loop
      vertex -7.00739 -45 0.770569
      vertex -7.42705 2.74591e-16 1.23665
      vertex -7.00739 1.71101e-16 0.770569
    endloop
  endfacet
  facet normal -0.743143 -0 -0.669133
    outer loop
      vertex -7.42705 2.74591e-16 1.23665
      vertex -7.00739 -45 0.770569
      vertex -7.42705 -45 1.23665
    endloop
  endfacet
  facet normal 1 -0 0
    outer loop
      vertex 8 -45 13
      vertex 8 6.66134e-16 3
      vertex 8 2.88658e-15 13
    endloop
  endfacet
  facet normal 1 0 0
    outer loop
      vertex 8 6.66134e-16 3
      vertex 8 -45 13
      vertex 8 -45 3
    endloop
  endfacet
  facet normal 0.809005 0 -0.587801
    outer loop
      vertex 7.59808 -45 1.5
      vertex 7.22943 2.20405e-16 0.992615
      vertex 7.59808 3.33067e-16 1.5
    endloop
  endfacet
  facet normal 0.809005 0 -0.587801
    outer loop
      vertex 7.22943 2.20405e-16 0.992615
      vertex 7.59808 -45 1.5
      vertex 7.22943 -45 0.992615
    endloop
  endfacet
  facet normal -0.669133 0 0.743143
    outer loop
      vertex -7.22943 3.33231e-15 15.0074
      vertex -6.76335 -45 15.427
      vertex -6.76335 3.42549e-15 15.427
    endloop
  endfacet
  facet normal -0.669133 0 0.743143
    outer loop
      vertex -6.76335 -45 15.427
      vertex -7.22943 3.33231e-15 15.0074
      vertex -7.22943 -45 15.0074
    endloop
  endfacet
  facet normal -1 0 0
    outer loop
      vertex -8 -45 3
      vertex -8 2.88658e-15 13
      vertex -8 6.66134e-16 3
    endloop
  endfacet
  facet normal -1 -0 0
    outer loop
      vertex -8 2.88658e-15 13
      vertex -8 -45 3
      vertex -8 -45 13
    endloop
  endfacet
  facet normal -0.15644 -2.19483e-16 -0.987687
    outer loop
      vertex -5.92705 -45 0.146835
      vertex -5 0 0
      vertex -5 -45 9.99201e-15
    endloop
  endfacet
  facet normal -0.15644 0 -0.987687
    outer loop
      vertex -5 0 0
      vertex -5.92705 -45 0.146835
      vertex -5.92705 3.2604e-17 0.146835
    endloop
  endfacet
  facet normal 0.669133 0 -0.743143
    outer loop
      vertex 6.76335 -45 0.572952
      vertex 7.22943 2.20405e-16 0.992615
      vertex 7.22943 -45 0.992615
    endloop
  endfacet
  facet normal 0.669133 0 -0.743143
    outer loop
      vertex 7.22943 2.20405e-16 0.992615
      vertex 6.76335 -45 0.572952
      vertex 6.76335 1.27221e-16 0.572952
    endloop
  endfacet
  facet normal 0.406719 0 0.913554
    outer loop
      vertex 5.92705 3.52011e-15 15.8532
      vertex 6.5 -45 15.5981
      vertex 6.5 3.46347e-15 15.5981
    endloop
  endfacet
  facet normal 0.406719 0 0.913554
    outer loop
      vertex 6.5 -45 15.5981
      vertex 5.92705 3.52011e-15 15.8532
      vertex 5.92705 -45 15.8532
    endloop
  endfacet
  facet normal 0.587801 0 0.809005
    outer loop
      vertex 6.5 3.46347e-15 15.5981
      vertex 7.00739 -45 15.2294
      vertex 7.00739 3.38161e-15 15.2294
    endloop
  endfacet
  facet normal 0.587801 0 0.809005
    outer loop
      vertex 7.00739 -45 15.2294
      vertex 6.5 3.46347e-15 15.5981
      vertex 6.5 -45 15.5981
    endloop
  endfacet
  facet normal 0.743143 -0 0.669133
    outer loop
      vertex 7.00739 -45 15.2294
      vertex 7.42705 3.27812e-15 14.7634
      vertex 7.00739 3.38161e-15 15.2294
    endloop
  endfacet
  facet normal 0.743143 0 0.669133
    outer loop
      vertex 7.42705 3.27812e-15 14.7634
      vertex 7.00739 -45 15.2294
      vertex 7.42705 -45 14.7634
    endloop
  endfacet
  facet normal -0.913554 0 0.406719
    outer loop
      vertex -7.85316 -45 13.927
      vertex -7.59808 3.21965e-15 14.5
      vertex -7.85316 3.09243e-15 13.927
    endloop
  endfacet
  facet normal -0.913554 0 0.406719
    outer loop
      vertex -7.59808 3.21965e-15 14.5
      vertex -7.85316 -45 13.927
      vertex -7.59808 -45 14.5
    endloop
  endfacet
  facet normal -0.500004 0 0.866023
    outer loop
      vertex -6.76335 3.42549e-15 15.427
      vertex -6.22021 -45 15.7406
      vertex -6.22021 3.49512e-15 15.7406
    endloop
  endfacet
  facet normal -0.500004 0 0.866023
    outer loop
      vertex -6.22021 -45 15.7406
      vertex -6.76335 3.42549e-15 15.427
      vertex -6.76335 -45 15.427
    endloop
  endfacet
  facet normal 0 1 -2.22045e-16
    outer loop
      vertex -0.418115 2.65967e-15 11.9781
      vertex -5 3.55271e-15 16
      vertex 5 3.55271e-15 16
    endloop
  endfacet
  facet normal 0 1 -2.22045e-16
    outer loop
      vertex 2.67652 2.4364e-15 10.9726
      vertex 5 3.55271e-15 16
      vertex 5.92705 3.52011e-15 15.8532
    endloop
  endfacet
  facet normal 0 1 -2.22045e-16
    outer loop
      vertex -0.418115 2.65967e-15 11.9781
      vertex 5 3.55271e-15 16
      vertex 0.418114 2.65967e-15 11.9781
    endloop
  endfacet
  facet normal 0 1 -2.22045e-16
    outer loop
      vertex 2.67652 2.4364e-15 10.9726
      vertex 5.92705 3.52011e-15 15.8532
      vertex 6.5 3.46347e-15 15.5981
    endloop
  endfacet
  facet normal 0 1 -2.22045e-16
    outer loop
      vertex -1.23607 2.62106e-15 11.8042
      vertex -5 3.55271e-15 16
      vertex -0.418115 2.65967e-15 11.9781
    endloop
  endfacet
  facet normal 0 1 -2.22045e-16
    outer loop
      vertex 2.67652 2.4364e-15 10.9726
      vertex 6.5 3.46347e-15 15.5981
      vertex 7.00739 3.38161e-15 15.2294
    endloop
  endfacet
  facet normal 0 1 -2.22045e-16
    outer loop
      vertex -2 2.54554e-15 11.4641
      vertex -5 3.55271e-15 16
      vertex -1.23607 2.62106e-15 11.8042
    endloop
  endfacet
  facet normal 0 1 -2.22045e-16
    outer loop
      vertex 2.67652 2.4364e-15 10.9726
      vertex 7.00739 3.38161e-15 15.2294
      vertex 7.42705 3.27812e-15 14.7634
    endloop
  endfacet
  facet normal 0 1 -2.22045e-16
    outer loop
      vertex -2.67652 2.4364e-15 10.9726
      vertex -5 3.55271e-15 16
      vertex -2 2.54554e-15 11.4641
    endloop
  endfacet
  facet normal 0 1 -2.22045e-16
    outer loop
      vertex 2.67652 2.4364e-15 10.9726
      vertex 7.42705 3.27812e-15 14.7634
      vertex 7.74063 3.15752e-15 14.2202
    endloop
  endfacet
  facet normal 0 1 -2.22045e-16
    outer loop
      vertex -5 3.55271e-15 16
      vertex -2.67652 2.4364e-15 10.9726
      vertex -5.62373 3.53816e-15 15.9344
    endloop
  endfacet
  facet normal 0 1 -2.22045e-16
    outer loop
      vertex 2.67652 2.4364e-15 10.9726
      vertex 7.74063 3.15752e-15 14.2202
      vertex 7.93445 3.02508e-15 13.6237
    endloop
  endfacet
  facet normal 0 1 -2.22045e-16
    outer loop
      vertex 2.67652 2.4364e-15 10.9726
      vertex 7.93445 3.02508e-15 13.6237
      vertex 8 2.88658e-15 13
    endloop
  endfacet
  facet normal 0 1 -2.22045e-16
    outer loop
      vertex -5.62373 3.53816e-15 15.9344
      vertex -2.67652 2.4364e-15 10.9726
      vertex -6.22021 3.49512e-15 15.7406
    endloop
  endfacet
  facet normal 0 1 -2.22045e-16
    outer loop
      vertex -6.22021 3.49512e-15 15.7406
      vertex -2.67652 2.4364e-15 10.9726
      vertex -6.76335 3.42549e-15 15.427
    endloop
  endfacet
  facet normal 0 1 -2.22045e-16
    outer loop
      vertex 5 3.55271e-15 16
      vertex 1.23607 2.62106e-15 11.8042
      vertex 0.418114 2.65967e-15 11.9781
    endloop
  endfacet
  facet normal 0 1 -2.22045e-16
    outer loop
      vertex 5 3.55271e-15 16
      vertex 2 2.54554e-15 11.4641
      vertex 1.23607 2.62106e-15 11.8042
    endloop
  endfacet
  facet normal 0 1 -2.22045e-16
    outer loop
      vertex 5 3.55271e-15 16
      vertex 2.67652 2.4364e-15 10.9726
      vertex 2 2.54554e-15 11.4641
    endloop
  endfacet
  facet normal 0 1 -2.22045e-16
    outer loop
      vertex 8 2.88658e-15 13
      vertex 3.23607 2.29842e-15 10.3511
      vertex 2.67652 2.4364e-15 10.9726
    endloop
  endfacet
  facet normal 0 1 -2.22045e-16
    outer loop
      vertex 8 2.88658e-15 13
      vertex 3.65418 2.13761e-15 9.62695
      vertex 3.23607 2.29842e-15 10.3511
    endloop
  endfacet
  facet normal 0 1 -2.22045e-16
    outer loop
      vertex 8 2.88658e-15 13
      vertex 3.91259 1.96102e-15 8.83165
      vertex 3.65418 2.13761e-15 9.62695
    endloop
  endfacet
  facet normal 0 1 -2.22045e-16
    outer loop
      vertex 8 2.88658e-15 13
      vertex 4 1.77636e-15 8
      vertex 3.91259 1.96102e-15 8.83165
    endloop
  endfacet
  facet normal 0 1 -2.22045e-16
    outer loop
      vertex 8 6.66134e-16 3
      vertex 4 1.77636e-15 8
      vertex 8 2.88658e-15 13
    endloop
  endfacet
  facet normal 0 1 -2.22045e-16
    outer loop
      vertex 4 1.77636e-15 8
      vertex 8 6.66134e-16 3
      vertex 3.91259 1.59169e-15 7.16835
    endloop
  endfacet
  facet normal 0 1 -2.22045e-16
    outer loop
      vertex 3.91259 1.59169e-15 7.16835
      vertex 8 6.66134e-16 3
      vertex 3.65418 1.4151e-15 6.37305
    endloop
  endfacet
  facet normal 0 1 -2.22045e-16
    outer loop
      vertex 1.23607 9.31649e-16 4.19577
      vertex 5 0 0
      vertex 0.418114 8.93044e-16 4.02191
    endloop
  endfacet
  facet normal 0 1 -2.22045e-16
    outer loop
      vertex 2 1.00717e-15 4.5359
      vertex 5 0 0
      vertex 1.23607 9.31649e-16 4.19577
    endloop
  endfacet
  facet normal 0 1 -2.22045e-16
    outer loop
      vertex 2.67652 1.11631e-15 5.02742
      vertex 5 0 0
      vertex 2 1.00717e-15 4.5359
    endloop
  endfacet
  facet normal 0 1 -2.22045e-16
    outer loop
      vertex 5 0 0
      vertex 2.67652 1.11631e-15 5.02742
      vertex 8 6.66134e-16 3
    endloop
  endfacet
  facet normal 0 1 -2.22045e-16
    outer loop
      vertex 3.23607 1.2543e-15 5.64886
      vertex 8 6.66134e-16 3
      vertex 2.67652 1.11631e-15 5.02742
    endloop
  endfacet
  facet normal 0 1 -2.22045e-16
    outer loop
      vertex 3.65418 1.4151e-15 6.37305
      vertex 8 6.66134e-16 3
      vertex 3.23607 1.2543e-15 5.64886
    endloop
  endfacet
  facet normal 0 1 -2.22045e-16
    outer loop
      vertex -6.76335 3.42549e-15 15.427
      vertex -2.67652 2.4364e-15 10.9726
      vertex -7.22943 3.33231e-15 15.0074
    endloop
  endfacet
  facet normal 0 1 -2.22045e-16
    outer loop
      vertex -7.22943 3.33231e-15 15.0074
      vertex -2.67652 2.4364e-15 10.9726
      vertex -7.59808 3.21965e-15 14.5
    endloop
  endfacet
  facet normal 0 1 -2.22045e-16
    outer loop
      vertex -7.59808 3.21965e-15 14.5
      vertex -2.67652 2.4364e-15 10.9726
      vertex -7.85316 3.09243e-15 13.927
    endloop
  endfacet
  facet normal 0 1 -2.22045e-16
    outer loop
      vertex -7.85316 3.09243e-15 13.927
      vertex -2.67652 2.4364e-15 10.9726
      vertex -8 2.88658e-15 13
    endloop
  endfacet
  facet normal 0 1 -2.22045e-16
    outer loop
      vertex -3.23607 2.29842e-15 10.3511
      vertex -8 2.88658e-15 13
      vertex -2.67652 2.4364e-15 10.9726
    endloop
  endfacet
  facet normal 0 1 -2.22045e-16
    outer loop
      vertex -3.65418 2.13761e-15 9.62695
      vertex -8 2.88658e-15 13
      vertex -3.23607 2.29842e-15 10.3511
    endloop
  endfacet
  facet normal 0 1 -2.22045e-16
    outer loop
      vertex -3.91259 1.96102e-15 8.83165
      vertex -8 2.88658e-15 13
      vertex -3.65418 2.13761e-15 9.62695
    endloop
  endfacet
  facet normal 0 1 -2.22045e-16
    outer loop
      vertex -4 1.77636e-15 8
      vertex -8 2.88658e-15 13
      vertex -3.91259 1.96102e-15 8.83165
    endloop
  endfacet
  facet normal 0 1 -2.22045e-16
    outer loop
      vertex -8 6.66134e-16 3
      vertex -4 1.77636e-15 8
      vertex -3.91259 1.59169e-15 7.16835
    endloop
  endfacet
  facet normal 0 1 -2.22045e-16
    outer loop
      vertex -8 6.66134e-16 3
      vertex -3.91259 1.59169e-15 7.16835
      vertex -3.65418 1.4151e-15 6.37305
    endloop
  endfacet
  facet normal 0 1 -2.22045e-16
    outer loop
      vertex -8 6.66134e-16 3
      vertex -3.65418 1.4151e-15 6.37305
      vertex -3.23607 1.2543e-15 5.64886
    endloop
  endfacet
  facet normal 0 1 -2.22045e-16
    outer loop
      vertex -4 1.77636e-15 8
      vertex -8 6.66134e-16 3
      vertex -8 2.88658e-15 13
    endloop
  endfacet
  facet normal 0 1 -2.22045e-16
    outer loop
      vertex -2.67652 1.11631e-15 5.02742
      vertex -8 6.66134e-16 3
      vertex -3.23607 1.2543e-15 5.64886
    endloop
  endfacet
  facet normal 0 1 -2.22045e-16
    outer loop
      vertex -5 0 0
      vertex -2.67652 1.11631e-15 5.02742
      vertex -2 1.00717e-15 4.5359
    endloop
  endfacet
  facet normal 0 1 -2.22045e-16
    outer loop
      vertex -5 0 0
      vertex -2 1.00717e-15 4.5359
      vertex -1.23607 9.31649e-16 4.19577
    endloop
  endfacet
  facet normal 0 1 -2.22045e-16
    outer loop
      vertex -5 0 0
      vertex -1.23607 9.31649e-16 4.19577
      vertex -0.418115 8.93044e-16 4.02191
    endloop
  endfacet
  facet normal 0 1 -2.22045e-16
    outer loop
      vertex 0.418114 8.93044e-16 4.02191
      vertex 5 0 0
      vertex -0.418115 8.93044e-16 4.02191
    endloop
  endfacet
  facet normal 0 1 -2.22045e-16
    outer loop
      vertex -2.67652 1.11631e-15 5.02742
      vertex -5 0 0
      vertex -8 6.66134e-16 3
    endloop
  endfacet
  facet normal 0 1 -2.22045e-16
    outer loop
      vertex 5 0 0
      vertex 8 6.66134e-16 3
      vertex 7.85316 4.60288e-16 2.07295
    endloop
  endfacet
  facet normal 0 1 -2.22045e-16
    outer loop
      vertex -0.418115 8.93044e-16 4.02191
      vertex 5 0 0
      vertex -5 0 0
    endloop
  endfacet
  facet normal 0 1 -2.22045e-16
    outer loop
      vertex 5 0 0
      vertex 7.85316 4.60288e-16 2.07295
      vertex 7.59808 3.33067e-16 1.5
    endloop
  endfacet
  facet normal 0 1 -2.22045e-16
    outer loop
      vertex -8 6.66134e-16 3
      vertex -5 0 0
      vertex -7.93445 5.27637e-16 2.37627
    endloop
  endfacet
  facet normal 0 1 -2.22045e-16
    outer loop
      vertex 5 0 0
      vertex 7.59808 3.33067e-16 1.5
      vertex 7.22943 2.20405e-16 0.992615
    endloop
  endfacet
  facet normal 0 1 -2.22045e-16
    outer loop
      vertex -7.93445 5.27637e-16 2.37627
      vertex -5 0 0
      vertex -7.74063 3.95192e-16 1.77979
    endloop
  endfacet
  facet normal 0 1 -2.22045e-16
    outer loop
      vertex 5 0 0
      vertex 7.22943 2.20405e-16 0.992615
      vertex 6.76335 1.27221e-16 0.572952
    endloop
  endfacet
  facet normal 0 1 -2.22045e-16
    outer loop
      vertex -7.74063 3.95192e-16 1.77979
      vertex -5 0 0
      vertex -7.42705 2.74591e-16 1.23665
    endloop
  endfacet
  facet normal 0 1 -2.22045e-16
    outer loop
      vertex 5 0 0
      vertex 6.76335 1.27221e-16 0.572952
      vertex 6.22021 5.75915e-17 0.259369
    endloop
  endfacet
  facet normal 0 1 -2.22045e-16
    outer loop
      vertex -7.42705 2.74591e-16 1.23665
      vertex -5 0 0
      vertex -7.00739 1.71101e-16 0.770569
    endloop
  endfacet
  facet normal 0 1 -2.22045e-16
    outer loop
      vertex 5 0 0
      vertex 6.22021 5.75915e-17 0.259369
      vertex 5.62373 1.45554e-17 0.0655518
    endloop
  endfacet
  facet normal 0 1 -2.22045e-16
    outer loop
      vertex -7.00739 1.71101e-16 0.770569
      vertex -5 0 0
      vertex -6.5 8.92434e-17 0.401917
    endloop
  endfacet
  facet normal 0 1 -2.22045e-16
    outer loop
      vertex -6.5 8.92434e-17 0.401917
      vertex -5 0 0
      vertex -5.92705 3.2604e-17 0.146835
    endloop
  endfacet
  facet normal 0.994523 -0 0.10452
    outer loop
      vertex 7.93445 -45 13.6237
      vertex 8 2.88658e-15 13
      vertex 7.93445 3.02508e-15 13.6237
    endloop
  endfacet
  facet normal 0.994523 0 0.10452
    outer loop
      vertex 8 2.88658e-15 13
      vertex 7.93445 -45 13.6237
      vertex 8 -45 13
    endloop
  endfacet
  facet normal 0.951052 -0 0.309029
    outer loop
      vertex 7.74063 -45 14.2202
      vertex 7.93445 3.02508e-15 13.6237
      vertex 7.74063 3.15752e-15 14.2202
    endloop
  endfacet
  facet normal 0.951052 0 0.309029
    outer loop
      vertex 7.93445 3.02508e-15 13.6237
      vertex 7.74063 -45 14.2202
      vertex 7.93445 -45 13.6237
    endloop
  endfacet
  facet normal 0.987687 0 -0.15644
    outer loop
      vertex 8 -45 3
      vertex 7.85316 4.60288e-16 2.07295
      vertex 8 6.66134e-16 3
    endloop
  endfacet
  facet normal 0.987687 0 -0.15644
    outer loop
      vertex 7.85316 4.60288e-16 2.07295
      vertex 8 -45 3
      vertex 7.85316 -45 2.07295
    endloop
  endfacet
  facet normal 0.500004 0 -0.866023
    outer loop
      vertex 6.22021 -45 0.259369
      vertex 6.76335 1.27221e-16 0.572952
      vertex 6.76335 -45 0.572952
    endloop
  endfacet
  facet normal 0.500004 0 -0.866023
    outer loop
      vertex 6.76335 1.27221e-16 0.572952
      vertex 6.22021 -45 0.259369
      vertex 6.22021 5.75915e-17 0.259369
    endloop
  endfacet
  facet normal -0.309029 0 0.951052
    outer loop
      vertex -6.22021 3.49512e-15 15.7406
      vertex -5.62373 -45 15.9344
      vertex -5.62373 3.53816e-15 15.9344
    endloop
  endfacet
  facet normal -0.309029 0 0.951052
    outer loop
      vertex -5.62373 -45 15.9344
      vertex -6.22021 3.49512e-15 15.7406
      vertex -6.22021 -45 15.7406
    endloop
  endfacet
  facet normal -0.866023 0 -0.500004
    outer loop
      vertex -7.42705 -45 1.23665
      vertex -7.74063 3.95192e-16 1.77979
      vertex -7.42705 2.74591e-16 1.23665
    endloop
  endfacet
  facet normal -0.866023 -0 -0.500004
    outer loop
      vertex -7.74063 3.95192e-16 1.77979
      vertex -7.42705 -45 1.23665
      vertex -7.74063 -45 1.77979
    endloop
  endfacet
  facet normal -0.951052 0 -0.309029
    outer loop
      vertex -7.74063 -45 1.77979
      vertex -7.93445 5.27637e-16 2.37627
      vertex -7.74063 3.95192e-16 1.77979
    endloop
  endfacet
  facet normal -0.951052 -0 -0.309029
    outer loop
      vertex -7.93445 5.27637e-16 2.37627
      vertex -7.74063 -45 1.77979
      vertex -7.93445 -45 2.37627
    endloop
  endfacet
  facet normal 0.866023 -0 0.500004
    outer loop
      vertex 7.42705 -45 14.7634
      vertex 7.74063 3.15752e-15 14.2202
      vertex 7.42705 3.27812e-15 14.7634
    endloop
  endfacet
  facet normal 0.866023 0 0.500004
    outer loop
      vertex 7.74063 3.15752e-15 14.2202
      vertex 7.42705 -45 14.7634
      vertex 7.74063 -45 14.2202
    endloop
  endfacet
  facet normal 0.913554 0 -0.406719
    outer loop
      vertex 7.85316 -45 2.07295
      vertex 7.59808 3.33067e-16 1.5
      vertex 7.85316 4.60288e-16 2.07295
    endloop
  endfacet
  facet normal 0.913554 0 -0.406719
    outer loop
      vertex 7.59808 3.33067e-16 1.5
      vertex 7.85316 -45 2.07295
      vertex 7.59808 -45 1.5
    endloop
  endfacet
  facet normal -0.587785 0 -0.809017
    outer loop
      vertex 2 -27 11.4641
      vertex 2.67652 2.4364e-15 10.9726
      vertex 2.67652 -27 10.9726
    endloop
  endfacet
  facet normal -0.587785 0 -0.809017
    outer loop
      vertex 2.67652 2.4364e-15 10.9726
      vertex 2 -27 11.4641
      vertex 2 2.54554e-15 11.4641
    endloop
  endfacet
  facet normal 0.994522 0 -0.104528
    outer loop
      vertex -3.91259 -27 8.83165
      vertex -4 1.77636e-15 8
      vertex -3.91259 1.96102e-15 8.83165
    endloop
  endfacet
  facet normal 0.994522 0 -0.104528
    outer loop
      vertex -4 1.77636e-15 8
      vertex -3.91259 -27 8.83165
      vertex -4 -27 8
    endloop
  endfacet
  facet normal -0.994522 0 0.104529
    outer loop
      vertex 3.91259 -27 7.16835
      vertex 4 1.77636e-15 8
      vertex 3.91259 1.59169e-15 7.16835
    endloop
  endfacet
  facet normal -0.994522 0 0.104529
    outer loop
      vertex 4 1.77636e-15 8
      vertex 3.91259 -27 7.16835
      vertex 4 -27 8
    endloop
  endfacet
  facet normal 0.207912 0 0.978148
    outer loop
      vertex -1.23607 9.31649e-16 4.19577
      vertex -0.418115 -27 4.02191
      vertex -0.418115 8.93044e-16 4.02191
    endloop
  endfacet
  facet normal 0.207912 0 0.978148
    outer loop
      vertex -0.418115 -27 4.02191
      vertex -1.23607 9.31649e-16 4.19577
      vertex -1.23607 -27 4.19577
    endloop
  endfacet
  facet normal -0.743145 0 -0.669131
    outer loop
      vertex 3.23607 -27 10.3511
      vertex 2.67652 2.4364e-15 10.9726
      vertex 3.23607 2.29842e-15 10.3511
    endloop
  endfacet
  facet normal -0.743145 -0 -0.669131
    outer loop
      vertex 2.67652 2.4364e-15 10.9726
      vertex 3.23607 -27 10.3511
      vertex 2.67652 -27 10.9726
    endloop
  endfacet
  facet normal 0.406738 0 -0.913545
    outer loop
      vertex -2 -27 11.4641
      vertex -1.23607 2.62106e-15 11.8042
      vertex -1.23607 -27 11.8042
    endloop
  endfacet
  facet normal 0.406738 0 -0.913545
    outer loop
      vertex -1.23607 2.62106e-15 11.8042
      vertex -2 -27 11.4641
      vertex -2 2.54554e-15 11.4641
    endloop
  endfacet
  facet normal 0.951057 0 -0.309017
    outer loop
      vertex -3.65418 -27 9.62695
      vertex -3.91259 1.96102e-15 8.83165
      vertex -3.65418 2.13761e-15 9.62695
    endloop
  endfacet
  facet normal 0.951057 0 -0.309017
    outer loop
      vertex -3.91259 1.96102e-15 8.83165
      vertex -3.65418 -27 9.62695
      vertex -3.91259 -27 8.83165
    endloop
  endfacet
  facet normal -0.743145 0 0.669131
    outer loop
      vertex 2.67652 -27 5.02742
      vertex 3.23607 1.2543e-15 5.64886
      vertex 2.67652 1.11631e-15 5.02742
    endloop
  endfacet
  facet normal -0.743145 0 0.669131
    outer loop
      vertex 3.23607 1.2543e-15 5.64886
      vertex 2.67652 -27 5.02742
      vertex 3.23607 -27 5.64886
    endloop
  endfacet
  facet normal -0.866026 0 -0.5
    outer loop
      vertex 3.65418 -27 9.62695
      vertex 3.23607 2.29842e-15 10.3511
      vertex 3.65418 2.13761e-15 9.62695
    endloop
  endfacet
  facet normal -0.866026 -0 -0.5
    outer loop
      vertex 3.23607 2.29842e-15 10.3511
      vertex 3.65418 -27 9.62695
      vertex 3.23607 -27 10.3511
    endloop
  endfacet
  facet normal -0.406737 0 -0.913545
    outer loop
      vertex 1.23607 -27 11.8042
      vertex 2 2.54554e-15 11.4641
      vertex 2 -27 11.4641
    endloop
  endfacet
  facet normal -0.406737 0 -0.913545
    outer loop
      vertex 2 2.54554e-15 11.4641
      vertex 1.23607 -27 11.8042
      vertex 1.23607 2.62106e-15 11.8042
    endloop
  endfacet
  facet normal 0 0 -1
    outer loop
      vertex -0.418115 -27 11.9781
      vertex 0.418114 2.65967e-15 11.9781
      vertex 0.418114 -27 11.9781
    endloop
  endfacet
  facet normal -0 0 -1
    outer loop
      vertex 0.418114 2.65967e-15 11.9781
      vertex -0.418115 -27 11.9781
      vertex -0.418115 2.65967e-15 11.9781
    endloop
  endfacet
  facet normal 0.994522 -0 0.104528
    outer loop
      vertex -4 -27 8
      vertex -3.91259 1.59169e-15 7.16835
      vertex -4 1.77636e-15 8
    endloop
  endfacet
  facet normal 0.994522 0 0.104528
    outer loop
      vertex -3.91259 1.59169e-15 7.16835
      vertex -4 -27 8
      vertex -3.91259 -27 7.16835
    endloop
  endfacet
  facet normal 0.866026 0 -0.5
    outer loop
      vertex -3.23607 -27 10.3511
      vertex -3.65418 2.13761e-15 9.62695
      vertex -3.23607 2.29842e-15 10.3511
    endloop
  endfacet
  facet normal 0.866026 0 -0.5
    outer loop
      vertex -3.65418 2.13761e-15 9.62695
      vertex -3.23607 -27 10.3511
      vertex -3.65418 -27 9.62695
    endloop
  endfacet
  facet normal 0.587784 0 -0.809018
    outer loop
      vertex -2.67652 -27 10.9726
      vertex -2 2.54554e-15 11.4641
      vertex -2 -27 11.4641
    endloop
  endfacet
  facet normal 0.587784 0 -0.809018
    outer loop
      vertex -2 2.54554e-15 11.4641
      vertex -2.67652 -27 10.9726
      vertex -2.67652 2.4364e-15 10.9726
    endloop
  endfacet
  facet normal 0.207912 0 -0.978148
    outer loop
      vertex -1.23607 -27 11.8042
      vertex -0.418115 2.65967e-15 11.9781
      vertex -0.418115 -27 11.9781
    endloop
  endfacet
  facet normal 0.207912 0 -0.978148
    outer loop
      vertex -0.418115 2.65967e-15 11.9781
      vertex -1.23607 -27 11.8042
      vertex -1.23607 2.62106e-15 11.8042
    endloop
  endfacet
  facet normal 0.743145 0 -0.669131
    outer loop
      vertex -2.67652 -27 10.9726
      vertex -3.23607 2.29842e-15 10.3511
      vertex -2.67652 2.4364e-15 10.9726
    endloop
  endfacet
  facet normal 0.743145 0 -0.669131
    outer loop
      vertex -3.23607 2.29842e-15 10.3511
      vertex -2.67652 -27 10.9726
      vertex -3.23607 -27 10.3511
    endloop
  endfacet
  facet normal -0.994522 0 -0.104529
    outer loop
      vertex 4 -27 8
      vertex 3.91259 1.96102e-15 8.83165
      vertex 4 1.77636e-15 8
    endloop
  endfacet
  facet normal -0.994522 -0 -0.104529
    outer loop
      vertex 3.91259 1.96102e-15 8.83165
      vertex 4 -27 8
      vertex 3.91259 -27 8.83165
    endloop
  endfacet
  facet normal -0.207912 0 0.978148
    outer loop
      vertex 0.418114 8.93044e-16 4.02191
      vertex 1.23607 -27 4.19577
      vertex 1.23607 9.31649e-16 4.19577
    endloop
  endfacet
  facet normal -0.207912 0 0.978148
    outer loop
      vertex 1.23607 -27 4.19577
      vertex 0.418114 8.93044e-16 4.02191
      vertex 0.418114 -27 4.02191
    endloop
  endfacet
  facet normal -0.866026 0 0.5
    outer loop
      vertex 3.23607 -27 5.64886
      vertex 3.65418 1.4151e-15 6.37305
      vertex 3.23607 1.2543e-15 5.64886
    endloop
  endfacet
  facet normal -0.866026 0 0.5
    outer loop
      vertex 3.65418 1.4151e-15 6.37305
      vertex 3.23607 -27 5.64886
      vertex 3.65418 -27 6.37305
    endloop
  endfacet
  facet normal -0.951057 0 0.309017
    outer loop
      vertex 3.65418 -27 6.37305
      vertex 3.91259 1.59169e-15 7.16835
      vertex 3.65418 1.4151e-15 6.37305
    endloop
  endfacet
  facet normal -0.951057 0 0.309017
    outer loop
      vertex 3.91259 1.59169e-15 7.16835
      vertex 3.65418 -27 6.37305
      vertex 3.91259 -27 7.16835
    endloop
  endfacet
  facet normal -0.406737 0 0.913545
    outer loop
      vertex 1.23607 9.31649e-16 4.19577
      vertex 2 -27 4.5359
      vertex 2 1.00717e-15 4.5359
    endloop
  endfacet
  facet normal -0.406737 0 0.913545
    outer loop
      vertex 2 -27 4.5359
      vertex 1.23607 9.31649e-16 4.19577
      vertex 1.23607 -27 4.19577
    endloop
  endfacet
  facet normal -0.587785 0 0.809017
    outer loop
      vertex 2 1.00717e-15 4.5359
      vertex 2.67652 -27 5.02742
      vertex 2.67652 1.11631e-15 5.02742
    endloop
  endfacet
  facet normal -0.587785 0 0.809017
    outer loop
      vertex 2.67652 -27 5.02742
      vertex 2 1.00717e-15 4.5359
      vertex 2 -27 4.5359
    endloop
  endfacet
  facet normal -0 0 1
    outer loop
      vertex -0.418115 8.93044e-16 4.02191
      vertex 0.418114 -27 4.02191
      vertex 0.418114 8.93044e-16 4.02191
    endloop
  endfacet
  facet normal 0 0 1
    outer loop
      vertex 0.418114 -27 4.02191
      vertex -0.418115 8.93044e-16 4.02191
      vertex -0.418115 -27 4.02191
    endloop
  endfacet
  facet normal 0.587785 0 0.809017
    outer loop
      vertex -2.67652 1.11631e-15 5.02742
      vertex -2 -27 4.5359
      vertex -2 1.00717e-15 4.5359
    endloop
  endfacet
  facet normal 0.587785 0 0.809017
    outer loop
      vertex -2 -27 4.5359
      vertex -2.67652 1.11631e-15 5.02742
      vertex -2.67652 -27 5.02742
    endloop
  endfacet
  facet normal 0.951057 -0 0.309017
    outer loop
      vertex -3.91259 -27 7.16835
      vertex -3.65418 1.4151e-15 6.37305
      vertex -3.91259 1.59169e-15 7.16835
    endloop
  endfacet
  facet normal 0.951057 0 0.309017
    outer loop
      vertex -3.65418 1.4151e-15 6.37305
      vertex -3.91259 -27 7.16835
      vertex -3.65418 -27 6.37305
    endloop
  endfacet
  facet normal 0.743145 -0 0.669131
    outer loop
      vertex -3.23607 -27 5.64886
      vertex -2.67652 1.11631e-15 5.02742
      vertex -3.23607 1.2543e-15 5.64886
    endloop
  endfacet
  facet normal 0.743145 0 0.669131
    outer loop
      vertex -2.67652 1.11631e-15 5.02742
      vertex -3.23607 -27 5.64886
      vertex -2.67652 -27 5.02742
    endloop
  endfacet
  facet normal 0.866026 -0 0.5
    outer loop
      vertex -3.65418 -27 6.37305
      vertex -3.23607 1.2543e-15 5.64886
      vertex -3.65418 1.4151e-15 6.37305
    endloop
  endfacet
  facet normal 0.866026 0 0.5
    outer loop
      vertex -3.23607 1.2543e-15 5.64886
      vertex -3.65418 -27 6.37305
      vertex -3.23607 -27 5.64886
    endloop
  endfacet
  facet normal -0.951057 0 -0.309017
    outer loop
      vertex 3.91259 -27 8.83165
      vertex 3.65418 2.13761e-15 9.62695
      vertex 3.91259 1.96102e-15 8.83165
    endloop
  endfacet
  facet normal -0.951057 -0 -0.309017
    outer loop
      vertex 3.65418 2.13761e-15 9.62695
      vertex 3.91259 -27 8.83165
      vertex 3.65418 -27 9.62695
    endloop
  endfacet
  facet normal -0.207912 0 -0.978148
    outer loop
      vertex 0.418114 -27 11.9781
      vertex 1.23607 2.62106e-15 11.8042
      vertex 1.23607 -27 11.8042
    endloop
  endfacet
  facet normal -0.207912 0 -0.978148
    outer loop
      vertex 1.23607 2.62106e-15 11.8042
      vertex 0.418114 -27 11.9781
      vertex 0.418114 2.65967e-15 11.9781
    endloop
  endfacet
  facet normal 0 1 0
    outer loop
      vertex 1.23607 -27 11.8042
      vertex -0.418115 -27 11.9781
      vertex 0.418114 -27 11.9781
    endloop
  endfacet
  facet normal 0 1 0
    outer loop
      vertex 1.23607 -27 11.8042
      vertex -1.23607 -27 11.8042
      vertex -0.418115 -27 11.9781
    endloop
  endfacet
  facet normal 0 1 0
    outer loop
      vertex 2 -27 11.4641
      vertex -1.23607 -27 11.8042
      vertex 1.23607 -27 11.8042
    endloop
  endfacet
  facet normal 0 1 0
    outer loop
      vertex 2 -27 11.4641
      vertex -2 -27 11.4641
      vertex -1.23607 -27 11.8042
    endloop
  endfacet
  facet normal 0 1 0
    outer loop
      vertex 2.67652 -27 10.9726
      vertex -2 -27 11.4641
      vertex 2 -27 11.4641
    endloop
  endfacet
  facet normal 0 1 0
    outer loop
      vertex 2.67652 -27 10.9726
      vertex -2.67652 -27 10.9726
      vertex -2 -27 11.4641
    endloop
  endfacet
  facet normal 0 1 0
    outer loop
      vertex 3.23607 -27 10.3511
      vertex -2.67652 -27 10.9726
      vertex 2.67652 -27 10.9726
    endloop
  endfacet
  facet normal 0 1 0
    outer loop
      vertex 3.23607 -27 10.3511
      vertex -3.23607 -27 10.3511
      vertex -2.67652 -27 10.9726
    endloop
  endfacet
  facet normal 0 1 0
    outer loop
      vertex 3.65418 -27 9.62695
      vertex -3.23607 -27 10.3511
      vertex 3.23607 -27 10.3511
    endloop
  endfacet
  facet normal 0 1 0
    outer loop
      vertex 3.65418 -27 9.62695
      vertex -3.65418 -27 9.62695
      vertex -3.23607 -27 10.3511
    endloop
  endfacet
  facet normal 0 1 0
    outer loop
      vertex 3.91259 -27 8.83165
      vertex -3.65418 -27 9.62695
      vertex 3.65418 -27 9.62695
    endloop
  endfacet
  facet normal 0 1 0
    outer loop
      vertex 3.91259 -27 8.83165
      vertex -3.91259 -27 8.83165
      vertex -3.65418 -27 9.62695
    endloop
  endfacet
  facet normal 0 1 0
    outer loop
      vertex 4 -27 8
      vertex -3.91259 -27 8.83165
      vertex 3.91259 -27 8.83165
    endloop
  endfacet
  facet normal 0 1 0
    outer loop
      vertex 4 -27 8
      vertex -4 -27 8
      vertex -3.91259 -27 8.83165
    endloop
  endfacet
  facet normal 0 1 -0
    outer loop
      vertex 3.91259 -27 7.16835
      vertex -4 -27 8
      vertex 4 -27 8
    endloop
  endfacet
  facet normal 0 1 0
    outer loop
      vertex 3.91259 -27 7.16835
      vertex -3.91259 -27 7.16835
      vertex -4 -27 8
    endloop
  endfacet
  facet normal 0 1 -0
    outer loop
      vertex 3.65418 -27 6.37305
      vertex -3.91259 -27 7.16835
      vertex 3.91259 -27 7.16835
    endloop
  endfacet
  facet normal 0 1 0
    outer loop
      vertex 3.65418 -27 6.37305
      vertex -3.65418 -27 6.37305
      vertex -3.91259 -27 7.16835
    endloop
  endfacet
  facet normal 0 1 -0
    outer loop
      vertex 3.23607 -27 5.64886
      vertex -3.65418 -27 6.37305
      vertex 3.65418 -27 6.37305
    endloop
  endfacet
  facet normal 0 1 0
    outer loop
      vertex 3.23607 -27 5.64886
      vertex -3.23607 -27 5.64886
      vertex -3.65418 -27 6.37305
    endloop
  endfacet
  facet normal 0 1 -0
    outer loop
      vertex 2.67652 -27 5.02742
      vertex -3.23607 -27 5.64886
      vertex 3.23607 -27 5.64886
    endloop
  endfacet
  facet normal 0 1 0
    outer loop
      vertex 2.67652 -27 5.02742
      vertex -2.67652 -27 5.02742
      vertex -3.23607 -27 5.64886
    endloop
  endfacet
  facet normal 0 1 -0
    outer loop
      vertex 2 -27 4.5359
      vertex -2.67652 -27 5.02742
      vertex 2.67652 -27 5.02742
    endloop
  endfacet
  facet normal 0 1 0
    outer loop
      vertex 2 -27 4.5359
      vertex -2 -27 4.5359
      vertex -2.67652 -27 5.02742
    endloop
  endfacet
  facet normal 0 1 -0
    outer loop
      vertex 1.23607 -27 4.19577
      vertex -2 -27 4.5359
      vertex 2 -27 4.5359
    endloop
  endfacet
  facet normal 0 1 0
    outer loop
      vertex 1.23607 -27 4.19577
      vertex -1.23607 -27 4.19577
      vertex -2 -27 4.5359
    endloop
  endfacet
  facet normal 0 1 -0
    outer loop
      vertex 0.418114 -27 4.02191
      vertex -1.23607 -27 4.19577
      vertex 1.23607 -27 4.19577
    endloop
  endfacet
  facet normal 0 1 0
    outer loop
      vertex -1.23607 -27 4.19577
      vertex 0.418114 -27 4.02191
      vertex -0.418115 -27 4.02191
    endloop
  endfacet
  facet normal 0.406737 0 0.913545
    outer loop
      vertex -2 1.00717e-15 4.5359
      vertex -1.23607 -27 4.19577
      vertex -1.23607 9.31649e-16 4.19577
    endloop
  endfacet
  facet normal 0.406737 0 0.913545
    outer loop
      vertex -1.23607 -27 4.19577
      vertex -2 1.00717e-15 4.5359
      vertex -2 -27 4.5359
    endloop
  endfacet
endsolid OpenSCAD_Model
