solid OpenSCAD_Model
  facet normal 0.994522 -0.104529 0
    outer loop
      vertex 3.91259 -0.831646 3
      vertex 4 0 0
      vertex 4 0 3
    endloop
  endfacet
  facet normal 0.994522 -0.104529 0
    outer loop
      vertex 4 0 0
      vertex 3.91259 -0.831646 3
      vertex 3.91259 -0.831646 0
    endloop
  endfacet
  facet normal 0.951057 -0.309017 0
    outer loop
      vertex 3.65418 -1.62695 3
      vertex 3.91259 -0.831646 0
      vertex 3.91259 -0.831646 3
    endloop
  endfacet
  facet normal 0.951057 -0.309017 0
    outer loop
      vertex 3.91259 -0.831646 0
      vertex 3.65418 -1.62695 3
      vertex 3.65418 -1.62695 0
    endloop
  endfacet
  facet normal -0.866026 -0.5 0
    outer loop
      vertex -3.23607 -2.35114 0
      vertex -3.65418 -1.62695 3
      vertex -3.65418 -1.62695 0
    endloop
  endfacet
  facet normal -0.866026 -0.5 0
    outer loop
      vertex -3.65418 -1.62695 3
      vertex -3.23607 -2.35114 0
      vertex -3.23607 -2.35114 3
    endloop
  endfacet
  facet normal 0.587785 -0.809017 0
    outer loop
      vertex 2 -3.4641 0
      vertex 2.67652 -2.97258 3
      vertex 2 -3.4641 3
    endloop
  endfacet
  facet normal 0.587785 -0.809017 0
    outer loop
      vertex 2.67652 -2.97258 3
      vertex 2 -3.4641 0
      vertex 2.67652 -2.97258 0
    endloop
  endfacet
  facet normal -0 0 1
    outer loop
      vertex 1.6 2.77128 3
      vertex 4 0 3
      vertex 4 8.12886 3
    endloop
  endfacet
  facet normal 0 0 1
    outer loop
      vertex 4 0 3
      vertex 3.2 0 3
      vertex 3.91259 -0.831646 3
    endloop
  endfacet
  facet normal 0 0 1
    outer loop
      vertex 3.91259 -0.831646 3
      vertex 3.2 0 3
      vertex 3.65418 -1.62695 3
    endloop
  endfacet
  facet normal 0 0 1
    outer loop
      vertex 3.65418 -1.62695 3
      vertex 3.2 0 3
      vertex 3.23607 -2.35114 3
    endloop
  endfacet
  facet normal 0 0 1
    outer loop
      vertex 4 0 3
      vertex 1.6 2.77128 3
      vertex 3.2 0 3
    endloop
  endfacet
  facet normal 0 0 1
    outer loop
      vertex 4 8.12886 3
      vertex -1.6 2.77128 3
      vertex 1.6 2.77128 3
    endloop
  endfacet
  facet normal 0 0 1
    outer loop
      vertex -3.2 0 3
      vertex -3.65418 -1.62695 3
      vertex -3.23607 -2.35114 3
    endloop
  endfacet
  facet normal 0 0 1
    outer loop
      vertex -3.2 0 3
      vertex -3.91259 -0.831646 3
      vertex -3.65418 -1.62695 3
    endloop
  endfacet
  facet normal 0 0 1
    outer loop
      vertex -4 0 3
      vertex -3.2 0 3
      vertex -1.6 2.77128 3
    endloop
  endfacet
  facet normal -0 0 1
    outer loop
      vertex -4 8.12886 3
      vertex -1.6 2.77128 3
      vertex 4 8.12886 3
    endloop
  endfacet
  facet normal 0 0 1
    outer loop
      vertex -4 0 3
      vertex -1.6 2.77128 3
      vertex -4 8.12886 3
    endloop
  endfacet
  facet normal 0 0 1
    outer loop
      vertex -3.2 0 3
      vertex -4 0 3
      vertex -3.91259 -0.831646 3
    endloop
  endfacet
  facet normal 0 0 1
    outer loop
      vertex 1.6 -2.77128 3
      vertex 3.23607 -2.35114 3
      vertex 3.2 0 3
    endloop
  endfacet
  facet normal 0 0 1
    outer loop
      vertex 3.23607 -2.35114 3
      vertex 1.6 -2.77128 3
      vertex 2.67652 -2.97258 3
    endloop
  endfacet
  facet normal 0 0 1
    outer loop
      vertex 2.67652 -2.97258 3
      vertex 1.6 -2.77128 3
      vertex 2 -3.4641 3
    endloop
  endfacet
  facet normal 0 0 1
    outer loop
      vertex 1.6 -2.77128 3
      vertex 1.23607 -3.80423 3
      vertex 2 -3.4641 3
    endloop
  endfacet
  facet normal 0 0 1
    outer loop
      vertex 1.6 -2.77128 3
      vertex 0.418114 -3.97809 3
      vertex 1.23607 -3.80423 3
    endloop
  endfacet
  facet normal 0 0 1
    outer loop
      vertex 1.6 -2.77128 3
      vertex -0.418114 -3.97809 3
      vertex 0.418114 -3.97809 3
    endloop
  endfacet
  facet normal -0 0 1
    outer loop
      vertex -1.6 -2.77128 3
      vertex -0.418114 -3.97809 3
      vertex 1.6 -2.77128 3
    endloop
  endfacet
  facet normal 0 0 1
    outer loop
      vertex -0.418114 -3.97809 3
      vertex -1.6 -2.77128 3
      vertex -1.23607 -3.80423 3
    endloop
  endfacet
  facet normal 0 0 1
    outer loop
      vertex -1.6 -2.77128 3
      vertex -2 -3.4641 3
      vertex -1.23607 -3.80423 3
    endloop
  endfacet
  facet normal 0 0 1
    outer loop
      vertex -1.6 -2.77128 3
      vertex -2.67652 -2.97258 3
      vertex -2 -3.4641 3
    endloop
  endfacet
  facet normal -0 0 1
    outer loop
      vertex -3.23607 -2.35114 3
      vertex -1.6 -2.77128 3
      vertex -3.2 0 3
    endloop
  endfacet
  facet normal 0 0 1
    outer loop
      vertex -1.6 -2.77128 3
      vertex -3.23607 -2.35114 3
      vertex -2.67652 -2.97258 3
    endloop
  endfacet
  facet normal 0.866026 -0.5 0
    outer loop
      vertex 3.23607 -2.35114 3
      vertex 3.65418 -1.62695 0
      vertex 3.65418 -1.62695 3
    endloop
  endfacet
  facet normal 0.866026 -0.5 0
    outer loop
      vertex 3.65418 -1.62695 0
      vertex 3.23607 -2.35114 3
      vertex 3.23607 -2.35114 0
    endloop
  endfacet
  facet normal 0 -1 0
    outer loop
      vertex -0.418114 -3.97809 0
      vertex 0.418114 -3.97809 3
      vertex -0.418114 -3.97809 3
    endloop
  endfacet
  facet normal 0 -1 -0
    outer loop
      vertex 0.418114 -3.97809 3
      vertex -0.418114 -3.97809 0
      vertex 0.418114 -3.97809 0
    endloop
  endfacet
  facet normal -0.994522 -0.104529 0
    outer loop
      vertex -3.91259 -0.831646 0
      vertex -4 0 3
      vertex -4 0 0
    endloop
  endfacet
  facet normal -0.994522 -0.104529 0
    outer loop
      vertex -4 0 3
      vertex -3.91259 -0.831646 0
      vertex -3.91259 -0.831646 3
    endloop
  endfacet
  facet normal 0 0 -1
    outer loop
      vertex -4 15 0
      vertex 4 18 0
      vertex 4 15 0
    endloop
  endfacet
  facet normal -0 0 -1
    outer loop
      vertex 4 18 0
      vertex -4 15 0
      vertex -4 18 0
    endloop
  endfacet
  facet normal 0 0 -1
    outer loop
      vertex 3.91259 -0.831646 0
      vertex 1.46722 -0.311867 0
      vertex 1.5 0 0
    endloop
  endfacet
  facet normal 0 0 -1
    outer loop
      vertex 2.67652 -2.97258 0
      vertex 1.37032 -0.610105 0
      vertex 1.46722 -0.311867 0
    endloop
  endfacet
  facet normal 0 0 -1
    outer loop
      vertex 0.75 -1.29904 0
      vertex 2 -3.4641 0
      vertex 1.23607 -3.80423 0
    endloop
  endfacet
  facet normal 0 0 -1
    outer loop
      vertex 2.67652 -2.97258 0
      vertex 1.21352 -0.881678 0
      vertex 1.37032 -0.610105 0
    endloop
  endfacet
  facet normal 0 0 -1
    outer loop
      vertex 2.67652 -2.97258 0
      vertex 1.0037 -1.11472 0
      vertex 1.21352 -0.881678 0
    endloop
  endfacet
  facet normal 0 0 -1
    outer loop
      vertex 2 -3.4641 0
      vertex 0.75 -1.29904 0
      vertex 1.0037 -1.11472 0
    endloop
  endfacet
  facet normal 0 0 -1
    outer loop
      vertex 1.23607 -3.80423 0
      vertex 0.463525 -1.42658 0
      vertex 0.75 -1.29904 0
    endloop
  endfacet
  facet normal 0 0 -1
    outer loop
      vertex 0.418114 -3.97809 0
      vertex 0.463525 -1.42658 0
      vertex 1.23607 -3.80423 0
    endloop
  endfacet
  facet normal 0 0 -1
    outer loop
      vertex 0.418114 -3.97809 0
      vertex 0.156793 -1.49178 0
      vertex 0.463525 -1.42658 0
    endloop
  endfacet
  facet normal 0 0 -1
    outer loop
      vertex 0.418114 -3.97809 0
      vertex -0.156793 -1.49178 0
      vertex 0.156793 -1.49178 0
    endloop
  endfacet
  facet normal 0 0 -1
    outer loop
      vertex -0.418114 -3.97809 0
      vertex -0.156793 -1.49178 0
      vertex 0.418114 -3.97809 0
    endloop
  endfacet
  facet normal 0 0 -1
    outer loop
      vertex -0.418114 -3.97809 0
      vertex -0.463525 -1.42658 0
      vertex -0.156793 -1.49178 0
    endloop
  endfacet
  facet normal 0 0 -1
    outer loop
      vertex -1.23607 -3.80423 0
      vertex -0.463525 -1.42658 0
      vertex -0.418114 -3.97809 0
    endloop
  endfacet
  facet normal -0 0 -1
    outer loop
      vertex -0.463525 -1.42658 0
      vertex -1.23607 -3.80423 0
      vertex -0.75 -1.29904 0
    endloop
  endfacet
  facet normal 0 0 -1
    outer loop
      vertex -2 -3.4641 0
      vertex -0.75 -1.29904 0
      vertex -1.23607 -3.80423 0
    endloop
  endfacet
  facet normal -0 0 -1
    outer loop
      vertex -0.75 -1.29904 0
      vertex -2 -3.4641 0
      vertex -1.0037 -1.11472 0
    endloop
  endfacet
  facet normal 0 0 -1
    outer loop
      vertex -2.67652 -2.97258 0
      vertex -1.0037 -1.11472 0
      vertex -2 -3.4641 0
    endloop
  endfacet
  facet normal -0 0 -1
    outer loop
      vertex -1.0037 -1.11472 0
      vertex -2.67652 -2.97258 0
      vertex -1.21352 -0.881678 0
    endloop
  endfacet
  facet normal 0 0 -1
    outer loop
      vertex -3.23607 -2.35114 0
      vertex -1.21352 -0.881678 0
      vertex -2.67652 -2.97258 0
    endloop
  endfacet
  facet normal -0 0 -1
    outer loop
      vertex -1.21352 -0.881678 0
      vertex -3.23607 -2.35114 0
      vertex -1.37032 -0.610105 0
    endloop
  endfacet
  facet normal 0 0 -1
    outer loop
      vertex 1.5 0 0
      vertex 4 0 0
      vertex 3.91259 -0.831646 0
    endloop
  endfacet
  facet normal 0 0 -1
    outer loop
      vertex 1.46722 -0.311867 0
      vertex 3.91259 -0.831646 0
      vertex 3.65418 -1.62695 0
    endloop
  endfacet
  facet normal 0 0 -1
    outer loop
      vertex 1.46722 -0.311867 0
      vertex 3.65418 -1.62695 0
      vertex 3.23607 -2.35114 0
    endloop
  endfacet
  facet normal 0 0 -1
    outer loop
      vertex 1.46722 -0.311867 0
      vertex 3.23607 -2.35114 0
      vertex 2.67652 -2.97258 0
    endloop
  endfacet
  facet normal 0 0 -1
    outer loop
      vertex 1.0037 -1.11472 0
      vertex 2.67652 -2.97258 0
      vertex 2 -3.4641 0
    endloop
  endfacet
  facet normal 0 0 -1
    outer loop
      vertex 4 0 0
      vertex 1.5 0 0
      vertex 1.46722 0.311867 0
    endloop
  endfacet
  facet normal 0 0 -1
    outer loop
      vertex 4 0 0
      vertex 1.46722 0.311867 0
      vertex 1.37032 0.610105 0
    endloop
  endfacet
  facet normal 0 0 -1
    outer loop
      vertex 4 0 0
      vertex 1.37032 0.610105 0
      vertex 1.21352 0.881678 0
    endloop
  endfacet
  facet normal 0 0 -1
    outer loop
      vertex 1.0037 1.11472 0
      vertex 4 0 0
      vertex 1.21352 0.881678 0
    endloop
  endfacet
  facet normal 0 0 -1
    outer loop
      vertex 4 0 0
      vertex 1.0037 1.11472 0
      vertex 4 11 0
    endloop
  endfacet
  facet normal 0 0 -1
    outer loop
      vertex 0.75 1.29904 0
      vertex 4 11 0
      vertex 1.0037 1.11472 0
    endloop
  endfacet
  facet normal 0 0 -1
    outer loop
      vertex 0.463525 1.42658 0
      vertex 4 11 0
      vertex 0.75 1.29904 0
    endloop
  endfacet
  facet normal 0 0 -1
    outer loop
      vertex 0.156793 1.49178 0
      vertex 4 11 0
      vertex 0.463525 1.42658 0
    endloop
  endfacet
  facet normal 0 0 -1
    outer loop
      vertex -0.156793 1.49178 0
      vertex 4 11 0
      vertex 0.156793 1.49178 0
    endloop
  endfacet
  facet normal 0 0 -1
    outer loop
      vertex -4 11 0
      vertex -0.156793 1.49178 0
      vertex -0.463525 1.42658 0
    endloop
  endfacet
  facet normal 0 0 -1
    outer loop
      vertex -4 11 0
      vertex -0.463525 1.42658 0
      vertex -0.749999 1.29904 0
    endloop
  endfacet
  facet normal 0 0 -1
    outer loop
      vertex -4 11 0
      vertex -0.749999 1.29904 0
      vertex -1.0037 1.11472 0
    endloop
  endfacet
  facet normal 0 0 -1
    outer loop
      vertex -4 0 0
      vertex -1.0037 1.11472 0
      vertex -1.21352 0.881678 0
    endloop
  endfacet
  facet normal 0 0 -1
    outer loop
      vertex -4 0 0
      vertex -1.21352 0.881678 0
      vertex -1.37032 0.610105 0
    endloop
  endfacet
  facet normal 0 0 -1
    outer loop
      vertex -3.65418 -1.62695 0
      vertex -1.37032 -0.610105 0
      vertex -3.23607 -2.35114 0
    endloop
  endfacet
  facet normal -0 0 -1
    outer loop
      vertex -1.37032 -0.610105 0
      vertex -3.65418 -1.62695 0
      vertex -1.46722 -0.311867 0
    endloop
  endfacet
  facet normal 0 0 -1
    outer loop
      vertex -3.91259 -0.831646 0
      vertex -1.46722 -0.311867 0
      vertex -3.65418 -1.62695 0
    endloop
  endfacet
  facet normal -0 0 -1
    outer loop
      vertex -1.46722 -0.311867 0
      vertex -3.91259 -0.831646 0
      vertex -1.5 0 0
    endloop
  endfacet
  facet normal 0 0 -1
    outer loop
      vertex -4 0 0
      vertex -1.5 0 0
      vertex -3.91259 -0.831646 0
    endloop
  endfacet
  facet normal 0 0 -1
    outer loop
      vertex -1.5 0 0
      vertex -4 0 0
      vertex -1.46722 0.311867 0
    endloop
  endfacet
  facet normal -0 0 -1
    outer loop
      vertex -1.46722 0.311867 0
      vertex -4 0 0
      vertex -1.37032 0.610105 0
    endloop
  endfacet
  facet normal -0 0 -1
    outer loop
      vertex -1.0037 1.11472 0
      vertex -4 0 0
      vertex -4 11 0
    endloop
  endfacet
  facet normal 0 0 -1
    outer loop
      vertex -0.156793 1.49178 0
      vertex -4 11 0
      vertex 4 11 0
    endloop
  endfacet
  facet normal 0.207912 -0.978148 0
    outer loop
      vertex 0.418114 -3.97809 0
      vertex 1.23607 -3.80423 3
      vertex 0.418114 -3.97809 3
    endloop
  endfacet
  facet normal 0.207912 -0.978148 0
    outer loop
      vertex 1.23607 -3.80423 3
      vertex 0.418114 -3.97809 0
      vertex 1.23607 -3.80423 0
    endloop
  endfacet
  facet normal 0.406737 -0.913545 0
    outer loop
      vertex 1.23607 -3.80423 0
      vertex 2 -3.4641 3
      vertex 1.23607 -3.80423 3
    endloop
  endfacet
  facet normal 0.406737 -0.913545 0
    outer loop
      vertex 2 -3.4641 3
      vertex 1.23607 -3.80423 0
      vertex 2 -3.4641 0
    endloop
  endfacet
  facet normal -0.207912 -0.978148 0
    outer loop
      vertex -1.23607 -3.80423 0
      vertex -0.418114 -3.97809 3
      vertex -1.23607 -3.80423 3
    endloop
  endfacet
  facet normal -0.207912 -0.978148 -0
    outer loop
      vertex -0.418114 -3.97809 3
      vertex -1.23607 -3.80423 0
      vertex -0.418114 -3.97809 0
    endloop
  endfacet
  facet normal -0.951057 -0.309017 0
    outer loop
      vertex -3.65418 -1.62695 0
      vertex -3.91259 -0.831646 3
      vertex -3.91259 -0.831646 0
    endloop
  endfacet
  facet normal -0.951057 -0.309017 0
    outer loop
      vertex -3.91259 -0.831646 3
      vertex -3.65418 -1.62695 0
      vertex -3.65418 -1.62695 3
    endloop
  endfacet
  facet normal -0.743145 -0.669131 0
    outer loop
      vertex -2.67652 -2.97258 0
      vertex -3.23607 -2.35114 3
      vertex -3.23607 -2.35114 0
    endloop
  endfacet
  facet normal -0.743145 -0.669131 0
    outer loop
      vertex -3.23607 -2.35114 3
      vertex -2.67652 -2.97258 0
      vertex -2.67652 -2.97258 3
    endloop
  endfacet
  facet normal 0.743145 -0.669131 0
    outer loop
      vertex 2.67652 -2.97258 3
      vertex 3.23607 -2.35114 0
      vertex 3.23607 -2.35114 3
    endloop
  endfacet
  facet normal 0.743145 -0.669131 0
    outer loop
      vertex 3.23607 -2.35114 0
      vertex 2.67652 -2.97258 3
      vertex 2.67652 -2.97258 0
    endloop
  endfacet
  facet normal -0.406737 -0.913545 0
    outer loop
      vertex -2 -3.4641 0
      vertex -1.23607 -3.80423 3
      vertex -2 -3.4641 3
    endloop
  endfacet
  facet normal -0.406737 -0.913545 -0
    outer loop
      vertex -1.23607 -3.80423 3
      vertex -2 -3.4641 0
      vertex -1.23607 -3.80423 0
    endloop
  endfacet
  facet normal -0.587785 -0.809017 0
    outer loop
      vertex -2.67652 -2.97258 0
      vertex -2 -3.4641 3
      vertex -2.67652 -2.97258 3
    endloop
  endfacet
  facet normal -0.587785 -0.809017 -0
    outer loop
      vertex -2 -3.4641 3
      vertex -2.67652 -2.97258 0
      vertex -2 -3.4641 0
    endloop
  endfacet
  facet normal -1 0 0
    outer loop
      vertex -4 8.12886 3
      vertex -4 11 1.36415
      vertex -4 11 0
    endloop
  endfacet
  facet normal -1 0 0
    outer loop
      vertex -4 8.12886 3
      vertex -4 10.9115 2.21951
      vertex -4 10.9115 1.78049
    endloop
  endfacet
  facet normal -1 0 0
    outer loop
      vertex -4 11 1.36415
      vertex -4 8.12886 3
      vertex -4 10.9115 1.78049
    endloop
  endfacet
  facet normal -1 0 0
    outer loop
      vertex -4 10.9115 2.21951
      vertex -4 9.28428 5.34565
      vertex -4 10.0611 6.04508
    endloop
  endfacet
  facet normal -1 0 0
    outer loop
      vertex -4 10.9115 2.21951
      vertex -4 8.66987 4.5
      vertex -4 9.28428 5.34565
    endloop
  endfacet
  facet normal -1 0 0
    outer loop
      vertex -4 10.9115 2.21951
      vertex -4 8.24472 3.54508
      vertex -4 8.66987 4.5
    endloop
  endfacet
  facet normal -1 0 0
    outer loop
      vertex -4 10.9115 2.21951
      vertex -4 8.12886 3
      vertex -4 8.24472 3.54508
    endloop
  endfacet
  facet normal -1 0 0
    outer loop
      vertex -4 0 0
      vertex -4 8.12886 3
      vertex -4 11 0
    endloop
  endfacet
  facet normal -1 -0 0
    outer loop
      vertex -4 8.12886 3
      vertex -4 0 0
      vertex -4 0 3
    endloop
  endfacet
  facet normal -1 0 0
    outer loop
      vertex -4 18 0
      vertex -4 17.9726 2
      vertex -4 18 2
    endloop
  endfacet
  facet normal -1 0 0
    outer loop
      vertex -4 15.0885 2.21951
      vertex -4 17.9726 2.52264
      vertex -4 17.9726 2
    endloop
  endfacet
  facet normal -1 0 0
    outer loop
      vertex -4 15 1.36415
      vertex -4 17.9726 2
      vertex -4 18 0
    endloop
  endfacet
  facet normal -1 0 0
    outer loop
      vertex -4 15.0885 2.21951
      vertex -4 17.9726 2
      vertex -4 15.0885 1.78049
    endloop
  endfacet
  facet normal -1 0 0
    outer loop
      vertex -4 14.9972 2.64894
      vertex -4 17.7553 3.54508
      vertex -4 15.0885 2.21951
    endloop
  endfacet
  facet normal -1 -0 0
    outer loop
      vertex -4 17.7553 3.54508
      vertex -4 14.9972 2.64894
      vertex -4 17.3301 4.5
    endloop
  endfacet
  facet normal -1 -0 0
    outer loop
      vertex -4 17.9726 2.52264
      vertex -4 15.0885 2.21951
      vertex -4 17.7553 3.54508
    endloop
  endfacet
  facet normal -1 0 0
    outer loop
      vertex -4 15 1.36415
      vertex -4 18 0
      vertex -4 15 0
    endloop
  endfacet
  facet normal -1 0 0
    outer loop
      vertex -4 17.9726 2
      vertex -4 15 1.36415
      vertex -4 15.0885 1.78049
    endloop
  endfacet
  facet normal -1 0 0
    outer loop
      vertex -4 14.8187 3.05
      vertex -4 17.3301 4.5
      vertex -4 14.9972 2.64894
    endloop
  endfacet
  facet normal -1 -0 0
    outer loop
      vertex -4 17.3301 4.5
      vertex -4 14.8187 3.05
      vertex -4 16.7157 5.34565
    endloop
  endfacet
  facet normal -1 0 0
    outer loop
      vertex -4 14.5606 3.40517
      vertex -4 16.7157 5.34565
      vertex -4 14.8187 3.05
    endloop
  endfacet
  facet normal -1 -0 0
    outer loop
      vertex -4 16.7157 5.34565
      vertex -4 14.5606 3.40517
      vertex -4 15.9389 6.04508
    endloop
  endfacet
  facet normal -1 0 0
    outer loop
      vertex -4 14.2343 3.69894
      vertex -4 15.9389 6.04508
      vertex -4 14.5606 3.40517
    endloop
  endfacet
  facet normal -1 -0 0
    outer loop
      vertex -4 15.9389 6.04508
      vertex -4 14.2343 3.69894
      vertex -4 15.0337 6.56773
    endloop
  endfacet
  facet normal -1 0 0
    outer loop
      vertex -4 13.8541 3.91844
      vertex -4 15.0337 6.56773
      vertex -4 14.2343 3.69894
    endloop
  endfacet
  facet normal -1 -0 0
    outer loop
      vertex -4 15.0337 6.56773
      vertex -4 13.8541 3.91844
      vertex -4 14.0396 6.89074
    endloop
  endfacet
  facet normal -1 0 0
    outer loop
      vertex -4 13.4366 4.05411
      vertex -4 14.0396 6.89074
      vertex -4 13.8541 3.91844
    endloop
  endfacet
  facet normal -1 0 0
    outer loop
      vertex -4 13 4.1
      vertex -4 14.0396 6.89074
      vertex -4 13.4366 4.05411
    endloop
  endfacet
  facet normal -1 0 0
    outer loop
      vertex -4 13 4.1
      vertex -4 13 7
      vertex -4 14.0396 6.89074
    endloop
  endfacet
  facet normal -1 0 0
    outer loop
      vertex -4 12.5634 4.05411
      vertex -4 13 7
      vertex -4 13 4.1
    endloop
  endfacet
  facet normal -1 0 0
    outer loop
      vertex -4 11.9604 6.89074
      vertex -4 12.5634 4.05411
      vertex -4 12.1459 3.91844
    endloop
  endfacet
  facet normal -1 0 0
    outer loop
      vertex -4 12.5634 4.05411
      vertex -4 11.9604 6.89074
      vertex -4 13 7
    endloop
  endfacet
  facet normal -1 0 0
    outer loop
      vertex -4 10.9663 6.56773
      vertex -4 12.1459 3.91844
      vertex -4 11.7657 3.69894
    endloop
  endfacet
  facet normal -1 0 0
    outer loop
      vertex -4 10.0611 6.04508
      vertex -4 11.7657 3.69894
      vertex -4 11.4394 3.40517
    endloop
  endfacet
  facet normal -1 0 0
    outer loop
      vertex -4 10.0611 6.04508
      vertex -4 11.4394 3.40517
      vertex -4 11.1813 3.05
    endloop
  endfacet
  facet normal -1 0 0
    outer loop
      vertex -4 10.0611 6.04508
      vertex -4 11.1813 3.05
      vertex -4 11.0028 2.64894
    endloop
  endfacet
  facet normal -1 0 0
    outer loop
      vertex -4 12.1459 3.91844
      vertex -4 10.9663 6.56773
      vertex -4 11.9604 6.89074
    endloop
  endfacet
  facet normal -1 0 0
    outer loop
      vertex -4 10.0611 6.04508
      vertex -4 11.0028 2.64894
      vertex -4 10.9115 2.21951
    endloop
  endfacet
  facet normal -1 0 0
    outer loop
      vertex -4 11.7657 3.69894
      vertex -4 10.0611 6.04508
      vertex -4 10.9663 6.56773
    endloop
  endfacet
  facet normal 1 0 0
    outer loop
      vertex 4 15.0885 2.21951
      vertex 4 17.9726 2.52264
      vertex 4 17.7553 3.54508
    endloop
  endfacet
  facet normal 1 -0 0
    outer loop
      vertex 4 17.9726 2
      vertex 4 18 0
      vertex 4 18 2
    endloop
  endfacet
  facet normal 1 0 0
    outer loop
      vertex 4 17.9726 2.52264
      vertex 4 15.0885 2.21951
      vertex 4 17.9726 2
    endloop
  endfacet
  facet normal 1 0 0
    outer loop
      vertex 4 17.9726 2
      vertex 4 15.0885 2.21951
      vertex 4 15.0885 1.78049
    endloop
  endfacet
  facet normal 1 0 0
    outer loop
      vertex 4 15 1.36415
      vertex 4 17.9726 2
      vertex 4 15.0885 1.78049
    endloop
  endfacet
  facet normal 1 0 0
    outer loop
      vertex 4 17.9726 2
      vertex 4 15 1.36415
      vertex 4 18 0
    endloop
  endfacet
  facet normal 1 0 0
    outer loop
      vertex 4 18 0
      vertex 4 15 1.36415
      vertex 4 15 0
    endloop
  endfacet
  facet normal 1 0 0
    outer loop
      vertex 4 17.7553 3.54508
      vertex 4 14.9972 2.64894
      vertex 4 15.0885 2.21951
    endloop
  endfacet
  facet normal 1 0 0
    outer loop
      vertex 4 17.7553 3.54508
      vertex 4 14.8187 3.05
      vertex 4 14.9972 2.64894
    endloop
  endfacet
  facet normal 1 0 0
    outer loop
      vertex 4 17.7553 3.54508
      vertex 4 14.5606 3.40517
      vertex 4 14.8187 3.05
    endloop
  endfacet
  facet normal 1 0 -0
    outer loop
      vertex 4 14.5606 3.40517
      vertex 4 17.7553 3.54508
      vertex 4 14.4052 3.54508
    endloop
  endfacet
  facet normal 1 0 0
    outer loop
      vertex 4 11.0028 2.64894
      vertex 4 8.12886 3
      vertex 4 10.9115 2.21951
    endloop
  endfacet
  facet normal 1 -0 0
    outer loop
      vertex 4 8.12886 3
      vertex 4 11.0028 2.64894
      vertex 4 8.24472 3.54508
    endloop
  endfacet
  facet normal 1 0 0
    outer loop
      vertex 4 11.1813 3.05
      vertex 4 8.24472 3.54508
      vertex 4 11.0028 2.64894
    endloop
  endfacet
  facet normal 1 0 0
    outer loop
      vertex 4 11.4394 3.40517
      vertex 4 8.24472 3.54508
      vertex 4 11.1813 3.05
    endloop
  endfacet
  facet normal 1 -0 0
    outer loop
      vertex 4 8.24472 3.54508
      vertex 4 11.4394 3.40517
      vertex 4 11.5948 3.54508
    endloop
  endfacet
  facet normal 1 0 0
    outer loop
      vertex 4 8.12886 3
      vertex 4 11 1.36415
      vertex 4 10.9115 1.78049
    endloop
  endfacet
  facet normal 1 0 0
    outer loop
      vertex 4 10.9115 2.21951
      vertex 4 8.12886 3
      vertex 4 10.9115 1.78049
    endloop
  endfacet
  facet normal 1 0 0
    outer loop
      vertex 4 11 1.36415
      vertex 4 8.12886 3
      vertex 4 11 0
    endloop
  endfacet
  facet normal 1 0 0
    outer loop
      vertex 4 0 0
      vertex 4 8.12886 3
      vertex 4 0 3
    endloop
  endfacet
  facet normal 1 0 0
    outer loop
      vertex 4 8.12886 3
      vertex 4 0 0
      vertex 4 11 0
    endloop
  endfacet
  facet normal -0 0 1
    outer loop
      vertex -4 18 2
      vertex 4 17.9726 2
      vertex 4 18 2
    endloop
  endfacet
  facet normal 0 0 1
    outer loop
      vertex 4 17.9726 2
      vertex -4 18 2
      vertex -4 17.9726 2
    endloop
  endfacet
  facet normal 0 1 -0
    outer loop
      vertex 4 18 0
      vertex -4 18 2
      vertex 4 18 2
    endloop
  endfacet
  facet normal 0 1 0
    outer loop
      vertex -4 18 2
      vertex 4 18 0
      vertex -4 18 0
    endloop
  endfacet
  facet normal -0 0.104529 0.994522
    outer loop
      vertex -4 14.0396 6.89074
      vertex 4 13 7
      vertex 4 14.0396 6.89074
    endloop
  endfacet
  facet normal 0 0.104529 0.994522
    outer loop
      vertex 4 13 7
      vertex -4 14.0396 6.89074
      vertex -4 13 7
    endloop
  endfacet
  facet normal 1 0 0
    outer loop
      vertex 4 17.7553 3.54508
      vertex 4 14.2343 3.69894
      vertex 4 14.4052 3.54508
    endloop
  endfacet
  facet normal 1 1.28334e-08 2.93698e-07
    outer loop
      vertex 4 13 7
      vertex 4 14.2343 3.69894
      vertex 4 17.7553 3.54508
    endloop
  endfacet
  facet normal 1 2.12718e-07 3.68439e-07
    outer loop
      vertex 4 14.2343 3.69894
      vertex 4 13 7
      vertex 4 13.8541 3.91844
    endloop
  endfacet
  facet normal 1 -5.17027e-07 1.66169e-07
    outer loop
      vertex 4 13.8541 3.91844
      vertex 4 13 7
      vertex 4 13.4366 4.05411
    endloop
  endfacet
  facet normal 1 2.59228e-08 2.4664e-07
    outer loop
      vertex 4 13 7
      vertex 4 13 4.1
      vertex 4 13.4366 4.05411
    endloop
  endfacet
  facet normal 1 -2.59228e-08 2.4664e-07
    outer loop
      vertex 4 13 7
      vertex 4 12.5634 4.05411
      vertex 4 13 4.1
    endloop
  endfacet
  facet normal 1 5.17027e-07 1.66168e-07
    outer loop
      vertex 4 13 7
      vertex 4 12.1459 3.91844
      vertex 4 12.5634 4.05411
    endloop
  endfacet
  facet normal 1 -2.12718e-07 3.68439e-07
    outer loop
      vertex 4 13 7
      vertex 4 11.7657 3.69894
      vertex 4 12.1459 3.91844
    endloop
  endfacet
  facet normal 1 -1.28334e-08 2.93698e-07
    outer loop
      vertex 4 8.24472 3.54508
      vertex 4 11.7657 3.69894
      vertex 4 13 7
    endloop
  endfacet
  facet normal 1 0 0
    outer loop
      vertex 4 11.7657 3.69894
      vertex 4 8.24472 3.54508
      vertex 4 11.5948 3.54508
    endloop
  endfacet
  facet normal 0 -0.978148 0.207911
    outer loop
      vertex -4 8.12886 3
      vertex 4 8.24472 3.54508
      vertex -4 8.24472 3.54508
    endloop
  endfacet
  facet normal 0 -0.978148 0.207911
    outer loop
      vertex 4 8.24472 3.54508
      vertex -4 8.12886 3
      vertex 4 8.12886 3
    endloop
  endfacet
  facet normal 0 0.809017 0.587785
    outer loop
      vertex 4 17.3301 4.5
      vertex -4 16.7157 5.34565
      vertex 4 16.7157 5.34565
    endloop
  endfacet
  facet normal 0 0.978148 0.20791
    outer loop
      vertex 4 17.9726 2.52264
      vertex -4 17.7553 3.54508
      vertex 4 17.7553 3.54508
    endloop
  endfacet
  facet normal 0 0.978148 0.20791
    outer loop
      vertex -4 17.7553 3.54508
      vertex 4 17.9726 2.52264
      vertex -4 17.9726 2.52264
    endloop
  endfacet
  facet normal 0 -0.5 0.866025
    outer loop
      vertex -4 10.9663 6.56773
      vertex 4 10.0611 6.04508
      vertex 4 10.9663 6.56773
    endloop
  endfacet
  facet normal 0 -0.5 0.866025
    outer loop
      vertex 4 10.0611 6.04508
      vertex -4 10.9663 6.56773
      vertex -4 10.0611 6.04508
    endloop
  endfacet
  facet normal 0 1 -0
    outer loop
      vertex 4 17.9726 2
      vertex -4 17.9726 2.52264
      vertex 4 17.9726 2.52264
    endloop
  endfacet
  facet normal 0 1 0
    outer loop
      vertex -4 17.9726 2.52264
      vertex 4 17.9726 2
      vertex -4 17.9726 2
    endloop
  endfacet
  facet normal 1 3.39194e-08 3.2272e-07
    outer loop
      vertex 4 14.0396 6.89074
      vertex 4 13 7
      vertex 4 17.7553 3.54508
    endloop
  endfacet
  facet normal 1 3.55013e-06 2.57932e-06
    outer loop
      vertex 4 17.3301 4.5
      vertex 4 16.7157 5.34565
      vertex 4 17.7553 3.54508
    endloop
  endfacet
  facet normal 1 9.93228e-07 1.10309e-06
    outer loop
      vertex 4 16.7157 5.34565
      vertex 4 15.9389 6.04508
      vertex 4 17.7553 3.54508
    endloop
  endfacet
  facet normal -0 0.66913 0.743145
    outer loop
      vertex -4 16.7157 5.34565
      vertex 4 15.9389 6.04508
      vertex 4 16.7157 5.34565
    endloop
  endfacet
  facet normal 0 0.66913 0.743145
    outer loop
      vertex 4 15.9389 6.04508
      vertex -4 16.7157 5.34565
      vertex -4 15.9389 6.04508
    endloop
  endfacet
  facet normal 0 0.913545 0.406737
    outer loop
      vertex 4 17.7553 3.54508
      vertex -4 17.7553 3.54508
      vertex 4 17.3301 4.5
    endloop
  endfacet
  facet normal -7.00694e-08 0.809017 0.587785
    outer loop
      vertex -4 17.3301 4.5
      vertex -4 16.7157 5.34565
      vertex 4 17.3301 4.5
    endloop
  endfacet
  facet normal 1 -9.9323e-07 1.10309e-06
    outer loop
      vertex 4 10.0611 6.04508
      vertex 4 9.28428 5.34565
      vertex 4 8.24472 3.54508
    endloop
  endfacet
  facet normal 0 -0.309017 0.951057
    outer loop
      vertex -4 11.9604 6.89074
      vertex 4 10.9663 6.56773
      vertex 4 11.9604 6.89074
    endloop
  endfacet
  facet normal 0 -0.309017 0.951057
    outer loop
      vertex 4 10.9663 6.56773
      vertex -4 11.9604 6.89074
      vertex -4 10.9663 6.56773
    endloop
  endfacet
  facet normal 0 -0.104529 0.994522
    outer loop
      vertex -4 13 7
      vertex 4 11.9604 6.89074
      vertex 4 13 7
    endloop
  endfacet
  facet normal 0 -0.104529 0.994522
    outer loop
      vertex 4 11.9604 6.89074
      vertex -4 13 7
      vertex -4 11.9604 6.89074
    endloop
  endfacet
  facet normal -0 0.309017 0.951057
    outer loop
      vertex -4 15.0337 6.56773
      vertex 4 14.0396 6.89074
      vertex 4 15.0337 6.56773
    endloop
  endfacet
  facet normal 0 0.309017 0.951057
    outer loop
      vertex 4 14.0396 6.89074
      vertex -4 15.0337 6.56773
      vertex -4 14.0396 6.89074
    endloop
  endfacet
  facet normal -4.84868e-08 0.913545 0.406737
    outer loop
      vertex -4 17.7553 3.54508
      vertex -4 17.3301 4.5
      vertex 4 17.3301 4.5
    endloop
  endfacet
  facet normal 1 -3.7938e-07 6.57105e-07
    outer loop
      vertex 4 10.9663 6.56773
      vertex 4 10.0611 6.04508
      vertex 4 8.24472 3.54508
    endloop
  endfacet
  facet normal 0 -0.913545 0.406737
    outer loop
      vertex -4 8.24472 3.54508
      vertex 4 8.66987 4.5
      vertex -4 8.66987 4.5
    endloop
  endfacet
  facet normal 0 -0.913545 0.406737
    outer loop
      vertex 4 8.66987 4.5
      vertex -4 8.24472 3.54508
      vertex 4 8.24472 3.54508
    endloop
  endfacet
  facet normal 0 -0.809017 0.587785
    outer loop
      vertex -4 8.66987 4.5
      vertex 4 9.28428 5.34565
      vertex -4 9.28428 5.34565
    endloop
  endfacet
  facet normal 0 -0.809017 0.587785
    outer loop
      vertex 4 9.28428 5.34565
      vertex -4 8.66987 4.5
      vertex 4 8.66987 4.5
    endloop
  endfacet
  facet normal 0 -0.669131 0.743145
    outer loop
      vertex -4 10.0611 6.04508
      vertex 4 9.28428 5.34565
      vertex 4 10.0611 6.04508
    endloop
  endfacet
  facet normal 0 -0.669131 0.743145
    outer loop
      vertex 4 9.28428 5.34565
      vertex -4 10.0611 6.04508
      vertex -4 9.28428 5.34565
    endloop
  endfacet
  facet normal -0 0.5 0.866025
    outer loop
      vertex -4 15.9389 6.04508
      vertex 4 15.0337 6.56773
      vertex 4 15.9389 6.04508
    endloop
  endfacet
  facet normal 0 0.5 0.866025
    outer loop
      vertex 4 15.0337 6.56773
      vertex -4 15.9389 6.04508
      vertex -4 15.0337 6.56773
    endloop
  endfacet
  facet normal 1 -1.4491e-07 4.45988e-07
    outer loop
      vertex 4 11.9604 6.89074
      vertex 4 10.9663 6.56773
      vertex 4 8.24472 3.54508
    endloop
  endfacet
  facet normal 1 -3.39194e-08 3.2272e-07
    outer loop
      vertex 4 13 7
      vertex 4 11.9604 6.89074
      vertex 4 8.24472 3.54508
    endloop
  endfacet
  facet normal 1 -3.55013e-06 2.57932e-06
    outer loop
      vertex 4 9.28428 5.34565
      vertex 4 8.66987 4.5
      vertex 4 8.24472 3.54508
    endloop
  endfacet
  facet normal 1 1.4491e-07 4.45988e-07
    outer loop
      vertex 4 15.0337 6.56773
      vertex 4 14.0396 6.89074
      vertex 4 17.7553 3.54508
    endloop
  endfacet
  facet normal 1 3.7938e-07 6.57106e-07
    outer loop
      vertex 4 15.9389 6.04508
      vertex 4 15.0337 6.56773
      vertex 4 17.7553 3.54508
    endloop
  endfacet
  facet normal -0.994522 -0.104529 0
    outer loop
      vertex 1.5 0 0
      vertex 1.46722 0.311867 1
      vertex 1.46722 0.311867 0
    endloop
  endfacet
  facet normal -0.994522 -0.104529 0
    outer loop
      vertex 1.46722 0.311867 1
      vertex 1.5 0 0
      vertex 1.5 0 1
    endloop
  endfacet
  facet normal 0.994522 -0.104529 0
    outer loop
      vertex -1.5 0 1
      vertex -1.46722 0.311867 0
      vertex -1.46722 0.311867 1
    endloop
  endfacet
  facet normal 0.994522 -0.104529 0
    outer loop
      vertex -1.46722 0.311867 0
      vertex -1.5 0 1
      vertex -1.5 0 0
    endloop
  endfacet
  facet normal 0 -1 0
    outer loop
      vertex -0.156793 1.49178 0
      vertex 0.156793 1.49178 1
      vertex -0.156793 1.49178 1
    endloop
  endfacet
  facet normal 0 -1 -0
    outer loop
      vertex 0.156793 1.49178 1
      vertex -0.156793 1.49178 0
      vertex 0.156793 1.49178 0
    endloop
  endfacet
  facet normal 0 1 -0
    outer loop
      vertex 0.156793 -1.49178 0
      vertex -0.156793 -1.49178 1
      vertex 0.156793 -1.49178 1
    endloop
  endfacet
  facet normal 0 1 0
    outer loop
      vertex -0.156793 -1.49178 1
      vertex 0.156793 -1.49178 0
      vertex -0.156793 -1.49178 0
    endloop
  endfacet
  facet normal -0.587787 -0.809016 0
    outer loop
      vertex 0.75 1.29904 0
      vertex 1.0037 1.11472 1
      vertex 0.75 1.29904 1
    endloop
  endfacet
  facet normal -0.587787 -0.809016 -0
    outer loop
      vertex 1.0037 1.11472 1
      vertex 0.75 1.29904 0
      vertex 1.0037 1.11472 0
    endloop
  endfacet
  facet normal 0.743145 -0.669131 0
    outer loop
      vertex -1.21352 0.881678 1
      vertex -1.0037 1.11472 0
      vertex -1.0037 1.11472 1
    endloop
  endfacet
  facet normal 0.743145 -0.669131 0
    outer loop
      vertex -1.0037 1.11472 0
      vertex -1.21352 0.881678 1
      vertex -1.21352 0.881678 0
    endloop
  endfacet
  facet normal 0.406736 -0.913546 0
    outer loop
      vertex -0.749999 1.29904 0
      vertex -0.463525 1.42658 1
      vertex -0.749999 1.29904 1
    endloop
  endfacet
  facet normal 0.406736 -0.913546 0
    outer loop
      vertex -0.463525 1.42658 1
      vertex -0.749999 1.29904 0
      vertex -0.463525 1.42658 0
    endloop
  endfacet
  facet normal -0.951056 0.309018 0
    outer loop
      vertex 1.37032 -0.610105 0
      vertex 1.46722 -0.311867 1
      vertex 1.46722 -0.311867 0
    endloop
  endfacet
  facet normal -0.951056 0.309018 0
    outer loop
      vertex 1.46722 -0.311867 1
      vertex 1.37032 -0.610105 0
      vertex 1.37032 -0.610105 1
    endloop
  endfacet
  facet normal -0.866026 -0.5 0
    outer loop
      vertex 1.37032 0.610105 0
      vertex 1.21352 0.881678 1
      vertex 1.21352 0.881678 0
    endloop
  endfacet
  facet normal -0.866026 -0.5 0
    outer loop
      vertex 1.21352 0.881678 1
      vertex 1.37032 0.610105 0
      vertex 1.37032 0.610105 1
    endloop
  endfacet
  facet normal -0.951056 -0.309018 0
    outer loop
      vertex 1.46722 0.311867 0
      vertex 1.37032 0.610105 1
      vertex 1.37032 0.610105 0
    endloop
  endfacet
  facet normal -0.951056 -0.309018 0
    outer loop
      vertex 1.37032 0.610105 1
      vertex 1.46722 0.311867 0
      vertex 1.46722 0.311867 1
    endloop
  endfacet
  facet normal -0.743145 -0.669131 0
    outer loop
      vertex 1.21352 0.881678 0
      vertex 1.0037 1.11472 1
      vertex 1.0037 1.11472 0
    endloop
  endfacet
  facet normal -0.743145 -0.669131 0
    outer loop
      vertex 1.0037 1.11472 1
      vertex 1.21352 0.881678 0
      vertex 1.21352 0.881678 1
    endloop
  endfacet
  facet normal -0.207912 -0.978148 0
    outer loop
      vertex 0.156793 1.49178 0
      vertex 0.463525 1.42658 1
      vertex 0.156793 1.49178 1
    endloop
  endfacet
  facet normal -0.207912 -0.978148 -0
    outer loop
      vertex 0.463525 1.42658 1
      vertex 0.156793 1.49178 0
      vertex 0.463525 1.42658 0
    endloop
  endfacet
  facet normal -0.406735 -0.913546 0
    outer loop
      vertex 0.463525 1.42658 0
      vertex 0.75 1.29904 1
      vertex 0.463525 1.42658 1
    endloop
  endfacet
  facet normal -0.406735 -0.913546 -0
    outer loop
      vertex 0.75 1.29904 1
      vertex 0.463525 1.42658 0
      vertex 0.75 1.29904 0
    endloop
  endfacet
  facet normal 0.866026 -0.5 0
    outer loop
      vertex -1.37032 0.610105 1
      vertex -1.21352 0.881678 0
      vertex -1.21352 0.881678 1
    endloop
  endfacet
  facet normal 0.866026 -0.5 0
    outer loop
      vertex -1.21352 0.881678 0
      vertex -1.37032 0.610105 1
      vertex -1.37032 0.610105 0
    endloop
  endfacet
  facet normal 0.951056 -0.309018 0
    outer loop
      vertex -1.46722 0.311867 1
      vertex -1.37032 0.610105 0
      vertex -1.37032 0.610105 1
    endloop
  endfacet
  facet normal 0.951056 -0.309018 0
    outer loop
      vertex -1.37032 0.610105 0
      vertex -1.46722 0.311867 1
      vertex -1.46722 0.311867 0
    endloop
  endfacet
  facet normal 0.587786 -0.809017 0
    outer loop
      vertex -1.0037 1.11472 0
      vertex -0.749999 1.29904 1
      vertex -1.0037 1.11472 1
    endloop
  endfacet
  facet normal 0.587786 -0.809017 0
    outer loop
      vertex -0.749999 1.29904 1
      vertex -1.0037 1.11472 0
      vertex -0.749999 1.29904 0
    endloop
  endfacet
  facet normal 0.207912 -0.978148 0
    outer loop
      vertex -0.463525 1.42658 0
      vertex -0.156793 1.49178 1
      vertex -0.463525 1.42658 1
    endloop
  endfacet
  facet normal 0.207912 -0.978148 0
    outer loop
      vertex -0.156793 1.49178 1
      vertex -0.463525 1.42658 0
      vertex -0.156793 1.49178 0
    endloop
  endfacet
  facet normal -0.994522 0.104529 0
    outer loop
      vertex 1.46722 -0.311867 0
      vertex 1.5 0 1
      vertex 1.5 0 0
    endloop
  endfacet
  facet normal -0.994522 0.104529 0
    outer loop
      vertex 1.5 0 1
      vertex 1.46722 -0.311867 0
      vertex 1.46722 -0.311867 1
    endloop
  endfacet
  facet normal -0.866026 0.5 0
    outer loop
      vertex 1.21352 -0.881678 0
      vertex 1.37032 -0.610105 1
      vertex 1.37032 -0.610105 0
    endloop
  endfacet
  facet normal -0.866026 0.5 0
    outer loop
      vertex 1.37032 -0.610105 1
      vertex 1.21352 -0.881678 0
      vertex 1.21352 -0.881678 1
    endloop
  endfacet
  facet normal -0.587787 0.809016 0
    outer loop
      vertex 1.0037 -1.11472 0
      vertex 0.75 -1.29904 1
      vertex 1.0037 -1.11472 1
    endloop
  endfacet
  facet normal -0.587787 0.809016 0
    outer loop
      vertex 0.75 -1.29904 1
      vertex 1.0037 -1.11472 0
      vertex 0.75 -1.29904 0
    endloop
  endfacet
  facet normal 0.207912 0.978148 -0
    outer loop
      vertex -0.156793 -1.49178 0
      vertex -0.463525 -1.42658 1
      vertex -0.156793 -1.49178 1
    endloop
  endfacet
  facet normal 0.207912 0.978148 0
    outer loop
      vertex -0.463525 -1.42658 1
      vertex -0.156793 -1.49178 0
      vertex -0.463525 -1.42658 0
    endloop
  endfacet
  facet normal 0.743145 0.669131 0
    outer loop
      vertex -1.0037 -1.11472 1
      vertex -1.21352 -0.881678 0
      vertex -1.21352 -0.881678 1
    endloop
  endfacet
  facet normal 0.743145 0.669131 0
    outer loop
      vertex -1.21352 -0.881678 0
      vertex -1.0037 -1.11472 1
      vertex -1.0037 -1.11472 0
    endloop
  endfacet
  facet normal 0.866026 0.5 0
    outer loop
      vertex -1.21352 -0.881678 1
      vertex -1.37032 -0.610105 0
      vertex -1.37032 -0.610105 1
    endloop
  endfacet
  facet normal 0.866026 0.5 0
    outer loop
      vertex -1.37032 -0.610105 0
      vertex -1.21352 -0.881678 1
      vertex -1.21352 -0.881678 0
    endloop
  endfacet
  facet normal 0.951056 0.309018 0
    outer loop
      vertex -1.37032 -0.610105 1
      vertex -1.46722 -0.311867 0
      vertex -1.46722 -0.311867 1
    endloop
  endfacet
  facet normal 0.951056 0.309018 0
    outer loop
      vertex -1.46722 -0.311867 0
      vertex -1.37032 -0.610105 1
      vertex -1.37032 -0.610105 0
    endloop
  endfacet
  facet normal 0.994522 0.104529 0
    outer loop
      vertex -1.46722 -0.311867 1
      vertex -1.5 0 0
      vertex -1.5 0 1
    endloop
  endfacet
  facet normal 0.994522 0.104529 0
    outer loop
      vertex -1.5 0 0
      vertex -1.46722 -0.311867 1
      vertex -1.46722 -0.311867 0
    endloop
  endfacet
  facet normal -0.406735 0.913546 0
    outer loop
      vertex 0.75 -1.29904 0
      vertex 0.463525 -1.42658 1
      vertex 0.75 -1.29904 1
    endloop
  endfacet
  facet normal -0.406735 0.913546 0
    outer loop
      vertex 0.463525 -1.42658 1
      vertex 0.75 -1.29904 0
      vertex 0.463525 -1.42658 0
    endloop
  endfacet
  facet normal -0.207912 0.978148 0
    outer loop
      vertex 0.463525 -1.42658 0
      vertex 0.156793 -1.49178 1
      vertex 0.463525 -1.42658 1
    endloop
  endfacet
  facet normal -0.207912 0.978148 0
    outer loop
      vertex 0.156793 -1.49178 1
      vertex 0.463525 -1.42658 0
      vertex 0.156793 -1.49178 0
    endloop
  endfacet
  facet normal -0.743145 0.669131 0
    outer loop
      vertex 1.0037 -1.11472 0
      vertex 1.21352 -0.881678 1
      vertex 1.21352 -0.881678 0
    endloop
  endfacet
  facet normal -0.743145 0.669131 0
    outer loop
      vertex 1.21352 -0.881678 1
      vertex 1.0037 -1.11472 0
      vertex 1.0037 -1.11472 1
    endloop
  endfacet
  facet normal 0.406735 0.913546 -0
    outer loop
      vertex -0.463525 -1.42658 0
      vertex -0.75 -1.29904 1
      vertex -0.463525 -1.42658 1
    endloop
  endfacet
  facet normal 0.406735 0.913546 0
    outer loop
      vertex -0.75 -1.29904 1
      vertex -0.463525 -1.42658 0
      vertex -0.75 -1.29904 0
    endloop
  endfacet
  facet normal 0.587787 0.809016 -0
    outer loop
      vertex -0.75 -1.29904 0
      vertex -1.0037 -1.11472 1
      vertex -0.75 -1.29904 1
    endloop
  endfacet
  facet normal 0.587787 0.809016 0
    outer loop
      vertex -1.0037 -1.11472 1
      vertex -0.75 -1.29904 0
      vertex -1.0037 -1.11472 0
    endloop
  endfacet
  facet normal -0.866025 -0.5 0
    outer loop
      vertex 3.2 0 1
      vertex 1.6 2.77128 3
      vertex 1.6 2.77128 1
    endloop
  endfacet
  facet normal -0.866025 -0.5 0
    outer loop
      vertex 1.6 2.77128 3
      vertex 3.2 0 1
      vertex 3.2 0 3
    endloop
  endfacet
  facet normal 0.866025 -0.5 0
    outer loop
      vertex -3.2 0 3
      vertex -1.6 2.77128 1
      vertex -1.6 2.77128 3
    endloop
  endfacet
  facet normal 0.866025 -0.5 0
    outer loop
      vertex -1.6 2.77128 1
      vertex -3.2 0 3
      vertex -3.2 0 1
    endloop
  endfacet
  facet normal 0 -1 0
    outer loop
      vertex -1.6 2.77128 1
      vertex 1.6 2.77128 3
      vertex -1.6 2.77128 3
    endloop
  endfacet
  facet normal 0 -1 -0
    outer loop
      vertex 1.6 2.77128 3
      vertex -1.6 2.77128 1
      vertex 1.6 2.77128 1
    endloop
  endfacet
  facet normal -0 0 1
    outer loop
      vertex 1.37032 0.610105 1
      vertex 3.2 0 1
      vertex 1.6 2.77128 1
    endloop
  endfacet
  facet normal 0 0 1
    outer loop
      vertex 1.46722 -0.311867 1
      vertex 3.2 0 1
      vertex 1.5 0 1
    endloop
  endfacet
  facet normal 0 0 1
    outer loop
      vertex 3.2 0 1
      vertex 1.46722 0.311867 1
      vertex 1.5 0 1
    endloop
  endfacet
  facet normal 0 0 1
    outer loop
      vertex 3.2 0 1
      vertex 1.37032 0.610105 1
      vertex 1.46722 0.311867 1
    endloop
  endfacet
  facet normal 0 0 1
    outer loop
      vertex 1.6 2.77128 1
      vertex 1.21352 0.881678 1
      vertex 1.37032 0.610105 1
    endloop
  endfacet
  facet normal 0 0 1
    outer loop
      vertex 1.6 2.77128 1
      vertex 1.0037 1.11472 1
      vertex 1.21352 0.881678 1
    endloop
  endfacet
  facet normal 0 0 1
    outer loop
      vertex 1.6 2.77128 1
      vertex 0.75 1.29904 1
      vertex 1.0037 1.11472 1
    endloop
  endfacet
  facet normal 0 0 1
    outer loop
      vertex 1.6 2.77128 1
      vertex 0.463525 1.42658 1
      vertex 0.75 1.29904 1
    endloop
  endfacet
  facet normal 0 0 1
    outer loop
      vertex 1.6 2.77128 1
      vertex 0.156793 1.49178 1
      vertex 0.463525 1.42658 1
    endloop
  endfacet
  facet normal 0 0 1
    outer loop
      vertex 1.6 2.77128 1
      vertex -0.156793 1.49178 1
      vertex 0.156793 1.49178 1
    endloop
  endfacet
  facet normal -0 0 1
    outer loop
      vertex -1.6 2.77128 1
      vertex -0.156793 1.49178 1
      vertex 1.6 2.77128 1
    endloop
  endfacet
  facet normal 0 0 1
    outer loop
      vertex -0.156793 1.49178 1
      vertex -1.6 2.77128 1
      vertex -0.463525 1.42658 1
    endloop
  endfacet
  facet normal 0 0 1
    outer loop
      vertex -1.37032 0.610105 1
      vertex -3.2 0 1
      vertex -1.46722 0.311867 1
    endloop
  endfacet
  facet normal 0 0 1
    outer loop
      vertex -3.2 0 1
      vertex -1.37032 0.610105 1
      vertex -1.6 2.77128 1
    endloop
  endfacet
  facet normal 0 0 1
    outer loop
      vertex -1.21352 0.881678 1
      vertex -1.6 2.77128 1
      vertex -1.37032 0.610105 1
    endloop
  endfacet
  facet normal 0 0 1
    outer loop
      vertex -1.0037 1.11472 1
      vertex -1.6 2.77128 1
      vertex -1.21352 0.881678 1
    endloop
  endfacet
  facet normal 0 0 1
    outer loop
      vertex -0.749999 1.29904 1
      vertex -1.6 2.77128 1
      vertex -1.0037 1.11472 1
    endloop
  endfacet
  facet normal 0 0 1
    outer loop
      vertex -0.463525 1.42658 1
      vertex -1.6 2.77128 1
      vertex -0.749999 1.29904 1
    endloop
  endfacet
  facet normal 0 0 1
    outer loop
      vertex 1.37032 -0.610105 1
      vertex 3.2 0 1
      vertex 1.46722 -0.311867 1
    endloop
  endfacet
  facet normal 0 0 1
    outer loop
      vertex 3.2 0 1
      vertex 1.37032 -0.610105 1
      vertex 1.6 -2.77128 1
    endloop
  endfacet
  facet normal -0 0 1
    outer loop
      vertex 1.21352 -0.881678 1
      vertex 1.6 -2.77128 1
      vertex 1.37032 -0.610105 1
    endloop
  endfacet
  facet normal -0 0 1
    outer loop
      vertex 1.0037 -1.11472 1
      vertex 1.6 -2.77128 1
      vertex 1.21352 -0.881678 1
    endloop
  endfacet
  facet normal -0 0 1
    outer loop
      vertex 0.75 -1.29904 1
      vertex 1.6 -2.77128 1
      vertex 1.0037 -1.11472 1
    endloop
  endfacet
  facet normal -0 0 1
    outer loop
      vertex 0.463525 -1.42658 1
      vertex 1.6 -2.77128 1
      vertex 0.75 -1.29904 1
    endloop
  endfacet
  facet normal -0 0 1
    outer loop
      vertex 0.156793 -1.49178 1
      vertex 1.6 -2.77128 1
      vertex 0.463525 -1.42658 1
    endloop
  endfacet
  facet normal -0 0 1
    outer loop
      vertex -0.156793 -1.49178 1
      vertex 1.6 -2.77128 1
      vertex 0.156793 -1.49178 1
    endloop
  endfacet
  facet normal 0 0 1
    outer loop
      vertex -1.6 -2.77128 1
      vertex -0.156793 -1.49178 1
      vertex -0.463525 -1.42658 1
    endloop
  endfacet
  facet normal 0 0 1
    outer loop
      vertex -1.6 -2.77128 1
      vertex -0.463525 -1.42658 1
      vertex -0.75 -1.29904 1
    endloop
  endfacet
  facet normal 0 0 1
    outer loop
      vertex -0.156793 -1.49178 1
      vertex -1.6 -2.77128 1
      vertex 1.6 -2.77128 1
    endloop
  endfacet
  facet normal 0 0 1
    outer loop
      vertex -1.0037 -1.11472 1
      vertex -1.6 -2.77128 1
      vertex -0.75 -1.29904 1
    endloop
  endfacet
  facet normal 0 0 1
    outer loop
      vertex -1.21352 -0.881678 1
      vertex -1.6 -2.77128 1
      vertex -1.0037 -1.11472 1
    endloop
  endfacet
  facet normal 0 0 1
    outer loop
      vertex -1.37032 -0.610105 1
      vertex -1.6 -2.77128 1
      vertex -1.21352 -0.881678 1
    endloop
  endfacet
  facet normal 0 0 1
    outer loop
      vertex -3.2 0 1
      vertex -1.37032 -0.610105 1
      vertex -1.46722 -0.311867 1
    endloop
  endfacet
  facet normal -0 0 1
    outer loop
      vertex -3.2 0 1
      vertex -1.46722 -0.311867 1
      vertex -1.5 0 1
    endloop
  endfacet
  facet normal 0 0 1
    outer loop
      vertex -1.46722 0.311867 1
      vertex -3.2 0 1
      vertex -1.5 0 1
    endloop
  endfacet
  facet normal 0 0 1
    outer loop
      vertex -1.37032 -0.610105 1
      vertex -3.2 0 1
      vertex -1.6 -2.77128 1
    endloop
  endfacet
  facet normal 0 1 -0
    outer loop
      vertex 1.6 -2.77128 1
      vertex -1.6 -2.77128 3
      vertex 1.6 -2.77128 3
    endloop
  endfacet
  facet normal 0 1 0
    outer loop
      vertex -1.6 -2.77128 3
      vertex 1.6 -2.77128 1
      vertex -1.6 -2.77128 1
    endloop
  endfacet
  facet normal 0.866025 0.5 0
    outer loop
      vertex -1.6 -2.77128 3
      vertex -3.2 0 1
      vertex -3.2 0 3
    endloop
  endfacet
  facet normal 0.866025 0.5 0
    outer loop
      vertex -3.2 0 1
      vertex -1.6 -2.77128 3
      vertex -1.6 -2.77128 1
    endloop
  endfacet
  facet normal -0.866025 0.5 0
    outer loop
      vertex 1.6 -2.77128 1
      vertex 3.2 0 3
      vertex 3.2 0 1
    endloop
  endfacet
  facet normal -0.866025 0.5 0
    outer loop
      vertex 3.2 0 3
      vertex 1.6 -2.77128 1
      vertex 1.6 -2.77128 3
    endloop
  endfacet
  facet normal 0 -1 0
    outer loop
      vertex -4 15 0
      vertex 4 15 1.36415
      vertex -4 15 1.36415
    endloop
  endfacet
  facet normal 0 -1 -0
    outer loop
      vertex 4 15 1.36415
      vertex -4 15 0
      vertex 4 15 0
    endloop
  endfacet
  facet normal 0 1 -0
    outer loop
      vertex 4 11 0
      vertex -4 11 1.36415
      vertex 4 11 1.36415
    endloop
  endfacet
  facet normal 0 1 0
    outer loop
      vertex -4 11 1.36415
      vertex 4 11 0
      vertex -4 11 0
    endloop
  endfacet
  facet normal 0 0.104528 -0.994522
    outer loop
      vertex -4 12.5634 4.05411
      vertex 4 13 4.1
      vertex 4 12.5634 4.05411
    endloop
  endfacet
  facet normal 0 0.104528 -0.994522
    outer loop
      vertex 4 13 4.1
      vertex -4 12.5634 4.05411
      vertex -4 13 4.1
    endloop
  endfacet
  facet normal 0 -0.978148 -0.207911
    outer loop
      vertex -4 15.0885 2.21951
      vertex 4 14.9972 2.64894
      vertex -4 14.9972 2.64894
    endloop
  endfacet
  facet normal 0 -0.978148 -0.207911
    outer loop
      vertex 4 14.9972 2.64894
      vertex -4 15.0885 2.21951
      vertex 4 15.0885 2.21951
    endloop
  endfacet
  facet normal 0 -0.669129 -0.743146
    outer loop
      vertex -4 14.2343 3.69894
      vertex 4 14.4052 3.54508
      vertex 4 14.2343 3.69894
    endloop
  endfacet
  facet normal 5.31973e-09 -0.66913 -0.743146
    outer loop
      vertex -4 14.5606 3.40517
      vertex 4 14.4052 3.54508
      vertex -4 14.2343 3.69894
    endloop
  endfacet
  facet normal 0 -0.66913 -0.743146
    outer loop
      vertex 4 14.4052 3.54508
      vertex -4 14.5606 3.40517
      vertex 4 14.5606 3.40517
    endloop
  endfacet
  facet normal 0 -0.809018 -0.587784
    outer loop
      vertex -4 14.8187 3.05
      vertex 4 14.5606 3.40517
      vertex -4 14.5606 3.40517
    endloop
  endfacet
  facet normal 0 -0.809018 -0.587784
    outer loop
      vertex 4 14.5606 3.40517
      vertex -4 14.8187 3.05
      vertex 4 14.8187 3.05
    endloop
  endfacet
  facet normal 0 -1 0
    outer loop
      vertex -4 15.0885 1.78049
      vertex 4 15.0885 2.21951
      vertex -4 15.0885 2.21951
    endloop
  endfacet
  facet normal 0 -1 -0
    outer loop
      vertex 4 15.0885 2.21951
      vertex -4 15.0885 1.78049
      vertex 4 15.0885 1.78049
    endloop
  endfacet
  facet normal 0 -0.309018 -0.951056
    outer loop
      vertex -4 13.4366 4.05411
      vertex 4 13.8541 3.91844
      vertex 4 13.4366 4.05411
    endloop
  endfacet
  facet normal -0 -0.309018 -0.951056
    outer loop
      vertex 4 13.8541 3.91844
      vertex -4 13.4366 4.05411
      vertex -4 13.8541 3.91844
    endloop
  endfacet
  facet normal 0 -0.499999 -0.866026
    outer loop
      vertex -4 13.8541 3.91844
      vertex 4 14.2343 3.69894
      vertex 4 13.8541 3.91844
    endloop
  endfacet
  facet normal -0 -0.499999 -0.866026
    outer loop
      vertex 4 14.2343 3.69894
      vertex -4 13.8541 3.91844
      vertex -4 14.2343 3.69894
    endloop
  endfacet
  facet normal 0 -0.104528 -0.994522
    outer loop
      vertex -4 13 4.1
      vertex 4 13.4366 4.05411
      vertex 4 13 4.1
    endloop
  endfacet
  facet normal -0 -0.104528 -0.994522
    outer loop
      vertex 4 13.4366 4.05411
      vertex -4 13 4.1
      vertex -4 13.4366 4.05411
    endloop
  endfacet
  facet normal 0 -0.913546 -0.406736
    outer loop
      vertex -4 14.9972 2.64894
      vertex 4 14.8187 3.05
      vertex -4 14.8187 3.05
    endloop
  endfacet
  facet normal 0 -0.913546 -0.406736
    outer loop
      vertex 4 14.8187 3.05
      vertex -4 14.9972 2.64894
      vertex 4 14.9972 2.64894
    endloop
  endfacet
  facet normal 0 -0.978148 0.207911
    outer loop
      vertex -4 15 1.36415
      vertex 4 15.0885 1.78049
      vertex -4 15.0885 1.78049
    endloop
  endfacet
  facet normal 0 -0.978148 0.207911
    outer loop
      vertex 4 15.0885 1.78049
      vertex -4 15 1.36415
      vertex 4 15 1.36415
    endloop
  endfacet
  facet normal 0 0.499999 -0.866026
    outer loop
      vertex -4 11.7657 3.69894
      vertex 4 12.1459 3.91844
      vertex 4 11.7657 3.69894
    endloop
  endfacet
  facet normal 0 0.499999 -0.866026
    outer loop
      vertex 4 12.1459 3.91844
      vertex -4 11.7657 3.69894
      vertex -4 12.1459 3.91844
    endloop
  endfacet
  facet normal 0 0.978148 0.207911
    outer loop
      vertex 4 11 1.36415
      vertex -4 10.9115 1.78049
      vertex 4 10.9115 1.78049
    endloop
  endfacet
  facet normal 0 0.978148 0.207911
    outer loop
      vertex -4 10.9115 1.78049
      vertex 4 11 1.36415
      vertex -4 11 1.36415
    endloop
  endfacet
  facet normal 0 1 -0
    outer loop
      vertex 4 10.9115 1.78049
      vertex -4 10.9115 2.21951
      vertex 4 10.9115 2.21951
    endloop
  endfacet
  facet normal 0 1 0
    outer loop
      vertex -4 10.9115 2.21951
      vertex 4 10.9115 1.78049
      vertex -4 10.9115 1.78049
    endloop
  endfacet
  facet normal 0 0.978148 -0.207911
    outer loop
      vertex 4 10.9115 2.21951
      vertex -4 11.0028 2.64894
      vertex 4 11.0028 2.64894
    endloop
  endfacet
  facet normal 0 0.978148 -0.207911
    outer loop
      vertex -4 11.0028 2.64894
      vertex 4 10.9115 2.21951
      vertex -4 10.9115 2.21951
    endloop
  endfacet
  facet normal 0 0.809018 -0.587784
    outer loop
      vertex 4 11.1813 3.05
      vertex -4 11.4394 3.40517
      vertex 4 11.4394 3.40517
    endloop
  endfacet
  facet normal 0 0.809018 -0.587784
    outer loop
      vertex -4 11.4394 3.40517
      vertex 4 11.1813 3.05
      vertex -4 11.1813 3.05
    endloop
  endfacet
  facet normal 0 0.66913 -0.743146
    outer loop
      vertex -4 11.4394 3.40517
      vertex 4 11.5948 3.54508
      vertex 4 11.4394 3.40517
    endloop
  endfacet
  facet normal 5.31973e-09 0.66913 -0.743146
    outer loop
      vertex -4 11.7657 3.69894
      vertex 4 11.5948 3.54508
      vertex -4 11.4394 3.40517
    endloop
  endfacet
  facet normal 0 0.669129 -0.743146
    outer loop
      vertex 4 11.5948 3.54508
      vertex -4 11.7657 3.69894
      vertex 4 11.7657 3.69894
    endloop
  endfacet
  facet normal 0 0.309018 -0.951056
    outer loop
      vertex -4 12.1459 3.91844
      vertex 4 12.5634 4.05411
      vertex 4 12.1459 3.91844
    endloop
  endfacet
  facet normal 0 0.309018 -0.951056
    outer loop
      vertex 4 12.5634 4.05411
      vertex -4 12.1459 3.91844
      vertex -4 12.5634 4.05411
    endloop
  endfacet
  facet normal 0 0.913546 -0.406736
    outer loop
      vertex 4 11.0028 2.64894
      vertex -4 11.1813 3.05
      vertex 4 11.1813 3.05
    endloop
  endfacet
  facet normal 0 0.913546 -0.406736
    outer loop
      vertex -4 11.1813 3.05
      vertex 4 11.0028 2.64894
      vertex -4 11.0028 2.64894
    endloop
  endfacet
endsolid OpenSCAD_Model
